<?xml version="1.0" encoding="utf-8" standalone="no"?>
<!DOCTYPE svg PUBLIC "-//W3C//DTD SVG 1.1//EN"
  "http://www.w3.org/Graphics/SVG/1.1/DTD/svg11.dtd">
<svg xmlns:xlink="http://www.w3.org/1999/xlink" width="338.4pt" height="338.4pt" viewBox="0 0 338.4 338.4" xmlns="http://www.w3.org/2000/svg" version="1.1">
 <metadata>
  <rdf:RDF xmlns:dc="http://purl.org/dc/elements/1.1/" xmlns:cc="http://creativecommons.org/ns#" xmlns:rdf="http://www.w3.org/1999/02/22-rdf-syntax-ns#">
   <cc:Work>
    <dc:type rdf:resource="http://purl.org/dc/dcmitype/StillImage"/>
    <dc:date>2024-12-01T17:05:03.885229</dc:date>
    <dc:format>image/svg+xml</dc:format>
    <dc:creator>
     <cc:Agent>
      <dc:title>Matplotlib v3.6.3, https://matplotlib.org/</dc:title>
     </cc:Agent>
    </dc:creator>
   </cc:Work>
  </rdf:RDF>
 </metadata>
 <defs>
  <style type="text/css">*{stroke-linejoin: round; stroke-linecap: butt}</style>
 </defs>
 <g id="figure_1">
  <g id="patch_1">
   <path d="M -0 338.4 
L 338.4 338.4 
L 338.4 0 
L -0 0 
z
" style="fill: #ffffff"/>
  </g>
  <g id="axes_1">
   <g id="patch_2">
    <path d="M 7.2 331.2 
L 331.2 331.2 
L 331.2 7.2 
L 7.2 7.2 
z
" style="fill: #ffffff"/>
   </g>
   <g id="patch_3">
    <path d="M 13.430769 324.969231 
L 13.430769 13.430769 
L 324.969231 13.430769 
L 324.969231 324.969231 
L 13.430769 324.969231 
z
" clip-path="url(#pfcbff40264)" style="fill: none; stroke: #000000; stroke-linejoin: miter"/>
   </g>
   <g id="patch_4">
    <path d="M 130.257692 247.084615 
L 130.052347 247.084345 
L 129.311458 247.078867 
L 128.97928 247.074123 
L 128.738609 247.0698 
L 128.331844 247.060802 
L 128.078347 247.054119 
L 127.604111 247.039398 
L 127.289911 247.028051 
L 126.853233 247.010173 
L 126.327013 246.985365 
L 126.040887 246.970379 
L 125.603359 246.945421 
L 125.29138 246.926116 
L 124.75608 246.890061 
L 124.392355 246.863448 
L 123.860264 246.821429 
L 123.58553 246.798296 
L 123.05788 246.751119 
L 122.908755 246.737129 
L 122.309848 246.67803 
L 122.09034 246.655198 
L 121.689075 246.611834 
L 121.093265 246.543562 
L 120.817312 246.510365 
L 120.449195 246.464524 
L 120.011053 246.40764 
L 119.728489 246.369613 
L 119.308354 246.311123 
L 118.71502 246.224542 
L 118.657619 246.215918 
L 118.266871 246.156049 
L 117.547728 246.04055 
L 117.267631 245.993695 
L 117.077057 245.961215 
L 116.633314 245.883699 
L 116.337999 245.830643 
L 115.91703 245.75298 
L 115.34232 245.643083 
L 114.941297 245.563744 
L 114.548218 245.48385 
L 114.397201 245.452594 
L 113.691324 245.302357 
L 113.288626 245.213578 
L 113.126416 245.177185 
L 112.74019 245.089067 
L 112.329775 244.99316 
L 111.713106 244.84464 
L 111.37372 244.760631 
L 111.142503 244.702469 
L 110.497966 244.536356 
L 110.23988 244.468191 
L 110.068538 244.422413 
L 109.510355 244.270376 
L 109.241028 244.195421 
L 108.689567 244.038688 
L 108.339477 243.936906 
L 107.956986 243.823668 
L 107.522501 243.692445 
L 107.111518 243.565771 
L 106.65416 243.421874 
L 106.578245 243.397689 
L 106.034323 243.2219 
L 105.638054 243.091046 
L 105.364893 242.99947 
L 105.005709 242.877341 
L 104.344993 242.647569 
L 103.870681 242.478503 
L 103.677476 242.408643 
L 103.256304 242.254352 
L 102.90979 242.125342 
L 102.355181 241.914944 
L 102.226175 241.86531 
L 101.535588 241.595124 
L 101.352269 241.522125 
L 101.005906 241.382729 
L 100.566328 241.203029 
L 100.120755 241.017674 
L 99.534528 240.768852 
L 99.275281 240.657005 
L 98.850166 240.471177 
L 98.566419 240.34546 
L 98.23829 240.198389 
L 97.891913 240.041158 
L 97.396813 239.812859 
L 97.116781 239.681865 
L 96.47358 239.375829 
L 96.0477 239.169206 
L 95.773842 239.034643 
L 95.309789 238.803573 
L 95.219005 238.757916 
L 94.728155 238.508479 
L 94.064773 238.164382 
L 93.894824 238.074924 
L 93.314927 237.765628 
L 93.14599 237.674337 
L 92.635037 237.394935 
L 92.383957 237.255811 
L 92.01352 237.048335 
L 91.459409 236.733003 
L 91.212207 236.590381 
L 90.726447 236.306587 
L 90.302143 236.054823 
L 89.75889 235.72714 
L 89.5735 235.613928 
L 88.974043 235.242968 
L 88.761033 235.109336 
L 88.481253 234.932354 
L 87.965305 234.601585 
L 87.497159 234.296468 
L 87.338189 234.191765 
L 86.772392 233.814565 
L 86.233505 233.448612 
L 85.953978 233.25618 
L 85.629486 233.03053 
L 85.347523 232.83246 
L 84.664582 232.344925 
L 84.588384 232.289838 
L 84.051447 231.897657 
L 83.75129 231.675338 
L 83.204594 231.264638 
L 82.99109 231.102194 
L 82.659097 230.847279 
L 82.00926 230.34002 
L 81.564016 229.986011 
L 81.357497 229.819999 
L 80.837477 229.396808 
L 80.468709 229.092157 
L 80.175875 228.847505 
L 79.738446 228.477475 
L 79.260404 228.066713 
L 78.852206 227.710591 
L 78.689768 227.567478 
L 78.391564 227.302651 
L 77.673669 226.653754 
L 77.378864 226.382539 
L 77.081282 226.105911 
L 76.4536 225.512813 
L 76.167844 225.238395 
L 75.773095 224.854667 
L 75.450724 224.537234 
L 75.195535 224.28332 
L 74.779624 223.864406 
L 74.230595 223.30155 
L 74.067822 223.132475 
L 73.386361 222.413391 
L 72.922621 221.913404 
L 72.712666 221.684124 
L 72.148425 221.058715 
L 71.870852 220.746001 
L 71.599155 220.436601 
L 71.016384 219.761653 
L 70.880294 219.601764 
L 70.491212 219.139775 
L 70.151168 218.729981 
L 69.728913 218.213062 
L 69.337924 217.726232 
L 68.814565 217.061837 
L 68.302771 216.397468 
L 67.877392 215.833801 
L 67.778336 215.701004 
L 67.113201 214.793712 
L 66.829188 214.397767 
L 66.504028 213.937944 
L 66.162311 213.446982 
L 65.721225 212.80112 
L 65.215286 212.04272 
L 65.019872 211.744566 
L 64.417471 210.806233 
L 64.262475 210.55994 
L 63.698652 209.646353 
L 63.272452 208.936519 
L 63.001519 208.476208 
L 62.710352 207.973318 
L 62.350817 207.340132 
L 61.940225 206.599691 
L 61.677856 206.116383 
L 61.415487 205.624774 
L 61.11467 205.050464 
L 60.813853 204.464238 
L 60.40046 203.638066 
L 60.372368 203.581024 
L 59.93003 202.666897 
L 59.581181 201.923753 
L 59.232331 201.159528 
L 59.008659 200.657727 
L 58.766548 200.103554 
L 58.524438 199.537329 
L 58.40092 199.243594 
L 58.140901 198.613971 
L 57.880882 197.968223 
L 57.632719 197.335859 
L 57.384556 196.686711 
L 57.073246 195.846767 
L 56.849285 195.223434 
L 56.625324 194.582823 
L 56.458585 194.093875 
L 56.291845 193.59399 
L 56.05829 192.874078 
L 55.824735 192.129199 
L 55.660687 191.589731 
L 55.504109 191.061268 
L 55.347531 190.51856 
L 55.190953 189.96049 
L 55.034375 189.385783 
L 54.877998 188.793749 
L 54.721621 188.181972 
L 54.609692 187.730878 
L 54.497764 187.267832 
L 54.379908 186.766309 
L 54.262053 186.249225 
L 54.144197 185.715119 
L 54.026342 185.162283 
L 53.914723 184.619608 
L 53.803104 184.056286 
L 53.691485 183.469872 
L 53.579866 182.857391 
L 53.476434 182.263369 
L 53.373001 181.640157 
L 53.321284 181.316206 
L 53.269568 180.983124 
L 53.217851 180.640115 
L 53.166135 180.286258 
L 53.092378 179.760664 
L 53.018621 179.206959 
L 52.981743 178.918074 
L 52.944865 178.62019 
L 52.907986 178.312424 
L 52.871108 177.993738 
L 52.834229 177.6629 
L 52.797351 177.318424 
L 52.760472 176.958494 
L 52.723594 176.580848 
L 52.686716 176.182613 
L 52.649837 175.760041 
L 52.631398 175.538118 
L 52.612959 175.308082 
L 52.59452 175.068978 
L 52.57608 174.81965 
L 52.550705 174.45713 
L 52.525329 174.067554 
L 52.512642 173.860518 
L 52.499954 173.643811 
L 52.487266 173.415941 
L 52.474579 173.174989 
L 52.461891 172.918413 
L 52.449203 172.642722 
L 52.436515 172.342889 
L 52.430172 172.181667 
L 52.423828 172.0112 
L 52.417484 171.82969 
L 52.41114 171.63467 
L 52.404796 171.422584 
L 52.398452 171.18798 
L 52.392108 170.921677 
L 52.385765 170.605772 
L 52.379421 170.194051 
L 52.373077 169.2 
L 52.373077 169.2 
L 52.389013 167.624511 
L 52.40495 166.972036 
L 52.420886 166.471452 
L 52.436823 166.049506 
L 52.45276 165.677821 
L 52.468696 165.341843 
L 52.484633 165.032928 
L 52.500569 164.745441 
L 52.516506 164.475468 
L 52.532442 164.220161 
L 52.548379 163.977368 
L 52.564315 163.745419 
L 52.580252 163.522982 
L 52.596188 163.308982 
L 52.628061 162.902882 
L 52.659934 162.521583 
L 52.691807 162.161052 
L 52.72368 161.818246 
L 52.755553 161.4908 
L 52.787426 161.176833 
L 52.819299 160.87482 
L 52.851172 160.583504 
L 52.883046 160.301835 
L 52.932355 159.883049 
L 52.981665 159.482544 
L 53.030975 159.098145 
L 53.080285 158.72808 
L 53.121201 158.430828 
L 53.162117 158.141716 
L 53.24395 157.585492 
L 53.325782 157.055266 
L 53.407615 156.54777 
L 53.489447 156.06037 
L 53.57128 155.590905 
L 53.653112 155.13758 
L 53.734945 154.698881 
L 53.849381 154.107511 
L 53.926818 153.720629 
L 54.004255 153.343562 
L 54.081692 152.975625 
L 54.15913 152.616211 
L 54.314004 151.920836 
L 54.468878 151.253719 
L 54.568195 150.839356 
L 54.667511 150.434666 
L 54.787444 149.957992 
L 54.907377 149.493573 
L 55.02731 149.040565 
L 55.147243 148.598212 
L 55.284769 148.103221 
L 55.422295 147.620457 
L 55.572837 147.105074 
L 55.723379 146.602446 
L 55.873921 146.111738 
L 56.024463 145.632205 
L 56.237514 144.971368 
L 56.450566 144.329908 
L 56.569542 143.979577 
L 56.732403 143.508656 
L 56.895264 143.047228 
L 57.051885 142.611974 
L 57.208506 142.18464 
L 57.521748 141.352278 
L 57.679136 140.944619 
L 58.004542 140.122594 
L 58.329947 139.326721 
L 58.518003 138.877892 
L 58.796772 138.226622 
L 59.075541 137.591225 
L 59.450516 136.759946 
L 59.723751 136.170067 
L 59.996987 135.59276 
L 60.078132 135.423638 
L 60.41189 134.738757 
L 60.651265 134.257783 
L 60.890639 133.784957 
L 61.164025 133.254507 
L 61.437411 132.733821 
L 61.683379 132.273358 
L 61.958697 131.766584 
L 62.234016 131.268578 
L 62.395254 130.980858 
L 62.785441 130.296161 
L 63.127969 129.708057 
L 63.470496 129.131511 
L 63.844558 128.514512 
L 63.983131 128.289172 
L 64.370245 127.668595 
L 64.856351 126.907236 
L 65.479557 125.95874 
L 65.872716 125.375485 
L 66.248989 124.82772 
L 66.390677 124.624023 
L 66.991791 123.774907 
L 67.370738 123.251722 
L 67.592132 122.950234 
L 68.211405 122.122706 
L 68.583526 121.636247 
L 68.732499 121.443703 
L 69.096846 120.97797 
L 69.723411 120.193734 
L 69.88148 119.999123 
L 70.4554 119.303115 
L 70.947075 118.719667 
L 71.086013 118.556879 
L 71.395146 118.197903 
L 71.923461 117.59447 
L 72.491685 116.959195 
L 72.835388 116.581635 
L 73.103379 116.290664 
L 73.616459 115.741755 
L 73.957343 115.382866 
L 74.157311 115.174446 
L 74.809082 114.505714 
L 74.941019 114.372279 
L 75.408212 113.904902 
L 75.775296 113.543178 
L 76.31125 113.02354 
L 76.483883 112.858268 
L 77.140534 112.238778 
L 77.307081 112.083924 
L 77.771099 111.657226 
L 78.157075 111.307522 
L 78.739171 110.788911 
L 79.086234 110.484626 
L 79.398265 110.214138 
L 79.942173 109.749501 
L 80.001934 109.698974 
L 80.663976 109.146052 
L 81.124572 108.768636 
L 81.197605 108.70933 
L 81.642747 108.351003 
L 82.139596 107.95735 
L 82.575103 107.617665 
L 83.036237 107.263359 
L 83.25128 107.099996 
L 83.511046 106.904219 
L 83.949843 106.577349 
L 84.512012 106.165517 
L 84.950958 105.849285 
L 85.32179 105.585709 
L 85.675481 105.337337 
L 86.002626 105.1102 
L 86.481417 104.782215 
L 86.754635 104.597389 
L 87.210317 104.29286 
L 87.787695 103.913611 
L 88.165869 103.669154 
L 88.385118 103.528843 
L 88.680417 103.341489 
L 89.025289 103.125026 
L 89.501526 102.830216 
L 90.013336 102.51863 
L 90.43374 102.266704 
L 90.748481 102.080439 
L 91.28977 101.76474 
L 91.598331 101.587375 
L 92.092546 101.30718 
L 92.194421 101.250013 
L 92.706496 100.965691 
L 93.072585 100.765498 
L 93.434533 100.570063 
L 93.80137 100.374497 
L 94.419048 100.05085 
L 94.671878 99.920399 
L 95.143651 99.680093 
L 95.413289 99.544556 
L 95.994289 99.256934 
L 96.378588 99.069981 
L 96.651212 98.938931 
L 97.149428 98.702793 
L 97.427198 98.573008 
L 97.602377 98.491841 
L 98.338057 98.156702 
L 98.386788 98.134827 
L 99.096147 97.820931 
L 99.421951 97.679581 
L 99.64131 97.585403 
L 100.195479 97.351015 
L 100.633414 97.169344 
L 100.982047 97.026945 
L 101.277943 96.907625 
L 101.582785 96.786168 
L 101.891856 96.664542 
L 102.516069 96.423523 
L 102.668958 96.365427 
L 103.386122 96.097797 
L 103.579733 96.026919 
L 103.97027 95.885713 
L 104.346144 95.752025 
L 104.803845 95.592154 
L 105.167395 95.467441 
L 105.739874 95.275106 
L 105.872102 95.231383 
L 106.564802 95.006602 
L 106.948731 94.885092 
L 107.067992 94.84779 
L 107.449687 94.729817 
L 108.062751 94.544807 
L 108.462229 94.427204 
L 108.753464 94.342926 
L 109.070618 94.252544 
L 109.559299 94.116115 
L 109.943916 94.011146 
L 110.409582 93.886882 
L 110.681781 93.815671 
L 111.20526 93.68167 
L 111.323452 93.65195 
L 111.789689 93.536626 
L 112.214091 93.434297 
L 112.76813 93.304489 
L 113.10123 93.228498 
L 113.418427 93.157562 
L 113.789233 93.076396 
L 114.083889 93.013247 
L 114.539242 92.917999 
L 114.950869 92.834337 
L 115.431194 92.739629 
L 115.917587 92.646916 
L 116.143094 92.605017 
L 116.666896 92.510342 
L 116.944361 92.461688 
L 117.306979 92.399659 
L 117.787226 92.320219 
L 117.978846 92.289381 
L 118.597992 92.193087 
L 118.972527 92.137309 
L 119.357252 92.081949 
L 119.606921 92.047071 
L 119.911293 92.005665 
L 120.464117 91.933583 
L 120.726179 91.900818 
L 121.121286 91.853123 
L 121.655148 91.791928 
L 121.876134 91.767689 
L 122.355465 91.717304 
L 122.664978 91.686362 
L 123.213908 91.634554 
L 123.431859 91.61507 
L 123.956036 91.570737 
L 124.357045 91.539227 
L 124.850836 91.503287 
L 125.063966 91.488749 
L 125.460332 91.463273 
L 125.815537 91.442167 
L 126.441607 91.408928 
L 126.897645 91.387897 
L 127.163066 91.376889 
L 127.650823 91.359024 
L 127.961759 91.349232 
L 128.242456 91.341461 
L 128.639261 91.332202 
L 129.24791 91.321931 
L 129.593729 91.318215 
L 129.748608 91.317048 
L 130.257692 91.315385 
z
" clip-path="url(#pfcbff40264)" style="fill: #808080; opacity: 0.5"/>
   </g>
   <g id="patch_5">
    <path d="M 169.2 101.749945 
L 169.041825 101.841515 
L 168.772376 101.998647 
L 168.53197 102.140068 
L 168.372256 102.234663 
L 168.31189 102.270551 
L 167.963937 102.47885 
L 167.881744 102.528414 
L 167.557074 102.725553 
L 167.397261 102.823389 
L 167.324944 102.867835 
L 167.09652 103.008938 
L 166.870539 103.149607 
L 166.612234 103.311714 
L 166.467389 103.403234 
L 166.181031 103.585485 
L 166.029216 103.682821 
L 165.926949 103.748669 
L 165.640691 103.93419 
L 165.486282 104.035003 
L 165.225345 104.206557 
L 165.088956 104.296824 
L 164.82632 104.47181 
L 164.745025 104.526287 
L 164.422359 104.743973 
L 164.366997 104.781559 
L 164.13233 104.941653 
L 163.900761 105.100867 
L 163.632236 105.287037 
L 163.510552 105.371952 
L 163.305718 105.515673 
L 163.196602 105.592635 
L 162.901789 105.801982 
L 162.699532 105.946799 
L 162.639929 105.989662 
L 162.294924 106.239451 
L 162.097034 106.38403 
L 162.001766 106.453974 
L 161.751253 106.638963 
L 161.61621 106.739328 
L 161.411845 106.892078 
L 161.213551 107.041291 
L 160.994893 107.206979 
L 160.697195 107.434519 
L 160.586586 107.519641 
L 160.342353 107.708719 
L 160.21924 107.804618 
L 160.049634 107.937385 
L 159.903586 108.052318 
L 159.654363 108.249754 
L 159.330193 108.509056 
L 159.259298 108.566142 
L 159.100815 108.694254 
L 158.898625 108.858696 
L 158.580607 109.119628 
L 158.504717 109.182311 
L 158.256874 109.388155 
L 157.965192 109.63264 
L 157.834659 109.742841 
L 157.707183 109.850935 
L 157.545899 109.988373 
L 157.202005 110.283968 
L 157.082196 110.387771 
L 156.897306 110.548801 
L 156.595591 110.813792 
L 156.417915 110.971137 
L 156.205909 111.160153 
L 155.995404 111.349211 
L 155.834936 111.494262 
L 155.661551 111.651903 
L 155.521579 111.779862 
L 155.389692 111.901004 
L 155.045125 112.220157 
L 154.823279 112.427696 
L 154.751917 112.494802 
L 154.472518 112.759173 
L 154.282493 112.940479 
L 154.186314 113.032714 
L 153.985898 113.225929 
L 153.653272 113.549678 
L 153.64169 113.561021 
L 153.422725 113.776354 
L 153.200553 113.996586 
L 153.011612 114.185278 
L 152.829703 114.368175 
L 152.612517 114.588136 
L 152.462929 114.740656 
L 152.125517 115.087779 
L 151.883377 115.339569 
L 151.853444 115.370853 
L 151.591213 115.64641 
L 151.312996 115.941737 
L 151.161301 116.104066 
L 150.931763 116.351473 
L 150.76698 116.530416 
L 150.593514 116.720008 
L 150.464329 116.86202 
L 150.299572 117.044164 
L 149.932495 117.454169 
L 149.863157 117.532274 
L 149.6012 117.829269 
L 149.491666 117.95436 
L 149.158947 118.337671 
L 149.079128 118.430382 
L 148.870164 118.674498 
L 148.557622 119.043459 
L 148.441971 119.181172 
L 148.227882 119.437817 
L 148.007338 119.704558 
L 147.883016 119.855993 
L 147.7035 120.076036 
L 147.427819 120.417173 
L 147.379684 120.477142 
L 147.067313 120.869282 
L 146.942574 121.027333 
L 146.648993 121.402661 
L 146.540204 121.542952 
L 146.354678 121.783736 
L 146.109928 122.104383 
L 145.990423 122.262205 
L 145.677085 122.680012 
L 145.601052 122.782281 
L 145.406444 123.045643 
L 145.195471 123.333792 
L 144.917163 123.718197 
L 144.736508 123.970387 
L 144.49363 124.312818 
L 144.257851 124.649024 
L 144.141502 124.81633 
L 144.038097 124.96581 
L 143.709748 125.445474 
L 143.592957 125.617956 
L 143.350055 125.979897 
L 143.241981 126.142353 
L 143.074762 126.39547 
L 142.839242 126.755649 
L 142.678391 127.00416 
L 142.346792 127.523107 
L 142.188602 127.773896 
L 141.931381 128.186265 
L 141.726273 128.519247 
L 141.526574 128.84709 
L 141.39945 129.057699 
L 141.274402 129.266349 
L 141.060279 129.627096 
L 140.886048 129.92394 
L 140.724628 130.20167 
L 140.393519 130.779759 
L 140.184091 131.151425 
L 140.128982 131.250022 
L 139.787069 131.869387 
L 139.722366 131.988108 
L 139.375683 132.632738 
L 139.292682 132.789255 
L 139.099615 133.156695 
L 138.940566 133.463012 
L 138.694737 133.943111 
L 138.414979 134.499669 
L 138.27029 134.791942 
L 138.038042 135.267638 
L 137.937016 135.477155 
L 137.713592 135.946289 
L 137.588225 136.213112 
L 137.368099 136.688083 
L 137.198642 137.059532 
L 137.029185 137.436229 
L 136.938486 137.640071 
L 136.743097 138.084634 
L 136.552648 138.525353 
L 136.37404 138.945593 
L 136.162722 139.451847 
L 136.031677 139.770928 
L 135.900632 140.094096 
L 135.748377 140.474886 
L 135.625653 140.786129 
L 135.502928 141.101355 
L 135.340713 141.524358 
L 135.160612 142.002841 
L 135.02991 142.356181 
L 134.899208 142.71488 
L 134.765928 143.086398 
L 134.617906 143.506115 
L 134.48978 143.875732 
L 134.361655 144.251482 
L 134.210787 144.702171 
L 134.023408 145.275076 
L 133.911103 145.625828 
L 133.798799 145.982421 
L 133.697304 146.309943 
L 133.595809 146.642677 
L 133.481434 147.024174 
L 133.367059 147.41295 
L 133.263406 147.771903 
L 133.140923 148.204627 
L 133.018441 148.64719 
L 132.924348 148.994261 
L 132.830255 149.347844 
L 132.694475 149.870284 
L 132.626586 150.137235 
L 132.558696 150.408223 
L 132.445223 150.870659 
L 132.331751 151.345789 
L 132.269643 151.611593 
L 132.207535 151.881699 
L 132.145387 152.156487 
L 132.083239 152.436008 
L 132.021092 152.720504 
L 131.958944 153.010238 
L 131.905397 153.264294 
L 131.85185 153.52265 
L 131.798302 153.785521 
L 131.744755 154.053143 
L 131.687172 154.34653 
L 131.634714 154.619142 
L 131.582256 154.897143 
L 131.529797 155.180851 
L 131.477339 155.470621 
L 131.409102 155.857268 
L 131.340866 156.255819 
L 131.272629 156.667408 
L 131.204393 157.093367 
L 131.167452 157.330503 
L 131.130512 157.572591 
L 131.093572 157.819948 
L 131.056631 158.072925 
L 131.025598 158.290076 
L 130.994565 158.511728 
L 130.963532 158.738167 
L 130.932499 158.969712 
L 130.901466 159.206715 
L 130.870433 159.449577 
L 130.8394 159.698746 
L 130.808367 159.954732 
L 130.770274 160.279139 
L 130.732181 160.615967 
L 130.706565 160.850203 
L 130.680949 161.091284 
L 130.655333 161.33984 
L 130.629717 161.596602 
L 130.604101 161.862433 
L 130.578486 162.138357 
L 130.55287 162.425607 
L 130.527254 162.72569 
L 130.510406 162.930936 
L 130.493558 163.143181 
L 130.476711 163.363187 
L 130.459863 163.591868 
L 130.443016 163.830332 
L 130.426168 164.079945 
L 130.409321 164.342426 
L 130.400897 164.479159 
L 130.392473 164.619988 
L 130.384049 164.765302 
L 130.375625 164.915559 
L 130.367202 165.071298 
L 130.358778 165.233164 
L 130.350354 165.401941 
L 130.34193 165.578594 
L 130.333506 165.76434 
L 130.325083 165.960741 
L 130.316659 166.169869 
L 130.308235 166.394568 
L 130.299811 166.638933 
L 130.291387 166.90925 
L 130.282964 167.216099 
L 130.27454 167.580108 
L 130.266116 168.054532 
L 130.257692 169.2 
L 130.257692 91.315385 
L 130.491563 91.315736 
L 130.560527 91.315973 
L 130.750962 91.316947 
L 130.973566 91.318675 
L 131.14919 91.320487 
L 131.375618 91.323408 
L 131.694437 91.328638 
L 131.821251 91.331081 
L 132.066484 91.336391 
L 132.156033 91.338523 
L 132.363977 91.343871 
L 132.627083 91.351434 
L 132.859647 91.35886 
L 133.073749 91.366311 
L 133.2616 91.373335 
L 133.443051 91.38055 
L 133.672514 91.390281 
L 133.768938 91.394573 
L 134.007448 91.405703 
L 134.14929 91.41267 
L 134.307593 91.420751 
L 134.57419 91.43509 
L 134.678482 91.44095 
L 134.973502 91.458284 
L 135.16686 91.470254 
L 135.44215 91.48813 
L 135.448167 91.488532 
L 135.680046 91.504367 
L 135.983429 91.526135 
L 136.050996 91.531146 
L 136.281853 91.54871 
L 136.492253 91.56532 
L 136.745786 91.586097 
L 136.849974 91.594877 
L 137.140515 91.620105 
L 137.318274 91.636081 
L 137.591098 91.6614 
L 137.615484 91.66371 
L 137.926908 91.693894 
L 138.153653 91.716666 
L 138.262297 91.727814 
L 138.51164 91.753982 
L 138.75054 91.779816 
L 138.856505 91.791514 
L 139.052807 91.813572 
L 139.245647 91.835732 
L 139.430159 91.857391 
L 139.56744 91.873795 
L 139.892878 91.913672 
L 140.073316 91.936381 
L 140.239661 91.957695 
L 140.36697 91.974254 
L 140.700824 92.018692 
L 140.828604 92.036089 
L 140.933833 92.050578 
L 141.239973 92.093562 
L 141.365647 92.111566 
L 141.70187 92.160763 
L 141.842292 92.181753 
L 141.963125 92.200025 
L 142.097275 92.220538 
L 142.342002 92.258576 
L 142.590893 92.298079 
L 142.844445 92.339171 
L 142.996155 92.364169 
L 143.104841 92.382267 
L 143.422866 92.436131 
L 143.55051 92.458132 
L 143.858144 92.512054 
L 143.99346 92.536175 
L 144.164496 92.567017 
L 144.298922 92.591533 
L 144.630459 92.653041 
L 144.754312 92.6764 
L 144.958471 92.715358 
L 145.034705 92.73005 
L 145.300237 92.78184 
L 145.600459 92.84155 
L 145.624855 92.846456 
L 145.999269 92.922768 
L 146.012674 92.925536 
L 146.239646 92.972771 
L 146.476862 93.022892 
L 146.651372 93.060256 
L 146.975362 93.130736 
L 147.038686 93.144681 
L 147.375489 93.219777 
L 147.47112 93.241385 
L 147.686429 93.290498 
L 147.953539 93.352322 
L 148.102481 93.387225 
L 148.256065 93.42354 
L 148.5125 93.484907 
L 148.616964 93.510169 
L 148.781653 93.550306 
L 149.137269 93.638271 
L 149.257741 93.668474 
L 149.51633 93.733993 
L 149.605697 93.756856 
L 149.879849 93.827695 
L 150.053608 93.873145 
L 150.137984 93.89537 
L 150.441469 93.976144 
L 150.695316 94.044715 
L 150.728421 94.053725 
L 150.954622 94.115711 
L 151.144113 94.168202 
L 151.33929 94.222806 
L 151.606262 94.298385 
L 151.84092 94.365666 
L 152.033967 94.421613 
L 152.156611 94.457437 
L 152.404744 94.530586 
L 152.591281 94.586167 
L 152.81507 94.653518 
L 153.017284 94.715006 
L 153.103862 94.741516 
L 153.323834 94.809366 
L 153.628985 94.90467 
L 153.652721 94.912141 
L 153.96933 95.012592 
L 154.195745 95.085339 
L 154.241154 95.100021 
L 154.543733 95.198638 
L 154.81362 95.287756 
L 154.897225 95.315585 
L 155.207303 95.419716 
L 155.342297 95.465504 
L 155.507949 95.522067 
L 155.727833 95.59779 
L 155.800326 95.622917 
L 156.059048 95.713244 
L 156.233548 95.774744 
L 156.458092 95.854568 
L 156.58418 95.899732 
L 156.788014 95.973261 
L 157.118553 96.093861 
L 157.270352 96.149815 
L 157.440832 96.213082 
L 157.657971 96.294321 
L 157.849253 96.366498 
L 157.976543 96.414846 
L 158.168171 96.488113 
L 158.440454 96.593215 
L 158.681485 96.687233 
L 158.775175 96.724028 
L 159.105948 96.855052 
L 159.205949 96.895009 
L 159.472945 97.002477 
L 159.517194 97.020398 
L 159.74628 97.113687 
L 159.975136 97.207731 
L 160.280484 97.334533 
L 160.375806 97.37443 
L 160.6193 97.477019 
L 160.872732 97.58483 
L 161.019643 97.647811 
L 161.101055 97.682867 
L 161.30688 97.771986 
L 161.494759 97.853949 
L 161.679407 97.935078 
L 161.977542 98.067276 
L 162.212561 98.172543 
L 162.407121 98.260395 
L 162.465103 98.286701 
L 162.697003 98.392483 
L 162.885824 98.479293 
L 163.128787 98.591895 
L 163.257928 98.65216 
L 163.53201 98.781018 
L 163.759307 98.888869 
L 163.881364 98.947157 
L 164.020583 99.013958 
L 164.331147 99.164202 
L 164.574075 99.282912 
L 164.736593 99.362913 
L 164.963614 99.475454 
L 165.06276 99.524893 
L 165.285938 99.636825 
L 165.424689 99.706866 
L 165.682046 99.837701 
L 165.898363 99.948604 
L 166.025936 100.014408 
L 166.339353 100.177344 
L 166.482997 100.252624 
L 166.602258 100.315417 
L 166.842302 100.442603 
L 167.10812 100.584701 
L 167.306462 100.691592 
L 167.485737 100.788846 
L 167.665264 100.886847 
L 167.871162 100.999998 
L 167.984689 101.062734 
L 168.269173 101.221028 
L 168.477656 101.338025 
L 168.706087 101.467185 
L 168.768362 101.502573 
L 168.996686 101.632969 
z
" clip-path="url(#pfcbff40264)" style="fill: #808080; opacity: 0.5"/>
   </g>
   <g id="patch_6">
    <path d="M 169.2 236.650055 
L 169.058587 236.568213 
L 168.77208 236.401179 
L 168.628115 236.316629 
L 168.369461 236.163677 
L 168.256365 236.096374 
L 168.010001 235.948867 
L 167.880014 235.870541 
L 167.614897 235.709716 
L 167.393305 235.574182 
L 167.172766 235.438282 
L 167.123 235.407474 
L 166.806707 235.210465 
L 166.731618 235.163385 
L 166.475544 235.001931 
L 166.238707 234.851364 
L 166.053229 234.732609 
L 165.93551 234.656853 
L 165.657311 234.476629 
L 165.515563 234.384154 
L 165.299512 234.242356 
L 165.096199 234.10798 
L 164.828806 233.929853 
L 164.648806 233.809045 
L 164.478142 233.693829 
L 164.387916 233.632651 
L 164.147533 233.468757 
L 163.846922 233.26194 
L 163.799932 233.229423 
L 163.483231 233.008935 
L 163.277521 232.864466 
L 163.107637 232.744408 
L 162.853289 232.563382 
L 162.670426 232.43228 
L 162.623179 232.398277 
L 162.413003 232.246364 
L 162.152977 232.056939 
L 161.965697 231.919486 
L 161.666646 231.698209 
L 161.643571 231.681044 
L 161.42016 231.514158 
L 161.085341 231.261705 
L 160.943198 231.153671 
L 160.839045 231.074184 
L 160.545277 230.848487 
L 160.423778 230.75449 
L 160.11576 230.514469 
L 159.910348 230.353016 
L 159.808532 230.272575 
L 159.585094 230.095076 
L 159.353727 229.909865 
L 159.284802 229.85441 
L 159.111623 229.714505 
L 158.801161 229.461634 
L 158.552016 229.256775 
L 158.460296 229.180923 
L 158.257323 229.012219 
L 158.018966 228.812615 
L 157.823909 228.648062 
L 157.656173 228.505678 
L 157.484583 228.359177 
L 157.305957 228.205752 
L 157.077029 228.007743 
L 156.879563 227.835692 
L 156.66561 227.64795 
L 156.477666 227.481885 
L 156.286395 227.311769 
L 155.997083 227.052302 
L 155.800669 226.874658 
L 155.70949 226.791779 
L 155.452485 226.556742 
L 155.386545 226.496097 
L 155.153373 226.280523 
L 154.991934 226.13023 
L 154.629046 225.789258 
L 154.613682 225.774725 
L 154.422143 225.592882 
L 154.111419 225.295244 
L 153.930665 225.120579 
L 153.762903 224.957454 
L 153.606708 224.804692 
L 153.401804 224.602983 
L 153.162451 224.365466 
L 153.038238 224.241391 
L 152.717105 223.918007 
L 152.514018 223.711528 
L 152.361882 223.555841 
L 152.251775 223.442619 
L 151.975603 223.156599 
L 151.832045 223.006762 
L 151.633469 222.798176 
L 151.379767 222.529423 
L 151.247831 222.388644 
L 150.912956 222.028161 
L 150.859895 221.970622 
L 150.58943 221.675514 
L 150.320072 221.378562 
L 150.267139 221.319844 
L 149.960589 220.977417 
L 149.817683 220.816388 
L 149.69912 220.682105 
L 149.475453 220.427077 
L 149.32651 220.256001 
L 149.107741 220.002886 
L 148.785474 219.625981 
L 148.560556 219.360026 
L 148.423456 219.196721 
L 148.172018 218.894845 
L 148.009681 218.698288 
L 147.914137 218.581988 
L 147.720388 218.344734 
L 147.496531 218.068222 
L 147.355234 217.89235 
L 146.989995 217.432852 
L 146.815365 217.210618 
L 146.622456 216.963178 
L 146.470636 216.766987 
L 146.370334 216.636659 
L 146.050411 216.217121 
L 145.845122 215.944775 
L 145.758416 215.828997 
L 145.45805 215.424422 
L 145.411269 215.360915 
L 145.190704 215.059665 
L 144.98495 214.775887 
L 144.795885 214.512736 
L 144.634363 214.286076 
L 144.274739 213.775183 
L 144.066522 213.475354 
L 143.870287 213.190007 
L 143.712428 212.958472 
L 143.525444 212.681884 
L 143.317041 212.37057 
L 143.128629 212.086302 
L 143.048655 211.964818 
L 142.831465 211.632384 
L 142.635752 211.329614 
L 142.380645 210.930289 
L 142.156169 210.574423 
L 141.920711 210.196505 
L 141.875409 210.123239 
L 141.529079 209.557045 
L 141.363656 209.282726 
L 141.284872 209.151178 
L 141.110678 208.858214 
L 140.898488 208.497354 
L 140.533948 207.866821 
L 140.365429 207.570666 
L 140.244596 207.356442 
L 140.029224 206.970638 
L 139.903597 206.743197 
L 139.599049 206.184254 
L 139.380856 205.776989 
L 139.194941 205.425321 
L 138.990585 205.033678 
L 138.850913 204.762846 
L 138.675685 204.419336 
L 138.387275 203.844607 
L 138.31463 203.697953 
L 138.158457 203.380024 
L 137.990074 203.033082 
L 137.821691 202.681699 
L 137.606677 202.226324 
L 137.536331 202.075665 
L 137.319619 201.606173 
L 137.1746 201.287346 
L 136.994126 200.885162 
L 136.813651 200.476765 
L 136.659452 200.12272 
L 136.549464 199.867215 
L 136.418402 199.559425 
L 136.241678 199.138484 
L 136.064954 198.710481 
L 135.910565 198.330546 
L 135.664194 197.712038 
L 135.601516 197.552192 
L 135.457628 197.181255 
L 135.31374 196.804584 
L 135.23466 196.59504 
L 135.049136 196.096125 
L 134.863612 195.586474 
L 134.789779 195.380524 
L 134.67519 195.057222 
L 134.560601 194.729311 
L 134.412902 194.299562 
L 134.264796 193.860222 
L 134.116689 193.412004 
L 133.973863 192.970887 
L 133.870571 192.646161 
L 133.76728 192.316413 
L 133.63608 191.889983 
L 133.50488 191.45461 
L 133.361701 190.968653 
L 133.229401 190.508911 
L 133.0971 190.03819 
L 133.082569 189.985786 
L 132.99019 189.649267 
L 132.897812 189.306693 
L 132.805433 188.957749 
L 132.713054 188.602089 
L 132.611597 188.203292 
L 132.51014 187.79539 
L 132.444116 187.524769 
L 132.378093 187.249849 
L 132.257748 186.737015 
L 132.197575 186.474576 
L 132.137403 186.207874 
L 132.079959 185.9491 
L 132.022514 185.686064 
L 131.920355 185.207101 
L 131.850872 184.872594 
L 131.78139 184.530476 
L 131.711907 184.180224 
L 131.642424 183.821254 
L 131.597221 183.582735 
L 131.552019 183.340049 
L 131.506817 183.092977 
L 131.461614 182.841282 
L 131.404071 182.513764 
L 131.346527 182.177728 
L 131.288984 181.832495 
L 131.23144 181.477288 
L 131.197206 181.260872 
L 131.162972 181.040402 
L 131.128737 180.815648 
L 131.094503 180.586355 
L 131.053137 180.302841 
L 131.011771 180.011738 
L 130.970406 179.712414 
L 130.92904 179.404145 
L 130.887674 179.086097 
L 130.846308 178.757291 
L 130.804943 178.416576 
L 130.763577 178.062581 
L 130.724619 177.715563 
L 130.70514 177.536571 
L 130.685661 177.353604 
L 130.666183 177.166388 
L 130.646704 176.974617 
L 130.627225 176.777944 
L 130.607746 176.575977 
L 130.587066 176.355264 
L 130.566386 176.12746 
L 130.545706 175.891841 
L 130.525026 175.647552 
L 130.504346 175.393566 
L 130.483666 175.128637 
L 130.462986 174.851227 
L 130.442307 174.559397 
L 130.430768 174.389406 
L 130.41923 174.213628 
L 130.407691 174.031432 
L 130.396153 173.842062 
L 130.384615 173.644601 
L 130.373076 173.437918 
L 130.361538 173.220591 
L 130.349999 172.99079 
L 130.34423 172.870484 
L 130.338461 172.74609 
L 130.332692 172.617162 
L 130.326923 172.483164 
L 130.321153 172.343448 
L 130.315384 172.197216 
L 130.309615 172.043461 
L 130.303846 171.88089 
L 130.298077 171.70779 
L 130.292307 171.521805 
L 130.286538 171.319548 
L 130.280769 171.095816 
L 130.275 170.841855 
L 130.269231 170.540594 
L 130.263462 170.147961 
L 130.257692 169.2 
L 130.257692 247.084615 
L 130.50924 247.084209 
L 130.559869 247.084029 
L 130.942347 247.081606 
L 130.978984 247.081275 
L 131.290868 247.077762 
L 131.493761 247.074806 
L 131.541725 247.07403 
L 131.903536 247.067224 
L 131.935395 247.066544 
L 132.305154 247.057698 
L 132.419814 247.054599 
L 132.629387 247.048496 
L 132.815865 247.042592 
L 133.024322 247.035462 
L 133.221054 247.02822 
L 133.383434 247.021867 
L 133.526337 247.015996 
L 133.838819 247.002242 
L 133.976211 246.995796 
L 134.178099 246.985884 
L 134.396548 246.974566 
L 134.569582 246.965165 
L 134.816293 246.951093 
L 135.048638 246.937122 
L 135.128527 246.932157 
L 135.37708 246.916184 
L 135.573831 246.902973 
L 135.702753 246.894045 
L 135.862261 246.882702 
L 136.054302 246.868608 
L 136.355585 246.845534 
L 136.463247 246.837004 
L 136.646047 246.822176 
L 136.873873 246.803089 
L 137.047023 246.788133 
L 137.265392 246.768714 
L 137.535548 246.743834 
L 137.614545 246.736379 
L 137.957502 246.703072 
L 138.060295 246.692791 
L 138.29781 246.668509 
L 138.57276 246.639479 
L 138.720707 246.623451 
L 138.913871 246.602092 
L 139.061268 246.585466 
L 139.272439 246.561151 
L 139.426619 246.543029 
L 139.567766 246.526165 
L 139.888616 246.486859 
L 140.015658 246.470922 
L 140.158386 246.452764 
L 140.523925 246.405037 
L 140.626865 246.391279 
L 140.869504 246.358297 
L 140.935861 246.349141 
L 141.30881 246.296602 
L 141.342285 246.291797 
L 141.601001 246.254154 
L 141.824117 246.220979 
L 141.907869 246.208355 
L 142.177997 246.167004 
L 142.45075 246.124266 
L 142.514321 246.114162 
L 142.712108 246.082383 
L 143.021686 246.031594 
L 143.09859 246.018778 
L 143.324474 245.980678 
L 143.635827 245.927041 
L 143.846251 245.890054 
L 144.019777 245.859105 
L 144.067557 245.850512 
L 144.308606 245.806691 
L 144.521793 245.767283 
L 144.696475 245.734534 
L 144.845732 245.706225 
L 145.227575 245.632427 
L 145.413246 245.595828 
L 145.501169 245.578333 
L 145.664262 245.545602 
L 145.961719 245.484971 
L 146.130854 245.449958 
L 146.365895 245.40065 
L 146.469856 245.3786 
L 146.780004 245.311934 
L 146.92571 245.280158 
L 147.184025 245.223105 
L 147.324835 245.191618 
L 147.543466 245.142184 
L 147.617671 245.125256 
L 147.961806 245.045749 
L 148.086316 245.016578 
L 148.323509 244.960409 
L 148.479156 244.923124 
L 148.654369 244.880748 
L 148.802263 244.844644 
L 148.951085 244.808005 
L 149.17318 244.752747 
L 149.521085 244.664793 
L 149.553184 244.656592 
L 149.808792 244.590767 
L 150.10285 244.513897 
L 150.173409 244.495269 
L 150.389997 244.437648 
L 150.597787 244.381739 
L 150.892309 244.301438 
L 151.008034 244.269545 
L 151.224836 244.209281 
L 151.403428 244.15913 
L 151.639851 244.092033 
L 151.776793 244.0528 
L 151.88941 244.020332 
L 152.117842 243.953911 
L 152.443025 243.858049 
L 152.6165 243.80628 
L 152.66969 243.790319 
L 152.929629 243.711721 
L 153.149897 243.644343 
L 153.331173 243.588358 
L 153.560171 243.516941 
L 153.757045 243.454924 
L 153.846868 243.426438 
L 154.073912 243.353901 
L 154.408235 243.245693 
L 154.443151 243.234296 
L 154.681037 243.15616 
L 154.843678 243.10225 
L 155.108826 243.013512 
L 155.345989 242.93324 
L 155.493588 242.882853 
L 155.610648 242.842657 
L 155.876652 242.750542 
L 156.116867 242.666431 
L 156.351098 242.583564 
L 156.576364 242.503075 
L 156.749245 242.440774 
L 156.809874 242.418816 
L 157.054046 242.329808 
L 157.183472 242.282253 
L 157.394562 242.204134 
L 157.701891 242.089157 
L 157.753142 242.06984 
L 157.98265 241.982828 
L 158.243364 241.88298 
L 158.474176 241.793687 
L 158.670663 241.717008 
L 158.750431 241.685703 
L 159.072145 241.558418 
L 159.142373 241.530412 
L 159.469866 241.398769 
L 159.526762 241.375722 
L 159.887413 241.228418 
L 160.082774 241.147744 
L 160.113192 241.135127 
L 160.393368 241.018203 
L 160.513286 240.967767 
L 160.871218 240.815818 
L 160.980932 240.768819 
L 161.250651 240.652431 
L 161.312457 240.62559 
L 161.478898 240.552993 
L 161.853664 240.387835 
L 162.003775 240.32102 
L 162.159031 240.251516 
L 162.337096 240.171298 
L 162.480636 240.106243 
L 162.752277 239.982168 
L 162.987749 239.873592 
L 163.097033 239.822879 
L 163.263303 239.745326 
L 163.454845 239.655393 
L 163.788834 239.497055 
L 164.010213 239.39103 
L 164.016251 239.388126 
L 164.37859 239.212696 
L 164.548165 239.129799 
L 164.636636 239.086347 
L 164.890686 238.960799 
L 165.068828 238.872076 
L 165.360527 238.725566 
L 165.553218 238.627942 
L 165.772249 238.516157 
L 165.924935 238.437715 
L 165.982462 238.408049 
L 166.253477 238.26748 
L 166.488596 238.144434 
L 166.628129 238.070927 
L 166.791723 237.984285 
L 167.021141 237.861941 
L 167.262389 237.732224 
L 167.481266 237.613587 
L 167.683935 237.502926 
L 167.872825 237.399084 
L 168.052068 237.299916 
L 168.199816 237.217708 
L 168.508068 237.044838 
L 168.588021 236.999699 
L 168.864588 236.842597 
L 168.910389 236.816436 
z
" clip-path="url(#pfcbff40264)" style="fill: #808080; opacity: 0.5"/>
   </g>
   <g id="patch_7">
    <path d="M 286.026923 169.2 
L 286.020139 170.227933 
L 286.013356 170.653685 
L 286.006572 170.980355 
L 285.999788 171.255732 
L 285.993005 171.498328 
L 285.986221 171.717637 
L 285.979437 171.9193 
L 285.972653 172.106991 
L 285.96587 172.283262 
L 285.959086 172.449973 
L 285.945519 172.760012 
L 285.931951 173.045085 
L 285.918384 173.310389 
L 285.904816 173.559536 
L 285.891249 173.795154 
L 285.877682 174.019228 
L 285.864114 174.2333 
L 285.836979 174.636112 
L 285.809845 175.010941 
L 285.780126 175.395365 
L 285.750407 175.757156 
L 285.720688 176.099875 
L 285.690969 176.426236 
L 285.66125 176.738364 
L 285.631531 177.037959 
L 285.601812 177.326409 
L 285.572093 177.604859 
L 285.542374 177.874275 
L 285.512655 178.135472 
L 285.453217 178.63592 
L 285.393779 179.110774 
L 285.334341 179.563553 
L 285.293372 179.86427 
L 285.252402 180.156582 
L 285.170462 180.718539 
L 285.088522 181.253769 
L 285.006583 181.765688 
L 284.924643 182.257039 
L 284.842704 182.730063 
L 284.760764 183.186618 
L 284.678824 183.628269 
L 284.568733 184.200493 
L 284.458642 184.750897 
L 284.372196 185.169265 
L 284.28575 185.576493 
L 284.199304 185.973391 
L 284.112858 186.360677 
L 284.012392 186.799535 
L 283.911926 187.227154 
L 283.81146 187.644314 
L 283.710994 188.05171 
L 283.562524 188.637189 
L 283.414054 189.204439 
L 283.265584 189.754968 
L 283.117114 190.290088 
L 283.030325 190.596218 
L 282.869972 191.149702 
L 282.70962 191.688426 
L 282.549267 192.213425 
L 282.388914 192.725619 
L 282.222148 193.245592 
L 282.055383 193.753424 
L 281.86549 194.317835 
L 281.675598 194.868435 
L 281.48444 195.409635 
L 281.293282 195.938517 
L 281.091745 196.483564 
L 280.782094 197.297595 
L 280.472442 198.085377 
L 280.267544 198.593257 
L 279.994195 199.255276 
L 279.720846 199.90059 
L 279.456014 200.510839 
L 279.191182 201.10722 
L 278.921782 201.700452 
L 278.775409 202.017348 
L 278.531629 202.537017 
L 278.28785 203.046953 
L 278.036939 203.562099 
L 277.786028 204.067829 
L 277.589032 204.458557 
L 277.287921 205.045467 
L 276.98681 205.620431 
L 276.663583 206.224966 
L 276.286786 206.913968 
L 275.921292 207.566947 
L 275.646526 208.048345 
L 275.303665 208.638121 
L 274.960805 209.216268 
L 274.795509 209.490992 
L 274.2469 210.384902 
L 274.05905 210.684893 
L 273.714751 211.226991 
L 273.370452 211.7594 
L 272.978842 212.353646 
L 272.565013 212.969035 
L 272.226789 213.462768 
L 272.090437 213.659533 
L 271.56843 214.40111 
L 271.060616 215.105336 
L 270.824264 215.427542 
L 270.514884 215.844132 
L 270.13666 216.345663 
L 269.733477 216.871178 
L 269.300383 217.425544 
L 268.639297 218.252295 
L 268.36318 218.590889 
L 267.926086 219.119066 
L 267.818979 219.24706 
L 267.184466 219.994063 
L 266.780199 220.460229 
L 266.330276 220.970393 
L 265.979013 221.362523 
L 265.484571 221.90558 
L 265.336833 222.065864 
L 264.97743 222.452063 
L 264.338506 223.125881 
L 264.16014 223.311143 
L 263.716356 223.766826 
L 263.181593 224.306174 
L 262.874481 224.611213 
L 262.597962 224.882987 
L 261.98729 225.473716 
L 261.684106 225.762259 
L 261.201674 226.215059 
L 261.013016 226.390048 
L 260.552334 226.81252 
L 260.090402 227.229379 
L 259.609953 227.655921 
L 259.522105 227.733151 
L 258.834131 228.329962 
L 258.700361 228.44438 
L 258.30161 228.782361 
L 257.853411 229.156814 
L 257.469583 229.47299 
L 256.882978 229.948336 
L 256.803844 230.011744 
L 256.168241 230.514949 
L 255.844832 230.766895 
L 255.386552 231.11926 
L 255.074435 231.356164 
L 254.595397 231.714988 
L 254.145888 232.046511 
L 253.919834 232.211359 
L 253.547582 232.480126 
L 253.146252 232.766172 
L 252.615207 233.138835 
L 252.491347 233.224808 
L 251.809943 233.691479 
L 251.744933 233.73545 
L 251.298622 234.034758 
L 250.691037 234.435105 
L 250.281619 234.700318 
L 249.98005 234.893353 
L 249.688459 235.07815 
L 249.208794 235.378222 
L 248.878967 235.581759 
L 248.535048 235.79159 
L 247.876546 236.186593 
L 247.863639 236.194247 
L 247.317699 236.514947 
L 246.97022 236.715973 
L 246.439096 237.01865 
L 245.960897 237.286472 
L 245.90954 237.314973 
L 245.356099 237.618908 
L 244.943754 237.841583 
L 244.366665 238.147874 
L 244.093485 238.29071 
L 243.703909 238.492033 
L 243.39706 238.648656 
L 243.127611 238.784782 
L 242.606023 239.044582 
L 242.350399 239.170135 
L 241.64015 239.512928 
L 241.562651 239.549797 
L 240.939306 239.842553 
L 240.670307 239.966818 
L 240.309529 240.131539 
L 239.701619 240.404095 
L 239.30857 240.577009 
L 238.874691 240.764893 
L 238.547968 240.904318 
L 238.470132 240.937273 
L 237.951581 241.154295 
L 237.312329 241.41581 
L 237.103888 241.499656 
L 236.892183 241.5841 
L 236.323539 241.807379 
L 236.080341 241.901304 
L 235.711937 242.041807 
L 235.049623 242.289053 
L 234.74203 242.401558 
L 234.525864 242.479747 
L 234.064932 242.644066 
L 233.588643 242.810443 
L 233.310694 242.905941 
L 232.890956 243.047936 
L 232.366822 243.221525 
L 232.021175 243.333751 
L 231.661185 243.448742 
L 231.169701 243.602638 
L 230.721583 243.739853 
L 230.490273 243.809529 
L 230.077754 243.931851 
L 229.543797 244.086511 
L 229.466105 244.108671 
L 228.957493 244.251591 
L 228.396082 244.405039 
L 228.191928 244.459724 
L 227.705017 244.587756 
L 227.389035 244.669045 
L 227.099218 244.742365 
L 226.697574 244.842021 
L 226.087383 244.989099 
L 225.747714 245.068722 
L 225.530171 245.118875 
L 224.892586 245.26209 
L 224.683156 245.307908 
L 224.054882 245.441742 
L 223.755124 245.503691 
L 223.423571 245.570782 
L 222.846661 245.683955 
L 222.762733 245.700042 
L 222.307854 245.785577 
L 221.735509 245.889231 
L 221.644163 245.905366 
L 221.161912 245.988692 
L 220.82536 246.044997 
L 220.10963 246.159707 
L 219.777656 246.210597 
L 219.446178 246.25995 
L 219.222536 246.292424 
L 218.724522 246.362362 
L 218.477648 246.395816 
L 218.049518 246.451929 
L 217.638631 246.503513 
L 217.026243 246.576282 
L 216.599357 246.624102 
L 216.346119 246.651345 
L 216.07224 246.679865 
L 215.435482 246.742394 
L 215.135404 246.770032 
L 214.866986 246.793763 
L 214.437265 246.829806 
L 213.990999 246.864703 
L 213.537776 246.897505 
L 213.070943 246.928514 
L 212.660429 246.953456 
L 212.605854 246.956608 
L 212.212977 246.978165 
L 211.672231 247.004582 
L 211.285027 247.021184 
L 210.977511 247.032994 
L 210.387667 247.052243 
L 210.150702 247.058716 
L 209.713279 247.06877 
L 209.244583 247.076815 
L 208.814484 247.081715 
L 208.361526 247.084307 
L 208.142308 247.084615 
L 208.142308 91.315385 
L 208.593667 91.316692 
L 208.796952 91.318136 
L 209.507998 91.327359 
L 209.851841 91.334149 
L 210.291653 91.345048 
L 210.575537 91.353403 
L 211.049261 91.369653 
L 211.202506 91.375528 
L 211.810688 91.401823 
L 212.178418 91.420034 
L 212.642908 91.445528 
L 212.886445 91.460007 
L 213.347496 91.489516 
L 213.519727 91.501244 
L 213.845557 91.524481 
L 214.593424 91.583015 
L 214.745039 91.595765 
L 215.007601 91.618552 
L 215.761182 91.688929 
L 215.946637 91.707383 
L 216.291769 91.742918 
L 216.859002 91.804699 
L 217.023431 91.823395 
L 217.671473 91.900528 
L 218.005766 91.942473 
L 218.499283 92.007083 
L 218.545613 92.013314 
L 219.244798 92.110779 
L 219.456047 92.141499 
L 219.701232 92.177895 
L 220.119509 92.24183 
L 220.476325 92.29821 
L 221.167722 92.412293 
L 221.358483 92.444896 
L 221.719716 92.507971 
L 222.187637 92.592285 
L 222.493971 92.649082 
L 223.122603 92.769613 
L 223.507634 92.846087 
L 223.760079 92.897323 
L 224.283011 93.006227 
L 224.717175 93.099494 
L 224.852019 93.128988 
L 225.351834 93.240501 
L 225.623498 93.302561 
L 226.194017 93.436228 
L 226.3823 93.481337 
L 226.786147 93.579761 
L 227.266139 93.699719 
L 227.521208 93.764786 
L 228.045215 93.901344 
L 228.38271 93.991361 
L 228.724949 94.084301 
L 229.342887 94.256363 
L 229.576819 94.322934 
L 229.939236 94.427631 
L 230.403668 94.564585 
L 230.759974 94.671787 
L 231.239473 94.818993 
L 231.646547 94.946623 
L 232.168605 95.113899 
L 232.491639 95.219439 
L 232.776139 95.313684 
L 233.301146 95.4908 
L 233.53555 95.571225 
L 233.912528 95.702319 
L 234.521063 95.918525 
L 234.688259 95.978925 
L 235.238087 96.180605 
L 235.577104 96.307303 
L 235.908698 96.432969 
L 236.195558 96.543077 
L 236.879815 96.810989 
L 237.066191 96.885256 
L 237.476199 97.050599 
L 238.035719 97.28062 
L 238.239532 97.365674 
L 238.708059 97.563779 
L 239.078855 97.723127 
L 239.510117 97.911334 
L 239.885641 98.077752 
L 240.131142 98.187833 
L 240.465745 98.339512 
L 241.206089 98.681919 
L 241.39819 98.772309 
L 241.726062 98.928066 
L 241.997562 99.058464 
L 242.533633 99.319745 
L 242.826279 99.464532 
L 243.284982 99.694563 
L 243.643475 99.876985 
L 244.331803 100.233822 
L 244.478356 100.310923 
L 245.061791 100.621833 
L 245.403753 100.807033 
L 245.646209 100.939684 
L 246.169722 101.22994 
L 246.619222 101.483382 
L 246.863282 101.622641 
L 247.264534 101.854141 
L 247.49323 101.987514 
L 248.132921 102.366145 
L 248.262295 102.443727 
L 248.974275 102.876824 
L 249.208324 103.021487 
L 249.486676 103.195026 
L 250.126553 103.600179 
L 250.425862 103.792704 
L 250.615513 103.915697 
L 251.081439 104.221201 
L 251.747725 104.666436 
L 251.892362 104.764404 
L 252.236245 104.999237 
L 252.759597 105.361839 
L 253.182869 105.659767 
L 253.595319 105.954153 
L 253.779099 106.086637 
L 254.157623 106.362081 
L 254.869565 106.889674 
L 255.159229 107.107952 
L 255.617542 107.457669 
L 256.062386 107.802285 
L 256.172898 107.888699 
L 256.692625 108.299426 
L 257.204438 108.710987 
L 257.263432 108.758885 
L 258.002256 109.366908 
L 258.118954 109.464348 
L 258.521706 109.803624 
L 259.158775 110.349907 
L 259.596202 110.731974 
L 259.743156 110.861627 
L 260.212918 111.280531 
L 260.618024 111.647306 
L 261.008107 112.005415 
L 261.303448 112.279823 
L 261.856875 112.801786 
L 262.115568 113.049306 
L 262.505316 113.42656 
L 263.012981 113.925933 
L 263.436438 114.349545 
L 263.570589 114.485112 
L 263.931126 114.852773 
L 264.313701 115.248282 
L 264.993543 115.96514 
L 265.440407 116.446412 
L 265.790221 116.828907 
L 265.99875 117.059369 
L 266.349186 117.450868 
L 266.891439 118.067301 
L 267.211345 118.437197 
L 267.679612 118.987226 
L 267.98893 119.356293 
L 268.311559 119.746239 
L 268.730313 120.260171 
L 269.274728 120.941938 
L 269.723696 121.516188 
L 270.101481 122.008113 
L 270.290802 122.257716 
L 270.62101 122.698118 
L 271.2592 123.56809 
L 271.480007 123.875071 
L 271.780219 124.297556 
L 272.135854 124.805864 
L 272.491489 125.322942 
L 272.754469 125.711129 
L 273.306054 126.542065 
L 273.586874 126.974153 
L 273.908434 127.476746 
L 274.311684 128.119262 
L 274.625473 128.629049 
L 275.119343 129.449654 
L 275.635549 130.332588 
L 275.89699 130.790154 
L 276.300086 131.510073 
L 276.670192 132.187268 
L 276.834858 132.493777 
L 277.123255 133.038663 
L 277.411651 133.594223 
L 277.723795 134.208145 
L 278.077551 134.920633 
L 278.363323 135.509908 
L 278.649095 136.112142 
L 278.880006 136.608722 
L 279.110917 137.114648 
L 279.318476 137.577755 
L 279.600334 138.219945 
L 279.882192 138.878352 
L 280.039288 139.252754 
L 280.343327 139.993389 
L 280.647366 140.756551 
L 280.849116 141.276294 
L 281.095442 141.926322 
L 281.341768 142.594506 
L 281.547295 143.166921 
L 281.752822 143.75387 
L 282.03131 144.574229 
L 282.178094 145.019106 
L 282.324878 145.473231 
L 282.577649 146.278542 
L 282.704035 146.693065 
L 282.830421 147.116089 
L 282.96911 147.590673 
L 283.107799 148.076827 
L 283.246488 148.575369 
L 283.385177 149.087221 
L 283.48587 149.467769 
L 283.586562 149.856326 
L 283.687255 150.253384 
L 283.787948 150.659491 
L 283.888889 151.076292 
L 284.037567 151.709348 
L 284.186246 152.367507 
L 284.334924 153.053838 
L 284.409263 153.408711 
L 284.483602 153.772102 
L 284.601459 154.367217 
L 284.719316 154.988207 
L 284.8319 155.608837 
L 284.888192 155.930391 
L 284.944484 156.260178 
L 285.000776 156.598844 
L 285.057068 156.947125 
L 285.11336 157.305867 
L 285.169652 157.676045 
L 285.228893 158.079222 
L 285.288134 158.497905 
L 285.347374 158.933989 
L 285.406615 159.389797 
L 285.465856 159.868217 
L 285.525097 160.372925 
L 285.554717 160.63658 
L 285.584338 160.908721 
L 285.613958 161.190212 
L 285.643578 161.482077 
L 285.667537 161.726577 
L 285.691497 161.979431 
L 285.715456 162.241549 
L 285.739415 162.514021 
L 285.763374 162.79817 
L 285.787333 163.095624 
L 285.811292 163.408434 
L 285.835251 163.739239 
L 285.85921 164.091533 
L 285.883169 164.470114 
L 285.895148 164.671305 
L 285.907128 164.881892 
L 285.919107 165.103326 
L 285.931087 165.33747 
L 285.943066 165.586795 
L 285.955046 165.854693 
L 285.967025 166.146049 
L 285.979005 166.468358 
L 285.990985 166.834238 
L 286.002964 167.268289 
L 286.014944 167.834022 
z
" clip-path="url(#pfcbff40264)" style="fill: #808080; opacity: 0.5"/>
   </g>
   <g id="patch_8">
    <path d="M 208.142308 169.2 
L 208.134302 168.083347 
L 208.126297 167.620855 
L 208.118292 167.266 
L 208.110287 166.966867 
L 208.102281 166.703346 
L 208.094276 166.465123 
L 208.086271 166.246071 
L 208.078265 166.042198 
L 208.07026 165.850731 
L 208.062255 165.669651 
L 208.05425 165.497434 
L 208.046244 165.332896 
L 208.038239 165.175094 
L 208.030234 165.023265 
L 208.022228 164.876779 
L 208.014223 164.735112 
L 208.006218 164.597817 
L 207.998213 164.464515 
L 207.982202 164.208617 
L 207.966191 163.965262 
L 207.950181 163.732776 
L 207.93417 163.509826 
L 207.91816 163.295331 
L 207.902149 163.088402 
L 207.886139 162.888293 
L 207.864908 162.632404 
L 207.843678 162.386184 
L 207.822448 162.148621 
L 207.801218 161.918866 
L 207.770362 161.597413 
L 207.739506 161.289133 
L 207.70865 160.992539 
L 207.677794 160.706408 
L 207.646938 160.429715 
L 207.616083 160.161594 
L 207.585227 159.901303 
L 207.554371 159.648203 
L 207.528183 159.438619 
L 207.501996 159.233511 
L 207.475808 159.032607 
L 207.449621 158.835662 
L 207.397246 158.452786 
L 207.344871 158.083336 
L 207.312178 157.858943 
L 207.279485 157.638997 
L 207.246792 157.423248 
L 207.214099 157.211471 
L 207.148713 156.799019 
L 207.083326 156.400186 
L 207.041166 156.149655 
L 206.999005 155.903978 
L 206.933147 155.529303 
L 206.867289 155.164934 
L 206.80143 154.81009 
L 206.735572 154.464083 
L 206.677076 154.163675 
L 206.618581 153.869376 
L 206.560085 153.580841 
L 206.50159 153.297754 
L 206.466091 153.128497 
L 206.373149 152.693924 
L 206.280207 152.271013 
L 206.205961 151.940981 
L 206.131716 151.617455 
L 206.05747 151.300084 
L 205.983225 150.988546 
L 205.895857 150.62902 
L 205.80849 150.276727 
L 205.676075 149.755698 
L 205.573955 149.363824 
L 205.471835 148.98006 
L 205.336562 148.483419 
L 205.201288 147.999273 
L 205.075343 147.559011 
L 204.965162 147.181659 
L 204.85498 146.811208 
L 204.727395 146.390424 
L 204.599809 145.977963 
L 204.502086 145.667399 
L 204.370143 145.255106 
L 204.2382 144.850507 
L 204.12657 144.513925 
L 203.979253 144.077406 
L 203.831937 143.649192 
L 203.701317 143.276126 
L 203.567286 142.89949 
L 203.433254 142.528846 
L 203.318224 142.215337 
L 203.203194 141.905913 
L 203.082092 141.584422 
L 202.96099 141.267156 
L 202.823867 140.912837 
L 202.68907 140.569442 
L 202.546645 140.211716 
L 202.325175 139.665423 
L 202.166418 139.280967 
L 202.00766 138.90222 
L 201.811977 138.442925 
L 201.662039 138.096422 
L 201.414407 137.534005 
L 201.377427 137.451037 
L 201.18855 137.031277 
L 200.999673 136.618019 
L 200.816004 136.222159 
L 200.682273 135.937533 
L 200.572545 135.706197 
L 200.378655 135.302155 
L 200.179294 134.892815 
L 199.858371 134.246333 
L 199.668586 133.870958 
L 199.500321 133.542299 
L 199.396945 133.342267 
L 199.144343 132.859353 
L 198.854412 132.314997 
L 198.765386 132.149909 
L 198.647544 131.932836 
L 198.340024 131.373959 
L 198.080111 130.909886 
L 198.041279 130.841186 
L 197.676733 130.204023 
L 197.536113 129.961914 
L 197.432489 129.784774 
L 197.233282 129.447218 
L 197.078742 129.187993 
L 196.794767 128.717523 
L 196.538254 128.298894 
L 196.393538 128.065304 
L 196.275533 127.87618 
L 196.007818 127.451535 
L 195.788778 127.10855 
L 195.528267 126.705701 
L 195.481637 126.634164 
L 195.233759 126.256734 
L 194.952655 125.834401 
L 194.839021 125.665355 
L 194.623507 125.347346 
L 194.440219 125.079522 
L 194.187522 124.714158 
L 194.096455 124.583571 
L 193.901182 124.305462 
L 193.617862 123.906488 
L 193.451009 123.673985 
L 193.213279 123.345803 
L 193.071736 123.152098 
L 192.805463 122.791061 
L 192.623085 122.546263 
L 192.502747 122.38583 
L 192.373698 122.214735 
L 192.110059 121.868213 
L 191.938401 121.644732 
L 191.774945 121.433475 
L 191.488212 121.066469 
L 191.27924 120.801818 
L 191.194424 120.695073 
L 190.951057 120.390894 
L 190.803593 120.20809 
L 190.533739 119.876461 
L 190.253982 119.536547 
L 190.209688 119.483086 
L 189.869375 119.075549 
L 189.794808 118.987002 
L 189.465501 118.599123 
L 189.438677 118.567754 
L 189.132372 118.21191 
L 188.945983 117.997482 
L 188.680423 117.694681 
L 188.587243 117.589179 
L 188.31872 117.287281 
L 188.12984 117.076801 
L 188.07663 117.017783 
L 187.835513 116.751856 
L 187.573979 116.466173 
L 187.348145 116.221764 
L 187.226469 116.090944 
L 187.054159 115.906711 
L 186.857662 115.698067 
L 186.707041 115.539173 
L 186.509337 115.33196 
L 186.252836 115.065379 
L 186.101522 114.909301 
L 185.824672 114.625976 
L 185.713501 114.513012 
L 185.416947 114.213911 
L 185.169231 113.966529 
L 184.991735 113.790634 
L 184.898876 113.69906 
L 184.654898 113.459913 
L 184.48479 113.294409 
L 184.271672 113.088474 
L 184.131841 112.954206 
L 183.858352 112.693517 
L 183.705886 112.549281 
L 183.539107 112.392393 
L 183.238867 112.112274 
L 183.149555 112.029516 
L 182.941748 111.83796 
L 182.623831 111.547586 
L 182.50371 111.438707 
L 182.231263 111.193437 
L 182.045728 111.027733 
L 181.880688 110.881224 
L 181.756777 110.771774 
L 181.505777 110.551495 
L 181.384558 110.445792 
L 181.086662 110.18789 
L 180.92855 110.052071 
L 180.655655 109.819374 
L 180.553459 109.732789 
L 180.300184 109.519498 
L 180.237284 109.466813 
L 179.954894 109.231663 
L 179.840274 109.136859 
L 179.56599 108.911485 
L 179.355737 108.740135 
L 179.166409 108.586876 
L 178.954367 108.41639 
L 178.87131 108.349942 
L 178.506346 108.060155 
L 178.423613 107.994956 
L 178.175201 107.800279 
L 178.091235 107.734843 
L 177.879848 107.570919 
L 177.590067 107.348083 
L 177.421051 107.219109 
L 177.204445 107.054882 
L 177.122278 106.992895 
L 176.77992 106.736445 
L 176.643592 106.63514 
L 176.365328 106.42979 
L 176.167624 106.285045 
L 176.075348 106.217814 
L 175.926247 106.109617 
L 175.605605 105.878754 
L 175.523233 105.819844 
L 175.342636 105.691251 
L 175.086961 105.510519 
L 174.908154 105.385036 
L 174.641939 105.199594 
L 174.49638 105.098894 
L 174.244279 104.925639 
L 174.100147 104.827238 
L 173.984935 104.748921 
L 173.774166 104.606426 
L 173.512718 104.431057 
L 173.263639 104.265403 
L 173.196949 104.221284 
L 172.878217 104.011779 
L 172.700328 103.89582 
L 172.619627 103.843441 
L 172.241883 103.600144 
L 172.091694 103.504265 
L 171.886507 103.374055 
L 171.712492 103.264328 
L 171.596324 103.191434 
L 171.433814 103.089938 
L 171.236784 102.967626 
L 170.88712 102.752555 
L 170.787543 102.691771 
L 170.515858 102.526967 
L 170.436997 102.479413 
L 170.120263 102.289696 
L 169.924426 102.173412 
L 169.859335 102.134933 
L 169.572054 101.966122 
L 169.407792 101.870341 
L 169.2 101.749945 
L 169.2 101.749945 
L 169.370297 101.65191 
L 169.578539 101.532806 
L 169.819588 101.396 
L 170.016431 101.285121 
L 170.082479 101.248085 
L 170.340579 101.104166 
L 170.666767 100.92411 
L 170.824532 100.837752 
L 170.975527 100.755543 
L 171.254066 100.605023 
L 171.401454 100.525965 
L 171.507296 100.469445 
L 171.67565 100.379972 
L 171.858619 100.283331 
L 172.109502 100.151827 
L 172.39002 100.006162 
L 172.526002 99.936069 
L 172.804548 99.793545 
L 172.940282 99.724603 
L 173.076127 99.65594 
L 173.239208 99.573949 
L 173.583256 99.402541 
L 173.759565 99.315522 
L 173.985073 99.205024 
L 174.109204 99.144585 
L 174.195866 99.102551 
L 174.567792 98.923651 
L 174.72681 98.847901 
L 174.782627 98.821416 
L 175.087343 98.677786 
L 175.352399 98.554157 
L 175.512023 98.480287 
L 175.719755 98.384808 
L 175.848406 98.326047 
L 175.971943 98.269887 
L 176.326918 98.109957 
L 176.477968 98.042548 
L 176.685554 97.950537 
L 176.838548 97.883186 
L 177.070423 97.781856 
L 177.237783 97.709276 
L 177.450012 97.617905 
L 177.542258 97.578423 
L 177.74714 97.491234 
L 178.001616 97.383902 
L 178.252522 97.279113 
L 178.37348 97.228962 
L 178.625234 97.125347 
L 178.709095 97.09106 
L 178.945594 96.994978 
L 179.276246 96.862155 
L 179.32348 96.843325 
L 179.563265 96.748281 
L 179.677855 96.703185 
L 180.039754 96.562133 
L 180.196828 96.501558 
L 180.282997 96.468493 
L 180.550983 96.366408 
L 180.690227 96.313811 
L 180.986225 96.20301 
L 181.08359 96.166863 
L 181.278762 96.094848 
L 181.58479 95.98312 
L 181.637821 95.963906 
L 181.826839 95.895775 
L 182.178158 95.770604 
L 182.262201 95.740941 
L 182.569552 95.633381 
L 182.769824 95.564069 
L 182.896983 95.520377 
L 183.047685 95.468913 
L 183.257066 95.397981 
L 183.498228 95.317102 
L 183.771597 95.226479 
L 183.90639 95.182208 
L 184.133251 95.10831 
L 184.208619 95.08393 
L 184.497341 94.991316 
L 184.647281 94.943707 
L 184.833652 94.884996 
L 184.971144 94.842011 
L 185.254631 94.754264 
L 185.383822 94.714668 
L 185.669131 94.628091 
L 185.863245 94.569867 
L 186.058674 94.511805 
L 186.167435 94.479733 
L 186.380602 94.417372 
L 186.526625 94.375034 
L 186.904814 94.266815 
L 187.023915 94.233162 
L 187.191842 94.186059 
L 187.358671 94.139666 
L 187.649307 94.059796 
L 187.790706 94.021375 
L 188.068533 93.946715 
L 188.131718 93.929889 
L 188.39562 93.860225 
L 188.502714 93.832237 
L 188.714685 93.777319 
L 188.921541 93.724339 
L 189.225634 93.64755 
L 189.362991 93.613291 
L 189.607759 93.552899 
L 189.792034 93.507987 
L 189.898262 93.482313 
L 190.227164 93.40382 
L 190.370589 93.370063 
L 190.475506 93.345551 
L 190.740928 93.284222 
L 190.915145 93.244499 
L 191.162015 93.188929 
L 191.303733 93.157409 
L 191.606341 93.091031 
L 191.607366 93.090809 
L 191.853769 93.037694 
L 192.031015 93.000003 
L 192.370634 92.928986 
L 192.568802 92.888276 
L 192.76798 92.847899 
L 192.834231 92.834588 
L 192.978263 92.805857 
L 193.306271 92.74148 
L 193.551007 92.694397 
L 193.68624 92.668729 
L 193.816703 92.644201 
L 194.04575 92.601695 
L 194.309374 92.553648 
L 194.364112 92.543789 
L 194.546921 92.511156 
L 194.904097 92.448693 
L 195.112307 92.413071 
L 195.205042 92.397393 
L 195.369733 92.369832 
L 195.618531 92.328885 
L 195.829227 92.294855 
L 195.99025 92.269247 
L 196.212277 92.234503 
L 196.457541 92.196886 
L 196.688146 92.162246 
L 196.702933 92.160049 
L 197.082144 92.104695 
L 197.261142 92.079228 
L 197.298866 92.073914 
L 197.576725 92.035359 
L 197.796279 92.005616 
L 197.99672 91.979016 
L 198.237617 91.947748 
L 198.395495 91.92767 
L 198.608633 91.901084 
L 198.843793 91.872444 
L 198.907712 91.864785 
L 199.08283 91.844075 
L 199.240734 91.825745 
L 199.603978 91.784819 
L 199.680245 91.776445 
L 199.916413 91.750998 
L 200.125987 91.729025 
L 200.269724 91.714287 
L 200.442407 91.696937 
L 200.659468 91.675679 
L 200.977328 91.645655 
L 201.122519 91.632379 
L 201.29636 91.616843 
L 201.508128 91.598447 
L 201.757209 91.577556 
L 201.926304 91.563832 
L 202.062535 91.553045 
L 202.24725 91.538802 
L 202.419232 91.525939 
L 202.677392 91.507349 
L 202.80466 91.498502 
L 202.974447 91.487025 
L 203.205607 91.471998 
L 203.425854 91.458323 
L 203.56838 91.449807 
L 203.909598 91.430485 
L 204.013435 91.424903 
L 204.150512 91.417747 
L 204.342044 91.408154 
L 204.626196 91.394793 
L 204.804005 91.386961 
L 204.996876 91.378926 
L 205.195851 91.371138 
L 205.384999 91.364208 
L 205.645106 91.355429 
L 205.747084 91.352224 
L 206.076141 91.342796 
L 206.166406 91.340453 
L 206.353612 91.335927 
L 206.543502 91.331796 
L 206.766002 91.327546 
L 206.948669 91.324532 
L 207.179595 91.321335 
L 207.427631 91.318664 
L 207.522276 91.317853 
L 207.727728 91.316488 
L 207.950294 91.315621 
L 208.142308 91.315385 
z
" clip-path="url(#pfcbff40264)" style="fill: #808080; opacity: 0.5"/>
   </g>
   <g id="patch_9">
    <path d="M 208.142308 169.2 
L 208.138713 169.94827 
L 208.135119 170.258201 
L 208.131524 170.496011 
L 208.127929 170.696487 
L 208.124335 170.873105 
L 208.12074 171.032773 
L 208.117146 171.179598 
L 208.113551 171.316255 
L 208.109957 171.444602 
L 208.106362 171.565991 
L 208.102768 171.681443 
L 208.099173 171.791753 
L 208.095579 171.897551 
L 208.091984 171.999349 
L 208.084795 172.19256 
L 208.077606 172.374016 
L 208.070417 172.54563 
L 208.063228 172.708845 
L 208.056038 172.864785 
L 208.048849 173.014341 
L 208.04166 173.158237 
L 208.034471 173.29707 
L 208.027282 173.431338 
L 208.018598 173.588029 
L 208.009915 173.739299 
L 208.001231 173.885671 
L 207.992547 174.027592 
L 207.97518 174.299554 
L 207.957812 174.557672 
L 207.940445 174.80386 
L 207.923078 175.039627 
L 207.90571 175.266188 
L 207.888343 175.484539 
L 207.870975 175.695507 
L 207.853608 175.899791 
L 207.83624 176.097984 
L 207.818873 176.290596 
L 207.801506 176.478072 
L 207.784138 176.660798 
L 207.766771 176.839114 
L 207.749403 177.013324 
L 207.719256 177.306758 
L 207.689108 177.589827 
L 207.65896 177.863547 
L 207.628812 178.128778 
L 207.598665 178.386256 
L 207.568517 178.636615 
L 207.538369 178.880407 
L 207.508221 179.118118 
L 207.467955 179.426861 
L 207.427688 179.7264 
L 207.399344 179.932139 
L 207.371001 180.133935 
L 207.314314 180.526533 
L 207.257627 180.905697 
L 207.20094 181.272692 
L 207.157517 181.546265 
L 207.114094 181.813757 
L 207.070671 182.075546 
L 207.027247 182.331974 
L 206.983438 182.585561 
L 206.939629 182.834291 
L 206.89582 183.078427 
L 206.852011 183.318205 
L 206.779462 183.706279 
L 206.706913 184.083884 
L 206.634364 184.451798 
L 206.561815 184.810707 
L 206.485722 185.178137 
L 206.409628 185.536952 
L 206.348911 185.817451 
L 206.288195 186.093075 
L 206.227478 186.364059 
L 206.166762 186.63062 
L 206.085328 186.981534 
L 206.003895 187.32529 
L 205.930314 187.630073 
L 205.856734 187.929608 
L 205.783153 188.224144 
L 205.709573 188.513907 
L 205.614919 188.879983 
L 205.516908 189.251527 
L 205.418898 189.61584 
L 205.297107 190.059041 
L 205.175316 190.492322 
L 205.078496 190.830087 
L 204.992478 191.125444 
L 204.906461 191.416541 
L 204.820443 191.703545 
L 204.734425 191.986609 
L 204.641379 192.288535 
L 204.548333 192.586193 
L 204.483175 192.792182 
L 204.337102 193.246921 
L 204.191028 193.692348 
L 203.998648 194.265609 
L 203.923496 194.485623 
L 203.731187 195.039097 
L 203.615647 195.365317 
L 203.500107 195.687015 
L 203.337133 196.133411 
L 203.174159 196.571557 
L 203.13943 196.663897 
L 202.996135 197.041198 
L 202.852839 197.412727 
L 202.648891 197.931997 
L 202.438875 198.455602 
L 202.305291 198.78305 
L 202.04608 199.406634 
L 201.787374 200.014248 
L 201.728488 200.150584 
L 201.483908 200.709357 
L 201.282091 201.161667 
L 201.052394 201.667269 
L 200.959253 201.869598 
L 200.775922 202.263462 
L 200.599966 202.636176 
L 200.296164 203.267958 
L 200.150757 203.565285 
L 199.876986 204.116576 
L 199.807203 204.255368 
L 199.558561 204.744379 
L 199.354028 205.140362 
L 199.181745 205.46966 
L 198.98886 205.833863 
L 198.782636 206.218176 
L 198.630749 206.497968 
L 198.301074 207.096062 
L 198.147615 207.370298 
L 198.051305 207.541093 
L 197.838778 207.91447 
L 197.581021 208.360985 
L 197.362356 208.734509 
L 197.234698 208.950397 
L 196.929507 209.460184 
L 196.858269 209.57792 
L 196.688678 209.856334 
L 196.423629 210.286276 
L 196.137909 210.742874 
L 195.920315 211.085956 
L 195.766234 211.326527 
L 195.672897 211.471318 
L 195.360223 211.951302 
L 195.202712 212.190205 
L 195.02658 212.45511 
L 194.89218 212.655683 
L 194.735279 212.888146 
L 194.407643 213.367829 
L 194.274126 213.561126 
L 194.076849 213.844468 
L 193.864777 214.146102 
L 193.569432 214.561183 
L 193.432103 214.752246 
L 193.293991 214.943179 
L 193.023544 215.313569 
L 192.917161 215.458019 
L 192.712931 215.733392 
L 192.557212 215.941664 
L 192.342846 216.226025 
L 192.19011 216.426993 
L 191.88362 216.826236 
L 191.614335 217.172656 
L 191.429868 217.407657 
L 191.405692 217.43832 
L 191.158931 217.749485 
L 190.882457 218.094286 
L 190.693857 218.327216 
L 190.562486 218.488388 
L 190.398867 218.687902 
L 190.179914 218.952796 
L 189.865831 219.328666 
L 189.74094 219.4768 
L 189.502515 219.757535 
L 189.309828 219.982464 
L 189.119092 220.203421 
L 188.869552 220.489991 
L 188.815863 220.55128 
L 188.58119 220.817661 
L 188.458659 220.95578 
L 188.112386 221.342572 
L 188.025939 221.438329 
L 187.829658 221.654572 
L 187.507846 222.005618 
L 187.466641 222.050255 
L 187.126864 222.415699 
L 186.943065 222.611439 
L 186.785024 222.778672 
L 186.675896 222.893572 
L 186.353529 223.230273 
L 186.191383 223.398114 
L 186.084806 223.507888 
L 185.887304 223.710179 
L 185.706636 223.893948 
L 185.471902 224.130906 
L 185.202569 224.400306 
L 184.970243 224.630588 
L 184.778217 224.819472 
L 184.627963 224.966361 
L 184.396526 225.191071 
L 184.21327 225.367686 
L 184.109831 225.466868 
L 183.968048 225.602226 
L 183.628051 225.924052 
L 183.564531 225.98375 
L 183.196018 226.327463 
L 183.028421 226.482314 
L 182.86592 226.631592 
L 182.789176 226.701796 
L 182.482746 226.980248 
L 182.318639 227.128155 
L 182.184781 227.248177 
L 182.008318 227.40555 
L 181.675437 227.699819 
L 181.622355 227.746433 
L 181.348064 227.985944 
L 181.089938 228.209289 
L 180.944153 228.334558 
L 180.791275 228.465254 
L 180.525347 228.690976 
L 180.439701 228.763238 
L 180.200787 228.963706 
L 179.921183 229.196258 
L 179.67574 229.398587 
L 179.482011 229.557102 
L 179.357343 229.658561 
L 179.241205 229.752695 
L 178.95211 229.985418 
L 178.788417 230.116189 
L 178.551076 230.30452 
L 178.374537 230.443633 
L 178.121668 230.641461 
L 177.954868 230.771038 
L 177.840691 230.859318 
L 177.525735 231.101094 
L 177.400704 231.196369 
L 177.277261 231.290044 
L 177.069206 231.447052 
L 176.752665 231.683845 
L 176.599233 231.797723 
L 176.419999 231.930015 
L 176.186547 232.101141 
L 176.144807 232.131598 
L 175.771607 232.402032 
L 175.738371 232.425954 
L 175.366625 232.691712 
L 175.248042 232.775795 
L 175.121883 232.864886 
L 174.86837 233.042782 
L 174.687942 233.168479 
L 174.418552 233.354749 
L 174.249689 233.470659 
L 174.040419 233.6134 
L 173.969743 233.661383 
L 173.764992 233.799754 
L 173.457669 234.005674 
L 173.270359 234.130146 
L 173.059257 234.269496 
L 172.977092 234.323469 
L 172.644575 234.540382 
L 172.554094 234.598988 
L 172.372407 234.716137 
L 172.037644 234.930122 
L 171.929067 234.999011 
L 171.840365 235.055103 
L 171.629731 235.187633 
L 171.288602 235.400285 
L 171.191673 235.460264 
L 170.919627 235.627557 
L 170.856828 235.665958 
L 170.566722 235.842294 
L 170.370356 235.960673 
L 170.186382 236.070868 
L 169.97834 236.194652 
L 169.706352 236.355168 
L 169.554901 236.443904 
L 169.457723 236.500601 
L 169.2 236.650055 
L 169.2 236.650055 
L 169.376179 236.751466 
L 169.520106 236.833859 
L 169.704951 236.93908 
L 169.951659 237.078477 
L 170.201731 237.218571 
L 170.462794 237.363535 
L 170.505006 237.386852 
L 170.814214 237.556614 
L 170.928189 237.618731 
L 171.248233 237.791841 
L 171.306977 237.823405 
L 171.595891 237.977705 
L 171.681877 238.023327 
L 171.944298 238.16171 
L 172.136115 238.262055 
L 172.35322 238.374811 
L 172.503385 238.452296 
L 172.778927 238.593405 
L 173.005383 238.708344 
L 173.116195 238.764249 
L 173.315643 238.864315 
L 173.461205 238.936894 
L 173.652755 239.031827 
L 173.902357 239.15455 
L 174.072087 239.237371 
L 174.250483 239.323873 
L 174.577087 239.480789 
L 174.628932 239.505526 
L 174.881293 239.625267 
L 175.047391 239.703474 
L 175.203109 239.77636 
L 175.429661 239.881653 
L 175.592262 239.956681 
L 175.824526 240.063067 
L 176.076122 240.177271 
L 176.342585 240.297053 
L 176.493073 240.364171 
L 176.699385 240.455568 
L 176.874258 240.532478 
L 176.975868 240.576931 
L 177.27321 240.706029 
L 177.38544 240.754374 
L 177.54088 240.820988 
L 177.754235 240.911773 
L 178.056729 241.039204 
L 178.222282 241.108312 
L 178.307846 241.143854 
L 178.62147 241.273112 
L 178.746238 241.32409 
L 178.985547 241.421164 
L 179.101822 241.467998 
L 179.393784 241.584637 
L 179.547199 241.64538 
L 179.69818 241.704792 
L 180.009803 241.826273 
L 180.094328 241.858958 
L 180.425785 241.986041 
L 180.49996 242.014242 
L 180.770357 242.116319 
L 180.998664 242.201616 
L 181.1336 242.251646 
L 181.306817 242.315455 
L 181.446766 242.366668 
L 181.631848 242.433932 
L 181.894059 242.528322 
L 182.165425 242.624893 
L 182.365277 242.695292 
L 182.537759 242.75556 
L 182.772011 242.836685 
L 182.884034 242.875185 
L 183.111753 242.952862 
L 183.353363 243.03442 
L 183.452527 243.067639 
L 183.696493 243.148735 
L 183.899118 243.215411 
L 184.147042 243.296157 
L 184.285674 243.340909 
L 184.3936 243.37555 
L 184.643558 243.455115 
L 184.948008 243.550775 
L 185.052085 243.583163 
L 185.30868 243.662331 
L 185.535327 243.731455 
L 185.707578 243.783485 
L 185.839831 243.823139 
L 186.098653 243.900004 
L 186.209805 243.932715 
L 186.517963 244.022463 
L 186.710414 244.077816 
L 186.816194 244.108011 
L 187.075986 244.181487 
L 187.267692 244.235083 
L 187.390273 244.269077 
L 187.520659 244.304999 
L 187.857414 244.396652 
L 188.071135 244.453979 
L 188.243279 244.499681 
L 188.365047 244.531755 
L 188.541754 244.577925 
L 188.687737 244.615734 
L 189.038504 244.705351 
L 189.076756 244.715019 
L 189.407588 244.797775 
L 189.552832 244.833622 
L 189.714475 244.873168 
L 189.921813 244.923358 
L 190.219238 244.994306 
L 190.251967 245.002038 
L 190.452109 245.048996 
L 190.73126 245.113561 
L 190.893795 245.150656 
L 191.029255 245.181292 
L 191.226314 245.225407 
L 191.46191 245.277445 
L 191.664551 245.321592 
L 191.886866 245.369377 
L 192.057078 245.405503 
L 192.247884 245.445528 
L 192.490838 245.495772 
L 192.640185 245.526257 
L 192.783833 245.555292 
L 192.991502 245.59677 
L 193.360404 245.669004 
L 193.515153 245.698756 
L 193.735539 245.740566 
L 193.845521 245.761186 
L 193.97785 245.785778 
L 194.207702 245.827933 
L 194.440859 245.869965 
L 194.654098 245.907767 
L 194.842129 245.940593 
L 195.058119 245.977714 
L 195.148147 245.993002 
L 195.501476 246.051953 
L 195.617342 246.070921 
L 195.778865 246.097065 
L 196.096157 246.147408 
L 196.172846 246.159374 
L 196.363442 246.188776 
L 196.610152 246.226117 
L 196.887718 246.267162 
L 196.991538 246.282253 
L 197.103402 246.298352 
L 197.39829 246.339999 
L 197.565594 246.363116 
L 197.837835 246.399943 
L 197.931898 246.41244 
L 198.21315 246.449111 
L 198.403611 246.473353 
L 198.587397 246.496293 
L 198.843014 246.527462 
L 199.036984 246.550542 
L 199.128671 246.56128 
L 199.314943 246.582756 
L 199.524257 246.606347 
L 199.648382 246.620066 
L 199.862888 246.643299 
L 200.21523 246.680157 
L 200.252198 246.68393 
L 200.502023 246.708963 
L 200.737529 246.731817 
L 200.876705 246.744983 
L 201.098835 246.765474 
L 201.345414 246.78747 
L 201.444514 246.796088 
L 201.622375 246.811235 
L 201.879429 246.832401 
L 202.025842 246.844074 
L 202.246051 246.861107 
L 202.395641 246.872319 
L 202.624571 246.888917 
L 202.928284 246.909892 
L 203.039431 246.917269 
L 203.186739 246.926801 
L 203.392541 246.939649 
L 203.673913 246.956329 
L 203.748297 246.960568 
L 204.018894 246.975387 
L 204.267741 246.988181 
L 204.414152 246.995335 
L 204.641548 247.005899 
L 204.735273 247.01006 
L 204.944991 247.01896 
L 205.300203 247.032742 
L 205.447758 247.03799 
L 205.645857 247.044595 
L 205.774528 247.048615 
L 205.940096 247.053475 
L 206.264678 247.061979 
L 206.435424 247.065909 
L 206.546195 247.068259 
L 206.785491 247.072796 
L 206.968988 247.075777 
L 207.190052 247.078794 
L 207.343772 247.080522 
L 207.55064 247.082368 
L 207.801867 247.083871 
L 207.980996 247.084448 
L 208.142308 247.084615 
z
" clip-path="url(#pfcbff40264)" style="fill: #808080; opacity: 0.5"/>
   </g>
   <g id="matplotlib.axis_1"/>
   <g id="matplotlib.axis_2"/>
   <g id="line2d_1">
    <path d="M 52.373077 169.2 
L 52.532442 164.220161 
L 52.883046 160.301835 
L 53.489447 156.06037 
L 54.314004 151.920836 
L 55.422295 147.620457 
L 56.732403 143.508656 
L 58.004542 140.122594 
L 59.723751 136.170067 
L 61.683379 132.273358 
L 63.844558 128.514512 
L 65.872716 125.375485 
L 68.211405 122.122706 
L 70.947075 118.719667 
L 73.616459 115.741755 
L 76.483883 112.858268 
L 79.398265 110.214138 
L 82.575103 107.617665 
L 86.002626 105.1102 
L 89.501526 102.830216 
L 93.072585 100.765498 
L 96.651212 98.938931 
L 100.633414 97.169344 
L 104.346144 95.752025 
L 108.462229 94.427204 
L 112.214091 93.434297 
L 116.143094 92.605017 
L 120.464117 91.933583 
L 124.357045 91.539227 
L 128.639261 91.332202 
L 130.257692 91.315385 
L 130.257692 91.315385 
" clip-path="url(#pfcbff40264)" style="fill: none; stroke: #0000ff; stroke-linecap: square"/>
   </g>
   <g id="line2d_2">
    <path d="M 130.257692 91.315385 
L 134.307593 91.420751 
L 138.51164 91.753982 
L 142.590893 92.298079 
L 146.651372 93.060256 
L 150.728421 94.053725 
L 154.81362 95.287756 
L 158.681485 96.687233 
L 162.465103 98.286701 
L 166.025936 100.014408 
L 169.2 101.749945 
L 169.2 101.749945 
" clip-path="url(#pfcbff40264)" style="fill: none; stroke: #0000ff; stroke-linecap: square"/>
   </g>
   <g id="line2d_3">
    <path d="M 130.257692 247.084615 
L 134.396548 246.974566 
L 138.57276 246.639479 
L 142.712108 246.082383 
L 146.92571 245.280158 
L 151.008034 244.269545 
L 154.843678 243.10225 
L 158.750431 241.685703 
L 162.480636 240.106243 
L 166.253477 238.26748 
L 169.2 236.650055 
L 169.2 236.650055 
" clip-path="url(#pfcbff40264)" style="fill: none; stroke: #0000ff; stroke-linecap: square"/>
   </g>
   <g id="line2d_4">
    <path d="M 208.142308 91.315385 
L 212.178418 91.420034 
L 216.291769 91.742918 
L 220.476325 92.29821 
L 224.852019 93.128988 
L 228.724949 94.084301 
L 232.776139 95.313684 
L 236.879815 96.810989 
L 240.465745 98.339512 
L 244.478356 100.310923 
L 248.262295 102.443727 
L 251.892362 104.764404 
L 255.159229 107.107952 
L 258.521706 109.803624 
L 261.856875 112.801786 
L 264.313701 115.248282 
L 267.211345 118.437197 
L 269.723696 121.516188 
L 272.135854 124.805864 
L 274.311684 128.119262 
L 276.300086 131.510073 
L 278.363323 135.509908 
L 280.039288 139.252754 
L 281.547295 143.166921 
L 282.830421 147.116089 
L 283.888889 151.076292 
L 284.719316 154.988207 
L 285.406615 159.389797 
L 285.835251 163.739239 
L 286.014944 167.834022 
L 286.026923 169.2 
L 286.026923 169.2 
" clip-path="url(#pfcbff40264)" style="fill: none; stroke: #ff0000; stroke-linecap: square"/>
   </g>
   <g id="line2d_5">
    <path d="M 169.2 101.749945 
L 172.940282 99.724603 
L 176.685554 97.950537 
L 180.550983 96.366408 
L 184.497341 94.991316 
L 188.502714 93.832237 
L 192.568802 92.888276 
L 196.702933 92.160049 
L 200.977328 91.645655 
L 205.195851 91.371138 
L 208.142308 91.315385 
L 208.142308 91.315385 
" clip-path="url(#pfcbff40264)" style="fill: none; stroke: #ff0000; stroke-linecap: square"/>
   </g>
   <g id="line2d_6">
    <path d="M 169.2 236.650055 
L 172.778927 238.593405 
L 176.493073 240.364171 
L 180.425785 241.986041 
L 184.285674 243.340909 
L 188.243279 244.499681 
L 192.247884 245.445528 
L 196.363442 246.188776 
L 200.502023 246.708963 
L 204.735273 247.01006 
L 208.142308 247.084615 
L 208.142308 247.084615 
" clip-path="url(#pfcbff40264)" style="fill: none; stroke: #ff0000; stroke-linecap: square"/>
   </g>
   <g id="text_1">
    <!-- $\Omega$ -->
    <g transform="translate(17.569231 23.978606) scale(0.1 -0.1)">
     <defs>
      <path id="Cmr10-ad" d="M 494 0 
L 281 1063 
L 469 1063 
Q 503 878 531 736 
Q 559 594 604 536 
Q 650 478 750 459 
Q 850 441 1081 441 
L 1472 441 
Q 1378 803 1004 1386 
Q 631 1969 495 2233 
Q 359 2497 359 2913 
Q 359 3397 646 3761 
Q 934 4125 1389 4319 
Q 1844 4513 2309 4513 
Q 2772 4513 3226 4319 
Q 3681 4125 3968 3758 
Q 4256 3391 4256 2913 
Q 4256 2588 4137 2300 
Q 4019 2013 3834 1725 
Q 3650 1438 3436 1084 
Q 3222 731 3144 441 
L 3531 441 
Q 3766 441 3869 459 
Q 3972 478 4015 536 
Q 4059 594 4086 736 
Q 4113 878 4147 1063 
L 4331 1063 
L 4122 0 
L 2988 0 
Q 2925 0 2925 84 
Q 2925 409 3004 721 
Q 3084 1034 3240 1478 
Q 3397 1922 3484 2261 
Q 3572 2600 3572 2913 
Q 3572 3297 3422 3625 
Q 3272 3953 2984 4150 
Q 2697 4347 2309 4347 
Q 1725 4347 1384 3930 
Q 1044 3513 1044 2913 
Q 1047 2584 1122 2293 
Q 1197 2003 1364 1518 
Q 1531 1034 1611 721 
Q 1691 409 1691 84 
Q 1691 0 1625 0 
L 494 0 
z
" transform="scale(0.015625)"/>
     </defs>
     <use xlink:href="#Cmr10-ad" transform="translate(0 0.484375)"/>
    </g>
   </g>
   <g id="text_2">
    <!-- $A$ -->
    <g style="fill: #0000ff" transform="translate(87.565385 94.07476) scale(0.1 -0.1)">
     <defs>
      <path id="Cmmi10-41" d="M 288 0 
Q 225 0 225 84 
Q 250 225 306 225 
Q 566 225 755 328 
Q 944 431 1081 647 
Q 1094 659 1094 659 
L 3378 4513 
Q 3428 4581 3500 4581 
L 3584 4581 
Q 3603 4581 3622 4573 
Q 3641 4566 3655 4548 
Q 3669 4531 3669 4513 
L 4056 378 
Q 4056 350 4084 294 
Q 4147 225 4563 225 
Q 4628 225 4628 141 
Q 4606 56 4592 28 
Q 4578 0 4519 0 
L 2919 0 
Q 2859 0 2859 84 
Q 2894 225 2944 225 
Q 3450 225 3481 397 
L 3384 1453 
L 1806 1453 
L 1294 594 
Q 1247 525 1247 434 
Q 1247 322 1355 273 
Q 1463 225 1594 225 
Q 1656 225 1656 141 
Q 1634 50 1621 25 
Q 1609 0 1550 0 
L 288 0 
z
M 1931 1678 
L 3359 1678 
L 3169 3750 
L 1931 1678 
z
" transform="scale(0.015625)"/>
     </defs>
     <use xlink:href="#Cmmi10-41" transform="translate(0 0.421875)"/>
    </g>
   </g>
   <g id="text_3">
    <!-- $B$ -->
    <g style="fill: #ff0000" transform="translate(243.284615 94.07476) scale(0.1 -0.1)">
     <defs>
      <path id="Cmmi10-42" d="M 319 0 
Q 256 0 256 84 
Q 259 100 268 137 
Q 278 175 293 200 
Q 309 225 341 225 
Q 522 225 656 234 
Q 791 244 884 269 
Q 959 297 1006 441 
L 1881 3956 
Q 1894 4019 1894 4044 
Q 1894 4113 1819 4122 
Q 1697 4147 1356 4147 
Q 1294 4147 1294 4231 
Q 1297 4247 1306 4286 
Q 1316 4325 1333 4348 
Q 1350 4372 1375 4372 
L 3669 4372 
Q 3878 4372 4083 4320 
Q 4288 4269 4461 4156 
Q 4634 4044 4736 3876 
Q 4838 3709 4838 3488 
Q 4838 3247 4714 3040 
Q 4591 2834 4395 2681 
Q 4200 2528 3973 2429 
Q 3747 2331 3500 2284 
Q 3675 2284 3854 2215 
Q 4034 2147 4175 2028 
Q 4316 1909 4402 1743 
Q 4488 1578 4488 1388 
Q 4488 1003 4219 684 
Q 3950 366 3542 183 
Q 3134 0 2753 0 
L 319 0 
z
M 1497 275 
Q 1497 225 1716 225 
L 2631 225 
Q 2944 225 3231 398 
Q 3519 572 3692 859 
Q 3866 1147 3866 1459 
Q 3866 1650 3786 1820 
Q 3706 1991 3556 2089 
Q 3406 2188 3213 2188 
L 1966 2188 
L 1522 416 
Q 1497 328 1497 275 
z
M 2009 2356 
L 2981 2356 
Q 3288 2356 3577 2512 
Q 3866 2669 4048 2937 
Q 4231 3206 4231 3506 
Q 4231 3784 4057 3965 
Q 3884 4147 3609 4147 
L 2731 4147 
Q 2559 4147 2500 4115 
Q 2441 4084 2400 3928 
L 2009 2356 
z
" transform="scale(0.015625)"/>
     </defs>
     <use xlink:href="#Cmmi10-42" transform="translate(0 0.6875)"/>
    </g>
   </g>
   <g id="patch_10">
    <path d="M 130.257692 247.084615 
C 150.912934 247.084615 170.724971 238.878201 185.330432 224.27274 
C 199.935893 209.667278 208.142308 189.855241 208.142308 169.2 
C 208.142308 148.544759 199.935893 128.732722 185.330432 114.12726 
C 170.724971 99.521799 150.912934 91.315385 130.257692 91.315385 
C 109.602451 91.315385 89.790414 99.521799 75.184953 114.12726 
C 60.579491 128.732722 52.373077 148.544759 52.373077 169.2 
C 52.373077 189.855241 60.579491 209.667278 75.184953 224.27274 
C 89.790414 238.878201 109.602451 247.084615 130.257692 247.084615 
L 130.257692 247.084615 
z
" clip-path="url(#pfcbff40264)" style="fill: none; stroke: #0000ff; stroke-linejoin: miter"/>
   </g>
   <g id="patch_11">
    <path d="M 208.142308 247.084615 
C 228.797549 247.084615 248.609586 238.878201 263.215047 224.27274 
C 277.820509 209.667278 286.026923 189.855241 286.026923 169.2 
C 286.026923 148.544759 277.820509 128.732722 263.215047 114.12726 
C 248.609586 99.521799 228.797549 91.315385 208.142308 91.315385 
C 187.487066 91.315385 167.675029 99.521799 153.069568 114.12726 
C 138.464107 128.732722 130.257692 148.544759 130.257692 169.2 
C 130.257692 189.855241 138.464107 209.667278 153.069568 224.27274 
C 167.675029 238.878201 187.487066 247.084615 208.142308 247.084615 
L 208.142308 247.084615 
z
" clip-path="url(#pfcbff40264)" style="fill: none; stroke: #ff0000; stroke-linejoin: miter"/>
   </g>
  </g>
 </g>
 <defs>
  <clipPath id="pfcbff40264">
   <rect x="7.2" y="7.2" width="324" height="324"/>
  </clipPath>
 </defs>
</svg>
