<?xml version="1.0" encoding="utf-8" standalone="no"?>
<!DOCTYPE svg PUBLIC "-//W3C//DTD SVG 1.1//EN"
  "http://www.w3.org/Graphics/SVG/1.1/DTD/svg11.dtd">
<!-- Created with matplotlib (https://matplotlib.org/) -->
<svg height="338.4pt" version="1.1" viewBox="0 0 338.4 338.4" width="338.4pt" xmlns="http://www.w3.org/2000/svg" xmlns:xlink="http://www.w3.org/1999/xlink">
 <metadata>
  <rdf:RDF xmlns:cc="http://creativecommons.org/ns#" xmlns:dc="http://purl.org/dc/elements/1.1/" xmlns:rdf="http://www.w3.org/1999/02/22-rdf-syntax-ns#">
   <cc:Work>
    <dc:type rdf:resource="http://purl.org/dc/dcmitype/StillImage"/>
    <dc:date>2024-08-28T16:21:39.506338</dc:date>
    <dc:format>image/svg+xml</dc:format>
    <dc:creator>
     <cc:Agent>
      <dc:title>Matplotlib v3.3.4, https://matplotlib.org/</dc:title>
     </cc:Agent>
    </dc:creator>
   </cc:Work>
  </rdf:RDF>
 </metadata>
 <defs>
  <style type="text/css">*{stroke-linecap:butt;stroke-linejoin:round;}</style>
 </defs>
 <g id="figure_1">
  <g id="patch_1">
   <path d="M -0 338.4 
L 338.4 338.4 
L 338.4 0 
L -0 0 
z
" style="fill:#ffffff;"/>
  </g>
  <g id="axes_1">
   <g id="patch_2">
    <path d="M 7.2 331.2 
L 331.2 331.2 
L 331.2 7.2 
L 7.2 7.2 
z
" style="fill:#ffffff;"/>
   </g>
   <g id="patch_3">
    <path clip-path="url(#pc0ec8cc948)" d="M 13.430769 324.969231 
L 13.430769 13.430769 
L 324.969231 13.430769 
L 324.969231 324.969231 
z
" style="fill:none;stroke:#000000;stroke-linejoin:miter;"/>
   </g>
   <g id="patch_4">
    <path clip-path="url(#pc0ec8cc948)" d="M 130.257692 247.084615 
L 129.870653 247.083654 
L 129.481549 247.080748 
L 129.264268 247.07828 
L 128.732946 247.069689 
L 128.384583 247.062088 
L 128.065959 247.053771 
L 127.66389 247.041413 
L 127.047647 247.018436 
L 126.623259 246.99977 
L 126.492984 246.993575 
L 125.918556 246.96365 
L 125.721923 246.952428 
L 124.989538 246.906241 
L 124.687302 246.88516 
L 124.474397 246.8696 
L 124.027273 246.835013 
L 123.417329 246.78365 
L 123.098202 246.754852 
L 122.740508 246.720999 
L 122.50112 246.697412 
L 121.920843 246.637137 
L 121.753087 246.618893 
L 121.304829 246.568337 
L 120.703135 246.496337 
L 120.563257 246.478918 
L 119.954476 246.40011 
L 119.509287 246.339387 
L 119.130072 246.285598 
L 118.852884 246.245075 
L 118.51053 246.19362 
L 118.082283 246.127061 
L 117.922093 246.101536 
L 117.440046 246.022661 
L 116.825587 245.917611 
L 116.645738 245.885905 
L 116.250077 245.81462 
L 115.588854 245.690774 
L 115.545529 245.682453 
L 114.95739 245.56697 
L 114.784777 245.532183 
L 114.274882 245.42705 
L 113.951776 245.358587 
L 113.283947 245.212534 
L 113.100881 245.171423 
L 112.783349 245.099016 
L 112.244144 244.972854 
L 111.894159 244.888797 
L 111.455534 244.781031 
L 111.158782 244.706589 
L 110.644436 244.574621 
L 110.395283 244.509349 
L 109.854802 244.364722 
L 109.328846 244.219975 
L 109.20378 244.184972 
L 108.671481 244.033474 
L 108.351172 243.940335 
L 107.824731 243.784017 
L 107.481865 243.680031 
L 107.317938 243.629705 
L 106.970456 243.521719 
L 106.306354 243.310368 
L 106.078673 243.236399 
L 105.611019 243.082033 
L 105.228621 242.953365 
L 104.649334 242.754234 
L 104.314776 242.636901 
L 103.85145 242.471575 
L 103.713288 242.421636 
L 103.117498 242.202898 
L 102.933086 242.134074 
L 102.349691 241.912838 
L 102.245519 241.87277 
L 101.882493 241.731796 
L 101.465715 241.567364 
L 100.823895 241.308702 
L 100.637715 241.232425 
L 100.302428 241.09364 
L 99.669553 240.826664 
L 99.372644 240.699141 
L 98.850675 240.471401 
L 98.383093 240.263515 
L 97.979405 240.081066 
L 97.934504 240.060601 
L 97.403406 239.815927 
L 96.944948 239.600813 
L 96.601652 239.437342 
L 96.260564 239.272881 
L 95.949135 239.120928 
L 95.348379 238.822936 
L 95.066123 238.680694 
L 94.612301 238.448967 
L 94.372127 238.324811 
L 93.844026 238.048081 
L 93.593283 237.914878 
L 93.08277 237.640036 
L 92.692722 237.426727 
L 92.211515 237.159559 
L 91.807616 236.931861 
L 91.509992 236.762038 
L 90.979138 236.454803 
L 90.827717 236.36614 
L 90.186124 235.985348 
L 89.900075 235.812882 
L 89.381187 235.495736 
L 89.07825 235.307994 
L 88.615248 235.017324 
L 88.55813 234.981151 
L 88.14476 234.717282 
L 87.601011 234.364567 
L 87.261298 234.140922 
L 86.913536 233.90933 
L 86.457947 233.601829 
L 85.911678 233.226903 
L 85.770911 233.129176 
L 85.326075 232.817318 
L 84.834875 232.467535 
L 84.503798 232.228521 
L 83.916403 231.797909 
L 83.720676 231.652537 
L 83.363001 231.384413 
L 83.024448 231.127651 
L 82.368834 230.622069 
L 82.051228 230.373116 
L 81.587386 230.004725 
L 81.500988 229.935468 
L 80.984763 229.517425 
L 80.46797 229.091542 
L 80.324891 228.972307 
L 79.867171 228.58694 
L 79.360982 228.153696 
L 78.874201 227.729908 
L 78.649517 227.531891 
L 78.203722 227.134424 
L 77.971073 226.924542 
L 77.570621 226.55927 
L 77.152621 226.172491 
L 76.698107 225.745417 
L 76.100636 225.173445 
L 75.964494 225.041399 
L 75.638113 224.722202 
L 75.064049 224.15157 
L 74.874137 223.96016 
L 74.312408 223.386147 
L 74.018854 223.081411 
L 73.632282 222.675006 
L 73.242764 222.259507 
L 72.57795 221.536036 
L 72.473006 221.420144 
L 71.85481 220.727824 
L 71.478027 220.297595 
L 71.055855 219.807863 
L 70.669505 219.35238 
L 70.271133 218.875205 
L 70.050837 218.607974 
L 69.747408 218.235893 
L 69.179636 217.526849 
L 68.89321 217.162628 
L 68.54829 216.718028 
L 68.095434 216.124055 
L 67.666655 215.55057 
L 67.197388 214.910079 
L 66.960212 214.581078 
L 66.481914 213.906414 
L 66.087688 213.338689 
L 65.749383 212.84277 
L 65.389718 212.306371 
L 64.79086 211.391316 
L 64.489798 210.920468 
L 64.17848 210.425611 
L 63.740401 209.714976 
L 63.522829 209.355589 
L 63.050452 208.559881 
L 62.539767 207.674613 
L 62.121642 206.929193 
L 61.926565 206.574728 
L 61.591024 205.954619 
L 61.255484 205.32075 
L 60.932019 204.695977 
L 60.693819 204.226858 
L 60.346331 203.528049 
L 59.999286 202.812046 
L 59.652241 202.076793 
L 59.366864 201.456841 
L 59.148957 200.97359 
L 58.931049 200.481356 
L 58.597775 199.710156 
L 58.399949 199.241273 
L 58.202123 198.763631 
L 57.948964 198.138919 
L 57.638522 197.350832 
L 57.462423 196.892275 
L 57.286325 196.424857 
L 57.110226 195.948113 
L 56.934128 195.461535 
L 56.848036 195.219909 
L 56.63659 194.615481 
L 56.425145 193.99452 
L 56.254568 193.48067 
L 56.083992 192.954483 
L 55.913415 192.41512 
L 55.742839 191.861641 
L 55.508618 191.076682 
L 55.379181 190.629463 
L 55.249744 190.171912 
L 55.120308 189.703335 
L 54.990871 189.222959 
L 54.845582 188.668615 
L 54.700293 188.096899 
L 54.57794 187.600774 
L 54.455587 187.090059 
L 54.371652 186.730609 
L 54.287717 186.363222 
L 54.203782 185.987378 
L 54.119847 185.602495 
L 54.032094 185.189732 
L 53.944342 184.765534 
L 53.856589 184.328938 
L 53.768837 183.878837 
L 53.681084 183.41395 
L 53.593331 182.932774 
L 53.505579 182.433532 
L 53.417826 181.914097 
L 53.341681 181.445022 
L 53.265537 180.956754 
L 53.202041 180.53313 
L 53.138545 180.092675 
L 53.075049 179.633256 
L 53.011553 179.152247 
L 52.948057 178.646351 
L 52.916309 178.382793 
L 52.884561 178.111331 
L 52.852813 177.831218 
L 52.821065 177.541584 
L 52.789317 177.241399 
L 52.757569 176.929435 
L 52.733538 176.684572 
L 52.709507 176.431342 
L 52.685477 176.168834 
L 52.661446 175.895957 
L 52.637415 175.611386 
L 52.613384 175.313489 
L 52.589354 175.000213 
L 52.565323 174.668916 
L 52.541292 174.316097 
L 52.517261 173.936951 
L 52.505246 173.735461 
L 52.493231 173.524559 
L 52.481215 173.302795 
L 52.4692 173.068302 
L 52.457185 172.818605 
L 52.445169 172.550306 
L 52.433154 172.258515 
L 52.421138 171.935725 
L 52.409123 171.569298 
L 52.397108 171.134599 
L 52.385092 170.568021 
L 52.373077 169.2 
L 52.373077 169.2 
L 52.384468 167.868019 
L 52.395858 167.316363 
L 52.407249 166.89311 
L 52.418639 166.53633 
L 52.43003 166.222036 
L 52.44142 165.937923 
L 52.452811 165.676683 
L 52.464202 165.433553 
L 52.475592 165.205226 
L 52.486983 164.989293 
L 52.498373 164.783935 
L 52.509764 164.587739 
L 52.532545 164.218553 
L 52.555326 163.874999 
L 52.578107 163.552397 
L 52.600889 163.24734 
L 52.62367 162.957255 
L 52.646451 162.680143 
L 52.669232 162.414414 
L 52.692013 162.158781 
L 52.714795 161.91218 
L 52.737576 161.673724 
L 52.775213 161.295655 
L 52.81285 160.935035 
L 52.850487 160.589668 
L 52.888124 160.257789 
L 52.92576 159.937947 
L 52.963397 159.628935 
L 53.001034 159.329736 
L 53.038671 159.039483 
L 53.113945 158.48293 
L 53.189219 157.95439 
L 53.264493 157.450082 
L 53.339767 156.967009 
L 53.426379 156.434317 
L 53.512992 155.923544 
L 53.580793 155.537407 
L 53.648594 155.162215 
L 53.716395 154.797112 
L 53.784197 154.441349 
L 53.851998 154.094267 
L 53.919799 153.75528 
L 54.055401 153.09956 
L 54.152442 152.646928 
L 54.249483 152.206901 
L 54.403679 151.531326 
L 54.557876 150.881945 
L 54.712073 150.256065 
L 54.866269 149.651428 
L 55.028119 149.037543 
L 55.189899 148.443322 
L 55.351678 147.866873 
L 55.513457 147.306791 
L 55.675236 146.761851 
L 55.902418 146.020127 
L 56.074354 145.475632 
L 56.24629 144.944575 
L 56.407408 144.458358 
L 56.568526 143.982544 
L 56.727936 143.521443 
L 56.887346 143.06945 
L 57.046757 142.626099 
L 57.206167 142.190965 
L 57.438756 141.570019 
L 57.762169 140.732257 
L 58.056034 139.994968 
L 58.3499 139.278726 
L 58.578682 138.734729 
L 58.928803 137.923764 
L 59.161608 137.398111 
L 59.394414 136.882682 
L 59.752111 136.109573 
L 60.048951 135.484337 
L 60.34579 134.873053 
L 60.487233 134.586472 
L 60.727337 134.106652 
L 60.967442 133.634926 
L 61.267671 133.05598 
L 61.567899 132.488617 
L 61.64962 132.336118 
L 61.995906 131.698775 
L 62.342192 131.075229 
L 62.465739 130.855972 
L 62.77779 130.309434 
L 63.089841 129.77294 
L 63.46231 129.14516 
L 63.7661 128.642862 
L 64.077736 128.136309 
L 64.617833 127.278381 
L 65.014666 126.663418 
L 65.156133 126.44722 
L 65.542058 125.865256 
L 65.922744 125.302076 
L 66.489788 124.482355 
L 66.823252 124.010564 
L 67.410913 123.196787 
L 67.557034 122.997828 
L 68.118377 122.245567 
L 68.4505 121.809238 
L 68.68607 121.503578 
L 69.20704 120.838537 
L 69.729649 120.186029 
L 70.144928 119.677593 
L 70.402309 119.366814 
L 70.794566 118.899404 
L 71.316569 118.288731 
L 71.617014 117.94296 
L 71.863292 117.662563 
L 72.186993 117.298101 
L 72.815613 116.603224 
L 73.031221 116.368718 
L 73.473963 115.893139 
L 74.032547 115.304301 
L 74.121169 115.212001 
L 74.57739 114.7416 
L 75.077362 114.235061 
L 75.627695 113.688049 
L 75.674584 113.641943 
L 76.169544 113.159965 
L 76.455133 112.885722 
L 76.855994 112.505451 
L 77.308569 112.082545 
L 77.740515 111.685138 
L 78.294411 111.18422 
L 78.414501 111.076882 
L 79.004055 110.556347 
L 79.198172 110.387257 
L 79.927746 109.761714 
L 80.319062 109.432563 
L 80.685516 109.128271 
L 81.095358 108.792399 
L 81.415349 108.533379 
L 81.738528 108.274603 
L 82.079031 108.004984 
L 82.587791 107.607843 
L 82.763289 107.472413 
L 83.159888 107.169281 
L 83.80375 106.685645 
L 84.187691 106.402164 
L 84.558458 106.131836 
L 84.668969 106.051907 
L 85.309499 105.594393 
L 85.69841 105.321336 
L 85.944165 105.150608 
L 86.56678 104.724287 
L 86.885812 104.509248 
L 87.169537 104.319925 
L 87.489515 104.108554 
L 87.805299 103.902162 
L 88.382378 103.53059 
L 88.740625 103.303518 
L 89.016622 103.130435 
L 89.677898 102.722232 
L 90.133508 102.44625 
L 90.397763 102.288122 
L 90.634386 102.14773 
L 91.140548 101.851189 
L 91.542094 101.619561 
L 91.826033 101.457688 
L 92.290813 101.196107 
L 92.707488 100.965145 
L 93.157065 100.719661 
L 93.324566 100.629179 
L 93.729328 100.412705 
L 94.263147 100.131874 
L 94.525767 99.995644 
L 94.912598 99.79728 
L 95.440655 99.530873 
L 95.81395 99.345566 
L 96.03533 99.236844 
L 96.608896 98.959187 
L 96.960904 98.79164 
L 97.436479 98.568695 
L 97.685532 98.453497 
L 97.981659 98.317908 
L 98.652009 98.016476 
L 98.798146 97.95177 
L 99.299453 97.73252 
L 99.599412 97.60333 
L 100.197528 97.350158 
L 100.382578 97.273017 
L 100.828392 97.089463 
L 101.256889 96.916069 
L 101.792698 96.703397 
L 101.994745 96.62439 
L 102.495126 96.43151 
L 102.753174 96.333583 
L 103.094502 96.205655 
L 103.543729 96.040055 
L 104.13323 95.827486 
L 104.590954 95.666118 
L 104.660612 95.641841 
L 105.031473 95.513833 
L 105.654459 95.30349 
L 105.852925 95.237708 
L 106.466282 95.038136 
L 106.804556 94.930466 
L 107.043693 94.855373 
L 107.64136 94.671382 
L 107.983905 94.568293 
L 108.340371 94.462831 
L 108.888926 94.304145 
L 109.081457 94.249481 
L 109.389127 94.163234 
L 109.770687 94.058161 
L 110.388549 93.892428 
L 110.633432 93.828243 
L 111.020669 93.72848 
L 111.521623 93.602559 
L 111.897608 93.510367 
L 112.415735 93.386559 
L 112.485674 93.370133 
L 113.093883 93.230158 
L 113.438929 93.153024 
L 113.727731 93.089727 
L 114.17238 92.994514 
L 114.560101 92.913704 
L 114.946289 92.835255 
L 115.31672 92.761916 
L 115.7676 92.675164 
L 116.255407 92.584406 
L 116.659036 92.511736 
L 116.844106 92.479149 
L 117.186627 92.420051 
L 117.896698 92.302541 
L 118.020082 92.282809 
L 118.438977 92.217331 
L 118.842022 92.156533 
L 119.348247 92.083223 
L 119.800606 92.020581 
L 120.13766 91.975663 
L 120.318625 91.952163 
L 121.043344 91.862369 
L 121.179939 91.846217 
L 121.57669 91.800688 
L 121.977982 91.756732 
L 122.253442 91.727777 
L 122.998393 91.654427 
L 123.102787 91.644725 
L 123.579655 91.602209 
L 123.817503 91.582107 
L 124.573942 91.523052 
L 124.697131 91.514136 
L 125.031012 91.490959 
L 125.455386 91.463579 
L 125.772107 91.44466 
L 126.268737 91.417601 
L 126.876531 91.388811 
L 127.135194 91.378002 
L 127.697355 91.35748 
L 127.871404 91.35195 
L 128.46483 91.336023 
L 128.688633 91.331191 
L 129.073875 91.324382 
L 129.519884 91.318879 
L 129.672105 91.317586 
L 130.257692 91.315385 
z
" style="fill:#808080;opacity:0.5;"/>
   </g>
   <g id="patch_5">
    <path clip-path="url(#pc0ec8cc948)" d="M 169.2 101.749945 
L 169.05493 101.833909 
L 168.798985 101.983066 
L 168.516761 102.149054 
L 168.391991 102.222947 
L 168.190038 102.343217 
L 168.047487 102.428609 
L 167.911777 102.510288 
L 167.565835 102.720205 
L 167.461244 102.784156 
L 167.322957 102.869058 
L 167.062865 103.02982 
L 166.829362 103.175355 
L 166.705484 103.253029 
L 166.503834 103.380164 
L 166.322876 103.494989 
L 166.092678 103.642072 
L 165.797581 103.83229 
L 165.713004 103.887156 
L 165.521779 104.011782 
L 165.312991 104.148767 
L 165.143055 104.260971 
L 164.897011 104.42456 
L 164.659428 104.583806 
L 164.427923 104.7402 
L 164.254665 104.858038 
L 164.117347 104.951917 
L 163.993807 105.036746 
L 163.628408 105.289703 
L 163.434835 105.424964 
L 163.343268 105.489252 
L 163.219614 105.576381 
L 162.853228 105.836662 
L 162.697762 105.948071 
L 162.563012 106.045102 
L 162.41606 106.151419 
L 162.124288 106.364061 
L 161.864841 106.554893 
L 161.711914 106.668153 
L 161.578842 106.76718 
L 161.452874 106.861328 
L 161.211604 107.042761 
L 161.045563 107.168476 
L 160.744262 107.398393 
L 160.568919 107.533267 
L 160.321226 107.725148 
L 160.164946 107.847037 
L 160.026253 107.955746 
L 159.843129 108.10006 
L 159.637927 108.262832 
L 159.364598 108.4814 
L 159.185419 108.625778 
L 159.0413 108.742541 
L 158.897629 108.859509 
L 158.678375 109.03911 
L 158.377135 109.288057 
L 158.315908 109.338968 
L 157.99233 109.60979 
L 157.793138 109.777997 
L 157.640879 109.907344 
L 157.373305 110.136291 
L 157.273401 110.222312 
L 157.091315 110.379855 
L 156.870075 110.572605 
L 156.729146 110.696153 
L 156.403464 110.983977 
L 156.277832 111.095873 
L 156.03513 111.313427 
L 155.906535 111.429442 
L 155.644105 111.667817 
L 155.559038 111.745556 
L 155.254164 112.026076 
L 155.105326 112.164117 
L 154.95074 112.308257 
L 154.690252 112.552925 
L 154.477755 112.754193 
L 154.320538 112.904081 
L 154.183685 113.035239 
L 153.891395 113.317518 
L 153.763175 113.442281 
L 153.561377 113.639804 
L 153.297539 113.900229 
L 153.157324 114.039644 
L 152.865407 114.332181 
L 152.665567 114.534247 
L 152.531725 114.670408 
L 152.354467 114.851769 
L 152.179124 115.03234 
L 152.045562 115.170671 
L 151.878278 115.344895 
L 151.612735 115.623692 
L 151.296996 115.958814 
L 151.174781 116.089604 
L 151.00667 116.270498 
L 150.877753 116.410001 
L 150.663125 116.643774 
L 150.361942 116.975076 
L 150.184848 117.171679 
L 149.9331 117.453488 
L 149.862738 117.532747 
L 149.584985 117.847753 
L 149.508684 117.934891 
L 149.245346 118.237649 
L 149.048452 118.466091 
L 148.757527 118.806933 
L 148.670108 118.910132 
L 148.377387 119.258359 
L 148.207469 119.462405 
L 148.146075 119.536478 
L 147.929629 119.799123 
L 147.640281 120.153919 
L 147.389126 120.46537 
L 147.310073 120.564082 
L 146.993966 120.962114 
L 146.864536 121.12664 
L 146.684363 121.357191 
L 146.410331 121.711303 
L 146.302117 121.852307 
L 146.067588 122.160203 
L 145.878569 122.410684 
L 145.655328 122.709241 
L 145.595534 122.789717 
L 145.315565 123.169427 
L 145.149948 123.396333 
L 144.958928 123.660195 
L 144.760209 123.937179 
L 144.475311 124.338805 
L 144.273331 124.626834 
L 144.145677 124.81031 
L 144.009568 125.007184 
L 143.810139 125.298002 
L 143.656509 125.523975 
L 143.357041 125.969427 
L 143.117255 126.330945 
L 142.891755 126.674964 
L 142.689824 126.986428 
L 142.60524 127.117865 
L 142.345543 127.525078 
L 142.13526 127.858943 
L 141.95156 128.153706 
L 141.778125 128.434714 
L 141.598668 128.728315 
L 141.506502 128.880243 
L 141.290002 129.240238 
L 141.089917 129.576897 
L 140.818167 130.040411 
L 140.599834 130.418206 
L 140.501421 130.590108 
L 140.335368 130.882482 
L 139.968742 131.538637 
L 139.897085 131.668642 
L 139.577105 132.256445 
L 139.357799 132.666389 
L 139.226873 132.913968 
L 139.126404 133.105425 
L 138.79853 133.739405 
L 138.755242 133.824183 
L 138.534407 134.260718 
L 138.375449 134.579216 
L 138.071169 135.199282 
L 137.917601 135.517604 
L 137.700393 135.974258 
L 137.464188 136.47972 
L 137.256099 136.933009 
L 137.078727 137.325545 
L 136.952599 137.608251 
L 136.791401 137.974025 
L 136.630204 138.344978 
L 136.447294 138.772409 
L 136.246321 139.250368 
L 136.201653 139.357822 
L 136.048367 139.730066 
L 135.895081 140.107879 
L 135.728194 140.525806 
L 135.488979 141.137441 
L 135.325286 141.564975 
L 135.150094 142.031083 
L 135.004779 142.424728 
L 134.833718 142.896692 
L 134.678737 143.332703 
L 134.523755 143.777135 
L 134.412135 144.102689 
L 134.262661 144.546175 
L 134.113186 144.998709 
L 134.001657 145.342565 
L 133.865018 145.771436 
L 133.72838 146.209119 
L 133.64042 146.49577 
L 133.552461 146.786432 
L 133.453604 147.118088 
L 133.37028 147.401899 
L 133.286956 147.689777 
L 133.203633 147.981887 
L 133.120309 148.278408 
L 132.999113 148.717969 
L 132.90036 149.083772 
L 132.801607 149.456846 
L 132.731252 149.7273 
L 132.660898 150.001821 
L 132.594035 150.26665 
L 132.527171 150.535476 
L 132.460308 150.808474 
L 132.393445 151.085833 
L 132.303461 151.466343 
L 132.213477 151.855666 
L 132.132054 152.216049 
L 132.050631 152.584646 
L 131.975666 152.931749 
L 131.900701 153.286775 
L 131.803029 153.762127 
L 131.754194 154.005614 
L 131.705358 154.253227 
L 131.6453 154.563706 
L 131.585242 154.881167 
L 131.525184 155.206086 
L 131.465126 155.538995 
L 131.390141 155.966774 
L 131.315157 156.409292 
L 131.277665 156.636562 
L 131.240173 156.868134 
L 131.20268 157.104254 
L 131.165188 157.345196 
L 131.117791 157.657161 
L 131.058909 158.057157 
L 131.029468 158.262759 
L 131.000027 158.472381 
L 130.970586 158.686264 
L 130.941145 158.904674 
L 130.911704 159.127904 
L 130.882263 159.356284 
L 130.843884 159.662336 
L 130.805506 159.978701 
L 130.767127 160.306477 
L 130.728749 160.646978 
L 130.69037 161.001788 
L 130.671181 161.185149 
L 130.651992 161.372853 
L 130.632802 161.565217 
L 130.613613 161.762605 
L 130.594424 161.965428 
L 130.575235 162.174155 
L 130.549226 162.467471 
L 130.523217 162.774267 
L 130.506622 162.977979 
L 130.490026 163.188636 
L 130.473431 163.406996 
L 130.456836 163.633965 
L 130.44024 163.870643 
L 130.423645 164.118386 
L 130.40705 164.378901 
L 130.398752 164.514609 
L 130.390455 164.654382 
L 130.382157 164.798607 
L 130.373859 164.947737 
L 130.365562 165.102307 
L 130.357264 165.262959 
L 130.348966 165.43047 
L 130.340669 165.605798 
L 130.332371 165.79015 
L 130.324073 165.985077 
L 130.315776 166.192635 
L 130.307478 166.415647 
L 130.299181 166.658177 
L 130.290883 166.926464 
L 130.282585 167.231008 
L 130.274288 167.592282 
L 130.26599 168.063141 
L 130.257692 169.2 
L 130.257692 91.315385 
L 130.514353 91.315808 
L 130.59188 91.316102 
L 130.875142 91.317832 
L 131.096111 91.319897 
L 131.172434 91.320757 
L 131.383585 91.323523 
L 131.61761 91.327258 
L 131.890306 91.332498 
L 131.990218 91.334657 
L 132.196563 91.339522 
L 132.429663 91.345675 
L 132.527295 91.34846 
L 132.882375 91.359623 
L 132.973547 91.36275 
L 133.134203 91.368522 
L 133.401527 91.378861 
L 133.614808 91.38777 
L 133.737889 91.393178 
L 133.956997 91.403288 
L 134.220433 91.416261 
L 134.269553 91.418779 
L 134.572603 91.435002 
L 134.797381 91.4478 
L 134.97373 91.458298 
L 135.095953 91.465808 
L 135.360914 91.482753 
L 135.454406 91.488949 
L 135.729298 91.50782 
L 135.908765 91.520668 
L 136.062229 91.531984 
L 136.395688 91.557625 
L 136.474043 91.56386 
L 136.733431 91.585065 
L 137.007797 91.608445 
L 137.114137 91.61777 
L 137.286501 91.633196 
L 137.527834 91.655443 
L 137.773768 91.678894 
L 137.884823 91.689741 
L 138.145392 91.715824 
L 138.350362 91.736964 
L 138.449325 91.747366 
L 138.723172 91.776819 
L 138.80427 91.785729 
L 139.133342 91.822767 
L 139.190108 91.8293 
L 139.552048 91.871944 
L 139.6773 91.887101 
L 139.896036 91.914066 
L 140.07055 91.936029 
L 140.246355 91.958561 
L 140.405702 91.979334 
L 140.680367 92.015927 
L 140.87941 92.043066 
L 141.016368 92.062044 
L 141.235253 92.09289 
L 141.42152 92.119638 
L 141.604632 92.146381 
L 141.787359 92.17351 
L 142.032683 92.210631 
L 142.199457 92.236323 
L 142.486445 92.281401 
L 142.543018 92.290416 
L 142.697675 92.31528 
L 143.054242 92.373822 
L 143.105253 92.382336 
L 143.276538 92.411179 
L 143.492915 92.448178 
L 143.795715 92.501009 
L 143.923075 92.523598 
L 144.234423 92.579739 
L 144.318186 92.595067 
L 144.512374 92.630963 
L 144.679942 92.662349 
L 144.946935 92.713142 
L 145.213106 92.76474 
L 145.39134 92.79983 
L 145.498058 92.821046 
L 145.738026 92.869321 
L 145.916865 92.905809 
L 146.19986 92.96444 
L 146.264993 92.97809 
L 146.584131 93.04581 
L 146.738128 93.078987 
L 146.954233 93.126096 
L 147.028366 93.142405 
L 147.378566 93.22047 
L 147.392561 93.223625 
L 147.614193 93.273949 
L 147.864456 93.331593 
L 148.056676 93.376458 
L 148.256557 93.423657 
L 148.512135 93.484819 
L 148.620269 93.510971 
L 148.862845 93.570233 
L 149.082203 93.624534 
L 149.304117 93.680155 
L 149.373253 93.697625 
L 149.675539 93.774802 
L 149.732938 93.789602 
L 149.952104 93.846543 
L 150.141505 93.8963 
L 150.458856 93.980812 
L 150.622161 94.02486 
L 150.802551 94.073959 
L 151.086462 94.152177 
L 151.187741 94.18036 
L 151.339742 94.222933 
L 151.682814 94.320247 
L 151.786667 94.35004 
L 151.928767 94.391058 
L 152.269832 94.490703 
L 152.311167 94.502895 
L 152.653933 94.604949 
L 152.696643 94.617785 
L 152.909495 94.682155 
L 153.175596 94.763564 
L 153.382245 94.827503 
L 153.4581 94.851131 
L 153.692064 94.924543 
L 153.951967 95.007044 
L 154.124938 95.062507 
L 154.33327 95.129899 
L 154.443482 95.165813 
L 154.692909 95.247762 
L 154.9886 95.34612 
L 155.186646 95.412734 
L 155.217615 95.423204 
L 155.486477 95.514712 
L 155.669896 95.577767 
L 155.872629 95.648057 
L 156.099395 95.727422 
L 156.299654 95.798164 
L 156.449434 95.851476 
L 156.652337 95.924246 
L 156.899683 96.013815 
L 157.083218 96.080888 
L 157.347721 96.178471 
L 157.542203 96.250916 
L 157.729674 96.32131 
L 157.821296 96.355913 
L 158.041158 96.439486 
L 158.262489 96.524387 
L 158.362629 96.563054 
L 158.672135 96.683569 
L 158.757415 96.717043 
L 158.928584 96.784578 
L 159.290975 96.929108 
L 159.320385 96.94093 
L 159.562488 97.038776 
L 159.809743 97.139681 
L 159.960502 97.201692 
L 160.102778 97.260552 
L 160.350562 97.36385 
L 160.556017 97.450262 
L 160.859656 97.579241 
L 160.942143 97.614542 
L 161.199785 97.725528 
L 161.454253 97.836228 
L 161.528252 97.868622 
L 161.692519 97.940861 
L 161.877724 98.022848 
L 162.227933 98.17946 
L 162.272131 98.199373 
L 162.572421 98.33554 
L 162.697444 98.392685 
L 162.968942 98.5177 
L 163.210611 98.630046 
L 163.28709 98.665808 
L 163.494356 98.763238 
L 163.646731 98.83534 
L 163.95482 98.98236 
L 164.193483 99.097394 
L 164.268067 99.133548 
L 164.513596 99.253261 
L 164.726598 99.357979 
L 164.896057 99.441868 
L 165.0316 99.509336 
L 165.194932 99.591074 
L 165.500984 99.745528 
L 165.694052 99.843834 
L 165.837524 99.917326 
L 166.129243 100.067915 
L 166.32176 100.16815 
L 166.502526 100.262888 
L 166.705471 100.369972 
L 166.837808 100.440212 
L 167.082588 100.570995 
L 167.171659 100.618863 
L 167.521784 100.808474 
L 167.635945 100.8708 
L 167.873685 101.00139 
L 168.121051 101.138415 
L 168.143063 101.150665 
L 168.495747 101.348217 
L 168.636799 101.4279 
L 168.863593 101.556835 
L 169.022949 101.648033 
z
" style="fill:#808080;opacity:0.5;"/>
   </g>
   <g id="patch_6">
    <path clip-path="url(#pc0ec8cc948)" d="M 169.2 236.650055 
L 168.948409 236.504172 
L 168.853882 236.449037 
L 168.551113 236.271235 
L 168.346166 236.149835 
L 168.230844 236.081151 
L 167.957906 235.917517 
L 167.797171 235.820442 
L 167.583053 235.690301 
L 167.513193 235.647636 
L 167.175179 235.439774 
L 166.980436 235.318936 
L 166.826203 235.222669 
L 166.753447 235.177083 
L 166.426905 234.971107 
L 166.316124 234.900713 
L 166.134943 234.785018 
L 165.916886 234.64484 
L 165.742836 234.532213 
L 165.508062 234.379249 
L 165.207171 234.181439 
L 165.059724 234.083775 
L 164.822595 233.925696 
L 164.651907 233.811132 
L 164.480334 233.695313 
L 164.244881 233.535288 
L 164.076812 233.420288 
L 163.955372 233.336792 
L 163.753848 233.197484 
L 163.448456 232.984582 
L 163.301385 232.881276 
L 163.135521 232.76416 
L 162.958715 232.638602 
L 162.82408 232.542494 
L 162.574228 232.362991 
L 162.320019 232.178815 
L 162.090927 232.011493 
L 161.973119 231.92495 
L 161.743723 231.755453 
L 161.532159 231.597975 
L 161.357386 231.467041 
L 161.143316 231.305621 
L 160.96375 231.169323 
L 160.75301 231.008315 
L 160.679655 230.952003 
L 160.343135 230.691889 
L 160.251626 230.620647 
L 159.952698 230.386394 
L 159.86392 230.316369 
L 159.552286 230.068901 
L 159.477809 230.009373 
L 159.204348 229.789516 
L 159.080092 229.688943 
L 158.740018 229.41152 
L 158.689195 229.369784 
L 158.49427 229.209046 
L 158.144599 228.918024 
L 158.085587 228.868568 
L 157.797788 228.625942 
L 157.579243 228.440103 
L 157.506619 228.378039 
L 157.235354 228.14485 
L 157.126194 228.050399 
L 156.856309 227.815354 
L 156.708648 227.685827 
L 156.51537 227.515286 
L 156.289392 227.314443 
L 156.134788 227.176126 
L 155.923268 226.985683 
L 155.768757 226.845681 
L 155.430808 226.536822 
L 155.349334 226.461813 
L 155.202731 226.326303 
L 154.972546 226.112123 
L 154.625859 225.786244 
L 154.448469 225.617949 
L 154.352245 225.526215 
L 154.115136 225.298824 
L 153.896837 225.087764 
L 153.79179 224.985612 
L 153.627542 224.825117 
L 153.369149 224.570699 
L 153.237097 224.439761 
L 153.031516 224.234661 
L 152.720274 223.921216 
L 152.618275 223.817718 
L 152.374419 223.568704 
L 152.159852 223.347742 
L 151.889084 223.066391 
L 151.711104 222.879908 
L 151.541363 222.700901 
L 151.299412 222.443766 
L 151.136593 222.269405 
L 151.063578 222.190866 
L 150.736096 221.83592 
L 150.690128 221.785743 
L 150.343794 221.404839 
L 150.291887 221.347312 
L 149.993027 221.013845 
L 149.84376 220.845839 
L 149.71641 220.701727 
L 149.385764 220.324181 
L 149.156365 220.059334 
L 149.075751 219.965689 
L 148.840416 219.690582 
L 148.725584 219.555399 
L 148.434234 219.209592 
L 148.183937 218.909225 
L 148.129893 218.843966 
L 147.804093 218.447469 
L 147.594637 218.189722 
L 147.519894 218.097202 
L 147.279079 217.797127 
L 147.13858 217.620642 
L 146.90496 217.324843 
L 146.621677 216.962174 
L 146.463559 216.75781 
L 146.277596 216.51565 
L 146.085653 216.263627 
L 145.938404 216.068835 
L 145.686436 215.732541 
L 145.566638 215.571315 
L 145.297206 215.205506 
L 145.193846 215.063978 
L 144.909653 214.671361 
L 144.81684 214.542017 
L 144.54868 214.16514 
L 144.267348 213.764592 
L 144.184026 213.644927 
L 143.896469 213.228236 
L 143.778537 213.055653 
L 143.572154 212.751218 
L 143.456648 212.579474 
L 143.19151 212.181475 
L 143.016864 211.91639 
L 142.852421 211.664621 
L 142.615369 211.297905 
L 142.48092 211.087892 
L 142.249135 210.722321 
L 142.080539 210.453557 
L 141.825549 210.042389 
L 141.65791 209.768932 
L 141.386056 209.320021 
L 141.168816 208.956316 
L 140.963796 208.608893 
L 140.740317 208.22544 
L 140.557511 207.907991 
L 140.463373 207.743159 
L 140.22711 207.325309 
L 140.129742 207.151341 
L 139.82997 206.609061 
L 139.615855 206.215383 
L 139.518798 206.035135 
L 139.194535 205.424549 
L 139.110038 205.263266 
L 138.930757 204.917986 
L 138.656817 204.382097 
L 138.380705 203.831375 
L 138.367626 203.805016 
L 138.180116 203.424335 
L 137.992606 203.038332 
L 137.852077 202.745443 
L 137.686116 202.395456 
L 137.447521 201.884254 
L 137.391575 201.762973 
L 137.202354 201.34866 
L 137.013133 200.927809 
L 136.955237 200.797695 
L 136.782002 200.404487 
L 136.555523 199.881355 
L 136.305757 199.291914 
L 136.211774 199.066564 
L 136.046547 198.665481 
L 135.88132 198.257924 
L 135.775736 197.993968 
L 135.63324 197.633228 
L 135.490745 197.267128 
L 135.335412 196.861693 
L 135.146795 196.360051 
L 134.942025 195.803233 
L 134.85269 195.556124 
L 134.6765 195.060943 
L 134.500309 194.554869 
L 134.345084 194.099459 
L 134.237208 193.777421 
L 134.055941 193.225477 
L 133.920119 192.802542 
L 133.784297 192.371093 
L 133.661987 191.974881 
L 133.555366 191.623233 
L 133.448744 191.265467 
L 133.364993 190.979955 
L 133.281241 190.690324 
L 133.183044 190.345263 
L 133.084847 189.994013 
L 132.939023 189.460287 
L 132.86611 189.187681 
L 132.793198 188.911036 
L 132.6701 188.434322 
L 132.547002 187.94468 
L 132.466119 187.615421 
L 132.385236 187.279806 
L 132.32212 187.013265 
L 132.259004 186.742449 
L 132.195888 186.467154 
L 132.132772 186.187165 
L 132.031447 185.727256 
L 131.930122 185.253539 
L 131.879635 185.011958 
L 131.797837 184.612176 
L 131.71604 184.201297 
L 131.634243 183.778385 
L 131.552445 183.342359 
L 131.50649 183.091175 
L 131.460534 182.835209 
L 131.390277 182.434013 
L 131.32002 182.019883 
L 131.249763 181.591522 
L 131.214634 181.371537 
L 131.179505 181.1474 
L 131.126352 180.799826 
L 131.0732 180.441259 
L 131.020047 180.070611 
L 130.966894 179.686603 
L 130.925754 179.379248 
L 130.884613 179.062148 
L 130.843473 178.734331 
L 130.802333 178.394649 
L 130.774465 178.15713 
L 130.746597 177.913049 
L 130.718729 177.661839 
L 130.690861 177.402845 
L 130.664683 177.151788 
L 130.638505 176.892452 
L 130.612327 176.62397 
L 130.586148 176.345312 
L 130.55997 176.055235 
L 130.533792 175.752225 
L 130.520703 175.595299 
L 130.507614 175.434396 
L 130.494525 175.2692 
L 130.481436 175.099352 
L 130.467452 174.91228 
L 130.453468 174.718835 
L 130.439484 174.518321 
L 130.4255 174.309907 
L 130.411516 174.092584 
L 130.397532 173.865105 
L 130.383548 173.625906 
L 130.369564 173.372972 
L 130.362572 173.240553 
L 130.35558 173.103633 
L 130.348588 172.961719 
L 130.341596 172.814224 
L 130.334604 172.660434 
L 130.327612 172.499468 
L 130.32062 172.330221 
L 130.313628 172.151267 
L 130.306636 171.960719 
L 130.299644 171.755987 
L 130.292652 171.533338 
L 130.28566 171.287048 
L 130.278668 171.007477 
L 130.271676 170.675832 
L 130.264684 170.243594 
L 130.257692 169.2 
L 130.257692 247.084615 
L 130.472446 247.084319 
L 130.731901 247.083172 
L 130.939834 247.081628 
L 131.135221 247.079672 
L 131.287009 247.077813 
L 131.381658 247.076505 
L 131.597896 247.073084 
L 131.732955 247.070642 
L 131.967206 247.065852 
L 132.118401 247.062386 
L 132.345705 247.056622 
L 132.639991 247.048173 
L 132.788637 247.043482 
L 133.042917 247.034798 
L 133.10266 247.032638 
L 133.405852 247.020964 
L 133.493971 247.017349 
L 133.760447 247.00581 
L 133.893496 246.999706 
L 134.14433 246.987578 
L 134.289648 246.980182 
L 134.509928 246.96845 
L 134.739262 246.955571 
L 135.03897 246.937717 
L 135.106077 246.933561 
L 135.323668 246.919684 
L 135.615148 246.900135 
L 135.645116 246.898063 
L 135.889768 246.880712 
L 136.165247 246.860248 
L 136.297757 246.850054 
L 136.50826 246.833393 
L 136.6838 246.81906 
L 136.961169 246.795597 
L 137.11666 246.782007 
L 137.240799 246.770932 
L 137.560982 246.741442 
L 137.607349 246.737061 
L 137.861927 246.712508 
L 138.082245 246.690578 
L 138.36504 246.661502 
L 138.527704 246.644304 
L 138.623609 246.634003 
L 138.808054 246.613853 
L 139.000942 246.592305 
L 139.288847 246.559237 
L 139.483697 246.536241 
L 139.618372 246.520056 
L 139.826427 246.494583 
L 139.947478 246.479502 
L 140.166533 246.45172 
L 140.489072 246.409664 
L 140.657569 246.387148 
L 140.736371 246.37649 
L 141.029184 246.336167 
L 141.139893 246.320626 
L 141.420238 246.280548 
L 141.558634 246.260379 
L 141.851701 246.216831 
L 142.035925 246.188873 
L 142.167187 246.168677 
L 142.486449 246.118599 
L 142.491516 246.117793 
L 142.715222 246.081879 
L 142.889778 246.053391 
L 143.194649 246.002659 
L 143.385419 245.970281 
L 143.515208 245.947975 
L 143.753425 245.906444 
L 144.051441 245.853414 
L 144.10697 245.8434 
L 144.410478 245.787936 
L 144.510734 245.769342 
L 144.740584 245.726199 
L 144.952071 245.685872 
L 145.190919 245.639597 
L 145.399111 245.598631 
L 145.583048 245.561946 
L 145.726492 245.533017 
L 146.005799 245.475884 
L 146.168057 245.442204 
L 146.219987 245.431348 
L 146.438459 245.385275 
L 146.740411 245.320518 
L 146.837597 245.299409 
L 147.086672 245.244716 
L 147.264266 245.205196 
L 147.549576 245.140793 
L 147.585278 245.132655 
L 147.922619 245.054886 
L 148.106581 245.01181 
L 148.208579 244.987723 
L 148.410082 244.939713 
L 148.688919 244.872341 
L 148.819963 244.840303 
L 149.062367 244.780404 
L 149.231854 244.738034 
L 149.34034 244.7107 
L 149.611243 244.641722 
L 149.915304 244.563065 
L 150.088873 244.517578 
L 150.160792 244.498605 
L 150.448851 244.421875 
L 150.677506 244.360126 
L 150.879738 244.30489 
L 151.050154 244.25789 
L 151.192225 244.218389 
L 151.421108 244.15414 
L 151.580243 244.109026 
L 151.87074 244.025727 
L 152.046688 243.974682 
L 152.225803 243.922255 
L 152.35746 243.883422 
L 152.482222 243.84639 
L 152.748006 243.766743 
L 152.976129 243.697557 
L 153.245892 243.614757 
L 153.379198 243.573445 
L 153.551331 243.519713 
L 153.831783 243.43123 
L 153.917428 243.403977 
L 154.103522 243.344384 
L 154.360058 243.261388 
L 154.567549 243.193542 
L 154.742467 243.135844 
L 154.923731 243.07557 
L 155.125076 243.008038 
L 155.263434 242.961278 
L 155.510194 242.877164 
L 155.67612 242.820084 
L 155.935701 242.729948 
L 156.12627 242.66312 
L 156.230988 242.626162 
L 156.541909 242.515437 
L 156.727221 242.448736 
L 156.785115 242.427789 
L 156.980625 242.356669 
L 157.212489 242.271556 
L 157.362874 242.215905 
L 157.682431 242.096481 
L 157.919066 242.007017 
L 158.028274 241.965432 
L 158.205626 241.897499 
L 158.344582 241.843926 
L 158.685244 241.711293 
L 158.866046 241.640151 
L 158.969788 241.599095 
L 159.292615 241.470233 
L 159.423911 241.417345 
L 159.547165 241.367445 
L 159.819459 241.256334 
L 159.942717 241.205643 
L 160.124437 241.130459 
L 160.475474 240.983696 
L 160.637051 240.915465 
L 160.693586 240.891489 
L 160.995457 240.762582 
L 161.117474 240.710049 
L 161.29343 240.63386 
L 161.514659 240.537335 
L 161.718215 240.447799 
L 162.007806 240.319221 
L 162.219629 240.224277 
L 162.289851 240.192634 
L 162.521268 240.087763 
L 162.744256 239.985849 
L 162.993789 239.870795 
L 163.185399 239.781722 
L 163.360661 239.699694 
L 163.598949 239.587313 
L 163.759937 239.510831 
L 163.877632 239.45463 
L 164.153237 239.322075 
L 164.247228 239.276563 
L 164.57406 239.117096 
L 164.756693 239.02716 
L 164.957549 238.927565 
L 165.187089 238.812862 
L 165.229092 238.79177 
L 165.455421 238.677574 
L 165.685033 238.560773 
L 165.89765 238.451763 
L 166.126314 238.333604 
L 166.297346 238.244599 
L 166.476121 238.150988 
L 166.639654 238.06484 
L 166.815332 237.97174 
L 166.954381 237.897645 
L 167.278742 237.723392 
L 167.478294 237.615204 
L 167.589085 237.554813 
L 167.743086 237.470481 
L 167.959203 237.351371 
L 168.169503 237.234608 
L 168.414321 237.097607 
L 168.70409 236.933949 
L 168.741847 236.912504 
L 169.082534 236.717738 
z
" style="fill:#808080;opacity:0.5;"/>
   </g>
   <g id="patch_7">
    <path clip-path="url(#pc0ec8cc948)" d="M 286.026923 169.2 
L 286.018808 170.324307 
L 286.010692 170.789969 
L 286.002577 171.147256 
L 285.994461 171.448438 
L 285.986346 171.713765 
L 285.978231 171.95362 
L 285.970115 172.174172 
L 285.962 172.379441 
L 285.953884 172.572218 
L 285.945769 172.754538 
L 285.929538 173.093598 
L 285.913307 173.405347 
L 285.897076 173.695471 
L 285.880846 173.967918 
L 285.864615 174.225565 
L 285.848384 174.470582 
L 285.832153 174.704656 
L 285.815922 174.929129 
L 285.799691 175.145088 
L 285.76723 175.554903 
L 285.745515 175.814798 
L 285.7238 176.064792 
L 285.702085 176.30593 
L 285.68037 176.539085 
L 285.63694 176.984292 
L 285.593511 177.405148 
L 285.550081 177.805228 
L 285.506651 178.187306 
L 285.463221 178.553588 
L 285.419792 178.905863 
L 285.376362 179.245605 
L 285.332932 179.574044 
L 285.289502 179.892224 
L 285.246073 180.201033 
L 285.202643 180.501241 
L 285.159213 180.793514 
L 285.072354 181.356534 
L 284.995256 181.834782 
L 284.918157 182.295121 
L 284.841059 182.73938 
L 284.763961 183.169092 
L 284.696296 183.535278 
L 284.62863 183.89203 
L 284.536614 184.363222 
L 284.444597 184.819666 
L 284.35258 185.262617 
L 284.260564 185.693163 
L 284.168547 186.112252 
L 284.07653 186.520715 
L 283.984513 186.919287 
L 283.892497 187.308622 
L 283.767867 187.822247 
L 283.643238 188.321268 
L 283.466947 189.004345 
L 283.283553 189.689183 
L 283.100159 190.350269 
L 282.916765 190.989766 
L 282.733371 191.609521 
L 282.682001 191.779802 
L 282.521553 192.302841 
L 282.361104 192.813208 
L 282.200656 193.311707 
L 282.040207 193.79906 
L 281.821505 194.446567 
L 281.602804 195.076029 
L 281.376901 195.708634 
L 281.150998 196.324609 
L 281.103871 196.45112 
L 280.806004 197.235702 
L 280.508136 197.995836 
L 280.313048 198.481351 
L 280.117961 198.957666 
L 279.88522 199.514482 
L 279.65248 200.059498 
L 279.496071 200.419444 
L 279.13045 201.242113 
L 278.904147 201.73883 
L 278.677844 202.226526 
L 278.253412 203.118231 
L 277.943465 203.751582 
L 277.633517 204.370799 
L 277.332425 204.959489 
L 277.075859 205.451605 
L 276.658636 206.23412 
L 276.138243 207.181128 
L 275.810001 207.762891 
L 275.431355 208.41986 
L 275.116942 208.954393 
L 274.664564 209.706824 
L 274.092143 210.632264 
L 273.775815 211.131563 
L 273.347232 211.794966 
L 273.082168 212.197999 
L 272.594551 212.925526 
L 272.182365 213.527016 
L 271.86985 213.975146 
L 271.383455 214.659549 
L 271.114452 215.031455 
L 270.713388 215.577508 
L 270.425355 215.963611 
L 269.824923 216.752795 
L 269.604181 217.037762 
L 269.176852 217.581792 
L 268.77418 218.085472 
L 268.265774 218.709415 
L 268.122344 218.883082 
L 267.733775 219.348483 
L 267.259781 219.906386 
L 266.929047 220.289457 
L 266.576371 220.692461 
L 266.257288 221.052314 
L 265.744823 221.621022 
L 265.183083 222.23172 
L 264.997634 222.430491 
L 264.592818 222.859605 
L 264.206243 223.263375 
L 263.772606 223.709478 
L 263.214989 224.272798 
L 263.063672 224.423701 
L 262.546956 224.932823 
L 261.970504 225.489774 
L 261.701316 225.745963 
L 261.425505 226.005935 
L 260.794146 226.591613 
L 260.743447 226.638083 
L 260.04684 227.268347 
L 259.748721 227.53345 
L 259.541635 227.716001 
L 259.209811 228.005811 
L 258.622664 228.510597 
L 258.300089 228.783641 
L 257.712553 229.273322 
L 257.309701 229.603483 
L 257.017174 229.840422 
L 256.608417 230.167611 
L 256.459052 230.286051 
L 255.985014 230.658024 
L 255.493314 231.037654 
L 255.012989 231.402512 
L 254.587836 231.720606 
L 254.290421 231.940457 
L 254.117323 232.067411 
L 253.509995 232.507079 
L 253.051484 232.833161 
L 252.651495 233.113579 
L 252.495087 233.222217 
L 252.144978 233.463352 
L 251.550254 233.866556 
L 251.244685 234.070628 
L 250.636523 234.470629 
L 250.250907 234.720067 
L 250.201985 234.751482 
L 249.521483 235.183158 
L 249.317119 235.310878 
L 248.991362 235.512654 
L 248.298068 235.93476 
L 248.069911 236.071517 
L 247.714847 236.282244 
L 247.347667 236.497497 
L 246.757709 236.837741 
L 246.432559 237.022341 
L 246.009243 237.259596 
L 245.795078 237.378312 
L 245.132613 237.739993 
L 244.87065 237.880727 
L 244.618979 238.01472 
L 244.294804 238.185581 
L 243.735095 238.476019 
L 243.500094 238.596255 
L 243.117276 238.789977 
L 242.389737 239.150889 
L 242.23836 239.224799 
L 241.833806 239.420341 
L 241.500064 239.579496 
L 241.131448 239.753029 
L 240.794686 239.909515 
L 240.406203 240.087618 
L 239.946919 240.294866 
L 239.55082 240.470742 
L 239.219229 240.615953 
L 238.474944 240.935239 
L 238.364641 240.98178 
L 237.943545 241.157623 
L 237.554684 241.317442 
L 237.291079 241.42439 
L 236.793693 241.623142 
L 236.46853 241.750937 
L 235.969496 241.943803 
L 235.43494 242.146045 
L 235.138883 242.256131 
L 234.736729 242.403484 
L 234.441913 242.509918 
L 233.825264 242.728219 
L 233.593825 242.808652 
L 233.162025 242.956539 
L 232.698028 243.112312 
L 232.588328 243.148667 
L 231.859895 243.385507 
L 231.669778 243.44602 
L 231.133126 243.613947 
L 230.918716 243.679853 
L 230.52328 243.799634 
L 229.992486 243.956826 
L 229.525992 244.091597 
L 229.298062 244.156303 
L 228.940257 244.25637 
L 228.41299 244.400484 
L 228.14848 244.471285 
L 227.708469 244.58686 
L 227.173374 244.723717 
L 226.958323 244.777582 
L 226.488852 244.892917 
L 226.142306 244.976074 
L 225.71135 245.077151 
L 225.230858 245.186807 
L 225.004153 245.237435 
L 224.472584 245.353368 
L 224.206366 245.409969 
L 223.688826 245.517227 
L 223.543511 245.546685 
L 222.877748 245.677971 
L 222.529811 245.74419 
L 222.357179 245.776437 
L 221.658439 245.902852 
L 221.54599 245.922582 
L 220.961652 246.022378 
L 220.551811 246.089645 
L 220.100712 246.161093 
L 219.711669 246.220537 
L 219.451603 246.259154 
L 219.244362 246.289284 
L 218.606212 246.378495 
L 218.291567 246.420501 
L 217.994682 246.458941 
L 217.385838 246.534148 
L 217.309106 246.543281 
L 216.889693 246.591838 
L 216.497372 246.635174 
L 215.884574 246.698843 
L 215.691913 246.717848 
L 215.334804 246.751798 
L 214.624618 246.814386 
L 214.458575 246.828075 
L 214.022116 246.862354 
L 213.653894 246.889354 
L 213.367173 246.909164 
L 212.961379 246.935384 
L 212.602694 246.956789 
L 211.935296 246.992201 
L 211.845502 246.996527 
L 211.293895 247.020825 
L 210.771825 247.040214 
L 210.677838 247.043332 
L 210.014301 247.062115 
L 209.68746 247.069287 
L 209.433676 247.073909 
L 208.870674 247.08121 
L 208.533177 247.083635 
L 208.142308 247.084615 
L 208.142308 91.315385 
L 208.630713 91.316916 
L 208.873363 91.318816 
L 209.332903 91.324485 
L 209.635066 91.329691 
L 210.025943 91.338166 
L 210.370362 91.34726 
L 210.842656 91.362211 
L 211.224901 91.376411 
L 211.573934 91.391021 
L 211.934451 91.407758 
L 212.610293 91.443647 
L 212.835756 91.45693 
L 213.157391 91.477016 
L 213.560868 91.504102 
L 213.960898 91.533036 
L 214.343836 91.562674 
L 214.955633 91.613971 
L 215.190354 91.634941 
L 215.765854 91.689389 
L 216.108791 91.723885 
L 216.516988 91.766945 
L 216.899613 91.809284 
L 217.31614 91.857553 
L 217.549544 91.885595 
L 218.066906 91.950303 
L 218.184965 91.965562 
L 218.807857 92.049113 
L 219.270113 92.114429 
L 219.622849 92.166173 
L 219.945115 92.214891 
L 220.148542 92.246354 
L 220.701056 92.334591 
L 220.887829 92.36534 
L 221.630727 92.49227 
L 221.868848 92.534523 
L 222.125471 92.580913 
L 222.630632 92.674829 
L 223.112494 92.767632 
L 223.582394 92.861169 
L 223.94902 92.93624 
L 224.300199 93.00987 
L 224.619111 93.078201 
L 225.013691 93.164681 
L 225.490655 93.272086 
L 225.761975 93.334589 
L 226.027101 93.396653 
L 226.71854 93.563125 
L 227.01282 93.636007 
L 227.380592 93.728802 
L 227.891759 93.86095 
L 228.221377 93.948128 
L 228.581377 94.045108 
L 228.720771 94.083157 
L 229.085847 94.184125 
L 229.748464 94.372282 
L 230.145594 94.488095 
L 230.527395 94.601601 
L 230.747706 94.668065 
L 231.101256 94.776214 
L 231.582788 94.926471 
L 232.014164 95.063991 
L 232.386325 95.18486 
L 232.667866 95.277674 
L 233.188462 95.452434 
L 233.589944 95.590007 
L 233.967172 95.721502 
L 234.453944 95.894399 
L 234.778448 96.011686 
L 235.051029 96.111465 
L 235.365121 96.22787 
L 236.02478 96.477369 
L 236.399653 96.622209 
L 236.716201 96.74625 
L 237.166834 96.925591 
L 237.428794 97.031343 
L 237.797644 97.182125 
L 238.224202 97.359253 
L 238.598865 97.517287 
L 238.882609 97.638508 
L 239.439469 97.88029 
L 239.688736 97.990196 
L 240.423233 98.320136 
L 240.66065 98.428744 
L 241.041517 98.60499 
L 241.370272 98.759133 
L 241.850362 98.987605 
L 242.305766 99.208061 
L 242.574677 99.339959 
L 242.804405 99.453657 
L 243.345296 99.725092 
L 243.745 99.929071 
L 244.336234 100.236147 
L 244.633454 100.392954 
L 244.917625 100.544415 
L 245.188432 100.690161 
L 245.770735 101.00825 
L 246.048344 101.162174 
L 246.600117 101.47253 
L 246.713428 101.536997 
L 247.21816 101.827223 
L 247.586108 102.041978 
L 248.116257 102.356177 
L 248.44116 102.551551 
L 248.984394 102.883054 
L 249.216143 103.026339 
L 249.713984 103.337954 
L 249.916917 103.466482 
L 250.500018 103.840703 
L 250.692802 103.966046 
L 251.102268 104.23497 
L 251.64844 104.59946 
L 252.146936 104.93799 
L 252.362782 105.086328 
L 252.6155 105.26137 
L 253.232806 105.695195 
L 253.710389 106.03701 
L 253.906537 106.178983 
L 254.357378 106.508847 
L 254.671906 106.741936 
L 255.295616 107.211462 
L 255.635925 107.471809 
L 255.817677 107.612075 
L 256.266097 107.961824 
L 256.565571 108.198353 
L 256.949701 108.505258 
L 257.313176 108.799346 
L 257.729795 109.140909 
L 258.228922 109.556523 
L 258.496149 109.781955 
L 258.906721 110.132347 
L 259.382728 110.544798 
L 259.843375 110.950425 
L 260.295136 111.354552 
L 260.656929 111.682804 
L 261.056744 112.050409 
L 261.294288 112.27127 
L 261.783201 112.731709 
L 262.164255 113.096146 
L 262.53918 113.459587 
L 262.987608 113.900756 
L 263.395983 114.308792 
L 263.549426 114.463682 
L 264.022941 114.947184 
L 264.603652 115.551795 
L 264.919352 115.886019 
L 265.377337 116.37799 
L 265.689362 116.7181 
L 266.16247 117.241612 
L 266.357862 117.460628 
L 266.808002 117.971593 
L 267.090205 118.296575 
L 267.780658 119.107282 
L 267.842937 119.181521 
L 268.488686 119.962535 
L 268.963942 120.550826 
L 269.166013 120.804539 
L 269.647088 121.417417 
L 269.859765 121.692434 
L 270.312694 122.286714 
L 270.852426 123.010669 
L 271.064611 123.30014 
L 271.402046 123.766325 
L 271.964665 124.560108 
L 272.192149 124.887123 
L 272.831278 125.825463 
L 273.29564 126.52616 
L 273.625838 127.034604 
L 273.926839 127.505771 
L 274.262767 128.040576 
L 274.509075 128.438922 
L 274.929237 129.131066 
L 275.260378 129.688256 
L 275.59152 130.256232 
L 275.855816 130.717613 
L 276.369656 131.636157 
L 276.464338 131.808645 
L 276.968168 132.744351 
L 277.273223 133.326195 
L 277.578278 133.92027 
L 277.90431 134.56943 
L 278.237664 135.249237 
L 278.451699 135.694734 
L 278.684567 136.187837 
L 278.917436 136.690086 
L 279.266821 137.461744 
L 279.62634 138.279999 
L 279.927908 138.986742 
L 280.229475 139.713502 
L 280.390923 140.111327 
L 280.709497 140.915441 
L 281.028072 141.746791 
L 281.209728 142.233995 
L 281.391384 142.731411 
L 281.66945 143.51396 
L 281.827963 143.972288 
L 281.986477 144.440113 
L 282.194588 145.069665 
L 282.4027 145.717932 
L 282.617555 146.408535 
L 282.83241 147.122819 
L 282.978559 147.623421 
L 283.124708 148.13693 
L 283.236236 148.538073 
L 283.347764 148.947773 
L 283.459292 149.366562 
L 283.570819 149.795028 
L 283.679308 150.221727 
L 283.787798 150.658879 
L 283.896287 151.107239 
L 284.004776 151.567664 
L 284.138538 152.153409 
L 284.272301 152.761099 
L 284.411061 153.417398 
L 284.480442 153.756471 
L 284.549822 154.103476 
L 284.619202 154.458973 
L 284.688583 154.823593 
L 284.757963 155.198048 
L 284.827344 155.58315 
L 284.9011 156.005261 
L 284.974856 156.441756 
L 285.048613 156.894165 
L 285.122369 157.364313 
L 285.196125 157.854406 
L 285.269882 158.36715 
L 285.343638 158.905929 
L 285.380516 159.186387 
L 285.417394 159.475069 
L 285.472355 159.922223 
L 285.527315 160.392391 
L 285.55854 160.671212 
L 285.589766 160.95958 
L 285.620991 161.258534 
L 285.652217 161.56932 
L 285.683442 161.893446 
L 285.714668 162.232774 
L 285.745893 162.589646 
L 285.777119 162.967072 
L 285.808345 163.369045 
L 285.823957 163.580869 
L 285.83957 163.801043 
L 285.855183 164.030633 
L 285.870796 164.270954 
L 285.886408 164.523662 
L 285.902021 164.790885 
L 285.917634 165.075444 
L 285.933247 165.381212 
L 285.948859 165.713764 
L 285.964472 166.08166 
L 285.980085 166.499303 
L 285.995698 166.994779 
L 286.01131 167.640595 
z
" style="fill:#808080;opacity:0.5;"/>
   </g>
   <g id="patch_8">
    <path clip-path="url(#pc0ec8cc948)" d="M 208.142308 169.2 
L 208.135125 168.142249 
L 208.127942 167.704148 
L 208.120759 167.368005 
L 208.113576 167.084643 
L 208.106393 166.835014 
L 208.09921 166.609347 
L 208.092027 166.40184 
L 208.084844 166.20871 
L 208.077661 166.027331 
L 208.070478 165.85579 
L 208.063295 165.692644 
L 208.056112 165.536771 
L 208.048929 165.387278 
L 208.041746 165.243443 
L 208.034563 165.104669 
L 208.02738 164.970458 
L 208.013014 164.7141 
L 207.998648 164.471664 
L 207.984282 164.241109 
L 207.969916 164.020846 
L 207.95555 163.809614 
L 207.941184 163.606391 
L 207.926818 163.410332 
L 207.912452 163.220732 
L 207.895283 163.001788 
L 207.878114 162.790365 
L 207.860945 162.58574 
L 207.843776 162.387302 
L 207.826608 162.194525 
L 207.809439 162.006953 
L 207.79227 161.82419 
L 207.775101 161.645886 
L 207.757485 161.467246 
L 207.739868 161.292679 
L 207.704635 160.954739 
L 207.669402 160.63026 
L 207.63417 160.317766 
L 207.598937 160.016034 
L 207.563704 159.724035 
L 207.528471 159.440897 
L 207.493238 159.165868 
L 207.445119 158.802187 
L 207.396999 158.451018 
L 207.361387 158.198474 
L 207.325775 157.951711 
L 207.290162 157.710356 
L 207.25455 157.474077 
L 207.217886 157.235809 
L 207.181223 157.002305 
L 207.144559 156.773295 
L 207.107896 156.548537 
L 207.034569 156.110901 
L 206.961242 155.687829 
L 206.897474 155.330712 
L 206.833706 154.982849 
L 206.769938 154.643575 
L 206.706171 154.312304 
L 206.619523 153.87407 
L 206.545443 153.509483 
L 206.471364 153.153519 
L 206.397285 152.805617 
L 206.323205 152.465274 
L 206.266717 152.21055 
L 206.21023 151.959774 
L 206.142279 151.6631 
L 206.074328 151.371622 
L 205.989109 151.013032 
L 205.903891 150.66177 
L 205.818672 150.317425 
L 205.733453 149.979626 
L 205.66357 149.70726 
L 205.593687 149.438895 
L 205.484553 149.027428 
L 205.35031 148.533311 
L 205.216067 148.051587 
L 205.119628 147.712704 
L 205.023189 147.37951 
L 204.879047 146.891554 
L 204.734904 146.414956 
L 204.63643 146.095526 
L 204.534443 145.769727 
L 204.432455 145.448835 
L 204.320824 145.102992 
L 204.209193 144.762553 
L 204.037078 144.247735 
L 203.894352 143.829629 
L 203.752405 143.421316 
L 203.610458 143.020139 
L 203.491618 142.689521 
L 203.372778 142.363503 
L 203.329129 142.244881 
L 203.15122 141.767412 
L 202.973312 141.299248 
L 202.890824 141.085208 
L 202.654549 140.482262 
L 202.523495 140.154052 
L 202.392441 139.830096 
L 202.272149 139.536364 
L 202.097443 139.115725 
L 201.91279 138.678527 
L 201.764776 138.333347 
L 201.612008 137.981817 
L 201.45924 137.634941 
L 201.345117 137.378758 
L 201.193492 137.042176 
L 201.041868 136.709789 
L 200.870804 136.339662 
L 200.628148 135.823178 
L 200.601234 135.766493 
L 200.434203 135.417303 
L 200.267172 135.072504 
L 200.123131 134.778586 
L 199.922889 134.3751 
L 199.690187 133.91343 
L 199.544404 133.628033 
L 199.322683 133.199439 
L 199.147462 132.865266 
L 198.887779 132.377119 
L 198.801388 132.216557 
L 198.610592 131.865104 
L 198.359052 131.408227 
L 198.155831 131.044317 
L 197.876582 130.551597 
L 197.747593 130.326788 
L 197.575751 130.029956 
L 197.402633 129.733935 
L 197.170379 129.341428 
L 196.976908 129.018417 
L 196.72862 128.609003 
L 196.53256 128.289669 
L 196.344042 127.985832 
L 196.231518 127.805947 
L 196.054153 127.524598 
L 195.859156 127.218322 
L 195.672903 126.928692 
L 195.438225 126.567718 
L 195.273083 126.316293 
L 195.053777 125.985643 
L 194.848562 125.679512 
L 194.580071 125.283661 
L 194.38195 124.994877 
L 194.227085 124.771066 
L 194.010677 124.461088 
L 193.776892 124.129782 
L 193.723922 124.055222 
L 193.448082 123.669922 
L 193.314234 123.484731 
L 193.094047 123.182549 
L 192.922739 122.949538 
L 192.596298 122.510477 
L 192.516216 122.403745 
L 192.333523 122.16167 
L 192.148268 121.918185 
L 191.884758 121.575236 
L 191.634515 121.253166 
L 191.583681 121.188164 
L 191.403214 120.958539 
L 191.089665 120.563755 
L 190.867155 120.286747 
L 190.696474 120.076004 
L 190.506909 119.843692 
L 190.429585 119.749452 
L 190.103181 119.354932 
L 189.940872 119.160702 
L 189.699991 118.874794 
L 189.497491 118.636578 
L 189.351902 118.466503 
L 189.088517 118.161315 
L 188.918572 117.96608 
L 188.850628 117.888391 
L 188.488494 117.47779 
L 188.286086 117.250805 
L 188.120066 117.065951 
L 188.081294 117.022952 
L 187.711501 116.616037 
L 187.498423 116.384168 
L 187.471519 116.355026 
L 187.131406 115.989155 
L 186.994311 115.843 
L 186.822417 115.660806 
L 186.537461 115.361344 
L 186.39279 115.210518 
L 186.127488 114.936023 
L 186.022804 114.828448 
L 185.802395 114.603303 
L 185.731473 114.531243 
L 185.443425 114.240486 
L 185.203202 114.000324 
L 185.038671 113.837037 
L 184.835943 113.637172 
L 184.738705 113.541824 
L 184.513137 113.321918 
L 184.245921 113.063697 
L 184.051904 112.877748 
L 183.960123 112.790229 
L 183.738054 112.579648 
L 183.510057 112.36516 
L 183.36423 112.228876 
L 183.09831 111.982149 
L 182.845949 111.750121 
L 182.666362 111.586246 
L 182.472353 111.410359 
L 182.233066 111.195053 
L 182.071239 111.050454 
L 181.870407 110.872125 
L 181.818228 110.825995 
L 181.550631 110.590719 
L 181.374293 110.436861 
L 181.130758 110.2259 
L 180.944038 110.065343 
L 180.687007 109.845998 
L 180.492567 109.681342 
L 180.424622 109.624061 
L 180.147532 109.39183 
L 179.997626 109.267101 
L 179.687288 109.010894 
L 179.481117 108.842169 
L 179.302934 108.697293 
L 179.115555 108.545877 
L 178.938314 108.403533 
L 178.800556 108.293484 
L 178.658956 108.180896 
L 178.46407 108.026816 
L 178.146722 107.778064 
L 177.985022 107.652333 
L 177.888629 107.577706 
L 177.548531 107.316319 
L 177.489761 107.271453 
L 177.26867 107.103452 
L 177.055508 106.942649 
L 176.854935 106.792386 
L 176.666746 106.652314 
L 176.490345 106.521813 
L 176.284074 106.370186 
L 175.970347 106.141563 
L 175.899892 106.090548 
L 175.748948 105.981657 
L 175.449503 105.767252 
L 175.337883 105.687878 
L 175.025936 105.467609 
L 174.940143 105.40743 
L 174.659037 105.211455 
L 174.441141 105.060806 
L 174.310834 104.971237 
L 174.143523 104.856802 
L 173.83873 104.64997 
L 173.701579 104.557584 
L 173.436602 104.380288 
L 173.401943 104.357213 
L 173.122812 104.172353 
L 172.993815 104.087504 
L 172.792477 103.955802 
L 172.576506 103.815511 
L 172.28596 103.628375 
L 172.064982 103.487262 
L 171.963714 103.422944 
L 171.687047 103.248337 
L 171.48851 103.124036 
L 171.334756 103.028343 
L 171.195811 102.942293 
L 170.914368 102.769224 
L 170.770264 102.681245 
L 170.632623 102.597611 
L 170.310958 102.403673 
L 170.114183 102.286074 
L 169.995037 102.21525 
L 169.718535 102.05199 
L 169.61292 101.990035 
L 169.307486 101.812116 
L 169.2 101.749945 
L 169.2 101.749945 
L 169.470424 101.594536 
L 169.603865 101.518379 
L 169.794063 101.410432 
L 169.92221 101.3381 
L 170.103221 101.236472 
L 170.33512 101.107197 
L 170.666903 100.924035 
L 170.802741 100.849652 
L 170.928766 100.780956 
L 171.135561 100.668883 
L 171.28531 100.588229 
L 171.558414 100.442222 
L 171.679275 100.378052 
L 172.009956 100.203866 
L 172.056134 100.179703 
L 172.410414 99.995628 
L 172.458823 99.970655 
L 172.817379 99.787013 
L 172.999071 99.694847 
L 173.184961 99.60117 
L 173.397628 99.494759 
L 173.519377 99.434206 
L 173.620923 99.383904 
L 173.843056 99.274507 
L 174.052941 99.171946 
L 174.360408 99.023105 
L 174.578245 98.918658 
L 174.680334 98.869995 
L 174.865413 98.782235 
L 175.011186 98.713533 
L 175.280837 98.587416 
L 175.367385 98.547203 
L 175.693002 98.397063 
L 175.866739 98.317696 
L 176.146427 98.191008 
L 176.147353 98.190591 
L 176.359155 98.095538 
L 176.649266 97.96657 
L 176.767056 97.91461 
L 177.03867 97.795679 
L 177.135403 97.75362 
L 177.507176 97.593422 
L 177.638649 97.537317 
L 177.891568 97.430187 
L 177.946875 97.4069 
L 178.145908 97.323513 
L 178.451224 97.196855 
L 178.681907 97.102163 
L 178.839443 97.037992 
L 178.947131 96.994356 
L 179.168178 96.905373 
L 179.358501 96.829386 
L 179.531011 96.761012 
L 179.825611 96.645345 
L 180.010746 96.573362 
L 180.135148 96.525298 
L 180.334117 96.448932 
L 180.62203 96.339533 
L 180.669665 96.321559 
L 181.033918 96.185285 
L 181.156965 96.139719 
L 181.407016 96.047847 
L 181.50564 96.011878 
L 181.743162 95.925868 
L 181.984683 95.839302 
L 182.153349 95.779381 
L 182.267833 95.738957 
L 182.41122 95.68861 
L 182.720069 95.581231 
L 182.905152 95.517578 
L 183.173038 95.426367 
L 183.345407 95.368252 
L 183.409062 95.346903 
L 183.776604 95.22483 
L 183.895385 95.185812 
L 184.09456 95.120859 
L 184.247768 95.071299 
L 184.367098 95.032941 
L 184.62323 94.951321 
L 184.884045 94.869209 
L 185.143387 94.788556 
L 185.185384 94.775589 
L 185.449756 94.694555 
L 185.71195 94.6152 
L 185.773911 94.596594 
L 186.098239 94.500118 
L 186.226258 94.462459 
L 186.480785 94.388291 
L 186.548336 94.368765 
L 186.876259 94.274914 
L 186.921995 94.261948 
L 187.238413 94.173068 
L 187.349806 94.142121 
L 187.63774 94.062952 
L 187.789768 94.021629 
L 187.940506 93.980983 
L 188.209864 93.909157 
L 188.454098 93.844922 
L 188.567864 93.81529 
L 188.707723 93.779113 
L 189.015398 93.700499 
L 189.109797 93.676647 
L 189.259556 93.639064 
L 189.468954 93.587044 
L 189.704679 93.529219 
L 189.900747 93.481714 
L 190.089671 93.436449 
L 190.379403 93.367998 
L 190.469873 93.346863 
L 190.693308 93.295153 
L 190.899794 93.247982 
L 191.190301 93.182615 
L 191.292774 93.159836 
L 191.522314 93.109336 
L 191.787133 93.051976 
L 191.954403 93.016242 
L 192.171695 92.970394 
L 192.219973 92.960295 
L 192.409549 92.920949 
L 192.76923 92.847647 
L 192.799229 92.841613 
L 193.143237 92.773295 
L 193.23697 92.754959 
L 193.40796 92.721818 
L 193.614203 92.682371 
L 193.917943 92.625326 
L 194.026502 92.60524 
L 194.333225 92.549347 
L 194.456907 92.527168 
L 194.720308 92.48062 
L 194.8345 92.46073 
L 194.97933 92.435755 
L 195.201095 92.398058 
L 195.388134 92.366776 
L 195.634684 92.326255 
L 195.752944 92.307107 
L 195.988524 92.269519 
L 196.273686 92.22501 
L 196.382918 92.208247 
L 196.512427 92.188578 
L 196.843369 92.139327 
L 196.945849 92.124371 
L 197.258089 92.079658 
L 197.42021 92.056952 
L 197.520055 92.04314 
L 197.711171 92.01707 
L 198.010906 91.977154 
L 198.086733 91.967243 
L 198.417678 91.924875 
L 198.503493 91.914124 
L 198.696643 91.89028 
L 198.955913 91.859044 
L 199.20794 91.829525 
L 199.314645 91.817278 
L 199.465624 91.800204 
L 199.769232 91.766771 
L 199.944913 91.747976 
L 200.091979 91.732552 
L 200.248205 91.716476 
L 200.554022 91.685929 
L 200.625185 91.678995 
L 200.985018 91.644945 
L 201.053025 91.638699 
L 201.212518 91.624286 
L 201.434918 91.604741 
L 201.72487 91.580223 
L 201.81383 91.572919 
L 202.105554 91.549688 
L 202.351316 91.530973 
L 202.372399 91.529404 
L 202.566656 91.515218 
L 202.876814 91.493579 
L 203.018815 91.484087 
L 203.327717 91.464339 
L 203.416745 91.458876 
L 203.552263 91.450757 
L 203.82854 91.434939 
L 204.09848 91.420435 
L 204.189739 91.415744 
L 204.375066 91.406548 
L 204.61648 91.395232 
L 204.805696 91.386888 
L 205.021838 91.377921 
L 205.154457 91.372716 
L 205.4875 91.360644 
L 205.508167 91.359942 
L 205.775506 91.351355 
L 205.941393 91.346488 
L 206.120132 91.341641 
L 206.311842 91.336898 
L 206.543765 91.331791 
L 206.727462 91.328237 
L 206.876564 91.32567 
L 207.197516 91.321115 
L 207.416301 91.318768 
L 207.478321 91.318215 
L 207.722267 91.316517 
L 207.92268 91.315694 
L 208.142308 91.315385 
z
" style="fill:#808080;opacity:0.5;"/>
   </g>
   <g id="patch_9">
    <path clip-path="url(#pc0ec8cc948)" d="M 208.142308 169.2 
L 208.138732 169.946313 
L 208.135156 170.255434 
L 208.13158 170.492622 
L 208.128005 170.692575 
L 208.124429 170.86873 
L 208.120853 171.027981 
L 208.117277 171.174423 
L 208.113701 171.310722 
L 208.110126 171.438734 
L 208.10655 171.559805 
L 208.102974 171.674956 
L 208.099398 171.784978 
L 208.095823 171.890499 
L 208.092247 171.992031 
L 208.085095 172.184738 
L 208.077944 172.36572 
L 208.070792 172.536885 
L 208.063641 172.699675 
L 208.056489 172.855207 
L 208.049338 173.004373 
L 208.042186 173.147893 
L 208.035034 173.286364 
L 208.027883 173.420282 
L 208.019134 173.578521 
L 208.010386 173.73122 
L 208.001637 173.878922 
L 207.992889 174.022087 
L 207.975392 174.296319 
L 207.957895 174.556474 
L 207.940398 174.804511 
L 207.922901 175.041973 
L 207.905404 175.270103 
L 207.887907 175.489916 
L 207.87041 175.702255 
L 207.852913 175.907831 
L 207.835416 176.107246 
L 207.817919 176.30102 
L 207.800422 176.489603 
L 207.782925 176.673388 
L 207.765429 176.852721 
L 207.747932 177.027907 
L 207.712574 177.370353 
L 207.677216 177.698864 
L 207.641858 178.015 
L 207.6065 178.320047 
L 207.571142 178.615083 
L 207.535784 178.901021 
L 207.500426 179.178644 
L 207.465069 179.448628 
L 207.43389 179.680833 
L 207.402711 179.907914 
L 207.355251 180.244443 
L 207.307792 180.570818 
L 207.260332 180.887891 
L 207.212872 181.196398 
L 207.153841 181.569143 
L 207.094809 181.930706 
L 207.035777 182.282014 
L 206.976745 182.623871 
L 206.920868 182.939387 
L 206.864992 183.247596 
L 206.809116 183.548969 
L 206.753239 183.843927 
L 206.679095 184.226064 
L 206.60495 184.598363 
L 206.543122 184.9018 
L 206.481294 185.199245 
L 206.419466 185.491026 
L 206.357638 185.777441 
L 206.292667 186.072937 
L 206.227695 186.3631 
L 206.162724 186.648196 
L 206.097752 186.92847 
L 206.049826 187.132254 
L 205.942889 187.578365 
L 205.835952 188.013292 
L 205.741271 188.389651 
L 205.64659 188.75831 
L 205.555865 189.104738 
L 205.465139 189.444832 
L 205.343569 189.89117 
L 205.221998 190.327381 
L 205.063615 190.881497 
L 204.952719 191.260514 
L 204.841824 191.63258 
L 204.742222 191.961109 
L 204.642621 192.284534 
L 204.527184 192.65327 
L 204.411747 193.015739 
L 204.282196 193.41541 
L 204.08976 193.995949 
L 203.970288 194.348889 
L 203.850815 194.696385 
L 203.659768 195.241286 
L 203.507229 195.667313 
L 203.35469 196.085725 
L 203.179609 196.557034 
L 202.998117 197.036018 
L 202.92528 197.225613 
L 202.783006 197.591763 
L 202.640731 197.952547 
L 202.422703 198.495469 
L 202.299555 198.797017 
L 202.165814 199.120484 
L 201.940311 199.65678 
L 201.698068 200.220735 
L 201.447611 200.791278 
L 201.280159 201.165959 
L 201.01914 201.739682 
L 200.864637 202.073586 
L 200.661015 202.507438 
L 200.596522 202.64342 
L 200.405941 203.041343 
L 200.188729 203.487949 
L 200.016417 203.837171 
L 199.844105 204.182059 
L 199.786984 204.295454 
L 199.62275 204.61895 
L 199.307053 205.230529 
L 199.202347 205.430483 
L 198.992179 205.827634 
L 198.800922 206.184307 
L 198.510285 206.717954 
L 198.449706 206.827949 
L 198.230047 207.223312 
L 197.986039 207.656265 
L 197.804224 207.974725 
L 197.522585 208.461272 
L 197.404237 208.663336 
L 197.254335 208.91729 
L 197.03746 209.280867 
L 196.705556 209.828742 
L 196.661685 209.900405 
L 196.396197 210.330421 
L 196.128237 210.758208 
L 196.032571 210.909455 
L 195.84962 211.196575 
L 195.567654 211.63374 
L 195.366334 211.941994 
L 195.241733 212.131198 
L 194.988913 212.511457 
L 194.898492 212.646292 
L 194.591229 213.099993 
L 194.480137 213.262353 
L 194.255774 213.587598 
L 194.03709 213.90125 
L 193.940886 214.0382 
L 193.725227 214.342943 
L 193.410826 214.78174 
L 193.34722 214.869736 
L 193.093387 215.218353 
L 192.946616 215.418094 
L 192.714717 215.730994 
L 192.501131 216.016318 
L 192.383339 216.172517 
L 192.05721 216.600769 
L 191.946067 216.745323 
L 191.734531 217.018528 
L 191.548901 217.256227 
L 191.295253 217.577986 
L 191.202583 217.694676 
L 190.830548 218.158579 
L 190.786089 218.213534 
L 190.529867 218.52827 
L 190.420031 218.662171 
L 190.233149 218.88861 
L 189.845475 219.352861 
L 189.698902 219.526494 
L 189.558914 219.69137 
L 189.391529 219.887302 
L 189.178619 220.134642 
L 188.946796 220.401587 
L 188.67624 220.710064 
L 188.485095 220.926037 
L 188.426476 220.991949 
L 188.137625 221.314554 
L 188.083138 221.375005 
L 187.785202 221.703323 
L 187.526326 221.985575 
L 187.398136 222.124314 
L 187.142024 222.399494 
L 187.084677 222.460746 
L 186.862762 222.696537 
L 186.620916 222.951282 
L 186.512405 223.064837 
L 186.207322 223.381659 
L 186.008797 223.585914 
L 185.832722 223.765826 
L 185.613392 223.988319 
L 185.433141 224.169839 
L 185.244138 224.358899 
L 185.093449 224.508707 
L 184.823622 224.774928 
L 184.725927 224.870681 
L 184.468114 225.121762 
L 184.188121 225.391834 
L 184.092773 225.483189 
L 183.945338 225.623842 
L 183.627825 225.924265 
L 183.436235 226.103918 
L 183.341876 226.191953 
L 183.15269 226.367583 
L 182.905367 226.595433 
L 182.641415 226.836437 
L 182.51749 226.948825 
L 182.404176 227.051167 
L 182.161408 227.269077 
L 181.932024 227.473294 
L 181.715217 227.664831 
L 181.491617 227.860875 
L 181.332798 227.999208 
L 181.194727 228.118858 
L 180.868172 228.399601 
L 180.65383 228.582175 
L 180.51157 228.702614 
L 180.409288 228.788847 
L 180.070642 229.072225 
L 179.946093 229.17563 
L 179.718481 229.363474 
L 179.570139 229.485122 
L 179.351496 229.663309 
L 179.091107 229.873808 
L 178.893112 230.032633 
L 178.86781 230.052853 
L 178.62206 230.248352 
L 178.463653 230.373513 
L 178.233676 230.554041 
L 178.055267 230.693131 
L 177.808556 230.884104 
L 177.66671 230.993191 
L 177.444276 231.163212 
L 177.258179 231.304489 
L 177.04812 231.462903 
L 176.745806 231.688948 
L 176.549296 231.834661 
L 176.380944 231.958736 
L 176.300947 232.01745 
L 176.047942 232.202114 
L 175.936513 232.282951 
L 175.568613 232.547721 
L 175.499332 232.597219 
L 175.187342 232.818707 
L 175.155597 232.841114 
L 174.850408 233.055329 
L 174.610058 233.222504 
L 174.536845 233.273161 
L 174.255973 233.466357 
L 174.087269 233.581531 
L 173.808148 233.770667 
L 173.686971 233.852232 
L 173.438472 234.018466 
L 173.367882 234.065436 
L 173.062914 234.267091 
L 172.878897 234.387777 
L 172.815462 234.429208 
L 172.534266 234.611808 
L 172.403898 234.695882 
L 172.099747 234.890606 
L 171.951723 234.984657 
L 171.772157 235.098123 
L 171.557088 235.233122 
L 171.314653 235.384132 
L 171.145763 235.488604 
L 171.005555 235.574882 
L 170.685875 235.770079 
L 170.645356 235.794669 
L 170.439827 235.918883 
L 170.26801 236.022061 
L 170.04402 236.155668 
L 169.74989 236.329573 
L 169.508819 236.470814 
L 169.436073 236.513207 
L 169.2 236.650055 
L 169.2 236.650055 
L 169.312136 236.714673 
L 169.582307 236.869341 
L 169.733693 236.955381 
L 169.886813 237.041952 
L 170.095095 237.15898 
L 170.456912 237.360284 
L 170.64727 237.465185 
L 170.694286 237.490988 
L 170.972589 237.642862 
L 171.133935 237.730239 
L 171.429975 237.889286 
L 171.538606 237.947235 
L 171.816927 238.094702 
L 171.915118 238.146385 
L 172.143383 238.265843 
L 172.367548 238.382222 
L 172.604646 238.504314 
L 172.792853 238.6005 
L 172.858871 238.634087 
L 173.156489 238.784523 
L 173.224322 238.818587 
L 173.585713 238.998675 
L 173.653278 239.032085 
L 173.93765 239.171814 
L 174.131386 239.266187 
L 174.317098 239.35603 
L 174.516497 239.45182 
L 174.734021 239.555524 
L 174.862241 239.616266 
L 175.099042 239.727696 
L 175.194982 239.772566 
L 175.55792 239.940872 
L 175.574629 239.948566 
L 175.824431 240.063024 
L 176.10957 240.192373 
L 176.248067 240.254702 
L 176.426335 240.334453 
L 176.582763 240.403992 
L 176.767063 240.485394 
L 176.947347 240.564471 
L 177.289913 240.713237 
L 177.349178 240.738776 
L 177.574587 240.835381 
L 177.762098 240.915104 
L 178.02736 241.026898 
L 178.159131 241.082003 
L 178.367689 241.168642 
L 178.568679 241.251466 
L 178.811286 241.350568 
L 179.015619 241.433298 
L 179.117286 241.47421 
L 179.373123 241.576428 
L 179.546293 241.645022 
L 179.845331 241.762349 
L 180.016629 241.828917 
L 180.137836 241.875738 
L 180.299907 241.937982 
L 180.571518 242.041368 
L 180.810857 242.13151 
L 180.948404 242.182908 
L 181.094012 242.236998 
L 181.402588 242.350535 
L 181.621297 242.430112 
L 181.702839 242.459592 
L 181.914909 242.535782 
L 182.159637 242.622845 
L 182.317214 242.678417 
L 182.434441 242.719514 
L 182.78622 242.841579 
L 182.96956 242.904451 
L 182.996869 242.913772 
L 183.333819 243.027855 
L 183.540646 243.097033 
L 183.765485 243.171507 
L 183.792119 243.180279 
L 184.13901 243.293556 
L 184.35521 243.363248 
L 184.473863 243.4012 
L 184.604289 243.442676 
L 184.943809 243.549465 
L 185.059536 243.585475 
L 185.227397 243.637357 
L 185.474429 243.712956 
L 185.677765 243.774511 
L 185.838318 243.822687 
L 186.003389 243.871826 
L 186.252862 243.945338 
L 186.381048 243.982758 
L 186.666572 244.065253 
L 186.888341 244.128514 
L 187.101728 244.188715 
L 187.207367 244.218275 
L 187.436824 244.28193 
L 187.640026 244.337672 
L 187.752197 244.36819 
L 187.891528 244.405846 
L 188.217596 244.492889 
L 188.312542 244.517951 
L 188.524278 244.573379 
L 188.851615 244.657819 
L 188.990657 244.693229 
L 189.074921 244.714555 
L 189.351744 244.783914 
L 189.475353 244.814536 
L 189.784426 244.890168 
L 189.893532 244.916547 
L 190.069459 244.958732 
L 190.319569 245.017962 
L 190.479339 245.055342 
L 190.808359 245.131203 
L 190.865262 245.14417 
L 191.041914 245.184142 
L 191.216493 245.223221 
L 191.583791 245.304066 
L 191.642466 245.316808 
L 191.813328 245.353646 
L 192.076814 245.409666 
L 192.296964 245.455743 
L 192.406011 245.478321 
L 192.684012 245.535145 
L 192.885856 245.575742 
L 193.158353 245.62967 
L 193.355856 245.668125 
L 193.397547 245.676175 
L 193.74442 245.742238 
L 193.812614 245.755034 
L 194.018283 245.793245 
L 194.335708 245.8511 
L 194.518649 245.883826 
L 194.607027 245.899475 
L 194.799703 245.933228 
L 194.944153 245.958205 
L 195.246379 246.009559 
L 195.38786 246.033179 
L 195.523113 246.055509 
L 195.790559 246.098944 
L 195.985569 246.130014 
L 196.134719 246.153435 
L 196.481233 246.206705 
L 196.541398 246.215792 
L 196.713512 246.241521 
L 197.026126 246.287248 
L 197.215334 246.314295 
L 197.371575 246.336273 
L 197.577364 246.364728 
L 197.803185 246.39531 
L 198.030875 246.425464 
L 198.093347 246.433618 
L 198.351788 246.466804 
L 198.593918 246.497099 
L 198.693257 246.509306 
L 198.873342 246.531104 
L 199.071551 246.554603 
L 199.258476 246.576294 
L 199.454186 246.598513 
L 199.797498 246.63628 
L 199.94679 246.652223 
L 200.083949 246.666613 
L 200.354784 246.694308 
L 200.570719 246.715704 
L 200.609223 246.719455 
L 200.913991 246.748467 
L 201.008533 246.757221 
L 201.382334 246.790696 
L 201.57091 246.806894 
L 201.723685 246.819679 
L 201.954096 246.838388 
L 202.015988 246.843297 
L 202.333163 246.867671 
L 202.417135 246.873906 
L 202.621942 246.888731 
L 202.784442 246.900107 
L 203.045943 246.917697 
L 203.159911 246.925086 
L 203.510917 246.946791 
L 203.722106 246.959084 
L 203.838843 246.965632 
L 203.953483 246.971891 
L 204.306458 246.990099 
L 204.334453 246.991475 
L 204.631047 247.005426 
L 204.733933 247.010001 
L 205.079562 247.024372 
L 205.200444 247.029035 
L 205.464014 247.038551 
L 205.523148 247.040563 
L 205.870294 247.051469 
L 206.034679 247.056093 
L 206.177285 247.059823 
L 206.317415 247.063233 
L 206.586367 247.069072 
L 206.793087 247.072928 
L 207.020762 247.07654 
L 207.233469 247.079313 
L 207.36799 247.080766 
L 207.468476 247.0817 
L 207.675146 247.083214 
L 207.898445 247.084234 
L 208.142308 247.084615 
z
" style="fill:#808080;opacity:0.5;"/>
   </g>
   <g id="matplotlib.axis_1"/>
   <g id="matplotlib.axis_2"/>
   <g id="line2d_1">
    <path clip-path="url(#pc0ec8cc948)" d="M 52.373077 169.2 
L 52.509764 164.587739 
L 52.888124 160.257789 
L 53.426379 156.434317 
L 54.249483 152.206901 
L 55.351678 147.866873 
L 56.568526 143.982544 
L 58.056034 139.994968 
L 59.752111 136.109573 
L 61.64962 132.336118 
L 63.7661 128.642862 
L 65.922744 125.302076 
L 68.4505 121.809238 
L 70.794566 118.899404 
L 73.473963 115.893139 
L 76.455133 112.885722 
L 79.198172 110.387257 
L 82.763289 107.472413 
L 85.944165 105.150608 
L 89.677898 102.722232 
L 93.324566 100.629179 
L 96.960904 98.79164 
L 100.828392 97.089463 
L 104.660612 95.641841 
L 108.340371 94.462831 
L 112.485674 93.370133 
L 116.844106 92.479149 
L 121.043344 91.862369 
L 125.031012 91.490959 
L 129.073875 91.324382 
L 130.257692 91.315385 
L 130.257692 91.315385 
" style="fill:none;stroke:#0000ff;stroke-linecap:square;"/>
   </g>
   <g id="line2d_2">
    <path clip-path="url(#pc0ec8cc948)" d="M 130.257692 91.315385 
L 134.269553 91.418779 
L 138.449325 91.747366 
L 142.697675 92.31528 
L 146.954233 93.126096 
L 150.802551 94.073959 
L 154.692909 95.247762 
L 158.672135 96.683569 
L 162.272131 98.199373 
L 166.129243 100.067915 
L 169.2 101.749945 
L 169.2 101.749945 
" style="fill:none;stroke:#0000ff;stroke-linecap:square;"/>
   </g>
   <g id="line2d_3">
    <path clip-path="url(#pc0ec8cc948)" d="M 130.257692 247.084615 
L 134.509928 246.96845 
L 138.623609 246.634003 
L 142.715222 246.081879 
L 146.837597 245.299409 
L 150.879738 244.30489 
L 154.923731 243.07557 
L 158.866046 241.640151 
L 162.744256 239.985849 
L 166.476121 238.150988 
L 169.2 236.650055 
L 169.2 236.650055 
" style="fill:none;stroke:#0000ff;stroke-linecap:square;"/>
   </g>
   <g id="line2d_4">
    <path clip-path="url(#pc0ec8cc948)" d="M 208.142308 91.315385 
L 211.934451 91.407758 
L 216.108791 91.723885 
L 220.148542 92.246354 
L 224.300199 93.00987 
L 228.221377 93.948128 
L 232.386325 95.18486 
L 236.399653 96.622209 
L 239.688736 97.990196 
L 243.745 99.929071 
L 247.586108 102.041978 
L 251.102268 104.23497 
L 254.671906 106.741936 
L 258.228922 109.556523 
L 261.294288 112.27127 
L 264.022941 114.947184 
L 267.090205 118.296575 
L 269.859765 121.692434 
L 272.192149 124.887123 
L 274.509075 128.438922 
L 276.464338 131.808645 
L 278.451699 135.694734 
L 280.229475 139.713502 
L 281.66945 143.51396 
L 282.978559 147.623421 
L 284.004776 151.567664 
L 284.827344 155.58315 
L 285.417394 159.475069 
L 285.83957 163.801043 
L 286.01131 167.640595 
L 286.026923 169.2 
L 286.026923 169.2 
" style="fill:none;stroke:#ff0000;stroke-linecap:square;"/>
   </g>
   <g id="line2d_5">
    <path clip-path="url(#pc0ec8cc948)" d="M 169.2 101.749945 
L 172.817379 99.787013 
L 176.649266 97.96657 
L 180.334117 96.448932 
L 184.367098 95.032941 
L 188.454098 93.844922 
L 192.409549 92.920949 
L 196.512427 92.188578 
L 200.625185 91.678995 
L 204.805696 91.386888 
L 208.142308 91.315385 
L 208.142308 91.315385 
" style="fill:none;stroke:#ff0000;stroke-linecap:square;"/>
   </g>
   <g id="line2d_6">
    <path clip-path="url(#pc0ec8cc948)" d="M 169.2 236.650055 
L 172.858871 238.634087 
L 176.767063 240.485394 
L 180.571518 242.041368 
L 184.604289 243.442676 
L 188.524278 244.573379 
L 192.684012 245.535145 
L 196.713512 246.241521 
L 200.913991 246.748467 
L 205.079562 247.024372 
L 208.142308 247.084615 
L 208.142308 247.084615 
" style="fill:none;stroke:#ff0000;stroke-linecap:square;"/>
   </g>
   <g id="text_1">
    <!-- $\Omega$ -->
    <g transform="translate(17.569231 23.978606)scale(0.1 -0.1)">
     <defs>
      <path d="M 7.71875 0 
L 4.390625 16.609375 
L 7.328125 16.609375 
Q 7.859375 13.71875 8.296875 11.5 
Q 8.734375 9.28125 9.4375 8.375 
Q 10.15625 7.46875 11.71875 7.171875 
Q 13.28125 6.890625 16.890625 6.890625 
L 23 6.890625 
Q 21.53125 12.546875 15.6875 21.65625 
Q 9.859375 30.765625 7.734375 34.890625 
Q 5.609375 39.015625 5.609375 45.515625 
Q 5.609375 53.078125 10.09375 58.765625 
Q 14.59375 64.453125 21.703125 67.484375 
Q 28.8125 70.515625 36.078125 70.515625 
Q 43.3125 70.515625 50.40625 67.484375 
Q 57.515625 64.453125 62 58.71875 
Q 66.5 52.984375 66.5 45.515625 
Q 66.5 40.4375 64.640625 35.9375 
Q 62.796875 31.453125 59.90625 26.953125 
Q 57.03125 22.46875 53.6875 16.9375 
Q 50.34375 11.421875 49.125 6.890625 
L 55.171875 6.890625 
Q 58.84375 6.890625 60.453125 7.171875 
Q 62.0625 7.46875 62.734375 8.375 
Q 63.421875 9.28125 63.84375 11.5 
Q 64.265625 13.71875 64.796875 16.609375 
L 67.671875 16.609375 
L 64.40625 0 
L 46.6875 0 
Q 45.703125 0 45.703125 1.3125 
Q 45.703125 6.390625 46.9375 11.265625 
Q 48.1875 16.15625 50.625 23.09375 
Q 53.078125 30.03125 54.4375 35.328125 
Q 55.8125 40.625 55.8125 45.515625 
Q 55.8125 51.515625 53.46875 56.640625 
Q 51.125 61.765625 46.625 64.84375 
Q 42.140625 67.921875 36.078125 67.921875 
Q 26.953125 67.921875 21.625 61.40625 
Q 16.3125 54.890625 16.3125 45.515625 
Q 16.359375 40.375 17.53125 35.828125 
Q 18.703125 31.296875 21.3125 23.71875 
Q 23.921875 16.15625 25.171875 11.265625 
Q 26.421875 6.390625 26.421875 1.3125 
Q 26.421875 0 25.390625 0 
z
" id="Cmr10-173"/>
     </defs>
     <use transform="translate(0 0.484375)" xlink:href="#Cmr10-173"/>
    </g>
   </g>
   <g id="text_2">
    <!-- $A$ -->
    <g style="fill:#0000ff;" transform="translate(87.565385 94.07476)scale(0.1 -0.1)">
     <defs>
      <path d="M 4.5 0 
Q 3.515625 0 3.515625 1.3125 
Q 3.90625 3.515625 4.78125 3.515625 
Q 8.84375 3.515625 11.796875 5.125 
Q 14.75 6.734375 16.890625 10.109375 
Q 17.09375 10.296875 17.09375 10.296875 
L 52.78125 70.515625 
Q 53.5625 71.578125 54.6875 71.578125 
L 56 71.578125 
Q 56.296875 71.578125 56.59375 71.453125 
Q 56.890625 71.34375 57.109375 71.0625 
Q 57.328125 70.796875 57.328125 70.515625 
L 63.375 5.90625 
Q 63.375 5.46875 63.8125 4.59375 
Q 64.796875 3.515625 71.296875 3.515625 
Q 72.3125 3.515625 72.3125 2.203125 
Q 71.96875 0.875 71.75 0.4375 
Q 71.53125 0 70.609375 0 
L 45.609375 0 
Q 44.671875 0 44.671875 1.3125 
Q 45.21875 3.515625 46 3.515625 
Q 53.90625 3.515625 54.390625 6.203125 
L 52.875 22.703125 
L 28.21875 22.703125 
L 20.21875 9.28125 
Q 19.484375 8.203125 19.484375 6.78125 
Q 19.484375 5.03125 21.171875 4.265625 
Q 22.859375 3.515625 24.90625 3.515625 
Q 25.875 3.515625 25.875 2.203125 
Q 25.53125 0.78125 25.328125 0.390625 
Q 25.140625 0 24.21875 0 
z
M 30.171875 26.21875 
L 52.484375 26.21875 
L 49.515625 58.59375 
z
" id="Cmmi10-65"/>
     </defs>
     <use transform="translate(0 0.421875)" xlink:href="#Cmmi10-65"/>
    </g>
   </g>
   <g id="text_3">
    <!-- $B$ -->
    <g style="fill:#ff0000;" transform="translate(243.284615 94.07476)scale(0.1 -0.1)">
     <defs>
      <path d="M 4.984375 0 
Q 4 0 4 1.3125 
Q 4.046875 1.5625 4.1875 2.140625 
Q 4.34375 2.734375 4.578125 3.125 
Q 4.828125 3.515625 5.328125 3.515625 
Q 8.15625 3.515625 10.25 3.65625 
Q 12.359375 3.8125 13.8125 4.203125 
Q 14.984375 4.640625 15.71875 6.890625 
L 29.390625 61.8125 
Q 29.59375 62.796875 29.59375 63.1875 
Q 29.59375 64.265625 28.421875 64.40625 
Q 26.515625 64.796875 21.1875 64.796875 
Q 20.21875 64.796875 20.21875 66.109375 
Q 20.265625 66.359375 20.40625 66.96875 
Q 20.5625 67.578125 20.828125 67.9375 
Q 21.09375 68.3125 21.484375 68.3125 
L 57.328125 68.3125 
Q 60.59375 68.3125 63.796875 67.5 
Q 67 66.703125 69.703125 64.9375 
Q 72.40625 63.1875 74 60.5625 
Q 75.59375 57.953125 75.59375 54.5 
Q 75.59375 50.734375 73.65625 47.5 
Q 71.734375 44.28125 68.671875 41.890625 
Q 65.625 39.5 62.078125 37.953125 
Q 58.546875 36.421875 54.6875 35.6875 
Q 57.421875 35.6875 60.21875 34.609375 
Q 63.03125 33.546875 65.234375 31.6875 
Q 67.4375 29.828125 68.78125 27.234375 
Q 70.125 24.65625 70.125 21.6875 
Q 70.125 15.671875 65.921875 10.6875 
Q 61.71875 5.71875 55.34375 2.859375 
Q 48.96875 0 43.015625 0 
z
M 23.390625 4.296875 
Q 23.390625 3.515625 26.8125 3.515625 
L 41.109375 3.515625 
Q 46 3.515625 50.484375 6.21875 
Q 54.984375 8.9375 57.6875 13.421875 
Q 60.40625 17.921875 60.40625 22.796875 
Q 60.40625 25.78125 59.15625 28.4375 
Q 57.90625 31.109375 55.5625 32.640625 
Q 53.21875 34.1875 50.203125 34.1875 
L 30.71875 34.1875 
L 23.78125 6.5 
Q 23.390625 5.125 23.390625 4.296875 
z
M 31.390625 36.8125 
L 46.578125 36.8125 
Q 51.375 36.8125 55.890625 39.25 
Q 60.40625 41.703125 63.25 45.890625 
Q 66.109375 50.09375 66.109375 54.78125 
Q 66.109375 59.125 63.390625 61.953125 
Q 60.6875 64.796875 56.390625 64.796875 
L 42.671875 64.796875 
Q 39.984375 64.796875 39.0625 64.296875 
Q 38.140625 63.8125 37.5 61.375 
z
" id="Cmmi10-66"/>
     </defs>
     <use transform="translate(0 0.6875)" xlink:href="#Cmmi10-66"/>
    </g>
   </g>
   <g id="patch_10">
    <path clip-path="url(#pc0ec8cc948)" d="M 130.257692 247.084615 
C 150.912934 247.084615 170.724971 238.878201 185.330432 224.27274 
C 199.935893 209.667278 208.142308 189.855241 208.142308 169.2 
C 208.142308 148.544759 199.935893 128.732722 185.330432 114.12726 
C 170.724971 99.521799 150.912934 91.315385 130.257692 91.315385 
C 109.602451 91.315385 89.790414 99.521799 75.184953 114.12726 
C 60.579491 128.732722 52.373077 148.544759 52.373077 169.2 
C 52.373077 189.855241 60.579491 209.667278 75.184953 224.27274 
C 89.790414 238.878201 109.602451 247.084615 130.257692 247.084615 
z
" style="fill:none;stroke:#0000ff;stroke-linejoin:miter;"/>
   </g>
   <g id="patch_11">
    <path clip-path="url(#pc0ec8cc948)" d="M 208.142308 247.084615 
C 228.797549 247.084615 248.609586 238.878201 263.215047 224.27274 
C 277.820509 209.667278 286.026923 189.855241 286.026923 169.2 
C 286.026923 148.544759 277.820509 128.732722 263.215047 114.12726 
C 248.609586 99.521799 228.797549 91.315385 208.142308 91.315385 
C 187.487066 91.315385 167.675029 99.521799 153.069568 114.12726 
C 138.464107 128.732722 130.257692 148.544759 130.257692 169.2 
C 130.257692 189.855241 138.464107 209.667278 153.069568 224.27274 
C 167.675029 238.878201 187.487066 247.084615 208.142308 247.084615 
z
" style="fill:none;stroke:#ff0000;stroke-linejoin:miter;"/>
   </g>
  </g>
 </g>
 <defs>
  <clipPath id="pc0ec8cc948">
   <rect height="324" width="324" x="7.2" y="7.2"/>
  </clipPath>
 </defs>
</svg>
