<?xml version="1.0" encoding="utf-8" standalone="no"?>
<!DOCTYPE svg PUBLIC "-//W3C//DTD SVG 1.1//EN"
  "http://www.w3.org/Graphics/SVG/1.1/DTD/svg11.dtd">
<!-- Created with matplotlib (https://matplotlib.org/) -->
<svg height="338.4pt" version="1.1" viewBox="0 0 338.4 338.4" width="338.4pt" xmlns="http://www.w3.org/2000/svg" xmlns:xlink="http://www.w3.org/1999/xlink">
 <metadata>
  <rdf:RDF xmlns:cc="http://creativecommons.org/ns#" xmlns:dc="http://purl.org/dc/elements/1.1/" xmlns:rdf="http://www.w3.org/1999/02/22-rdf-syntax-ns#">
   <cc:Work>
    <dc:type rdf:resource="http://purl.org/dc/dcmitype/StillImage"/>
    <dc:date>2024-11-18T20:48:35.608021</dc:date>
    <dc:format>image/svg+xml</dc:format>
    <dc:creator>
     <cc:Agent>
      <dc:title>Matplotlib v3.3.4, https://matplotlib.org/</dc:title>
     </cc:Agent>
    </dc:creator>
   </cc:Work>
  </rdf:RDF>
 </metadata>
 <defs>
  <style type="text/css">*{stroke-linecap:butt;stroke-linejoin:round;}</style>
 </defs>
 <g id="figure_1">
  <g id="patch_1">
   <path d="M -0 338.4 
L 338.4 338.4 
L 338.4 0 
L -0 0 
z
" style="fill:#ffffff;"/>
  </g>
  <g id="axes_1">
   <g id="patch_2">
    <path d="M 7.2 331.2 
L 331.2 331.2 
L 331.2 7.2 
L 7.2 7.2 
z
" style="fill:#ffffff;"/>
   </g>
   <g id="patch_3">
    <path clip-path="url(#peec8b203df)" d="M 13.430769 324.969231 
L 13.430769 13.430769 
L 324.969231 13.430769 
L 324.969231 324.969231 
z
" style="fill:none;stroke:#000000;stroke-linejoin:miter;"/>
   </g>
   <g id="patch_4">
    <path clip-path="url(#peec8b203df)" d="M 130.257692 247.084615 
L 129.725646 247.082798 
L 129.629836 247.082085 
L 129.16543 247.076956 
L 128.870258 247.072257 
L 128.347481 247.061187 
L 128.08426 247.054284 
L 127.569672 247.038216 
L 127.194305 247.024347 
L 126.787205 247.007256 
L 126.41297 246.989661 
L 125.94728 246.965247 
L 125.753198 246.954247 
L 125.325093 246.928262 
L 124.611972 246.879722 
L 124.210955 246.849535 
L 123.892491 246.824078 
L 123.795484 246.816063 
L 123.066489 246.751917 
L 122.79555 246.726316 
L 122.486417 246.695939 
L 122.104019 246.656639 
L 121.815273 246.625699 
L 121.262852 246.563468 
L 120.860162 246.515585 
L 120.601415 246.483696 
L 119.918357 246.395281 
L 119.68403 246.363534 
L 119.208141 246.296827 
L 119.018621 246.269427 
L 118.594319 246.206357 
L 118.320143 246.164331 
L 117.714666 246.067977 
L 117.316933 246.002019 
L 117.059449 245.95819 
L 116.437765 245.848698 
L 116.321555 245.827654 
L 115.954432 245.759977 
L 115.409537 245.656168 
L 114.846419 245.544653 
L 114.49029 245.471897 
L 114.326884 245.437935 
L 113.735963 245.312061 
L 113.543309 245.269986 
L 112.950115 245.137218 
L 112.692338 245.078005 
L 112.103178 244.939203 
L 111.984881 244.91075 
L 111.600989 244.817066 
L 110.946901 244.652678 
L 110.628606 244.5705 
L 110.291869 244.481998 
L 109.818026 244.354729 
L 109.465973 244.258096 
L 109.274616 244.204825 
L 108.914412 244.103122 
L 108.200528 243.896016 
L 108.056809 243.853427 
L 107.481564 243.679939 
L 107.102879 243.563082 
L 106.805208 243.46974 
L 106.356737 243.326633 
L 105.968846 243.200441 
L 105.774586 243.136397 
L 105.328067 242.987039 
L 104.906374 242.843221 
L 104.339796 242.645735 
L 104.101812 242.56132 
L 103.821028 242.460604 
L 103.16685 242.221227 
L 102.856879 242.105478 
L 102.356231 241.915348 
L 102.255464 241.876602 
L 101.578379 241.612087 
L 101.298037 241.500427 
L 100.830361 241.311341 
L 100.64546 241.235609 
L 100.316309 241.099422 
L 99.6054 240.799234 
L 99.403627 240.712516 
L 99.141407 240.59881 
L 98.712162 240.410202 
L 98.005648 240.09301 
L 97.642403 239.92663 
L 97.216172 239.728514 
L 97.133717 239.689826 
L 96.597031 239.435128 
L 96.266525 239.275772 
L 95.666722 238.981646 
L 95.328952 238.813191 
L 95.083745 238.689616 
L 94.540418 238.411918 
L 94.219514 238.245369 
L 93.899775 238.077538 
L 93.473086 237.850609 
L 93.138735 237.670405 
L 92.814784 237.493791 
L 92.180959 237.142444 
L 91.81863 236.938112 
L 91.454849 236.730383 
L 91.146741 236.552408 
L 90.8199 236.361551 
L 90.410886 236.119693 
L 90.047708 235.902103 
L 89.698317 235.690228 
L 89.277566 235.431734 
L 88.963701 235.236502 
L 88.317944 234.828278 
L 87.906683 234.563639 
L 87.733652 234.451201 
L 87.187096 234.091733 
L 86.660052 233.738818 
L 86.511044 233.637909 
L 86.223487 233.441747 
L 85.685482 233.069643 
L 85.413483 232.878962 
L 84.681225 232.356939 
L 84.316855 232.09239 
L 83.928498 231.806861 
L 83.516234 231.499674 
L 83.413847 231.422725 
L 82.89745 231.030581 
L 82.517305 230.737539 
L 82.29741 230.566315 
L 81.55035 229.975062 
L 81.491516 229.927863 
L 80.814492 229.37793 
L 80.669894 229.258834 
L 80.185653 228.855714 
L 79.869724 228.589106 
L 79.431537 228.214534 
L 78.960573 227.805621 
L 78.430352 227.337252 
L 78.177295 227.110668 
L 77.892573 226.85334 
L 77.596274 226.582822 
L 76.921849 225.956508 
L 76.769926 225.813356 
L 76.156194 225.227147 
L 75.827499 224.907876 
L 75.544547 224.630001 
L 75.164406 224.252185 
L 74.621033 223.702986 
L 74.200238 223.270095 
L 74.001094 223.062867 
L 73.49982 222.534391 
L 72.991406 221.988121 
L 72.858306 221.843364 
L 72.253899 221.176661 
L 71.898887 220.777739 
L 71.456319 220.272614 
L 71.024557 219.771227 
L 70.606795 219.277777 
L 70.327807 218.943563 
L 70.128636 218.702625 
L 69.759021 218.25022 
L 69.167215 217.511147 
L 68.996517 217.294508 
L 68.458944 216.601772 
L 68.040747 216.051521 
L 67.794257 215.722388 
L 67.357009 215.129482 
L 66.815868 214.379069 
L 66.302194 213.648932 
L 66.179424 213.471761 
L 65.600792 212.622328 
L 65.471496 212.429181 
L 64.95547 211.645649 
L 64.61992 211.124887 
L 64.299504 210.618966 
L 63.755791 209.740233 
L 63.428596 209.198565 
L 63.092457 208.631516 
L 62.758881 208.057738 
L 62.425305 207.472452 
L 62.246332 207.153501 
L 61.966326 206.64733 
L 61.686319 206.1321 
L 61.306704 205.418429 
L 60.981125 204.791719 
L 60.687969 204.215239 
L 60.448548 203.735441 
L 60.209126 203.247198 
L 59.880239 202.562064 
L 59.63991 202.050299 
L 59.399581 201.528647 
L 59.205731 201.100348 
L 58.822434 200.232518 
L 58.552504 199.603607 
L 58.282574 198.95896 
L 58.034048 198.350618 
L 57.785521 197.727141 
L 57.574694 197.185623 
L 57.363867 196.631799 
L 57.086569 195.883329 
L 56.818361 195.136037 
L 56.529898 194.304296 
L 56.385666 193.876651 
L 56.241435 193.440605 
L 56.002586 192.698775 
L 55.763737 191.930242 
L 55.570596 191.287348 
L 55.377455 190.623431 
L 55.286834 190.304115 
L 55.12428 189.717886 
L 54.961726 189.11308 
L 54.799172 188.487951 
L 54.636618 187.840453 
L 54.477134 187.181111 
L 54.31765 186.495182 
L 54.204626 185.991199 
L 54.091601 185.470829 
L 53.978577 184.932445 
L 53.865552 184.37413 
L 53.793795 184.008301 
L 53.722039 183.632846 
L 53.650282 183.246992 
L 53.578525 182.849858 
L 53.469308 182.221419 
L 53.414699 181.895187 
L 53.360091 181.560106 
L 53.305482 181.215436 
L 53.250874 180.860327 
L 53.196265 180.493793 
L 53.141657 180.114686 
L 53.101544 179.827421 
L 53.061431 179.532018 
L 53.021319 179.227756 
L 52.981206 178.913802 
L 52.941093 178.589186 
L 52.90098 178.252759 
L 52.860868 177.903152 
L 52.820755 177.538708 
L 52.792775 177.274647 
L 52.764795 177.001552 
L 52.736815 176.718441 
L 52.708835 176.424135 
L 52.680856 176.117205 
L 52.652876 175.79589 
L 52.624896 175.457973 
L 52.596916 175.100604 
L 52.568936 174.720006 
L 52.554946 174.51945 
L 52.540956 174.310992 
L 52.526966 174.093623 
L 52.512976 173.866096 
L 52.498986 173.626846 
L 52.484996 173.373858 
L 52.471007 173.104462 
L 52.457017 172.814992 
L 52.443027 172.500169 
L 52.429037 172.151894 
L 52.415047 171.75653 
L 52.401057 171.287492 
L 52.387067 170.676146 
L 52.373077 169.2 
L 52.373077 169.2 
L 52.39098 167.530164 
L 52.408882 166.838631 
L 52.426785 166.308092 
L 52.444687 165.860904 
L 52.46259 165.466992 
L 52.480492 165.110929 
L 52.498395 164.783553 
L 52.516298 164.478891 
L 52.5342 164.192796 
L 52.552103 163.922247 
L 52.570005 163.664964 
L 52.587908 163.419176 
L 52.605811 163.183474 
L 52.623713 162.956715 
L 52.659518 162.526416 
L 52.695324 162.122411 
L 52.731129 161.740425 
L 52.766934 161.377233 
L 52.802739 161.030328 
L 52.838544 160.697716 
L 52.874349 160.37778 
L 52.910155 160.069188 
L 52.94596 159.770825 
L 53.004906 159.299476 
L 53.063853 158.849905 
L 53.122799 158.419388 
L 53.181746 158.005725 
L 53.242827 157.592943 
L 53.303907 157.194655 
L 53.364988 156.809464 
L 53.426069 156.436185 
L 53.48715 156.0738 
L 53.548231 155.721432 
L 53.609311 155.378313 
L 53.670392 155.043772 
L 53.740443 154.669896 
L 53.810494 154.305732 
L 53.934657 153.682023 
L 54.05882 153.083388 
L 54.182983 152.50713 
L 54.307146 151.951006 
L 54.402159 151.537856 
L 54.497171 151.134653 
L 54.592184 150.740743 
L 54.687197 150.355544 
L 54.87309 149.625141 
L 55.058984 148.922732 
L 55.211874 148.36401 
L 55.364764 147.820977 
L 55.517654 147.292467 
L 55.670544 146.777453 
L 55.875779 146.105754 
L 56.081013 145.45482 
L 56.224774 145.010325 
L 56.370395 144.569112 
L 56.516016 144.13651 
L 56.807258 143.295424 
L 57.082855 142.526857 
L 57.336228 141.841759 
L 57.5896 141.175694 
L 57.792336 140.655553 
L 57.995072 140.146136 
L 58.068367 139.964498 
L 58.296384 139.407661 
L 58.524402 138.862756 
L 58.796625 138.22696 
L 59.068848 137.606301 
L 59.307308 137.074368 
L 59.545767 136.552842 
L 59.743629 136.127653 
L 60.10168 135.374755 
L 60.382246 134.798906 
L 60.662812 134.23479 
L 60.861545 133.842001 
L 61.160962 133.260396 
L 61.460378 132.69051 
L 61.677553 132.28418 
L 62.008196 131.676413 
L 62.523799 130.753505 
L 62.829174 130.220412 
L 63.138353 129.690412 
L 63.52274 129.044559 
L 63.907127 128.412553 
L 64.02099 128.227905 
L 64.595831 127.31285 
L 64.759765 127.056971 
L 65.07952 126.56411 
L 65.399274 126.079253 
L 65.560655 125.837498 
L 66.141445 124.983259 
L 66.318533 124.727567 
L 66.732247 124.138585 
L 67.213387 123.467858 
L 67.787769 122.686324 
L 68.0342 122.357174 
L 68.512543 121.728431 
L 68.746558 121.425596 
L 69.297758 120.724236 
L 69.555497 120.401876 
L 69.922854 119.948395 
L 70.512881 119.234303 
L 70.713025 118.995957 
L 71.270576 118.342027 
L 71.466962 118.115136 
L 72.069593 117.429753 
L 72.23803 117.241054 
L 72.65434 116.779898 
L 73.151479 116.238753 
L 73.615021 115.743278 
L 73.967252 115.372501 
L 74.383583 114.940464 
L 74.721559 114.594586 
L 75.120838 114.19145 
L 75.568332 113.746532 
L 75.930918 113.391265 
L 76.442343 112.897945 
L 76.790952 112.566785 
L 76.963661 112.404229 
L 77.404332 111.99392 
L 77.680254 111.74022 
L 78.034441 111.418123 
L 78.471511 111.026082 
L 78.934202 110.617471 
L 79.434243 110.183136 
L 79.79041 109.878278 
L 80.144954 109.57847 
L 80.388822 109.374344 
L 80.784457 109.04676 
L 81.485622 108.47687 
L 81.86445 108.174535 
L 82.082506 108.002249 
L 82.617849 107.584591 
L 82.781836 107.458148 
L 83.375066 107.00649 
L 83.57845 106.853696 
L 84.230849 106.370525 
L 84.399724 106.24716 
L 84.773174 105.976809 
L 85.110498 105.735489 
L 85.6263 105.371698 
L 86.007478 105.10685 
L 86.290928 104.912078 
L 86.680144 104.647614 
L 87.299312 104.233925 
L 87.483696 104.112378 
L 88.098072 103.712751 
L 88.402033 103.518061 
L 88.676282 103.344099 
L 89.031931 103.120881 
L 89.414049 102.884013 
L 90.017327 102.516222 
L 90.260646 102.369995 
L 90.544944 102.200665 
L 90.924901 101.976903 
L 91.497626 101.645055 
L 91.720319 101.517771 
L 92.299276 101.191383 
L 92.741306 100.946545 
L 93.204271 100.694108 
L 93.547583 100.509526 
L 93.982061 100.279089 
L 94.215709 100.156617 
L 94.807259 99.851027 
L 94.977446 99.764292 
L 95.493532 99.504473 
L 95.722094 99.390933 
L 96.208084 99.152605 
L 96.69353 98.918706 
L 97.166412 98.694819 
L 97.203547 98.677402 
L 97.610531 98.488076 
L 98.341237 98.155273 
L 98.616201 98.032385 
L 98.932073 97.892785 
L 99.179512 97.784596 
L 99.72173 97.551076 
L 100.256144 97.325662 
L 100.682296 97.149259 
L 101.094537 96.981417 
L 101.185831 96.944618 
L 101.500722 96.818718 
L 102.253586 96.524121 
L 102.288172 96.510804 
L 102.76034 96.330878 
L 103.135546 96.190394 
L 103.690755 95.986537 
L 104.147732 95.822324 
L 104.443309 95.717819 
L 104.914349 95.554034 
L 105.132029 95.479485 
L 105.67818 95.295596 
L 105.86194 95.234734 
L 106.344737 95.077238 
L 106.910233 94.897177 
L 107.045847 94.854701 
L 107.526121 94.70645 
L 107.762021 94.634874 
L 108.472575 94.424188 
L 108.848307 94.315746 
L 109.31394 94.184185 
L 109.699297 94.077662 
L 109.716409 94.072981 
L 110.132845 93.960357 
L 110.578043 93.842687 
L 111.152406 93.695024 
L 111.379005 93.638049 
L 111.974493 93.491758 
L 112.442518 93.380261 
L 112.628397 93.336825 
L 113.07701 93.233972 
L 113.401258 93.161366 
L 113.631484 93.110694 
L 114.373233 92.952395 
L 114.676325 92.889881 
L 114.987294 92.827045 
L 115.341847 92.757009 
L 115.86403 92.656968 
L 116.250451 92.585312 
L 116.451125 92.548894 
L 116.88892 92.471327 
L 117.353497 92.39183 
L 117.928516 92.297434 
L 118.246991 92.247051 
L 118.559902 92.198864 
L 118.83759 92.15719 
L 119.480425 92.06464 
L 119.793139 92.021593 
L 120.08811 91.982172 
L 120.629244 91.912832 
L 120.948536 91.873724 
L 121.153836 91.849285 
L 121.478015 91.811819 
L 121.954642 91.759231 
L 122.237738 91.729401 
L 122.896645 91.664019 
L 123.212051 91.634723 
L 123.483836 91.610515 
L 123.9018 91.575159 
L 124.275106 91.545496 
L 124.673549 91.515828 
L 125.179093 91.48114 
L 125.658303 91.451309 
L 126.100401 91.426417 
L 126.21728 91.420257 
L 126.671538 91.39799 
L 127.28649 91.372079 
L 127.443499 91.366244 
L 127.818809 91.35358 
L 128.272616 91.340686 
L 128.692331 91.331117 
L 129.123714 91.32364 
L 129.644798 91.317796 
L 129.928674 91.31608 
L 130.257692 91.315385 
z
" style="fill:#808080;opacity:0.5;"/>
   </g>
   <g id="patch_5">
    <path clip-path="url(#peec8b203df)" d="M 169.2 101.749945 
L 168.949125 101.895411 
L 168.723636 102.027226 
L 168.648617 102.071305 
L 168.331483 102.258895 
L 168.237586 102.314826 
L 167.971295 102.47442 
L 167.857459 102.543086 
L 167.591277 102.704683 
L 167.442826 102.795441 
L 167.245821 102.916588 
L 167.091285 103.012185 
L 166.854475 103.159647 
L 166.613469 103.310935 
L 166.39267 103.450619 
L 166.266018 103.531212 
L 166.014495 103.692285 
L 165.851575 103.797345 
L 165.590078 103.967178 
L 165.388285 104.099256 
L 165.243193 104.194775 
L 165.085997 104.298787 
L 164.830222 104.469199 
L 164.613483 104.614748 
L 164.57213 104.642638 
L 164.395937 104.761903 
L 164.093533 104.968242 
L 163.980851 105.045662 
L 163.639778 105.281785 
L 163.447822 105.415862 
L 163.373576 105.467952 
L 163.062747 105.68743 
L 162.976532 105.748711 
L 162.660067 105.97517 
L 162.497634 106.092337 
L 162.392318 106.168645 
L 162.072604 106.401945 
L 162.014697 106.444467 
L 161.736332 106.65003 
L 161.626879 106.731382 
L 161.39369 106.905698 
L 161.221432 107.035342 
L 160.890324 107.286647 
L 160.86559 107.305531 
L 160.636385 107.481278 
L 160.321432 107.724988 
L 160.199895 107.819723 
L 159.964597 108.004236 
L 159.805027 108.130199 
L 159.577294 108.311144 
L 159.469804 108.397034 
L 159.259533 108.565953 
L 158.990446 108.783878 
L 158.809557 108.931492 
L 158.723345 109.002164 
L 158.439714 109.236132 
L 158.30398 109.348898 
L 158.137587 109.487847 
L 157.845716 109.733487 
L 157.582229 109.957348 
L 157.389783 110.122131 
L 157.187011 110.296935 
L 156.990547 110.467465 
L 156.938025 110.513249 
L 156.649948 110.765847 
L 156.57054 110.835918 
L 156.210391 111.156143 
L 156.097353 111.257476 
L 155.93768 111.401296 
L 155.681038 111.634137 
L 155.536562 111.766135 
L 155.248259 112.031539 
L 155.014616 112.248602 
L 154.979706 112.281189 
L 154.668415 112.573539 
L 154.445921 112.784476 
L 154.283605 112.939415 
L 154.127044 113.08971 
L 154.012633 113.200074 
L 153.709139 113.495032 
L 153.543824 113.657054 
L 153.280386 113.917246 
L 153.11505 114.081816 
L 152.87044 114.327111 
L 152.790112 114.408141 
L 152.591793 114.609216 
L 152.323656 114.883415 
L 152.103789 115.11028 
L 151.954038 115.265858 
L 151.797416 115.429501 
L 151.592933 115.644593 
L 151.413361 115.834843 
L 151.234559 116.025556 
L 151.084857 116.186223 
L 150.809958 116.483636 
L 150.621537 116.689294 
L 150.375902 116.959635 
L 150.295781 117.048369 
L 149.94269 117.442703 
L 149.808511 117.593978 
L 149.592037 117.839713 
L 149.405414 118.053244 
L 149.203693 118.285827 
L 149.015593 118.50439 
L 148.773538 118.788072 
L 148.689289 118.887458 
L 148.446299 119.176008 
L 148.275866 119.3801 
L 148.058422 119.642559 
L 147.776486 119.986375 
L 147.577047 120.232026 
L 147.462785 120.373686 
L 147.27423 120.608947 
L 147.018405 120.931151 
L 146.82675 121.174844 
L 146.661691 121.386329 
L 146.450275 121.659423 
L 146.336196 121.807829 
L 146.123871 122.086023 
L 145.87046 122.421476 
L 145.709372 122.636689 
L 145.435444 123.00625 
L 145.388541 123.069988 
L 145.08052 123.491968 
L 144.975974 123.636554 
L 144.677858 124.052719 
L 144.634872 124.113207 
L 144.311108 124.572752 
L 144.156529 124.794669 
L 143.885394 125.187929 
L 143.717261 125.434413 
L 143.655125 125.52602 
L 143.464901 125.808223 
L 143.106159 126.347781 
L 142.914537 126.640028 
L 142.766339 126.868026 
L 142.63337 127.074089 
L 142.384936 127.46295 
L 142.204002 127.749389 
L 141.994981 128.083769 
L 141.787043 128.420199 
L 141.599607 128.726771 
L 141.338271 129.159596 
L 141.224518 129.349997 
L 141.042231 129.657707 
L 140.792776 130.084097 
L 140.638174 130.351509 
L 140.394872 130.777373 
L 140.147706 131.216484 
L 140.096937 131.30751 
L 139.881682 131.696663 
L 139.585031 132.241737 
L 139.518035 132.366286 
L 139.248542 132.872844 
L 139.020512 133.308626 
L 138.857872 133.6236 
L 138.626391 134.07806 
L 138.442573 134.444276 
L 138.188628 134.95827 
L 138.102127 135.135555 
L 137.820122 135.721597 
L 137.723832 135.92461 
L 137.517212 136.365427 
L 137.375714 136.671513 
L 137.19238 137.07336 
L 136.915244 137.692561 
L 136.697495 138.189484 
L 136.607631 138.397349 
L 136.427871 138.818214 
L 136.248111 139.246071 
L 136.158483 139.462107 
L 136.007441 139.830385 
L 135.856399 140.204126 
L 135.646016 140.734213 
L 135.540188 141.005222 
L 135.377259 141.428414 
L 135.236758 141.799377 
L 135.102129 142.160296 
L 134.9675 142.526777 
L 134.856959 142.83201 
L 134.746417 143.141286 
L 134.604818 143.543599 
L 134.456104 143.973889 
L 134.30739 144.412539 
L 134.218236 144.679704 
L 134.07324 145.121242 
L 133.897443 145.668886 
L 133.721645 146.230929 
L 133.548652 146.79911 
L 133.434432 147.183038 
L 133.294906 147.662133 
L 133.15538 148.153054 
L 133.0419 148.561636 
L 132.92842 148.979109 
L 132.849666 149.274353 
L 132.770912 149.574353 
L 132.66146 149.999611 
L 132.556073 150.418776 
L 132.450685 150.848117 
L 132.336527 151.325522 
L 132.222369 151.816782 
L 132.156435 152.1073 
L 132.0905 152.4031 
L 132.024565 152.704467 
L 131.958631 153.011712 
L 131.872207 153.42391 
L 131.785783 153.847656 
L 131.729151 154.132062 
L 131.672518 154.422157 
L 131.615886 154.718284 
L 131.559254 155.020819 
L 131.51564 155.258437 
L 131.472027 155.500314 
L 131.428414 155.746681 
L 131.3848 155.997788 
L 131.33173 156.310143 
L 131.278659 156.630482 
L 131.242751 156.852063 
L 131.206844 157.0778 
L 131.170936 157.30793 
L 131.135029 157.542713 
L 131.094644 157.81269 
L 131.054259 158.089372 
L 131.013874 158.373273 
L 130.973489 158.664977 
L 130.933104 158.965151 
L 130.892719 159.274563 
L 130.852334 159.594105 
L 130.811949 159.924826 
L 130.78457 160.156012 
L 130.757191 160.393351 
L 130.729813 160.637353 
L 130.702434 160.888605 
L 130.675055 161.147786 
L 130.647677 161.415688 
L 130.620298 161.693245 
L 130.59292 161.98157 
L 130.577474 162.149478 
L 130.562028 162.321517 
L 130.546582 162.498007 
L 130.531136 162.679309 
L 130.514046 162.886021 
L 130.496956 163.099782 
L 130.479866 163.32136 
L 130.462775 163.551675 
L 130.445685 163.791843 
L 130.428595 164.043242 
L 130.411505 164.307601 
L 130.40296 164.445312 
L 130.394414 164.587149 
L 130.385869 164.733503 
L 130.377324 164.884836 
L 130.368779 165.041689 
L 130.360234 165.204715 
L 130.351689 165.374701 
L 130.343144 165.55262 
L 130.334598 165.739697 
L 130.326053 165.937505 
L 130.317508 166.148132 
L 130.308963 166.374442 
L 130.300418 166.620559 
L 130.291873 166.892815 
L 130.283328 167.201864 
L 130.274783 167.568484 
L 130.266237 168.046312 
L 130.257692 169.2 
L 130.257692 91.315385 
L 130.51003 91.315793 
L 130.575576 91.316033 
L 130.86689 91.317767 
L 131.060266 91.31952 
L 131.218653 91.321313 
L 131.476898 91.324928 
L 131.637813 91.327613 
L 131.900562 91.332714 
L 132.059957 91.33624 
L 132.225304 91.340243 
L 132.392115 91.344637 
L 132.684923 91.353215 
L 132.725289 91.354485 
L 132.980174 91.362982 
L 133.2821 91.374129 
L 133.300968 91.374864 
L 133.672758 91.390292 
L 133.813322 91.396589 
L 134.055392 91.408029 
L 134.075776 91.409027 
L 134.335081 91.422187 
L 134.636763 91.438589 
L 134.834385 91.44997 
L 134.994057 91.459533 
L 135.092621 91.465601 
L 135.315459 91.479782 
L 135.599545 91.498791 
L 135.749151 91.509221 
L 136.008365 91.527978 
L 136.052782 91.531279 
L 136.302729 91.550333 
L 136.527181 91.568133 
L 136.674415 91.580164 
L 136.99112 91.606996 
L 137.177935 91.623434 
L 137.307308 91.635084 
L 137.568813 91.659296 
L 137.757387 91.677307 
L 137.976137 91.698781 
L 138.120663 91.713311 
L 138.185603 91.719928 
L 138.505235 91.7533 
L 138.63224 91.76693 
L 138.791356 91.784305 
L 139.036417 91.811711 
L 139.29118 91.841035 
L 139.54217 91.870757 
L 139.740169 91.894787 
L 139.862415 91.90988 
L 139.958249 91.92185 
L 140.316826 91.967707 
L 140.496745 91.991353 
L 140.688834 92.017071 
L 140.839071 92.037524 
L 141.015246 92.061888 
L 141.224162 92.091311 
L 141.436672 92.121834 
L 141.540608 92.136979 
L 141.735651 92.165788 
L 142.006102 92.206571 
L 142.274136 92.247947 
L 142.377598 92.264175 
L 142.598108 92.299236 
L 142.752179 92.324119 
L 142.89714 92.347819 
L 143.254647 92.407471 
L 143.457535 92.442085 
L 143.49815 92.449081 
L 143.676144 92.48 
L 143.94538 92.527577 
L 144.13439 92.561559 
L 144.43052 92.61577 
L 144.616137 92.650354 
L 144.797067 92.684512 
L 144.872744 92.698931 
L 145.155155 92.753424 
L 145.334336 92.78856 
L 145.458753 92.813214 
L 145.708168 92.863272 
L 145.880128 92.898278 
L 146.082261 92.939943 
L 146.230593 92.970873 
L 146.56345 93.041379 
L 146.72478 93.076099 
L 146.888002 93.11159 
L 147.044852 93.146042 
L 147.239549 93.189278 
L 147.533987 93.255659 
L 147.576471 93.265336 
L 147.815457 93.320239 
L 148.097793 93.386122 
L 148.253729 93.422985 
L 148.377147 93.452401 
L 148.643108 93.516516 
L 148.933125 93.587557 
L 149.086397 93.625578 
L 149.27189 93.672034 
L 149.344792 93.690425 
L 149.623795 93.761499 
L 149.825477 93.813561 
L 149.97652 93.852929 
L 150.304479 93.939521 
L 150.455288 93.979853 
L 150.685644 94.042086 
L 150.854359 94.088146 
L 151.089966 94.15315 
L 151.282738 94.206929 
L 151.419436 94.245388 
L 151.570085 94.288084 
L 151.814219 94.35797 
L 151.905437 94.384303 
L 152.238189 94.481387 
L 152.332581 94.50922 
L 152.59644 94.587711 
L 152.806504 94.650926 
L 152.882914 94.674081 
L 153.10376 94.741485 
L 153.37219 94.824377 
L 153.638435 94.907644 
L 153.81224 94.962566 
L 154.017909 95.028136 
L 154.101746 95.055045 
L 154.280904 95.112898 
L 154.615118 95.222104 
L 154.671148 95.240575 
L 154.862122 95.303888 
L 155.100929 95.38383 
L 155.227803 95.426652 
L 155.447519 95.501384 
L 155.763881 95.610275 
L 155.884662 95.652249 
L 156.100032 95.727646 
L 156.352189 95.816824 
L 156.411136 95.837812 
L 156.628119 95.915527 
L 156.879111 96.00633 
L 157.118433 96.093817 
L 157.318855 96.167769 
L 157.431324 96.209541 
L 157.689033 96.306002 
L 157.928074 96.396406 
L 158.107999 96.465044 
L 158.186907 96.495308 
L 158.511496 96.62083 
L 158.620893 96.663512 
L 158.743841 96.711707 
L 158.950959 96.793441 
L 159.186019 96.887033 
L 159.440906 96.989521 
L 159.51643 97.020089 
L 159.869001 97.164011 
L 159.918576 97.184409 
L 160.250371 97.321961 
L 160.344576 97.361342 
L 160.516842 97.433732 
L 160.854093 97.576864 
L 160.964107 97.623961 
L 161.113601 97.688279 
L 161.449934 97.83434 
L 161.639007 97.917279 
L 161.793871 97.985656 
L 161.977898 98.067434 
L 162.164416 98.150902 
L 162.421388 98.266863 
L 162.523117 98.313078 
L 162.64737 98.369766 
L 162.869421 98.471728 
L 163.058326 98.559136 
L 163.402202 98.719827 
L 163.597071 98.811797 
L 163.681716 98.851951 
L 163.948542 98.979348 
L 164.170244 99.086149 
L 164.350087 99.17342 
L 164.473916 99.233842 
L 164.643493 99.317026 
L 164.986867 99.487033 
L 165.047377 99.51721 
L 165.235168 99.611283 
L 165.510521 99.750368 
L 165.599664 99.795689 
L 165.863622 99.930735 
L 166.007021 100.004633 
L 166.303945 100.158846 
L 166.517318 100.270668 
L 166.575938 100.301536 
L 166.80828 100.424511 
L 167.069181 100.563803 
L 167.323407 100.700758 
L 167.343359 100.711558 
L 167.670929 100.889949 
L 167.870343 100.999547 
L 167.967219 101.053064 
L 168.234522 101.201664 
L 168.324395 101.251936 
L 168.679568 101.452138 
L 168.766719 101.501638 
L 169.099968 101.69229 
z
" style="fill:#808080;opacity:0.5;"/>
   </g>
   <g id="patch_6">
    <path clip-path="url(#peec8b203df)" d="M 169.2 236.650055 
L 169.036453 236.555367 
L 168.891473 236.470984 
L 168.517514 236.251391 
L 168.442177 236.206813 
L 168.240199 236.086733 
L 167.96601 235.922398 
L 167.887669 235.875163 
L 167.679252 235.748888 
L 167.511684 235.646713 
L 167.146013 235.421727 
L 167.059085 235.367833 
L 166.767562 235.185936 
L 166.720682 235.156517 
L 166.391816 234.948838 
L 166.343403 234.918071 
L 166.161641 234.80211 
L 165.950713 234.666653 
L 165.664495 234.481305 
L 165.569441 234.419355 
L 165.371002 234.28939 
L 165.172143 234.158281 
L 164.892841 233.972656 
L 164.719425 233.856528 
L 164.549823 233.742301 
L 164.361256 233.614539 
L 164.0876 233.427689 
L 163.850381 233.264331 
L 163.682955 233.148254 
L 163.608958 233.096746 
L 163.371872 232.930851 
L 163.0985 232.737931 
L 162.966878 232.644415 
L 162.753176 232.491706 
L 162.555448 232.349438 
L 162.446048 232.270319 
L 162.147215 232.052723 
L 161.937893 231.899006 
L 161.826316 231.816629 
L 161.572694 231.628234 
L 161.390775 231.492114 
L 161.181642 231.334606 
L 160.890755 231.113683 
L 160.848388 231.081326 
L 160.570912 230.868271 
L 160.352208 230.69894 
L 160.121997 230.519354 
L 160.005731 230.428125 
L 159.862918 230.315578 
L 159.700005 230.186528 
L 159.434768 229.974904 
L 159.214716 229.797888 
L 158.9626 229.593457 
L 158.918391 229.55743 
L 158.667462 229.351916 
L 158.367844 229.104224 
L 158.249656 229.005824 
L 158.001271 228.797733 
L 157.941423 228.74733 
L 157.687091 228.531985 
L 157.421291 228.304922 
L 157.25181 228.159058 
L 157.079908 228.010242 
L 156.886225 227.841515 
L 156.771494 227.741035 
L 156.466435 227.471927 
L 156.275773 227.302288 
L 156.157316 227.196327 
L 155.915135 226.978333 
L 155.789456 226.86448 
L 155.485456 226.587014 
L 155.305369 226.421248 
L 155.173016 226.298752 
L 154.85328 226.000465 
L 154.70077 225.856998 
L 154.613135 225.774207 
L 154.241148 225.41991 
L 154.184577 225.365617 
L 153.98074 225.16908 
L 153.726128 224.921564 
L 153.602876 224.800933 
L 153.369761 224.571306 
L 153.176676 224.379639 
L 152.996495 224.199569 
L 152.784709 223.9864 
L 152.517586 223.715169 
L 152.326764 223.519779 
L 152.190213 223.379115 
L 151.970125 223.150897 
L 151.753559 222.924504 
L 151.556244 222.716639 
L 151.363835 222.51246 
L 151.282431 222.42563 
L 150.977212 222.097685 
L 150.797163 221.902444 
L 150.630077 221.72006 
L 150.415732 221.484374 
L 150.224797 221.272788 
L 150.084006 221.115768 
L 149.878688 220.885239 
L 149.661463 220.639325 
L 149.340651 220.272287 
L 149.292827 220.217173 
L 149.033702 219.916724 
L 148.816743 219.662765 
L 148.632686 219.445579 
L 148.547916 219.345008 
L 148.211527 218.942485 
L 147.969294 218.649184 
L 147.940369 218.613965 
L 147.599821 218.196128 
L 147.475354 218.041929 
L 147.333402 217.865083 
L 146.993108 217.436798 
L 146.928434 217.354698 
L 146.624477 216.965781 
L 146.546263 216.864878 
L 146.235652 216.460759 
L 146.187845 216.39807 
L 145.950515 216.084905 
L 145.783888 215.863056 
L 145.473212 215.444976 
L 145.228751 215.111847 
L 145.099927 214.934796 
L 144.840199 214.574623 
L 144.806289 214.527276 
L 144.461691 214.041859 
L 144.325379 213.847653 
L 144.118213 213.550069 
L 143.912163 213.251127 
L 143.720731 212.970695 
L 143.536448 212.698233 
L 143.31488 212.367325 
L 143.161513 212.136111 
L 143.046327 211.961275 
L 142.849623 211.660318 
L 142.613469 211.294948 
L 142.340655 210.867204 
L 142.248184 210.720811 
L 141.916259 210.189314 
L 141.724145 209.877279 
L 141.529941 209.558468 
L 141.383022 209.314974 
L 141.134377 208.898244 
L 141.064573 208.780182 
L 140.786848 208.305694 
L 140.706561 208.167081 
L 140.368732 207.576501 
L 140.296405 207.448488 
L 139.964297 206.853316 
L 139.899563 206.735864 
L 139.653141 206.284327 
L 139.408037 205.82804 
L 139.353726 205.72594 
L 139.173293 205.384089 
L 138.99286 205.038068 
L 138.869597 204.799227 
L 138.738926 204.543797 
L 138.484359 204.039395 
L 138.197686 203.460228 
L 138.174526 203.412905 
L 137.966433 202.984019 
L 137.805546 202.64777 
L 137.64466 202.307324 
L 137.475319 201.944312 
L 137.208264 201.361696 
L 137.055728 201.023129 
L 136.974445 200.840933 
L 136.804728 200.456409 
L 136.635012 200.066162 
L 136.61434 200.018229 
L 136.411067 199.542091 
L 136.262284 199.187923 
L 136.113501 198.828774 
L 135.981858 198.506703 
L 135.850216 198.180455 
L 135.678552 197.74851 
L 135.617582 197.593265 
L 135.391594 197.009118 
L 135.190537 196.477324 
L 135.077184 196.172226 
L 134.963831 195.863156 
L 134.823735 195.475467 
L 134.683638 195.081213 
L 134.491134 194.528205 
L 134.389982 194.232136 
L 134.288831 193.93211 
L 134.187023 193.625995 
L 134.091094 193.333609 
L 133.995165 193.037251 
L 133.884069 192.688877 
L 133.772973 192.334724 
L 133.641595 191.908084 
L 133.544089 191.585688 
L 133.446583 191.25815 
L 133.358759 190.958542 
L 133.270935 190.65439 
L 133.188554 190.364783 
L 133.106172 190.070834 
L 133.023791 189.772355 
L 132.94141 189.469146 
L 132.851227 189.131546 
L 132.761045 188.787713 
L 132.671934 188.441519 
L 132.564144 188.013678 
L 132.456354 187.575247 
L 132.375544 187.239149 
L 132.294735 186.896299 
L 132.213925 186.546299 
L 132.133116 186.188705 
L 132.075857 185.930462 
L 131.980343 185.490131 
L 131.884828 185.036986 
L 131.808846 184.666608 
L 131.732864 184.286757 
L 131.656882 183.8967 
L 131.5809 183.4956 
L 131.532209 183.232324 
L 131.483518 182.96384 
L 131.434827 182.689838 
L 131.386136 182.409975 
L 131.317658 182.005719 
L 131.278181 181.766599 
L 131.238705 181.522713 
L 131.199229 181.273773 
L 131.159753 181.019459 
L 131.120277 180.759416 
L 131.080801 180.49325 
L 131.041325 180.220515 
L 131.001849 179.940712 
L 130.970606 179.713886 
L 130.939364 179.481962 
L 130.908121 179.244587 
L 130.876878 179.001365 
L 130.845636 178.75185 
L 130.814393 178.495535 
L 130.783151 178.231841 
L 130.751908 177.960102 
L 130.725018 177.719186 
L 130.698127 177.471168 
L 130.671237 177.21539 
L 130.644346 176.951083 
L 130.619711 176.700685 
L 130.595075 176.44155 
L 130.57044 176.172704 
L 130.545804 175.892978 
L 130.521169 175.600944 
L 130.496533 175.294834 
L 130.484215 175.135824 
L 130.471898 174.972409 
L 130.45958 174.804204 
L 130.447262 174.630764 
L 130.435414 174.458514 
L 130.423566 174.280401 
L 130.411718 174.095783 
L 130.39987 173.903896 
L 130.388021 173.703809 
L 130.376173 173.494376 
L 130.364325 173.274158 
L 130.352477 173.041299 
L 130.346553 172.919393 
L 130.340629 172.793343 
L 130.334705 172.662698 
L 130.328781 172.526916 
L 130.322857 172.38534 
L 130.316933 172.23716 
L 130.311009 172.081358 
L 130.305085 171.916622 
L 130.299161 171.741216 
L 130.293237 171.552753 
L 130.287313 171.347801 
L 130.281389 171.121088 
L 130.275464 170.863743 
L 130.26954 170.558466 
L 130.263616 170.160599 
L 130.257692 169.2 
L 130.257692 247.084615 
L 130.439666 247.084403 
L 130.629015 247.08373 
L 130.800619 247.082723 
L 131.041637 247.08067 
L 131.197179 247.078949 
L 131.475476 247.075094 
L 131.691274 247.071421 
L 131.819705 247.06895 
L 132.066494 247.063609 
L 132.178207 247.060933 
L 132.478474 247.052948 
L 132.695179 247.046464 
L 132.820128 247.042451 
L 132.963556 247.037598 
L 133.189729 247.029406 
L 133.315833 247.024553 
L 133.541104 247.015375 
L 133.792066 247.00438 
L 133.890622 246.99984 
L 134.162919 246.986647 
L 134.417854 246.97343 
L 134.56557 246.965388 
L 134.683616 246.958758 
L 134.948286 246.943242 
L 135.090646 246.934522 
L 135.32204 246.91979 
L 135.527944 246.906099 
L 135.797657 246.887336 
L 135.939728 246.877074 
L 136.225453 246.855645 
L 136.268918 246.852292 
L 136.554002 246.829697 
L 136.728867 246.815316 
L 136.822752 246.807431 
L 137.018663 246.790609 
L 137.239443 246.771054 
L 137.440453 246.7527 
L 137.61634 246.736208 
L 137.910699 246.707708 
L 138.071463 246.691666 
L 138.356299 246.662416 
L 138.418306 246.655908 
L 138.699866 246.625726 
L 138.788369 246.616025 
L 139.124023 246.578301 
L 139.337735 246.553514 
L 139.456237 246.539512 
L 139.657231 246.515341 
L 139.891704 246.486474 
L 140.065701 246.464586 
L 140.173077 246.45088 
L 140.449701 246.414871 
L 140.633336 246.39041 
L 140.890224 246.355444 
L 141.032823 246.335659 
L 141.307809 246.296746 
L 141.476124 246.272434 
L 141.529407 246.26466 
L 141.783651 246.227044 
L 142.017383 246.191707 
L 142.122342 246.175603 
L 142.429607 246.127614 
L 142.499506 246.116522 
L 142.835644 246.062269 
L 142.924575 246.047664 
L 143.187265 246.003903 
L 143.423235 245.963805 
L 143.61366 245.930903 
L 143.721479 245.912057 
L 143.918529 245.877212 
L 144.08122 245.848049 
L 144.375687 245.794357 
L 144.487695 245.773627 
L 144.6683 245.739844 
L 144.916488 245.692699 
L 145.186304 245.640499 
L 145.343176 245.609695 
L 145.48611 245.581337 
L 145.799431 245.5182 
L 145.936505 245.490158 
L 146.044907 245.467799 
L 146.369767 245.399832 
L 146.451478 245.382509 
L 146.754945 245.31737 
L 146.982039 245.267796 
L 147.034881 245.256159 
L 147.274943 245.202806 
L 147.476791 245.15733 
L 147.63079 245.122255 
L 147.78086 245.087759 
L 148.100284 245.013292 
L 148.203212 244.988994 
L 148.454119 244.929145 
L 148.730387 244.862229 
L 148.783416 244.849262 
L 149.067859 244.779038 
L 149.16579 244.754597 
L 149.463792 244.679395 
L 149.579951 244.649742 
L 149.860178 244.577423 
L 149.99205 244.543005 
L 150.263866 244.471285 
L 150.356944 244.446484 
L 150.639805 244.370358 
L 150.828114 244.319046 
L 151.022189 244.265631 
L 151.191727 244.218528 
L 151.390464 244.162786 
L 151.566445 244.112952 
L 151.796563 244.047113 
L 152.026237 243.980638 
L 152.168449 243.939093 
L 152.397136 243.87167 
L 152.479591 243.847174 
L 152.853316 243.734899 
L 152.947315 243.706337 
L 153.087822 243.663404 
L 153.322872 243.590932 
L 153.618004 243.498783 
L 153.665458 243.483846 
L 153.848885 243.425797 
L 154.190661 243.316303 
L 154.285107 243.285739 
L 154.460571 243.228602 
L 154.622316 243.175526 
L 154.8819 243.089524 
L 155.135209 243.004624 
L 155.295187 242.950506 
L 155.440679 242.900953 
L 155.613183 242.841785 
L 155.851274 242.759377 
L 156.157945 242.651958 
L 156.2997 242.60182 
L 156.399141 242.566464 
L 156.698707 242.459034 
L 156.842142 242.407106 
L 156.977972 242.357638 
L 157.287697 242.243769 
L 157.431488 242.190398 
L 157.736438 242.07614 
L 157.942764 241.998009 
L 157.952272 241.994392 
L 158.247751 241.88129 
L 158.408413 241.819214 
L 158.655258 241.723042 
L 158.876692 241.635945 
L 159.037052 241.572383 
L 159.217334 241.500432 
L 159.356658 241.44447 
L 159.629019 241.33417 
L 159.875372 241.23337 
L 160.065629 241.154849 
L 160.294634 241.059554 
L 160.470102 240.985957 
L 160.651151 240.90949 
L 160.849421 240.825131 
L 161.056043 240.736528 
L 161.202181 240.673435 
L 161.339829 240.613683 
L 161.550618 240.521568 
L 161.695841 240.457674 
L 161.898901 240.36774 
L 162.241871 240.214264 
L 162.416574 240.13532 
L 162.6288 240.038723 
L 162.818938 239.951527 
L 163.004774 239.865706 
L 163.180346 239.784079 
L 163.242852 239.75489 
L 163.457864 239.65397 
L 163.752879 239.514194 
L 163.822595 239.480941 
L 164.193248 239.30272 
L 164.252909 239.273808 
L 164.47076 239.167702 
L 164.680112 239.064943 
L 164.886416 238.962918 
L 165.138754 238.837094 
L 165.202938 238.804907 
L 165.5667 238.621087 
L 165.766294 238.519207 
L 165.859276 238.471499 
L 166.043496 238.37651 
L 166.362337 238.210636 
L 166.536231 238.11938 
L 166.70843 238.028461 
L 166.772418 237.994536 
L 166.990232 237.878482 
L 167.251066 237.738337 
L 167.428316 237.64237 
L 167.642159 237.5258 
L 167.763703 237.459157 
L 168.084675 237.281809 
L 168.294256 237.164941 
L 168.384619 237.11429 
L 168.607426 236.988725 
L 168.770608 236.896149 
L 168.945552 236.796322 
z
" style="fill:#808080;opacity:0.5;"/>
   </g>
   <g id="patch_7">
    <path clip-path="url(#peec8b203df)" d="M 286.026923 169.2 
L 286.010629 170.793039 
L 285.994336 171.45278 
L 285.978042 171.958936 
L 285.961749 172.385578 
L 285.945455 172.761399 
L 285.929162 173.101112 
L 285.912868 173.413463 
L 285.896574 173.704145 
L 285.880281 173.977117 
L 285.863987 174.23526 
L 285.847694 174.480749 
L 285.8314 174.715274 
L 285.815106 174.940178 
L 285.798813 175.156552 
L 285.766226 175.567155 
L 285.733639 175.95268 
L 285.701051 176.317204 
L 285.668464 176.663804 
L 285.635877 176.994872 
L 285.60329 177.312309 
L 285.570703 177.617658 
L 285.538116 177.91219 
L 285.505528 178.196966 
L 285.449767 178.664142 
L 285.394006 179.109004 
L 285.338245 179.534433 
L 285.282484 179.942739 
L 285.226724 180.335805 
L 285.170963 180.715192 
L 285.115202 181.08221 
L 285.059441 181.437973 
L 285.002866 181.788402 
L 284.946292 182.12909 
L 284.86266 182.616438 
L 284.779029 183.086189 
L 284.695398 183.540073 
L 284.611767 183.979552 
L 284.528135 184.405875 
L 284.444504 184.820119 
L 284.360873 185.223221 
L 284.277242 185.616002 
L 284.160231 186.149592 
L 284.04322 186.666104 
L 283.913765 187.219422 
L 283.78431 187.755344 
L 283.628955 188.377576 
L 283.4736 188.979023 
L 283.318244 189.561529 
L 283.162889 190.126673 
L 283.034276 190.582385 
L 282.858276 191.189483 
L 282.682277 191.778892 
L 282.543709 192.231386 
L 282.405142 192.674343 
L 282.266575 193.10829 
L 282.128007 193.533712 
L 281.906353 194.197578 
L 281.69918 194.800779 
L 281.492007 195.388451 
L 281.279098 195.97729 
L 281.066189 196.551798 
L 280.800334 197.250392 
L 280.534479 197.929546 
L 280.321478 198.460566 
L 280.108476 198.980597 
L 279.889196 199.505072 
L 279.669915 200.019064 
L 279.401614 200.634448 
L 279.147337 201.204674 
L 278.893059 201.76293 
L 278.55003 202.498138 
L 278.37274 202.870458 
L 278.027376 203.581544 
L 277.682012 204.274818 
L 277.294714 205.03236 
L 277.134911 205.339093 
L 276.853509 205.871298 
L 276.572107 206.39376 
L 276.187049 207.09362 
L 275.693744 207.966181 
L 275.423495 208.433342 
L 274.959193 209.218959 
L 274.604451 209.805378 
L 274.163327 210.51874 
L 273.72272 211.214555 
L 273.402372 211.710438 
L 273.212603 212.000351 
L 272.837924 212.564624 
L 272.307871 213.345145 
L 271.997437 213.793001 
L 271.390052 214.65037 
L 271.027656 215.150476 
L 270.869176 215.366582 
L 270.295569 216.135972 
L 269.859187 216.708316 
L 269.476476 217.201387 
L 269.269466 217.464727 
L 268.66171 218.224639 
L 268.306092 218.660412 
L 268.192403 218.798381 
L 267.748727 219.33071 
L 267.287808 219.873693 
L 266.947684 220.268005 
L 266.317761 220.984457 
L 265.915113 221.433287 
L 265.621589 221.756117 
L 265.150629 222.266606 
L 264.755211 222.688246 
L 264.583015 222.869916 
L 264.150814 223.320796 
L 263.621302 223.863466 
L 263.211879 224.275908 
L 262.975697 224.511055 
L 262.359488 225.11521 
L 262.046678 225.416832 
L 261.939618 225.519292 
L 261.241329 226.178129 
L 261.073352 226.334209 
L 260.574912 226.791973 
L 260.139503 227.185386 
L 259.744576 227.537117 
L 259.449069 227.79718 
L 258.959509 228.222245 
L 258.777674 228.378315 
L 258.09216 228.958059 
L 257.804527 229.19731 
L 257.590575 229.373766 
L 256.948807 229.89546 
L 256.623309 230.15577 
L 256.426075 230.31212 
L 255.834874 230.774609 
L 255.344301 231.151474 
L 255.185138 231.272421 
L 254.601459 231.710484 
L 254.377988 231.875953 
L 253.874846 232.244018 
L 253.585034 232.453237 
L 253.070748 232.819561 
L 252.742189 233.050324 
L 252.44898 233.254134 
L 252.154953 233.45652 
L 251.478672 233.914549 
L 251.311766 234.026007 
L 250.610001 234.487888 
L 250.421064 234.610397 
L 249.879792 234.957096 
L 249.57801 235.147675 
L 249.100236 235.445463 
L 248.680526 235.703129 
L 248.567663 235.771796 
L 248.09484 236.056626 
L 247.849674 236.202525 
L 247.417814 236.456582 
L 246.958402 236.722768 
L 246.338594 237.075305 
L 246.245185 237.127786 
L 245.849376 237.348296 
L 245.186653 237.710801 
L 244.954775 237.835673 
L 244.422975 238.11826 
L 244.111698 238.28123 
L 243.605866 238.542262 
L 243.23802 238.729162 
L 242.927617 238.884974 
L 242.476967 239.108115 
L 242.26297 239.212811 
L 241.930419 239.373905 
L 241.575416 239.543731 
L 240.996485 239.815978 
L 240.750684 239.929818 
L 240.279251 240.145262 
L 239.785888 240.366685 
L 239.566133 240.463992 
L 239.13968 240.650516 
L 238.581047 240.890281 
L 238.404877 240.964826 
L 237.798853 241.217377 
L 237.641044 241.282161 
L 237.164285 241.475433 
L 236.518132 241.731551 
L 236.401502 241.777071 
L 235.926472 241.960247 
L 235.538004 242.107401 
L 234.995802 242.308845 
L 234.635212 242.440285 
L 234.532702 242.477284 
L 233.782504 242.743141 
L 233.630838 242.795843 
L 233.270424 242.919679 
L 232.619204 243.138453 
L 232.21961 243.26954 
L 231.873904 243.381026 
L 231.681532 243.442294 
L 231.312365 243.558333 
L 230.871128 243.694389 
L 230.283678 243.871099 
L 229.972914 243.962544 
L 229.735596 244.031432 
L 229.472211 244.106932 
L 228.938793 244.256775 
L 228.554907 244.362085 
L 228.029571 244.502789 
L 227.652381 244.601395 
L 227.351957 244.678492 
L 226.991246 244.769378 
L 226.516838 244.886128 
L 226.220191 244.957531 
L 225.929973 245.026198 
L 225.342889 245.161525 
L 225.146491 245.205731 
L 224.603087 245.325266 
L 224.20974 245.409258 
L 223.738923 245.507004 
L 223.349668 245.585532 
L 222.842954 245.684667 
L 222.782742 245.696216 
L 222.111843 245.821573 
L 221.726166 245.890887 
L 221.31051 245.963349 
L 221.027367 246.011383 
L 220.53727 246.091991 
L 220.356805 246.120864 
L 220.025995 246.172666 
L 219.682227 246.224954 
L 219.205659 246.294848 
L 218.579684 246.382087 
L 218.292088 246.420433 
L 218.10429 246.444885 
L 217.500175 246.520396 
L 217.093492 246.568531 
L 216.794856 246.602498 
L 216.423392 246.643121 
L 216.103428 246.676667 
L 215.713805 246.715713 
L 215.00336 246.781823 
L 214.606543 246.815894 
L 214.523742 246.822745 
L 213.830261 246.876641 
L 213.432534 246.904741 
L 213.145629 246.923742 
L 212.892677 246.939612 
L 212.634117 246.95498 
L 212.081685 246.984925 
L 211.696303 247.003486 
L 211.166645 247.025874 
L 210.947971 247.034064 
L 210.653305 247.044128 
L 210.166964 247.058295 
L 209.520682 247.072417 
L 209.452608 247.073593 
L 208.840675 247.081484 
L 208.34794 247.084344 
L 208.142308 247.084615 
L 208.142308 91.315385 
L 208.386428 91.315767 
L 208.961252 91.31969 
L 209.387302 91.325336 
L 209.853818 91.334192 
L 210.230772 91.343391 
L 210.685767 91.356926 
L 210.995976 91.367681 
L 211.095096 91.371378 
L 211.582099 91.391381 
L 212.133791 91.417731 
L 212.594145 91.442721 
L 212.905284 91.461159 
L 213.134056 91.475514 
L 213.509991 91.500571 
L 214.200844 91.551385 
L 214.442564 91.570624 
L 214.739561 91.595299 
L 215.372759 91.651732 
L 215.650589 91.678138 
L 215.98185 91.710937 
L 216.448988 91.75962 
L 216.651882 91.781653 
L 217.151763 91.838233 
L 217.679019 91.901459 
L 218.090145 91.953292 
L 218.393965 91.993026 
L 218.753393 92.041603 
L 219.057931 92.084097 
L 219.510689 92.149541 
L 219.775346 92.189054 
L 220.284755 92.267729 
L 220.601195 92.318341 
L 221.169493 92.412594 
L 221.40436 92.452809 
L 221.796399 92.521586 
L 222.298109 92.612621 
L 222.552182 92.660018 
L 223.067743 92.758881 
L 223.221549 92.789073 
L 223.631909 92.871201 
L 224.022086 92.95142 
L 224.571786 93.067973 
L 224.872025 93.133385 
L 225.527316 93.280472 
L 225.824331 93.349098 
L 226.08946 93.411392 
L 226.717502 93.56287 
L 226.877577 93.602361 
L 227.255561 93.697041 
L 227.51772 93.76389 
L 227.954236 93.877355 
L 228.408887 93.99841 
L 228.892628 94.130449 
L 229.278001 94.238038 
L 229.588434 94.32626 
L 230.019244 94.451 
L 230.484065 94.588612 
L 230.85355 94.70025 
L 231.185776 94.802339 
L 231.514145 94.904842 
L 232.037732 95.071584 
L 232.512895 95.226439 
L 232.883584 95.349593 
L 233.178719 95.449126 
L 233.629715 95.603768 
L 233.834095 95.674866 
L 234.340416 95.85375 
L 234.64979 95.96499 
L 235.013768 96.097757 
L 235.605563 96.31802 
L 236.035696 96.481555 
L 236.21376 96.550107 
L 236.679065 96.731615 
L 237.293186 96.976461 
L 237.593767 97.09851 
L 237.70964 97.14595 
L 238.184639 97.342699 
L 238.541361 97.492881 
L 239.058203 97.714192 
L 239.428361 97.875417 
L 239.882401 98.076306 
L 240.395705 98.307605 
L 240.562377 98.383671 
L 240.86221 98.521705 
L 241.255923 98.705307 
L 241.961685 99.041158 
L 242.108425 99.112082 
L 242.747933 99.425621 
L 242.851296 99.47698 
L 243.353056 99.729024 
L 243.614925 99.862371 
L 244.292575 100.213251 
L 244.487085 100.315528 
L 244.846395 100.506308 
L 245.333123 100.768599 
L 245.776499 101.011431 
L 246.277477 101.290338 
L 246.626778 101.487676 
L 246.953357 101.674333 
L 247.395201 101.930217 
L 247.71489 102.117781 
L 248.041433 102.311488 
L 248.541482 102.612313 
L 248.928424 102.848617 
L 249.323467 103.093076 
L 249.653518 103.299827 
L 249.837125 103.415841 
L 250.516904 103.85165 
L 250.752748 104.005187 
L 251.006814 104.171949 
L 251.73784 104.659757 
L 252.16322 104.949143 
L 252.429498 105.132394 
L 252.728745 105.340287 
L 253.265344 105.71831 
L 253.458524 105.856067 
L 253.773711 106.082741 
L 254.443406 106.572358 
L 254.673728 106.743293 
L 255.053882 107.028322 
L 255.652094 107.484252 
L 255.982312 107.739872 
L 256.108945 107.838652 
L 256.562604 108.195999 
L 257.239454 108.739405 
L 257.546791 108.99028 
L 257.752848 109.15995 
L 258.24558 109.570516 
L 258.678555 109.937018 
L 258.870609 110.101331 
L 259.460094 110.612475 
L 259.777175 110.891735 
L 260.126126 111.202621 
L 260.749159 111.767148 
L 260.852401 111.861885 
L 261.447947 112.415124 
L 261.604103 112.562117 
L 262.218192 113.148131 
L 262.554111 113.474162 
L 263.030054 113.942886 
L 263.396196 114.309007 
L 263.631675 114.547064 
L 264.145845 115.074062 
L 264.634249 115.584014 
L 264.798738 115.757861 
L 265.17232 116.156706 
L 265.521119 116.534211 
L 266.201714 117.285468 
L 266.589794 117.722776 
L 266.983672 118.173466 
L 267.045591 118.244956 
L 267.72201 119.03754 
L 267.963518 119.325797 
L 268.324149 119.76156 
L 268.703132 120.226539 
L 269.197145 120.84382 
L 269.714611 121.504457 
L 269.837892 121.664032 
L 270.451156 122.470772 
L 270.617414 122.693286 
L 271.050173 123.280355 
L 271.646414 124.108517 
L 272.026778 124.649044 
L 272.491517 125.322983 
L 272.814874 125.801009 
L 273.140963 126.290932 
L 273.659588 127.087065 
L 273.968981 127.572337 
L 274.093486 127.769874 
L 274.621437 128.622437 
L 274.975743 129.208685 
L 275.356058 129.851238 
L 275.653699 130.364123 
L 275.95134 130.886185 
L 276.101807 131.153716 
L 276.466708 131.812975 
L 276.799509 132.427701 
L 277.132311 133.055943 
L 277.494646 133.756149 
L 277.909686 134.580262 
L 278.309882 135.398744 
L 278.531441 135.862586 
L 278.954492 136.77088 
L 279.222997 137.363718 
L 279.48948 137.965494 
L 279.755962 138.581414 
L 279.984507 139.121573 
L 280.213051 139.673381 
L 280.371363 140.062792 
L 280.559134 140.532656 
L 280.746905 141.011601 
L 280.919728 141.46085 
L 281.092551 141.91859 
L 281.265374 142.385257 
L 281.438197 142.861324 
L 281.689864 143.57247 
L 281.888592 144.150073 
L 282.08732 144.742927 
L 282.226144 145.16672 
L 282.364967 145.598938 
L 282.503791 146.040053 
L 282.642614 146.490583 
L 282.8215 147.085943 
L 282.947795 147.517004 
L 283.074091 147.957561 
L 283.200386 148.408218 
L 283.326681 148.869647 
L 283.525262 149.618797 
L 283.624552 150.005103 
L 283.723842 150.399869 
L 283.85457 150.933456 
L 283.985298 151.48407 
L 284.116025 152.053352 
L 284.246753 152.643227 
L 284.324621 153.005296 
L 284.448548 153.599645 
L 284.572474 154.218579 
L 284.696401 154.865281 
L 284.758364 155.200241 
L 284.820327 155.543696 
L 284.917254 156.099582 
L 285.014181 156.680877 
L 285.111108 157.291299 
L 285.159571 157.608863 
L 285.208034 157.935583 
L 285.274499 158.400077 
L 285.340964 158.885895 
L 285.407429 159.396208 
L 285.473894 159.935062 
L 285.507126 160.216785 
L 285.540359 160.507762 
L 285.573591 160.808955 
L 285.606824 161.121505 
L 285.640056 161.446788 
L 285.673289 161.786477 
L 285.706521 162.142654 
L 285.739753 162.517955 
L 285.77565 162.948798 
L 285.793598 163.175843 
L 285.811546 163.411843 
L 285.829494 163.657942 
L 285.847442 163.91555 
L 285.86539 164.186442 
L 285.883338 164.472899 
L 285.901286 164.777947 
L 285.919234 165.105739 
L 285.928209 165.27993 
L 285.937183 165.462252 
L 285.946157 165.653959 
L 285.955131 165.856664 
L 285.964105 166.072506 
L 285.973079 166.304419 
L 285.982053 166.556632 
L 285.991027 166.835632 
L 286.000001 167.152338 
L 286.008975 167.528043 
L 286.017949 168.017714 
z
" style="fill:#808080;opacity:0.5;"/>
   </g>
   <g id="patch_8">
    <path clip-path="url(#peec8b203df)" d="M 208.142308 169.2 
L 208.13352 168.030085 
L 208.124733 167.545536 
L 208.115946 167.173761 
L 208.107159 166.860367 
L 208.098372 166.584285 
L 208.089584 166.334708 
L 208.080797 166.105219 
L 208.07201 165.891633 
L 208.063223 165.691046 
L 208.054435 165.501342 
L 208.045648 165.320924 
L 208.036861 165.148552 
L 208.028074 164.983238 
L 208.019287 164.824183 
L 208.010499 164.670727 
L 208.001712 164.522319 
L 207.992925 164.378493 
L 207.984138 164.23885 
L 207.966563 163.970784 
L 207.948989 163.715862 
L 207.931414 163.472328 
L 207.91384 163.238787 
L 207.896265 163.014106 
L 207.878691 162.797354 
L 207.861117 162.587749 
L 207.835546 162.294206 
L 207.809975 162.012733 
L 207.784404 161.741962 
L 207.758833 161.480769 
L 207.735204 161.247109 
L 207.711575 161.02019 
L 207.687947 160.799464 
L 207.664318 160.584456 
L 207.640689 160.374748 
L 207.617061 160.169971 
L 207.593432 159.969796 
L 207.569803 159.77393 
L 207.525633 159.418452 
L 207.481462 159.07564 
L 207.437292 158.744248 
L 207.393121 158.423223 
L 207.352506 158.136413 
L 207.311891 157.856998 
L 207.271277 157.584444 
L 207.230662 157.318279 
L 207.190047 157.058084 
L 207.149432 156.803482 
L 207.108817 156.554135 
L 207.068202 156.309738 
L 207.028339 156.074407 
L 206.988475 155.843341 
L 206.908747 155.393149 
L 206.858114 155.114947 
L 206.807481 154.842312 
L 206.731412 154.44251 
L 206.655343 154.053638 
L 206.579274 153.674877 
L 206.503205 153.305502 
L 206.440068 153.005591 
L 206.334152 152.515109 
L 206.228236 152.039293 
L 206.160761 151.74327 
L 206.093287 151.45244 
L 206.025813 151.166552 
L 205.958338 150.885375 
L 205.840709 150.405829 
L 205.72308 149.938937 
L 205.620655 149.541994 
L 205.51823 149.153433 
L 205.419394 148.785988 
L 205.28727 148.305605 
L 205.155146 147.836838 
L 205.098673 147.639831 
L 205.009369 147.332214 
L 204.920066 147.029224 
L 204.830762 146.730675 
L 204.741458 146.436391 
L 204.611765 146.016274 
L 204.492933 145.638542 
L 204.394524 145.3307 
L 204.296115 145.027178 
L 204.180576 144.676122 
L 204.065037 144.330558 
L 203.921118 143.907453 
L 203.7772 143.492115 
L 203.622785 143.054703 
L 203.488459 142.680796 
L 203.354133 142.31276 
L 203.275898 142.101017 
L 203.048206 141.495226 
L 202.90665 141.126129 
L 202.765095 140.762527 
L 202.726951 140.665462 
L 202.543761 140.204523 
L 202.320701 139.654508 
L 202.083257 139.081872 
L 201.828972 138.482493 
L 201.716205 138.221067 
L 201.561183 137.865905 
L 201.406161 137.515482 
L 201.33545 137.357173 
L 201.059996 136.749312 
L 200.855552 136.306909 
L 200.748158 136.077387 
L 200.45003 135.4502 
L 200.222329 134.980664 
L 200.11668 134.765495 
L 199.878024 134.285494 
L 199.785655 134.101912 
L 199.565847 133.669829 
L 199.371441 133.293134 
L 199.224498 133.011701 
L 198.87919 132.361115 
L 198.82171 132.254245 
L 198.489052 131.643444 
L 198.426003 131.529127 
L 198.156211 131.044995 
L 198.01149 130.788592 
L 197.832958 130.475373 
L 197.507001 129.91204 
L 197.317219 129.588977 
L 197.103825 129.229913 
L 197.041695 129.126189 
L 196.806843 128.737378 
L 196.56794 128.347039 
L 196.404856 128.083507 
L 196.154993 127.684232 
L 196.042097 127.50557 
L 195.8364 127.182784 
L 195.677681 126.936087 
L 195.435954 126.564246 
L 195.186485 126.185292 
L 195.1021 126.058186 
L 194.831698 125.654494 
L 194.696152 125.454163 
L 194.436161 125.073619 
L 194.218948 124.759354 
L 194.149433 124.65947 
L 193.830097 124.20486 
L 193.678564 123.991524 
L 193.442148 123.661688 
L 193.268894 123.422257 
L 193.058427 123.133949 
L 192.86592 122.872653 
L 192.718867 122.674577 
L 192.413319 122.267161 
L 192.31397 122.135877 
L 192.070591 121.816682 
L 191.877767 121.566192 
L 191.767729 121.424183 
L 191.576776 121.179345 
L 191.282285 120.805658 
L 191.173584 120.668902 
L 190.969039 120.413263 
L 190.647267 120.015525 
L 190.573789 119.925445 
L 190.253733 119.536246 
L 190.196595 119.467302 
L 189.896558 119.107894 
L 189.708222 118.884517 
L 189.502178 118.64207 
L 189.380438 118.499761 
L 189.1933 118.282347 
L 188.945783 117.997252 
L 188.687958 117.70323 
L 188.582268 117.583557 
L 188.460093 117.445832 
L 188.124547 117.070925 
L 188.037794 116.974785 
L 187.715912 116.620857 
L 187.536612 116.425587 
L 187.4245 116.304165 
L 187.252128 116.118482 
L 187.07782 115.931939 
L 186.744145 115.578232 
L 186.673474 115.503883 
L 186.420753 115.239607 
L 186.275403 115.088731 
L 185.990916 114.795762 
L 185.869415 114.671571 
L 185.723279 114.52293 
L 185.508146 114.305549 
L 185.222619 114.019658 
L 185.102442 113.90021 
L 184.866219 113.666927 
L 184.586647 113.393387 
L 184.525216 113.333648 
L 184.265643 113.082672 
L 183.977787 112.807051 
L 183.869287 112.703892 
L 183.77189 112.611627 
L 183.436043 112.295902 
L 183.262839 112.134532 
L 183.009755 111.900496 
L 182.964006 111.858412 
L 182.672797 111.592101 
L 182.490491 111.426753 
L 182.393043 111.3388 
L 182.195479 111.161395 
L 181.851653 110.855535 
L 181.801672 110.811376 
L 181.452475 110.504962 
L 181.408608 110.466729 
L 181.083318 110.185009 
L 180.970846 110.088331 
L 180.680794 109.84072 
L 180.490756 109.679813 
L 180.313163 109.530383 
L 180.150907 109.394646 
L 179.929555 109.210673 
L 179.672583 108.998821 
L 179.524568 108.87763 
L 179.309458 108.702582 
L 179.239435 108.645873 
L 178.98548 108.44133 
L 178.694419 108.209043 
L 178.617736 108.148223 
L 178.399713 107.976155 
L 178.246787 107.856214 
L 177.972379 107.642531 
L 177.84531 107.544246 
L 177.567264 107.33064 
L 177.475762 107.260778 
L 177.273107 107.106811 
L 176.961798 106.872319 
L 176.816242 106.763514 
L 176.678819 106.661274 
L 176.343375 106.41367 
L 176.196815 106.306357 
L 176.08651 106.225936 
L 175.758059 105.988213 
L 175.605019 105.878335 
L 175.452403 105.769318 
L 175.270908 105.640393 
L 175.118045 105.532409 
L 174.824306 105.326451 
L 174.691706 105.234136 
L 174.470278 105.080887 
L 174.23741 104.920938 
L 174.062424 104.801562 
L 173.859286 104.663853 
L 173.782951 104.612345 
L 173.484204 104.412023 
L 173.263731 104.265464 
L 173.175572 104.207163 
L 172.842929 103.988721 
L 172.756873 103.932604 
L 172.564057 103.807456 
L 172.332371 103.658145 
L 172.201352 103.574222 
L 172.021273 103.459475 
L 171.790997 103.31375 
L 171.552477 103.163994 
L 171.358031 103.042797 
L 171.112659 102.890988 
L 170.913062 102.768425 
L 170.689965 102.632406 
L 170.494917 102.514326 
L 170.32249 102.41059 
L 170.116833 102.287653 
L 169.934882 102.179601 
L 169.790983 102.094618 
L 169.598664 101.98169 
L 169.374507 101.850997 
L 169.2 101.749945 
L 169.2 101.749945 
L 169.41894 101.624012 
L 169.652578 101.490665 
L 169.846477 101.380809 
L 169.922678 101.337836 
L 170.099152 101.238749 
L 170.448361 101.044445 
L 170.648583 100.934094 
L 170.835353 100.831846 
L 170.908763 100.791839 
L 171.076063 100.701045 
L 171.305176 100.577562 
L 171.638456 100.399694 
L 171.832538 100.297069 
L 171.844208 100.29092 
L 172.157827 100.12663 
L 172.310271 100.047426 
L 172.455525 99.972355 
L 172.661073 99.866781 
L 172.932861 99.728364 
L 173.118028 99.634828 
L 173.384759 99.501176 
L 173.50208 99.442793 
L 173.676999 99.356204 
L 173.847303 99.272423 
L 174.166196 99.116927 
L 174.299277 99.052565 
L 174.502716 98.954778 
L 174.638473 98.889927 
L 174.813605 98.806741 
L 174.993016 98.722076 
L 175.198556 98.625766 
L 175.407161 98.528765 
L 175.595288 98.441927 
L 175.774099 98.359952 
L 176.082805 98.21971 
L 176.285994 98.128285 
L 176.35183 98.098813 
L 176.655964 97.963609 
L 176.8356 97.88448 
L 177.115212 97.762386 
L 177.156812 97.744333 
L 177.487897 97.601673 
L 177.555352 97.57283 
L 177.854623 97.44577 
L 178.042724 97.366662 
L 178.180693 97.309006 
L 178.309904 97.255292 
L 178.577519 97.144906 
L 178.724818 97.084644 
L 178.972969 96.983915 
L 179.098097 96.933499 
L 179.422075 96.804133 
L 179.521381 96.764816 
L 179.769481 96.667276 
L 179.907736 96.613346 
L 180.094597 96.540939 
L 180.315039 96.456227 
L 180.48153 96.392757 
L 180.791593 96.275712 
L 180.953498 96.215194 
L 181.201091 96.123436 
L 181.41219 96.045956 
L 181.547054 95.996818 
L 181.644171 95.961608 
L 181.834011 95.893201 
L 182.170088 95.773458 
L 182.33629 95.714881 
L 182.411557 95.688492 
L 182.716217 95.582562 
L 182.908544 95.516417 
L 183.16756 95.428222 
L 183.197906 95.417955 
L 183.517121 95.310802 
L 183.666341 95.261239 
L 183.847817 95.201412 
L 184.12931 95.109587 
L 184.31238 95.050503 
L 184.476774 94.997872 
L 184.578049 94.965648 
L 184.78045 94.901703 
L 185.055646 94.815732 
L 185.193278 94.773154 
L 185.351628 94.724513 
L 185.723429 94.611749 
L 185.739345 94.606967 
L 185.963341 94.540059 
L 186.279182 94.44696 
L 186.50177 94.382218 
L 186.697495 94.325883 
L 186.909563 94.265469 
L 187.090247 94.214508 
L 187.11416 94.207798 
L 187.350338 94.141974 
L 187.520116 94.09515 
L 187.695337 94.047257 
L 188.023006 93.958874 
L 188.193098 93.913598 
L 188.355446 93.870767 
L 188.552433 93.819299 
L 188.795052 93.756664 
L 189.015739 93.700413 
L 189.100986 93.678868 
L 189.262632 93.638296 
L 189.488 93.582343 
L 189.651474 93.542202 
L 189.877445 93.487332 
L 190.111611 93.431225 
L 190.416009 93.359433 
L 190.470167 93.346795 
L 190.772906 93.276899 
L 190.902321 93.247408 
L 191.162232 93.18888 
L 191.377557 93.141099 
L 191.549622 93.103377 
L 191.609309 93.090387 
L 191.918492 93.023881 
L 192.183396 92.967943 
L 192.340234 92.935278 
L 192.465838 92.909361 
L 192.666167 92.868471 
L 192.970911 92.807317 
L 193.082325 92.785275 
L 193.274187 92.747712 
L 193.542974 92.69593 
L 193.730299 92.66042 
L 193.802679 92.646827 
L 194.057863 92.599467 
L 194.223783 92.569145 
L 194.488806 92.521481 
L 194.618887 92.498433 
L 194.843298 92.459205 
L 195.101543 92.414899 
L 195.242863 92.391032 
L 195.461609 92.354615 
L 195.71597 92.313074 
L 195.871549 92.288091 
L 195.924373 92.279682 
L 196.190723 92.237847 
L 196.406969 92.204577 
L 196.521842 92.187156 
L 196.823567 92.142233 
L 196.906711 92.130066 
L 197.240621 92.082126 
L 197.316342 92.071459 
L 197.508534 92.044727 
L 197.746275 92.012334 
L 198.054135 91.971494 
L 198.105244 91.964835 
L 198.388585 91.928542 
L 198.605889 91.901423 
L 198.803366 91.877316 
L 198.954397 91.859224 
L 199.111563 91.840715 
L 199.314055 91.817345 
L 199.491096 91.797352 
L 199.670972 91.777459 
L 199.85743 91.757285 
L 200.025343 91.739506 
L 200.371542 91.70401 
L 200.570183 91.684348 
L 200.681124 91.673591 
L 200.851703 91.657364 
L 201.023789 91.641377 
L 201.271077 91.619078 
L 201.425665 91.605541 
L 201.617259 91.589195 
L 201.957709 91.561324 
L 201.993735 91.558462 
L 202.281032 91.536245 
L 202.46097 91.522875 
L 202.58379 91.51399 
L 202.824752 91.497124 
L 203.129373 91.476877 
L 203.32636 91.464423 
L 203.462965 91.45608 
L 203.68464 91.443055 
L 203.77123 91.438139 
L 204.114152 91.419622 
L 204.199037 91.415272 
L 204.460844 91.402441 
L 204.531326 91.399138 
L 204.726159 91.39034 
L 204.952272 91.380742 
L 205.26292 91.368628 
L 205.483009 91.360798 
L 205.570497 91.357858 
L 205.751666 91.352083 
L 205.979681 91.345415 
L 206.216354 91.339201 
L 206.293582 91.337329 
L 206.514056 91.332407 
L 206.855315 91.326019 
L 207.026285 91.323381 
L 207.201309 91.321069 
L 207.364112 91.319272 
L 207.609886 91.317204 
L 207.708197 91.316594 
L 207.894308 91.315779 
L 208.142308 91.315385 
z
" style="fill:#808080;opacity:0.5;"/>
   </g>
   <g id="patch_9">
    <path clip-path="url(#peec8b203df)" d="M 208.142308 169.2 
L 208.135619 170.220703 
L 208.12893 170.643462 
L 208.122242 170.967834 
L 208.115553 171.241275 
L 208.108865 171.482166 
L 208.102176 171.699934 
L 208.095487 171.90018 
L 208.088799 172.086551 
L 208.08211 172.261584 
L 208.075422 172.427124 
L 208.068733 172.584564 
L 208.062044 172.734985 
L 208.055356 172.87925 
L 208.048667 173.018057 
L 208.041978 173.151979 
L 208.03529 173.281499 
L 208.021913 173.528897 
L 208.008535 173.762862 
L 207.995158 173.985365 
L 207.981781 174.197935 
L 207.968404 174.401793 
L 207.955026 174.597923 
L 207.941649 174.787141 
L 207.928272 174.970126 
L 207.907413 175.244357 
L 207.886553 175.506606 
L 207.865694 175.75831 
L 207.844834 176.000641 
L 207.823975 176.234567 
L 207.803115 176.4609 
L 207.782256 176.68033 
L 207.761397 176.893448 
L 207.726866 177.233705 
L 207.692336 177.559982 
L 207.657806 177.873857 
L 207.623275 178.176631 
L 207.588745 178.469392 
L 207.554214 178.753061 
L 207.519684 179.028425 
L 207.485154 179.296163 
L 207.450186 179.560126 
L 207.415218 179.817414 
L 207.380251 180.068501 
L 207.345283 180.313806 
L 207.311088 180.548458 
L 207.276893 180.778254 
L 207.242699 181.003479 
L 207.208504 181.224388 
L 207.167549 181.483619 
L 207.126594 181.737358 
L 207.085638 181.98593 
L 207.044683 182.229633 
L 207.003728 182.468734 
L 206.962773 182.703478 
L 206.921818 182.934088 
L 206.880863 183.16077 
L 206.804432 183.573934 
L 206.728001 183.975153 
L 206.673492 184.254532 
L 206.618982 184.528625 
L 206.564472 184.797712 
L 206.509963 185.062048 
L 206.435569 185.41556 
L 206.361176 185.761193 
L 206.295816 186.05874 
L 206.230455 186.350877 
L 206.165095 186.637876 
L 206.099735 186.919986 
L 206.071368 187.040959 
L 205.998115 187.349428 
L 205.924861 187.652449 
L 205.851607 187.950289 
L 205.778354 188.243188 
L 205.70333 188.53828 
L 205.628306 188.82865 
L 205.496907 189.326447 
L 205.417517 189.620921 
L 205.338127 189.910905 
L 205.258737 190.196584 
L 205.179348 190.478132 
L 205.071485 190.854324 
L 204.963622 191.223564 
L 204.854263 191.59118 
L 204.75378 191.923252 
L 204.653297 192.250103 
L 204.501354 192.734911 
L 204.34941 193.208971 
L 204.254642 193.499479 
L 204.131764 193.870526 
L 204.008885 194.235472 
L 203.824852 194.7712 
L 203.704896 195.113734 
L 203.584939 195.45125 
L 203.447877 195.830999 
L 203.322672 196.172618 
L 203.094396 196.783108 
L 202.858246 197.39881 
L 202.722964 197.744662 
L 202.587682 198.08574 
L 202.559004 198.157446 
L 202.411138 198.523941 
L 202.263273 198.885176 
L 202.102553 199.272068 
L 201.872317 199.816316 
L 201.681335 200.259244 
L 201.495171 200.683884 
L 201.360598 200.986634 
L 201.180826 201.385749 
L 200.884875 202.030084 
L 200.639885 202.552065 
L 200.528473 202.786168 
L 200.29951 203.261078 
L 200.102062 203.664146 
L 199.934738 204.001187 
L 199.689545 204.487833 
L 199.551283 204.758566 
L 199.339683 205.167929 
L 199.134541 205.559222 
L 198.959505 205.888884 
L 198.693534 206.382642 
L 198.535126 206.672729 
L 198.378953 206.955889 
L 198.087028 207.477859 
L 198.05167 207.540447 
L 197.843412 207.906379 
L 197.590987 208.343847 
L 197.289302 208.858248 
L 197.256693 208.913312 
L 197.008358 209.329315 
L 196.84568 209.598679 
L 196.682118 209.867051 
L 196.411598 210.305645 
L 196.189023 210.661705 
L 196.014155 210.938482 
L 195.859621 211.180952 
L 195.582301 211.611187 
L 195.467233 211.787899 
L 195.171875 212.236754 
L 195.11598 212.320945 
L 194.883932 212.667947 
L 194.551173 213.158635 
L 194.539461 213.17576 
L 194.205305 213.660277 
L 194.130833 213.767199 
L 193.785189 214.258523 
L 193.60738 214.508171 
L 193.521337 214.628236 
L 193.224292 215.039074 
L 193.082323 215.233456 
L 192.805122 215.609399 
L 192.648415 215.819857 
L 192.541938 215.962015 
L 192.209566 216.401469 
L 192.177473 216.443561 
L 191.853195 216.865579 
L 191.642603 217.13648 
L 191.472011 217.354133 
L 191.33584 217.526734 
L 191.093468 217.831489 
L 190.850252 218.134191 
L 190.807634 218.186915 
L 190.58101 218.465715 
L 190.409824 218.674583 
L 190.194497 218.935226 
L 190.004556 219.163242 
L 189.834807 219.365533 
L 189.580362 219.666168 
L 189.450965 219.81788 
L 189.075915 220.253207 
L 189.023224 220.313849 
L 188.790103 220.58064 
L 188.526791 220.879062 
L 188.440011 220.976742 
L 188.163188 221.286149 
L 187.99673 221.470612 
L 187.711361 221.784116 
L 187.686711 221.811036 
L 187.402696 222.11939 
L 187.285042 222.246157 
L 187.075589 222.470441 
L 186.720909 222.846235 
L 186.635838 222.93563 
L 186.433333 223.147296 
L 186.280078 223.306428 
L 186.015408 223.579136 
L 185.875772 223.721946 
L 185.593491 224.008418 
L 185.401882 224.201197 
L 185.161364 224.441291 
L 185.123698 224.478701 
L 184.884381 224.715207 
L 184.572045 225.020824 
L 184.444481 225.144663 
L 184.362041 225.224394 
L 184.073793 225.501338 
L 183.781305 225.779468 
L 183.660258 225.893733 
L 183.559911 225.988087 
L 183.31913 226.213131 
L 183.012178 226.497274 
L 182.803127 226.689048 
L 182.611559 226.863558 
L 182.472402 226.989596 
L 182.35843 227.092369 
L 182.121178 227.30501 
L 181.944089 227.462593 
L 181.727475 227.65404 
L 181.591166 227.773781 
L 181.415236 227.927498 
L 181.107171 228.194439 
L 180.871552 228.39671 
L 180.771804 228.481851 
L 180.592608 228.634078 
L 180.340964 228.846284 
L 180.174804 228.98541 
L 180.039421 229.098187 
L 179.737749 229.34763 
L 179.564227 229.489957 
L 179.285595 229.716759 
L 179.096495 229.869471 
L 179.072738 229.888588 
L 178.856764 230.061676 
L 178.495975 230.348028 
L 178.35628 230.457972 
L 178.189232 230.588768 
L 177.947287 230.77691 
L 177.761788 230.920128 
L 177.668392 230.9919 
L 177.394202 231.201312 
L 177.183649 231.360823 
L 176.959132 231.529679 
L 176.826148 231.629098 
L 176.649816 231.760245 
L 176.47674 231.88822 
L 176.147103 232.129924 
L 176.104794 232.160754 
L 175.918178 232.296223 
L 175.657811 232.483826 
L 175.384186 232.679232 
L 175.273965 232.757443 
L 175.059519 232.908788 
L 174.889145 233.02826 
L 174.664668 233.184637 
L 174.510751 233.291186 
L 174.231563 233.483062 
L 174.133566 233.549989 
L 173.805957 233.772145 
L 173.616021 233.899835 
L 173.519345 233.964517 
L 173.376423 234.059759 
L 173.044891 234.278944 
L 172.8499 234.406726 
L 172.665249 234.526966 
L 172.612906 234.560915 
L 172.426896 234.681078 
L 172.161297 234.851361 
L 172.024153 234.938695 
L 171.755533 235.108592 
L 171.452038 235.298708 
L 171.391676 235.336289 
L 171.149214 235.486475 
L 170.925193 235.62415 
L 170.692135 235.766277 
L 170.624999 235.80701 
L 170.455402 235.9095 
L 170.137045 236.100303 
L 170.037788 236.15937 
L 169.812515 236.292692 
L 169.619735 236.405973 
L 169.305668 236.588937 
L 169.2 236.650055 
L 169.2 236.650055 
L 169.329109 236.724432 
L 169.512582 236.829561 
L 169.702063 236.937441 
L 169.996958 237.103944 
L 170.111916 237.168394 
L 170.43384 237.347522 
L 170.579685 237.42802 
L 170.757018 237.52535 
L 170.878159 237.591495 
L 171.236962 237.785777 
L 171.448009 237.898921 
L 171.481279 237.916681 
L 171.686703 238.025883 
L 171.898726 238.13777 
L 172.062921 238.223845 
L 172.336568 238.366193 
L 172.564602 238.483766 
L 172.703902 238.55512 
L 172.827394 238.618082 
L 173.062011 238.736941 
L 173.379377 238.89614 
L 173.507544 238.95992 
L 173.785045 239.097008 
L 173.828599 239.1184 
L 174.158227 239.279209 
L 174.35777 239.375625 
L 174.461587 239.425511 
L 174.58662 239.485341 
L 174.935279 239.650739 
L 175.134563 239.744327 
L 175.303271 239.82302 
L 175.454325 239.893063 
L 175.731972 240.020784 
L 175.83777 240.069106 
L 176.131967 240.202475 
L 176.266833 240.263123 
L 176.375358 240.311702 
L 176.701394 240.456454 
L 176.888096 240.538542 
L 176.986188 240.581437 
L 177.162333 240.658061 
L 177.417112 240.767979 
L 177.634399 240.860874 
L 177.835944 240.946342 
L 178.055897 241.038856 
L 178.153478 241.079645 
L 178.337076 241.155969 
L 178.5498 241.243715 
L 178.729207 241.317147 
L 179.055223 241.449255 
L 179.254275 241.529074 
L 179.457582 241.609943 
L 179.636335 241.6805 
L 179.839828 241.760202 
L 180.036431 241.836582 
L 180.167894 241.887313 
L 180.30372 241.939442 
L 180.635251 242.065459 
L 180.678565 242.081796 
L 181.012217 242.206654 
L 181.067282 242.227093 
L 181.308581 242.316103 
L 181.439943 242.364179 
L 181.809592 242.498031 
L 181.98396 242.56044 
L 182.066358 242.589769 
L 182.314466 242.677452 
L 182.421475 242.714979 
L 182.687437 242.807492 
L 182.816931 242.852146 
L 183.033745 242.926341 
L 183.310665 243.020071 
L 183.490892 243.080451 
L 183.761493 243.170191 
L 183.875655 243.207722 
L 184.027457 243.257324 
L 184.35131 243.361997 
L 184.367217 243.367098 
L 184.716227 243.478073 
L 184.771107 243.495358 
L 184.984617 243.562186 
L 185.24116 243.641593 
L 185.505482 243.722396 
L 185.548712 243.735513 
L 185.9153 243.845653 
L 185.936456 243.851949 
L 186.136096 243.911043 
L 186.48027 244.011559 
L 186.621929 244.052432 
L 186.874039 244.124456 
L 187.052453 244.174871 
L 187.204276 244.217412 
L 187.491785 244.297065 
L 187.521606 244.305259 
L 187.75731 244.369576 
L 188.051214 244.448663 
L 188.16575 244.47915 
L 188.43308 244.549583 
L 188.496266 244.566082 
L 188.789948 244.642027 
L 189.040855 244.705946 
L 189.235241 244.754855 
L 189.266992 244.762794 
L 189.637845 244.854466 
L 189.672606 244.862959 
L 189.847703 244.905487 
L 190.120372 244.970859 
L 190.26834 245.005901 
L 190.485285 245.056726 
L 190.709486 245.108564 
L 190.839706 245.138352 
L 191.042928 245.18437 
L 191.357033 245.254374 
L 191.498455 245.285449 
L 191.709638 245.331338 
L 191.813203 245.353619 
L 192.135668 245.422049 
L 192.304234 245.457254 
L 192.561004 245.510132 
L 192.70768 245.539934 
L 192.871266 245.572826 
L 193.060351 245.610391 
L 193.202545 245.63832 
L 193.448936 245.686065 
L 193.631349 245.720882 
L 193.793759 245.751502 
L 194.108623 245.809849 
L 194.202633 245.827011 
L 194.539703 245.887564 
L 194.734896 245.92193 
L 194.809285 245.934893 
L 195.054709 245.977133 
L 195.162859 245.99549 
L 195.516272 246.054385 
L 195.547631 246.059531 
L 195.806266 246.101465 
L 195.947463 246.123983 
L 196.274136 246.17506 
L 196.325152 246.182908 
L 196.674345 246.2357 
L 196.726334 246.243422 
L 196.969885 246.279117 
L 197.274801 246.322698 
L 197.360365 246.334707 
L 197.641247 246.373448 
L 197.809076 246.396099 
L 198.047447 246.427632 
L 198.202814 246.447782 
L 198.382587 246.470701 
L 198.456115 246.479952 
L 198.838519 246.526922 
L 198.903569 246.534721 
L 199.070417 246.554471 
L 199.245624 246.574817 
L 199.544238 246.608569 
L 199.703762 246.626121 
L 199.938466 246.651341 
L 200.147511 246.673199 
L 200.262336 246.684962 
L 200.541842 246.712878 
L 200.73944 246.731999 
L 200.858563 246.743281 
L 201.017641 246.758059 
L 201.381965 246.790664 
L 201.457812 246.797235 
L 201.706905 246.81829 
L 201.903316 246.834324 
L 202.141678 246.853112 
L 202.231503 246.860001 
L 202.383211 246.871398 
L 202.593925 246.886735 
L 202.913563 246.908903 
L 203.033324 246.916868 
L 203.339212 246.936372 
L 203.414471 246.940986 
L 203.721868 246.95907 
L 203.910333 246.969555 
L 204.070929 246.978128 
L 204.286109 246.989093 
L 204.334178 246.991461 
L 204.547211 247.001598 
L 204.839143 247.014539 
L 204.93718 247.018638 
L 205.26308 247.031378 
L 205.425064 247.037201 
L 205.558083 247.041731 
L 205.785586 247.048951 
L 205.917236 247.052825 
L 206.165767 247.059531 
L 206.38701 247.064833 
L 206.60291 247.069401 
L 206.775604 247.072623 
L 206.981593 247.075966 
L 207.203223 247.078954 
L 207.428837 247.081347 
L 207.545647 247.08233 
L 207.822269 247.083958 
L 207.993982 247.084474 
L 208.142308 247.084615 
z
" style="fill:#808080;opacity:0.5;"/>
   </g>
   <g id="matplotlib.axis_1"/>
   <g id="matplotlib.axis_2"/>
   <g id="line2d_1">
    <path clip-path="url(#peec8b203df)" d="M 52.373077 169.2 
L 52.5342 164.192796 
L 52.910155 160.069188 
L 53.48715 156.0738 
L 54.307146 151.951006 
L 55.364764 147.820977 
L 56.516016 144.13651 
L 58.068367 139.964498 
L 59.743629 136.127653 
L 61.677553 132.28418 
L 63.907127 128.412553 
L 66.141445 124.983259 
L 68.512543 121.728431 
L 70.713025 118.995957 
L 73.615021 115.743278 
L 76.442343 112.897945 
L 79.434243 110.183136 
L 82.781836 107.458148 
L 86.290928 104.912078 
L 89.414049 102.884013 
L 93.204271 100.694108 
L 96.69353 98.918706 
L 100.682296 97.149259 
L 104.443309 95.717819 
L 108.472575 94.424188 
L 112.628397 93.336825 
L 116.88892 92.471327 
L 121.153836 91.849285 
L 125.179093 91.48114 
L 129.123714 91.32364 
L 130.257692 91.315385 
L 130.257692 91.315385 
" style="fill:none;stroke:#0000ff;stroke-linecap:square;"/>
   </g>
   <g id="line2d_2">
    <path clip-path="url(#peec8b203df)" d="M 130.257692 91.315385 
L 134.335081 91.422187 
L 138.63224 91.76693 
L 142.752179 92.324119 
L 146.888002 93.11159 
L 150.854359 94.088146 
L 154.862122 95.303888 
L 158.743841 96.711707 
L 162.64737 98.369766 
L 166.303945 100.158846 
L 169.2 101.749945 
L 169.2 101.749945 
" style="fill:none;stroke:#0000ff;stroke-linecap:square;"/>
   </g>
   <g id="line2d_3">
    <path clip-path="url(#peec8b203df)" d="M 130.257692 247.084615 
L 134.417854 246.97343 
L 138.418306 246.655908 
L 142.499506 246.116522 
L 146.754945 245.31737 
L 150.828114 244.319046 
L 154.8819 243.089524 
L 158.876692 241.635945 
L 162.6288 240.038723 
L 166.362337 238.210636 
L 169.2 236.650055 
L 169.2 236.650055 
" style="fill:none;stroke:#0000ff;stroke-linecap:square;"/>
   </g>
   <g id="line2d_4">
    <path clip-path="url(#peec8b203df)" d="M 208.142308 91.315385 
L 212.133791 91.417731 
L 216.448988 91.75962 
L 220.601195 92.318341 
L 224.872025 93.133385 
L 228.892628 94.130449 
L 232.883584 95.349593 
L 236.679065 96.731615 
L 240.562377 98.383671 
L 244.292575 100.213251 
L 247.71489 102.117781 
L 251.006814 104.171949 
L 254.673728 106.743293 
L 257.752848 109.15995 
L 260.852401 111.861885 
L 263.631675 114.547064 
L 266.589794 117.722776 
L 269.197145 120.84382 
L 271.646414 124.108517 
L 274.093486 127.769874 
L 276.466708 131.812975 
L 278.309882 135.398744 
L 279.984507 139.121573 
L 281.438197 142.861324 
L 282.8215 147.085943 
L 283.85457 150.933456 
L 284.758364 155.200241 
L 285.407429 159.396208 
L 285.829494 163.657942 
L 286.008975 167.528043 
L 286.026923 169.2 
L 286.026923 169.2 
" style="fill:none;stroke:#ff0000;stroke-linecap:square;"/>
   </g>
   <g id="line2d_5">
    <path clip-path="url(#peec8b203df)" d="M 169.2 101.749945 
L 172.932861 99.728364 
L 176.655964 97.963609 
L 180.48153 96.392757 
L 184.476774 94.997872 
L 188.355446 93.870767 
L 192.465838 92.909361 
L 196.521842 92.187156 
L 200.681124 91.673591 
L 204.726159 91.39034 
L 208.142308 91.315385 
L 208.142308 91.315385 
" style="fill:none;stroke:#ff0000;stroke-linecap:square;"/>
   </g>
   <g id="line2d_6">
    <path clip-path="url(#peec8b203df)" d="M 169.2 236.650055 
L 172.827394 238.618082 
L 176.701394 240.456454 
L 180.635251 242.065459 
L 184.367217 243.367098 
L 188.496266 244.566082 
L 192.561004 245.510132 
L 196.726334 246.243422 
L 200.858563 246.743281 
L 204.93718 247.018638 
L 208.142308 247.084615 
L 208.142308 247.084615 
" style="fill:none;stroke:#ff0000;stroke-linecap:square;"/>
   </g>
   <g id="text_1">
    <!-- $\Omega$ -->
    <g transform="translate(17.569231 23.978606)scale(0.1 -0.1)">
     <defs>
      <path d="M 7.71875 0 
L 4.390625 16.609375 
L 7.328125 16.609375 
Q 7.859375 13.71875 8.296875 11.5 
Q 8.734375 9.28125 9.4375 8.375 
Q 10.15625 7.46875 11.71875 7.171875 
Q 13.28125 6.890625 16.890625 6.890625 
L 23 6.890625 
Q 21.53125 12.546875 15.6875 21.65625 
Q 9.859375 30.765625 7.734375 34.890625 
Q 5.609375 39.015625 5.609375 45.515625 
Q 5.609375 53.078125 10.09375 58.765625 
Q 14.59375 64.453125 21.703125 67.484375 
Q 28.8125 70.515625 36.078125 70.515625 
Q 43.3125 70.515625 50.40625 67.484375 
Q 57.515625 64.453125 62 58.71875 
Q 66.5 52.984375 66.5 45.515625 
Q 66.5 40.4375 64.640625 35.9375 
Q 62.796875 31.453125 59.90625 26.953125 
Q 57.03125 22.46875 53.6875 16.9375 
Q 50.34375 11.421875 49.125 6.890625 
L 55.171875 6.890625 
Q 58.84375 6.890625 60.453125 7.171875 
Q 62.0625 7.46875 62.734375 8.375 
Q 63.421875 9.28125 63.84375 11.5 
Q 64.265625 13.71875 64.796875 16.609375 
L 67.671875 16.609375 
L 64.40625 0 
L 46.6875 0 
Q 45.703125 0 45.703125 1.3125 
Q 45.703125 6.390625 46.9375 11.265625 
Q 48.1875 16.15625 50.625 23.09375 
Q 53.078125 30.03125 54.4375 35.328125 
Q 55.8125 40.625 55.8125 45.515625 
Q 55.8125 51.515625 53.46875 56.640625 
Q 51.125 61.765625 46.625 64.84375 
Q 42.140625 67.921875 36.078125 67.921875 
Q 26.953125 67.921875 21.625 61.40625 
Q 16.3125 54.890625 16.3125 45.515625 
Q 16.359375 40.375 17.53125 35.828125 
Q 18.703125 31.296875 21.3125 23.71875 
Q 23.921875 16.15625 25.171875 11.265625 
Q 26.421875 6.390625 26.421875 1.3125 
Q 26.421875 0 25.390625 0 
z
" id="Cmr10-173"/>
     </defs>
     <use transform="translate(0 0.484375)" xlink:href="#Cmr10-173"/>
    </g>
   </g>
   <g id="text_2">
    <!-- $A$ -->
    <g style="fill:#0000ff;" transform="translate(87.565385 94.07476)scale(0.1 -0.1)">
     <defs>
      <path d="M 4.5 0 
Q 3.515625 0 3.515625 1.3125 
Q 3.90625 3.515625 4.78125 3.515625 
Q 8.84375 3.515625 11.796875 5.125 
Q 14.75 6.734375 16.890625 10.109375 
Q 17.09375 10.296875 17.09375 10.296875 
L 52.78125 70.515625 
Q 53.5625 71.578125 54.6875 71.578125 
L 56 71.578125 
Q 56.296875 71.578125 56.59375 71.453125 
Q 56.890625 71.34375 57.109375 71.0625 
Q 57.328125 70.796875 57.328125 70.515625 
L 63.375 5.90625 
Q 63.375 5.46875 63.8125 4.59375 
Q 64.796875 3.515625 71.296875 3.515625 
Q 72.3125 3.515625 72.3125 2.203125 
Q 71.96875 0.875 71.75 0.4375 
Q 71.53125 0 70.609375 0 
L 45.609375 0 
Q 44.671875 0 44.671875 1.3125 
Q 45.21875 3.515625 46 3.515625 
Q 53.90625 3.515625 54.390625 6.203125 
L 52.875 22.703125 
L 28.21875 22.703125 
L 20.21875 9.28125 
Q 19.484375 8.203125 19.484375 6.78125 
Q 19.484375 5.03125 21.171875 4.265625 
Q 22.859375 3.515625 24.90625 3.515625 
Q 25.875 3.515625 25.875 2.203125 
Q 25.53125 0.78125 25.328125 0.390625 
Q 25.140625 0 24.21875 0 
z
M 30.171875 26.21875 
L 52.484375 26.21875 
L 49.515625 58.59375 
z
" id="Cmmi10-65"/>
     </defs>
     <use transform="translate(0 0.421875)" xlink:href="#Cmmi10-65"/>
    </g>
   </g>
   <g id="text_3">
    <!-- $B$ -->
    <g style="fill:#ff0000;" transform="translate(243.284615 94.07476)scale(0.1 -0.1)">
     <defs>
      <path d="M 4.984375 0 
Q 4 0 4 1.3125 
Q 4.046875 1.5625 4.1875 2.140625 
Q 4.34375 2.734375 4.578125 3.125 
Q 4.828125 3.515625 5.328125 3.515625 
Q 8.15625 3.515625 10.25 3.65625 
Q 12.359375 3.8125 13.8125 4.203125 
Q 14.984375 4.640625 15.71875 6.890625 
L 29.390625 61.8125 
Q 29.59375 62.796875 29.59375 63.1875 
Q 29.59375 64.265625 28.421875 64.40625 
Q 26.515625 64.796875 21.1875 64.796875 
Q 20.21875 64.796875 20.21875 66.109375 
Q 20.265625 66.359375 20.40625 66.96875 
Q 20.5625 67.578125 20.828125 67.9375 
Q 21.09375 68.3125 21.484375 68.3125 
L 57.328125 68.3125 
Q 60.59375 68.3125 63.796875 67.5 
Q 67 66.703125 69.703125 64.9375 
Q 72.40625 63.1875 74 60.5625 
Q 75.59375 57.953125 75.59375 54.5 
Q 75.59375 50.734375 73.65625 47.5 
Q 71.734375 44.28125 68.671875 41.890625 
Q 65.625 39.5 62.078125 37.953125 
Q 58.546875 36.421875 54.6875 35.6875 
Q 57.421875 35.6875 60.21875 34.609375 
Q 63.03125 33.546875 65.234375 31.6875 
Q 67.4375 29.828125 68.78125 27.234375 
Q 70.125 24.65625 70.125 21.6875 
Q 70.125 15.671875 65.921875 10.6875 
Q 61.71875 5.71875 55.34375 2.859375 
Q 48.96875 0 43.015625 0 
z
M 23.390625 4.296875 
Q 23.390625 3.515625 26.8125 3.515625 
L 41.109375 3.515625 
Q 46 3.515625 50.484375 6.21875 
Q 54.984375 8.9375 57.6875 13.421875 
Q 60.40625 17.921875 60.40625 22.796875 
Q 60.40625 25.78125 59.15625 28.4375 
Q 57.90625 31.109375 55.5625 32.640625 
Q 53.21875 34.1875 50.203125 34.1875 
L 30.71875 34.1875 
L 23.78125 6.5 
Q 23.390625 5.125 23.390625 4.296875 
z
M 31.390625 36.8125 
L 46.578125 36.8125 
Q 51.375 36.8125 55.890625 39.25 
Q 60.40625 41.703125 63.25 45.890625 
Q 66.109375 50.09375 66.109375 54.78125 
Q 66.109375 59.125 63.390625 61.953125 
Q 60.6875 64.796875 56.390625 64.796875 
L 42.671875 64.796875 
Q 39.984375 64.796875 39.0625 64.296875 
Q 38.140625 63.8125 37.5 61.375 
z
" id="Cmmi10-66"/>
     </defs>
     <use transform="translate(0 0.6875)" xlink:href="#Cmmi10-66"/>
    </g>
   </g>
   <g id="patch_10">
    <path clip-path="url(#peec8b203df)" d="M 130.257692 247.084615 
C 150.912934 247.084615 170.724971 238.878201 185.330432 224.27274 
C 199.935893 209.667278 208.142308 189.855241 208.142308 169.2 
C 208.142308 148.544759 199.935893 128.732722 185.330432 114.12726 
C 170.724971 99.521799 150.912934 91.315385 130.257692 91.315385 
C 109.602451 91.315385 89.790414 99.521799 75.184953 114.12726 
C 60.579491 128.732722 52.373077 148.544759 52.373077 169.2 
C 52.373077 189.855241 60.579491 209.667278 75.184953 224.27274 
C 89.790414 238.878201 109.602451 247.084615 130.257692 247.084615 
z
" style="fill:none;stroke:#0000ff;stroke-linejoin:miter;"/>
   </g>
   <g id="patch_11">
    <path clip-path="url(#peec8b203df)" d="M 208.142308 247.084615 
C 228.797549 247.084615 248.609586 238.878201 263.215047 224.27274 
C 277.820509 209.667278 286.026923 189.855241 286.026923 169.2 
C 286.026923 148.544759 277.820509 128.732722 263.215047 114.12726 
C 248.609586 99.521799 228.797549 91.315385 208.142308 91.315385 
C 187.487066 91.315385 167.675029 99.521799 153.069568 114.12726 
C 138.464107 128.732722 130.257692 148.544759 130.257692 169.2 
C 130.257692 189.855241 138.464107 209.667278 153.069568 224.27274 
C 167.675029 238.878201 187.487066 247.084615 208.142308 247.084615 
z
" style="fill:none;stroke:#ff0000;stroke-linejoin:miter;"/>
   </g>
  </g>
 </g>
 <defs>
  <clipPath id="peec8b203df">
   <rect height="324" width="324" x="7.2" y="7.2"/>
  </clipPath>
 </defs>
</svg>
