<?xml version="1.0" encoding="utf-8" standalone="no"?>
<!DOCTYPE svg PUBLIC "-//W3C//DTD SVG 1.1//EN"
  "http://www.w3.org/Graphics/SVG/1.1/DTD/svg11.dtd">
<!-- Created with matplotlib (https://matplotlib.org/) -->
<svg height="338.4pt" version="1.1" viewBox="0 0 338.4 338.4" width="338.4pt" xmlns="http://www.w3.org/2000/svg" xmlns:xlink="http://www.w3.org/1999/xlink">
 <metadata>
  <rdf:RDF xmlns:cc="http://creativecommons.org/ns#" xmlns:dc="http://purl.org/dc/elements/1.1/" xmlns:rdf="http://www.w3.org/1999/02/22-rdf-syntax-ns#">
   <cc:Work>
    <dc:type rdf:resource="http://purl.org/dc/dcmitype/StillImage"/>
    <dc:date>2024-08-21T15:23:56.024170</dc:date>
    <dc:format>image/svg+xml</dc:format>
    <dc:creator>
     <cc:Agent>
      <dc:title>Matplotlib v3.3.4, https://matplotlib.org/</dc:title>
     </cc:Agent>
    </dc:creator>
   </cc:Work>
  </rdf:RDF>
 </metadata>
 <defs>
  <style type="text/css">*{stroke-linecap:butt;stroke-linejoin:round;}</style>
 </defs>
 <g id="figure_1">
  <g id="patch_1">
   <path d="M -0 338.4 
L 338.4 338.4 
L 338.4 0 
L -0 0 
z
" style="fill:#ffffff;"/>
  </g>
  <g id="axes_1">
   <g id="patch_2">
    <path d="M 7.2 331.2 
L 331.2 331.2 
L 331.2 7.2 
L 7.2 7.2 
z
" style="fill:#ffffff;"/>
   </g>
   <g id="patch_3">
    <path clip-path="url(#p53858ba6a8)" d="M 13.430769 324.969231 
L 13.430769 13.430769 
L 324.969231 13.430769 
L 324.969231 324.969231 
z
" style="fill:none;stroke:#000000;stroke-linejoin:miter;"/>
   </g>
   <g id="patch_4">
    <path clip-path="url(#p53858ba6a8)" d="M 169.2 169.2 
L 169.2 101.749945 
L 169.425354 101.880556 
L 169.686481 102.033163 
L 169.753189 102.072367 
L 169.908902 102.164227 
L 170.17656 102.323268 
L 170.450807 102.487731 
L 170.495118 102.514448 
L 170.756724 102.673 
L 171.020746 102.834446 
L 171.112774 102.891059 
L 171.312781 103.014707 
L 171.456455 103.104045 
L 171.73336 103.277452 
L 171.992527 103.441222 
L 172.178006 103.559307 
L 172.403926 103.704135 
L 172.482674 103.754876 
L 172.799812 103.960585 
L 172.84156 103.987827 
L 173.144737 104.186811 
L 173.298832 104.288725 
L 173.602652 104.491208 
L 173.675167 104.539841 
L 173.873162 104.673229 
L 174.112299 104.835516 
L 174.359537 105.004668 
L 174.508014 105.106924 
L 174.672077 105.220505 
L 174.835237 105.334079 
L 175.128477 105.539761 
L 175.275877 105.643912 
L 175.5013 105.804186 
L 175.560473 105.846457 
L 175.796366 106.015805 
L 175.989424 106.155396 
L 176.305149 106.38563 
L 176.458094 106.498037 
L 176.61373 106.613012 
L 176.913614 106.836242 
L 177.028929 106.922679 
L 177.197034 107.049284 
L 177.506888 107.284518 
L 177.535249 107.306172 
L 177.90622 107.591306 
L 178.074191 107.721583 
L 178.266997 107.872029 
L 178.375211 107.956897 
L 178.58281 108.120574 
L 178.798664 108.291976 
L 178.947319 108.410745 
L 179.216163 108.627057 
L 179.453098 108.819329 
L 179.553269 108.901083 
L 179.80107 109.104518 
L 180.024391 109.289325 
L 180.061563 109.320222 
L 180.433458 109.631503 
L 180.591954 109.765369 
L 180.711602 109.866904 
L 180.97145 110.08885 
L 181.081111 110.183109 
L 181.252661 110.331278 
L 181.503291 110.549322 
L 181.803326 110.812836 
L 181.885931 110.885866 
L 182.171719 111.140142 
L 182.290561 111.246624 
L 182.429082 111.371292 
L 182.610257 111.53526 
L 182.831909 111.737273 
L 183.095654 111.979696 
L 183.201253 112.077389 
L 183.553449 112.405848 
L 183.726907 112.569122 
L 183.87612 112.710376 
L 184.127483 112.950031 
L 184.205059 113.024428 
L 184.538326 113.346387 
L 184.689467 113.49367 
L 184.868887 113.669551 
L 184.997514 113.796343 
L 185.248479 114.045429 
L 185.423698 114.220685 
L 185.691393 114.490603 
L 185.821408 114.622653 
L 186.06754 114.874369 
L 186.238172 115.050215 
L 186.402315 115.220424 
L 186.538592 115.362526 
L 186.837636 115.67689 
L 186.952413 115.798484 
L 187.204922 116.067841 
L 187.490136 116.375189 
L 187.649811 116.548712 
L 187.726938 116.632908 
L 187.981258 116.912303 
L 188.194427 117.148601 
L 188.312492 117.280317 
L 188.581008 117.582134 
L 188.79721 117.827457 
L 188.92956 117.978664 
L 189.108565 118.184433 
L 189.363098 118.479547 
L 189.614688 118.774209 
L 189.724103 118.903287 
L 189.997908 119.228809 
L 190.159238 119.422313 
L 190.4251 119.743996 
L 190.620833 119.983086 
L 190.634871 120.000309 
L 190.960452 120.40258 
L 191.101959 120.579135 
L 191.245789 120.759672 
L 191.427722 120.989619 
L 191.76787 121.424364 
L 191.843345 121.521695 
L 192.175923 121.954408 
L 192.242776 122.042151 
L 192.41378 122.267772 
L 192.765939 122.737839 
L 192.970119 123.013803 
L 193.134559 123.237919 
L 193.199355 123.326692 
L 193.475972 123.708655 
L 193.642355 123.94077 
L 193.945103 124.367791 
L 193.980596 124.418253 
L 194.198959 124.730598 
L 194.527226 125.20636 
L 194.708025 125.471657 
L 194.780997 125.579403 
L 194.981878 125.87803 
L 195.244193 126.272526 
L 195.507667 126.674077 
L 195.540222 126.72407 
L 195.863578 127.225232 
L 196.085736 127.574503 
L 196.295406 127.907947 
L 196.337773 127.975781 
L 196.5528 128.322475 
L 196.887269 128.869951 
L 196.896559 128.885303 
L 197.266859 129.503843 
L 197.36676 129.672967 
L 197.520172 129.934594 
L 197.769405 130.364681 
L 198.02916 130.819778 
L 198.20381 131.129823 
L 198.344729 131.382429 
L 198.514318 131.689384 
L 198.676297 131.98565 
L 198.991905 132.571852 
L 199.187754 132.941761 
L 199.358672 133.268566 
L 199.517582 133.575837 
L 199.800678 134.131688 
L 199.905994 134.341323 
L 200.06331 134.657432 
L 200.274197 135.086918 
L 200.468076 135.487758 
L 200.764434 136.112047 
L 200.814084 136.218051 
L 200.971746 136.557452 
L 201.129408 136.901189 
L 201.379297 137.455227 
L 201.552514 137.846184 
L 201.755489 138.31184 
L 201.857639 138.549372 
L 202.06607 139.040917 
L 202.231998 139.439074 
L 202.412392 139.879143 
L 202.54109 140.197866 
L 202.669787 140.520707 
L 202.77708 140.793104 
L 202.902263 141.114779 
L 203.027446 141.440746 
L 203.225771 141.966329 
L 203.379688 142.382337 
L 203.533606 142.805799 
L 203.728358 143.352862 
L 203.861276 143.733832 
L 203.939623 143.961411 
L 204.067901 144.33906 
L 204.196179 144.723206 
L 204.335016 145.146655 
L 204.473853 145.578509 
L 204.570757 145.885161 
L 204.729433 146.397079 
L 204.888108 146.921887 
L 204.932563 147.071354 
L 205.019778 147.367826 
L 205.106993 147.668733 
L 205.194208 147.974264 
L 205.281423 148.284621 
L 205.36584 148.58982 
L 205.450256 148.899957 
L 205.546735 149.260758 
L 205.643214 149.628684 
L 205.758879 150.079747 
L 205.874545 150.542429 
L 205.924972 150.748007 
L 206.03453 151.203218 
L 206.144088 151.670931 
L 206.220454 152.004881 
L 206.296821 152.345793 
L 206.373187 152.694097 
L 206.449553 153.050273 
L 206.493791 153.260409 
L 206.549612 153.529765 
L 206.605434 153.804036 
L 206.661255 154.083488 
L 206.717076 154.368415 
L 206.763363 154.609056 
L 206.80965 154.853882 
L 206.855937 155.103111 
L 206.902223 155.356981 
L 206.9753 155.767875 
L 207.048377 156.192153 
L 207.121454 156.631169 
L 207.157992 156.856693 
L 207.19453 157.086525 
L 207.254487 157.473663 
L 207.314443 157.874344 
L 207.344421 158.080219 
L 207.374399 158.29006 
L 207.404378 158.504101 
L 207.434356 158.7226 
L 207.460864 158.919751 
L 207.487373 159.120827 
L 207.513882 159.326068 
L 207.54039 159.535739 
L 207.566899 159.750136 
L 207.593407 159.969587 
L 207.619916 160.194463 
L 207.646424 160.425179 
L 207.673665 160.668855 
L 207.699663 160.90817 
L 207.725661 161.154685 
L 207.751659 161.409083 
L 207.777657 161.672162 
L 207.803655 161.944868 
L 207.829653 162.22833 
L 207.855651 162.523918 
L 207.881649 162.83332 
L 207.89794 163.035166 
L 207.914232 163.243892 
L 207.930523 163.460251 
L 207.946814 163.685138 
L 207.963105 163.919646 
L 207.979396 164.165116 
L 207.995687 164.42324 
L 208.003833 164.557702 
L 208.011979 164.696191 
L 208.020124 164.839092 
L 208.02827 164.986852 
L 208.036415 165.140003 
L 208.044561 165.299179 
L 208.052706 165.465151 
L 208.060852 165.638868 
L 208.068998 165.821525 
L 208.077143 166.01466 
L 208.085289 166.220309 
L 208.093434 166.44127 
L 208.10158 166.68157 
L 208.109725 166.947389 
L 208.117871 167.24913 
L 208.126017 167.60708 
L 208.134162 168.073606 
L 208.142308 169.2 
L 208.142308 169.2 
z
" style="fill:#808080;opacity:0.5;"/>
   </g>
   <g id="patch_5">
    <path clip-path="url(#p53858ba6a8)" d="M 169.2 169.2 
L 169.2 236.650055 
L 169.363637 236.555315 
L 169.674174 236.374059 
L 169.756152 236.325889 
L 169.959256 236.205964 
L 170.22006 236.050748 
L 170.370289 235.960713 
L 170.562045 235.845123 
L 170.842871 235.674481 
L 170.995094 235.581303 
L 171.135799 235.494749 
L 171.400322 235.330911 
L 171.530671 235.249637 
L 171.839202 235.055838 
L 171.87614 235.0325 
L 172.183406 234.837244 
L 172.382718 234.709507 
L 172.580768 234.58173 
L 172.797392 234.440994 
L 172.921352 234.359999 
L 173.019612 234.295557 
L 173.276356 234.126173 
L 173.579653 233.924192 
L 173.698996 233.844153 
L 173.868553 233.729885 
L 174.112113 233.564611 
L 174.28746 233.444789 
L 174.551448 233.263066 
L 174.626542 233.211081 
L 174.884279 233.031662 
L 175.02276 232.934622 
L 175.241094 232.780712 
L 175.365843 232.692268 
L 175.699217 232.4541 
L 175.756835 232.412667 
L 176.137381 232.137012 
L 176.298985 232.018888 
L 176.372682 231.964807 
L 176.631563 231.773776 
L 176.780242 231.663315 
L 177.018475 231.485171 
L 177.315563 231.261019 
L 177.344594 231.238996 
L 177.635053 231.017465 
L 177.901578 230.812284 
L 178.046694 230.699793 
L 178.13272 230.63285 
L 178.330351 230.478323 
L 178.669632 230.210634 
L 178.711977 230.177009 
L 178.941466 229.993943 
L 179.210109 229.777836 
L 179.452652 229.581034 
L 179.627497 229.438158 
L 179.700454 229.37829 
L 180.052474 229.087336 
L 180.179786 228.98125 
L 180.412399 228.786229 
L 180.599298 228.628411 
L 180.649439 228.5859 
L 181.02062 228.26893 
L 181.082777 228.215457 
L 181.279037 228.045863 
L 181.567943 227.794125 
L 181.79296 227.596314 
L 181.827117 227.566152 
L 182.199441 227.235059 
L 182.360962 227.090091 
L 182.536695 226.93144 
L 182.688547 226.793566 
L 182.96396 226.541631 
L 183.140426 226.378928 
L 183.372555 226.163362 
L 183.567211 225.981234 
L 183.642502 225.910452 
L 183.892942 225.673652 
L 184.16754 225.411579 
L 184.203664 225.376912 
L 184.407447 225.180509 
L 184.673358 224.922066 
L 184.922558 224.677615 
L 185.145198 224.457353 
L 185.303533 224.299625 
L 185.494601 224.10808 
L 185.628249 223.973304 
L 185.755397 223.844469 
L 185.989003 223.606198 
L 186.218948 223.369652 
L 186.474 223.104917 
L 186.535975 223.04021 
L 186.828614 222.732646 
L 187.037137 222.511424 
L 187.277472 222.254294 
L 187.366776 222.158152 
L 187.585196 221.921633 
L 187.792067 221.6958 
L 187.957062 221.514396 
L 188.181031 221.266305 
L 188.386283 221.037055 
L 188.528309 220.87735 
L 188.817822 220.549047 
L 188.989653 220.35242 
L 189.194629 220.116115 
L 189.262213 220.03778 
L 189.590171 219.654636 
L 189.697544 219.528097 
L 189.847529 219.350421 
L 190.154235 218.983707 
L 190.262576 218.853069 
L 190.603245 218.438477 
L 190.671159 218.355125 
L 190.917825 218.050401 
L 191.205686 217.690777 
L 191.385621 217.46375 
L 191.442444 217.391695 
L 191.678566 217.090391 
L 191.946804 216.744366 
L 192.149559 216.480124 
L 192.360875 216.202212 
L 192.508912 216.005972 
L 192.681792 215.775156 
L 192.790019 215.629747 
L 192.984076 215.367241 
L 193.3618 214.849588 
L 193.54109 214.600715 
L 193.674926 214.413579 
L 193.771895 214.27726 
L 194.1258 213.774412 
L 194.310245 213.508959 
L 194.365808 213.42853 
L 194.685795 212.961089 
L 194.799383 212.793389 
L 195.095025 212.352447 
L 195.192072 212.206275 
L 195.349861 211.967077 
L 195.585973 211.605531 
L 195.907937 211.105354 
L 195.977524 210.996137 
L 196.175505 210.683193 
L 196.418575 210.294414 
L 196.647423 209.923667 
L 196.859534 209.575834 
L 196.9281 209.462514 
L 197.237258 208.946082 
L 197.349524 208.756282 
L 197.545022 208.422806 
L 197.790058 207.999392 
L 198.047002 207.5487 
L 198.201496 207.274307 
L 198.399708 206.918417 
L 198.495377 206.745061 
L 198.76907 206.243279 
L 198.952778 205.901478 
L 199.209259 205.417327 
L 199.254391 205.331274 
L 199.565956 204.729958 
L 199.796563 204.27647 
L 199.989839 203.890647 
L 200.129926 203.607619 
L 200.351322 203.154328 
L 200.495689 202.854674 
L 200.751896 202.314657 
L 200.874908 202.051517 
L 201.146716 201.460806 
L 201.3042 201.112491 
L 201.444622 200.798013 
L 201.71924 200.171931 
L 201.897802 199.756636 
L 202.106942 199.261581 
L 202.216277 198.998915 
L 202.376862 198.60814 
L 202.537446 198.211213 
L 202.617284 198.011505 
L 202.813518 197.513698 
L 202.936799 197.195728 
L 203.06008 196.873555 
L 203.239274 196.397464 
L 203.359998 196.071289 
L 203.526836 195.612987 
L 203.693674 195.145519 
L 203.837817 194.733871 
L 203.977713 194.327113 
L 204.11761 193.91287 
L 204.216252 193.616077 
L 204.314894 193.315228 
L 204.463094 192.855267 
L 204.578459 192.490277 
L 204.678634 192.168167 
L 204.77881 191.841031 
L 204.919199 191.373695 
L 205.082313 190.816878 
L 205.16387 190.532553 
L 205.245427 190.244071 
L 205.3388 189.908468 
L 205.432172 189.566908 
L 205.512354 189.268614 
L 205.592535 188.965493 
L 205.701295 188.546219 
L 205.810054 188.117029 
L 205.931937 187.623408 
L 206.032256 187.206354 
L 206.132575 186.778837 
L 206.20389 186.468134 
L 206.275204 186.151436 
L 206.346519 185.828403 
L 206.417834 185.498656 
L 206.492794 185.144359 
L 206.567754 184.781648 
L 206.623537 184.505918 
L 206.679319 184.224922 
L 206.735101 183.938359 
L 206.790884 183.645896 
L 206.837097 183.398876 
L 206.88331 183.147329 
L 206.929523 182.891005 
L 206.975737 182.629631 
L 207.037713 182.270644 
L 207.099689 181.901213 
L 207.161666 181.520398 
L 207.223642 181.127109 
L 207.27971 180.759502 
L 207.335778 180.379534 
L 207.391847 179.985896 
L 207.419881 179.783478 
L 207.447915 179.577035 
L 207.474061 179.380655 
L 207.500207 179.180343 
L 207.526353 178.975858 
L 207.552499 178.766931 
L 207.584481 178.504897 
L 207.616463 178.235152 
L 207.648444 177.956986 
L 207.680426 177.669569 
L 207.712408 177.371924 
L 207.74439 177.06289 
L 207.776372 176.741066 
L 207.808353 176.40474 
L 207.836411 176.096066 
L 207.864469 175.772792 
L 207.878497 175.604994 
L 207.892526 175.432647 
L 207.906555 175.255366 
L 207.920584 175.072701 
L 207.934441 174.886471 
L 207.948299 174.693898 
L 207.962157 174.494288 
L 207.976015 174.286814 
L 207.989872 174.070471 
L 208.00373 173.844018 
L 208.017588 173.605899 
L 208.031446 173.354106 
L 208.038375 173.222286 
L 208.045303 173.085983 
L 208.052232 172.944711 
L 208.059161 172.797882 
L 208.06609 172.644786 
L 208.073019 172.484548 
L 208.079948 172.316065 
L 208.086877 172.13792 
L 208.093806 171.948233 
L 208.100734 171.744426 
L 208.107663 171.522784 
L 208.114592 171.277608 
L 208.121521 170.999301 
L 208.12845 170.669156 
L 208.135379 170.238873 
L 208.142308 169.2 
L 208.142308 169.2 
z
" style="fill:#808080;opacity:0.5;"/>
   </g>
   <g id="patch_6">
    <path clip-path="url(#p53858ba6a8)" d="M 130.257692 169.2 
L 130.257692 169.2 
L 130.261732 168.406703 
L 130.265773 168.078124 
L 130.269813 167.826006 
L 130.273853 167.613469 
L 130.277893 167.426227 
L 130.281933 167.256954 
L 130.285974 167.101298 
L 130.290014 166.956422 
L 130.294054 166.820357 
L 130.298094 166.691669 
L 130.302134 166.569274 
L 130.306174 166.452332 
L 130.310215 166.340174 
L 130.314255 166.232257 
L 130.322335 166.027431 
L 130.330416 165.83507 
L 130.338496 165.653144 
L 130.346576 165.480123 
L 130.354657 165.314816 
L 130.362737 165.156277 
L 130.370817 165.003739 
L 130.378898 164.85657 
L 130.386978 164.714242 
L 130.395203 164.573882 
L 130.403427 164.437671 
L 130.419876 164.176357 
L 130.436326 163.928031 
L 130.452775 163.690937 
L 130.469224 163.46368 
L 130.485673 163.245136 
L 130.502122 163.034377 
L 130.518571 162.83063 
L 130.535021 162.633244 
L 130.55147 162.441659 
L 130.567919 162.255397 
L 130.584368 162.07404 
L 130.600817 161.897223 
L 130.617266 161.724622 
L 130.650165 161.390962 
L 130.671784 161.17932 
L 130.693404 160.973177 
L 130.715024 160.772131 
L 130.736643 160.575824 
L 130.758263 160.38394 
L 130.779882 160.196197 
L 130.823122 159.832141 
L 130.868685 159.46344 
L 130.914249 159.108406 
L 130.959813 158.765645 
L 131.005376 158.433983 
L 131.034792 158.225288 
L 131.064207 158.020566 
L 131.123038 157.622201 
L 131.181869 157.237383 
L 131.2407 156.864845 
L 131.300697 156.496451 
L 131.360694 156.138718 
L 131.420691 155.790794 
L 131.480688 155.451934 
L 131.53487 155.153157 
L 131.589052 154.860809 
L 131.643235 154.574505 
L 131.697417 154.293895 
L 131.726437 154.145828 
L 131.79971 153.778552 
L 131.872982 153.420162 
L 131.946254 153.070066 
L 132.019527 152.727734 
L 132.097304 152.372321 
L 132.175082 152.024614 
L 132.266323 151.625919 
L 132.357565 151.236535 
L 132.430142 150.933053 
L 132.50272 150.634816 
L 132.575297 150.341573 
L 132.647875 150.053096 
L 132.717398 149.781031 
L 132.786922 149.51297 
L 132.912564 149.038178 
L 133.003756 148.700944 
L 133.094947 148.369568 
L 133.186138 148.043774 
L 133.277329 147.72331 
L 133.381763 147.362549 
L 133.497122 146.971423 
L 133.587365 146.670601 
L 133.677607 146.3741 
L 133.76785 146.081753 
L 133.858092 145.793405 
L 133.958119 145.478292 
L 134.058145 145.167727 
L 134.206591 144.714839 
L 134.285789 144.476975 
L 134.450662 143.989789 
L 134.615536 143.5129 
L 134.764848 143.089433 
L 134.904358 142.700641 
L 135.105662 142.150755 
L 135.256228 141.74763 
L 135.406793 141.351153 
L 135.497011 141.116657 
L 135.716891 140.554367 
L 135.937056 140.003855 
L 136.190989 139.383544 
L 136.25575 139.227743 
L 136.430473 138.812073 
L 136.584889 138.450217 
L 136.739305 138.093337 
L 136.867731 137.800192 
L 137.039439 137.413283 
L 137.210159 137.034125 
L 137.380878 136.660279 
L 137.516208 136.367586 
L 137.654763 136.071171 
L 137.926502 135.499051 
L 138.022945 135.298846 
L 138.20647 134.921845 
L 138.508571 134.312237 
L 138.755735 133.823217 
L 138.803258 133.73016 
L 139.039151 133.272753 
L 139.222816 132.921674 
L 139.47985 132.437517 
L 139.645788 132.129255 
L 139.857189 131.741278 
L 140.093839 131.313072 
L 140.206731 131.111015 
L 140.369661 130.82186 
L 140.583791 130.446159 
L 140.909863 129.883189 
L 141.017046 129.700473 
L 141.139702 129.49277 
L 141.358146 129.126455 
L 141.676042 128.601369 
L 141.817451 128.370762 
L 142.028748 128.029495 
L 142.259789 127.660777 
L 142.405396 127.430731 
L 142.631651 127.076762 
L 142.787208 126.835814 
L 142.969263 126.556271 
L 143.259906 126.115348 
L 143.324794 126.017791 
L 143.490443 125.770176 
L 143.802481 125.309226 
L 144.014831 124.999547 
L 144.11865 124.8493 
L 144.320311 124.559592 
L 144.596082 124.167894 
L 144.809029 123.868894 
L 144.89439 123.749871 
L 145.135641 123.416015 
L 145.323692 123.158336 
L 145.574984 122.817425 
L 145.730522 122.608345 
L 145.982377 122.272862 
L 146.08983 122.130867 
L 146.371595 121.761699 
L 146.587547 121.481819 
L 146.736446 121.290362 
L 146.937964 121.03319 
L 147.008382 120.943846 
L 147.226011 120.669411 
L 147.425328 120.420274 
L 147.667202 120.120729 
L 147.889609 119.847942 
L 148.065528 119.633944 
L 148.213359 119.455308 
L 148.472945 119.144226 
L 148.635702 118.950849 
L 148.861921 118.68417 
L 149.039954 118.47599 
L 149.164704 118.330996 
L 149.492173 117.953781 
L 149.571764 117.862833 
L 149.736887 117.675053 
L 150.065646 117.304772 
L 150.198841 117.156095 
L 150.401265 116.931603 
L 150.669744 116.636536 
L 150.800953 116.493432 
L 150.978258 116.301184 
L 151.243669 116.015808 
L 151.461374 115.78385 
L 151.500619 115.742237 
L 151.707661 115.523711 
L 151.964998 115.254442 
L 152.268608 114.940043 
L 152.394506 114.8107 
L 152.640488 114.55971 
L 152.810266 114.387789 
L 152.892458 114.304942 
L 153.191395 114.005702 
L 153.440842 113.758473 
L 153.471231 113.728505 
L 153.728851 113.475777 
L 153.96079 113.250233 
L 154.2165 113.003732 
L 154.26136 112.960719 
L 154.505525 112.727804 
L 154.7304 112.515068 
L 154.975285 112.285318 
L 155.128301 112.142762 
L 155.22735 112.050892 
L 155.475389 111.822225 
L 155.603065 111.705293 
L 155.798743 111.52709 
L 156.14938 111.210787 
L 156.377446 111.00711 
L 156.564328 110.841407 
L 156.700633 110.721223 
L 156.891787 110.553624 
L 157.087429 110.383228 
L 157.235264 110.255227 
L 157.501008 110.026762 
L 157.717372 109.842278 
L 157.917342 109.67298 
L 158.086781 109.53043 
L 158.293632 109.357517 
L 158.384321 109.282089 
L 158.644765 109.06676 
L 158.898757 108.858588 
L 159.088705 108.704071 
L 159.206017 108.609136 
L 159.395933 108.456241 
L 159.571187 108.316015 
L 159.745082 108.177693 
L 160.033939 107.949708 
L 160.223125 107.801586 
L 160.428096 107.642163 
L 160.550303 107.547632 
L 160.782499 107.369086 
L 161.029573 107.18062 
L 161.140237 107.09671 
L 161.279991 106.991185 
L 161.550036 106.788675 
L 161.702111 106.675434 
L 161.924258 106.511044 
L 162.22595 106.289735 
L 162.381364 106.176597 
L 162.558011 106.048712 
L 162.654468 105.979199 
L 162.910657 105.795654 
L 163.184433 105.601236 
L 163.400764 105.448862 
L 163.449013 105.415027 
L 163.766639 105.193646 
L 164.010675 105.025143 
L 164.081749 104.976325 
L 164.286402 104.836401 
L 164.492568 104.696407 
L 164.696377 104.558957 
L 164.873282 104.440408 
L 165.071807 104.308203 
L 165.279732 104.170677 
L 165.465521 104.048598 
L 165.734764 103.873026 
L 165.869805 103.785561 
L 166.032627 103.680628 
L 166.290825 103.5154 
L 166.517314 103.371638 
L 166.672683 103.273651 
L 166.914207 103.122341 
L 166.970807 103.08706 
L 167.225397 102.929194 
L 167.407776 102.816936 
L 167.629365 102.68147 
L 167.845203 102.550494 
L 168.062536 102.419575 
L 168.199341 102.337658 
L 168.428304 102.201409 
L 168.677075 102.05457 
L 168.853669 101.951088 
L 169.095433 101.810424 
L 169.2 101.749945 
L 169.2 169.2 
z
" style="fill:#808080;opacity:0.5;"/>
   </g>
   <g id="patch_7">
    <path clip-path="url(#p53858ba6a8)" d="M 130.257692 169.2 
L 130.257692 169.2 
L 130.261396 169.959576 
L 130.2651 170.27419 
L 130.268804 170.515594 
L 130.272508 170.719099 
L 130.276212 170.898384 
L 130.279916 171.060464 
L 130.28362 171.209507 
L 130.287324 171.348228 
L 130.291028 171.478512 
L 130.294732 171.601734 
L 130.298436 171.71893 
L 130.30214 171.830906 
L 130.305844 171.938301 
L 130.309548 172.041635 
L 130.316956 172.237764 
L 130.324364 172.421958 
L 130.331772 172.596162 
L 130.33918 172.76184 
L 130.346588 172.920132 
L 130.353996 173.071944 
L 130.361404 173.21801 
L 130.368812 173.358937 
L 130.37622 173.495229 
L 130.390101 173.739568 
L 130.403982 173.971371 
L 130.417862 174.192384 
L 130.431743 174.403982 
L 130.445623 174.60727 
L 130.459504 174.803154 
L 130.473385 174.992383 
L 130.487265 175.175592 
L 130.501146 175.353316 
L 130.515026 175.526019 
L 130.528907 175.694101 
L 130.542788 175.857912 
L 130.570549 176.173918 
L 130.59831 176.476107 
L 130.615533 176.657382 
L 130.632756 176.834316 
L 130.667203 177.176305 
L 130.701649 177.50408 
L 130.736096 177.819261 
L 130.770542 178.123184 
L 130.804989 178.416962 
L 130.839435 178.701537 
L 130.873882 178.977711 
L 130.906483 179.231984 
L 130.939085 179.479867 
L 130.971686 179.72181 
L 131.004288 179.958215 
L 131.036889 180.189439 
L 131.069491 180.415802 
L 131.102092 180.637593 
L 131.134694 180.855074 
L 131.187736 181.200298 
L 131.240777 181.535637 
L 131.284888 181.807552 
L 131.328999 182.073574 
L 131.37311 182.33406 
L 131.41722 182.589335 
L 131.489088 182.994828 
L 131.560956 183.388373 
L 131.625152 183.730596 
L 131.689348 184.064666 
L 131.753544 184.391119 
L 131.81774 184.710438 
L 131.905817 185.137716 
L 131.993894 185.55336 
L 132.072881 185.916926 
L 132.151868 186.272386 
L 132.230855 186.620236 
L 132.309842 186.960923 
L 132.406082 187.366931 
L 132.479682 187.671067 
L 132.553281 187.969987 
L 132.622651 188.247173 
L 132.692021 188.520134 
L 132.830761 189.054074 
L 132.94868 189.496099 
L 133.066599 189.92803 
L 133.119417 190.118393 
L 133.243671 190.559014 
L 133.367924 190.990018 
L 133.512483 191.480094 
L 133.657042 191.958701 
L 133.748945 192.257341 
L 133.86898 192.641119 
L 133.989014 193.01811 
L 134.092798 193.338838 
L 134.196583 193.654919 
L 134.296226 193.954182 
L 134.39587 194.249475 
L 134.53876 194.666272 
L 134.682865 195.079017 
L 134.888424 195.65528 
L 135.089923 196.206709 
L 135.252292 196.641919 
L 135.477833 197.233685 
L 135.638299 197.646124 
L 135.798764 198.051776 
L 135.979999 198.502126 
L 136.127613 198.863059 
L 136.32392 199.335236 
L 136.462216 199.662728 
L 136.72267 200.268452 
L 136.958421 200.804867 
L 137.181606 201.302838 
L 137.317904 201.602425 
L 137.518327 202.036971 
L 137.767372 202.567375 
L 137.91562 202.878267 
L 137.994848 203.042979 
L 138.228265 203.522588 
L 138.521813 204.114181 
L 138.676834 204.421602 
L 138.83087 204.723766 
L 139.001417 205.054575 
L 139.213939 205.461457 
L 139.403451 205.819433 
L 139.573565 206.136985 
L 139.877811 206.69629 
L 139.97317 206.869377 
L 140.22528 207.32205 
L 140.390129 207.614263 
L 140.534848 207.868394 
L 140.856209 208.424918 
L 141.01659 208.698751 
L 141.125055 208.882504 
L 141.471182 209.461326 
L 141.514541 209.533039 
L 141.732026 209.890143 
L 141.966483 210.270349 
L 142.185618 210.621352 
L 142.326719 210.845188 
L 142.546372 211.190314 
L 142.779271 211.551938 
L 142.954755 211.821547 
L 143.184216 212.170451 
L 143.4656 212.592819 
L 143.476456 212.608995 
L 143.729266 212.983255 
L 144.03656 213.431962 
L 144.23996 213.72531 
L 144.348161 213.880198 
L 144.504675 214.10284 
L 144.677388 214.346619 
L 144.949306 214.726453 
L 145.153714 215.008846 
L 145.329017 215.248929 
L 145.491579 215.469855 
L 145.681721 215.726213 
L 145.844013 215.943297 
L 146.1078 216.292815 
L 146.374225 216.641725 
L 146.489504 216.791439 
L 146.616184 216.955098 
L 146.988342 217.430756 
L 147.008759 217.456633 
L 147.19201 217.68788 
L 147.446407 218.005953 
L 147.695739 218.314414 
L 147.924209 218.59427 
L 148.061945 218.761713 
L 148.185255 218.910815 
L 148.375638 219.139548 
L 148.707756 219.534356 
L 148.939143 219.80631 
L 149.040699 219.924877 
L 149.175089 220.081042 
L 149.425226 220.369499 
L 149.655212 220.632217 
L 149.782187 220.77625 
L 149.928857 220.941739 
L 150.258754 221.310532 
L 150.485031 221.560785 
L 150.521763 221.601203 
L 150.712828 221.810533 
L 150.963679 222.083058 
L 151.163368 222.298152 
L 151.386868 222.536979 
L 151.530523 222.689431 
L 151.80091 222.97416 
L 152.046705 223.230516 
L 152.180557 223.369141 
L 152.361157 223.555097 
L 152.659613 223.85971 
L 152.74449 223.945731 
L 152.971249 224.174245 
L 153.122399 224.32552 
L 153.321235 224.523262 
L 153.527404 224.726801 
L 153.764398 224.958912 
L 154.01012 225.197496 
L 154.100677 225.284896 
L 154.354896 225.528746 
L 154.496625 225.663741 
L 154.762788 225.915432 
L 154.841275 225.9892 
L 155.035765 226.171119 
L 155.341132 226.45425 
L 155.599315 226.69128 
L 155.654965 226.74209 
L 155.918155 226.981063 
L 156.052026 227.101777 
L 156.190182 227.22577 
L 156.55501 227.550356 
L 156.663801 227.646357 
L 156.967003 227.912021 
L 157.122682 228.047354 
L 157.349824 228.243517 
L 157.511331 228.382071 
L 157.616368 228.47177 
L 157.903762 228.715559 
L 158.049074 228.837918 
L 158.282413 229.033136 
L 158.51497 229.226167 
L 158.621521 229.3141 
L 158.751937 229.421297 
L 159.036888 229.653875 
L 159.152396 229.747518 
L 159.344308 229.902294 
L 159.592178 230.100724 
L 159.812938 230.276062 
L 160.060744 230.471335 
L 160.118258 230.516425 
L 160.409685 230.743562 
L 160.55866 230.858817 
L 160.7382 230.996957 
L 160.895236 231.117102 
L 161.162902 231.320438 
L 161.348034 231.460013 
L 161.491457 231.567551 
L 161.670164 231.700825 
L 162.056077 231.985927 
L 162.203421 232.093815 
L 162.308954 232.170763 
L 162.507839 232.315043 
L 162.720874 232.468528 
L 162.921965 232.612412 
L 163.190992 232.8034 
L 163.402719 232.95251 
L 163.499582 233.020376 
L 163.700931 233.160749 
L 163.960348 233.340219 
L 164.0982 233.434958 
L 164.278648 233.558315 
L 164.441259 233.668843 
L 164.716585 233.85462 
L 164.804823 233.913798 
L 165.028148 234.062798 
L 165.267459 234.221233 
L 165.565086 234.416512 
L 165.719646 234.517158 
L 165.9388 234.658974 
L 166.112383 234.770563 
L 166.173582 234.80975 
L 166.477694 235.003293 
L 166.620306 235.093374 
L 166.853307 235.239623 
L 167.092339 235.388469 
L 167.284721 235.507397 
L 167.524173 235.654349 
L 167.583231 235.69041 
L 167.898227 235.881537 
L 168.099963 236.002874 
L 168.223426 236.076724 
L 168.345966 236.149716 
L 168.614228 236.308451 
L 168.845316 236.444031 
L 168.997252 236.532592 
L 169.2 236.650055 
L 169.2 169.2 
z
" style="fill:#808080;opacity:0.5;"/>
   </g>
   <g id="matplotlib.axis_1"/>
   <g id="matplotlib.axis_2"/>
   <g id="line2d_1">
    <path clip-path="url(#p53858ba6a8)" d="M 169.2 101.749945 
L 172.84156 103.987827 
L 176.305149 106.38563 
L 179.553269 108.901083 
L 182.610257 111.53526 
L 185.691393 114.490603 
L 188.581008 117.582134 
L 191.245789 120.759672 
L 193.642355 123.94077 
L 196.085736 127.574503 
L 198.20381 131.129823 
L 200.06331 134.657432 
L 201.857639 138.549372 
L 203.379688 142.382337 
L 204.729433 146.397079 
L 205.874545 150.542429 
L 206.763363 154.609056 
L 207.434356 158.7226 
L 207.881649 162.83332 
L 208.109725 166.947389 
L 208.142308 169.2 
L 208.142308 169.2 
" style="fill:none;stroke:#0000ff;stroke-linecap:square;"/>
   </g>
   <g id="line2d_2">
    <path clip-path="url(#p53858ba6a8)" d="M 169.2 236.650055 
L 172.797392 234.440994 
L 176.137381 232.137012 
L 179.452652 229.581034 
L 182.688547 226.793566 
L 185.755397 223.844469 
L 188.528309 220.87735 
L 191.205686 217.690777 
L 193.771895 214.27726 
L 196.175505 210.683193 
L 198.399708 206.918417 
L 200.351322 203.154328 
L 202.106942 199.261581 
L 203.526836 195.612987 
L 204.77881 191.841031 
L 205.931937 187.623408 
L 206.837097 183.398876 
L 207.500207 179.180343 
L 207.920584 175.072701 
L 208.121521 170.999301 
L 208.142308 169.2 
L 208.142308 169.2 
" style="fill:none;stroke:#0000ff;stroke-linecap:square;"/>
   </g>
   <g id="line2d_3">
    <path clip-path="url(#p53858ba6a8)" d="M 130.257692 169.2 
L 130.386978 164.714242 
L 130.736643 160.575824 
L 131.300697 156.496451 
L 132.097304 152.372321 
L 133.094947 148.369568 
L 134.285789 144.476975 
L 135.716891 140.554367 
L 137.380878 136.660279 
L 139.222816 132.921674 
L 141.358146 129.126455 
L 143.490443 125.770176 
L 145.982377 122.272862 
L 148.472945 119.144226 
L 151.243669 116.015808 
L 154.26136 112.960719 
L 157.235264 110.255227 
L 160.550303 107.547632 
L 164.010675 105.025143 
L 167.407776 102.816936 
L 169.2 101.749945 
L 169.2 101.749945 
" style="fill:none;stroke:#0000ff;stroke-linecap:square;"/>
   </g>
   <g id="line2d_4">
    <path clip-path="url(#p53858ba6a8)" d="M 130.257692 169.2 
L 130.390101 173.739568 
L 130.736096 177.819261 
L 131.328999 182.073574 
L 132.151868 186.272386 
L 133.119417 190.118393 
L 134.39587 194.249475 
L 135.798764 198.051776 
L 137.518327 202.036971 
L 139.403451 205.819433 
L 141.514541 209.533039 
L 143.729266 212.983255 
L 146.1078 216.292815 
L 148.707756 219.534356 
L 151.530523 222.689431 
L 154.496625 225.663741 
L 157.616368 228.47177 
L 160.895236 231.117102 
L 164.278648 233.558315 
L 167.583231 235.69041 
L 169.2 236.650055 
L 169.2 236.650055 
" style="fill:none;stroke:#0000ff;stroke-linecap:square;"/>
   </g>
   <g id="text_1">
    <!-- $\Omega$ -->
    <g transform="translate(17.569231 23.978606)scale(0.1 -0.1)">
     <defs>
      <path d="M 7.71875 0 
L 4.390625 16.609375 
L 7.328125 16.609375 
Q 7.859375 13.71875 8.296875 11.5 
Q 8.734375 9.28125 9.4375 8.375 
Q 10.15625 7.46875 11.71875 7.171875 
Q 13.28125 6.890625 16.890625 6.890625 
L 23 6.890625 
Q 21.53125 12.546875 15.6875 21.65625 
Q 9.859375 30.765625 7.734375 34.890625 
Q 5.609375 39.015625 5.609375 45.515625 
Q 5.609375 53.078125 10.09375 58.765625 
Q 14.59375 64.453125 21.703125 67.484375 
Q 28.8125 70.515625 36.078125 70.515625 
Q 43.3125 70.515625 50.40625 67.484375 
Q 57.515625 64.453125 62 58.71875 
Q 66.5 52.984375 66.5 45.515625 
Q 66.5 40.4375 64.640625 35.9375 
Q 62.796875 31.453125 59.90625 26.953125 
Q 57.03125 22.46875 53.6875 16.9375 
Q 50.34375 11.421875 49.125 6.890625 
L 55.171875 6.890625 
Q 58.84375 6.890625 60.453125 7.171875 
Q 62.0625 7.46875 62.734375 8.375 
Q 63.421875 9.28125 63.84375 11.5 
Q 64.265625 13.71875 64.796875 16.609375 
L 67.671875 16.609375 
L 64.40625 0 
L 46.6875 0 
Q 45.703125 0 45.703125 1.3125 
Q 45.703125 6.390625 46.9375 11.265625 
Q 48.1875 16.15625 50.625 23.09375 
Q 53.078125 30.03125 54.4375 35.328125 
Q 55.8125 40.625 55.8125 45.515625 
Q 55.8125 51.515625 53.46875 56.640625 
Q 51.125 61.765625 46.625 64.84375 
Q 42.140625 67.921875 36.078125 67.921875 
Q 26.953125 67.921875 21.625 61.40625 
Q 16.3125 54.890625 16.3125 45.515625 
Q 16.359375 40.375 17.53125 35.828125 
Q 18.703125 31.296875 21.3125 23.71875 
Q 23.921875 16.15625 25.171875 11.265625 
Q 26.421875 6.390625 26.421875 1.3125 
Q 26.421875 0 25.390625 0 
z
" id="Cmr10-173"/>
     </defs>
     <use transform="translate(0 0.484375)" xlink:href="#Cmr10-173"/>
    </g>
   </g>
   <g id="text_2">
    <!-- $A$ -->
    <g style="fill:#0000ff;" transform="translate(87.565385 94.07476)scale(0.1 -0.1)">
     <defs>
      <path d="M 4.5 0 
Q 3.515625 0 3.515625 1.3125 
Q 3.90625 3.515625 4.78125 3.515625 
Q 8.84375 3.515625 11.796875 5.125 
Q 14.75 6.734375 16.890625 10.109375 
Q 17.09375 10.296875 17.09375 10.296875 
L 52.78125 70.515625 
Q 53.5625 71.578125 54.6875 71.578125 
L 56 71.578125 
Q 56.296875 71.578125 56.59375 71.453125 
Q 56.890625 71.34375 57.109375 71.0625 
Q 57.328125 70.796875 57.328125 70.515625 
L 63.375 5.90625 
Q 63.375 5.46875 63.8125 4.59375 
Q 64.796875 3.515625 71.296875 3.515625 
Q 72.3125 3.515625 72.3125 2.203125 
Q 71.96875 0.875 71.75 0.4375 
Q 71.53125 0 70.609375 0 
L 45.609375 0 
Q 44.671875 0 44.671875 1.3125 
Q 45.21875 3.515625 46 3.515625 
Q 53.90625 3.515625 54.390625 6.203125 
L 52.875 22.703125 
L 28.21875 22.703125 
L 20.21875 9.28125 
Q 19.484375 8.203125 19.484375 6.78125 
Q 19.484375 5.03125 21.171875 4.265625 
Q 22.859375 3.515625 24.90625 3.515625 
Q 25.875 3.515625 25.875 2.203125 
Q 25.53125 0.78125 25.328125 0.390625 
Q 25.140625 0 24.21875 0 
z
M 30.171875 26.21875 
L 52.484375 26.21875 
L 49.515625 58.59375 
z
" id="Cmmi10-65"/>
     </defs>
     <use transform="translate(0 0.421875)" xlink:href="#Cmmi10-65"/>
    </g>
   </g>
   <g id="text_3">
    <!-- $B$ -->
    <g style="fill:#ff0000;" transform="translate(243.284615 94.07476)scale(0.1 -0.1)">
     <defs>
      <path d="M 4.984375 0 
Q 4 0 4 1.3125 
Q 4.046875 1.5625 4.1875 2.140625 
Q 4.34375 2.734375 4.578125 3.125 
Q 4.828125 3.515625 5.328125 3.515625 
Q 8.15625 3.515625 10.25 3.65625 
Q 12.359375 3.8125 13.8125 4.203125 
Q 14.984375 4.640625 15.71875 6.890625 
L 29.390625 61.8125 
Q 29.59375 62.796875 29.59375 63.1875 
Q 29.59375 64.265625 28.421875 64.40625 
Q 26.515625 64.796875 21.1875 64.796875 
Q 20.21875 64.796875 20.21875 66.109375 
Q 20.265625 66.359375 20.40625 66.96875 
Q 20.5625 67.578125 20.828125 67.9375 
Q 21.09375 68.3125 21.484375 68.3125 
L 57.328125 68.3125 
Q 60.59375 68.3125 63.796875 67.5 
Q 67 66.703125 69.703125 64.9375 
Q 72.40625 63.1875 74 60.5625 
Q 75.59375 57.953125 75.59375 54.5 
Q 75.59375 50.734375 73.65625 47.5 
Q 71.734375 44.28125 68.671875 41.890625 
Q 65.625 39.5 62.078125 37.953125 
Q 58.546875 36.421875 54.6875 35.6875 
Q 57.421875 35.6875 60.21875 34.609375 
Q 63.03125 33.546875 65.234375 31.6875 
Q 67.4375 29.828125 68.78125 27.234375 
Q 70.125 24.65625 70.125 21.6875 
Q 70.125 15.671875 65.921875 10.6875 
Q 61.71875 5.71875 55.34375 2.859375 
Q 48.96875 0 43.015625 0 
z
M 23.390625 4.296875 
Q 23.390625 3.515625 26.8125 3.515625 
L 41.109375 3.515625 
Q 46 3.515625 50.484375 6.21875 
Q 54.984375 8.9375 57.6875 13.421875 
Q 60.40625 17.921875 60.40625 22.796875 
Q 60.40625 25.78125 59.15625 28.4375 
Q 57.90625 31.109375 55.5625 32.640625 
Q 53.21875 34.1875 50.203125 34.1875 
L 30.71875 34.1875 
L 23.78125 6.5 
Q 23.390625 5.125 23.390625 4.296875 
z
M 31.390625 36.8125 
L 46.578125 36.8125 
Q 51.375 36.8125 55.890625 39.25 
Q 60.40625 41.703125 63.25 45.890625 
Q 66.109375 50.09375 66.109375 54.78125 
Q 66.109375 59.125 63.390625 61.953125 
Q 60.6875 64.796875 56.390625 64.796875 
L 42.671875 64.796875 
Q 39.984375 64.796875 39.0625 64.296875 
Q 38.140625 63.8125 37.5 61.375 
z
" id="Cmmi10-66"/>
     </defs>
     <use transform="translate(0 0.6875)" xlink:href="#Cmmi10-66"/>
    </g>
   </g>
   <g id="text_4">
    <!-- $A\cap B$, colorée en gris -->
    <g transform="translate(116.25 55.323077)scale(0.1 -0.1)">
     <defs>
      <path d="M 5.609375 -0.390625 
L 5.609375 38.625 
Q 5.609375 45.265625 9.765625 50.09375 
Q 13.921875 54.9375 20.40625 57.375 
Q 26.90625 59.8125 33.296875 59.8125 
Q 38.03125 59.8125 42.890625 58.515625 
Q 47.75 57.234375 51.875 54.515625 
Q 56 51.8125 58.484375 47.75 
Q 60.984375 43.703125 60.984375 38.625 
L 60.984375 -0.390625 
Q 60.984375 -1.171875 60.390625 -1.6875 
Q 59.8125 -2.203125 58.984375 -2.203125 
Q 58.25 -2.203125 57.609375 -1.6875 
Q 56.984375 -1.171875 56.984375 -0.390625 
L 56.984375 38.28125 
Q 56.984375 42.671875 54.8125 46.015625 
Q 52.640625 49.359375 49.234375 51.453125 
Q 45.84375 53.5625 41.59375 54.6875 
Q 37.359375 55.8125 33.296875 55.8125 
Q 27.734375 55.8125 22.28125 53.859375 
Q 16.84375 51.90625 13.234375 47.953125 
Q 9.625 44 9.625 38.28125 
L 9.625 -0.390625 
Q 9.625 -1.171875 8.984375 -1.6875 
Q 8.34375 -2.203125 7.625 -2.203125 
Q 6.78125 -2.203125 6.1875 -1.6875 
Q 5.609375 -1.171875 5.609375 -0.390625 
z
" id="Cmsy10-92"/>
      <path d="M 11.71875 12.40625 
L 22.015625 12.40625 
L 22.015625 4 
L 14.015625 -11.625 
L 7.71875 -11.625 
L 11.71875 4 
z
" id="DejaVuSans-44"/>
      <path id="DejaVuSans-32"/>
      <path d="M 48.78125 52.59375 
L 48.78125 44.1875 
Q 44.96875 46.296875 41.140625 47.34375 
Q 37.3125 48.390625 33.40625 48.390625 
Q 24.65625 48.390625 19.8125 42.84375 
Q 14.984375 37.3125 14.984375 27.296875 
Q 14.984375 17.28125 19.8125 11.734375 
Q 24.65625 6.203125 33.40625 6.203125 
Q 37.3125 6.203125 41.140625 7.25 
Q 44.96875 8.296875 48.78125 10.40625 
L 48.78125 2.09375 
Q 45.015625 0.34375 40.984375 -0.53125 
Q 36.96875 -1.421875 32.421875 -1.421875 
Q 20.0625 -1.421875 12.78125 6.34375 
Q 5.515625 14.109375 5.515625 27.296875 
Q 5.515625 40.671875 12.859375 48.328125 
Q 20.21875 56 33.015625 56 
Q 37.15625 56 41.109375 55.140625 
Q 45.0625 54.296875 48.78125 52.59375 
z
" id="DejaVuSans-99"/>
      <path d="M 30.609375 48.390625 
Q 23.390625 48.390625 19.1875 42.75 
Q 14.984375 37.109375 14.984375 27.296875 
Q 14.984375 17.484375 19.15625 11.84375 
Q 23.34375 6.203125 30.609375 6.203125 
Q 37.796875 6.203125 41.984375 11.859375 
Q 46.1875 17.53125 46.1875 27.296875 
Q 46.1875 37.015625 41.984375 42.703125 
Q 37.796875 48.390625 30.609375 48.390625 
z
M 30.609375 56 
Q 42.328125 56 49.015625 48.375 
Q 55.71875 40.765625 55.71875 27.296875 
Q 55.71875 13.875 49.015625 6.21875 
Q 42.328125 -1.421875 30.609375 -1.421875 
Q 18.84375 -1.421875 12.171875 6.21875 
Q 5.515625 13.875 5.515625 27.296875 
Q 5.515625 40.765625 12.171875 48.375 
Q 18.84375 56 30.609375 56 
z
" id="DejaVuSans-111"/>
      <path d="M 9.421875 75.984375 
L 18.40625 75.984375 
L 18.40625 0 
L 9.421875 0 
z
" id="DejaVuSans-108"/>
      <path d="M 41.109375 46.296875 
Q 39.59375 47.171875 37.8125 47.578125 
Q 36.03125 48 33.890625 48 
Q 26.265625 48 22.1875 43.046875 
Q 18.109375 38.09375 18.109375 28.8125 
L 18.109375 0 
L 9.078125 0 
L 9.078125 54.6875 
L 18.109375 54.6875 
L 18.109375 46.1875 
Q 20.953125 51.171875 25.484375 53.578125 
Q 30.03125 56 36.53125 56 
Q 37.453125 56 38.578125 55.875 
Q 39.703125 55.765625 41.0625 55.515625 
z
" id="DejaVuSans-114"/>
      <path d="M 56.203125 29.59375 
L 56.203125 25.203125 
L 14.890625 25.203125 
Q 15.484375 15.921875 20.484375 11.0625 
Q 25.484375 6.203125 34.421875 6.203125 
Q 39.59375 6.203125 44.453125 7.46875 
Q 49.3125 8.734375 54.109375 11.28125 
L 54.109375 2.78125 
Q 49.265625 0.734375 44.1875 -0.34375 
Q 39.109375 -1.421875 33.890625 -1.421875 
Q 20.796875 -1.421875 13.15625 6.1875 
Q 5.515625 13.8125 5.515625 26.8125 
Q 5.515625 40.234375 12.765625 48.109375 
Q 20.015625 56 32.328125 56 
Q 43.359375 56 49.78125 48.890625 
Q 56.203125 41.796875 56.203125 29.59375 
z
M 47.21875 32.234375 
Q 47.125 39.59375 43.09375 43.984375 
Q 39.0625 48.390625 32.421875 48.390625 
Q 24.90625 48.390625 20.390625 44.140625 
Q 15.875 39.890625 15.1875 32.171875 
z
M 38.578125 79.984375 
L 48.296875 79.984375 
L 32.375 61.625 
L 24.90625 61.625 
z
" id="DejaVuSans-233"/>
      <path d="M 56.203125 29.59375 
L 56.203125 25.203125 
L 14.890625 25.203125 
Q 15.484375 15.921875 20.484375 11.0625 
Q 25.484375 6.203125 34.421875 6.203125 
Q 39.59375 6.203125 44.453125 7.46875 
Q 49.3125 8.734375 54.109375 11.28125 
L 54.109375 2.78125 
Q 49.265625 0.734375 44.1875 -0.34375 
Q 39.109375 -1.421875 33.890625 -1.421875 
Q 20.796875 -1.421875 13.15625 6.1875 
Q 5.515625 13.8125 5.515625 26.8125 
Q 5.515625 40.234375 12.765625 48.109375 
Q 20.015625 56 32.328125 56 
Q 43.359375 56 49.78125 48.890625 
Q 56.203125 41.796875 56.203125 29.59375 
z
M 47.21875 32.234375 
Q 47.125 39.59375 43.09375 43.984375 
Q 39.0625 48.390625 32.421875 48.390625 
Q 24.90625 48.390625 20.390625 44.140625 
Q 15.875 39.890625 15.1875 32.171875 
z
" id="DejaVuSans-101"/>
      <path d="M 54.890625 33.015625 
L 54.890625 0 
L 45.90625 0 
L 45.90625 32.71875 
Q 45.90625 40.484375 42.875 44.328125 
Q 39.84375 48.1875 33.796875 48.1875 
Q 26.515625 48.1875 22.3125 43.546875 
Q 18.109375 38.921875 18.109375 30.90625 
L 18.109375 0 
L 9.078125 0 
L 9.078125 54.6875 
L 18.109375 54.6875 
L 18.109375 46.1875 
Q 21.34375 51.125 25.703125 53.5625 
Q 30.078125 56 35.796875 56 
Q 45.21875 56 50.046875 50.171875 
Q 54.890625 44.34375 54.890625 33.015625 
z
" id="DejaVuSans-110"/>
      <path d="M 45.40625 27.984375 
Q 45.40625 37.75 41.375 43.109375 
Q 37.359375 48.484375 30.078125 48.484375 
Q 22.859375 48.484375 18.828125 43.109375 
Q 14.796875 37.75 14.796875 27.984375 
Q 14.796875 18.265625 18.828125 12.890625 
Q 22.859375 7.515625 30.078125 7.515625 
Q 37.359375 7.515625 41.375 12.890625 
Q 45.40625 18.265625 45.40625 27.984375 
z
M 54.390625 6.78125 
Q 54.390625 -7.171875 48.1875 -13.984375 
Q 42 -20.796875 29.203125 -20.796875 
Q 24.46875 -20.796875 20.265625 -20.09375 
Q 16.0625 -19.390625 12.109375 -17.921875 
L 12.109375 -9.1875 
Q 16.0625 -11.328125 19.921875 -12.34375 
Q 23.78125 -13.375 27.78125 -13.375 
Q 36.625 -13.375 41.015625 -8.765625 
Q 45.40625 -4.15625 45.40625 5.171875 
L 45.40625 9.625 
Q 42.625 4.78125 38.28125 2.390625 
Q 33.9375 0 27.875 0 
Q 17.828125 0 11.671875 7.65625 
Q 5.515625 15.328125 5.515625 27.984375 
Q 5.515625 40.671875 11.671875 48.328125 
Q 17.828125 56 27.875 56 
Q 33.9375 56 38.28125 53.609375 
Q 42.625 51.21875 45.40625 46.390625 
L 45.40625 54.6875 
L 54.390625 54.6875 
z
" id="DejaVuSans-103"/>
      <path d="M 9.421875 54.6875 
L 18.40625 54.6875 
L 18.40625 0 
L 9.421875 0 
z
M 9.421875 75.984375 
L 18.40625 75.984375 
L 18.40625 64.59375 
L 9.421875 64.59375 
z
" id="DejaVuSans-105"/>
      <path d="M 44.28125 53.078125 
L 44.28125 44.578125 
Q 40.484375 46.53125 36.375 47.5 
Q 32.28125 48.484375 27.875 48.484375 
Q 21.1875 48.484375 17.84375 46.4375 
Q 14.5 44.390625 14.5 40.28125 
Q 14.5 37.15625 16.890625 35.375 
Q 19.28125 33.59375 26.515625 31.984375 
L 29.59375 31.296875 
Q 39.15625 29.25 43.1875 25.515625 
Q 47.21875 21.78125 47.21875 15.09375 
Q 47.21875 7.46875 41.1875 3.015625 
Q 35.15625 -1.421875 24.609375 -1.421875 
Q 20.21875 -1.421875 15.453125 -0.5625 
Q 10.6875 0.296875 5.421875 2 
L 5.421875 11.28125 
Q 10.40625 8.6875 15.234375 7.390625 
Q 20.0625 6.109375 24.8125 6.109375 
Q 31.15625 6.109375 34.5625 8.28125 
Q 37.984375 10.453125 37.984375 14.40625 
Q 37.984375 18.0625 35.515625 20.015625 
Q 33.0625 21.96875 24.703125 23.78125 
L 21.578125 24.515625 
Q 13.234375 26.265625 9.515625 29.90625 
Q 5.8125 33.546875 5.8125 39.890625 
Q 5.8125 47.609375 11.28125 51.796875 
Q 16.75 56 26.8125 56 
Q 31.78125 56 36.171875 55.265625 
Q 40.578125 54.546875 44.28125 53.078125 
z
" id="DejaVuSans-115"/>
     </defs>
     <use transform="translate(0 0.015625)" xlink:href="#Cmmi10-65"/>
     <use transform="translate(92.558594 0.015625)" xlink:href="#Cmsy10-92"/>
     <use transform="translate(176.71875 0.015625)" xlink:href="#Cmmi10-66"/>
     <use transform="translate(252.5 0.015625)" xlink:href="#DejaVuSans-44"/>
     <use transform="translate(284.287109 0.015625)" xlink:href="#DejaVuSans-32"/>
     <use transform="translate(316.074219 0.015625)" xlink:href="#DejaVuSans-99"/>
     <use transform="translate(371.054688 0.015625)" xlink:href="#DejaVuSans-111"/>
     <use transform="translate(432.236328 0.015625)" xlink:href="#DejaVuSans-108"/>
     <use transform="translate(460.019531 0.015625)" xlink:href="#DejaVuSans-111"/>
     <use transform="translate(521.201172 0.015625)" xlink:href="#DejaVuSans-114"/>
     <use transform="translate(562.314453 0.015625)" xlink:href="#DejaVuSans-233"/>
     <use transform="translate(623.837891 0.015625)" xlink:href="#DejaVuSans-101"/>
     <use transform="translate(685.361328 0.015625)" xlink:href="#DejaVuSans-32"/>
     <use transform="translate(717.148438 0.015625)" xlink:href="#DejaVuSans-101"/>
     <use transform="translate(778.671875 0.015625)" xlink:href="#DejaVuSans-110"/>
     <use transform="translate(842.050781 0.015625)" xlink:href="#DejaVuSans-32"/>
     <use transform="translate(873.837891 0.015625)" xlink:href="#DejaVuSans-103"/>
     <use transform="translate(937.314453 0.015625)" xlink:href="#DejaVuSans-114"/>
     <use transform="translate(978.427734 0.015625)" xlink:href="#DejaVuSans-105"/>
     <use transform="translate(1006.210938 0.015625)" xlink:href="#DejaVuSans-115"/>
    </g>
   </g>
   <g id="patch_8">
    <path clip-path="url(#p53858ba6a8)" d="M 130.257692 247.084615 
C 150.912934 247.084615 170.724971 238.878201 185.330432 224.27274 
C 199.935893 209.667278 208.142308 189.855241 208.142308 169.2 
C 208.142308 148.544759 199.935893 128.732722 185.330432 114.12726 
C 170.724971 99.521799 150.912934 91.315385 130.257692 91.315385 
C 109.602451 91.315385 89.790414 99.521799 75.184953 114.12726 
C 60.579491 128.732722 52.373077 148.544759 52.373077 169.2 
C 52.373077 189.855241 60.579491 209.667278 75.184953 224.27274 
C 89.790414 238.878201 109.602451 247.084615 130.257692 247.084615 
z
" style="fill:none;stroke:#0000ff;stroke-linejoin:miter;"/>
   </g>
   <g id="patch_9">
    <path clip-path="url(#p53858ba6a8)" d="M 208.142308 247.084615 
C 228.797549 247.084615 248.609586 238.878201 263.215047 224.27274 
C 277.820509 209.667278 286.026923 189.855241 286.026923 169.2 
C 286.026923 148.544759 277.820509 128.732722 263.215047 114.12726 
C 248.609586 99.521799 228.797549 91.315385 208.142308 91.315385 
C 187.487066 91.315385 167.675029 99.521799 153.069568 114.12726 
C 138.464107 128.732722 130.257692 148.544759 130.257692 169.2 
C 130.257692 189.855241 138.464107 209.667278 153.069568 224.27274 
C 167.675029 238.878201 187.487066 247.084615 208.142308 247.084615 
z
" style="fill:none;stroke:#ff0000;stroke-linejoin:miter;"/>
   </g>
  </g>
 </g>
 <defs>
  <clipPath id="p53858ba6a8">
   <rect height="324" width="324" x="7.2" y="7.2"/>
  </clipPath>
 </defs>
</svg>
