<?xml version="1.0" encoding="utf-8" standalone="no"?>
<!DOCTYPE svg PUBLIC "-//W3C//DTD SVG 1.1//EN"
  "http://www.w3.org/Graphics/SVG/1.1/DTD/svg11.dtd">
<!-- Created with matplotlib (https://matplotlib.org/) -->
<svg height="338.4pt" version="1.1" viewBox="0 0 338.4 338.4" width="338.4pt" xmlns="http://www.w3.org/2000/svg" xmlns:xlink="http://www.w3.org/1999/xlink">
 <metadata>
  <rdf:RDF xmlns:cc="http://creativecommons.org/ns#" xmlns:dc="http://purl.org/dc/elements/1.1/" xmlns:rdf="http://www.w3.org/1999/02/22-rdf-syntax-ns#">
   <cc:Work>
    <dc:type rdf:resource="http://purl.org/dc/dcmitype/StillImage"/>
    <dc:date>2024-08-21T15:23:50.220764</dc:date>
    <dc:format>image/svg+xml</dc:format>
    <dc:creator>
     <cc:Agent>
      <dc:title>Matplotlib v3.3.4, https://matplotlib.org/</dc:title>
     </cc:Agent>
    </dc:creator>
   </cc:Work>
  </rdf:RDF>
 </metadata>
 <defs>
  <style type="text/css">*{stroke-linecap:butt;stroke-linejoin:round;}</style>
 </defs>
 <g id="figure_1">
  <g id="patch_1">
   <path d="M -0 338.4 
L 338.4 338.4 
L 338.4 0 
L -0 0 
z
" style="fill:#ffffff;"/>
  </g>
  <g id="axes_1">
   <g id="patch_2">
    <path d="M 7.2 331.2 
L 331.2 331.2 
L 331.2 7.2 
L 7.2 7.2 
z
" style="fill:#ffffff;"/>
   </g>
   <g id="patch_3">
    <path clip-path="url(#pb6923f3d78)" d="M 184.776923 44.584615 
C 184.776923 42.539073 184.373996 40.51342 183.5912 38.623585 
C 182.808405 36.73375 181.660965 35.016485 180.214548 33.570067 
C 178.768131 32.12365 177.050866 30.97621 175.16103 30.193415 
C 173.271195 29.41062 171.245543 29.007692 169.2 29.007692 
C 167.154457 29.007692 165.128805 29.41062 163.23897 30.193415 
C 161.349134 30.97621 159.631869 32.12365 158.185452 33.570067 
C 156.739035 35.016485 155.591595 36.73375 154.8088 38.623585 
C 154.026004 40.51342 153.623077 42.539073 153.623077 44.584615 
C 153.623077 46.630158 154.026004 48.655811 154.8088 50.545646 
C 155.591595 52.435481 156.739035 54.152746 158.185452 55.599163 
C 159.631869 57.045581 161.349134 58.19302 163.23897 58.975816 
C 165.128805 59.758611 167.154457 60.161538 169.2 60.161538 
C 171.245543 60.161538 173.271195 59.758611 175.16103 58.975816 
C 177.050866 58.19302 178.768131 57.045581 180.214548 55.599163 
C 181.660965 54.152746 182.808405 52.435481 183.5912 50.545646 
C 184.373996 48.655811 184.776923 46.630158 184.776923 44.584615 
M 169.2 44.584615 
M 184.776923 44.584615 
z
" style="fill:#0000ff;"/>
   </g>
   <g id="patch_4">
    <path clip-path="url(#pb6923f3d78)" d="M 60.161538 106.892308 
C 60.161538 104.846765 59.758611 102.821112 58.975816 100.931277 
C 58.19302 99.041442 57.045581 97.324177 55.599163 95.87776 
C 54.152746 94.431343 52.435481 93.283903 50.545646 92.501107 
C 48.655811 91.718312 46.630158 91.315385 44.584615 91.315385 
C 42.539073 91.315385 40.51342 91.718312 38.623585 92.501107 
C 36.73375 93.283903 35.016485 94.431343 33.570067 95.87776 
C 32.12365 97.324177 30.97621 99.041442 30.193415 100.931277 
C 29.41062 102.821112 29.007692 104.846765 29.007692 106.892308 
C 29.007692 108.93785 29.41062 110.963503 30.193415 112.853338 
C 30.97621 114.743173 32.12365 116.460438 33.570067 117.906856 
C 35.016485 119.353273 36.73375 120.500713 38.623585 121.283508 
C 40.51342 122.066303 42.539073 122.469231 44.584615 122.469231 
C 46.630158 122.469231 48.655811 122.066303 50.545646 121.283508 
C 52.435481 120.500713 54.152746 119.353273 55.599163 117.906856 
C 57.045581 116.460438 58.19302 114.743173 58.975816 112.853338 
C 59.758611 110.963503 60.161538 108.93785 60.161538 106.892308 
M 44.584615 106.892308 
M 60.161538 106.892308 
z
" style="fill:#ff0000;"/>
   </g>
   <g id="patch_5">
    <path clip-path="url(#pb6923f3d78)" d="M 122.469231 106.892308 
C 122.469231 104.846765 122.066303 102.821112 121.283508 100.931277 
C 120.500713 99.041442 119.353273 97.324177 117.906856 95.87776 
C 116.460438 94.431343 114.743173 93.283903 112.853338 92.501107 
C 110.963503 91.718312 108.93785 91.315385 106.892308 91.315385 
C 104.846765 91.315385 102.821112 91.718312 100.931277 92.501107 
C 99.041442 93.283903 97.324177 94.431343 95.87776 95.87776 
C 94.431343 97.324177 93.283903 99.041442 92.501107 100.931277 
C 91.718312 102.821112 91.315385 104.846765 91.315385 106.892308 
C 91.315385 108.93785 91.718312 110.963503 92.501107 112.853338 
C 93.283903 114.743173 94.431343 116.460438 95.87776 117.906856 
C 97.324177 119.353273 99.041442 120.500713 100.931277 121.283508 
C 102.821112 122.066303 104.846765 122.469231 106.892308 122.469231 
C 108.93785 122.469231 110.963503 122.066303 112.853338 121.283508 
C 114.743173 120.500713 116.460438 119.353273 117.906856 117.906856 
C 119.353273 116.460438 120.500713 114.743173 121.283508 112.853338 
C 122.066303 110.963503 122.469231 108.93785 122.469231 106.892308 
M 106.892308 106.892308 
M 122.469231 106.892308 
z
" style="fill:#0000ff;"/>
   </g>
   <g id="patch_6">
    <path clip-path="url(#pb6923f3d78)" d="M 184.776923 44.584615 
C 184.776923 42.539073 184.373996 40.51342 183.5912 38.623585 
C 182.808405 36.73375 181.660965 35.016485 180.214548 33.570067 
C 178.768131 32.12365 177.050866 30.97621 175.16103 30.193415 
C 173.271195 29.41062 171.245543 29.007692 169.2 29.007692 
C 167.154457 29.007692 165.128805 29.41062 163.23897 30.193415 
C 161.349134 30.97621 159.631869 32.12365 158.185452 33.570067 
C 156.739035 35.016485 155.591595 36.73375 154.8088 38.623585 
C 154.026004 40.51342 153.623077 42.539073 153.623077 44.584615 
C 153.623077 46.630158 154.026004 48.655811 154.8088 50.545646 
C 155.591595 52.435481 156.739035 54.152746 158.185452 55.599163 
C 159.631869 57.045581 161.349134 58.19302 163.23897 58.975816 
C 165.128805 59.758611 167.154457 60.161538 169.2 60.161538 
C 171.245543 60.161538 173.271195 59.758611 175.16103 58.975816 
C 177.050866 58.19302 178.768131 57.045581 180.214548 55.599163 
C 181.660965 54.152746 182.808405 52.435481 183.5912 50.545646 
C 184.373996 48.655811 184.776923 46.630158 184.776923 44.584615 
M 169.2 44.584615 
M 184.776923 44.584615 
z
" style="fill:#0000ff;"/>
   </g>
   <g id="patch_7">
    <path clip-path="url(#pb6923f3d78)" d="M 60.161538 106.892308 
C 60.161538 104.846765 59.758611 102.821112 58.975816 100.931277 
C 58.19302 99.041442 57.045581 97.324177 55.599163 95.87776 
C 54.152746 94.431343 52.435481 93.283903 50.545646 92.501107 
C 48.655811 91.718312 46.630158 91.315385 44.584615 91.315385 
C 42.539073 91.315385 40.51342 91.718312 38.623585 92.501107 
C 36.73375 93.283903 35.016485 94.431343 33.570067 95.87776 
C 32.12365 97.324177 30.97621 99.041442 30.193415 100.931277 
C 29.41062 102.821112 29.007692 104.846765 29.007692 106.892308 
C 29.007692 108.93785 29.41062 110.963503 30.193415 112.853338 
C 30.97621 114.743173 32.12365 116.460438 33.570067 117.906856 
C 35.016485 119.353273 36.73375 120.500713 38.623585 121.283508 
C 40.51342 122.066303 42.539073 122.469231 44.584615 122.469231 
C 46.630158 122.469231 48.655811 122.066303 50.545646 121.283508 
C 52.435481 120.500713 54.152746 119.353273 55.599163 117.906856 
C 57.045581 116.460438 58.19302 114.743173 58.975816 112.853338 
C 59.758611 110.963503 60.161538 108.93785 60.161538 106.892308 
M 44.584615 106.892308 
M 60.161538 106.892308 
z
" style="fill:#ff0000;"/>
   </g>
   <g id="patch_8">
    <path clip-path="url(#pb6923f3d78)" d="M 122.469231 106.892308 
C 122.469231 104.846765 122.066303 102.821112 121.283508 100.931277 
C 120.500713 99.041442 119.353273 97.324177 117.906856 95.87776 
C 116.460438 94.431343 114.743173 93.283903 112.853338 92.501107 
C 110.963503 91.718312 108.93785 91.315385 106.892308 91.315385 
C 104.846765 91.315385 102.821112 91.718312 100.931277 92.501107 
C 99.041442 93.283903 97.324177 94.431343 95.87776 95.87776 
C 94.431343 97.324177 93.283903 99.041442 92.501107 100.931277 
C 91.718312 102.821112 91.315385 104.846765 91.315385 106.892308 
C 91.315385 108.93785 91.718312 110.963503 92.501107 112.853338 
C 93.283903 114.743173 94.431343 116.460438 95.87776 117.906856 
C 97.324177 119.353273 99.041442 120.500713 100.931277 121.283508 
C 102.821112 122.066303 104.846765 122.469231 106.892308 122.469231 
C 108.93785 122.469231 110.963503 122.066303 112.853338 121.283508 
C 114.743173 120.500713 116.460438 119.353273 117.906856 117.906856 
C 119.353273 116.460438 120.500713 114.743173 121.283508 112.853338 
C 122.066303 110.963503 122.469231 108.93785 122.469231 106.892308 
M 106.892308 106.892308 
M 122.469231 106.892308 
z
" style="fill:#0000ff;"/>
   </g>
   <g id="patch_9">
    <path clip-path="url(#pb6923f3d78)" d="M 215.930769 122.469231 
L 247.084615 122.469231 
L 231.507692 91.315385 
z
" style="fill:#008000;"/>
   </g>
   <g id="patch_10">
    <path clip-path="url(#pb6923f3d78)" d="M 153.623077 184.776923 
L 184.776923 184.776923 
L 169.2 153.623077 
z
" style="fill:#ff0000;"/>
   </g>
   <g id="patch_11">
    <path clip-path="url(#pb6923f3d78)" d="M 215.930769 309.392308 
L 247.084615 309.392308 
L 231.507692 278.238462 
z
" style="fill:#ff0000;"/>
   </g>
   <g id="patch_12">
    <path clip-path="url(#pb6923f3d78)" d="M 215.930769 122.469231 
L 247.084615 122.469231 
L 231.507692 91.315385 
z
" style="fill:#008000;"/>
   </g>
   <g id="patch_13">
    <path clip-path="url(#pb6923f3d78)" d="M 153.623077 184.776923 
L 184.776923 184.776923 
L 169.2 153.623077 
z
" style="fill:#ff0000;"/>
   </g>
   <g id="patch_14">
    <path clip-path="url(#pb6923f3d78)" d="M 29.007692 184.776923 
L 60.161538 184.776923 
L 60.161538 153.623077 
L 29.007692 153.623077 
z
" style="fill:#008000;"/>
   </g>
   <g id="patch_15">
    <path clip-path="url(#pb6923f3d78)" d="M 278.238462 184.776923 
L 309.392308 184.776923 
L 309.392308 153.623077 
L 278.238462 153.623077 
z
" style="fill:#ff0000;"/>
   </g>
   <g id="patch_16">
    <path clip-path="url(#pb6923f3d78)" d="M 91.315385 247.084615 
L 122.469231 247.084615 
L 122.469231 215.930769 
L 91.315385 215.930769 
z
" style="fill:#ff0000;"/>
   </g>
   <g id="patch_17">
    <path clip-path="url(#pb6923f3d78)" d="M 278.238462 309.392308 
L 309.392308 309.392308 
L 309.392308 278.238462 
L 278.238462 278.238462 
z
" style="fill:#0000ff;"/>
   </g>
   <g id="matplotlib.axis_1"/>
   <g id="matplotlib.axis_2"/>
   <g id="line2d_1">
    <path clip-path="url(#pb6923f3d78)" d="M 13.430769 324.969231 
L 13.430769 13.430769 
" style="fill:none;stroke:#000000;stroke-linecap:square;"/>
   </g>
   <g id="line2d_2">
    <path clip-path="url(#pb6923f3d78)" d="M 75.738462 324.969231 
L 75.738462 13.430769 
" style="fill:none;stroke:#000000;stroke-linecap:square;"/>
   </g>
   <g id="line2d_3">
    <path clip-path="url(#pb6923f3d78)" d="M 138.046154 324.969231 
L 138.046154 13.430769 
" style="fill:none;stroke:#000000;stroke-linecap:square;"/>
   </g>
   <g id="line2d_4">
    <path clip-path="url(#pb6923f3d78)" d="M 200.353846 324.969231 
L 200.353846 13.430769 
" style="fill:none;stroke:#000000;stroke-linecap:square;"/>
   </g>
   <g id="line2d_5">
    <path clip-path="url(#pb6923f3d78)" d="M 262.661538 324.969231 
L 262.661538 13.430769 
" style="fill:none;stroke:#000000;stroke-linecap:square;"/>
   </g>
   <g id="line2d_6">
    <path clip-path="url(#pb6923f3d78)" d="M 324.969231 324.969231 
L 324.969231 13.430769 
" style="fill:none;stroke:#000000;stroke-linecap:square;"/>
   </g>
   <g id="line2d_7">
    <path clip-path="url(#pb6923f3d78)" d="M 13.430769 324.969231 
L 324.969231 324.969231 
" style="fill:none;stroke:#000000;stroke-linecap:square;"/>
   </g>
   <g id="line2d_8">
    <path clip-path="url(#pb6923f3d78)" d="M 13.430769 262.661538 
L 324.969231 262.661538 
" style="fill:none;stroke:#000000;stroke-linecap:square;"/>
   </g>
   <g id="line2d_9">
    <path clip-path="url(#pb6923f3d78)" d="M 13.430769 200.353846 
L 324.969231 200.353846 
" style="fill:none;stroke:#000000;stroke-linecap:square;"/>
   </g>
   <g id="line2d_10">
    <path clip-path="url(#pb6923f3d78)" d="M 13.430769 138.046154 
L 324.969231 138.046154 
" style="fill:none;stroke:#000000;stroke-linecap:square;"/>
   </g>
   <g id="line2d_11">
    <path clip-path="url(#pb6923f3d78)" d="M 13.430769 75.738462 
L 324.969231 75.738462 
" style="fill:none;stroke:#000000;stroke-linecap:square;"/>
   </g>
   <g id="line2d_12">
    <path clip-path="url(#pb6923f3d78)" d="M 13.430769 13.430769 
L 324.969231 13.430769 
" style="fill:none;stroke:#000000;stroke-linecap:square;"/>
   </g>
   <g id="text_1">
    <!-- $a$ -->
    <g transform="translate(163.9 50.103365)scale(0.2 -0.2)">
     <defs>
      <path d="M 17.390625 -1.125 
Q 11.078125 -1.125 7.4375 3.640625 
Q 3.8125 8.40625 3.8125 14.890625 
Q 3.8125 21.296875 7.125 28.171875 
Q 10.453125 35.0625 16.09375 39.625 
Q 21.734375 44.1875 28.21875 44.1875 
Q 31.203125 44.1875 33.546875 42.578125 
Q 35.890625 40.96875 37.203125 38.1875 
Q 38.328125 42.1875 41.609375 42.1875 
Q 42.875 42.1875 43.71875 41.421875 
Q 44.578125 40.671875 44.578125 39.40625 
Q 44.578125 39.109375 44.546875 38.953125 
Q 44.53125 38.8125 44.484375 38.625 
L 37.5 10.6875 
Q 36.8125 7.71875 36.8125 5.8125 
Q 36.8125 1.515625 39.703125 1.515625 
Q 42.828125 1.515625 44.453125 5.484375 
Q 46.09375 9.46875 47.21875 14.703125 
Q 47.40625 15.28125 48 15.28125 
L 49.21875 15.28125 
Q 49.609375 15.28125 49.84375 14.9375 
Q 50.09375 14.59375 50.09375 14.3125 
Q 48.34375 7.328125 46.265625 3.09375 
Q 44.1875 -1.125 39.5 -1.125 
Q 36.140625 -1.125 33.546875 0.84375 
Q 30.953125 2.828125 30.328125 6.109375 
Q 23.875 -1.125 17.390625 -1.125 
z
M 17.484375 1.515625 
Q 21.09375 1.515625 24.484375 4.21875 
Q 27.875 6.9375 30.328125 10.59375 
Q 30.421875 10.6875 30.421875 10.890625 
L 35.796875 32.625 
L 35.890625 32.90625 
Q 35.296875 36.46875 33.3125 39.03125 
Q 31.34375 41.609375 27.984375 41.609375 
Q 24.609375 41.609375 21.703125 38.84375 
Q 18.796875 36.078125 16.796875 32.328125 
Q 14.84375 28.328125 13.0625 21.34375 
Q 11.28125 14.359375 11.28125 10.5 
Q 11.28125 7.03125 12.765625 4.265625 
Q 14.265625 1.515625 17.484375 1.515625 
z
" id="Cmmi10-97"/>
     </defs>
     <use transform="translate(0 0.8125)" xlink:href="#Cmmi10-97"/>
    </g>
   </g>
   <g id="text_2">
    <!-- $b$ -->
    <g transform="translate(40.284615 112.411058)scale(0.2 -0.2)">
     <defs>
      <path d="M 17.28125 -1.125 
Q 11.234375 -1.125 7.859375 3.609375 
Q 4.5 8.34375 4.5 14.703125 
Q 4.5 15.625 4.953125 18.328125 
Q 5.421875 21.046875 5.421875 21.6875 
L 15.09375 60.5 
Q 15.484375 62.203125 15.578125 63.1875 
Q 15.578125 64.796875 9.078125 64.796875 
Q 8.109375 64.796875 8.109375 66.109375 
Q 8.15625 66.359375 8.328125 66.984375 
Q 8.5 67.625 8.765625 67.96875 
Q 9.03125 68.3125 9.515625 68.3125 
L 23 69.390625 
Q 24.21875 69.390625 24.21875 68.109375 
L 16.796875 38.625 
Q 22.46875 44.1875 28.21875 44.1875 
Q 32.46875 44.1875 35.515625 41.9375 
Q 38.578125 39.703125 40.09375 36.03125 
Q 41.609375 32.375 41.609375 28.21875 
Q 41.609375 23.390625 39.71875 18.234375 
Q 37.84375 13.09375 34.515625 8.671875 
Q 31.203125 4.25 26.75 1.5625 
Q 22.3125 -1.125 17.28125 -1.125 
z
M 17.484375 1.515625 
Q 20.90625 1.515625 23.875 4.375 
Q 26.859375 7.234375 28.71875 10.796875 
Q 30.71875 14.796875 32.453125 21.65625 
Q 34.1875 28.515625 34.1875 32.625 
Q 34.1875 36.1875 32.6875 38.890625 
Q 31.203125 41.609375 27.984375 41.609375 
Q 24.359375 41.609375 21.0625 38.9375 
Q 17.78125 36.28125 15.28125 32.625 
L 12.5 21.296875 
Q 10.890625 14.984375 10.796875 11.1875 
Q 10.796875 7.421875 12.421875 4.46875 
Q 14.0625 1.515625 17.484375 1.515625 
z
" id="Cmmi10-98"/>
     </defs>
     <use transform="translate(0 0.609375)" xlink:href="#Cmmi10-98"/>
    </g>
   </g>
   <g id="text_3">
    <!-- $c$ -->
    <g transform="translate(102.492308 112.411058)scale(0.2 -0.2)">
     <defs>
      <path d="M 11.71875 11.921875 
Q 11.71875 7.5625 13.9375 4.53125 
Q 16.15625 1.515625 20.3125 1.515625 
Q 26.265625 1.515625 31.75 4.25 
Q 37.25 6.984375 40.71875 11.8125 
Q 41.015625 12.109375 41.5 12.109375 
Q 42 12.109375 42.5 11.546875 
Q 43.015625 10.984375 43.015625 10.5 
Q 43.015625 10.109375 42.828125 9.90625 
Q 39.15625 4.78125 32.953125 1.828125 
Q 26.765625 -1.125 20.125 -1.125 
Q 15.328125 -1.125 11.671875 1.140625 
Q 8.015625 3.421875 6 7.21875 
Q 4 11.03125 4 15.828125 
Q 4 22.5625 7.765625 29.203125 
Q 11.53125 35.84375 17.78125 40.015625 
Q 24.03125 44.1875 30.90625 44.1875 
Q 35.40625 44.1875 38.984375 42.015625 
Q 42.578125 39.84375 42.578125 35.59375 
Q 42.578125 32.859375 40.984375 30.921875 
Q 39.40625 29 36.71875 29 
Q 35.109375 29 34 30 
Q 32.90625 31 32.90625 32.625 
Q 32.90625 34.96875 34.609375 36.625 
Q 36.328125 38.28125 38.625 38.28125 
L 38.8125 38.28125 
Q 37.640625 39.984375 35.421875 40.796875 
Q 33.203125 41.609375 30.8125 41.609375 
Q 24.953125 41.609375 20.546875 36.59375 
Q 16.15625 31.59375 13.9375 24.625 
Q 11.71875 17.671875 11.71875 11.921875 
z
" id="Cmmi10-99"/>
     </defs>
     <use transform="translate(0 0.8125)" xlink:href="#Cmmi10-99"/>
    </g>
   </g>
   <g id="text_4">
    <!-- $d$ -->
    <g transform="translate(226.207692 118.641827)scale(0.2 -0.2)">
     <defs>
      <path d="M 17.390625 -1.125 
Q 11.078125 -1.125 7.4375 3.640625 
Q 3.8125 8.40625 3.8125 14.890625 
Q 3.8125 21.296875 7.125 28.171875 
Q 10.453125 35.0625 16.09375 39.625 
Q 21.734375 44.1875 28.21875 44.1875 
Q 31.15625 44.1875 33.515625 42.546875 
Q 35.890625 40.921875 37.203125 38.1875 
L 42.828125 60.5 
Q 43.21875 62.203125 43.3125 63.1875 
Q 43.3125 64.796875 36.8125 64.796875 
Q 35.796875 64.796875 35.796875 66.109375 
Q 35.84375 66.359375 36.015625 66.984375 
Q 36.1875 67.625 36.453125 67.96875 
Q 36.71875 68.3125 37.203125 68.3125 
L 50.6875 69.390625 
Q 51.90625 69.390625 51.90625 68.109375 
L 37.5 10.59375 
Q 36.8125 8.9375 36.8125 5.8125 
Q 36.8125 1.515625 39.703125 1.515625 
Q 42.828125 1.515625 44.453125 5.484375 
Q 46.09375 9.46875 47.21875 14.703125 
Q 47.40625 15.28125 48 15.28125 
L 49.21875 15.28125 
Q 49.609375 15.28125 49.84375 14.9375 
Q 50.09375 14.59375 50.09375 14.3125 
Q 48.34375 7.328125 46.265625 3.09375 
Q 44.1875 -1.125 39.5 -1.125 
Q 36.140625 -1.125 33.546875 0.84375 
Q 30.953125 2.828125 30.328125 6.109375 
Q 23.875 -1.125 17.390625 -1.125 
z
M 17.484375 1.515625 
Q 21.09375 1.515625 24.484375 4.21875 
Q 27.875 6.9375 30.328125 10.59375 
Q 30.421875 10.6875 30.421875 10.984375 
L 35.890625 33.015625 
Q 35.296875 36.53125 33.296875 39.0625 
Q 31.296875 41.609375 27.984375 41.609375 
Q 24.609375 41.609375 21.703125 38.84375 
Q 18.796875 36.078125 16.796875 32.328125 
Q 14.84375 28.328125 13.0625 21.34375 
Q 11.28125 14.359375 11.28125 10.5 
Q 11.28125 7.03125 12.765625 4.265625 
Q 14.265625 1.515625 17.484375 1.515625 
z
" id="Cmmi10-100"/>
     </defs>
     <use transform="translate(0 0.609375)" xlink:href="#Cmmi10-100"/>
    </g>
   </g>
   <g id="text_5">
    <!-- $e$ -->
    <g transform="translate(39.884615 174.71875)scale(0.2 -0.2)">
     <defs>
      <path d="M 20.125 -1.125 
Q 15.328125 -1.125 11.734375 1.359375 
Q 8.15625 3.859375 6.265625 8.078125 
Q 4.390625 12.3125 4.390625 17 
Q 4.390625 24.125 7.984375 30.390625 
Q 11.578125 36.671875 17.71875 40.421875 
Q 23.875 44.1875 30.90625 44.1875 
Q 35.203125 44.1875 38.40625 41.96875 
Q 41.609375 39.75 41.609375 35.59375 
Q 41.609375 29.828125 37.015625 27.015625 
Q 32.421875 24.21875 26.65625 23.5625 
Q 20.90625 22.90625 13.921875 22.90625 
L 13.625 22.90625 
Q 12.015625 16.9375 12.015625 12.703125 
Q 12.015625 8.25 14.0625 4.875 
Q 16.109375 1.515625 20.3125 1.515625 
Q 26.265625 1.515625 31.75 4.25 
Q 37.25 6.984375 40.71875 11.8125 
Q 41.015625 12.109375 41.5 12.109375 
Q 42 12.109375 42.5 11.546875 
Q 43.015625 10.984375 43.015625 10.5 
Q 43.015625 10.109375 42.828125 9.90625 
Q 39.15625 4.78125 32.953125 1.828125 
Q 26.765625 -1.125 20.125 -1.125 
z
M 14.203125 25.484375 
Q 20.015625 25.484375 24.953125 26.015625 
Q 29.890625 26.5625 33.890625 28.734375 
Q 37.890625 30.90625 37.890625 35.5 
Q 37.890625 37.359375 36.859375 38.75 
Q 35.84375 40.140625 34.203125 40.875 
Q 32.5625 41.609375 30.8125 41.609375 
Q 26.5625 41.609375 23.171875 39.3125 
Q 19.78125 37.015625 17.578125 33.328125 
Q 15.375 29.640625 14.203125 25.484375 
z
" id="Cmmi10-101"/>
     </defs>
     <use transform="translate(0 0.8125)" xlink:href="#Cmmi10-101"/>
    </g>
   </g>
   <g id="text_6">
    <!-- $f$ -->
    <g transform="translate(164.3 180.908894)scale(0.2 -0.2)">
     <defs>
      <path d="M 9.71875 -16.5 
Q 11.578125 -17.921875 14.203125 -17.921875 
Q 17.78125 -17.921875 20.015625 -10.015625 
Q 20.953125 -6.203125 25.09375 15.09375 
L 29.6875 39.59375 
L 21.09375 39.59375 
Q 20.125 39.59375 20.125 40.921875 
Q 20.515625 43.109375 21.390625 43.109375 
L 30.328125 43.109375 
L 31.5 49.609375 
Q 32.078125 52.640625 32.5625 54.8125 
Q 33.0625 56.984375 33.625 58.828125 
Q 34.1875 60.6875 35.296875 62.984375 
Q 37.015625 66.265625 39.921875 68.390625 
Q 42.828125 70.515625 46.1875 70.515625 
Q 48.390625 70.515625 50.46875 69.703125 
Q 52.546875 68.890625 53.859375 67.28125 
Q 55.171875 65.671875 55.171875 63.484375 
Q 55.171875 60.9375 53.484375 59.046875 
Q 51.8125 57.171875 49.421875 57.171875 
Q 47.796875 57.171875 46.65625 58.171875 
Q 45.515625 59.1875 45.515625 60.796875 
Q 45.515625 62.984375 47 64.625 
Q 48.484375 66.265625 50.6875 66.5 
Q 48.828125 67.921875 46.09375 67.921875 
Q 44.578125 67.921875 43.234375 66.5 
Q 41.890625 65.09375 41.5 63.484375 
Q 40.875 60.9375 38.71875 49.703125 
L 37.5 43.109375 
L 47.796875 43.109375 
Q 48.78125 43.109375 48.78125 41.796875 
Q 48.734375 41.546875 48.578125 40.9375 
Q 48.4375 40.328125 48.171875 39.953125 
Q 47.90625 39.59375 47.515625 39.59375 
L 36.8125 39.59375 
L 32.171875 15.1875 
Q 31.296875 9.859375 30.140625 4.359375 
Q 29 -1.125 26.921875 -6.90625 
Q 24.859375 -12.703125 21.625 -16.609375 
Q 18.40625 -20.515625 14.015625 -20.515625 
Q 10.640625 -20.515625 7.984375 -18.578125 
Q 5.328125 -16.65625 5.328125 -13.484375 
Q 5.328125 -10.9375 6.953125 -9.046875 
Q 8.59375 -7.171875 11.078125 -7.171875 
Q 12.75 -7.171875 13.859375 -8.171875 
Q 14.984375 -9.1875 14.984375 -10.796875 
Q 14.984375 -12.9375 13.390625 -14.71875 
Q 11.8125 -16.5 9.71875 -16.5 
z
" id="Cmmi10-102"/>
     </defs>
     <use transform="translate(0 0.484375)" xlink:href="#Cmmi10-102"/>
    </g>
   </g>
   <g id="text_7">
    <!-- $g$ -->
    <g transform="translate(289.015385 174.678125)scale(0.2 -0.2)">
     <defs>
      <path d="M 1.421875 -14.3125 
Q 1.421875 -11.859375 3.09375 -10.03125 
Q 4.78125 -8.203125 7.171875 -8.203125 
Q 8.796875 -8.203125 9.890625 -9.203125 
Q 10.984375 -10.203125 10.984375 -11.8125 
Q 10.984375 -13.625 9.953125 -15.0625 
Q 8.9375 -16.5 7.328125 -17.09375 
Q 10.015625 -17.921875 15.71875 -17.921875 
Q 20.3125 -17.921875 24.125 -14.375 
Q 27.9375 -10.84375 29.109375 -6.203125 
L 31.984375 5.515625 
Q 26.5625 0 20.703125 0 
Q 16.40625 0 13.34375 2.1875 
Q 10.296875 4.390625 8.6875 8.046875 
Q 7.078125 11.71875 7.078125 15.828125 
Q 7.078125 20.40625 8.953125 25.4375 
Q 10.84375 30.46875 14.234375 34.765625 
Q 17.625 39.0625 22.015625 41.625 
Q 26.421875 44.1875 31.296875 44.1875 
Q 34.234375 44.1875 36.578125 42.578125 
Q 38.921875 40.96875 40.28125 38.28125 
Q 41.265625 42.1875 44.578125 42.1875 
Q 45.84375 42.1875 46.71875 41.421875 
Q 47.609375 40.671875 47.609375 39.40625 
Q 47.609375 39.109375 47.578125 38.953125 
Q 47.5625 38.8125 47.515625 38.625 
L 36.078125 -6.78125 
Q 35.296875 -9.90625 33.203125 -12.5 
Q 31.109375 -15.09375 28.265625 -16.828125 
Q 25.4375 -18.5625 22.0625 -19.53125 
Q 18.703125 -20.515625 15.578125 -20.515625 
Q 9.859375 -20.515625 5.640625 -19.40625 
Q 1.421875 -18.3125 1.421875 -14.3125 
z
M 20.90625 2.59375 
Q 27.296875 2.59375 33.5 11.375 
L 39.015625 33.203125 
Q 38.328125 36.671875 36.28125 39.140625 
Q 34.234375 41.609375 31.109375 41.609375 
Q 27.78125 41.609375 24.828125 38.890625 
Q 21.875 36.1875 19.921875 32.421875 
Q 18.0625 28.8125 16.328125 22.046875 
Q 14.59375 15.28125 14.59375 11.375 
Q 14.59375 7.953125 16.15625 5.265625 
Q 17.71875 2.59375 20.90625 2.59375 
z
" id="Cmmi10-103"/>
     </defs>
     <use transform="translate(0 0.8125)" xlink:href="#Cmmi10-103"/>
    </g>
   </g>
   <g id="text_8">
    <!-- $h$ -->
    <g transform="translate(101.092308 237.026442)scale(0.2 -0.2)">
     <defs>
      <path d="M 5.328125 1.8125 
Q 5.328125 2.390625 5.421875 2.6875 
L 19.921875 60.5 
Q 20.3125 62.203125 20.40625 63.1875 
Q 20.40625 64.796875 13.921875 64.796875 
Q 12.890625 64.796875 12.890625 66.109375 
Q 12.9375 66.359375 13.109375 66.984375 
Q 13.28125 67.625 13.546875 67.96875 
Q 13.8125 68.3125 14.3125 68.3125 
L 27.78125 69.390625 
L 28.078125 69.390625 
Q 28.078125 69.28125 28.421875 69.109375 
Q 28.765625 68.953125 28.8125 68.890625 
Q 29 68.40625 29 68.109375 
L 21.1875 36.921875 
Q 27.34375 44.1875 35.796875 44.1875 
Q 39.3125 44.1875 41.875 42.96875 
Q 44.4375 41.75 45.875 39.28125 
Q 47.3125 36.8125 47.3125 33.40625 
Q 47.3125 29.296875 45.484375 23.484375 
Q 43.65625 17.671875 40.921875 10.5 
Q 39.5 7.234375 39.5 4.5 
Q 39.5 1.515625 41.796875 1.515625 
Q 45.703125 1.515625 48.3125 5.6875 
Q 50.921875 9.859375 52 14.703125 
Q 52.203125 15.28125 52.78125 15.28125 
L 54 15.28125 
Q 54.390625 15.28125 54.640625 15.015625 
Q 54.890625 14.75 54.890625 14.40625 
Q 54.890625 14.3125 54.78125 14.109375 
Q 53.90625 10.5 52.171875 7 
Q 50.4375 3.515625 47.796875 1.1875 
Q 45.171875 -1.125 41.609375 -1.125 
Q 38.09375 -1.125 35.59375 1.296875 
Q 33.109375 3.71875 33.109375 7.171875 
Q 33.109375 9.03125 33.890625 11.078125 
Q 36.71875 18.609375 38.59375 24.515625 
Q 40.484375 30.421875 40.484375 34.90625 
Q 40.484375 37.796875 39.359375 39.703125 
Q 38.234375 41.609375 35.59375 41.609375 
Q 30.21875 41.609375 26.21875 38.3125 
Q 22.21875 35.015625 19.28125 29.59375 
L 12.5 2.296875 
Q 12.109375 0.78125 10.984375 -0.171875 
Q 9.859375 -1.125 8.40625 -1.125 
Q 7.125 -1.125 6.21875 -0.265625 
Q 5.328125 0.59375 5.328125 1.8125 
z
" id="Cmmi10-104"/>
     </defs>
     <use transform="translate(0 0.609375)" xlink:href="#Cmmi10-104"/>
    </g>
   </g>
   <g id="text_9">
    <!-- $i$ -->
    <g transform="translate(228.007692 305.564904)scale(0.2 -0.2)">
     <defs>
      <path d="M 7.8125 7.171875 
Q 7.8125 9.03125 8.59375 11.078125 
L 16.703125 32.625 
Q 18.015625 36.28125 18.015625 38.625 
Q 18.015625 41.609375 15.828125 41.609375 
Q 11.859375 41.609375 9.296875 37.53125 
Q 6.734375 33.453125 5.515625 28.421875 
Q 5.328125 27.78125 4.6875 27.78125 
L 3.515625 27.78125 
Q 2.6875 27.78125 2.6875 28.71875 
L 2.6875 29 
Q 4.296875 34.96875 7.609375 39.578125 
Q 10.9375 44.1875 16.015625 44.1875 
Q 19.578125 44.1875 22.046875 41.84375 
Q 24.515625 39.5 24.515625 35.890625 
Q 24.515625 34.03125 23.6875 31.984375 
L 15.578125 10.5 
Q 14.203125 7.171875 14.203125 4.5 
Q 14.203125 1.515625 16.5 1.515625 
Q 20.40625 1.515625 23.015625 5.6875 
Q 25.640625 9.859375 26.703125 14.703125 
Q 26.90625 15.28125 27.484375 15.28125 
L 28.71875 15.28125 
Q 29.109375 15.28125 29.34375 15.015625 
Q 29.59375 14.75 29.59375 14.40625 
Q 29.59375 14.3125 29.5 14.109375 
Q 28.125 8.453125 24.734375 3.65625 
Q 21.34375 -1.125 16.3125 -1.125 
Q 12.796875 -1.125 10.296875 1.296875 
Q 7.8125 3.71875 7.8125 7.171875 
z
M 19.09375 60.59375 
Q 19.09375 62.703125 20.84375 64.40625 
Q 22.609375 66.109375 24.703125 66.109375 
Q 26.421875 66.109375 27.515625 65.0625 
Q 28.609375 64.015625 28.609375 62.40625 
Q 28.609375 60.15625 26.828125 58.46875 
Q 25.046875 56.78125 22.90625 56.78125 
Q 21.296875 56.78125 20.1875 57.875 
Q 19.09375 58.984375 19.09375 60.59375 
z
" id="Cmmi10-105"/>
     </defs>
     <use transform="translate(0 0.890625)" xlink:href="#Cmmi10-105"/>
    </g>
   </g>
   <g id="text_10">
    <!-- $j$ -->
    <g transform="translate(289.615385 299.29351)scale(0.2 -0.2)">
     <defs>
      <path d="M -1.3125 -14.203125 
Q -1.3125 -11.765625 0.359375 -9.984375 
Q 2.046875 -8.203125 4.5 -8.203125 
Q 6.109375 -8.203125 7.203125 -9.203125 
Q 8.296875 -10.203125 8.296875 -11.8125 
Q 8.296875 -13.71875 7.09375 -15.25 
Q 5.90625 -16.796875 4.109375 -17.28125 
Q 5.859375 -17.921875 7.625 -17.921875 
Q 11.859375 -17.921875 14.984375 -13.984375 
Q 18.109375 -10.0625 19.390625 -5.171875 
L 28.8125 32.421875 
Q 29.5 35.296875 29.5 37.3125 
Q 29.5 41.609375 26.515625 41.609375 
Q 22.125 41.609375 18.828125 37.625 
Q 15.53125 33.640625 13.484375 28.421875 
Q 13.28125 27.78125 12.703125 27.78125 
L 11.53125 27.78125 
Q 10.6875 27.78125 10.6875 28.71875 
L 10.6875 29 
Q 12.9375 35.015625 17.078125 39.59375 
Q 21.234375 44.1875 26.703125 44.1875 
Q 30.859375 44.1875 33.515625 41.59375 
Q 36.1875 39.015625 36.1875 35.015625 
Q 36.1875 33.59375 35.890625 32.171875 
L 26.421875 -5.8125 
Q 25.390625 -9.859375 22.5 -13.234375 
Q 19.625 -16.609375 15.625 -18.5625 
Q 11.625 -20.515625 7.421875 -20.515625 
Q 4.046875 -20.515625 1.359375 -18.890625 
Q -1.3125 -17.28125 -1.3125 -14.203125 
z
M 30.328125 60.59375 
Q 30.328125 62.796875 32.03125 64.453125 
Q 33.734375 66.109375 35.890625 66.109375 
Q 37.59375 66.109375 38.6875 65.0625 
Q 39.796875 64.015625 39.796875 62.40625 
Q 39.796875 60.15625 38.015625 58.46875 
Q 36.234375 56.78125 34.078125 56.78125 
Q 32.46875 56.78125 31.390625 57.90625 
Q 30.328125 59.03125 30.328125 60.59375 
z
" id="Cmmi10-106"/>
     </defs>
     <use transform="translate(0 0.890625)" xlink:href="#Cmmi10-106"/>
    </g>
   </g>
  </g>
 </g>
 <defs>
  <clipPath id="pb6923f3d78">
   <rect height="324" width="324" x="7.2" y="7.2"/>
  </clipPath>
 </defs>
</svg>
