<?xml version="1.0" encoding="utf-8" standalone="no"?>
<!DOCTYPE svg PUBLIC "-//W3C//DTD SVG 1.1//EN"
  "http://www.w3.org/Graphics/SVG/1.1/DTD/svg11.dtd">
<svg xmlns:xlink="http://www.w3.org/1999/xlink" width="338.4pt" height="338.4pt" viewBox="0 0 338.4 338.4" xmlns="http://www.w3.org/2000/svg" version="1.1">
 <metadata>
  <rdf:RDF xmlns:dc="http://purl.org/dc/elements/1.1/" xmlns:cc="http://creativecommons.org/ns#" xmlns:rdf="http://www.w3.org/1999/02/22-rdf-syntax-ns#">
   <cc:Work>
    <dc:type rdf:resource="http://purl.org/dc/dcmitype/StillImage"/>
    <dc:date>2024-12-01T17:05:10.103542</dc:date>
    <dc:format>image/svg+xml</dc:format>
    <dc:creator>
     <cc:Agent>
      <dc:title>Matplotlib v3.6.3, https://matplotlib.org/</dc:title>
     </cc:Agent>
    </dc:creator>
   </cc:Work>
  </rdf:RDF>
 </metadata>
 <defs>
  <style type="text/css">*{stroke-linejoin: round; stroke-linecap: butt}</style>
 </defs>
 <g id="figure_1">
  <g id="patch_1">
   <path d="M -0 338.4 
L 338.4 338.4 
L 338.4 0 
L -0 0 
z
" style="fill: #ffffff"/>
  </g>
  <g id="axes_1">
   <g id="patch_2">
    <path d="M 7.2 331.2 
L 331.2 331.2 
L 331.2 7.2 
L 7.2 7.2 
z
" style="fill: #ffffff"/>
   </g>
   <g id="patch_3">
    <path d="M 13.430769 324.969231 
L 13.430769 13.430769 
L 324.969231 13.430769 
L 324.969231 324.969231 
L 13.430769 324.969231 
z
" clip-path="url(#pc1d1913a8b)" style="fill: none; stroke: #000000; stroke-linejoin: miter"/>
   </g>
   <g id="patch_4">
    <path d="M 169.2 169.2 
L 169.2 101.749945 
L 169.399638 101.8656 
L 169.68097 102.029928 
L 169.814838 102.108678 
L 169.887661 102.151667 
L 170.201102 102.337923 
L 170.46328 102.495247 
L 170.525045 102.532515 
L 170.862455 102.73748 
L 170.897251 102.758751 
L 171.190474 102.938996 
L 171.294145 103.003151 
L 171.507656 103.135987 
L 171.819101 103.331475 
L 172.02179 103.459804 
L 172.19041 103.56723 
L 172.2988 103.636607 
L 172.490427 103.759879 
L 172.628659 103.849296 
L 172.940115 104.05229 
L 173.200549 104.223663 
L 173.223985 104.239158 
L 173.518084 104.43464 
L 173.771218 104.60444 
L 173.798894 104.623092 
L 174.072633 104.808507 
L 174.191828 104.889775 
L 174.445697 105.063945 
L 174.686613 105.230598 
L 174.858765 105.350508 
L 175.113629 105.529298 
L 175.185526 105.58001 
L 175.422064 105.747712 
L 175.592336 105.869254 
L 175.89523 106.087177 
L 176.051791 106.200684 
L 176.160708 106.279999 
L 176.388659 106.446934 
L 176.586833 106.593099 
L 176.921446 106.842102 
L 177.041585 106.932186 
L 177.27805 107.110554 
L 177.513841 107.289825 
L 177.652234 107.395706 
L 177.839987 107.540138 
L 178.094316 107.737241 
L 178.238892 107.850039 
L 178.407383 107.982187 
L 178.62737 108.155856 
L 178.868475 108.347678 
L 179.018745 108.468023 
L 179.107871 108.539689 
L 179.347205 108.733207 
L 179.626413 108.960953 
L 179.744599 109.058006 
L 179.952728 109.229868 
L 180.176775 109.416235 
L 180.438818 109.636018 
L 180.570226 109.746974 
L 180.83032 109.968061 
L 180.951284 110.071554 
L 181.190742 110.277697 
L 181.415175 110.472449 
L 181.62545 110.656283 
L 181.632182 110.66219 
L 181.920326 110.916335 
L 182.184184 111.15129 
L 182.337662 111.288947 
L 182.442789 111.383661 
L 182.790204 111.699144 
L 182.992246 111.884381 
L 183.018225 111.908295 
L 183.31888 112.186636 
L 183.405921 112.267767 
L 183.587485 112.437807 
L 183.782066 112.621252 
L 184.039083 112.865505 
L 184.251707 113.069262 
L 184.411134 113.223057 
L 184.661513 113.466369 
L 184.933482 113.733151 
L 185.136879 113.934385 
L 185.215586 114.012653 
L 185.535116 114.332708 
L 185.56557 114.363407 
L 185.894084 114.696741 
L 186.035741 114.841721 
L 186.26072 115.073535 
L 186.428306 115.24747 
L 186.569484 115.394839 
L 186.716842 115.549485 
L 187.0554 115.908033 
L 187.106662 115.96272 
L 187.384135 116.260574 
L 187.68369 116.585667 
L 187.83957 116.756309 
L 188.005945 116.939569 
L 188.219311 117.176312 
L 188.442662 117.426236 
L 188.565341 117.564437 
L 188.772283 117.799066 
L 189.029058 118.092859 
L 189.202403 118.292884 
L 189.428125 118.555423 
L 189.5665 118.717542 
L 189.723169 118.902183 
L 189.995453 119.225874 
L 190.178488 119.445487 
L 190.243427 119.523799 
L 190.501698 119.837331 
L 190.820869 120.229448 
L 190.851296 120.267103 
L 191.101485 120.578542 
L 191.40105 120.955797 
L 191.459727 121.030256 
L 191.784352 121.445592 
L 191.937531 121.643603 
L 192.184042 121.96505 
L 192.22392 122.017376 
L 192.393154 122.240467 
L 192.730089 122.689647 
L 192.926638 122.954821 
L 193.044401 123.114835 
L 193.31447 123.485057 
L 193.551622 123.813969 
L 193.613478 123.900356 
L 193.94536 124.368155 
L 194.023358 124.479164 
L 194.181146 124.704995 
L 194.420372 125.050665 
L 194.73367 125.509479 
L 194.771008 125.564631 
L 195.029803 125.949717 
L 195.275482 126.319931 
L 195.491931 126.649943 
L 195.7128 126.990497 
L 195.761163 127.065588 
L 195.980881 127.409143 
L 196.201175 127.757626 
L 196.318368 127.944693 
L 196.607684 128.41162 
L 196.741378 128.629902 
L 196.978138 129.020459 
L 197.190011 129.374406 
L 197.3591 129.659965 
L 197.528339 129.948588 
L 197.780592 130.384136 
L 197.982343 130.737227 
L 198.134247 131.005935 
L 198.345493 131.383803 
L 198.58487 131.81805 
L 198.667863 131.970148 
L 198.907216 132.413369 
L 199.111827 132.797782 
L 199.347733 133.247537 
L 199.627001 133.789376 
L 199.681732 133.896799 
L 199.828003 134.185928 
L 200.076961 134.685031 
L 200.278482 135.095715 
L 200.476013 135.504292 
L 200.679308 135.931256 
L 200.92584 136.458188 
L 201.052884 136.7338 
L 201.202174 137.061335 
L 201.351465 137.392944 
L 201.517217 137.766045 
L 201.737447 138.270113 
L 201.832441 138.490576 
L 202.039563 138.977882 
L 202.214701 139.397278 
L 202.379766 139.798983 
L 202.544831 140.207191 
L 202.601754 140.349523 
L 202.776916 140.792685 
L 202.952077 141.243968 
L 203.075739 141.567674 
L 203.248238 142.026602 
L 203.374569 142.368384 
L 203.556127 142.868408 
L 203.737685 143.37939 
L 203.890644 143.81887 
L 204.048522 144.281599 
L 204.181772 144.679729 
L 204.315022 145.085167 
L 204.461597 145.540036 
L 204.595867 145.965347 
L 204.719783 146.365588 
L 204.880754 146.897265 
L 205.041725 147.44312 
L 205.172537 147.897904 
L 205.30335 148.363433 
L 205.388122 148.671195 
L 205.472894 148.983998 
L 205.524475 149.176896 
L 205.662902 149.704676 
L 205.732115 149.974372 
L 205.801329 150.248159 
L 205.907904 150.678153 
L 206.014479 151.118998 
L 206.097404 151.47004 
L 206.197942 151.905729 
L 206.29848 152.353282 
L 206.367184 152.666442 
L 206.435889 152.98594 
L 206.504593 153.312159 
L 206.573297 153.645522 
L 206.63258 153.939271 
L 206.691863 154.239022 
L 206.748934 154.533602 
L 206.806005 154.834447 
L 206.863076 155.141961 
L 206.920147 155.45659 
L 206.96279 155.696618 
L 207.005432 155.941128 
L 207.048075 156.190371 
L 207.090718 156.444627 
L 207.134264 156.709764 
L 207.177811 156.980808 
L 207.221358 157.258161 
L 207.264905 157.542274 
L 207.308451 157.833652 
L 207.351998 158.132871 
L 207.395545 158.440584 
L 207.439091 158.757542 
L 207.473633 159.016102 
L 207.508175 159.281521 
L 207.542717 159.554364 
L 207.577259 159.83528 
L 207.599676 160.022262 
L 207.622093 160.213189 
L 207.644511 160.408319 
L 207.666928 160.607937 
L 207.689345 160.812365 
L 207.711763 161.021962 
L 207.73418 161.237138 
L 207.756597 161.458357 
L 207.778328 161.67907 
L 207.800058 161.906524 
L 207.821789 162.141371 
L 207.843519 162.384374 
L 207.86525 162.636439 
L 207.88698 162.898654 
L 207.908711 163.172343 
L 207.930441 163.459148 
L 207.943683 163.641207 
L 207.956925 163.829468 
L 207.970166 164.024605 
L 207.983408 164.22743 
L 207.99665 164.438924 
L 208.009891 164.660299 
L 208.023133 164.893078 
L 208.036374 165.139223 
L 208.042995 165.268086 
L 208.049616 165.401329 
L 208.056237 165.539431 
L 208.062858 165.682965 
L 208.069479 165.832623 
L 208.076099 165.989264 
L 208.08272 166.153964 
L 208.089341 166.328108 
L 208.095962 166.513534 
L 208.102583 166.712763 
L 208.109204 166.929426 
L 208.115824 167.169093 
L 208.122445 167.441146 
L 208.129066 167.763871 
L 208.135687 168.184482 
L 208.142308 169.2 
L 208.142308 169.2 
z
" clip-path="url(#pc1d1913a8b)" style="fill: #808080; opacity: 0.5"/>
   </g>
   <g id="patch_5">
    <path d="M 169.2 169.2 
L 169.2 236.650055 
L 169.420261 236.522407 
L 169.555389 236.44362 
L 169.866596 236.260779 
L 169.984589 236.190947 
L 170.241633 236.037847 
L 170.459165 235.907233 
L 170.563727 235.844106 
L 170.831761 235.681263 
L 170.967191 235.598419 
L 171.166354 235.475898 
L 171.316442 235.383022 
L 171.583494 235.216599 
L 171.751387 235.111203 
L 171.996271 234.956402 
L 172.071042 234.908881 
L 172.331254 234.742572 
L 172.454435 234.663335 
L 172.723341 234.489218 
L 173.005162 234.305047 
L 173.160637 234.202697 
L 173.349175 234.077865 
L 173.521901 233.96281 
L 173.662115 233.868921 
L 173.951034 233.674066 
L 174.140865 233.545011 
L 174.228217 233.48535 
L 174.434098 233.344045 
L 174.71939 233.146624 
L 174.829895 233.069649 
L 175.077052 232.896455 
L 175.210163 232.802584 
L 175.511058 232.588849 
L 175.731835 232.430654 
L 175.798866 232.382393 
L 176.047881 232.202158 
L 176.301293 232.017196 
L 176.479665 231.886064 
L 176.59751 231.798998 
L 176.754514 231.682469 
L 176.996202 231.501886 
L 177.310039 231.265208 
L 177.360959 231.226571 
L 177.712153 230.958299 
L 177.798156 230.89212 
L 177.961664 230.765773 
L 178.163815 230.608604 
L 178.320098 230.486365 
L 178.510863 230.336281 
L 178.858932 230.059944 
L 178.907031 230.021502 
L 179.270121 229.729291 
L 179.349071 229.665278 
L 179.554207 229.49815 
L 179.774661 229.317245 
L 179.882765 229.228039 
L 180.206945 228.958559 
L 180.397352 228.798892 
L 180.621469 228.609623 
L 180.809697 228.449541 
L 181.031787 228.259331 
L 181.210019 228.105634 
L 181.254308 228.067296 
L 181.605837 227.76092 
L 181.640978 227.730089 
L 181.853059 227.543221 
L 182.077466 227.343997 
L 182.326529 227.121063 
L 182.419882 227.037006 
L 182.705629 226.77801 
L 182.907977 226.593038 
L 183.163546 226.357537 
L 183.322317 226.210165 
L 183.563013 225.985175 
L 183.608235 225.94269 
L 183.79858 225.763121 
L 184.123203 225.454068 
L 184.286417 225.297328 
L 184.459663 225.129953 
L 184.747323 224.849739 
L 184.836641 224.762142 
L 185.079649 224.522386 
L 185.322046 224.281124 
L 185.447464 224.155458 
L 185.71583 223.884626 
L 185.778589 223.820905 
L 185.931495 223.665044 
L 186.304398 223.281236 
L 186.440079 223.14027 
L 186.519041 223.057905 
L 186.902642 222.654308 
L 186.964832 222.588329 
L 187.230658 222.304562 
L 187.41742 222.103487 
L 187.567204 221.941191 
L 187.88383 221.595053 
L 188.010179 221.455752 
L 188.182432 221.264747 
L 188.317284 221.114325 
L 188.516618 220.89053 
L 188.728113 220.651173 
L 189.0313 220.304563 
L 189.196824 220.113575 
L 189.268845 220.030082 
L 189.643791 219.591514 
L 189.814688 219.389417 
L 189.887363 219.303051 
L 190.077371 219.07604 
L 190.252974 218.864671 
L 190.585935 218.459684 
L 190.71087 218.306279 
L 190.853255 218.130472 
L 191.072393 217.857841 
L 191.264984 217.616151 
L 191.606139 217.183136 
L 191.667866 217.104112 
L 191.832504 216.892305 
L 192.12573 216.511302 
L 192.336538 216.234352 
L 192.527772 215.980878 
L 192.642225 215.82814 
L 192.873318 215.517349 
L 193.111999 215.192928 
L 193.228069 215.033884 
L 193.369164 214.839407 
L 193.621348 214.488635 
L 193.76931 214.280903 
L 194.037815 213.900216 
L 194.301854 213.521086 
L 194.452457 213.30267 
L 194.587196 213.105903 
L 194.915675 212.620716 
L 195.019324 212.465972 
L 195.229635 212.149504 
L 195.325026 212.004853 
L 195.520975 211.705496 
L 195.882489 211.145194 
L 195.991012 210.974921 
L 196.293416 210.495236 
L 196.493245 210.173954 
L 196.641982 209.932535 
L 196.864849 209.567065 
L 197.012029 209.323208 
L 197.279216 208.87529 
L 197.446266 208.591736 
L 197.670046 208.207536 
L 197.862863 207.872397 
L 197.999014 207.633406 
L 198.168462 207.333196 
L 198.390698 206.93469 
L 198.635683 206.488921 
L 198.843902 206.104541 
L 198.937825 205.929453 
L 199.153547 205.523194 
L 199.31898 205.207664 
L 199.555794 204.749774 
L 199.716645 204.43446 
L 199.960932 203.948694 
L 200.103307 203.661622 
L 200.312948 203.233432 
L 200.600896 202.634219 
L 200.770147 202.275776 
L 200.814838 202.180336 
L 201.014049 201.75075 
L 201.285222 201.154707 
L 201.418972 200.855735 
L 201.672792 200.27888 
L 201.814569 199.951044 
L 201.956346 199.619014 
L 202.004568 199.505101 
L 202.176389 199.095055 
L 202.348211 198.678304 
L 202.414496 198.515679 
L 202.59282 198.072871 
L 202.743425 197.692663 
L 202.894031 197.306506 
L 203.016774 196.987216 
L 203.139517 196.663666 
L 203.166466 196.592044 
L 203.312515 196.200114 
L 203.458565 195.801608 
L 203.668656 195.216221 
L 203.79465 194.857925 
L 203.907733 194.531498 
L 204.020816 194.200297 
L 204.161828 193.780319 
L 204.302839 193.352216 
L 204.390315 193.08237 
L 204.547302 192.589468 
L 204.704289 192.084877 
L 204.845135 191.621567 
L 204.926854 191.347903 
L 205.041085 190.959078 
L 205.155316 190.562567 
L 205.29698 190.059496 
L 205.438644 189.543003 
L 205.560274 189.088051 
L 205.681903 188.621683 
L 205.727771 188.442677 
L 205.79544 188.175299 
L 205.863109 187.903856 
L 205.930779 187.628165 
L 205.998448 187.348035 
L 206.060135 187.088626 
L 206.121822 186.825184 
L 206.191251 186.523623 
L 206.260681 186.216435 
L 206.33011 185.90331 
L 206.399539 185.583908 
L 206.457723 185.311135 
L 206.515906 185.033449 
L 206.600939 184.618238 
L 206.685971 184.191048 
L 206.771003 183.750826 
L 206.856036 183.29635 
L 206.90776 183.01233 
L 206.959484 182.722148 
L 207.031413 182.307596 
L 207.103343 181.87909 
L 207.139307 181.659156 
L 207.175272 181.435164 
L 207.211237 181.206885 
L 207.247202 180.974072 
L 207.283241 180.735952 
L 207.31928 180.492697 
L 207.355319 180.243968 
L 207.391359 179.989386 
L 207.421692 179.770265 
L 207.452025 179.546416 
L 207.482358 179.317525 
L 207.512691 179.083241 
L 207.53855 178.878962 
L 207.564409 178.670208 
L 207.590268 178.456675 
L 207.616127 178.238024 
L 207.641986 178.013875 
L 207.667845 177.783797 
L 207.693704 177.5473 
L 207.719563 177.303822 
L 207.738095 177.124674 
L 207.756628 176.941337 
L 207.77516 176.753506 
L 207.793693 176.560837 
L 207.812225 176.36294 
L 207.830758 176.159368 
L 207.84929 175.949608 
L 207.867823 175.733065 
L 207.884978 175.525962 
L 207.902134 175.311797 
L 207.919289 175.089799 
L 207.936444 174.859048 
L 207.953599 174.618425 
L 207.970755 174.36655 
L 207.98791 174.10169 
L 207.996488 173.963718 
L 208.005065 173.821613 
L 208.013643 173.67498 
L 208.022221 173.523361 
L 208.030798 173.36621 
L 208.039376 173.202875 
L 208.047954 173.032567 
L 208.056531 172.85431 
L 208.065109 172.666878 
L 208.073687 172.468694 
L 208.082264 172.257667 
L 208.090842 172.030928 
L 208.099419 171.784343 
L 208.107997 171.51157 
L 208.116575 171.201934 
L 208.125152 170.834617 
L 208.13373 170.355881 
L 208.142308 169.2 
L 208.142308 169.2 
z
" clip-path="url(#pc1d1913a8b)" style="fill: #808080; opacity: 0.5"/>
   </g>
   <g id="patch_6">
    <path d="M 130.257692 169.2 
L 130.257692 169.2 
L 130.262368 168.346604 
L 130.267043 167.993134 
L 130.271719 167.72192 
L 130.276394 167.493286 
L 130.28107 167.291864 
L 130.285746 167.109773 
L 130.290421 166.942331 
L 130.295097 166.786486 
L 130.299772 166.640121 
L 130.304448 166.501691 
L 130.309123 166.370032 
L 130.313799 166.244239 
L 130.318474 166.123593 
L 130.32315 166.007509 
L 130.332501 165.787186 
L 130.341852 165.580273 
L 130.351203 165.384587 
L 130.360554 165.198482 
L 130.369905 165.020676 
L 130.379256 164.850152 
L 130.388608 164.686085 
L 130.397959 164.527795 
L 130.40731 164.374712 
L 130.41674 164.225122 
L 130.42617 164.079918 
L 130.44503 163.801262 
L 130.46389 163.536363 
L 130.482751 163.283372 
L 130.501611 163.040821 
L 130.520471 162.807523 
L 130.539331 162.582498 
L 130.558191 162.364929 
L 130.577051 162.154126 
L 130.595912 161.949498 
L 130.614772 161.750537 
L 130.633632 161.556799 
L 130.652492 161.367898 
L 130.671352 161.183491 
L 130.690213 161.003276 
L 130.709073 160.82698 
L 130.731497 160.622143 
L 130.75392 160.422141 
L 130.776344 160.226652 
L 130.798768 160.035387 
L 130.843615 159.664517 
L 130.888462 159.307745 
L 130.932923 158.966512 
L 130.977384 158.636483 
L 131.024737 158.296163 
L 131.072091 157.966347 
L 131.119444 157.646137 
L 131.166797 157.334753 
L 131.200556 157.117777 
L 131.234314 156.904722 
L 131.301831 156.48959 
L 131.369349 156.087942 
L 131.436866 155.698574 
L 131.517136 155.250217 
L 131.597407 154.816277 
L 131.662678 154.47317 
L 131.727949 154.138159 
L 131.79322 153.810716 
L 131.85849 153.490368 
L 131.947755 153.062979 
L 132.037019 152.647103 
L 132.093171 152.391013 
L 132.149322 152.138951 
L 132.261624 151.64622 
L 132.377686 151.15186 
L 132.493747 150.671411 
L 132.595965 150.258949 
L 132.698183 149.85582 
L 132.740666 149.690881 
L 132.819207 149.389804 
L 132.897749 149.093542 
L 132.97629 148.801884 
L 133.054832 148.514637 
L 133.178109 148.07224 
L 133.326833 147.551487 
L 133.481764 147.023065 
L 133.636694 146.508001 
L 133.81159 145.941503 
L 133.929202 145.568912 
L 134.046815 145.202682 
L 134.117497 144.985527 
L 134.246281 144.595316 
L 134.375064 144.211861 
L 134.485487 143.888222 
L 134.616336 143.510608 
L 134.747186 143.139122 
L 134.862674 142.816129 
L 134.978163 142.497543 
L 135.081127 142.217095 
L 135.2385 141.794744 
L 135.395872 141.379693 
L 135.606836 140.8342 
L 135.808245 140.324462 
L 135.918473 140.049853 
L 136.12105 139.55288 
L 136.258819 139.220383 
L 136.511454 138.621673 
L 136.711182 138.157971 
L 136.820633 137.907318 
L 137.042256 137.406983 
L 137.23836 136.972007 
L 137.504916 136.391889 
L 137.673977 136.03032 
L 137.822885 135.715793 
L 137.994877 135.356962 
L 138.166868 135.00276 
L 138.184993 134.965697 
L 138.362913 134.604488 
L 138.540834 134.247917 
L 138.661789 134.008086 
L 138.8258 133.686129 
L 139.140658 133.078182 
L 139.204513 132.956466 
L 139.520132 132.362378 
L 139.594623 132.22395 
L 139.79993 131.845848 
L 140.076288 131.344613 
L 140.181401 131.156229 
L 140.505692 130.582626 
L 140.596906 130.423305 
L 140.821782 130.034196 
L 140.962917 129.792605 
L 141.171035 129.439946 
L 141.431111 129.005106 
L 141.515422 128.865506 
L 141.84445 128.326935 
L 141.965406 128.131387 
L 142.112633 127.895093 
L 142.410937 127.422013 
L 142.671396 127.015014 
L 142.709638 126.955722 
L 142.882441 126.689259 
L 143.088073 126.375242 
L 143.366132 125.955806 
L 143.558038 125.669718 
L 143.690541 125.473771 
L 143.888839 125.1829 
L 144.065514 124.926104 
L 144.436423 124.394045 
L 144.612295 124.145025 
L 144.794973 123.888539 
L 144.972233 123.641741 
L 145.190376 123.340786 
L 145.366118 123.100507 
L 145.508265 122.90756 
L 145.810262 122.501719 
L 145.881826 122.406349 
L 146.103548 122.112787 
L 146.33051 121.815245 
L 146.406555 121.716212 
L 146.737499 121.289012 
L 146.849946 121.145242 
L 147.093444 120.836279 
L 147.375192 120.482744 
L 147.444623 120.396267 
L 147.724804 120.049836 
L 147.945317 119.780008 
L 148.076873 119.620197 
L 148.347547 119.294089 
L 148.369185 119.268175 
L 148.705775 118.867984 
L 148.940489 118.592115 
L 149.108827 118.395852 
L 149.17359 118.320695 
L 149.409243 118.048848 
L 149.545822 117.892445 
L 149.819076 117.582038 
L 150.045771 117.327023 
L 150.225649 117.126264 
L 150.391919 116.941929 
L 150.599586 116.713349 
L 150.785082 116.510703 
L 151.088652 116.182138 
L 151.209341 116.052558 
L 151.429499 115.817693 
L 151.575863 115.662624 
L 151.850636 115.373789 
L 152.003979 115.213878 
L 152.112592 115.101162 
L 152.440029 114.76408 
L 152.640749 114.559445 
L 152.734049 114.464836 
L 153.037729 114.159118 
L 153.07246 114.124369 
L 153.378707 113.819847 
L 153.498272 113.701868 
L 153.670565 113.532752 
L 153.988609 113.223306 
L 154.177157 113.041512 
L 154.415966 112.813002 
L 154.459943 112.771133 
L 154.723425 112.521642 
L 154.908032 112.348218 
L 155.076734 112.190718 
L 155.29155 111.991515 
L 155.505738 111.794383 
L 155.621423 111.688523 
L 155.839494 111.490131 
L 156.01987 111.327167 
L 156.347937 111.033373 
L 156.429051 110.961247 
L 156.63126 110.78232 
L 156.808793 110.626256 
L 157.158553 110.321565 
L 157.286129 110.211336 
L 157.473453 110.050355 
L 157.715269 109.844064 
L 157.759068 109.806882 
L 158.121194 109.501579 
L 158.329545 109.327619 
L 158.432223 109.242342 
L 158.650031 109.062425 
L 158.816779 108.925581 
L 159.038444 108.744861 
L 159.293189 108.538835 
L 159.453915 108.409757 
L 159.639218 108.261805 
L 159.899217 108.055765 
L 159.923378 108.036709 
L 160.116114 107.885255 
L 160.450913 107.624484 
L 160.524341 107.567683 
L 160.829526 107.333094 
L 160.955428 107.237014 
L 161.27371 106.995918 
L 161.462596 106.854047 
L 161.496922 106.828361 
L 161.674331 106.696076 
L 161.987915 106.464162 
L 162.167206 106.332653 
L 162.30416 106.232726 
L 162.581245 106.031948 
L 162.645066 105.985965 
L 163.027629 105.71237 
L 163.229763 105.569216 
L 163.304499 105.516531 
L 163.622579 105.293763 
L 163.723117 105.223842 
L 163.934814 105.077377 
L 164.204105 104.892554 
L 164.385482 104.769002 
L 164.514931 104.681279 
L 164.658962 104.58412 
L 164.954561 104.386176 
L 165.099971 104.289519 
L 165.277089 104.172419 
L 165.522575 104.011261 
L 165.590297 103.967035 
L 165.962899 103.725495 
L 166.011418 103.694264 
L 166.300403 103.509298 
L 166.44465 103.417642 
L 166.624357 103.304074 
L 166.776564 103.208421 
L 167.133363 102.986106 
L 167.242627 102.918559 
L 167.352538 102.850863 
L 167.622503 102.68565 
L 167.892115 102.522153 
L 168.040438 102.432842 
L 168.242036 102.312172 
L 168.434943 102.197474 
L 168.51551 102.149793 
L 168.790384 101.988101 
L 169.04829 101.837762 
L 169.2 101.749945 
L 169.2 169.2 
z
" clip-path="url(#pc1d1913a8b)" style="fill: #808080; opacity: 0.5"/>
   </g>
   <g id="patch_7">
    <path d="M 130.257692 169.2 
L 130.257692 169.2 
L 130.265563 170.307205 
L 130.273433 170.765785 
L 130.281303 171.117639 
L 130.289174 171.414243 
L 130.297044 171.675536 
L 130.304915 171.911745 
L 130.312785 172.128946 
L 130.320655 172.331096 
L 130.328526 172.520944 
L 130.336396 172.700494 
L 130.344267 172.871257 
L 130.352137 173.034406 
L 130.360007 173.190875 
L 130.367878 173.341422 
L 130.375748 173.486671 
L 130.383619 173.627143 
L 130.391489 173.763279 
L 130.399359 173.895456 
L 130.4151 174.149195 
L 130.430841 174.390497 
L 130.446582 174.621023 
L 130.462323 174.842094 
L 130.478063 175.054782 
L 130.493804 175.259968 
L 130.509545 175.458392 
L 130.529618 175.702591 
L 130.549691 175.937886 
L 130.569764 176.16518 
L 130.589837 176.38523 
L 130.610784 176.607843 
L 130.631731 176.8239 
L 130.652679 177.033946 
L 130.673626 177.23845 
L 130.694573 177.437825 
L 130.715521 177.632436 
L 130.736468 177.822604 
L 130.757415 178.008619 
L 130.79931 178.36919 
L 130.841205 178.715924 
L 130.8831 179.050283 
L 130.924994 179.373487 
L 130.95355 179.587926 
L 130.982106 179.79795 
L 131.010661 180.003816 
L 131.039217 180.205759 
L 131.072212 180.434486 
L 131.105207 180.658553 
L 131.138202 180.878229 
L 131.171197 181.093757 
L 131.237187 181.513234 
L 131.303177 181.918543 
L 131.371079 182.322184 
L 131.43898 182.713432 
L 131.480028 182.944386 
L 131.521075 183.171402 
L 131.603171 183.614362 
L 131.672024 183.975287 
L 131.740878 184.327289 
L 131.809732 184.670978 
L 131.878585 185.006896 
L 131.935952 185.281188 
L 131.993318 185.550677 
L 132.050684 185.815599 
L 132.10805 186.076167 
L 132.206337 186.513048 
L 132.304623 186.938629 
L 132.392331 187.309509 
L 132.508609 187.78916 
L 132.624886 188.256032 
L 132.734299 188.684495 
L 132.809418 188.972937 
L 132.884537 189.25695 
L 132.959656 189.53672 
L 133.034775 189.812419 
L 133.156284 190.250167 
L 133.277793 190.678308 
L 133.38381 191.044458 
L 133.509971 191.471679 
L 133.636133 191.890157 
L 133.737831 192.221449 
L 133.839529 192.547598 
L 133.955924 192.914845 
L 134.07232 193.275928 
L 134.242036 193.791933 
L 134.329133 194.052132 
L 134.481455 194.500042 
L 134.68057 195.072503 
L 134.793223 195.390172 
L 134.905877 195.703556 
L 135.091336 196.210532 
L 135.28714 196.734303 
L 135.486798 197.256909 
L 135.696768 197.794703 
L 135.883947 198.264457 
L 136.063361 198.706588 
L 136.309956 199.301937 
L 136.571965 199.91969 
L 136.672126 200.152003 
L 136.837144 200.530287 
L 137.002161 200.903199 
L 137.190622 201.322759 
L 137.348683 201.669617 
L 137.485209 201.965648 
L 137.784248 202.602946 
L 137.943918 202.93721 
L 138.17528 203.414446 
L 138.286608 203.641175 
L 138.446027 203.96265 
L 138.591218 204.252235 
L 138.866121 204.792462 
L 139.015738 205.082178 
L 139.324224 205.670325 
L 139.457015 205.919802 
L 139.739188 206.442805 
L 139.865054 206.673056 
L 139.983022 206.8872 
L 140.291963 207.440608 
L 140.505559 207.81714 
L 140.701901 208.159015 
L 140.819578 208.362015 
L 141.092731 208.827863 
L 141.209531 209.024825 
L 141.461961 209.446051 
L 141.641425 209.741903 
L 141.777818 209.964787 
L 142.064835 210.428399 
L 142.175642 210.605463 
L 142.471397 211.072961 
L 142.587106 211.25388 
L 142.843647 211.651128 
L 142.9491 211.812897 
L 143.197671 212.190784 
L 143.299738 212.344576 
L 143.607847 212.804091 
L 143.802468 213.090755 
L 143.969768 213.335003 
L 144.087855 213.506211 
L 144.286396 213.791881 
L 144.585363 214.216976 
L 144.669615 214.335691 
L 144.950531 214.728153 
L 145.130229 214.976536 
L 145.234914 215.120291 
L 145.589533 215.602195 
L 145.706873 215.759959 
L 145.82788 215.921788 
L 146.053494 216.221192 
L 146.387974 216.659621 
L 146.540728 216.857724 
L 146.640339 216.986203 
L 146.962432 217.397885 
L 147.002354 217.448517 
L 147.375078 217.917113 
L 147.39472 217.941603 
L 147.733989 218.361452 
L 147.79553 218.436976 
L 148.123468 218.836198 
L 148.331275 219.086408 
L 148.389134 219.155696 
L 148.698811 219.523792 
L 148.803593 219.647302 
L 149.086059 219.97768 
L 149.279718 220.202048 
L 149.383785 220.321906 
L 149.66174 220.63964 
L 149.7478 220.737315 
L 149.976831 220.995663 
L 150.176289 221.218785 
L 150.37153 221.43553 
L 150.692313 221.78813 
L 150.769198 221.872 
L 150.915727 222.031163 
L 151.255168 222.396491 
L 151.342575 222.489808 
L 151.603782 222.76686 
L 151.809493 222.983151 
L 151.997657 223.179547 
L 152.117324 223.303738 
L 152.379923 223.574348 
L 152.623109 223.822631 
L 152.843858 224.046101 
L 153.020779 224.223908 
L 153.101042 224.304196 
L 153.339459 224.541314 
L 153.578963 224.777466 
L 153.722289 224.917815 
L 153.884325 225.075618 
L 154.039802 225.226174 
L 154.246399 225.424944 
L 154.462337 225.631144 
L 154.742433 225.896267 
L 154.9147 226.058026 
L 155.176511 226.301993 
L 155.281576 226.399268 
L 155.457945 226.561758 
L 155.752996 226.831358 
L 155.82588 226.897527 
L 156.024899 227.077362 
L 156.352788 227.370946 
L 156.453528 227.460479 
L 156.600308 227.590372 
L 156.932515 227.881943 
L 156.977551 227.921214 
L 157.203035 228.116923 
L 157.497914 228.37059 
L 157.655319 228.504951 
L 157.834495 228.657021 
L 158.070961 228.856295 
L 158.30369 229.05086 
L 158.401727 229.132362 
L 158.649285 229.336961 
L 158.808478 229.467625 
L 158.987039 229.61335 
L 159.202478 229.788005 
L 159.347235 229.904647 
L 159.695944 230.183303 
L 159.801332 230.266876 
L 159.925782 230.365186 
L 160.118298 230.516456 
L 160.415657 230.748193 
L 160.523897 230.831974 
L 160.866224 231.094953 
L 161.01384 231.207426 
L 161.220982 231.364318 
L 161.39818 231.497671 
L 161.581873 231.63508 
L 161.732927 231.747444 
L 161.929292 231.892667 
L 162.108415 232.024311 
L 162.32089 232.179449 
L 162.563585 232.355311 
L 162.76593 232.50085 
L 162.987181 232.658867 
L 163.135631 232.764238 
L 163.355534 232.919371 
L 163.595427 233.087313 
L 163.670539 233.139621 
L 163.858353 233.269842 
L 164.103597 233.438659 
L 164.300835 233.573431 
L 164.418062 233.653112 
L 164.761983 233.885089 
L 164.90386 233.980012 
L 165.035362 234.067592 
L 165.302219 234.24414 
L 165.525509 234.390657 
L 165.754115 234.539532 
L 165.816821 234.580169 
L 166.072294 234.744849 
L 166.174111 234.810089 
L 166.379047 234.940728 
L 166.742005 235.169904 
L 166.814108 235.215098 
L 167.034142 235.35234 
L 167.223063 235.469365 
L 167.434064 235.599189 
L 167.685474 235.75267 
L 167.799357 235.821766 
L 168.024328 235.957479 
L 168.218927 236.074038 
L 168.408587 236.1869 
L 168.554527 236.273251 
L 168.742319 236.383734 
L 169.012037 236.541185 
L 169.2 236.650055 
L 169.2 169.2 
z
" clip-path="url(#pc1d1913a8b)" style="fill: #808080; opacity: 0.5"/>
   </g>
   <g id="matplotlib.axis_1"/>
   <g id="matplotlib.axis_2"/>
   <g id="line2d_1">
    <path d="M 169.2 101.749945 
L 172.628659 103.849296 
L 176.160708 106.279999 
L 179.347205 108.733207 
L 182.442789 111.383661 
L 185.56557 114.363407 
L 188.565341 117.564437 
L 191.101485 120.578542 
L 193.613478 123.900356 
L 195.980881 127.409143 
L 198.134247 131.005935 
L 200.076961 134.685031 
L 201.832441 138.490576 
L 203.374569 142.368384 
L 204.719783 146.365588 
L 205.801329 150.248159 
L 206.691863 154.239022 
L 207.395545 158.440584 
L 207.86525 162.636439 
L 208.102583 166.712763 
L 208.142308 169.2 
L 208.142308 169.2 
" clip-path="url(#pc1d1913a8b)" style="fill: none; stroke: #0000ff; stroke-linecap: square"/>
   </g>
   <g id="line2d_2">
    <path d="M 169.2 236.650055 
L 172.723341 234.489218 
L 176.047881 232.202158 
L 179.349071 229.665278 
L 182.419882 227.037006 
L 185.447464 224.155458 
L 188.317284 221.114325 
L 191.072393 217.857841 
L 193.621348 214.488635 
L 195.991012 210.974921 
L 198.168462 207.333196 
L 200.103307 203.661622 
L 201.814569 199.951044 
L 203.312515 196.200114 
L 204.704289 192.084877 
L 205.863109 187.903856 
L 206.771003 183.750826 
L 207.452025 179.546416 
L 207.902134 175.311797 
L 208.116575 171.201934 
L 208.142308 169.2 
L 208.142308 169.2 
" clip-path="url(#pc1d1913a8b)" style="fill: none; stroke: #0000ff; stroke-linecap: square"/>
   </g>
   <g id="line2d_3">
    <path d="M 130.257692 169.2 
L 130.388608 164.686085 
L 130.731497 160.622143 
L 131.301831 156.48959 
L 132.093171 152.391013 
L 133.054832 148.514637 
L 134.246281 144.595316 
L 135.606836 140.8342 
L 137.23836 136.972007 
L 139.204513 132.956466 
L 141.171035 129.439946 
L 143.366132 125.955806 
L 145.810262 122.501719 
L 148.369185 119.268175 
L 151.209341 116.052558 
L 154.177157 113.041512 
L 157.286129 110.211336 
L 160.524341 107.567683 
L 163.934814 105.077377 
L 167.352538 102.850863 
L 169.2 101.749945 
L 169.2 101.749945 
" clip-path="url(#pc1d1913a8b)" style="fill: none; stroke: #0000ff; stroke-linecap: square"/>
   </g>
   <g id="line2d_4">
    <path d="M 130.257692 169.2 
L 130.399359 173.895456 
L 130.757415 178.008619 
L 131.303177 181.918543 
L 132.10805 186.076167 
L 133.156284 190.250167 
L 134.329133 194.052132 
L 135.696768 197.794703 
L 137.348683 201.669617 
L 139.015738 205.082178 
L 141.092731 208.827863 
L 143.299738 212.344576 
L 145.82788 215.921788 
L 148.389134 219.155696 
L 151.255168 222.396491 
L 154.039802 225.226174 
L 157.203035 228.116923 
L 160.523897 230.831974 
L 163.858353 233.269842 
L 167.434064 235.599189 
L 169.2 236.650055 
L 169.2 236.650055 
" clip-path="url(#pc1d1913a8b)" style="fill: none; stroke: #0000ff; stroke-linecap: square"/>
   </g>
   <g id="text_1">
    <!-- $\Omega$ -->
    <g transform="translate(17.569231 23.978606) scale(0.1 -0.1)">
     <defs>
      <path id="Cmr10-ad" d="M 494 0 
L 281 1063 
L 469 1063 
Q 503 878 531 736 
Q 559 594 604 536 
Q 650 478 750 459 
Q 850 441 1081 441 
L 1472 441 
Q 1378 803 1004 1386 
Q 631 1969 495 2233 
Q 359 2497 359 2913 
Q 359 3397 646 3761 
Q 934 4125 1389 4319 
Q 1844 4513 2309 4513 
Q 2772 4513 3226 4319 
Q 3681 4125 3968 3758 
Q 4256 3391 4256 2913 
Q 4256 2588 4137 2300 
Q 4019 2013 3834 1725 
Q 3650 1438 3436 1084 
Q 3222 731 3144 441 
L 3531 441 
Q 3766 441 3869 459 
Q 3972 478 4015 536 
Q 4059 594 4086 736 
Q 4113 878 4147 1063 
L 4331 1063 
L 4122 0 
L 2988 0 
Q 2925 0 2925 84 
Q 2925 409 3004 721 
Q 3084 1034 3240 1478 
Q 3397 1922 3484 2261 
Q 3572 2600 3572 2913 
Q 3572 3297 3422 3625 
Q 3272 3953 2984 4150 
Q 2697 4347 2309 4347 
Q 1725 4347 1384 3930 
Q 1044 3513 1044 2913 
Q 1047 2584 1122 2293 
Q 1197 2003 1364 1518 
Q 1531 1034 1611 721 
Q 1691 409 1691 84 
Q 1691 0 1625 0 
L 494 0 
z
" transform="scale(0.015625)"/>
     </defs>
     <use xlink:href="#Cmr10-ad" transform="translate(0 0.484375)"/>
    </g>
   </g>
   <g id="text_2">
    <!-- $A$ -->
    <g style="fill: #0000ff" transform="translate(87.565385 94.07476) scale(0.1 -0.1)">
     <defs>
      <path id="Cmmi10-41" d="M 288 0 
Q 225 0 225 84 
Q 250 225 306 225 
Q 566 225 755 328 
Q 944 431 1081 647 
Q 1094 659 1094 659 
L 3378 4513 
Q 3428 4581 3500 4581 
L 3584 4581 
Q 3603 4581 3622 4573 
Q 3641 4566 3655 4548 
Q 3669 4531 3669 4513 
L 4056 378 
Q 4056 350 4084 294 
Q 4147 225 4563 225 
Q 4628 225 4628 141 
Q 4606 56 4592 28 
Q 4578 0 4519 0 
L 2919 0 
Q 2859 0 2859 84 
Q 2894 225 2944 225 
Q 3450 225 3481 397 
L 3384 1453 
L 1806 1453 
L 1294 594 
Q 1247 525 1247 434 
Q 1247 322 1355 273 
Q 1463 225 1594 225 
Q 1656 225 1656 141 
Q 1634 50 1621 25 
Q 1609 0 1550 0 
L 288 0 
z
M 1931 1678 
L 3359 1678 
L 3169 3750 
L 1931 1678 
z
" transform="scale(0.015625)"/>
     </defs>
     <use xlink:href="#Cmmi10-41" transform="translate(0 0.421875)"/>
    </g>
   </g>
   <g id="text_3">
    <!-- $B$ -->
    <g style="fill: #ff0000" transform="translate(243.284615 94.07476) scale(0.1 -0.1)">
     <defs>
      <path id="Cmmi10-42" d="M 319 0 
Q 256 0 256 84 
Q 259 100 268 137 
Q 278 175 293 200 
Q 309 225 341 225 
Q 522 225 656 234 
Q 791 244 884 269 
Q 959 297 1006 441 
L 1881 3956 
Q 1894 4019 1894 4044 
Q 1894 4113 1819 4122 
Q 1697 4147 1356 4147 
Q 1294 4147 1294 4231 
Q 1297 4247 1306 4286 
Q 1316 4325 1333 4348 
Q 1350 4372 1375 4372 
L 3669 4372 
Q 3878 4372 4083 4320 
Q 4288 4269 4461 4156 
Q 4634 4044 4736 3876 
Q 4838 3709 4838 3488 
Q 4838 3247 4714 3040 
Q 4591 2834 4395 2681 
Q 4200 2528 3973 2429 
Q 3747 2331 3500 2284 
Q 3675 2284 3854 2215 
Q 4034 2147 4175 2028 
Q 4316 1909 4402 1743 
Q 4488 1578 4488 1388 
Q 4488 1003 4219 684 
Q 3950 366 3542 183 
Q 3134 0 2753 0 
L 319 0 
z
M 1497 275 
Q 1497 225 1716 225 
L 2631 225 
Q 2944 225 3231 398 
Q 3519 572 3692 859 
Q 3866 1147 3866 1459 
Q 3866 1650 3786 1820 
Q 3706 1991 3556 2089 
Q 3406 2188 3213 2188 
L 1966 2188 
L 1522 416 
Q 1497 328 1497 275 
z
M 2009 2356 
L 2981 2356 
Q 3288 2356 3577 2512 
Q 3866 2669 4048 2937 
Q 4231 3206 4231 3506 
Q 4231 3784 4057 3965 
Q 3884 4147 3609 4147 
L 2731 4147 
Q 2559 4147 2500 4115 
Q 2441 4084 2400 3928 
L 2009 2356 
z
" transform="scale(0.015625)"/>
     </defs>
     <use xlink:href="#Cmmi10-42" transform="translate(0 0.6875)"/>
    </g>
   </g>
   <g id="text_4">
    <!-- $A\cap B$, colorée en gris -->
    <g transform="translate(116.25 55.323077) scale(0.1 -0.1)">
     <defs>
      <path id="Cmsy10-5c" d="M 359 -25 
L 359 2472 
Q 359 2897 625 3206 
Q 891 3516 1306 3672 
Q 1722 3828 2131 3828 
Q 2434 3828 2745 3745 
Q 3056 3663 3320 3489 
Q 3584 3316 3743 3056 
Q 3903 2797 3903 2472 
L 3903 -25 
Q 3903 -75 3865 -108 
Q 3828 -141 3775 -141 
Q 3728 -141 3687 -108 
Q 3647 -75 3647 -25 
L 3647 2450 
Q 3647 2731 3508 2945 
Q 3369 3159 3151 3293 
Q 2934 3428 2662 3500 
Q 2391 3572 2131 3572 
Q 1775 3572 1426 3447 
Q 1078 3322 847 3069 
Q 616 2816 616 2450 
L 616 -25 
Q 616 -75 575 -108 
Q 534 -141 488 -141 
Q 434 -141 396 -108 
Q 359 -75 359 -25 
z
" transform="scale(0.015625)"/>
      <path id="DejaVuSans-2c" d="M 750 794 
L 1409 794 
L 1409 256 
L 897 -744 
L 494 -744 
L 750 256 
L 750 794 
z
" transform="scale(0.015625)"/>
      <path id="DejaVuSans-20" transform="scale(0.015625)"/>
      <path id="DejaVuSans-63" d="M 3122 3366 
L 3122 2828 
Q 2878 2963 2633 3030 
Q 2388 3097 2138 3097 
Q 1578 3097 1268 2742 
Q 959 2388 959 1747 
Q 959 1106 1268 751 
Q 1578 397 2138 397 
Q 2388 397 2633 464 
Q 2878 531 3122 666 
L 3122 134 
Q 2881 22 2623 -34 
Q 2366 -91 2075 -91 
Q 1284 -91 818 406 
Q 353 903 353 1747 
Q 353 2603 823 3093 
Q 1294 3584 2113 3584 
Q 2378 3584 2631 3529 
Q 2884 3475 3122 3366 
z
" transform="scale(0.015625)"/>
      <path id="DejaVuSans-6f" d="M 1959 3097 
Q 1497 3097 1228 2736 
Q 959 2375 959 1747 
Q 959 1119 1226 758 
Q 1494 397 1959 397 
Q 2419 397 2687 759 
Q 2956 1122 2956 1747 
Q 2956 2369 2687 2733 
Q 2419 3097 1959 3097 
z
M 1959 3584 
Q 2709 3584 3137 3096 
Q 3566 2609 3566 1747 
Q 3566 888 3137 398 
Q 2709 -91 1959 -91 
Q 1206 -91 779 398 
Q 353 888 353 1747 
Q 353 2609 779 3096 
Q 1206 3584 1959 3584 
z
" transform="scale(0.015625)"/>
      <path id="DejaVuSans-6c" d="M 603 4863 
L 1178 4863 
L 1178 0 
L 603 0 
L 603 4863 
z
" transform="scale(0.015625)"/>
      <path id="DejaVuSans-72" d="M 2631 2963 
Q 2534 3019 2420 3045 
Q 2306 3072 2169 3072 
Q 1681 3072 1420 2755 
Q 1159 2438 1159 1844 
L 1159 0 
L 581 0 
L 581 3500 
L 1159 3500 
L 1159 2956 
Q 1341 3275 1631 3429 
Q 1922 3584 2338 3584 
Q 2397 3584 2469 3576 
Q 2541 3569 2628 3553 
L 2631 2963 
z
" transform="scale(0.015625)"/>
      <path id="DejaVuSans-e9" d="M 3597 1894 
L 3597 1613 
L 953 1613 
Q 991 1019 1311 708 
Q 1631 397 2203 397 
Q 2534 397 2845 478 
Q 3156 559 3463 722 
L 3463 178 
Q 3153 47 2828 -22 
Q 2503 -91 2169 -91 
Q 1331 -91 842 396 
Q 353 884 353 1716 
Q 353 2575 817 3079 
Q 1281 3584 2069 3584 
Q 2775 3584 3186 3129 
Q 3597 2675 3597 1894 
z
M 3022 2063 
Q 3016 2534 2758 2815 
Q 2500 3097 2075 3097 
Q 1594 3097 1305 2825 
Q 1016 2553 972 2059 
L 3022 2063 
z
M 2469 5119 
L 3091 5119 
L 2072 3944 
L 1594 3944 
L 2469 5119 
z
" transform="scale(0.015625)"/>
      <path id="DejaVuSans-65" d="M 3597 1894 
L 3597 1613 
L 953 1613 
Q 991 1019 1311 708 
Q 1631 397 2203 397 
Q 2534 397 2845 478 
Q 3156 559 3463 722 
L 3463 178 
Q 3153 47 2828 -22 
Q 2503 -91 2169 -91 
Q 1331 -91 842 396 
Q 353 884 353 1716 
Q 353 2575 817 3079 
Q 1281 3584 2069 3584 
Q 2775 3584 3186 3129 
Q 3597 2675 3597 1894 
z
M 3022 2063 
Q 3016 2534 2758 2815 
Q 2500 3097 2075 3097 
Q 1594 3097 1305 2825 
Q 1016 2553 972 2059 
L 3022 2063 
z
" transform="scale(0.015625)"/>
      <path id="DejaVuSans-6e" d="M 3513 2113 
L 3513 0 
L 2938 0 
L 2938 2094 
Q 2938 2591 2744 2837 
Q 2550 3084 2163 3084 
Q 1697 3084 1428 2787 
Q 1159 2491 1159 1978 
L 1159 0 
L 581 0 
L 581 3500 
L 1159 3500 
L 1159 2956 
Q 1366 3272 1645 3428 
Q 1925 3584 2291 3584 
Q 2894 3584 3203 3211 
Q 3513 2838 3513 2113 
z
" transform="scale(0.015625)"/>
      <path id="DejaVuSans-67" d="M 2906 1791 
Q 2906 2416 2648 2759 
Q 2391 3103 1925 3103 
Q 1463 3103 1205 2759 
Q 947 2416 947 1791 
Q 947 1169 1205 825 
Q 1463 481 1925 481 
Q 2391 481 2648 825 
Q 2906 1169 2906 1791 
z
M 3481 434 
Q 3481 -459 3084 -895 
Q 2688 -1331 1869 -1331 
Q 1566 -1331 1297 -1286 
Q 1028 -1241 775 -1147 
L 775 -588 
Q 1028 -725 1275 -790 
Q 1522 -856 1778 -856 
Q 2344 -856 2625 -561 
Q 2906 -266 2906 331 
L 2906 616 
Q 2728 306 2450 153 
Q 2172 0 1784 0 
Q 1141 0 747 490 
Q 353 981 353 1791 
Q 353 2603 747 3093 
Q 1141 3584 1784 3584 
Q 2172 3584 2450 3431 
Q 2728 3278 2906 2969 
L 2906 3500 
L 3481 3500 
L 3481 434 
z
" transform="scale(0.015625)"/>
      <path id="DejaVuSans-69" d="M 603 3500 
L 1178 3500 
L 1178 0 
L 603 0 
L 603 3500 
z
M 603 4863 
L 1178 4863 
L 1178 4134 
L 603 4134 
L 603 4863 
z
" transform="scale(0.015625)"/>
      <path id="DejaVuSans-73" d="M 2834 3397 
L 2834 2853 
Q 2591 2978 2328 3040 
Q 2066 3103 1784 3103 
Q 1356 3103 1142 2972 
Q 928 2841 928 2578 
Q 928 2378 1081 2264 
Q 1234 2150 1697 2047 
L 1894 2003 
Q 2506 1872 2764 1633 
Q 3022 1394 3022 966 
Q 3022 478 2636 193 
Q 2250 -91 1575 -91 
Q 1294 -91 989 -36 
Q 684 19 347 128 
L 347 722 
Q 666 556 975 473 
Q 1284 391 1588 391 
Q 1994 391 2212 530 
Q 2431 669 2431 922 
Q 2431 1156 2273 1281 
Q 2116 1406 1581 1522 
L 1381 1569 
Q 847 1681 609 1914 
Q 372 2147 372 2553 
Q 372 3047 722 3315 
Q 1072 3584 1716 3584 
Q 2034 3584 2315 3537 
Q 2597 3491 2834 3397 
z
" transform="scale(0.015625)"/>
     </defs>
     <use xlink:href="#Cmmi10-41" transform="translate(0 0.015625)"/>
     <use xlink:href="#Cmsy10-5c" transform="translate(92.558594 0.015625)"/>
     <use xlink:href="#Cmmi10-42" transform="translate(176.71875 0.015625)"/>
     <use xlink:href="#DejaVuSans-2c" transform="translate(252.5 0.015625)"/>
     <use xlink:href="#DejaVuSans-20" transform="translate(284.287109 0.015625)"/>
     <use xlink:href="#DejaVuSans-63" transform="translate(316.074219 0.015625)"/>
     <use xlink:href="#DejaVuSans-6f" transform="translate(371.054688 0.015625)"/>
     <use xlink:href="#DejaVuSans-6c" transform="translate(432.236328 0.015625)"/>
     <use xlink:href="#DejaVuSans-6f" transform="translate(460.019531 0.015625)"/>
     <use xlink:href="#DejaVuSans-72" transform="translate(521.201172 0.015625)"/>
     <use xlink:href="#DejaVuSans-e9" transform="translate(562.314453 0.015625)"/>
     <use xlink:href="#DejaVuSans-65" transform="translate(623.837891 0.015625)"/>
     <use xlink:href="#DejaVuSans-20" transform="translate(685.361328 0.015625)"/>
     <use xlink:href="#DejaVuSans-65" transform="translate(717.148438 0.015625)"/>
     <use xlink:href="#DejaVuSans-6e" transform="translate(778.671875 0.015625)"/>
     <use xlink:href="#DejaVuSans-20" transform="translate(842.050781 0.015625)"/>
     <use xlink:href="#DejaVuSans-67" transform="translate(873.837891 0.015625)"/>
     <use xlink:href="#DejaVuSans-72" transform="translate(937.314453 0.015625)"/>
     <use xlink:href="#DejaVuSans-69" transform="translate(978.427734 0.015625)"/>
     <use xlink:href="#DejaVuSans-73" transform="translate(1006.210938 0.015625)"/>
    </g>
   </g>
   <g id="patch_8">
    <path d="M 130.257692 247.084615 
C 150.912934 247.084615 170.724971 238.878201 185.330432 224.27274 
C 199.935893 209.667278 208.142308 189.855241 208.142308 169.2 
C 208.142308 148.544759 199.935893 128.732722 185.330432 114.12726 
C 170.724971 99.521799 150.912934 91.315385 130.257692 91.315385 
C 109.602451 91.315385 89.790414 99.521799 75.184953 114.12726 
C 60.579491 128.732722 52.373077 148.544759 52.373077 169.2 
C 52.373077 189.855241 60.579491 209.667278 75.184953 224.27274 
C 89.790414 238.878201 109.602451 247.084615 130.257692 247.084615 
L 130.257692 247.084615 
z
" clip-path="url(#pc1d1913a8b)" style="fill: none; stroke: #0000ff; stroke-linejoin: miter"/>
   </g>
   <g id="patch_9">
    <path d="M 208.142308 247.084615 
C 228.797549 247.084615 248.609586 238.878201 263.215047 224.27274 
C 277.820509 209.667278 286.026923 189.855241 286.026923 169.2 
C 286.026923 148.544759 277.820509 128.732722 263.215047 114.12726 
C 248.609586 99.521799 228.797549 91.315385 208.142308 91.315385 
C 187.487066 91.315385 167.675029 99.521799 153.069568 114.12726 
C 138.464107 128.732722 130.257692 148.544759 130.257692 169.2 
C 130.257692 189.855241 138.464107 209.667278 153.069568 224.27274 
C 167.675029 238.878201 187.487066 247.084615 208.142308 247.084615 
L 208.142308 247.084615 
z
" clip-path="url(#pc1d1913a8b)" style="fill: none; stroke: #ff0000; stroke-linejoin: miter"/>
   </g>
  </g>
 </g>
 <defs>
  <clipPath id="pc1d1913a8b">
   <rect x="7.2" y="7.2" width="324" height="324"/>
  </clipPath>
 </defs>
</svg>
