<?xml version="1.0" encoding="utf-8" standalone="no"?>
<!DOCTYPE svg PUBLIC "-//W3C//DTD SVG 1.1//EN"
  "http://www.w3.org/Graphics/SVG/1.1/DTD/svg11.dtd">
<!-- Created with matplotlib (https://matplotlib.org/) -->
<svg height="338.4pt" version="1.1" viewBox="0 0 338.4 338.4" width="338.4pt" xmlns="http://www.w3.org/2000/svg" xmlns:xlink="http://www.w3.org/1999/xlink">
 <metadata>
  <rdf:RDF xmlns:cc="http://creativecommons.org/ns#" xmlns:dc="http://purl.org/dc/elements/1.1/" xmlns:rdf="http://www.w3.org/1999/02/22-rdf-syntax-ns#">
   <cc:Work>
    <dc:type rdf:resource="http://purl.org/dc/dcmitype/StillImage"/>
    <dc:date>2024-11-18T20:48:31.969424</dc:date>
    <dc:format>image/svg+xml</dc:format>
    <dc:creator>
     <cc:Agent>
      <dc:title>Matplotlib v3.3.4, https://matplotlib.org/</dc:title>
     </cc:Agent>
    </dc:creator>
   </cc:Work>
  </rdf:RDF>
 </metadata>
 <defs>
  <style type="text/css">*{stroke-linecap:butt;stroke-linejoin:round;}</style>
 </defs>
 <g id="figure_1">
  <g id="patch_1">
   <path d="M -0 338.4 
L 338.4 338.4 
L 338.4 0 
L -0 0 
z
" style="fill:#ffffff;"/>
  </g>
  <g id="axes_1">
   <g id="patch_2">
    <path d="M 7.2 331.2 
L 331.2 331.2 
L 331.2 7.2 
L 7.2 7.2 
z
" style="fill:#ffffff;"/>
   </g>
   <g id="patch_3">
    <path clip-path="url(#p000cd66758)" d="M 13.430769 324.969231 
L 13.430769 13.430769 
L 324.969231 13.430769 
L 324.969231 324.969231 
z
" style="fill:none;stroke:#000000;stroke-linejoin:miter;"/>
   </g>
   <g id="patch_4">
    <path clip-path="url(#p000cd66758)" d="M 169.2 169.2 
L 169.2 101.749945 
L 169.371271 101.849118 
L 169.670731 102.02392 
L 169.767147 102.080582 
L 169.973957 102.202749 
L 170.093371 102.273682 
L 170.34976 102.426956 
L 170.501096 102.518055 
L 170.79196 102.694463 
L 171.053275 102.854437 
L 171.099215 102.882707 
L 171.31877 103.018422 
L 171.57233 103.176413 
L 171.701551 103.25745 
L 171.931158 103.402313 
L 172.071577 103.491459 
L 172.374098 103.684951 
L 172.459215 103.739747 
L 172.718768 103.907808 
L 172.974054 104.074538 
L 173.133697 104.17953 
L 173.402552 104.357619 
L 173.459422 104.395495 
L 173.768379 104.602527 
L 173.85646 104.661943 
L 174.078924 104.812788 
L 174.253 104.931608 
L 174.580184 105.156811 
L 174.599085 105.169896 
L 174.804392 105.312561 
L 175.158388 105.560854 
L 175.278806 105.645987 
L 175.461743 105.775974 
L 175.678046 105.930696 
L 175.763453 105.992096 
L 176.020039 106.177616 
L 176.28229 106.368879 
L 176.432732 106.479358 
L 176.625256 106.62155 
L 176.781933 106.737944 
L 176.962138 106.872574 
L 177.227354 107.072195 
L 177.329034 107.149197 
L 177.688189 107.423295 
L 177.742023 107.464665 
L 178.00569 107.668365 
L 178.141597 107.774069 
L 178.419214 107.991495 
L 178.620011 108.150025 
L 178.774711 108.272894 
L 179.032305 108.478912 
L 179.107555 108.539435 
L 179.318923 108.710258 
L 179.641709 108.973493 
L 179.689993 109.013116 
L 180.00225 109.270939 
L 180.163719 109.405336 
L 180.446448 109.642447 
L 180.628762 109.79656 
L 180.745578 109.895812 
L 180.984243 110.099828 
L 181.0821 110.183961 
L 181.422226 110.478592 
L 181.453816 110.506131 
L 181.746444 110.762668 
L 181.858202 110.861328 
L 182.054314 111.035378 
L 182.291054 111.247066 
L 182.599042 111.52508 
L 182.662364 111.582609 
L 182.814104 111.720987 
L 183.105316 111.98862 
L 183.2685 112.13979 
L 183.388341 112.251361 
L 183.588486 112.438748 
L 183.95859 112.788769 
L 184.153744 112.975193 
L 184.31818 113.133281 
L 184.533059 113.341269 
L 184.616281 113.422252 
L 184.839878 113.641037 
L 184.976471 113.775559 
L 185.1851 113.982311 
L 185.484658 114.281919 
L 185.699667 114.498987 
L 185.785484 114.586104 
L 185.991854 114.796723 
L 186.227682 115.039373 
L 186.502719 115.325049 
L 186.690756 115.522047 
L 186.730484 115.563845 
L 186.979483 115.827238 
L 187.177344 116.038298 
L 187.365947 116.240954 
L 187.659554 116.559336 
L 187.81853 116.733218 
L 188.007171 116.940924 
L 188.132384 117.079626 
L 188.379507 117.355348 
L 188.626883 117.634014 
L 188.73459 117.756189 
L 188.984544 118.041714 
L 189.176705 118.263145 
L 189.2674 118.368241 
L 189.570346 118.72206 
L 189.797293 118.989948 
L 189.96004 119.183573 
L 190.175699 119.442128 
L 190.272702 119.559171 
L 190.521187 119.861125 
L 190.720634 120.105744 
L 190.8519 120.26785 
L 191.207722 120.711783 
L 191.219653 120.726784 
L 191.567647 121.16769 
L 191.6345 121.253146 
L 191.944137 121.652173 
L 192.050428 121.790389 
L 192.327576 122.153822 
L 192.397051 122.245625 
L 192.688785 122.634219 
L 192.931708 122.961693 
L 193.146251 123.253918 
L 193.189326 123.312935 
L 193.392506 123.592889 
L 193.72232 124.052969 
L 193.834254 124.210733 
L 193.980046 124.41747 
L 194.225403 124.768645 
L 194.348035 124.945721 
L 194.716065 125.48351 
L 194.740354 125.519345 
L 195.102542 126.058851 
L 195.303653 126.362677 
L 195.454939 126.593282 
L 195.533373 126.713545 
L 195.831371 127.174937 
L 195.943408 127.350267 
L 196.270152 127.867585 
L 196.422769 128.112338 
L 196.657949 128.493499 
L 196.70425 128.569122 
L 196.996117 129.050331 
L 197.193244 129.379838 
L 197.306743 129.571247 
L 197.544091 129.975597 
L 197.742627 130.318167 
L 198.05259 130.861179 
L 198.214549 131.148995 
L 198.265082 131.239386 
L 198.515622 131.691757 
L 198.758192 132.136611 
L 198.918499 132.434433 
L 199.18395 132.93453 
L 199.285595 133.128377 
L 199.463059 133.470033 
L 199.747087 134.025615 
L 200.005703 134.541259 
L 200.14993 134.833034 
L 200.387938 135.321364 
L 200.475103 135.502395 
L 200.779288 136.143718 
L 200.820143 136.231017 
L 201.014701 136.650668 
L 201.308596 137.297298 
L 201.54367 137.826082 
L 201.627534 138.017328 
L 201.856567 138.546868 
L 202.029644 138.954335 
L 202.28326 139.563351 
L 202.400153 139.849042 
L 202.53885 140.192284 
L 202.677547 140.540307 
L 202.817317 140.896041 
L 202.977666 141.310598 
L 203.138014 141.732346 
L 203.237577 141.997984 
L 203.438429 142.543047 
L 203.591065 142.965867 
L 203.758948 143.439979 
L 203.92802 143.927562 
L 204.097092 144.425892 
L 204.284042 144.990233 
L 204.448183 145.498009 
L 204.58458 145.929265 
L 204.704025 146.314264 
L 204.82347 146.706486 
L 204.943124 147.107023 
L 205.062778 147.515617 
L 205.15169 147.824726 
L 205.231713 148.107122 
L 205.311736 148.393659 
L 205.421416 148.793435 
L 205.531097 149.201803 
L 205.628739 149.573011 
L 205.72638 149.951872 
L 205.850248 150.444231 
L 205.974115 150.950709 
L 206.045455 151.24928 
L 206.116795 151.55319 
L 206.188135 151.862721 
L 206.259474 152.178178 
L 206.284781 152.291565 
L 206.360155 152.634115 
L 206.435529 152.984249 
L 206.510903 153.342471 
L 206.586277 153.70934 
L 206.669656 154.126014 
L 206.753036 154.555012 
L 206.817172 154.894077 
L 206.881307 155.24167 
L 206.945442 155.598445 
L 207.009578 155.965146 
L 207.063321 156.280686 
L 207.117065 156.604357 
L 207.170808 156.936804 
L 207.224551 157.27876 
L 207.265028 157.543089 
L 207.301906 157.789371 
L 207.338784 158.041209 
L 207.375662 158.298988 
L 207.41254 158.56314 
L 207.449418 158.834153 
L 207.486296 159.112578 
L 207.523174 159.399049 
L 207.560052 159.694292 
L 207.604549 160.063418 
L 207.626797 160.253773 
L 207.649045 160.448324 
L 207.671293 160.647358 
L 207.693542 160.851194 
L 207.71579 161.060194 
L 207.738038 161.274766 
L 207.770683 161.600684 
L 207.787005 161.769055 
L 207.803328 161.941368 
L 207.81965 162.11791 
L 207.835973 162.299004 
L 207.852295 162.485021 
L 207.868617 162.67638 
L 207.88494 162.873568 
L 207.901262 163.077145 
L 207.917585 163.287773 
L 207.933907 163.506235 
L 207.95023 163.733469 
L 207.966552 163.970618 
L 207.982874 164.219099 
L 207.999197 164.480701 
L 208.008141 164.630427 
L 208.017086 164.785246 
L 208.02603 164.945715 
L 208.034975 165.112497 
L 208.043919 165.286402 
L 208.052863 165.468423 
L 208.061808 165.659814 
L 208.070752 165.862185 
L 208.079697 166.07767 
L 208.084169 166.191204 
L 208.088641 166.309201 
L 208.093113 166.432231 
L 208.097586 166.560998 
L 208.102058 166.696387 
L 208.10653 166.839537 
L 208.111002 166.991957 
L 208.115474 167.15572 
L 208.119947 167.33381 
L 208.124419 167.530805 
L 208.128891 167.754414 
L 208.133363 168.019667 
L 208.137835 168.365366 
L 208.142308 169.2 
L 208.142308 169.2 
z
" style="fill:#808080;opacity:0.5;"/>
   </g>
   <g id="patch_5">
    <path clip-path="url(#p000cd66758)" d="M 169.2 169.2 
L 169.2 236.650055 
L 169.384044 236.543462 
L 169.536975 236.454377 
L 169.807807 236.295468 
L 169.934383 236.220695 
L 170.144133 236.096077 
L 170.450777 235.912287 
L 170.541408 235.857599 
L 170.841128 235.675545 
L 170.866247 235.660203 
L 171.186066 235.463727 
L 171.340144 235.368312 
L 171.456014 235.29623 
L 171.724363 235.128208 
L 171.876205 235.03246 
L 172.224512 234.81097 
L 172.362007 234.72282 
L 172.548835 234.602389 
L 172.811235 234.431965 
L 172.970578 234.327741 
L 173.130625 234.222496 
L 173.299204 234.111028 
L 173.535509 233.953717 
L 173.708542 233.837736 
L 173.83388 233.753305 
L 174.019446 233.627651 
L 174.216745 233.493196 
L 174.448199 233.334331 
L 174.664449 233.18479 
L 174.828895 233.070347 
L 175.103432 232.877884 
L 175.173547 232.828447 
L 175.493679 232.601253 
L 175.560444 232.553563 
L 175.887455 232.318445 
L 176.108438 232.158101 
L 176.224299 232.073559 
L 176.509241 231.864245 
L 176.691022 231.729667 
L 176.883418 231.586337 
L 177.059589 231.454284 
L 177.180561 231.363154 
L 177.458662 231.152254 
L 177.569837 231.067392 
L 177.728346 230.945853 
L 177.950582 230.774358 
L 178.201516 230.579175 
L 178.349856 230.463016 
L 178.678976 230.203218 
L 178.788882 230.115819 
L 179.064237 229.895425 
L 179.252328 229.743695 
L 179.384035 229.636874 
L 179.480563 229.558283 
L 179.838557 229.264558 
L 180.005005 229.126774 
L 180.196532 228.967262 
L 180.441328 228.761867 
L 180.582754 228.642421 
L 180.828817 228.433222 
L 180.891031 228.38005 
L 181.121976 228.181675 
L 181.290975 228.035511 
L 181.585673 227.778594 
L 181.785299 227.603074 
L 181.881066 227.518442 
L 182.149308 227.279889 
L 182.385417 227.068071 
L 182.496069 226.968203 
L 182.794507 226.696925 
L 182.947584 226.556679 
L 183.140566 226.378799 
L 183.308428 226.22309 
L 183.569086 225.979474 
L 183.639466 225.91331 
L 183.851725 225.712768 
L 183.985146 225.585939 
L 184.293679 225.290333 
L 184.445742 225.143441 
L 184.719834 224.876642 
L 184.87898 224.720521 
L 185.13579 224.466697 
L 185.300781 224.302374 
L 185.469215 224.133606 
L 185.693238 223.907527 
L 185.801881 223.79722 
L 186.014659 223.579904 
L 186.254056 223.333359 
L 186.50529 223.072266 
L 186.558965 223.016169 
L 186.86947 222.689437 
L 186.993935 222.557399 
L 187.296286 222.234065 
L 187.445264 222.073386 
L 187.499504 222.01466 
L 187.823579 221.661243 
L 187.960436 221.510675 
L 188.256189 221.182571 
L 188.328993 221.101227 
L 188.526811 220.879039 
L 188.742839 220.634433 
L 188.97109 220.373726 
L 189.096532 220.229445 
L 189.360234 219.923791 
L 189.638619 219.597608 
L 189.82848 219.373047 
L 189.86163 219.33366 
L 190.163439 218.972632 
L 190.416919 218.665956 
L 190.622319 218.415091 
L 190.658689 218.370448 
L 190.950038 218.010372 
L 191.20725 217.68881 
L 191.389941 217.458279 
L 191.527423 217.283608 
L 191.797496 216.937468 
L 191.853573 216.865091 
L 192.136478 216.497243 
L 192.272796 216.318365 
L 192.397912 216.153237 
L 192.608535 215.87318 
L 192.896915 215.48543 
L 193.036501 215.295927 
L 193.333974 214.888029 
L 193.457337 214.717229 
L 193.581357 214.544534 
L 193.88797 214.113262 
L 194.096337 213.816597 
L 194.201975 213.665065 
L 194.360185 213.436679 
L 194.654198 213.007572 
L 194.917882 212.61743 
L 195.120181 212.314624 
L 195.214569 212.172287 
L 195.356132 211.957531 
L 195.700106 211.429183 
L 195.775087 211.312758 
L 196.106332 210.792907 
L 196.296007 210.491093 
L 196.476244 210.201423 
L 196.679766 209.870893 
L 196.858162 209.578098 
L 197.007456 209.330816 
L 197.218043 208.978445 
L 197.305744 208.830444 
L 197.552814 208.409436 
L 197.706382 208.144674 
L 198.036369 207.56749 
L 198.194607 207.286598 
L 198.452118 206.823577 
L 198.513534 206.712043 
L 198.843874 206.104594 
L 198.885586 206.026967 
L 199.179429 205.474061 
L 199.369401 205.110793 
L 199.582881 204.696923 
L 199.709082 204.449367 
L 199.886329 204.097941 
L 200.104082 203.660052 
L 200.281386 203.298322 
L 200.517164 202.80982 
L 200.675891 202.475976 
L 200.950296 201.888976 
L 201.119055 201.521518 
L 201.210279 201.320769 
L 201.444514 200.798255 
L 201.676265 200.270899 
L 201.912923 199.721161 
L 202.083767 199.316912 
L 202.217301 198.996443 
L 202.350836 198.671885 
L 202.558792 198.157976 
L 202.618513 198.008419 
L 202.813992 197.512483 
L 202.964401 197.123965 
L 203.11481 196.729143 
L 203.285034 196.274356 
L 203.457395 195.804828 
L 203.574962 195.479102 
L 203.739088 195.016619 
L 203.903213 194.544636 
L 203.961833 194.373655 
L 204.070104 194.054401 
L 204.178374 193.730514 
L 204.337639 193.245266 
L 204.499211 192.741671 
L 204.660782 192.225932 
L 204.769495 191.871669 
L 204.929007 191.340642 
L 205.08852 190.795384 
L 205.156445 190.558609 
L 205.29483 190.06723 
L 205.433215 189.563057 
L 205.522597 189.230162 
L 205.61198 188.891234 
L 205.689634 188.591635 
L 205.767288 188.287017 
L 205.840033 187.996889 
L 205.912778 187.701926 
L 205.985523 187.401893 
L 206.058269 187.096535 
L 206.114855 186.855144 
L 206.189037 186.533327 
L 206.263218 186.205098 
L 206.3374 185.870076 
L 206.411581 185.527846 
L 206.47428 185.232625 
L 206.536979 184.931615 
L 206.603646 184.604826 
L 206.670313 184.270657 
L 206.73698 183.928608 
L 206.803647 183.578114 
L 206.876808 183.183007 
L 206.956278 182.740319 
L 206.996013 182.513278 
L 207.035749 182.282177 
L 207.075484 182.046797 
L 207.115219 181.806897 
L 207.154955 181.562215 
L 207.19469 181.312461 
L 207.23032 181.083936 
L 207.26595 180.85082 
L 207.30158 180.612832 
L 207.33721 180.369661 
L 207.379792 180.071758 
L 207.422374 179.765286 
L 207.464956 179.449478 
L 207.507538 179.123442 
L 207.551386 178.775922 
L 207.595234 178.415098 
L 207.617158 178.2292 
L 207.639081 178.039339 
L 207.661005 177.845255 
L 207.682929 177.646654 
L 207.704533 177.446225 
L 207.726136 177.240742 
L 207.747739 177.029809 
L 207.769343 176.812973 
L 207.790946 176.589714 
L 207.812549 176.359431 
L 207.834153 176.121424 
L 207.855756 175.874865 
L 207.877359 175.618769 
L 207.898963 175.351947 
L 207.920566 175.072935 
L 207.942169 174.779905 
L 207.952971 174.627429 
L 207.963773 174.470521 
L 207.974574 174.308773 
L 207.985376 174.14171 
L 207.996178 173.968774 
L 208.006979 173.789301 
L 208.017781 173.60249 
L 208.028583 173.407366 
L 208.03569 173.273858 
L 208.042798 173.13581 
L 208.049906 172.992728 
L 208.057014 172.844019 
L 208.064122 172.688962 
L 208.07123 172.526671 
L 208.078337 172.356029 
L 208.085445 172.1756 
L 208.092553 171.983483 
L 208.096107 171.882262 
L 208.099661 171.777063 
L 208.103215 171.667378 
L 208.106769 171.55258 
L 208.110323 171.431879 
L 208.113876 171.304259 
L 208.11743 171.168377 
L 208.120984 171.022384 
L 208.124538 170.86362 
L 208.128092 170.688004 
L 208.131646 170.488664 
L 208.1352 170.252202 
L 208.138754 169.944027 
L 208.142308 169.2 
L 208.142308 169.2 
z
" style="fill:#808080;opacity:0.5;"/>
   </g>
   <g id="patch_6">
    <path clip-path="url(#p000cd66758)" d="M 130.257692 169.2 
L 130.257692 169.2 
L 130.262921 168.297566 
L 130.268149 167.923788 
L 130.273377 167.636992 
L 130.278606 167.395224 
L 130.283834 167.182233 
L 130.289062 166.989684 
L 130.294291 166.812626 
L 130.299519 166.647832 
L 130.304747 166.493063 
L 130.309976 166.346686 
L 130.315204 166.207469 
L 130.320432 166.074456 
L 130.325661 165.946885 
L 130.330889 165.82414 
L 130.341346 165.591175 
L 130.351802 165.372391 
L 130.362259 165.165482 
L 130.372716 164.968704 
L 130.383172 164.780704 
L 130.393629 164.600405 
L 130.404086 164.426935 
L 130.414542 164.259574 
L 130.424999 164.097722 
L 130.442702 163.834878 
L 130.460404 163.58438 
L 130.478107 163.344641 
L 130.495809 163.114392 
L 130.513512 162.892591 
L 130.531215 162.678377 
L 130.548917 162.471026 
L 130.56662 162.269922 
L 130.584323 162.074535 
L 130.602025 161.884407 
L 130.619728 161.699139 
L 130.63743 161.518378 
L 130.655133 161.341814 
L 130.672836 161.169171 
L 130.708241 160.834678 
L 130.736459 160.577474 
L 130.764678 160.327812 
L 130.792896 160.085074 
L 130.821115 159.84872 
L 130.84498 159.653461 
L 130.868845 159.462175 
L 130.916575 159.090624 
L 130.964305 158.73247 
L 131.012035 158.386383 
L 131.045576 158.149786 
L 131.079117 157.91825 
L 131.112657 157.691469 
L 131.146198 157.469167 
L 131.179739 157.251094 
L 131.21328 157.037022 
L 131.280362 156.620072 
L 131.333328 156.300625 
L 131.386293 155.989113 
L 131.43252 155.723286 
L 131.478747 155.462758 
L 131.524974 155.207232 
L 131.571201 154.95644 
L 131.638957 154.596896 
L 131.706713 154.2463 
L 131.774468 153.904039 
L 131.842224 153.569564 
L 131.913073 153.227616 
L 131.983921 152.893146 
L 132.068502 152.503012 
L 132.153083 152.122207 
L 132.241469 151.733577 
L 132.329854 151.353845 
L 132.411431 151.010781 
L 132.493008 150.674427 
L 132.574586 150.344426 
L 132.656163 150.020448 
L 132.736002 149.708915 
L 132.815842 149.402606 
L 132.918336 149.016656 
L 133.02083 148.638461 
L 133.171306 148.096394 
L 133.327124 147.550482 
L 133.435036 147.180989 
L 133.542947 146.818116 
L 133.683169 146.355965 
L 133.78195 146.036441 
L 133.880731 145.721681 
L 134.064238 145.148951 
L 134.247746 144.590914 
L 134.385695 144.180499 
L 134.510682 143.815022 
L 134.63567 143.455341 
L 134.764676 143.089915 
L 134.936157 142.61292 
L 135.077115 142.227959 
L 135.219498 141.845344 
L 135.361881 141.468739 
L 135.56899 140.931167 
L 135.677449 140.654291 
L 135.818912 140.297755 
L 135.960376 139.946248 
L 136.142302 139.501304 
L 136.344174 139.016539 
L 136.604294 138.405098 
L 136.704942 138.172333 
L 136.830242 137.885425 
L 137.03467 137.423952 
L 137.20411 137.047466 
L 137.37355 136.67622 
L 137.513839 136.372683 
L 137.754028 135.860783 
L 137.939371 135.472251 
L 138.072304 135.196942 
L 138.19705 134.941071 
L 138.361688 134.606959 
L 138.526326 134.276821 
L 138.768072 133.79903 
L 138.947522 133.449546 
L 139.073698 133.206383 
L 139.193224 132.977947 
L 139.506167 132.388405 
L 139.65257 132.116727 
L 139.825592 131.798935 
L 140.025209 131.436602 
L 140.334499 130.88402 
L 140.516861 130.563071 
L 140.701617 130.241476 
L 140.803559 130.065537 
L 140.950856 129.813173 
L 141.223512 129.351686 
L 141.446746 128.979167 
L 141.592361 128.738687 
L 141.764158 128.45746 
L 141.99876 128.077689 
L 142.112441 127.895399 
L 142.476396 127.3192 
L 142.54611 127.210094 
L 142.877267 126.697203 
L 142.980103 126.539709 
L 143.103975 126.351096 
L 143.458146 125.818292 
L 143.50476 125.74887 
L 143.732819 125.411519 
L 144.010325 125.006085 
L 144.091763 124.888139 
L 144.380667 124.473425 
L 144.518809 124.277136 
L 144.669041 124.065116 
L 144.850504 123.811005 
L 145.222587 123.296601 
L 145.38759 123.071281 
L 145.44712 122.990405 
L 145.633836 122.738142 
L 146.008445 122.238352 
L 146.013062 122.232243 
L 146.332688 121.812405 
L 146.53804 121.54575 
L 146.687423 121.353261 
L 146.93959 121.031123 
L 147.020257 120.928805 
L 147.207336 120.69286 
L 147.569679 120.24114 
L 147.727995 120.045914 
L 147.856845 119.88797 
L 148.094743 119.598555 
L 148.190618 119.482717 
L 148.396905 119.235011 
L 148.734258 118.834368 
L 148.926982 118.607921 
L 148.999057 118.523682 
L 149.282236 118.195046 
L 149.350924 118.115887 
L 149.626847 117.800057 
L 149.801707 117.60167 
L 150.070983 117.2988 
L 150.200808 117.153906 
L 150.411558 116.920234 
L 150.647417 116.660959 
L 150.736786 116.563326 
L 151.036647 116.238157 
L 151.168291 116.096566 
L 151.363633 115.887756 
L 151.651249 115.583085 
L 151.856324 115.36784 
L 152.006014 115.211762 
L 152.231675 114.978099 
L 152.3028 114.904856 
L 152.646794 114.553305 
L 152.744678 114.454078 
L 152.933608 114.263557 
L 153.090783 114.106054 
L 153.425268 113.773843 
L 153.595672 113.606135 
L 153.804634 113.401877 
L 153.883463 113.32522 
L 154.053149 113.16094 
L 154.251313 112.970346 
L 154.605015 112.633476 
L 154.712237 112.532189 
L 154.833166 112.418412 
L 155.039298 112.225588 
L 155.298828 111.984793 
L 155.529793 111.772336 
L 155.742381 111.578294 
L 155.87017 111.462344 
L 156.068592 111.283323 
L 156.323326 111.055297 
L 156.404612 110.982956 
L 156.742002 110.684858 
L 156.859128 110.58218 
L 156.998008 110.460967 
L 157.21001 110.277047 
L 157.427197 110.090011 
L 157.58422 109.95565 
L 157.927821 109.66414 
L 158.133636 109.491156 
L 158.292247 109.35867 
L 158.512138 109.176175 
L 158.718758 109.00593 
L 158.868079 108.883637 
L 158.929028 108.833896 
L 159.288771 108.542393 
L 159.424201 108.433567 
L 159.533415 108.346168 
L 159.84713 108.096897 
L 160.042123 107.943282 
L 160.191124 107.826575 
L 160.39769 107.665743 
L 160.637946 107.480077 
L 160.862456 107.307925 
L 161.020295 107.187669 
L 161.172714 107.072143 
L 161.457315 106.858002 
L 161.555447 106.784635 
L 161.759107 106.63314 
L 162.006856 106.450232 
L 162.146912 106.347499 
L 162.307236 106.230487 
L 162.613148 106.008949 
L 162.784953 105.885518 
L 162.894359 105.807284 
L 163.220036 105.576083 
L 163.421008 105.43466 
L 163.560375 105.337142 
L 163.663783 105.265079 
L 163.902063 105.099969 
L 164.042588 105.003209 
L 164.243129 104.865908 
L 164.497012 104.6934 
L 164.703743 104.554007 
L 164.983867 104.366657 
L 165.137692 104.264522 
L 165.219311 104.210542 
L 165.534388 104.003539 
L 165.648432 103.92915 
L 165.903921 103.763527 
L 166.147024 103.607245 
L 166.257645 103.536553 
L 166.535293 103.360273 
L 166.710849 103.249658 
L 166.763574 103.216565 
L 167.139448 102.982337 
L 167.187476 102.952622 
L 167.413807 102.813235 
L 167.726615 102.622338 
L 167.758363 102.603075 
L 168.077915 102.410347 
L 168.309703 102.271852 
L 168.38945 102.224455 
L 168.6344 102.079671 
L 168.844281 101.956573 
L 169.087114 101.815245 
L 169.2 101.749945 
L 169.2 169.2 
z
" style="fill:#808080;opacity:0.5;"/>
   </g>
   <g id="patch_7">
    <path clip-path="url(#p000cd66758)" d="M 130.257692 169.2 
L 130.257692 169.2 
L 130.265296 170.288313 
L 130.2729 170.739069 
L 130.280505 171.084921 
L 130.288109 171.376466 
L 130.295713 171.633303 
L 130.303317 171.865485 
L 130.310921 172.078983 
L 130.318525 172.277687 
L 130.326129 172.4643 
L 130.333733 172.64079 
L 130.341337 172.808643 
L 130.348941 172.969013 
L 130.356545 173.122817 
L 130.364149 173.2708 
L 130.371754 173.413576 
L 130.379358 173.551656 
L 130.394566 173.815403 
L 130.409774 174.064824 
L 130.424982 174.302021 
L 130.44019 174.528627 
L 130.455398 174.74594 
L 130.470607 174.955012 
L 130.485815 175.156713 
L 130.501023 175.351765 
L 130.515816 175.5357 
L 130.530609 175.714411 
L 130.545402 175.888315 
L 130.560195 176.057778 
L 130.589781 176.384633 
L 130.619367 176.697134 
L 130.641103 176.918585 
L 130.662838 177.133797 
L 130.684574 177.343265 
L 130.706309 177.547423 
L 130.728045 177.746649 
L 130.74978 177.941282 
L 130.771516 178.131622 
L 130.793251 178.317938 
L 130.81652 178.513213 
L 130.83979 178.704421 
L 130.886328 179.075572 
L 130.932866 179.433058 
L 130.979405 179.778266 
L 131.020207 180.071751 
L 131.06101 180.357369 
L 131.101813 180.63571 
L 131.142616 180.907294 
L 131.183418 181.17258 
L 131.224221 181.431977 
L 131.265024 181.685854 
L 131.305827 181.934539 
L 131.347956 182.186183 
L 131.390086 182.432908 
L 131.432216 182.674984 
L 131.474346 182.912658 
L 131.55475 183.354833 
L 131.635154 183.783164 
L 131.705917 184.149631 
L 131.77668 184.506999 
L 131.852047 184.878312 
L 131.927414 185.240677 
L 132.002781 185.594689 
L 132.078148 185.940878 
L 132.184179 186.415575 
L 132.252487 186.714237 
L 132.320796 187.007629 
L 132.389104 187.296008 
L 132.457413 187.579608 
L 132.536985 187.904237 
L 132.616557 188.222994 
L 132.748373 188.738883 
L 132.868476 189.196589 
L 132.988579 189.643345 
L 133.096834 190.037231 
L 133.19994 190.405066 
L 133.303046 190.766135 
L 133.393534 191.077708 
L 133.484022 191.384536 
L 133.57451 191.686814 
L 133.664997 191.984722 
L 133.708474 192.126355 
L 133.869244 192.641957 
L 134.030014 193.145381 
L 134.127394 193.444708 
L 134.224774 193.739998 
L 134.375019 194.188006 
L 134.542848 194.678086 
L 134.733268 195.221648 
L 134.870112 195.604519 
L 135.006956 195.981218 
L 135.096204 196.223694 
L 135.244843 196.622125 
L 135.393482 197.014055 
L 135.577969 197.491873 
L 135.669454 197.725407 
L 135.814599 198.091449 
L 135.959743 198.452191 
L 136.158391 198.937669 
L 136.311804 199.306345 
L 136.442724 199.61682 
L 136.619526 200.030262 
L 136.796329 200.437231 
L 136.846144 200.550764 
L 137.006134 200.912113 
L 137.166124 201.268593 
L 137.347313 201.66663 
L 137.552203 202.109731 
L 137.763753 202.559742 
L 137.836663 202.713127 
L 138.008321 203.07089 
L 138.179979 203.424054 
L 138.342034 203.753366 
L 138.513564 204.097727 
L 138.65432 204.377165 
L 138.927088 204.910876 
L 139.142327 205.325005 
L 139.197808 205.430779 
L 139.524896 206.046493 
L 139.579931 206.148801 
L 139.859443 206.662831 
L 139.969751 206.863189 
L 140.318881 207.488329 
L 140.51491 207.833513 
L 140.661148 208.088383 
L 140.764221 208.266697 
L 141.092687 208.827789 
L 141.21096 209.027227 
L 141.451561 209.428816 
L 141.600297 209.674364 
L 141.731557 209.889377 
L 141.947921 210.240425 
L 142.098929 210.482993 
L 142.448186 211.036535 
L 142.545542 211.189018 
L 142.722763 211.464601 
L 142.907125 211.748611 
L 143.189846 212.178961 
L 143.402351 212.498399 
L 143.484646 212.621194 
L 143.725914 212.978323 
L 144.016194 213.40243 
L 144.152817 213.599982 
L 144.308196 213.823083 
L 144.478544 214.065783 
L 144.72485 214.413266 
L 144.900353 214.658426 
L 145.105661 214.942699 
L 145.417243 215.369033 
L 145.595659 215.610452 
L 145.710338 215.764605 
L 145.961583 216.099582 
L 146.161593 216.363591 
L 146.364977 216.629681 
L 146.533936 216.848943 
L 146.766986 217.148756 
L 146.865835 217.275016 
L 146.994391 217.438425 
L 147.315111 217.842219 
L 147.545038 218.128358 
L 147.595009 218.190182 
L 147.83583 218.486327 
L 148.143912 218.860909 
L 148.22418 218.957726 
L 148.370849 219.133816 
L 148.661511 219.4797 
L 148.855723 219.708555 
L 149.106425 220.001357 
L 149.287385 220.210895 
L 149.340045 220.27159 
L 149.575378 220.54129 
L 149.805816 220.802975 
L 150.103678 221.137759 
L 150.21131 221.257784 
L 150.419506 221.488541 
L 150.571664 221.656022 
L 150.747798 221.848681 
L 151.029906 222.154574 
L 151.145151 222.278597 
L 151.362408 222.51094 
L 151.647305 222.812759 
L 151.874183 223.050826 
L 151.966895 223.147533 
L 152.109404 223.295536 
L 152.44782 223.643892 
L 152.638367 223.838135 
L 152.73262 223.933717 
L 152.952974 224.155898 
L 153.157718 224.360749 
L 153.393269 224.594549 
L 153.552731 224.7517 
L 153.662014 224.85888 
L 153.849744 225.042016 
L 154.108269 225.29221 
L 154.270987 225.448504 
L 154.55834 225.722312 
L 154.706845 225.862727 
L 154.972303 226.111896 
L 155.17769 226.303088 
L 155.387493 226.496971 
L 155.546482 226.642949 
L 155.664623 226.750899 
L 155.84141 226.911606 
L 156.057258 227.106484 
L 156.276436 227.30288 
L 156.404103 227.416591 
L 156.602244 227.592081 
L 156.890744 227.845465 
L 157.036035 227.972121 
L 157.318116 228.216226 
L 157.544174 228.410152 
L 157.725246 228.56441 
L 157.766873 228.599738 
L 157.952876 228.756984 
L 158.20632 228.969645 
L 158.510325 229.222326 
L 158.714435 229.39052 
L 158.782818 229.44661 
L 158.952343 229.585103 
L 159.294385 229.862128 
L 159.410498 229.955444 
L 159.53014 230.051216 
L 159.7941 230.26115 
L 160.077064 230.484139 
L 160.115186 230.514019 
L 160.445237 230.771119 
L 160.563771 230.862762 
L 160.807101 231.04975 
L 160.931237 231.144557 
L 161.210538 231.356434 
L 161.430721 231.522075 
L 161.50772 231.579713 
L 161.832982 231.821559 
L 162.019265 231.958889 
L 162.207082 232.096489 
L 162.311065 232.172299 
L 162.449514 232.27283 
L 162.775468 232.507687 
L 163.025787 232.68632 
L 163.067157 232.715699 
L 163.333461 232.90385 
L 163.490642 233.014121 
L 163.754802 233.198146 
L 163.825708 233.247266 
L 164.043786 233.397615 
L 164.257861 233.544143 
L 164.450699 233.675241 
L 164.736136 233.867747 
L 164.885884 233.96801 
L 165.094494 234.106849 
L 165.332737 234.264229 
L 165.467449 234.352665 
L 165.714643 234.513908 
L 165.869088 234.613975 
L 166.01395 234.707364 
L 166.298222 234.889313 
L 166.553961 235.05152 
L 166.743712 235.170975 
L 166.766592 235.185328 
L 167.137366 235.416373 
L 167.287015 235.508811 
L 167.512356 235.647125 
L 167.617339 235.711204 
L 167.737861 235.784488 
L 167.942041 235.90796 
L 168.19062 236.057131 
L 168.474117 236.225726 
L 168.571491 236.28326 
L 168.83247 236.436523 
L 169.034578 236.554278 
L 169.2 236.650055 
L 169.2 169.2 
z
" style="fill:#808080;opacity:0.5;"/>
   </g>
   <g id="matplotlib.axis_1"/>
   <g id="matplotlib.axis_2"/>
   <g id="line2d_1">
    <path clip-path="url(#p000cd66758)" d="M 169.2 101.749945 
L 172.718768 103.907808 
L 176.020039 106.177616 
L 179.318923 108.710258 
L 182.599042 111.52508 
L 185.484658 114.281919 
L 188.379507 117.355348 
L 190.8519 120.26785 
L 193.392506 123.592889 
L 195.831371 127.174937 
L 197.742627 130.318167 
L 199.747087 134.025615 
L 201.627534 138.017328 
L 203.237577 141.997984 
L 204.58458 145.929265 
L 205.72638 149.951872 
L 206.669656 154.126014 
L 207.375662 158.298988 
L 207.852295 162.485021 
L 208.102058 166.696387 
L 208.142308 169.2 
L 208.142308 169.2 
" style="fill:none;stroke:#0000ff;stroke-linecap:square;"/>
   </g>
   <g id="line2d_2">
    <path clip-path="url(#p000cd66758)" d="M 169.2 236.650055 
L 172.811235 234.431965 
L 176.224299 232.073559 
L 179.480563 229.558283 
L 182.794507 226.696925 
L 185.801881 223.79722 
L 188.526811 220.879039 
L 191.20725 217.68881 
L 193.581357 214.544534 
L 195.775087 211.312758 
L 198.036369 207.56749 
L 199.886329 204.097941 
L 201.676265 200.270899 
L 203.285034 196.274356 
L 204.660782 192.225932 
L 205.767288 188.287017 
L 206.670313 184.270657 
L 207.379792 180.071758 
L 207.855756 175.874865 
L 208.103215 171.667378 
L 208.142308 169.2 
L 208.142308 169.2 
" style="fill:none;stroke:#0000ff;stroke-linecap:square;"/>
   </g>
   <g id="line2d_3">
    <path clip-path="url(#p000cd66758)" d="M 130.257692 169.2 
L 130.393629 164.600405 
L 130.736459 160.577474 
L 131.280362 156.620072 
L 132.068502 152.503012 
L 133.02083 148.638461 
L 134.247746 144.590914 
L 135.677449 140.654291 
L 137.37355 136.67622 
L 139.193224 132.977947 
L 141.223512 129.351686 
L 143.50476 125.74887 
L 146.013062 122.232243 
L 148.734258 118.834368 
L 151.363633 115.887756 
L 154.251313 112.970346 
L 157.427197 110.090011 
L 160.637946 107.480077 
L 164.042588 105.003209 
L 167.413807 102.813235 
L 169.2 101.749945 
L 169.2 101.749945 
" style="fill:none;stroke:#0000ff;stroke-linecap:square;"/>
   </g>
   <g id="line2d_4">
    <path clip-path="url(#p000cd66758)" d="M 130.257692 169.2 
L 130.394566 173.815403 
L 130.74978 177.941282 
L 131.305827 181.934539 
L 132.078148 185.940878 
L 133.096834 190.037231 
L 134.375019 194.188006 
L 135.814599 198.091449 
L 137.347313 201.66663 
L 139.197808 205.430779 
L 141.21096 209.027227 
L 143.484646 212.621194 
L 145.961583 216.099582 
L 148.661511 219.4797 
L 151.362408 222.51094 
L 154.270987 225.448504 
L 157.318116 228.216226 
L 160.563771 230.862762 
L 164.043786 233.397615 
L 167.617339 235.711204 
L 169.2 236.650055 
L 169.2 236.650055 
" style="fill:none;stroke:#0000ff;stroke-linecap:square;"/>
   </g>
   <g id="text_1">
    <!-- $\Omega$ -->
    <g transform="translate(17.569231 23.978606)scale(0.1 -0.1)">
     <defs>
      <path d="M 7.71875 0 
L 4.390625 16.609375 
L 7.328125 16.609375 
Q 7.859375 13.71875 8.296875 11.5 
Q 8.734375 9.28125 9.4375 8.375 
Q 10.15625 7.46875 11.71875 7.171875 
Q 13.28125 6.890625 16.890625 6.890625 
L 23 6.890625 
Q 21.53125 12.546875 15.6875 21.65625 
Q 9.859375 30.765625 7.734375 34.890625 
Q 5.609375 39.015625 5.609375 45.515625 
Q 5.609375 53.078125 10.09375 58.765625 
Q 14.59375 64.453125 21.703125 67.484375 
Q 28.8125 70.515625 36.078125 70.515625 
Q 43.3125 70.515625 50.40625 67.484375 
Q 57.515625 64.453125 62 58.71875 
Q 66.5 52.984375 66.5 45.515625 
Q 66.5 40.4375 64.640625 35.9375 
Q 62.796875 31.453125 59.90625 26.953125 
Q 57.03125 22.46875 53.6875 16.9375 
Q 50.34375 11.421875 49.125 6.890625 
L 55.171875 6.890625 
Q 58.84375 6.890625 60.453125 7.171875 
Q 62.0625 7.46875 62.734375 8.375 
Q 63.421875 9.28125 63.84375 11.5 
Q 64.265625 13.71875 64.796875 16.609375 
L 67.671875 16.609375 
L 64.40625 0 
L 46.6875 0 
Q 45.703125 0 45.703125 1.3125 
Q 45.703125 6.390625 46.9375 11.265625 
Q 48.1875 16.15625 50.625 23.09375 
Q 53.078125 30.03125 54.4375 35.328125 
Q 55.8125 40.625 55.8125 45.515625 
Q 55.8125 51.515625 53.46875 56.640625 
Q 51.125 61.765625 46.625 64.84375 
Q 42.140625 67.921875 36.078125 67.921875 
Q 26.953125 67.921875 21.625 61.40625 
Q 16.3125 54.890625 16.3125 45.515625 
Q 16.359375 40.375 17.53125 35.828125 
Q 18.703125 31.296875 21.3125 23.71875 
Q 23.921875 16.15625 25.171875 11.265625 
Q 26.421875 6.390625 26.421875 1.3125 
Q 26.421875 0 25.390625 0 
z
" id="Cmr10-173"/>
     </defs>
     <use transform="translate(0 0.484375)" xlink:href="#Cmr10-173"/>
    </g>
   </g>
   <g id="text_2">
    <!-- $A$ -->
    <g style="fill:#0000ff;" transform="translate(87.565385 94.07476)scale(0.1 -0.1)">
     <defs>
      <path d="M 4.5 0 
Q 3.515625 0 3.515625 1.3125 
Q 3.90625 3.515625 4.78125 3.515625 
Q 8.84375 3.515625 11.796875 5.125 
Q 14.75 6.734375 16.890625 10.109375 
Q 17.09375 10.296875 17.09375 10.296875 
L 52.78125 70.515625 
Q 53.5625 71.578125 54.6875 71.578125 
L 56 71.578125 
Q 56.296875 71.578125 56.59375 71.453125 
Q 56.890625 71.34375 57.109375 71.0625 
Q 57.328125 70.796875 57.328125 70.515625 
L 63.375 5.90625 
Q 63.375 5.46875 63.8125 4.59375 
Q 64.796875 3.515625 71.296875 3.515625 
Q 72.3125 3.515625 72.3125 2.203125 
Q 71.96875 0.875 71.75 0.4375 
Q 71.53125 0 70.609375 0 
L 45.609375 0 
Q 44.671875 0 44.671875 1.3125 
Q 45.21875 3.515625 46 3.515625 
Q 53.90625 3.515625 54.390625 6.203125 
L 52.875 22.703125 
L 28.21875 22.703125 
L 20.21875 9.28125 
Q 19.484375 8.203125 19.484375 6.78125 
Q 19.484375 5.03125 21.171875 4.265625 
Q 22.859375 3.515625 24.90625 3.515625 
Q 25.875 3.515625 25.875 2.203125 
Q 25.53125 0.78125 25.328125 0.390625 
Q 25.140625 0 24.21875 0 
z
M 30.171875 26.21875 
L 52.484375 26.21875 
L 49.515625 58.59375 
z
" id="Cmmi10-65"/>
     </defs>
     <use transform="translate(0 0.421875)" xlink:href="#Cmmi10-65"/>
    </g>
   </g>
   <g id="text_3">
    <!-- $B$ -->
    <g style="fill:#ff0000;" transform="translate(243.284615 94.07476)scale(0.1 -0.1)">
     <defs>
      <path d="M 4.984375 0 
Q 4 0 4 1.3125 
Q 4.046875 1.5625 4.1875 2.140625 
Q 4.34375 2.734375 4.578125 3.125 
Q 4.828125 3.515625 5.328125 3.515625 
Q 8.15625 3.515625 10.25 3.65625 
Q 12.359375 3.8125 13.8125 4.203125 
Q 14.984375 4.640625 15.71875 6.890625 
L 29.390625 61.8125 
Q 29.59375 62.796875 29.59375 63.1875 
Q 29.59375 64.265625 28.421875 64.40625 
Q 26.515625 64.796875 21.1875 64.796875 
Q 20.21875 64.796875 20.21875 66.109375 
Q 20.265625 66.359375 20.40625 66.96875 
Q 20.5625 67.578125 20.828125 67.9375 
Q 21.09375 68.3125 21.484375 68.3125 
L 57.328125 68.3125 
Q 60.59375 68.3125 63.796875 67.5 
Q 67 66.703125 69.703125 64.9375 
Q 72.40625 63.1875 74 60.5625 
Q 75.59375 57.953125 75.59375 54.5 
Q 75.59375 50.734375 73.65625 47.5 
Q 71.734375 44.28125 68.671875 41.890625 
Q 65.625 39.5 62.078125 37.953125 
Q 58.546875 36.421875 54.6875 35.6875 
Q 57.421875 35.6875 60.21875 34.609375 
Q 63.03125 33.546875 65.234375 31.6875 
Q 67.4375 29.828125 68.78125 27.234375 
Q 70.125 24.65625 70.125 21.6875 
Q 70.125 15.671875 65.921875 10.6875 
Q 61.71875 5.71875 55.34375 2.859375 
Q 48.96875 0 43.015625 0 
z
M 23.390625 4.296875 
Q 23.390625 3.515625 26.8125 3.515625 
L 41.109375 3.515625 
Q 46 3.515625 50.484375 6.21875 
Q 54.984375 8.9375 57.6875 13.421875 
Q 60.40625 17.921875 60.40625 22.796875 
Q 60.40625 25.78125 59.15625 28.4375 
Q 57.90625 31.109375 55.5625 32.640625 
Q 53.21875 34.1875 50.203125 34.1875 
L 30.71875 34.1875 
L 23.78125 6.5 
Q 23.390625 5.125 23.390625 4.296875 
z
M 31.390625 36.8125 
L 46.578125 36.8125 
Q 51.375 36.8125 55.890625 39.25 
Q 60.40625 41.703125 63.25 45.890625 
Q 66.109375 50.09375 66.109375 54.78125 
Q 66.109375 59.125 63.390625 61.953125 
Q 60.6875 64.796875 56.390625 64.796875 
L 42.671875 64.796875 
Q 39.984375 64.796875 39.0625 64.296875 
Q 38.140625 63.8125 37.5 61.375 
z
" id="Cmmi10-66"/>
     </defs>
     <use transform="translate(0 0.6875)" xlink:href="#Cmmi10-66"/>
    </g>
   </g>
   <g id="text_4">
    <!-- $A\cap B$, colorée en gris -->
    <g transform="translate(116.25 55.323077)scale(0.1 -0.1)">
     <defs>
      <path d="M 5.609375 -0.390625 
L 5.609375 38.625 
Q 5.609375 45.265625 9.765625 50.09375 
Q 13.921875 54.9375 20.40625 57.375 
Q 26.90625 59.8125 33.296875 59.8125 
Q 38.03125 59.8125 42.890625 58.515625 
Q 47.75 57.234375 51.875 54.515625 
Q 56 51.8125 58.484375 47.75 
Q 60.984375 43.703125 60.984375 38.625 
L 60.984375 -0.390625 
Q 60.984375 -1.171875 60.390625 -1.6875 
Q 59.8125 -2.203125 58.984375 -2.203125 
Q 58.25 -2.203125 57.609375 -1.6875 
Q 56.984375 -1.171875 56.984375 -0.390625 
L 56.984375 38.28125 
Q 56.984375 42.671875 54.8125 46.015625 
Q 52.640625 49.359375 49.234375 51.453125 
Q 45.84375 53.5625 41.59375 54.6875 
Q 37.359375 55.8125 33.296875 55.8125 
Q 27.734375 55.8125 22.28125 53.859375 
Q 16.84375 51.90625 13.234375 47.953125 
Q 9.625 44 9.625 38.28125 
L 9.625 -0.390625 
Q 9.625 -1.171875 8.984375 -1.6875 
Q 8.34375 -2.203125 7.625 -2.203125 
Q 6.78125 -2.203125 6.1875 -1.6875 
Q 5.609375 -1.171875 5.609375 -0.390625 
z
" id="Cmsy10-92"/>
      <path d="M 11.71875 12.40625 
L 22.015625 12.40625 
L 22.015625 4 
L 14.015625 -11.625 
L 7.71875 -11.625 
L 11.71875 4 
z
" id="DejaVuSans-44"/>
      <path id="DejaVuSans-32"/>
      <path d="M 48.78125 52.59375 
L 48.78125 44.1875 
Q 44.96875 46.296875 41.140625 47.34375 
Q 37.3125 48.390625 33.40625 48.390625 
Q 24.65625 48.390625 19.8125 42.84375 
Q 14.984375 37.3125 14.984375 27.296875 
Q 14.984375 17.28125 19.8125 11.734375 
Q 24.65625 6.203125 33.40625 6.203125 
Q 37.3125 6.203125 41.140625 7.25 
Q 44.96875 8.296875 48.78125 10.40625 
L 48.78125 2.09375 
Q 45.015625 0.34375 40.984375 -0.53125 
Q 36.96875 -1.421875 32.421875 -1.421875 
Q 20.0625 -1.421875 12.78125 6.34375 
Q 5.515625 14.109375 5.515625 27.296875 
Q 5.515625 40.671875 12.859375 48.328125 
Q 20.21875 56 33.015625 56 
Q 37.15625 56 41.109375 55.140625 
Q 45.0625 54.296875 48.78125 52.59375 
z
" id="DejaVuSans-99"/>
      <path d="M 30.609375 48.390625 
Q 23.390625 48.390625 19.1875 42.75 
Q 14.984375 37.109375 14.984375 27.296875 
Q 14.984375 17.484375 19.15625 11.84375 
Q 23.34375 6.203125 30.609375 6.203125 
Q 37.796875 6.203125 41.984375 11.859375 
Q 46.1875 17.53125 46.1875 27.296875 
Q 46.1875 37.015625 41.984375 42.703125 
Q 37.796875 48.390625 30.609375 48.390625 
z
M 30.609375 56 
Q 42.328125 56 49.015625 48.375 
Q 55.71875 40.765625 55.71875 27.296875 
Q 55.71875 13.875 49.015625 6.21875 
Q 42.328125 -1.421875 30.609375 -1.421875 
Q 18.84375 -1.421875 12.171875 6.21875 
Q 5.515625 13.875 5.515625 27.296875 
Q 5.515625 40.765625 12.171875 48.375 
Q 18.84375 56 30.609375 56 
z
" id="DejaVuSans-111"/>
      <path d="M 9.421875 75.984375 
L 18.40625 75.984375 
L 18.40625 0 
L 9.421875 0 
z
" id="DejaVuSans-108"/>
      <path d="M 41.109375 46.296875 
Q 39.59375 47.171875 37.8125 47.578125 
Q 36.03125 48 33.890625 48 
Q 26.265625 48 22.1875 43.046875 
Q 18.109375 38.09375 18.109375 28.8125 
L 18.109375 0 
L 9.078125 0 
L 9.078125 54.6875 
L 18.109375 54.6875 
L 18.109375 46.1875 
Q 20.953125 51.171875 25.484375 53.578125 
Q 30.03125 56 36.53125 56 
Q 37.453125 56 38.578125 55.875 
Q 39.703125 55.765625 41.0625 55.515625 
z
" id="DejaVuSans-114"/>
      <path d="M 56.203125 29.59375 
L 56.203125 25.203125 
L 14.890625 25.203125 
Q 15.484375 15.921875 20.484375 11.0625 
Q 25.484375 6.203125 34.421875 6.203125 
Q 39.59375 6.203125 44.453125 7.46875 
Q 49.3125 8.734375 54.109375 11.28125 
L 54.109375 2.78125 
Q 49.265625 0.734375 44.1875 -0.34375 
Q 39.109375 -1.421875 33.890625 -1.421875 
Q 20.796875 -1.421875 13.15625 6.1875 
Q 5.515625 13.8125 5.515625 26.8125 
Q 5.515625 40.234375 12.765625 48.109375 
Q 20.015625 56 32.328125 56 
Q 43.359375 56 49.78125 48.890625 
Q 56.203125 41.796875 56.203125 29.59375 
z
M 47.21875 32.234375 
Q 47.125 39.59375 43.09375 43.984375 
Q 39.0625 48.390625 32.421875 48.390625 
Q 24.90625 48.390625 20.390625 44.140625 
Q 15.875 39.890625 15.1875 32.171875 
z
M 38.578125 79.984375 
L 48.296875 79.984375 
L 32.375 61.625 
L 24.90625 61.625 
z
" id="DejaVuSans-233"/>
      <path d="M 56.203125 29.59375 
L 56.203125 25.203125 
L 14.890625 25.203125 
Q 15.484375 15.921875 20.484375 11.0625 
Q 25.484375 6.203125 34.421875 6.203125 
Q 39.59375 6.203125 44.453125 7.46875 
Q 49.3125 8.734375 54.109375 11.28125 
L 54.109375 2.78125 
Q 49.265625 0.734375 44.1875 -0.34375 
Q 39.109375 -1.421875 33.890625 -1.421875 
Q 20.796875 -1.421875 13.15625 6.1875 
Q 5.515625 13.8125 5.515625 26.8125 
Q 5.515625 40.234375 12.765625 48.109375 
Q 20.015625 56 32.328125 56 
Q 43.359375 56 49.78125 48.890625 
Q 56.203125 41.796875 56.203125 29.59375 
z
M 47.21875 32.234375 
Q 47.125 39.59375 43.09375 43.984375 
Q 39.0625 48.390625 32.421875 48.390625 
Q 24.90625 48.390625 20.390625 44.140625 
Q 15.875 39.890625 15.1875 32.171875 
z
" id="DejaVuSans-101"/>
      <path d="M 54.890625 33.015625 
L 54.890625 0 
L 45.90625 0 
L 45.90625 32.71875 
Q 45.90625 40.484375 42.875 44.328125 
Q 39.84375 48.1875 33.796875 48.1875 
Q 26.515625 48.1875 22.3125 43.546875 
Q 18.109375 38.921875 18.109375 30.90625 
L 18.109375 0 
L 9.078125 0 
L 9.078125 54.6875 
L 18.109375 54.6875 
L 18.109375 46.1875 
Q 21.34375 51.125 25.703125 53.5625 
Q 30.078125 56 35.796875 56 
Q 45.21875 56 50.046875 50.171875 
Q 54.890625 44.34375 54.890625 33.015625 
z
" id="DejaVuSans-110"/>
      <path d="M 45.40625 27.984375 
Q 45.40625 37.75 41.375 43.109375 
Q 37.359375 48.484375 30.078125 48.484375 
Q 22.859375 48.484375 18.828125 43.109375 
Q 14.796875 37.75 14.796875 27.984375 
Q 14.796875 18.265625 18.828125 12.890625 
Q 22.859375 7.515625 30.078125 7.515625 
Q 37.359375 7.515625 41.375 12.890625 
Q 45.40625 18.265625 45.40625 27.984375 
z
M 54.390625 6.78125 
Q 54.390625 -7.171875 48.1875 -13.984375 
Q 42 -20.796875 29.203125 -20.796875 
Q 24.46875 -20.796875 20.265625 -20.09375 
Q 16.0625 -19.390625 12.109375 -17.921875 
L 12.109375 -9.1875 
Q 16.0625 -11.328125 19.921875 -12.34375 
Q 23.78125 -13.375 27.78125 -13.375 
Q 36.625 -13.375 41.015625 -8.765625 
Q 45.40625 -4.15625 45.40625 5.171875 
L 45.40625 9.625 
Q 42.625 4.78125 38.28125 2.390625 
Q 33.9375 0 27.875 0 
Q 17.828125 0 11.671875 7.65625 
Q 5.515625 15.328125 5.515625 27.984375 
Q 5.515625 40.671875 11.671875 48.328125 
Q 17.828125 56 27.875 56 
Q 33.9375 56 38.28125 53.609375 
Q 42.625 51.21875 45.40625 46.390625 
L 45.40625 54.6875 
L 54.390625 54.6875 
z
" id="DejaVuSans-103"/>
      <path d="M 9.421875 54.6875 
L 18.40625 54.6875 
L 18.40625 0 
L 9.421875 0 
z
M 9.421875 75.984375 
L 18.40625 75.984375 
L 18.40625 64.59375 
L 9.421875 64.59375 
z
" id="DejaVuSans-105"/>
      <path d="M 44.28125 53.078125 
L 44.28125 44.578125 
Q 40.484375 46.53125 36.375 47.5 
Q 32.28125 48.484375 27.875 48.484375 
Q 21.1875 48.484375 17.84375 46.4375 
Q 14.5 44.390625 14.5 40.28125 
Q 14.5 37.15625 16.890625 35.375 
Q 19.28125 33.59375 26.515625 31.984375 
L 29.59375 31.296875 
Q 39.15625 29.25 43.1875 25.515625 
Q 47.21875 21.78125 47.21875 15.09375 
Q 47.21875 7.46875 41.1875 3.015625 
Q 35.15625 -1.421875 24.609375 -1.421875 
Q 20.21875 -1.421875 15.453125 -0.5625 
Q 10.6875 0.296875 5.421875 2 
L 5.421875 11.28125 
Q 10.40625 8.6875 15.234375 7.390625 
Q 20.0625 6.109375 24.8125 6.109375 
Q 31.15625 6.109375 34.5625 8.28125 
Q 37.984375 10.453125 37.984375 14.40625 
Q 37.984375 18.0625 35.515625 20.015625 
Q 33.0625 21.96875 24.703125 23.78125 
L 21.578125 24.515625 
Q 13.234375 26.265625 9.515625 29.90625 
Q 5.8125 33.546875 5.8125 39.890625 
Q 5.8125 47.609375 11.28125 51.796875 
Q 16.75 56 26.8125 56 
Q 31.78125 56 36.171875 55.265625 
Q 40.578125 54.546875 44.28125 53.078125 
z
" id="DejaVuSans-115"/>
     </defs>
     <use transform="translate(0 0.015625)" xlink:href="#Cmmi10-65"/>
     <use transform="translate(92.558594 0.015625)" xlink:href="#Cmsy10-92"/>
     <use transform="translate(176.71875 0.015625)" xlink:href="#Cmmi10-66"/>
     <use transform="translate(252.5 0.015625)" xlink:href="#DejaVuSans-44"/>
     <use transform="translate(284.287109 0.015625)" xlink:href="#DejaVuSans-32"/>
     <use transform="translate(316.074219 0.015625)" xlink:href="#DejaVuSans-99"/>
     <use transform="translate(371.054688 0.015625)" xlink:href="#DejaVuSans-111"/>
     <use transform="translate(432.236328 0.015625)" xlink:href="#DejaVuSans-108"/>
     <use transform="translate(460.019531 0.015625)" xlink:href="#DejaVuSans-111"/>
     <use transform="translate(521.201172 0.015625)" xlink:href="#DejaVuSans-114"/>
     <use transform="translate(562.314453 0.015625)" xlink:href="#DejaVuSans-233"/>
     <use transform="translate(623.837891 0.015625)" xlink:href="#DejaVuSans-101"/>
     <use transform="translate(685.361328 0.015625)" xlink:href="#DejaVuSans-32"/>
     <use transform="translate(717.148438 0.015625)" xlink:href="#DejaVuSans-101"/>
     <use transform="translate(778.671875 0.015625)" xlink:href="#DejaVuSans-110"/>
     <use transform="translate(842.050781 0.015625)" xlink:href="#DejaVuSans-32"/>
     <use transform="translate(873.837891 0.015625)" xlink:href="#DejaVuSans-103"/>
     <use transform="translate(937.314453 0.015625)" xlink:href="#DejaVuSans-114"/>
     <use transform="translate(978.427734 0.015625)" xlink:href="#DejaVuSans-105"/>
     <use transform="translate(1006.210938 0.015625)" xlink:href="#DejaVuSans-115"/>
    </g>
   </g>
   <g id="patch_8">
    <path clip-path="url(#p000cd66758)" d="M 130.257692 247.084615 
C 150.912934 247.084615 170.724971 238.878201 185.330432 224.27274 
C 199.935893 209.667278 208.142308 189.855241 208.142308 169.2 
C 208.142308 148.544759 199.935893 128.732722 185.330432 114.12726 
C 170.724971 99.521799 150.912934 91.315385 130.257692 91.315385 
C 109.602451 91.315385 89.790414 99.521799 75.184953 114.12726 
C 60.579491 128.732722 52.373077 148.544759 52.373077 169.2 
C 52.373077 189.855241 60.579491 209.667278 75.184953 224.27274 
C 89.790414 238.878201 109.602451 247.084615 130.257692 247.084615 
z
" style="fill:none;stroke:#0000ff;stroke-linejoin:miter;"/>
   </g>
   <g id="patch_9">
    <path clip-path="url(#p000cd66758)" d="M 208.142308 247.084615 
C 228.797549 247.084615 248.609586 238.878201 263.215047 224.27274 
C 277.820509 209.667278 286.026923 189.855241 286.026923 169.2 
C 286.026923 148.544759 277.820509 128.732722 263.215047 114.12726 
C 248.609586 99.521799 228.797549 91.315385 208.142308 91.315385 
C 187.487066 91.315385 167.675029 99.521799 153.069568 114.12726 
C 138.464107 128.732722 130.257692 148.544759 130.257692 169.2 
C 130.257692 189.855241 138.464107 209.667278 153.069568 224.27274 
C 167.675029 238.878201 187.487066 247.084615 208.142308 247.084615 
z
" style="fill:none;stroke:#ff0000;stroke-linejoin:miter;"/>
   </g>
  </g>
 </g>
 <defs>
  <clipPath id="p000cd66758">
   <rect height="324" width="324" x="7.2" y="7.2"/>
  </clipPath>
 </defs>
</svg>
