<?xml version="1.0" encoding="utf-8" standalone="no"?>
<!DOCTYPE svg PUBLIC "-//W3C//DTD SVG 1.1//EN"
  "http://www.w3.org/Graphics/SVG/1.1/DTD/svg11.dtd">
<!-- Created with matplotlib (https://matplotlib.org/) -->
<svg height="338.4pt" version="1.1" viewBox="0 0 338.4 338.4" width="338.4pt" xmlns="http://www.w3.org/2000/svg" xmlns:xlink="http://www.w3.org/1999/xlink">
 <metadata>
  <rdf:RDF xmlns:cc="http://creativecommons.org/ns#" xmlns:dc="http://purl.org/dc/elements/1.1/" xmlns:rdf="http://www.w3.org/1999/02/22-rdf-syntax-ns#">
   <cc:Work>
    <dc:type rdf:resource="http://purl.org/dc/dcmitype/StillImage"/>
    <dc:date>2024-08-24T16:34:36.034570</dc:date>
    <dc:format>image/svg+xml</dc:format>
    <dc:creator>
     <cc:Agent>
      <dc:title>Matplotlib v3.3.4, https://matplotlib.org/</dc:title>
     </cc:Agent>
    </dc:creator>
   </cc:Work>
  </rdf:RDF>
 </metadata>
 <defs>
  <style type="text/css">*{stroke-linecap:butt;stroke-linejoin:round;}</style>
 </defs>
 <g id="figure_1">
  <g id="patch_1">
   <path d="M -0 338.4 
L 338.4 338.4 
L 338.4 0 
L -0 0 
z
" style="fill:#ffffff;"/>
  </g>
  <g id="axes_1">
   <g id="patch_2">
    <path d="M 7.2 331.2 
L 331.2 331.2 
L 331.2 7.2 
L 7.2 7.2 
z
" style="fill:#ffffff;"/>
   </g>
   <g id="patch_3">
    <path clip-path="url(#p3a90da0107)" d="M 13.430769 324.969231 
L 13.430769 13.430769 
L 324.969231 13.430769 
L 324.969231 324.969231 
z
" style="fill:none;stroke:#000000;stroke-linejoin:miter;"/>
   </g>
   <g id="patch_4">
    <path clip-path="url(#p3a90da0107)" d="M 169.2 169.2 
L 169.2 101.749945 
L 169.328077 101.824052 
L 169.556555 101.957062 
L 169.694682 102.037978 
L 169.996406 102.216062 
L 170.102452 102.279088 
L 170.421502 102.470084 
L 170.544573 102.544314 
L 170.787193 102.691558 
L 170.997584 102.820225 
L 171.179183 102.932022 
L 171.330735 103.025847 
L 171.509872 103.137371 
L 171.73201 103.276603 
L 171.985021 103.436459 
L 172.117208 103.520519 
L 172.34186 103.664238 
L 172.582885 103.81964 
L 172.719039 103.907984 
L 172.941349 104.053098 
L 173.138204 104.182502 
L 173.363005 104.331322 
L 173.583147 104.478147 
L 173.730244 104.576858 
L 173.807362 104.628802 
L 174.154741 104.864454 
L 174.203834 104.897978 
L 174.49497 105.097921 
L 174.600386 105.170797 
L 174.785248 105.299217 
L 175.044223 105.480458 
L 175.173649 105.571625 
L 175.46861 105.780868 
L 175.704427 105.949643 
L 175.910123 106.097949 
L 176.008838 106.169484 
L 176.336263 106.408451 
L 176.480149 106.514293 
L 176.570112 106.580729 
L 176.782127 106.73809 
L 177.002253 106.902653 
L 177.208508 107.057951 
L 177.461633 107.25001 
L 177.524631 107.298063 
L 177.713826 107.442987 
L 178.032984 107.689556 
L 178.201026 107.820443 
L 178.468078 108.029975 
L 178.680656 108.198115 
L 178.698288 108.212116 
L 179.059958 108.501135 
L 179.108094 108.539868 
L 179.318659 108.710043 
L 179.624862 108.959682 
L 179.832608 109.130531 
L 180.058281 109.317493 
L 180.091155 109.344847 
L 180.404985 109.607531 
L 180.491675 109.680589 
L 180.668862 109.830587 
L 180.866306 109.998805 
L 181.120727 110.217248 
L 181.270695 110.346905 
L 181.58548 110.621237 
L 181.82154 110.828921 
L 181.950086 110.942728 
L 182.171403 111.139859 
L 182.302643 111.257473 
L 182.598939 111.524986 
L 182.725112 111.639743 
L 182.938144 111.834651 
L 183.027942 111.917245 
L 183.354947 112.220224 
L 183.559228 112.411272 
L 183.718112 112.560819 
L 183.781493 112.62071 
L 184.169399 112.990204 
L 184.174363 112.994965 
L 184.44054 113.251521 
L 184.732654 113.535902 
L 184.897046 113.697259 
L 185.080117 113.878078 
L 185.233749 114.030747 
L 185.532822 114.330397 
L 185.727492 114.527204 
L 185.813016 114.61411 
L 186.082056 114.889286 
L 186.280899 115.094422 
L 186.362295 115.178829 
L 186.701505 115.53335 
L 186.859435 115.699944 
L 186.923416 115.767715 
L 187.283853 116.152565 
L 187.368936 116.244177 
L 187.614563 116.510317 
L 187.786034 116.697589 
L 187.974857 116.905237 
L 188.273853 117.237144 
L 188.290195 117.255396 
L 188.56439 117.563362 
L 188.840036 117.876299 
L 188.947619 117.999358 
L 189.198027 118.287819 
L 189.34243 118.455472 
L 189.507471 118.648274 
L 189.714215 118.891598 
L 189.890584 119.100783 
L 190.052159 119.293737 
L 190.256826 119.539983 
L 190.499155 119.834228 
L 190.755585 120.148819 
L 190.844211 120.25833 
L 191.023378 120.480961 
L 191.334496 120.871567 
L 191.559256 121.156981 
L 191.613161 121.225843 
L 191.897606 121.591866 
L 192.089828 121.841787 
L 192.214975 122.005632 
L 192.414369 122.268552 
L 192.631042 122.556902 
L 192.925634 122.95346 
L 193.007539 123.064656 
L 193.281907 123.440174 
L 193.546152 123.806342 
L 193.701249 124.023365 
L 193.808149 124.173865 
L 193.971651 124.405527 
L 194.269498 124.832195 
L 194.478593 125.135397 
L 194.637391 125.367732 
L 194.891282 125.742982 
L 195.066366 126.004525 
L 195.296231 126.351408 
L 195.467513 126.61253 
L 195.621492 126.849239 
L 195.757982 127.060644 
L 195.975026 127.399935 
L 196.213718 127.77759 
L 196.313908 127.937551 
L 196.518736 128.267282 
L 196.721816 128.597862 
L 196.954235 128.980794 
L 197.248319 129.472562 
L 197.281815 129.5291 
L 197.647933 130.154273 
L 197.757415 130.343845 
L 198.035371 130.830747 
L 198.233365 131.182618 
L 198.402966 131.487469 
L 198.639735 131.918509 
L 198.731406 132.087147 
L 198.854293 132.314778 
L 199.075257 132.728695 
L 199.250915 133.06209 
L 199.573588 133.684935 
L 199.756713 134.044638 
L 199.870684 134.270862 
L 200.156753 134.846912 
L 200.309172 135.158797 
L 200.581027 135.72401 
L 200.615839 135.797238 
L 200.776767 136.138339 
L 200.937694 136.483787 
L 201.081539 136.796356 
L 201.350314 137.390373 
L 201.57091 137.88805 
L 201.725717 138.243018 
L 201.948211 138.761819 
L 202.053717 139.011523 
L 202.255942 139.497048 
L 202.420811 139.899869 
L 202.60551 140.358943 
L 202.733084 140.681044 
L 202.860659 141.007402 
L 202.982763 141.323892 
L 203.104868 141.644558 
L 203.253195 142.03992 
L 203.385555 142.398339 
L 203.517915 142.76228 
L 203.608825 143.015565 
L 203.721401 143.333095 
L 203.833977 143.655068 
L 203.938769 143.958916 
L 204.04356 144.266908 
L 204.154718 144.598315 
L 204.329649 145.130131 
L 204.504579 145.675266 
L 204.573991 145.895472 
L 204.718367 146.36097 
L 204.862742 146.837087 
L 205.025921 147.388873 
L 205.115687 147.698979 
L 205.205453 148.014004 
L 205.311584 148.39311 
L 205.417715 148.779805 
L 205.539957 149.235181 
L 205.662199 149.701956 
L 205.70291 149.860082 
L 205.772242 150.13259 
L 205.841574 150.409305 
L 205.910905 150.690417 
L 205.980237 150.976128 
L 206.091784 151.44602 
L 206.201798 151.92267 
L 206.311812 152.41357 
L 206.419428 152.908794 
L 206.473235 153.16241 
L 206.527043 153.420285 
L 206.586979 153.712803 
L 206.646915 154.01119 
L 206.706851 154.315799 
L 206.766787 154.62702 
L 206.829772 154.961673 
L 206.892757 155.30467 
L 206.955742 155.656643 
L 207.018727 156.018312 
L 207.07715 156.36317 
L 207.135574 156.717825 
L 207.172141 156.945169 
L 207.208709 157.176922 
L 207.245276 157.413344 
L 207.281844 157.654723 
L 207.318411 157.901375 
L 207.354979 158.153655 
L 207.391546 158.411956 
L 207.428114 158.676722 
L 207.455947 158.882888 
L 207.48378 159.093335 
L 207.528103 159.437981 
L 207.572425 159.795457 
L 207.616747 160.167287 
L 207.638909 160.359147 
L 207.66107 160.555322 
L 207.695199 160.86658 
L 207.729328 161.19007 
L 207.763457 161.527338 
L 207.780522 161.701717 
L 207.797586 161.880289 
L 207.814651 162.063368 
L 207.831715 162.251311 
L 207.84878 162.444524 
L 207.865844 162.643472 
L 207.882909 162.848695 
L 207.899973 163.060822 
L 207.917038 163.280595 
L 207.934102 163.5089 
L 207.947115 163.689386 
L 207.960128 163.876018 
L 207.973141 164.069468 
L 207.986154 164.270538 
L 207.999167 164.480203 
L 208.012179 164.699662 
L 208.025192 164.930426 
L 208.038205 165.174438 
L 208.044711 165.302185 
L 208.051218 165.434275 
L 208.057724 165.57118 
L 208.064231 165.71347 
L 208.070737 165.861832 
L 208.077244 166.017115 
L 208.08375 166.180387 
L 208.090256 166.353022 
L 208.096763 166.536841 
L 208.103269 166.734342 
L 208.109776 166.949125 
L 208.116282 167.186714 
L 208.122788 167.456407 
L 208.129295 167.776333 
L 208.135801 168.193294 
L 208.142308 169.2 
L 208.142308 169.2 
z
" style="fill:#808080;opacity:0.5;"/>
   </g>
   <g id="patch_5">
    <path clip-path="url(#p3a90da0107)" d="M 169.2 169.2 
L 169.2 236.650055 
L 169.34698 236.564983 
L 169.666592 236.378508 
L 169.785805 236.308432 
L 169.985745 236.190261 
L 170.151817 236.091495 
L 170.387046 235.950643 
L 170.504913 235.879641 
L 170.703645 235.759284 
L 170.997173 235.580027 
L 171.215842 235.445326 
L 171.308377 235.388025 
L 171.461634 235.292726 
L 171.654308 235.172218 
L 171.961095 234.978716 
L 172.119213 234.878203 
L 172.364627 234.721137 
L 172.476419 234.649159 
L 172.800973 234.438659 
L 172.846031 234.409253 
L 173.180286 234.189724 
L 173.286353 234.119547 
L 173.410211 234.037284 
L 173.728206 233.824513 
L 173.933262 233.686106 
L 174.084724 233.583263 
L 174.382243 233.379727 
L 174.460505 233.32585 
L 174.748224 233.126566 
L 174.874639 233.0384 
L 175.013431 232.941173 
L 175.229134 232.789171 
L 175.411962 232.659477 
L 175.742475 232.423001 
L 175.813104 232.372128 
L 176.061322 232.192387 
L 176.163869 232.117694 
L 176.513885 231.860817 
L 176.716574 231.710684 
L 176.873953 231.593409 
L 176.964101 231.525955 
L 177.133152 231.398912 
L 177.325445 231.253525 
L 177.613693 231.03383 
L 177.719911 230.952337 
L 178.036965 230.707353 
L 178.160036 230.611553 
L 178.425165 230.403823 
L 178.645052 230.23013 
L 178.872908 230.048781 
L 179.059671 229.899096 
L 179.172412 229.808279 
L 179.360162 229.656272 
L 179.659254 229.412117 
L 179.690208 229.386707 
L 180.058661 229.082191 
L 180.079806 229.0646 
L 180.349012 228.839525 
L 180.457807 228.747979 
L 180.650293 228.585175 
L 180.911341 228.362667 
L 181.177971 228.13334 
L 181.273076 228.051032 
L 181.492911 227.859745 
L 181.679127 227.696576 
L 181.942083 227.464372 
L 182.045768 227.372232 
L 182.362351 227.08884 
L 182.539088 226.929273 
L 182.752647 226.735146 
L 182.933308 226.56979 
L 183.168056 226.353362 
L 183.210767 226.313792 
L 183.447089 226.093772 
L 183.656355 225.897408 
L 183.870919 225.694559 
L 184.003728 225.568226 
L 184.350809 225.235239 
L 184.51604 225.075263 
L 184.657988 224.937071 
L 184.810166 224.788137 
L 185.07631 224.525695 
L 185.207007 224.395889 
L 185.46667 224.136164 
L 185.5721 224.030007 
L 185.917529 223.679316 
L 186.05165 223.54195 
L 186.158403 223.432129 
L 186.44523 223.134904 
L 186.527602 223.04896 
L 186.895553 222.661818 
L 187.039414 222.508999 
L 187.28253 222.248857 
L 187.422608 222.09788 
L 187.508609 222.00479 
L 187.723523 221.770824 
L 187.97791 221.491393 
L 188.22951 221.212322 
L 188.427696 220.990578 
L 188.569622 220.830729 
L 188.751425 220.624669 
L 188.97206 220.372613 
L 189.224428 220.081602 
L 189.290085 220.005413 
L 189.514679 219.743277 
L 189.753961 219.46139 
L 189.896298 219.292415 
L 190.220329 218.904079 
L 190.354031 218.742339 
L 190.441107 218.636524 
L 190.714782 218.301463 
L 190.944347 218.017448 
L 191.214215 217.680054 
L 191.297257 217.575457 
L 191.535742 217.273006 
L 191.621708 217.163224 
L 191.893878 216.81296 
L 192.085596 216.563737 
L 192.254206 216.342822 
L 192.490738 216.030132 
L 192.764555 215.664024 
L 192.90012 215.481092 
L 193.156531 215.132008 
L 193.344951 214.872871 
L 193.512041 214.641178 
L 193.65568 214.440563 
L 193.859976 214.152896 
L 194.116161 213.788219 
L 194.243831 213.604813 
L 194.381798 213.405343 
L 194.566334 213.136453 
L 194.848056 212.721239 
L 195.071111 212.388355 
L 195.22416 212.157787 
L 195.429854 211.845078 
L 195.708903 211.415545 
L 195.836276 211.217409 
L 196.049938 210.882055 
L 196.244615 210.573172 
L 196.46594 210.21806 
L 196.520891 210.129229 
L 196.694649 209.846576 
L 196.986081 209.366347 
L 197.26484 208.899566 
L 197.450817 208.583972 
L 197.659753 208.22532 
L 197.783649 208.010546 
L 197.985521 207.657177 
L 198.222369 207.237035 
L 198.269341 207.152983 
L 198.622517 206.513054 
L 198.701034 206.368835 
L 199.042173 205.733663 
L 199.081492 205.659538 
L 199.360444 205.128026 
L 199.538112 204.784221 
L 199.630208 204.604341 
L 199.92753 204.015614 
L 200.196049 203.473016 
L 200.349663 203.157752 
L 200.531969 202.778853 
L 200.662043 202.505265 
L 200.85658 202.090885 
L 201.05339 201.665097 
L 201.326537 201.062716 
L 201.523613 200.619451 
L 201.637158 200.360635 
L 201.829689 199.915836 
L 202.029728 199.445465 
L 202.178567 199.089816 
L 202.327406 198.729133 
L 202.489563 198.330228 
L 202.576664 198.113313 
L 202.715207 197.764345 
L 202.853751 197.410381 
L 202.994674 197.045014 
L 203.135598 196.674065 
L 203.312465 196.20025 
L 203.372665 196.036804 
L 203.538906 195.579482 
L 203.705146 195.113025 
L 203.854647 194.685322 
L 203.973917 194.338248 
L 204.093188 193.98574 
L 204.198683 193.669231 
L 204.304177 193.348113 
L 204.374818 193.13042 
L 204.546212 192.592929 
L 204.717607 192.041508 
L 204.816669 191.716046 
L 204.911488 191.399641 
L 205.006308 191.078249 
L 205.108329 190.726622 
L 205.210351 190.368663 
L 205.334508 189.924021 
L 205.458665 189.468867 
L 205.566871 189.063054 
L 205.675077 188.648174 
L 205.782173 188.228037 
L 205.889269 187.797794 
L 205.980019 187.42478 
L 206.070768 187.043508 
L 206.140269 186.745594 
L 206.209769 186.442253 
L 206.267681 186.185139 
L 206.325592 185.923872 
L 206.383504 185.658255 
L 206.441415 185.388072 
L 206.516609 185.030065 
L 206.566288 184.788825 
L 206.615968 184.543632 
L 206.665648 184.294292 
L 206.715327 184.040598 
L 206.7814 183.69605 
L 206.847473 183.342802 
L 206.913545 182.980185 
L 206.979618 182.607439 
L 207.022024 182.36247 
L 207.064431 182.112715 
L 207.106837 181.857891 
L 207.149244 181.597685 
L 207.189604 181.344721 
L 207.229964 181.086238 
L 207.270325 180.821866 
L 207.310685 180.551196 
L 207.352999 180.260151 
L 207.395314 179.961071 
L 207.437629 179.653266 
L 207.479943 179.335941 
L 207.522258 179.008173 
L 207.564572 178.668877 
L 207.606887 178.316767 
L 207.649201 177.950295 
L 207.669854 177.765661 
L 207.690507 177.576907 
L 207.71511 177.346275 
L 207.739713 177.108843 
L 207.764316 176.86398 
L 207.788919 176.61095 
L 207.813522 176.348885 
L 207.838125 176.076752 
L 207.862729 175.793304 
L 207.887332 175.497016 
L 207.903268 175.297371 
L 207.919204 175.090922 
L 207.93514 174.876926 
L 207.951076 174.654493 
L 207.967012 174.422547 
L 207.982948 174.179758 
L 207.998884 173.924455 
L 208.006852 173.791463 
L 208.01482 173.654487 
L 208.022788 173.513149 
L 208.030756 173.367004 
L 208.038724 173.215529 
L 208.046692 173.058094 
L 208.05466 172.893938 
L 208.062628 172.722122 
L 208.070596 172.541464 
L 208.078564 172.350443 
L 208.086532 172.147045 
L 208.0945 171.928503 
L 208.102468 171.690835 
L 208.110436 171.427928 
L 208.118404 171.129491 
L 208.126372 170.775463 
L 208.13434 170.314049 
L 208.142308 169.2 
L 208.142308 169.2 
z
" style="fill:#808080;opacity:0.5;"/>
   </g>
   <g id="patch_6">
    <path clip-path="url(#p3a90da0107)" d="M 130.257692 169.2 
L 130.257692 169.2 
L 130.264452 168.17386 
L 130.271212 167.74885 
L 130.277972 167.42275 
L 130.284733 167.147853 
L 130.291493 166.90568 
L 130.298253 166.686753 
L 130.305013 166.485442 
L 130.311773 166.298078 
L 130.318533 166.122114 
L 130.325293 165.955693 
L 130.332053 165.797416 
L 130.338813 165.646195 
L 130.345573 165.501162 
L 130.352333 165.361618 
L 130.359093 165.226984 
L 130.365853 165.096775 
L 130.379373 164.848062 
L 130.392894 164.612854 
L 130.406414 164.389169 
L 130.419934 164.17547 
L 130.433454 163.97053 
L 130.446974 163.773359 
L 130.460494 163.583137 
L 130.474014 163.39918 
L 130.487722 163.218475 
L 130.50143 163.043101 
L 130.515138 162.872617 
L 130.528845 162.706635 
L 130.556261 162.386875 
L 130.583677 162.081569 
L 130.611092 161.788932 
L 130.638508 161.507516 
L 130.665923 161.236133 
L 130.693339 160.973789 
L 130.724399 160.686439 
L 130.755459 160.408587 
L 130.786519 160.139357 
L 130.817579 159.878003 
L 130.848639 159.62388 
L 130.879699 159.376427 
L 130.910759 159.135152 
L 130.941819 158.89962 
L 130.992596 158.52595 
L 131.040056 158.188364 
L 131.087516 157.861022 
L 131.134976 157.543062 
L 131.182436 157.233736 
L 131.220761 156.989799 
L 131.259086 156.750759 
L 131.297411 156.51634 
L 131.335737 156.286288 
L 131.387672 155.981101 
L 131.439608 155.683003 
L 131.491544 155.391534 
L 131.54348 155.106282 
L 131.620762 154.692541 
L 131.698044 154.290678 
L 131.775326 153.899756 
L 131.852608 153.518957 
L 131.948864 153.057742 
L 132.037804 152.643494 
L 132.126745 152.239827 
L 132.215685 151.846002 
L 132.304625 151.461365 
L 132.424329 150.957165 
L 132.50597 150.62158 
L 132.587611 150.292302 
L 132.672374 149.956757 
L 132.757137 149.627331 
L 132.835292 149.328746 
L 132.913447 149.034884 
L 132.991603 148.745543 
L 133.069758 148.460532 
L 133.22297 147.913711 
L 133.315093 147.592102 
L 133.415601 147.247036 
L 133.516109 146.907763 
L 133.636643 146.508168 
L 133.757176 146.116119 
L 133.859351 145.789412 
L 133.961525 145.467642 
L 134.129765 144.948056 
L 134.230715 144.642113 
L 134.331665 144.340346 
L 134.456647 143.972302 
L 134.581629 143.61016 
L 134.701769 143.267383 
L 134.819517 142.936306 
L 134.937264 142.609872 
L 135.129482 142.086523 
L 135.264736 141.725051 
L 135.39999 141.368929 
L 135.497851 141.114483 
L 135.69104 140.619813 
L 135.854948 140.207745 
L 136.018855 139.802366 
L 136.204426 139.351139 
L 136.418611 138.840081 
L 136.459921 138.742673 
L 136.644863 138.311025 
L 136.856415 137.825888 
L 137.009839 137.479578 
L 137.300868 136.834838 
L 137.582918 136.224466 
L 137.625613 136.133264 
L 137.824217 135.712996 
L 137.984701 135.378061 
L 138.145185 135.047165 
L 138.204519 134.925825 
L 138.458283 134.412789 
L 138.660977 134.009689 
L 138.912686 133.517053 
L 139.116513 133.124344 
L 139.336407 132.706694 
L 139.520783 132.361166 
L 139.681994 132.062435 
L 139.766965 131.906223 
L 140.106498 131.290346 
L 140.320003 130.909684 
L 140.406388 130.757074 
L 140.623501 130.377017 
L 140.802214 130.067851 
L 141.025959 129.685331 
L 141.137118 129.49713 
L 141.377837 129.093656 
L 141.559475 128.792825 
L 141.900835 128.235618 
L 141.99306 128.086859 
L 142.257021 127.665168 
L 142.301376 127.594893 
L 142.587334 127.145765 
L 142.719567 126.940346 
L 143.041703 126.445765 
L 143.145889 126.287544 
L 143.434865 125.853026 
L 143.537788 125.699777 
L 143.666014 125.509945 
L 143.908122 125.154766 
L 144.179532 124.761541 
L 144.424345 124.411223 
L 144.457159 124.364577 
L 144.802984 123.877341 
L 144.986369 123.622147 
L 145.060861 123.519102 
L 145.236437 123.277623 
L 145.592596 122.793676 
L 145.703209 122.644954 
L 145.854598 122.4426 
L 146.012064 122.233564 
L 146.283014 121.877266 
L 146.589565 121.479217 
L 146.788149 121.224167 
L 146.862026 121.129839 
L 147.11282 120.811831 
L 147.226093 120.669308 
L 147.533497 120.285939 
L 147.717856 120.058378 
L 147.947145 119.777781 
L 147.998922 119.714785 
L 148.318468 119.328951 
L 148.397052 119.234834 
L 148.688121 118.888838 
L 148.822229 118.730786 
L 149.092314 118.415046 
L 149.184357 118.308219 
L 149.447845 118.004557 
L 149.629591 117.796933 
L 149.877598 117.51599 
L 149.96885 117.413301 
L 150.252977 117.095886 
L 150.389743 116.944334 
L 150.521332 116.79927 
L 150.779207 116.5171 
L 150.962803 116.31789 
L 151.179607 116.084428 
L 151.331014 115.922517 
L 151.62946 115.606051 
L 151.751582 115.477571 
L 152.045178 115.171069 
L 152.18353 115.027789 
L 152.428622 114.775754 
L 152.646455 114.553649 
L 152.855236 114.34243 
L 152.880907 114.31657 
L 153.160915 114.036064 
L 153.356603 113.841713 
L 153.532899 113.667795 
L 153.781248 113.424661 
L 153.953486 113.257307 
L 154.123436 113.093184 
L 154.341154 112.884378 
L 154.611086 112.627731 
L 154.794635 112.454611 
L 154.97404 112.286481 
L 155.05383 112.212046 
L 155.299479 111.984191 
L 155.516558 111.784464 
L 155.662505 111.651033 
L 155.957551 111.383355 
L 156.160924 111.200439 
L 156.363167 111.019815 
L 156.529359 110.872332 
L 156.754612 110.673784 
L 156.846217 110.593478 
L 156.971741 110.483849 
L 157.281152 110.215628 
L 157.459766 110.062082 
L 157.62591 109.920098 
L 157.75927 109.806711 
L 157.972386 109.626581 
L 158.233985 109.407252 
L 158.454619 109.22378 
L 158.728886 108.997616 
L 158.77451 108.960197 
L 158.985556 108.787856 
L 159.278972 108.550286 
L 159.43544 108.424558 
L 159.693859 108.218354 
L 159.898891 108.056022 
L 159.97051 107.999581 
L 160.205783 107.815125 
L 160.416953 107.650802 
L 160.613494 107.498904 
L 160.882628 107.292521 
L 160.954193 107.237954 
L 161.125539 107.107836 
L 161.356393 106.933705 
L 161.574113 106.770707 
L 161.833231 106.578257 
L 161.960073 106.484655 
L 162.063838 106.408377 
L 162.354463 106.196139 
L 162.537511 106.063515 
L 162.737246 105.919721 
L 162.856521 105.834308 
L 163.087184 105.670093 
L 163.321191 105.504782 
L 163.467297 105.40222 
L 163.814097 105.160769 
L 163.853591 105.13345 
L 164.153026 104.927483 
L 164.237029 104.87007 
L 164.600325 104.623618 
L 164.730001 104.536371 
L 164.909081 104.416503 
L 165.00438 104.353007 
L 165.255747 104.186492 
L 165.571751 103.979136 
L 165.746814 103.865205 
L 165.904629 103.76307 
L 166.010113 103.695103 
L 166.326289 103.492817 
L 166.409668 103.439829 
L 166.647118 103.289738 
L 166.888083 103.138648 
L 167.13993 102.982039 
L 167.23228 102.924945 
L 167.41141 102.814706 
L 167.669876 102.656814 
L 167.926584 102.501358 
L 168.007048 102.452908 
L 168.232069 102.318118 
L 168.407468 102.213764 
L 168.523051 102.145337 
L 168.792855 101.986654 
L 168.943691 101.898575 
L 169.2 101.749945 
L 169.2 169.2 
z
" style="fill:#808080;opacity:0.5;"/>
   </g>
   <g id="patch_7">
    <path clip-path="url(#p3a90da0107)" d="M 130.257692 169.2 
L 130.257692 169.2 
L 130.26591 170.331397 
L 130.274129 170.799995 
L 130.282347 171.159534 
L 130.290565 171.462615 
L 130.298783 171.729614 
L 130.307001 171.97098 
L 130.315219 172.192922 
L 130.323437 172.399484 
L 130.331655 172.593475 
L 130.339873 172.776943 
L 130.348091 172.95143 
L 130.35631 173.118137 
L 130.364528 173.278019 
L 130.372746 173.431849 
L 130.380964 173.580264 
L 130.389182 173.723798 
L 130.3974 173.862901 
L 130.405618 173.997959 
L 130.422054 174.257225 
L 130.438491 174.503783 
L 130.454927 174.739328 
L 130.471363 174.96521 
L 130.487799 175.182526 
L 130.504235 175.392175 
L 130.520672 175.594913 
L 130.544064 175.87277 
L 130.567456 176.139432 
L 130.587152 176.356193 
L 130.606847 176.566527 
L 130.626543 176.770968 
L 130.646239 176.969982 
L 130.665934 177.163975 
L 130.68563 177.353307 
L 130.705326 177.538294 
L 130.725021 177.719219 
L 130.764413 178.069875 
L 130.803804 178.407018 
L 130.843195 178.73208 
L 130.882587 179.04626 
L 130.913766 179.287897 
L 130.944945 179.523786 
L 130.976125 179.754312 
L 131.007304 179.979819 
L 131.038483 180.200616 
L 131.069662 180.416981 
L 131.100842 180.629166 
L 131.132021 180.837399 
L 131.172189 181.100177 
L 131.212358 181.357143 
L 131.252526 181.60866 
L 131.292695 181.855051 
L 131.340196 182.140205 
L 131.383639 182.395459 
L 131.427083 182.645727 
L 131.470526 182.891283 
L 131.51397 183.132376 
L 131.557413 183.369235 
L 131.600857 183.602068 
L 131.687743 184.05641 
L 131.75104 184.378521 
L 131.814336 184.693679 
L 131.871477 184.97256 
L 131.928617 185.246391 
L 131.985758 185.515428 
L 132.042898 185.779902 
L 132.151316 186.269929 
L 132.259734 186.745606 
L 132.328981 187.042446 
L 132.398229 187.334164 
L 132.508918 187.79042 
L 132.619607 188.2351 
L 132.750734 188.747991 
L 132.881861 189.246907 
L 132.917624 189.380689 
L 133.0303 189.796108 
L 133.142977 190.202708 
L 133.264301 190.631225 
L 133.385625 191.050667 
L 133.470684 191.339601 
L 133.555744 191.624491 
L 133.667678 191.993481 
L 133.779612 192.356052 
L 133.946583 192.885602 
L 134.044188 193.189204 
L 134.141792 193.488619 
L 134.279447 193.904071 
L 134.390024 194.232257 
L 134.5006 194.555714 
L 134.697599 195.120805 
L 134.811833 195.442233 
L 134.926067 195.75928 
L 135.093089 196.215272 
L 135.306626 196.785807 
L 135.455658 197.176137 
L 135.60469 197.560312 
L 135.676486 197.743267 
L 135.859499 198.2036 
L 136.071207 198.725748 
L 136.307269 199.295522 
L 136.482491 199.710391 
L 136.730865 200.287284 
L 137.004975 200.909514 
L 137.186459 201.313561 
L 137.351561 201.675891 
L 137.451262 201.892343 
L 137.604194 202.221022 
L 137.757127 202.54576 
L 137.805913 202.64854 
L 137.969264 202.989898 
L 138.132615 203.327061 
L 138.240801 203.548111 
L 138.435329 203.941192 
L 138.672422 204.4129 
L 138.871545 204.803017 
L 138.984952 205.022807 
L 139.328315 205.678045 
L 139.455347 205.916682 
L 139.655232 206.288188 
L 139.932198 206.795135 
L 140.048582 207.005526 
L 140.246381 207.359618 
L 140.380119 207.596602 
L 140.724273 208.197718 
L 140.735536 208.217182 
L 141.046968 208.750331 
L 141.192764 208.996631 
L 141.418168 209.373405 
L 141.580576 209.641924 
L 141.880402 210.131322 
L 141.965134 210.268175 
L 142.256201 210.733532 
L 142.406765 210.971423 
L 142.619513 211.304355 
L 142.843672 211.651166 
L 142.888975 211.720771 
L 143.091839 212.030477 
L 143.296651 212.339937 
L 143.493693 212.634663 
L 143.74401 213.004938 
L 143.921847 213.265245 
L 144.163017 213.614678 
L 144.256981 213.74973 
L 144.601932 214.24036 
L 144.788871 214.502928 
L 144.94177 214.715989 
L 145.05129 214.867678 
L 145.278447 215.179869 
L 145.570386 215.576372 
L 145.651149 215.685141 
L 145.826221 215.919575 
L 146.066954 216.238961 
L 146.356656 216.618841 
L 146.556975 216.878718 
L 146.719347 217.087715 
L 146.975729 217.414758 
L 147.172134 217.662885 
L 147.185702 217.67995 
L 147.570419 218.159775 
L 147.652333 218.260945 
L 147.816891 218.463145 
L 148.054168 218.752283 
L 148.343703 219.101305 
L 148.464851 219.246123 
L 148.63206 219.444838 
L 148.942129 219.809803 
L 148.977084 219.850663 
L 149.335234 220.266049 
L 149.35009 220.283152 
L 149.646859 220.622716 
L 149.92359 220.935812 
L 150.072349 221.102729 
L 150.184241 221.227645 
L 150.38771 221.453418 
L 150.54234 221.623822 
L 150.863163 221.974169 
L 150.955453 222.074161 
L 151.157945 222.292332 
L 151.394069 222.544641 
L 151.651961 222.817666 
L 151.857206 223.033082 
L 152.00415 223.1863 
L 152.251433 223.442267 
L 152.318921 223.511719 
L 152.50305 223.700333 
L 152.701512 223.902208 
L 152.883199 224.085738 
L 153.129772 224.332878 
L 153.279165 224.481542 
L 153.625248 224.822869 
L 153.78713 224.981072 
L 153.912836 225.103289 
L 154.086522 225.271253 
L 154.306348 225.482348 
L 154.548572 225.71305 
L 154.650913 225.809929 
L 154.948055 226.089233 
L 155.171142 226.297013 
L 155.348005 226.460588 
L 155.512893 226.612176 
L 155.640691 226.729067 
L 155.932845 226.994337 
L 156.105036 227.149424 
L 156.326049 227.347129 
L 156.54766 227.543857 
L 156.615867 227.604102 
L 156.775915 227.744915 
L 157.052663 227.986576 
L 157.223389 228.134514 
L 157.527813 228.396167 
L 157.610969 228.467167 
L 157.938891 228.745195 
L 157.96601 228.768049 
L 158.234177 228.992908 
L 158.416116 229.144301 
L 158.692564 229.372553 
L 158.874924 229.521954 
L 159.008551 229.630847 
L 159.145103 229.741615 
L 159.385113 229.935075 
L 159.646948 230.144346 
L 159.776555 230.247254 
L 159.994682 230.419437 
L 160.266886 230.632543 
L 160.362025 230.706568 
L 160.548509 230.850982 
L 160.829987 231.067258 
L 160.910464 231.128719 
L 161.1002 231.272969 
L 161.440504 231.529406 
L 161.50102 231.574704 
L 161.699816 231.722862 
L 162.005538 231.948799 
L 162.059809 231.988666 
L 162.358848 232.207048 
L 162.479704 232.29469 
L 162.807734 232.530796 
L 162.914318 232.606958 
L 163.174832 232.791977 
L 163.269974 232.859147 
L 163.591761 233.084756 
L 163.700083 233.16016 
L 163.99836 233.366386 
L 164.146858 233.468295 
L 164.396225 233.638293 
L 164.544215 233.738513 
L 164.601543 233.777203 
L 164.938618 234.003198 
L 165.03113 234.06478 
L 165.269454 234.222548 
L 165.559927 234.413144 
L 165.752424 234.538435 
L 165.907232 234.63861 
L 166.0762 234.747356 
L 166.29513 234.887343 
L 166.376552 234.939143 
L 166.597182 235.078797 
L 166.949427 235.299621 
L 167.136027 235.415544 
L 167.277937 235.503217 
L 167.454872 235.611941 
L 167.580039 235.688463 
L 167.734662 235.782546 
L 167.962512 235.920292 
L 168.177935 236.049549 
L 168.484477 236.231856 
L 168.566535 236.280336 
L 168.90363 236.478076 
L 168.978541 236.52171 
L 169.2 236.650055 
L 169.2 169.2 
z
" style="fill:#808080;opacity:0.5;"/>
   </g>
   <g id="matplotlib.axis_1"/>
   <g id="matplotlib.axis_2"/>
   <g id="line2d_1">
    <path clip-path="url(#p3a90da0107)" d="M 169.2 101.749945 
L 172.719039 103.907984 
L 176.008838 106.169484 
L 179.318659 108.710043 
L 182.598939 111.524986 
L 185.532822 114.330397 
L 188.290195 117.255396 
L 191.023378 120.480961 
L 193.546152 123.806342 
L 195.757982 127.060644 
L 197.757415 130.343845 
L 199.756713 134.044638 
L 201.57091 137.88805 
L 203.104868 141.644558 
L 204.504579 145.675266 
L 205.662199 149.701956 
L 206.586979 153.712803 
L 207.318411 157.901375 
L 207.814651 162.063368 
L 208.08375 166.180387 
L 208.142308 169.2 
L 208.142308 169.2 
" style="fill:none;stroke:#0000ff;stroke-linecap:square;"/>
   </g>
   <g id="line2d_2">
    <path clip-path="url(#p3a90da0107)" d="M 169.2 236.650055 
L 172.800973 234.438659 
L 176.163869 232.117694 
L 179.360162 229.656272 
L 182.539088 226.929273 
L 185.5721 224.030007 
L 188.569622 220.830729 
L 191.297257 217.575457 
L 193.859976 214.152896 
L 196.244615 210.573172 
L 198.269341 207.152983 
L 200.349663 203.157752 
L 202.029728 199.445465 
L 203.538906 195.579482 
L 204.911488 191.399641 
L 205.980019 187.42478 
L 206.847473 183.342802 
L 207.479943 179.335941 
L 207.919204 175.090922 
L 208.118404 171.129491 
L 208.142308 169.2 
L 208.142308 169.2 
" style="fill:none;stroke:#0000ff;stroke-linecap:square;"/>
   </g>
   <g id="line2d_3">
    <path clip-path="url(#p3a90da0107)" d="M 130.257692 169.2 
L 130.392894 164.612854 
L 130.755459 160.408587 
L 131.335737 156.286288 
L 132.126745 152.239827 
L 133.069758 148.460532 
L 134.331665 144.340346 
L 135.69104 140.619813 
L 137.300868 136.834838 
L 139.116513 133.124344 
L 141.137118 129.49713 
L 143.434865 125.853026 
L 145.854598 122.4426 
L 148.397052 119.234834 
L 151.179607 116.084428 
L 154.123436 113.093184 
L 157.281152 110.215628 
L 160.416953 107.650802 
L 163.853591 105.13345 
L 167.41141 102.814706 
L 169.2 101.749945 
L 169.2 101.749945 
" style="fill:none;stroke:#0000ff;stroke-linecap:square;"/>
   </g>
   <g id="line2d_4">
    <path clip-path="url(#p3a90da0107)" d="M 130.257692 169.2 
L 130.3974 173.862901 
L 130.764413 178.069875 
L 131.340196 182.140205 
L 132.151316 186.269929 
L 133.142977 190.202708 
L 134.390024 194.232257 
L 135.859499 198.2036 
L 137.604194 202.221022 
L 139.455347 205.916682 
L 141.580576 209.641924 
L 143.921847 213.265245 
L 146.356656 216.618841 
L 148.977084 219.850663 
L 151.857206 223.033082 
L 154.650913 225.809929 
L 157.610969 228.467167 
L 160.910464 231.128719 
L 164.146858 233.468295 
L 167.734662 235.782546 
L 169.2 236.650055 
L 169.2 236.650055 
" style="fill:none;stroke:#0000ff;stroke-linecap:square;"/>
   </g>
   <g id="text_1">
    <!-- $\Omega$ -->
    <g transform="translate(17.569231 23.978606)scale(0.1 -0.1)">
     <defs>
      <path d="M 7.71875 0 
L 4.390625 16.609375 
L 7.328125 16.609375 
Q 7.859375 13.71875 8.296875 11.5 
Q 8.734375 9.28125 9.4375 8.375 
Q 10.15625 7.46875 11.71875 7.171875 
Q 13.28125 6.890625 16.890625 6.890625 
L 23 6.890625 
Q 21.53125 12.546875 15.6875 21.65625 
Q 9.859375 30.765625 7.734375 34.890625 
Q 5.609375 39.015625 5.609375 45.515625 
Q 5.609375 53.078125 10.09375 58.765625 
Q 14.59375 64.453125 21.703125 67.484375 
Q 28.8125 70.515625 36.078125 70.515625 
Q 43.3125 70.515625 50.40625 67.484375 
Q 57.515625 64.453125 62 58.71875 
Q 66.5 52.984375 66.5 45.515625 
Q 66.5 40.4375 64.640625 35.9375 
Q 62.796875 31.453125 59.90625 26.953125 
Q 57.03125 22.46875 53.6875 16.9375 
Q 50.34375 11.421875 49.125 6.890625 
L 55.171875 6.890625 
Q 58.84375 6.890625 60.453125 7.171875 
Q 62.0625 7.46875 62.734375 8.375 
Q 63.421875 9.28125 63.84375 11.5 
Q 64.265625 13.71875 64.796875 16.609375 
L 67.671875 16.609375 
L 64.40625 0 
L 46.6875 0 
Q 45.703125 0 45.703125 1.3125 
Q 45.703125 6.390625 46.9375 11.265625 
Q 48.1875 16.15625 50.625 23.09375 
Q 53.078125 30.03125 54.4375 35.328125 
Q 55.8125 40.625 55.8125 45.515625 
Q 55.8125 51.515625 53.46875 56.640625 
Q 51.125 61.765625 46.625 64.84375 
Q 42.140625 67.921875 36.078125 67.921875 
Q 26.953125 67.921875 21.625 61.40625 
Q 16.3125 54.890625 16.3125 45.515625 
Q 16.359375 40.375 17.53125 35.828125 
Q 18.703125 31.296875 21.3125 23.71875 
Q 23.921875 16.15625 25.171875 11.265625 
Q 26.421875 6.390625 26.421875 1.3125 
Q 26.421875 0 25.390625 0 
z
" id="Cmr10-173"/>
     </defs>
     <use transform="translate(0 0.484375)" xlink:href="#Cmr10-173"/>
    </g>
   </g>
   <g id="text_2">
    <!-- $A$ -->
    <g style="fill:#0000ff;" transform="translate(87.565385 94.07476)scale(0.1 -0.1)">
     <defs>
      <path d="M 4.5 0 
Q 3.515625 0 3.515625 1.3125 
Q 3.90625 3.515625 4.78125 3.515625 
Q 8.84375 3.515625 11.796875 5.125 
Q 14.75 6.734375 16.890625 10.109375 
Q 17.09375 10.296875 17.09375 10.296875 
L 52.78125 70.515625 
Q 53.5625 71.578125 54.6875 71.578125 
L 56 71.578125 
Q 56.296875 71.578125 56.59375 71.453125 
Q 56.890625 71.34375 57.109375 71.0625 
Q 57.328125 70.796875 57.328125 70.515625 
L 63.375 5.90625 
Q 63.375 5.46875 63.8125 4.59375 
Q 64.796875 3.515625 71.296875 3.515625 
Q 72.3125 3.515625 72.3125 2.203125 
Q 71.96875 0.875 71.75 0.4375 
Q 71.53125 0 70.609375 0 
L 45.609375 0 
Q 44.671875 0 44.671875 1.3125 
Q 45.21875 3.515625 46 3.515625 
Q 53.90625 3.515625 54.390625 6.203125 
L 52.875 22.703125 
L 28.21875 22.703125 
L 20.21875 9.28125 
Q 19.484375 8.203125 19.484375 6.78125 
Q 19.484375 5.03125 21.171875 4.265625 
Q 22.859375 3.515625 24.90625 3.515625 
Q 25.875 3.515625 25.875 2.203125 
Q 25.53125 0.78125 25.328125 0.390625 
Q 25.140625 0 24.21875 0 
z
M 30.171875 26.21875 
L 52.484375 26.21875 
L 49.515625 58.59375 
z
" id="Cmmi10-65"/>
     </defs>
     <use transform="translate(0 0.421875)" xlink:href="#Cmmi10-65"/>
    </g>
   </g>
   <g id="text_3">
    <!-- $B$ -->
    <g style="fill:#ff0000;" transform="translate(243.284615 94.07476)scale(0.1 -0.1)">
     <defs>
      <path d="M 4.984375 0 
Q 4 0 4 1.3125 
Q 4.046875 1.5625 4.1875 2.140625 
Q 4.34375 2.734375 4.578125 3.125 
Q 4.828125 3.515625 5.328125 3.515625 
Q 8.15625 3.515625 10.25 3.65625 
Q 12.359375 3.8125 13.8125 4.203125 
Q 14.984375 4.640625 15.71875 6.890625 
L 29.390625 61.8125 
Q 29.59375 62.796875 29.59375 63.1875 
Q 29.59375 64.265625 28.421875 64.40625 
Q 26.515625 64.796875 21.1875 64.796875 
Q 20.21875 64.796875 20.21875 66.109375 
Q 20.265625 66.359375 20.40625 66.96875 
Q 20.5625 67.578125 20.828125 67.9375 
Q 21.09375 68.3125 21.484375 68.3125 
L 57.328125 68.3125 
Q 60.59375 68.3125 63.796875 67.5 
Q 67 66.703125 69.703125 64.9375 
Q 72.40625 63.1875 74 60.5625 
Q 75.59375 57.953125 75.59375 54.5 
Q 75.59375 50.734375 73.65625 47.5 
Q 71.734375 44.28125 68.671875 41.890625 
Q 65.625 39.5 62.078125 37.953125 
Q 58.546875 36.421875 54.6875 35.6875 
Q 57.421875 35.6875 60.21875 34.609375 
Q 63.03125 33.546875 65.234375 31.6875 
Q 67.4375 29.828125 68.78125 27.234375 
Q 70.125 24.65625 70.125 21.6875 
Q 70.125 15.671875 65.921875 10.6875 
Q 61.71875 5.71875 55.34375 2.859375 
Q 48.96875 0 43.015625 0 
z
M 23.390625 4.296875 
Q 23.390625 3.515625 26.8125 3.515625 
L 41.109375 3.515625 
Q 46 3.515625 50.484375 6.21875 
Q 54.984375 8.9375 57.6875 13.421875 
Q 60.40625 17.921875 60.40625 22.796875 
Q 60.40625 25.78125 59.15625 28.4375 
Q 57.90625 31.109375 55.5625 32.640625 
Q 53.21875 34.1875 50.203125 34.1875 
L 30.71875 34.1875 
L 23.78125 6.5 
Q 23.390625 5.125 23.390625 4.296875 
z
M 31.390625 36.8125 
L 46.578125 36.8125 
Q 51.375 36.8125 55.890625 39.25 
Q 60.40625 41.703125 63.25 45.890625 
Q 66.109375 50.09375 66.109375 54.78125 
Q 66.109375 59.125 63.390625 61.953125 
Q 60.6875 64.796875 56.390625 64.796875 
L 42.671875 64.796875 
Q 39.984375 64.796875 39.0625 64.296875 
Q 38.140625 63.8125 37.5 61.375 
z
" id="Cmmi10-66"/>
     </defs>
     <use transform="translate(0 0.6875)" xlink:href="#Cmmi10-66"/>
    </g>
   </g>
   <g id="text_4">
    <!-- $A\cap B$, colorée en gris -->
    <g transform="translate(116.25 55.323077)scale(0.1 -0.1)">
     <defs>
      <path d="M 5.609375 -0.390625 
L 5.609375 38.625 
Q 5.609375 45.265625 9.765625 50.09375 
Q 13.921875 54.9375 20.40625 57.375 
Q 26.90625 59.8125 33.296875 59.8125 
Q 38.03125 59.8125 42.890625 58.515625 
Q 47.75 57.234375 51.875 54.515625 
Q 56 51.8125 58.484375 47.75 
Q 60.984375 43.703125 60.984375 38.625 
L 60.984375 -0.390625 
Q 60.984375 -1.171875 60.390625 -1.6875 
Q 59.8125 -2.203125 58.984375 -2.203125 
Q 58.25 -2.203125 57.609375 -1.6875 
Q 56.984375 -1.171875 56.984375 -0.390625 
L 56.984375 38.28125 
Q 56.984375 42.671875 54.8125 46.015625 
Q 52.640625 49.359375 49.234375 51.453125 
Q 45.84375 53.5625 41.59375 54.6875 
Q 37.359375 55.8125 33.296875 55.8125 
Q 27.734375 55.8125 22.28125 53.859375 
Q 16.84375 51.90625 13.234375 47.953125 
Q 9.625 44 9.625 38.28125 
L 9.625 -0.390625 
Q 9.625 -1.171875 8.984375 -1.6875 
Q 8.34375 -2.203125 7.625 -2.203125 
Q 6.78125 -2.203125 6.1875 -1.6875 
Q 5.609375 -1.171875 5.609375 -0.390625 
z
" id="Cmsy10-92"/>
      <path d="M 11.71875 12.40625 
L 22.015625 12.40625 
L 22.015625 4 
L 14.015625 -11.625 
L 7.71875 -11.625 
L 11.71875 4 
z
" id="DejaVuSans-44"/>
      <path id="DejaVuSans-32"/>
      <path d="M 48.78125 52.59375 
L 48.78125 44.1875 
Q 44.96875 46.296875 41.140625 47.34375 
Q 37.3125 48.390625 33.40625 48.390625 
Q 24.65625 48.390625 19.8125 42.84375 
Q 14.984375 37.3125 14.984375 27.296875 
Q 14.984375 17.28125 19.8125 11.734375 
Q 24.65625 6.203125 33.40625 6.203125 
Q 37.3125 6.203125 41.140625 7.25 
Q 44.96875 8.296875 48.78125 10.40625 
L 48.78125 2.09375 
Q 45.015625 0.34375 40.984375 -0.53125 
Q 36.96875 -1.421875 32.421875 -1.421875 
Q 20.0625 -1.421875 12.78125 6.34375 
Q 5.515625 14.109375 5.515625 27.296875 
Q 5.515625 40.671875 12.859375 48.328125 
Q 20.21875 56 33.015625 56 
Q 37.15625 56 41.109375 55.140625 
Q 45.0625 54.296875 48.78125 52.59375 
z
" id="DejaVuSans-99"/>
      <path d="M 30.609375 48.390625 
Q 23.390625 48.390625 19.1875 42.75 
Q 14.984375 37.109375 14.984375 27.296875 
Q 14.984375 17.484375 19.15625 11.84375 
Q 23.34375 6.203125 30.609375 6.203125 
Q 37.796875 6.203125 41.984375 11.859375 
Q 46.1875 17.53125 46.1875 27.296875 
Q 46.1875 37.015625 41.984375 42.703125 
Q 37.796875 48.390625 30.609375 48.390625 
z
M 30.609375 56 
Q 42.328125 56 49.015625 48.375 
Q 55.71875 40.765625 55.71875 27.296875 
Q 55.71875 13.875 49.015625 6.21875 
Q 42.328125 -1.421875 30.609375 -1.421875 
Q 18.84375 -1.421875 12.171875 6.21875 
Q 5.515625 13.875 5.515625 27.296875 
Q 5.515625 40.765625 12.171875 48.375 
Q 18.84375 56 30.609375 56 
z
" id="DejaVuSans-111"/>
      <path d="M 9.421875 75.984375 
L 18.40625 75.984375 
L 18.40625 0 
L 9.421875 0 
z
" id="DejaVuSans-108"/>
      <path d="M 41.109375 46.296875 
Q 39.59375 47.171875 37.8125 47.578125 
Q 36.03125 48 33.890625 48 
Q 26.265625 48 22.1875 43.046875 
Q 18.109375 38.09375 18.109375 28.8125 
L 18.109375 0 
L 9.078125 0 
L 9.078125 54.6875 
L 18.109375 54.6875 
L 18.109375 46.1875 
Q 20.953125 51.171875 25.484375 53.578125 
Q 30.03125 56 36.53125 56 
Q 37.453125 56 38.578125 55.875 
Q 39.703125 55.765625 41.0625 55.515625 
z
" id="DejaVuSans-114"/>
      <path d="M 56.203125 29.59375 
L 56.203125 25.203125 
L 14.890625 25.203125 
Q 15.484375 15.921875 20.484375 11.0625 
Q 25.484375 6.203125 34.421875 6.203125 
Q 39.59375 6.203125 44.453125 7.46875 
Q 49.3125 8.734375 54.109375 11.28125 
L 54.109375 2.78125 
Q 49.265625 0.734375 44.1875 -0.34375 
Q 39.109375 -1.421875 33.890625 -1.421875 
Q 20.796875 -1.421875 13.15625 6.1875 
Q 5.515625 13.8125 5.515625 26.8125 
Q 5.515625 40.234375 12.765625 48.109375 
Q 20.015625 56 32.328125 56 
Q 43.359375 56 49.78125 48.890625 
Q 56.203125 41.796875 56.203125 29.59375 
z
M 47.21875 32.234375 
Q 47.125 39.59375 43.09375 43.984375 
Q 39.0625 48.390625 32.421875 48.390625 
Q 24.90625 48.390625 20.390625 44.140625 
Q 15.875 39.890625 15.1875 32.171875 
z
M 38.578125 79.984375 
L 48.296875 79.984375 
L 32.375 61.625 
L 24.90625 61.625 
z
" id="DejaVuSans-233"/>
      <path d="M 56.203125 29.59375 
L 56.203125 25.203125 
L 14.890625 25.203125 
Q 15.484375 15.921875 20.484375 11.0625 
Q 25.484375 6.203125 34.421875 6.203125 
Q 39.59375 6.203125 44.453125 7.46875 
Q 49.3125 8.734375 54.109375 11.28125 
L 54.109375 2.78125 
Q 49.265625 0.734375 44.1875 -0.34375 
Q 39.109375 -1.421875 33.890625 -1.421875 
Q 20.796875 -1.421875 13.15625 6.1875 
Q 5.515625 13.8125 5.515625 26.8125 
Q 5.515625 40.234375 12.765625 48.109375 
Q 20.015625 56 32.328125 56 
Q 43.359375 56 49.78125 48.890625 
Q 56.203125 41.796875 56.203125 29.59375 
z
M 47.21875 32.234375 
Q 47.125 39.59375 43.09375 43.984375 
Q 39.0625 48.390625 32.421875 48.390625 
Q 24.90625 48.390625 20.390625 44.140625 
Q 15.875 39.890625 15.1875 32.171875 
z
" id="DejaVuSans-101"/>
      <path d="M 54.890625 33.015625 
L 54.890625 0 
L 45.90625 0 
L 45.90625 32.71875 
Q 45.90625 40.484375 42.875 44.328125 
Q 39.84375 48.1875 33.796875 48.1875 
Q 26.515625 48.1875 22.3125 43.546875 
Q 18.109375 38.921875 18.109375 30.90625 
L 18.109375 0 
L 9.078125 0 
L 9.078125 54.6875 
L 18.109375 54.6875 
L 18.109375 46.1875 
Q 21.34375 51.125 25.703125 53.5625 
Q 30.078125 56 35.796875 56 
Q 45.21875 56 50.046875 50.171875 
Q 54.890625 44.34375 54.890625 33.015625 
z
" id="DejaVuSans-110"/>
      <path d="M 45.40625 27.984375 
Q 45.40625 37.75 41.375 43.109375 
Q 37.359375 48.484375 30.078125 48.484375 
Q 22.859375 48.484375 18.828125 43.109375 
Q 14.796875 37.75 14.796875 27.984375 
Q 14.796875 18.265625 18.828125 12.890625 
Q 22.859375 7.515625 30.078125 7.515625 
Q 37.359375 7.515625 41.375 12.890625 
Q 45.40625 18.265625 45.40625 27.984375 
z
M 54.390625 6.78125 
Q 54.390625 -7.171875 48.1875 -13.984375 
Q 42 -20.796875 29.203125 -20.796875 
Q 24.46875 -20.796875 20.265625 -20.09375 
Q 16.0625 -19.390625 12.109375 -17.921875 
L 12.109375 -9.1875 
Q 16.0625 -11.328125 19.921875 -12.34375 
Q 23.78125 -13.375 27.78125 -13.375 
Q 36.625 -13.375 41.015625 -8.765625 
Q 45.40625 -4.15625 45.40625 5.171875 
L 45.40625 9.625 
Q 42.625 4.78125 38.28125 2.390625 
Q 33.9375 0 27.875 0 
Q 17.828125 0 11.671875 7.65625 
Q 5.515625 15.328125 5.515625 27.984375 
Q 5.515625 40.671875 11.671875 48.328125 
Q 17.828125 56 27.875 56 
Q 33.9375 56 38.28125 53.609375 
Q 42.625 51.21875 45.40625 46.390625 
L 45.40625 54.6875 
L 54.390625 54.6875 
z
" id="DejaVuSans-103"/>
      <path d="M 9.421875 54.6875 
L 18.40625 54.6875 
L 18.40625 0 
L 9.421875 0 
z
M 9.421875 75.984375 
L 18.40625 75.984375 
L 18.40625 64.59375 
L 9.421875 64.59375 
z
" id="DejaVuSans-105"/>
      <path d="M 44.28125 53.078125 
L 44.28125 44.578125 
Q 40.484375 46.53125 36.375 47.5 
Q 32.28125 48.484375 27.875 48.484375 
Q 21.1875 48.484375 17.84375 46.4375 
Q 14.5 44.390625 14.5 40.28125 
Q 14.5 37.15625 16.890625 35.375 
Q 19.28125 33.59375 26.515625 31.984375 
L 29.59375 31.296875 
Q 39.15625 29.25 43.1875 25.515625 
Q 47.21875 21.78125 47.21875 15.09375 
Q 47.21875 7.46875 41.1875 3.015625 
Q 35.15625 -1.421875 24.609375 -1.421875 
Q 20.21875 -1.421875 15.453125 -0.5625 
Q 10.6875 0.296875 5.421875 2 
L 5.421875 11.28125 
Q 10.40625 8.6875 15.234375 7.390625 
Q 20.0625 6.109375 24.8125 6.109375 
Q 31.15625 6.109375 34.5625 8.28125 
Q 37.984375 10.453125 37.984375 14.40625 
Q 37.984375 18.0625 35.515625 20.015625 
Q 33.0625 21.96875 24.703125 23.78125 
L 21.578125 24.515625 
Q 13.234375 26.265625 9.515625 29.90625 
Q 5.8125 33.546875 5.8125 39.890625 
Q 5.8125 47.609375 11.28125 51.796875 
Q 16.75 56 26.8125 56 
Q 31.78125 56 36.171875 55.265625 
Q 40.578125 54.546875 44.28125 53.078125 
z
" id="DejaVuSans-115"/>
     </defs>
     <use transform="translate(0 0.015625)" xlink:href="#Cmmi10-65"/>
     <use transform="translate(92.558594 0.015625)" xlink:href="#Cmsy10-92"/>
     <use transform="translate(176.71875 0.015625)" xlink:href="#Cmmi10-66"/>
     <use transform="translate(252.5 0.015625)" xlink:href="#DejaVuSans-44"/>
     <use transform="translate(284.287109 0.015625)" xlink:href="#DejaVuSans-32"/>
     <use transform="translate(316.074219 0.015625)" xlink:href="#DejaVuSans-99"/>
     <use transform="translate(371.054688 0.015625)" xlink:href="#DejaVuSans-111"/>
     <use transform="translate(432.236328 0.015625)" xlink:href="#DejaVuSans-108"/>
     <use transform="translate(460.019531 0.015625)" xlink:href="#DejaVuSans-111"/>
     <use transform="translate(521.201172 0.015625)" xlink:href="#DejaVuSans-114"/>
     <use transform="translate(562.314453 0.015625)" xlink:href="#DejaVuSans-233"/>
     <use transform="translate(623.837891 0.015625)" xlink:href="#DejaVuSans-101"/>
     <use transform="translate(685.361328 0.015625)" xlink:href="#DejaVuSans-32"/>
     <use transform="translate(717.148438 0.015625)" xlink:href="#DejaVuSans-101"/>
     <use transform="translate(778.671875 0.015625)" xlink:href="#DejaVuSans-110"/>
     <use transform="translate(842.050781 0.015625)" xlink:href="#DejaVuSans-32"/>
     <use transform="translate(873.837891 0.015625)" xlink:href="#DejaVuSans-103"/>
     <use transform="translate(937.314453 0.015625)" xlink:href="#DejaVuSans-114"/>
     <use transform="translate(978.427734 0.015625)" xlink:href="#DejaVuSans-105"/>
     <use transform="translate(1006.210938 0.015625)" xlink:href="#DejaVuSans-115"/>
    </g>
   </g>
   <g id="patch_8">
    <path clip-path="url(#p3a90da0107)" d="M 130.257692 247.084615 
C 150.912934 247.084615 170.724971 238.878201 185.330432 224.27274 
C 199.935893 209.667278 208.142308 189.855241 208.142308 169.2 
C 208.142308 148.544759 199.935893 128.732722 185.330432 114.12726 
C 170.724971 99.521799 150.912934 91.315385 130.257692 91.315385 
C 109.602451 91.315385 89.790414 99.521799 75.184953 114.12726 
C 60.579491 128.732722 52.373077 148.544759 52.373077 169.2 
C 52.373077 189.855241 60.579491 209.667278 75.184953 224.27274 
C 89.790414 238.878201 109.602451 247.084615 130.257692 247.084615 
z
" style="fill:none;stroke:#0000ff;stroke-linejoin:miter;"/>
   </g>
   <g id="patch_9">
    <path clip-path="url(#p3a90da0107)" d="M 208.142308 247.084615 
C 228.797549 247.084615 248.609586 238.878201 263.215047 224.27274 
C 277.820509 209.667278 286.026923 189.855241 286.026923 169.2 
C 286.026923 148.544759 277.820509 128.732722 263.215047 114.12726 
C 248.609586 99.521799 228.797549 91.315385 208.142308 91.315385 
C 187.487066 91.315385 167.675029 99.521799 153.069568 114.12726 
C 138.464107 128.732722 130.257692 148.544759 130.257692 169.2 
C 130.257692 189.855241 138.464107 209.667278 153.069568 224.27274 
C 167.675029 238.878201 187.487066 247.084615 208.142308 247.084615 
z
" style="fill:none;stroke:#ff0000;stroke-linejoin:miter;"/>
   </g>
  </g>
 </g>
 <defs>
  <clipPath id="p3a90da0107">
   <rect height="324" width="324" x="7.2" y="7.2"/>
  </clipPath>
 </defs>
</svg>
