<?xml version="1.0" encoding="utf-8" standalone="no"?>
<!DOCTYPE svg PUBLIC "-//W3C//DTD SVG 1.1//EN"
  "http://www.w3.org/Graphics/SVG/1.1/DTD/svg11.dtd">
<!-- Created with matplotlib (https://matplotlib.org/) -->
<svg height="337.727455pt" version="1.1" viewBox="0 0 453.6 337.727455" width="453.6pt" xmlns="http://www.w3.org/2000/svg" xmlns:xlink="http://www.w3.org/1999/xlink">
 <metadata>
  <rdf:RDF xmlns:cc="http://creativecommons.org/ns#" xmlns:dc="http://purl.org/dc/elements/1.1/" xmlns:rdf="http://www.w3.org/1999/02/22-rdf-syntax-ns#">
   <cc:Work>
    <dc:type rdf:resource="http://purl.org/dc/dcmitype/StillImage"/>
    <dc:date>2024-11-18T20:48:55.385315</dc:date>
    <dc:format>image/svg+xml</dc:format>
    <dc:creator>
     <cc:Agent>
      <dc:title>Matplotlib v3.3.4, https://matplotlib.org/</dc:title>
     </cc:Agent>
    </dc:creator>
   </cc:Work>
  </rdf:RDF>
 </metadata>
 <defs>
  <style type="text/css">*{stroke-linecap:butt;stroke-linejoin:round;}</style>
 </defs>
 <g id="figure_1">
  <g id="patch_1">
   <path d="M 0 337.727455 
L 453.6 337.727455 
L 453.6 0 
L 0 0 
z
" style="fill:#ffffff;"/>
  </g>
  <g id="axes_1">
   <g id="patch_2">
    <path d="M 7.2 325.514147 
L 446.4 325.514147 
L 446.4 10.132233 
L 7.2 10.132233 
z
" style="fill:#ffffff;"/>
   </g>
   <g id="matplotlib.axis_1">
    <g id="xtick_1">
     <g id="line2d_1">
      <defs>
       <path d="M 0 0 
L 0 3.5 
" id="m57a4d09c7b" style="stroke:#000000;stroke-width:0.8;"/>
      </defs>
      <g>
       <use style="stroke:#000000;stroke-width:0.8;" x="25.16293" xlink:href="#m57a4d09c7b" y="167.823884"/>
      </g>
     </g>
     <g id="text_1">
      <!-- −3 -->
      <g transform="translate(17.791836 182.422321)scale(0.1 -0.1)">
       <defs>
        <path d="M 10.59375 35.5 
L 73.1875 35.5 
L 73.1875 27.203125 
L 10.59375 27.203125 
z
" id="DejaVuSans-8722"/>
        <path d="M 40.578125 39.3125 
Q 47.65625 37.796875 51.625 33 
Q 55.609375 28.21875 55.609375 21.1875 
Q 55.609375 10.40625 48.1875 4.484375 
Q 40.765625 -1.421875 27.09375 -1.421875 
Q 22.515625 -1.421875 17.65625 -0.515625 
Q 12.796875 0.390625 7.625 2.203125 
L 7.625 11.71875 
Q 11.71875 9.328125 16.59375 8.109375 
Q 21.484375 6.890625 26.8125 6.890625 
Q 36.078125 6.890625 40.9375 10.546875 
Q 45.796875 14.203125 45.796875 21.1875 
Q 45.796875 27.640625 41.28125 31.265625 
Q 36.765625 34.90625 28.71875 34.90625 
L 20.21875 34.90625 
L 20.21875 43.015625 
L 29.109375 43.015625 
Q 36.375 43.015625 40.234375 45.921875 
Q 44.09375 48.828125 44.09375 54.296875 
Q 44.09375 59.90625 40.109375 62.90625 
Q 36.140625 65.921875 28.71875 65.921875 
Q 24.65625 65.921875 20.015625 65.03125 
Q 15.375 64.15625 9.8125 62.3125 
L 9.8125 71.09375 
Q 15.4375 72.65625 20.34375 73.4375 
Q 25.25 74.21875 29.59375 74.21875 
Q 40.828125 74.21875 47.359375 69.109375 
Q 53.90625 64.015625 53.90625 55.328125 
Q 53.90625 49.265625 50.4375 45.09375 
Q 46.96875 40.921875 40.578125 39.3125 
z
" id="DejaVuSans-51"/>
       </defs>
       <use xlink:href="#DejaVuSans-8722"/>
       <use x="83.789062" xlink:href="#DejaVuSans-51"/>
      </g>
     </g>
    </g>
    <g id="xtick_2">
     <g id="line2d_2">
      <g>
       <use style="stroke:#000000;stroke-width:0.8;" x="92.375287" xlink:href="#m57a4d09c7b" y="167.823884"/>
      </g>
     </g>
     <g id="text_2">
      <!-- −2 -->
      <g transform="translate(85.004193 182.422321)scale(0.1 -0.1)">
       <defs>
        <path d="M 19.1875 8.296875 
L 53.609375 8.296875 
L 53.609375 0 
L 7.328125 0 
L 7.328125 8.296875 
Q 12.9375 14.109375 22.625 23.890625 
Q 32.328125 33.6875 34.8125 36.53125 
Q 39.546875 41.84375 41.421875 45.53125 
Q 43.3125 49.21875 43.3125 52.78125 
Q 43.3125 58.59375 39.234375 62.25 
Q 35.15625 65.921875 28.609375 65.921875 
Q 23.96875 65.921875 18.8125 64.3125 
Q 13.671875 62.703125 7.8125 59.421875 
L 7.8125 69.390625 
Q 13.765625 71.78125 18.9375 73 
Q 24.125 74.21875 28.421875 74.21875 
Q 39.75 74.21875 46.484375 68.546875 
Q 53.21875 62.890625 53.21875 53.421875 
Q 53.21875 48.921875 51.53125 44.890625 
Q 49.859375 40.875 45.40625 35.40625 
Q 44.1875 33.984375 37.640625 27.21875 
Q 31.109375 20.453125 19.1875 8.296875 
z
" id="DejaVuSans-50"/>
       </defs>
       <use xlink:href="#DejaVuSans-8722"/>
       <use x="83.789062" xlink:href="#DejaVuSans-50"/>
      </g>
     </g>
    </g>
    <g id="xtick_3">
     <g id="line2d_3">
      <g>
       <use style="stroke:#000000;stroke-width:0.8;" x="159.587643" xlink:href="#m57a4d09c7b" y="167.823884"/>
      </g>
     </g>
     <g id="text_3">
      <!-- −1 -->
      <g transform="translate(152.21655 182.422321)scale(0.1 -0.1)">
       <defs>
        <path d="M 12.40625 8.296875 
L 28.515625 8.296875 
L 28.515625 63.921875 
L 10.984375 60.40625 
L 10.984375 69.390625 
L 28.421875 72.90625 
L 38.28125 72.90625 
L 38.28125 8.296875 
L 54.390625 8.296875 
L 54.390625 0 
L 12.40625 0 
z
" id="DejaVuSans-49"/>
       </defs>
       <use xlink:href="#DejaVuSans-8722"/>
       <use x="83.789062" xlink:href="#DejaVuSans-49"/>
      </g>
     </g>
    </g>
    <g id="xtick_4">
     <g id="line2d_4">
      <g>
       <use style="stroke:#000000;stroke-width:0.8;" x="226.8" xlink:href="#m57a4d09c7b" y="167.823884"/>
      </g>
     </g>
    </g>
    <g id="xtick_5">
     <g id="line2d_5">
      <g>
       <use style="stroke:#000000;stroke-width:0.8;" x="294.012357" xlink:href="#m57a4d09c7b" y="167.823884"/>
      </g>
     </g>
     <g id="text_4">
      <!-- 1 -->
      <g transform="translate(290.831107 182.422321)scale(0.1 -0.1)">
       <use xlink:href="#DejaVuSans-49"/>
      </g>
     </g>
    </g>
    <g id="xtick_6">
     <g id="line2d_6">
      <g>
       <use style="stroke:#000000;stroke-width:0.8;" x="361.224713" xlink:href="#m57a4d09c7b" y="167.823884"/>
      </g>
     </g>
     <g id="text_5">
      <!-- 2 -->
      <g transform="translate(358.043463 182.422321)scale(0.1 -0.1)">
       <use xlink:href="#DejaVuSans-50"/>
      </g>
     </g>
    </g>
    <g id="xtick_7">
     <g id="line2d_7">
      <g>
       <use style="stroke:#000000;stroke-width:0.8;" x="428.43707" xlink:href="#m57a4d09c7b" y="167.823884"/>
      </g>
     </g>
     <g id="text_6">
      <!-- 3 -->
      <g transform="translate(425.25582 182.422321)scale(0.1 -0.1)">
       <use xlink:href="#DejaVuSans-51"/>
      </g>
     </g>
    </g>
    <g id="xtick_8">
     <g id="line2d_8">
      <defs>
       <path d="M 0 0 
L 0 2 
" id="m9dbeeeaeb8" style="stroke:#000000;stroke-width:0.6;"/>
      </defs>
      <g>
       <use style="stroke:#000000;stroke-width:0.6;" x="11.720458" xlink:href="#m9dbeeeaeb8" y="167.823884"/>
      </g>
     </g>
    </g>
    <g id="xtick_9">
     <g id="line2d_9">
      <g>
       <use style="stroke:#000000;stroke-width:0.6;" x="38.605401" xlink:href="#m9dbeeeaeb8" y="167.823884"/>
      </g>
     </g>
    </g>
    <g id="xtick_10">
     <g id="line2d_10">
      <g>
       <use style="stroke:#000000;stroke-width:0.6;" x="52.047872" xlink:href="#m9dbeeeaeb8" y="167.823884"/>
      </g>
     </g>
    </g>
    <g id="xtick_11">
     <g id="line2d_11">
      <g>
       <use style="stroke:#000000;stroke-width:0.6;" x="65.490344" xlink:href="#m9dbeeeaeb8" y="167.823884"/>
      </g>
     </g>
    </g>
    <g id="xtick_12">
     <g id="line2d_12">
      <g>
       <use style="stroke:#000000;stroke-width:0.6;" x="78.932815" xlink:href="#m9dbeeeaeb8" y="167.823884"/>
      </g>
     </g>
    </g>
    <g id="xtick_13">
     <g id="line2d_13">
      <g>
       <use style="stroke:#000000;stroke-width:0.6;" x="105.817758" xlink:href="#m9dbeeeaeb8" y="167.823884"/>
      </g>
     </g>
    </g>
    <g id="xtick_14">
     <g id="line2d_14">
      <g>
       <use style="stroke:#000000;stroke-width:0.6;" x="119.260229" xlink:href="#m9dbeeeaeb8" y="167.823884"/>
      </g>
     </g>
    </g>
    <g id="xtick_15">
     <g id="line2d_15">
      <g>
       <use style="stroke:#000000;stroke-width:0.6;" x="132.702701" xlink:href="#m9dbeeeaeb8" y="167.823884"/>
      </g>
     </g>
    </g>
    <g id="xtick_16">
     <g id="line2d_16">
      <g>
       <use style="stroke:#000000;stroke-width:0.6;" x="146.145172" xlink:href="#m9dbeeeaeb8" y="167.823884"/>
      </g>
     </g>
    </g>
    <g id="xtick_17">
     <g id="line2d_17">
      <g>
       <use style="stroke:#000000;stroke-width:0.6;" x="173.030115" xlink:href="#m9dbeeeaeb8" y="167.823884"/>
      </g>
     </g>
    </g>
    <g id="xtick_18">
     <g id="line2d_18">
      <g>
       <use style="stroke:#000000;stroke-width:0.6;" x="186.472586" xlink:href="#m9dbeeeaeb8" y="167.823884"/>
      </g>
     </g>
    </g>
    <g id="xtick_19">
     <g id="line2d_19">
      <g>
       <use style="stroke:#000000;stroke-width:0.6;" x="199.915057" xlink:href="#m9dbeeeaeb8" y="167.823884"/>
      </g>
     </g>
    </g>
    <g id="xtick_20">
     <g id="line2d_20">
      <g>
       <use style="stroke:#000000;stroke-width:0.6;" x="213.357529" xlink:href="#m9dbeeeaeb8" y="167.823884"/>
      </g>
     </g>
    </g>
    <g id="xtick_21">
     <g id="line2d_21">
      <g>
       <use style="stroke:#000000;stroke-width:0.6;" x="240.242471" xlink:href="#m9dbeeeaeb8" y="167.823884"/>
      </g>
     </g>
    </g>
    <g id="xtick_22">
     <g id="line2d_22">
      <g>
       <use style="stroke:#000000;stroke-width:0.6;" x="253.684943" xlink:href="#m9dbeeeaeb8" y="167.823884"/>
      </g>
     </g>
    </g>
    <g id="xtick_23">
     <g id="line2d_23">
      <g>
       <use style="stroke:#000000;stroke-width:0.6;" x="267.127414" xlink:href="#m9dbeeeaeb8" y="167.823884"/>
      </g>
     </g>
    </g>
    <g id="xtick_24">
     <g id="line2d_24">
      <g>
       <use style="stroke:#000000;stroke-width:0.6;" x="280.569885" xlink:href="#m9dbeeeaeb8" y="167.823884"/>
      </g>
     </g>
    </g>
    <g id="xtick_25">
     <g id="line2d_25">
      <g>
       <use style="stroke:#000000;stroke-width:0.6;" x="307.454828" xlink:href="#m9dbeeeaeb8" y="167.823884"/>
      </g>
     </g>
    </g>
    <g id="xtick_26">
     <g id="line2d_26">
      <g>
       <use style="stroke:#000000;stroke-width:0.6;" x="320.897299" xlink:href="#m9dbeeeaeb8" y="167.823884"/>
      </g>
     </g>
    </g>
    <g id="xtick_27">
     <g id="line2d_27">
      <g>
       <use style="stroke:#000000;stroke-width:0.6;" x="334.339771" xlink:href="#m9dbeeeaeb8" y="167.823884"/>
      </g>
     </g>
    </g>
    <g id="xtick_28">
     <g id="line2d_28">
      <g>
       <use style="stroke:#000000;stroke-width:0.6;" x="347.782242" xlink:href="#m9dbeeeaeb8" y="167.823884"/>
      </g>
     </g>
    </g>
    <g id="xtick_29">
     <g id="line2d_29">
      <g>
       <use style="stroke:#000000;stroke-width:0.6;" x="374.667185" xlink:href="#m9dbeeeaeb8" y="167.823884"/>
      </g>
     </g>
    </g>
    <g id="xtick_30">
     <g id="line2d_30">
      <g>
       <use style="stroke:#000000;stroke-width:0.6;" x="388.109656" xlink:href="#m9dbeeeaeb8" y="167.823884"/>
      </g>
     </g>
    </g>
    <g id="xtick_31">
     <g id="line2d_31">
      <g>
       <use style="stroke:#000000;stroke-width:0.6;" x="401.552128" xlink:href="#m9dbeeeaeb8" y="167.823884"/>
      </g>
     </g>
    </g>
    <g id="xtick_32">
     <g id="line2d_32">
      <g>
       <use style="stroke:#000000;stroke-width:0.6;" x="414.994599" xlink:href="#m9dbeeeaeb8" y="167.823884"/>
      </g>
     </g>
    </g>
    <g id="xtick_33">
     <g id="line2d_33">
      <g>
       <use style="stroke:#000000;stroke-width:0.6;" x="441.879542" xlink:href="#m9dbeeeaeb8" y="167.823884"/>
      </g>
     </g>
    </g>
   </g>
   <g id="matplotlib.axis_2">
    <g id="ytick_1">
     <g id="line2d_34">
      <defs>
       <path d="M 0 0 
L -3.5 0 
" id="ma1789b0f26" style="stroke:#000000;stroke-width:0.8;"/>
      </defs>
      <g>
       <use style="stroke:#000000;stroke-width:0.8;" x="226.8" xlink:href="#ma1789b0f26" y="324.648549"/>
      </g>
     </g>
     <g id="text_7">
      <!-- −1.0 -->
      <g transform="translate(195.517187 328.447768)scale(0.1 -0.1)">
       <defs>
        <path d="M 10.6875 12.40625 
L 21 12.40625 
L 21 0 
L 10.6875 0 
z
" id="DejaVuSans-46"/>
        <path d="M 31.78125 66.40625 
Q 24.171875 66.40625 20.328125 58.90625 
Q 16.5 51.421875 16.5 36.375 
Q 16.5 21.390625 20.328125 13.890625 
Q 24.171875 6.390625 31.78125 6.390625 
Q 39.453125 6.390625 43.28125 13.890625 
Q 47.125 21.390625 47.125 36.375 
Q 47.125 51.421875 43.28125 58.90625 
Q 39.453125 66.40625 31.78125 66.40625 
z
M 31.78125 74.21875 
Q 44.046875 74.21875 50.515625 64.515625 
Q 56.984375 54.828125 56.984375 36.375 
Q 56.984375 17.96875 50.515625 8.265625 
Q 44.046875 -1.421875 31.78125 -1.421875 
Q 19.53125 -1.421875 13.0625 8.265625 
Q 6.59375 17.96875 6.59375 36.375 
Q 6.59375 54.828125 13.0625 64.515625 
Q 19.53125 74.21875 31.78125 74.21875 
z
" id="DejaVuSans-48"/>
       </defs>
       <use xlink:href="#DejaVuSans-8722"/>
       <use x="83.789062" xlink:href="#DejaVuSans-49"/>
       <use x="147.412109" xlink:href="#DejaVuSans-46"/>
       <use x="179.199219" xlink:href="#DejaVuSans-48"/>
      </g>
     </g>
    </g>
    <g id="ytick_2">
     <g id="line2d_35">
      <g>
       <use style="stroke:#000000;stroke-width:0.8;" x="226.8" xlink:href="#ma1789b0f26" y="246.236217"/>
      </g>
     </g>
     <g id="text_8">
      <!-- −0.5 -->
      <g transform="translate(195.517187 250.035435)scale(0.1 -0.1)">
       <defs>
        <path d="M 10.796875 72.90625 
L 49.515625 72.90625 
L 49.515625 64.59375 
L 19.828125 64.59375 
L 19.828125 46.734375 
Q 21.96875 47.46875 24.109375 47.828125 
Q 26.265625 48.1875 28.421875 48.1875 
Q 40.625 48.1875 47.75 41.5 
Q 54.890625 34.8125 54.890625 23.390625 
Q 54.890625 11.625 47.5625 5.09375 
Q 40.234375 -1.421875 26.90625 -1.421875 
Q 22.3125 -1.421875 17.546875 -0.640625 
Q 12.796875 0.140625 7.71875 1.703125 
L 7.71875 11.625 
Q 12.109375 9.234375 16.796875 8.0625 
Q 21.484375 6.890625 26.703125 6.890625 
Q 35.15625 6.890625 40.078125 11.328125 
Q 45.015625 15.765625 45.015625 23.390625 
Q 45.015625 31 40.078125 35.4375 
Q 35.15625 39.890625 26.703125 39.890625 
Q 22.75 39.890625 18.8125 39.015625 
Q 14.890625 38.140625 10.796875 36.28125 
z
" id="DejaVuSans-53"/>
       </defs>
       <use xlink:href="#DejaVuSans-8722"/>
       <use x="83.789062" xlink:href="#DejaVuSans-48"/>
       <use x="147.412109" xlink:href="#DejaVuSans-46"/>
       <use x="179.199219" xlink:href="#DejaVuSans-53"/>
      </g>
     </g>
    </g>
    <g id="ytick_3">
     <g id="line2d_36">
      <g>
       <use style="stroke:#000000;stroke-width:0.8;" x="226.8" xlink:href="#ma1789b0f26" y="167.823884"/>
      </g>
     </g>
    </g>
    <g id="ytick_4">
     <g id="line2d_37">
      <g>
       <use style="stroke:#000000;stroke-width:0.8;" x="226.8" xlink:href="#ma1789b0f26" y="89.411551"/>
      </g>
     </g>
     <g id="text_9">
      <!-- 0.5 -->
      <g transform="translate(203.896875 93.21077)scale(0.1 -0.1)">
       <use xlink:href="#DejaVuSans-48"/>
       <use x="63.623047" xlink:href="#DejaVuSans-46"/>
       <use x="95.410156" xlink:href="#DejaVuSans-53"/>
      </g>
     </g>
    </g>
    <g id="ytick_5">
     <g id="line2d_38">
      <g>
       <use style="stroke:#000000;stroke-width:0.8;" x="226.8" xlink:href="#ma1789b0f26" y="10.999219"/>
      </g>
     </g>
     <g id="text_10">
      <!-- 1.0 -->
      <g transform="translate(203.896875 14.798438)scale(0.1 -0.1)">
       <use xlink:href="#DejaVuSans-49"/>
       <use x="63.623047" xlink:href="#DejaVuSans-46"/>
       <use x="95.410156" xlink:href="#DejaVuSans-48"/>
      </g>
     </g>
    </g>
    <g id="ytick_6">
     <g id="line2d_39">
      <defs>
       <path d="M 0 0 
L -2 0 
" id="m884cfe4679" style="stroke:#000000;stroke-width:0.6;"/>
      </defs>
      <g>
       <use style="stroke:#000000;stroke-width:0.6;" x="226.8" xlink:href="#m884cfe4679" y="308.966083"/>
      </g>
     </g>
    </g>
    <g id="ytick_7">
     <g id="line2d_40">
      <g>
       <use style="stroke:#000000;stroke-width:0.6;" x="226.8" xlink:href="#m884cfe4679" y="293.283616"/>
      </g>
     </g>
    </g>
    <g id="ytick_8">
     <g id="line2d_41">
      <g>
       <use style="stroke:#000000;stroke-width:0.6;" x="226.8" xlink:href="#m884cfe4679" y="277.60115"/>
      </g>
     </g>
    </g>
    <g id="ytick_9">
     <g id="line2d_42">
      <g>
       <use style="stroke:#000000;stroke-width:0.6;" x="226.8" xlink:href="#m884cfe4679" y="261.918683"/>
      </g>
     </g>
    </g>
    <g id="ytick_10">
     <g id="line2d_43">
      <g>
       <use style="stroke:#000000;stroke-width:0.6;" x="226.8" xlink:href="#m884cfe4679" y="230.55375"/>
      </g>
     </g>
    </g>
    <g id="ytick_11">
     <g id="line2d_44">
      <g>
       <use style="stroke:#000000;stroke-width:0.6;" x="226.8" xlink:href="#m884cfe4679" y="214.871284"/>
      </g>
     </g>
    </g>
    <g id="ytick_12">
     <g id="line2d_45">
      <g>
       <use style="stroke:#000000;stroke-width:0.6;" x="226.8" xlink:href="#m884cfe4679" y="199.188817"/>
      </g>
     </g>
    </g>
    <g id="ytick_13">
     <g id="line2d_46">
      <g>
       <use style="stroke:#000000;stroke-width:0.6;" x="226.8" xlink:href="#m884cfe4679" y="183.50635"/>
      </g>
     </g>
    </g>
    <g id="ytick_14">
     <g id="line2d_47">
      <g>
       <use style="stroke:#000000;stroke-width:0.6;" x="226.8" xlink:href="#m884cfe4679" y="152.141417"/>
      </g>
     </g>
    </g>
    <g id="ytick_15">
     <g id="line2d_48">
      <g>
       <use style="stroke:#000000;stroke-width:0.6;" x="226.8" xlink:href="#m884cfe4679" y="136.458951"/>
      </g>
     </g>
    </g>
    <g id="ytick_16">
     <g id="line2d_49">
      <g>
       <use style="stroke:#000000;stroke-width:0.6;" x="226.8" xlink:href="#m884cfe4679" y="120.776484"/>
      </g>
     </g>
    </g>
    <g id="ytick_17">
     <g id="line2d_50">
      <g>
       <use style="stroke:#000000;stroke-width:0.6;" x="226.8" xlink:href="#m884cfe4679" y="105.094018"/>
      </g>
     </g>
    </g>
    <g id="ytick_18">
     <g id="line2d_51">
      <g>
       <use style="stroke:#000000;stroke-width:0.6;" x="226.8" xlink:href="#m884cfe4679" y="73.729085"/>
      </g>
     </g>
    </g>
    <g id="ytick_19">
     <g id="line2d_52">
      <g>
       <use style="stroke:#000000;stroke-width:0.6;" x="226.8" xlink:href="#m884cfe4679" y="58.046618"/>
      </g>
     </g>
    </g>
    <g id="ytick_20">
     <g id="line2d_53">
      <g>
       <use style="stroke:#000000;stroke-width:0.6;" x="226.8" xlink:href="#m884cfe4679" y="42.364152"/>
      </g>
     </g>
    </g>
    <g id="ytick_21">
     <g id="line2d_54">
      <g>
       <use style="stroke:#000000;stroke-width:0.6;" x="226.8" xlink:href="#m884cfe4679" y="26.681685"/>
      </g>
     </g>
    </g>
   </g>
   <g id="line2d_55">
    <path clip-path="url(#p0766fac714)" d="M 15.646154 167.823884 
L 17.120679 167.937017 
L 18.79349 168.337957 
L 21.004359 169.304297 
L 22.590612 170.293982 
L 24.176864 171.51996 
L 25.619727 172.829646 
L 27.939299 175.293747 
L 30.996559 179.131607 
L 34.673968 184.435338 
L 46.382258 202.669273 
L 48.609183 205.707176 
L 50.30593 207.80138 
L 52.002677 209.666933 
L 53.945046 211.479631 
L 55.339009 212.54329 
L 56.732971 213.390482 
L 58.654797 214.176192 
L 59.675729 214.402467 
L 60.696661 214.48987 
L 61.830782 214.418863 
L 63.21544 214.08482 
L 64.600098 213.471006 
L 65.611997 212.841505 
L 66.623897 212.05679 
L 67.804938 210.942435 
L 68.985978 209.612631 
L 70.99005 206.861168 
L 72.232656 204.843048 
L 74.611833 200.32107 
L 76.547086 196.020732 
L 79.451669 188.57017 
L 81.5363 182.535395 
L 84.597852 172.742729 
L 88.54078 158.775473 
L 93.606698 139.314683 
L 102.092826 106.031301 
L 106.048851 91.693248 
L 108.338982 84.101404 
L 110.744989 76.848601 
L 113.206929 70.329827 
L 114.395409 67.548759 
L 115.630585 64.931162 
L 116.86576 62.606031 
L 118.907926 59.439569 
L 120.349915 57.738395 
L 121.872448 56.444507 
L 122.633715 55.996571 
L 123.639738 55.61252 
L 124.645762 55.468839 
L 125.329103 55.510121 
L 126.65394 55.914073 
L 127.295437 56.264558 
L 128.131474 56.874077 
L 128.967511 57.65716 
L 129.803548 58.614293 
L 130.639585 59.745669 
L 131.873225 61.73305 
L 133.106865 64.09798 
L 134.205709 66.520044 
L 136.263663 71.844428 
L 138.406939 78.454763 
L 140.748417 86.866004 
L 142.811177 95.246969 
L 145.544529 107.641458 
L 147.699495 118.345966 
L 151.206873 137.256738 
L 154.942108 158.956296 
L 161.292607 197.751726 
L 166.739201 230.712801 
L 170.727741 253.313588 
L 173.494346 267.722205 
L 175.038355 275.196326 
L 177.974263 288.102469 
L 180.34924 297.136695 
L 182.286939 303.478519 
L 184.19833 308.763704 
L 185.694491 312.194724 
L 187.093896 314.822117 
L 188.292043 316.613363 
L 189.490191 317.973597 
L 190.186146 318.563241 
L 190.882102 319.004262 
L 191.793582 319.355646 
L 192.705062 319.44911 
L 193.616542 319.283618 
L 194.528022 318.85862 
L 195.390916 318.217094 
L 196.891718 316.54842 
L 198.167538 314.580943 
L 199.384281 312.239311 
L 200.356255 310.046326 
L 202.300203 304.81751 
L 204.111184 298.962941 
L 206.157174 291.255517 
L 208.161281 282.641444 
L 209.92004 274.269949 
L 211.842495 264.316898 
L 214.114073 251.579039 
L 216.733903 235.746993 
L 218.967571 221.448295 
L 222.559146 197.317432 
L 234.788836 113.177681 
L 238.385455 90.581854 
L 241.100863 74.909409 
L 243.453073 62.510177 
L 245.281907 53.722754 
L 247.732243 43.233745 
L 249.937385 35.148289 
L 251.618396 29.897374 
L 253.204082 25.696956 
L 254.493398 22.834348 
L 255.831301 20.397847 
L 257.21779 18.454311 
L 257.911034 17.706262 
L 258.885296 16.908224 
L 259.859558 16.406675 
L 260.937309 16.197269 
L 261.652457 16.258196 
L 262.367604 16.478036 
L 263.082752 16.856119 
L 263.7979 17.391592 
L 264.767699 18.367291 
L 265.737498 19.627387 
L 266.603049 20.989207 
L 268.06097 23.779941 
L 268.65334 25.088827 
L 270.617381 30.131172 
L 272.17598 34.874543 
L 274.064354 41.454788 
L 276.160412 49.758965 
L 278.19274 58.73235 
L 281.157876 73.261343 
L 284.222529 89.775258 
L 287.608007 109.3511 
L 292.624671 139.850134 
L 299.446858 181.379389 
L 303.773573 206.031995 
L 306.046498 218.050813 
L 308.974856 232.3306 
L 311.730269 244.334636 
L 313.84119 252.484034 
L 315.770814 259.079652 
L 317.700439 264.819307 
L 319.626212 269.663529 
L 321.226145 273.000377 
L 322.801176 275.666857 
L 323.588692 276.768592 
L 324.694331 278.05449 
L 325.79997 279.03606 
L 326.906343 279.714941 
L 328.012715 280.092567 
L 329.142208 280.17051 
L 330.2717 279.941867 
L 331.189744 279.533661 
L 332.687822 278.448248 
L 334.185901 276.856996 
L 335.163275 275.554889 
L 336.24519 273.87845 
L 337.327105 271.963101 
L 338.623564 269.365847 
L 340.959586 263.905754 
L 342.983241 258.433462 
L 345.658516 250.273358 
L 348.582467 240.348897 
L 351.724538 228.793845 
L 357.927096 204.515069 
L 362.635641 186.028796 
L 365.732214 174.397478 
L 369.245266 162.090398 
L 372.037415 153.191904 
L 374.544643 145.993397 
L 377.041338 139.654395 
L 379.62828 134.025999 
L 381.643107 130.336325 
L 383.347132 127.702081 
L 385.045495 125.524263 
L 386.471359 124.040953 
L 388.022439 122.782299 
L 389.573519 121.888062 
L 391.185688 121.336075 
L 392.45453 121.164554 
L 393.723372 121.216984 
L 395.130843 121.527276 
L 396.291919 121.974373 
L 397.452995 122.586057 
L 398.855561 123.532596 
L 400.996567 125.381355 
L 402.708229 127.174718 
L 405.718111 130.8998 
L 408.45881 134.787104 
L 414.116978 143.638304 
L 419.41207 151.946781 
L 422.256368 156.043866 
L 425.074462 159.666641 
L 427.448779 162.291265 
L 429.221941 163.956042 
L 430.636845 165.086655 
L 433.102294 166.608048 
L 434.362492 167.155216 
L 435.622691 167.541432 
L 436.788268 167.753173 
L 437.953846 167.823884 
L 437.953846 167.823884 
" style="fill:none;stroke:#000000;stroke-linecap:square;"/>
   </g>
   <g id="patch_3">
    <path d="M 226.8 325.514147 
L 226.8 10.132233 
" style="fill:none;stroke:#000000;stroke-linecap:square;stroke-linejoin:miter;stroke-width:0.8;"/>
   </g>
   <g id="patch_4">
    <path d="M 7.2 167.823884 
L 446.4 167.823884 
" style="fill:none;stroke:#000000;stroke-linecap:square;stroke-linejoin:miter;stroke-width:0.8;"/>
   </g>
  </g>
 </g>
 <defs>
  <clipPath id="p0766fac714">
   <rect height="315.381915" width="439.2" x="7.2" y="10.132233"/>
  </clipPath>
 </defs>
</svg>
