<?xml version="1.0" encoding="utf-8" standalone="no"?>
<!DOCTYPE svg PUBLIC "-//W3C//DTD SVG 1.1//EN"
  "http://www.w3.org/Graphics/SVG/1.1/DTD/svg11.dtd">
<svg xmlns:xlink="http://www.w3.org/1999/xlink" width="338.4pt" height="338.4pt" viewBox="0 0 338.4 338.4" xmlns="http://www.w3.org/2000/svg" version="1.1">
 <metadata>
  <rdf:RDF xmlns:dc="http://purl.org/dc/elements/1.1/" xmlns:cc="http://creativecommons.org/ns#" xmlns:rdf="http://www.w3.org/1999/02/22-rdf-syntax-ns#">
   <cc:Work>
    <dc:type rdf:resource="http://purl.org/dc/dcmitype/StillImage"/>
    <dc:date>2024-12-01T17:05:31.552092</dc:date>
    <dc:format>image/svg+xml</dc:format>
    <dc:creator>
     <cc:Agent>
      <dc:title>Matplotlib v3.6.3, https://matplotlib.org/</dc:title>
     </cc:Agent>
    </dc:creator>
   </cc:Work>
  </rdf:RDF>
 </metadata>
 <defs>
  <style type="text/css">*{stroke-linejoin: round; stroke-linecap: butt}</style>
 </defs>
 <g id="figure_1">
  <g id="patch_1">
   <path d="M -0 338.4 
L 338.4 338.4 
L 338.4 0 
L -0 0 
z
" style="fill: #ffffff"/>
  </g>
  <g id="axes_1">
   <g id="patch_2">
    <path d="M 7.2 331.2 
L 331.2 331.2 
L 331.2 7.2 
L 7.2 7.2 
z
" style="fill: #ffffff"/>
   </g>
   <g id="patch_3">
    <path d="M 13.430769 324.969231 
L 13.430769 13.430769 
L 324.969231 13.430769 
L 324.969231 324.969231 
L 13.430769 324.969231 
z
" clip-path="url(#pf5d2c43ab3)" style="fill: none; stroke: #000000; stroke-linejoin: miter"/>
   </g>
   <g id="matplotlib.axis_1"/>
   <g id="matplotlib.axis_2"/>
   <g id="text_1">
    <!-- $\Omega$ -->
    <g transform="translate(17.569231 23.978606) scale(0.1 -0.1)">
     <defs>
      <path id="Cmr10-ad" d="M 494 0 
L 281 1063 
L 469 1063 
Q 503 878 531 736 
Q 559 594 604 536 
Q 650 478 750 459 
Q 850 441 1081 441 
L 1472 441 
Q 1378 803 1004 1386 
Q 631 1969 495 2233 
Q 359 2497 359 2913 
Q 359 3397 646 3761 
Q 934 4125 1389 4319 
Q 1844 4513 2309 4513 
Q 2772 4513 3226 4319 
Q 3681 4125 3968 3758 
Q 4256 3391 4256 2913 
Q 4256 2588 4137 2300 
Q 4019 2013 3834 1725 
Q 3650 1438 3436 1084 
Q 3222 731 3144 441 
L 3531 441 
Q 3766 441 3869 459 
Q 3972 478 4015 536 
Q 4059 594 4086 736 
Q 4113 878 4147 1063 
L 4331 1063 
L 4122 0 
L 2988 0 
Q 2925 0 2925 84 
Q 2925 409 3004 721 
Q 3084 1034 3240 1478 
Q 3397 1922 3484 2261 
Q 3572 2600 3572 2913 
Q 3572 3297 3422 3625 
Q 3272 3953 2984 4150 
Q 2697 4347 2309 4347 
Q 1725 4347 1384 3930 
Q 1044 3513 1044 2913 
Q 1047 2584 1122 2293 
Q 1197 2003 1364 1518 
Q 1531 1034 1611 721 
Q 1691 409 1691 84 
Q 1691 0 1625 0 
L 494 0 
z
" transform="scale(0.015625)"/>
     </defs>
     <use xlink:href="#Cmr10-ad" transform="translate(0 0.484375)"/>
    </g>
   </g>
   <g id="text_2">
    <!-- $A$ -->
    <g style="fill: #0000ff" transform="translate(87.565385 123.28149) scale(0.1 -0.1)">
     <defs>
      <path id="Cmmi10-41" d="M 288 0 
Q 225 0 225 84 
Q 250 225 306 225 
Q 566 225 755 328 
Q 944 431 1081 647 
Q 1094 659 1094 659 
L 3378 4513 
Q 3428 4581 3500 4581 
L 3584 4581 
Q 3603 4581 3622 4573 
Q 3641 4566 3655 4548 
Q 3669 4531 3669 4513 
L 4056 378 
Q 4056 350 4084 294 
Q 4147 225 4563 225 
Q 4628 225 4628 141 
Q 4606 56 4592 28 
Q 4578 0 4519 0 
L 2919 0 
Q 2859 0 2859 84 
Q 2894 225 2944 225 
Q 3450 225 3481 397 
L 3384 1453 
L 1806 1453 
L 1294 594 
Q 1247 525 1247 434 
Q 1247 322 1355 273 
Q 1463 225 1594 225 
Q 1656 225 1656 141 
Q 1634 50 1621 25 
Q 1609 0 1550 0 
L 288 0 
z
M 1931 1678 
L 3359 1678 
L 3169 3750 
L 1931 1678 
z
" transform="scale(0.015625)"/>
     </defs>
     <use xlink:href="#Cmmi10-41" transform="translate(0 0.421875)"/>
    </g>
   </g>
   <g id="text_3">
    <!-- $B$ -->
    <g style="fill: #ff0000" transform="translate(243.284615 123.28149) scale(0.1 -0.1)">
     <defs>
      <path id="Cmmi10-42" d="M 319 0 
Q 256 0 256 84 
Q 259 100 268 137 
Q 278 175 293 200 
Q 309 225 341 225 
Q 522 225 656 234 
Q 791 244 884 269 
Q 959 297 1006 441 
L 1881 3956 
Q 1894 4019 1894 4044 
Q 1894 4113 1819 4122 
Q 1697 4147 1356 4147 
Q 1294 4147 1294 4231 
Q 1297 4247 1306 4286 
Q 1316 4325 1333 4348 
Q 1350 4372 1375 4372 
L 3669 4372 
Q 3878 4372 4083 4320 
Q 4288 4269 4461 4156 
Q 4634 4044 4736 3876 
Q 4838 3709 4838 3488 
Q 4838 3247 4714 3040 
Q 4591 2834 4395 2681 
Q 4200 2528 3973 2429 
Q 3747 2331 3500 2284 
Q 3675 2284 3854 2215 
Q 4034 2147 4175 2028 
Q 4316 1909 4402 1743 
Q 4488 1578 4488 1388 
Q 4488 1003 4219 684 
Q 3950 366 3542 183 
Q 3134 0 2753 0 
L 319 0 
z
M 1497 275 
Q 1497 225 1716 225 
L 2631 225 
Q 2944 225 3231 398 
Q 3519 572 3692 859 
Q 3866 1147 3866 1459 
Q 3866 1650 3786 1820 
Q 3706 1991 3556 2089 
Q 3406 2188 3213 2188 
L 1966 2188 
L 1522 416 
Q 1497 328 1497 275 
z
M 2009 2356 
L 2981 2356 
Q 3288 2356 3577 2512 
Q 3866 2669 4048 2937 
Q 4231 3206 4231 3506 
Q 4231 3784 4057 3965 
Q 3884 4147 3609 4147 
L 2731 4147 
Q 2559 4147 2500 4115 
Q 2441 4084 2400 3928 
L 2009 2356 
z
" transform="scale(0.015625)"/>
     </defs>
     <use xlink:href="#Cmmi10-42" transform="translate(0 0.6875)"/>
    </g>
   </g>
   <g id="text_4">
    <!-- $A\cap B=\emptyset$ -->
    <g transform="translate(148.4 55.132452) scale(0.1 -0.1)">
     <defs>
      <path id="Cmsy10-5c" d="M 359 -25 
L 359 2472 
Q 359 2897 625 3206 
Q 891 3516 1306 3672 
Q 1722 3828 2131 3828 
Q 2434 3828 2745 3745 
Q 3056 3663 3320 3489 
Q 3584 3316 3743 3056 
Q 3903 2797 3903 2472 
L 3903 -25 
Q 3903 -75 3865 -108 
Q 3828 -141 3775 -141 
Q 3728 -141 3687 -108 
Q 3647 -75 3647 -25 
L 3647 2450 
Q 3647 2731 3508 2945 
Q 3369 3159 3151 3293 
Q 2934 3428 2662 3500 
Q 2391 3572 2131 3572 
Q 1775 3572 1426 3447 
Q 1078 3322 847 3069 
Q 616 2816 616 2450 
L 616 -25 
Q 616 -75 575 -108 
Q 534 -141 488 -141 
Q 434 -141 396 -108 
Q 359 -75 359 -25 
z
" transform="scale(0.015625)"/>
      <path id="Cmr10-3d" d="M 481 850 
Q 428 850 393 890 
Q 359 931 359 978 
Q 359 1031 393 1068 
Q 428 1106 481 1106 
L 4500 1106 
Q 4547 1106 4581 1068 
Q 4616 1031 4616 978 
Q 4616 931 4581 890 
Q 4547 850 4500 850 
L 481 850 
z
M 481 2094 
Q 428 2094 393 2131 
Q 359 2169 359 2222 
Q 359 2269 393 2309 
Q 428 2350 481 2350 
L 4500 2350 
Q 4547 2350 4581 2309 
Q 4616 2269 4616 2222 
Q 4616 2169 4581 2131 
Q 4547 2094 4500 2094 
L 481 2094 
z
" transform="scale(0.015625)"/>
      <path id="Cmsy10-3b" d="M 709 -372 
Q 709 -353 716 -347 
L 856 147 
Q 509 463 398 1003 
Q 288 1544 288 2203 
Q 288 3147 553 3864 
Q 819 4581 1600 4581 
Q 1869 4581 2113 4447 
L 2234 4844 
Q 2256 4941 2356 4941 
Q 2409 4941 2446 4903 
Q 2484 4866 2484 4813 
L 2484 4788 
L 2338 4288 
Q 2575 4066 2703 3717 
Q 2831 3369 2868 2992 
Q 2906 2616 2906 2203 
Q 2906 1650 2814 1129 
Q 2722 609 2431 234 
Q 2141 -141 1600 -141 
Q 1313 -141 1075 -6 
L 966 -403 
Q 928 -500 838 -500 
Q 791 -500 750 -459 
Q 709 -419 709 -372 
z
M 1141 213 
Q 1347 25 1600 25 
Q 1897 25 2075 270 
Q 2253 516 2334 891 
Q 2416 1266 2433 1598 
Q 2450 1931 2450 2309 
Q 2450 2866 2415 3294 
Q 2381 3722 2247 3994 
L 1141 213 
z
M 947 469 
L 2053 4238 
Q 1844 4416 1600 4416 
Q 1300 4416 1122 4195 
Q 944 3975 864 3650 
Q 784 3325 764 3000 
Q 744 2675 744 2309 
Q 744 1706 778 1239 
Q 813 772 947 469 
z
" transform="scale(0.015625)"/>
     </defs>
     <use xlink:href="#Cmmi10-41" transform="translate(0 0.796875)"/>
     <use xlink:href="#Cmsy10-5c" transform="translate(92.558594 0.796875)"/>
     <use xlink:href="#Cmmi10-42" transform="translate(176.71875 0.796875)"/>
     <use xlink:href="#Cmr10-3d" transform="translate(270.058594 0.796875)"/>
     <use xlink:href="#Cmsy10-3b" transform="translate(365.302734 0.796875)"/>
    </g>
   </g>
   <g id="patch_4">
    <path d="M 110.786538 208.142308 
C 121.114159 208.142308 131.020178 204.0391 138.322908 196.73637 
C 145.625639 189.433639 149.728846 179.527621 149.728846 169.2 
C 149.728846 158.872379 145.625639 148.966361 138.322908 141.66363 
C 131.020178 134.3609 121.114159 130.257692 110.786538 130.257692 
C 100.458918 130.257692 90.552899 134.3609 83.250169 141.66363 
C 75.947438 148.966361 71.844231 158.872379 71.844231 169.2 
C 71.844231 179.527621 75.947438 189.433639 83.250169 196.73637 
C 90.552899 204.0391 100.458918 208.142308 110.786538 208.142308 
L 110.786538 208.142308 
z
" clip-path="url(#pf5d2c43ab3)" style="fill: none; stroke: #0000ff; stroke-linejoin: miter"/>
   </g>
   <g id="patch_5">
    <path d="M 227.613462 208.142308 
C 237.941082 208.142308 247.847101 204.0391 255.149831 196.73637 
C 262.452562 189.433639 266.555769 179.527621 266.555769 169.2 
C 266.555769 158.872379 262.452562 148.966361 255.149831 141.66363 
C 247.847101 134.3609 237.941082 130.257692 227.613462 130.257692 
C 217.285841 130.257692 207.379822 134.3609 200.077092 141.66363 
C 192.774361 148.966361 188.671154 158.872379 188.671154 169.2 
C 188.671154 179.527621 192.774361 189.433639 200.077092 196.73637 
C 207.379822 204.0391 217.285841 208.142308 227.613462 208.142308 
L 227.613462 208.142308 
z
" clip-path="url(#pf5d2c43ab3)" style="fill: none; stroke: #ff0000; stroke-linejoin: miter"/>
   </g>
  </g>
 </g>
 <defs>
  <clipPath id="pf5d2c43ab3">
   <rect x="7.2" y="7.2" width="324" height="324"/>
  </clipPath>
 </defs>
</svg>
