<?xml version="1.0" encoding="utf-8" standalone="no"?>
<!DOCTYPE svg PUBLIC "-//W3C//DTD SVG 1.1//EN"
  "http://www.w3.org/Graphics/SVG/1.1/DTD/svg11.dtd">
<!-- Created with matplotlib (https://matplotlib.org/) -->
<svg height="338.4pt" version="1.1" viewBox="0 0 338.4 338.4" width="338.4pt" xmlns="http://www.w3.org/2000/svg" xmlns:xlink="http://www.w3.org/1999/xlink">
 <metadata>
  <rdf:RDF xmlns:cc="http://creativecommons.org/ns#" xmlns:dc="http://purl.org/dc/elements/1.1/" xmlns:rdf="http://www.w3.org/1999/02/22-rdf-syntax-ns#">
   <cc:Work>
    <dc:type rdf:resource="http://purl.org/dc/dcmitype/StillImage"/>
    <dc:date>2024-08-24T16:34:24.416344</dc:date>
    <dc:format>image/svg+xml</dc:format>
    <dc:creator>
     <cc:Agent>
      <dc:title>Matplotlib v3.3.4, https://matplotlib.org/</dc:title>
     </cc:Agent>
    </dc:creator>
   </cc:Work>
  </rdf:RDF>
 </metadata>
 <defs>
  <style type="text/css">*{stroke-linecap:butt;stroke-linejoin:round;}</style>
 </defs>
 <g id="figure_1">
  <g id="patch_1">
   <path d="M -0 338.4 
L 338.4 338.4 
L 338.4 0 
L -0 0 
z
" style="fill:#ffffff;"/>
  </g>
  <g id="axes_1">
   <g id="patch_2">
    <path d="M 7.2 331.2 
L 331.2 331.2 
L 331.2 7.2 
L 7.2 7.2 
z
" style="fill:#ffffff;"/>
   </g>
   <g id="patch_3">
    <path clip-path="url(#p41c1ad9448)" d="M 13.430769 324.969231 
L 13.430769 13.430769 
L 324.969231 13.430769 
L 324.969231 324.969231 
z
" style="fill:none;stroke:#000000;stroke-linejoin:miter;"/>
   </g>
   <g id="patch_4">
    <path clip-path="url(#p41c1ad9448)" d="M 169.2 169.2 
L 169.2 101.749945 
L 169.488072 101.917085 
L 169.524769 101.938496 
L 169.878288 102.146128 
L 170.02381 102.232327 
L 170.152637 102.308994 
L 170.418136 102.468058 
L 170.574467 102.562391 
L 170.840978 102.724363 
L 170.886392 102.75211 
L 171.189294 102.938267 
L 171.3294 103.025019 
L 171.646051 103.222602 
L 171.675633 103.241168 
L 171.923526 103.39748 
L 172.180946 103.561184 
L 172.404096 103.704245 
L 172.481393 103.75405 
L 172.669778 103.875974 
L 172.998087 104.090308 
L 173.197599 104.221713 
L 173.277676 104.274702 
L 173.477668 104.407662 
L 173.781004 104.611033 
L 173.801724 104.625 
L 174.057193 104.798004 
L 174.235174 104.919408 
L 174.463357 105.076116 
L 174.672536 105.220824 
L 174.781194 105.296392 
L 175.1076 105.525051 
L 175.22939 105.61101 
L 175.536839 105.829563 
L 175.62286 105.891115 
L 175.790492 106.011571 
L 176.081711 106.222444 
L 176.192333 106.303084 
L 176.480944 106.51488 
L 176.570069 106.580697 
L 176.907817 106.831906 
L 177.009792 106.908311 
L 177.126479 106.99606 
L 177.4872 107.269499 
L 177.655631 107.398312 
L 177.714552 107.443545 
L 178.070297 107.718554 
L 178.285149 107.886244 
L 178.393692 107.971421 
L 178.510743 108.063624 
L 178.866737 108.346289 
L 178.888497 108.363677 
L 179.213599 108.624984 
L 179.300114 108.695007 
L 179.571055 108.915628 
L 179.727411 109.043868 
L 180.014928 109.281465 
L 180.133304 109.379965 
L 180.434053 109.632004 
L 180.637194 109.803711 
L 180.73827 109.889591 
L 180.910073 110.036248 
L 181.224609 110.306989 
L 181.404847 110.463453 
L 181.460013 110.511537 
L 181.799293 110.809275 
L 181.9351 110.929434 
L 182.170412 111.138973 
L 182.374351 111.321962 
L 182.505909 111.440696 
L 182.626447 111.549963 
L 182.898612 111.798372 
L 183.057095 111.944115 
L 183.222912 112.097471 
L 183.445847 112.305066 
L 183.678558 112.523511 
L 183.910383 112.742918 
L 184.069983 112.895021 
L 184.243344 113.061219 
L 184.381094 113.194012 
L 184.620429 113.426295 
L 184.811258 113.612935 
L 185.110964 113.908664 
L 185.32331 114.120139 
L 185.437887 114.234926 
L 185.724227 114.523891 
L 185.848441 114.650188 
L 186.002064 114.807185 
L 186.272914 115.086154 
L 186.387387 115.204901 
L 186.582177 115.408126 
L 186.746095 115.580286 
L 186.972417 115.81973 
L 187.12112 115.978163 
L 187.369248 116.244513 
L 187.614293 116.510023 
L 187.693367 116.596231 
L 187.893559 116.81565 
L 188.27955 117.243505 
L 188.326322 117.295785 
L 188.56012 117.558542 
L 188.836191 117.87191 
L 188.884757 117.927389 
L 189.251037 118.349252 
L 189.43756 118.566448 
L 189.479279 118.61525 
L 189.655113 118.821832 
L 189.943893 119.164305 
L 190.230116 119.50773 
L 190.412499 119.72867 
L 190.537491 119.881046 
L 190.675553 120.050276 
L 190.981205 120.428406 
L 191.023619 120.481261 
L 191.248102 120.762584 
L 191.554901 121.151425 
L 191.738754 121.386902 
L 191.940733 121.647756 
L 192.163932 121.938697 
L 192.338971 122.16886 
L 192.462391 122.33222 
L 192.713309 122.667117 
L 192.878651 122.889862 
L 192.987809 123.037832 
L 193.252263 123.399374 
L 193.483284 123.718819 
L 193.598803 123.879838 
L 193.88339 124.28025 
L 194.113006 124.607263 
L 194.223135 124.76538 
L 194.355325 124.95628 
L 194.6137 125.332956 
L 194.92662 125.795586 
L 195.123886 126.09095 
L 195.278396 126.32435 
L 195.497985 126.659225 
L 195.567285 126.765693 
L 195.850629 127.205 
L 195.97073 127.393182 
L 196.220358 127.788166 
L 196.471466 128.190861 
L 196.620652 128.432723 
L 196.715386 128.587338 
L 197.073471 129.179192 
L 197.277614 129.522004 
L 197.402697 129.734045 
L 197.477386 129.861392 
L 197.760061 130.348442 
L 197.942832 130.667738 
L 198.065368 130.883784 
L 198.363525 131.416288 
L 198.597559 131.841253 
L 198.671833 131.977444 
L 199.010414 132.606604 
L 199.125838 132.824296 
L 199.384183 133.31767 
L 199.612813 133.761595 
L 199.784684 134.09999 
L 199.938874 134.407095 
L 200.068317 134.667552 
L 200.274165 135.086851 
L 200.486715 135.526603 
L 200.706917 135.98976 
L 200.956916 136.525345 
L 201.074299 136.780538 
L 201.225437 137.112736 
L 201.376575 137.449129 
L 201.489869 137.704122 
L 201.606711 137.969712 
L 201.784034 138.377999 
L 201.928608 138.715689 
L 202.073181 139.057856 
L 202.198011 139.357013 
L 202.426632 139.91421 
L 202.571932 140.274854 
L 202.717232 140.64079 
L 202.842048 140.959522 
L 203.016422 141.411864 
L 203.134137 141.722062 
L 203.251852 142.036313 
L 203.442086 142.553089 
L 203.628082 143.069573 
L 203.748152 143.409196 
L 203.868223 143.753917 
L 204.066634 144.335297 
L 204.180721 144.676559 
L 204.294808 145.023175 
L 204.357667 145.216525 
L 204.480169 145.598362 
L 204.602671 145.987127 
L 204.734994 146.415249 
L 204.888879 146.924468 
L 205.042764 147.446692 
L 205.162976 147.864308 
L 205.283189 148.290954 
L 205.370037 148.605121 
L 205.456885 148.924528 
L 205.560615 149.313243 
L 205.63178 149.584693 
L 205.702944 149.860216 
L 205.774109 150.139986 
L 205.845273 150.424194 
L 205.965223 150.913854 
L 206.031185 151.189137 
L 206.097146 151.468939 
L 206.163108 151.753477 
L 206.22907 152.042987 
L 206.289764 152.313989 
L 206.350459 152.589634 
L 206.411153 152.870157 
L 206.471847 153.155814 
L 206.523984 153.405505 
L 206.576121 153.659383 
L 206.626351 153.90813 
L 206.676581 154.16116 
L 206.726812 154.418691 
L 206.777042 154.680962 
L 206.837066 155.000959 
L 206.897091 155.328595 
L 206.957116 155.664426 
L 207.01714 156.009077 
L 207.059663 156.258959 
L 207.102187 156.513905 
L 207.14471 156.774226 
L 207.187233 157.040268 
L 207.239597 157.376308 
L 207.291961 157.722422 
L 207.344325 158.079549 
L 207.396688 158.448787 
L 207.45119 158.847354 
L 207.47844 159.052615 
L 207.505691 159.262191 
L 207.532941 159.476359 
L 207.560192 159.695429 
L 207.587442 159.919749 
L 207.614693 160.14971 
L 207.644065 160.404399 
L 207.673437 160.666787 
L 207.70281 160.937608 
L 207.732182 161.21772 
L 207.759468 161.487151 
L 207.786755 161.766442 
L 207.814041 162.056749 
L 207.841328 162.359473 
L 207.868614 162.676344 
L 207.882258 162.840741 
L 207.895901 163.009533 
L 207.909544 163.183089 
L 207.923187 163.361833 
L 207.936831 163.546259 
L 207.950474 163.736942 
L 207.962464 163.910213 
L 207.974453 164.089383 
L 207.986443 164.275097 
L 207.998432 164.468124 
L 208.010422 164.669399 
L 208.022412 164.880075 
L 208.034401 165.101601 
L 208.046391 165.335844 
L 208.052386 165.458475 
L 208.05838 165.585274 
L 208.064375 165.716696 
L 208.07037 165.853285 
L 208.076365 165.995703 
L 208.08236 166.144764 
L 208.088354 166.301492 
L 208.094349 166.467208 
L 208.100344 166.643658 
L 208.106339 166.833242 
L 208.112334 167.039414 
L 208.118328 167.267476 
L 208.124323 167.526353 
L 208.130318 167.833446 
L 208.136313 168.233682 
L 208.142308 169.2 
L 208.142308 169.2 
z
" style="fill:#808080;opacity:0.5;"/>
   </g>
   <g id="patch_5">
    <path clip-path="url(#p41c1ad9448)" d="M 169.2 169.2 
L 169.2 236.650055 
L 169.357602 236.558818 
L 169.508843 236.4708 
L 169.802623 236.298523 
L 169.994345 236.185161 
L 170.272469 236.019391 
L 170.362078 235.965647 
L 170.632511 235.802457 
L 170.734584 235.740473 
L 171.021392 235.565157 
L 171.106109 235.513047 
L 171.325414 235.377455 
L 171.597822 235.207628 
L 171.745906 235.114653 
L 171.967242 234.974818 
L 172.176503 234.841653 
L 172.364886 234.72097 
L 172.45154 234.665201 
L 172.627529 234.551437 
L 172.888622 234.381417 
L 173.120832 234.228952 
L 173.368763 234.064851 
L 173.507896 233.972163 
L 173.68892 233.850922 
L 173.820483 233.762347 
L 174.047587 233.608528 
L 174.201127 233.503871 
L 174.492066 233.304084 
L 174.703363 233.157764 
L 174.916708 233.008977 
L 175.115786 232.869182 
L 175.23354 232.786055 
L 175.389146 232.675706 
L 175.614161 232.515117 
L 175.913329 232.299732 
L 176.106021 232.159861 
L 176.285286 232.028926 
L 176.478761 231.88673 
L 176.671617 231.744071 
L 176.89807 231.575384 
L 177.035757 231.472193 
L 177.151491 231.385086 
L 177.43104 231.173289 
L 177.558332 231.076189 
L 177.76858 230.9149 
L 177.912196 230.804071 
L 178.164813 230.607826 
L 178.308958 230.495099 
L 178.56865 230.290627 
L 178.881874 230.041616 
L 179.048116 229.908384 
L 179.228076 229.763313 
L 179.368308 229.649654 
L 179.522102 229.524384 
L 179.833492 229.268739 
L 179.971399 229.154655 
L 180.237 228.933425 
L 180.393552 228.802088 
L 180.576997 228.647295 
L 180.700391 228.542628 
L 180.924367 228.351512 
L 181.090847 228.208505 
L 181.307557 228.021124 
L 181.49142 227.861047 
L 181.648378 227.723591 
L 181.919053 227.484793 
L 182.020731 227.394511 
L 182.343939 227.105407 
L 182.421836 227.035244 
L 182.748016 226.739371 
L 182.956444 226.548538 
L 183.033312 226.477808 
L 183.359125 226.175882 
L 183.447064 226.093796 
L 183.682817 225.872474 
L 183.876511 225.689252 
L 184.11796 225.459087 
L 184.268763 225.314326 
L 184.416898 225.171365 
L 184.734107 224.862677 
L 184.854671 224.744426 
L 184.99316 224.607959 
L 185.276785 224.326334 
L 185.389419 224.21369 
L 185.55231 224.049964 
L 185.786495 223.812868 
L 186.101767 223.490447 
L 186.183678 223.406065 
L 186.434671 223.145902 
L 186.525557 223.051098 
L 186.854059 222.705743 
L 187.051975 222.495617 
L 187.207993 222.328867 
L 187.495618 222.018872 
L 187.590798 221.915542 
L 187.709847 221.78577 
L 187.954728 221.51697 
L 188.12387 221.329826 
L 188.326311 221.104227 
L 188.525723 220.880266 
L 188.843713 220.519505 
L 189.060876 220.270528 
L 189.230715 220.074315 
L 189.412004 219.863406 
L 189.625806 219.612701 
L 189.786204 219.423198 
L 189.935211 219.246049 
L 190.107594 219.03977 
L 190.260671 218.855371 
L 190.611728 218.428078 
L 190.669016 218.357759 
L 191.001682 217.946087 
L 191.04119 217.896814 
L 191.224011 217.667735 
L 191.478358 217.346064 
L 191.741459 217.00962 
L 191.833537 216.89097 
L 192.022883 216.64549 
L 192.35922 216.204399 
L 192.527391 215.981385 
L 192.707724 215.740379 
L 192.831224 215.5742 
L 193.13763 215.15788 
L 193.247215 215.007568 
L 193.542752 214.598398 
L 193.690529 214.391687 
L 193.797051 214.241795 
L 194.024864 213.918688 
L 194.201083 213.666348 
L 194.444534 213.3142 
L 194.666387 212.989649 
L 194.888386 212.661324 
L 195.062239 212.401668 
L 195.174377 212.23298 
L 195.431449 211.84264 
L 195.694717 211.437531 
L 195.894807 211.125917 
L 195.934333 211.063972 
L 196.244866 210.572771 
L 196.470846 210.210141 
L 196.514986 210.138788 
L 196.755875 209.746332 
L 196.908419 209.495086 
L 197.201112 209.006932 
L 197.336231 208.77882 
L 197.655812 208.232125 
L 197.83548 207.920226 
L 197.871454 207.857374 
L 198.121955 207.415901 
L 198.289654 207.116561 
L 198.611413 206.533392 
L 198.751337 206.276057 
L 198.920849 205.961179 
L 199.219212 205.398371 
L 199.36672 205.115953 
L 199.626724 204.611168 
L 199.821168 204.227649 
L 199.869545 204.131408 
L 200.037578 203.79452 
L 200.253102 203.356346 
L 200.460321 202.928388 
L 200.615951 202.602526 
L 200.861402 202.080534 
L 201.123792 201.511132 
L 201.373718 200.95727 
L 201.407757 200.880934 
L 201.564807 200.525847 
L 201.721857 200.165892 
L 201.903878 199.742388 
L 202.056331 199.382259 
L 202.232399 198.959954 
L 202.392794 198.56904 
L 202.553188 198.171963 
L 202.694958 197.815658 
L 202.802633 197.541575 
L 203.020855 196.976526 
L 203.208695 196.47938 
L 203.33601 196.136458 
L 203.463326 195.788504 
L 203.618134 195.358344 
L 203.753208 194.976393 
L 203.888283 194.587977 
L 203.991549 194.286485 
L 204.094814 193.980895 
L 204.216716 193.614669 
L 204.360742 193.173972 
L 204.504768 192.724139 
L 204.586919 192.463263 
L 204.718422 192.03885 
L 204.849925 191.605628 
L 204.978662 191.172484 
L 205.107399 190.729858 
L 205.227645 190.307332 
L 205.315699 189.99204 
L 205.403753 189.671514 
L 205.505236 189.295284 
L 205.617315 188.870805 
L 205.729394 188.436308 
L 205.840078 187.996711 
L 205.950761 187.545916 
L 206.064074 187.071929 
L 206.177386 186.584286 
L 206.277614 186.140628 
L 206.377841 185.684426 
L 206.455882 185.319838 
L 206.533923 184.946424 
L 206.601778 184.61408 
L 206.669633 184.274104 
L 206.737488 183.925969 
L 206.805343 183.569082 
L 206.851748 183.319629 
L 206.898154 183.065533 
L 206.944559 182.806534 
L 206.990965 182.542348 
L 207.029223 182.320418 
L 207.067482 182.094556 
L 207.138794 181.662323 
L 207.17445 181.440328 
L 207.210107 181.214126 
L 207.245763 180.983475 
L 207.281419 180.748108 
L 207.317076 180.507731 
L 207.352732 180.262016 
L 207.381747 180.057879 
L 207.410762 179.849751 
L 207.439777 179.637392 
L 207.468792 179.42054 
L 207.497807 179.198902 
L 207.526822 178.972152 
L 207.555837 178.739925 
L 207.584852 178.501813 
L 207.613747 178.258376 
L 207.642641 178.00812 
L 207.671536 177.750444 
L 207.700431 177.484657 
L 207.729326 177.209951 
L 207.758221 176.925376 
L 207.787115 176.629796 
L 207.81601 176.321843 
L 207.836741 176.092351 
L 207.857472 175.854886 
L 207.878203 175.608561 
L 207.898934 175.352312 
L 207.914145 175.157242 
L 207.929355 174.955524 
L 207.944566 174.746433 
L 207.959777 174.529101 
L 207.974988 174.302475 
L 207.990199 174.065257 
L 208.00541 173.815813 
L 208.020621 173.552043 
L 208.028226 173.413951 
L 208.035832 173.271163 
L 208.043437 173.123166 
L 208.051042 172.969348 
L 208.058648 172.808964 
L 208.066253 172.641097 
L 208.073859 172.464591 
L 208.081464 172.277961 
L 208.08907 172.079239 
L 208.096675 171.865722 
L 208.104281 171.63352 
L 208.111886 171.37666 
L 208.119491 171.085088 
L 208.127097 170.739206 
L 208.134702 170.288409 
L 208.142308 169.2 
L 208.142308 169.2 
z
" style="fill:#808080;opacity:0.5;"/>
   </g>
   <g id="patch_6">
    <path clip-path="url(#p41c1ad9448)" d="M 130.257692 169.2 
L 130.257692 169.2 
L 130.263957 168.212192 
L 130.270221 167.803056 
L 130.276486 167.489135 
L 130.28275 167.224503 
L 130.289014 166.991371 
L 130.295279 166.780617 
L 130.301543 166.586821 
L 130.307808 166.40645 
L 130.314072 166.237052 
L 130.320337 166.076842 
L 130.326601 165.92447 
L 130.332865 165.778889 
L 130.33913 165.639266 
L 130.345394 165.504926 
L 130.351659 165.375312 
L 130.357923 165.249959 
L 130.370452 165.010518 
L 130.382981 164.784076 
L 130.39551 164.568726 
L 130.408038 164.362987 
L 130.420567 164.165679 
L 130.433096 163.975849 
L 130.445625 163.792708 
L 130.458154 163.615597 
L 130.469302 163.462619 
L 130.480451 163.313637 
L 130.502747 163.026508 
L 130.525044 162.752231 
L 130.547341 162.489228 
L 130.569638 162.236222 
L 130.591935 161.99216 
L 130.614231 161.756163 
L 130.636528 161.527486 
L 130.667863 161.217281 
L 130.699199 160.918806 
L 130.730534 160.630836 
L 130.761869 160.352344 
L 130.793204 160.082462 
L 130.824539 159.820447 
L 130.855875 159.565657 
L 130.88721 159.317533 
L 130.920945 159.057299 
L 130.954679 158.803686 
L 130.988414 158.55622 
L 131.022149 158.314484 
L 131.079386 157.916406 
L 131.136624 157.532183 
L 131.193861 157.160487 
L 131.251098 156.800192 
L 131.29415 156.536113 
L 131.337202 156.277573 
L 131.380254 156.024246 
L 131.423306 155.775837 
L 131.483356 155.437062 
L 131.543406 155.106685 
L 131.603455 154.784127 
L 131.663505 154.468875 
L 131.725354 154.151331 
L 131.787202 153.840599 
L 131.849051 153.536275 
L 131.9109 153.237991 
L 131.972169 152.948131 
L 132.033438 152.663578 
L 132.13715 152.193255 
L 132.240863 151.73621 
L 132.304063 151.463766 
L 132.367264 151.195667 
L 132.430464 150.93172 
L 132.493665 150.671748 
L 132.58799 150.290786 
L 132.694104 149.871734 
L 132.800218 149.462146 
L 132.907382 149.057525 
L 133.014546 148.661432 
L 133.156408 148.14939 
L 133.30947 147.611585 
L 133.393886 147.321089 
L 133.478302 147.034721 
L 133.647134 146.473749 
L 133.694067 146.320474 
L 133.814274 145.932927 
L 133.934481 145.552341 
L 134.064736 145.147419 
L 134.19499 144.749896 
L 134.29867 144.43853 
L 134.444938 144.006528 
L 134.591207 143.582645 
L 134.722489 143.208779 
L 134.853771 142.840869 
L 134.876606 142.777466 
L 135.022104 142.377452 
L 135.167601 141.984095 
L 135.305739 141.616535 
L 135.477408 141.167419 
L 135.682823 140.640652 
L 135.857075 140.202441 
L 135.986904 139.880877 
L 136.116732 139.563371 
L 136.265247 139.204977 
L 136.413761 138.851542 
L 136.431117 138.810554 
L 136.595143 138.426366 
L 136.759169 138.047779 
L 136.943147 137.629557 
L 137.082896 137.316253 
L 137.247602 136.951682 
L 137.425394 136.563649 
L 137.65165 136.077795 
L 137.865134 135.627211 
L 138.090498 135.159476 
L 138.322235 134.686659 
L 138.412886 134.503876 
L 138.698825 133.935059 
L 138.953263 133.438437 
L 139.062094 133.228658 
L 139.235894 132.896839 
L 139.495029 132.40918 
L 139.589129 132.234137 
L 139.93918 131.5922 
L 140.060579 131.372872 
L 140.326711 130.897805 
L 140.387691 130.790038 
L 140.720942 130.208043 
L 140.880149 129.934044 
L 140.924767 129.857714 
L 141.253343 129.301632 
L 141.41624 129.029798 
L 141.542322 128.821105 
L 141.870608 128.284536 
L 141.901875 128.233936 
L 142.271044 127.642931 
L 142.370848 127.485153 
L 142.634522 127.072297 
L 142.831734 126.767202 
L 142.977336 126.543937 
L 143.173939 126.245089 
L 143.451603 125.828051 
L 143.618145 125.580672 
L 143.78964 125.328055 
L 144.020199 124.991761 
L 144.077342 124.908991 
L 144.284398 124.61098 
L 144.48679 124.322518 
L 144.792644 123.891795 
L 144.867066 123.787919 
L 145.065148 123.513183 
L 145.237775 123.27579 
L 145.528849 122.879722 
L 145.764157 122.563323 
L 145.841246 122.460391 
L 146.184658 122.006113 
L 146.322279 121.825985 
L 146.413857 121.70672 
L 146.676105 121.367801 
L 146.849904 121.145296 
L 146.99722 120.95799 
L 147.376103 120.481608 
L 147.551733 120.263352 
L 147.618183 120.181191 
L 147.785693 119.975084 
L 148.154451 119.526362 
L 148.357761 119.281854 
L 148.503767 119.107507 
L 148.599955 118.993212 
L 148.756297 118.808383 
L 149.133295 118.367435 
L 149.258448 118.222511 
L 149.522875 117.918664 
L 149.553165 117.884061 
L 149.898105 117.492881 
L 150.045827 117.326961 
L 150.304943 117.038208 
L 150.46919 116.856664 
L 150.639793 116.669303 
L 150.743027 116.55652 
L 150.916533 116.367964 
L 151.282624 115.974164 
L 151.401058 115.847925 
L 151.568467 115.670439 
L 151.692877 115.53926 
L 151.980948 115.237838 
L 152.086813 115.127874 
L 152.394454 114.810754 
L 152.630074 114.57029 
L 152.720233 114.478826 
L 153.021153 114.175718 
L 153.175265 114.021765 
L 153.40799 113.790905 
L 153.546828 113.654101 
L 153.723209 113.481287 
L 153.906543 113.302816 
L 154.045422 113.168399 
L 154.341618 112.883935 
L 154.616454 112.622652 
L 154.735315 112.510438 
L 154.918302 112.338602 
L 155.029944 112.234307 
L 155.296706 111.986752 
L 155.431515 111.862528 
L 155.72884 111.590611 
L 155.798158 111.527621 
L 156.132199 111.226196 
L 156.285118 111.089371 
L 156.488049 110.908913 
L 156.682762 110.736948 
L 156.92795 110.522041 
L 157.068013 110.400088 
L 157.352914 110.153825 
L 157.522031 110.008776 
L 157.666101 109.885871 
L 157.920744 109.67011 
L 158.093556 109.524748 
L 158.189269 109.444605 
L 158.51311 109.175371 
L 158.602299 109.10174 
L 158.838904 108.907482 
L 158.968641 108.801624 
L 159.256135 108.568692 
L 159.409622 108.445258 
L 159.54659 108.335647 
L 159.799932 108.134232 
L 160.088593 107.906821 
L 160.146892 107.861159 
L 160.319147 107.726765 
L 160.524082 107.567883 
L 160.843654 107.322293 
L 161.06779 107.151607 
L 161.230742 107.028315 
L 161.292733 106.981589 
L 161.53661 106.7987 
L 161.748705 106.640852 
L 161.961682 106.48347 
L 162.210589 106.300949 
L 162.361153 106.191277 
L 162.463141 106.1173 
L 162.783033 105.886893 
L 162.845716 105.842032 
L 163.130363 105.639492 
L 163.252169 105.553408 
L 163.544736 105.348062 
L 163.656282 105.270298 
L 163.915834 105.090466 
L 164.047224 105.000024 
L 164.319484 104.813872 
L 164.557899 104.652246 
L 164.650865 104.58957 
L 164.803755 104.486916 
L 165.090155 104.296029 
L 165.21022 104.216547 
L 165.4071 104.086904 
L 165.640076 103.934591 
L 165.863574 103.789588 
L 166.019687 103.688946 
L 166.353904 103.475251 
L 166.546328 103.353301 
L 166.667934 103.276638 
L 166.86185 103.155037 
L 167.112803 102.998844 
L 167.33109 102.864053 
L 167.349249 102.852885 
L 167.731914 102.619121 
L 167.79044 102.583635 
L 167.947652 102.48866 
L 168.21862 102.326145 
L 168.335205 102.256682 
L 168.613244 102.092128 
L 168.886825 101.931728 
L 168.933523 101.904498 
L 169.2 101.749945 
L 169.2 169.2 
z
" style="fill:#808080;opacity:0.5;"/>
   </g>
   <g id="patch_7">
    <path clip-path="url(#p41c1ad9448)" d="M 130.257692 169.2 
L 130.257692 169.2 
L 130.264825 170.254023 
L 130.271957 170.690579 
L 130.27909 171.025538 
L 130.286222 171.307901 
L 130.293355 171.556651 
L 130.300487 171.781523 
L 130.307619 171.988299 
L 130.314752 172.180749 
L 130.321884 172.361489 
L 130.329017 172.532426 
L 130.336149 172.694998 
L 130.343282 172.850323 
L 130.350414 172.999289 
L 130.357546 173.142618 
L 130.364679 173.280904 
L 130.371811 173.414643 
L 130.386076 173.670099 
L 130.400341 173.911683 
L 130.414606 174.141428 
L 130.428871 174.360916 
L 130.443136 174.571406 
L 130.457401 174.773916 
L 130.471666 174.969286 
L 130.48593 175.15822 
L 130.499912 175.337723 
L 130.513893 175.512092 
L 130.527874 175.681741 
L 130.541855 175.847033 
L 130.569817 176.165776 
L 130.597779 176.47045 
L 130.625742 176.762758 
L 130.653704 177.04408 
L 130.681666 177.315561 
L 130.709628 177.578156 
L 130.733689 177.797621 
L 130.75775 178.011557 
L 130.781811 178.220356 
L 130.805871 178.424367 
L 130.838746 178.695929 
L 130.871621 178.959828 
L 130.904495 179.216669 
L 130.93737 179.466982 
L 130.970245 179.711232 
L 131.003119 179.949834 
L 131.035994 180.183155 
L 131.068869 180.411525 
L 131.108429 180.680192 
L 131.147989 180.942581 
L 131.197169 181.260638 
L 131.246349 181.570324 
L 131.29553 181.872254 
L 131.34471 182.16697 
L 131.402319 182.503661 
L 131.459927 182.831796 
L 131.517536 183.151978 
L 131.575145 183.464742 
L 131.661432 183.920358 
L 131.747719 184.361798 
L 131.84153 184.827049 
L 131.935342 185.278297 
L 132.034831 185.742834 
L 132.134321 186.194096 
L 132.205561 186.509644 
L 132.2768 186.819253 
L 132.34804 187.123232 
L 132.419279 187.421863 
L 132.501574 187.760517 
L 132.58387 188.092744 
L 132.659575 188.392977 
L 132.73528 188.688291 
L 132.869836 189.201709 
L 133.004392 189.70139 
L 133.096162 190.034809 
L 133.187931 190.362578 
L 133.311899 190.796834 
L 133.435867 191.221831 
L 133.555342 191.623156 
L 133.674818 192.016798 
L 133.79252 192.397465 
L 133.927652 192.826219 
L 134.062784 193.24657 
L 134.100415 193.36219 
L 134.253005 193.824871 
L 134.405595 194.278089 
L 134.480521 194.497322 
L 134.606228 194.860443 
L 134.731936 195.21789 
L 134.863217 195.585378 
L 135.034265 196.055678 
L 135.205313 196.516811 
L 135.436188 197.1255 
L 135.563339 197.45432 
L 135.746388 197.9201 
L 135.902636 198.310877 
L 136.105578 198.809507 
L 136.24361 199.143123 
L 136.381642 199.472433 
L 136.53976 199.844551 
L 136.771929 200.381442 
L 136.89839 200.669311 
L 137.055584 201.022807 
L 137.252171 201.45836 
L 137.47629 201.946409 
L 137.620565 202.255969 
L 137.799272 202.634573 
L 138.024994 203.105392 
L 138.330546 203.73015 
L 138.425674 203.921813 
L 138.61485 204.299088 
L 138.844761 204.750856 
L 139.100374 205.24476 
L 139.30951 205.642547 
L 139.497761 205.995918 
L 139.650873 206.280139 
L 139.866705 206.676064 
L 139.971349 206.866083 
L 140.196165 207.270132 
L 140.456186 207.730537 
L 140.643765 208.058205 
L 140.822773 208.367507 
L 141.072378 208.793406 
L 141.176083 208.968556 
L 141.378086 209.306758 
L 141.673742 209.794865 
L 141.770569 209.952982 
L 141.929316 210.210401 
L 142.230108 210.692111 
L 142.30664 210.813437 
L 142.641975 211.33929 
L 142.80068 211.584962 
L 142.936638 211.793825 
L 143.15195 212.121635 
L 143.386662 212.47493 
L 143.617248 212.818 
L 143.765511 213.03653 
L 143.952216 213.30947 
L 144.194696 213.660277 
L 144.384462 213.931984 
L 144.618571 214.263824 
L 144.703042 214.382662 
L 144.945323 214.720922 
L 145.227381 215.109969 
L 145.408136 215.356657 
L 145.544454 215.541364 
L 145.66341 215.701621 
L 145.852409 215.954485 
L 146.101974 216.285139 
L 146.32937 216.583267 
L 146.541366 216.858549 
L 146.708914 217.07433 
L 146.918396 217.341936 
L 147.131468 217.61168 
L 147.283102 217.802165 
L 147.457255 218.01944 
L 147.628493 218.231536 
L 147.903266 218.568727 
L 147.988016 218.671957 
L 148.174664 218.898039 
L 148.447569 219.225508 
L 148.628516 219.44064 
L 148.826945 219.674757 
L 149.018616 219.899137 
L 149.204548 220.115162 
L 149.354488 220.288213 
L 149.726404 220.713062 
L 149.871593 220.87724 
L 150.020316 221.044453 
L 150.25917 221.310993 
L 150.382889 221.44809 
L 150.630929 221.720993 
L 150.85102 221.960986 
L 150.929648 222.046239 
L 151.272132 222.414626 
L 151.414481 222.566347 
L 151.567009 222.72802 
L 151.826211 223.000655 
L 151.967588 223.148255 
L 152.230514 223.420703 
L 152.289496 223.481459 
L 152.528643 223.726449 
L 152.827076 224.029175 
L 152.955487 224.158422 
L 153.118023 224.321152 
L 153.342395 224.544222 
L 153.53479 224.734064 
L 153.755408 224.950143 
L 153.853279 225.045453 
L 154.146426 225.328942 
L 154.391027 225.563225 
L 154.542022 225.706837 
L 154.738812 225.892857 
L 154.984736 226.123509 
L 155.056824 226.190742 
L 155.270797 226.389305 
L 155.488992 226.590258 
L 155.641545 226.729847 
L 155.963602 227.022106 
L 156.159635 227.198406 
L 156.24477 227.274598 
L 156.519618 227.519046 
L 156.646051 227.630718 
L 156.775662 227.744692 
L 157.10887 228.035376 
L 157.313528 228.212274 
L 157.522608 228.391716 
L 157.716328 228.556835 
L 157.872082 228.688803 
L 158.127897 228.904037 
L 158.224901 228.985164 
L 158.511999 229.22371 
L 158.672985 229.356458 
L 158.775491 229.440607 
L 159.107154 229.710884 
L 159.147033 229.743177 
L 159.497362 230.025016 
L 159.564661 230.078778 
L 159.861416 230.314391 
L 160.064092 230.473962 
L 160.133969 230.528727 
L 160.45946 230.782135 
L 160.508474 230.820055 
L 160.797487 231.04239 
L 161.069276 231.249521 
L 161.159407 231.317794 
L 161.361021 231.469772 
L 161.490972 231.567188 
L 161.75128 231.761057 
L 161.870354 231.849179 
L 162.155807 232.05901 
L 162.414488 232.247441 
L 162.621102 232.396781 
L 162.678112 232.437807 
L 162.934601 232.621421 
L 163.182464 232.797373 
L 163.261693 232.853309 
L 163.574039 233.072394 
L 163.635173 233.115008 
L 163.898802 233.297781 
L 164.175029 233.487571 
L 164.244158 233.534795 
L 164.576996 233.760645 
L 164.748872 233.876295 
L 164.801366 233.911483 
L 165.185502 234.167116 
L 165.220751 234.190409 
L 165.473315 234.356507 
L 165.600371 234.439535 
L 165.78894 234.562111 
L 166.014837 234.707935 
L 166.255154 234.861859 
L 166.452371 234.987252 
L 166.641203 235.106537 
L 166.84118 235.232039 
L 166.96315 235.308171 
L 167.288552 235.509758 
L 167.349872 235.547498 
L 167.653355 235.733135 
L 167.808889 235.827537 
L 167.948597 235.91191 
L 168.234018 236.083045 
L 168.445173 236.208587 
L 168.622005 236.313031 
L 168.858623 236.451806 
L 168.92199 236.488781 
L 169.2 236.650055 
L 169.2 169.2 
z
" style="fill:#808080;opacity:0.5;"/>
   </g>
   <g id="matplotlib.axis_1"/>
   <g id="matplotlib.axis_2"/>
   <g id="line2d_1">
    <path clip-path="url(#p41c1ad9448)" d="M 169.2 101.749945 
L 172.669778 103.875974 
L 176.192333 106.303084 
L 179.571055 108.915628 
L 182.626447 111.549963 
L 185.724227 114.523891 
L 188.56012 117.558542 
L 191.248102 120.762584 
L 193.88339 124.28025 
L 196.220358 127.788166 
L 198.363525 131.416288 
L 200.274165 135.086851 
L 202.073181 139.057856 
L 203.628082 143.069573 
L 204.888879 146.924468 
L 206.031185 151.189137 
L 206.897091 155.328595 
L 207.532941 159.476359 
L 207.936831 163.546259 
L 208.124323 167.526353 
L 208.142308 169.2 
L 208.142308 169.2 
" style="fill:none;stroke:#0000ff;stroke-linecap:square;"/>
   </g>
   <g id="line2d_2">
    <path clip-path="url(#p41c1ad9448)" d="M 169.2 236.650055 
L 172.627529 234.551437 
L 176.106021 232.159861 
L 179.368308 229.649654 
L 182.421836 227.035244 
L 185.55231 224.049964 
L 188.326311 221.104227 
L 191.04119 217.896814 
L 193.542752 214.598398 
L 195.934333 211.063972 
L 198.121955 207.415901 
L 200.037578 203.79452 
L 201.721857 200.165892 
L 203.33601 196.136458 
L 204.718422 192.03885 
L 205.840078 187.996711 
L 206.737488 183.925969 
L 207.439777 179.637392 
L 207.878203 175.608561 
L 208.111886 171.37666 
L 208.142308 169.2 
L 208.142308 169.2 
" style="fill:none;stroke:#0000ff;stroke-linecap:square;"/>
   </g>
   <g id="line2d_3">
    <path clip-path="url(#p41c1ad9448)" d="M 130.257692 169.2 
L 130.39551 164.568726 
L 130.761869 160.352344 
L 131.337202 156.277573 
L 132.13715 152.193255 
L 133.156408 148.14939 
L 134.444938 144.006528 
L 135.857075 140.202441 
L 137.425394 136.563649 
L 139.235894 132.896839 
L 141.41624 129.029798 
L 143.618145 125.580672 
L 145.841246 122.460391 
L 148.599955 118.993212 
L 151.401058 115.847925 
L 154.341618 112.883935 
L 157.522031 110.008776 
L 160.524082 107.567883 
L 164.047224 105.000024 
L 167.349249 102.852885 
L 169.2 101.749945 
L 169.2 101.749945 
" style="fill:none;stroke:#0000ff;stroke-linecap:square;"/>
   </g>
   <g id="line2d_4">
    <path clip-path="url(#p41c1ad9448)" d="M 130.257692 169.2 
L 130.400341 173.911683 
L 130.75775 178.011557 
L 131.34471 182.16697 
L 132.134321 186.194096 
L 133.187931 190.362578 
L 134.480521 194.497322 
L 135.902636 198.310877 
L 137.620565 202.255969 
L 139.497761 205.995918 
L 141.378086 209.306758 
L 143.765511 213.03653 
L 146.101974 216.285139 
L 148.826945 219.674757 
L 151.567009 222.72802 
L 154.542022 225.706837 
L 157.716328 228.556835 
L 160.797487 231.04239 
L 164.244158 233.534795 
L 167.808889 235.827537 
L 169.2 236.650055 
L 169.2 236.650055 
" style="fill:none;stroke:#0000ff;stroke-linecap:square;"/>
   </g>
   <g id="text_1">
    <!-- $\Omega$ -->
    <g transform="translate(17.569231 23.978606)scale(0.1 -0.1)">
     <defs>
      <path d="M 7.71875 0 
L 4.390625 16.609375 
L 7.328125 16.609375 
Q 7.859375 13.71875 8.296875 11.5 
Q 8.734375 9.28125 9.4375 8.375 
Q 10.15625 7.46875 11.71875 7.171875 
Q 13.28125 6.890625 16.890625 6.890625 
L 23 6.890625 
Q 21.53125 12.546875 15.6875 21.65625 
Q 9.859375 30.765625 7.734375 34.890625 
Q 5.609375 39.015625 5.609375 45.515625 
Q 5.609375 53.078125 10.09375 58.765625 
Q 14.59375 64.453125 21.703125 67.484375 
Q 28.8125 70.515625 36.078125 70.515625 
Q 43.3125 70.515625 50.40625 67.484375 
Q 57.515625 64.453125 62 58.71875 
Q 66.5 52.984375 66.5 45.515625 
Q 66.5 40.4375 64.640625 35.9375 
Q 62.796875 31.453125 59.90625 26.953125 
Q 57.03125 22.46875 53.6875 16.9375 
Q 50.34375 11.421875 49.125 6.890625 
L 55.171875 6.890625 
Q 58.84375 6.890625 60.453125 7.171875 
Q 62.0625 7.46875 62.734375 8.375 
Q 63.421875 9.28125 63.84375 11.5 
Q 64.265625 13.71875 64.796875 16.609375 
L 67.671875 16.609375 
L 64.40625 0 
L 46.6875 0 
Q 45.703125 0 45.703125 1.3125 
Q 45.703125 6.390625 46.9375 11.265625 
Q 48.1875 16.15625 50.625 23.09375 
Q 53.078125 30.03125 54.4375 35.328125 
Q 55.8125 40.625 55.8125 45.515625 
Q 55.8125 51.515625 53.46875 56.640625 
Q 51.125 61.765625 46.625 64.84375 
Q 42.140625 67.921875 36.078125 67.921875 
Q 26.953125 67.921875 21.625 61.40625 
Q 16.3125 54.890625 16.3125 45.515625 
Q 16.359375 40.375 17.53125 35.828125 
Q 18.703125 31.296875 21.3125 23.71875 
Q 23.921875 16.15625 25.171875 11.265625 
Q 26.421875 6.390625 26.421875 1.3125 
Q 26.421875 0 25.390625 0 
z
" id="Cmr10-173"/>
     </defs>
     <use transform="translate(0 0.484375)" xlink:href="#Cmr10-173"/>
    </g>
   </g>
   <g id="text_2">
    <!-- $A$ -->
    <g style="fill:#0000ff;" transform="translate(87.565385 94.07476)scale(0.1 -0.1)">
     <defs>
      <path d="M 4.5 0 
Q 3.515625 0 3.515625 1.3125 
Q 3.90625 3.515625 4.78125 3.515625 
Q 8.84375 3.515625 11.796875 5.125 
Q 14.75 6.734375 16.890625 10.109375 
Q 17.09375 10.296875 17.09375 10.296875 
L 52.78125 70.515625 
Q 53.5625 71.578125 54.6875 71.578125 
L 56 71.578125 
Q 56.296875 71.578125 56.59375 71.453125 
Q 56.890625 71.34375 57.109375 71.0625 
Q 57.328125 70.796875 57.328125 70.515625 
L 63.375 5.90625 
Q 63.375 5.46875 63.8125 4.59375 
Q 64.796875 3.515625 71.296875 3.515625 
Q 72.3125 3.515625 72.3125 2.203125 
Q 71.96875 0.875 71.75 0.4375 
Q 71.53125 0 70.609375 0 
L 45.609375 0 
Q 44.671875 0 44.671875 1.3125 
Q 45.21875 3.515625 46 3.515625 
Q 53.90625 3.515625 54.390625 6.203125 
L 52.875 22.703125 
L 28.21875 22.703125 
L 20.21875 9.28125 
Q 19.484375 8.203125 19.484375 6.78125 
Q 19.484375 5.03125 21.171875 4.265625 
Q 22.859375 3.515625 24.90625 3.515625 
Q 25.875 3.515625 25.875 2.203125 
Q 25.53125 0.78125 25.328125 0.390625 
Q 25.140625 0 24.21875 0 
z
M 30.171875 26.21875 
L 52.484375 26.21875 
L 49.515625 58.59375 
z
" id="Cmmi10-65"/>
     </defs>
     <use transform="translate(0 0.421875)" xlink:href="#Cmmi10-65"/>
    </g>
   </g>
   <g id="text_3">
    <!-- $B$ -->
    <g style="fill:#ff0000;" transform="translate(243.284615 94.07476)scale(0.1 -0.1)">
     <defs>
      <path d="M 4.984375 0 
Q 4 0 4 1.3125 
Q 4.046875 1.5625 4.1875 2.140625 
Q 4.34375 2.734375 4.578125 3.125 
Q 4.828125 3.515625 5.328125 3.515625 
Q 8.15625 3.515625 10.25 3.65625 
Q 12.359375 3.8125 13.8125 4.203125 
Q 14.984375 4.640625 15.71875 6.890625 
L 29.390625 61.8125 
Q 29.59375 62.796875 29.59375 63.1875 
Q 29.59375 64.265625 28.421875 64.40625 
Q 26.515625 64.796875 21.1875 64.796875 
Q 20.21875 64.796875 20.21875 66.109375 
Q 20.265625 66.359375 20.40625 66.96875 
Q 20.5625 67.578125 20.828125 67.9375 
Q 21.09375 68.3125 21.484375 68.3125 
L 57.328125 68.3125 
Q 60.59375 68.3125 63.796875 67.5 
Q 67 66.703125 69.703125 64.9375 
Q 72.40625 63.1875 74 60.5625 
Q 75.59375 57.953125 75.59375 54.5 
Q 75.59375 50.734375 73.65625 47.5 
Q 71.734375 44.28125 68.671875 41.890625 
Q 65.625 39.5 62.078125 37.953125 
Q 58.546875 36.421875 54.6875 35.6875 
Q 57.421875 35.6875 60.21875 34.609375 
Q 63.03125 33.546875 65.234375 31.6875 
Q 67.4375 29.828125 68.78125 27.234375 
Q 70.125 24.65625 70.125 21.6875 
Q 70.125 15.671875 65.921875 10.6875 
Q 61.71875 5.71875 55.34375 2.859375 
Q 48.96875 0 43.015625 0 
z
M 23.390625 4.296875 
Q 23.390625 3.515625 26.8125 3.515625 
L 41.109375 3.515625 
Q 46 3.515625 50.484375 6.21875 
Q 54.984375 8.9375 57.6875 13.421875 
Q 60.40625 17.921875 60.40625 22.796875 
Q 60.40625 25.78125 59.15625 28.4375 
Q 57.90625 31.109375 55.5625 32.640625 
Q 53.21875 34.1875 50.203125 34.1875 
L 30.71875 34.1875 
L 23.78125 6.5 
Q 23.390625 5.125 23.390625 4.296875 
z
M 31.390625 36.8125 
L 46.578125 36.8125 
Q 51.375 36.8125 55.890625 39.25 
Q 60.40625 41.703125 63.25 45.890625 
Q 66.109375 50.09375 66.109375 54.78125 
Q 66.109375 59.125 63.390625 61.953125 
Q 60.6875 64.796875 56.390625 64.796875 
L 42.671875 64.796875 
Q 39.984375 64.796875 39.0625 64.296875 
Q 38.140625 63.8125 37.5 61.375 
z
" id="Cmmi10-66"/>
     </defs>
     <use transform="translate(0 0.6875)" xlink:href="#Cmmi10-66"/>
    </g>
   </g>
   <g id="text_4">
    <!-- $A\cap B$, colorée en gris -->
    <g transform="translate(116.25 55.323077)scale(0.1 -0.1)">
     <defs>
      <path d="M 5.609375 -0.390625 
L 5.609375 38.625 
Q 5.609375 45.265625 9.765625 50.09375 
Q 13.921875 54.9375 20.40625 57.375 
Q 26.90625 59.8125 33.296875 59.8125 
Q 38.03125 59.8125 42.890625 58.515625 
Q 47.75 57.234375 51.875 54.515625 
Q 56 51.8125 58.484375 47.75 
Q 60.984375 43.703125 60.984375 38.625 
L 60.984375 -0.390625 
Q 60.984375 -1.171875 60.390625 -1.6875 
Q 59.8125 -2.203125 58.984375 -2.203125 
Q 58.25 -2.203125 57.609375 -1.6875 
Q 56.984375 -1.171875 56.984375 -0.390625 
L 56.984375 38.28125 
Q 56.984375 42.671875 54.8125 46.015625 
Q 52.640625 49.359375 49.234375 51.453125 
Q 45.84375 53.5625 41.59375 54.6875 
Q 37.359375 55.8125 33.296875 55.8125 
Q 27.734375 55.8125 22.28125 53.859375 
Q 16.84375 51.90625 13.234375 47.953125 
Q 9.625 44 9.625 38.28125 
L 9.625 -0.390625 
Q 9.625 -1.171875 8.984375 -1.6875 
Q 8.34375 -2.203125 7.625 -2.203125 
Q 6.78125 -2.203125 6.1875 -1.6875 
Q 5.609375 -1.171875 5.609375 -0.390625 
z
" id="Cmsy10-92"/>
      <path d="M 11.71875 12.40625 
L 22.015625 12.40625 
L 22.015625 4 
L 14.015625 -11.625 
L 7.71875 -11.625 
L 11.71875 4 
z
" id="DejaVuSans-44"/>
      <path id="DejaVuSans-32"/>
      <path d="M 48.78125 52.59375 
L 48.78125 44.1875 
Q 44.96875 46.296875 41.140625 47.34375 
Q 37.3125 48.390625 33.40625 48.390625 
Q 24.65625 48.390625 19.8125 42.84375 
Q 14.984375 37.3125 14.984375 27.296875 
Q 14.984375 17.28125 19.8125 11.734375 
Q 24.65625 6.203125 33.40625 6.203125 
Q 37.3125 6.203125 41.140625 7.25 
Q 44.96875 8.296875 48.78125 10.40625 
L 48.78125 2.09375 
Q 45.015625 0.34375 40.984375 -0.53125 
Q 36.96875 -1.421875 32.421875 -1.421875 
Q 20.0625 -1.421875 12.78125 6.34375 
Q 5.515625 14.109375 5.515625 27.296875 
Q 5.515625 40.671875 12.859375 48.328125 
Q 20.21875 56 33.015625 56 
Q 37.15625 56 41.109375 55.140625 
Q 45.0625 54.296875 48.78125 52.59375 
z
" id="DejaVuSans-99"/>
      <path d="M 30.609375 48.390625 
Q 23.390625 48.390625 19.1875 42.75 
Q 14.984375 37.109375 14.984375 27.296875 
Q 14.984375 17.484375 19.15625 11.84375 
Q 23.34375 6.203125 30.609375 6.203125 
Q 37.796875 6.203125 41.984375 11.859375 
Q 46.1875 17.53125 46.1875 27.296875 
Q 46.1875 37.015625 41.984375 42.703125 
Q 37.796875 48.390625 30.609375 48.390625 
z
M 30.609375 56 
Q 42.328125 56 49.015625 48.375 
Q 55.71875 40.765625 55.71875 27.296875 
Q 55.71875 13.875 49.015625 6.21875 
Q 42.328125 -1.421875 30.609375 -1.421875 
Q 18.84375 -1.421875 12.171875 6.21875 
Q 5.515625 13.875 5.515625 27.296875 
Q 5.515625 40.765625 12.171875 48.375 
Q 18.84375 56 30.609375 56 
z
" id="DejaVuSans-111"/>
      <path d="M 9.421875 75.984375 
L 18.40625 75.984375 
L 18.40625 0 
L 9.421875 0 
z
" id="DejaVuSans-108"/>
      <path d="M 41.109375 46.296875 
Q 39.59375 47.171875 37.8125 47.578125 
Q 36.03125 48 33.890625 48 
Q 26.265625 48 22.1875 43.046875 
Q 18.109375 38.09375 18.109375 28.8125 
L 18.109375 0 
L 9.078125 0 
L 9.078125 54.6875 
L 18.109375 54.6875 
L 18.109375 46.1875 
Q 20.953125 51.171875 25.484375 53.578125 
Q 30.03125 56 36.53125 56 
Q 37.453125 56 38.578125 55.875 
Q 39.703125 55.765625 41.0625 55.515625 
z
" id="DejaVuSans-114"/>
      <path d="M 56.203125 29.59375 
L 56.203125 25.203125 
L 14.890625 25.203125 
Q 15.484375 15.921875 20.484375 11.0625 
Q 25.484375 6.203125 34.421875 6.203125 
Q 39.59375 6.203125 44.453125 7.46875 
Q 49.3125 8.734375 54.109375 11.28125 
L 54.109375 2.78125 
Q 49.265625 0.734375 44.1875 -0.34375 
Q 39.109375 -1.421875 33.890625 -1.421875 
Q 20.796875 -1.421875 13.15625 6.1875 
Q 5.515625 13.8125 5.515625 26.8125 
Q 5.515625 40.234375 12.765625 48.109375 
Q 20.015625 56 32.328125 56 
Q 43.359375 56 49.78125 48.890625 
Q 56.203125 41.796875 56.203125 29.59375 
z
M 47.21875 32.234375 
Q 47.125 39.59375 43.09375 43.984375 
Q 39.0625 48.390625 32.421875 48.390625 
Q 24.90625 48.390625 20.390625 44.140625 
Q 15.875 39.890625 15.1875 32.171875 
z
M 38.578125 79.984375 
L 48.296875 79.984375 
L 32.375 61.625 
L 24.90625 61.625 
z
" id="DejaVuSans-233"/>
      <path d="M 56.203125 29.59375 
L 56.203125 25.203125 
L 14.890625 25.203125 
Q 15.484375 15.921875 20.484375 11.0625 
Q 25.484375 6.203125 34.421875 6.203125 
Q 39.59375 6.203125 44.453125 7.46875 
Q 49.3125 8.734375 54.109375 11.28125 
L 54.109375 2.78125 
Q 49.265625 0.734375 44.1875 -0.34375 
Q 39.109375 -1.421875 33.890625 -1.421875 
Q 20.796875 -1.421875 13.15625 6.1875 
Q 5.515625 13.8125 5.515625 26.8125 
Q 5.515625 40.234375 12.765625 48.109375 
Q 20.015625 56 32.328125 56 
Q 43.359375 56 49.78125 48.890625 
Q 56.203125 41.796875 56.203125 29.59375 
z
M 47.21875 32.234375 
Q 47.125 39.59375 43.09375 43.984375 
Q 39.0625 48.390625 32.421875 48.390625 
Q 24.90625 48.390625 20.390625 44.140625 
Q 15.875 39.890625 15.1875 32.171875 
z
" id="DejaVuSans-101"/>
      <path d="M 54.890625 33.015625 
L 54.890625 0 
L 45.90625 0 
L 45.90625 32.71875 
Q 45.90625 40.484375 42.875 44.328125 
Q 39.84375 48.1875 33.796875 48.1875 
Q 26.515625 48.1875 22.3125 43.546875 
Q 18.109375 38.921875 18.109375 30.90625 
L 18.109375 0 
L 9.078125 0 
L 9.078125 54.6875 
L 18.109375 54.6875 
L 18.109375 46.1875 
Q 21.34375 51.125 25.703125 53.5625 
Q 30.078125 56 35.796875 56 
Q 45.21875 56 50.046875 50.171875 
Q 54.890625 44.34375 54.890625 33.015625 
z
" id="DejaVuSans-110"/>
      <path d="M 45.40625 27.984375 
Q 45.40625 37.75 41.375 43.109375 
Q 37.359375 48.484375 30.078125 48.484375 
Q 22.859375 48.484375 18.828125 43.109375 
Q 14.796875 37.75 14.796875 27.984375 
Q 14.796875 18.265625 18.828125 12.890625 
Q 22.859375 7.515625 30.078125 7.515625 
Q 37.359375 7.515625 41.375 12.890625 
Q 45.40625 18.265625 45.40625 27.984375 
z
M 54.390625 6.78125 
Q 54.390625 -7.171875 48.1875 -13.984375 
Q 42 -20.796875 29.203125 -20.796875 
Q 24.46875 -20.796875 20.265625 -20.09375 
Q 16.0625 -19.390625 12.109375 -17.921875 
L 12.109375 -9.1875 
Q 16.0625 -11.328125 19.921875 -12.34375 
Q 23.78125 -13.375 27.78125 -13.375 
Q 36.625 -13.375 41.015625 -8.765625 
Q 45.40625 -4.15625 45.40625 5.171875 
L 45.40625 9.625 
Q 42.625 4.78125 38.28125 2.390625 
Q 33.9375 0 27.875 0 
Q 17.828125 0 11.671875 7.65625 
Q 5.515625 15.328125 5.515625 27.984375 
Q 5.515625 40.671875 11.671875 48.328125 
Q 17.828125 56 27.875 56 
Q 33.9375 56 38.28125 53.609375 
Q 42.625 51.21875 45.40625 46.390625 
L 45.40625 54.6875 
L 54.390625 54.6875 
z
" id="DejaVuSans-103"/>
      <path d="M 9.421875 54.6875 
L 18.40625 54.6875 
L 18.40625 0 
L 9.421875 0 
z
M 9.421875 75.984375 
L 18.40625 75.984375 
L 18.40625 64.59375 
L 9.421875 64.59375 
z
" id="DejaVuSans-105"/>
      <path d="M 44.28125 53.078125 
L 44.28125 44.578125 
Q 40.484375 46.53125 36.375 47.5 
Q 32.28125 48.484375 27.875 48.484375 
Q 21.1875 48.484375 17.84375 46.4375 
Q 14.5 44.390625 14.5 40.28125 
Q 14.5 37.15625 16.890625 35.375 
Q 19.28125 33.59375 26.515625 31.984375 
L 29.59375 31.296875 
Q 39.15625 29.25 43.1875 25.515625 
Q 47.21875 21.78125 47.21875 15.09375 
Q 47.21875 7.46875 41.1875 3.015625 
Q 35.15625 -1.421875 24.609375 -1.421875 
Q 20.21875 -1.421875 15.453125 -0.5625 
Q 10.6875 0.296875 5.421875 2 
L 5.421875 11.28125 
Q 10.40625 8.6875 15.234375 7.390625 
Q 20.0625 6.109375 24.8125 6.109375 
Q 31.15625 6.109375 34.5625 8.28125 
Q 37.984375 10.453125 37.984375 14.40625 
Q 37.984375 18.0625 35.515625 20.015625 
Q 33.0625 21.96875 24.703125 23.78125 
L 21.578125 24.515625 
Q 13.234375 26.265625 9.515625 29.90625 
Q 5.8125 33.546875 5.8125 39.890625 
Q 5.8125 47.609375 11.28125 51.796875 
Q 16.75 56 26.8125 56 
Q 31.78125 56 36.171875 55.265625 
Q 40.578125 54.546875 44.28125 53.078125 
z
" id="DejaVuSans-115"/>
     </defs>
     <use transform="translate(0 0.015625)" xlink:href="#Cmmi10-65"/>
     <use transform="translate(92.558594 0.015625)" xlink:href="#Cmsy10-92"/>
     <use transform="translate(176.71875 0.015625)" xlink:href="#Cmmi10-66"/>
     <use transform="translate(252.5 0.015625)" xlink:href="#DejaVuSans-44"/>
     <use transform="translate(284.287109 0.015625)" xlink:href="#DejaVuSans-32"/>
     <use transform="translate(316.074219 0.015625)" xlink:href="#DejaVuSans-99"/>
     <use transform="translate(371.054688 0.015625)" xlink:href="#DejaVuSans-111"/>
     <use transform="translate(432.236328 0.015625)" xlink:href="#DejaVuSans-108"/>
     <use transform="translate(460.019531 0.015625)" xlink:href="#DejaVuSans-111"/>
     <use transform="translate(521.201172 0.015625)" xlink:href="#DejaVuSans-114"/>
     <use transform="translate(562.314453 0.015625)" xlink:href="#DejaVuSans-233"/>
     <use transform="translate(623.837891 0.015625)" xlink:href="#DejaVuSans-101"/>
     <use transform="translate(685.361328 0.015625)" xlink:href="#DejaVuSans-32"/>
     <use transform="translate(717.148438 0.015625)" xlink:href="#DejaVuSans-101"/>
     <use transform="translate(778.671875 0.015625)" xlink:href="#DejaVuSans-110"/>
     <use transform="translate(842.050781 0.015625)" xlink:href="#DejaVuSans-32"/>
     <use transform="translate(873.837891 0.015625)" xlink:href="#DejaVuSans-103"/>
     <use transform="translate(937.314453 0.015625)" xlink:href="#DejaVuSans-114"/>
     <use transform="translate(978.427734 0.015625)" xlink:href="#DejaVuSans-105"/>
     <use transform="translate(1006.210938 0.015625)" xlink:href="#DejaVuSans-115"/>
    </g>
   </g>
   <g id="patch_8">
    <path clip-path="url(#p41c1ad9448)" d="M 130.257692 247.084615 
C 150.912934 247.084615 170.724971 238.878201 185.330432 224.27274 
C 199.935893 209.667278 208.142308 189.855241 208.142308 169.2 
C 208.142308 148.544759 199.935893 128.732722 185.330432 114.12726 
C 170.724971 99.521799 150.912934 91.315385 130.257692 91.315385 
C 109.602451 91.315385 89.790414 99.521799 75.184953 114.12726 
C 60.579491 128.732722 52.373077 148.544759 52.373077 169.2 
C 52.373077 189.855241 60.579491 209.667278 75.184953 224.27274 
C 89.790414 238.878201 109.602451 247.084615 130.257692 247.084615 
z
" style="fill:none;stroke:#0000ff;stroke-linejoin:miter;"/>
   </g>
   <g id="patch_9">
    <path clip-path="url(#p41c1ad9448)" d="M 208.142308 247.084615 
C 228.797549 247.084615 248.609586 238.878201 263.215047 224.27274 
C 277.820509 209.667278 286.026923 189.855241 286.026923 169.2 
C 286.026923 148.544759 277.820509 128.732722 263.215047 114.12726 
C 248.609586 99.521799 228.797549 91.315385 208.142308 91.315385 
C 187.487066 91.315385 167.675029 99.521799 153.069568 114.12726 
C 138.464107 128.732722 130.257692 148.544759 130.257692 169.2 
C 130.257692 189.855241 138.464107 209.667278 153.069568 224.27274 
C 167.675029 238.878201 187.487066 247.084615 208.142308 247.084615 
z
" style="fill:none;stroke:#ff0000;stroke-linejoin:miter;"/>
   </g>
  </g>
 </g>
 <defs>
  <clipPath id="p41c1ad9448">
   <rect height="324" width="324" x="7.2" y="7.2"/>
  </clipPath>
 </defs>
</svg>
