<?xml version="1.0" encoding="utf-8" standalone="no"?>
<!DOCTYPE svg PUBLIC "-//W3C//DTD SVG 1.1//EN"
  "http://www.w3.org/Graphics/SVG/1.1/DTD/svg11.dtd">
<!-- Created with matplotlib (https://matplotlib.org/) -->
<svg height="338.4pt" version="1.1" viewBox="0 0 338.4 338.4" width="338.4pt" xmlns="http://www.w3.org/2000/svg" xmlns:xlink="http://www.w3.org/1999/xlink">
 <metadata>
  <rdf:RDF xmlns:cc="http://creativecommons.org/ns#" xmlns:dc="http://purl.org/dc/elements/1.1/" xmlns:rdf="http://www.w3.org/1999/02/22-rdf-syntax-ns#">
   <cc:Work>
    <dc:type rdf:resource="http://purl.org/dc/dcmitype/StillImage"/>
    <dc:date>2024-11-18T20:48:53.316994</dc:date>
    <dc:format>image/svg+xml</dc:format>
    <dc:creator>
     <cc:Agent>
      <dc:title>Matplotlib v3.3.4, https://matplotlib.org/</dc:title>
     </cc:Agent>
    </dc:creator>
   </cc:Work>
  </rdf:RDF>
 </metadata>
 <defs>
  <style type="text/css">*{stroke-linecap:butt;stroke-linejoin:round;}</style>
 </defs>
 <g id="figure_1">
  <g id="patch_1">
   <path d="M -0 338.4 
L 338.4 338.4 
L 338.4 0 
L -0 0 
z
" style="fill:#ffffff;"/>
  </g>
  <g id="axes_1">
   <g id="patch_2">
    <path d="M 7.2 331.2 
L 331.2 331.2 
L 331.2 7.2 
L 7.2 7.2 
z
" style="fill:#ffffff;"/>
   </g>
   <g id="patch_3">
    <path clip-path="url(#p5bf68798d5)" d="M 13.430769 324.969231 
L 13.430769 13.430769 
L 324.969231 13.430769 
L 324.969231 324.969231 
z
" style="fill:none;stroke:#000000;stroke-linejoin:miter;"/>
   </g>
   <g id="patch_4">
    <path clip-path="url(#p5bf68798d5)" d="M 169.2 138.046154 
L 169.030615 138.046384 
L 168.851191 138.04713 
L 168.792778 138.047485 
L 168.540153 138.049648 
L 168.38678 138.051461 
L 168.323543 138.052319 
L 168.113304 138.055631 
L 167.892587 138.059872 
L 167.79914 138.061904 
L 167.645123 138.065558 
L 167.547048 138.068083 
L 167.359771 138.073335 
L 167.181367 138.078862 
L 167.046029 138.083396 
L 166.920179 138.087877 
L 166.65556 138.098129 
L 166.562066 138.10202 
L 166.381649 138.109927 
L 166.239562 138.116524 
L 166.007913 138.127975 
L 165.907427 138.133211 
L 165.765096 138.140906 
L 165.561614 138.152474 
L 165.519088 138.154976 
L 165.231761 138.172646 
L 165.146152 138.178169 
L 165.010121 138.187188 
L 164.844564 138.198567 
L 164.647192 138.212713 
L 164.53801 138.220808 
L 164.423756 138.229487 
L 164.155104 138.250726 
L 164.110683 138.25435 
L 163.925923 138.269769 
L 163.652659 138.293589 
L 163.620948 138.296432 
L 163.441306 138.312844 
L 163.263882 138.329568 
L 163.172744 138.338359 
L 162.981532 138.35724 
L 162.742833 138.381647 
L 162.612738 138.39534 
L 162.468214 138.410876 
L 162.309768 138.4283 
L 162.110868 138.450755 
L 161.955144 138.468787 
L 161.851298 138.481032 
L 161.762676 138.491622 
L 161.547031 138.517929 
L 161.359412 138.541439 
L 161.152634 138.568019 
L 161.116913 138.572682 
L 160.840084 138.609532 
L 160.822828 138.611871 
L 160.513739 138.654597 
L 160.468235 138.66102 
L 160.340202 138.679277 
L 160.08742 138.716119 
L 159.994801 138.729883 
L 159.878417 138.747381 
L 159.611883 138.7883 
L 159.491811 138.807119 
L 159.400312 138.821622 
L 159.142354 138.863259 
L 158.956455 138.893954 
L 158.937944 138.897042 
L 158.749699 138.928772 
L 158.615272 138.951794 
L 158.34153 138.999611 
L 158.217255 139.021735 
L 158.142076 139.035245 
L 157.961291 139.068122 
L 157.733756 139.110285 
L 157.555017 139.144019 
L 157.51364 139.151906 
L 157.287224 139.195574 
L 157.147873 139.222882 
L 157.060508 139.240171 
L 156.813164 139.289824 
L 156.611534 139.331071 
L 156.597135 139.334043 
L 156.345248 139.38661 
L 156.14019 139.430206 
L 156.066703 139.446006 
L 155.849512 139.493243 
L 155.786549 139.507089 
L 155.593108 139.550055 
L 155.403383 139.592823 
L 155.240634 139.630007 
L 155.039319 139.676638 
L 154.922067 139.704121 
L 154.834505 139.724801 
L 154.71663 139.752852 
L 154.515165 139.801355 
L 154.398719 139.829714 
L 154.127424 139.896704 
L 154.074659 139.909884 
L 153.896634 139.954711 
L 153.711033 140.002041 
L 153.560985 140.040749 
L 153.367157 140.09134 
L 153.161274 140.145809 
L 153.123714 140.155827 
L 152.904165 140.214888 
L 152.812619 140.239769 
L 152.658786 140.281916 
L 152.519843 140.320348 
L 152.367394 140.362914 
L 152.068703 140.447526 
L 152.04268 140.454974 
L 151.83192 140.515745 
L 151.708076 140.55183 
L 151.478895 140.619342 
L 151.308898 140.670038 
L 151.172442 140.711113 
L 151.095549 140.734408 
L 150.895416 140.795549 
L 150.708718 140.853249 
L 150.589203 140.890523 
L 150.355172 140.964277 
L 150.25249 140.996956 
L 150.15142 141.029314 
L 149.932704 141.099987 
L 149.784008 141.148544 
L 149.674332 141.184624 
L 149.412644 141.271623 
L 149.350949 141.292322 
L 149.172892 141.352461 
L 149.077928 141.38478 
L 148.886187 141.450557 
L 148.617062 141.544058 
L 148.488725 141.589132 
L 148.357922 141.635397 
L 148.2363 141.678708 
L 148.123124 141.719267 
L 147.968043 141.775245 
L 147.708917 141.869815 
L 147.538387 141.932762 
L 147.375835 141.993292 
L 147.257253 142.037773 
L 147.202897 142.058255 
L 146.949896 142.15435 
L 146.754714 142.229345 
L 146.727568 142.239835 
L 146.547183 142.309911 
L 146.276487 142.416284 
L 146.136797 142.471749 
L 145.979364 142.534727 
L 145.873957 142.577171 
L 145.666463 142.661376 
L 145.592842 142.691461 
L 145.441993 142.75345 
L 145.325339 142.801704 
L 145.142441 142.877917 
L 144.933813 142.965688 
L 144.759254 143.039813 
L 144.670291 143.077831 
L 144.483973 143.157985 
L 144.313093 143.232131 
L 144.077746 143.335245 
L 144.061255 143.342514 
L 143.847145 143.437405 
L 143.716817 143.495637 
L 143.451117 143.615468 
L 143.309084 143.68014 
L 143.160826 143.748105 
L 142.983758 143.829894 
L 142.872024 143.881851 
L 142.72842 143.949024 
L 142.659671 143.98134 
L 142.472182 144.069992 
L 142.320767 144.142145 
L 142.150324 144.223965 
L 141.979723 144.3065 
L 141.749256 144.419016 
L 141.573786 144.505473 
L 141.465837 144.559001 
L 141.336725 144.623366 
L 141.168527 144.707777 
L 141.02031 144.782688 
L 140.888046 144.849956 
L 140.709775 144.941252 
L 140.587085 145.004504 
L 140.322584 145.142042 
L 140.225234 145.193068 
L 140.005716 145.308934 
L 139.895376 145.367598 
L 139.835936 145.399317 
L 139.56734 145.543683 
L 139.499775 145.580265 
L 139.295951 145.691278 
L 139.158565 145.766662 
L 139.024437 145.840693 
L 138.873603 145.924459 
L 138.681432 146.031977 
L 138.539063 146.112207 
L 138.402057 146.18988 
L 138.204908 146.302456 
L 138.046154 146.393802 
L 138.046154 138.046154 
L 138.049036 138.645488 
L 138.051919 138.893731 
L 138.054801 139.084207 
L 138.057684 139.244781 
L 138.060567 139.386244 
L 138.063449 139.514132 
L 138.066332 139.631734 
L 138.069214 139.74119 
L 138.072097 139.843991 
L 138.074979 139.941218 
L 138.077862 140.033691 
L 138.080744 140.122045 
L 138.083627 140.206785 
L 138.08651 140.288321 
L 138.092275 140.443076 
L 138.09804 140.588414 
L 138.103805 140.72587 
L 138.10957 140.856599 
L 138.115335 140.9815 
L 138.1211 141.101288 
L 138.126865 141.216543 
L 138.13263 141.327742 
L 138.138395 141.435285 
L 138.144573 141.546841 
L 138.15075 141.654939 
L 138.163104 141.861929 
L 138.175459 142.058217 
L 138.187813 142.245302 
L 138.200167 142.424366 
L 138.212522 142.596355 
L 138.224876 142.762044 
L 138.237231 142.922074 
L 138.249585 143.076986 
L 138.261939 143.227239 
L 138.274294 143.373227 
L 138.286648 143.515291 
L 138.299003 143.653731 
L 138.311357 143.788807 
L 138.336066 144.049773 
L 138.362242 144.314294 
L 138.388419 144.56799 
L 138.414595 144.812079 
L 138.440772 145.047566 
L 138.469902 145.300534 
L 138.499033 145.544861 
L 138.528163 145.781364 
L 138.557294 146.010741 
L 138.586424 146.233591 
L 138.615555 146.450433 
L 138.644685 146.66172 
L 138.673816 146.867853 
L 138.701649 147.060317 
L 138.729483 147.248673 
L 138.757316 147.433168 
L 138.78515 147.614024 
L 138.812983 147.791446 
L 138.840817 147.965617 
L 138.896484 148.304864 
L 138.929933 148.503278 
L 138.963383 148.697893 
L 138.999498 148.903982 
L 139.035612 149.106114 
L 139.071727 149.304502 
L 139.107842 149.49934 
L 139.165045 149.801114 
L 139.222247 150.09506 
L 139.27945 150.38174 
L 139.336653 150.661647 
L 139.399533 150.962044 
L 139.462413 151.255313 
L 139.547384 151.641105 
L 139.637707 152.038971 
L 139.728029 152.425266 
L 139.789267 152.681053 
L 139.850505 152.932194 
L 139.911742 153.17892 
L 139.97298 153.421443 
L 140.038541 153.676651 
L 140.104101 153.927488 
L 140.214469 154.340442 
L 140.331609 154.766787 
L 140.451034 155.189712 
L 140.570458 155.601638 
L 140.639477 155.834988 
L 140.727477 156.127765 
L 140.815478 156.415454 
L 140.912787 156.727937 
L 141.010097 157.03478 
L 141.109789 157.343568 
L 141.209481 157.646984 
L 141.270943 157.831477 
L 141.376639 158.144352 
L 141.482335 158.451882 
L 141.591605 158.764443 
L 141.715326 159.112063 
L 141.839048 159.453324 
L 141.954719 159.766893 
L 142.068376 160.070062 
L 142.182033 160.368535 
L 142.205347 160.429195 
L 142.349358 160.799787 
L 142.493368 161.163542 
L 142.532439 161.261093 
L 142.684571 161.636473 
L 142.818154 161.96043 
L 142.951737 162.279321 
L 143.017014 162.433369 
L 143.150542 162.74495 
L 143.28407 163.051937 
L 143.402711 163.320977 
L 143.508063 163.557043 
L 143.696002 163.971763 
L 143.815387 164.231096 
L 144.022343 164.673401 
L 144.215208 165.07765 
L 144.378934 165.415074 
L 144.42626 165.511652 
L 144.629153 165.921001 
L 144.785676 166.231735 
L 144.926291 166.507262 
L 145.131543 166.903488 
L 145.295563 167.215213 
L 145.440785 167.487694 
L 145.546812 167.6846 
L 145.658186 167.889634 
L 145.829622 168.201709 
L 146.091711 168.670804 
L 146.21331 168.885266 
L 146.265929 168.977461 
L 146.494442 169.373667 
L 146.579575 169.519576 
L 146.887563 170.039983 
L 146.936854 170.122211 
L 147.089553 170.375143 
L 147.226173 170.59917 
L 147.427264 170.925104 
L 147.607616 171.213663 
L 147.804879 171.525321 
L 147.964815 171.775043 
L 148.067108 171.933402 
L 148.270067 172.244523 
L 148.337933 172.34766 
L 148.514197 172.613469 
L 148.746349 172.959114 
L 148.8988 173.18341 
L 149.00144 173.333247 
L 149.134739 173.526452 
L 149.28676 173.744911 
L 149.437528 173.959621 
L 149.696174 174.323541 
L 149.764531 174.418804 
L 149.872836 174.568971 
L 150.064509 174.832443 
L 150.334564 175.19881 
L 150.381057 175.261324 
L 150.644861 175.612965 
L 150.674659 175.652361 
L 150.868428 175.906977 
L 151.053938 176.148222 
L 151.193528 176.328156 
L 151.278075 176.43648 
L 151.560777 176.795152 
L 151.711585 176.984297 
L 151.783347 177.073773 
L 151.968836 177.303502 
L 152.175873 177.557309 
L 152.325534 177.739098 
L 152.455764 177.89615 
L 152.532799 177.988563 
L 152.79337 178.298478 
L 152.971983 178.508575 
L 153.152979 178.719569 
L 153.236949 178.816811 
L 153.443865 179.054716 
L 153.615827 179.250596 
L 153.756745 179.40989 
L 153.903369 179.574478 
L 153.969036 179.647812 
L 154.123227 179.819092 
L 154.398218 180.121429 
L 154.56186 180.299467 
L 154.615314 180.357325 
L 154.864622 180.625245 
L 154.934182 180.699437 
L 155.152353 180.930574 
L 155.234684 181.017187 
L 155.422408 181.213438 
L 155.575142 181.371852 
L 155.711852 181.512703 
L 155.933876 181.739571 
L 156.012399 181.819257 
L 156.246393 182.055029 
L 156.430164 182.238446 
L 156.508917 182.316581 
L 156.695037 182.50014 
L 156.84475 182.646682 
L 157.036859 182.833286 
L 157.148115 182.940622 
L 157.253852 183.042143 
L 157.526672 183.301891 
L 157.687071 183.453145 
L 157.816756 183.574656 
L 157.958693 183.706854 
L 158.117274 183.853582 
L 158.173333 183.905208 
L 158.341872 184.059658 
L 158.594322 184.28889 
L 158.730967 184.411922 
L 158.883467 184.54837 
L 159.062837 184.707713 
L 159.111558 184.750781 
L 159.413929 185.016056 
L 159.505145 185.095406 
L 159.725676 185.285971 
L 159.845047 185.388373 
L 159.951363 185.479137 
L 160.085353 185.592941 
L 160.311701 185.783719 
L 160.357951 185.822475 
L 160.628495 186.047664 
L 160.734315 186.135044 
L 160.927399 186.293473 
L 160.990648 186.34509 
L 161.239688 186.54699 
L 161.331741 186.621084 
L 161.596234 186.832381 
L 161.6447 186.870845 
L 161.814643 187.005099 
L 161.956852 187.116709 
L 162.0855 187.217102 
L 162.348164 187.420405 
L 162.397247 187.458148 
L 162.636863 187.641292 
L 162.732872 187.71416 
L 162.947024 187.875645 
L 163.137193 188.017838 
L 163.314016 188.149043 
L 163.411109 188.220676 
L 163.572739 188.339282 
L 163.749483 188.468065 
L 163.85374 188.543587 
L 163.958015 188.618794 
L 164.143609 188.751846 
L 164.298493 188.862097 
L 164.430696 188.95564 
L 164.737091 189.170466 
L 164.778023 189.198958 
L 164.895808 189.280674 
L 165.140523 189.449173 
L 165.270863 189.538219 
L 165.452452 189.661473 
L 165.617468 189.772671 
L 165.785012 189.88479 
L 165.90483 189.964492 
L 166.018934 190.040022 
L 166.277577 190.2099 
L 166.313785 190.233535 
L 166.508964 190.360325 
L 166.679009 190.469945 
L 166.905118 190.614501 
L 166.999583 190.674489 
L 167.12748 190.755329 
L 167.380104 190.913733 
L 167.502263 190.989728 
L 167.658563 191.086393 
L 167.76373 191.151077 
L 167.886933 191.226489 
L 168.075179 191.340958 
L 168.306708 191.480501 
L 168.437927 191.558981 
L 168.561471 191.632471 
L 168.676276 191.700418 
L 168.817581 191.783594 
L 169.020564 191.902202 
L 169.2 192.006198 
z
" style="fill:#808080;opacity:0.5;"/>
   </g>
   <g id="patch_5">
    <path clip-path="url(#p5bf68798d5)" d="M 169.2 192.006198 
L 168.777741 192.247797 
L 168.547964 192.377435 
L 168.231355 192.553971 
L 168.077726 192.638765 
L 167.706494 192.841343 
L 167.226951 193.098217 
L 166.965543 193.235985 
L 166.65812 193.395986 
L 166.51811 193.468137 
L 166.146291 193.657581 
L 165.871578 193.795542 
L 165.30823 194.07318 
L 165.23568 194.108424 
L 164.957081 194.242689 
L 164.502761 194.458001 
L 164.072641 194.657729 
L 163.797351 194.783482 
L 163.542 194.898685 
L 163.25866 195.024905 
L 162.996236 195.140303 
L 162.75099 195.24685 
L 162.219579 195.473447 
L 161.909822 195.602855 
L 161.699717 195.689518 
L 161.412225 195.806653 
L 161.156267 195.909538 
L 160.888224 196.015873 
L 160.504437 196.165635 
L 160.253635 196.261927 
L 159.677268 196.478537 
L 159.434291 196.567912 
L 159.042457 196.709633 
L 158.779778 196.802986 
L 158.436532 196.922983 
L 158.302635 196.969184 
L 157.90095 197.105748 
L 157.607587 197.203561 
L 157.455903 197.253503 
L 157.021958 197.394004 
L 156.762191 197.476436 
L 156.270406 197.629081 
L 156.188264 197.654143 
L 155.889641 197.744215 
L 155.579903 197.83592 
L 155.225045 197.938843 
L 154.766572 198.068451 
L 154.400773 198.169152 
L 154.200961 198.223149 
L 153.768047 198.337701 
L 153.583343 198.385563 
L 153.259048 198.46814 
L 152.815909 198.577987 
L 152.705825 198.604742 
L 152.41152 198.675229 
L 152.068823 198.755406 
L 151.668438 198.846498 
L 151.403992 198.905144 
L 151.003667 198.991633 
L 150.64331 199.067135 
L 150.295797 199.137845 
L 150.160199 199.164878 
L 149.893473 199.21714 
L 149.601581 199.27295 
L 149.066788 199.371468 
L 148.9673 199.389263 
L 148.655621 199.443937 
L 148.214577 199.518519 
L 148.008481 199.552256 
L 147.466182 199.637643 
L 147.335421 199.6575 
L 147.046591 199.700356 
L 146.76644 199.740604 
L 146.283563 199.806931 
L 146.052591 199.837298 
L 145.794601 199.870179 
L 145.462326 199.910917 
L 145.03166 199.961025 
L 144.834117 199.982993 
L 144.425947 200.026367 
L 144.154966 200.053661 
L 143.942969 200.07418 
L 143.567369 200.108741 
L 143.193452 200.140871 
L 142.744053 200.176487 
L 142.521514 200.192913 
L 142.182814 200.216376 
L 141.904914 200.234243 
L 141.739326 200.244297 
L 141.267889 200.270498 
L 141.175619 200.275206 
L 140.712141 200.296785 
L 140.50124 200.305459 
L 140.204893 200.316439 
L 139.687712 200.332218 
L 139.599078 200.334491 
L 139.156728 200.343948 
L 138.850342 200.348656 
L 138.620964 200.351195 
L 138.264208 200.353465 
L 137.753444 200.353159 
L 137.693545 200.352848 
L 137.338474 200.349827 
L 136.825086 200.34188 
L 136.690178 200.33909 
L 136.40563 200.332245 
L 136.155688 200.32516 
L 135.775631 200.312463 
L 135.2365 200.290466 
L 135.176251 200.287717 
L 134.611058 200.259084 
L 134.584838 200.25763 
L 134.282346 200.240062 
L 133.845596 200.212092 
L 133.559379 200.19209 
L 133.090334 200.156446 
L 133.010415 200.150017 
L 132.680843 200.122413 
L 132.136287 200.072938 
L 132.074682 200.067038 
L 131.685758 200.02836 
L 131.30767 199.988396 
L 130.903803 199.943127 
L 130.649924 199.913304 
L 130.425104 199.886013 
L 129.980753 199.829629 
L 129.832965 199.810157 
L 129.476904 199.761763 
L 129.071415 199.704102 
L 128.929461 199.683273 
L 128.358847 199.596171 
L 128.225346 199.575011 
L 127.784169 199.50297 
L 127.498473 199.454581 
L 127.333198 199.425964 
L 126.946071 199.357137 
L 126.553742 199.28481 
L 126.243277 199.225731 
L 126.081939 199.194384 
L 125.642266 199.106715 
L 125.386859 199.054274 
L 124.995882 198.971837 
L 124.647789 198.896235 
L 124.436114 198.84924 
L 124.005225 198.751185 
L 123.899686 198.726678 
L 123.551394 198.644425 
L 123.073107 198.528022 
L 122.881507 198.480267 
L 122.638566 198.418786 
L 122.24569 198.317157 
L 121.886961 198.221971 
L 121.729967 198.179594 
L 121.426039 198.096302 
L 121.046518 197.989968 
L 120.574469 197.854086 
L 120.479815 197.826354 
L 119.973846 197.675343 
L 119.719397 197.597632 
L 119.489709 197.52646 
L 119.20826 197.437923 
L 118.848969 197.322765 
L 118.339257 197.155263 
L 118.2613 197.129215 
L 117.940382 197.02078 
L 117.650403 196.921122 
L 117.371099 196.823621 
L 116.932238 196.667405 
L 116.711988 196.587608 
L 116.199732 196.398381 
L 116.096542 196.359643 
L 115.596902 196.169123 
L 115.334597 196.06713 
L 114.906187 195.897605 
L 114.656286 195.797021 
L 114.350553 195.672251 
L 114.099542 195.568396 
L 113.632901 195.371904 
L 113.61383 195.363778 
L 113.282978 195.221617 
L 112.97364 195.086644 
L 112.447406 194.852426 
L 112.339053 194.803475 
L 111.789106 194.551162 
L 111.522147 194.426342 
L 111.356267 194.348005 
L 110.852591 194.106466 
L 110.634993 194.000392 
L 110.336055 193.852954 
L 110.078392 193.724272 
L 109.772387 193.569506 
L 109.244974 193.297765 
L 108.948289 193.142095 
L 108.748962 193.036363 
L 108.539292 192.924142 
L 108.031372 192.647998 
L 107.959356 192.608349 
L 107.611524 192.415096 
L 107.193679 192.179076 
L 106.892308 192.006198 
L 106.892308 200.353846 
L 106.899347 201.290417 
L 106.906386 201.67832 
L 106.913426 201.975942 
L 106.920465 202.226829 
L 106.927505 202.447845 
L 106.934544 202.647642 
L 106.941583 202.831359 
L 106.948623 203.002344 
L 106.955662 203.162923 
L 106.962701 203.31479 
L 106.969741 203.459222 
L 106.97678 203.597214 
L 106.990859 203.856886 
L 107.004938 204.098541 
L 107.019016 204.32547 
L 107.033095 204.540069 
L 107.047174 204.744145 
L 107.061253 204.939105 
L 107.075331 205.126065 
L 107.08941 205.305931 
L 107.117568 205.647249 
L 107.148515 205.998462 
L 107.179462 206.328906 
L 107.210409 206.641858 
L 107.241356 206.93981 
L 107.272303 207.224714 
L 107.30325 207.498132 
L 107.334197 207.761336 
L 107.365144 208.015378 
L 107.415733 208.413179 
L 107.466322 208.791944 
L 107.516911 209.154131 
L 107.5675 209.501711 
L 107.618089 209.836289 
L 107.668678 210.159196 
L 107.719267 210.471551 
L 107.769856 210.774301 
L 107.848311 211.226694 
L 107.926767 211.660456 
L 108.005223 212.077657 
L 108.083678 212.480006 
L 108.145337 212.786732 
L 108.206996 213.085773 
L 108.268655 213.377657 
L 108.330313 213.662856 
L 108.453631 214.214839 
L 108.576948 214.744611 
L 108.674173 215.148195 
L 108.771397 215.540435 
L 108.856474 215.875037 
L 108.941551 216.20212 
L 109.026627 216.52214 
L 109.111704 216.835509 
L 109.277363 217.427981 
L 109.411231 217.890996 
L 109.545099 218.341101 
L 109.678968 218.779242 
L 109.812836 219.206253 
L 109.974327 219.707609 
L 110.135817 220.194987 
L 110.25393 220.543184 
L 110.372043 220.884798 
L 110.543999 221.371032 
L 110.715955 221.844892 
L 110.895839 222.328225 
L 111.075722 222.799711 
L 111.177963 223.062694 
L 111.388897 223.594434 
L 111.599832 224.112405 
L 111.777084 224.537667 
L 111.954336 224.954303 
L 112.129555 225.358103 
L 112.304775 225.754277 
L 112.394568 225.954459 
L 112.673908 226.565475 
L 112.953249 227.159658 
L 113.255087 227.784035 
L 113.577986 228.433021 
L 113.91096 229.083109 
L 113.955379 229.168432 
L 114.274209 229.77163 
L 114.65117 230.464868 
L 114.927793 230.960643 
L 115.207809 231.451946 
L 115.487825 231.933123 
L 115.53737 232.017242 
L 115.910064 232.640551 
L 116.256585 233.205685 
L 116.560754 233.690887 
L 116.918367 234.248969 
L 117.233279 234.729832 
L 117.496592 235.124612 
L 117.874025 235.679372 
L 118.265981 236.242204 
L 118.505183 236.579308 
L 118.644004 236.772795 
L 119.053406 237.334484 
L 119.270346 237.626868 
L 119.644214 238.122518 
L 120.096055 238.708131 
L 120.236129 238.886792 
L 120.547464 239.27915 
L 120.955774 239.784078 
L 121.3617 240.275589 
L 121.715405 240.695658 
L 121.888072 240.89802 
L 122.116036 241.162532 
L 122.699069 241.825668 
L 122.988344 242.147761 
L 123.158985 242.335669 
L 123.554429 242.765288 
L 123.948981 243.186005 
L 124.177166 243.425797 
L 124.575933 243.838799 
L 124.773111 244.040229 
L 125.09089 244.361061 
L 125.368526 244.637595 
L 125.679401 244.943149 
L 125.899046 245.156479 
L 126.198446 245.443922 
L 126.576703 245.801652 
L 126.904698 246.107054 
L 127.198443 246.376859 
L 127.650199 246.785114 
L 128.026382 247.119023 
L 128.310918 247.368009 
L 128.447416 247.486377 
L 128.766041 247.760001 
L 129.056118 248.005889 
L 129.577033 248.439904 
L 129.778683 248.605357 
L 130.184637 248.934192 
L 130.4168 249.119735 
L 130.623759 249.283613 
L 131.094657 249.651223 
L 131.297149 249.807081 
L 131.596195 250.034852 
L 131.787367 250.178974 
L 132.399914 250.633088 
L 132.701402 250.852369 
L 132.957004 251.036129 
L 133.065116 251.113266 
L 133.480348 251.406319 
L 133.752759 251.595837 
L 134.022141 251.781142 
L 134.359282 252.010142 
L 134.656994 252.209697 
L 135.068714 252.481611 
L 135.459016 252.735088 
L 135.783559 252.942723 
L 135.917568 253.027637 
L 136.391436 253.324089 
L 136.542684 253.41747 
L 136.883778 253.625887 
L 137.344626 253.902737 
L 137.517389 254.005134 
L 137.942335 254.253817 
L 138.252196 254.432326 
L 138.454277 254.547472 
L 138.682804 254.676487 
L 139.219187 254.974349 
L 139.420965 255.08462 
L 139.732645 255.253059 
L 140.049917 255.422178 
L 140.431415 255.622436 
L 140.655644 255.738576 
L 140.872195 255.849648 
L 141.36169 256.096801 
L 141.635254 256.232584 
L 141.85162 256.338796 
L 142.290656 256.551139 
L 142.464825 256.634206 
L 143.040743 256.904194 
L 143.188026 256.972092 
L 143.632317 257.174107 
L 143.723204 257.214917 
L 144.26653 257.455252 
L 144.325221 257.480844 
L 144.630885 257.612969 
L 145.135662 257.826937 
L 145.259472 257.87862 
L 145.682708 258.05294 
L 146.030506 258.193479 
L 146.268721 258.288335 
L 146.579842 258.410516 
L 147.111341 258.614808 
L 147.199092 258.648002 
L 147.609411 258.801215 
L 147.921868 258.91569 
L 148.139101 258.994165 
L 148.429449 259.097635 
L 148.887732 259.257669 
L 149.113673 259.335097 
L 149.347408 259.414181 
L 149.66166 259.518885 
L 150.14131 259.675131 
L 150.323666 259.733409 
L 150.68101 259.845825 
L 151.118665 259.980299 
L 151.507027 260.096689 
L 151.736777 260.16425 
L 151.993896 260.238723 
L 152.426962 260.36146 
L 152.723659 260.443602 
L 152.851761 260.47858 
L 153.342608 260.609897 
L 153.611095 260.679915 
L 153.864487 260.744827 
L 154.060828 260.794346 
L 154.536 260.911386 
L 154.756356 260.964321 
L 154.98005 261.017192 
L 155.440309 261.123242 
L 155.873715 261.219753 
L 156.036257 261.255114 
L 156.249441 261.300803 
L 156.623277 261.379042 
L 156.980525 261.451579 
L 157.15605 261.486422 
L 157.546885 261.562125 
L 157.815038 261.612569 
L 158.287658 261.698522 
L 158.448731 261.726957 
L 158.856345 261.796969 
L 159.198847 261.853647 
L 159.416583 261.88866 
L 159.794531 261.947561 
L 160.142209 261.999648 
L 160.498867 262.051 
L 160.668191 262.074643 
L 160.971173 262.115768 
L 161.269144 262.154737 
L 161.619107 262.19864 
L 162.103145 262.256053 
L 162.292912 262.277514 
L 162.620617 262.31319 
L 163.075156 262.359772 
L 163.207793 262.37273 
L 163.523591 262.402431 
L 163.880668 262.434062 
L 164.199655 262.460569 
L 164.39021 262.475617 
L 164.934349 262.515351 
L 165.104658 262.526804 
L 165.549023 262.55448 
L 165.700119 262.563165 
L 166.000294 262.579326 
L 166.336472 262.595703 
L 166.800695 262.615326 
L 166.874429 262.618124 
L 167.310684 262.632888 
L 167.73256 262.644256 
L 168.088909 262.651631 
L 168.306231 262.655128 
L 168.707461 262.659592 
L 168.958125 262.661069 
L 169.2 262.661538 
z
" style="fill:#808080;opacity:0.5;"/>
   </g>
   <g id="patch_6">
    <path clip-path="url(#p5bf68798d5)" d="M 200.353846 146.393802 
L 200.125059 146.262357 
L 200.106763 146.2519 
L 199.816474 146.087097 
L 199.706878 146.02541 
L 199.615742 145.974336 
L 199.482994 145.900299 
L 199.179865 145.732823 
L 199.073521 145.674588 
L 198.921934 145.592042 
L 198.717888 145.481788 
L 198.654548 145.447762 
L 198.5184 145.374941 
L 198.338209 145.279231 
L 198.212705 145.213013 
L 197.963673 145.0827 
L 197.879789 145.039127 
L 197.668943 144.930315 
L 197.54362 144.86612 
L 197.411208 144.798682 
L 197.270292 144.727348 
L 197.026834 144.605162 
L 196.875075 144.529669 
L 196.806607 144.495778 
L 196.586347 144.387459 
L 196.482009 144.336523 
L 196.324597 144.260132 
L 196.154498 144.178197 
L 196.036866 144.121905 
L 195.849859 144.033037 
L 195.6113 143.920773 
L 195.499957 143.868797 
L 195.362764 143.805121 
L 195.156129 143.709977 
L 194.996617 143.637155 
L 194.906993 143.596476 
L 194.766776 143.533177 
L 194.596314 143.456783 
L 194.426033 143.381083 
L 194.24642 143.301893 
L 194.115924 143.244782 
L 193.882183 143.143372 
L 193.77592 143.097644 
L 193.551156 143.001691 
L 193.413004 142.943229 
L 193.379332 142.929039 
L 193.216881 142.860908 
L 192.949383 142.749894 
L 192.83378 142.702368 
L 192.649796 142.627287 
L 192.543534 142.584235 
L 192.339721 142.502296 
L 192.271288 142.474971 
L 192.100602 142.407225 
L 191.850652 142.309066 
L 191.819501 142.29692 
L 191.516205 142.179664 
L 191.375545 142.1259 
L 191.237836 142.073641 
L 191.073237 142.011666 
L 191.005005 141.98613 
L 190.84608 141.927005 
L 190.690859 141.869733 
L 190.529839 141.810815 
L 190.343779 141.74336 
L 190.224171 141.700349 
L 190.065843 141.643837 
L 189.900869 141.585466 
L 189.705793 141.517115 
L 189.516251 141.451397 
L 189.443642 141.426404 
L 189.161618 141.330272 
L 189.085597 141.304616 
L 188.950573 141.259317 
L 188.783356 141.203692 
L 188.655607 141.16155 
L 188.398955 141.077809 
L 188.33466 141.057022 
L 188.1748 141.005675 
L 187.978087 140.94314 
L 187.755622 140.873283 
L 187.738944 140.868083 
L 187.54252 140.807222 
L 187.42314 140.770579 
L 187.191286 140.700161 
L 187.060756 140.66095 
L 186.953831 140.629061 
L 186.663877 140.543634 
L 186.5911 140.522432 
L 186.378581 140.461068 
L 186.307005 140.440585 
L 186.084713 140.377559 
L 185.90166 140.326327 
L 185.816434 140.302679 
L 185.650456 140.256999 
L 185.463695 140.206188 
L 185.376288 140.182622 
L 185.209493 140.138029 
L 185.050633 140.096017 
L 184.819617 140.035722 
L 184.710738 140.007632 
L 184.513958 139.957396 
L 184.42551 139.935038 
L 184.302805 139.904249 
L 184.128266 139.860909 
L 183.973518 139.822931 
L 183.79558 139.779779 
L 183.663304 139.74806 
L 183.468858 139.701985 
L 183.241146 139.648865 
L 183.19433 139.638055 
L 182.977437 139.588472 
L 182.797745 139.548009 
L 182.647401 139.514583 
L 182.468629 139.475344 
L 182.414658 139.463606 
L 182.258997 139.430032 
L 182.010128 139.377218 
L 181.855178 139.344871 
L 181.741647 139.321432 
L 181.556145 139.283606 
L 181.459342 139.2641 
L 181.289413 139.230245 
L 181.031341 139.179768 
L 181.011522 139.175938 
L 180.803042 139.136055 
L 180.629219 139.103365 
L 180.542764 139.087296 
L 180.283024 139.039777 
L 180.15148 139.016145 
L 180.012948 138.991572 
L 179.889364 138.969923 
L 179.643528 138.92762 
L 179.610089 138.921944 
L 179.378948 138.883223 
L 179.182042 138.850941 
L 179.061206 138.831451 
L 178.9104 138.807468 
L 178.754585 138.783087 
L 178.554676 138.752397 
L 178.457504 138.737719 
L 178.234767 138.704665 
L 178.200855 138.699705 
L 178.004905 138.671416 
L 177.739396 138.634099 
L 177.643408 138.620894 
L 177.451488 138.594948 
L 177.369239 138.584015 
L 177.14084 138.554238 
L 176.986994 138.534664 
L 176.908421 138.524818 
L 176.783206 138.509335 
L 176.602841 138.487486 
L 176.435691 138.467714 
L 176.187882 138.439244 
L 176.069442 138.425991 
L 175.913366 138.408877 
L 175.786831 138.395294 
L 175.613834 138.377147 
L 175.393007 138.354691 
L 175.235887 138.339198 
L 175.129028 138.32889 
L 174.975509 138.314407 
L 174.770044 138.295622 
L 174.685265 138.288071 
L 174.505809 138.272473 
L 174.32647 138.257406 
L 174.169184 138.244622 
L 174.086539 138.238065 
L 173.908033 138.22428 
L 173.674262 138.207008 
L 173.556911 138.198671 
L 173.405697 138.188256 
L 173.226735 138.176407 
L 173.052743 138.165383 
L 172.986305 138.161303 
L 172.810481 138.150848 
L 172.640993 138.141242 
L 172.483739 138.132744 
L 172.303614 138.123499 
L 172.116738 138.11446 
L 172.090523 138.113237 
L 171.80641 138.100692 
L 171.744097 138.098115 
L 171.59154 138.092068 
L 171.365363 138.083791 
L 171.258731 138.080175 
L 171.064396 138.074054 
L 170.889621 138.069067 
L 170.695283 138.064099 
L 170.618947 138.062313 
L 170.419438 138.058088 
L 170.304933 138.055952 
L 170.148592 138.053375 
L 169.929976 138.05043 
L 169.833249 138.049372 
L 169.620231 138.047571 
L 169.557325 138.047178 
L 169.291918 138.046222 
L 169.2 138.046154 
L 169.2 262.661538 
L 169.429151 262.661117 
L 169.519651 262.660719 
L 169.692881 262.659589 
L 169.819469 262.658459 
L 169.938813 262.657158 
L 170.130381 262.654592 
L 170.271246 262.652329 
L 170.387957 262.650213 
L 170.575656 262.64635 
L 170.73748 262.642566 
L 170.888824 262.638647 
L 171.117071 262.632039 
L 171.254264 262.627665 
L 171.402759 262.622589 
L 171.501674 262.619012 
L 171.645568 262.613526 
L 171.83342 262.605863 
L 171.995023 262.598817 
L 172.119046 262.593124 
L 172.354998 262.581609 
L 172.450149 262.576712 
L 172.683533 262.564083 
L 172.813592 262.556663 
L 173.034117 262.54346 
L 173.037668 262.543241 
L 173.306851 262.526045 
L 173.478597 262.514462 
L 173.586477 262.506942 
L 173.781617 262.492862 
L 173.829711 262.489297 
L 173.985076 262.477526 
L 174.277804 262.454284 
L 174.307939 262.451813 
L 174.56713 262.429948 
L 174.742847 262.414505 
L 174.874904 262.402569 
L 174.976401 262.393202 
L 175.164535 262.375398 
L 175.238744 262.368216 
L 175.464152 262.345853 
L 175.680973 262.323561 
L 175.768188 262.314377 
L 175.881358 262.302276 
L 176.051015 262.283743 
L 176.286905 262.257193 
L 176.406747 262.243355 
L 176.582097 262.222685 
L 176.752266 262.202143 
L 176.81719 262.19418 
L 177.03339 262.167166 
L 177.25909 262.138145 
L 177.291545 262.133903 
L 177.503985 262.105707 
L 177.677575 262.082116 
L 177.762455 262.070399 
L 177.939161 262.045625 
L 178.177618 262.011375 
L 178.289168 261.99503 
L 178.358854 261.984714 
L 178.553451 261.955481 
L 178.746319 261.925888 
L 178.916987 261.899185 
L 179.087232 261.872064 
L 179.292511 261.83872 
L 179.305841 261.836531 
L 179.562534 261.793788 
L 179.631643 261.782092 
L 179.801638 261.752981 
L 179.933003 261.730154 
L 180.088542 261.702751 
L 180.319148 261.661375 
L 180.42463 261.64215 
L 180.639225 261.60246 
L 180.760894 261.579611 
L 180.884735 261.556097 
L 181.089392 261.516669 
L 181.221508 261.490839 
L 181.473166 261.440816 
L 181.619075 261.41132 
L 181.651357 261.404745 
L 181.811923 261.371777 
L 182.049373 261.322216 
L 182.131369 261.304877 
L 182.405995 261.245966 
L 182.434681 261.239737 
L 182.708754 261.179516 
L 182.784949 261.162544 
L 183.04023 261.104949 
L 183.061444 261.100113 
L 183.242944 261.058411 
L 183.479449 261.003214 
L 183.546582 260.987369 
L 183.689518 260.953371 
L 183.958921 260.888322 
L 184.135745 260.844937 
L 184.210312 260.826477 
L 184.418147 260.774509 
L 184.581357 260.733167 
L 184.682036 260.70743 
L 184.848215 260.664557 
L 184.986706 260.628455 
L 185.176651 260.578386 
L 185.353519 260.531187 
L 185.535586 260.482019 
L 185.685109 260.441197 
L 185.823766 260.402984 
L 185.875384 260.38867 
L 186.164822 260.307523 
L 186.231738 260.288547 
L 186.482075 260.216843 
L 186.501142 260.211335 
L 186.66952 260.162411 
L 186.884607 260.099166 
L 186.998394 260.065367 
L 187.141004 260.022673 
L 187.315658 259.96988 
L 187.485867 259.917892 
L 187.728255 259.84294 
L 187.877522 259.796244 
L 187.968498 259.767582 
L 188.151755 259.709381 
L 188.368256 259.639818 
L 188.406344 259.62749 
L 188.547128 259.581687 
L 188.709767 259.528313 
L 188.942023 259.451232 
L 189.150765 259.38109 
L 189.271331 259.340202 
L 189.343202 259.315698 
L 189.551677 259.244064 
L 189.677454 259.200447 
L 189.868388 259.133658 
L 189.980191 259.094226 
L 190.202558 259.015086 
L 190.380645 258.95102 
L 190.418975 258.937151 
L 190.647545 258.853857 
L 190.850632 258.779001 
L 190.924713 258.751495 
L 191.143556 258.669615 
L 191.351352 258.591 
L 191.452623 258.552379 
L 191.617306 258.489145 
L 191.706615 258.454627 
L 191.93355 258.366209 
L 192.060465 258.316314 
L 192.151114 258.28048 
L 192.430578 258.168972 
L 192.526737 258.130241 
L 192.678229 258.068847 
L 192.852681 257.997572 
L 192.946448 257.959008 
L 193.224739 257.843501 
L 193.328719 257.799938 
L 193.490079 257.731896 
L 193.595846 257.687006 
L 193.738763 257.625983 
L 193.913416 257.550835 
L 194.049423 257.491878 
L 194.270005 257.39544 
L 194.45658 257.313075 
L 194.535581 257.277979 
L 194.694003 257.207204 
L 194.803609 257.157928 
L 194.982154 257.077114 
L 195.156946 256.997341 
L 195.417195 256.877357 
L 195.551807 256.814725 
L 195.669849 256.759481 
L 195.816264 256.690539 
L 196.016683 256.595415 
L 196.152015 256.530687 
L 196.262989 256.47731 
L 196.497534 256.363605 
L 196.653763 256.287194 
L 196.773328 256.22835 
L 196.873607 256.178751 
L 197.140623 256.045588 
L 197.275331 255.9778 
L 197.44271 255.893002 
L 197.559176 255.833623 
L 197.725487 255.748296 
L 197.80117 255.709258 
L 197.942826 255.635837 
L 198.163523 255.520529 
L 198.337687 255.428738 
L 198.536923 255.322869 
L 198.709068 255.230648 
L 198.736831 255.21571 
L 198.954462 255.097983 
L 199.072832 255.033481 
L 199.263879 254.928673 
L 199.376212 254.866641 
L 199.599128 254.742646 
L 199.799233 254.630319 
L 199.951806 254.54402 
L 200.07774 254.472361 
L 200.225843 254.387591 
L 200.353846 254.313891 
z
" style="fill:#808080;opacity:0.5;"/>
   </g>
   <g id="patch_7">
    <path clip-path="url(#p5bf68798d5)" d="M 231.507692 200.353846 
L 231.501462 199.472739 
L 231.495232 199.107804 
L 231.489001 198.8278 
L 231.482771 198.591764 
L 231.476541 198.383828 
L 231.470311 198.195853 
L 231.46408 198.023006 
L 231.45785 197.862135 
L 231.45162 197.711054 
L 231.44539 197.568168 
L 231.439159 197.432275 
L 231.432929 197.302441 
L 231.426699 197.177923 
L 231.420468 197.058117 
L 231.414238 196.942528 
L 231.408008 196.83074 
L 231.401778 196.722402 
L 231.395547 196.617214 
L 231.383087 196.415288 
L 231.370626 196.223258 
L 231.358166 196.039803 
L 231.345705 195.863873 
L 231.333245 195.694614 
L 231.320784 195.531324 
L 231.308323 195.373416 
L 231.295836 195.220067 
L 231.283348 195.071198 
L 231.270861 194.926439 
L 231.258373 194.78547 
L 231.245886 194.64801 
L 231.233398 194.513811 
L 231.208423 194.254342 
L 231.193531 194.104795 
L 231.178638 193.958778 
L 231.148854 193.676416 
L 231.119069 193.405647 
L 231.089284 193.145165 
L 231.0613 192.908843 
L 231.033317 192.679897 
L 231.005333 192.457686 
L 230.977349 192.241656 
L 230.949366 192.031326 
L 230.921382 191.826273 
L 230.893399 191.626127 
L 230.865415 191.430556 
L 230.817778 191.107334 
L 230.77014 190.795273 
L 230.722503 190.493313 
L 230.674866 190.200552 
L 230.636574 189.971368 
L 230.598283 189.747274 
L 230.559991 189.527952 
L 230.5217 189.313119 
L 230.474909 189.056321 
L 230.439309 188.864912 
L 230.403708 188.676749 
L 230.332508 188.309553 
L 230.261307 187.953634 
L 230.190107 187.608048 
L 230.135069 187.347466 
L 230.08003 187.09223 
L 230.033532 186.880543 
L 229.987034 186.672289 
L 229.940536 186.467313 
L 229.894038 186.265473 
L 229.830021 185.99247 
L 229.766003 185.724841 
L 229.684273 185.390515 
L 229.625087 185.153274 
L 229.565901 184.919906 
L 229.506715 184.690238 
L 229.447529 184.46411 
L 229.347361 184.089053 
L 229.227931 183.653667 
L 229.108502 183.23018 
L 229.042265 183.00012 
L 228.929861 182.6171 
L 228.817458 182.242875 
L 228.722122 181.93197 
L 228.629531 181.635424 
L 228.536941 181.343954 
L 228.4364 181.032939 
L 228.335859 180.727366 
L 228.208433 180.347512 
L 228.108129 180.054073 
L 228.007292 179.763777 
L 227.906455 179.478006 
L 227.803121 179.189661 
L 227.704084 178.917414 
L 227.605048 178.649033 
L 227.497471 178.361725 
L 227.324546 177.908676 
L 227.210679 177.616 
L 227.096812 177.327607 
L 226.953164 176.969652 
L 226.888537 176.810667 
L 226.752696 176.48052 
L 226.616855 176.155639 
L 226.474413 175.820398 
L 226.313307 175.44765 
L 226.239173 175.278334 
L 226.112095 174.991236 
L 225.985017 174.707981 
L 225.871281 174.457622 
L 225.65433 173.988014 
L 225.57988 173.829185 
L 225.333314 173.311295 
L 225.170672 172.976257 
L 225.106725 172.84591 
L 224.905813 172.441287 
L 224.751114 172.134664 
L 224.630872 171.8992 
L 224.41808 171.488432 
L 224.377786 171.411481 
L 224.230616 171.132624 
L 224.083447 170.857138 
L 224.069518 170.831236 
L 223.823926 170.379271 
L 223.633964 170.035666 
L 223.508571 169.81162 
L 223.388385 169.598888 
L 223.253061 169.361668 
L 223.037026 168.98789 
L 222.892846 168.741715 
L 222.727241 168.462107 
L 222.515449 168.10929 
L 222.416826 167.946779 
L 222.331461 167.807012 
L 222.065237 167.376349 
L 221.913804 167.134824 
L 221.854396 167.040739 
L 221.661453 166.737713 
L 221.525326 166.526213 
L 221.273601 166.13998 
L 221.150031 165.952642 
L 221.007189 165.737901 
L 220.808852 165.44289 
L 220.640597 165.195441 
L 220.553421 165.068231 
L 220.315221 164.724046 
L 220.223247 164.592459 
L 220.156492 164.497404 
L 219.855826 164.073881 
L 219.833674 164.042972 
L 219.559942 163.664273 
L 219.432305 163.489716 
L 219.309415 163.322845 
L 219.20404 163.180676 
L 218.925084 162.808346 
L 218.889043 162.760661 
L 218.617606 162.404555 
L 218.564199 162.335108 
L 218.367142 162.080609 
L 218.18108 161.842778 
L 218.020756 161.639736 
L 217.931632 161.52761 
L 217.768117 161.323262 
L 217.621033 161.140939 
L 217.347393 160.805432 
L 217.318689 160.770513 
L 217.116956 160.526546 
L 216.955922 160.333595 
L 216.770665 160.113564 
L 216.597207 159.909399 
L 216.43839 159.724017 
L 216.355924 159.628334 
L 216.101752 159.335872 
L 216.046721 159.273032 
L 215.892405 159.097722 
L 215.698164 158.878923 
L 215.543562 158.706244 
L 215.351915 158.49397 
L 215.237606 158.368285 
L 215.06931 158.184486 
L 214.861224 157.959257 
L 214.716216 157.80361 
L 214.581677 157.660147 
L 214.380666 157.447484 
L 214.284866 157.346831 
L 214.207959 157.266352 
L 213.908978 156.956199 
L 213.803873 156.848179 
L 213.641145 156.681966 
L 213.545587 156.584937 
L 213.304154 156.341664 
L 213.266571 156.304035 
L 212.989597 156.028687 
L 212.807865 155.849884 
L 212.720569 155.764514 
L 212.502872 155.553067 
L 212.431877 155.484554 
L 212.222977 155.284212 
L 212.144137 155.209083 
L 211.908539 154.986135 
L 211.839352 154.921102 
L 211.642049 154.736733 
L 211.491902 154.597496 
L 211.315801 154.435355 
L 211.090655 154.229866 
L 211.063878 154.205561 
L 210.80863 153.97529 
L 210.643856 153.82799 
L 210.590622 153.780625 
L 210.359667 153.576391 
L 210.246967 153.477466 
L 210.089062 153.339666 
L 209.83045 153.11599 
L 209.79801 153.088107 
L 209.650416 152.961733 
L 209.381325 152.733371 
L 209.324237 152.68526 
L 209.14969 152.538882 
L 208.957294 152.378789 
L 208.837411 152.279693 
L 208.635777 152.114153 
L 208.47364 151.982059 
L 208.401773 151.923799 
L 208.138827 151.712133 
L 208.077264 151.662914 
L 207.89538 151.518243 
L 207.728363 151.386369 
L 207.565397 151.258583 
L 207.355437 151.095232 
L 207.262744 151.023571 
L 207.121962 150.915265 
L 206.93789 150.774614 
L 206.807109 150.675341 
L 206.564048 150.492273 
L 206.451931 150.408454 
L 206.262413 150.26766 
L 206.181323 150.207757 
L 206.034821 150.100045 
L 205.839005 149.957102 
L 205.6896 149.84882 
L 205.487698 149.70356 
L 205.356997 149.610175 
L 205.141258 149.457142 
L 205.001652 149.358844 
L 204.840797 149.246292 
L 204.746112 149.180392 
L 204.562936 149.053639 
L 204.472038 148.991098 
L 204.291502 148.867586 
L 204.125289 148.754692 
L 203.886358 148.593774 
L 203.73343 148.491618 
L 203.629236 148.422389 
L 203.516885 148.348078 
L 203.300269 148.205786 
L 203.244623 148.169441 
L 202.953616 147.980743 
L 202.833178 147.903318 
L 202.639239 147.779463 
L 202.53124 147.710927 
L 202.329167 147.583525 
L 202.299752 147.565069 
L 202.125596 147.456269 
L 201.961191 147.354291 
L 201.778462 147.241773 
L 201.619716 147.144725 
L 201.482798 147.061544 
L 201.356966 146.985522 
L 201.198478 146.890345 
L 200.995222 146.769218 
L 200.821207 146.666345 
L 200.606432 146.540423 
L 200.463784 146.457424 
L 200.353846 146.393802 
L 200.353846 254.313891 
L 200.443965 254.26176 
L 200.744418 254.086501 
L 200.85896 254.019094 
L 200.939718 253.97137 
L 201.153169 253.844439 
L 201.341533 253.731467 
L 201.391821 253.701153 
L 201.601145 253.574277 
L 201.696442 253.516143 
L 201.930883 253.372124 
L 202.032297 253.309382 
L 202.26052 253.167202 
L 202.383541 253.089992 
L 202.594892 252.95641 
L 202.747747 252.859057 
L 202.804624 252.822673 
L 203.041832 252.66999 
L 203.239864 252.541356 
L 203.324931 252.485771 
L 203.559056 252.331763 
L 203.568221 252.325703 
L 203.723069 252.222972 
L 203.996554 252.039902 
L 204.175038 251.919292 
L 204.317809 251.822166 
L 204.39367 251.770323 
L 204.511826 251.689248 
L 204.786643 251.499123 
L 204.878289 251.435234 
L 205.106628 251.274987 
L 205.214103 251.199032 
L 205.31075 251.130438 
L 205.596106 250.926289 
L 205.621093 250.908297 
L 205.828407 250.758294 
L 206.003565 250.630542 
L 206.125061 250.541378 
L 206.273355 250.431934 
L 206.4805 250.277917 
L 206.611246 250.180016 
L 206.807275 250.032225 
L 206.939189 249.932089 
L 207.158675 249.764245 
L 207.18526 249.74381 
L 207.360485 249.608551 
L 207.546942 249.463525 
L 207.639627 249.391012 
L 207.938697 249.155095 
L 207.989577 249.114662 
L 208.191602 248.953265 
L 208.344409 248.830271 
L 208.429684 248.761288 
L 208.65043 248.581557 
L 208.806984 248.45307 
L 208.961162 248.325697 
L 209.070927 248.234507 
L 209.231819 248.100071 
L 209.471161 247.898374 
L 209.635689 247.758525 
L 209.743361 247.66647 
L 209.854798 247.570749 
L 210.076091 247.379304 
L 210.204751 247.267159 
L 210.39992 247.095852 
L 210.503261 247.00456 
L 210.695473 246.833672 
L 210.89922 246.650969 
L 210.990928 246.568204 
L 211.22127 246.358861 
L 211.281292 246.303965 
L 211.477183 246.123797 
L 211.684408 245.931511 
L 211.746137 245.873894 
L 211.87628 245.751904 
L 212.052244 245.585844 
L 212.209647 245.436201 
L 212.387999 245.265373 
L 212.5692 245.09042 
L 212.682353 244.980447 
L 212.936036 244.731855 
L 213.10645 244.563258 
L 213.241709 244.428514 
L 213.336118 244.333974 
L 213.507794 244.161014 
L 213.590858 244.07684 
L 213.761233 243.903187 
L 214.049068 243.606702 
L 214.167652 243.483404 
L 214.20882 243.440441 
L 214.490553 243.1442 
L 214.55326 243.07773 
L 214.776624 242.839371 
L 214.899846 242.706799 
L 215.061173 242.532055 
L 215.281669 242.291041 
L 215.408692 242.151039 
L 215.537405 242.008299 
L 215.750795 241.769689 
L 215.783954 241.732388 
L 216.066708 241.411857 
L 216.180266 241.28187 
L 216.368545 241.06474 
L 216.44416 240.976966 
L 216.625995 240.764532 
L 216.867681 240.479159 
L 216.963909 240.364563 
L 217.065317 240.243193 
L 217.329924 239.923518 
L 217.375374 239.86817 
L 217.646801 239.534913 
L 217.677419 239.497024 
L 217.908602 239.208969 
L 218.026353 239.060896 
L 218.201902 238.838416 
L 218.332764 238.671205 
L 218.506688 238.44714 
L 218.640497 238.273311 
L 218.904808 237.926184 
L 219.051921 237.730771 
L 219.11235 237.650037 
L 219.223546 237.500763 
L 219.382619 237.285584 
L 219.609246 236.975649 
L 219.765273 236.759913 
L 219.897023 236.576219 
L 220.005128 236.424436 
L 220.279946 236.034199 
L 220.40159 235.859419 
L 220.533638 235.668236 
L 220.669376 235.470108 
L 220.895776 235.135957 
L 221.061437 234.888464 
L 221.183304 234.70475 
L 221.264451 234.581633 
L 221.483419 234.246215 
L 221.618094 234.037551 
L 221.784028 233.777917 
L 221.950819 233.514057 
L 222.072951 233.318973 
L 222.200724 233.113147 
L 222.376681 232.826745 
L 222.632401 232.404229 
L 222.752833 232.202591 
L 222.925175 231.911001 
L 223.009653 231.766737 
L 223.244251 231.361385 
L 223.440669 231.0165 
L 223.573093 230.781059 
L 223.734295 230.491185 
L 223.77184 230.423146 
L 224.045931 229.920251 
L 224.163254 229.701575 
L 224.27478 229.491745 
L 224.399903 229.254006 
L 224.543572 228.977919 
L 224.763653 228.548331 
L 224.879459 228.318937 
L 225.092573 227.890526 
L 225.182159 227.707939 
L 225.343971 227.374265 
L 225.544632 226.9533 
L 225.723811 226.570394 
L 225.844105 226.309461 
L 226.021345 225.919122 
L 226.151034 225.628899 
L 226.263917 225.372997 
L 226.3768 225.113935 
L 226.550078 224.709894 
L 226.700068 224.353653 
L 226.768315 224.189483 
L 226.90278 223.862094 
L 227.014278 223.586534 
L 227.125776 223.307125 
L 227.298591 222.866114 
L 227.472666 222.41161 
L 227.568631 222.156401 
L 227.67775 221.862014 
L 227.786868 221.56298 
L 227.916435 221.201598 
L 228.008372 220.940829 
L 228.119999 220.619141 
L 228.231627 220.291639 
L 228.306461 220.068682 
L 228.413172 219.745823 
L 228.519883 219.4169 
L 228.598062 219.171888 
L 228.676242 218.923315 
L 228.777395 218.596175 
L 228.84972 218.358274 
L 228.922046 218.116892 
L 228.994371 217.871886 
L 229.066697 217.623101 
L 229.090078 217.54184 
L 229.15877 217.300658 
L 229.227462 217.055712 
L 229.296154 216.806832 
L 229.364847 216.553839 
L 229.437398 216.281946 
L 229.50995 216.004995 
L 229.575744 215.749237 
L 229.641538 215.488873 
L 229.70844 215.219149 
L 229.775342 214.944134 
L 229.835293 214.692943 
L 229.895245 214.437018 
L 229.955197 214.176094 
L 230.015149 213.909885 
L 230.052948 213.739182 
L 230.134627 213.362295 
L 230.216306 212.97363 
L 230.258046 212.770106 
L 230.299787 212.563047 
L 230.341527 212.352271 
L 230.383267 212.137577 
L 230.437007 211.855041 
L 230.490747 211.56513 
L 230.538334 211.301782 
L 230.585921 211.031729 
L 230.633509 210.754449 
L 230.681096 210.469348 
L 230.715372 210.258773 
L 230.749648 210.043501 
L 230.783923 209.823213 
L 230.818199 209.597549 
L 230.851708 209.371349 
L 230.885218 209.1392 
L 230.918727 208.900615 
L 230.952236 208.655041 
L 230.985745 208.401838 
L 231.019255 208.140262 
L 231.052764 207.869437 
L 231.086273 207.588326 
L 231.107001 207.408755 
L 231.127729 207.22443 
L 231.144539 207.071185 
L 231.161349 206.914319 
L 231.178158 206.753565 
L 231.194968 206.588622 
L 231.211778 206.419149 
L 231.228588 206.244754 
L 231.245398 206.064987 
L 231.262208 205.879323 
L 231.279018 205.687147 
L 231.295827 205.487728 
L 231.312637 205.280185 
L 231.329447 205.063445 
L 231.346257 204.836174 
L 231.354662 204.718079 
L 231.363067 204.596681 
L 231.371472 204.471688 
L 231.379877 204.342763 
L 231.388282 204.209511 
L 231.396687 204.071467 
L 231.403624 203.953518 
L 231.410562 203.831556 
L 231.4175 203.705145 
L 231.424438 203.573759 
L 231.431376 203.436764 
L 231.438314 203.293375 
L 231.445252 203.142606 
L 231.452189 202.983187 
L 231.459127 202.813438 
L 231.462596 202.724001 
L 231.466065 202.631049 
L 231.469534 202.534132 
L 231.473003 202.432696 
L 231.476472 202.326044 
L 231.479941 202.213278 
L 231.48341 202.09321 
L 231.486879 201.964206 
L 231.490348 201.823918 
L 231.493817 201.668736 
L 231.497286 201.49259 
L 231.500754 201.28364 
L 231.504223 201.011319 
z
" style="fill:#808080;opacity:0.5;"/>
   </g>
   <g id="matplotlib.axis_1"/>
   <g id="matplotlib.axis_2"/>
   <g id="line2d_1">
    <path clip-path="url(#p5bf68798d5)" d="M 138.046154 138.046154 
L 138.175459 142.058217 
L 138.528163 145.781364 
L 139.107842 149.49934 
L 139.911742 153.17892 
L 140.912787 156.727937 
L 142.182033 160.368535 
L 143.508063 163.557043 
L 145.131543 166.903488 
L 146.936854 170.122211 
L 149.00144 173.333247 
L 151.193528 176.328156 
L 153.443865 179.054716 
L 156.012399 181.819257 
L 158.730967 184.411922 
L 161.6447 186.870845 
L 164.430696 188.95564 
L 167.658563 191.086393 
L 169.2 192.006198 
L 169.2 192.006198 
" style="fill:none;stroke:#ff0000;stroke-linecap:square;"/>
   </g>
   <g id="line2d_2">
    <path clip-path="url(#p5bf68798d5)" d="M 106.892308 200.353846 
L 107.033095 204.540069 
L 107.365144 208.015378 
L 107.926767 211.660456 
L 108.674173 215.148195 
L 109.678968 218.779242 
L 110.895839 222.328225 
L 112.394568 225.954459 
L 113.955379 229.168432 
L 115.910064 232.640551 
L 117.874025 235.679372 
L 120.236129 238.886792 
L 122.699069 241.825668 
L 125.368526 244.637595 
L 128.026382 247.119023 
L 130.623759 249.283613 
L 133.752759 251.595837 
L 136.883778 253.625887 
L 140.049917 255.422178 
L 143.188026 256.972092 
L 146.579842 258.410516 
L 150.323666 259.733409 
L 154.060828 260.794346 
L 157.815038 261.612569 
L 161.619107 262.19864 
L 165.549023 262.55448 
L 169.2 262.661538 
L 169.2 262.661538 
" style="fill:none;stroke:#228b22;stroke-linecap:square;"/>
   </g>
   <g id="line2d_3">
    <path clip-path="url(#p5bf68798d5)" d="M 169.2 262.661538 
L 173.034117 262.54346 
L 176.582097 262.222685 
L 180.319148 261.661375 
L 183.958921 260.888322 
L 187.485867 259.917892 
L 190.924713 258.751495 
L 194.45658 257.313075 
L 197.80117 255.709258 
L 200.353846 254.313891 
L 200.353846 254.313891 
" style="fill:none;stroke:#228b22;stroke-linecap:square;"/>
   </g>
   <g id="line2d_4">
    <path clip-path="url(#p5bf68798d5)" d="M 200.353846 254.313891 
L 203.559056 252.331763 
L 206.4805 250.277917 
L 209.231819 248.100071 
L 212.052244 245.585844 
L 214.55326 243.07773 
L 217.065317 240.243193 
L 219.382619 237.285584 
L 221.483419 234.246215 
L 223.440669 231.0165 
L 225.182159 227.707939 
L 226.768315 224.189483 
L 228.119999 220.619141 
L 229.227462 217.055712 
L 230.134627 213.362295 
L 230.818199 209.597549 
L 231.262208 205.879323 
L 231.48341 202.09321 
L 231.507692 200.353846 
L 231.507692 200.353846 
" style="fill:none;stroke:#228b22;stroke-linecap:square;"/>
   </g>
   <g id="text_1">
    <!-- $\Omega$ -->
    <g transform="translate(16.011538 22.420913)scale(0.1 -0.1)">
     <defs>
      <path d="M 7.71875 0 
L 4.390625 16.609375 
L 7.328125 16.609375 
Q 7.859375 13.71875 8.296875 11.5 
Q 8.734375 9.28125 9.4375 8.375 
Q 10.15625 7.46875 11.71875 7.171875 
Q 13.28125 6.890625 16.890625 6.890625 
L 23 6.890625 
Q 21.53125 12.546875 15.6875 21.65625 
Q 9.859375 30.765625 7.734375 34.890625 
Q 5.609375 39.015625 5.609375 45.515625 
Q 5.609375 53.078125 10.09375 58.765625 
Q 14.59375 64.453125 21.703125 67.484375 
Q 28.8125 70.515625 36.078125 70.515625 
Q 43.3125 70.515625 50.40625 67.484375 
Q 57.515625 64.453125 62 58.71875 
Q 66.5 52.984375 66.5 45.515625 
Q 66.5 40.4375 64.640625 35.9375 
Q 62.796875 31.453125 59.90625 26.953125 
Q 57.03125 22.46875 53.6875 16.9375 
Q 50.34375 11.421875 49.125 6.890625 
L 55.171875 6.890625 
Q 58.84375 6.890625 60.453125 7.171875 
Q 62.0625 7.46875 62.734375 8.375 
Q 63.421875 9.28125 63.84375 11.5 
Q 64.265625 13.71875 64.796875 16.609375 
L 67.671875 16.609375 
L 64.40625 0 
L 46.6875 0 
Q 45.703125 0 45.703125 1.3125 
Q 45.703125 6.390625 46.9375 11.265625 
Q 48.1875 16.15625 50.625 23.09375 
Q 53.078125 30.03125 54.4375 35.328125 
Q 55.8125 40.625 55.8125 45.515625 
Q 55.8125 51.515625 53.46875 56.640625 
Q 51.125 61.765625 46.625 64.84375 
Q 42.140625 67.921875 36.078125 67.921875 
Q 26.953125 67.921875 21.625 61.40625 
Q 16.3125 54.890625 16.3125 45.515625 
Q 16.359375 40.375 17.53125 35.828125 
Q 18.703125 31.296875 21.3125 23.71875 
Q 23.921875 16.15625 25.171875 11.265625 
Q 26.421875 6.390625 26.421875 1.3125 
Q 26.421875 0 25.390625 0 
z
" id="Cmr10-173"/>
     </defs>
     <use transform="translate(0 0.484375)" xlink:href="#Cmr10-173"/>
    </g>
   </g>
   <g id="text_2">
    <!-- $A$ -->
    <g style="fill:#0000ff;" transform="translate(103.142308 78.497837)scale(0.1 -0.1)">
     <defs>
      <path d="M 4.5 0 
Q 3.515625 0 3.515625 1.3125 
Q 3.90625 3.515625 4.78125 3.515625 
Q 8.84375 3.515625 11.796875 5.125 
Q 14.75 6.734375 16.890625 10.109375 
Q 17.09375 10.296875 17.09375 10.296875 
L 52.78125 70.515625 
Q 53.5625 71.578125 54.6875 71.578125 
L 56 71.578125 
Q 56.296875 71.578125 56.59375 71.453125 
Q 56.890625 71.34375 57.109375 71.0625 
Q 57.328125 70.796875 57.328125 70.515625 
L 63.375 5.90625 
Q 63.375 5.46875 63.8125 4.59375 
Q 64.796875 3.515625 71.296875 3.515625 
Q 72.3125 3.515625 72.3125 2.203125 
Q 71.96875 0.875 71.75 0.4375 
Q 71.53125 0 70.609375 0 
L 45.609375 0 
Q 44.671875 0 44.671875 1.3125 
Q 45.21875 3.515625 46 3.515625 
Q 53.90625 3.515625 54.390625 6.203125 
L 52.875 22.703125 
L 28.21875 22.703125 
L 20.21875 9.28125 
Q 19.484375 8.203125 19.484375 6.78125 
Q 19.484375 5.03125 21.171875 4.265625 
Q 22.859375 3.515625 24.90625 3.515625 
Q 25.875 3.515625 25.875 2.203125 
Q 25.53125 0.78125 25.328125 0.390625 
Q 25.140625 0 24.21875 0 
z
M 30.171875 26.21875 
L 52.484375 26.21875 
L 49.515625 58.59375 
z
" id="Cmmi10-65"/>
     </defs>
     <use transform="translate(0 0.421875)" xlink:href="#Cmmi10-65"/>
    </g>
   </g>
   <g id="text_3">
    <!-- $B$ -->
    <g style="fill:#ff0000;" transform="translate(227.707692 78.497837)scale(0.1 -0.1)">
     <defs>
      <path d="M 4.984375 0 
Q 4 0 4 1.3125 
Q 4.046875 1.5625 4.1875 2.140625 
Q 4.34375 2.734375 4.578125 3.125 
Q 4.828125 3.515625 5.328125 3.515625 
Q 8.15625 3.515625 10.25 3.65625 
Q 12.359375 3.8125 13.8125 4.203125 
Q 14.984375 4.640625 15.71875 6.890625 
L 29.390625 61.8125 
Q 29.59375 62.796875 29.59375 63.1875 
Q 29.59375 64.265625 28.421875 64.40625 
Q 26.515625 64.796875 21.1875 64.796875 
Q 20.21875 64.796875 20.21875 66.109375 
Q 20.265625 66.359375 20.40625 66.96875 
Q 20.5625 67.578125 20.828125 67.9375 
Q 21.09375 68.3125 21.484375 68.3125 
L 57.328125 68.3125 
Q 60.59375 68.3125 63.796875 67.5 
Q 67 66.703125 69.703125 64.9375 
Q 72.40625 63.1875 74 60.5625 
Q 75.59375 57.953125 75.59375 54.5 
Q 75.59375 50.734375 73.65625 47.5 
Q 71.734375 44.28125 68.671875 41.890625 
Q 65.625 39.5 62.078125 37.953125 
Q 58.546875 36.421875 54.6875 35.6875 
Q 57.421875 35.6875 60.21875 34.609375 
Q 63.03125 33.546875 65.234375 31.6875 
Q 67.4375 29.828125 68.78125 27.234375 
Q 70.125 24.65625 70.125 21.6875 
Q 70.125 15.671875 65.921875 10.6875 
Q 61.71875 5.71875 55.34375 2.859375 
Q 48.96875 0 43.015625 0 
z
M 23.390625 4.296875 
Q 23.390625 3.515625 26.8125 3.515625 
L 41.109375 3.515625 
Q 46 3.515625 50.484375 6.21875 
Q 54.984375 8.9375 57.6875 13.421875 
Q 60.40625 17.921875 60.40625 22.796875 
Q 60.40625 25.78125 59.15625 28.4375 
Q 57.90625 31.109375 55.5625 32.640625 
Q 53.21875 34.1875 50.203125 34.1875 
L 30.71875 34.1875 
L 23.78125 6.5 
Q 23.390625 5.125 23.390625 4.296875 
z
M 31.390625 36.8125 
L 46.578125 36.8125 
Q 51.375 36.8125 55.890625 39.25 
Q 60.40625 41.703125 63.25 45.890625 
Q 66.109375 50.09375 66.109375 54.78125 
Q 66.109375 59.125 63.390625 61.953125 
Q 60.6875 64.796875 56.390625 64.796875 
L 42.671875 64.796875 
Q 39.984375 64.796875 39.0625 64.296875 
Q 38.140625 63.8125 37.5 61.375 
z
" id="Cmmi10-66"/>
     </defs>
     <use transform="translate(0 0.6875)" xlink:href="#Cmmi10-66"/>
    </g>
   </g>
   <g id="text_4">
    <!-- $C$ -->
    <g style="fill:#228b22;" transform="translate(150.023077 271.651683)scale(0.1 -0.1)">
     <defs>
      <path d="M 14.59375 21.578125 
Q 14.59375 15.578125 16.90625 11.015625 
Q 19.234375 6.453125 23.65625 3.875 
Q 28.078125 1.3125 34.078125 1.3125 
Q 40.375 1.3125 46.203125 4.53125 
Q 52.046875 7.765625 56.171875 13.15625 
Q 60.296875 18.5625 61.8125 24.609375 
Q 62.015625 25.203125 62.59375 25.203125 
L 63.8125 25.203125 
Q 64.203125 25.203125 64.453125 24.921875 
Q 64.703125 24.65625 64.703125 24.3125 
Q 64.703125 24.21875 64.59375 24.03125 
Q 62.890625 17.09375 57.984375 11.015625 
Q 53.078125 4.9375 46.234375 1.359375 
Q 39.40625 -2.203125 32.171875 -2.203125 
Q 24.359375 -2.203125 18.15625 1.3125 
Q 11.96875 4.828125 8.515625 11.078125 
Q 5.078125 17.328125 5.078125 25.203125 
Q 5.078125 33.59375 8.828125 41.8125 
Q 12.59375 50.046875 18.9375 56.46875 
Q 25.296875 62.890625 33.421875 66.703125 
Q 41.546875 70.515625 49.90625 70.515625 
Q 53.21875 70.515625 56.25 69.5 
Q 59.28125 68.5 61.859375 66.453125 
Q 64.453125 64.40625 66.109375 61.71875 
L 74.03125 70.3125 
Q 74.03125 70.515625 74.515625 70.515625 
L 75.09375 70.515625 
Q 75.484375 70.515625 75.734375 70.171875 
Q 75.984375 69.828125 75.984375 69.484375 
L 69.1875 42.484375 
Q 69.1875 41.796875 68.40625 41.796875 
L 66.609375 41.796875 
Q 65.828125 41.796875 65.828125 42.921875 
Q 66.21875 45.125 66.21875 48.1875 
Q 66.21875 53.078125 64.546875 57.390625 
Q 62.890625 61.71875 59.390625 64.359375 
Q 55.90625 67 50.875 67 
Q 42.71875 67 35.9375 62.890625 
Q 29.15625 58.796875 24.4375 52.125 
Q 19.734375 45.453125 17.15625 37.328125 
Q 14.59375 29.203125 14.59375 21.578125 
z
" id="Cmmi10-67"/>
     </defs>
     <use transform="translate(0 0.484375)" xlink:href="#Cmmi10-67"/>
    </g>
   </g>
   <g id="patch_8">
    <path clip-path="url(#p5bf68798d5)" d="M 138.046154 200.353846 
C 154.570347 200.353846 170.419977 193.788715 182.104346 182.104346 
C 193.788715 170.419977 200.353846 154.570347 200.353846 138.046154 
C 200.353846 121.521961 193.788715 105.672331 182.104346 93.987962 
C 170.419977 82.303593 154.570347 75.738462 138.046154 75.738462 
C 121.521961 75.738462 105.672331 82.303593 93.987962 93.987962 
C 82.303593 105.672331 75.738462 121.521961 75.738462 138.046154 
C 75.738462 154.570347 82.303593 170.419977 93.987962 182.104346 
C 105.672331 193.788715 121.521961 200.353846 138.046154 200.353846 
z
" style="fill:none;stroke:#0000ff;stroke-linejoin:miter;"/>
   </g>
   <g id="patch_9">
    <path clip-path="url(#p5bf68798d5)" d="M 200.353846 200.353846 
C 216.878039 200.353846 232.727669 193.788715 244.412038 182.104346 
C 256.096407 170.419977 262.661538 154.570347 262.661538 138.046154 
C 262.661538 121.521961 256.096407 105.672331 244.412038 93.987962 
C 232.727669 82.303593 216.878039 75.738462 200.353846 75.738462 
C 183.829653 75.738462 167.980023 82.303593 156.295654 93.987962 
C 144.611285 105.672331 138.046154 121.521961 138.046154 138.046154 
C 138.046154 154.570347 144.611285 170.419977 156.295654 182.104346 
C 167.980023 193.788715 183.829653 200.353846 200.353846 200.353846 
z
" style="fill:none;stroke:#ff0000;stroke-linejoin:miter;"/>
   </g>
   <g id="patch_10">
    <path clip-path="url(#p5bf68798d5)" d="M 169.2 262.661538 
C 185.724193 262.661538 201.573823 256.096407 213.258192 244.412038 
C 224.942561 232.727669 231.507692 216.878039 231.507692 200.353846 
C 231.507692 183.829653 224.942561 167.980023 213.258192 156.295654 
C 201.573823 144.611285 185.724193 138.046154 169.2 138.046154 
C 152.675807 138.046154 136.826177 144.611285 125.141808 156.295654 
C 113.457439 167.980023 106.892308 183.829653 106.892308 200.353846 
C 106.892308 216.878039 113.457439 232.727669 125.141808 244.412038 
C 136.826177 256.096407 152.675807 262.661538 169.2 262.661538 
z
" style="fill:none;stroke:#228b22;stroke-linejoin:miter;"/>
   </g>
  </g>
 </g>
 <defs>
  <clipPath id="p5bf68798d5">
   <rect height="324" width="324" x="7.2" y="7.2"/>
  </clipPath>
 </defs>
</svg>
