<?xml version="1.0" encoding="utf-8" standalone="no"?>
<!DOCTYPE svg PUBLIC "-//W3C//DTD SVG 1.1//EN"
  "http://www.w3.org/Graphics/SVG/1.1/DTD/svg11.dtd">
<!-- Created with matplotlib (https://matplotlib.org/) -->
<svg height="338.4pt" version="1.1" viewBox="0 0 338.4 338.4" width="338.4pt" xmlns="http://www.w3.org/2000/svg" xmlns:xlink="http://www.w3.org/1999/xlink">
 <metadata>
  <rdf:RDF xmlns:cc="http://creativecommons.org/ns#" xmlns:dc="http://purl.org/dc/elements/1.1/" xmlns:rdf="http://www.w3.org/1999/02/22-rdf-syntax-ns#">
   <cc:Work>
    <dc:type rdf:resource="http://purl.org/dc/dcmitype/StillImage"/>
    <dc:date>2024-08-26T15:38:38.090962</dc:date>
    <dc:format>image/svg+xml</dc:format>
    <dc:creator>
     <cc:Agent>
      <dc:title>Matplotlib v3.3.4, https://matplotlib.org/</dc:title>
     </cc:Agent>
    </dc:creator>
   </cc:Work>
  </rdf:RDF>
 </metadata>
 <defs>
  <style type="text/css">*{stroke-linecap:butt;stroke-linejoin:round;}</style>
 </defs>
 <g id="figure_1">
  <g id="patch_1">
   <path d="M -0 338.4 
L 338.4 338.4 
L 338.4 0 
L -0 0 
z
" style="fill:#ffffff;"/>
  </g>
  <g id="axes_1">
   <g id="patch_2">
    <path d="M 7.2 331.2 
L 331.2 331.2 
L 331.2 7.2 
L 7.2 7.2 
z
" style="fill:#ffffff;"/>
   </g>
   <g id="patch_3">
    <path clip-path="url(#p7d2b217018)" d="M 13.430769 324.969231 
L 13.430769 13.430769 
L 324.969231 13.430769 
L 324.969231 324.969231 
z
" style="fill:none;stroke:#000000;stroke-linejoin:miter;"/>
   </g>
   <g id="patch_4">
    <path clip-path="url(#p7d2b217018)" d="M 200.353846 138.046154 
L 200.336568 139.513415 
L 200.319289 140.12103 
L 200.302011 140.587172 
L 200.284733 140.980065 
L 200.267454 141.326139 
L 200.250176 141.638948 
L 200.232897 141.926546 
L 200.215619 142.194179 
L 200.198341 142.445494 
L 200.181062 142.683144 
L 200.163784 142.909132 
L 200.146506 143.125016 
L 200.111949 143.53119 
L 200.077392 143.90909 
L 200.042835 144.263872 
L 200.008278 144.599294 
L 199.973722 144.918189 
L 199.939165 145.222762 
L 199.904608 145.514766 
L 199.870051 145.79562 
L 199.800938 146.328375 
L 199.747483 146.717628 
L 199.694029 147.089827 
L 199.640574 147.446998 
L 199.58712 147.790794 
L 199.533666 148.122583 
L 199.480211 148.443516 
L 199.373302 149.056576 
L 199.259341 149.673462 
L 199.145379 150.258165 
L 199.031417 150.815106 
L 198.917456 151.347775 
L 198.778447 151.968694 
L 198.639438 152.561748 
L 198.500429 153.130224 
L 198.36142 153.676804 
L 198.230169 154.174788 
L 198.098918 154.656814 
L 197.916542 155.302606 
L 197.734166 155.923228 
L 197.551768 156.521282 
L 197.369371 157.098828 
L 197.186974 157.657678 
L 197.004577 158.199389 
L 196.775973 158.856171 
L 196.54737 159.490414 
L 196.303237 160.145039 
L 196.073503 160.741423 
L 195.843769 161.320263 
L 195.517261 162.115229 
L 195.190753 162.880472 
L 194.968105 163.386634 
L 194.745458 163.880964 
L 194.377462 164.673812 
L 193.941227 165.577759 
L 193.645122 166.170935 
L 193.349016 166.748801 
L 192.929991 167.542137 
L 192.430359 168.453501 
L 192.148153 168.952822 
L 191.865948 169.441668 
L 191.531759 170.007671 
L 191.24409 170.484219 
L 190.956422 170.951352 
L 190.515992 171.649198 
L 190.154294 172.207393 
L 189.577469 173.07146 
L 189.026349 173.868887 
L 188.531886 174.562442 
L 188.308421 174.869421 
L 187.902635 175.416995 
L 187.49685 175.952317 
L 187.428661 176.041107 
L 186.785488 176.862721 
L 186.446584 177.284488 
L 185.725726 178.157336 
L 185.20476 178.76856 
L 184.938209 179.075213 
L 184.284089 179.810994 
L 183.696765 180.45217 
L 183.583016 180.574294 
L 182.768373 181.430156 
L 182.481636 181.723796 
L 181.996118 182.212308 
L 181.652892 182.55122 
L 181.04783 183.136113 
L 180.568859 183.588092 
L 180.218559 183.912665 
L 179.900818 184.202796 
L 178.999399 185.004436 
L 178.722957 185.244101 
L 178.426803 185.497726 
L 177.792885 186.029962 
L 177.211962 186.505291 
L 176.902825 186.753521 
L 176.342091 187.195617 
L 175.912027 187.527708 
L 175.243723 188.032046 
L 174.853282 188.320241 
L 174.485191 188.587672 
L 174.254561 188.753153 
L 173.617888 189.201801 
L 173.047112 189.59401 
L 172.428463 190.008691 
L 172.245143 190.129526 
L 171.78957 190.425829 
L 171.196285 190.803308 
L 170.996217 190.928494 
L 170.307396 191.351508 
L 169.87141 191.612949 
L 169.325481 191.933557 
L 168.890842 192.183514 
L 168.565688 192.367481 
L 167.912962 192.729079 
L 167.246743 193.087721 
L 167.234223 193.094361 
L 166.381578 193.538066 
L 165.956655 193.752998 
L 165.387938 194.034326 
L 165.259761 194.096739 
L 164.612814 194.406256 
L 164.366911 194.521514 
L 163.778694 194.791946 
L 163.276823 195.016864 
L 162.857048 195.200927 
L 162.21233 195.476498 
L 161.923353 195.597243 
L 161.347943 195.832616 
L 160.722246 196.081 
L 160.227028 196.27207 
L 159.94033 196.38048 
L 159.516683 196.537734 
L 158.892315 196.763154 
L 158.387651 196.939889 
L 158.001951 197.071696 
L 157.675978 197.180903 
L 156.926821 197.424339 
L 156.827867 197.455713 
L 156.045196 197.697499 
L 155.725636 197.79299 
L 155.111221 197.971374 
L 154.94049 198.019731 
L 154.333069 198.187528 
L 154.071073 198.257868 
L 153.340911 198.447469 
L 152.902477 198.556799 
L 152.352465 198.689191 
L 152.079114 198.753028 
L 151.618293 198.857712 
L 150.873654 199.01913 
L 150.666687 199.062305 
L 150.062277 199.184205 
L 149.613006 199.270793 
L 149.001291 199.383202 
L 148.574456 199.457907 
L 148.187694 199.52296 
L 147.610884 199.615338 
L 147.247087 199.670754 
L 146.721707 199.74691 
L 146.157258 199.823646 
L 145.852558 199.862888 
L 145.496895 199.906763 
L 145.083079 199.955202 
L 144.319676 200.037213 
L 143.96769 200.071825 
L 143.403666 200.123087 
L 143.027645 200.154392 
L 142.364457 200.204024 
L 142.154032 200.218285 
L 141.553249 200.255066 
L 141.058498 200.280986 
L 140.594847 200.301697 
L 140.352876 200.311132 
L 139.652946 200.333125 
L 139.25914 200.342038 
L 138.924678 200.347652 
L 138.262755 200.35347 
L 137.765769 200.353215 
L 137.339852 200.349843 
L 136.864302 200.342636 
L 136.331239 200.330242 
L 136.05746 200.322101 
L 135.367624 200.296246 
L 135.123094 200.285243 
L 134.755312 200.266881 
L 134.042757 200.2251 
L 133.782346 200.207786 
L 133.277673 200.171109 
L 132.913243 200.142061 
L 132.306441 200.088915 
L 131.890045 200.048983 
L 131.159292 199.972075 
L 131.04359 199.959098 
L 130.537428 199.899752 
L 129.876309 199.815905 
L 129.229947 199.72697 
L 128.823844 199.667559 
L 128.458405 199.611758 
L 127.794875 199.504756 
L 127.449505 199.44615 
L 126.996099 199.366174 
L 126.631508 199.299353 
L 126.272825 199.231424 
L 125.886744 199.155869 
L 125.256191 199.027014 
L 124.75059 198.918779 
L 124.465837 198.855886 
L 123.947852 198.737887 
L 123.126365 198.541182 
L 122.800739 198.459943 
L 122.462124 198.373482 
L 121.950006 198.238865 
L 121.265001 198.051499 
L 121.041406 197.988518 
L 120.364952 197.792481 
L 119.998924 197.682938 
L 119.778387 197.615754 
L 119.203666 197.436466 
L 118.695487 197.272839 
L 118.292981 197.139814 
L 117.530876 196.879579 
L 117.271348 196.788438 
L 116.893781 196.653539 
L 116.211126 196.402645 
L 115.729515 196.22017 
L 115.144211 195.992245 
L 114.909692 195.899007 
L 114.514981 195.739589 
L 114.135481 195.583344 
L 113.347828 195.249661 
L 112.834107 195.025108 
L 112.305527 194.788278 
L 111.957216 194.628977 
L 111.681467 194.501019 
L 111.191125 194.269423 
L 110.596171 193.981357 
L 110.395586 193.882474 
L 109.565456 193.463645 
L 109.302298 193.327609 
L 108.849228 193.089664 
L 108.31148 192.801041 
L 107.62283 192.421423 
L 107.133355 192.144651 
L 106.892308 192.006198 
L 106.892308 84.086109 
L 107.336173 83.832266 
L 107.996516 83.463485 
L 108.220595 83.34072 
L 108.564805 83.154455 
L 109.077781 82.882018 
L 109.62728 82.596933 
L 110.213916 82.300167 
L 110.69447 82.062818 
L 111.123084 81.855436 
L 111.42111 81.713609 
L 112.214498 81.345412 
L 112.386069 81.267562 
L 113.123396 80.940071 
L 113.422685 80.810384 
L 113.801225 80.649011 
L 114.473199 80.369778 
L 114.970045 80.1692 
L 115.331017 80.026579 
L 115.782348 79.851898 
L 116.328707 79.645802 
L 116.620536 79.538108 
L 117.259538 79.308048 
L 117.631194 79.177844 
L 118.287282 78.954399 
L 118.607328 78.848345 
L 119.208172 78.654412 
L 119.402419 78.59315 
L 119.994147 78.410816 
L 120.658807 78.213649 
L 120.902345 78.143413 
L 121.362819 78.013539 
L 121.895852 77.86795 
L 122.353195 77.74707 
L 122.672555 77.664857 
L 123.363663 77.493094 
L 123.917023 77.361591 
L 124.155968 77.306453 
L 124.893949 77.142393 
L 125.177124 77.08193 
L 125.625057 76.989091 
L 126.185157 76.877818 
L 126.740446 76.772754 
L 127.144802 76.699524 
L 127.768479 76.59196 
L 127.887761 76.57213 
L 128.437558 76.4838 
L 128.877563 76.416733 
L 129.569466 76.317763 
L 129.826258 76.283043 
L 130.474647 76.20021 
L 130.614774 76.183216 
L 131.508732 76.082369 
L 131.6553 76.067081 
L 132.077665 76.024983 
L 132.571178 75.979471 
L 133.29961 75.919518 
L 133.634168 75.894863 
L 134.065099 75.865773 
L 134.379706 75.84643 
L 134.892945 75.8183 
L 135.51498 75.789896 
L 135.879823 75.776133 
L 136.319823 75.762381 
L 136.883062 75.749318 
L 137.562983 75.740335 
L 137.658049 75.73967 
L 138.146871 75.738543 
L 138.843848 75.743568 
L 139.15148 75.748266 
L 139.999623 75.769092 
L 140.263004 75.777911 
L 140.775151 75.798254 
L 140.981753 75.807655 
L 141.521971 75.835486 
L 141.955066 75.861196 
L 142.411282 75.891555 
L 143.176951 75.950072 
L 143.374166 75.966682 
L 143.83867 76.0083 
L 144.687932 76.093468 
L 144.724974 76.09745 
L 145.495454 76.185371 
L 145.935859 76.239997 
L 146.42099 76.303862 
L 146.606579 76.32932 
L 147.231128 76.419173 
L 147.754354 76.499429 
L 148.237753 76.577627 
L 148.75273 76.665231 
L 149.370918 76.776274 
L 149.650454 76.828601 
L 150.242399 76.94378 
L 150.561286 77.008297 
L 151.24833 77.153206 
L 151.70782 77.254646 
L 151.836928 77.283805 
L 152.376784 77.408859 
L 152.725311 77.492286 
L 153.399469 77.659696 
L 153.992428 77.813564 
L 154.451265 77.936913 
L 154.745305 78.017937 
L 155.380989 78.198414 
L 155.936796 78.362208 
L 156.297009 78.471371 
L 156.512432 78.537792 
L 157.160252 78.742699 
L 157.569706 78.876234 
L 158.284276 79.116815 
L 158.493326 79.189025 
L 158.895813 79.330396 
L 159.570713 79.574435 
L 159.906707 79.69922 
L 160.568766 79.951572 
L 161.070716 80.148675 
L 161.250593 80.220532 
L 161.799851 80.44398 
L 162.342139 80.670605 
L 162.779089 80.857602 
L 163.1478 81.018477 
L 163.782337 81.302014 
L 164.004322 81.403219 
L 164.489856 81.628257 
L 164.935796 81.839431 
L 165.437209 82.082071 
L 166.151904 82.437563 
L 166.589671 82.660992 
L 167.089106 82.921246 
L 167.660344 83.226009 
L 167.972945 83.396033 
L 168.439113 83.653907 
L 168.753033 83.830509 
L 169.353672 84.175124 
L 169.828055 84.453624 
L 170.319335 84.748027 
L 170.564661 84.897351 
L 171.082484 85.217663 
L 171.609637 85.551001 
L 172.404914 86.068042 
L 172.786205 86.322104 
L 173.342677 86.700229 
L 173.536628 86.834097 
L 173.980447 87.144532 
L 174.391537 87.437245 
L 175.062282 87.925751 
L 175.316851 88.114764 
L 175.98417 88.619891 
L 176.414247 88.952998 
L 176.692656 89.171862 
L 177.218991 89.592699 
L 177.990041 90.226342 
L 178.512509 90.66765 
L 178.875346 90.979971 
L 179.015804 91.102184 
L 179.658165 91.670632 
L 180.277549 92.233953 
L 180.594415 92.528092 
L 181.314573 93.212099 
L 181.477935 93.370334 
L 181.991352 93.875257 
L 182.701178 94.592992 
L 182.825397 94.721012 
L 183.251585 95.165884 
L 183.743277 95.690264 
L 184.173422 96.159119 
L 184.831791 96.895787 
L 185.30835 97.44402 
L 185.987246 98.24791 
L 186.239186 98.553368 
L 186.909528 99.385849 
L 187.34191 99.938714 
L 187.760329 100.486211 
L 188.345699 101.273824 
L 188.63871 101.678012 
L 188.944372 102.10704 
L 189.423051 102.79473 
L 189.879735 103.46974 
L 190.29836 104.105684 
L 190.66272 104.673329 
L 191.027081 105.254846 
L 191.584827 106.17361 
L 191.898999 106.707367 
L 192.320711 107.443524 
L 192.674222 108.079127 
L 193.027733 108.73277 
L 193.189542 109.038306 
L 193.514545 109.664715 
L 193.839548 110.309073 
L 194.169166 110.982228 
L 194.394495 111.454558 
L 194.619824 111.937375 
L 194.899402 112.551905 
L 195.178979 113.184763 
L 195.482012 113.893084 
L 195.825905 114.727729 
L 195.997851 115.1584 
L 196.169798 115.598648 
L 196.449551 116.3369 
L 196.729304 117.104893 
L 196.928255 117.671005 
L 197.127206 118.255301 
L 197.362384 118.971739 
L 197.597563 119.719174 
L 197.777425 120.314154 
L 197.892761 120.707408 
L 198.008098 121.110577 
L 198.123435 121.524386 
L 198.238772 121.949655 
L 198.354108 122.387318 
L 198.469445 122.838446 
L 198.584782 123.304274 
L 198.700119 123.786243 
L 198.784404 124.149624 
L 198.868688 124.523291 
L 198.952973 124.908122 
L 199.037258 125.305128 
L 199.124788 125.731571 
L 199.212318 126.173967 
L 199.299849 126.634169 
L 199.387379 127.114428 
L 199.489064 127.701237 
L 199.539907 128.007883 
L 199.590749 128.324462 
L 199.641592 128.651979 
L 199.692435 128.991619 
L 199.743277 129.344804 
L 199.79412 129.713254 
L 199.864086 130.249242 
L 199.899068 130.531803 
L 199.934051 130.825582 
L 199.969034 131.132009 
L 200.004017 131.452847 
L 200.039 131.790314 
L 200.073983 132.147261 
L 200.108966 132.527469 
L 200.143949 132.936126 
L 200.16144 133.153331 
L 200.178932 133.380702 
L 200.196423 133.619807 
L 200.213915 133.87266 
L 200.231406 134.141934 
L 200.248897 134.431295 
L 200.266389 134.746022 
L 200.28388 135.094219 
L 200.301372 135.489524 
L 200.318863 135.958528 
L 200.336355 136.569876 
z
" style="fill:#808080;opacity:0.5;"/>
   </g>
   <g id="patch_5">
    <path clip-path="url(#p7d2b217018)" d="M 75.738462 138.046154 
L 75.738462 138.046154 
L 75.744186 137.201537 
L 75.749911 136.851712 
L 75.755636 136.583301 
L 75.761361 136.357036 
L 75.767086 136.157706 
L 75.772811 135.977511 
L 75.778536 135.811815 
L 75.784261 135.6576 
L 75.789986 135.512768 
L 75.795711 135.375793 
L 75.801435 135.24552 
L 75.80716 135.121054 
L 75.812885 135.001683 
L 75.81861 134.88683 
L 75.824335 134.776018 
L 75.83006 134.66885 
L 75.84151 134.464147 
L 75.85296 134.270561 
L 75.864409 134.08646 
L 75.875859 133.910579 
L 75.887309 133.741909 
L 75.898759 133.579633 
L 75.910209 133.423079 
L 75.921658 133.271682 
L 75.937737 133.066892 
L 75.953815 132.870248 
L 75.969894 132.680854 
L 75.985972 132.497969 
L 76.00205 132.320968 
L 76.018129 132.149321 
L 76.034207 131.982573 
L 76.050286 131.820332 
L 76.07017 131.62541 
L 76.090054 131.436294 
L 76.109939 131.252498 
L 76.129823 131.073602 
L 76.149707 130.899238 
L 76.169591 130.729082 
L 76.189476 130.562847 
L 76.20936 130.400277 
L 76.236026 130.187615 
L 76.262692 129.980647 
L 76.289358 129.778945 
L 76.316025 129.582132 
L 76.350924 129.331392 
L 76.385822 129.087803 
L 76.420721 128.850797 
L 76.45562 128.619877 
L 76.490519 128.394606 
L 76.525418 128.174599 
L 76.560317 127.959509 
L 76.595216 127.74903 
L 76.611498 127.652327 
L 76.64432 127.460156 
L 76.677142 127.271511 
L 76.709964 127.086211 
L 76.742786 126.904089 
L 76.80843 126.548778 
L 76.874073 126.204486 
L 76.945787 125.839856 
L 77.017501 125.486216 
L 77.095206 125.114394 
L 77.17291 124.753421 
L 77.260137 124.360077 
L 77.347364 123.978267 
L 77.410363 123.70916 
L 77.473362 123.445284 
L 77.571033 123.045876 
L 77.668705 122.657451 
L 77.735671 122.39706 
L 77.802636 122.141214 
L 77.879912 121.851343 
L 77.957188 121.566933 
L 78.011508 121.370127 
L 78.08673 121.101656 
L 78.161951 120.837702 
L 78.237173 120.57806 
L 78.312394 120.32254 
L 78.384729 120.08055 
L 78.461599 119.827227 
L 78.538468 119.577698 
L 78.640291 119.252751 
L 78.732835 118.962685 
L 78.82538 118.677405 
L 78.977191 118.219249 
L 79.07137 117.940846 
L 79.165549 117.666681 
L 79.310609 117.252303 
L 79.466778 116.816334 
L 79.59046 116.478113 
L 79.714142 116.145814 
L 79.743707 116.067226 
L 79.842694 115.80642 
L 79.94168 115.549073 
L 80.043708 115.287314 
L 80.145736 115.028984 
L 80.255991 114.753545 
L 80.371573 114.468807 
L 80.554765 114.025565 
L 80.688671 113.70755 
L 80.845401 113.341451 
L 81.06387 112.841632 
L 81.266893 112.387549 
L 81.387805 112.121648 
L 81.474441 111.933134 
L 81.606672 111.648551 
L 81.738904 111.367659 
L 81.816572 111.204346 
L 81.947869 110.931012 
L 82.117325 110.583187 
L 82.337162 110.13994 
L 82.49255 109.831874 
L 82.564393 109.690858 
L 82.734395 109.360655 
L 82.892998 109.056882 
L 83.025657 108.805883 
L 83.229494 108.425514 
L 83.387105 108.135672 
L 83.537086 107.863211 
L 83.688822 107.590792 
L 83.842176 107.318686 
L 84.054016 106.947962 
L 84.187038 106.718144 
L 84.403449 106.349013 
L 84.429433 106.30508 
L 84.680299 105.885089 
L 84.81432 105.663745 
L 85.020173 105.327751 
L 85.082017 105.227733 
L 85.252502 104.954178 
L 85.472054 104.606468 
L 85.622109 104.371711 
L 85.690814 104.264991 
L 85.964696 103.84425 
L 86.027875 103.748236 
L 86.20372 103.483015 
L 86.457455 103.105424 
L 86.589214 102.911672 
L 86.658475 102.810448 
L 86.818315 102.578464 
L 86.963922 102.369072 
L 87.116928 102.150995 
L 87.268393 101.937048 
L 87.514997 101.592749 
L 87.633244 101.429395 
L 87.827429 101.163526 
L 87.963672 100.978734 
L 88.080794 100.82101 
L 88.198511 100.663524 
L 88.44515 100.336886 
L 88.65361 100.064249 
L 88.788707 99.889209 
L 88.876369 99.776312 
L 88.975491 99.649297 
L 89.206854 99.35544 
L 89.28261 99.260006 
L 89.450183 99.050255 
L 89.616471 98.84393 
L 89.882539 98.517497 
L 90.027855 98.341097 
L 90.108094 98.244258 
L 90.252868 98.070532 
L 90.521609 97.751412 
L 90.628567 97.625603 
L 90.758561 97.4736 
L 90.92393 97.281652 
L 91.039503 97.148436 
L 91.256554 96.900293 
L 91.366109 96.776045 
L 91.611443 96.500201 
L 91.739011 96.358062 
L 91.866622 96.216746 
L 92.055621 96.009035 
L 92.157083 95.898299 
L 92.394519 95.641239 
L 92.489021 95.539729 
L 92.587516 95.43441 
L 92.827163 95.180183 
L 92.921598 95.080784 
L 93.115802 94.877739 
L 93.297097 94.689834 
L 93.393687 94.590363 
L 93.585407 94.394229 
L 93.672273 94.305929 
L 93.823816 94.152722 
L 94.049306 93.926703 
L 94.223366 93.75381 
L 94.290737 93.687254 
L 94.452227 93.528539 
L 94.723176 93.264817 
L 94.780855 93.209089 
L 95.045796 92.954938 
L 95.082251 92.920202 
L 95.367717 92.650124 
L 95.518546 92.508795 
L 95.582617 92.449043 
L 95.778068 92.267803 
L 95.905604 92.150374 
L 96.151126 91.926146 
L 96.230679 91.854005 
L 96.329822 91.764449 
L 96.609694 91.51371 
L 96.747121 91.391696 
L 96.936296 91.224918 
L 97.063179 91.113816 
L 97.122008 91.062509 
L 97.331569 90.880795 
L 97.44522 90.782926 
L 97.70717 90.559157 
L 97.790771 90.488266 
L 97.967168 90.339515 
L 98.1916 90.151864 
L 98.249809 90.103486 
L 98.455863 89.933189 
L 98.525628 89.875867 
L 98.723991 89.713804 
L 98.949431 89.531262 
L 99.08711 89.420632 
L 99.169661 89.354606 
L 99.305163 89.246726 
L 99.525494 89.072617 
L 99.646655 88.977559 
L 99.902798 88.778184 
L 99.936269 88.752288 
L 100.163076 88.577771 
L 100.266436 88.498788 
L 100.480503 88.336292 
L 100.567176 88.270911 
L 100.743064 88.13896 
L 101.02012 87.933068 
L 101.04325 87.915987 
L 101.226187 87.781468 
L 101.389749 87.662064 
L 101.609469 87.50294 
L 101.705372 87.433941 
L 101.83571 87.340609 
L 102.01006 87.216552 
L 102.189225 87.090004 
L 102.424776 86.925062 
L 102.53243 86.850217 
L 102.631917 86.781348 
L 102.869789 86.617836 
L 103.025635 86.511585 
L 103.18689 86.402371 
L 103.274647 86.343245 
L 103.392741 86.264019 
L 103.545763 86.161941 
L 103.734558 86.036896 
L 103.855844 85.957083 
L 104.017631 85.851248 
L 104.250492 85.700173 
L 104.41654 85.593341 
L 104.607297 85.471527 
L 104.634015 85.454543 
L 104.836587 85.326393 
L 104.936231 85.263756 
L 105.137121 85.138271 
L 105.280181 85.049555 
L 105.431438 84.956336 
L 105.625845 84.837394 
L 105.860396 84.695188 
L 105.984534 84.620495 
L 106.080795 84.562845 
L 106.340259 84.408622 
L 106.410769 84.367005 
L 106.646584 84.228726 
L 106.800576 84.139175 
L 106.892308 84.086109 
L 106.892308 138.046154 
z
" style="fill:#808080;opacity:0.5;"/>
   </g>
   <g id="patch_6">
    <path clip-path="url(#p7d2b217018)" d="M 75.738462 138.046154 
L 75.738462 138.046154 
L 75.744935 138.944288 
L 75.751408 139.316274 
L 75.757882 139.601687 
L 75.764355 139.842282 
L 75.770829 140.054234 
L 75.777302 140.245839 
L 75.783775 140.422023 
L 75.790249 140.585999 
L 75.796722 140.739997 
L 75.803196 140.88564 
L 75.809669 141.024154 
L 75.816143 141.156493 
L 75.822616 141.283413 
L 75.829089 141.405529 
L 75.835563 141.523348 
L 75.842036 141.637291 
L 75.84851 141.747717 
L 75.854983 141.854932 
L 75.86793 142.060749 
L 75.880877 142.256478 
L 75.893823 142.443466 
L 75.90677 142.622783 
L 75.919717 142.795299 
L 75.932664 142.961731 
L 75.945611 143.122676 
L 75.960887 143.30621 
L 75.976164 143.483511 
L 75.99144 143.655168 
L 76.006717 143.821685 
L 76.023974 144.004148 
L 76.041231 144.181138 
L 76.058488 144.353116 
L 76.075745 144.520482 
L 76.093002 144.683583 
L 76.110259 144.842728 
L 76.127516 144.998188 
L 76.144773 145.150205 
L 76.179287 145.444754 
L 76.213801 145.727862 
L 76.248315 146.000751 
L 76.282829 146.264439 
L 76.321439 146.549574 
L 76.346392 146.728776 
L 76.371345 146.904284 
L 76.396298 147.076313 
L 76.421251 147.245057 
L 76.471156 147.573387 
L 76.521062 147.890521 
L 76.55358 148.091646 
L 76.586099 148.288719 
L 76.618617 148.48197 
L 76.651136 148.671607 
L 76.696911 148.932794 
L 76.742686 149.187671 
L 76.788462 149.436662 
L 76.834237 149.680146 
L 76.904194 150.042375 
L 76.974152 150.393585 
L 77.032681 150.679627 
L 77.09121 150.95907 
L 77.14974 151.232332 
L 77.208269 151.49979 
L 77.282266 151.830146 
L 77.359515 152.166365 
L 77.436764 152.494349 
L 77.536009 152.904514 
L 77.635254 153.303011 
L 77.704882 153.576106 
L 77.779501 153.863204 
L 77.85412 154.144836 
L 77.928739 154.421286 
L 78.003358 154.692811 
L 78.069508 154.929591 
L 78.135658 155.162841 
L 78.188941 155.348252 
L 78.306644 155.750376 
L 78.424347 156.142801 
L 78.510942 156.425683 
L 78.597537 156.703874 
L 78.665876 156.920239 
L 78.80172 157.342411 
L 78.92971 157.731037 
L 79.057701 158.111321 
L 79.192679 158.503842 
L 79.283769 158.764035 
L 79.374859 159.020606 
L 79.541784 159.481806 
L 79.634055 159.731983 
L 79.758868 160.065256 
L 79.883682 160.392862 
L 79.989472 160.666281 
L 80.134269 161.034458 
L 80.258037 161.343837 
L 80.420452 161.742715 
L 80.606745 162.190778 
L 80.736878 162.498055 
L 80.882542 162.836676 
L 81.074055 163.273689 
L 81.189772 163.533412 
L 81.343925 163.874545 
L 81.515493 164.247928 
L 81.678712 164.597237 
L 81.896821 165.05543 
L 82.019515 165.309027 
L 82.189099 165.654811 
L 82.28211 165.842195 
L 82.4675 166.211056 
L 82.661833 166.591304 
L 82.833677 166.922285 
L 82.983025 167.206063 
L 83.158619 167.535254 
L 83.236929 167.680549 
L 83.379178 167.942144 
L 83.506409 168.173629 
L 83.7217 168.560122 
L 83.931646 168.930917 
L 84.007964 169.064254 
L 84.12277 169.263411 
L 84.292916 169.555485 
L 84.489801 169.88898 
L 84.653002 170.16188 
L 84.864703 170.511239 
L 85.009138 170.746666 
L 85.184641 171.029618 
L 85.353852 171.299272 
L 85.403721 171.378162 
L 85.654717 171.771306 
L 85.685597 171.819229 
L 85.914293 172.171183 
L 86.111304 172.470272 
L 86.20796 172.615652 
L 86.45728 172.986626 
L 86.603435 173.201454 
L 86.655356 173.277311 
L 86.853065 173.563982 
L 87.003961 173.780494 
L 87.220444 174.087738 
L 87.365776 174.291813 
L 87.511228 174.494334 
L 87.612725 174.634646 
L 87.791221 174.87943 
L 87.999826 175.162371 
L 88.088215 175.281257 
L 88.217456 175.454032 
L 88.425079 175.729007 
L 88.57622 175.927206 
L 88.670735 176.050319 
L 88.880315 176.321065 
L 89.123638 176.631591 
L 89.144015 176.657413 
L 89.355648 176.923951 
L 89.487624 177.088666 
L 89.627194 177.261621 
L 89.886954 177.58019 
L 90.028296 177.751744 
L 90.21596 177.977609 
L 90.301202 178.079491 
L 90.392908 178.188608 
L 90.554779 178.379984 
L 90.770698 178.632849 
L 90.967293 178.860727 
L 91.063961 178.971965 
L 91.161085 179.083196 
L 91.438467 179.397962 
L 91.536604 179.508309 
L 91.784506 179.784726 
L 91.82665 179.83139 
L 91.942415 179.959084 
L 92.218377 180.260646 
L 92.265177 180.311396 
L 92.553374 180.621446 
L 92.680293 180.756658 
L 92.792776 180.87582 
L 92.885355 180.973427 
L 93.153375 181.253641 
L 93.321126 181.42726 
L 93.428424 181.53761 
L 93.553723 181.665784 
L 93.815929 181.931638 
L 93.847884 181.963821 
L 94.043512 182.159826 
L 94.180084 182.295633 
L 94.36618 182.479344 
L 94.498469 182.609005 
L 94.668819 182.77484 
L 94.875744 182.974589 
L 94.970995 183.065919 
L 95.214293 183.297454 
L 95.249387 183.330647 
L 95.451722 183.521014 
L 95.630586 183.68789 
L 95.731368 183.781342 
L 95.953035 183.985439 
L 96.103852 184.123175 
L 96.269404 184.273328 
L 96.382325 184.375129 
L 96.563515 184.537435 
L 96.729242 184.684779 
L 96.83636 184.779454 
L 97.00937 184.931449 
L 97.215277 185.110875 
L 97.28365 185.170105 
L 97.539881 185.390534 
L 97.63015 185.467617 
L 97.830575 185.637705 
L 97.941764 185.731439 
L 98.078847 185.846393 
L 98.305281 186.034815 
L 98.439024 186.145258 
L 98.631581 186.303174 
L 98.77528 186.420186 
L 98.848916 186.479872 
L 99.117544 186.696045 
L 99.220739 186.77844 
L 99.447138 186.957957 
L 99.563954 187.049917 
L 99.637177 187.10733 
L 99.819398 187.249443 
L 99.958415 187.357133 
L 100.105128 187.470106 
L 100.272553 187.598183 
L 100.445112 187.729251 
L 100.592964 187.840803 
L 100.832793 188.02029 
L 100.976719 188.127143 
L 101.064895 188.19229 
L 101.309316 188.371627 
L 101.360778 188.409154 
L 101.521336 188.525716 
L 101.705573 188.658511 
L 101.833772 188.750315 
L 102.063004 188.91325 
L 102.228365 189.029823 
L 102.281494 189.067106 
L 102.540499 189.247687 
L 102.601156 189.289696 
L 102.807024 189.431485 
L 102.991674 189.557628 
L 103.179863 189.685193 
L 103.351588 189.800725 
L 103.443826 189.862439 
L 103.607117 189.971112 
L 103.695676 190.02974 
L 103.931569 190.18485 
L 104.140484 190.320948 
L 104.259394 190.397881 
L 104.321151 190.437686 
L 104.539712 190.577734 
L 104.693623 190.675587 
L 104.887542 190.797979 
L 104.970846 190.85025 
L 105.210438 190.99957 
L 105.255817 191.027682 
L 105.514724 191.187048 
L 105.607518 191.243742 
L 105.743471 191.326406 
L 105.978398 191.46813 
L 106.1866 191.592557 
L 106.265797 191.6396 
L 106.413766 191.727068 
L 106.572878 191.82051 
L 106.710015 191.90054 
L 106.892308 192.006198 
L 106.892308 138.046154 
z
" style="fill:#808080;opacity:0.5;"/>
   </g>
   <g id="patch_7">
    <path clip-path="url(#p7d2b217018)" d="M 231.507692 192.006198 
L 231.257412 192.149926 
L 230.635329 192.500541 
L 229.984272 192.857525 
L 229.452809 193.141516 
L 229.083772 193.33485 
L 228.828511 193.466746 
L 228.235722 193.76733 
L 227.670159 194.046757 
L 227.327934 194.212399 
L 226.819526 194.453745 
L 226.409312 194.644398 
L 225.662009 194.982482 
L 225.284343 195.148858 
L 224.793742 195.36055 
L 224.275602 195.578737 
L 224.181307 195.617854 
L 223.696283 195.816208 
L 223.080051 196.061394 
L 222.536796 196.271279 
L 222.220517 196.390795 
L 221.631573 196.608146 
L 221.200619 196.762937 
L 220.745984 196.922374 
L 220.366996 197.052275 
L 219.659586 197.287498 
L 219.454199 197.354037 
L 219.005749 197.496596 
L 218.253989 197.727252 
L 217.796847 197.862458 
L 217.496407 197.949252 
L 216.760002 198.15511 
L 216.550514 198.211895 
L 216.07101 198.338933 
L 215.377554 198.515458 
L 214.98342 198.61202 
L 214.519736 198.722146 
L 214.358073 198.759663 
L 213.464411 198.958892 
L 213.103556 199.035443 
L 212.818184 199.094404 
L 212.076694 199.241116 
L 211.647981 199.321688 
L 211.378152 199.370808 
L 210.696989 199.489363 
L 210.528472 199.517493 
L 210.074103 199.590976 
L 209.361979 199.699232 
L 209.181129 199.725385 
L 208.463501 199.823836 
L 208.223773 199.854833 
L 207.466738 199.94652 
L 207.244311 199.971674 
L 206.572309 200.04276 
L 206.27914 200.071467 
L 205.633829 200.129729 
L 205.116056 200.171591 
L 204.850194 200.191398 
L 204.277294 200.230196 
L 203.778037 200.259685 
L 203.293797 200.284448 
L 203.045384 200.295685 
L 202.279219 200.324091 
L 201.782798 200.337458 
L 201.501804 200.34327 
L 200.77182 200.352444 
L 200.314773 200.353834 
L 200.22435 200.353712 
L 199.60304 200.349322 
L 199.13811 200.341984 
L 198.82197 200.335012 
L 198.244648 200.318136 
L 197.720312 200.298166 
L 197.30034 200.27898 
L 196.55563 200.237971 
L 196.325969 200.223519 
L 195.798983 200.187137 
L 195.270466 200.146136 
L 195.101685 200.132089 
L 194.256737 200.054813 
L 194.098076 200.039007 
L 193.386184 199.963035 
L 192.943636 199.911631 
L 192.325932 199.834511 
L 192.047121 199.797646 
L 191.378752 199.70405 
L 191.155927 199.671204 
L 190.791856 199.615764 
L 189.974043 199.48318 
L 189.767594 199.447944 
L 189.409191 199.385073 
L 188.887653 199.289724 
L 188.342016 199.185049 
L 187.999623 199.116783 
L 187.340675 198.979773 
L 186.887016 198.881119 
L 186.522522 198.799285 
L 185.876469 198.64858 
L 185.487962 198.554451 
L 184.839051 198.391325 
L 184.469936 198.29522 
L 184.056671 198.184749 
L 183.6235 198.065684 
L 183.200963 197.946297 
L 182.817927 197.835284 
L 182.376281 197.703975 
L 181.875954 197.55091 
L 181.350843 197.385301 
L 180.653462 197.157434 
L 180.346926 197.054388 
L 179.904167 196.902412 
L 179.255645 196.673063 
L 179.09922 196.616534 
L 178.458809 196.380156 
L 177.889339 196.163229 
L 177.297107 195.930826 
L 176.86293 195.755992 
L 176.656351 195.671471 
L 176.205803 195.484125 
L 175.550359 195.204142 
L 175.163439 195.034678 
L 174.807799 194.876146 
L 174.24431 194.619475 
L 173.642052 194.337615 
L 173.320117 194.183717 
L 172.621465 193.841885 
L 172.368559 193.715465 
L 171.714914 193.382038 
L 171.305732 193.168342 
L 170.827682 192.913759 
L 170.518563 192.746286 
L 169.935868 192.424414 
L 169.613386 192.242765 
L 169.267445 192.045082 
L 168.519842 191.607751 
L 167.985714 191.28667 
L 167.79153 191.168128 
L 167.256594 190.836498 
L 166.641247 190.445669 
L 166.151091 190.127053 
L 165.704913 189.831286 
L 165.314391 189.567849 
L 164.885712 189.273686 
L 164.560842 189.047226 
L 164.056152 188.689277 
L 163.451752 188.250576 
L 163.057224 187.958181 
L 162.405277 187.464315 
L 162.219888 187.321398 
L 161.322047 186.613295 
L 160.95637 186.317133 
L 160.437014 185.888552 
L 160.28386 185.760352 
L 159.585568 185.16511 
L 159.156657 184.790567 
L 158.505539 184.20856 
L 158.0297 183.77268 
L 157.68765 183.453689 
L 157.421567 183.202194 
L 157.008396 182.80574 
L 156.555098 182.362271 
L 155.677532 181.477427 
L 155.369297 181.158088 
L 154.943231 180.709072 
L 154.606944 180.348275 
L 154.224468 179.930864 
L 153.430858 179.039833 
L 153.08725 178.643166 
L 152.508043 177.958904 
L 151.951499 177.282124 
L 151.538359 176.766908 
L 151.122401 176.236642 
L 150.799631 175.816887 
L 150.428779 175.32532 
L 150.043893 174.804243 
L 149.659007 174.271584 
L 149.469972 174.005573 
L 149.05713 173.414154 
L 148.534544 172.643964 
L 148.013959 171.851253 
L 147.648814 171.279092 
L 147.28367 170.692822 
L 146.882458 170.031449 
L 146.584118 169.527336 
L 146.172029 168.812681 
L 145.750918 168.058965 
L 145.418284 167.445686 
L 145.085649 166.815494 
L 144.829264 166.317505 
L 144.383525 165.424461 
L 144.147442 164.936463 
L 143.91136 164.437331 
L 143.636665 163.841694 
L 143.36197 163.228978 
L 143.162318 162.772207 
L 142.962666 162.305194 
L 142.763014 161.827336 
L 142.563363 161.337966 
L 142.424642 160.99078 
L 142.143665 160.26829 
L 141.862688 159.517832 
L 141.624063 158.856274 
L 141.385438 158.170154 
L 141.183227 157.567587 
L 140.981016 156.943655 
L 140.819579 156.428741 
L 140.658141 155.897522 
L 140.496704 155.348496 
L 140.335267 154.779911 
L 140.174269 154.191339 
L 140.013271 153.578813 
L 139.916871 153.19939 
L 139.820471 152.80959 
L 139.724071 152.408568 
L 139.627672 151.995356 
L 139.517478 151.506646 
L 139.407285 150.998574 
L 139.297091 150.468764 
L 139.186898 149.914304 
L 139.101685 149.466369 
L 139.016473 148.999469 
L 138.93126 148.511067 
L 138.846047 147.997996 
L 138.760834 147.456223 
L 138.675621 146.880468 
L 138.633015 146.577714 
L 138.590409 146.263593 
L 138.547802 145.936747 
L 138.505196 145.595523 
L 138.447816 145.109574 
L 138.419125 144.853422 
L 138.390435 144.58712 
L 138.361745 144.309375 
L 138.333055 144.01859 
L 138.304365 143.712758 
L 138.275675 143.389296 
L 138.246985 143.044782 
L 138.218295 142.674518 
L 138.189604 142.27174 
L 138.175259 142.055128 
L 138.160914 141.826068 
L 138.146569 141.582144 
L 138.132224 141.320033 
L 138.117879 141.034955 
L 138.103534 140.719573 
L 138.089189 140.361536 
L 138.074844 139.936764 
L 138.060499 139.383094 
L 138.046154 138.046154 
L 138.046154 146.393802 
L 138.555815 146.102741 
L 138.900856 145.909284 
L 139.528175 145.564875 
L 139.861801 145.385504 
L 140.605474 144.995002 
L 140.766426 144.912162 
L 141.265033 144.659267 
L 141.987875 144.302542 
L 142.409453 144.099823 
L 142.90868 143.864776 
L 143.081988 143.784438 
L 143.780196 143.467274 
L 144.147789 143.304436 
L 144.744288 143.046197 
L 145.125458 142.885029 
L 145.381592 142.7784 
L 146.132343 142.473524 
L 146.389178 142.371824 
L 146.831021 142.199936 
L 147.20712 142.056661 
L 147.744195 141.856864 
L 148.246831 141.674947 
L 148.988915 141.415229 
L 149.120491 141.370273 
L 149.856802 141.124721 
L 150.40213 140.949397 
L 150.602157 140.886471 
L 151.275088 140.680183 
L 151.623033 140.576771 
L 152.309517 140.379184 
L 152.620372 140.292507 
L 152.96228 140.199171 
L 153.4593 140.067207 
L 153.822479 139.973548 
L 154.519978 139.800188 
L 154.973326 139.692077 
L 155.491686 139.57284 
L 155.836962 139.495998 
L 156.260549 139.40453 
L 156.680362 139.316913 
L 157.179359 139.216683 
L 157.796022 139.09866 
L 158.371826 138.994257 
L 158.626795 138.949808 
L 159.152994 138.86152 
L 159.871366 138.748448 
L 159.905245 138.743327 
L 160.644574 138.636319 
L 161.265103 138.553475 
L 161.681926 138.501384 
L 161.982326 138.465611 
L 162.542985 138.402796 
L 163.140831 138.341468 
L 163.371792 138.319335 
L 164.109731 138.254428 
L 164.466538 138.226213 
L 164.607156 138.215659 
L 165.417991 138.161042 
L 165.680706 138.145623 
L 166.020636 138.127323 
L 166.908001 138.088324 
L 167.182645 138.078821 
L 167.690995 138.06443 
L 168.286603 138.052849 
L 168.731948 138.047912 
L 168.981971 138.046535 
L 169.620898 138.047575 
L 170.081638 138.052392 
L 170.432928 138.058353 
L 170.722459 138.064757 
L 171.215017 138.078745 
L 171.886835 138.104112 
L 172.556457 138.136624 
L 172.70221 138.144658 
L 173.314814 138.182174 
L 173.657329 138.205791 
L 174.171724 138.244825 
L 174.730347 138.292072 
L 175.219871 138.337641 
L 175.758496 138.392288 
L 176.112091 138.430736 
L 176.35988 138.458898 
L 176.845945 138.517061 
L 177.33169 138.579061 
L 177.791897 138.641385 
L 178.250022 138.706903 
L 179.134095 138.843178 
L 179.190757 138.852356 
L 179.87164 138.966839 
L 180.190748 139.023169 
L 180.899539 139.154424 
L 181.040773 139.181593 
L 181.804131 139.334305 
L 182.289648 139.43661 
L 182.702701 139.526833 
L 183.079928 139.611801 
L 183.824731 139.786811 
L 184.091238 139.851784 
L 184.334726 139.912233 
L 185.102634 140.10972 
L 185.570018 140.235039 
L 185.870338 140.317621 
L 186.188348 140.406832 
L 186.829127 140.592133 
L 187.362499 140.752067 
L 187.796321 140.885995 
L 188.290441 141.042771 
L 188.778791 141.202181 
L 189.321759 141.384673 
L 189.904462 141.586731 
L 189.966373 141.60858 
L 190.689774 141.869334 
L 191.21031 142.06324 
L 191.370387 142.123936 
L 191.874298 142.318299 
L 192.377501 142.517422 
L 192.833307 142.702174 
L 193.379388 142.929063 
L 193.847797 143.128549 
L 194.592648 143.455147 
L 194.768403 143.533909 
L 195.285553 143.769463 
L 196.001678 144.105125 
L 196.418992 144.305876 
L 196.696965 144.441724 
L 197.095017 144.639247 
L 197.683013 144.937545 
L 197.955808 145.078607 
L 198.674439 145.458437 
L 199.198046 145.742805 
L 199.434147 145.873162 
L 200.092211 146.24359 
L 200.318487 146.373403 
L 201.185447 146.882548 
L 201.474185 147.056327 
L 201.928015 147.333797 
L 202.516627 147.701677 
L 202.931735 147.966648 
L 203.560658 148.376989 
L 203.644742 148.432673 
L 204.397063 148.939692 
L 204.809016 149.224144 
L 205.314438 149.579878 
L 205.502854 149.714422 
L 206.278657 150.279684 
L 206.429176 150.391491 
L 207.281597 151.038124 
L 207.328029 151.074014 
L 207.976675 151.582769 
L 208.567194 152.058168 
L 208.996319 152.411157 
L 209.585513 152.906414 
L 209.887083 153.164761 
L 210.381983 153.596036 
L 210.710201 153.887173 
L 211.45134 154.560038 
L 211.624482 154.720395 
L 212.236635 155.297253 
L 212.726634 155.770434 
L 213.079294 156.11748 
L 213.827792 156.872715 
L 214.335853 157.400345 
L 214.443248 157.513479 
L 214.940422 158.044718 
L 215.588634 158.756452 
L 216.075054 159.305365 
L 216.454274 159.742491 
L 216.722194 160.056333 
L 217.231697 160.664999 
L 217.722539 161.266614 
L 218.458163 162.197826 
L 218.868438 162.733442 
L 219.523671 163.61454 
L 219.969189 164.232689 
L 220.176256 164.525508 
L 220.666283 165.233051 
L 221.196436 166.022824 
L 221.51733 166.513847 
L 221.838223 167.01519 
L 222.302921 167.760467 
L 222.715899 168.443079 
L 223.259376 169.372685 
L 223.400497 169.620239 
L 223.896028 170.511041 
L 224.345054 171.349166 
L 224.625724 171.889172 
L 224.906393 172.442445 
L 225.224083 173.085721 
L 225.622481 173.919926 
L 226.020879 174.787537 
L 226.325656 175.475986 
L 226.554285 176.007707 
L 226.782914 176.553499 
L 227.014513 177.121743 
L 227.246112 177.706607 
L 227.463968 178.273119 
L 227.681825 178.856761 
L 227.880983 179.406512 
L 228.08014 179.973032 
L 228.334098 180.722061 
L 228.588055 181.504247 
L 228.767164 182.078138 
L 228.946272 182.672459 
L 229.125381 183.289343 
L 229.304489 183.931335 
L 229.444539 184.452777 
L 229.551037 184.861887 
L 229.657535 185.282849 
L 229.764033 185.716688 
L 229.870531 186.164583 
L 229.977029 186.627912 
L 230.083527 187.108293 
L 230.190025 187.607655 
L 230.296523 188.128323 
L 230.376465 188.534851 
L 230.456407 188.956431 
L 230.53635 189.394799 
L 230.616292 189.852057 
L 230.672024 190.183358 
L 230.727755 190.526136 
L 230.783486 190.881638 
L 230.839218 191.251354 
L 230.880997 191.538911 
L 230.922777 191.836375 
L 230.964557 192.144823 
L 231.006336 192.465544 
L 231.048116 192.800101 
L 231.089896 193.150421 
L 231.131675 193.518928 
L 231.173455 193.90874 
L 231.215235 194.323988 
L 231.257014 194.770344 
L 231.277904 195.007601 
L 231.298794 195.255974 
L 231.319684 195.517174 
L 231.340574 195.793405 
L 231.361463 196.087586 
L 231.382353 196.403725 
L 231.403243 196.747593 
L 231.424133 197.128045 
L 231.445023 197.559986 
L 231.465913 198.072477 
L 231.486802 198.74054 
L 231.507692 200.353846 
z
" style="fill:#808080;opacity:0.5;"/>
   </g>
   <g id="matplotlib.axis_1"/>
   <g id="matplotlib.axis_2"/>
   <g id="line2d_1">
    <path clip-path="url(#p7d2b217018)" d="M 106.892308 84.086109 
L 110.213916 82.300167 
L 113.801225 80.649011 
L 117.259538 79.308048 
L 120.902345 78.143413 
L 124.155968 77.306453 
L 127.887761 76.57213 
L 131.6553 76.067081 
L 135.51498 75.789896 
L 139.15148 75.748266 
L 143.176951 75.950072 
L 146.606579 76.32932 
L 150.561286 77.008297 
L 154.451265 77.936913 
L 157.569706 78.876234 
L 161.250593 80.220532 
L 164.935796 81.839431 
L 168.439113 83.653907 
L 171.609637 85.551001 
L 175.062282 87.925751 
L 177.990041 90.226342 
L 180.594415 92.528092 
L 183.251585 95.165884 
L 185.30835 97.44402 
L 187.760329 100.486211 
L 189.879735 103.46974 
L 191.898999 106.707367 
L 193.839548 110.309073 
L 195.482012 113.893084 
L 196.928255 117.671005 
L 198.123435 121.524386 
L 199.037258 125.305128 
L 199.692435 128.991619 
L 200.108966 132.527469 
L 200.318863 135.958528 
L 200.353846 138.046154 
L 200.353846 138.046154 
" style="fill:none;stroke:#0000ff;stroke-linecap:square;"/>
   </g>
   <g id="line2d_2">
    <path clip-path="url(#p7d2b217018)" d="M 75.738462 138.046154 
L 75.875859 133.910579 
L 76.236026 130.187615 
L 76.80843 126.548778 
L 77.571033 123.045876 
L 78.538468 119.577698 
L 79.743707 116.067226 
L 81.06387 112.841632 
L 82.734395 109.360655 
L 84.429433 106.30508 
L 86.457455 103.105424 
L 88.65361 100.064249 
L 91.039503 97.148436 
L 93.672273 94.305929 
L 96.329822 91.764449 
L 99.305163 89.246726 
L 102.189225 87.090004 
L 105.280181 85.049555 
L 106.892308 84.086109 
L 106.892308 84.086109 
" style="fill:none;stroke:#0000ff;stroke-linecap:square;"/>
   </g>
   <g id="line2d_3">
    <path clip-path="url(#p7d2b217018)" d="M 75.738462 138.046154 
L 75.86793 142.060749 
L 76.213801 145.727862 
L 76.788462 149.436662 
L 77.536009 152.904514 
L 78.510942 156.425683 
L 79.758868 160.065256 
L 81.189772 163.533412 
L 82.833677 166.922285 
L 84.653002 170.16188 
L 86.655356 173.277311 
L 88.880315 176.321065 
L 91.161085 179.083196 
L 93.815929 181.931638 
L 96.382325 184.375129 
L 99.220739 186.77844 
L 102.281494 189.067106 
L 105.514724 191.187048 
L 106.892308 192.006198 
L 106.892308 192.006198 
" style="fill:none;stroke:#0000ff;stroke-linecap:square;"/>
   </g>
   <g id="line2d_4">
    <path clip-path="url(#p7d2b217018)" d="M 138.046154 146.393802 
L 141.265033 144.659267 
L 144.744288 143.046197 
L 148.246831 141.674947 
L 151.623033 140.576771 
L 155.491686 139.57284 
L 159.152994 138.86152 
L 163.140831 138.341468 
L 166.908001 138.088324 
L 170.722459 138.064757 
L 174.171724 138.244825 
L 177.791897 138.641385 
L 181.040773 139.181593 
L 184.334726 139.912233 
L 188.290441 141.042771 
L 191.874298 142.318299 
L 195.285553 143.769463 
L 198.674439 145.458437 
L 201.928015 147.333797 
L 205.314438 149.579878 
L 207.976675 151.582769 
L 210.710201 153.887173 
L 213.079294 156.11748 
L 215.588634 158.756452 
L 217.722539 161.266614 
L 220.176256 164.525508 
L 222.302921 167.760467 
L 224.345054 171.349166 
L 226.020879 174.787537 
L 227.463968 178.273119 
L 228.767164 182.078138 
L 229.764033 185.716688 
L 230.53635 189.394799 
L 231.089896 193.150421 
L 231.403243 196.747593 
L 231.507692 200.353846 
L 231.507692 200.353846 
" style="fill:none;stroke:#228b22;stroke-linecap:square;"/>
   </g>
   <g id="line2d_5">
    <path clip-path="url(#p7d2b217018)" d="M 200.353846 254.313891 
L 203.55476 252.334602 
L 206.586414 250.198651 
L 209.541652 247.838577 
L 212.339163 245.312284 
L 214.876136 242.732368 
L 217.284694 239.978469 
L 219.519935 237.098269 
L 221.677325 233.945198 
L 223.595481 230.741018 
L 225.33301 227.397027 
L 226.889045 223.89578 
L 228.210528 220.354 
L 229.258316 216.94442 
L 230.177078 213.161833 
L 230.839256 209.456078 
L 231.274084 205.744262 
L 231.487141 201.954015 
L 231.507692 200.353846 
L 231.507692 200.353846 
" style="fill:none;stroke:#228b22;stroke-linecap:square;"/>
   </g>
   <g id="text_1">
    <!-- $\Omega$ -->
    <g transform="translate(16.011538 22.420913)scale(0.1 -0.1)">
     <defs>
      <path d="M 7.71875 0 
L 4.390625 16.609375 
L 7.328125 16.609375 
Q 7.859375 13.71875 8.296875 11.5 
Q 8.734375 9.28125 9.4375 8.375 
Q 10.15625 7.46875 11.71875 7.171875 
Q 13.28125 6.890625 16.890625 6.890625 
L 23 6.890625 
Q 21.53125 12.546875 15.6875 21.65625 
Q 9.859375 30.765625 7.734375 34.890625 
Q 5.609375 39.015625 5.609375 45.515625 
Q 5.609375 53.078125 10.09375 58.765625 
Q 14.59375 64.453125 21.703125 67.484375 
Q 28.8125 70.515625 36.078125 70.515625 
Q 43.3125 70.515625 50.40625 67.484375 
Q 57.515625 64.453125 62 58.71875 
Q 66.5 52.984375 66.5 45.515625 
Q 66.5 40.4375 64.640625 35.9375 
Q 62.796875 31.453125 59.90625 26.953125 
Q 57.03125 22.46875 53.6875 16.9375 
Q 50.34375 11.421875 49.125 6.890625 
L 55.171875 6.890625 
Q 58.84375 6.890625 60.453125 7.171875 
Q 62.0625 7.46875 62.734375 8.375 
Q 63.421875 9.28125 63.84375 11.5 
Q 64.265625 13.71875 64.796875 16.609375 
L 67.671875 16.609375 
L 64.40625 0 
L 46.6875 0 
Q 45.703125 0 45.703125 1.3125 
Q 45.703125 6.390625 46.9375 11.265625 
Q 48.1875 16.15625 50.625 23.09375 
Q 53.078125 30.03125 54.4375 35.328125 
Q 55.8125 40.625 55.8125 45.515625 
Q 55.8125 51.515625 53.46875 56.640625 
Q 51.125 61.765625 46.625 64.84375 
Q 42.140625 67.921875 36.078125 67.921875 
Q 26.953125 67.921875 21.625 61.40625 
Q 16.3125 54.890625 16.3125 45.515625 
Q 16.359375 40.375 17.53125 35.828125 
Q 18.703125 31.296875 21.3125 23.71875 
Q 23.921875 16.15625 25.171875 11.265625 
Q 26.421875 6.390625 26.421875 1.3125 
Q 26.421875 0 25.390625 0 
z
" id="Cmr10-173"/>
     </defs>
     <use transform="translate(0 0.484375)" xlink:href="#Cmr10-173"/>
    </g>
   </g>
   <g id="text_2">
    <!-- $A$ -->
    <g style="fill:#0000ff;" transform="translate(103.142308 78.497837)scale(0.1 -0.1)">
     <defs>
      <path d="M 4.5 0 
Q 3.515625 0 3.515625 1.3125 
Q 3.90625 3.515625 4.78125 3.515625 
Q 8.84375 3.515625 11.796875 5.125 
Q 14.75 6.734375 16.890625 10.109375 
Q 17.09375 10.296875 17.09375 10.296875 
L 52.78125 70.515625 
Q 53.5625 71.578125 54.6875 71.578125 
L 56 71.578125 
Q 56.296875 71.578125 56.59375 71.453125 
Q 56.890625 71.34375 57.109375 71.0625 
Q 57.328125 70.796875 57.328125 70.515625 
L 63.375 5.90625 
Q 63.375 5.46875 63.8125 4.59375 
Q 64.796875 3.515625 71.296875 3.515625 
Q 72.3125 3.515625 72.3125 2.203125 
Q 71.96875 0.875 71.75 0.4375 
Q 71.53125 0 70.609375 0 
L 45.609375 0 
Q 44.671875 0 44.671875 1.3125 
Q 45.21875 3.515625 46 3.515625 
Q 53.90625 3.515625 54.390625 6.203125 
L 52.875 22.703125 
L 28.21875 22.703125 
L 20.21875 9.28125 
Q 19.484375 8.203125 19.484375 6.78125 
Q 19.484375 5.03125 21.171875 4.265625 
Q 22.859375 3.515625 24.90625 3.515625 
Q 25.875 3.515625 25.875 2.203125 
Q 25.53125 0.78125 25.328125 0.390625 
Q 25.140625 0 24.21875 0 
z
M 30.171875 26.21875 
L 52.484375 26.21875 
L 49.515625 58.59375 
z
" id="Cmmi10-65"/>
     </defs>
     <use transform="translate(0 0.421875)" xlink:href="#Cmmi10-65"/>
    </g>
   </g>
   <g id="text_3">
    <!-- $B$ -->
    <g style="fill:#ff0000;" transform="translate(227.707692 78.497837)scale(0.1 -0.1)">
     <defs>
      <path d="M 4.984375 0 
Q 4 0 4 1.3125 
Q 4.046875 1.5625 4.1875 2.140625 
Q 4.34375 2.734375 4.578125 3.125 
Q 4.828125 3.515625 5.328125 3.515625 
Q 8.15625 3.515625 10.25 3.65625 
Q 12.359375 3.8125 13.8125 4.203125 
Q 14.984375 4.640625 15.71875 6.890625 
L 29.390625 61.8125 
Q 29.59375 62.796875 29.59375 63.1875 
Q 29.59375 64.265625 28.421875 64.40625 
Q 26.515625 64.796875 21.1875 64.796875 
Q 20.21875 64.796875 20.21875 66.109375 
Q 20.265625 66.359375 20.40625 66.96875 
Q 20.5625 67.578125 20.828125 67.9375 
Q 21.09375 68.3125 21.484375 68.3125 
L 57.328125 68.3125 
Q 60.59375 68.3125 63.796875 67.5 
Q 67 66.703125 69.703125 64.9375 
Q 72.40625 63.1875 74 60.5625 
Q 75.59375 57.953125 75.59375 54.5 
Q 75.59375 50.734375 73.65625 47.5 
Q 71.734375 44.28125 68.671875 41.890625 
Q 65.625 39.5 62.078125 37.953125 
Q 58.546875 36.421875 54.6875 35.6875 
Q 57.421875 35.6875 60.21875 34.609375 
Q 63.03125 33.546875 65.234375 31.6875 
Q 67.4375 29.828125 68.78125 27.234375 
Q 70.125 24.65625 70.125 21.6875 
Q 70.125 15.671875 65.921875 10.6875 
Q 61.71875 5.71875 55.34375 2.859375 
Q 48.96875 0 43.015625 0 
z
M 23.390625 4.296875 
Q 23.390625 3.515625 26.8125 3.515625 
L 41.109375 3.515625 
Q 46 3.515625 50.484375 6.21875 
Q 54.984375 8.9375 57.6875 13.421875 
Q 60.40625 17.921875 60.40625 22.796875 
Q 60.40625 25.78125 59.15625 28.4375 
Q 57.90625 31.109375 55.5625 32.640625 
Q 53.21875 34.1875 50.203125 34.1875 
L 30.71875 34.1875 
L 23.78125 6.5 
Q 23.390625 5.125 23.390625 4.296875 
z
M 31.390625 36.8125 
L 46.578125 36.8125 
Q 51.375 36.8125 55.890625 39.25 
Q 60.40625 41.703125 63.25 45.890625 
Q 66.109375 50.09375 66.109375 54.78125 
Q 66.109375 59.125 63.390625 61.953125 
Q 60.6875 64.796875 56.390625 64.796875 
L 42.671875 64.796875 
Q 39.984375 64.796875 39.0625 64.296875 
Q 38.140625 63.8125 37.5 61.375 
z
" id="Cmmi10-66"/>
     </defs>
     <use transform="translate(0 0.6875)" xlink:href="#Cmmi10-66"/>
    </g>
   </g>
   <g id="text_4">
    <!-- $C$ -->
    <g style="fill:#228b22;" transform="translate(150.023077 271.651683)scale(0.1 -0.1)">
     <defs>
      <path d="M 14.59375 21.578125 
Q 14.59375 15.578125 16.90625 11.015625 
Q 19.234375 6.453125 23.65625 3.875 
Q 28.078125 1.3125 34.078125 1.3125 
Q 40.375 1.3125 46.203125 4.53125 
Q 52.046875 7.765625 56.171875 13.15625 
Q 60.296875 18.5625 61.8125 24.609375 
Q 62.015625 25.203125 62.59375 25.203125 
L 63.8125 25.203125 
Q 64.203125 25.203125 64.453125 24.921875 
Q 64.703125 24.65625 64.703125 24.3125 
Q 64.703125 24.21875 64.59375 24.03125 
Q 62.890625 17.09375 57.984375 11.015625 
Q 53.078125 4.9375 46.234375 1.359375 
Q 39.40625 -2.203125 32.171875 -2.203125 
Q 24.359375 -2.203125 18.15625 1.3125 
Q 11.96875 4.828125 8.515625 11.078125 
Q 5.078125 17.328125 5.078125 25.203125 
Q 5.078125 33.59375 8.828125 41.8125 
Q 12.59375 50.046875 18.9375 56.46875 
Q 25.296875 62.890625 33.421875 66.703125 
Q 41.546875 70.515625 49.90625 70.515625 
Q 53.21875 70.515625 56.25 69.5 
Q 59.28125 68.5 61.859375 66.453125 
Q 64.453125 64.40625 66.109375 61.71875 
L 74.03125 70.3125 
Q 74.03125 70.515625 74.515625 70.515625 
L 75.09375 70.515625 
Q 75.484375 70.515625 75.734375 70.171875 
Q 75.984375 69.828125 75.984375 69.484375 
L 69.1875 42.484375 
Q 69.1875 41.796875 68.40625 41.796875 
L 66.609375 41.796875 
Q 65.828125 41.796875 65.828125 42.921875 
Q 66.21875 45.125 66.21875 48.1875 
Q 66.21875 53.078125 64.546875 57.390625 
Q 62.890625 61.71875 59.390625 64.359375 
Q 55.90625 67 50.875 67 
Q 42.71875 67 35.9375 62.890625 
Q 29.15625 58.796875 24.4375 52.125 
Q 19.734375 45.453125 17.15625 37.328125 
Q 14.59375 29.203125 14.59375 21.578125 
z
" id="Cmmi10-67"/>
     </defs>
     <use transform="translate(0 0.484375)" xlink:href="#Cmmi10-67"/>
    </g>
   </g>
   <g id="patch_8">
    <path clip-path="url(#p7d2b217018)" d="M 138.046154 200.353846 
C 154.570347 200.353846 170.419977 193.788715 182.104346 182.104346 
C 193.788715 170.419977 200.353846 154.570347 200.353846 138.046154 
C 200.353846 121.521961 193.788715 105.672331 182.104346 93.987962 
C 170.419977 82.303593 154.570347 75.738462 138.046154 75.738462 
C 121.521961 75.738462 105.672331 82.303593 93.987962 93.987962 
C 82.303593 105.672331 75.738462 121.521961 75.738462 138.046154 
C 75.738462 154.570347 82.303593 170.419977 93.987962 182.104346 
C 105.672331 193.788715 121.521961 200.353846 138.046154 200.353846 
z
" style="fill:none;stroke:#0000ff;stroke-linejoin:miter;"/>
   </g>
   <g id="patch_9">
    <path clip-path="url(#p7d2b217018)" d="M 200.353846 200.353846 
C 216.878039 200.353846 232.727669 193.788715 244.412038 182.104346 
C 256.096407 170.419977 262.661538 154.570347 262.661538 138.046154 
C 262.661538 121.521961 256.096407 105.672331 244.412038 93.987962 
C 232.727669 82.303593 216.878039 75.738462 200.353846 75.738462 
C 183.829653 75.738462 167.980023 82.303593 156.295654 93.987962 
C 144.611285 105.672331 138.046154 121.521961 138.046154 138.046154 
C 138.046154 154.570347 144.611285 170.419977 156.295654 182.104346 
C 167.980023 193.788715 183.829653 200.353846 200.353846 200.353846 
z
" style="fill:none;stroke:#ff0000;stroke-linejoin:miter;"/>
   </g>
   <g id="patch_10">
    <path clip-path="url(#p7d2b217018)" d="M 169.2 262.661538 
C 185.724193 262.661538 201.573823 256.096407 213.258192 244.412038 
C 224.942561 232.727669 231.507692 216.878039 231.507692 200.353846 
C 231.507692 183.829653 224.942561 167.980023 213.258192 156.295654 
C 201.573823 144.611285 185.724193 138.046154 169.2 138.046154 
C 152.675807 138.046154 136.826177 144.611285 125.141808 156.295654 
C 113.457439 167.980023 106.892308 183.829653 106.892308 200.353846 
C 106.892308 216.878039 113.457439 232.727669 125.141808 244.412038 
C 136.826177 256.096407 152.675807 262.661538 169.2 262.661538 
z
" style="fill:none;stroke:#228b22;stroke-linejoin:miter;"/>
   </g>
  </g>
 </g>
 <defs>
  <clipPath id="p7d2b217018">
   <rect height="324" width="324" x="7.2" y="7.2"/>
  </clipPath>
 </defs>
</svg>
