<?xml version="1.0" encoding="utf-8" standalone="no"?>
<!DOCTYPE svg PUBLIC "-//W3C//DTD SVG 1.1//EN"
  "http://www.w3.org/Graphics/SVG/1.1/DTD/svg11.dtd">
<svg xmlns:xlink="http://www.w3.org/1999/xlink" width="338.4pt" height="338.4pt" viewBox="0 0 338.4 338.4" xmlns="http://www.w3.org/2000/svg" version="1.1">
 <metadata>
  <rdf:RDF xmlns:dc="http://purl.org/dc/elements/1.1/" xmlns:cc="http://creativecommons.org/ns#" xmlns:rdf="http://www.w3.org/1999/02/22-rdf-syntax-ns#">
   <cc:Work>
    <dc:type rdf:resource="http://purl.org/dc/dcmitype/StillImage"/>
    <dc:date>2024-12-01T17:05:17.237836</dc:date>
    <dc:format>image/svg+xml</dc:format>
    <dc:creator>
     <cc:Agent>
      <dc:title>Matplotlib v3.6.3, https://matplotlib.org/</dc:title>
     </cc:Agent>
    </dc:creator>
   </cc:Work>
  </rdf:RDF>
 </metadata>
 <defs>
  <style type="text/css">*{stroke-linejoin: round; stroke-linecap: butt}</style>
 </defs>
 <g id="figure_1">
  <g id="patch_1">
   <path d="M -0 338.4 
L 338.4 338.4 
L 338.4 0 
L -0 0 
z
" style="fill: #ffffff"/>
  </g>
  <g id="axes_1">
   <g id="patch_2">
    <path d="M 7.2 331.2 
L 331.2 331.2 
L 331.2 7.2 
L 7.2 7.2 
z
" style="fill: #ffffff"/>
   </g>
   <g id="patch_3">
    <path d="M 13.430769 324.969231 
L 13.430769 13.430769 
L 324.969231 13.430769 
L 324.969231 324.969231 
L 13.430769 324.969231 
z
" clip-path="url(#pe5d0e445a3)" style="fill: none; stroke: #000000; stroke-linejoin: miter"/>
   </g>
   <g id="patch_4">
    <path d="M 200.353846 146.393802 
L 200.06206 146.226388 
L 199.531487 145.927295 
L 198.763169 145.50617 
L 198.251472 145.233428 
L 197.809492 145.002735 
L 197.512539 144.850255 
L 197.275124 144.729787 
L 196.770211 144.477805 
L 196.315118 144.255549 
L 195.573098 143.90291 
L 195.182146 143.721906 
L 194.731704 143.517409 
L 194.156133 143.262341 
L 193.660643 143.048302 
L 193.340726 142.912799 
L 192.644016 142.62494 
L 192.336776 142.501118 
L 191.985429 142.36184 
L 191.280609 142.089833 
L 190.90927 141.950455 
L 190.649274 141.854469 
L 189.876127 141.576756 
L 189.699096 141.514781 
L 189.043419 141.290429 
L 188.804809 141.210799 
L 188.107879 140.98432 
L 187.670454 140.846781 
L 186.983258 140.637816 
L 186.879108 140.606899 
L 186.280551 140.433038 
L 185.957038 140.341762 
L 185.282134 140.157389 
L 184.985446 140.078908 
L 184.241307 139.888917 
L 183.704644 139.75794 
L 183.597256 139.732336 
L 183.184389 139.635765 
L 182.478525 139.477502 
L 181.813874 139.336318 
L 181.499695 139.272212 
L 181.244955 139.221469 
L 180.558659 139.09024 
L 179.953696 138.981161 
L 179.508073 138.904744 
L 179.436151 138.892722 
L 178.964702 138.81606 
L 178.513175 138.746109 
L 177.762512 138.637301 
L 177.116349 138.551096 
L 176.90358 138.524214 
L 176.343745 138.457033 
L 175.772169 138.393737 
L 175.289695 138.344459 
L 175.128485 138.328838 
L 174.538826 138.275303 
L 174.117652 138.240521 
L 173.503905 138.194978 
L 173.142397 138.171003 
L 172.629944 138.140632 
L 171.968751 138.107701 
L 171.680361 138.095543 
L 171.100046 138.075131 
L 170.825597 138.067363 
L 170.393163 138.057579 
L 169.61282 138.047521 
L 169.548617 138.047129 
L 168.696521 138.048188 
L 168.329446 138.052236 
L 167.846768 138.060851 
L 167.598079 138.06675 
L 167.084424 138.08208 
L 166.383869 138.109827 
L 166.240669 138.116471 
L 165.551486 138.153068 
L 165.225789 138.173028 
L 164.618363 138.214832 
L 164.330277 138.236744 
L 163.519725 138.305615 
L 163.045489 138.350858 
L 162.919758 138.363467 
L 162.535533 138.403597 
L 161.753152 138.492768 
L 161.363565 138.540912 
L 161.026767 138.584543 
L 160.544296 138.650302 
L 159.90182 138.743844 
L 159.292183 138.83894 
L 158.930472 138.898291 
L 158.760183 138.926989 
L 158.035134 139.054627 
L 157.441152 139.165792 
L 157.360003 139.181442 
L 156.766402 139.299328 
L 156.152515 139.427566 
L 155.909554 139.480103 
L 155.431466 139.586454 
L 154.7966 139.733795 
L 154.285972 139.857398 
L 153.666572 140.013469 
L 153.510173 140.053947 
L 153.101142 140.161859 
L 152.657079 140.282386 
L 151.75481 140.53818 
L 151.60093 140.583274 
L 151.205065 140.701262 
L 150.525607 140.910465 
L 150.153123 141.028767 
L 149.449065 141.259438 
L 149.296939 141.3105 
L 148.894076 141.447836 
L 148.009664 141.760176 
L 147.73853 141.858942 
L 147.180966 142.066535 
L 146.588097 142.29396 
L 146.241373 142.43019 
L 145.667584 142.660918 
L 145.330188 142.799693 
L 144.736519 143.049513 
L 144.545968 143.131235 
L 144.029587 143.356488 
L 143.439139 143.620905 
L 143.049701 143.799356 
L 142.662022 143.980233 
L 141.901177 144.344715 
L 141.431591 144.576037 
L 141.286279 144.648616 
L 140.88446 144.851785 
L 140.45692 145.071988 
L 139.760723 145.439572 
L 139.366186 145.652913 
L 138.779675 145.976899 
L 138.317677 146.237946 
L 138.01901 146.409482 
L 137.386502 146.780066 
L 137.153078 146.919369 
L 136.419864 147.366006 
L 136.000132 147.627977 
L 135.398365 148.011722 
L 134.864862 148.360127 
L 134.552169 148.567976 
L 134.059717 148.900868 
L 133.634383 149.193946 
L 133.257432 149.458067 
L 132.876456 149.729261 
L 132.250693 150.184162 
L 131.844146 150.486134 
L 131.217583 150.961696 
L 130.866323 151.233813 
L 130.350608 151.640673 
L 129.866148 152.031009 
L 129.393314 152.419764 
L 129.184864 152.593639 
L 128.68875 153.013724 
L 128.199961 153.436415 
L 127.663595 153.910595 
L 126.992488 154.51964 
L 126.56616 154.91593 
L 125.954642 155.497548 
L 125.793607 155.653359 
L 125.157486 156.279982 
L 124.613237 156.830644 
L 124.261173 157.194255 
L 123.806036 157.673211 
L 123.372653 158.138887 
L 123.032816 158.510811 
L 122.533796 159.068087 
L 121.974215 159.709366 
L 121.244091 160.573457 
L 120.771479 161.150187 
L 120.702044 161.236117 
L 120.135737 161.948812 
L 119.650816 162.576513 
L 118.994229 163.453587 
L 118.815606 163.697859 
L 118.271009 164.458353 
L 117.907083 164.980337 
L 117.543156 165.51394 
L 117.257031 165.94198 
L 116.909464 166.47246 
L 116.375145 167.311702 
L 116.003004 167.914239 
L 115.630862 168.532533 
L 115.318807 169.063823 
L 114.912594 169.774015 
L 114.563314 170.402534 
L 114.214034 171.048692 
L 114.024116 171.407856 
L 113.61673 172.198055 
L 113.211777 173.012168 
L 112.806824 173.857465 
L 112.508513 174.501886 
L 112.222734 175.137985 
L 111.936954 175.793876 
L 111.706505 176.338298 
L 111.476056 176.897615 
L 111.183819 177.630041 
L 110.891583 178.390763 
L 110.856155 178.48505 
L 110.642731 179.063126 
L 110.429307 179.659543 
L 110.215883 180.275935 
L 110.00246 180.914203 
L 109.793654 181.56197 
L 109.584849 182.235285 
L 109.466244 182.630221 
L 109.347639 183.034973 
L 109.200797 183.550748 
L 109.053955 184.084189 
L 108.907112 184.637096 
L 108.76027 185.211601 
L 108.637471 185.710465 
L 108.514672 186.228002 
L 108.391873 186.766345 
L 108.269074 187.328074 
L 108.153794 187.8795 
L 108.038515 188.457574 
L 107.923236 189.066388 
L 107.865596 189.383912 
L 107.807957 189.711217 
L 107.752935 190.033634 
L 107.697914 190.366757 
L 107.642893 190.711696 
L 107.587871 191.069767 
L 107.544399 191.362999 
L 107.500926 191.66634 
L 107.457453 191.980888 
L 107.41398 192.307959 
L 107.370508 192.649146 
L 107.327035 193.006417 
L 107.283562 193.382243 
L 107.24009 193.779805 
L 107.196617 194.203319 
L 107.153144 194.658569 
L 107.131408 194.900556 
L 107.109671 195.153884 
L 107.087935 195.420298 
L 107.066199 195.702046 
L 107.044462 196.002106 
L 107.022726 196.324566 
L 107.00099 196.675312 
L 106.979253 197.063378 
L 106.957517 197.503968 
L 106.93578 198.026728 
L 106.914044 198.708181 
L 106.892308 200.353846 
L 106.892308 192.006198 
L 107.375849 192.282497 
L 107.62123 192.420528 
L 108.078602 192.673934 
L 108.872382 193.10194 
L 109.459651 193.409141 
L 109.913017 193.640894 
L 110.355076 193.862394 
L 110.747893 194.055559 
L 111.175307 194.261864 
L 111.686507 194.503372 
L 111.985467 194.641994 
L 112.373716 194.819162 
L 113.035885 195.113964 
L 113.627523 195.369613 
L 114.061832 195.552683 
L 114.354037 195.673683 
L 115.1008 195.97507 
L 115.295058 196.051638 
L 115.957708 196.307196 
L 116.331608 196.447584 
L 116.699734 196.583141 
L 117.216687 196.769078 
L 117.517879 196.875045 
L 118.386847 197.171108 
L 118.736836 197.286333 
L 119.143833 197.41745 
L 119.486219 197.525372 
L 120.259598 197.761202 
L 120.44795 197.816981 
L 121.036352 197.987084 
L 121.433062 198.098246 
L 121.948457 198.238451 
L 122.438666 198.367418 
L 122.93346 198.49328 
L 123.133319 198.542896 
L 123.640942 198.665774 
L 124.369117 198.834205 
L 124.877508 198.946361 
L 125.41625 199.060366 
L 125.494545 199.07652 
L 126.022766 199.182777 
L 126.65917 199.304501 
L 126.873684 199.343988 
L 127.540303 199.461751 
L 128.034278 199.54421 
L 128.365299 199.597186 
L 129.155003 199.716211 
L 129.621354 199.781648 
L 129.875794 199.815837 
L 130.544589 199.90062 
L 130.850235 199.936923 
L 131.547703 200.014038 
L 131.958161 200.055708 
L 132.462739 200.103176 
L 132.585724 200.114118 
L 133.25183 200.16912 
L 133.894656 200.215387 
L 134.214467 200.235917 
L 134.700361 200.26395 
L 135.036416 200.281112 
L 135.421213 200.298529 
L 136.23343 200.327472 
L 136.372285 200.331358 
L 136.874607 200.342831 
L 137.575567 200.352069 
L 137.71833 200.352984 
L 138.293568 200.353355 
L 138.713556 200.350272 
L 139.402706 200.339077 
L 139.750964 200.330519 
L 140.194596 200.316795 
L 140.939233 200.286644 
L 141.256777 200.271072 
L 141.760165 200.243056 
L 142.022134 200.226859 
L 142.731457 200.177438 
L 143.022236 200.154826 
L 143.490787 200.115506 
L 144.0406 200.064821 
L 144.325531 200.03662 
L 144.912456 199.974358 
L 145.412647 199.916852 
L 145.806689 199.868663 
L 146.152938 199.824213 
L 146.813244 199.73397 
L 147.057685 199.698735 
L 147.663318 199.60717 
L 148.028181 199.549061 
L 148.628159 199.448676 
L 148.938838 199.394324 
L 149.750934 199.244574 
L 150.112887 199.174236 
L 150.649477 199.065862 
L 151.243723 198.9401 
L 151.695355 198.840461 
L 151.752089 198.827696 
L 152.360729 198.687241 
L 152.799448 198.582001 
L 153.500831 198.406749 
L 153.726528 198.348512 
L 154.390147 198.172042 
L 154.9322 198.022065 
L 155.146155 197.961415 
L 155.814669 197.766572 
L 156.11095 197.677619 
L 156.645693 197.512999 
L 157.126001 197.360637 
L 157.848585 197.123326 
L 158.252662 196.98634 
L 158.404349 196.934119 
L 159.213082 196.648284 
L 159.406001 196.578243 
L 160.187181 196.287234 
L 160.55445 196.146284 
L 160.812206 196.045769 
L 161.42742 195.800504 
L 161.760259 195.664638 
L 162.250836 195.46028 
L 162.994575 195.141029 
L 163.444495 194.942312 
L 163.719626 194.818694 
L 164.257948 194.572169 
L 164.433581 194.490394 
L 165.123801 194.162547 
L 165.817733 193.822385 
L 165.88401 193.789336 
L 166.38439 193.536629 
L 166.902012 193.269229 
L 167.693272 192.848498 
L 168.036504 192.661421 
L 168.597719 192.349472 
L 169.016297 192.111843 
L 169.484196 191.841117 
L 169.829635 191.637747 
L 170.213072 191.40848 
L 170.641175 191.148067 
L 171.324948 190.722243 
L 171.867254 190.375703 
L 172.177502 190.173877 
L 172.498565 189.962239 
L 173.182305 189.501954 
L 173.632193 189.191851 
L 173.863285 189.030285 
L 174.579507 188.519539 
L 174.857102 188.317444 
L 175.547665 187.804422 
L 176.072731 187.404314 
L 176.610281 186.98547 
L 176.86276 186.785456 
L 177.157017 186.549648 
L 177.653687 186.144925 
L 178.065497 185.802836 
L 178.918828 185.074582 
L 179.422831 184.631765 
L 179.51964 184.545599 
L 180.006432 184.106805 
L 180.620571 183.539753 
L 181.025691 183.157216 
L 181.433172 182.765447 
L 182.008049 182.200432 
L 182.60602 181.596892 
L 182.905943 181.287891 
L 183.539367 180.620983 
L 183.793593 180.347695 
L 184.507398 179.562432 
L 184.997344 179.007529 
L 185.374032 178.571707 
L 185.887862 177.963813 
L 186.327193 177.4313 
L 186.723684 176.940197 
L 187.249863 176.272369 
L 187.846926 175.491201 
L 188.18822 175.032932 
L 188.778147 174.219534 
L 189.296846 173.480814 
L 189.695066 172.897817 
L 190.234018 172.085475 
L 190.316207 171.959132 
L 190.743502 171.291274 
L 191.170797 170.604114 
L 191.654033 169.802158 
L 191.706674 169.713125 
L 192.10668 169.025309 
L 192.506685 168.316586 
L 192.697153 167.97134 
L 193.066034 167.287585 
L 193.434915 166.582687 
L 193.661081 166.139364 
L 193.98835 165.481882 
L 194.31562 164.804251 
L 194.598888 164.200251 
L 194.882156 163.578827 
L 194.979344 163.361373 
L 195.240652 162.765335 
L 195.501959 162.151733 
L 195.69898 161.676645 
L 195.896001 161.190131 
L 196.205739 160.400374 
L 196.515477 159.577219 
L 196.703264 159.060244 
L 196.89105 158.528504 
L 197.078837 157.980818 
L 197.266624 157.415833 
L 197.342918 157.180999 
L 197.551602 156.521819 
L 197.760285 155.835787 
L 197.968969 155.119665 
L 198.177652 154.369494 
L 198.309791 153.874691 
L 198.441929 153.362774 
L 198.574068 152.831964 
L 198.706206 152.280148 
L 198.823497 151.770696 
L 198.940788 151.240547 
L 199.064964 150.653822 
L 199.18914 150.037139 
L 199.251228 149.716089 
L 199.313316 149.385613 
L 199.375404 149.044861 
L 199.437492 148.692848 
L 199.515343 148.233761 
L 199.593193 147.752361 
L 199.671044 147.245146 
L 199.748894 146.707582 
L 199.78782 146.425607 
L 199.826745 146.13362 
L 199.86567 145.830493 
L 199.904595 145.514871 
L 199.943521 145.185098 
L 199.982446 144.839111 
L 200.021371 144.474293 
L 200.060296 144.087235 
L 200.09699 143.697901 
L 200.133684 143.279427 
L 200.152031 143.057001 
L 200.170377 142.824161 
L 200.188724 142.579304 
L 200.207071 142.320364 
L 200.225418 142.044606 
L 200.243765 141.748274 
L 200.262112 141.425961 
L 200.271285 141.252638 
L 200.280459 141.069368 
L 200.289632 140.874215 
L 200.298806 140.664527 
L 200.307979 140.436478 
L 200.317152 140.184204 
L 200.326326 139.897827 
L 200.335499 139.558095 
L 200.344673 139.115297 
L 200.353846 138.046154 
z
" clip-path="url(#pe5d0e445a3)" style="fill: #808080; opacity: 0.5"/>
   </g>
   <g id="patch_5">
    <path d="M 231.507692 192.006198 
L 231.053694 192.26578 
L 230.679408 192.476006 
L 230.326227 192.671285 
L 229.48452 193.124755 
L 229.108228 193.322135 
L 228.90065 193.429622 
L 228.147653 193.811311 
L 227.984225 193.892467 
L 227.213253 194.267331 
L 226.958461 194.388349 
L 226.465608 194.618448 
L 226.038249 194.81375 
L 225.183263 195.192882 
L 224.863823 195.330616 
L 224.27864 195.577474 
L 224.100384 195.651279 
L 223.413335 195.929731 
L 223.286832 195.979967 
L 222.63357 196.234318 
L 222.103062 196.434681 
L 221.677001 196.59162 
L 221.093384 196.800899 
L 220.620725 196.965609 
L 220.257511 197.089296 
L 219.676814 197.281882 
L 219.307126 197.401202 
L 218.617007 197.617166 
L 218.254576 197.727075 
L 218.049193 197.788293 
L 217.263224 198.015491 
L 216.739128 198.160803 
L 216.611402 198.195471 
L 215.985876 198.361062 
L 215.351346 198.521963 
L 215.290359 198.537055 
L 214.508409 198.72479 
L 214.15355 198.806476 
L 213.621918 198.924777 
L 213.349295 198.983555 
L 212.629006 199.132723 
L 212.104196 199.235841 
L 211.688369 199.31423 
L 211.348555 199.376121 
L 210.879007 199.458445 
L 210.376711 199.54242 
L 210.090992 199.588306 
L 209.312713 199.70641 
L 209.17398 199.726408 
L 208.492213 199.82006 
L 208.002043 199.882661 
L 207.737363 199.914823 
L 207.225233 199.973794 
L 206.616284 200.038334 
L 206.057684 200.092223 
L 205.740248 200.120587 
L 205.308615 200.15653 
L 204.833935 200.192572 
L 204.492794 200.216224 
L 204.009858 200.246492 
L 203.537729 200.272446 
L 202.971612 200.298831 
L 202.441206 200.318872 
L 201.80109 200.337036 
L 201.301674 200.346637 
L 200.837884 200.351966 
L 200.638234 200.353197 
L 199.840901 200.351735 
L 199.395054 200.346469 
L 198.912177 200.337165 
L 198.812354 200.334775 
L 197.975221 200.308427 
L 197.466895 200.286929 
L 197.252227 200.2766 
L 196.72095 200.247847 
L 196.209433 200.21586 
L 196.037721 200.204175 
L 195.469821 200.162133 
L 194.909189 200.115504 
L 194.347426 200.063663 
L 193.79501 200.007676 
L 193.541619 199.980329 
L 192.9564 199.913159 
L 192.741015 199.887025 
L 192.018903 199.793844 
L 191.353032 199.700301 
L 191.01969 199.650716 
L 190.448827 199.561511 
L 190.154847 199.513454 
L 189.806224 199.454591 
L 189.219895 199.350996 
L 188.976718 199.306332 
L 188.385287 199.193534 
L 187.626915 199.040201 
L 187.177188 198.944628 
L 186.697445 198.838844 
L 186.358985 198.761822 
L 186.033933 198.685981 
L 185.367063 198.52462 
L 185.159454 198.472795 
L 184.546144 198.315259 
L 184.24194 198.234649 
L 183.603212 198.060025 
L 182.963294 197.877728 
L 182.862405 197.848311 
L 182.068921 197.610489 
L 181.585466 197.459927 
L 181.472276 197.424052 
L 180.569242 197.129298 
L 180.516961 197.111766 
L 179.708846 196.834184 
L 179.318557 196.695665 
L 178.981104 196.573536 
L 178.275932 196.311188 
L 177.894756 196.165323 
L 177.413346 195.976992 
L 176.934718 195.785161 
L 176.555121 195.629738 
L 175.902446 195.355643 
L 175.570265 195.212775 
L 175.265814 195.079821 
L 174.589961 194.777721 
L 174.111603 194.558039 
L 173.507565 194.2736 
L 173.111351 194.082704 
L 172.977873 194.017616 
L 172.397356 193.729932 
L 171.938973 193.497425 
L 171.240752 193.13405 
L 170.910845 192.958431 
L 170.325564 192.640575 
L 169.826547 192.363118 
L 169.451694 192.150733 
L 168.907526 191.836278 
L 168.632445 191.674516 
L 168.036784 191.317685 
L 167.683674 191.101864 
L 167.040611 190.700469 
L 166.618838 190.431245 
L 166.457312 190.326872 
L 165.851601 189.929134 
L 165.450117 189.659894 
L 164.711549 189.152662 
L 164.170351 188.770933 
L 163.73155 188.455041 
L 163.254829 188.105234 
L 163.079023 187.974463 
L 162.484933 187.525381 
L 161.773516 186.972697 
L 161.722908 186.932748 
L 161.07408 186.412966 
L 160.777569 186.170646 
L 159.994001 185.515422 
L 159.868487 185.40842 
L 159.284417 184.902855 
L 158.690535 184.375594 
L 158.380363 184.094772 
L 157.860975 183.615929 
L 157.06734 182.862746 
L 156.793356 182.596487 
L 156.134256 181.942354 
L 155.780823 181.583427 
L 155.268866 181.05305 
L 154.881845 180.643637 
L 154.388199 180.110483 
L 154.249169 179.958052 
L 153.562423 179.189941 
L 153.212306 178.788316 
L 152.648563 178.126754 
L 152.278256 177.681822 
L 151.742141 177.022437 
L 151.112839 176.224311 
L 150.65275 175.623402 
L 150.336189 175.200999 
L 149.903693 174.611582 
L 149.500932 174.049343 
L 149.098171 173.473605 
L 148.843349 173.102069 
L 148.358845 172.37935 
L 147.990811 171.815386 
L 147.56797 171.150531 
L 147.266238 170.664468 
L 146.964506 170.168216 
L 146.664437 169.664121 
L 146.154152 168.781177 
L 145.771286 168.095991 
L 145.388421 167.389817 
L 145.029932 166.708203 
L 144.7281 166.117934 
L 144.426267 165.511667 
L 144.274318 165.200069 
L 143.949153 164.51801 
L 143.623988 163.813803 
L 143.402911 163.321428 
L 143.03652 162.479178 
L 142.853325 162.044873 
L 142.670129 161.601139 
L 142.463827 161.089465 
L 142.257525 160.564279 
L 142.035161 159.981959 
L 141.791231 159.322166 
L 141.547302 158.638357 
L 141.369639 158.123798 
L 141.191976 157.594086 
L 141.014313 157.047953 
L 140.836651 156.48394 
L 140.685402 155.988431 
L 140.534154 155.477532 
L 140.32708 154.750522 
L 140.223544 154.373898 
L 140.120007 153.987708 
L 140.01647 153.591236 
L 139.912933 153.183677 
L 139.809397 152.764108 
L 139.70586 152.331471 
L 139.620306 151.963251 
L 139.534752 151.58448 
L 139.409459 151.008798 
L 139.284165 150.405062 
L 139.158872 149.768938 
L 139.096226 149.437047 
L 139.033579 149.094835 
L 138.971977 148.747304 
L 138.910374 148.387735 
L 138.848772 148.014824 
L 138.78717 147.627014 
L 138.725568 147.222417 
L 138.663965 146.798703 
L 138.602363 146.352949 
L 138.540761 145.881394 
L 138.478935 145.377175 
L 138.448022 145.111382 
L 138.417109 144.83505 
L 138.386196 144.546836 
L 138.355283 144.245082 
L 138.32437 143.927704 
L 138.293457 143.592022 
L 138.262544 143.234483 
L 138.231631 142.85021 
L 138.216175 142.645973 
L 138.200719 142.432182 
L 138.185262 142.207364 
L 138.169806 141.969624 
L 138.154349 141.716452 
L 138.138893 141.4444 
L 138.123436 141.148507 
L 138.10798 140.821155 
L 138.092523 140.449524 
L 138.077067 140.008619 
L 138.06161 139.433913 
L 138.046154 138.046154 
L 138.046154 146.393802 
L 138.312613 146.240836 
L 138.806378 145.961969 
L 139.560229 145.547528 
L 139.933698 145.347191 
L 140.186616 145.21337 
L 140.932872 144.827114 
L 141.460683 144.561564 
L 141.984876 144.303998 
L 142.159884 144.219359 
L 142.677543 143.972929 
L 143.137651 143.758771 
L 143.644534 143.528089 
L 144.371603 143.206674 
L 144.410213 143.189915 
L 145.27215 142.823797 
L 145.512991 142.724217 
L 146.251908 142.426015 
L 146.592047 142.292422 
L 146.906468 142.170971 
L 147.431263 141.972594 
L 148.102547 141.726668 
L 148.290085 141.65952 
L 148.751672 141.497119 
L 149.241183 141.329325 
L 149.857264 141.124571 
L 150.281317 140.987762 
L 150.75823 140.837885 
L 151.020994 140.757099 
L 151.67384 140.561855 
L 152.014304 140.463109 
L 152.806857 140.24134 
L 152.914364 140.212125 
L 153.763693 139.98855 
L 154.087816 139.906593 
L 154.519641 139.80027 
L 155.082868 139.666491 
L 155.350773 139.604793 
L 155.715401 139.522817 
L 156.369097 139.381586 
L 156.691699 139.314589 
L 157.08433 139.235444 
L 157.904614 139.078543 
L 158.251149 139.015676 
L 158.888651 138.905294 
L 159.229567 138.849058 
L 159.850616 138.751593 
L 160.29853 138.685278 
L 160.491005 138.657802 
L 161.037054 138.583183 
L 161.730795 138.495464 
L 161.776496 138.489962 
L 162.424712 138.415619 
L 163.135065 138.342032 
L 163.28977 138.327096 
L 163.937467 138.268789 
L 164.469685 138.225973 
L 164.80808 138.201135 
L 165.364489 138.164318 
L 165.829519 138.137382 
L 165.999633 138.1284 
L 166.734765 138.094942 
L 167.204875 138.078105 
L 167.437622 138.071083 
L 168.273992 138.053035 
L 168.48486 138.050258 
L 169.221871 138.046158 
L 169.431521 138.046584 
L 170.167284 138.053663 
L 170.423611 138.05817 
L 171.147881 138.076609 
L 171.570341 138.091257 
L 171.958824 138.107261 
L 172.514116 138.134354 
L 172.996112 138.161901 
L 173.465129 138.192305 
L 173.8994 138.223627 
L 174.202956 138.247333 
L 174.839575 138.301902 
L 175.05864 138.322202 
L 175.55238 138.370818 
L 176.25523 138.446882 
L 176.583357 138.485158 
L 177.065011 138.544542 
L 177.69267 138.627652 
L 177.761171 138.637115 
L 178.664418 138.769162 
L 179.121216 138.8411 
L 179.498144 138.903079 
L 179.906105 138.972841 
L 180.508384 139.08094 
L 180.831688 139.141491 
L 181.124703 139.197898 
L 181.566382 139.285678 
L 182.134376 139.403453 
L 182.785652 139.545306 
L 183.34347 139.672624 
L 183.420009 139.690514 
L 183.962489 139.82024 
L 184.677156 139.999011 
L 184.854983 140.044891 
L 185.322057 140.168069 
L 185.728226 140.278341 
L 186.608375 140.527456 
L 186.986662 140.63883 
L 187.194105 140.701011 
L 187.905954 140.920389 
L 188.168797 141.003755 
L 188.956957 141.261451 
L 189.301416 141.377736 
L 189.871136 141.575001 
L 190.032886 141.632135 
L 190.727601 141.883247 
L 191.043594 142.000561 
L 191.587693 142.207138 
L 192.000973 142.36795 
L 192.441421 142.543078 
L 192.864599 142.715012 
L 193.468868 142.966822 
L 193.98297 143.18696 
L 194.616987 143.466015 
L 194.959421 143.620252 
L 195.141011 143.703052 
L 195.850773 144.03347 
L 196.155666 144.178758 
L 196.611654 144.399849 
L 197.102665 144.643077 
L 197.552499 144.870657 
L 197.977388 145.089839 
L 198.434811 145.330448 
L 199.257963 145.775761 
L 199.430154 145.870947 
L 199.89612 146.132109 
L 200.323668 146.37639 
L 201.191474 146.886154 
L 201.350288 146.981498 
L 201.841251 147.280338 
L 202.430323 147.647166 
L 202.657642 147.791172 
L 203.115745 148.085589 
L 203.886295 148.593732 
L 204.378087 148.926706 
L 204.940267 149.315803 
L 205.025362 149.375498 
L 205.893265 149.996594 
L 206.088228 150.139235 
L 206.658847 150.563452 
L 207.092826 150.89293 
L 207.720512 151.380193 
L 207.934958 151.549629 
L 208.616853 152.098689 
L 209.160242 152.5477 
L 209.36749 152.721701 
L 209.763736 153.058689 
L 210.285398 153.511146 
L 210.767334 153.938275 
L 211.379535 154.493892 
L 211.6958 154.786802 
L 212.296702 155.354704 
L 212.857682 155.898753 
L 213.169045 156.206688 
L 213.707758 156.749856 
L 214.304077 157.366979 
L 214.43977 157.509807 
L 215.058411 158.172634 
L 215.639345 158.813074 
L 215.774875 158.965085 
L 216.437746 159.723269 
L 217.013538 160.402449 
L 217.38539 160.851735 
L 218.028744 161.649811 
L 218.532716 162.294266 
L 219.061385 162.989548 
L 219.425654 163.480656 
L 219.678947 163.828178 
L 220.063766 164.365989 
L 220.448584 164.916138 
L 220.479426 164.960782 
L 220.955327 165.660408 
L 221.438944 166.392968 
L 221.853714 167.039662 
L 222.268485 167.704429 
L 222.395267 167.911403 
L 222.838767 168.650042 
L 223.362329 169.553025 
L 223.768388 170.278281 
L 224.174446 171.027087 
L 224.47296 171.593657 
L 224.768079 172.168086 
L 225.063199 172.757623 
L 225.448236 173.55115 
L 225.864584 174.442972 
L 226.241504 175.283639 
L 226.585009 176.080214 
L 226.928514 176.908864 
L 227.15013 177.462123 
L 227.371745 178.031288 
L 227.630809 178.718479 
L 227.811526 179.21295 
L 227.992244 179.720849 
L 228.172961 180.243193 
L 228.353679 180.78114 
L 228.571462 181.452046 
L 228.789245 182.150263 
L 228.920621 182.586011 
L 229.051997 183.033714 
L 229.206038 183.575171 
L 229.360078 184.136156 
L 229.514119 184.718772 
L 229.66816 185.325534 
L 229.788514 185.818354 
L 229.908867 186.329512 
L 230.029221 186.861093 
L 230.149575 187.415614 
L 230.264322 187.968488 
L 230.379069 188.54834 
L 230.493817 189.159359 
L 230.551191 189.478188 
L 230.608564 189.806962 
L 230.688409 190.282894 
L 230.768254 190.783128 
L 230.848098 191.311696 
L 230.927943 191.873897 
L 230.967866 192.169758 
L 231.007788 192.476926 
L 231.04771 192.79678 
L 231.087633 193.131005 
L 231.127555 193.481697 
L 231.167477 193.851519 
L 231.2074 194.243946 
L 231.247322 194.663651 
L 231.279868 195.030459 
L 231.312415 195.424703 
L 231.328688 195.634242 
L 231.344961 195.853586 
L 231.361234 196.084245 
L 231.377507 196.328165 
L 231.39378 196.58792 
L 231.410054 196.867048 
L 231.426327 197.170642 
L 231.4426 197.506515 
L 231.450736 197.690325 
L 231.458873 197.887824 
L 231.467009 198.102613 
L 231.475146 198.340216 
L 231.483283 198.609935 
L 231.491419 198.929902 
L 231.499556 199.346933 
L 231.507692 200.353846 
z
" clip-path="url(#pe5d0e445a3)" style="fill: #808080; opacity: 0.5"/>
   </g>
   <g id="matplotlib.axis_1"/>
   <g id="matplotlib.axis_2"/>
   <g id="line2d_1">
    <path d="M 106.892308 192.006198 
L 110.355076 193.862394 
L 113.627523 195.369613 
L 117.216687 196.769078 
L 120.44795 197.816981 
L 123.640942 198.665774 
L 127.540303 199.461751 
L 130.850235 199.936923 
L 134.700361 200.26395 
L 138.293568 200.353355 
L 142.022134 200.226859 
L 145.806689 199.868663 
L 148.938838 199.394324 
L 152.799448 198.582001 
L 156.645693 197.512999 
L 160.187181 196.287234 
L 163.719626 194.818694 
L 166.902012 193.269229 
L 170.213072 191.40848 
L 173.182305 189.501954 
L 176.072731 187.404314 
L 178.918828 185.074582 
L 181.433172 182.765447 
L 183.793593 180.347695 
L 186.327193 177.4313 
L 188.778147 174.219534 
L 190.743502 171.291274 
L 192.697153 167.97134 
L 194.31562 164.804251 
L 195.896001 161.190131 
L 197.266624 157.415833 
L 198.309791 153.874691 
L 199.18914 150.037139 
L 199.78782 146.425607 
L 200.188724 142.579304 
L 200.344673 139.115297 
L 200.353846 138.046154 
L 200.353846 138.046154 
" clip-path="url(#pe5d0e445a3)" style="fill: none; stroke: #0000ff; stroke-linecap: square"/>
   </g>
   <g id="line2d_2">
    <path d="M 138.046154 146.393802 
L 141.460683 144.561564 
L 144.410213 143.189915 
L 148.290085 141.65952 
L 152.014304 140.463109 
L 155.715401 139.522817 
L 159.229567 138.849058 
L 163.135065 138.342032 
L 166.734765 138.094942 
L 170.423611 138.05817 
L 174.202956 138.247333 
L 177.761171 138.637115 
L 181.566382 139.285678 
L 185.322057 140.168069 
L 188.956957 141.261451 
L 192.441421 142.543078 
L 195.850773 144.03347 
L 199.257963 145.775761 
L 202.430323 147.647166 
L 205.025362 149.375498 
L 207.934958 151.549629 
L 210.767334 153.938275 
L 213.707758 156.749856 
L 216.437746 159.723269 
L 219.061385 162.989548 
L 220.955327 165.660408 
L 222.838767 168.650042 
L 224.768079 172.168086 
L 226.241504 175.283639 
L 227.630809 178.718479 
L 228.789245 182.150263 
L 229.788514 185.818354 
L 230.551191 189.478188 
L 231.087633 193.131005 
L 231.410054 196.867048 
L 231.507692 200.353846 
L 231.507692 200.353846 
" clip-path="url(#pe5d0e445a3)" style="fill: none; stroke: #228b22; stroke-linecap: square"/>
   </g>
   <g id="line2d_3">
    <path d="M 200.353846 254.313891 
L 203.430826 252.4163 
L 206.550146 250.225833 
L 209.359675 247.992581 
L 212.244352 245.403067 
L 214.887823 242.719768 
L 217.425533 239.806938 
L 219.560154 237.043128 
L 221.626874 234.023884 
L 223.590061 230.750717 
L 225.202861 227.665529 
L 226.799436 224.114181 
L 228.163252 220.492948 
L 229.270949 216.898621 
L 230.13726 213.349955 
L 230.816018 209.612078 
L 231.259867 205.905546 
L 231.483382 202.094194 
L 231.507692 200.353846 
L 231.507692 200.353846 
" clip-path="url(#pe5d0e445a3)" style="fill: none; stroke: #228b22; stroke-linecap: square"/>
   </g>
   <g id="text_1">
    <!-- $\Omega$ -->
    <g transform="translate(16.011538 22.420913) scale(0.1 -0.1)">
     <defs>
      <path id="Cmr10-ad" d="M 494 0 
L 281 1063 
L 469 1063 
Q 503 878 531 736 
Q 559 594 604 536 
Q 650 478 750 459 
Q 850 441 1081 441 
L 1472 441 
Q 1378 803 1004 1386 
Q 631 1969 495 2233 
Q 359 2497 359 2913 
Q 359 3397 646 3761 
Q 934 4125 1389 4319 
Q 1844 4513 2309 4513 
Q 2772 4513 3226 4319 
Q 3681 4125 3968 3758 
Q 4256 3391 4256 2913 
Q 4256 2588 4137 2300 
Q 4019 2013 3834 1725 
Q 3650 1438 3436 1084 
Q 3222 731 3144 441 
L 3531 441 
Q 3766 441 3869 459 
Q 3972 478 4015 536 
Q 4059 594 4086 736 
Q 4113 878 4147 1063 
L 4331 1063 
L 4122 0 
L 2988 0 
Q 2925 0 2925 84 
Q 2925 409 3004 721 
Q 3084 1034 3240 1478 
Q 3397 1922 3484 2261 
Q 3572 2600 3572 2913 
Q 3572 3297 3422 3625 
Q 3272 3953 2984 4150 
Q 2697 4347 2309 4347 
Q 1725 4347 1384 3930 
Q 1044 3513 1044 2913 
Q 1047 2584 1122 2293 
Q 1197 2003 1364 1518 
Q 1531 1034 1611 721 
Q 1691 409 1691 84 
Q 1691 0 1625 0 
L 494 0 
z
" transform="scale(0.015625)"/>
     </defs>
     <use xlink:href="#Cmr10-ad" transform="translate(0 0.484375)"/>
    </g>
   </g>
   <g id="text_2">
    <!-- $A$ -->
    <g style="fill: #0000ff" transform="translate(103.142308 78.497837) scale(0.1 -0.1)">
     <defs>
      <path id="Cmmi10-41" d="M 288 0 
Q 225 0 225 84 
Q 250 225 306 225 
Q 566 225 755 328 
Q 944 431 1081 647 
Q 1094 659 1094 659 
L 3378 4513 
Q 3428 4581 3500 4581 
L 3584 4581 
Q 3603 4581 3622 4573 
Q 3641 4566 3655 4548 
Q 3669 4531 3669 4513 
L 4056 378 
Q 4056 350 4084 294 
Q 4147 225 4563 225 
Q 4628 225 4628 141 
Q 4606 56 4592 28 
Q 4578 0 4519 0 
L 2919 0 
Q 2859 0 2859 84 
Q 2894 225 2944 225 
Q 3450 225 3481 397 
L 3384 1453 
L 1806 1453 
L 1294 594 
Q 1247 525 1247 434 
Q 1247 322 1355 273 
Q 1463 225 1594 225 
Q 1656 225 1656 141 
Q 1634 50 1621 25 
Q 1609 0 1550 0 
L 288 0 
z
M 1931 1678 
L 3359 1678 
L 3169 3750 
L 1931 1678 
z
" transform="scale(0.015625)"/>
     </defs>
     <use xlink:href="#Cmmi10-41" transform="translate(0 0.421875)"/>
    </g>
   </g>
   <g id="text_3">
    <!-- $B$ -->
    <g style="fill: #ff0000" transform="translate(227.707692 78.497837) scale(0.1 -0.1)">
     <defs>
      <path id="Cmmi10-42" d="M 319 0 
Q 256 0 256 84 
Q 259 100 268 137 
Q 278 175 293 200 
Q 309 225 341 225 
Q 522 225 656 234 
Q 791 244 884 269 
Q 959 297 1006 441 
L 1881 3956 
Q 1894 4019 1894 4044 
Q 1894 4113 1819 4122 
Q 1697 4147 1356 4147 
Q 1294 4147 1294 4231 
Q 1297 4247 1306 4286 
Q 1316 4325 1333 4348 
Q 1350 4372 1375 4372 
L 3669 4372 
Q 3878 4372 4083 4320 
Q 4288 4269 4461 4156 
Q 4634 4044 4736 3876 
Q 4838 3709 4838 3488 
Q 4838 3247 4714 3040 
Q 4591 2834 4395 2681 
Q 4200 2528 3973 2429 
Q 3747 2331 3500 2284 
Q 3675 2284 3854 2215 
Q 4034 2147 4175 2028 
Q 4316 1909 4402 1743 
Q 4488 1578 4488 1388 
Q 4488 1003 4219 684 
Q 3950 366 3542 183 
Q 3134 0 2753 0 
L 319 0 
z
M 1497 275 
Q 1497 225 1716 225 
L 2631 225 
Q 2944 225 3231 398 
Q 3519 572 3692 859 
Q 3866 1147 3866 1459 
Q 3866 1650 3786 1820 
Q 3706 1991 3556 2089 
Q 3406 2188 3213 2188 
L 1966 2188 
L 1522 416 
Q 1497 328 1497 275 
z
M 2009 2356 
L 2981 2356 
Q 3288 2356 3577 2512 
Q 3866 2669 4048 2937 
Q 4231 3206 4231 3506 
Q 4231 3784 4057 3965 
Q 3884 4147 3609 4147 
L 2731 4147 
Q 2559 4147 2500 4115 
Q 2441 4084 2400 3928 
L 2009 2356 
z
" transform="scale(0.015625)"/>
     </defs>
     <use xlink:href="#Cmmi10-42" transform="translate(0 0.6875)"/>
    </g>
   </g>
   <g id="text_4">
    <!-- $C$ -->
    <g style="fill: #228b22" transform="translate(150.023077 271.651683) scale(0.1 -0.1)">
     <defs>
      <path id="Cmmi10-43" d="M 934 1381 
Q 934 997 1082 705 
Q 1231 413 1514 248 
Q 1797 84 2181 84 
Q 2584 84 2957 290 
Q 3331 497 3595 842 
Q 3859 1188 3956 1575 
Q 3969 1613 4006 1613 
L 4084 1613 
Q 4109 1613 4125 1595 
Q 4141 1578 4141 1556 
Q 4141 1550 4134 1538 
Q 4025 1094 3711 705 
Q 3397 316 2959 87 
Q 2522 -141 2059 -141 
Q 1559 -141 1162 84 
Q 766 309 545 709 
Q 325 1109 325 1613 
Q 325 2150 565 2676 
Q 806 3203 1212 3614 
Q 1619 4025 2139 4269 
Q 2659 4513 3194 4513 
Q 3406 4513 3600 4448 
Q 3794 4384 3959 4253 
Q 4125 4122 4231 3950 
L 4738 4500 
Q 4738 4513 4769 4513 
L 4806 4513 
Q 4831 4513 4847 4491 
Q 4863 4469 4863 4447 
L 4428 2719 
Q 4428 2675 4378 2675 
L 4263 2675 
Q 4213 2675 4213 2747 
Q 4238 2888 4238 3084 
Q 4238 3397 4131 3673 
Q 4025 3950 3801 4119 
Q 3578 4288 3256 4288 
Q 2734 4288 2300 4025 
Q 1866 3763 1564 3336 
Q 1263 2909 1098 2389 
Q 934 1869 934 1381 
z
" transform="scale(0.015625)"/>
     </defs>
     <use xlink:href="#Cmmi10-43" transform="translate(0 0.484375)"/>
    </g>
   </g>
   <g id="patch_6">
    <path d="M 138.046154 200.353846 
C 154.570347 200.353846 170.419977 193.788715 182.104346 182.104346 
C 193.788715 170.419977 200.353846 154.570347 200.353846 138.046154 
C 200.353846 121.521961 193.788715 105.672331 182.104346 93.987962 
C 170.419977 82.303593 154.570347 75.738462 138.046154 75.738462 
C 121.521961 75.738462 105.672331 82.303593 93.987962 93.987962 
C 82.303593 105.672331 75.738462 121.521961 75.738462 138.046154 
C 75.738462 154.570347 82.303593 170.419977 93.987962 182.104346 
C 105.672331 193.788715 121.521961 200.353846 138.046154 200.353846 
L 138.046154 200.353846 
z
" clip-path="url(#pe5d0e445a3)" style="fill: none; stroke: #0000ff; stroke-linejoin: miter"/>
   </g>
   <g id="patch_7">
    <path d="M 200.353846 200.353846 
C 216.878039 200.353846 232.727669 193.788715 244.412038 182.104346 
C 256.096407 170.419977 262.661538 154.570347 262.661538 138.046154 
C 262.661538 121.521961 256.096407 105.672331 244.412038 93.987962 
C 232.727669 82.303593 216.878039 75.738462 200.353846 75.738462 
C 183.829653 75.738462 167.980023 82.303593 156.295654 93.987962 
C 144.611285 105.672331 138.046154 121.521961 138.046154 138.046154 
C 138.046154 154.570347 144.611285 170.419977 156.295654 182.104346 
C 167.980023 193.788715 183.829653 200.353846 200.353846 200.353846 
L 200.353846 200.353846 
z
" clip-path="url(#pe5d0e445a3)" style="fill: none; stroke: #ff0000; stroke-linejoin: miter"/>
   </g>
   <g id="patch_8">
    <path d="M 169.2 262.661538 
C 185.724193 262.661538 201.573823 256.096407 213.258192 244.412038 
C 224.942561 232.727669 231.507692 216.878039 231.507692 200.353846 
C 231.507692 183.829653 224.942561 167.980023 213.258192 156.295654 
C 201.573823 144.611285 185.724193 138.046154 169.2 138.046154 
C 152.675807 138.046154 136.826177 144.611285 125.141808 156.295654 
C 113.457439 167.980023 106.892308 183.829653 106.892308 200.353846 
C 106.892308 216.878039 113.457439 232.727669 125.141808 244.412038 
C 136.826177 256.096407 152.675807 262.661538 169.2 262.661538 
L 169.2 262.661538 
z
" clip-path="url(#pe5d0e445a3)" style="fill: none; stroke: #228b22; stroke-linejoin: miter"/>
   </g>
  </g>
 </g>
 <defs>
  <clipPath id="pe5d0e445a3">
   <rect x="7.2" y="7.2" width="324" height="324"/>
  </clipPath>
 </defs>
</svg>
