<?xml version="1.0" encoding="utf-8" standalone="no"?>
<!DOCTYPE svg PUBLIC "-//W3C//DTD SVG 1.1//EN"
  "http://www.w3.org/Graphics/SVG/1.1/DTD/svg11.dtd">
<!-- Created with matplotlib (https://matplotlib.org/) -->
<svg height="338.4pt" version="1.1" viewBox="0 0 338.4 338.4" width="338.4pt" xmlns="http://www.w3.org/2000/svg" xmlns:xlink="http://www.w3.org/1999/xlink">
 <metadata>
  <rdf:RDF xmlns:cc="http://creativecommons.org/ns#" xmlns:dc="http://purl.org/dc/elements/1.1/" xmlns:rdf="http://www.w3.org/1999/02/22-rdf-syntax-ns#">
   <cc:Work>
    <dc:type rdf:resource="http://purl.org/dc/dcmitype/StillImage"/>
    <dc:date>2024-11-18T20:48:02.811080</dc:date>
    <dc:format>image/svg+xml</dc:format>
    <dc:creator>
     <cc:Agent>
      <dc:title>Matplotlib v3.3.4, https://matplotlib.org/</dc:title>
     </cc:Agent>
    </dc:creator>
   </cc:Work>
  </rdf:RDF>
 </metadata>
 <defs>
  <style type="text/css">*{stroke-linecap:butt;stroke-linejoin:round;}</style>
 </defs>
 <g id="figure_1">
  <g id="patch_1">
   <path d="M -0 338.4 
L 338.4 338.4 
L 338.4 0 
L -0 0 
z
" style="fill:#ffffff;"/>
  </g>
  <g id="axes_1">
   <g id="patch_2">
    <path d="M 7.2 331.2 
L 331.2 331.2 
L 331.2 7.2 
L 7.2 7.2 
z
" style="fill:#ffffff;"/>
   </g>
   <g id="patch_3">
    <path clip-path="url(#p2aed93f0d6)" d="M 13.430769 324.969231 
L 13.430769 13.430769 
L 324.969231 13.430769 
L 324.969231 324.969231 
z
" style="fill:none;stroke:#000000;stroke-linejoin:miter;"/>
   </g>
   <g id="patch_4">
    <path clip-path="url(#p2aed93f0d6)" d="M 200.353846 146.393802 
L 200.050651 146.219884 
L 199.262769 145.778408 
L 199.088946 145.683018 
L 198.706804 145.475827 
L 198.078864 145.142799 
L 197.549225 144.868984 
L 197.235911 144.710013 
L 196.790768 144.487953 
L 196.271535 144.234504 
L 195.455827 143.848271 
L 194.973236 143.626526 
L 194.840071 143.566213 
L 194.303819 143.327126 
L 193.741279 143.082788 
L 193.458676 142.962513 
L 192.725504 142.658099 
L 192.506897 142.569445 
L 191.761499 142.274355 
L 191.46812 142.16124 
L 190.987546 141.979611 
L 190.27417 141.718295 
L 189.788225 141.545909 
L 189.359467 141.397554 
L 189.211805 141.347269 
L 188.806351 141.21131 
L 188.373198 141.069472 
L 187.798308 140.886616 
L 187.285206 140.728567 
L 186.781016 140.577961 
L 186.319702 140.444211 
L 185.593755 140.241507 
L 185.127373 140.116256 
L 184.757481 140.019666 
L 184.584374 139.975294 
L 184.117346 139.858216 
L 183.679318 139.751884 
L 182.801542 139.548858 
L 182.283814 139.435357 
L 182.226478 139.423071 
L 181.694879 139.31184 
L 181.087403 139.190637 
L 180.784481 139.13254 
L 180.363268 139.054336 
L 179.784516 138.951757 
L 179.098921 138.837508 
L 178.904702 138.806569 
L 178.240589 138.705519 
L 177.817245 138.64492 
L 177.354761 138.582102 
L 177.023364 138.539256 
L 176.438511 138.468044 
L 176.017006 138.420197 
L 175.551341 138.370711 
L 174.994393 138.316168 
L 174.312617 138.256264 
L 174.202466 138.247294 
L 173.753887 138.212792 
L 173.116539 138.169369 
L 172.414357 138.129121 
L 172.397766 138.128266 
L 171.706502 138.09659 
L 171.465789 138.087365 
L 170.984143 138.071703 
L 170.220033 138.054504 
L 170.056878 138.052046 
L 169.12276 138.046202 
L 168.830679 138.047248 
L 168.423304 138.050995 
L 168.146467 138.055061 
L 167.68803 138.064501 
L 166.926351 138.087651 
L 166.314046 138.113025 
L 166.115441 138.122552 
L 165.824181 138.137672 
L 165.239765 138.172136 
L 164.574645 138.218071 
L 164.135008 138.252362 
L 163.58271 138.299881 
L 163.197195 138.335987 
L 162.673966 138.388861 
L 162.338217 138.425142 
L 161.622433 138.508644 
L 161.492167 138.524744 
L 161.069628 138.578887 
L 160.514036 138.654555 
L 160.025631 138.725286 
L 159.433791 138.816299 
L 159.084453 138.872758 
L 158.518681 138.968523 
L 158.259517 139.014182 
L 157.429832 139.167968 
L 157.234508 139.205866 
L 156.795164 139.293478 
L 156.391056 139.37697 
L 155.86272 139.490347 
L 155.354238 139.604003 
L 154.603713 139.77995 
L 154.230465 139.871109 
L 153.939459 139.943877 
L 153.543087 140.045392 
L 153.044076 140.177151 
L 152.619438 140.292765 
L 151.787502 140.528656 
L 151.474178 140.620742 
L 151.228405 140.694226 
L 150.676779 140.863185 
L 150.17552 141.021581 
L 149.403626 141.274644 
L 149.14573 141.361687 
L 148.464169 141.597793 
L 148.275004 141.664894 
L 147.767574 141.848294 
L 147.285178 142.027273 
L 146.979833 142.142913 
L 146.181685 142.453884 
L 146.056137 142.503953 
L 145.312648 142.80697 
L 145.036111 142.92254 
L 144.692757 143.068215 
L 143.838817 143.441116 
L 143.531807 143.578919 
L 142.834847 143.899198 
L 142.664215 143.979201 
L 142.275124 144.163993 
L 141.551889 144.51631 
L 141.071382 144.75682 
L 140.730805 144.930444 
L 140.28006 145.164304 
L 139.609688 145.520809 
L 139.11202 145.792303 
L 138.850532 145.93732 
L 138.523499 146.121007 
L 137.672089 146.611504 
L 137.556949 146.679217 
L 137.114664 146.942427 
L 136.253382 147.46936 
L 136.049137 147.597152 
L 135.467126 147.967381 
L 135.11487 148.19589 
L 134.676179 148.485221 
L 134.058648 148.901597 
L 133.890149 149.017086 
L 133.21366 149.489007 
L 132.673064 149.875817 
L 132.365322 150.09994 
L 131.745576 150.560125 
L 131.45475 150.780218 
L 131.052159 151.089348 
L 130.182816 151.774963 
L 129.687342 152.177105 
L 129.496813 152.334002 
L 129.148537 152.624098 
L 128.607774 153.083139 
L 127.881345 153.716766 
L 127.393927 154.153189 
L 127.094934 154.425512 
L 126.82204 154.677189 
L 126.084275 155.372931 
L 125.771084 155.675241 
L 124.98619 156.451825 
L 124.677352 156.765059 
L 124.449698 156.998812 
L 123.981328 157.48754 
L 123.249017 158.273498 
L 122.664086 158.921283 
L 122.505967 159.099564 
L 122.023415 159.65227 
L 121.578337 160.173929 
L 121.167808 160.665598 
L 120.768614 161.153726 
L 120.369421 161.652127 
L 120.154932 161.924302 
L 119.76206 162.431048 
L 119.369188 162.948784 
L 119.103737 163.305055 
L 118.723287 163.825091 
L 118.27726 164.449486 
L 117.948955 164.919697 
L 117.620651 165.399315 
L 117.109169 166.166219 
L 116.970059 166.379123 
L 116.546526 167.039282 
L 116.122992 167.718286 
L 115.781459 168.280367 
L 115.445118 168.84732 
L 115.045729 169.538858 
L 114.64634 170.251575 
L 114.578625 170.374621 
L 114.216037 171.044935 
L 113.853448 171.735536 
L 113.601924 172.227302 
L 113.350401 172.73011 
L 113.228824 172.977287 
L 112.944631 173.566126 
L 112.660437 174.171289 
L 112.255391 175.064322 
L 112.052868 175.525357 
L 111.850346 175.996801 
L 111.624795 176.534856 
L 111.399244 177.087536 
L 111.207548 177.569552 
L 111.015852 178.063636 
L 110.831012 178.552246 
L 110.646172 179.053664 
L 110.494505 179.475309 
L 110.342837 179.906771 
L 110.19117 180.348685 
L 110.039502 180.801761 
L 109.899262 181.231322 
L 109.69466 181.877834 
L 109.490058 182.550157 
L 109.285456 183.251333 
L 109.080854 183.985069 
L 108.972562 184.388124 
L 108.86427 184.802376 
L 108.755978 185.228744 
L 108.647686 185.668283 
L 108.494151 186.316453 
L 108.342032 186.991352 
L 108.265973 187.342589 
L 108.189913 187.704031 
L 108.113854 188.076581 
L 108.037794 188.461281 
L 107.961735 188.859352 
L 107.885675 189.272235 
L 107.816221 189.663657 
L 107.746766 190.070434 
L 107.677311 190.494469 
L 107.607857 190.938092 
L 107.538402 191.404216 
L 107.468948 191.89656 
L 107.399493 192.420004 
L 107.364766 192.695366 
L 107.330038 192.981169 
L 107.275322 193.455819 
L 107.247964 193.706009 
L 107.220606 193.966107 
L 107.193248 194.237379 
L 107.165889 194.521382 
L 107.138531 194.820076 
L 107.111173 195.135984 
L 107.083815 195.472446 
L 107.056457 195.834051 
L 107.029099 196.227403 
L 107.015419 196.438943 
L 107.00174 196.662638 
L 106.988061 196.900847 
L 106.974382 197.156815 
L 106.960703 197.435209 
L 106.947024 197.743194 
L 106.933345 198.092831 
L 106.919666 198.507634 
L 106.905987 199.048305 
L 106.892308 200.353846 
L 106.892308 192.006198 
L 107.479283 192.340858 
L 107.89807 192.574509 
L 108.143206 192.709324 
L 108.649956 192.983501 
L 109.102935 193.223492 
L 109.785677 193.576272 
L 110.155312 193.762843 
L 110.82698 194.094036 
L 110.935056 194.146394 
L 111.544345 194.43678 
L 111.976881 194.63804 
L 112.683468 194.958215 
L 112.953532 195.077802 
L 113.338962 195.245832 
L 114.163879 195.595137 
L 114.630358 195.786513 
L 115.088266 195.970103 
L 115.34223 196.070118 
L 115.759885 196.231811 
L 116.274708 196.426396 
L 116.842098 196.634861 
L 117.361246 196.820154 
L 117.533013 196.880324 
L 118.1674 197.097688 
L 118.413593 197.179994 
L 119.031116 197.381446 
L 119.431543 197.508283 
L 120.086745 197.709444 
L 120.3157 197.777884 
L 120.918453 197.953502 
L 121.617783 198.149042 
L 122.149729 198.291919 
L 122.49191 198.381169 
L 122.903325 198.485737 
L 123.455937 198.621513 
L 123.685357 198.676312 
L 124.416756 198.844904 
L 124.515164 198.866881 
L 125.339558 199.04444 
L 125.757568 199.130024 
L 126.058298 199.189754 
L 126.564179 199.286768 
L 127.246767 199.410816 
L 127.632489 199.47745 
L 127.959903 199.532055 
L 128.683119 199.646333 
L 129.144652 199.714718 
L 129.297054 199.736524 
L 129.849578 199.812364 
L 130.251013 199.864309 
L 131.030993 199.957672 
L 131.503538 200.009391 
L 131.680888 200.02786 
L 132.458162 200.102764 
L 132.535627 200.109691 
L 133.355809 200.177057 
L 133.760888 200.20631 
L 133.908651 200.21632 
L 134.458393 200.250466 
L 134.919289 200.275337 
L 135.758634 200.311841 
L 135.847682 200.315049 
L 136.666068 200.33856 
L 136.97789 200.344688 
L 137.300541 200.349385 
L 138.088633 200.353832 
L 138.529106 200.351974 
L 138.603803 200.351351 
L 139.342609 200.340357 
L 139.860867 200.327414 
L 140.1419 200.318591 
L 140.725321 200.296219 
L 141.202868 200.27383 
L 141.593044 200.25281 
L 142.187214 200.216083 
L 142.59703 200.187429 
L 142.83743 200.169356 
L 143.744256 200.09275 
L 144.201113 200.049097 
L 144.619913 200.006094 
L 145.156634 199.946797 
L 145.496411 199.906821 
L 145.89646 199.857328 
L 146.506838 199.776741 
L 146.668682 199.754342 
L 147.361756 199.653524 
L 147.628256 199.612637 
L 148.179149 199.524369 
L 148.678847 199.439919 
L 149.245854 199.339018 
L 149.667277 199.260515 
L 149.929571 199.210138 
L 150.530251 199.090366 
L 151.028581 198.98633 
L 151.574597 198.867447 
L 152.166068 198.732862 
L 152.643997 198.619675 
L 152.850999 198.569414 
L 153.264225 198.466836 
L 153.653895 198.367352 
L 154.336145 198.186695 
L 154.580864 198.119874 
L 155.091109 197.977098 
L 155.898661 197.741518 
L 156.051081 197.695723 
L 156.647123 197.512552 
L 157.198579 197.337242 
L 157.613824 197.201499 
L 157.858583 197.119973 
L 158.615466 196.860709 
L 159.111194 196.684986 
L 159.549821 196.525559 
L 159.841007 196.417662 
L 160.653685 196.107742 
L 160.703944 196.088148 
L 161.42581 195.801156 
L 161.863775 195.621925 
L 162.333323 195.425435 
L 162.933192 195.167812 
L 163.477586 194.927529 
L 163.953671 194.712273 
L 164.013616 194.684828 
L 164.596563 194.413913 
L 165.125416 194.161767 
L 165.53861 193.960493 
L 166.220758 193.61989 
L 166.465548 193.495108 
L 166.889397 193.275818 
L 167.681075 192.855094 
L 168.012294 192.674709 
L 168.474455 192.418638 
L 168.672376 192.307402 
L 169.525436 191.816994 
L 169.854639 191.62291 
L 170.521446 191.221373 
L 170.871338 191.006099 
L 171.4482 190.644175 
L 171.481053 190.623297 
L 172.064255 190.247852 
L 172.563154 189.919319 
L 172.997637 189.627569 
L 173.49571 189.286543 
L 174.178441 188.807422 
L 174.496248 188.579699 
L 174.881288 188.299725 
L 175.507009 187.835036 
L 176.102229 187.381574 
L 176.351974 187.187915 
L 176.979476 186.692274 
L 177.515159 186.258664 
L 177.645078 186.152013 
L 178.47055 185.460463 
L 178.851108 185.133352 
L 179.42186 184.632627 
L 179.873809 184.227274 
L 179.924877 184.180968 
L 180.549615 183.606052 
L 180.915134 183.262291 
L 181.624035 182.579476 
L 182.217143 181.991259 
L 182.597679 181.605425 
L 183.046149 181.141966 
L 183.446841 180.719637 
L 184.138673 179.971423 
L 184.566098 179.496647 
L 184.928113 179.086748 
L 185.387095 178.556447 
L 185.669812 178.223706 
L 186.205414 177.580116 
L 186.71649 176.949199 
L 187.049 176.529522 
L 187.467727 175.990279 
L 187.886453 175.438574 
L 187.923356 175.389336 
L 188.323844 174.84836 
L 188.724332 174.294889 
L 188.887185 174.066121 
L 189.280158 173.504938 
L 189.67313 172.930302 
L 190.255862 172.05196 
L 190.587157 171.537817 
L 190.768303 171.25193 
L 191.307267 170.380383 
L 191.809715 169.537868 
L 192.263408 168.750191 
L 192.645329 168.065791 
L 193.011555 167.389862 
L 193.377781 166.69331 
L 193.697799 166.066555 
L 193.987984 165.482629 
L 194.278169 164.882864 
L 194.568626 164.265586 
L 194.859083 163.630124 
L 194.973614 163.374258 
L 195.314815 162.593026 
L 195.656017 161.781195 
L 195.832684 161.347774 
L 196.00935 160.904772 
L 196.259067 160.261131 
L 196.508785 159.595384 
L 196.69981 159.069882 
L 196.890835 158.529123 
L 197.059285 158.038624 
L 197.227735 157.534329 
L 197.396185 157.015136 
L 197.564635 156.479788 
L 197.706253 156.016159 
L 197.847871 155.539101 
L 197.989488 155.047483 
L 198.131106 154.540003 
L 198.294638 153.93227 
L 198.45817 153.298592 
L 198.629992 152.601121 
L 198.715903 152.238759 
L 198.801814 151.866365 
L 198.952166 151.187929 
L 199.027341 150.834559 
L 199.102517 150.470688 
L 199.177692 150.095366 
L 199.252868 149.707485 
L 199.328044 149.30575 
L 199.403219 148.888619 
L 199.47836 148.454446 
L 199.553501 148.000789 
L 199.628642 147.52485 
L 199.703783 147.023086 
L 199.778924 146.490894 
L 199.816494 146.211543 
L 199.854065 145.92211 
L 199.891635 145.621441 
L 199.929205 145.30814 
L 199.966776 144.980495 
L 200.004346 144.636366 
L 200.048034 144.211817 
L 200.091721 143.755451 
L 200.113565 143.51287 
L 200.135409 143.258921 
L 200.157253 142.991853 
L 200.179096 142.709413 
L 200.20094 142.408616 
L 200.222784 142.085364 
L 200.244627 141.733755 
L 200.255549 141.544673 
L 200.266471 141.344734 
L 200.277393 141.131828 
L 200.288315 140.903058 
L 200.299237 140.654253 
L 200.310159 140.379011 
L 200.321081 140.066556 
L 200.332002 139.695878 
L 200.342924 139.212736 
L 200.353846 138.046154 
z
" style="fill:#808080;opacity:0.5;"/>
   </g>
   <g id="patch_5">
    <path clip-path="url(#p2aed93f0d6)" d="M 231.507692 192.006198 
L 231.27269 192.141196 
L 230.732257 192.446528 
L 230.153701 192.765594 
L 229.492466 193.120552 
L 229.367964 193.186243 
L 228.599386 193.583871 
L 227.997482 193.885906 
L 227.8387 193.964231 
L 227.105279 194.318788 
L 226.970945 194.382453 
L 226.111692 194.780464 
L 226.03128 194.816903 
L 225.636484 194.99382 
L 224.817639 195.350354 
L 224.432039 195.513441 
L 223.977778 195.701669 
L 223.69455 195.816908 
L 223.286227 195.980206 
L 222.699932 196.208865 
L 222.144752 196.419135 
L 221.855262 196.526387 
L 221.065521 196.810727 
L 220.519281 197.000405 
L 220.127938 197.132817 
L 219.671308 197.283677 
L 219.369811 197.381149 
L 218.940671 197.516974 
L 218.457098 197.665956 
L 217.68733 197.894286 
L 217.504286 197.946996 
L 216.775335 198.150923 
L 216.620228 198.193085 
L 215.956829 198.368583 
L 215.438272 198.50034 
L 214.847114 198.644782 
L 214.536274 198.718283 
L 214.146093 198.808169 
L 213.525231 198.945769 
L 212.975776 199.062016 
L 212.791028 199.099942 
L 212.229946 199.211559 
L 211.765623 199.299887 
L 211.534962 199.342411 
L 210.806009 199.470911 
L 210.25593 199.561983 
L 209.759156 199.639893 
L 209.492384 199.680038 
L 208.899861 199.764985 
L 208.644258 199.799839 
L 207.808704 199.906267 
L 207.784563 199.909172 
L 207.143935 199.98276 
L 206.72007 200.027762 
L 206.090448 200.089203 
L 205.829851 200.112746 
L 205.202743 200.164885 
L 204.685941 200.203064 
L 204.42106 200.220958 
L 203.827734 200.25693 
L 203.559929 200.271306 
L 202.765602 200.307153 
L 202.165442 200.327505 
L 202.093574 200.329553 
L 201.284696 200.346893 
L 201.086093 200.349543 
L 200.534149 200.353585 
L 200.133752 200.353457 
L 199.642398 200.349784 
L 199.171597 200.342629 
L 198.770859 200.333734 
L 198.128985 200.314111 
L 197.46348 200.28677 
L 197.052837 200.266342 
L 196.542903 200.237192 
L 196.466622 200.232471 
L 195.868689 200.192207 
L 195.11062 200.132844 
L 194.801116 200.105929 
L 194.332922 200.062257 
L 193.839201 200.012338 
L 193.659222 199.993152 
L 193.222898 199.944442 
L 192.604418 199.870056 
L 192.112426 199.806396 
L 191.697472 199.749603 
L 191.314326 199.694638 
L 190.876405 199.628835 
L 190.046853 199.495437 
L 189.547568 199.409603 
L 189.204775 199.348248 
L 189.001179 199.31087 
L 188.272863 199.171422 
L 187.666513 199.04845 
L 187.544267 199.022897 
L 187.10103 198.9281 
L 186.2247 198.730713 
L 186.080751 198.697018 
L 185.275718 198.501911 
L 184.917017 198.411316 
L 184.644655 198.341011 
L 183.84936 198.128185 
L 183.689607 198.084072 
L 183.241924 197.958011 
L 182.493893 197.739291 
L 182.0998 197.61996 
L 181.906105 197.560264 
L 181.105175 197.306066 
L 180.976717 197.264186 
L 180.097275 196.969153 
L 179.698195 196.830442 
L 179.569829 196.785179 
L 178.808145 196.510085 
L 178.476071 196.386633 
L 177.867932 196.15495 
L 177.703075 196.090887 
L 176.875116 195.760951 
L 176.479311 195.598348 
L 176.028843 195.409406 
L 175.59017 195.221401 
L 174.919497 194.926224 
L 174.689406 194.822778 
L 174.034552 194.522196 
L 173.665096 194.348544 
L 173.189746 194.120749 
L 172.6352 193.848709 
L 172.536043 193.799345 
L 171.88331 193.468866 
L 171.300126 193.165387 
L 170.931438 192.969468 
L 170.327824 192.641818 
L 170.084168 192.507104 
L 169.674732 192.277514 
L 169.210504 192.012261 
L 168.494765 191.592839 
L 168.033167 191.315491 
L 167.429403 190.944448 
L 167.381872 190.914835 
L 166.48037 190.341814 
L 166.296729 190.222406 
L 165.722268 189.842894 
L 165.276025 189.541736 
L 164.766132 189.190685 
L 164.128355 188.74095 
L 163.761876 188.477059 
L 163.359033 188.182292 
L 162.912515 187.849721 
L 162.699524 187.688883 
L 161.917528 187.085913 
L 161.446049 186.712691 
L 161.148545 186.473346 
L 160.66218 186.075522 
L 160.025701 185.542356 
L 159.563955 185.146402 
L 159.352553 184.962489 
L 158.531718 184.232278 
L 158.285778 184.008379 
L 157.780357 183.540621 
L 157.227491 183.016878 
L 156.898354 182.698911 
L 156.138239 181.946366 
L 155.937411 181.743166 
L 155.483092 181.276513 
L 155.107529 180.883279 
L 154.394314 180.117165 
L 153.799217 179.457686 
L 153.47151 179.086318 
L 153.009017 178.551902 
L 152.633731 178.109093 
L 152.167352 177.546917 
L 151.664733 176.925695 
L 150.986483 176.060783 
L 150.84491 175.876218 
L 150.48217 175.396715 
L 150.11943 174.907407 
L 150.011787 174.76026 
L 149.576988 174.156528 
L 149.142188 173.537204 
L 148.644528 172.808129 
L 148.337007 172.346255 
L 147.764922 171.46252 
L 147.542909 171.110537 
L 147.140557 170.459028 
L 146.738205 169.789052 
L 146.335191 169.098262 
L 146.025354 168.552932 
L 145.746902 168.051656 
L 145.468449 167.539233 
L 145.225011 167.08165 
L 144.981573 166.614666 
L 144.721207 166.104271 
L 144.328714 165.312123 
L 143.936221 164.490437 
L 143.744312 164.077081 
L 143.39776 163.30982 
L 143.051209 162.513607 
L 142.847394 162.030658 
L 142.507038 161.197727 
L 142.33686 160.767902 
L 142.166682 160.32849 
L 141.920262 159.674024 
L 141.717456 159.117991 
L 141.514651 158.544876 
L 141.311845 157.953203 
L 141.109039 157.341267 
L 140.906374 156.707521 
L 140.703709 156.049201 
L 140.609018 155.732421 
L 140.438539 155.145993 
L 140.26806 154.536963 
L 140.097581 153.902729 
L 139.927101 153.240134 
L 139.780829 152.646088 
L 139.634556 152.025292 
L 139.488283 151.37401 
L 139.415147 151.035512 
L 139.34201 150.68753 
L 139.216194 150.064306 
L 139.153286 149.739737 
L 139.090377 149.405551 
L 139.007868 148.951173 
L 138.925358 148.476369 
L 138.842849 147.978208 
L 138.760339 147.452981 
L 138.677829 146.89587 
L 138.636575 146.603426 
L 138.59532 146.300422 
L 138.554065 145.985648 
L 138.51281 145.657645 
L 138.471555 145.314621 
L 138.430301 144.95434 
L 138.382282 144.509419 
L 138.334264 144.03113 
L 138.310255 143.776886 
L 138.286246 143.51072 
L 138.262236 143.230797 
L 138.238227 142.934754 
L 138.214218 142.619462 
L 138.190209 142.280622 
L 138.1662 141.91205 
L 138.154195 141.713842 
L 138.142191 141.50425 
L 138.130186 141.281062 
L 138.118181 141.041242 
L 138.106177 140.780414 
L 138.094172 140.491868 
L 138.082168 140.164307 
L 138.070163 139.775702 
L 138.058158 139.269188 
L 138.046154 138.046154 
L 138.046154 146.393802 
L 138.671471 146.037574 
L 138.783997 145.974482 
L 139.396032 145.636646 
L 139.859104 145.386944 
L 140.28145 145.163575 
L 140.89062 144.848643 
L 141.215677 144.68405 
L 141.882613 144.353767 
L 142.498948 144.057289 
L 142.750651 143.938596 
L 143.011432 143.817067 
L 143.815048 143.451713 
L 143.936971 143.397478 
L 144.408086 143.190838 
L 145.186892 142.859332 
L 145.565667 142.702594 
L 145.910463 142.562446 
L 146.664198 142.264379 
L 146.787777 142.216588 
L 147.292624 142.024476 
L 147.757896 141.85184 
L 148.594473 141.551969 
L 148.679275 141.522321 
L 149.292217 141.312092 
L 149.766971 141.154134 
L 150.038724 141.065618 
L 150.568134 140.897122 
L 151.166604 140.712877 
L 151.835584 140.514682 
L 152.18943 140.413134 
L 152.598418 140.298572 
L 152.926987 140.208709 
L 153.41305 140.079302 
L 153.805565 139.977858 
L 154.630846 139.773418 
L 155.180687 139.643819 
L 155.50557 139.569711 
L 155.749121 139.515352 
L 156.505827 139.352973 
L 156.993101 139.253599 
L 157.068134 139.238657 
L 157.60742 139.134073 
L 158.311185 139.004989 
L 158.837598 138.913882 
L 159.152545 138.861593 
L 159.608712 138.788794 
L 160.333245 138.680277 
L 160.508865 138.655283 
L 161.065548 138.579424 
L 161.665025 138.503441 
L 162.215839 138.438824 
L 162.661644 138.39016 
L 162.706636 138.385429 
L 163.315119 138.324686 
L 163.792974 138.281206 
L 164.533007 138.221184 
L 164.943545 138.19171 
L 165.095976 138.181461 
L 165.688909 138.145159 
L 166.291059 138.114095 
L 166.823946 138.091475 
L 167.199633 138.078273 
L 167.720124 138.063731 
L 168.135839 138.055242 
L 168.728629 138.047937 
L 169.092492 138.046247 
L 169.462817 138.046708 
L 169.864383 138.049696 
L 170.48458 138.059397 
L 171.002349 138.072227 
L 171.175009 138.077463 
L 171.670498 138.095151 
L 172.270736 138.121868 
L 172.796133 138.150017 
L 173.399985 138.18787 
L 173.603391 138.201946 
L 174.402647 138.263742 
L 174.773914 138.29597 
L 175.266118 138.342148 
L 175.779523 138.394518 
L 176.307391 138.452848 
L 176.640636 138.492021 
L 177.008384 138.537362 
L 177.507965 138.60252 
L 177.889406 138.655039 
L 178.488315 138.742356 
L 178.890622 138.804351 
L 179.452963 138.895525 
L 179.729302 138.942265 
L 180.452308 139.070618 
L 181.016284 139.176857 
L 181.123302 139.197625 
L 181.551328 139.282632 
L 182.403656 139.461219 
L 182.883775 139.567311 
L 182.950511 139.582373 
L 183.540857 139.718969 
L 183.901423 139.80538 
L 184.707728 140.006859 
L 185.035437 140.092022 
L 185.317592 140.166873 
L 185.853627 140.312983 
L 186.410297 140.470174 
L 186.844086 140.596547 
L 187.424299 140.770934 
L 187.626643 140.8332 
L 188.1147 140.986493 
L 188.558133 141.129601 
L 189.429937 141.421697 
L 189.584726 141.47506 
L 189.94314 141.600373 
L 190.493521 141.797596 
L 191.003489 141.985564 
L 191.430769 142.146961 
L 191.993227 142.364905 
L 192.560805 142.591217 
L 193.187685 142.84872 
L 193.436031 142.952946 
L 194.065655 143.222876 
L 194.571802 143.445849 
L 194.719255 143.511818 
L 195.407145 143.825676 
L 195.915602 144.064192 
L 196.078396 144.141745 
L 196.924567 144.554232 
L 197.2626 144.723468 
L 197.681482 144.936757 
L 198.276088 145.246409 
L 198.457108 145.342301 
L 199.240897 145.766366 
L 199.518533 145.920078 
L 200.033184 146.209933 
L 200.346429 146.38952 
L 201.070003 146.813661 
L 201.611624 147.139796 
L 201.897177 147.314774 
L 202.255918 147.53761 
L 202.871252 147.927752 
L 203.133113 148.096862 
L 203.790443 148.529626 
L 204.107077 148.74237 
L 204.630965 149.1006 
L 205.386631 149.631304 
L 205.830232 149.950725 
L 206.285922 150.285064 
L 206.784453 150.658198 
L 206.889146 150.73755 
L 207.52885 151.230046 
L 207.873852 151.501193 
L 208.390126 151.914373 
L 209.059052 152.463299 
L 209.594663 152.914203 
L 210.126724 153.372448 
L 210.250163 153.480264 
L 210.994584 154.142795 
L 211.103708 154.241724 
L 211.823665 154.906385 
L 212.270316 155.329448 
L 212.497142 155.54753 
L 213.172096 156.209727 
L 213.546186 156.585544 
L 214.009018 157.0595 
L 214.76584 157.856755 
L 215.302088 158.439099 
L 215.580836 158.747758 
L 215.991349 159.209974 
L 216.272345 159.531759 
L 216.920039 160.290815 
L 217.500656 160.992759 
L 217.836653 161.408699 
L 218.180387 161.841897 
L 218.561823 162.332024 
L 218.943259 162.83243 
L 219.335037 163.357541 
L 219.764777 163.947091 
L 220.232476 164.60563 
L 220.857562 165.515005 
L 221.36715 166.282789 
L 221.58791 166.623216 
L 221.945564 167.185277 
L 222.303218 167.760952 
L 222.465336 168.026574 
L 222.979492 168.889346 
L 223.499853 169.796122 
L 223.766686 170.275195 
L 224.030311 170.758482 
L 224.293935 171.252182 
L 224.638187 171.913453 
L 224.982439 172.594739 
L 225.224664 173.086914 
L 225.554963 173.776286 
L 225.885262 174.48824 
L 226.139887 175.053692 
L 226.394512 175.634696 
L 226.605383 176.128436 
L 226.816255 176.634325 
L 226.991195 177.063798 
L 227.166134 177.50268 
L 227.426901 178.175558 
L 227.687669 178.872665 
L 227.973401 179.667237 
L 228.116268 180.077705 
L 228.259134 180.497684 
L 228.408832 180.948622 
L 228.558529 181.411473 
L 228.708227 181.887134 
L 228.857925 182.376623 
L 229.034191 182.9723 
L 229.210457 183.590983 
L 229.315496 183.971671 
L 229.420535 184.362108 
L 229.531341 184.78536 
L 229.642148 185.221257 
L 229.752955 185.670924 
L 229.863761 186.135668 
L 229.974568 186.617019 
L 230.085374 187.116788 
L 230.196181 187.637147 
L 230.306988 188.180737 
L 230.416444 188.743702 
L 230.525901 189.336481 
L 230.593435 189.719249 
L 230.660969 190.116764 
L 230.728502 190.530815 
L 230.796036 190.963591 
L 230.863569 191.417811 
L 230.931103 191.89693 
L 230.998637 192.405448 
L 231.032403 192.672544 
L 231.06617 192.949422 
L 231.121361 193.426102 
L 231.148956 193.677364 
L 231.176551 193.938577 
L 231.204146 194.211012 
L 231.231741 194.496233 
L 231.259336 194.79621 
L 231.286931 195.113475 
L 231.314526 195.451385 
L 231.342122 195.814545 
L 231.369717 196.209591 
L 231.383514 196.422043 
L 231.397312 196.646701 
L 231.411109 196.885937 
L 231.424907 197.143008 
L 231.438704 197.422603 
L 231.452502 197.731918 
L 231.4663 198.083064 
L 231.480097 198.499657 
L 231.493895 199.042664 
L 231.507692 200.353846 
z
" style="fill:#808080;opacity:0.5;"/>
   </g>
   <g id="matplotlib.axis_1"/>
   <g id="matplotlib.axis_2"/>
   <g id="line2d_1">
    <path clip-path="url(#p2aed93f0d6)" d="M 106.892308 192.006198 
L 110.155312 193.762843 
L 113.338962 195.245832 
L 116.842098 196.634861 
L 120.3157 197.777884 
L 123.685357 198.676312 
L 127.632489 199.47745 
L 131.030993 199.957672 
L 134.919289 200.275337 
L 138.603803 200.351351 
L 142.59703 200.187429 
L 145.89646 199.857328 
L 149.667277 199.260515 
L 153.264225 198.466836 
L 156.647123 197.512552 
L 159.841007 196.417662 
L 163.477586 194.927529 
L 166.889397 193.275818 
L 170.521446 191.221373 
L 173.49571 189.286543 
L 176.351974 187.187915 
L 179.42186 184.632627 
L 182.217143 181.991259 
L 184.928113 179.086748 
L 187.467727 175.990279 
L 189.67313 172.930302 
L 191.809715 169.537868 
L 193.697799 166.066555 
L 195.314815 162.593026 
L 196.69981 159.069882 
L 197.847871 155.539101 
L 198.801814 151.866365 
L 199.553501 148.000789 
L 200.048034 144.211817 
L 200.310159 140.379011 
L 200.353846 138.046154 
L 200.353846 138.046154 
" style="fill:none;stroke:#0000ff;stroke-linecap:square;"/>
   </g>
   <g id="line2d_2">
    <path clip-path="url(#p2aed93f0d6)" d="M 138.046154 146.393802 
L 141.215677 144.68405 
L 144.408086 143.190838 
L 147.757896 141.85184 
L 151.166604 140.712877 
L 154.630846 139.773418 
L 158.311185 139.004989 
L 162.215839 138.438824 
L 165.688909 138.145159 
L 169.462817 138.046708 
L 172.796133 138.150017 
L 176.640636 138.492021 
L 180.452308 139.070618 
L 183.901423 139.80538 
L 187.626643 140.8332 
L 191.003489 141.985564 
L 194.571802 143.445849 
L 197.681482 144.936757 
L 201.070003 146.813661 
L 204.107077 148.74237 
L 206.889146 150.73755 
L 209.594663 152.914203 
L 212.497142 155.54753 
L 215.302088 158.439099 
L 217.836653 161.408699 
L 220.232476 164.60563 
L 222.465336 168.026574 
L 224.293935 171.252182 
L 225.885262 174.48824 
L 227.426901 178.175558 
L 228.708227 181.887134 
L 229.752955 185.670924 
L 230.525901 189.336481 
L 231.06617 192.949422 
L 231.411109 196.885937 
L 231.507692 200.353846 
L 231.507692 200.353846 
" style="fill:none;stroke:#228b22;stroke-linecap:square;"/>
   </g>
   <g id="line2d_3">
    <path clip-path="url(#p2aed93f0d6)" d="M 200.353846 254.313891 
L 203.461531 252.396098 
L 206.416058 250.325974 
L 209.438192 247.92628 
L 212.24952 245.398128 
L 214.797367 242.817108 
L 217.133607 240.161105 
L 219.457927 237.183037 
L 221.495517 234.227544 
L 223.372952 231.13598 
L 225.124213 227.826214 
L 226.728045 224.286512 
L 227.99363 220.982894 
L 229.104774 217.490549 
L 230.031981 213.834151 
L 230.746942 210.060671 
L 231.225791 206.274136 
L 231.46942 202.537386 
L 231.507692 200.353846 
L 231.507692 200.353846 
" style="fill:none;stroke:#228b22;stroke-linecap:square;"/>
   </g>
   <g id="text_1">
    <!-- $\Omega$ -->
    <g transform="translate(16.011538 22.420913)scale(0.1 -0.1)">
     <defs>
      <path d="M 7.71875 0 
L 4.390625 16.609375 
L 7.328125 16.609375 
Q 7.859375 13.71875 8.296875 11.5 
Q 8.734375 9.28125 9.4375 8.375 
Q 10.15625 7.46875 11.71875 7.171875 
Q 13.28125 6.890625 16.890625 6.890625 
L 23 6.890625 
Q 21.53125 12.546875 15.6875 21.65625 
Q 9.859375 30.765625 7.734375 34.890625 
Q 5.609375 39.015625 5.609375 45.515625 
Q 5.609375 53.078125 10.09375 58.765625 
Q 14.59375 64.453125 21.703125 67.484375 
Q 28.8125 70.515625 36.078125 70.515625 
Q 43.3125 70.515625 50.40625 67.484375 
Q 57.515625 64.453125 62 58.71875 
Q 66.5 52.984375 66.5 45.515625 
Q 66.5 40.4375 64.640625 35.9375 
Q 62.796875 31.453125 59.90625 26.953125 
Q 57.03125 22.46875 53.6875 16.9375 
Q 50.34375 11.421875 49.125 6.890625 
L 55.171875 6.890625 
Q 58.84375 6.890625 60.453125 7.171875 
Q 62.0625 7.46875 62.734375 8.375 
Q 63.421875 9.28125 63.84375 11.5 
Q 64.265625 13.71875 64.796875 16.609375 
L 67.671875 16.609375 
L 64.40625 0 
L 46.6875 0 
Q 45.703125 0 45.703125 1.3125 
Q 45.703125 6.390625 46.9375 11.265625 
Q 48.1875 16.15625 50.625 23.09375 
Q 53.078125 30.03125 54.4375 35.328125 
Q 55.8125 40.625 55.8125 45.515625 
Q 55.8125 51.515625 53.46875 56.640625 
Q 51.125 61.765625 46.625 64.84375 
Q 42.140625 67.921875 36.078125 67.921875 
Q 26.953125 67.921875 21.625 61.40625 
Q 16.3125 54.890625 16.3125 45.515625 
Q 16.359375 40.375 17.53125 35.828125 
Q 18.703125 31.296875 21.3125 23.71875 
Q 23.921875 16.15625 25.171875 11.265625 
Q 26.421875 6.390625 26.421875 1.3125 
Q 26.421875 0 25.390625 0 
z
" id="Cmr10-173"/>
     </defs>
     <use transform="translate(0 0.484375)" xlink:href="#Cmr10-173"/>
    </g>
   </g>
   <g id="text_2">
    <!-- $A$ -->
    <g style="fill:#0000ff;" transform="translate(103.142308 78.497837)scale(0.1 -0.1)">
     <defs>
      <path d="M 4.5 0 
Q 3.515625 0 3.515625 1.3125 
Q 3.90625 3.515625 4.78125 3.515625 
Q 8.84375 3.515625 11.796875 5.125 
Q 14.75 6.734375 16.890625 10.109375 
Q 17.09375 10.296875 17.09375 10.296875 
L 52.78125 70.515625 
Q 53.5625 71.578125 54.6875 71.578125 
L 56 71.578125 
Q 56.296875 71.578125 56.59375 71.453125 
Q 56.890625 71.34375 57.109375 71.0625 
Q 57.328125 70.796875 57.328125 70.515625 
L 63.375 5.90625 
Q 63.375 5.46875 63.8125 4.59375 
Q 64.796875 3.515625 71.296875 3.515625 
Q 72.3125 3.515625 72.3125 2.203125 
Q 71.96875 0.875 71.75 0.4375 
Q 71.53125 0 70.609375 0 
L 45.609375 0 
Q 44.671875 0 44.671875 1.3125 
Q 45.21875 3.515625 46 3.515625 
Q 53.90625 3.515625 54.390625 6.203125 
L 52.875 22.703125 
L 28.21875 22.703125 
L 20.21875 9.28125 
Q 19.484375 8.203125 19.484375 6.78125 
Q 19.484375 5.03125 21.171875 4.265625 
Q 22.859375 3.515625 24.90625 3.515625 
Q 25.875 3.515625 25.875 2.203125 
Q 25.53125 0.78125 25.328125 0.390625 
Q 25.140625 0 24.21875 0 
z
M 30.171875 26.21875 
L 52.484375 26.21875 
L 49.515625 58.59375 
z
" id="Cmmi10-65"/>
     </defs>
     <use transform="translate(0 0.421875)" xlink:href="#Cmmi10-65"/>
    </g>
   </g>
   <g id="text_3">
    <!-- $B$ -->
    <g style="fill:#ff0000;" transform="translate(227.707692 78.497837)scale(0.1 -0.1)">
     <defs>
      <path d="M 4.984375 0 
Q 4 0 4 1.3125 
Q 4.046875 1.5625 4.1875 2.140625 
Q 4.34375 2.734375 4.578125 3.125 
Q 4.828125 3.515625 5.328125 3.515625 
Q 8.15625 3.515625 10.25 3.65625 
Q 12.359375 3.8125 13.8125 4.203125 
Q 14.984375 4.640625 15.71875 6.890625 
L 29.390625 61.8125 
Q 29.59375 62.796875 29.59375 63.1875 
Q 29.59375 64.265625 28.421875 64.40625 
Q 26.515625 64.796875 21.1875 64.796875 
Q 20.21875 64.796875 20.21875 66.109375 
Q 20.265625 66.359375 20.40625 66.96875 
Q 20.5625 67.578125 20.828125 67.9375 
Q 21.09375 68.3125 21.484375 68.3125 
L 57.328125 68.3125 
Q 60.59375 68.3125 63.796875 67.5 
Q 67 66.703125 69.703125 64.9375 
Q 72.40625 63.1875 74 60.5625 
Q 75.59375 57.953125 75.59375 54.5 
Q 75.59375 50.734375 73.65625 47.5 
Q 71.734375 44.28125 68.671875 41.890625 
Q 65.625 39.5 62.078125 37.953125 
Q 58.546875 36.421875 54.6875 35.6875 
Q 57.421875 35.6875 60.21875 34.609375 
Q 63.03125 33.546875 65.234375 31.6875 
Q 67.4375 29.828125 68.78125 27.234375 
Q 70.125 24.65625 70.125 21.6875 
Q 70.125 15.671875 65.921875 10.6875 
Q 61.71875 5.71875 55.34375 2.859375 
Q 48.96875 0 43.015625 0 
z
M 23.390625 4.296875 
Q 23.390625 3.515625 26.8125 3.515625 
L 41.109375 3.515625 
Q 46 3.515625 50.484375 6.21875 
Q 54.984375 8.9375 57.6875 13.421875 
Q 60.40625 17.921875 60.40625 22.796875 
Q 60.40625 25.78125 59.15625 28.4375 
Q 57.90625 31.109375 55.5625 32.640625 
Q 53.21875 34.1875 50.203125 34.1875 
L 30.71875 34.1875 
L 23.78125 6.5 
Q 23.390625 5.125 23.390625 4.296875 
z
M 31.390625 36.8125 
L 46.578125 36.8125 
Q 51.375 36.8125 55.890625 39.25 
Q 60.40625 41.703125 63.25 45.890625 
Q 66.109375 50.09375 66.109375 54.78125 
Q 66.109375 59.125 63.390625 61.953125 
Q 60.6875 64.796875 56.390625 64.796875 
L 42.671875 64.796875 
Q 39.984375 64.796875 39.0625 64.296875 
Q 38.140625 63.8125 37.5 61.375 
z
" id="Cmmi10-66"/>
     </defs>
     <use transform="translate(0 0.6875)" xlink:href="#Cmmi10-66"/>
    </g>
   </g>
   <g id="text_4">
    <!-- $C$ -->
    <g style="fill:#228b22;" transform="translate(150.023077 271.651683)scale(0.1 -0.1)">
     <defs>
      <path d="M 14.59375 21.578125 
Q 14.59375 15.578125 16.90625 11.015625 
Q 19.234375 6.453125 23.65625 3.875 
Q 28.078125 1.3125 34.078125 1.3125 
Q 40.375 1.3125 46.203125 4.53125 
Q 52.046875 7.765625 56.171875 13.15625 
Q 60.296875 18.5625 61.8125 24.609375 
Q 62.015625 25.203125 62.59375 25.203125 
L 63.8125 25.203125 
Q 64.203125 25.203125 64.453125 24.921875 
Q 64.703125 24.65625 64.703125 24.3125 
Q 64.703125 24.21875 64.59375 24.03125 
Q 62.890625 17.09375 57.984375 11.015625 
Q 53.078125 4.9375 46.234375 1.359375 
Q 39.40625 -2.203125 32.171875 -2.203125 
Q 24.359375 -2.203125 18.15625 1.3125 
Q 11.96875 4.828125 8.515625 11.078125 
Q 5.078125 17.328125 5.078125 25.203125 
Q 5.078125 33.59375 8.828125 41.8125 
Q 12.59375 50.046875 18.9375 56.46875 
Q 25.296875 62.890625 33.421875 66.703125 
Q 41.546875 70.515625 49.90625 70.515625 
Q 53.21875 70.515625 56.25 69.5 
Q 59.28125 68.5 61.859375 66.453125 
Q 64.453125 64.40625 66.109375 61.71875 
L 74.03125 70.3125 
Q 74.03125 70.515625 74.515625 70.515625 
L 75.09375 70.515625 
Q 75.484375 70.515625 75.734375 70.171875 
Q 75.984375 69.828125 75.984375 69.484375 
L 69.1875 42.484375 
Q 69.1875 41.796875 68.40625 41.796875 
L 66.609375 41.796875 
Q 65.828125 41.796875 65.828125 42.921875 
Q 66.21875 45.125 66.21875 48.1875 
Q 66.21875 53.078125 64.546875 57.390625 
Q 62.890625 61.71875 59.390625 64.359375 
Q 55.90625 67 50.875 67 
Q 42.71875 67 35.9375 62.890625 
Q 29.15625 58.796875 24.4375 52.125 
Q 19.734375 45.453125 17.15625 37.328125 
Q 14.59375 29.203125 14.59375 21.578125 
z
" id="Cmmi10-67"/>
     </defs>
     <use transform="translate(0 0.484375)" xlink:href="#Cmmi10-67"/>
    </g>
   </g>
   <g id="patch_6">
    <path clip-path="url(#p2aed93f0d6)" d="M 138.046154 200.353846 
C 154.570347 200.353846 170.419977 193.788715 182.104346 182.104346 
C 193.788715 170.419977 200.353846 154.570347 200.353846 138.046154 
C 200.353846 121.521961 193.788715 105.672331 182.104346 93.987962 
C 170.419977 82.303593 154.570347 75.738462 138.046154 75.738462 
C 121.521961 75.738462 105.672331 82.303593 93.987962 93.987962 
C 82.303593 105.672331 75.738462 121.521961 75.738462 138.046154 
C 75.738462 154.570347 82.303593 170.419977 93.987962 182.104346 
C 105.672331 193.788715 121.521961 200.353846 138.046154 200.353846 
z
" style="fill:none;stroke:#0000ff;stroke-linejoin:miter;"/>
   </g>
   <g id="patch_7">
    <path clip-path="url(#p2aed93f0d6)" d="M 200.353846 200.353846 
C 216.878039 200.353846 232.727669 193.788715 244.412038 182.104346 
C 256.096407 170.419977 262.661538 154.570347 262.661538 138.046154 
C 262.661538 121.521961 256.096407 105.672331 244.412038 93.987962 
C 232.727669 82.303593 216.878039 75.738462 200.353846 75.738462 
C 183.829653 75.738462 167.980023 82.303593 156.295654 93.987962 
C 144.611285 105.672331 138.046154 121.521961 138.046154 138.046154 
C 138.046154 154.570347 144.611285 170.419977 156.295654 182.104346 
C 167.980023 193.788715 183.829653 200.353846 200.353846 200.353846 
z
" style="fill:none;stroke:#ff0000;stroke-linejoin:miter;"/>
   </g>
   <g id="patch_8">
    <path clip-path="url(#p2aed93f0d6)" d="M 169.2 262.661538 
C 185.724193 262.661538 201.573823 256.096407 213.258192 244.412038 
C 224.942561 232.727669 231.507692 216.878039 231.507692 200.353846 
C 231.507692 183.829653 224.942561 167.980023 213.258192 156.295654 
C 201.573823 144.611285 185.724193 138.046154 169.2 138.046154 
C 152.675807 138.046154 136.826177 144.611285 125.141808 156.295654 
C 113.457439 167.980023 106.892308 183.829653 106.892308 200.353846 
C 106.892308 216.878039 113.457439 232.727669 125.141808 244.412038 
C 136.826177 256.096407 152.675807 262.661538 169.2 262.661538 
z
" style="fill:none;stroke:#228b22;stroke-linejoin:miter;"/>
   </g>
  </g>
 </g>
 <defs>
  <clipPath id="p2aed93f0d6">
   <rect height="324" width="324" x="7.2" y="7.2"/>
  </clipPath>
 </defs>
</svg>
