<?xml version="1.0" encoding="utf-8" standalone="no"?>
<!DOCTYPE svg PUBLIC "-//W3C//DTD SVG 1.1//EN"
  "http://www.w3.org/Graphics/SVG/1.1/DTD/svg11.dtd">
<!-- Created with matplotlib (https://matplotlib.org/) -->
<svg height="338.4pt" version="1.1" viewBox="0 0 338.4 338.4" width="338.4pt" xmlns="http://www.w3.org/2000/svg" xmlns:xlink="http://www.w3.org/1999/xlink">
 <metadata>
  <rdf:RDF xmlns:cc="http://creativecommons.org/ns#" xmlns:dc="http://purl.org/dc/elements/1.1/" xmlns:rdf="http://www.w3.org/1999/02/22-rdf-syntax-ns#">
   <cc:Work>
    <dc:type rdf:resource="http://purl.org/dc/dcmitype/StillImage"/>
    <dc:date>2024-11-18T20:48:44.174877</dc:date>
    <dc:format>image/svg+xml</dc:format>
    <dc:creator>
     <cc:Agent>
      <dc:title>Matplotlib v3.3.4, https://matplotlib.org/</dc:title>
     </cc:Agent>
    </dc:creator>
   </cc:Work>
  </rdf:RDF>
 </metadata>
 <defs>
  <style type="text/css">*{stroke-linecap:butt;stroke-linejoin:round;}</style>
 </defs>
 <g id="figure_1">
  <g id="patch_1">
   <path d="M -0 338.4 
L 338.4 338.4 
L 338.4 0 
L -0 0 
z
" style="fill:#ffffff;"/>
  </g>
  <g id="axes_1">
   <g id="patch_2">
    <path d="M 7.2 331.2 
L 331.2 331.2 
L 331.2 7.2 
L 7.2 7.2 
z
" style="fill:#ffffff;"/>
   </g>
   <g id="patch_3">
    <path clip-path="url(#p9c6edcb421)" d="M 13.430769 324.969231 
L 13.430769 13.430769 
L 324.969231 13.430769 
L 324.969231 324.969231 
z
" style="fill:none;stroke:#000000;stroke-linejoin:miter;"/>
   </g>
   <g id="patch_4">
    <path clip-path="url(#p9c6edcb421)" d="M 169.2 192.006198 
L 169.037689 192.099584 
L 168.480183 192.415432 
L 168.286805 192.523227 
L 167.935978 192.716502 
L 167.568113 192.916022 
L 167.386099 193.013564 
L 167.116196 193.15678 
L 166.792059 193.326543 
L 166.46222 193.496814 
L 166.021445 193.720489 
L 165.874784 193.793942 
L 165.303559 194.075453 
L 165.18225 194.134306 
L 164.677381 194.375775 
L 164.401979 194.505156 
L 164.223932 194.58793 
L 163.907774 194.733235 
L 163.637443 194.855787 
L 163.229523 195.037789 
L 162.809376 195.221598 
L 162.705251 195.266582 
L 162.39698 195.398449 
L 162.036184 195.550301 
L 161.836037 195.633392 
L 161.357979 195.828568 
L 160.996603 195.973051 
L 160.81965 196.042847 
L 160.327958 196.233521 
L 160.195682 196.284002 
L 159.73579 196.456839 
L 159.560881 196.521491 
L 159.304647 196.61513 
L 158.919 196.753673 
L 158.415893 196.930126 
L 158.239175 196.990962 
L 157.955073 197.087525 
L 157.650297 197.189421 
L 157.175403 197.344723 
L 156.908173 197.430266 
L 156.749837 197.480326 
L 156.418237 197.583664 
L 156.167242 197.660537 
L 155.799649 197.771039 
L 155.327133 197.909467 
L 155.01873 197.997636 
L 154.656584 198.098982 
L 154.362511 198.179547 
L 154.205011 198.222061 
L 153.996061 198.277782 
L 153.518815 198.402142 
L 153.377055 198.438305 
L 152.804893 198.580674 
L 152.500673 198.654036 
L 152.199732 198.72502 
L 152.037312 198.762676 
L 151.665381 198.847183 
L 151.329477 198.921451 
L 151.105516 198.96989 
L 150.827615 199.028797 
L 150.286238 199.139761 
L 149.994631 199.197461 
L 149.90818 199.21429 
L 149.375368 199.315211 
L 149.056805 199.373261 
L 148.865645 199.407275 
L 148.542778 199.463329 
L 148.067599 199.542651 
L 147.7848 199.588069 
L 147.500911 199.632322 
L 147.343179 199.65633 
L 146.870472 199.72581 
L 146.729421 199.745825 
L 146.426845 199.787652 
L 146.161901 199.823036 
L 145.630516 199.890523 
L 145.543028 199.901189 
L 145.132644 199.949548 
L 144.694668 199.998117 
L 144.338829 200.035272 
L 144.307923 200.038401 
L 143.986038 200.070071 
L 143.479334 200.11651 
L 143.077081 200.150407 
L 142.872415 200.166647 
L 142.72792 200.177704 
L 142.167372 200.217402 
L 141.966514 200.230391 
L 141.603394 200.252219 
L 141.459244 200.260295 
L 141.108939 200.278524 
L 140.644039 200.299664 
L 140.284332 200.313634 
L 140.095514 200.320134 
L 139.7794 200.329734 
L 139.596509 200.334555 
L 139.168884 200.34373 
L 138.880046 200.348266 
L 138.51005 200.352119 
L 138.083217 200.353835 
L 137.742895 200.353108 
L 137.462632 200.351114 
L 137.128713 200.347091 
L 136.917846 200.343629 
L 136.513127 200.334984 
L 136.462303 200.333712 
L 136.105431 200.323615 
L 135.706644 200.309909 
L 135.347578 200.29538 
L 135.176605 200.287733 
L 134.646475 200.261029 
L 134.46812 200.251027 
L 134.193371 200.234614 
L 133.791023 200.20838 
L 133.395949 200.180075 
L 133.28958 200.172022 
L 133.029746 200.151582 
L 132.423935 200.099673 
L 132.301848 200.08849 
L 131.978116 200.057664 
L 131.74504 200.034415 
L 131.375224 199.995708 
L 130.968823 199.950596 
L 130.732345 199.923102 
L 130.371107 199.879334 
L 130.213731 199.859596 
L 129.836825 199.81067 
L 129.313529 199.738858 
L 129.02676 199.697586 
L 128.953638 199.686844 
L 128.650942 199.641434 
L 128.189067 199.569209 
L 127.912985 199.52434 
L 127.477415 199.45096 
L 127.287418 199.417956 
L 127.021618 199.370767 
L 126.532782 199.280873 
L 126.316184 199.239751 
L 125.858791 199.1503 
L 125.807174 199.139982 
L 125.458058 199.069005 
L 125.019424 198.976875 
L 124.740998 198.916683 
L 124.342882 198.828297 
L 124.059022 198.763603 
L 123.720918 198.684723 
L 123.550027 198.644098 
L 123.194335 198.557905 
L 122.844693 198.471017 
L 122.423654 198.363531 
L 122.387783 198.354229 
L 122.061875 198.268669 
L 121.64711 198.15705 
L 121.312126 198.064658 
L 120.906772 197.950161 
L 120.598123 197.860991 
L 120.489002 197.829052 
L 120.159247 197.73122 
L 119.628003 197.569429 
L 119.279609 197.460507 
L 119.054488 197.388931 
L 118.862396 197.327111 
L 118.510264 197.212002 
L 118.190306 197.105394 
L 117.760495 196.959145 
L 117.417442 196.839901 
L 117.188924 196.759223 
L 116.979965 196.684573 
L 116.490683 196.506484 
L 116.156992 196.382361 
L 116.119 196.368092 
L 115.74027 196.224295 
L 115.343227 196.070508 
L 114.941198 195.911597 
L 114.820364 195.863203 
L 114.438994 195.708538 
L 114.184167 195.603552 
L 113.845936 195.462162 
L 113.533339 195.329401 
L 113.038708 195.115201 
L 112.988539 195.093191 
L 112.599976 194.920933 
L 112.277811 194.775697 
L 111.855104 194.581784 
L 111.690184 194.505089 
L 111.216335 194.281457 
L 110.843796 194.102199 
L 110.720552 194.042225 
L 110.450114 193.909443 
L 110.026564 193.698208 
L 109.55884 193.460245 
L 109.535145 193.448057 
L 108.94056 193.138013 
L 108.644326 192.980488 
L 108.442648 192.872069 
L 108.097685 192.684398 
L 107.892104 192.571211 
L 107.472841 192.337231 
L 107.062554 192.104133 
L 106.892308 192.006198 
L 106.892308 200.353846 
L 106.901111 201.401195 
L 106.909914 201.834969 
L 106.918717 202.16778 
L 106.927521 202.448323 
L 106.936324 202.695459 
L 106.945127 202.918864 
L 106.95393 203.124285 
L 106.962734 203.315465 
L 106.971537 203.495006 
L 106.98034 203.664802 
L 106.989143 203.826283 
L 106.997946 203.98056 
L 107.015553 204.270868 
L 107.033159 204.541023 
L 107.050766 204.794704 
L 107.068372 205.03459 
L 107.085979 205.262704 
L 107.103585 205.480618 
L 107.121192 205.689582 
L 107.138798 205.890609 
L 107.156405 206.084535 
L 107.174011 206.272057 
L 107.19979 206.536276 
L 107.225568 206.789554 
L 107.251347 207.033135 
L 107.277125 207.268044 
L 107.302904 207.495137 
L 107.328683 207.715138 
L 107.38024 208.136248 
L 107.431797 208.535388 
L 107.483354 208.915631 
L 107.534911 209.279392 
L 107.586469 209.628612 
L 107.626115 209.888266 
L 107.665761 210.140873 
L 107.745053 210.627013 
L 107.824344 211.090579 
L 107.903636 211.534379 
L 107.987869 211.98671 
L 108.072102 212.421512 
L 108.156334 212.840614 
L 108.240567 213.245549 
L 108.313678 213.586546 
L 108.38679 213.91858 
L 108.459902 214.242294 
L 108.533013 214.558256 
L 108.610334 214.884533 
L 108.687654 215.20324 
L 108.764974 215.514855 
L 108.842295 215.819807 
L 108.924421 216.136846 
L 109.006547 216.447222 
L 109.170799 217.049462 
L 109.302123 217.514641 
L 109.437365 217.979848 
L 109.572606 218.432077 
L 109.707848 218.872279 
L 109.84309 219.301292 
L 110.005545 219.802881 
L 110.168 220.290532 
L 110.347121 220.813249 
L 110.569372 221.44171 
L 110.791624 222.0497 
L 110.954789 222.484005 
L 111.206566 223.13564 
L 111.396453 223.61322 
L 111.58634 224.07967 
L 111.783139 224.552039 
L 111.979937 225.013792 
L 112.149782 225.404218 
L 112.319626 225.787516 
L 112.435146 226.044308 
L 112.668675 226.554187 
L 112.902205 227.052288 
L 113.156919 227.582905 
L 113.50549 228.288952 
L 113.706251 228.685671 
L 113.919508 229.099554 
L 114.132765 229.506001 
L 114.25617 229.737925 
L 114.498222 230.186111 
L 114.740274 230.625727 
L 115.019014 231.121837 
L 115.28956 231.593451 
L 115.721807 232.327764 
L 115.893432 232.613083 
L 116.161408 233.051802 
L 116.429384 233.482544 
L 116.731699 233.959291 
L 116.854892 234.15086 
L 117.301777 234.833158 
L 117.567102 235.229229 
L 117.898585 235.71503 
L 118.102806 236.009494 
L 118.327408 236.329226 
L 118.850441 237.057667 
L 119.158951 237.47718 
L 119.271305 237.628153 
L 119.716135 238.216699 
L 119.995914 238.579577 
L 120.288689 238.953486 
L 120.680142 239.444407 
L 120.971186 239.802927 
L 121.229059 240.116107 
L 121.605478 240.565909 
L 121.807875 240.804249 
L 122.292797 241.365586 
L 122.473837 241.571734 
L 122.900904 242.050876 
L 123.062397 242.229497 
L 123.498561 242.70508 
L 123.78817 243.015471 
L 124.2131 243.463327 
L 124.432416 243.691036 
L 124.825453 244.093395 
L 125.079855 244.349998 
L 125.418727 244.687227 
L 125.618605 244.883729 
L 126.120427 245.369387 
L 126.406974 245.641874 
L 126.488365 245.718643 
L 126.982437 246.178794 
L 127.114211 246.299846 
L 127.572576 246.715534 
L 128.014905 247.108915 
L 128.108356 247.191068 
L 128.599159 247.617154 
L 128.764707 247.758863 
L 129.028287 247.98243 
L 129.539303 248.40879 
L 129.61047 248.467437 
L 130.046353 248.82281 
L 130.437387 249.136101 
L 130.733536 249.369962 
L 130.94076 249.531881 
L 131.206631 249.737572 
L 131.666488 250.08798 
L 131.892842 250.257999 
L 132.385008 250.622175 
L 132.481337 250.692582 
L 132.843418 250.95471 
L 133.124865 251.155747 
L 133.539834 251.447888 
L 133.865068 251.673347 
L 134.01964 251.779431 
L 134.316123 251.981006 
L 134.861922 252.345624 
L 135.077233 252.487188 
L 135.244011 252.595968 
L 135.556008 252.797438 
L 135.975836 253.064409 
L 136.306371 253.271307 
L 136.548301 253.420927 
L 136.895441 253.63296 
L 137.250421 253.846583 
L 137.67561 254.098254 
L 137.862643 254.207524 
L 138.130424 254.362456 
L 138.664607 254.66626 
L 138.842077 254.765656 
L 139.228061 254.979219 
L 139.532576 255.1452 
L 139.753292 255.264136 
L 140.074221 255.435036 
L 140.495212 255.655597 
L 140.714626 255.768934 
L 140.87474 255.850947 
L 141.286639 256.059257 
L 141.747656 256.287891 
L 142.081591 256.450552 
L 142.427993 256.616695 
L 142.469463 256.636409 
L 142.840023 256.810911 
L 143.06657 256.916134 
L 143.484857 257.107524 
L 143.981789 257.330072 
L 144.248301 257.447289 
L 144.327478 257.481827 
L 144.706674 257.645429 
L 145.167335 257.840188 
L 145.509369 257.981986 
L 145.585439 258.013199 
L 146.088166 258.216543 
L 146.212696 258.266128 
L 146.524771 258.389029 
L 147.120059 258.618113 
L 147.224058 258.657418 
L 147.610418 258.801588 
L 147.852299 258.890366 
L 148.36677 259.075435 
L 148.479446 259.115289 
L 148.959821 259.282478 
L 149.114242 259.335291 
L 149.559308 259.484986 
L 149.904814 259.598629 
L 150.150863 259.678199 
L 150.306624 259.727989 
L 150.819435 259.888738 
L 150.938807 259.925461 
L 151.367592 260.055217 
L 151.72389 260.160485 
L 152.076073 260.262273 
L 152.311361 260.329028 
L 152.758287 260.453086 
L 152.941156 260.502816 
L 153.280095 260.593411 
L 153.582448 260.672505 
L 153.901879 260.75431 
L 154.170185 260.821632 
L 154.59633 260.925963 
L 154.682745 260.946732 
L 155.037379 261.030602 
L 155.304016 261.092221 
L 155.70056 261.181584 
L 155.992942 261.245735 
L 156.289095 261.309216 
L 156.582765 261.370679 
L 157.035972 261.462642 
L 157.260792 261.506964 
L 157.682329 261.587756 
L 158.051605 261.656063 
L 158.375301 261.714048 
L 158.54291 261.743381 
L 158.913299 261.80653 
L 159.298937 261.86984 
L 159.531357 261.906798 
L 159.907353 261.964683 
L 159.98726 261.976682 
L 160.330332 262.026997 
L 160.839915 262.098137 
L 160.923061 262.109338 
L 161.449162 262.177572 
L 161.638474 262.201011 
L 162.060736 262.251176 
L 162.199108 262.266979 
L 162.585926 262.309496 
L 162.976443 262.349942 
L 163.324568 262.383902 
L 163.626833 262.411789 
L 163.979793 262.442476 
L 164.0544 262.448704 
L 164.62872 262.493623 
L 164.774133 262.50415 
L 165.026361 262.521597 
L 165.401583 262.545651 
L 165.812462 262.569384 
L 166.020271 262.580351 
L 166.430677 262.599965 
L 166.581799 262.606505 
L 167.124272 262.626953 
L 167.461708 262.637286 
L 167.748336 262.644626 
L 167.836947 262.646628 
L 168.144057 262.65259 
L 168.454101 262.657074 
L 168.966932 262.661103 
L 169.2 262.661538 
z
" style="fill:#808080;opacity:0.5;"/>
   </g>
   <g id="patch_5">
    <path clip-path="url(#p9c6edcb421)" d="M 231.507692 192.006198 
L 231.270367 192.142524 
L 230.95077 192.323928 
L 230.719492 192.453654 
L 230.159598 192.762383 
L 229.965584 192.867623 
L 229.553154 193.088401 
L 229.196743 193.275999 
L 229.029418 193.36306 
L 228.725747 193.519425 
L 228.332347 193.718876 
L 227.987847 193.890675 
L 227.825283 193.970824 
L 227.400452 194.177514 
L 227.104099 194.319349 
L 226.681941 194.518093 
L 226.492133 194.606197 
L 226.075511 194.796876 
L 225.849693 194.898685 
L 225.588933 195.014908 
L 225.334641 195.126872 
L 224.854555 195.33458 
L 224.603752 195.441194 
L 224.247148 195.59056 
L 223.991766 195.695935 
L 223.740341 195.798386 
L 223.444371 195.917357 
L 223.193265 196.016918 
L 222.850398 196.150832 
L 222.362938 196.33722 
L 222.009791 196.469339 
L 221.704662 196.581538 
L 221.435958 196.67885 
L 221.093657 196.800803 
L 220.841905 196.889063 
L 220.656674 196.953231 
L 220.338071 197.062078 
L 220.072692 197.151277 
L 219.626708 197.298203 
L 219.171127 197.444457 
L 218.91448 197.525153 
L 218.664688 197.602527 
L 218.485465 197.657335 
L 218.164594 197.753991 
L 217.756308 197.874265 
L 217.431143 197.96789 
L 217.22129 198.0273 
L 216.656845 198.18317 
L 216.363306 198.26198 
L 216.114044 198.327699 
L 215.82404 198.402774 
L 215.458656 198.49525 
L 215.259473 198.544673 
L 214.806626 198.654451 
L 214.681497 198.684153 
L 214.201406 198.795587 
L 213.911365 198.860973 
L 213.776162 198.890956 
L 213.205011 199.014146 
L 212.879876 199.081775 
L 212.850553 199.087786 
L 212.364593 199.185262 
L 211.984035 199.258793 
L 211.880716 199.278333 
L 211.558907 199.338039 
L 211.248947 199.393895 
L 210.928481 199.449945 
L 210.57127 199.510394 
L 210.320927 199.551486 
L 209.859799 199.62444 
L 209.616119 199.661564 
L 209.120874 199.733979 
L 209.026531 199.747313 
L 208.771183 199.782666 
L 208.316937 199.842899 
L 207.929144 199.891634 
L 207.832475 199.903398 
L 207.255244 199.970456 
L 206.957839 200.002879 
L 206.904826 200.008507 
L 206.602622 200.039713 
L 206.052448 200.092705 
L 205.758124 200.119033 
L 205.406928 200.148609 
L 205.1067 200.172307 
L 204.751476 200.198462 
L 204.64117 200.206168 
L 204.415376 200.22133 
L 203.876994 200.254159 
L 203.626011 200.267866 
L 203.411643 200.278769 
L 203.142489 200.291411 
L 202.706732 200.309405 
L 202.370201 200.321212 
L 202.073107 200.330122 
L 201.84118 200.336092 
L 201.322675 200.346313 
L 201.1462 200.348808 
L 200.879084 200.351632 
L 200.580535 200.353434 
L 200.05858 200.353147 
L 199.9684 200.352654 
L 199.455292 200.347367 
L 199.236272 200.343823 
L 198.88853 200.336614 
L 198.481368 200.325704 
L 198.463912 200.325177 
L 197.897391 200.305405 
L 197.806375 200.301747 
L 197.284693 200.27821 
L 197.08457 200.268018 
L 196.861814 200.255914 
L 196.505856 200.234911 
L 196.03959 200.204305 
L 195.74315 200.183019 
L 195.359656 200.153372 
L 195.184068 200.139003 
L 194.833613 200.108828 
L 194.681058 200.09507 
L 194.150553 200.04428 
L 193.968384 200.025783 
L 193.585008 199.985086 
L 193.258949 199.948585 
L 192.881937 199.90421 
L 192.77399 199.891075 
L 192.398247 199.843864 
L 192.107626 199.805755 
L 191.817676 199.766348 
L 191.432529 199.711854 
L 191.253789 199.685731 
L 190.781076 199.614089 
L 190.344881 199.544683 
L 190.107897 199.505645 
L 189.86208 199.464159 
L 189.692657 199.434977 
L 189.274722 199.360928 
L 188.798998 199.27306 
L 188.709372 199.256077 
L 188.327944 199.182282 
L 187.973311 199.111454 
L 187.705842 199.056616 
L 187.317741 198.97487 
L 186.961587 198.897579 
L 186.762111 198.853335 
L 186.529501 198.800874 
L 186.049886 198.689746 
L 185.841004 198.640097 
L 185.375402 198.526686 
L 185.228722 198.490171 
L 184.71332 198.358859 
L 184.447456 198.289288 
L 184.384242 198.272562 
L 183.844856 198.126947 
L 183.56996 198.050734 
L 183.282788 197.969667 
L 182.97633 197.881515 
L 182.763489 197.819291 
L 182.378455 197.70463 
L 181.94128 197.571157 
L 181.614116 197.46897 
L 181.282461 197.363359 
L 181.220369 197.343359 
L 180.921956 197.24624 
L 180.440919 197.086173 
L 180.078387 196.962656 
L 180.000947 196.935949 
L 179.428752 196.735071 
L 179.330974 196.700117 
L 178.923826 196.552587 
L 178.695469 196.468437 
L 178.303501 196.321627 
L 178.000444 196.206054 
L 177.595037 196.048612 
L 177.37406 195.961419 
L 176.881724 195.763638 
L 176.68539 195.683405 
L 176.369638 195.55273 
L 176.20829 195.48517 
L 175.638344 195.242242 
L 175.319958 195.103607 
L 175.146342 195.027118 
L 174.690786 194.823402 
L 174.433988 194.706629 
L 174.247928 194.621145 
L 173.792732 194.40887 
L 173.690766 194.360705 
L 173.296337 194.17226 
L 172.883227 193.971225 
L 172.553033 193.807819 
L 172.378876 193.72065 
L 172.003736 193.530564 
L 171.636897 193.341591 
L 171.37966 193.207237 
L 171.060734 193.038536 
L 170.902656 192.95404 
L 170.471027 192.720331 
L 170.284385 192.617905 
L 169.969254 192.443076 
L 169.380162 192.109814 
L 169.2 192.006198 
L 169.2 262.661538 
L 169.420416 262.661149 
L 169.915592 262.657429 
L 170.279851 262.65218 
L 170.429933 262.649398 
L 170.76493 262.641883 
L 171.10255 262.632485 
L 171.395452 262.622847 
L 171.818197 262.606505 
L 171.99756 262.598703 
L 172.22058 262.588279 
L 172.749697 262.560342 
L 172.98754 262.546314 
L 173.330768 262.52446 
L 173.570941 262.508037 
L 174.031982 262.473895 
L 174.329766 262.450014 
L 174.505719 262.435227 
L 174.980191 262.392849 
L 175.279172 262.364266 
L 175.497272 262.342497 
L 175.644207 262.327395 
L 176.200197 262.267058 
L 176.310145 262.254528 
L 176.85614 262.18937 
L 177.126371 262.155312 
L 177.495599 262.106834 
L 177.800852 262.06506 
L 178.003145 262.036527 
L 178.352597 261.985644 
L 178.495018 261.964325 
L 179.05825 261.876715 
L 179.324091 261.833528 
L 179.433219 261.815458 
L 179.797091 261.753766 
L 180.050683 261.709459 
L 180.47587 261.632744 
L 180.833854 261.565789 
L 181.010282 261.531994 
L 181.406851 261.454102 
L 181.83834 261.366311 
L 182.14349 261.302305 
L 182.323733 261.263748 
L 182.531483 261.218615 
L 182.894561 261.137952 
L 183.398787 261.022149 
L 183.646002 260.963759 
L 183.942216 260.892393 
L 184.127606 260.846946 
L 184.470931 260.76119 
L 184.904031 260.650048 
L 185.018238 260.620187 
L 185.6261 260.457355 
L 185.75263 260.422631 
L 186.064046 260.335947 
L 186.292869 260.271142 
L 186.857289 260.107245 
L 186.980223 260.07078 
L 187.420753 259.937843 
L 187.713589 259.847506 
L 187.939722 259.776665 
L 188.214645 259.689264 
L 188.641152 259.550891 
L 188.874679 259.473687 
L 189.341833 259.316165 
L 189.564386 259.23967 
L 189.832197 259.146371 
L 190.310856 258.976199 
L 190.50148 258.907202 
L 190.797341 258.798721 
L 191.259654 258.625796 
L 191.430246 258.560931 
L 191.700978 258.456811 
L 191.909469 258.37564 
L 192.317888 258.214124 
L 192.544879 258.122913 
L 192.935519 257.963513 
L 193.266702 257.825947 
L 193.519388 257.71948 
L 193.981036 257.521571 
L 194.250406 257.404049 
L 194.558855 257.267614 
L 194.896601 257.115921 
L 195.160973 256.995495 
L 195.462412 256.856362 
L 195.805252 256.695741 
L 195.976407 256.614601 
L 196.324773 256.447475 
L 196.701938 256.263523 
L 197.125449 256.053198 
L 197.305472 255.962577 
L 197.774637 255.722959 
L 198.037815 255.586345 
L 198.41597 255.38725 
L 198.518937 255.332464 
L 198.907799 255.12332 
L 199.390232 254.858877 
L 199.419061 254.842899 
L 199.881487 254.583864 
L 200.134563 254.439901 
L 200.396667 254.289145 
L 200.795183 254.056667 
L 201.238648 253.793284 
L 201.445125 253.668952 
L 201.765851 253.473653 
L 201.929887 253.372739 
L 202.353633 253.1088 
L 202.58386 252.963412 
L 203.015507 252.687009 
L 203.411869 252.428759 
L 203.51419 252.361393 
L 203.815801 252.161131 
L 204.387465 251.77457 
L 204.457297 251.726714 
L 204.954257 251.38209 
L 205.288101 251.146537 
L 205.370779 251.087694 
L 205.697216 250.853368 
L 206.108542 250.553528 
L 206.538627 250.234458 
L 206.760768 250.067398 
L 207.129147 249.786916 
L 207.50801 249.4939 
L 207.854461 249.221843 
L 208.168118 248.972097 
L 208.459668 248.736973 
L 208.666274 248.568592 
L 209.037371 248.26243 
L 209.272398 248.066019 
L 209.573864 247.811191 
L 210.011046 247.435765 
L 210.324241 247.162449 
L 210.651721 246.872696 
L 210.689604 246.838911 
L 211.153369 246.420791 
L 211.603019 246.007241 
L 211.91929 245.711434 
L 211.994863 245.640138 
L 212.396249 245.257438 
L 212.693885 244.969208 
L 212.961948 244.706303 
L 213.46235 244.20693 
L 213.790258 243.873467 
L 213.877302 243.784103 
L 214.141281 243.510882 
L 214.637803 242.987807 
L 214.998297 242.60032 
L 215.355808 242.209431 
L 215.44419 242.111761 
L 215.864808 241.641183 
L 216.283957 241.16254 
L 216.518126 240.890786 
L 216.841216 240.510577 
L 217.100198 240.201299 
L 217.327908 239.92597 
L 217.579284 239.61825 
L 218.112804 238.951593 
L 218.438472 238.535274 
L 218.707559 238.185713 
L 218.831296 238.023237 
L 219.171056 237.571344 
L 219.509453 237.11262 
L 219.806247 236.702935 
L 220.087655 236.307915 
L 220.369063 235.906279 
L 220.488238 235.734139 
L 220.989531 234.996204 
L 221.317229 234.501217 
L 221.579778 234.097103 
L 221.907661 233.582614 
L 222.098684 233.277664 
L 222.489146 232.641854 
L 222.709927 232.274627 
L 223.034889 231.723469 
L 223.210829 231.419565 
L 223.474155 230.957189 
L 223.737481 230.485418 
L 224.035632 229.939349 
L 224.245213 229.547562 
L 224.454794 229.148919 
L 224.672378 228.727492 
L 224.874365 228.329078 
L 225.07959 227.916864 
L 225.284815 227.496839 
L 225.416312 227.223434 
L 225.712269 226.595264 
L 226.008225 225.948261 
L 226.20819 225.499717 
L 226.515701 224.790682 
L 226.714812 224.318297 
L 226.913923 223.834723 
L 227.076233 223.431761 
L 227.223498 223.05896 
L 227.370763 222.678964 
L 227.535235 222.245599 
L 227.699707 221.80222 
L 227.850585 221.386141 
L 228.001462 220.960557 
L 228.118305 220.624067 
L 228.235148 220.28121 
L 228.400108 219.785669 
L 228.565068 219.275717 
L 228.699684 218.848064 
L 228.8343 218.409282 
L 228.968916 217.958539 
L 229.103532 217.49489 
L 229.207151 217.128539 
L 229.297938 216.800315 
L 229.388725 216.464895 
L 229.479512 216.121819 
L 229.570299 215.770576 
L 229.68961 215.295585 
L 229.808922 214.804006 
L 229.942934 214.229887 
L 230.00994 213.933233 
L 230.076946 213.629614 
L 230.143952 213.31854 
L 230.210958 212.999461 
L 230.277964 212.671755 
L 230.34497 212.334715 
L 230.437365 211.853134 
L 230.529761 211.349708 
L 230.575959 211.088847 
L 230.622156 210.821283 
L 230.668354 210.546489 
L 230.714552 210.263863 
L 230.780162 209.847642 
L 230.845772 209.411841 
L 230.911383 208.953485 
L 230.944188 208.714696 
L 230.976993 208.468751 
L 231.013287 208.187496 
L 231.049581 207.895585 
L 231.085875 207.591729 
L 231.12217 207.274354 
L 231.158464 206.941508 
L 231.194758 206.590712 
L 231.231052 206.218749 
L 231.249199 206.023536 
L 231.267346 205.821298 
L 231.29739 205.468797 
L 231.312411 205.283034 
L 231.327433 205.089942 
L 231.342454 204.888587 
L 231.357476 204.677812 
L 231.372498 204.456168 
L 231.387519 204.221786 
L 231.402541 203.972191 
L 231.417563 203.703984 
L 231.425073 203.561456 
L 231.432584 203.412274 
L 231.440095 203.255413 
L 231.447606 203.089553 
L 231.455117 202.912942 
L 231.462627 202.72318 
L 231.470138 202.516808 
L 231.477649 202.288516 
L 231.48516 202.02937 
L 231.492671 201.721947 
L 231.500181 201.321269 
L 231.507692 200.353846 
z
" style="fill:#808080;opacity:0.5;"/>
   </g>
   <g id="matplotlib.axis_1"/>
   <g id="matplotlib.axis_2"/>
   <g id="line2d_1">
    <path clip-path="url(#p9c6edcb421)" d="M 106.892308 200.353846 
L 107.033159 204.541023 
L 107.38024 208.136248 
L 107.987869 211.98671 
L 108.842295 215.819807 
L 109.84309 219.301292 
L 110.954789 222.484005 
L 112.435146 226.044308 
L 114.132765 229.506001 
L 115.893432 232.613083 
L 117.898585 235.71503 
L 119.995914 238.579577 
L 122.473837 241.571734 
L 125.079855 244.349998 
L 127.572576 246.715534 
L 130.437387 249.136101 
L 133.539834 251.447888 
L 136.548301 253.420927 
L 139.753292 255.264136 
L 143.06657 256.916134 
L 146.524771 258.389029 
L 150.306624 259.727989 
L 153.901879 260.75431 
L 157.260792 261.506964 
L 160.923061 262.109338 
L 164.774133 262.50415 
L 168.454101 262.657074 
L 169.2 262.661538 
L 169.2 262.661538 
" style="fill:none;stroke:#228b22;stroke-linecap:square;"/>
   </g>
   <g id="line2d_2">
    <path clip-path="url(#p9c6edcb421)" d="M 169.2 262.661538 
L 172.98754 262.546314 
L 176.85614 262.18937 
L 180.47587 261.632744 
L 184.127606 260.846946 
L 187.713589 259.847506 
L 191.259654 258.625796 
L 194.558855 257.267614 
L 198.037815 255.586345 
L 201.445125 253.668952 
L 204.457297 251.726714 
L 207.50801 249.4939 
L 210.324241 247.162449 
L 212.961948 244.706303 
L 215.44419 242.111761 
L 217.579284 239.61825 
L 220.087655 236.307915 
L 222.098684 233.277664 
L 224.035632 229.939349 
L 225.712269 226.595264 
L 227.223498 223.05896 
L 228.400108 219.785669 
L 229.479512 216.121819 
L 230.34497 212.334715 
L 230.976993 208.468751 
L 231.357476 204.677812 
L 231.500181 201.321269 
L 231.507692 200.353846 
L 231.507692 200.353846 
" style="fill:none;stroke:#228b22;stroke-linecap:square;"/>
   </g>
   <g id="text_1">
    <!-- $\Omega$ -->
    <g transform="translate(16.011538 22.420913)scale(0.1 -0.1)">
     <defs>
      <path d="M 7.71875 0 
L 4.390625 16.609375 
L 7.328125 16.609375 
Q 7.859375 13.71875 8.296875 11.5 
Q 8.734375 9.28125 9.4375 8.375 
Q 10.15625 7.46875 11.71875 7.171875 
Q 13.28125 6.890625 16.890625 6.890625 
L 23 6.890625 
Q 21.53125 12.546875 15.6875 21.65625 
Q 9.859375 30.765625 7.734375 34.890625 
Q 5.609375 39.015625 5.609375 45.515625 
Q 5.609375 53.078125 10.09375 58.765625 
Q 14.59375 64.453125 21.703125 67.484375 
Q 28.8125 70.515625 36.078125 70.515625 
Q 43.3125 70.515625 50.40625 67.484375 
Q 57.515625 64.453125 62 58.71875 
Q 66.5 52.984375 66.5 45.515625 
Q 66.5 40.4375 64.640625 35.9375 
Q 62.796875 31.453125 59.90625 26.953125 
Q 57.03125 22.46875 53.6875 16.9375 
Q 50.34375 11.421875 49.125 6.890625 
L 55.171875 6.890625 
Q 58.84375 6.890625 60.453125 7.171875 
Q 62.0625 7.46875 62.734375 8.375 
Q 63.421875 9.28125 63.84375 11.5 
Q 64.265625 13.71875 64.796875 16.609375 
L 67.671875 16.609375 
L 64.40625 0 
L 46.6875 0 
Q 45.703125 0 45.703125 1.3125 
Q 45.703125 6.390625 46.9375 11.265625 
Q 48.1875 16.15625 50.625 23.09375 
Q 53.078125 30.03125 54.4375 35.328125 
Q 55.8125 40.625 55.8125 45.515625 
Q 55.8125 51.515625 53.46875 56.640625 
Q 51.125 61.765625 46.625 64.84375 
Q 42.140625 67.921875 36.078125 67.921875 
Q 26.953125 67.921875 21.625 61.40625 
Q 16.3125 54.890625 16.3125 45.515625 
Q 16.359375 40.375 17.53125 35.828125 
Q 18.703125 31.296875 21.3125 23.71875 
Q 23.921875 16.15625 25.171875 11.265625 
Q 26.421875 6.390625 26.421875 1.3125 
Q 26.421875 0 25.390625 0 
z
" id="Cmr10-173"/>
     </defs>
     <use transform="translate(0 0.484375)" xlink:href="#Cmr10-173"/>
    </g>
   </g>
   <g id="text_2">
    <!-- $A$ -->
    <g style="fill:#0000ff;" transform="translate(103.142308 78.497837)scale(0.1 -0.1)">
     <defs>
      <path d="M 4.5 0 
Q 3.515625 0 3.515625 1.3125 
Q 3.90625 3.515625 4.78125 3.515625 
Q 8.84375 3.515625 11.796875 5.125 
Q 14.75 6.734375 16.890625 10.109375 
Q 17.09375 10.296875 17.09375 10.296875 
L 52.78125 70.515625 
Q 53.5625 71.578125 54.6875 71.578125 
L 56 71.578125 
Q 56.296875 71.578125 56.59375 71.453125 
Q 56.890625 71.34375 57.109375 71.0625 
Q 57.328125 70.796875 57.328125 70.515625 
L 63.375 5.90625 
Q 63.375 5.46875 63.8125 4.59375 
Q 64.796875 3.515625 71.296875 3.515625 
Q 72.3125 3.515625 72.3125 2.203125 
Q 71.96875 0.875 71.75 0.4375 
Q 71.53125 0 70.609375 0 
L 45.609375 0 
Q 44.671875 0 44.671875 1.3125 
Q 45.21875 3.515625 46 3.515625 
Q 53.90625 3.515625 54.390625 6.203125 
L 52.875 22.703125 
L 28.21875 22.703125 
L 20.21875 9.28125 
Q 19.484375 8.203125 19.484375 6.78125 
Q 19.484375 5.03125 21.171875 4.265625 
Q 22.859375 3.515625 24.90625 3.515625 
Q 25.875 3.515625 25.875 2.203125 
Q 25.53125 0.78125 25.328125 0.390625 
Q 25.140625 0 24.21875 0 
z
M 30.171875 26.21875 
L 52.484375 26.21875 
L 49.515625 58.59375 
z
" id="Cmmi10-65"/>
     </defs>
     <use transform="translate(0 0.421875)" xlink:href="#Cmmi10-65"/>
    </g>
   </g>
   <g id="text_3">
    <!-- $B$ -->
    <g style="fill:#ff0000;" transform="translate(227.707692 78.497837)scale(0.1 -0.1)">
     <defs>
      <path d="M 4.984375 0 
Q 4 0 4 1.3125 
Q 4.046875 1.5625 4.1875 2.140625 
Q 4.34375 2.734375 4.578125 3.125 
Q 4.828125 3.515625 5.328125 3.515625 
Q 8.15625 3.515625 10.25 3.65625 
Q 12.359375 3.8125 13.8125 4.203125 
Q 14.984375 4.640625 15.71875 6.890625 
L 29.390625 61.8125 
Q 29.59375 62.796875 29.59375 63.1875 
Q 29.59375 64.265625 28.421875 64.40625 
Q 26.515625 64.796875 21.1875 64.796875 
Q 20.21875 64.796875 20.21875 66.109375 
Q 20.265625 66.359375 20.40625 66.96875 
Q 20.5625 67.578125 20.828125 67.9375 
Q 21.09375 68.3125 21.484375 68.3125 
L 57.328125 68.3125 
Q 60.59375 68.3125 63.796875 67.5 
Q 67 66.703125 69.703125 64.9375 
Q 72.40625 63.1875 74 60.5625 
Q 75.59375 57.953125 75.59375 54.5 
Q 75.59375 50.734375 73.65625 47.5 
Q 71.734375 44.28125 68.671875 41.890625 
Q 65.625 39.5 62.078125 37.953125 
Q 58.546875 36.421875 54.6875 35.6875 
Q 57.421875 35.6875 60.21875 34.609375 
Q 63.03125 33.546875 65.234375 31.6875 
Q 67.4375 29.828125 68.78125 27.234375 
Q 70.125 24.65625 70.125 21.6875 
Q 70.125 15.671875 65.921875 10.6875 
Q 61.71875 5.71875 55.34375 2.859375 
Q 48.96875 0 43.015625 0 
z
M 23.390625 4.296875 
Q 23.390625 3.515625 26.8125 3.515625 
L 41.109375 3.515625 
Q 46 3.515625 50.484375 6.21875 
Q 54.984375 8.9375 57.6875 13.421875 
Q 60.40625 17.921875 60.40625 22.796875 
Q 60.40625 25.78125 59.15625 28.4375 
Q 57.90625 31.109375 55.5625 32.640625 
Q 53.21875 34.1875 50.203125 34.1875 
L 30.71875 34.1875 
L 23.78125 6.5 
Q 23.390625 5.125 23.390625 4.296875 
z
M 31.390625 36.8125 
L 46.578125 36.8125 
Q 51.375 36.8125 55.890625 39.25 
Q 60.40625 41.703125 63.25 45.890625 
Q 66.109375 50.09375 66.109375 54.78125 
Q 66.109375 59.125 63.390625 61.953125 
Q 60.6875 64.796875 56.390625 64.796875 
L 42.671875 64.796875 
Q 39.984375 64.796875 39.0625 64.296875 
Q 38.140625 63.8125 37.5 61.375 
z
" id="Cmmi10-66"/>
     </defs>
     <use transform="translate(0 0.6875)" xlink:href="#Cmmi10-66"/>
    </g>
   </g>
   <g id="text_4">
    <!-- $C$ -->
    <g style="fill:#228b22;" transform="translate(150.023077 271.651683)scale(0.1 -0.1)">
     <defs>
      <path d="M 14.59375 21.578125 
Q 14.59375 15.578125 16.90625 11.015625 
Q 19.234375 6.453125 23.65625 3.875 
Q 28.078125 1.3125 34.078125 1.3125 
Q 40.375 1.3125 46.203125 4.53125 
Q 52.046875 7.765625 56.171875 13.15625 
Q 60.296875 18.5625 61.8125 24.609375 
Q 62.015625 25.203125 62.59375 25.203125 
L 63.8125 25.203125 
Q 64.203125 25.203125 64.453125 24.921875 
Q 64.703125 24.65625 64.703125 24.3125 
Q 64.703125 24.21875 64.59375 24.03125 
Q 62.890625 17.09375 57.984375 11.015625 
Q 53.078125 4.9375 46.234375 1.359375 
Q 39.40625 -2.203125 32.171875 -2.203125 
Q 24.359375 -2.203125 18.15625 1.3125 
Q 11.96875 4.828125 8.515625 11.078125 
Q 5.078125 17.328125 5.078125 25.203125 
Q 5.078125 33.59375 8.828125 41.8125 
Q 12.59375 50.046875 18.9375 56.46875 
Q 25.296875 62.890625 33.421875 66.703125 
Q 41.546875 70.515625 49.90625 70.515625 
Q 53.21875 70.515625 56.25 69.5 
Q 59.28125 68.5 61.859375 66.453125 
Q 64.453125 64.40625 66.109375 61.71875 
L 74.03125 70.3125 
Q 74.03125 70.515625 74.515625 70.515625 
L 75.09375 70.515625 
Q 75.484375 70.515625 75.734375 70.171875 
Q 75.984375 69.828125 75.984375 69.484375 
L 69.1875 42.484375 
Q 69.1875 41.796875 68.40625 41.796875 
L 66.609375 41.796875 
Q 65.828125 41.796875 65.828125 42.921875 
Q 66.21875 45.125 66.21875 48.1875 
Q 66.21875 53.078125 64.546875 57.390625 
Q 62.890625 61.71875 59.390625 64.359375 
Q 55.90625 67 50.875 67 
Q 42.71875 67 35.9375 62.890625 
Q 29.15625 58.796875 24.4375 52.125 
Q 19.734375 45.453125 17.15625 37.328125 
Q 14.59375 29.203125 14.59375 21.578125 
z
" id="Cmmi10-67"/>
     </defs>
     <use transform="translate(0 0.484375)" xlink:href="#Cmmi10-67"/>
    </g>
   </g>
   <g id="patch_6">
    <path clip-path="url(#p9c6edcb421)" d="M 138.046154 200.353846 
C 154.570347 200.353846 170.419977 193.788715 182.104346 182.104346 
C 193.788715 170.419977 200.353846 154.570347 200.353846 138.046154 
C 200.353846 121.521961 193.788715 105.672331 182.104346 93.987962 
C 170.419977 82.303593 154.570347 75.738462 138.046154 75.738462 
C 121.521961 75.738462 105.672331 82.303593 93.987962 93.987962 
C 82.303593 105.672331 75.738462 121.521961 75.738462 138.046154 
C 75.738462 154.570347 82.303593 170.419977 93.987962 182.104346 
C 105.672331 193.788715 121.521961 200.353846 138.046154 200.353846 
z
" style="fill:none;stroke:#0000ff;stroke-linejoin:miter;"/>
   </g>
   <g id="patch_7">
    <path clip-path="url(#p9c6edcb421)" d="M 200.353846 200.353846 
C 216.878039 200.353846 232.727669 193.788715 244.412038 182.104346 
C 256.096407 170.419977 262.661538 154.570347 262.661538 138.046154 
C 262.661538 121.521961 256.096407 105.672331 244.412038 93.987962 
C 232.727669 82.303593 216.878039 75.738462 200.353846 75.738462 
C 183.829653 75.738462 167.980023 82.303593 156.295654 93.987962 
C 144.611285 105.672331 138.046154 121.521961 138.046154 138.046154 
C 138.046154 154.570347 144.611285 170.419977 156.295654 182.104346 
C 167.980023 193.788715 183.829653 200.353846 200.353846 200.353846 
z
" style="fill:none;stroke:#ff0000;stroke-linejoin:miter;"/>
   </g>
   <g id="patch_8">
    <path clip-path="url(#p9c6edcb421)" d="M 169.2 262.661538 
C 185.724193 262.661538 201.573823 256.096407 213.258192 244.412038 
C 224.942561 232.727669 231.507692 216.878039 231.507692 200.353846 
C 231.507692 183.829653 224.942561 167.980023 213.258192 156.295654 
C 201.573823 144.611285 185.724193 138.046154 169.2 138.046154 
C 152.675807 138.046154 136.826177 144.611285 125.141808 156.295654 
C 113.457439 167.980023 106.892308 183.829653 106.892308 200.353846 
C 106.892308 216.878039 113.457439 232.727669 125.141808 244.412038 
C 136.826177 256.096407 152.675807 262.661538 169.2 262.661538 
z
" style="fill:none;stroke:#228b22;stroke-linejoin:miter;"/>
   </g>
  </g>
 </g>
 <defs>
  <clipPath id="p9c6edcb421">
   <rect height="324" width="324" x="7.2" y="7.2"/>
  </clipPath>
 </defs>
</svg>
