<?xml version="1.0" encoding="utf-8" standalone="no"?>
<!DOCTYPE svg PUBLIC "-//W3C//DTD SVG 1.1//EN"
  "http://www.w3.org/Graphics/SVG/1.1/DTD/svg11.dtd">
<svg xmlns:xlink="http://www.w3.org/1999/xlink" width="338.4pt" height="338.4pt" viewBox="0 0 338.4 338.4" xmlns="http://www.w3.org/2000/svg" version="1.1">
 <metadata>
  <rdf:RDF xmlns:dc="http://purl.org/dc/elements/1.1/" xmlns:cc="http://creativecommons.org/ns#" xmlns:rdf="http://www.w3.org/1999/02/22-rdf-syntax-ns#">
   <cc:Work>
    <dc:type rdf:resource="http://purl.org/dc/dcmitype/StillImage"/>
    <dc:date>2024-12-01T17:04:46.777390</dc:date>
    <dc:format>image/svg+xml</dc:format>
    <dc:creator>
     <cc:Agent>
      <dc:title>Matplotlib v3.6.3, https://matplotlib.org/</dc:title>
     </cc:Agent>
    </dc:creator>
   </cc:Work>
  </rdf:RDF>
 </metadata>
 <defs>
  <style type="text/css">*{stroke-linejoin: round; stroke-linecap: butt}</style>
 </defs>
 <g id="figure_1">
  <g id="patch_1">
   <path d="M -0 338.4 
L 338.4 338.4 
L 338.4 0 
L -0 0 
z
" style="fill: #ffffff"/>
  </g>
  <g id="axes_1">
   <g id="patch_2">
    <path d="M 7.2 331.2 
L 331.2 331.2 
L 331.2 7.2 
L 7.2 7.2 
z
" style="fill: #ffffff"/>
   </g>
   <g id="patch_3">
    <path d="M 13.430769 324.969231 
L 13.430769 13.430769 
L 324.969231 13.430769 
L 324.969231 324.969231 
L 13.430769 324.969231 
z
" clip-path="url(#p7a21c80793)" style="fill: none; stroke: #000000; stroke-linejoin: miter"/>
   </g>
   <g id="patch_4">
    <path d="M 200.353846 138.046154 
L 200.338393 139.433765 
L 200.32294 140.008411 
L 200.307487 140.449269 
L 200.292033 140.82086 
L 200.27658 141.148177 
L 200.261127 141.444039 
L 200.245674 141.716061 
L 200.230221 141.969207 
L 200.214768 142.206921 
L 200.199314 142.431716 
L 200.183861 142.645484 
L 200.168408 142.8497 
L 200.137502 143.233932 
L 200.106595 143.591433 
L 200.075689 143.92708 
L 200.044783 144.244423 
L 200.013876 144.546145 
L 199.98297 144.834329 
L 199.952064 145.110632 
L 199.921157 145.376397 
L 199.859345 145.880563 
L 199.802846 146.314138 
L 199.746346 146.725713 
L 199.689847 147.118285 
L 199.633348 147.494222 
L 199.574467 147.870368 
L 199.515586 148.232293 
L 199.456705 148.581464 
L 199.397824 148.919109 
L 199.338942 149.24627 
L 199.280061 149.563841 
L 199.162299 150.173204 
L 199.056462 150.694902 
L 198.950625 151.195067 
L 198.844788 151.67607 
L 198.738951 152.139872 
L 198.633114 152.588119 
L 198.527277 153.022209 
L 198.42144 153.443339 
L 198.315603 153.852544 
L 198.115574 154.596479 
L 197.915545 155.306065 
L 197.74582 155.88427 
L 197.576095 156.442747 
L 197.434706 156.894188 
L 197.293317 157.334031 
L 197.151928 157.76305 
L 197.010539 158.181939 
L 196.859874 158.617853 
L 196.70921 159.04364 
L 196.40788 159.867185 
L 196.231421 160.333442 
L 196.054962 160.788773 
L 195.828997 161.356913 
L 195.615611 161.879034 
L 195.402224 162.388088 
L 195.175096 162.916467 
L 194.947969 163.431819 
L 194.720841 163.934922 
L 194.493714 164.426478 
L 194.223092 164.997965 
L 193.900809 165.659665 
L 193.620403 166.219748 
L 193.339996 166.766174 
L 193.051049 167.315764 
L 192.762102 167.852421 
L 192.458805 168.402568 
L 192.155509 168.939943 
L 191.79902 169.556119 
L 191.437849 170.164301 
L 191.089033 170.737153 
L 190.740218 171.296479 
L 190.412952 171.809551 
L 190.101168 172.288292 
L 189.744301 172.824741 
L 189.404818 173.324138 
L 189.065334 173.813342 
L 188.535687 174.557187 
L 188.093127 175.161501 
L 187.705598 175.678429 
L 187.167016 176.378769 
L 186.884315 176.738305 
L 186.325689 177.433144 
L 185.943641 177.896866 
L 185.538284 178.379094 
L 185.132927 178.851599 
L 184.963386 179.04642 
L 184.186785 179.918468 
L 184.144428 179.965095 
L 183.357434 180.814558 
L 183.11077 181.074387 
L 182.538734 181.665631 
L 182.094194 182.114495 
L 181.66704 182.537353 
L 181.057752 183.126648 
L 180.706586 183.459104 
L 179.984768 184.126531 
L 179.699154 184.384864 
L 179.095016 184.920875 
L 178.57276 185.37313 
L 178.128803 185.749715 
L 177.803225 186.021395 
L 177.368606 186.378268 
L 176.840389 186.803264 
L 176.383477 187.163342 
L 176.018121 187.446338 
L 175.276876 188.007358 
L 175.125119 188.120088 
L 174.677457 188.448496 
L 174.232335 188.769016 
L 173.402726 189.350748 
L 172.914364 189.683896 
L 172.598049 189.896082 
L 171.943495 190.326349 
L 171.601785 190.546326 
L 171.364224 190.69741 
L 170.916283 190.978216 
L 170.418604 191.284045 
L 169.793813 191.658976 
L 169.183769 192.015566 
L 168.826529 192.220106 
L 168.305791 192.512684 
L 167.896389 192.738127 
L 167.579956 192.909649 
L 167.03226 193.200974 
L 166.337279 193.560663 
L 166.266507 193.596673 
L 165.583849 193.938227 
L 165.252011 194.100501 
L 164.809986 194.312892 
L 164.036713 194.674233 
L 163.574705 194.884007 
L 163.431131 194.948276 
L 162.967531 195.152839 
L 162.249085 195.461018 
L 161.747969 195.669695 
L 161.190185 195.89598 
L 161.108145 195.928734 
L 160.307718 196.241268 
L 160.030438 196.346581 
L 159.552953 196.524407 
L 159.247615 196.6358 
L 158.57806 196.873778 
L 158.103208 197.037366 
L 157.834695 197.12798 
L 157.116169 197.363799 
L 156.581224 197.533125 
L 156.380125 197.595411 
L 155.958236 197.723669 
L 155.31529 197.912885 
L 154.72887 198.078941 
L 154.159374 198.234298 
L 153.85194 198.315762 
L 153.302236 198.457249 
L 152.724104 198.600314 
L 152.661432 198.615471 
L 151.762763 198.825288 
L 151.64535 198.851667 
L 150.981675 198.996304 
L 150.473307 199.101984 
L 150.282271 199.140556 
L 149.449253 199.301503 
L 149.232866 199.34139 
L 148.700063 199.436241 
L 148.04191 199.546832 
L 147.784998 199.588037 
L 147.267503 199.667702 
L 146.875859 199.725039 
L 146.219644 199.815423 
L 146.096534 199.831588 
L 145.228091 199.938547 
L 144.921691 199.973333 
L 144.613318 200.006794 
L 143.905001 200.077778 
L 143.703749 200.096457 
L 143.285025 200.133212 
L 142.495634 200.194771 
L 142.262851 200.210999 
L 141.650109 200.24953 
L 141.285291 200.269594 
L 140.51222 200.305025 
L 140.218096 200.31598 
L 139.865961 200.327265 
L 139.531024 200.33615 
L 138.974137 200.346935 
L 138.218076 200.353609 
L 137.660502 200.352653 
L 137.425943 200.350759 
L 136.791907 200.341221 
L 136.591135 200.336855 
L 136.116027 200.323944 
L 135.705836 200.309879 
L 134.896498 200.274188 
L 134.422232 200.24837 
L 134.180252 200.2338 
L 133.800272 200.209013 
L 133.335321 200.175507 
L 132.544577 200.110485 
L 132.372431 200.094985 
L 131.825697 200.04256 
L 131.161213 199.972288 
L 130.88302 199.940726 
L 130.250682 199.864267 
L 129.815594 199.807844 
L 129.667748 199.787962 
L 128.906967 199.679942 
L 128.710467 199.650484 
L 128.11543 199.557366 
L 127.500823 199.454985 
L 127.126229 199.389481 
L 126.618187 199.296869 
L 126.000964 199.178485 
L 125.622851 199.102767 
L 125.158406 199.006424 
L 124.937686 198.959343 
L 124.48176 198.85944 
L 123.963385 198.741493 
L 123.179843 198.554346 
L 122.790299 198.457307 
L 122.559637 198.398588 
L 121.851271 198.212376 
L 121.385654 198.08511 
L 120.883423 197.943476 
L 120.695925 197.889433 
L 119.987735 197.679551 
L 119.574642 197.552891 
L 119.309611 197.469975 
L 118.498428 197.208092 
L 118.090817 197.071852 
L 117.638081 196.916852 
L 117.20488 196.764889 
L 116.559305 196.53174 
L 116.077954 196.352643 
L 115.747917 196.227226 
L 115.172275 196.003329 
L 114.732455 195.827812 
L 114.58042 195.766236 
L 113.709111 195.404299 
L 113.395974 195.270424 
L 113.055312 195.122474 
L 112.369613 194.817307 
L 111.940654 194.621337 
L 111.769849 194.54221 
L 111.276 194.309885 
L 110.618073 193.9921 
L 110.398683 193.884007 
L 109.760972 193.563692 
L 109.19685 193.272653 
L 108.721443 193.021693 
L 108.29694 192.793143 
L 107.939433 192.597358 
L 107.434501 192.315623 
L 106.892308 192.006198 
L 106.892308 84.086109 
L 107.432102 83.778038 
L 107.826862 83.557229 
L 108.412186 83.236698 
L 108.911083 82.969878 
L 109.102117 82.869245 
L 109.902522 82.456726 
L 110.391577 82.211819 
L 110.862767 81.980906 
L 110.932635 81.947084 
L 111.527718 81.663346 
L 111.956712 81.463563 
L 112.462946 81.232881 
L 113.111922 80.94508 
L 113.341287 80.845472 
L 113.885517 80.613479 
L 114.311886 80.435972 
L 114.665342 80.29162 
L 115.466506 79.973716 
L 115.592548 79.924866 
L 116.13267 79.719078 
L 116.865781 79.448882 
L 117.311035 79.289849 
L 117.836566 79.107023 
L 118.00192 79.050584 
L 118.740434 78.804803 
L 118.934374 78.741952 
L 119.469443 78.572174 
L 120.017841 78.403648 
L 120.355929 78.302497 
L 120.979573 78.121365 
L 121.361849 78.013808 
L 122.071051 77.821204 
L 122.620844 77.678047 
L 123.05591 77.568546 
L 123.515171 77.456558 
L 123.806297 77.387478 
L 124.287127 77.276608 
L 124.785797 77.16585 
L 125.255749 77.065386 
L 125.73949 76.965923 
L 126.224243 76.870252 
L 126.441382 76.828691 
L 127.304779 76.671311 
L 127.617736 76.617361 
L 127.836688 76.580592 
L 128.453206 76.48136 
L 129.194273 76.370448 
L 129.618185 76.311092 
L 129.677868 76.302974 
L 130.34999 76.215598 
L 130.797996 76.161481 
L 131.210361 76.114575 
L 131.78485 76.053859 
L 132.375122 75.997077 
L 132.523089 75.983731 
L 133.177833 75.928942 
L 133.511164 75.903718 
L 134.148873 75.860466 
L 134.758624 75.825252 
L 135.054722 75.810313 
L 135.595946 75.786657 
L 135.882956 75.776024 
L 136.562124 75.756137 
L 136.901297 75.74898 
L 137.29777 75.742956 
L 138.073329 75.738467 
L 138.302737 75.73899 
L 138.870021 75.743909 
L 139.160406 75.748425 
L 139.612938 75.758164 
L 140.404946 75.783126 
L 140.701144 75.795053 
L 141.007703 75.808884 
L 141.833642 75.853683 
L 142.165486 75.874781 
L 142.50531 75.89823 
L 142.965419 75.932956 
L 143.646432 75.990651 
L 143.790152 76.003789 
L 144.568628 76.080794 
L 144.836339 76.109558 
L 145.471041 76.182436 
L 145.883412 76.233324 
L 146.505317 76.315359 
L 146.838528 76.361936 
L 147.433487 76.449673 
L 147.709018 76.492295 
L 148.336753 76.594123 
L 148.677163 76.652097 
L 148.929918 76.696401 
L 149.63628 76.825916 
L 149.97975 76.891941 
L 150.458905 76.987394 
L 150.935122 77.086142 
L 151.588691 77.227997 
L 151.754825 77.265229 
L 152.285519 77.387362 
L 152.870462 77.527657 
L 153.302518 77.635129 
L 153.794948 77.761628 
L 154.167129 77.860087 
L 154.795749 78.031992 
L 155.208691 78.148776 
L 155.868644 78.341821 
L 156.026926 78.389299 
L 156.53024 78.543321 
L 156.923427 78.666889 
L 157.609078 78.889239 
L 157.934496 78.997848 
L 158.548956 79.20838 
L 158.898531 79.331361 
L 159.328472 79.485831 
L 160.070305 79.760776 
L 160.5184 79.93207 
L 160.817271 80.048527 
L 161.426906 80.291596 
L 161.618607 80.369573 
L 162.36457 80.680109 
L 162.976946 80.943578 
L 163.19975 81.041372 
L 163.847178 81.331467 
L 164.239635 81.51165 
L 164.508636 81.637063 
L 165.144585 81.939795 
L 165.779628 82.250967 
L 166.245645 82.485041 
L 166.453006 82.590773 
L 166.782999 82.761054 
L 167.253624 83.008238 
L 168.072279 83.450547 
L 168.353305 83.606048 
L 168.952192 83.943794 
L 169.336429 84.165107 
L 170.012582 84.563484 
L 170.133105 84.635705 
L 170.708849 84.98584 
L 171.068649 85.209014 
L 171.875832 85.72215 
L 172.372813 86.046837 
L 172.878873 86.384464 
L 173.22457 86.619239 
L 173.4083 86.745402 
L 174.150198 87.264794 
L 174.480332 87.501132 
L 174.961163 87.851228 
L 175.449786 88.214269 
L 175.784555 88.467312 
L 176.582054 89.084608 
L 176.848231 89.295284 
L 177.38436 89.726861 
L 177.653903 89.94756 
L 178.386294 90.560139 
L 178.60362 90.745621 
L 179.40858 91.44789 
L 179.590317 91.609842 
L 180.336776 92.288621 
L 180.803885 92.724802 
L 181.224053 93.124917 
L 181.557661 93.447978 
L 181.844696 93.729834 
L 182.540721 94.428704 
L 182.79808 94.692797 
L 183.277385 95.1931 
L 184.103881 96.082666 
L 184.205996 96.195019 
L 184.662666 96.704295 
L 185.183733 97.29941 
L 185.597562 97.783117 
L 186.01139 98.277012 
L 186.321551 98.654091 
L 186.616053 99.017786 
L 187.259964 99.832944 
L 187.50486 100.150443 
L 188.035995 100.853893 
L 188.392751 101.338271 
L 188.749507 101.832641 
L 189.296334 102.610754 
L 189.643471 103.118151 
L 190.003178 103.655513 
L 190.303056 104.112915 
L 190.748048 104.808241 
L 191.193041 105.524516 
L 191.620754 106.234038 
L 192.129393 107.106668 
L 192.518553 107.797083 
L 192.816086 108.339201 
L 193.182029 109.024027 
L 193.518221 109.6719 
L 193.854413 110.338994 
L 194.151716 110.946073 
L 194.44902 111.570406 
L 194.518443 111.718808 
L 194.731978 112.181779 
L 194.945513 112.654985 
L 195.159048 113.13901 
L 195.372584 113.634497 
L 195.597161 114.168755 
L 195.915876 114.951918 
L 196.087842 115.387579 
L 196.259807 115.833115 
L 196.431772 116.28913 
L 196.603738 116.756299 
L 196.766971 117.210747 
L 196.930204 117.676639 
L 197.128564 118.259356 
L 197.326923 118.861814 
L 197.474042 119.322516 
L 197.621161 119.796029 
L 197.76828 120.283378 
L 197.915399 120.785735 
L 198.040338 121.225144 
L 198.165278 121.677297 
L 198.290217 122.143281 
L 198.415157 122.62435 
L 198.581308 123.290015 
L 198.747459 123.989126 
L 198.830535 124.352815 
L 198.913611 124.726949 
L 198.996687 125.112435 
L 199.079762 125.510318 
L 199.201214 126.116896 
L 199.322665 126.757322 
L 199.38339 127.092071 
L 199.444116 127.437725 
L 199.504842 127.795388 
L 199.565567 128.166362 
L 199.614093 128.473412 
L 199.662619 128.790897 
L 199.711144 129.11993 
L 199.75967 129.46184 
L 199.833942 130.01386 
L 199.871078 130.304883 
L 199.908214 130.607469 
L 199.94535 130.923091 
L 199.982486 131.253564 
L 200.019622 131.601175 
L 200.056758 131.968862 
L 200.093894 132.360518 
L 200.13103 132.781492 
L 200.149598 133.005248 
L 200.168166 133.23948 
L 200.186734 133.485803 
L 200.205302 133.746293 
L 200.22387 134.023702 
L 200.242438 134.321809 
L 200.261006 134.646055 
L 200.279574 135.004786 
L 200.298142 135.412056 
L 200.31671 135.895261 
L 200.335278 136.52513 
z
" clip-path="url(#p7a21c80793)" style="fill: #808080; opacity: 0.5"/>
   </g>
   <g id="patch_5">
    <path d="M 75.738462 138.046154 
L 75.738462 138.046154 
L 75.741879 137.393538 
L 75.745297 137.123228 
L 75.748715 136.915821 
L 75.752133 136.740976 
L 75.755551 136.58694 
L 75.758969 136.447687 
L 75.762387 136.319636 
L 75.765805 136.200454 
L 75.769222 136.088521 
L 75.77264 135.982656 
L 75.776058 135.881969 
L 75.779476 135.785767 
L 75.782894 135.693501 
L 75.786312 135.604724 
L 75.793147 135.436227 
L 75.799983 135.277985 
L 75.806819 135.128327 
L 75.813655 134.985996 
L 75.82049 134.85001 
L 75.827326 134.719594 
L 75.834162 134.594114 
L 75.840998 134.473051 
L 75.847833 134.355971 
L 75.858587 134.178976 
L 75.869341 134.009764 
L 75.880095 133.847393 
L 75.890848 133.691098 
L 75.901602 133.540247 
L 75.912356 133.39431 
L 75.923109 133.252839 
L 75.933863 133.115448 
L 75.944617 132.981806 
L 75.955371 132.851623 
L 75.976878 132.60065 
L 75.998385 132.360826 
L 76.019893 132.130795 
L 76.035394 131.970446 
L 76.050896 131.81426 
L 76.066397 131.661931 
L 76.081899 131.51319 
L 76.0974 131.367796 
L 76.112902 131.225537 
L 76.143905 130.94967 
L 76.174908 130.684263 
L 76.205911 130.428224 
L 76.236914 130.180637 
L 76.267917 129.940727 
L 76.307428 129.64507 
L 76.346939 129.359649 
L 76.371888 129.184247 
L 76.396836 129.012319 
L 76.446734 128.678123 
L 76.496771 128.354816 
L 76.546809 128.042202 
L 76.596846 127.739308 
L 76.646883 127.445301 
L 76.701773 127.13215 
L 76.756663 126.828006 
L 76.811553 126.532154 
L 76.866443 126.243971 
L 76.938158 125.878108 
L 77.009872 125.52334 
L 77.069484 125.236226 
L 77.129095 124.955679 
L 77.184319 124.701282 
L 77.239543 124.451869 
L 77.294767 124.20717 
L 77.34999 123.96694 
L 77.398715 123.758514 
L 77.447439 123.553248 
L 77.545917 123.147499 
L 77.644396 122.753144 
L 77.744328 122.363731 
L 77.844261 121.984378 
L 77.856179 121.939776 
L 77.972554 121.511007 
L 78.088928 121.093878 
L 78.188027 120.747218 
L 78.287126 120.407926 
L 78.366179 120.142268 
L 78.464842 119.816624 
L 78.563504 119.497221 
L 78.643381 119.242985 
L 78.723259 118.992476 
L 78.807456 118.732294 
L 78.94655 118.310772 
L 79.085643 117.899027 
L 79.222521 117.502816 
L 79.351865 117.136134 
L 79.449853 116.863095 
L 79.54784 116.593978 
L 79.707494 116.16353 
L 79.767222 116.00495 
L 79.875388 115.721045 
L 79.983553 115.441223 
L 80.115889 115.104208 
L 80.235786 114.803739 
L 80.355683 114.507715 
L 80.397197 114.406224 
L 80.582952 113.958213 
L 80.788824 113.472863 
L 80.929149 113.148436 
L 81.122796 112.708833 
L 81.277357 112.364405 
L 81.325104 112.259122 
L 81.547935 111.7745 
L 81.706744 111.43564 
L 81.876427 111.079317 
L 82.0445 110.731994 
L 82.091938 110.634946 
L 82.229214 110.356486 
L 82.366489 110.081472 
L 82.453448 109.908997 
L 82.603637 109.614203 
L 82.857896 109.123763 
L 82.955863 108.937592 
L 83.157454 108.559223 
L 83.274392 108.342575 
L 83.372241 108.162852 
L 83.559529 107.822715 
L 83.662576 107.637685 
L 83.818164 107.361082 
L 84.014657 107.016396 
L 84.119558 106.834444 
L 84.416683 106.326627 
L 84.494827 106.194876 
L 84.651066 105.933647 
L 84.83448 105.630628 
L 84.954748 105.434022 
L 85.191941 105.050992 
L 85.295624 104.885483 
L 85.367831 104.770896 
L 85.651706 104.325681 
L 85.698836 104.252563 
L 85.934297 103.890584 
L 86.054043 103.708581 
L 86.195261 103.495706 
L 86.310773 103.322979 
L 86.556137 102.960165 
L 86.772535 102.644678 
L 86.825591 102.567957 
L 86.970724 102.359335 
L 87.222425 102.001777 
L 87.385396 101.773077 
L 87.551315 101.542459 
L 87.634995 101.426984 
L 87.862118 101.116341 
L 87.994562 100.937035 
L 88.13866 100.743465 
L 88.232737 100.617929 
L 88.35836 100.451319 
L 88.632 100.092368 
L 88.659908 100.05606 
L 88.898482 99.747918 
L 89.112279 99.475123 
L 89.215973 99.343933 
L 89.415636 99.093346 
L 89.490616 98.999921 
L 89.745571 98.684977 
L 89.779826 98.64298 
L 89.958864 98.424682 
L 90.192665 98.142619 
L 90.327415 97.981575 
L 90.520679 97.752509 
L 90.555491 97.711485 
L 90.719471 97.519204 
L 90.931397 97.273023 
L 91.023168 97.167218 
L 91.193802 96.971763 
L 91.422366 96.7125 
L 91.600451 96.51249 
L 91.738998 96.358076 
L 91.820304 96.267938 
L 91.970101 96.102789 
L 92.251604 95.795619 
L 92.397295 95.638252 
L 92.51783 95.508874 
L 92.641349 95.377052 
L 92.791642 95.217686 
L 92.892774 95.111077 
L 93.099176 94.895051 
L 93.210968 94.778908 
L 93.498745 94.482673 
L 93.586031 94.393593 
L 93.809762 94.166886 
L 93.835504 94.14095 
L 94.091495 93.884672 
L 94.17351 93.803192 
L 94.396095 93.583576 
L 94.456418 93.524435 
L 94.682855 93.30386 
L 94.821176 93.170216 
L 94.935968 93.05993 
L 95.098395 92.904836 
L 95.339572 92.6766 
L 95.526429 92.501434 
L 95.586352 92.445565 
L 95.764615 92.280228 
L 96.004047 92.060181 
L 96.138517 91.937602 
L 96.176416 91.903185 
L 96.376948 91.722016 
L 96.490256 91.620343 
L 96.682072 91.44936 
L 96.85905 91.292854 
L 97.101133 91.080701 
L 97.209153 90.986746 
L 97.398605 90.82301 
L 97.466676 90.764503 
L 97.617553 90.63543 
L 97.776046 90.500734 
L 97.928425 90.37209 
L 98.125568 90.206888 
L 98.333011 90.034543 
L 98.480945 89.912561 
L 98.637994 89.783897 
L 98.673673 89.754786 
L 98.9046 89.567423 
L 99.08028 89.426105 
L 99.154896 89.366398 
L 99.434515 89.144315 
L 99.522316 89.075117 
L 99.681092 88.950629 
L 99.914517 88.769112 
L 99.93097 88.756385 
L 100.155007 88.583951 
L 100.380918 88.411705 
L 100.470371 88.34395 
L 100.572359 88.267009 
L 100.830552 88.073686 
L 100.91401 88.011641 
L 101.109319 87.867286 
L 101.268092 87.750799 
L 101.484548 87.59323 
L 101.506952 87.577003 
L 101.743061 87.406901 
L 101.867525 87.317904 
L 102.041366 87.194372 
L 102.134795 87.128349 
L 102.391921 86.947972 
L 102.565853 86.827048 
L 102.674241 86.752136 
L 102.747124 86.701953 
L 102.909663 86.590585 
L 103.190029 86.400253 
L 103.229469 86.373656 
L 103.441851 86.231187 
L 103.558042 86.153778 
L 103.748722 86.027554 
L 103.908502 85.922558 
L 104.086692 85.806289 
L 104.260156 85.693934 
L 104.371027 85.622549 
L 104.58854 85.483462 
L 104.641489 85.449796 
L 104.803957 85.346962 
L 105.016928 85.213221 
L 105.193597 85.103184 
L 105.283796 85.04732 
L 105.493196 84.918445 
L 105.633712 84.832602 
L 105.722841 84.778415 
L 105.927293 84.654888 
L 106.050139 84.581179 
L 106.252604 84.460534 
L 106.390649 84.378868 
L 106.524582 84.300093 
L 106.692218 84.202127 
L 106.892308 84.086109 
L 106.892308 138.046154 
z
" clip-path="url(#p7a21c80793)" style="fill: #808080; opacity: 0.5"/>
   </g>
   <g id="patch_6">
    <path d="M 75.738462 138.046154 
L 75.738462 138.046154 
L 75.744523 138.915254 
L 75.750585 139.275217 
L 75.756646 139.551407 
L 75.762708 139.784228 
L 75.76877 139.989332 
L 75.774831 140.174747 
L 75.780893 140.345242 
L 75.786955 140.503922 
L 75.793016 140.652948 
L 75.799078 140.793889 
L 75.805139 140.927932 
L 75.811201 141.056 
L 75.817263 141.178825 
L 75.823324 141.297001 
L 75.829386 141.411019 
L 75.835448 141.521287 
L 75.847571 141.731909 
L 75.859694 141.931092 
L 75.871817 142.120513 
L 75.883941 142.301476 
L 75.896064 142.475018 
L 75.908187 142.64198 
L 75.92031 142.803054 
L 75.932434 142.95882 
L 75.948488 143.157753 
L 75.964543 143.34918 
L 75.980597 143.533887 
L 75.996652 143.712531 
L 76.012707 143.885669 
L 76.028761 144.053775 
L 76.044816 144.217263 
L 76.06087 144.376488 
L 76.086049 144.618362 
L 76.111228 144.851552 
L 76.136406 145.076921 
L 76.161585 145.2952 
L 76.186764 145.507011 
L 76.211943 145.712889 
L 76.237121 145.913301 
L 76.2623 146.108655 
L 76.288444 146.306526 
L 76.314587 146.499686 
L 76.340731 146.688451 
L 76.366875 146.873102 
L 76.395084 147.068022 
L 76.423293 147.258732 
L 76.451503 147.445488 
L 76.479712 147.628522 
L 76.518307 147.873289 
L 76.556902 148.111957 
L 76.595496 148.344951 
L 76.634091 148.572648 
L 76.69402 148.91649 
L 76.753949 149.249464 
L 76.813878 149.572512 
L 76.873807 149.886446 
L 76.932527 150.185886 
L 76.991246 150.477838 
L 77.043467 150.731608 
L 77.095688 150.980188 
L 77.162467 151.29097 
L 77.229245 151.594296 
L 77.296024 151.890655 
L 77.362802 152.180487 
L 77.382697 152.265632 
L 77.444277 152.525831 
L 77.505857 152.781179 
L 77.567437 153.031923 
L 77.629016 153.278292 
L 77.728681 153.668284 
L 77.828345 154.048155 
L 77.919802 154.38844 
L 78.00151 154.686142 
L 78.083217 154.978217 
L 78.193491 155.363984 
L 78.303764 155.740655 
L 78.337306 155.853511 
L 78.410934 156.098551 
L 78.484562 156.340013 
L 78.591632 156.685049 
L 78.698703 157.023208 
L 78.789507 157.304873 
L 78.88031 157.582056 
L 79.010096 157.970821 
L 79.115849 158.281463 
L 79.224437 158.594976 
L 79.333024 158.903212 
L 79.472701 159.292309 
L 79.613078 159.675397 
L 79.762234 160.074163 
L 79.873675 160.366798 
L 79.985116 160.655098 
L 80.127169 161.016564 
L 80.252293 161.329586 
L 80.406069 161.707708 
L 80.609614 162.197601 
L 80.761327 162.555278 
L 80.854222 162.771272 
L 80.990233 163.083533 
L 81.126243 163.391218 
L 81.142773 163.428309 
L 81.280959 163.735864 
L 81.419145 164.039046 
L 81.527048 164.272842 
L 81.714711 164.673528 
L 81.797091 164.847113 
L 82.002089 165.273186 
L 82.154598 165.5849 
L 82.359326 165.996569 
L 82.470032 166.216052 
L 82.596629 166.464435 
L 82.843022 166.940146 
L 82.908874 167.065611 
L 83.110321 167.445181 
L 83.286026 167.771176 
L 83.386647 167.955798 
L 83.567926 168.284725 
L 83.68128 168.48805 
L 83.836199 168.763076 
L 84.091585 169.209483 
L 84.148698 169.308156 
L 84.325997 169.611852 
L 84.437442 169.800753 
L 84.641441 170.142652 
L 84.777198 170.367461 
L 84.936576 170.628685 
L 85.191696 171.040922 
L 85.222198 171.089735 
L 85.468557 171.48034 
L 85.576957 171.6502 
L 85.75407 171.925151 
L 85.986821 172.281726 
L 86.094786 172.445339 
L 86.183047 172.578264 
L 86.305818 172.761945 
L 86.573571 173.157716 
L 86.705203 173.349912 
L 86.8837 173.608098 
L 87.043237 173.836529 
L 87.1393 173.973035 
L 87.258491 174.141331 
L 87.544208 174.540017 
L 87.643367 174.676846 
L 87.81972 174.918283 
L 88.017134 175.185697 
L 88.155097 175.370823 
L 88.275832 175.531666 
L 88.349728 175.629578 
L 88.509667 175.840135 
L 88.753312 176.157363 
L 88.926801 176.380703 
L 89.062804 176.554334 
L 89.274626 176.822262 
L 89.298726 176.852556 
L 89.587071 177.21203 
L 89.735397 177.394842 
L 89.774278 177.44253 
L 90.013347 177.733658 
L 90.113467 177.854521 
L 90.278574 178.052489 
L 90.482037 178.294176 
L 90.556968 178.382561 
L 90.756692 178.616528 
L 90.860665 178.737408 
L 91.043071 178.947972 
L 91.249798 179.18433 
L 91.440608 179.400375 
L 91.551867 179.525423 
L 91.663341 179.650038 
L 91.893043 179.904711 
L 91.998266 180.020438 
L 92.161771 180.199113 
L 92.30194 180.351182 
L 92.517294 180.582861 
L 92.673945 180.749915 
L 92.792276 180.875291 
L 92.904131 180.993171 
L 93.051469 181.14751 
L 93.209073 181.311437 
L 93.400165 181.5086 
L 93.627273 181.740679 
L 93.756055 181.871211 
L 93.965082 182.081453 
L 94.058089 182.174361 
L 94.163119 182.278809 
L 94.349704 182.463142 
L 94.518463 182.628535 
L 94.60314 182.711051 
L 94.848892 182.948772 
L 94.943739 183.039824 
L 95.222905 183.305604 
L 95.244446 183.325976 
L 95.520527 183.585363 
L 95.61436 183.672806 
L 95.812366 183.856149 
L 95.872123 183.911169 
L 96.048203 184.072458 
L 96.212733 184.222051 
L 96.431746 184.419525 
L 96.565751 184.539429 
L 96.697029 184.656222 
L 96.869297 184.808478 
L 96.966091 184.893533 
L 97.246358 185.137822 
L 97.296943 185.1816 
L 97.469985 185.330645 
L 97.693844 185.521828 
L 97.814318 185.623963 
L 98.039477 185.813447 
L 98.15073 185.906405 
L 98.294001 186.025471 
L 98.394523 186.108579 
L 98.637663 186.308141 
L 98.757972 186.40613 
L 98.918237 186.535891 
L 99.018011 186.616233 
L 99.281624 186.826885 
L 99.327883 186.86361 
L 99.543479 187.033831 
L 99.73109 187.180708 
L 99.923836 187.330405 
L 100.046242 187.424846 
L 100.22627 187.562867 
L 100.384717 187.683485 
L 100.395676 187.691799 
L 100.670833 187.899277 
L 100.781526 187.982073 
L 100.865093 188.044327 
L 101.168127 188.268257 
L 101.20754 188.297174 
L 101.437366 188.464852 
L 101.563294 188.556048 
L 101.654737 188.621971 
L 101.865963 188.77329 
L 101.988899 188.860747 
L 102.214506 189.020084 
L 102.311146 189.087879 
L 102.460094 189.191837 
L 102.595495 189.28578 
L 102.851277 189.461805 
L 102.993751 189.559041 
L 103.200694 189.699251 
L 103.334744 189.789429 
L 103.479833 189.886466 
L 103.54903 189.932539 
L 103.815622 190.108801 
L 103.85198 190.132688 
L 104.117969 190.306337 
L 104.303558 190.426358 
L 104.317817 190.43554 
L 104.582114 190.604755 
L 104.699061 190.679032 
L 104.919066 190.81778 
L 105.049195 190.899245 
L 105.23817 191.016756 
L 105.403319 191.118688 
L 105.4664 191.157435 
L 105.675006 191.284836 
L 105.813973 191.369086 
L 105.876376 191.406757 
L 106.093171 191.536858 
L 106.299679 191.659677 
L 106.388302 191.712055 
L 106.558277 191.811962 
L 106.713955 191.902832 
L 106.892308 192.006198 
L 106.892308 138.046154 
z
" clip-path="url(#p7a21c80793)" style="fill: #808080; opacity: 0.5"/>
   </g>
   <g id="patch_7">
    <path d="M 231.507692 192.006198 
L 230.858665 192.375746 
L 230.367697 192.64851 
L 230.067418 192.812495 
L 229.715472 193.001986 
L 229.169413 193.290263 
L 228.466619 193.651194 
L 228.057475 193.856166 
L 227.695334 194.03447 
L 227.152114 194.296499 
L 226.677467 194.520179 
L 226.234969 194.724333 
L 225.960572 194.848831 
L 225.284705 195.1487 
L 225.149004 195.207755 
L 224.697568 195.401465 
L 224.039198 195.676464 
L 223.656499 195.832267 
L 223.170652 196.025822 
L 222.726056 196.198821 
L 222.202282 196.397627 
L 221.773507 196.556381 
L 220.987016 196.838337 
L 220.799843 196.903691 
L 220.379116 197.048163 
L 219.762037 197.254013 
L 219.243274 197.421553 
L 218.672164 197.600228 
L 218.136228 197.762445 
L 217.797016 197.862409 
L 217.539937 197.936778 
L 216.898335 198.117182 
L 216.532732 198.21668 
L 216.044181 198.345921 
L 215.405379 198.508538 
L 214.953928 198.619136 
L 214.588384 198.706079 
L 214.033858 198.833536 
L 213.574759 198.935036 
L 213.252605 199.004095 
L 212.569988 199.144553 
L 212.078107 199.240845 
L 211.851273 199.283869 
L 211.43768 199.360077 
L 210.963872 199.44384 
L 210.295083 199.555668 
L 209.800465 199.633571 
L 209.613841 199.661907 
L 209.071193 199.741019 
L 208.532461 199.814744 
L 207.794218 199.908011 
L 207.770809 199.910822 
L 206.970737 200.001503 
L 206.813455 200.018099 
L 205.994945 200.097959 
L 205.529215 200.138537 
L 205.370269 200.151581 
L 204.588671 200.209767 
L 204.469765 200.217753 
L 203.76431 200.260439 
L 203.222318 200.287783 
L 203.001685 200.297559 
L 202.37013 200.321214 
L 201.883019 200.335079 
L 201.481475 200.343642 
L 200.8475 200.351891 
L 200.435146 200.353793 
L 199.979355 200.352721 
L 199.675067 200.350149 
L 198.902408 200.336938 
L 198.659235 200.330797 
L 198.225945 200.3175 
L 197.801392 200.301543 
L 197.357851 200.281775 
L 196.59298 200.24024 
L 196.143174 200.211408 
L 195.927435 200.196419 
L 195.333465 200.151261 
L 194.874856 200.112483 
L 194.390231 200.067794 
L 193.972804 200.026238 
L 193.478435 199.973347 
L 193.154484 199.936522 
L 192.297253 199.830778 
L 192.285281 199.829216 
L 191.809188 199.765173 
L 191.285898 199.690463 
L 190.744619 199.608409 
L 190.279121 199.533945 
L 189.586094 199.416375 
L 189.28944 199.363586 
L 188.579321 199.231194 
L 188.159329 199.148873 
L 187.91202 199.098996 
L 187.395238 198.9914 
L 186.826573 198.867708 
L 186.395372 198.770198 
L 185.811132 198.632935 
L 185.54765 198.569084 
L 185.023488 198.438444 
L 184.352036 198.264013 
L 184.307038 198.252038 
L 183.494462 198.029566 
L 183.169343 197.937233 
L 182.56158 197.759501 
L 182.103885 197.621211 
L 181.600464 197.464663 
L 181.478036 197.425884 
L 180.77239 197.196936 
L 180.287606 197.034242 
L 179.611179 196.799794 
L 179.473915 196.751154 
L 179.002593 196.581378 
L 178.534144 196.408377 
L 177.762717 196.114126 
L 177.411487 195.976255 
L 177.18272 195.885132 
L 176.626024 195.658991 
L 175.938244 195.370903 
L 175.70592 195.271395 
L 175.00398 194.963926 
L 174.878824 194.908019 
L 174.299316 194.644828 
L 173.577615 194.306993 
L 173.107476 194.08082 
L 172.645691 193.853919 
L 172.16277 193.611536 
L 171.893781 193.474244 
L 171.500807 193.270701 
L 170.712516 192.851628 
L 170.686766 192.837694 
L 169.90006 192.404368 
L 169.473303 192.16307 
L 168.948643 191.860294 
L 168.514094 191.604335 
L 168.056164 191.329437 
L 167.683911 191.10201 
L 166.946533 190.64083 
L 166.861927 190.586994 
L 166.136482 190.117456 
L 165.711578 189.835745 
L 165.354302 189.59497 
L 165.025182 189.369969 
L 164.239547 188.820221 
L 163.686887 188.422564 
L 163.580485 188.344945 
L 162.769487 187.741873 
L 162.49126 187.530223 
L 161.904765 187.075906 
L 161.298943 186.594718 
L 160.998248 186.351282 
L 160.377658 185.838966 
L 160.211561 185.699542 
L 159.713263 185.275293 
L 159.19119 184.820979 
L 158.769392 184.446388 
L 158.206176 183.935394 
L 157.595505 183.36693 
L 157.277313 183.064604 
L 156.685361 182.490635 
L 156.36452 182.173104 
L 155.888836 181.693735 
L 155.411283 181.201855 
L 154.866988 180.627773 
L 154.312142 180.027222 
L 153.80855 179.468176 
L 153.439444 179.049659 
L 152.859724 178.376748 
L 152.513002 177.964849 
L 151.95942 177.291893 
L 151.70533 176.976481 
L 151.33149 176.504665 
L 150.808414 175.828407 
L 150.451939 175.356316 
L 150.060932 174.827552 
L 149.669924 174.286857 
L 149.118328 173.502749 
L 148.857729 173.123189 
L 148.51481 172.614389 
L 148.130921 172.03166 
L 147.747032 171.434349 
L 147.352324 170.804164 
L 147.18006 170.523792 
L 146.889693 170.043542 
L 146.599326 169.553297 
L 146.12447 168.728775 
L 145.756435 168.069 
L 145.388401 167.38978 
L 145.163424 166.964414 
L 144.808772 166.277222 
L 144.362994 165.382448 
L 144.073127 164.780573 
L 143.78326 164.161614 
L 143.450145 163.427591 
L 143.117031 162.667192 
L 142.868453 162.081089 
L 142.619875 161.477694 
L 142.434434 161.015486 
L 142.257623 160.564534 
L 142.080813 160.102947 
L 141.904003 159.630044 
L 141.727192 159.145063 
L 141.467534 158.409128 
L 141.250832 157.771321 
L 141.03413 157.109725 
L 140.817271 156.421264 
L 140.600411 155.703321 
L 140.383552 154.95214 
L 140.275123 154.562676 
L 140.166693 154.163075 
L 140.058856 153.754836 
L 139.951019 153.33494 
L 139.835916 152.872775 
L 139.720814 152.394809 
L 139.605711 151.899407 
L 139.490609 151.384627 
L 139.383379 150.885573 
L 139.27615 150.365387 
L 139.16892 149.821269 
L 139.061691 149.249733 
L 138.979936 148.792862 
L 138.898182 148.315035 
L 138.816428 147.813177 
L 138.734674 147.283371 
L 138.65292 146.720499 
L 138.612043 146.424596 
L 138.571166 146.117646 
L 138.530289 145.798336 
L 138.489412 145.465071 
L 138.448535 145.115878 
L 138.407658 144.748267 
L 138.36247 144.316546 
L 138.317282 143.852464 
L 138.294688 143.605778 
L 138.272094 143.347529 
L 138.2495 143.075936 
L 138.226906 142.788709 
L 138.204312 142.482811 
L 138.181718 142.154073 
L 138.159124 141.796494 
L 138.147827 141.6042 
L 138.13653 141.400864 
L 138.125233 141.184341 
L 138.113936 140.951682 
L 138.102639 140.698646 
L 138.091342 140.418723 
L 138.080045 140.100952 
L 138.068748 139.723966 
L 138.057451 139.2326 
L 138.046154 138.046154 
L 138.046154 146.393802 
L 138.604291 146.075387 
L 138.882581 145.919458 
L 139.487184 145.587095 
L 139.743576 145.448768 
L 140.222838 145.194326 
L 141.066545 144.759267 
L 141.133138 144.725618 
L 141.603645 144.490713 
L 142.254751 144.17376 
L 142.617524 144.001202 
L 143.427912 143.626005 
L 143.53002 143.579727 
L 144.214204 143.275317 
L 144.802092 143.021564 
L 144.8843 142.98665 
L 145.335589 142.797453 
L 146.035628 142.512162 
L 146.376575 142.376783 
L 146.788157 142.216442 
L 147.282856 142.028146 
L 147.912578 141.795378 
L 148.164349 141.704465 
L 148.910274 141.442255 
L 149.128519 141.367541 
L 149.559942 141.222495 
L 150.108625 141.043072 
L 150.873409 140.802317 
L 151.211072 140.69945 
L 151.54735 140.599077 
L 152.070061 140.447138 
L 152.609783 140.295431 
L 153.230532 140.127402 
L 153.720586 139.99959 
L 154.126665 139.896894 
L 154.552452 139.792325 
L 154.721598 139.751665 
L 155.272286 139.62274 
L 155.837496 139.49588 
L 156.35749 139.38403 
L 156.723985 139.307982 
L 157.380314 139.177515 
L 157.910647 139.077431 
L 158.133725 139.036752 
L 158.745647 138.929462 
L 159.322092 138.83413 
L 159.846901 138.752157 
L 160.17107 138.70381 
L 160.433659 138.665924 
L 160.994813 138.58878 
L 161.489435 138.525085 
L 161.858034 138.480233 
L 162.605987 138.396058 
L 163.13961 138.341588 
L 163.518098 138.305764 
L 163.957397 138.267103 
L 164.289152 138.239982 
L 164.883231 138.19587 
L 165.341433 138.165745 
L 165.523796 138.154698 
L 166.093504 138.123643 
L 166.633251 138.099045 
L 167.343112 138.073829 
L 167.690862 138.064433 
L 167.919909 138.059305 
L 168.623845 138.048818 
L 168.972605 138.046569 
L 169.539545 138.047079 
L 170.216469 138.054446 
L 170.419689 138.058093 
L 170.784729 138.06631 
L 171.217535 138.078826 
L 171.944159 138.106612 
L 172.547917 138.136164 
L 172.609792 138.139524 
L 173.147768 138.171343 
L 173.85774 138.22049 
L 174.059904 138.235976 
L 174.599389 138.280542 
L 175.334894 138.348914 
L 175.767372 138.393228 
L 176.296919 138.451647 
L 176.527134 138.478474 
L 177.102219 138.549288 
L 177.472615 138.597775 
L 177.839843 138.64808 
L 178.660478 138.768557 
L 179.016193 138.824253 
L 179.195266 138.853089 
L 179.869012 138.966382 
L 180.271606 139.037714 
L 181.006377 139.174945 
L 181.192486 139.211154 
L 181.657845 139.304271 
L 182.002879 139.375696 
L 182.650265 139.515216 
L 183.335635 139.670798 
L 183.593737 139.7315 
L 183.859586 139.795238 
L 184.657779 139.994045 
L 184.983053 140.078281 
L 185.541822 140.227368 
L 186.071275 140.373778 
L 186.599899 140.52499 
L 186.999981 140.642799 
L 187.362348 140.75202 
L 188.014781 140.954751 
L 188.135549 140.99314 
L 188.659228 141.162741 
L 189.398167 141.410801 
L 189.756124 141.53468 
L 189.969229 141.60959 
L 190.712513 141.877694 
L 191.081847 142.014894 
L 191.814495 142.29497 
L 191.923207 142.337431 
L 192.642994 142.624525 
L 192.907607 142.732688 
L 193.448235 142.9581 
L 193.845113 143.127393 
L 194.560442 143.440785 
L 194.98299 143.630959 
L 195.450199 143.845656 
L 195.651086 143.939411 
L 196.056328 144.131198 
L 196.797921 144.491486 
L 197.394941 144.790425 
L 197.485952 144.836701 
L 198.192818 145.202554 
L 198.488065 145.358776 
L 199.308283 145.803504 
L 199.718632 146.032012 
L 199.845561 146.103518 
L 200.728353 146.611763 
L 201.197674 146.889864 
L 201.672682 147.177033 
L 202.027509 147.395342 
L 202.324586 147.580649 
L 202.85101 147.914758 
L 203.370984 148.252096 
L 203.621423 148.41721 
L 204.434076 148.96505 
L 204.522172 149.025562 
L 205.237799 149.525453 
L 205.806966 149.933825 
L 206.031295 150.097461 
L 206.62705 150.539546 
L 206.891111 150.739043 
L 207.784308 151.43044 
L 208.131771 151.706485 
L 208.481482 151.988427 
L 208.857955 152.296639 
L 209.36519 152.719761 
L 209.936499 153.207413 
L 210.203629 153.439553 
L 211.035889 154.180186 
L 211.096051 154.234768 
L 211.925349 155.001965 
L 212.373092 155.427989 
L 212.74223 155.785665 
L 213.316623 156.354163 
L 213.601291 156.641447 
L 214.207494 157.265866 
L 214.595597 157.674949 
L 214.884893 157.984764 
L 215.625023 158.797069 
L 215.865819 159.067652 
L 216.353923 159.626017 
L 216.800311 160.148636 
L 217.383983 160.850019 
L 218.08468 161.720485 
L 218.208924 161.878218 
L 218.728529 162.549437 
L 219.219525 163.201516 
L 219.747494 163.923099 
L 220.102109 164.420244 
L 220.456725 164.927914 
L 220.537991 165.045784 
L 220.877877 165.545147 
L 221.217763 166.055146 
L 221.542598 166.552944 
L 221.867432 167.061353 
L 222.189405 167.576239 
L 222.416939 167.946965 
L 222.808558 168.598989 
L 223.200178 169.269617 
L 223.395454 169.611347 
L 223.668342 170.09747 
L 223.941229 170.594035 
L 224.404399 171.462275 
L 224.692383 172.019345 
L 224.980367 172.590577 
L 225.379271 173.406899 
L 225.659431 173.998938 
L 225.869826 174.454439 
L 226.080222 174.919835 
L 226.290617 175.395682 
L 226.501012 175.882587 
L 226.756019 176.488533 
L 227.011026 177.113067 
L 227.21902 177.637292 
L 227.517741 178.415533 
L 227.687906 178.873313 
L 227.858072 179.342441 
L 228.028237 179.823697 
L 228.198402 180.317953 
L 228.366446 180.81977 
L 228.53449 181.336307 
L 228.702534 181.8688 
L 228.870578 182.418667 
L 229.016349 182.911 
L 229.204907 183.571126 
L 229.393464 184.260511 
L 229.582021 184.983092 
L 229.676299 185.358323 
L 229.770578 185.743795 
L 229.92146 186.384135 
L 230.059598 186.998777 
L 230.197736 187.644608 
L 230.266805 187.980735 
L 230.335874 188.32665 
L 230.404943 188.683221 
L 230.474012 189.051457 
L 230.539495 189.412416 
L 230.604978 189.786103 
L 230.670461 190.173919 
L 230.735944 190.577544 
L 230.801427 190.999026 
L 230.866911 191.440897 
L 230.932394 191.906356 
L 230.997877 192.399543 
L 231.061604 192.911366 
L 231.093467 193.181173 
L 231.125331 193.461681 
L 231.157194 193.754254 
L 231.189058 194.060575 
L 231.220921 194.38276 
L 231.252785 194.723531 
L 231.284648 195.086494 
L 231.316511 195.476601 
L 231.332443 195.68394 
L 231.348375 195.900981 
L 231.364307 196.129217 
L 231.380238 196.370572 
L 231.39617 196.627596 
L 231.412102 196.903788 
L 231.428034 197.204187 
L 231.443965 197.536525 
L 231.459897 197.913819 
L 231.475829 198.361445 
L 231.491761 198.944916 
L 231.507692 200.353846 
z
" clip-path="url(#p7a21c80793)" style="fill: #808080; opacity: 0.5"/>
   </g>
   <g id="matplotlib.axis_1"/>
   <g id="matplotlib.axis_2"/>
   <g id="line2d_1">
    <path d="M 106.892308 84.086109 
L 110.391577 82.211819 
L 113.885517 80.613479 
L 117.311035 79.289849 
L 120.979573 78.121365 
L 124.785797 77.16585 
L 128.453206 76.48136 
L 132.523089 75.983731 
L 136.562124 75.756137 
L 140.404946 75.783126 
L 143.790152 76.003789 
L 147.709018 76.492295 
L 151.588691 77.227997 
L 155.208691 78.148776 
L 158.898531 79.331361 
L 162.36457 80.680109 
L 165.779628 82.250967 
L 168.952192 83.943794 
L 171.875832 85.72215 
L 174.961163 87.851228 
L 177.653903 89.94756 
L 180.803885 92.724802 
L 183.277385 95.1931 
L 186.01139 98.277012 
L 188.392751 101.338271 
L 190.303056 104.112915 
L 192.129393 107.106668 
L 193.854413 110.338994 
L 195.372584 113.634497 
L 196.766971 117.210747 
L 197.915399 120.785735 
L 198.830535 124.352815 
L 199.565567 128.166362 
L 200.056758 131.968862 
L 200.298142 135.412056 
L 200.353846 138.046154 
L 200.353846 138.046154 
" clip-path="url(#p7a21c80793)" style="fill: none; stroke: #0000ff; stroke-linecap: square"/>
   </g>
   <g id="line2d_2">
    <path d="M 75.738462 138.046154 
L 75.869341 134.009764 
L 76.205911 130.428224 
L 76.756663 126.828006 
L 77.545917 123.147499 
L 78.563504 119.497221 
L 79.767222 116.00495 
L 81.122796 112.708833 
L 82.603637 109.614203 
L 84.494827 106.194876 
L 86.556137 102.960165 
L 88.659908 100.05606 
L 91.023168 97.167218 
L 93.586031 94.393593 
L 96.376948 91.722016 
L 99.154896 89.366398 
L 102.134795 87.128349 
L 105.283796 85.04732 
L 106.892308 84.086109 
L 106.892308 84.086109 
" clip-path="url(#p7a21c80793)" style="fill: none; stroke: #0000ff; stroke-linecap: square"/>
   </g>
   <g id="line2d_3">
    <path d="M 75.738462 138.046154 
L 75.871817 142.120513 
L 76.237121 145.913301 
L 76.813878 149.572512 
L 77.629016 153.278292 
L 78.698703 157.023208 
L 79.985116 160.655098 
L 81.419145 164.039046 
L 83.110321 167.445181 
L 84.936576 170.628685 
L 87.043237 173.836529 
L 89.298726 176.852556 
L 91.663341 179.650038 
L 94.349704 182.463142 
L 96.966091 184.893533 
L 99.923836 187.330405 
L 102.993751 189.559041 
L 106.093171 191.536858 
L 106.892308 192.006198 
L 106.892308 192.006198 
" clip-path="url(#p7a21c80793)" style="fill: none; stroke: #0000ff; stroke-linecap: square"/>
   </g>
   <g id="line2d_4">
    <path d="M 138.046154 146.393802 
L 141.603645 144.490713 
L 145.335589 142.797453 
L 149.128519 141.367541 
L 152.609783 140.295431 
L 156.35749 139.38403 
L 160.17107 138.70381 
L 163.957397 138.267103 
L 167.690862 138.064433 
L 171.217535 138.078826 
L 174.599389 138.280542 
L 178.660478 138.768557 
L 182.002879 139.375696 
L 185.541822 140.227368 
L 188.659228 141.162741 
L 191.923207 142.337431 
L 195.651086 143.939411 
L 198.488065 145.358776 
L 202.027509 147.395342 
L 205.237799 149.525453 
L 208.481482 151.988427 
L 211.096051 154.234768 
L 213.601291 156.641447 
L 216.353923 159.626017 
L 218.728529 162.549437 
L 220.877877 165.545147 
L 222.808558 168.598989 
L 224.692383 172.019345 
L 226.290617 175.395682 
L 227.687906 178.873313 
L 228.870578 182.418667 
L 229.770578 185.743795 
L 230.539495 189.412416 
L 231.093467 193.181173 
L 231.412102 196.903788 
L 231.507692 200.353846 
L 231.507692 200.353846 
" clip-path="url(#p7a21c80793)" style="fill: none; stroke: #228b22; stroke-linecap: square"/>
   </g>
   <g id="line2d_5">
    <path d="M 200.353846 254.313891 
L 203.600287 252.304484 
L 206.565249 250.214519 
L 209.451292 247.915197 
L 212.21126 245.434662 
L 214.79883 242.815537 
L 217.221736 240.054745 
L 219.397427 237.265454 
L 221.597256 234.069956 
L 223.483091 230.941335 
L 225.214439 227.641777 
L 226.75774 224.215009 
L 228.112318 220.641461 
L 229.244765 216.993401 
L 230.141575 213.329709 
L 230.819351 209.58987 
L 231.261041 205.892414 
L 231.481595 202.157033 
L 231.507692 200.353846 
L 231.507692 200.353846 
" clip-path="url(#p7a21c80793)" style="fill: none; stroke: #228b22; stroke-linecap: square"/>
   </g>
   <g id="text_1">
    <!-- $\Omega$ -->
    <g transform="translate(16.011538 22.420913) scale(0.1 -0.1)">
     <defs>
      <path id="Cmr10-ad" d="M 494 0 
L 281 1063 
L 469 1063 
Q 503 878 531 736 
Q 559 594 604 536 
Q 650 478 750 459 
Q 850 441 1081 441 
L 1472 441 
Q 1378 803 1004 1386 
Q 631 1969 495 2233 
Q 359 2497 359 2913 
Q 359 3397 646 3761 
Q 934 4125 1389 4319 
Q 1844 4513 2309 4513 
Q 2772 4513 3226 4319 
Q 3681 4125 3968 3758 
Q 4256 3391 4256 2913 
Q 4256 2588 4137 2300 
Q 4019 2013 3834 1725 
Q 3650 1438 3436 1084 
Q 3222 731 3144 441 
L 3531 441 
Q 3766 441 3869 459 
Q 3972 478 4015 536 
Q 4059 594 4086 736 
Q 4113 878 4147 1063 
L 4331 1063 
L 4122 0 
L 2988 0 
Q 2925 0 2925 84 
Q 2925 409 3004 721 
Q 3084 1034 3240 1478 
Q 3397 1922 3484 2261 
Q 3572 2600 3572 2913 
Q 3572 3297 3422 3625 
Q 3272 3953 2984 4150 
Q 2697 4347 2309 4347 
Q 1725 4347 1384 3930 
Q 1044 3513 1044 2913 
Q 1047 2584 1122 2293 
Q 1197 2003 1364 1518 
Q 1531 1034 1611 721 
Q 1691 409 1691 84 
Q 1691 0 1625 0 
L 494 0 
z
" transform="scale(0.015625)"/>
     </defs>
     <use xlink:href="#Cmr10-ad" transform="translate(0 0.484375)"/>
    </g>
   </g>
   <g id="text_2">
    <!-- $A$ -->
    <g style="fill: #0000ff" transform="translate(103.142308 78.497837) scale(0.1 -0.1)">
     <defs>
      <path id="Cmmi10-41" d="M 288 0 
Q 225 0 225 84 
Q 250 225 306 225 
Q 566 225 755 328 
Q 944 431 1081 647 
Q 1094 659 1094 659 
L 3378 4513 
Q 3428 4581 3500 4581 
L 3584 4581 
Q 3603 4581 3622 4573 
Q 3641 4566 3655 4548 
Q 3669 4531 3669 4513 
L 4056 378 
Q 4056 350 4084 294 
Q 4147 225 4563 225 
Q 4628 225 4628 141 
Q 4606 56 4592 28 
Q 4578 0 4519 0 
L 2919 0 
Q 2859 0 2859 84 
Q 2894 225 2944 225 
Q 3450 225 3481 397 
L 3384 1453 
L 1806 1453 
L 1294 594 
Q 1247 525 1247 434 
Q 1247 322 1355 273 
Q 1463 225 1594 225 
Q 1656 225 1656 141 
Q 1634 50 1621 25 
Q 1609 0 1550 0 
L 288 0 
z
M 1931 1678 
L 3359 1678 
L 3169 3750 
L 1931 1678 
z
" transform="scale(0.015625)"/>
     </defs>
     <use xlink:href="#Cmmi10-41" transform="translate(0 0.421875)"/>
    </g>
   </g>
   <g id="text_3">
    <!-- $B$ -->
    <g style="fill: #ff0000" transform="translate(227.707692 78.497837) scale(0.1 -0.1)">
     <defs>
      <path id="Cmmi10-42" d="M 319 0 
Q 256 0 256 84 
Q 259 100 268 137 
Q 278 175 293 200 
Q 309 225 341 225 
Q 522 225 656 234 
Q 791 244 884 269 
Q 959 297 1006 441 
L 1881 3956 
Q 1894 4019 1894 4044 
Q 1894 4113 1819 4122 
Q 1697 4147 1356 4147 
Q 1294 4147 1294 4231 
Q 1297 4247 1306 4286 
Q 1316 4325 1333 4348 
Q 1350 4372 1375 4372 
L 3669 4372 
Q 3878 4372 4083 4320 
Q 4288 4269 4461 4156 
Q 4634 4044 4736 3876 
Q 4838 3709 4838 3488 
Q 4838 3247 4714 3040 
Q 4591 2834 4395 2681 
Q 4200 2528 3973 2429 
Q 3747 2331 3500 2284 
Q 3675 2284 3854 2215 
Q 4034 2147 4175 2028 
Q 4316 1909 4402 1743 
Q 4488 1578 4488 1388 
Q 4488 1003 4219 684 
Q 3950 366 3542 183 
Q 3134 0 2753 0 
L 319 0 
z
M 1497 275 
Q 1497 225 1716 225 
L 2631 225 
Q 2944 225 3231 398 
Q 3519 572 3692 859 
Q 3866 1147 3866 1459 
Q 3866 1650 3786 1820 
Q 3706 1991 3556 2089 
Q 3406 2188 3213 2188 
L 1966 2188 
L 1522 416 
Q 1497 328 1497 275 
z
M 2009 2356 
L 2981 2356 
Q 3288 2356 3577 2512 
Q 3866 2669 4048 2937 
Q 4231 3206 4231 3506 
Q 4231 3784 4057 3965 
Q 3884 4147 3609 4147 
L 2731 4147 
Q 2559 4147 2500 4115 
Q 2441 4084 2400 3928 
L 2009 2356 
z
" transform="scale(0.015625)"/>
     </defs>
     <use xlink:href="#Cmmi10-42" transform="translate(0 0.6875)"/>
    </g>
   </g>
   <g id="text_4">
    <!-- $C$ -->
    <g style="fill: #228b22" transform="translate(150.023077 271.651683) scale(0.1 -0.1)">
     <defs>
      <path id="Cmmi10-43" d="M 934 1381 
Q 934 997 1082 705 
Q 1231 413 1514 248 
Q 1797 84 2181 84 
Q 2584 84 2957 290 
Q 3331 497 3595 842 
Q 3859 1188 3956 1575 
Q 3969 1613 4006 1613 
L 4084 1613 
Q 4109 1613 4125 1595 
Q 4141 1578 4141 1556 
Q 4141 1550 4134 1538 
Q 4025 1094 3711 705 
Q 3397 316 2959 87 
Q 2522 -141 2059 -141 
Q 1559 -141 1162 84 
Q 766 309 545 709 
Q 325 1109 325 1613 
Q 325 2150 565 2676 
Q 806 3203 1212 3614 
Q 1619 4025 2139 4269 
Q 2659 4513 3194 4513 
Q 3406 4513 3600 4448 
Q 3794 4384 3959 4253 
Q 4125 4122 4231 3950 
L 4738 4500 
Q 4738 4513 4769 4513 
L 4806 4513 
Q 4831 4513 4847 4491 
Q 4863 4469 4863 4447 
L 4428 2719 
Q 4428 2675 4378 2675 
L 4263 2675 
Q 4213 2675 4213 2747 
Q 4238 2888 4238 3084 
Q 4238 3397 4131 3673 
Q 4025 3950 3801 4119 
Q 3578 4288 3256 4288 
Q 2734 4288 2300 4025 
Q 1866 3763 1564 3336 
Q 1263 2909 1098 2389 
Q 934 1869 934 1381 
z
" transform="scale(0.015625)"/>
     </defs>
     <use xlink:href="#Cmmi10-43" transform="translate(0 0.484375)"/>
    </g>
   </g>
   <g id="patch_8">
    <path d="M 138.046154 200.353846 
C 154.570347 200.353846 170.419977 193.788715 182.104346 182.104346 
C 193.788715 170.419977 200.353846 154.570347 200.353846 138.046154 
C 200.353846 121.521961 193.788715 105.672331 182.104346 93.987962 
C 170.419977 82.303593 154.570347 75.738462 138.046154 75.738462 
C 121.521961 75.738462 105.672331 82.303593 93.987962 93.987962 
C 82.303593 105.672331 75.738462 121.521961 75.738462 138.046154 
C 75.738462 154.570347 82.303593 170.419977 93.987962 182.104346 
C 105.672331 193.788715 121.521961 200.353846 138.046154 200.353846 
L 138.046154 200.353846 
z
" clip-path="url(#p7a21c80793)" style="fill: none; stroke: #0000ff; stroke-linejoin: miter"/>
   </g>
   <g id="patch_9">
    <path d="M 200.353846 200.353846 
C 216.878039 200.353846 232.727669 193.788715 244.412038 182.104346 
C 256.096407 170.419977 262.661538 154.570347 262.661538 138.046154 
C 262.661538 121.521961 256.096407 105.672331 244.412038 93.987962 
C 232.727669 82.303593 216.878039 75.738462 200.353846 75.738462 
C 183.829653 75.738462 167.980023 82.303593 156.295654 93.987962 
C 144.611285 105.672331 138.046154 121.521961 138.046154 138.046154 
C 138.046154 154.570347 144.611285 170.419977 156.295654 182.104346 
C 167.980023 193.788715 183.829653 200.353846 200.353846 200.353846 
L 200.353846 200.353846 
z
" clip-path="url(#p7a21c80793)" style="fill: none; stroke: #ff0000; stroke-linejoin: miter"/>
   </g>
   <g id="patch_10">
    <path d="M 169.2 262.661538 
C 185.724193 262.661538 201.573823 256.096407 213.258192 244.412038 
C 224.942561 232.727669 231.507692 216.878039 231.507692 200.353846 
C 231.507692 183.829653 224.942561 167.980023 213.258192 156.295654 
C 201.573823 144.611285 185.724193 138.046154 169.2 138.046154 
C 152.675807 138.046154 136.826177 144.611285 125.141808 156.295654 
C 113.457439 167.980023 106.892308 183.829653 106.892308 200.353846 
C 106.892308 216.878039 113.457439 232.727669 125.141808 244.412038 
C 136.826177 256.096407 152.675807 262.661538 169.2 262.661538 
L 169.2 262.661538 
z
" clip-path="url(#p7a21c80793)" style="fill: none; stroke: #228b22; stroke-linejoin: miter"/>
   </g>
  </g>
 </g>
 <defs>
  <clipPath id="p7a21c80793">
   <rect x="7.2" y="7.2" width="324" height="324"/>
  </clipPath>
 </defs>
</svg>
