<?xml version="1.0" encoding="utf-8" standalone="no"?>
<!DOCTYPE svg PUBLIC "-//W3C//DTD SVG 1.1//EN"
  "http://www.w3.org/Graphics/SVG/1.1/DTD/svg11.dtd">
<svg xmlns:xlink="http://www.w3.org/1999/xlink" width="338.4pt" height="338.4pt" viewBox="0 0 338.4 338.4" xmlns="http://www.w3.org/2000/svg" version="1.1">
 <metadata>
  <rdf:RDF xmlns:dc="http://purl.org/dc/elements/1.1/" xmlns:cc="http://creativecommons.org/ns#" xmlns:rdf="http://www.w3.org/1999/02/22-rdf-syntax-ns#">
   <cc:Work>
    <dc:type rdf:resource="http://purl.org/dc/dcmitype/StillImage"/>
    <dc:date>2024-12-01T17:05:22.779820</dc:date>
    <dc:format>image/svg+xml</dc:format>
    <dc:creator>
     <cc:Agent>
      <dc:title>Matplotlib v3.6.3, https://matplotlib.org/</dc:title>
     </cc:Agent>
    </dc:creator>
   </cc:Work>
  </rdf:RDF>
 </metadata>
 <defs>
  <style type="text/css">*{stroke-linejoin: round; stroke-linecap: butt}</style>
 </defs>
 <g id="figure_1">
  <g id="patch_1">
   <path d="M -0 338.4 
L 338.4 338.4 
L 338.4 0 
L -0 0 
z
" style="fill: #ffffff"/>
  </g>
  <g id="axes_1">
   <g id="patch_2">
    <path d="M 7.2 331.2 
L 331.2 331.2 
L 331.2 7.2 
L 7.2 7.2 
z
" style="fill: #ffffff"/>
   </g>
   <g id="patch_3">
    <path d="M 13.430769 324.969231 
L 13.430769 13.430769 
L 324.969231 13.430769 
L 324.969231 324.969231 
L 13.430769 324.969231 
z
" clip-path="url(#pd7e67f214f)" style="fill: none; stroke: #000000; stroke-linejoin: miter"/>
   </g>
   <g id="patch_4">
    <path d="M 169.2 192.006198 
L 169.016423 192.111771 
L 168.595279 192.350845 
L 168.262983 192.536444 
L 167.915096 192.727913 
L 167.776708 192.803278 
L 167.385823 193.013711 
L 166.988492 193.223953 
L 166.62888 193.411091 
L 166.490332 193.482399 
L 165.975192 193.743706 
L 165.763004 193.849601 
L 165.452164 194.002915 
L 165.034189 194.205699 
L 164.729616 194.35105 
L 164.621876 194.401983 
L 164.322109 194.542372 
L 163.854012 194.757731 
L 163.58871 194.877715 
L 163.307977 195.003057 
L 163.06529 195.110077 
L 162.473833 195.365758 
L 162.430971 195.384006 
L 161.863971 195.621844 
L 161.588776 195.734917 
L 161.281666 195.859297 
L 161.029128 195.960154 
L 160.891462 196.014597 
L 160.565024 196.142186 
L 160.217298 196.275776 
L 159.797151 196.434018 
L 159.383739 196.586362 
L 159.111486 196.684881 
L 159.021486 196.717134 
L 158.575499 196.874672 
L 158.179884 197.011241 
L 157.806004 197.137582 
L 157.697638 197.173708 
L 157.421996 197.264608 
L 157.104224 197.367638 
L 156.829178 197.455299 
L 156.346182 197.605851 
L 155.952203 197.72548 
L 155.661935 197.811803 
L 155.551381 197.844277 
L 155.202417 197.945329 
L 154.667879 198.095856 
L 154.409857 198.166681 
L 154.234271 198.214197 
L 153.836071 198.319921 
L 153.531352 198.398927 
L 153.244982 198.47168 
L 152.822888 198.576284 
L 152.494057 198.655614 
L 152.333701 198.693615 
L 151.841801 198.807397 
L 151.623876 198.856465 
L 151.333451 198.920584 
L 151.055273 198.980638 
L 150.628606 199.070169 
L 150.534211 199.089556 
L 150.081388 199.180446 
L 149.646185 199.264515 
L 149.420283 199.306889 
L 149.093814 199.366605 
L 148.802329 199.418405 
L 148.608777 199.452013 
L 148.118786 199.534288 
L 148.027023 199.549249 
L 147.605646 199.616152 
L 147.37072 199.652168 
L 146.862815 199.726905 
L 146.783949 199.738126 
L 146.233527 199.813584 
L 146.06322 199.83592 
L 145.830905 199.865618 
L 145.377893 199.92098 
L 145.197379 199.942103 
L 144.651754 200.002708 
L 144.383998 200.03067 
L 144.245026 200.044722 
L 143.734539 200.093642 
L 143.399235 200.123469 
L 143.058534 200.151907 
L 142.819999 200.170697 
L 142.581762 200.188545 
L 142.126331 200.220109 
L 142.059762 200.224442 
L 141.520722 200.256892 
L 141.392383 200.263927 
L 141.031621 200.282281 
L 140.596751 200.301619 
L 140.510932 200.305076 
L 140.094857 200.320156 
L 139.903308 200.326163 
L 139.415939 200.338788 
L 139.146883 200.344123 
L 138.886066 200.348185 
L 138.644367 200.350974 
L 138.059134 200.353845 
L 137.905692 200.353688 
L 137.727207 200.35303 
L 137.113672 200.346868 
L 136.848435 200.342333 
L 136.793723 200.341257 
L 136.474776 200.334028 
L 136.051731 200.321918 
L 135.843749 200.31491 
L 135.476834 200.300849 
L 135.068092 200.282636 
L 134.810267 200.269763 
L 134.373303 200.2455 
L 134.02176 200.223744 
L 133.932865 200.217927 
L 133.361755 200.177506 
L 133.285509 200.17171 
L 132.924968 200.14303 
L 132.65131 200.119853 
L 132.102201 200.069681 
L 132.077771 200.067335 
L 131.500661 200.009087 
L 131.159275 199.972073 
L 130.890417 199.941581 
L 130.659716 199.914474 
L 130.408946 199.884019 
L 129.92026 199.821702 
L 129.773037 199.802158 
L 129.56772 199.774305 
L 129.046363 199.70045 
L 128.959288 199.687677 
L 128.513081 199.620248 
L 128.041271 199.545348 
L 127.887883 199.520198 
L 127.667178 199.48332 
L 127.324543 199.424453 
L 127.018255 199.370162 
L 126.740821 199.319623 
L 126.424285 199.260373 
L 125.907647 199.160024 
L 125.764183 199.131354 
L 125.211195 199.01756 
L 125.083346 198.990507 
L 124.676116 198.902465 
L 124.344315 198.828619 
L 124.161373 198.787091 
L 123.861717 198.717813 
L 123.483589 198.628166 
L 123.071933 198.527731 
L 122.916225 198.488968 
L 122.645356 198.420519 
L 122.374567 198.350796 
L 121.784311 198.194312 
L 121.625155 198.151056 
L 121.333873 198.070717 
L 121.071482 197.997042 
L 120.602302 197.86221 
L 120.371684 197.794473 
L 120.059189 197.701142 
L 119.863192 197.641694 
L 119.447552 197.513292 
L 119.133676 197.414215 
L 118.836138 197.318608 
L 118.359154 197.161893 
L 118.171278 197.098993 
L 117.795241 196.971098 
L 117.554169 196.887696 
L 117.094315 196.725528 
L 116.896488 196.654516 
L 116.460809 196.49546 
L 116.18877 196.394275 
L 115.826027 196.257102 
L 115.503904 196.133119 
L 115.256845 196.036635 
L 115.150669 195.994797 
L 114.636057 195.788823 
L 114.377434 195.683296 
L 114.131737 195.581788 
L 113.763779 195.427465 
L 113.521714 195.324425 
L 113.235409 195.200991 
L 112.823352 195.020348 
L 112.60468 194.923038 
L 112.065071 194.678581 
L 111.760522 194.537871 
L 111.523937 194.427184 
L 111.379662 194.35909 
L 111.011226 194.18314 
L 110.689279 194.026953 
L 110.425198 193.897128 
L 110.077796 193.723972 
L 109.824615 193.596071 
L 109.414453 193.38578 
L 109.014868 193.177206 
L 108.842547 193.08612 
L 108.488695 192.896907 
L 108.105932 192.688918 
L 107.767113 192.501899 
L 107.515362 192.361154 
L 107.074479 192.110966 
L 106.892308 192.006198 
L 106.892308 200.353846 
L 106.898749 201.249746 
L 106.90519 201.620807 
L 106.911631 201.90551 
L 106.918073 202.145507 
L 106.924514 202.356933 
L 106.930955 202.548061 
L 106.937396 202.723807 
L 106.943838 202.887376 
L 106.950279 203.040991 
L 106.95672 203.186272 
L 106.969603 203.456453 
L 106.982485 203.704871 
L 106.995368 203.936057 
L 107.00825 204.153158 
L 107.021133 204.358465 
L 107.034015 204.553709 
L 107.046898 204.740232 
L 107.05978 204.919105 
L 107.072663 205.091194 
L 107.098428 205.41776 
L 107.118009 205.652421 
L 107.13759 205.877052 
L 107.157171 206.09283 
L 107.176753 206.30072 
L 107.196334 206.501521 
L 107.215915 206.695907 
L 107.255078 207.067646 
L 107.29424 207.419638 
L 107.333403 207.754701 
L 107.372565 208.075039 
L 107.411728 208.382415 
L 107.447882 208.655918 
L 107.484035 208.92054 
L 107.520189 209.177082 
L 107.556343 209.426228 
L 107.592497 209.668573 
L 107.628651 209.904633 
L 107.700959 210.359669 
L 107.769112 210.769915 
L 107.837264 211.164174 
L 107.905417 211.544137 
L 107.97357 211.911214 
L 108.041722 212.266595 
L 108.109875 212.611299 
L 108.178028 212.946201 
L 108.24618 213.272065 
L 108.336735 213.692191 
L 108.427289 214.098886 
L 108.517843 214.493308 
L 108.608398 214.876457 
L 108.63009 214.966667 
L 108.718727 215.329296 
L 108.807364 215.682838 
L 108.896 216.027906 
L 108.984637 216.365048 
L 109.091246 216.760743 
L 109.197856 217.14644 
L 109.304465 217.522813 
L 109.411074 217.890462 
L 109.557815 218.383219 
L 109.704555 218.861698 
L 109.819447 219.227066 
L 109.934338 219.584806 
L 110.071546 220.002623 
L 110.208753 220.410799 
L 110.373865 220.890018 
L 110.538976 221.357009 
L 110.680594 221.748417 
L 110.822212 222.131871 
L 110.96383 222.507784 
L 111.105447 222.876534 
L 111.222229 223.175471 
L 111.448142 223.741266 
L 111.674055 224.291561 
L 111.816039 224.629955 
L 112.032461 225.135312 
L 112.248884 225.628714 
L 112.374404 225.90967 
L 112.555705 226.309045 
L 112.737006 226.70112 
L 113.005528 227.26908 
L 113.27405 227.822676 
L 113.363774 228.004603 
L 113.725923 228.72417 
L 114.093918 229.432503 
L 114.473201 230.140185 
L 114.788398 230.712141 
L 114.973815 231.042107 
L 115.325826 231.655952 
L 115.553541 232.044632 
L 115.911201 232.642426 
L 116.251064 233.196786 
L 116.666253 233.85689 
L 116.796865 234.060818 
L 117.251894 234.757956 
L 117.392111 234.968745 
L 117.777833 235.539202 
L 118.311183 236.306271 
L 118.399664 236.431185 
L 118.640712 236.768224 
L 118.967485 237.21769 
L 119.416088 237.821307 
L 119.806609 238.33465 
L 120.152928 238.780833 
L 120.320394 238.993627 
L 120.665055 239.425673 
L 120.923925 239.745078 
L 121.34899 240.260354 
L 121.668813 240.640752 
L 122.034741 241.068547 
L 122.365866 241.449009 
L 122.600998 241.715441 
L 122.713601 241.841955 
L 123.060529 242.227439 
L 123.62173 242.837605 
L 123.859138 243.090889 
L 124.17822 243.426898 
L 124.338906 243.594229 
L 124.668973 243.934073 
L 125.179387 244.449585 
L 125.377376 244.646352 
L 125.617583 244.882729 
L 126.052987 245.30475 
L 126.416939 245.651287 
L 126.546584 245.773386 
L 126.786289 245.997309 
L 127.397636 246.55786 
L 127.68048 246.812193 
L 127.961128 247.061489 
L 128.151393 247.22879 
L 128.462279 247.499223 
L 128.803748 247.792136 
L 129.078293 248.024562 
L 129.578439 248.441063 
L 129.843645 248.658358 
L 129.938947 248.735849 
L 130.511723 249.195076 
L 130.719192 249.358702 
L 131.113211 249.665559 
L 131.233302 249.758081 
L 131.515708 249.973829 
L 131.93777 250.291555 
L 132.184939 250.475037 
L 132.4629 250.679128 
L 133.013213 251.076277 
L 133.13411 251.162311 
L 133.400644 251.35046 
L 133.857494 251.668131 
L 134.135898 251.858771 
L 134.443927 252.067132 
L 134.675548 252.222052 
L 135.005771 252.440344 
L 135.413959 252.706038 
L 135.595219 252.822572 
L 135.878435 253.00289 
L 136.374944 253.313871 
L 136.527055 253.407849 
L 137.105384 253.75969 
L 137.225769 253.831852 
L 137.682427 254.102252 
L 138.013853 254.295229 
L 138.264125 254.43915 
L 138.610524 254.635818 
L 138.967962 254.8357 
L 139.217128 254.973219 
L 139.363816 255.053486 
L 139.770756 255.273497 
L 140.232249 255.518309 
L 140.343988 255.57684 
L 140.791808 255.808541 
L 141.128271 255.979619 
L 141.360092 256.096003 
L 141.803019 256.315029 
L 141.900763 256.362776 
L 142.228802 256.521479 
L 142.504913 256.653232 
L 142.912373 256.844635 
L 143.201034 256.978066 
L 143.469557 257.100589 
L 143.965328 257.322784 
L 144.253097 257.449385 
L 144.606039 257.602301 
L 144.766894 257.671137 
L 144.94062 257.744882 
L 145.33648 257.910609 
L 145.713107 258.065321 
L 145.970087 258.169239 
L 146.371145 258.328771 
L 146.566053 258.405142 
L 146.918234 258.541228 
L 147.195416 258.646614 
L 147.603132 258.798896 
L 147.760292 258.85673 
L 148.17055 259.005451 
L 148.691223 259.189538 
L 148.81248 259.231665 
L 149.307862 259.400873 
L 149.625061 259.506786 
L 149.695926 259.53019 
L 150.235965 259.705458 
L 150.31969 259.732145 
L 150.686775 259.847619 
L 151.094256 259.972891 
L 151.413184 260.068817 
L 151.652922 260.139702 
L 152.029054 260.248814 
L 152.369222 260.345291 
L 152.531278 260.39052 
L 152.982732 260.514039 
L 153.231442 260.580532 
L 153.432957 260.633601 
L 153.92817 260.760963 
L 154.079808 260.799097 
L 154.407543 260.880136 
L 154.72901 260.957798 
L 155.017184 261.025885 
L 155.427067 261.120242 
L 155.629052 261.16567 
L 156.134932 261.276358 
L 156.266317 261.304386 
L 156.781363 261.411409 
L 157.097239 261.474806 
L 157.456983 261.544941 
L 157.747488 261.599977 
L 157.83973 261.617153 
L 158.232594 261.688702 
L 158.576198 261.74915 
L 158.864141 261.798281 
L 159.168905 261.84877 
L 159.446131 261.89335 
L 159.667012 261.927953 
L 160.210109 262.009587 
L 160.343192 262.028845 
L 160.66544 262.074263 
L 161.038014 262.124636 
L 161.486294 262.182216 
L 161.689199 262.207192 
L 161.983977 262.242274 
L 162.350193 262.283877 
L 162.615374 262.312633 
L 162.942977 262.346573 
L 163.244014 262.376219 
L 163.459005 262.396489 
L 163.846201 262.431099 
L 164.219182 262.462138 
L 164.579562 262.489988 
L 164.762322 262.503307 
L 165.179685 262.531701 
L 165.535966 262.553713 
L 165.721671 262.564374 
L 166.114752 262.585107 
L 166.364734 262.596997 
L 166.553444 262.605306 
L 166.994087 262.622478 
L 167.454407 262.637082 
L 167.7131 262.643794 
L 167.953038 262.64906 
L 168.162719 262.652904 
L 168.626241 262.658897 
L 168.900059 262.660817 
L 169.2 262.661538 
z
" clip-path="url(#pd7e67f214f)" style="fill: #808080; opacity: 0.5"/>
   </g>
   <g id="patch_5">
    <path d="M 231.507692 192.006198 
L 231.039585 192.273766 
L 230.758216 192.432024 
L 230.52219 192.563303 
L 230.154647 192.765079 
L 230.061299 192.815815 
L 229.777392 192.968858 
L 229.427324 193.154968 
L 228.954309 193.401931 
L 228.767455 193.498073 
L 228.227197 193.771596 
L 227.982984 193.893081 
L 227.850301 193.958527 
L 227.375254 194.189649 
L 227.106288 194.318308 
L 226.733591 194.493985 
L 226.471015 194.615952 
L 226.095167 194.787963 
L 225.862894 194.892763 
L 225.62961 194.996872 
L 225.353839 195.118466 
L 224.856754 195.333639 
L 224.662651 195.416273 
L 224.375105 195.537263 
L 224.031937 195.679447 
L 223.588301 195.859722 
L 223.503507 195.893727 
L 223.147736 196.034835 
L 222.886248 196.13694 
L 222.546578 196.267552 
L 221.98462 196.478663 
L 221.77273 196.556665 
L 221.583846 196.625464 
L 221.150556 196.780687 
L 220.761963 196.916837 
L 220.643387 196.957809 
L 220.246693 197.092942 
L 220.02388 197.16754 
L 219.550727 197.322863 
L 219.366145 197.382323 
L 219.087857 197.470773 
L 218.659082 197.604251 
L 218.447943 197.668735 
L 217.954879 197.816148 
L 217.872338 197.840392 
L 217.328031 197.99718 
L 216.961557 198.099734 
L 216.740608 198.1604 
L 216.445476 198.240074 
L 216.04061 198.34685 
L 215.857294 198.394241 
L 215.681151 198.439218 
L 215.292602 198.536501 
L 214.961286 198.617362 
L 214.746563 198.668742 
L 214.32831 198.76652 
L 213.829058 198.879263 
L 213.674695 198.913251 
L 213.420704 198.968282 
L 213.044129 199.047836 
L 212.740193 199.110275 
L 212.479992 199.162478 
L 212.157418 199.225597 
L 211.694563 199.313083 
L 211.453221 199.357265 
L 211.224237 199.398278 
L 210.851247 199.463196 
L 210.605737 199.504654 
L 210.095196 199.587641 
L 209.759433 199.63985 
L 209.695957 199.64951 
L 209.177748 199.725869 
L 208.831472 199.774416 
L 208.654195 199.798504 
L 208.345761 199.839178 
L 208.154703 199.863588 
L 207.563978 199.935269 
L 207.261062 199.969808 
L 207.19169 199.977506 
L 206.836472 200.015695 
L 206.435406 200.05634 
L 206.033766 200.094418 
L 205.81843 200.113753 
L 205.38924 200.150045 
L 205.301792 200.157074 
L 204.795843 200.195307 
L 204.489056 200.216473 
L 204.300551 200.228724 
L 204.040717 200.244671 
L 203.771409 200.260049 
L 203.24548 200.286711 
L 203.119715 200.292427 
L 202.562537 200.314687 
L 202.289854 200.323761 
L 201.955183 200.333265 
L 201.657804 200.3402 
L 201.383796 200.345333 
L 201.204878 200.348034 
L 200.8904 200.351536 
L 200.583921 200.353421 
L 200.174665 200.353589 
L 199.999064 200.352836 
L 199.719321 200.350615 
L 199.286707 200.344707 
L 198.864934 200.336054 
L 198.524743 200.326993 
L 198.223357 200.317412 
L 197.92143 200.306349 
L 197.70697 200.2976 
L 197.453587 200.28631 
L 196.956068 200.261133 
L 196.671595 200.244944 
L 196.400204 200.228283 
L 196.187709 200.214408 
L 195.662885 200.177011 
L 195.566382 200.169649 
L 195.063073 200.12881 
L 194.866275 200.111725 
L 194.431467 200.071745 
L 194.189958 200.04821 
L 193.857653 200.014275 
L 193.649224 199.99207 
L 193.458956 199.971181 
L 192.964832 199.914166 
L 192.745762 199.887609 
L 192.470741 199.853153 
L 192.066096 199.800196 
L 191.6294 199.740015 
L 191.440201 199.712964 
L 191.139654 199.668773 
L 190.882205 199.629727 
L 190.616494 199.588273 
L 190.085917 199.501977 
L 189.774304 199.4491 
L 189.521795 199.405059 
L 189.094668 199.32812 
L 188.913802 199.294614 
L 188.61773 199.238572 
L 188.422515 199.200809 
L 187.985899 199.114005 
L 187.747717 199.065282 
L 187.347525 198.981235 
L 187.061415 198.919463 
L 186.741725 198.848774 
L 186.273409 198.742034 
L 186.243516 198.735091 
L 185.872351 198.647596 
L 185.52512 198.563568 
L 185.073073 198.451009 
L 185.006669 198.434171 
L 184.656929 198.344208 
L 184.152442 198.21062 
L 183.922091 198.148117 
L 183.490701 198.028508 
L 183.391636 198.00057 
L 183.038011 197.899394 
L 182.627694 197.77916 
L 182.265386 197.670445 
L 182.170387 197.641542 
L 181.827525 197.53585 
L 181.560371 197.451994 
L 181.089226 197.300883 
L 180.836624 197.218162 
L 180.354047 197.056801 
L 180.222562 197.012076 
L 179.804434 196.867665 
L 179.48443 196.754893 
L 179.311579 196.693161 
L 178.752668 196.489611 
L 178.566946 196.42063 
L 178.184225 196.276356 
L 178.120579 196.252084 
L 177.718221 196.096795 
L 177.423912 195.981175 
L 177.076859 195.84261 
L 176.867145 195.757707 
L 176.414117 195.57126 
L 176.11901 195.447558 
L 175.755465 195.29271 
L 175.468879 195.168714 
L 175.257556 195.076187 
L 174.961654 194.945056 
L 174.490534 194.732463 
L 174.089224 194.547642 
L 173.923158 194.470149 
L 173.610707 194.32273 
L 173.281284 194.165 
L 172.84185 193.950882 
L 172.779616 193.920212 
L 172.290748 193.676281 
L 171.905324 193.48017 
L 171.61277 193.329054 
L 171.44185 193.239858 
L 171.155768 193.089053 
L 170.868782 192.935857 
L 170.513291 192.743409 
L 170.284092 192.617743 
L 169.906711 192.408093 
L 169.442017 192.145205 
L 169.2 192.006198 
L 169.2 262.661538 
L 169.596664 262.660276 
L 169.973563 262.656736 
L 170.163312 262.654091 
L 170.546473 262.646988 
L 170.673193 262.64412 
L 171.192619 262.629668 
L 171.240533 262.628116 
L 171.768745 262.608565 
L 171.901589 262.602942 
L 172.378219 262.580428 
L 172.677007 262.564448 
L 173.065511 262.541517 
L 173.186682 262.533866 
L 173.500974 262.512917 
L 173.914982 262.482885 
L 174.250199 262.456535 
L 174.650732 262.422663 
L 174.722064 262.416358 
L 175.193861 262.37257 
L 175.470085 262.345253 
L 175.622239 262.329675 
L 176.03894 262.285078 
L 176.309778 262.25457 
L 176.615863 262.218646 
L 176.874668 262.187073 
L 177.310785 262.13138 
L 177.736679 262.07397 
L 178.013773 262.03501 
L 178.215735 262.005813 
L 178.702312 261.932695 
L 178.864202 261.907495 
L 179.169371 261.858807 
L 179.383472 261.82372 
L 179.964793 261.724586 
L 180.142124 261.693217 
L 180.464323 261.634867 
L 180.715584 261.588149 
L 180.958846 261.541901 
L 181.386223 261.45822 
L 181.821318 261.369835 
L 182.039333 261.324331 
L 182.456762 261.234933 
L 182.761305 261.167821 
L 183.013939 261.110933 
L 183.358992 261.031449 
L 183.675036 260.956832 
L 183.80644 260.925295 
L 184.116497 260.849686 
L 184.624143 260.722251 
L 184.905152 260.649756 
L 185.180807 260.577283 
L 185.456921 260.503335 
L 185.894846 260.383261 
L 186.214954 260.293314 
L 186.349889 260.254846 
L 186.638634 260.171424 
L 186.939837 260.08279 
L 187.480682 259.919484 
L 187.641222 259.869977 
L 187.982228 259.763243 
L 188.430861 259.61954 
L 188.590555 259.567484 
L 188.99027 259.435093 
L 189.155812 259.379384 
L 189.441814 259.281917 
L 189.837886 259.144374 
L 190.29218 258.982921 
L 190.54659 258.890771 
L 190.879086 258.768448 
L 190.974345 258.733007 
L 191.295429 258.612241 
L 191.661385 258.472128 
L 192.166668 258.274315 
L 192.227333 258.250223 
L 192.575926 258.110357 
L 193.118471 257.887795 
L 193.437802 257.753999 
L 193.629395 257.672719 
L 193.829336 257.587091 
L 194.238659 257.409206 
L 194.471455 257.306476 
L 194.722754 257.194303 
L 195.246329 256.956296 
L 195.483937 256.846351 
L 195.793533 256.701273 
L 196.219635 256.498194 
L 196.485317 256.369558 
L 196.703799 256.262607 
L 197.089027 256.071444 
L 197.535468 255.845735 
L 197.782723 255.718785 
L 198.108245 255.549515 
L 198.175545 255.514215 
L 198.769788 255.197954 
L 199.007619 255.069058 
L 199.373211 254.868302 
L 199.68242 254.696009 
L 199.842334 254.605997 
L 200.29383 254.348496 
L 200.579869 254.182763 
L 200.87729 254.008276 
L 201.021026 253.923155 
L 201.498716 253.636503 
L 201.813462 253.444435 
L 201.922807 253.377109 
L 202.428378 253.061753 
L 202.692524 252.8943 
L 203.02657 252.679859 
L 203.197203 252.569157 
L 203.499384 252.371158 
L 203.920178 252.091239 
L 204.353733 251.797637 
L 204.469745 251.718169 
L 204.981131 251.363249 
L 205.210994 251.201234 
L 205.403537 251.064323 
L 205.789201 250.786761 
L 206.186663 250.495997 
L 206.388921 250.346173 
L 206.875043 249.980851 
L 207.089262 249.817493 
L 207.322235 249.638161 
L 207.738413 249.313414 
L 208.15401 248.983402 
L 208.468969 248.729425 
L 208.673253 248.562878 
L 209.027521 248.270619 
L 209.123067 248.191042 
L 209.600741 247.788313 
L 209.948178 247.490186 
L 210.115239 247.345247 
L 210.528008 246.982639 
L 210.708787 246.821782 
L 211.228833 246.351952 
L 211.497365 246.105146 
L 211.76109 245.859914 
L 212.049343 245.588593 
L 212.48098 245.175774 
L 212.764164 244.900588 
L 212.902308 244.76507 
L 213.216411 244.453779 
L 213.575838 244.092085 
L 214.017228 243.639693 
L 214.410459 243.228815 
L 214.705931 242.915082 
L 214.860122 242.749622 
L 215.168358 242.415213 
L 215.631687 241.903178 
L 216.00591 241.481152 
L 216.1794 241.282864 
L 216.452896 240.966804 
L 216.912158 240.426261 
L 217.254791 240.014729 
L 217.348986 239.90032 
L 217.591605 239.603063 
L 217.993377 239.102457 
L 218.44732 238.52386 
L 218.804872 238.058026 
L 218.834748 238.018688 
L 219.159978 237.586212 
L 219.639244 236.934322 
L 219.768134 236.755939 
L 220.239533 236.091986 
L 220.41173 235.844792 
L 220.800967 235.276457 
L 221.110754 234.81429 
L 221.374343 234.413888 
L 221.637933 234.006658 
L 221.888376 233.613183 
L 222.203018 233.109436 
L 222.364967 232.845918 
L 222.630965 232.406624 
L 223.022353 231.744974 
L 223.219071 231.40523 
L 223.491812 230.925855 
L 223.764552 230.436369 
L 223.96497 230.069947 
L 224.31789 229.410114 
L 224.474298 229.111462 
L 224.690187 228.692647 
L 224.906076 228.265879 
L 225.093386 227.888877 
L 225.280696 227.505348 
L 225.618166 226.796975 
L 225.814658 226.373628 
L 226.011149 225.94177 
L 226.139941 225.65388 
L 226.333277 225.2142 
L 226.526613 224.765072 
L 226.705644 224.340288 
L 226.884675 223.906484 
L 227.078955 223.424933 
L 227.273236 222.931442 
L 227.344917 222.746193 
L 227.565157 222.165701 
L 227.785397 221.567045 
L 227.93248 221.156353 
L 228.147515 220.538965 
L 228.362549 219.899723 
L 228.55484 219.307776 
L 228.696616 218.857933 
L 228.838391 218.395765 
L 228.980167 217.920297 
L 229.121942 217.43042 
L 229.254385 216.958647 
L 229.386827 216.471984 
L 229.478103 216.127205 
L 229.569379 215.774178 
L 229.679897 215.334855 
L 229.790415 214.881413 
L 229.894864 214.438661 
L 229.999314 213.980731 
L 230.103763 213.506038 
L 230.208213 213.012697 
L 230.285199 212.635823 
L 230.362186 212.246513 
L 230.439173 211.843505 
L 230.516159 211.425303 
L 230.570187 211.121795 
L 230.624214 210.809201 
L 230.678242 210.486681 
L 230.732269 210.153254 
L 230.786297 209.807766 
L 230.840324 209.448843 
L 230.894352 209.074827 
L 230.948379 208.683685 
L 230.986627 208.395067 
L 231.024875 208.095508 
L 231.063123 207.783685 
L 231.101371 207.457982 
L 231.139619 207.116395 
L 231.177868 206.756382 
L 231.216116 206.374637 
L 231.23524 206.17429 
L 231.254364 205.96673 
L 231.28603 205.604887 
L 231.301863 205.414198 
L 231.317696 205.215984 
L 231.333529 205.009285 
L 231.349362 204.792915 
L 231.365195 204.565385 
L 231.381028 204.324775 
L 231.396861 204.068546 
L 231.412694 203.793209 
L 231.420611 203.64689 
L 231.428527 203.49374 
L 231.436444 203.332706 
L 231.44436 203.162431 
L 231.452277 202.98112 
L 231.460193 202.786307 
L 231.46811 202.574439 
L 231.476026 202.340068 
L 231.483943 202.07402 
L 231.491859 201.758406 
L 231.499776 201.347052 
L 231.507692 200.353846 
z
" clip-path="url(#pd7e67f214f)" style="fill: #808080; opacity: 0.5"/>
   </g>
   <g id="matplotlib.axis_1"/>
   <g id="matplotlib.axis_2"/>
   <g id="line2d_1">
    <path d="M 106.892308 200.353846 
L 107.021133 204.358465 
L 107.372565 208.075039 
L 107.905417 211.544137 
L 108.718727 215.329296 
L 109.704555 218.861698 
L 110.96383 222.507784 
L 112.374404 225.90967 
L 114.093918 229.432503 
L 115.911201 232.642426 
L 117.777833 235.539202 
L 120.152928 238.780833 
L 122.600998 241.715441 
L 125.179387 244.449585 
L 127.961128 247.061489 
L 130.719192 249.358702 
L 133.857494 251.668131 
L 137.105384 253.75969 
L 140.343988 255.57684 
L 143.469557 257.100589 
L 146.918234 258.541228 
L 150.31969 259.732145 
L 154.079808 260.799097 
L 157.83973 261.617153 
L 161.689199 262.207192 
L 165.535966 262.553713 
L 169.2 262.661538 
L 169.2 262.661538 
" clip-path="url(#pd7e67f214f)" style="fill: none; stroke: #0000ff; stroke-linecap: square"/>
   </g>
   <g id="line2d_2">
    <path d="M 169.2 262.661538 
L 173.065511 262.541517 
L 176.615863 262.218646 
L 180.142124 261.693217 
L 183.80644 260.925295 
L 187.480682 259.919484 
L 190.974345 258.733007 
L 194.471455 257.306476 
L 197.782723 255.718785 
L 201.021026 253.923155 
L 204.353733 251.797637 
L 207.322235 249.638161 
L 210.115239 247.345247 
L 212.902308 244.76507 
L 215.168358 242.415213 
L 217.591605 239.603063 
L 219.768134 236.755939 
L 221.888376 233.613183 
L 223.764552 230.436369 
L 225.280696 227.505348 
L 226.884675 223.906484 
L 228.147515 220.538965 
L 229.254385 216.958647 
L 230.103763 213.506038 
L 230.786297 209.807766 
L 231.254364 205.96673 
L 231.483943 202.07402 
L 231.507692 200.353846 
L 231.507692 200.353846 
" clip-path="url(#pd7e67f214f)" style="fill: none; stroke: #0000ff; stroke-linecap: square"/>
   </g>
   <g id="text_1">
    <!-- $\Omega$ -->
    <g transform="translate(16.011538 22.420913) scale(0.1 -0.1)">
     <defs>
      <path id="Cmr10-ad" d="M 494 0 
L 281 1063 
L 469 1063 
Q 503 878 531 736 
Q 559 594 604 536 
Q 650 478 750 459 
Q 850 441 1081 441 
L 1472 441 
Q 1378 803 1004 1386 
Q 631 1969 495 2233 
Q 359 2497 359 2913 
Q 359 3397 646 3761 
Q 934 4125 1389 4319 
Q 1844 4513 2309 4513 
Q 2772 4513 3226 4319 
Q 3681 4125 3968 3758 
Q 4256 3391 4256 2913 
Q 4256 2588 4137 2300 
Q 4019 2013 3834 1725 
Q 3650 1438 3436 1084 
Q 3222 731 3144 441 
L 3531 441 
Q 3766 441 3869 459 
Q 3972 478 4015 536 
Q 4059 594 4086 736 
Q 4113 878 4147 1063 
L 4331 1063 
L 4122 0 
L 2988 0 
Q 2925 0 2925 84 
Q 2925 409 3004 721 
Q 3084 1034 3240 1478 
Q 3397 1922 3484 2261 
Q 3572 2600 3572 2913 
Q 3572 3297 3422 3625 
Q 3272 3953 2984 4150 
Q 2697 4347 2309 4347 
Q 1725 4347 1384 3930 
Q 1044 3513 1044 2913 
Q 1047 2584 1122 2293 
Q 1197 2003 1364 1518 
Q 1531 1034 1611 721 
Q 1691 409 1691 84 
Q 1691 0 1625 0 
L 494 0 
z
" transform="scale(0.015625)"/>
     </defs>
     <use xlink:href="#Cmr10-ad" transform="translate(0 0.484375)"/>
    </g>
   </g>
   <g id="text_2">
    <!-- $A$ -->
    <g style="fill: #0000ff" transform="translate(149.873077 271.651683) scale(0.1 -0.1)">
     <defs>
      <path id="Cmmi10-41" d="M 288 0 
Q 225 0 225 84 
Q 250 225 306 225 
Q 566 225 755 328 
Q 944 431 1081 647 
Q 1094 659 1094 659 
L 3378 4513 
Q 3428 4581 3500 4581 
L 3584 4581 
Q 3603 4581 3622 4573 
Q 3641 4566 3655 4548 
Q 3669 4531 3669 4513 
L 4056 378 
Q 4056 350 4084 294 
Q 4147 225 4563 225 
Q 4628 225 4628 141 
Q 4606 56 4592 28 
Q 4578 0 4519 0 
L 2919 0 
Q 2859 0 2859 84 
Q 2894 225 2944 225 
Q 3450 225 3481 397 
L 3384 1453 
L 1806 1453 
L 1294 594 
Q 1247 525 1247 434 
Q 1247 322 1355 273 
Q 1463 225 1594 225 
Q 1656 225 1656 141 
Q 1634 50 1621 25 
Q 1609 0 1550 0 
L 288 0 
z
M 1931 1678 
L 3359 1678 
L 3169 3750 
L 1931 1678 
z
" transform="scale(0.015625)"/>
     </defs>
     <use xlink:href="#Cmmi10-41" transform="translate(0 0.421875)"/>
    </g>
   </g>
   <g id="text_3">
    <!-- $B$ -->
    <g style="fill: #ff0000" transform="translate(227.707692 78.497837) scale(0.1 -0.1)">
     <defs>
      <path id="Cmmi10-42" d="M 319 0 
Q 256 0 256 84 
Q 259 100 268 137 
Q 278 175 293 200 
Q 309 225 341 225 
Q 522 225 656 234 
Q 791 244 884 269 
Q 959 297 1006 441 
L 1881 3956 
Q 1894 4019 1894 4044 
Q 1894 4113 1819 4122 
Q 1697 4147 1356 4147 
Q 1294 4147 1294 4231 
Q 1297 4247 1306 4286 
Q 1316 4325 1333 4348 
Q 1350 4372 1375 4372 
L 3669 4372 
Q 3878 4372 4083 4320 
Q 4288 4269 4461 4156 
Q 4634 4044 4736 3876 
Q 4838 3709 4838 3488 
Q 4838 3247 4714 3040 
Q 4591 2834 4395 2681 
Q 4200 2528 3973 2429 
Q 3747 2331 3500 2284 
Q 3675 2284 3854 2215 
Q 4034 2147 4175 2028 
Q 4316 1909 4402 1743 
Q 4488 1578 4488 1388 
Q 4488 1003 4219 684 
Q 3950 366 3542 183 
Q 3134 0 2753 0 
L 319 0 
z
M 1497 275 
Q 1497 225 1716 225 
L 2631 225 
Q 2944 225 3231 398 
Q 3519 572 3692 859 
Q 3866 1147 3866 1459 
Q 3866 1650 3786 1820 
Q 3706 1991 3556 2089 
Q 3406 2188 3213 2188 
L 1966 2188 
L 1522 416 
Q 1497 328 1497 275 
z
M 2009 2356 
L 2981 2356 
Q 3288 2356 3577 2512 
Q 3866 2669 4048 2937 
Q 4231 3206 4231 3506 
Q 4231 3784 4057 3965 
Q 3884 4147 3609 4147 
L 2731 4147 
Q 2559 4147 2500 4115 
Q 2441 4084 2400 3928 
L 2009 2356 
z
" transform="scale(0.015625)"/>
     </defs>
     <use xlink:href="#Cmmi10-42" transform="translate(0 0.6875)"/>
    </g>
   </g>
   <g id="text_4">
    <!-- $C$ -->
    <g style="fill: #228b22" transform="translate(103.292308 78.497837) scale(0.1 -0.1)">
     <defs>
      <path id="Cmmi10-43" d="M 934 1381 
Q 934 997 1082 705 
Q 1231 413 1514 248 
Q 1797 84 2181 84 
Q 2584 84 2957 290 
Q 3331 497 3595 842 
Q 3859 1188 3956 1575 
Q 3969 1613 4006 1613 
L 4084 1613 
Q 4109 1613 4125 1595 
Q 4141 1578 4141 1556 
Q 4141 1550 4134 1538 
Q 4025 1094 3711 705 
Q 3397 316 2959 87 
Q 2522 -141 2059 -141 
Q 1559 -141 1162 84 
Q 766 309 545 709 
Q 325 1109 325 1613 
Q 325 2150 565 2676 
Q 806 3203 1212 3614 
Q 1619 4025 2139 4269 
Q 2659 4513 3194 4513 
Q 3406 4513 3600 4448 
Q 3794 4384 3959 4253 
Q 4125 4122 4231 3950 
L 4738 4500 
Q 4738 4513 4769 4513 
L 4806 4513 
Q 4831 4513 4847 4491 
Q 4863 4469 4863 4447 
L 4428 2719 
Q 4428 2675 4378 2675 
L 4263 2675 
Q 4213 2675 4213 2747 
Q 4238 2888 4238 3084 
Q 4238 3397 4131 3673 
Q 4025 3950 3801 4119 
Q 3578 4288 3256 4288 
Q 2734 4288 2300 4025 
Q 1866 3763 1564 3336 
Q 1263 2909 1098 2389 
Q 934 1869 934 1381 
z
" transform="scale(0.015625)"/>
     </defs>
     <use xlink:href="#Cmmi10-43" transform="translate(0 0.484375)"/>
    </g>
   </g>
   <g id="patch_6">
    <path d="M 169.2 262.661538 
C 185.724193 262.661538 201.573823 256.096407 213.258192 244.412038 
C 224.942561 232.727669 231.507692 216.878039 231.507692 200.353846 
C 231.507692 183.829653 224.942561 167.980023 213.258192 156.295654 
C 201.573823 144.611285 185.724193 138.046154 169.2 138.046154 
C 152.675807 138.046154 136.826177 144.611285 125.141808 156.295654 
C 113.457439 167.980023 106.892308 183.829653 106.892308 200.353846 
C 106.892308 216.878039 113.457439 232.727669 125.141808 244.412038 
C 136.826177 256.096407 152.675807 262.661538 169.2 262.661538 
L 169.2 262.661538 
z
" clip-path="url(#pd7e67f214f)" style="fill: none; stroke: #0000ff; stroke-linejoin: miter"/>
   </g>
   <g id="patch_7">
    <path d="M 200.353846 200.353846 
C 216.878039 200.353846 232.727669 193.788715 244.412038 182.104346 
C 256.096407 170.419977 262.661538 154.570347 262.661538 138.046154 
C 262.661538 121.521961 256.096407 105.672331 244.412038 93.987962 
C 232.727669 82.303593 216.878039 75.738462 200.353846 75.738462 
C 183.829653 75.738462 167.980023 82.303593 156.295654 93.987962 
C 144.611285 105.672331 138.046154 121.521961 138.046154 138.046154 
C 138.046154 154.570347 144.611285 170.419977 156.295654 182.104346 
C 167.980023 193.788715 183.829653 200.353846 200.353846 200.353846 
L 200.353846 200.353846 
z
" clip-path="url(#pd7e67f214f)" style="fill: none; stroke: #ff0000; stroke-linejoin: miter"/>
   </g>
   <g id="patch_8">
    <path d="M 138.046154 200.353846 
C 154.570347 200.353846 170.419977 193.788715 182.104346 182.104346 
C 193.788715 170.419977 200.353846 154.570347 200.353846 138.046154 
C 200.353846 121.521961 193.788715 105.672331 182.104346 93.987962 
C 170.419977 82.303593 154.570347 75.738462 138.046154 75.738462 
C 121.521961 75.738462 105.672331 82.303593 93.987962 93.987962 
C 82.303593 105.672331 75.738462 121.521961 75.738462 138.046154 
C 75.738462 154.570347 82.303593 170.419977 93.987962 182.104346 
C 105.672331 193.788715 121.521961 200.353846 138.046154 200.353846 
L 138.046154 200.353846 
z
" clip-path="url(#pd7e67f214f)" style="fill: none; stroke: #228b22; stroke-linejoin: miter"/>
   </g>
  </g>
 </g>
 <defs>
  <clipPath id="pd7e67f214f">
   <rect x="7.2" y="7.2" width="324" height="324"/>
  </clipPath>
 </defs>
</svg>
