<?xml version="1.0" encoding="utf-8" standalone="no"?>
<!DOCTYPE svg PUBLIC "-//W3C//DTD SVG 1.1//EN"
  "http://www.w3.org/Graphics/SVG/1.1/DTD/svg11.dtd">
<!-- Created with matplotlib (https://matplotlib.org/) -->
<svg height="338.4pt" version="1.1" viewBox="0 0 338.4 338.4" width="338.4pt" xmlns="http://www.w3.org/2000/svg" xmlns:xlink="http://www.w3.org/1999/xlink">
 <metadata>
  <rdf:RDF xmlns:cc="http://creativecommons.org/ns#" xmlns:dc="http://purl.org/dc/elements/1.1/" xmlns:rdf="http://www.w3.org/1999/02/22-rdf-syntax-ns#">
   <cc:Work>
    <dc:type rdf:resource="http://purl.org/dc/dcmitype/StillImage"/>
    <dc:date>2024-11-18T20:48:27.887992</dc:date>
    <dc:format>image/svg+xml</dc:format>
    <dc:creator>
     <cc:Agent>
      <dc:title>Matplotlib v3.3.4, https://matplotlib.org/</dc:title>
     </cc:Agent>
    </dc:creator>
   </cc:Work>
  </rdf:RDF>
 </metadata>
 <defs>
  <style type="text/css">*{stroke-linecap:butt;stroke-linejoin:round;}</style>
 </defs>
 <g id="figure_1">
  <g id="patch_1">
   <path d="M -0 338.4 
L 338.4 338.4 
L 338.4 0 
L -0 0 
z
" style="fill:#ffffff;"/>
  </g>
  <g id="axes_1">
   <g id="patch_2">
    <path d="M 7.2 331.2 
L 331.2 331.2 
L 331.2 7.2 
L 7.2 7.2 
z
" style="fill:#ffffff;"/>
   </g>
   <g id="patch_3">
    <path clip-path="url(#p10a54812a5)" d="M 13.430769 324.969231 
L 13.430769 13.430769 
L 324.969231 13.430769 
L 324.969231 324.969231 
z
" style="fill:none;stroke:#000000;stroke-linejoin:miter;"/>
   </g>
   <g id="patch_4">
    <path clip-path="url(#p10a54812a5)" d="M 200.353846 138.046154 
L 200.348525 138.860464 
L 200.343203 139.197738 
L 200.337882 139.45652 
L 200.332561 139.67467 
L 200.327239 139.866851 
L 200.321918 140.040585 
L 200.316596 140.20034 
L 200.311275 140.349026 
L 200.305953 140.488667 
L 200.300632 140.620734 
L 200.295311 140.746338 
L 200.289989 140.866344 
L 200.284668 140.981438 
L 200.279346 141.092177 
L 200.274025 141.199021 
L 200.268704 141.302351 
L 200.258061 141.499725 
L 200.247418 141.686382 
L 200.236775 141.863894 
L 200.226132 142.033483 
L 200.21549 142.19612 
L 200.204847 142.352593 
L 200.194204 142.503551 
L 200.183561 142.649537 
L 200.170242 142.825927 
L 200.156922 142.995998 
L 200.143603 143.160383 
L 200.130284 143.319612 
L 200.116964 143.474139 
L 200.103645 143.624356 
L 200.090325 143.770601 
L 200.077006 143.913172 
L 200.059976 144.090526 
L 200.042945 144.262775 
L 200.025915 144.430334 
L 200.008884 144.593561 
L 199.991854 144.752774 
L 199.974824 144.908252 
L 199.957793 145.060242 
L 199.940763 145.208968 
L 199.907826 145.488068 
L 199.874889 145.756931 
L 199.841951 146.016595 
L 199.809014 146.267929 
L 199.776077 146.511677 
L 199.74314 146.748476 
L 199.710203 146.978879 
L 199.677266 147.203367 
L 199.634767 147.484971 
L 199.592268 147.758227 
L 199.541988 148.071664 
L 199.491709 148.37535 
L 199.441429 148.67012 
L 199.39115 148.956699 
L 199.326413 149.314619 
L 199.288525 149.518753 
L 199.250636 149.719194 
L 199.212747 149.916131 
L 199.174859 150.109734 
L 199.099081 150.487559 
L 199.023304 150.853796 
L 198.946938 151.212132 
L 198.870573 151.560539 
L 198.849774 151.65381 
L 198.802694 151.862499 
L 198.755613 152.067925 
L 198.661453 152.46954 
L 198.608818 152.688974 
L 198.556184 152.904982 
L 198.50355 153.11771 
L 198.450915 153.327296 
L 198.359996 153.682296 
L 198.297455 153.921581 
L 198.234914 154.157071 
L 198.172373 154.388929 
L 198.109832 154.617306 
L 198.044927 154.85079 
L 197.980021 155.080826 
L 197.906089 155.33883 
L 197.832157 155.592729 
L 197.751694 155.864598 
L 197.671231 156.132023 
L 197.59326 156.387111 
L 197.515288 156.638373 
L 197.440171 156.87696 
L 197.365054 157.112265 
L 197.265811 157.418318 
L 197.166568 157.71911 
L 197.066691 158.01675 
L 196.967815 158.306618 
L 196.845291 158.659498 
L 196.722768 159.005723 
L 196.62923 159.26576 
L 196.535693 159.522241 
L 196.482344 159.666981 
L 196.35277 160.014017 
L 196.223196 160.354903 
L 196.114757 160.635662 
L 195.994886 160.941414 
L 195.890033 161.205043 
L 195.78518 161.465234 
L 195.599005 161.919107 
L 195.455061 162.263213 
L 195.413429 162.361668 
L 195.199077 162.861309 
L 195.077914 163.13852 
L 194.956752 163.412123 
L 194.948371 163.430917 
L 194.791435 163.779821 
L 194.630386 164.132035 
L 194.388199 164.651087 
L 194.268936 164.9022 
L 194.04445 165.367197 
L 194.00496 165.447988 
L 193.844952 165.772363 
L 193.585265 166.288952 
L 193.440018 166.572778 
L 193.318811 166.806925 
L 193.111119 167.202597 
L 192.937986 167.527255 
L 192.869366 167.654666 
L 192.655639 168.04703 
L 192.523089 168.287054 
L 192.365888 168.568523 
L 192.24202 168.787927 
L 192.035641 169.148947 
L 191.954309 169.289702 
L 191.815193 169.528513 
L 191.540611 169.992854 
L 191.393952 170.237162 
L 191.255888 170.464863 
L 191.0981 170.722438 
L 191.006651 170.870447 
L 190.882101 171.070557 
L 190.577501 171.55296 
L 190.448747 171.753968 
L 190.301484 171.981814 
L 190.229384 172.092579 
L 189.990013 172.456676 
L 189.853997 172.661121 
L 189.764193 172.795152 
L 189.613395 173.018545 
L 189.336401 173.423534 
L 189.25886 173.535691 
L 189.043874 173.843933 
L 188.910788 174.032784 
L 188.728804 174.288636 
L 188.536527 174.556026 
L 188.520684 174.577925 
L 188.263033 174.931294 
L 188.143359 175.093671 
L 187.934533 175.374402 
L 187.870501 175.459827 
L 187.63577 175.770397 
L 187.47248 175.984087 
L 187.366837 176.121326 
L 187.129604 176.426662 
L 187.010035 176.579086 
L 186.890786 176.730135 
L 186.810935 176.830747 
L 186.573534 177.127375 
L 186.452798 177.276821 
L 186.322953 177.436498 
L 186.146766 177.651452 
L 185.958856 177.878571 
L 185.769856 178.104821 
L 185.653435 178.243111 
L 185.516369 178.404885 
L 185.292122 178.667171 
L 185.137124 178.846755 
L 184.988487 179.017679 
L 184.801819 179.230572 
L 184.683692 179.364292 
L 184.547483 179.517529 
L 184.451346 179.625075 
L 184.221209 179.880504 
L 184.093764 180.020743 
L 183.961605 180.165269 
L 183.697187 180.451716 
L 183.62096 180.533629 
L 183.477096 180.687425 
L 183.293102 180.882613 
L 183.113616 181.071407 
L 183.030074 181.158744 
L 182.743173 181.456118 
L 182.670559 181.53076 
L 182.536234 181.668181 
L 182.285902 181.922038 
L 182.201894 182.006581 
L 182.039002 182.169592 
L 181.846192 182.360996 
L 181.763969 182.442112 
L 181.494138 182.706216 
L 181.407831 182.790019 
L 181.251968 182.940542 
L 181.106684 183.079911 
L 180.982921 183.197926 
L 180.719624 183.446853 
L 180.550058 183.605639 
L 180.538123 183.61677 
L 180.279752 183.856324 
L 180.118974 184.00403 
L 179.954886 184.153709 
L 179.828395 184.268365 
L 179.739203 184.348834 
L 179.545996 184.522079 
L 179.33513 184.709512 
L 179.247341 184.787043 
L 179.021346 184.985286 
L 178.873166 185.114228 
L 178.813608 185.165823 
L 178.60981 185.341379 
L 178.40451 185.516688 
L 178.303503 185.602377 
L 178.160496 185.723067 
L 177.936958 185.910256 
L 177.753122 186.062872 
L 177.68174 186.121811 
L 177.555361 186.225725 
L 177.346528 186.396222 
L 177.176006 186.534329 
L 177.083179 186.609094 
L 176.904113 186.752494 
L 176.727988 186.892487 
L 176.553255 187.030352 
L 176.33514 187.201032 
L 176.246776 187.269735 
L 176.133432 187.357489 
L 175.956632 187.493542 
L 175.838274 187.58406 
L 175.583481 187.777408 
L 175.446185 187.880742 
L 175.236152 188.037678 
L 175.190912 188.071302 
L 175.052073 188.174095 
L 174.796329 188.361889 
L 174.635058 188.479284 
L 174.548209 188.542178 
L 174.35192 188.68349 
L 174.137797 188.836328 
L 174.092354 188.868589 
L 173.969751 188.955325 
L 173.710188 189.137496 
L 173.586488 189.223621 
L 173.500147 189.283473 
L 173.228586 189.470321 
L 173.043783 189.59627 
L 172.906076 189.689491 
L 172.776718 189.776574 
L 172.659634 189.85499 
L 172.508434 189.955688 
L 172.366613 190.049563 
L 172.250934 190.125723 
L 172.003772 190.287217 
L 171.852443 190.385273 
L 171.71585 190.473247 
L 171.587141 190.555684 
L 171.427534 190.657293 
L 171.234492 190.779281 
L 171.027843 190.908775 
L 170.92675 190.971714 
L 170.821642 191.036869 
L 170.643577 191.146592 
L 170.477898 191.247944 
L 170.33776 191.333119 
L 170.092287 191.481104 
L 169.961997 191.559026 
L 169.901405 191.595118 
L 169.679441 191.726538 
L 169.463712 191.853082 
L 169.289724 191.954297 
L 169.2 192.006198 
L 169.2 192.006198 
L 169.38836 192.114511 
L 169.455408 192.152854 
L 169.682135 192.281702 
L 169.764204 192.328032 
L 170.052171 192.489308 
L 170.167513 192.553345 
L 170.302334 192.627791 
L 170.433617 192.699867 
L 170.612181 192.797244 
L 170.774744 192.885239 
L 170.926738 192.96695 
L 171.019129 193.016354 
L 171.190152 193.107279 
L 171.335264 193.183894 
L 171.500059 193.270311 
L 171.686365 193.367253 
L 171.837898 193.445515 
L 171.998734 193.528008 
L 172.22286 193.641982 
L 172.296129 193.678995 
L 172.532336 193.797496 
L 172.682879 193.872367 
L 172.786545 193.923631 
L 172.937792 193.997995 
L 173.100997 194.077669 
L 173.328423 194.187716 
L 173.418761 194.231113 
L 173.592802 194.314218 
L 173.679194 194.355225 
L 173.842055 194.432087 
L 173.978279 194.495937 
L 174.225575 194.610825 
L 174.397401 194.689878 
L 174.465172 194.720884 
L 174.754715 194.852254 
L 174.852082 194.896031 
L 174.962905 194.945614 
L 175.123319 195.016927 
L 175.233238 195.06548 
L 175.392572 195.135411 
L 175.691961 195.265381 
L 175.75254 195.291453 
L 175.952737 195.377074 
L 176.136656 195.455005 
L 176.239898 195.498447 
L 176.46968 195.594352 
L 176.486479 195.601321 
L 176.756385 195.712507 
L 176.938708 195.786779 
L 177.063246 195.837126 
L 177.110162 195.856012 
L 177.293475 195.92938 
L 177.558721 196.034349 
L 177.729381 196.101146 
L 177.865018 196.153822 
L 177.889882 196.163439 
L 178.14619 196.261861 
L 178.219392 196.289733 
L 178.412103 196.362604 
L 178.620924 196.440748 
L 178.775317 196.497977 
L 178.930817 196.555148 
L 179.10302 196.617912 
L 179.211744 196.657245 
L 179.429116 196.735201 
L 179.595143 196.79413 
L 179.622575 196.803816 
L 179.767543 196.854764 
L 179.952055 196.919029 
L 180.190137 197.000995 
L 180.262847 197.025814 
L 180.452791 197.090176 
L 180.550935 197.123165 
L 180.80221 197.2068 
L 180.874979 197.230799 
L 181.14938 197.320406 
L 181.219851 197.343192 
L 181.457392 197.419317 
L 181.521344 197.439633 
L 181.734454 197.506786 
L 181.857205 197.545085 
L 182.084088 197.615143 
L 182.23367 197.660814 
L 182.317028 197.686088 
L 182.547473 197.755295 
L 182.666511 197.790666 
L 182.845428 197.843343 
L 182.993179 197.886406 
L 183.193439 197.944142 
L 183.244115 197.958637 
L 183.48994 198.028294 
L 183.643543 198.071268 
L 183.784821 198.110419 
L 183.994018 198.167735 
L 184.039468 198.180084 
L 184.166172 198.214316 
L 184.318539 198.255102 
L 184.559118 198.318661 
L 184.764442 198.372093 
L 184.811573 198.384253 
L 184.942441 198.417812 
L 185.124181 198.463915 
L 185.372376 198.525936 
L 185.552416 198.57025 
L 185.69092 198.603954 
L 185.824222 198.636075 
L 185.97233 198.6714 
L 186.124689 198.707341 
L 186.259288 198.738756 
L 186.411731 198.773956 
L 186.583355 198.813103 
L 186.672995 198.833347 
L 186.957409 198.896659 
L 187.095136 198.926817 
L 187.222598 198.954436 
L 187.314462 198.974169 
L 187.535798 199.021117 
L 187.657351 199.046543 
L 187.868109 199.090031 
L 188.035869 199.124104 
L 188.069332 199.130843 
L 188.304219 199.177611 
L 188.499495 199.215778 
L 188.669597 199.248497 
L 188.727284 199.259482 
L 188.942706 199.300006 
L 189.049756 199.319852 
L 189.21696 199.350463 
L 189.458848 199.393913 
L 189.508735 199.402752 
L 189.648218 199.427242 
L 189.891373 199.469156 
L 190.083041 199.501496 
L 190.233232 199.526408 
L 190.334474 199.542989 
L 190.513058 199.571818 
L 190.6878 199.599513 
L 190.776692 199.613407 
L 190.909611 199.633936 
L 191.189116 199.676148 
L 191.333382 199.697429 
L 191.457554 199.71547 
L 191.565281 199.730914 
L 191.694975 199.749253 
L 191.846397 199.770313 
L 191.99561 199.790695 
L 192.213639 199.819818 
L 192.3716 199.840428 
L 192.578525 199.866805 
L 192.646971 199.875375 
L 192.882707 199.904303 
L 193.046178 199.923828 
L 193.132022 199.933905 
L 193.264576 199.949229 
L 193.438144 199.96886 
L 193.674332 199.994783 
L 193.71027 199.998647 
L 193.965929 200.02553 
L 194.168924 200.046116 
L 194.230587 200.052236 
L 194.419522 200.070603 
L 194.609117 200.088451 
L 194.720693 200.098681 
L 194.867535 200.111836 
L 194.999576 200.123366 
L 195.186884 200.139237 
L 195.3119 200.149514 
L 195.523023 200.166293 
L 195.590922 200.171536 
L 195.738083 200.182643 
L 195.955033 200.198378 
L 196.197295 200.21505 
L 196.212411 200.216058 
L 196.458865 200.231985 
L 196.524446 200.236058 
L 196.682316 200.245578 
L 196.940907 200.260303 
L 197.134752 200.270634 
L 197.189523 200.273444 
L 197.329945 200.280425 
L 197.568585 200.291562 
L 197.64176 200.294793 
L 197.921192 200.306339 
L 198.052292 200.311324 
L 198.119307 200.313765 
L 198.244057 200.318116 
L 198.510091 200.326561 
L 198.617938 200.32966 
L 198.744558 200.33306 
L 198.921506 200.337381 
L 199.157548 200.342361 
L 199.208931 200.343326 
L 199.345187 200.345681 
L 199.532495 200.348432 
L 199.683435 200.350239 
L 199.961386 200.35261 
L 200.079463 200.353242 
L 200.229184 200.353721 
L 200.353846 200.353846 
z
" style="fill:#808080;opacity:0.5;"/>
   </g>
   <g id="patch_5">
    <path clip-path="url(#p10a54812a5)" d="M 231.507692 200.353846 
L 231.504521 199.725222 
L 231.50135 199.464849 
L 231.498179 199.265066 
L 231.495008 199.096647 
L 231.491836 198.948272 
L 231.488665 198.814137 
L 231.485494 198.690791 
L 231.482323 198.575988 
L 231.479152 198.468167 
L 231.475981 198.366191 
L 231.472809 198.269203 
L 231.469638 198.176535 
L 231.466467 198.087657 
L 231.463296 198.002141 
L 231.456953 197.839831 
L 231.450611 197.687399 
L 231.444269 197.543235 
L 231.437926 197.406128 
L 231.431584 197.275133 
L 231.425242 197.149502 
L 231.418899 197.028625 
L 231.412557 196.912003 
L 231.406215 196.799217 
L 231.398296 196.66325 
L 231.390377 196.532134 
L 231.382459 196.405385 
L 231.37454 196.282596 
L 231.366622 196.163418 
L 231.358703 196.047551 
L 231.342866 195.824744 
L 231.327028 195.612448 
L 231.311191 195.409309 
L 231.295354 195.214242 
L 231.279517 195.02636 
L 231.26368 194.844926 
L 231.247842 194.669325 
L 231.232005 194.499031 
L 231.216168 194.333594 
L 231.200331 194.172624 
L 231.184493 194.01578 
L 231.168656 193.862763 
L 231.152819 193.713309 
L 231.133649 193.536832 
L 231.114478 193.364863 
L 231.095308 193.197076 
L 231.076138 193.033184 
L 231.056967 192.87293 
L 231.037797 192.716087 
L 230.999456 192.411825 
L 230.977118 192.239892 
L 230.954779 192.071589 
L 230.93244 191.906696 
L 230.910102 191.74502 
L 230.865424 191.430619 
L 230.820747 191.12714 
L 230.778912 190.851947 
L 230.737078 190.584681 
L 230.696962 190.335255 
L 230.656847 190.092047 
L 230.616731 189.854625 
L 230.576616 189.622603 
L 230.52986 189.35854 
L 230.483105 189.100866 
L 230.436803 188.851567 
L 230.390502 188.60774 
L 230.3442 188.369051 
L 230.297898 188.135199 
L 230.229392 187.7975 
L 230.160886 187.469012 
L 230.092379 187.149048 
L 230.023873 186.837003 
L 229.956303 186.536459 
L 229.906206 186.317997 
L 229.856109 186.103059 
L 229.806013 185.89149 
L 229.755916 185.683142 
L 229.655798 185.275883 
L 229.55568 184.879986 
L 229.536612 184.805799 
L 229.465161 184.531114 
L 229.393711 184.261435 
L 229.279113 183.83874 
L 229.164515 183.427372 
L 229.046413 183.014428 
L 228.928311 182.611878 
L 228.798855 182.181751 
L 228.710064 181.893054 
L 228.606159 181.561379 
L 228.531227 181.326128 
L 228.456295 181.094042 
L 228.306431 180.638919 
L 228.292424 180.596975 
L 228.20971 180.351281 
L 228.126996 180.108906 
L 227.972257 179.663985 
L 227.88313 179.412528 
L 227.794002 179.164429 
L 227.69425 178.890593 
L 227.594498 178.620665 
L 227.471584 178.293225 
L 227.352611 177.981489 
L 227.208331 177.610011 
L 227.064052 177.245405 
L 226.950752 176.963695 
L 226.846191 176.707173 
L 226.74163 176.453861 
L 226.579685 176.06763 
L 226.423305 175.701424 
L 226.372488 175.583802 
L 226.206802 175.204829 
L 225.977132 174.690529 
L 225.837857 174.384602 
L 225.756101 174.20703 
L 225.626236 173.927942 
L 225.496371 173.652401 
L 225.386275 173.421505 
L 225.224775 173.087143 
L 225.14798 172.929914 
L 224.997647 172.625321 
L 224.842909 172.316101 
L 224.576967 171.794434 
L 224.444516 171.539059 
L 224.286859 171.238791 
L 224.107592 170.902109 
L 223.987484 170.679276 
L 223.761941 170.266588 
L 223.724062 170.197997 
L 223.463375 169.731392 
L 223.334957 169.504942 
L 223.259529 169.372952 
L 222.996534 168.918492 
L 222.960419 168.85677 
L 222.675506 168.375435 
L 222.643877 168.322602 
L 222.4251 167.96037 
L 222.300138 167.755935 
L 222.177136 167.556414 
L 221.974608 167.231507 
L 221.818812 166.984562 
L 221.652659 166.723992 
L 221.471703 166.443412 
L 221.321788 166.213434 
L 221.139242 165.936356 
L 221.072972 165.836556 
L 220.92163 165.610192 
L 220.6411 165.196177 
L 220.599368 165.135193 
L 220.361758 164.790902 
L 220.204899 164.566295 
L 220.039389 164.33156 
L 219.990536 164.262712 
L 219.689425 163.842663 
L 219.629237 163.759576 
L 219.461112 163.529002 
L 219.34286 163.368145 
L 219.206515 163.184007 
L 219.058101 162.985165 
L 218.77566 162.611264 
L 218.652953 162.450627 
L 218.489716 162.238594 
L 218.350859 162.0597 
L 218.212236 161.882437 
L 218.082462 161.717678 
L 217.857549 161.434809 
L 217.656128 161.184315 
L 217.509333 161.00341 
L 217.479717 160.967079 
L 217.25438 160.692466 
L 217.174932 160.596402 
L 216.892899 160.258511 
L 216.767413 160.109719 
L 216.636027 159.954937 
L 216.438294 159.723905 
L 216.318498 159.585039 
L 216.211344 159.461524 
L 215.938189 159.149596 
L 215.854187 159.054508 
L 215.630649 158.803355 
L 215.552746 158.716465 
L 215.454392 158.607232 
L 215.27354 158.407721 
L 215.025135 158.136486 
L 214.953536 158.0589 
L 214.81083 157.905045 
L 214.525794 157.600824 
L 214.48111 157.553501 
L 214.237966 157.297718 
L 214.172313 157.229149 
L 214.008373 157.058832 
L 213.771645 156.815163 
L 213.718166 156.760482 
L 213.579258 156.619078 
L 213.397976 156.435883 
L 213.237279 156.274752 
L 212.97633 156.015584 
L 212.941275 155.981001 
L 212.664669 155.710022 
L 212.609556 155.65643 
L 212.405293 155.458955 
L 212.319053 155.37612 
L 212.040881 155.111085 
L 211.965596 155.039915 
L 211.709178 154.799282 
L 211.627168 154.722892 
L 211.501849 154.606692 
L 211.369908 154.48504 
L 211.157351 154.290529 
L 211.074953 154.21561 
L 210.883143 154.042249 
L 210.681246 153.861323 
L 210.471654 153.675167 
L 210.386717 153.600206 
L 210.248137 153.47849 
L 210.057426 153.31217 
L 209.848786 153.131767 
L 209.727908 153.027984 
L 209.565635 152.889501 
L 209.360856 152.716107 
L 209.310647 152.673824 
L 209.08217 152.48255 
L 208.936767 152.361786 
L 208.814578 152.260877 
L 208.627698 152.10755 
L 208.467677 151.977219 
L 208.409281 151.929877 
L 208.12661 151.702355 
L 208.10199 151.682667 
L 207.845044 151.478401 
L 207.658719 151.331653 
L 207.588374 151.276547 
L 207.346704 151.088468 
L 207.165833 150.948947 
L 207.086431 150.888031 
L 206.927655 150.766826 
L 206.747029 150.629917 
L 206.672164 150.573474 
L 206.42097 150.385377 
L 206.378868 150.354043 
L 206.178734 150.205848 
L 205.931689 150.024615 
L 205.767911 149.905492 
L 205.682605 149.843767 
L 205.558497 149.754358 
L 205.38927 149.633187 
L 205.19906 149.498009 
L 204.989204 149.350107 
L 204.926989 149.306507 
L 204.695823 149.145497 
L 204.517375 149.022262 
L 204.480848 148.99715 
L 204.255558 148.843106 
L 204.162218 148.779707 
L 203.890999 148.596884 
L 203.861124 148.576873 
L 203.6226 148.41799 
L 203.534853 148.359939 
L 203.329763 148.225084 
L 203.19283 148.135688 
L 202.984052 148.000371 
L 202.905485 147.949755 
L 202.652985 147.788208 
L 202.5359 147.713878 
L 202.311208 147.572254 
L 202.282385 147.554184 
L 202.098502 147.439414 
L 201.950955 147.347965 
L 201.782661 147.244348 
L 201.568217 147.113382 
L 201.472945 147.055577 
L 201.248326 146.920211 
L 201.067786 146.812342 
L 200.937006 146.734718 
L 200.89392 146.709238 
L 200.634563 146.55685 
L 200.506949 146.482486 
L 200.353846 146.393802 
L 200.353846 200.353846 
L 200.474875 200.353729 
L 200.628586 200.35324 
L 200.798238 200.352261 
L 200.911173 200.351354 
L 201.190147 200.348233 
L 201.296428 200.346716 
L 201.497641 200.343347 
L 201.612041 200.341141 
L 201.696092 200.339387 
L 201.969047 200.332907 
L 202.115613 200.328934 
L 202.240535 200.325275 
L 202.394811 200.32041 
L 202.596396 200.313477 
L 202.752754 200.307649 
L 202.859589 200.303441 
L 202.972402 200.298798 
L 203.103363 200.293151 
L 203.286321 200.2848 
L 203.455794 200.276584 
L 203.581591 200.270186 
L 203.824729 200.257097 
L 203.991544 200.247566 
L 204.141128 200.238637 
L 204.328634 200.226935 
L 204.358251 200.225035 
L 204.53696 200.213268 
L 204.669583 200.204202 
L 204.832368 200.192685 
L 205.091915 200.173436 
L 205.179735 200.166676 
L 205.415991 200.147871 
L 205.517063 200.139549 
L 205.659768 200.127518 
L 205.879367 200.108358 
L 205.923173 200.104442 
L 206.174302 200.081392 
L 206.246026 200.074621 
L 206.446752 200.055226 
L 206.64914 200.035006 
L 206.787896 200.020758 
L 206.938328 200.004956 
L 207.11409 199.986025 
L 207.21292 199.975159 
L 207.446499 199.948842 
L 207.493995 199.943382 
L 207.63558 199.926885 
L 207.931545 199.89134 
L 208.096322 199.870927 
L 208.214737 199.855982 
L 208.329958 199.84122 
L 208.475255 199.822292 
L 208.701461 199.792132 
L 208.80354 199.778246 
L 209.021838 199.747973 
L 209.111848 199.735261 
L 209.231246 199.718192 
L 209.489593 199.680451 
L 209.515517 199.676603 
L 209.758264 199.640029 
L 209.899262 199.618336 
L 209.988863 199.604378 
L 210.148356 199.579203 
L 210.387733 199.540622 
L 210.489461 199.523937 
L 210.70383 199.488211 
L 210.882224 199.457894 
L 210.95496 199.445379 
L 211.171285 199.407636 
L 211.306361 199.38367 
L 211.422959 199.362736 
L 211.569483 199.336104 
L 211.787502 199.295807 
L 211.897371 199.275196 
L 212.16513 199.224108 
L 212.203338 199.216719 
L 212.431467 199.172086 
L 212.608998 199.136741 
L 212.659616 199.126564 
L 212.878864 199.081983 
L 213.030366 199.050698 
L 213.242541 199.006223 
L 213.301285 198.993774 
L 213.45363 198.961211 
L 213.654255 198.917721 
L 213.869242 198.870348 
L 213.998147 198.841561 
L 214.065998 198.826294 
L 214.290853 198.775128 
L 214.467778 198.734254 
L 214.609353 198.701154 
L 214.682956 198.683808 
L 214.884723 198.635774 
L 215.006349 198.606477 
L 215.249701 198.54708 
L 215.407103 198.508109 
L 215.589842 198.462318 
L 215.620584 198.454558 
L 215.889832 198.385873 
L 215.962387 198.367145 
L 216.1559 198.31674 
L 216.353788 198.26451 
L 216.533778 198.216398 
L 216.563209 198.208477 
L 216.804354 198.142987 
L 216.916815 198.112089 
L 217.126621 198.053841 
L 217.229886 198.024882 
L 217.393388 197.978637 
L 217.505635 197.94661 
L 217.735628 197.880276 
L 217.879854 197.83819 
L 218.046867 197.788982 
L 218.253143 197.727505 
L 218.423351 197.676193 
L 218.51449 197.648499 
L 218.652028 197.606418 
L 218.787013 197.56478 
L 218.962779 197.51006 
L 219.109327 197.464 
L 219.268714 197.413454 
L 219.388538 197.375144 
L 219.622834 197.299463 
L 219.729735 197.264592 
L 219.862263 197.221066 
L 220.043565 197.160987 
L 220.171151 197.118338 
L 220.420345 197.034154 
L 220.520084 197.000131 
L 220.726816 196.929009 
L 220.859988 196.882764 
L 221.065779 196.810636 
L 221.234187 196.751008 
L 221.3225 196.719522 
L 221.451029 196.673429 
L 221.675085 196.592318 
L 221.733941 196.57085 
L 221.91642 196.503865 
L 222.042582 196.457174 
L 222.236986 196.384621 
L 222.427614 196.312759 
L 222.550755 196.26596 
L 222.779409 196.178268 
L 222.888864 196.135925 
L 223.128401 196.042431 
L 223.246538 195.995901 
L 223.360815 195.950626 
L 223.543958 195.877523 
L 223.66556 195.828612 
L 223.860009 195.749783 
L 223.944434 195.71532 
L 224.127892 195.639932 
L 224.237268 195.594661 
L 224.53548 195.469991 
L 224.549978 195.463884 
L 224.808661 195.354186 
L 224.957154 195.290593 
L 225.117725 195.221313 
L 225.196149 195.187282 
L 225.378297 195.107747 
L 225.630328 194.996553 
L 225.771778 194.933562 
L 225.949178 194.853966 
L 225.966849 194.846001 
L 226.217086 194.732496 
L 226.321906 194.684554 
L 226.546929 194.580842 
L 226.580507 194.565273 
L 226.851918 194.438536 
L 227.003368 194.367122 
L 227.186556 194.280078 
L 227.336709 194.208184 
L 227.427423 194.16451 
L 227.644683 194.059177 
L 227.691669 194.03626 
L 227.936513 193.916047 
L 228.097813 193.836125 
L 228.145882 193.812194 
L 228.433162 193.668097 
L 228.467953 193.65052 
L 228.667618 193.549117 
L 228.829616 193.466178 
L 229.000719 193.377928 
L 229.230896 193.25815 
L 229.288322 193.228077 
L 229.463563 193.135835 
L 229.706413 193.006825 
L 229.708082 193.005933 
L 229.879482 192.914044 
L 230.07907 192.806172 
L 230.26192 192.70652 
L 230.382198 192.640537 
L 230.559388 192.542702 
L 230.764577 192.428467 
L 230.875364 192.366366 
L 231.015642 192.287308 
L 231.246198 192.15633 
L 231.313162 192.118044 
L 231.507692 192.006198 
z
" style="fill:#808080;opacity:0.5;"/>
   </g>
   <g id="matplotlib.axis_1"/>
   <g id="matplotlib.axis_2"/>
   <g id="line2d_1">
    <path clip-path="url(#p10a54812a5)" d="M 169.2 192.006198 
L 172.532336 193.797496 
L 175.952737 195.377074 
L 179.429116 196.735201 
L 182.993179 197.886406 
L 186.672995 198.833347 
L 190.334474 199.542989 
L 193.965929 200.02553 
L 197.64176 200.294793 
L 200.353846 200.353846 
L 200.353846 200.353846 
" style="fill:none;stroke:#ff0000;stroke-linecap:square;"/>
   </g>
   <g id="line2d_2">
    <path clip-path="url(#p10a54812a5)" d="M 200.353846 200.353846 
L 203.991544 200.247566 
L 207.63558 199.926885 
L 211.422959 199.362736 
L 215.006349 198.606477 
L 218.652028 197.606418 
L 222.236986 196.384621 
L 225.771778 194.933562 
L 229.000719 193.377928 
L 231.507692 192.006198 
L 231.507692 192.006198 
" style="fill:none;stroke:#ff0000;stroke-linecap:square;"/>
   </g>
   <g id="text_1">
    <!-- $\Omega$ -->
    <g transform="translate(16.011538 22.420913)scale(0.1 -0.1)">
     <defs>
      <path d="M 7.71875 0 
L 4.390625 16.609375 
L 7.328125 16.609375 
Q 7.859375 13.71875 8.296875 11.5 
Q 8.734375 9.28125 9.4375 8.375 
Q 10.15625 7.46875 11.71875 7.171875 
Q 13.28125 6.890625 16.890625 6.890625 
L 23 6.890625 
Q 21.53125 12.546875 15.6875 21.65625 
Q 9.859375 30.765625 7.734375 34.890625 
Q 5.609375 39.015625 5.609375 45.515625 
Q 5.609375 53.078125 10.09375 58.765625 
Q 14.59375 64.453125 21.703125 67.484375 
Q 28.8125 70.515625 36.078125 70.515625 
Q 43.3125 70.515625 50.40625 67.484375 
Q 57.515625 64.453125 62 58.71875 
Q 66.5 52.984375 66.5 45.515625 
Q 66.5 40.4375 64.640625 35.9375 
Q 62.796875 31.453125 59.90625 26.953125 
Q 57.03125 22.46875 53.6875 16.9375 
Q 50.34375 11.421875 49.125 6.890625 
L 55.171875 6.890625 
Q 58.84375 6.890625 60.453125 7.171875 
Q 62.0625 7.46875 62.734375 8.375 
Q 63.421875 9.28125 63.84375 11.5 
Q 64.265625 13.71875 64.796875 16.609375 
L 67.671875 16.609375 
L 64.40625 0 
L 46.6875 0 
Q 45.703125 0 45.703125 1.3125 
Q 45.703125 6.390625 46.9375 11.265625 
Q 48.1875 16.15625 50.625 23.09375 
Q 53.078125 30.03125 54.4375 35.328125 
Q 55.8125 40.625 55.8125 45.515625 
Q 55.8125 51.515625 53.46875 56.640625 
Q 51.125 61.765625 46.625 64.84375 
Q 42.140625 67.921875 36.078125 67.921875 
Q 26.953125 67.921875 21.625 61.40625 
Q 16.3125 54.890625 16.3125 45.515625 
Q 16.359375 40.375 17.53125 35.828125 
Q 18.703125 31.296875 21.3125 23.71875 
Q 23.921875 16.15625 25.171875 11.265625 
Q 26.421875 6.390625 26.421875 1.3125 
Q 26.421875 0 25.390625 0 
z
" id="Cmr10-173"/>
     </defs>
     <use transform="translate(0 0.484375)" xlink:href="#Cmr10-173"/>
    </g>
   </g>
   <g id="text_2">
    <!-- $A$ -->
    <g style="fill:#0000ff;" transform="translate(103.142308 78.497837)scale(0.1 -0.1)">
     <defs>
      <path d="M 4.5 0 
Q 3.515625 0 3.515625 1.3125 
Q 3.90625 3.515625 4.78125 3.515625 
Q 8.84375 3.515625 11.796875 5.125 
Q 14.75 6.734375 16.890625 10.109375 
Q 17.09375 10.296875 17.09375 10.296875 
L 52.78125 70.515625 
Q 53.5625 71.578125 54.6875 71.578125 
L 56 71.578125 
Q 56.296875 71.578125 56.59375 71.453125 
Q 56.890625 71.34375 57.109375 71.0625 
Q 57.328125 70.796875 57.328125 70.515625 
L 63.375 5.90625 
Q 63.375 5.46875 63.8125 4.59375 
Q 64.796875 3.515625 71.296875 3.515625 
Q 72.3125 3.515625 72.3125 2.203125 
Q 71.96875 0.875 71.75 0.4375 
Q 71.53125 0 70.609375 0 
L 45.609375 0 
Q 44.671875 0 44.671875 1.3125 
Q 45.21875 3.515625 46 3.515625 
Q 53.90625 3.515625 54.390625 6.203125 
L 52.875 22.703125 
L 28.21875 22.703125 
L 20.21875 9.28125 
Q 19.484375 8.203125 19.484375 6.78125 
Q 19.484375 5.03125 21.171875 4.265625 
Q 22.859375 3.515625 24.90625 3.515625 
Q 25.875 3.515625 25.875 2.203125 
Q 25.53125 0.78125 25.328125 0.390625 
Q 25.140625 0 24.21875 0 
z
M 30.171875 26.21875 
L 52.484375 26.21875 
L 49.515625 58.59375 
z
" id="Cmmi10-65"/>
     </defs>
     <use transform="translate(0 0.421875)" xlink:href="#Cmmi10-65"/>
    </g>
   </g>
   <g id="text_3">
    <!-- $B$ -->
    <g style="fill:#ff0000;" transform="translate(227.707692 78.497837)scale(0.1 -0.1)">
     <defs>
      <path d="M 4.984375 0 
Q 4 0 4 1.3125 
Q 4.046875 1.5625 4.1875 2.140625 
Q 4.34375 2.734375 4.578125 3.125 
Q 4.828125 3.515625 5.328125 3.515625 
Q 8.15625 3.515625 10.25 3.65625 
Q 12.359375 3.8125 13.8125 4.203125 
Q 14.984375 4.640625 15.71875 6.890625 
L 29.390625 61.8125 
Q 29.59375 62.796875 29.59375 63.1875 
Q 29.59375 64.265625 28.421875 64.40625 
Q 26.515625 64.796875 21.1875 64.796875 
Q 20.21875 64.796875 20.21875 66.109375 
Q 20.265625 66.359375 20.40625 66.96875 
Q 20.5625 67.578125 20.828125 67.9375 
Q 21.09375 68.3125 21.484375 68.3125 
L 57.328125 68.3125 
Q 60.59375 68.3125 63.796875 67.5 
Q 67 66.703125 69.703125 64.9375 
Q 72.40625 63.1875 74 60.5625 
Q 75.59375 57.953125 75.59375 54.5 
Q 75.59375 50.734375 73.65625 47.5 
Q 71.734375 44.28125 68.671875 41.890625 
Q 65.625 39.5 62.078125 37.953125 
Q 58.546875 36.421875 54.6875 35.6875 
Q 57.421875 35.6875 60.21875 34.609375 
Q 63.03125 33.546875 65.234375 31.6875 
Q 67.4375 29.828125 68.78125 27.234375 
Q 70.125 24.65625 70.125 21.6875 
Q 70.125 15.671875 65.921875 10.6875 
Q 61.71875 5.71875 55.34375 2.859375 
Q 48.96875 0 43.015625 0 
z
M 23.390625 4.296875 
Q 23.390625 3.515625 26.8125 3.515625 
L 41.109375 3.515625 
Q 46 3.515625 50.484375 6.21875 
Q 54.984375 8.9375 57.6875 13.421875 
Q 60.40625 17.921875 60.40625 22.796875 
Q 60.40625 25.78125 59.15625 28.4375 
Q 57.90625 31.109375 55.5625 32.640625 
Q 53.21875 34.1875 50.203125 34.1875 
L 30.71875 34.1875 
L 23.78125 6.5 
Q 23.390625 5.125 23.390625 4.296875 
z
M 31.390625 36.8125 
L 46.578125 36.8125 
Q 51.375 36.8125 55.890625 39.25 
Q 60.40625 41.703125 63.25 45.890625 
Q 66.109375 50.09375 66.109375 54.78125 
Q 66.109375 59.125 63.390625 61.953125 
Q 60.6875 64.796875 56.390625 64.796875 
L 42.671875 64.796875 
Q 39.984375 64.796875 39.0625 64.296875 
Q 38.140625 63.8125 37.5 61.375 
z
" id="Cmmi10-66"/>
     </defs>
     <use transform="translate(0 0.6875)" xlink:href="#Cmmi10-66"/>
    </g>
   </g>
   <g id="text_4">
    <!-- $C$ -->
    <g style="fill:#228b22;" transform="translate(150.023077 271.651683)scale(0.1 -0.1)">
     <defs>
      <path d="M 14.59375 21.578125 
Q 14.59375 15.578125 16.90625 11.015625 
Q 19.234375 6.453125 23.65625 3.875 
Q 28.078125 1.3125 34.078125 1.3125 
Q 40.375 1.3125 46.203125 4.53125 
Q 52.046875 7.765625 56.171875 13.15625 
Q 60.296875 18.5625 61.8125 24.609375 
Q 62.015625 25.203125 62.59375 25.203125 
L 63.8125 25.203125 
Q 64.203125 25.203125 64.453125 24.921875 
Q 64.703125 24.65625 64.703125 24.3125 
Q 64.703125 24.21875 64.59375 24.03125 
Q 62.890625 17.09375 57.984375 11.015625 
Q 53.078125 4.9375 46.234375 1.359375 
Q 39.40625 -2.203125 32.171875 -2.203125 
Q 24.359375 -2.203125 18.15625 1.3125 
Q 11.96875 4.828125 8.515625 11.078125 
Q 5.078125 17.328125 5.078125 25.203125 
Q 5.078125 33.59375 8.828125 41.8125 
Q 12.59375 50.046875 18.9375 56.46875 
Q 25.296875 62.890625 33.421875 66.703125 
Q 41.546875 70.515625 49.90625 70.515625 
Q 53.21875 70.515625 56.25 69.5 
Q 59.28125 68.5 61.859375 66.453125 
Q 64.453125 64.40625 66.109375 61.71875 
L 74.03125 70.3125 
Q 74.03125 70.515625 74.515625 70.515625 
L 75.09375 70.515625 
Q 75.484375 70.515625 75.734375 70.171875 
Q 75.984375 69.828125 75.984375 69.484375 
L 69.1875 42.484375 
Q 69.1875 41.796875 68.40625 41.796875 
L 66.609375 41.796875 
Q 65.828125 41.796875 65.828125 42.921875 
Q 66.21875 45.125 66.21875 48.1875 
Q 66.21875 53.078125 64.546875 57.390625 
Q 62.890625 61.71875 59.390625 64.359375 
Q 55.90625 67 50.875 67 
Q 42.71875 67 35.9375 62.890625 
Q 29.15625 58.796875 24.4375 52.125 
Q 19.734375 45.453125 17.15625 37.328125 
Q 14.59375 29.203125 14.59375 21.578125 
z
" id="Cmmi10-67"/>
     </defs>
     <use transform="translate(0 0.484375)" xlink:href="#Cmmi10-67"/>
    </g>
   </g>
   <g id="patch_6">
    <path clip-path="url(#p10a54812a5)" d="M 138.046154 200.353846 
C 154.570347 200.353846 170.419977 193.788715 182.104346 182.104346 
C 193.788715 170.419977 200.353846 154.570347 200.353846 138.046154 
C 200.353846 121.521961 193.788715 105.672331 182.104346 93.987962 
C 170.419977 82.303593 154.570347 75.738462 138.046154 75.738462 
C 121.521961 75.738462 105.672331 82.303593 93.987962 93.987962 
C 82.303593 105.672331 75.738462 121.521961 75.738462 138.046154 
C 75.738462 154.570347 82.303593 170.419977 93.987962 182.104346 
C 105.672331 193.788715 121.521961 200.353846 138.046154 200.353846 
z
" style="fill:none;stroke:#0000ff;stroke-linejoin:miter;"/>
   </g>
   <g id="patch_7">
    <path clip-path="url(#p10a54812a5)" d="M 200.353846 200.353846 
C 216.878039 200.353846 232.727669 193.788715 244.412038 182.104346 
C 256.096407 170.419977 262.661538 154.570347 262.661538 138.046154 
C 262.661538 121.521961 256.096407 105.672331 244.412038 93.987962 
C 232.727669 82.303593 216.878039 75.738462 200.353846 75.738462 
C 183.829653 75.738462 167.980023 82.303593 156.295654 93.987962 
C 144.611285 105.672331 138.046154 121.521961 138.046154 138.046154 
C 138.046154 154.570347 144.611285 170.419977 156.295654 182.104346 
C 167.980023 193.788715 183.829653 200.353846 200.353846 200.353846 
z
" style="fill:none;stroke:#ff0000;stroke-linejoin:miter;"/>
   </g>
   <g id="patch_8">
    <path clip-path="url(#p10a54812a5)" d="M 169.2 262.661538 
C 185.724193 262.661538 201.573823 256.096407 213.258192 244.412038 
C 224.942561 232.727669 231.507692 216.878039 231.507692 200.353846 
C 231.507692 183.829653 224.942561 167.980023 213.258192 156.295654 
C 201.573823 144.611285 185.724193 138.046154 169.2 138.046154 
C 152.675807 138.046154 136.826177 144.611285 125.141808 156.295654 
C 113.457439 167.980023 106.892308 183.829653 106.892308 200.353846 
C 106.892308 216.878039 113.457439 232.727669 125.141808 244.412038 
C 136.826177 256.096407 152.675807 262.661538 169.2 262.661538 
z
" style="fill:none;stroke:#228b22;stroke-linejoin:miter;"/>
   </g>
  </g>
 </g>
 <defs>
  <clipPath id="p10a54812a5">
   <rect height="324" width="324" x="7.2" y="7.2"/>
  </clipPath>
 </defs>
</svg>
