<?xml version="1.0" encoding="utf-8" standalone="no"?>
<!DOCTYPE svg PUBLIC "-//W3C//DTD SVG 1.1//EN"
  "http://www.w3.org/Graphics/SVG/1.1/DTD/svg11.dtd">
<svg xmlns:xlink="http://www.w3.org/1999/xlink" width="338.4pt" height="338.4pt" viewBox="0 0 338.4 338.4" xmlns="http://www.w3.org/2000/svg" version="1.1">
 <metadata>
  <rdf:RDF xmlns:dc="http://purl.org/dc/elements/1.1/" xmlns:cc="http://creativecommons.org/ns#" xmlns:rdf="http://www.w3.org/1999/02/22-rdf-syntax-ns#">
   <cc:Work>
    <dc:type rdf:resource="http://purl.org/dc/dcmitype/StillImage"/>
    <dc:date>2024-12-01T17:04:51.339804</dc:date>
    <dc:format>image/svg+xml</dc:format>
    <dc:creator>
     <cc:Agent>
      <dc:title>Matplotlib v3.6.3, https://matplotlib.org/</dc:title>
     </cc:Agent>
    </dc:creator>
   </cc:Work>
  </rdf:RDF>
 </metadata>
 <defs>
  <style type="text/css">*{stroke-linejoin: round; stroke-linecap: butt}</style>
 </defs>
 <g id="figure_1">
  <g id="patch_1">
   <path d="M -0 338.4 
L 338.4 338.4 
L 338.4 0 
L -0 0 
z
" style="fill: #ffffff"/>
  </g>
  <g id="axes_1">
   <g id="patch_2">
    <path d="M 7.2 331.2 
L 331.2 331.2 
L 331.2 7.2 
L 7.2 7.2 
z
" style="fill: #ffffff"/>
   </g>
   <g id="patch_3">
    <path d="M 13.430769 324.969231 
L 13.430769 13.430769 
L 324.969231 13.430769 
L 324.969231 324.969231 
L 13.430769 324.969231 
z
" clip-path="url(#p80ac77a7d7)" style="fill: none; stroke: #000000; stroke-linejoin: miter"/>
   </g>
   <g id="patch_4">
    <path d="M 169.2 138.046154 
L 169.073819 138.046282 
L 168.81539 138.047341 
L 168.801482 138.047428 
L 168.602017 138.049023 
L 168.48958 138.050204 
L 168.255957 138.053306 
L 168.150394 138.054995 
L 168.011641 138.057487 
L 167.752141 138.062978 
L 167.699725 138.064219 
L 167.554313 138.067891 
L 167.378594 138.072782 
L 167.156197 138.079683 
L 166.987667 138.085442 
L 166.857148 138.090217 
L 166.739327 138.094762 
L 166.571616 138.101616 
L 166.401977 138.10901 
L 166.2289 138.117032 
L 166.018296 138.127443 
L 165.970947 138.129882 
L 165.6926 138.144951 
L 165.5283 138.154432 
L 165.52017 138.154912 
L 165.275855 138.169848 
L 165.206243 138.17428 
L 165.00104 138.1878 
L 164.784609 138.202798 
L 164.680969 138.210247 
L 164.533806 138.221124 
L 164.341599 138.235858 
L 164.143112 138.251701 
L 164.034847 138.260612 
L 163.820305 138.278832 
L 163.671438 138.291913 
L 163.513139 138.306218 
L 163.420971 138.314735 
L 163.288818 138.327187 
L 163.048791 138.350531 
L 162.967095 138.35869 
L 162.789263 138.376826 
L 162.613568 138.395252 
L 162.411338 138.417083 
L 162.266033 138.433182 
L 162.181985 138.442652 
L 161.998138 138.463769 
L 161.789548 138.488398 
L 161.721427 138.496595 
L 161.452801 138.529665 
L 161.43212 138.53226 
L 161.150968 138.568236 
L 161.119512 138.572342 
L 160.947457 138.595089 
L 160.73261 138.624179 
L 160.511601 138.654898 
L 160.495824 138.657121 
L 160.272282 138.689072 
L 160.141502 138.708148 
L 159.885169 138.746359 
L 159.860048 138.750163 
L 159.601674 138.78989 
L 159.479025 138.809138 
L 159.387932 138.823595 
L 159.121189 138.866725 
L 159.058584 138.87702 
L 158.936639 138.89726 
L 158.735179 138.931244 
L 158.529846 138.966581 
L 158.41222 138.987142 
L 158.166437 139.030857 
L 158.138813 139.035834 
L 157.91174 139.07723 
L 157.717649 139.113303 
L 157.618953 139.13189 
L 157.38949 139.175742 
L 157.351273 139.183133 
L 157.209962 139.210674 
L 157.018796 139.248472 
L 156.856258 139.281098 
L 156.66997 139.319046 
L 156.547351 139.344347 
L 156.287974 139.398714 
L 156.210425 139.415193 
L 156.12536 139.433387 
L 155.885636 139.48533 
L 155.805445 139.502927 
L 155.613336 139.545532 
L 155.432071 139.586317 
L 155.326599 139.610309 
L 155.061014 139.671579 
L 154.884975 139.712865 
L 154.766553 139.740942 
L 154.680803 139.761425 
L 154.416199 139.825442 
L 154.303125 139.853172 
L 154.099087 139.903776 
L 153.937832 139.944288 
L 153.798308 139.979709 
L 153.763435 139.988616 
L 153.525265 140.050022 
L 153.382781 140.087238 
L 153.218184 140.130677 
L 153.030057 140.180916 
L 152.945518 140.203698 
L 152.724843 140.263766 
L 152.661164 140.281262 
L 152.46039 140.336899 
L 152.251175 140.395645 
L 152.180497 140.415669 
L 152.023044 140.460602 
L 151.879312 140.50201 
L 151.664818 140.5645 
L 151.471736 140.621466 
L 151.366537 140.65279 
L 151.137269 140.721755 
L 151.111985 140.72942 
L 150.891025 140.796899 
L 150.738818 140.843903 
L 150.529935 140.909105 
L 150.487843 140.922342 
L 150.334519 140.970834 
L 150.095321 141.047356 
L 150.015353 141.073176 
L 149.858211 141.124261 
L 149.647989 141.193324 
L 149.517215 141.236704 
L 149.334961 141.297697 
L 149.085727 141.38212 
L 149.05383 141.393009 
L 148.865044 141.457852 
L 148.644647 141.534411 
L 148.511813 141.581 
L 148.324976 141.647101 
L 148.215636 141.686095 
L 148.106963 141.725079 
L 147.949872 141.781834 
L 147.69554 141.874733 
L 147.533877 141.934435 
L 147.415656 141.978416 
L 147.302695 142.020695 
L 147.113413 142.092099 
L 147.044656 142.118211 
L 146.840068 142.196457 
L 146.72354 142.241392 
L 146.482999 142.335001 
L 146.416022 142.36127 
L 146.214802 142.440729 
L 146.015456 142.520245 
L 145.917583 142.559577 
L 145.725088 142.637496 
L 145.54395 142.711502 
L 145.462375 142.745047 
L 145.23857 142.837775 
L 145.037804 142.921827 
L 144.952335 142.95786 
L 144.720241 143.056465 
L 144.640233 143.090714 
L 144.39567 143.196224 
L 144.362971 143.210425 
L 144.087645 143.330885 
L 144.017841 143.361676 
L 143.806372 143.455584 
L 143.651875 143.524788 
L 143.535832 143.577099 
L 143.413093 143.632739 
L 143.251231 143.706605 
L 143.06616 143.791748 
L 142.951491 143.844871 
L 142.759644 143.934381 
L 142.562594 144.027146 
L 142.422585 144.093571 
L 142.199089 144.200491 
L 142.105215 144.245726 
L 142.010616 144.291507 
L 141.877453 144.356284 
L 141.608355 144.488386 
L 141.52764 144.528323 
L 141.356022 144.613722 
L 141.099259 144.742724 
L 141.089987 144.747411 
L 140.844342 144.872271 
L 140.652925 144.970518 
L 140.622962 144.985973 
L 140.368619 145.117989 
L 140.279333 145.164685 
L 140.043428 145.288949 
L 139.929104 145.349636 
L 139.816104 145.409919 
L 139.642726 145.502993 
L 139.500595 145.579821 
L 139.340951 145.666684 
L 139.142764 145.775361 
L 139.014404 145.846247 
L 138.867793 145.927697 
L 138.639576 146.055513 
L 138.541243 146.110974 
L 138.404222 146.188649 
L 138.215143 146.296588 
L 138.046154 146.393802 
L 138.046154 138.046154 
L 138.050068 138.744546 
L 138.053982 139.033815 
L 138.057896 139.255767 
L 138.061811 139.442873 
L 138.065725 139.607709 
L 138.069639 139.756725 
L 138.073553 139.893753 
L 138.077467 140.021289 
L 138.081382 140.141068 
L 138.085296 140.254353 
L 138.08921 140.362096 
L 138.093124 140.465039 
L 138.097038 140.56377 
L 138.100952 140.658766 
L 138.108781 140.839066 
L 138.116609 141.008391 
L 138.124438 141.168528 
L 138.132266 141.320825 
L 138.140094 141.466329 
L 138.147923 141.605873 
L 138.155751 141.740133 
L 138.163579 141.869665 
L 138.171408 141.994935 
L 138.184186 142.191262 
L 138.196965 142.378664 
L 138.209744 142.558254 
L 138.222522 142.730929 
L 138.235301 142.897428 
L 138.24808 143.058367 
L 138.260858 143.214265 
L 138.273637 143.365565 
L 138.286416 143.51265 
L 138.299194 143.65585 
L 138.311973 143.795456 
L 138.324751 143.931724 
L 138.350309 144.195127 
L 138.375866 144.447599 
L 138.394503 144.625541 
L 138.41314 144.798745 
L 138.431778 144.967566 
L 138.450415 145.132316 
L 138.469052 145.293275 
L 138.487689 145.450688 
L 138.524963 145.755744 
L 138.552016 145.969682 
L 138.579068 146.177904 
L 138.606121 146.380837 
L 138.633173 146.57886 
L 138.660226 146.772306 
L 138.687278 146.961474 
L 138.714331 147.146631 
L 138.741383 147.328015 
L 138.770638 147.520173 
L 138.799893 147.708421 
L 138.829148 147.892984 
L 138.858403 148.074066 
L 138.89153 148.27514 
L 138.924656 148.472232 
L 138.957782 148.665563 
L 138.990909 148.855336 
L 139.033538 149.094606 
L 139.076167 149.328641 
L 139.131927 149.627393 
L 139.187687 149.918367 
L 139.243447 150.202123 
L 139.299207 150.479154 
L 139.354279 150.746599 
L 139.409351 151.008292 
L 139.464423 151.264576 
L 139.519495 151.51576 
L 139.577329 151.774356 
L 139.635163 152.02793 
L 139.730696 152.436504 
L 139.826228 152.833176 
L 139.882995 153.063632 
L 139.939761 153.290393 
L 140.041392 153.687652 
L 140.10178 153.918679 
L 140.162168 154.146165 
L 140.222555 154.370258 
L 140.282943 154.591096 
L 140.352171 154.840423 
L 140.421399 155.085821 
L 140.492572 155.334195 
L 140.563745 155.578761 
L 140.639825 155.836158 
L 140.715906 156.089562 
L 140.819973 156.430019 
L 140.924041 156.763706 
L 141.068805 157.217288 
L 141.146392 157.455581 
L 141.231412 157.713037 
L 141.316432 157.966803 
L 141.409722 158.241172 
L 141.503012 158.511439 
L 141.59443 158.772455 
L 141.692901 159.049534 
L 141.791371 159.32255 
L 141.891844 159.597088 
L 142.001021 159.890977 
L 142.110198 160.180426 
L 142.286758 160.639554 
L 142.479609 161.129074 
L 142.547578 161.298763 
L 142.694772 161.661398 
L 142.830341 161.989732 
L 142.965911 162.312867 
L 143.068744 162.554634 
L 143.189434 162.834831 
L 143.35227 163.207014 
L 143.525726 163.596364 
L 143.690846 163.960493 
L 143.772899 164.139158 
L 143.917707 164.450902 
L 144.062515 164.758222 
L 144.163864 164.97076 
L 144.382344 165.422046 
L 144.462029 165.584369 
L 144.69108 166.044457 
L 144.778318 166.217225 
L 144.879715 166.416373 
L 145.084076 166.812472 
L 145.273815 167.174124 
L 145.436475 167.479653 
L 145.517763 167.630821 
L 145.69111 167.949896 
L 145.902043 168.332283 
L 146.10013 168.685717 
L 146.114279 168.710757 
L 146.42067 169.246491 
L 146.525638 169.42724 
L 146.692472 169.711678 
L 146.770158 169.842959 
L 146.99117 170.212493 
L 147.164481 170.498271 
L 147.321309 170.753929 
L 147.386166 170.858856 
L 147.622638 171.237541 
L 147.785769 171.495307 
L 147.983001 171.803274 
L 148.142534 172.049498 
L 148.225238 172.176151 
L 148.370954 172.397681 
L 148.609586 172.756095 
L 148.764903 172.986523 
L 148.848616 173.109807 
L 149.013787 173.351207 
L 149.139932 173.533948 
L 149.26309 173.711026 
L 149.488751 174.032132 
L 149.660685 174.273932 
L 149.717006 174.352613 
L 149.877604 174.57556 
L 150.131672 174.924084 
L 150.277576 175.121964 
L 150.41616 175.308414 
L 150.643126 175.610669 
L 150.704392 175.691608 
L 150.944508 176.00621 
L 150.97718 176.048699 
L 151.159916 176.284953 
L 151.303463 176.468913 
L 151.499405 176.717747 
L 151.692422 176.960345 
L 151.800033 177.094531 
L 151.989469 177.328917 
L 152.120684 177.489919 
L 152.261664 177.661688 
L 152.475875 177.920311 
L 152.562965 178.02465 
L 152.690073 178.176109 
L 152.865783 178.383883 
L 153.119622 178.680827 
L 153.205343 178.780257 
L 153.313574 178.905196 
L 153.514044 179.134857 
L 153.741243 179.392421 
L 153.811519 179.471513 
L 154.062051 179.751288 
L 154.140464 179.83816 
L 154.36192 180.081749 
L 154.467564 180.197045 
L 154.596754 180.337252 
L 154.7299 180.480858 
L 154.882766 180.644621 
L 155.095315 180.870374 
L 155.341469 181.129033 
L 155.387658 181.177239 
L 155.592792 181.390087 
L 155.706796 181.507509 
L 155.874866 181.6795 
L 156.047115 181.854397 
L 156.213911 182.02245 
L 156.324957 182.133628 
L 156.476356 182.284309 
L 156.654773 182.460561 
L 156.885645 182.68654 
L 156.953951 182.75295 
L 157.0938 182.888287 
L 157.325618 183.110775 
L 157.39859 183.180337 
L 157.556573 183.330168 
L 157.84464 183.600692 
L 158.006226 183.750942 
L 158.007827 183.752425 
L 158.269102 183.99311 
L 158.374974 184.089859 
L 158.619553 184.311662 
L 158.779641 184.455571 
L 158.813815 184.486162 
L 159.045715 184.692555 
L 159.12656 184.764024 
L 159.272061 184.892023 
L 159.49251 185.084434 
L 159.690563 185.255749 
L 159.787279 185.338882 
L 159.930531 185.461385 
L 160.184678 185.676884 
L 160.233435 185.71796 
L 160.363138 185.826817 
L 160.534373 185.969615 
L 160.796226 186.185984 
L 160.956133 186.316939 
L 161.136162 186.463318 
L 161.174832 186.494615 
L 161.309854 186.603493 
L 161.542847 186.789922 
L 161.677511 186.896841 
L 161.796575 186.990871 
L 162.008725 187.157254 
L 162.219179 187.32085 
L 162.331049 187.407226 
L 162.485621 187.525908 
L 162.55947 187.582339 
L 162.806846 187.770105 
L 162.996289 187.91259 
L 163.07922 187.97461 
L 163.241144 188.095089 
L 163.33962 188.167962 
L 163.582878 188.346695 
L 163.70919 188.438789 
L 163.944125 188.608796 
L 164.098349 188.719494 
L 164.161527 188.764637 
L 164.342878 188.89356 
L 164.555679 189.043602 
L 164.687846 189.136123 
L 164.840003 189.242008 
L 164.993519 189.348159 
L 165.066738 189.398549 
L 165.356725 189.596615 
L 165.508005 189.698994 
L 165.640259 189.787969 
L 165.734902 189.851339 
L 165.98436 190.017174 
L 166.031772 190.048498 
L 166.163459 190.135173 
L 166.343592 190.252965 
L 166.505886 190.358334 
L 166.632886 190.440288 
L 166.780966 190.535298 
L 167.024915 190.690535 
L 167.219017 190.81292 
L 167.264851 190.841674 
L 167.412984 190.934225 
L 167.586145 191.041685 
L 167.780647 191.161455 
L 168.011431 191.302296 
L 168.124361 191.370715 
L 168.203265 191.418325 
L 168.387178 191.528681 
L 168.644839 191.681845 
L 168.682484 191.704083 
L 168.845291 191.799846 
L 168.977687 191.877234 
L 169.2 192.006198 
z
" clip-path="url(#p80ac77a7d7)" style="fill: #808080; opacity: 0.5"/>
   </g>
   <g id="patch_5">
    <path d="M 169.2 192.006198 
L 169.00626 192.117591 
L 168.453408 192.430411 
L 168.196221 192.573413 
L 167.985325 192.689494 
L 167.768052 192.807977 
L 167.316381 193.05072 
L 166.88838 193.276349 
L 166.610258 193.420701 
L 166.445841 193.505204 
L 166.075888 193.693099 
L 165.765116 193.848552 
L 165.537352 193.961112 
L 165.273026 194.090297 
L 164.758269 194.337462 
L 164.464322 194.476012 
L 164.093208 194.648269 
L 163.83356 194.767034 
L 163.524128 194.906697 
L 163.31418 195.000305 
L 162.839697 195.208456 
L 162.523237 195.344679 
L 162.337702 195.423581 
L 162.087765 195.528755 
L 161.542855 195.753636 
L 161.486489 195.776555 
L 161.189796 195.896135 
L 160.626176 196.118446 
L 160.299488 196.244415 
L 160.027158 196.347817 
L 159.793782 196.435273 
L 159.530009 196.53284 
L 159.075489 196.6978 
L 158.713351 196.826384 
L 158.511604 196.89693 
L 158.356071 196.950787 
L 157.91344 197.101547 
L 157.719417 197.166465 
L 157.380091 197.278302 
L 156.949235 197.417208 
L 156.60494 197.52573 
L 156.41786 197.58378 
L 156.189336 197.653817 
L 155.870982 197.749789 
L 155.347094 197.903701 
L 155.22542 197.938735 
L 154.804948 198.057747 
L 154.43132 198.160835 
L 154.191992 198.225556 
L 153.902108 198.302583 
L 153.475732 198.41317 
L 153.192828 198.484774 
L 152.839844 198.572142 
L 152.461558 198.663352 
L 152.359489 198.687534 
L 151.952608 198.782132 
L 151.550397 198.872825 
L 151.454 198.894146 
L 151.016179 198.988971 
L 150.842222 199.025734 
L 150.301194 199.136763 
L 150.217711 199.153451 
L 149.922075 199.211594 
L 149.564514 199.279935 
L 149.213126 199.34499 
L 148.903653 199.400561 
L 148.455383 199.478201 
L 148.286464 199.506585 
L 148.057272 199.544333 
L 147.65527 199.608426 
L 147.351921 199.655011 
L 147.073589 199.696409 
L 146.60445 199.763284 
L 146.237011 199.813122 
L 146.145814 199.825147 
L 145.70664 199.88114 
L 145.463529 199.910773 
L 145.246233 199.936439 
L 144.66629 200.001156 
L 144.446808 200.024216 
L 144.18238 200.050954 
L 143.765016 200.09084 
L 143.600072 200.105823 
L 143.314443 200.130722 
L 142.765231 200.174882 
L 142.677368 200.181493 
L 142.30835 200.207896 
L 141.991335 200.228821 
L 141.73639 200.244471 
L 141.238405 200.272017 
L 141.016515 200.283004 
L 140.558834 200.303161 
L 140.417549 200.308703 
L 140.079903 200.320646 
L 139.678267 200.332466 
L 139.610603 200.334203 
L 138.998312 200.34657 
L 138.84735 200.348695 
L 138.650428 200.350916 
L 138.052421 200.353846 
L 137.76332 200.353204 
L 137.518853 200.351615 
L 137.154921 200.347472 
L 136.913358 200.343548 
L 136.52968 200.335389 
L 136.423873 200.332723 
L 136.11758 200.323992 
L 135.76098 200.311927 
L 135.28198 200.292502 
L 135.037917 200.281184 
L 134.882116 200.273458 
L 134.587488 200.257778 
L 134.111797 200.229507 
L 133.965457 200.220075 
L 133.505072 200.188145 
L 133.324305 200.174671 
L 132.763768 200.129525 
L 132.713879 200.12526 
L 132.113966 200.070808 
L 131.991291 200.058952 
L 131.484481 200.007375 
L 131.238436 199.980825 
L 131.033223 199.957924 
L 130.72957 199.922774 
L 130.519408 199.897561 
L 129.906512 199.819892 
L 129.748105 199.798813 
L 129.334437 199.741814 
L 129.205799 199.723513 
L 128.755457 199.657285 
L 128.634045 199.638854 
L 128.177287 199.567321 
L 127.828504 199.510356 
L 127.600336 199.47199 
L 127.234561 199.408667 
L 126.879209 199.344995 
L 126.493172 199.273412 
L 126.248268 199.226693 
L 126.138213 199.205368 
L 125.630588 199.104341 
L 125.509531 199.079601 
L 125.056035 198.984691 
L 124.83819 198.937846 
L 124.565234 198.877998 
L 124.243317 198.805764 
L 123.880426 198.722184 
L 123.634994 198.664361 
L 123.043597 198.520709 
L 122.79448 198.458363 
L 122.668473 198.426411 
L 122.095684 198.277632 
L 121.795386 198.197306 
L 121.616884 198.148796 
L 121.293335 198.059415 
L 120.89257 197.946096 
L 120.65709 197.87816 
L 120.499522 197.832141 
L 120.152194 197.729106 
L 119.726929 197.599949 
L 119.422777 197.505538 
L 119.253436 197.452233 
L 118.781587 197.3009 
L 118.416507 197.180962 
L 118.140563 197.088647 
L 117.742337 196.95289 
L 117.384172 196.828218 
L 117.154831 196.7471 
L 116.96867 196.680514 
L 116.500175 196.509983 
L 116.22699 196.408579 
L 115.986558 196.318126 
L 115.813352 196.252262 
L 115.473509 196.121314 
L 114.906382 195.897683 
L 114.649043 195.794086 
L 114.411488 195.697269 
L 114.114285 195.574531 
L 113.683832 195.393567 
L 113.453154 195.295022 
L 113.12636 195.15353 
L 112.813835 195.016134 
L 112.518233 194.88429 
L 112.261883 194.768459 
L 112.002532 194.649849 
L 111.542773 194.43604 
L 111.384618 194.361436 
L 111.103613 194.227539 
L 110.634857 194.000326 
L 110.26645 193.818339 
L 110.111034 193.740656 
L 109.657675 193.510942 
L 109.514994 193.437682 
L 109.101882 193.222939 
L 108.791186 193.058837 
L 108.334588 192.813584 
L 108.130908 192.702595 
L 107.874749 192.561609 
L 107.498799 192.351841 
L 107.239363 192.205088 
L 106.892308 192.006198 
L 106.892308 200.353846 
L 106.902396 201.475053 
L 106.912485 201.939408 
L 106.922574 202.295677 
L 106.932662 202.595988 
L 106.942751 202.860536 
L 106.95284 203.099676 
L 106.962929 203.319561 
L 106.973017 203.5242 
L 106.983106 203.716378 
L 106.993195 203.898122 
L 107.003283 204.070964 
L 107.013372 204.236092 
L 107.033549 204.546811 
L 107.053727 204.835951 
L 107.073904 205.10745 
L 107.094082 205.364179 
L 107.114259 205.608301 
L 107.134436 205.8415 
L 107.154614 206.065114 
L 107.174791 206.280228 
L 107.194969 206.487737 
L 107.215146 206.688387 
L 107.253628 207.05426 
L 107.29211 207.400953 
L 107.330592 207.731172 
L 107.369075 208.047037 
L 107.407557 208.35025 
L 107.446039 208.642199 
L 107.484521 208.924037 
L 107.523003 209.196729 
L 107.563588 209.475315 
L 107.604172 209.745467 
L 107.644757 210.007891 
L 107.685342 210.263202 
L 107.766511 210.754565 
L 107.84768 211.223133 
L 107.930226 211.679186 
L 108.012772 212.116992 
L 108.095317 212.53852 
L 108.177863 212.945403 
L 108.23976 213.241734 
L 108.301657 213.531112 
L 108.425451 214.090757 
L 108.524904 214.523578 
L 108.624358 214.942887 
L 108.723811 215.349816 
L 108.823265 215.745349 
L 108.927745 216.149534 
L 109.016457 216.484241 
L 109.105169 216.811665 
L 109.193881 217.132231 
L 109.282593 217.446326 
L 109.38843 217.813074 
L 109.494267 218.171646 
L 109.600104 218.522527 
L 109.705942 218.866154 
L 109.88018 219.417096 
L 110.054419 219.951008 
L 110.263693 220.571665 
L 110.472966 221.171724 
L 110.621521 221.58614 
L 110.770075 221.9916 
L 111.021014 222.657527 
L 111.154525 223.002716 
L 111.34066 223.474081 
L 111.526795 223.934557 
L 111.822462 224.645135 
L 112.096255 225.28196 
L 112.380864 225.924029 
L 112.665472 226.547274 
L 112.884481 227.014882 
L 113.092766 227.450466 
L 113.301051 227.877583 
L 113.35876 227.994477 
L 113.555925 228.389278 
L 113.753089 228.777228 
L 113.951157 229.160336 
L 114.306052 229.831007 
L 114.521481 230.22872 
L 114.73691 230.619674 
L 114.963064 231.023102 
L 115.189217 231.419645 
L 115.441848 231.854792 
L 115.725311 232.333624 
L 115.892508 232.611555 
L 116.339165 233.338398 
L 116.717837 233.937638 
L 116.893262 234.210214 
L 117.210937 234.696034 
L 117.600429 235.27852 
L 117.988091 235.844534 
L 118.2605 236.234424 
L 118.504286 236.578051 
L 118.681345 236.824574 
L 119.110328 237.411548 
L 119.315496 237.687274 
L 119.750218 238.261201 
L 119.962217 238.536162 
L 120.273584 238.934337 
L 120.783434 239.572268 
L 120.957 239.785578 
L 121.162444 240.035601 
L 121.764269 240.753103 
L 121.786725 240.779455 
L 122.239016 241.303992 
L 122.466477 241.563388 
L 123.005595 242.166828 
L 123.251161 242.436536 
L 123.542027 242.751936 
L 123.645202 242.862774 
L 124.053737 243.296406 
L 124.458863 243.718338 
L 124.638078 243.902481 
L 125.042522 244.312528 
L 125.407147 244.675788 
L 125.580285 244.846194 
L 126.086771 245.337154 
L 126.406388 245.64132 
L 126.534182 245.761736 
L 126.79081 246.001509 
L 127.252776 246.426386 
L 127.603488 246.743271 
L 127.819666 246.936208 
L 128.121047 247.202199 
L 128.401048 247.446245 
L 128.757331 247.75257 
L 129.004997 247.962777 
L 129.304583 248.214103 
L 129.618361 248.473929 
L 130.200363 248.946817 
L 130.498384 249.184507 
L 130.683487 249.330644 
L 131.085702 249.6443 
L 131.222368 249.749676 
L 131.769433 250.165503 
L 131.928313 250.284497 
L 132.123848 250.429863 
L 132.600041 250.778954 
L 132.938376 251.022803 
L 133.121839 251.153599 
L 133.547706 251.453381 
L 133.916185 251.708504 
L 134.236842 251.927348 
L 134.544574 252.134634 
L 134.676841 252.222912 
L 134.928607 252.389604 
L 135.401851 252.698222 
L 135.716704 252.900182 
L 136.095899 253.139895 
L 136.322754 253.281487 
L 136.596966 253.45084 
L 136.81491 253.584049 
L 137.308442 253.881195 
L 137.71996 254.124243 
L 137.752666 254.143378 
L 138.120436 254.356709 
L 138.383424 254.507213 
L 138.868508 254.780394 
L 139.166337 254.945307 
L 139.497937 255.126431 
L 139.78966 255.283623 
L 139.98075 255.385509 
L 140.305596 255.556762 
L 140.67501 255.748552 
L 140.922208 255.875148 
L 141.351008 256.091465 
L 141.737145 256.282731 
L 141.858178 256.341999 
L 142.2481 256.530742 
L 142.647661 256.720697 
L 142.82734 256.804987 
L 143.275443 257.012172 
L 143.571838 257.146855 
L 143.791107 257.245292 
L 144.039883 257.35575 
L 144.351849 257.492431 
L 144.808311 257.688775 
L 144.969477 257.757072 
L 145.549049 257.998283 
L 145.611731 258.023961 
L 145.922313 258.150021 
L 146.192104 258.25795 
L 146.786559 258.490635 
L 147.03255 258.584875 
L 147.184028 258.642314 
L 147.594721 258.795787 
L 148.001076 258.94441 
L 148.138508 258.993953 
L 148.594194 259.155626 
L 148.83002 259.237735 
L 149.032516 259.307397 
L 149.514513 259.470088 
L 149.755242 259.549707 
L 150.137573 259.67393 
L 150.316856 259.731244 
L 150.842438 259.895835 
L 150.991917 259.941716 
L 151.400904 260.065158 
L 151.786854 260.178848 
L 151.997071 260.239635 
L 152.32005 260.331474 
L 152.642565 260.421307 
L 153.011185 260.521701 
L 153.229369 260.579982 
L 153.638345 260.68695 
L 153.704573 260.703993 
L 154.298519 260.853387 
L 154.537107 260.911654 
L 154.722892 260.956337 
L 155.182764 261.064353 
L 155.553299 261.148715 
L 155.829517 261.21006 
L 156.159728 261.281671 
L 156.475572 261.348415 
L 156.800868 261.415373 
L 156.929029 261.441257 
L 157.403959 261.534741 
L 157.656805 261.58295 
L 158.004623 261.6475 
L 158.314058 261.703213 
L 158.583145 261.750352 
L 158.990166 261.819347 
L 159.226473 261.858133 
L 159.615456 261.919949 
L 159.791211 261.947054 
L 160.118956 261.996227 
L 160.417225 262.039431 
L 160.659964 262.073505 
L 160.983833 262.117453 
L 161.297963 262.158428 
L 161.716362 262.210484 
L 162.071434 262.252409 
L 162.158105 262.262329 
L 162.760246 262.327858 
L 162.891033 262.341308 
L 163.107144 262.362923 
L 163.410856 262.392015 
L 163.726677 262.420675 
L 164.114112 262.453623 
L 164.653751 262.49546 
L 164.788863 262.505197 
L 165.066431 262.524274 
L 165.364494 262.543374 
L 165.798282 262.56861 
L 166.007591 262.579701 
L 166.502561 262.603122 
L 166.692636 262.611068 
L 167.038446 262.624033 
L 167.409323 262.635802 
L 167.726705 262.644118 
L 167.963128 262.649261 
L 168.397341 262.656368 
L 168.450688 262.657033 
L 168.988329 262.661179 
L 169.2 262.661538 
z
" clip-path="url(#p80ac77a7d7)" style="fill: #808080; opacity: 0.5"/>
   </g>
   <g id="patch_6">
    <path d="M 200.353846 146.393802 
L 200.121811 146.2605 
L 200.057544 146.223813 
L 199.943691 146.159068 
L 199.779628 146.066326 
L 199.53355 145.928445 
L 199.424268 145.867682 
L 199.21088 145.749857 
L 199.031217 145.651497 
L 198.939123 145.601375 
L 198.820341 145.537025 
L 198.695312 145.469649 
L 198.548882 145.391207 
L 198.337313 145.278756 
L 198.222088 145.217951 
L 198.019545 145.111812 
L 197.817388 145.006817 
L 197.630191 144.910426 
L 197.580683 144.885068 
L 197.357371 144.771376 
L 197.231993 144.708039 
L 196.999813 144.591682 
L 196.896225 144.540159 
L 196.70077 144.443595 
L 196.62556 144.406664 
L 196.446789 144.319383 
L 196.320418 144.258111 
L 196.178039 144.189499 
L 196.016774 144.112321 
L 195.848206 144.032255 
L 195.585636 143.908769 
L 195.575874 143.904207 
L 195.362343 143.804926 
L 195.226338 143.742202 
L 195.011314 143.643842 
L 194.873517 143.581326 
L 194.680761 143.494552 
L 194.492491 143.410555 
L 194.464676 143.398208 
L 194.225128 143.29255 
L 194.167753 143.267422 
L 193.965939 143.179579 
L 193.818746 143.116045 
L 193.667162 143.051084 
L 193.509753 142.984129 
L 193.308912 142.899439 
L 193.220247 142.862314 
L 192.927439 142.740851 
L 192.815115 142.69472 
L 192.712811 142.652926 
L 192.55557 142.5891 
L 192.405191 142.528526 
L 192.136952 142.421603 
L 192.056287 142.389731 
L 191.900038 142.328362 
L 191.672906 142.240018 
L 191.572579 142.201321 
L 191.497815 142.172612 
L 191.236786 142.073244 
L 191.177592 142.050896 
L 191.019987 141.991729 
L 190.744276 141.88939 
L 190.702361 141.873961 
L 190.566339 141.824127 
L 190.381502 141.756982 
L 190.106258 141.658217 
L 190.041739 141.635276 
L 189.820292 141.557145 
L 189.702785 141.516066 
L 189.504571 141.44737 
L 189.367306 141.400235 
L 189.217887 141.349332 
L 189.083874 141.304036 
L 188.979762 141.26908 
L 188.773538 141.200443 
L 188.687679 141.172102 
L 188.507071 141.112935 
L 188.2917 141.043177 
L 188.169169 141.003874 
L 187.998799 140.949691 
L 187.835066 140.898125 
L 187.607186 140.82718 
L 187.469099 140.784655 
L 187.30375 140.734196 
L 187.209551 140.705673 
L 187.064457 140.662057 
L 186.966658 140.632875 
L 186.695435 140.552857 
L 186.524119 140.503003 
L 186.374942 140.460024 
L 186.233 140.419504 
L 186.110045 140.384697 
L 185.994375 140.3522 
L 185.750686 140.284525 
L 185.610934 140.246195 
L 185.501982 140.216554 
L 185.38696 140.185492 
L 185.102086 140.109575 
L 185.028955 140.090319 
L 184.781718 140.025921 
L 184.670371 139.997271 
L 184.591214 139.977037 
L 184.345615 139.914961 
L 184.219438 139.883482 
L 184.099085 139.853716 
L 183.970469 139.822187 
L 183.727318 139.763372 
L 183.665118 139.748493 
L 183.508847 139.711407 
L 183.318758 139.666869 
L 183.172539 139.633037 
L 183.039132 139.602493 
L 182.839779 139.557424 
L 182.724224 139.531614 
L 182.561967 139.495762 
L 182.274601 139.433379 
L 182.172159 139.411483 
L 181.984775 139.371898 
L 181.933456 139.361161 
L 181.708432 139.314616 
L 181.597819 139.292053 
L 181.436934 139.259608 
L 181.314089 139.235131 
L 181.059297 139.185181 
L 180.906986 139.155848 
L 180.748056 139.125659 
L 180.61031 139.099839 
L 180.489983 139.077547 
L 180.267964 139.037057 
L 180.090835 139.005348 
L 179.961823 138.982585 
L 179.789443 138.952607 
L 179.616454 138.923023 
L 179.524313 138.907471 
L 179.421667 138.890312 
L 179.242494 138.860783 
L 179.0876 138.835687 
L 178.938254 138.811869 
L 178.753145 138.782863 
L 178.6332 138.764373 
L 178.42333 138.732594 
L 178.207099 138.700617 
L 178.075258 138.6815 
L 177.970943 138.666578 
L 177.777396 138.639368 
L 177.611719 138.616568 
L 177.557363 138.609186 
L 177.287941 138.573317 
L 177.185491 138.559992 
L 177.05417 138.543163 
L 176.824821 138.514452 
L 176.775528 138.508394 
L 176.579436 138.48469 
L 176.450416 138.469438 
L 176.170369 138.437269 
L 176.145326 138.434455 
L 175.974407 138.415523 
L 175.766068 138.39309 
L 175.610495 138.376801 
L 175.397783 138.355169 
L 175.329143 138.348345 
L 175.175782 138.333377 
L 174.980153 138.314839 
L 174.854622 138.303272 
L 174.645303 138.284553 
L 174.491804 138.271278 
L 174.329092 138.257623 
L 174.193448 138.246568 
L 174.010923 138.232163 
L 173.857518 138.220473 
L 173.786407 138.215184 
L 173.570992 138.199659 
L 173.455328 138.191633 
L 173.331865 138.183305 
L 173.134427 138.170498 
L 173.03214 138.16411 
L 172.78079 138.149132 
L 172.713907 138.145318 
L 172.425647 138.129705 
L 172.27213 138.121937 
L 172.223665 138.119563 
L 171.958212 138.107234 
L 171.873922 138.103556 
L 171.649106 138.094306 
L 171.516308 138.089223 
L 171.394848 138.084824 
L 171.277166 138.080787 
L 171.068363 138.074173 
L 170.944028 138.070567 
L 170.722422 138.064756 
L 170.674847 138.063611 
L 170.380599 138.05734 
L 170.359308 138.05694 
L 170.071813 138.052253 
L 170.048639 138.051933 
L 169.78795 138.048928 
L 169.607301 138.047485 
L 169.471822 138.046747 
L 169.303238 138.046239 
L 169.2 138.046154 
L 169.2 262.661538 
L 169.434418 262.661097 
L 169.582506 262.660364 
L 169.633116 262.660033 
L 169.831244 262.658341 
L 170.033737 262.65596 
L 170.150897 262.654282 
L 170.355457 262.650824 
L 170.38186 262.650329 
L 170.555573 262.646791 
L 170.714618 262.643127 
L 170.946891 262.637045 
L 171.140492 262.631314 
L 171.230725 262.628437 
L 171.414364 262.622178 
L 171.545486 262.617377 
L 171.704189 262.611196 
L 171.903824 262.602845 
L 172.010262 262.598131 
L 172.173442 262.590549 
L 172.337326 262.582503 
L 172.448903 262.576777 
L 172.630892 262.567008 
L 172.784823 262.558328 
L 172.914158 262.55074 
L 173.041733 262.54299 
L 173.340575 262.523808 
L 173.453 262.516218 
L 173.647537 262.502603 
L 173.699562 262.498858 
L 173.895579 262.484354 
L 173.978271 262.47805 
L 174.175305 262.46258 
L 174.390057 262.445004 
L 174.527043 262.433401 
L 174.656572 262.42215 
L 174.810447 262.40843 
L 175.036276 262.387598 
L 175.205129 262.37148 
L 175.325276 262.359729 
L 175.417975 262.350502 
L 175.64718 262.327085 
L 175.783061 262.312799 
L 175.955558 262.294228 
L 176.151775 262.272513 
L 176.214918 262.265392 
L 176.404056 262.243668 
L 176.586096 262.222207 
L 176.73485 262.204267 
L 176.817503 262.194142 
L 176.969579 262.175219 
L 177.17079 262.149599 
L 177.290271 262.13407 
L 177.537023 262.101255 
L 177.68888 262.080562 
L 177.841776 262.059342 
L 178.027036 262.033113 
L 178.051974 262.029539 
L 178.326758 261.989476 
L 178.460458 261.969529 
L 178.662867 261.938769 
L 178.740475 261.926794 
L 178.95678 261.892889 
L 178.997388 261.886437 
L 179.257328 261.844485 
L 179.368824 261.826145 
L 179.566118 261.793183 
L 179.759102 261.760311 
L 179.915206 261.733264 
L 179.949473 261.727272 
L 180.159803 261.690061 
L 180.253539 261.673238 
L 180.458853 261.635872 
L 180.584661 261.612625 
L 180.767917 261.578284 
L 180.912861 261.55072 
L 181.141894 261.50644 
L 181.205601 261.493964 
L 181.364735 261.462501 
L 181.645101 261.40602 
L 181.703971 261.393991 
L 181.844109 261.365116 
L 182.08471 261.314758 
L 182.118783 261.307546 
L 182.384257 261.250676 
L 182.575231 261.209016 
L 182.649037 261.192748 
L 182.880608 261.141094 
L 182.96791 261.12138 
L 183.076624 261.096647 
L 183.364012 261.030277 
L 183.394785 261.023085 
L 183.614549 260.971247 
L 183.824517 260.920933 
L 183.947598 260.891082 
L 184.061589 260.863198 
L 184.268105 260.812102 
L 184.373447 260.78575 
L 184.506147 260.752277 
L 184.669946 260.71053 
L 184.828281 260.669726 
L 184.968261 260.633283 
L 185.127152 260.591495 
L 185.365866 260.527871 
L 185.529463 260.483682 
L 185.605318 260.463031 
L 185.794722 260.411017 
L 185.926934 260.374328 
L 186.152562 260.31099 
L 186.265806 260.278856 
L 186.483101 260.216547 
L 186.534996 260.20154 
L 186.762817 260.13508 
L 186.909088 260.091914 
L 187.034915 260.054469 
L 187.227344 259.996644 
L 187.282423 259.979969 
L 187.563263 259.894077 
L 187.670429 259.86092 
L 187.839493 259.80818 
L 187.984025 259.762675 
L 188.095154 259.727423 
L 188.321067 259.655055 
L 188.52636 259.588467 
L 188.577716 259.571687 
L 188.744538 259.516838 
L 188.87033 259.475134 
L 189.059467 259.411869 
L 189.301238 259.330017 
L 189.464479 259.274126 
L 189.602148 259.226598 
L 189.736976 259.1797 
L 189.91409 259.117568 
L 189.98851 259.091282 
L 190.161962 259.029605 
L 190.377273 258.952239 
L 190.477825 258.915802 
L 190.587523 258.875828 
L 190.786826 258.802605 
L 191.015083 258.717796 
L 191.107979 258.68299 
L 191.323315 258.601657 
L 191.377893 258.580898 
L 191.569629 258.507507 
L 191.777917 258.426957 
L 191.847086 258.400018 
L 191.992394 258.343115 
L 192.233567 258.247743 
L 192.405272 258.179134 
L 192.593017 258.103437 
L 192.715569 258.053643 
L 192.806481 258.016508 
L 192.981688 257.944469 
L 193.222989 257.844232 
L 193.357688 257.787762 
L 193.445057 257.750934 
L 193.548164 257.707272 
L 193.753771 257.61955 
L 193.894071 257.55919 
L 194.103434 257.468358 
L 194.221553 257.41671 
L 194.427174 257.326105 
L 194.63631 257.23304 
L 194.705264 257.202153 
L 194.800314 257.159413 
L 195.085 257.030255 
L 195.202223 256.97657 
L 195.397434 256.886518 
L 195.514778 256.831992 
L 195.713003 256.73921 
L 195.848126 256.675475 
L 195.934974 256.634302 
L 196.132486 256.540052 
L 196.294809 256.461955 
L 196.437953 256.392604 
L 196.615168 256.306121 
L 196.791475 256.21939 
L 196.921211 256.155127 
L 197.06762 256.082154 
L 197.210538 256.010457 
L 197.377175 255.926279 
L 197.541025 255.842898 
L 197.676188 255.773655 
L 197.857153 255.680296 
L 198.043308 255.583477 
L 198.111044 255.548049 
L 198.284793 255.456689 
L 198.531996 255.325498 
L 198.589909 255.294558 
L 198.749156 255.209073 
L 198.94742 255.10181 
L 199.029504 255.057129 
L 199.239546 254.94207 
L 199.475003 254.811837 
L 199.588669 254.74849 
L 199.66338 254.706684 
L 199.945592 254.547546 
L 200.050471 254.487911 
L 200.240252 254.379315 
L 200.353846 254.313891 
z
" clip-path="url(#p80ac77a7d7)" style="fill: #808080; opacity: 0.5"/>
   </g>
   <g id="patch_7">
    <path d="M 231.507692 200.353846 
L 231.500976 199.439026 
L 231.49426 199.06013 
L 231.487544 198.769416 
L 231.480828 198.524354 
L 231.474111 198.308467 
L 231.467395 198.113305 
L 231.460679 197.933851 
L 231.453963 197.766832 
L 231.447247 197.609977 
L 231.44053 197.461632 
L 231.433814 197.320549 
L 231.427098 197.185756 
L 231.420382 197.056482 
L 231.413666 196.932102 
L 231.406949 196.8121 
L 231.400233 196.696045 
L 231.393517 196.583573 
L 231.386801 196.474371 
L 231.373368 196.264741 
L 231.359936 196.065388 
L 231.346504 195.874939 
L 231.333071 195.692304 
L 231.319639 195.516596 
L 231.306206 195.347087 
L 231.292774 195.183167 
L 231.2754 194.978599 
L 231.258025 194.78159 
L 231.240651 194.591365 
L 231.223276 194.407273 
L 231.205902 194.228761 
L 231.188527 194.055354 
L 231.171153 193.886641 
L 231.153778 193.722265 
L 231.126621 193.473285 
L 231.099464 193.23311 
L 231.076522 193.036434 
L 231.05358 192.844977 
L 231.030639 192.65835 
L 231.007697 192.476211 
L 230.984755 192.298253 
L 230.961813 192.124207 
L 230.938871 191.953829 
L 230.91593 191.786901 
L 230.874812 191.495735 
L 230.833694 191.214024 
L 230.792575 190.94092 
L 230.751457 190.675695 
L 230.720029 190.477891 
L 230.688602 190.28407 
L 230.657174 190.094006 
L 230.625746 189.907494 
L 230.594318 189.724347 
L 230.56289 189.544394 
L 230.500034 189.193455 
L 230.456986 188.959538 
L 230.411595 188.71816 
L 230.366204 188.481861 
L 230.320813 188.250345 
L 230.275422 188.023342 
L 230.218856 187.746398 
L 230.16229 187.475657 
L 230.083897 187.109992 
L 230.005503 186.754608 
L 229.93396 186.438582 
L 229.862418 186.129936 
L 229.811423 185.914179 
L 229.760427 185.701776 
L 229.658437 185.286468 
L 229.602794 185.064928 
L 229.54715 184.846752 
L 229.435863 184.419943 
L 229.342703 184.071836 
L 229.249542 183.73154 
L 229.18348 183.494706 
L 229.117419 183.261409 
L 229.022202 182.931082 
L 228.926984 182.607414 
L 228.797243 182.176467 
L 228.713059 181.902713 
L 228.628875 181.63334 
L 228.514773 181.2749 
L 228.433921 181.025341 
L 228.353069 180.779297 
L 228.271957 180.535865 
L 228.167325 180.226674 
L 228.062693 179.922696 
L 227.947349 179.593366 
L 227.823947 179.247418 
L 227.671091 178.827583 
L 227.518235 178.416846 
L 227.396977 178.097153 
L 227.272782 177.775083 
L 227.130138 177.411579 
L 227.007704 177.104807 
L 226.853476 176.724939 
L 226.687884 176.324869 
L 226.5487 175.994554 
L 226.402629 175.653487 
L 226.227217 175.251155 
L 226.058486 174.871281 
L 225.874657 174.46501 
L 225.682553 174.04853 
L 225.597847 173.867409 
L 225.432977 173.519152 
L 225.230123 173.098134 
L 225.144982 172.923798 
L 224.931363 172.492337 
L 224.705714 172.045469 
L 224.563479 171.768295 
L 224.487697 171.621999 
L 224.241212 171.152588 
L 224.192334 171.060644 
L 223.993962 170.69124 
L 223.820074 170.372251 
L 223.615832 170.003134 
L 223.48648 169.772371 
L 223.346822 169.525771 
L 223.195763 169.261949 
L 223.087581 169.074825 
L 222.954898 168.847347 
L 222.714475 168.440691 
L 222.590079 168.233013 
L 222.484288 168.057822 
L 222.286272 167.733359 
L 222.129716 167.479941 
L 222.003964 167.278328 
L 221.74197 166.8637 
L 221.624393 166.679947 
L 221.4815 166.458518 
L 221.302006 166.183251 
L 221.245983 166.097984 
L 221.078409 165.844728 
L 220.882326 165.551753 
L 220.768688 165.383588 
L 220.550519 165.064008 
L 220.464119 164.938615 
L 220.28999 164.687876 
L 220.026313 164.313114 
L 219.855609 164.073579 
L 219.816579 164.019145 
L 219.667807 163.812787 
L 219.420633 163.473817 
L 219.335684 163.358418 
L 219.208861 163.187163 
L 218.95724 162.850972 
L 218.825399 162.676687 
L 218.671151 162.474382 
L 218.458706 162.198527 
L 218.297629 161.991477 
L 218.166218 161.823884 
L 218.038418 161.66202 
L 217.814618 161.381196 
L 217.718586 161.261707 
L 217.61367 161.131849 
L 217.371683 160.835022 
L 217.237444 160.671955 
L 217.158167 160.57618 
L 216.885549 160.249769 
L 216.800894 160.149326 
L 216.671878 159.997071 
L 216.445469 159.732249 
L 216.2639 159.522022 
L 216.111123 159.34659 
L 216.054459 159.281858 
L 215.88387 159.088064 
L 215.662841 158.839356 
L 215.515924 158.67551 
L 215.44623 158.598191 
L 215.181583 158.306937 
L 215.083399 158.199816 
L 214.962948 158.069084 
L 214.719719 157.807358 
L 214.620746 157.701714 
L 214.413493 157.482078 
L 214.357426 157.423025 
L 214.053053 157.105122 
L 213.964776 157.013757 
L 213.888095 156.934696 
L 213.659595 156.700749 
L 213.487865 156.526532 
L 213.299986 156.337489 
L 213.241189 156.278658 
L 213.0332 156.071806 
L 212.844025 155.885344 
L 212.710904 155.755082 
L 212.549908 155.598578 
L 212.380076 155.434702 
L 212.196302 155.258763 
L 212.132345 155.197869 
L 211.894832 154.973235 
L 211.859993 154.940483 
L 211.55692 154.657677 
L 211.397447 154.510373 
L 211.37335 154.488205 
L 211.179446 154.310664 
L 211.043529 154.18711 
L 210.893995 154.052018 
L 210.644142 153.828244 
L 210.500522 153.700707 
L 210.380774 153.594971 
L 210.272479 153.499817 
L 209.982708 153.247379 
L 209.839793 153.124028 
L 209.821598 153.108378 
L 209.646864 152.958701 
L 209.440935 152.783733 
L 209.20171 152.582393 
L 209.130707 152.523028 
L 209.004242 152.417734 
L 208.751613 152.209081 
L 208.585729 152.073282 
L 208.512178 152.013375 
L 208.309859 151.849543 
L 208.182969 151.747502 
L 207.977604 151.583508 
L 207.866526 151.495395 
L 207.638568 151.31585 
L 207.628892 151.308267 
L 207.341612 151.084526 
L 207.184837 150.963557 
L 207.04201 150.85404 
L 206.985454 150.810855 
L 206.747688 150.630414 
L 206.639477 150.548886 
L 206.384981 150.35859 
L 206.322047 150.311842 
L 206.119965 150.162565 
L 206.063489 150.121071 
L 205.813907 149.938865 
L 205.607871 149.789872 
L 205.549426 149.747841 
L 205.388589 149.632701 
L 205.175626 149.481429 
L 205.000011 149.357692 
L 204.865658 149.263638 
L 204.723297 149.164551 
L 204.581912 149.066725 
L 204.378946 148.927294 
L 204.343702 148.903203 
L 204.135985 148.761933 
L 203.931548 148.624086 
L 203.785515 148.526337 
L 203.630413 148.423169 
L 203.55375 148.372423 
L 203.316078 148.216127 
L 203.112154 148.083258 
L 203.010887 148.017698 
L 202.922365 147.960616 
L 202.697027 147.816262 
L 202.615785 147.764552 
L 202.409653 147.63414 
L 202.300619 147.565613 
L 202.000572 147.378654 
L 201.947614 147.345901 
L 201.751168 147.225041 
L 201.595389 147.129911 
L 201.412507 147.019027 
L 201.343476 146.977395 
L 201.100265 146.831686 
L 200.983362 146.762182 
L 200.821259 146.666375 
L 200.621471 146.549203 
L 200.501835 146.479514 
L 200.353846 146.393802 
L 200.353846 254.313891 
L 200.570062 254.188479 
L 200.601762 254.169995 
L 200.849954 254.024405 
L 201.036664 253.913863 
L 201.147542 253.8478 
L 201.329661 253.738613 
L 201.502244 253.634364 
L 201.646817 253.546445 
L 201.749277 253.483811 
L 201.932079 253.371386 
L 202.146972 253.238112 
L 202.196882 253.206985 
L 202.45868 253.042638 
L 202.519947 253.003914 
L 202.721236 252.875987 
L 202.858176 252.788336 
L 202.99033 252.703269 
L 203.134352 252.610025 
L 203.403151 252.434485 
L 203.438829 252.411037 
L 203.702558 252.236618 
L 203.829364 252.152067 
L 203.926865 252.086751 
L 204.096271 251.972629 
L 204.214937 251.892208 
L 204.387202 251.77475 
L 204.509459 251.690876 
L 204.769462 251.511073 
L 204.871014 251.440314 
L 204.99647 251.352486 
L 205.277422 251.154123 
L 205.396028 251.069683 
L 205.544886 250.963112 
L 205.683154 250.863528 
L 205.823434 250.761907 
L 206.00019 250.633012 
L 206.115761 250.54822 
L 206.371005 250.359495 
L 206.481 250.277543 
L 206.679723 250.128527 
L 206.715061 250.101899 
L 206.892635 249.967491 
L 207.063881 249.836925 
L 207.211861 249.72334 
L 207.384249 249.59013 
L 207.507443 249.494342 
L 207.678698 249.360359 
L 207.853978 249.222225 
L 207.995515 249.109939 
L 208.165992 248.9738 
L 208.399705 248.785567 
L 208.421686 248.767768 
L 208.600721 248.622177 
L 208.864603 248.405566 
L 209.039682 248.260508 
L 209.149884 248.168648 
L 209.343238 248.006432 
L 209.50573 247.869072 
L 209.571392 247.813294 
L 209.687416 247.714353 
L 209.864872 247.562074 
L 210.012303 247.434675 
L 210.159474 247.306695 
L 210.371962 247.12048 
L 210.51761 246.991852 
L 210.720542 246.81128 
L 210.80779 246.733155 
L 211.009319 246.551566 
L 211.108884 246.461264 
L 211.308736 246.278816 
L 211.411375 246.184494 
L 211.636823 245.975821 
L 211.839452 245.786496 
L 212.011013 245.624871 
L 212.117919 245.523535 
L 212.315336 245.335135 
L 212.340785 245.310728 
L 212.551122 245.107938 
L 212.645815 245.016019 
L 212.888616 244.778539 
L 213.0079 244.660915 
L 213.233129 244.437087 
L 213.389825 244.28001 
L 213.439755 244.229723 
L 213.693356 243.972533 
L 213.832216 243.830436 
L 213.909122 243.751345 
L 214.077375 243.577332 
L 214.212097 243.437017 
L 214.448096 243.189092 
L 214.649795 242.975022 
L 214.76047 242.856695 
L 214.905466 242.700734 
L 215.070849 242.521532 
L 215.264194 242.310235 
L 215.455431 242.099308 
L 215.524802 242.022315 
L 215.659668 241.871888 
L 215.879132 241.624988 
L 216.022228 241.462574 
L 216.104762 241.368378 
L 216.352666 241.08313 
L 216.531828 240.874787 
L 216.667674 240.715566 
L 216.828829 240.525268 
L 217.005143 240.315288 
L 217.04174 240.271467 
L 217.336345 239.915707 
L 217.435782 239.794407 
L 217.566464 239.63404 
L 217.721224 239.442711 
L 217.934104 239.176979 
L 218.010874 239.080415 
L 218.137311 238.920517 
L 218.401082 238.583443 
L 218.570305 238.364654 
L 218.598529 238.327967 
L 218.853186 237.994378 
L 219.024606 237.767175 
L 219.164791 237.579754 
L 219.341053 237.341998 
L 219.517328 237.10184 
L 219.600334 236.987913 
L 219.781312 236.737626 
L 219.857299 236.631754 
L 220.129668 236.248378 
L 220.222531 236.116255 
L 220.370245 235.904577 
L 220.581512 235.598544 
L 220.649727 235.49889 
L 220.823082 235.243757 
L 221.045533 234.912336 
L 221.234578 234.627031 
L 221.403335 234.369435 
L 221.475762 234.258024 
L 221.720322 233.877931 
L 221.773997 233.793693 
L 221.993871 233.445473 
L 222.183212 233.141462 
L 222.198348 233.116991 
L 222.505283 232.615205 
L 222.624217 232.417868 
L 222.763468 232.184703 
L 222.829428 232.073446 
L 223.099611 231.612133 
L 223.193012 231.45052 
L 223.352612 231.171749 
L 223.493904 230.922138 
L 223.622119 230.693285 
L 223.898807 230.191557 
L 224.021658 229.965236 
L 224.174178 229.681108 
L 224.301911 229.440405 
L 224.4845 229.091845 
L 224.61594 228.837562 
L 224.720315 228.633577 
L 224.976452 228.124981 
L 225.095349 227.884892 
L 225.201147 227.669045 
L 225.44037 227.173042 
L 225.598958 226.837918 
L 225.740332 226.534743 
L 225.865828 226.262 
L 226.092616 225.760119 
L 226.183317 225.556031 
L 226.286169 225.322182 
L 226.414621 225.026416 
L 226.543072 224.726384 
L 226.708151 224.334278 
L 226.799711 224.113513 
L 226.985528 223.657951 
L 227.104287 223.361281 
L 227.269688 222.940564 
L 227.389479 222.630134 
L 227.55011 222.205922 
L 227.64967 221.938205 
L 227.749231 221.666662 
L 227.843358 221.406284 
L 227.937485 221.142219 
L 228.061373 220.788798 
L 228.210493 220.354101 
L 228.311017 220.055018 
L 228.431584 219.689512 
L 228.552151 219.316194 
L 228.636564 219.049924 
L 228.720978 218.779419 
L 228.799521 218.523755 
L 228.878065 218.264097 
L 229.000617 217.850553 
L 229.096065 217.520964 
L 229.191513 217.184382 
L 229.282861 216.855311 
L 229.374209 216.519026 
L 229.419328 216.350129 
L 229.476062 216.135 
L 229.532797 215.916692 
L 229.589531 215.695068 
L 229.646265 215.469981 
L 229.735955 215.106701 
L 229.825644 214.733687 
L 229.865655 214.563941 
L 229.915382 214.349949 
L 229.965109 214.132454 
L 230.014836 213.911288 
L 230.064563 213.686269 
L 230.14819 213.2986 
L 230.190004 213.100139 
L 230.231817 212.898399 
L 230.290563 212.609116 
L 230.349309 212.312548 
L 230.408055 212.00814 
L 230.4668 211.695261 
L 230.524898 211.376798 
L 230.582995 211.04854 
L 230.621775 210.823521 
L 230.660555 210.593411 
L 230.717397 210.246184 
L 230.745818 210.067793 
L 230.774239 209.885979 
L 230.802661 209.700543 
L 230.831082 209.511264 
L 230.859503 209.3179 
L 230.887924 209.120179 
L 230.914311 208.932447 
L 230.940697 208.740431 
L 230.967084 208.543829 
L 230.993471 208.342303 
L 231.019858 208.13547 
L 231.046245 207.922896 
L 231.072632 207.704081 
L 231.099019 207.478452 
L 231.118858 207.303924 
L 231.138697 207.124841 
L 231.158536 206.940832 
L 231.178375 206.75147 
L 231.198214 206.556267 
L 231.218053 206.354651 
L 231.237892 206.145954 
L 231.257731 205.92938 
L 231.276834 205.712497 
L 231.295938 205.486387 
L 231.315042 205.24977 
L 231.324594 205.127037 
L 231.334146 205.001044 
L 231.344992 204.853672 
L 231.355839 204.70128 
L 231.366686 204.543321 
L 231.377532 204.379139 
L 231.388379 204.207938 
L 231.399226 204.028739 
L 231.410072 203.840307 
L 231.420919 203.641056 
L 231.426342 203.536743 
L 231.431766 203.428884 
L 231.437189 203.317091 
L 231.442612 203.200902 
L 231.448036 203.079754 
L 231.453459 202.952954 
L 231.458882 202.81963 
L 231.464306 202.67866 
L 231.469729 202.528557 
L 231.475152 202.367281 
L 231.480576 202.191893 
L 231.485999 201.997881 
L 231.491422 201.777653 
L 231.496846 201.516405 
L 231.502269 201.175917 
z
" clip-path="url(#p80ac77a7d7)" style="fill: #808080; opacity: 0.5"/>
   </g>
   <g id="matplotlib.axis_1"/>
   <g id="matplotlib.axis_2"/>
   <g id="line2d_1">
    <path d="M 138.046154 138.046154 
L 138.171408 141.994935 
L 138.524963 145.755744 
L 139.076167 149.328641 
L 139.882995 153.063632 
L 140.819973 156.430019 
L 142.001021 159.890977 
L 143.35227 163.207014 
L 144.879715 166.416373 
L 146.770158 169.842959 
L 148.848616 173.109807 
L 150.97718 176.048699 
L 153.313574 178.905196 
L 155.874866 181.6795 
L 158.619553 184.311662 
L 161.309854 186.603493 
L 164.342878 188.89356 
L 167.412984 190.934225 
L 169.2 192.006198 
L 169.2 192.006198 
" clip-path="url(#p80ac77a7d7)" style="fill: none; stroke: #ff0000; stroke-linecap: square"/>
   </g>
   <g id="line2d_2">
    <path d="M 106.892308 200.353846 
L 107.033549 204.546811 
L 107.407557 208.35025 
L 108.012772 212.116992 
L 108.823265 215.745349 
L 109.88018 219.417096 
L 111.154525 223.002716 
L 112.665472 226.547274 
L 114.306052 229.831007 
L 115.892508 232.611555 
L 117.988091 235.844534 
L 120.273584 238.934337 
L 122.466477 241.563388 
L 125.042522 244.312528 
L 127.819666 246.936208 
L 130.683487 249.330644 
L 133.547706 251.453381 
L 136.81491 253.584049 
L 140.305596 255.556762 
L 143.791107 257.245292 
L 147.184028 258.642314 
L 150.842438 259.895835 
L 154.298519 260.853387 
L 158.004623 261.6475 
L 161.716362 262.210484 
L 165.364494 262.543374 
L 169.2 262.661538 
L 169.2 262.661538 
" clip-path="url(#p80ac77a7d7)" style="fill: none; stroke: #228b22; stroke-linecap: square"/>
   </g>
   <g id="line2d_3">
    <path d="M 169.2 262.661538 
L 172.914158 262.55074 
L 176.586096 262.222207 
L 180.253539 261.673238 
L 183.947598 260.891082 
L 187.563263 259.894077 
L 191.107979 258.68299 
L 194.63631 257.23304 
L 197.857153 255.680296 
L 200.353846 254.313891 
L 200.353846 254.313891 
" clip-path="url(#p80ac77a7d7)" style="fill: none; stroke: #228b22; stroke-linecap: square"/>
   </g>
   <g id="line2d_4">
    <path d="M 200.353846 254.313891 
L 203.438829 252.411037 
L 206.481 250.277543 
L 209.343238 248.006432 
L 212.117919 245.523535 
L 214.76047 242.856695 
L 217.04174 240.271467 
L 219.341053 237.341998 
L 221.475762 234.258024 
L 223.493904 230.922138 
L 225.201147 227.669045 
L 226.799711 224.113513 
L 228.061373 220.788798 
L 229.191513 217.184382 
L 230.064563 213.686269 
L 230.774239 209.885979 
L 231.237892 206.145954 
L 231.475152 202.367281 
L 231.507692 200.353846 
L 231.507692 200.353846 
" clip-path="url(#p80ac77a7d7)" style="fill: none; stroke: #228b22; stroke-linecap: square"/>
   </g>
   <g id="text_1">
    <!-- $\Omega$ -->
    <g transform="translate(16.011538 22.420913) scale(0.1 -0.1)">
     <defs>
      <path id="Cmr10-ad" d="M 494 0 
L 281 1063 
L 469 1063 
Q 503 878 531 736 
Q 559 594 604 536 
Q 650 478 750 459 
Q 850 441 1081 441 
L 1472 441 
Q 1378 803 1004 1386 
Q 631 1969 495 2233 
Q 359 2497 359 2913 
Q 359 3397 646 3761 
Q 934 4125 1389 4319 
Q 1844 4513 2309 4513 
Q 2772 4513 3226 4319 
Q 3681 4125 3968 3758 
Q 4256 3391 4256 2913 
Q 4256 2588 4137 2300 
Q 4019 2013 3834 1725 
Q 3650 1438 3436 1084 
Q 3222 731 3144 441 
L 3531 441 
Q 3766 441 3869 459 
Q 3972 478 4015 536 
Q 4059 594 4086 736 
Q 4113 878 4147 1063 
L 4331 1063 
L 4122 0 
L 2988 0 
Q 2925 0 2925 84 
Q 2925 409 3004 721 
Q 3084 1034 3240 1478 
Q 3397 1922 3484 2261 
Q 3572 2600 3572 2913 
Q 3572 3297 3422 3625 
Q 3272 3953 2984 4150 
Q 2697 4347 2309 4347 
Q 1725 4347 1384 3930 
Q 1044 3513 1044 2913 
Q 1047 2584 1122 2293 
Q 1197 2003 1364 1518 
Q 1531 1034 1611 721 
Q 1691 409 1691 84 
Q 1691 0 1625 0 
L 494 0 
z
" transform="scale(0.015625)"/>
     </defs>
     <use xlink:href="#Cmr10-ad" transform="translate(0 0.484375)"/>
    </g>
   </g>
   <g id="text_2">
    <!-- $A$ -->
    <g style="fill: #0000ff" transform="translate(103.142308 78.497837) scale(0.1 -0.1)">
     <defs>
      <path id="Cmmi10-41" d="M 288 0 
Q 225 0 225 84 
Q 250 225 306 225 
Q 566 225 755 328 
Q 944 431 1081 647 
Q 1094 659 1094 659 
L 3378 4513 
Q 3428 4581 3500 4581 
L 3584 4581 
Q 3603 4581 3622 4573 
Q 3641 4566 3655 4548 
Q 3669 4531 3669 4513 
L 4056 378 
Q 4056 350 4084 294 
Q 4147 225 4563 225 
Q 4628 225 4628 141 
Q 4606 56 4592 28 
Q 4578 0 4519 0 
L 2919 0 
Q 2859 0 2859 84 
Q 2894 225 2944 225 
Q 3450 225 3481 397 
L 3384 1453 
L 1806 1453 
L 1294 594 
Q 1247 525 1247 434 
Q 1247 322 1355 273 
Q 1463 225 1594 225 
Q 1656 225 1656 141 
Q 1634 50 1621 25 
Q 1609 0 1550 0 
L 288 0 
z
M 1931 1678 
L 3359 1678 
L 3169 3750 
L 1931 1678 
z
" transform="scale(0.015625)"/>
     </defs>
     <use xlink:href="#Cmmi10-41" transform="translate(0 0.421875)"/>
    </g>
   </g>
   <g id="text_3">
    <!-- $B$ -->
    <g style="fill: #ff0000" transform="translate(227.707692 78.497837) scale(0.1 -0.1)">
     <defs>
      <path id="Cmmi10-42" d="M 319 0 
Q 256 0 256 84 
Q 259 100 268 137 
Q 278 175 293 200 
Q 309 225 341 225 
Q 522 225 656 234 
Q 791 244 884 269 
Q 959 297 1006 441 
L 1881 3956 
Q 1894 4019 1894 4044 
Q 1894 4113 1819 4122 
Q 1697 4147 1356 4147 
Q 1294 4147 1294 4231 
Q 1297 4247 1306 4286 
Q 1316 4325 1333 4348 
Q 1350 4372 1375 4372 
L 3669 4372 
Q 3878 4372 4083 4320 
Q 4288 4269 4461 4156 
Q 4634 4044 4736 3876 
Q 4838 3709 4838 3488 
Q 4838 3247 4714 3040 
Q 4591 2834 4395 2681 
Q 4200 2528 3973 2429 
Q 3747 2331 3500 2284 
Q 3675 2284 3854 2215 
Q 4034 2147 4175 2028 
Q 4316 1909 4402 1743 
Q 4488 1578 4488 1388 
Q 4488 1003 4219 684 
Q 3950 366 3542 183 
Q 3134 0 2753 0 
L 319 0 
z
M 1497 275 
Q 1497 225 1716 225 
L 2631 225 
Q 2944 225 3231 398 
Q 3519 572 3692 859 
Q 3866 1147 3866 1459 
Q 3866 1650 3786 1820 
Q 3706 1991 3556 2089 
Q 3406 2188 3213 2188 
L 1966 2188 
L 1522 416 
Q 1497 328 1497 275 
z
M 2009 2356 
L 2981 2356 
Q 3288 2356 3577 2512 
Q 3866 2669 4048 2937 
Q 4231 3206 4231 3506 
Q 4231 3784 4057 3965 
Q 3884 4147 3609 4147 
L 2731 4147 
Q 2559 4147 2500 4115 
Q 2441 4084 2400 3928 
L 2009 2356 
z
" transform="scale(0.015625)"/>
     </defs>
     <use xlink:href="#Cmmi10-42" transform="translate(0 0.6875)"/>
    </g>
   </g>
   <g id="text_4">
    <!-- $C$ -->
    <g style="fill: #228b22" transform="translate(150.023077 271.651683) scale(0.1 -0.1)">
     <defs>
      <path id="Cmmi10-43" d="M 934 1381 
Q 934 997 1082 705 
Q 1231 413 1514 248 
Q 1797 84 2181 84 
Q 2584 84 2957 290 
Q 3331 497 3595 842 
Q 3859 1188 3956 1575 
Q 3969 1613 4006 1613 
L 4084 1613 
Q 4109 1613 4125 1595 
Q 4141 1578 4141 1556 
Q 4141 1550 4134 1538 
Q 4025 1094 3711 705 
Q 3397 316 2959 87 
Q 2522 -141 2059 -141 
Q 1559 -141 1162 84 
Q 766 309 545 709 
Q 325 1109 325 1613 
Q 325 2150 565 2676 
Q 806 3203 1212 3614 
Q 1619 4025 2139 4269 
Q 2659 4513 3194 4513 
Q 3406 4513 3600 4448 
Q 3794 4384 3959 4253 
Q 4125 4122 4231 3950 
L 4738 4500 
Q 4738 4513 4769 4513 
L 4806 4513 
Q 4831 4513 4847 4491 
Q 4863 4469 4863 4447 
L 4428 2719 
Q 4428 2675 4378 2675 
L 4263 2675 
Q 4213 2675 4213 2747 
Q 4238 2888 4238 3084 
Q 4238 3397 4131 3673 
Q 4025 3950 3801 4119 
Q 3578 4288 3256 4288 
Q 2734 4288 2300 4025 
Q 1866 3763 1564 3336 
Q 1263 2909 1098 2389 
Q 934 1869 934 1381 
z
" transform="scale(0.015625)"/>
     </defs>
     <use xlink:href="#Cmmi10-43" transform="translate(0 0.484375)"/>
    </g>
   </g>
   <g id="patch_8">
    <path d="M 138.046154 200.353846 
C 154.570347 200.353846 170.419977 193.788715 182.104346 182.104346 
C 193.788715 170.419977 200.353846 154.570347 200.353846 138.046154 
C 200.353846 121.521961 193.788715 105.672331 182.104346 93.987962 
C 170.419977 82.303593 154.570347 75.738462 138.046154 75.738462 
C 121.521961 75.738462 105.672331 82.303593 93.987962 93.987962 
C 82.303593 105.672331 75.738462 121.521961 75.738462 138.046154 
C 75.738462 154.570347 82.303593 170.419977 93.987962 182.104346 
C 105.672331 193.788715 121.521961 200.353846 138.046154 200.353846 
L 138.046154 200.353846 
z
" clip-path="url(#p80ac77a7d7)" style="fill: none; stroke: #0000ff; stroke-linejoin: miter"/>
   </g>
   <g id="patch_9">
    <path d="M 200.353846 200.353846 
C 216.878039 200.353846 232.727669 193.788715 244.412038 182.104346 
C 256.096407 170.419977 262.661538 154.570347 262.661538 138.046154 
C 262.661538 121.521961 256.096407 105.672331 244.412038 93.987962 
C 232.727669 82.303593 216.878039 75.738462 200.353846 75.738462 
C 183.829653 75.738462 167.980023 82.303593 156.295654 93.987962 
C 144.611285 105.672331 138.046154 121.521961 138.046154 138.046154 
C 138.046154 154.570347 144.611285 170.419977 156.295654 182.104346 
C 167.980023 193.788715 183.829653 200.353846 200.353846 200.353846 
L 200.353846 200.353846 
z
" clip-path="url(#p80ac77a7d7)" style="fill: none; stroke: #ff0000; stroke-linejoin: miter"/>
   </g>
   <g id="patch_10">
    <path d="M 169.2 262.661538 
C 185.724193 262.661538 201.573823 256.096407 213.258192 244.412038 
C 224.942561 232.727669 231.507692 216.878039 231.507692 200.353846 
C 231.507692 183.829653 224.942561 167.980023 213.258192 156.295654 
C 201.573823 144.611285 185.724193 138.046154 169.2 138.046154 
C 152.675807 138.046154 136.826177 144.611285 125.141808 156.295654 
C 113.457439 167.980023 106.892308 183.829653 106.892308 200.353846 
C 106.892308 216.878039 113.457439 232.727669 125.141808 244.412038 
C 136.826177 256.096407 152.675807 262.661538 169.2 262.661538 
L 169.2 262.661538 
z
" clip-path="url(#p80ac77a7d7)" style="fill: none; stroke: #228b22; stroke-linejoin: miter"/>
   </g>
  </g>
 </g>
 <defs>
  <clipPath id="p80ac77a7d7">
   <rect x="7.2" y="7.2" width="324" height="324"/>
  </clipPath>
 </defs>
</svg>
