<?xml version="1.0" encoding="utf-8" standalone="no"?>
<!DOCTYPE svg PUBLIC "-//W3C//DTD SVG 1.1//EN"
  "http://www.w3.org/Graphics/SVG/1.1/DTD/svg11.dtd">
<svg xmlns:xlink="http://www.w3.org/1999/xlink" width="338.4pt" height="338.4pt" viewBox="0 0 338.4 338.4" xmlns="http://www.w3.org/2000/svg" version="1.1">
 <metadata>
  <rdf:RDF xmlns:dc="http://purl.org/dc/elements/1.1/" xmlns:cc="http://creativecommons.org/ns#" xmlns:rdf="http://www.w3.org/1999/02/22-rdf-syntax-ns#">
   <cc:Work>
    <dc:type rdf:resource="http://purl.org/dc/dcmitype/StillImage"/>
    <dc:date>2024-12-01T17:05:07.868648</dc:date>
    <dc:format>image/svg+xml</dc:format>
    <dc:creator>
     <cc:Agent>
      <dc:title>Matplotlib v3.6.3, https://matplotlib.org/</dc:title>
     </cc:Agent>
    </dc:creator>
   </cc:Work>
  </rdf:RDF>
 </metadata>
 <defs>
  <style type="text/css">*{stroke-linejoin: round; stroke-linecap: butt}</style>
 </defs>
 <g id="figure_1">
  <g id="patch_1">
   <path d="M -0 338.4 
L 338.4 338.4 
L 338.4 0 
L -0 0 
z
" style="fill: #ffffff"/>
  </g>
  <g id="axes_1">
   <g id="patch_2">
    <path d="M 7.2 331.2 
L 331.2 331.2 
L 331.2 7.2 
L 7.2 7.2 
z
" style="fill: #ffffff"/>
   </g>
   <g id="patch_3">
    <path d="M 13.430769 324.969231 
L 13.430769 13.430769 
L 324.969231 13.430769 
L 324.969231 324.969231 
L 13.430769 324.969231 
z
" clip-path="url(#p6cf545ba18)" style="fill: none; stroke: #000000; stroke-linejoin: miter"/>
   </g>
   <g id="patch_4">
    <path d="M 200.353846 146.393802 
L 199.75203 146.050789 
L 199.387937 145.847544 
L 199.004433 145.636899 
L 198.629047 145.434089 
L 197.814688 145.005421 
L 197.632734 144.911731 
L 196.900517 144.542289 
L 196.702487 144.444439 
L 195.996285 144.102556 
L 195.66624 143.946518 
L 195.047221 143.660198 
L 194.58039 143.449678 
L 194.387245 143.363924 
L 193.951262 143.173224 
L 193.36257 142.921985 
L 192.869962 142.717214 
L 192.23592 142.460885 
L 191.8918 142.32514 
L 191.586983 142.206864 
L 190.991602 141.981125 
L 190.285818 141.722483 
L 190.243265 141.707197 
L 189.557694 141.465708 
L 189.296375 141.376018 
L 188.442608 141.091965 
L 188.209209 141.016687 
L 187.846744 140.901786 
L 187.185304 140.698357 
L 186.767012 140.573844 
L 186.249303 140.424139 
L 185.567206 140.234273 
L 185.45294 140.203281 
L 184.951171 140.069942 
L 184.229549 139.885994 
L 183.900612 139.805184 
L 183.521251 139.714335 
L 182.842331 139.557996 
L 182.424297 139.465699 
L 182.211534 139.419878 
L 181.601503 139.292801 
L 180.893272 139.153226 
L 180.680226 139.112904 
L 180.189704 139.022982 
L 179.607276 138.921468 
L 179.402722 138.887164 
L 178.576523 138.755718 
L 178.445707 138.735948 
L 177.925071 138.660073 
L 177.363167 138.583212 
L 176.96108 138.531406 
L 176.413729 138.465151 
L 175.901619 138.407605 
L 175.485319 138.363982 
L 175.038421 138.320296 
L 174.388627 138.262569 
L 173.988876 138.230459 
L 173.617193 138.202926 
L 173.066626 138.166245 
L 172.799524 138.150213 
L 172.287679 138.122706 
L 171.476176 138.087743 
L 171.173454 138.077414 
L 170.783605 138.066281 
L 170.223135 138.054555 
L 169.821009 138.049249 
L 169.178379 138.046158 
L 168.656182 138.048527 
L 168.37937 138.051558 
L 168.069368 138.056413 
L 167.406732 138.071965 
L 167.127115 138.080644 
L 166.63872 138.098819 
L 165.879584 138.13469 
L 165.736009 138.142519 
L 165.240972 138.172059 
L 164.689812 138.209605 
L 164.05011 138.259344 
L 163.745861 138.285328 
L 163.036336 138.351767 
L 162.785184 138.377249 
L 162.467634 138.410939 
L 161.927089 138.472078 
L 161.212509 138.56025 
L 160.755095 138.621099 
L 160.58874 138.644084 
L 159.844711 138.75249 
L 159.317335 138.834894 
L 159.03348 138.881166 
L 158.450428 138.980438 
L 157.867137 139.085463 
L 157.720039 139.112855 
L 157.246907 139.203441 
L 156.779052 139.296753 
L 156.380097 139.379273 
L 155.631499 139.541477 
L 155.248348 139.628234 
L 154.802692 139.732348 
L 154.475367 139.811021 
L 154.050363 139.915969 
L 153.462828 140.066286 
L 152.902517 140.215335 
L 152.506707 140.323999 
L 152.132712 140.429259 
L 151.389167 140.646035 
L 151.048008 140.748865 
L 150.771001 140.833929 
L 150.175269 141.021661 
L 149.631952 141.198626 
L 149.319462 141.302913 
L 148.75193 141.497029 
L 148.080802 141.734498 
L 147.923891 141.791267 
L 147.078039 142.105521 
L 146.909477 142.169818 
L 146.529005 142.317009 
L 145.777761 142.616101 
L 145.356852 142.788641 
L 145.025445 142.927028 
L 144.338472 143.22108 
L 143.88881 143.418864 
L 143.654094 143.523791 
L 143.072285 143.788919 
L 142.518621 144.047963 
L 141.94249 144.324598 
L 141.841188 144.373993 
L 141.281332 144.651095 
L 140.550236 145.023569 
L 140.377903 145.113144 
L 139.804489 145.416132 
L 139.187776 145.750596 
L 138.668944 146.038994 
L 138.311241 146.241619 
L 137.661371 146.617793 
L 137.441035 146.747721 
L 136.987924 147.018767 
L 136.381476 147.389774 
L 135.851219 147.722037 
L 135.589609 147.888713 
L 135.212083 148.13249 
L 134.593474 148.540364 
L 134.340668 148.71011 
L 133.566258 149.241373 
L 133.080031 149.583812 
L 132.793096 149.789176 
L 132.371479 150.095428 
L 131.949253 150.407572 
L 131.197169 150.977401 
L 130.696086 151.367143 
L 130.161802 151.791848 
L 129.701048 152.165867 
L 129.5568 152.284467 
L 128.846929 152.878819 
L 128.603612 153.086713 
L 127.838528 153.754735 
L 127.522915 154.036796 
L 126.934918 154.572722 
L 126.805429 154.692606 
L 125.958387 155.493937 
L 125.476005 155.963973 
L 125.068253 156.369333 
L 124.941766 156.496609 
L 124.232142 157.224503 
L 123.956329 157.513927 
L 123.393993 158.115733 
L 123.05094 158.490822 
L 122.440226 159.174093 
L 121.909778 159.784357 
L 121.55783 160.198247 
L 120.894316 160.99893 
L 120.439792 161.563504 
L 120.078495 162.022054 
L 119.594703 162.650226 
L 118.956263 163.5053 
L 118.830439 163.67748 
L 118.38631 164.295318 
L 117.942181 164.929497 
L 117.665008 165.33395 
L 117.082624 166.206699 
L 116.726387 166.756696 
L 116.36404 167.329463 
L 116.045274 167.845023 
L 115.726507 168.372069 
L 115.450839 168.83756 
L 115.175172 169.312479 
L 115.04117 169.546872 
L 114.775031 170.019521 
L 114.508892 170.502025 
L 114.22486 171.028388 
L 113.940829 171.567174 
L 113.701175 172.031965 
L 113.461521 172.506575 
L 113.032388 173.382605 
L 112.770752 173.934373 
L 112.509117 174.500561 
L 112.265043 175.042599 
L 112.02097 175.598907 
L 111.707876 176.335016 
L 111.394783 177.098624 
L 111.350002 177.210244 
L 111.150018 177.71653 
L 110.950033 178.23621 
L 110.750048 178.77025 
L 110.550063 179.319745 
L 110.40049 179.741565 
L 110.250917 180.173309 
L 110.101343 180.615627 
L 109.95177 181.069247 
L 109.724772 181.781131 
L 109.575194 182.267083 
L 109.425616 182.76773 
L 109.235666 183.426732 
L 109.045717 184.114674 
L 108.855767 184.835402 
L 108.760793 185.209516 
L 108.665818 185.59372 
L 108.560019 186.034587 
L 108.454219 186.490273 
L 108.34842 186.96229 
L 108.242621 187.452432 
L 108.144046 187.927301 
L 108.045471 188.421867 
L 107.946896 188.93869 
L 107.848321 189.480943 
L 107.765485 189.959187 
L 107.68265 190.461217 
L 107.599814 190.990857 
L 107.516978 191.55309 
L 107.47556 191.848435 
L 107.434142 192.15462 
L 107.392724 192.472909 
L 107.351306 192.804833 
L 107.309888 193.152277 
L 107.26847 193.517607 
L 107.227052 193.903862 
L 107.185635 194.315055 
L 107.148969 194.704241 
L 107.112303 195.122557 
L 107.09397 195.344899 
L 107.075637 195.577651 
L 107.057304 195.822416 
L 107.038971 196.081258 
L 107.020638 196.356912 
L 107.002305 196.653131 
L 106.983972 196.975322 
L 106.974806 197.148579 
L 106.965639 197.33178 
L 106.956473 197.526858 
L 106.947306 197.736468 
L 106.93814 197.96443 
L 106.928974 198.216608 
L 106.919807 198.502876 
L 106.910641 198.84248 
L 106.901474 199.285109 
L 106.892308 200.353846 
L 106.892308 84.086109 
L 107.30733 83.848615 
L 107.818267 83.561997 
L 108.433984 83.224918 
L 108.871863 82.990643 
L 109.128906 82.855201 
L 109.734712 82.542003 
L 110.0023 82.406323 
L 110.789041 82.016712 
L 110.933702 81.946568 
L 111.432093 81.70842 
L 112.042099 81.424271 
L 112.569362 81.185081 
L 113.168906 80.920231 
L 113.618679 80.726463 
L 114.140714 80.506789 
L 114.605437 80.315908 
L 114.904935 80.195203 
L 115.234548 80.06444 
L 115.733704 79.870531 
L 116.088504 79.73569 
L 116.941338 79.421626 
L 117.02779 79.390575 
L 117.695881 79.155451 
L 117.960257 79.064756 
L 118.780534 78.79175 
L 118.994431 78.722631 
L 119.765737 78.480435 
L 119.823791 78.462649 
L 120.65924 78.213523 
L 120.891862 78.146414 
L 121.27014 78.039372 
L 122.014266 77.836295 
L 122.330754 77.752914 
L 122.761111 77.642379 
L 123.2775 77.514052 
L 123.670482 77.419521 
L 124.202424 77.295848 
L 124.581974 77.210602 
L 125.150453 77.087566 
L 125.773912 76.958998 
L 126.293611 76.856888 
L 126.580388 76.802503 
L 127.277958 76.676011 
L 127.52663 76.632897 
L 128.011254 76.551851 
L 128.657715 76.449841 
L 128.798127 76.428603 
L 129.509171 76.326072 
L 129.897847 76.273558 
L 130.529478 76.193522 
L 130.942127 76.14477 
L 131.218919 76.113631 
L 131.555275 76.077476 
L 132.123502 76.020589 
L 132.910938 75.950437 
L 133.416339 75.91071 
L 133.71227 75.889368 
L 133.918415 75.875338 
L 134.465773 75.841416 
L 135.154723 75.805587 
L 135.322578 75.798016 
L 135.817649 75.778327 
L 136.633032 75.754488 
L 136.736718 75.752222 
L 137.34568 75.742399 
L 138.043999 75.738462 
L 138.20677 75.738669 
L 138.913121 75.744493 
L 139.393076 75.753022 
L 139.96963 75.768158 
L 140.238267 75.777035 
L 140.489678 75.786394 
L 140.972504 75.807219 
L 141.490106 75.833714 
L 142.284443 75.882777 
L 142.747134 75.916054 
L 142.835304 75.922788 
L 143.467897 75.974798 
L 144.123188 76.035524 
L 144.405946 76.063886 
L 145.141879 76.143818 
L 145.444791 76.179291 
L 145.764721 76.218391 
L 146.198163 76.274046 
L 146.759787 76.350764 
L 147.29566 76.428826 
L 147.582577 76.472579 
L 148.184455 76.568814 
L 148.684034 76.653288 
L 149.392767 76.780316 
L 149.487785 76.79799 
L 149.922592 76.880814 
L 150.390208 76.973469 
L 151.199258 77.142588 
L 151.291821 77.162652 
L 152.031638 77.328325 
L 152.55033 77.450136 
L 152.827696 77.517198 
L 153.332969 77.642828 
L 153.968647 77.807273 
L 154.447365 77.935849 
L 154.632615 77.986701 
L 155.083607 78.113077 
L 155.649882 78.276954 
L 156.414255 78.507415 
L 156.805193 78.629431 
L 157.031838 78.701463 
L 157.734223 78.930771 
L 158.281267 79.115782 
L 158.663307 79.248352 
L 159.010551 79.371265 
L 159.362434 79.498184 
L 160.099521 79.771824 
L 160.269111 79.836286 
L 160.752283 80.023053 
L 161.58854 80.357294 
L 161.933202 80.499152 
L 162.368841 80.681919 
L 162.73538 80.838719 
L 163.382535 81.122377 
L 163.615652 81.226709 
L 164.048818 81.423632 
L 164.47796 81.622682 
L 165.111412 81.923785 
L 165.796388 82.2593 
L 166.061307 82.391866 
L 166.433607 82.58084 
L 166.897156 82.820542 
L 167.245501 83.003928 
L 168.0743 83.451658 
L 168.566529 83.7253 
L 168.945146 83.93977 
L 169.347478 84.171525 
L 169.728795 84.394884 
L 170.159623 84.651645 
L 170.598315 84.917957 
L 171.397833 85.416181 
L 171.697864 85.607514 
L 172.256261 85.970084 
L 172.477742 86.116257 
L 172.985326 86.456399 
L 173.788351 87.009463 
L 174.192503 87.294898 
L 174.612698 87.59681 
L 174.760539 87.704298 
L 175.360429 88.147322 
L 176.062836 88.680372 
L 176.169927 88.763029 
L 176.75471 89.220995 
L 177.410757 89.748364 
L 177.905448 90.155809 
L 178.242161 90.438072 
L 178.593433 90.736887 
L 179.044783 91.127491 
L 179.922128 91.908845 
L 180.21743 92.178605 
L 180.839186 92.758132 
L 181.011704 92.92177 
L 181.568552 93.458606 
L 181.996808 93.880686 
L 182.500756 94.387972 
L 182.821143 94.716615 
L 183.308525 95.225992 
L 183.972205 95.938597 
L 184.59153 96.624221 
L 184.672962 96.715908 
L 185.23571 97.359617 
L 186.00755 98.272381 
L 186.143889 98.437362 
L 186.755901 99.192466 
L 187.400924 100.015177 
L 187.483703 100.122846 
L 188.118793 100.96544 
L 188.476553 101.453486 
L 188.834313 101.951675 
L 188.895809 102.038361 
L 189.272464 102.576255 
L 189.649119 103.126495 
L 190.131695 103.850469 
L 190.684009 104.706916 
L 190.769874 104.842873 
L 191.20615 105.545948 
L 191.642425 106.270562 
L 191.73606 106.429031 
L 192.173848 107.184506 
L 192.608988 107.960515 
L 192.93651 108.562306 
L 193.264033 109.180354 
L 193.695413 110.021014 
L 193.951386 110.535182 
L 194.207359 111.061573 
L 194.496598 111.672002 
L 194.785837 112.300148 
L 195.077665 112.953222 
L 195.369493 113.627241 
L 195.651219 114.29947 
L 195.853725 114.796784 
L 196.056232 115.306774 
L 196.229815 115.754674 
L 196.403398 116.213139 
L 196.576982 116.682851 
L 196.750565 117.164568 
L 196.91562 117.634528 
L 197.080675 118.116933 
L 197.251413 118.630031 
L 197.42215 119.158604 
L 197.592888 119.703991 
L 197.763626 120.267739 
L 197.873199 120.640028 
L 198.060438 121.297 
L 198.247678 121.982998 
L 198.434918 122.701914 
L 198.528538 123.075191 
L 198.622158 123.458616 
L 198.735314 123.936782 
L 198.84847 124.432672 
L 198.961626 124.9483 
L 199.074782 125.486096 
L 199.193361 126.076712 
L 199.267231 126.460461 
L 199.3411 126.857852 
L 199.414969 127.270393 
L 199.488839 127.699898 
L 199.562708 128.148574 
L 199.636577 128.619157 
L 199.710447 129.115111 
L 199.784316 129.640925 
L 199.855507 130.181527 
L 199.891103 130.466523 
L 199.926698 130.762836 
L 199.962294 131.071909 
L 199.99789 131.395519 
L 200.033485 131.735904 
L 200.069081 132.095942 
L 200.104677 132.479443 
L 200.140272 132.891644 
L 200.15807 133.110733 
L 200.175868 133.340078 
L 200.193666 133.581259 
L 200.211464 133.83631 
L 200.229261 134.107924 
L 200.247059 134.399801 
L 200.264857 134.717266 
L 200.282655 135.068494 
L 200.300453 135.46724 
L 200.318251 135.940329 
L 200.336048 136.557005 
L 200.353846 138.046154 
z
" clip-path="url(#p6cf545ba18)" style="fill: #808080; opacity: 0.5"/>
   </g>
   <g id="patch_5">
    <path d="M 75.738462 138.046154 
L 75.738462 138.046154 
L 75.744852 137.153769 
L 75.751243 136.784163 
L 75.757634 136.500577 
L 75.764025 136.261521 
L 75.770416 136.050924 
L 75.776806 135.860546 
L 75.783197 135.685488 
L 75.789588 135.52256 
L 75.795979 135.369547 
L 75.80237 135.224835 
L 75.80876 135.087206 
L 75.815151 134.955713 
L 75.821542 134.829603 
L 75.827933 134.708267 
L 75.834324 134.591202 
L 75.840714 134.477986 
L 75.847105 134.368265 
L 75.853496 134.261735 
L 75.866278 134.057231 
L 75.879059 133.862751 
L 75.891841 133.676956 
L 75.904622 133.498782 
L 75.917404 133.327366 
L 75.930186 133.161995 
L 75.942967 133.002075 
L 75.953854 132.869785 
L 75.96474 132.740815 
L 75.986514 132.491915 
L 76.008287 132.253783 
L 76.03006 132.02514 
L 76.055766 131.765997 
L 76.081473 131.517232 
L 76.107179 131.277702 
L 76.132886 131.046459 
L 76.158592 130.822705 
L 76.184298 130.605766 
L 76.210005 130.395062 
L 76.235711 130.190092 
L 76.264122 129.969705 
L 76.292532 129.755272 
L 76.320943 129.546341 
L 76.349353 129.342518 
L 76.379734 129.129814 
L 76.410114 128.922168 
L 76.440495 128.719243 
L 76.470875 128.520737 
L 76.501256 128.326379 
L 76.531636 128.135925 
L 76.562017 127.949155 
L 76.592397 127.765866 
L 76.643363 127.465712 
L 76.696057 127.164326 
L 76.748752 126.871314 
L 76.801447 126.586033 
L 76.854141 126.30792 
L 76.905398 126.043801 
L 76.956654 125.785584 
L 77.013911 125.50367 
L 77.071168 125.228211 
L 77.128425 124.958799 
L 77.185682 124.695067 
L 77.236614 124.464975 
L 77.287546 124.238904 
L 77.372088 123.872012 
L 77.45663 123.514872 
L 77.512623 123.283358 
L 77.568616 123.055627 
L 77.624608 122.83151 
L 77.680601 122.610851 
L 77.744454 122.363249 
L 77.808307 122.119751 
L 77.888706 121.818708 
L 77.969105 121.52354 
L 78.034795 121.28652 
L 78.137852 120.921787 
L 78.24091 120.56527 
L 78.365401 120.144861 
L 78.448574 119.869879 
L 78.531746 119.599371 
L 78.645328 119.236837 
L 78.788135 118.791655 
L 78.930942 118.357573 
L 79.046374 118.014316 
L 79.166097 117.665099 
L 79.288953 117.313573 
L 79.388106 117.034682 
L 79.487259 116.759906 
L 79.603346 116.44322 
L 79.719434 116.131724 
L 79.864583 115.749218 
L 79.917258 115.612251 
L 80.109406 115.120583 
L 80.207567 114.874049 
L 80.326588 114.57915 
L 80.445609 114.288507 
L 80.600844 113.915573 
L 80.749871 113.563824 
L 80.827542 113.382842 
L 81.018439 112.944595 
L 81.244688 112.436741 
L 81.44091 112.005898 
L 81.580272 111.705071 
L 81.748103 111.348251 
L 81.844552 111.145811 
L 81.923865 110.980728 
L 82.175989 110.464036 
L 82.251616 110.311373 
L 82.488459 109.839931 
L 82.648394 109.527094 
L 82.788315 109.256924 
L 82.86215 109.115646 
L 83.063198 108.735352 
L 83.214425 108.453419 
L 83.392763 108.125335 
L 83.539261 107.859283 
L 83.73943 107.500642 
L 83.935621 107.154428 
L 84.052474 106.950639 
L 84.138048 106.80252 
L 84.324687 106.482685 
L 84.58081 106.050755 
L 84.666911 105.907316 
L 84.880462 105.555267 
L 84.987661 105.380502 
L 85.166436 105.091883 
L 85.244524 104.96691 
L 85.462452 104.62157 
L 85.66303 104.308091 
L 85.814335 104.074318 
L 85.898866 103.944704 
L 86.034603 103.738034 
L 86.220664 103.457613 
L 86.43578 103.137447 
L 86.574884 102.932668 
L 86.696969 102.754375 
L 86.790815 102.618216 
L 87.004373 102.311225 
L 87.127958 102.135349 
L 87.338447 101.838737 
L 87.46842 101.657401 
L 87.570713 101.515641 
L 87.81324 101.182854 
L 88.004251 100.923971 
L 88.133206 100.750763 
L 88.197898 100.664342 
L 88.473159 100.300072 
L 88.547003 100.203287 
L 88.799424 99.875378 
L 88.838301 99.825273 
L 88.971095 99.654916 
L 89.171763 99.399778 
L 89.291918 99.248306 
L 89.545471 98.931805 
L 89.597798 98.867009 
L 89.88713 98.511903 
L 90.013705 98.358217 
L 90.076208 98.282693 
L 90.225791 98.102927 
L 90.48473 97.79495 
L 90.585271 97.676448 
L 90.705062 97.536038 
L 90.965166 97.234034 
L 91.132862 97.041379 
L 91.231925 96.928317 
L 91.324528 96.823124 
L 91.545781 96.573707 
L 91.664595 96.440872 
L 91.817772 96.270739 
L 92.094596 95.966434 
L 92.195298 95.85673 
L 92.387318 95.648993 
L 92.526322 95.499786 
L 92.715653 95.298122 
L 92.829037 95.178207 
L 92.931701 95.070176 
L 93.188501 94.802201 
L 93.252222 94.736199 
L 93.41104 94.57254 
L 93.618734 94.360311 
L 93.728836 94.248621 
L 93.856103 94.120217 
L 94.063232 93.912821 
L 94.170301 93.806374 
L 94.311126 93.667151 
L 94.551884 93.431168 
L 94.650335 93.335401 
L 94.826572 93.165019 
L 95.039782 92.960674 
L 95.150248 92.85556 
L 95.298467 92.715328 
L 95.386151 92.6328 
L 95.634186 92.401072 
L 95.777038 92.268753 
L 95.908552 92.147668 
L 96.13491 91.940881 
L 96.282904 91.806782 
L 96.41783 91.685274 
L 96.617122 91.507096 
L 96.648841 91.47888 
L 96.937055 91.224252 
L 97.086401 91.093548 
L 97.158118 91.031082 
L 97.391063 90.829503 
L 97.560333 90.684283 
L 97.603166 90.647701 
L 97.819938 90.463593 
L 98.003583 90.308946 
L 98.175111 90.165589 
L 98.23642 90.114603 
L 98.437897 89.947978 
L 98.525859 89.875677 
L 98.6991 89.734066 
L 98.893203 89.576628 
L 99.126845 89.388822 
L 99.185276 89.342142 
L 99.305361 89.246569 
L 99.576253 89.032735 
L 99.694085 88.940479 
L 99.918315 88.766174 
L 100.076144 88.644465 
L 100.235104 88.522694 
L 100.272624 88.49407 
L 100.478728 88.337633 
L 100.594026 88.250706 
L 100.746079 88.136706 
L 100.990689 87.954827 
L 101.021663 87.931928 
L 101.332286 87.703921 
L 101.372076 87.674926 
L 101.576354 87.526828 
L 101.803058 87.363943 
L 101.899247 87.295295 
L 102.060447 87.180866 
L 102.206549 87.077818 
L 102.333764 86.988601 
L 102.560202 86.830964 
L 102.640924 86.775127 
L 102.840243 86.638058 
L 102.924322 86.580578 
L 103.145389 86.430409 
L 103.341538 86.298321 
L 103.465933 86.215113 
L 103.653032 86.090772 
L 103.760014 86.020111 
L 103.919775 85.915177 
L 104.111288 85.790308 
L 104.287728 85.676151 
L 104.401638 85.602898 
L 104.486909 85.548291 
L 104.718597 85.400903 
L 104.927501 85.269233 
L 104.956093 85.251302 
L 105.175878 85.114184 
L 105.327355 85.020418 
L 105.53653 84.891917 
L 105.716186 84.782454 
L 105.866229 84.69167 
L 105.990822 84.616722 
L 106.178216 84.504739 
L 106.224636 84.477137 
L 106.410097 84.367402 
L 106.507196 84.310294 
L 106.762822 84.161075 
L 106.892308 84.086109 
L 106.892308 138.046154 
z
" clip-path="url(#p6cf545ba18)" style="fill: #808080; opacity: 0.5"/>
   </g>
   <g id="patch_6">
    <path d="M 75.738462 138.046154 
L 75.738462 138.046154 
L 75.745591 138.988696 
L 75.75272 139.379072 
L 75.75985 139.678592 
L 75.766979 139.931077 
L 75.774109 140.153501 
L 75.781238 140.354571 
L 75.788368 140.539458 
L 75.795497 140.711532 
L 75.802626 140.873133 
L 75.809756 141.025967 
L 75.816885 141.171318 
L 75.824015 141.310188 
L 75.831144 141.443371 
L 75.838274 141.571512 
L 75.845403 141.695142 
L 75.852532 141.814705 
L 75.859662 141.930576 
L 75.866791 142.043077 
L 75.88105 142.259039 
L 75.895309 142.464412 
L 75.909568 142.66061 
L 75.923827 142.848757 
L 75.938086 143.029765 
L 75.952344 143.204386 
L 75.966603 143.373248 
L 75.98682 143.603816 
L 76.007037 143.825123 
L 76.027254 144.038193 
L 76.04747 144.243877 
L 76.066227 144.42872 
L 76.084983 144.608304 
L 76.103739 144.783051 
L 76.122495 144.953328 
L 76.141252 145.119457 
L 76.160008 145.281724 
L 76.178764 145.440383 
L 76.197521 145.595662 
L 76.232167 145.874276 
L 76.266813 146.14316 
L 76.301459 146.403255 
L 76.336105 146.655355 
L 76.363023 146.846148 
L 76.389942 147.032811 
L 76.41686 147.215596 
L 76.443778 147.39473 
L 76.470697 147.570419 
L 76.497615 147.742851 
L 76.551452 148.078611 
L 76.600234 148.373182 
L 76.649017 148.659356 
L 76.697799 148.937796 
L 76.746581 149.209079 
L 76.785947 149.423131 
L 76.825314 149.633096 
L 76.86468 149.839192 
L 76.904046 150.041619 
L 76.977425 150.409767 
L 77.050805 150.766842 
L 77.123818 151.112044 
L 77.196831 151.447961 
L 77.24304 151.656072 
L 77.289249 151.860894 
L 77.381667 152.261237 
L 77.394198 152.314606 
L 77.460575 152.593873 
L 77.526952 152.867581 
L 77.593329 153.136034 
L 77.659706 153.399506 
L 77.742025 153.719715 
L 77.824343 154.033088 
L 77.884291 154.257222 
L 77.949318 154.496652 
L 78.014346 154.732393 
L 78.079374 154.9646 
L 78.144402 155.193416 
L 78.211294 155.425397 
L 78.278187 155.654067 
L 78.384973 156.012569 
L 78.477107 156.315724 
L 78.569241 156.613473 
L 78.668446 156.928323 
L 78.767651 157.237495 
L 78.82497 157.413649 
L 78.958831 157.818277 
L 79.092693 158.2139 
L 79.223137 158.591255 
L 79.376476 159.025129 
L 79.445424 159.216957 
L 79.574226 159.570145 
L 79.703029 159.916872 
L 79.766835 160.086334 
L 79.887261 160.402177 
L 80.007688 160.712979 
L 80.167932 161.119081 
L 80.356557 161.586735 
L 80.493023 161.918431 
L 80.630922 162.248214 
L 80.776609 162.590964 
L 80.836586 162.730438 
L 80.976004 163.051084 
L 81.115422 163.366903 
L 81.150715 163.446106 
L 81.384137 163.962643 
L 81.479228 164.169541 
L 81.638811 164.512362 
L 81.766349 164.782498 
L 81.957829 165.181892 
L 82.079114 165.431168 
L 82.229536 165.736472 
L 82.379958 166.037638 
L 82.490909 166.257203 
L 82.612895 166.496152 
L 82.729813 166.722815 
L 82.968517 167.178651 
L 83.03367 167.301498 
L 83.25642 167.716569 
L 83.46125 168.091732 
L 83.522148 168.202104 
L 83.791815 168.684614 
L 83.866664 168.816779 
L 84.014292 169.075275 
L 84.188351 169.376421 
L 84.324213 169.608815 
L 84.435544 169.797548 
L 84.634456 170.131026 
L 84.857472 170.499392 
L 84.956825 170.661666 
L 85.068519 170.842781 
L 85.325659 171.254555 
L 85.401195 171.374172 
L 85.634778 171.74031 
L 85.696182 171.835634 
L 85.972469 172.259891 
L 86.145316 172.521529 
L 86.299071 172.751888 
L 86.317024 172.778641 
L 86.465355 172.998546 
L 86.7419 173.403219 
L 86.894988 173.624332 
L 86.947548 173.69978 
L 87.163326 174.007054 
L 87.370272 174.298099 
L 87.474836 174.443824 
L 87.582864 174.59345 
L 87.732343 174.798963 
L 87.916109 175.049224 
L 88.107784 175.307497 
L 88.339326 175.61582 
L 88.406025 175.703904 
L 88.586102 175.940108 
L 88.704707 176.094414 
L 88.835665 176.263641 
L 89.105612 176.608725 
L 89.203665 176.732842 
L 89.316902 176.875377 
L 89.521547 177.130819 
L 89.741055 177.401788 
L 89.778662 177.447902 
L 89.997522 177.714498 
L 90.118529 177.860615 
L 90.364812 178.155232 
L 90.507624 178.324395 
L 90.655219 178.49795 
L 90.797382 178.66391 
L 90.895186 178.777404 
L 91.015923 178.916753 
L 91.171463 179.09505 
L 91.450355 179.411357 
L 91.584447 179.561914 
L 91.688661 179.678249 
L 91.804789 179.807196 
L 92.031846 180.057247 
L 92.252186 180.29732 
L 92.309732 180.359606 
L 92.480682 180.54364 
L 92.706227 180.784187 
L 92.861008 180.947799 
L 93.007314 181.101368 
L 93.080681 181.177984 
L 93.22616 181.329138 
L 93.404389 181.512939 
L 93.527802 181.639329 
L 93.766482 181.881746 
L 93.879503 181.995619 
L 93.984879 182.101263 
L 94.23818 182.35315 
L 94.37417 182.487197 
L 94.480757 182.591689 
L 94.650591 182.757155 
L 94.779302 182.881721 
L 95.015873 183.108815 
L 95.137642 183.224779 
L 95.314228 183.391838 
L 95.542012 183.605417 
L 95.629039 183.686452 
L 95.813538 183.85723 
L 95.943388 183.976597 
L 96.153405 184.168233 
L 96.233447 184.240808 
L 96.334927 184.332459 
L 96.57427 184.547029 
L 96.73402 184.689011 
L 96.926519 184.858803 
L 97.080348 184.993479 
L 97.114829 185.023543 
L 97.326086 185.206779 
L 97.568003 185.41458 
L 97.732562 185.554709 
L 97.797229 185.609507 
L 98.009152 185.788033 
L 98.197988 185.945759 
L 98.304787 186.034406 
L 98.487837 186.185411 
L 98.672385 186.336472 
L 98.805634 186.444812 
L 98.940021 186.553462 
L 99.048374 186.640615 
L 99.288819 186.832602 
L 99.412788 186.93083 
L 99.459719 186.967883 
L 99.709168 187.163606 
L 99.880554 187.296895 
L 99.964515 187.361844 
L 100.225238 187.562079 
L 100.382237 187.681604 
L 100.51249 187.780172 
L 100.57207 187.825081 
L 100.734857 187.947212 
L 100.991824 188.13832 
L 101.158866 188.261455 
L 101.242525 188.322803 
L 101.427615 188.457771 
L 101.526131 188.529185 
L 101.802661 188.728081 
L 101.950624 188.833566 
L 101.971402 188.848327 
L 102.271007 189.059754 
L 102.378672 189.135088 
L 102.519271 189.23296 
L 102.592392 189.283633 
L 102.746863 189.390175 
L 103.036306 189.587973 
L 103.101719 189.632343 
L 103.305212 189.769606 
L 103.496671 189.897689 
L 103.633406 189.988538 
L 103.761204 190.072981 
L 103.873419 190.146756 
L 104.137669 190.319122 
L 104.156208 190.331143 
L 104.465651 190.530421 
L 104.487173 190.544186 
L 104.706678 190.683858 
L 104.794668 190.739486 
L 104.981606 190.856988 
L 105.220854 191.006027 
L 105.343869 191.082076 
L 105.476447 191.163597 
L 105.615312 191.248494 
L 105.816098 191.37037 
L 105.983803 191.471374 
L 106.042466 191.506536 
L 106.334124 191.680058 
L 106.355458 191.692666 
L 106.636254 191.857553 
L 106.793168 191.948838 
L 106.892308 192.006198 
L 106.892308 138.046154 
z
" clip-path="url(#p6cf545ba18)" style="fill: #808080; opacity: 0.5"/>
   </g>
   <g id="patch_7">
    <path d="M 200.353846 138.046154 
L 200.333441 139.640652 
L 200.313035 140.30093 
L 200.29263 140.807453 
L 200.272224 141.234367 
L 200.251819 141.610392 
L 200.231413 141.950261 
L 200.211008 142.262726 
L 200.190602 142.55349 
L 200.170197 142.826513 
L 200.149791 143.084682 
L 200.129386 143.330173 
L 200.10898 143.56468 
L 200.068169 144.005865 
L 200.027358 144.416307 
L 199.986547 144.801612 
L 199.945736 145.165863 
L 199.904925 145.512141 
L 199.864114 145.842841 
L 199.823303 146.159869 
L 199.782492 146.46477 
L 199.741681 146.758815 
L 199.70087 147.043071 
L 199.645953 147.411687 
L 199.591037 147.766025 
L 199.53612 148.107591 
L 199.481204 148.437647 
L 199.426288 148.757256 
L 199.371371 149.067327 
L 199.261538 149.661886 
L 199.196457 149.999768 
L 199.131377 150.328014 
L 199.001215 150.958514 
L 198.871053 151.558375 
L 198.740892 152.131513 
L 198.580323 152.806331 
L 198.484509 153.193886 
L 198.388694 153.571179 
L 198.197064 154.297816 
L 198.005434 154.991159 
L 197.813805 155.655141 
L 197.628112 156.273572 
L 197.442419 156.869867 
L 197.210071 157.587889 
L 196.940451 158.386024 
L 196.67083 159.150557 
L 196.485389 159.65875 
L 196.299948 160.153709 
L 196.114507 160.636305 
L 195.929066 161.107313 
L 195.709278 161.651506 
L 195.42841 162.326295 
L 195.147542 162.979666 
L 194.778425 163.808489 
L 194.366879 164.69619 
L 194.083434 165.287148 
L 193.799989 165.862667 
L 193.473988 166.506719 
L 193.147986 167.132862 
L 192.913703 167.572422 
L 192.597208 168.153147 
L 192.280712 168.719615 
L 191.783872 169.581946 
L 191.492576 170.073149 
L 191.004587 170.873777 
L 190.446235 171.757873 
L 189.84839 172.669511 
L 189.550649 173.110886 
L 189.225166 173.584263 
L 188.650172 174.398346 
L 188.215653 174.995712 
L 187.594648 175.824391 
L 187.220923 176.30959 
L 186.696071 176.974731 
L 186.149705 177.647882 
L 185.740374 178.139918 
L 185.36532 178.581879 
L 184.681934 179.366277 
L 184.362046 179.724526 
L 184.092927 180.021661 
L 183.539772 180.62055 
L 182.998136 181.192044 
L 182.373868 181.833165 
L 182.15601 182.05262 
L 181.46726 182.732349 
L 181.062283 183.122325 
L 180.421138 183.725572 
L 180.241957 183.89114 
L 179.863502 184.236607 
L 179.196915 184.831444 
L 178.628098 185.325688 
L 178.483249 185.449633 
L 177.815208 186.011463 
L 177.4446 186.316341 
L 176.721885 186.897319 
L 176.502925 187.069876 
L 176.024961 187.44108 
L 175.408021 187.909361 
L 174.962314 188.240234 
L 174.35841 188.678837 
L 174.200979 188.791372 
L 173.699697 189.144817 
L 173.203263 189.487637 
L 172.503757 189.958793 
L 172.288947 190.100737 
L 171.74611 190.453801 
L 171.1981 190.802168 
L 170.531584 191.21518 
L 170.224701 191.401469 
L 169.95295 191.564421 
L 169.273558 191.963662 
L 169.042298 192.096941 
L 168.374829 192.474272 
L 167.871651 192.751622 
L 167.544567 192.928684 
L 166.895451 193.272656 
L 166.387014 193.535289 
L 165.852144 193.805238 
L 165.573608 193.943272 
L 165.122289 194.163276 
L 164.613031 194.406154 
L 164.216545 194.59135 
L 163.809367 194.778026 
L 163.164915 195.066294 
L 162.625939 195.300697 
L 162.478892 195.363602 
L 161.921715 195.597923 
L 161.482464 195.778189 
L 160.898176 196.011951 
L 160.281889 196.251142 
L 160.04618 196.340642 
L 159.453064 196.561047 
L 159.255637 196.632896 
L 158.786121 196.800748 
L 158.236549 196.991862 
L 157.576631 197.213788 
L 157.073973 197.377348 
L 156.496759 197.559377 
L 156.305797 197.618244 
L 155.824568 197.763626 
L 155.20856 197.943569 
L 154.71159 198.08374 
L 154.560825 198.125386 
L 153.738448 198.345411 
L 153.320993 198.452509 
L 152.756989 198.592333 
L 152.415968 198.674175 
L 152.111393 198.745557 
L 151.676268 198.844744 
L 150.94621 199.00382 
L 150.573557 199.081494 
L 150.319928 199.133002 
L 149.605353 199.272238 
L 149.204923 199.346483 
L 148.694115 199.437273 
L 148.3501 199.495948 
L 147.948255 199.56198 
L 147.478758 199.635719 
L 146.668646 199.754347 
L 146.227975 199.81432 
L 145.875458 199.859991 
L 145.564061 199.898636 
L 144.892175 199.976603 
L 144.65435 200.002431 
L 143.935844 200.074857 
L 143.598724 200.105943 
L 142.969215 200.159051 
L 142.745042 200.176412 
L 142.326442 200.206653 
L 141.864134 200.23676 
L 141.313324 200.268128 
L 140.693765 200.297569 
L 140.060046 200.321291 
L 139.761972 200.330217 
L 139.412775 200.338857 
L 138.625927 200.351149 
L 138.400998 200.352836 
L 137.937544 200.353751 
L 137.458416 200.351074 
L 136.732269 200.339992 
L 136.706043 200.339433 
L 136.178538 200.32585 
L 135.456953 200.300026 
L 135.080777 200.283241 
L 134.555628 200.255998 
L 134.032184 200.224418 
L 133.605269 200.195386 
L 133.369381 200.178081 
L 132.556942 200.11158 
L 132.373964 200.095125 
L 131.649488 200.024627 
L 131.132737 199.969116 
L 130.652922 199.913663 
L 130.175885 199.854789 
L 129.959779 199.826888 
L 129.277794 199.733789 
L 128.822138 199.667303 
L 128.652033 199.6416 
L 128.118742 199.557901 
L 127.495138 199.454008 
L 127.125071 199.389275 
L 126.677503 199.307906 
L 126.220713 199.221373 
L 125.782439 199.135022 
L 125.376156 199.052052 
L 124.910545 198.953496 
L 124.14826 198.784091 
L 123.709504 198.682026 
L 123.463257 198.623275 
L 122.741712 198.445016 
L 122.593031 198.407147 
L 121.789341 198.195672 
L 121.357801 198.077374 
L 121.139024 198.016125 
L 120.347255 197.787241 
L 120.214824 197.747847 
L 119.709832 197.594687 
L 119.184076 197.430247 
L 118.716026 197.279545 
L 118.03434 197.052728 
L 117.563273 196.890866 
L 116.995099 196.690008 
L 116.640977 196.561681 
L 116.481738 196.503185 
L 115.926778 196.295461 
L 115.450671 196.112432 
L 115.07198 195.963646 
L 114.47433 195.722992 
L 113.74117 195.417891 
L 113.334771 195.244022 
L 112.881175 195.045912 
L 112.5766 194.910469 
L 112.197185 194.739005 
L 111.362263 194.350847 
L 110.948115 194.152703 
L 110.555603 193.96143 
L 110.245679 193.807988 
L 109.785548 193.576206 
L 109.27823 193.315088 
L 108.738817 193.030956 
L 108.120481 192.696887 
L 107.711762 192.471085 
L 107.410032 192.301813 
L 106.892308 192.006198 
L 106.892308 200.353846 
L 106.904258 201.574122 
L 106.916209 202.079494 
L 106.928159 202.467223 
L 106.94011 202.794047 
L 106.95206 203.081942 
L 106.964011 203.342182 
L 106.975961 203.581463 
L 106.987912 203.804148 
L 106.999862 204.013269 
L 107.011813 204.211031 
L 107.035714 204.578775 
L 107.059615 204.916853 
L 107.083516 205.231437 
L 107.107417 205.526816 
L 107.131318 205.806111 
L 107.155219 206.07168 
L 107.17912 206.325355 
L 107.226922 206.802573 
L 107.274724 207.246499 
L 107.308576 207.544126 
L 107.342428 207.82976 
L 107.37628 208.104727 
L 107.410132 208.370125 
L 107.477836 208.87576 
L 107.54554 209.35252 
L 107.613245 209.804776 
L 107.680949 210.235893 
L 107.748653 210.648528 
L 107.816357 211.04482 
L 107.89524 211.488248 
L 107.974123 211.914143 
L 108.053005 212.324375 
L 108.131888 212.720504 
L 108.210771 213.103843 
L 108.289653 213.475515 
L 108.368536 213.836484 
L 108.447419 214.187588 
L 108.546266 214.614737 
L 108.645112 215.028794 
L 108.743959 215.430836 
L 108.842806 215.821801 
L 108.96849 216.304198 
L 109.094174 216.771466 
L 109.219997 217.225353 
L 109.345819 217.666431 
L 109.471642 218.095655 
L 109.597465 218.513865 
L 109.744149 218.9885 
L 109.890834 219.450215 
L 110.037518 219.899926 
L 110.184203 220.338444 
L 110.447297 221.099169 
L 110.618446 221.577655 
L 110.789595 222.044239 
L 110.960744 222.499673 
L 111.131894 222.944631 
L 111.446482 223.737167 
L 111.76107 224.499609 
L 111.970489 224.991858 
L 112.247868 225.626425 
L 112.525248 226.242472 
L 112.869062 226.982288 
L 113.212876 227.697775 
L 113.23685 227.746807 
L 113.682474 228.63905 
L 114.128097 229.497183 
L 114.611326 230.392575 
L 114.805948 230.743574 
L 115.093833 231.253219 
L 115.381719 231.751953 
L 115.646739 232.201873 
L 116.002638 232.792854 
L 116.358537 233.369424 
L 116.830835 234.113572 
L 117.165386 234.626976 
L 117.759279 235.51207 
L 118.108955 236.018306 
L 118.473257 236.534588 
L 118.874095 237.090093 
L 119.294948 237.659801 
L 119.7158 238.216261 
L 119.923142 238.48572 
L 120.331168 239.007252 
L 120.739194 239.51759 
L 120.940121 239.764919 
L 121.367188 240.282164 
L 121.736124 240.720033 
L 122.178995 241.23506 
L 122.621867 241.73894 
L 122.962559 242.119234 
L 123.374878 242.571221 
L 123.613378 242.828644 
L 124.410706 243.668597 
L 124.858209 244.126601 
L 125.287633 244.557382 
L 125.846195 245.105339 
L 126.205712 245.45085 
L 126.589433 245.813587 
L 126.921359 246.12245 
L 127.744985 246.86976 
L 127.990276 247.087208 
L 128.693903 247.698377 
L 128.950458 247.916677 
L 129.316904 248.224371 
L 130.128436 248.889003 
L 130.179464 248.930037 
L 130.99564 249.574527 
L 131.17762 249.71524 
L 131.845029 250.22222 
L 132.114439 250.422896 
L 132.735008 250.876642 
L 133.1805 251.195209 
L 133.864413 251.672895 
L 134.065978 251.8111 
L 134.518402 252.117108 
L 135.257287 252.604595 
L 135.701147 252.890266 
L 135.938183 253.040657 
L 136.291259 253.261911 
L 137.060051 253.732421 
L 137.485182 253.986102 
L 137.962403 254.26545 
L 138.353288 254.490053 
L 138.682333 254.676222 
L 139.220731 254.975197 
L 139.869074 255.326069 
L 140.195794 255.49915 
L 140.644147 255.732649 
L 141.028147 255.928978 
L 141.840181 256.333207 
L 141.893768 256.359366 
L 142.518261 256.659559 
L 143.255059 257.00284 
L 143.480967 257.105761 
L 143.761252 257.231949 
L 144.629546 257.612394 
L 145.017543 257.777337 
L 145.562364 258.003744 
L 145.968795 258.16872 
L 146.201158 258.261547 
L 146.670474 258.445747 
L 147.352571 258.705696 
L 147.596824 258.796564 
L 148.139091 258.994162 
L 148.904953 259.263604 
L 149.124378 259.338742 
L 149.649728 259.514943 
L 150.331157 259.73579 
L 150.739171 259.863898 
L 150.944349 259.92716 
L 151.493179 260.092586 
L 151.827705 260.190723 
L 152.386479 260.35013 
L 152.699785 260.43705 
L 153.226869 260.579319 
L 154.051017 260.791887 
L 154.105368 260.805485 
L 154.965062 261.013677 
L 155.197279 261.067702 
L 155.92922 261.231879 
L 156.119405 261.273027 
L 156.631408 261.380717 
L 156.96938 261.449349 
L 157.601359 261.572471 
L 158.209203 261.684515 
L 158.69192 261.769062 
L 159.18923 261.852082 
L 159.316876 261.872724 
L 160.132097 261.998162 
L 160.602997 262.065596 
L 160.820364 262.095487 
L 161.27293 262.155222 
L 162.005239 262.24475 
L 162.156812 262.262182 
L 162.931376 262.345401 
L 163.397143 262.390733 
L 163.536618 262.403622 
L 164.319627 262.470112 
L 164.58453 262.490357 
L 164.990443 262.519175 
L 165.458432 262.549097 
L 165.924654 262.575391 
L 166.561568 262.605651 
L 166.859999 262.617583 
L 167.69923 262.643462 
L 167.95277 262.649054 
L 168.322205 262.655355 
L 168.894133 262.660788 
L 169.151531 262.66152 
L 169.971678 262.65676 
L 170.333593 262.651226 
L 170.545345 262.647012 
L 171.360456 262.624071 
L 171.774872 262.608312 
L 172.152735 262.591535 
L 172.667479 262.564979 
L 173.197343 262.533182 
L 173.722143 262.497219 
L 174.275819 262.454447 
L 174.707431 262.417658 
L 174.883774 262.401757 
L 175.626041 262.329281 
L 175.845148 262.306171 
L 176.309406 262.254612 
L 176.898599 262.184098 
L 177.179108 262.148525 
L 177.93336 262.046447 
L 178.507253 261.962478 
L 178.630855 261.943679 
L 179.284034 261.840111 
L 179.626414 261.782979 
L 180.042097 261.710977 
L 180.605113 261.608821 
L 180.996232 261.534704 
L 181.769686 261.380492 
L 182.028563 261.326598 
L 182.365238 261.25479 
L 182.859653 261.145806 
L 183.377188 261.0272 
L 184.035689 260.869554 
L 184.184325 260.832921 
L 185.014884 260.621067 
L 185.242774 260.560805 
L 185.854585 260.394443 
L 186.164778 260.307535 
L 186.611783 260.179245 
L 187.205836 260.003141 
L 187.704507 259.850331 
L 188.006821 259.755462 
L 188.57937 259.571145 
L 189.161338 259.377515 
L 189.780631 259.164442 
L 189.952214 259.104115 
L 190.673129 258.844472 
L 191.03396 258.710737 
L 191.492023 258.537299 
L 191.863907 258.393452 
L 192.57538 258.110578 
L 192.641705 258.083691 
L 193.293868 257.814563 
L 193.759031 257.617295 
L 194.339615 257.364795 
L 194.714439 257.198036 
L 195.14518 257.002731 
L 195.571553 256.805504 
L 196.315629 256.451896 
L 196.420245 256.401208 
L 197.215842 256.007787 
L 197.464368 255.881984 
L 198.161516 255.521582 
L 198.366701 255.413378 
L 199.155167 254.988419 
L 199.566378 254.760938 
L 199.652069 254.713022 
L 200.353846 254.313891 
z
" clip-path="url(#p6cf545ba18)" style="fill: #808080; opacity: 0.5"/>
   </g>
   <g id="patch_8">
    <path d="M 231.507692 200.353846 
L 231.505224 199.799207 
L 231.502755 199.569476 
L 231.500286 199.393203 
L 231.497818 199.244602 
L 231.495349 199.113685 
L 231.49288 198.995331 
L 231.490412 198.886497 
L 231.487943 198.7852 
L 231.485475 198.690062 
L 231.483006 198.600081 
L 231.480537 198.5145 
L 231.478069 198.43273 
L 231.473131 198.278845 
L 231.468194 198.135621 
L 231.463257 198.001109 
L 231.45832 197.873893 
L 231.453382 197.752901 
L 231.448445 197.637301 
L 231.443508 197.526433 
L 231.43857 197.419759 
L 231.433633 197.316837 
L 231.428696 197.217299 
L 231.422492 197.096542 
L 231.416288 196.980116 
L 231.410084 196.867588 
L 231.40388 196.75859 
L 231.391472 196.549983 
L 231.379064 196.352274 
L 231.366655 196.163922 
L 231.354247 195.983714 
L 231.341839 195.810683 
L 231.329431 195.644038 
L 231.317023 195.483122 
L 231.304615 195.327385 
L 231.292207 195.176361 
L 231.279799 195.029648 
L 231.267391 194.886898 
L 231.254983 194.74781 
L 231.242575 194.612117 
L 231.230167 194.479584 
L 231.209192 194.262162 
L 231.188218 194.052307 
L 231.167243 193.849287 
L 231.146269 193.652481 
L 231.125294 193.461355 
L 231.10432 193.27545 
L 231.083346 193.094365 
L 231.062371 192.917747 
L 231.035674 192.69892 
L 231.008978 192.486267 
L 230.982281 192.279301 
L 230.955584 192.077595 
L 230.928888 191.880773 
L 230.902191 191.688503 
L 230.875494 191.500488 
L 230.848797 191.316463 
L 230.802229 191.004305 
L 230.763956 190.755524 
L 230.725684 190.513179 
L 230.687411 190.276806 
L 230.649139 190.045993 
L 230.610867 189.820376 
L 230.572594 189.599628 
L 230.534322 189.383454 
L 230.496049 189.171589 
L 230.434893 188.841399 
L 230.381187 188.559318 
L 230.327481 188.284067 
L 230.273775 188.015188 
L 230.220069 187.752273 
L 230.154864 187.440555 
L 230.089658 187.136508 
L 230.029988 186.864553 
L 229.970319 186.598233 
L 229.909434 186.331965 
L 229.848549 186.07092 
L 229.787665 185.814816 
L 229.72678 185.563396 
L 229.624151 185.149555 
L 229.554915 184.877 
L 229.485679 184.609468 
L 229.42458 184.377347 
L 229.36348 184.14878 
L 229.302381 183.92362 
L 229.241282 183.701729 
L 229.172939 183.457244 
L 229.071968 183.102875 
L 228.965334 182.736999 
L 228.858701 182.379201 
L 228.745935 182.009089 
L 228.607401 181.565307 
L 228.468867 181.132766 
L 228.404076 180.934118 
L 228.276114 180.548258 
L 228.176012 180.252142 
L 228.075911 179.960816 
L 227.920233 179.516793 
L 227.828852 179.261046 
L 227.737471 179.008754 
L 227.635146 178.730196 
L 227.535297 178.462257 
L 227.435448 178.198008 
L 227.320527 177.89827 
L 227.205605 177.60306 
L 227.108033 177.355842 
L 227.005738 177.099917 
L 226.903442 176.847224 
L 226.882607 176.796142 
L 226.704841 176.365478 
L 226.558508 176.017657 
L 226.418721 175.690788 
L 226.278935 175.368976 
L 226.18331 175.151646 
L 226.049465 174.851162 
L 225.839983 174.389238 
L 225.70045 174.08699 
L 225.623844 173.922835 
L 225.47623 173.609978 
L 225.233665 173.105417 
L 225.075986 172.783524 
L 224.911871 172.45338 
L 224.706515 172.047039 
L 224.647653 171.931913 
L 224.412735 171.478209 
L 224.272755 171.21212 
L 224.212332 171.098217 
L 223.964433 170.636757 
L 223.877957 170.477944 
L 223.659749 170.082008 
L 223.505495 169.80615 
L 223.319113 169.477154 
L 223.198018 169.265864 
L 223.04096 168.994644 
L 222.849045 168.667438 
L 222.714301 168.440399 
L 222.650171 168.333108 
L 222.444631 167.992483 
L 222.286675 167.734013 
L 222.120537 167.465166 
L 221.920566 167.145557 
L 221.82473 166.993895 
L 221.707047 166.808973 
L 221.531474 166.535724 
L 221.371959 166.290152 
L 221.098903 165.875558 
L 221.069939 165.831999 
L 220.789558 165.414384 
L 220.642736 165.19857 
L 220.525695 165.027913 
L 220.397874 164.842916 
L 220.199944 164.559235 
L 220.139449 164.473196 
L 219.87691 164.103338 
L 219.794526 163.988444 
L 219.644634 163.780804 
L 219.396595 163.441106 
L 219.312529 163.327059 
L 219.138788 163.093063 
L 219.033928 162.952936 
L 218.799559 162.642677 
L 218.656033 162.454646 
L 218.535176 162.297455 
L 218.333438 162.037351 
L 218.177357 161.838044 
L 218.000365 161.614036 
L 217.820186 161.388143 
L 217.676492 161.20952 
L 217.637426 161.16119 
L 217.398875 160.868191 
L 217.243339 160.679092 
L 217.036859 160.430377 
L 216.990641 160.375063 
L 216.831961 160.186138 
L 216.708453 160.040134 
L 216.419308 159.701842 
L 216.294011 159.556755 
L 216.176629 159.421648 
L 216.03022 159.254223 
L 215.922716 159.132052 
L 215.672165 158.849794 
L 215.600044 158.76918 
L 215.321567 158.460534 
L 215.218821 158.347697 
L 215.083617 158.200054 
L 214.949526 158.054562 
L 214.755177 157.845325 
L 214.581642 157.66011 
L 214.45882 157.529931 
L 214.224064 157.283181 
L 214.059648 157.111962 
L 213.929511 156.977362 
L 213.747311 156.790265 
L 213.627833 156.668423 
L 213.449476 156.487773 
L 213.410325 156.448315 
L 213.227758 156.265241 
L 213.034262 156.072857 
L 212.838104 155.879534 
L 212.764229 155.807168 
L 212.557472 155.605906 
L 212.416432 155.469678 
L 212.245206 155.305442 
L 212.139078 155.204271 
L 211.953234 155.028252 
L 211.835553 154.917537 
L 211.595052 154.693053 
L 211.418159 154.529447 
L 211.290421 154.41209 
L 211.178212 154.309538 
L 210.936781 154.090582 
L 210.783394 153.952663 
L 210.718784 153.894841 
L 210.566242 153.758969 
L 210.419011 153.628674 
L 210.17041 153.410539 
L 210.072663 153.325408 
L 209.93323 153.204589 
L 209.683742 152.990198 
L 209.58663 152.907365 
L 209.459246 152.799229 
L 209.239442 152.614014 
L 209.170755 152.55649 
L 208.896789 152.328713 
L 208.807572 152.255106 
L 208.699953 152.166687 
L 208.514362 152.015151 
L 208.271392 151.818552 
L 208.189512 151.752751 
L 208.092392 151.674997 
L 207.893205 151.51652 
L 207.74896 151.402582 
L 207.52253 151.225115 
L 207.376306 151.111403 
L 207.242793 151.008183 
L 207.010824 150.830214 
L 206.975563 150.803313 
L 206.845951 150.704769 
L 206.561649 150.490476 
L 206.531962 150.468246 
L 206.239791 150.250928 
L 206.199992 150.22153 
L 205.990173 150.06735 
L 205.903815 150.004284 
L 205.749552 149.89219 
L 205.590816 149.777596 
L 205.295773 149.566607 
L 205.223246 149.515138 
L 205.018789 149.370879 
L 204.822041 149.233217 
L 204.796706 149.215573 
L 204.580578 149.065804 
L 204.435535 148.96605 
L 204.306479 148.877797 
L 204.128044 148.756557 
L 204.01718 148.681682 
L 203.755757 148.506492 
L 203.584765 148.392933 
L 203.436758 148.295293 
L 203.255645 148.176633 
L 203.121134 148.089086 
L 202.97931 147.997311 
L 202.827552 147.899711 
L 202.698642 147.817292 
L 202.514739 147.700483 
L 202.394433 147.624555 
L 202.298381 147.56421 
L 202.006596 147.382384 
L 201.956753 147.351548 
L 201.72093 147.206526 
L 201.662782 147.170989 
L 201.46892 147.053139 
L 201.35766 146.98594 
L 201.205749 146.894698 
L 201.032775 146.791518 
L 200.8078 146.658451 
L 200.649729 146.565715 
L 200.572655 146.520724 
L 200.353846 146.393802 
L 200.353846 254.313891 
L 200.445342 254.260962 
L 200.637357 254.14921 
L 200.789255 254.060154 
L 200.997292 253.937246 
L 201.183572 253.826266 
L 201.355393 253.723118 
L 201.413688 253.687952 
L 201.613244 253.56691 
L 201.688325 253.521104 
L 201.928244 253.373753 
L 202.00693 253.325101 
L 202.196947 253.206945 
L 202.410093 253.073275 
L 202.542275 252.989777 
L 202.765868 252.847474 
L 202.918951 252.749274 
L 203.010957 252.68995 
L 203.225347 252.550822 
L 203.282029 252.513829 
L 203.465217 252.393671 
L 203.604437 252.301736 
L 203.806499 252.167346 
L 203.897712 252.106308 
L 204.17022 251.92256 
L 204.20218 251.900872 
L 204.46012 251.724776 
L 204.631529 251.606702 
L 204.723691 251.542867 
L 204.872668 251.43916 
L 204.991098 251.356256 
L 205.135475 251.254633 
L 205.401504 251.065774 
L 205.536694 250.968994 
L 205.669417 250.873448 
L 205.805499 250.774933 
L 206.020235 250.618335 
L 206.120516 250.544722 
L 206.28153 250.425881 
L 206.47564 250.281546 
L 206.578779 250.204377 
L 206.738419 250.084275 
L 206.88007 249.977035 
L 207.135698 249.781888 
L 207.261964 249.684723 
L 207.441081 249.546002 
L 207.512837 249.490137 
L 207.766131 249.291583 
L 207.793934 249.269659 
L 207.951304 249.145085 
L 208.21625 248.933479 
L 208.266473 248.8931 
L 208.563985 248.65214 
L 208.644398 248.58649 
L 208.827222 248.436398 
L 208.920978 248.358975 
L 209.056243 248.246731 
L 209.279846 248.059763 
L 209.511552 247.864133 
L 209.537475 247.842125 
L 209.685339 247.716129 
L 209.864185 247.562665 
L 210.107175 247.352267 
L 210.156741 247.309079 
L 210.340878 247.147828 
L 210.524105 246.986098 
L 210.657612 246.867446 
L 210.91131 246.640076 
L 211.009604 246.551308 
L 211.10733 246.462676 
L 211.340447 246.24972 
L 211.485125 246.116459 
L 211.551014 246.055489 
L 211.749081 245.871142 
L 211.885253 245.743467 
L 212.107615 245.533322 
L 212.315923 245.334572 
L 212.340226 245.311264 
L 212.580095 245.079855 
L 212.756187 244.908387 
L 212.887047 244.780082 
L 213.08776 244.581813 
L 213.184177 244.485928 
L 213.359187 244.310811 
L 213.53375 244.134745 
L 213.661578 244.004924 
L 213.763831 243.900528 
L 214.003234 243.654178 
L 214.207237 243.442095 
L 214.248134 243.399335 
L 214.440187 243.197445 
L 214.646648 242.978378 
L 214.681917 242.940742 
L 214.979476 242.620713 
L 215.131641 242.455306 
L 215.18615 242.39576 
L 215.356383 242.208796 
L 215.593228 241.946116 
L 215.709238 241.81635 
L 215.804288 241.709485 
L 215.952123 241.542285 
L 216.171302 241.292157 
L 216.384111 241.046698 
L 216.46499 240.952728 
L 216.592073 240.804309 
L 216.812153 240.545032 
L 216.946042 240.385883 
L 217.148414 240.143268 
L 217.242928 240.029098 
L 217.370853 239.873682 
L 217.550072 239.654216 
L 217.794738 239.351281 
L 217.873818 239.252534 
L 218.080758 238.992169 
L 218.132356 238.926804 
L 218.403248 238.580655 
L 218.507951 238.445505 
L 218.719253 238.170405 
L 218.80571 238.056923 
L 218.930049 237.892769 
L 219.092497 237.67659 
L 219.240563 237.477836 
L 219.385536 237.28162 
L 219.614089 236.968982 
L 219.780901 236.738197 
L 219.925927 236.535732 
L 220.008923 236.41909 
L 220.203506 236.143383 
L 220.441113 235.802356 
L 220.471367 235.758583 
L 220.718243 235.398378 
L 220.930537 235.084238 
L 220.96497 235.032895 
L 221.186584 234.699786 
L 221.367439 234.424462 
L 221.463204 234.277378 
L 221.611727 234.047457 
L 221.800626 233.75179 
L 221.892808 233.606162 
L 222.052299 233.352073 
L 222.340008 232.886722 
L 222.401496 232.786074 
L 222.611105 232.439705 
L 222.796512 232.129031 
L 222.96335 231.84592 
L 223.086754 231.634292 
L 223.173275 231.484765 
L 223.296489 231.270159 
L 223.543864 230.833232 
L 223.675623 230.597111 
L 223.892247 230.203581 
L 224.049823 229.913032 
L 224.118126 229.785937 
L 224.289708 229.463511 
L 224.435624 229.185676 
L 224.578358 228.910561 
L 224.701738 228.670018 
L 224.94818 228.181691 
L 225.041565 227.993821 
L 225.298544 227.468453 
L 225.340218 227.382062 
L 225.546356 226.949648 
L 225.645158 226.73931 
L 225.792209 226.422416 
L 225.939261 226.100783 
L 225.97212 226.028249 
L 226.112838 225.714788 
L 226.253557 225.396612 
L 226.370559 225.128343 
L 226.505594 224.814374 
L 226.585367 224.626632 
L 226.727359 224.288162 
L 226.869351 223.943982 
L 226.948328 223.749982 
L 227.087852 223.402601 
L 227.248606 222.994692 
L 227.361636 222.702731 
L 227.474666 222.406326 
L 227.59431 222.087533 
L 227.709424 221.775701 
L 227.824538 221.458634 
L 227.964103 221.066854 
L 228.057844 220.798962 
L 228.217304 220.333994 
L 228.318415 220.032809 
L 228.444237 219.650709 
L 228.570059 219.260051 
L 228.651642 219.001923 
L 228.733225 218.739809 
L 228.805017 218.505717 
L 228.925596 218.104949 
L 229.046175 217.694084 
L 229.119461 217.439125 
L 229.192746 217.179985 
L 229.278896 216.86974 
L 229.365046 216.553097 
L 229.43998 216.272179 
L 229.502796 216.032535 
L 229.565612 215.788916 
L 229.628428 215.541129 
L 229.691244 215.288968 
L 229.72961 215.132712 
L 229.787565 214.893292 
L 229.84552 214.649629 
L 229.903475 214.4015 
L 229.961431 214.148666 
L 230.029191 213.846735 
L 230.104135 213.504316 
L 230.179079 213.152301 
L 230.236538 212.87541 
L 230.293997 212.591986 
L 230.351456 212.301564 
L 230.408915 212.003621 
L 230.454453 211.76176 
L 230.499991 211.514473 
L 230.546979 211.253235 
L 230.593967 210.985371 
L 230.640955 210.710369 
L 230.687943 210.427644 
L 230.717387 210.246251 
L 230.74683 210.061379 
L 230.776274 209.872827 
L 230.805718 209.680371 
L 230.835161 209.483763 
L 230.864605 209.282731 
L 230.894049 209.076967 
L 230.923493 208.86613 
L 230.949536 208.6751 
L 230.97558 208.479497 
L 231.001624 208.278982 
L 231.027668 208.073173 
L 231.047899 207.909369 
L 231.06813 207.741878 
L 231.088361 207.570444 
L 231.108592 207.39478 
L 231.128823 207.214559 
L 231.149054 207.029414 
L 231.169285 206.838922 
L 231.189516 206.642597 
L 231.211953 206.417359 
L 231.23439 206.183339 
L 231.256827 205.939432 
L 231.279264 205.684282 
L 231.290482 205.551977 
L 231.3017 205.41619 
L 231.312919 205.276633 
L 231.324137 205.132977 
L 231.335356 204.984839 
L 231.346574 204.831775 
L 231.357793 204.673262 
L 231.369011 204.508675 
L 231.377679 204.376882 
L 231.386346 204.240603 
L 231.395014 204.099349 
L 231.403681 203.952534 
L 231.412349 203.799448 
L 231.421016 203.639213 
L 231.429684 203.470727 
L 231.438352 203.292572 
L 231.442685 203.199304 
L 231.447019 203.102868 
L 231.451353 203.002916 
L 231.455687 202.899034 
L 231.460021 202.790721 
L 231.464354 202.677355 
L 231.468688 202.558159 
L 231.473022 202.432128 
L 231.477356 202.297935 
L 231.48169 202.153754 
L 231.486023 201.996958 
L 231.490357 201.823516 
L 231.494691 201.626639 
L 231.499025 201.393096 
L 231.503359 201.088719 
z
" clip-path="url(#p6cf545ba18)" style="fill: #808080; opacity: 0.5"/>
   </g>
   <g id="matplotlib.axis_1"/>
   <g id="matplotlib.axis_2"/>
   <g id="line2d_1">
    <path d="M 106.892308 84.086109 
L 110.0023 82.406323 
L 113.618679 80.726463 
L 117.02779 79.390575 
L 120.891862 78.146414 
L 124.581974 77.210602 
L 128.011254 76.551851 
L 131.555275 76.077476 
L 135.322578 75.798016 
L 138.913121 75.744493 
L 142.835304 75.922788 
L 146.759787 76.350764 
L 150.390208 76.973469 
L 153.968647 77.807273 
L 157.734223 78.930771 
L 160.752283 80.023053 
L 164.47796 81.622682 
L 168.0743 83.451658 
L 171.397833 85.416181 
L 174.612698 87.59681 
L 177.410757 89.748364 
L 180.21743 92.178605 
L 182.821143 94.716615 
L 185.23571 97.359617 
L 187.483703 100.122846 
L 189.649119 103.126495 
L 191.73606 106.429031 
L 193.695413 110.021014 
L 195.369493 113.627241 
L 196.750565 117.164568 
L 197.873199 120.640028 
L 198.84847 124.432672 
L 199.562708 128.148574 
L 200.033485 131.735904 
L 200.300453 135.46724 
L 200.353846 138.046154 
L 200.353846 138.046154 
" clip-path="url(#p6cf545ba18)" style="fill: none; stroke: #0000ff; stroke-linecap: square"/>
   </g>
   <g id="line2d_2">
    <path d="M 75.738462 138.046154 
L 75.879059 133.862751 
L 76.235711 130.190092 
L 76.801447 126.586033 
L 77.624608 122.83151 
L 78.645328 119.236837 
L 79.917258 115.612251 
L 81.44091 112.005898 
L 83.063198 108.735352 
L 84.987661 105.380502 
L 87.127958 102.135349 
L 89.291918 99.248306 
L 91.817772 96.270739 
L 94.311126 93.667151 
L 97.158118 91.031082 
L 100.076144 88.644465 
L 103.145389 86.430409 
L 106.224636 84.477137 
L 106.892308 84.086109 
L 106.892308 84.086109 
" clip-path="url(#p6cf545ba18)" style="fill: none; stroke: #0000ff; stroke-linecap: square"/>
   </g>
   <g id="line2d_3">
    <path d="M 75.738462 138.046154 
L 75.88105 142.259039 
L 76.232167 145.874276 
L 76.825314 149.633096 
L 77.593329 153.136034 
L 78.569241 156.613473 
L 79.766835 160.086334 
L 81.150715 163.446106 
L 82.729813 166.722815 
L 84.634456 170.131026 
L 86.7419 173.403219 
L 88.835665 176.263641 
L 91.171463 179.09505 
L 93.766482 181.881746 
L 96.334927 184.332459 
L 99.288819 186.832602 
L 102.271007 189.059754 
L 105.343869 191.082076 
L 106.892308 192.006198 
L 106.892308 192.006198 
" clip-path="url(#p6cf545ba18)" style="fill: none; stroke: #0000ff; stroke-linecap: square"/>
   </g>
   <g id="line2d_4">
    <path d="M 106.892308 200.353846 
L 107.035714 204.578775 
L 107.410132 208.370125 
L 107.974123 211.914143 
L 108.743959 215.430836 
L 109.744149 218.9885 
L 110.960744 222.499673 
L 112.247868 225.626425 
L 113.682474 228.63905 
L 115.646739 232.201873 
L 117.759279 235.51207 
L 119.923142 238.48572 
L 122.178995 241.23506 
L 124.858209 244.126601 
L 127.744985 246.86976 
L 130.179464 248.930037 
L 133.1805 251.195209 
L 136.291259 253.261911 
L 139.869074 255.326069 
L 143.255059 257.00284 
L 146.670474 258.445747 
L 150.331157 259.73579 
L 154.105368 260.805485 
L 157.601359 261.572471 
L 161.27293 262.155222 
L 164.990443 262.519175 
L 168.894133 262.660788 
L 172.667479 262.564979 
L 176.309406 262.254612 
L 180.042097 261.710977 
L 183.377188 261.0272 
L 187.205836 260.003141 
L 190.673129 258.844472 
L 193.759031 257.617295 
L 197.215842 256.007787 
L 200.353846 254.313891 
L 200.353846 254.313891 
" clip-path="url(#p6cf545ba18)" style="fill: none; stroke: #228b22; stroke-linecap: square"/>
   </g>
   <g id="line2d_5">
    <path d="M 200.353846 254.313891 
L 203.465217 252.393671 
L 206.47564 250.281546 
L 209.279846 248.059763 
L 212.107615 245.533322 
L 214.681917 242.940742 
L 217.242928 240.029098 
L 219.385536 237.28162 
L 221.463204 234.277378 
L 223.296489 231.270159 
L 225.041565 227.993821 
L 226.585367 224.626632 
L 227.964103 221.066854 
L 229.119461 217.439125 
L 230.029191 213.846735 
L 230.74683 210.061379 
L 231.211953 206.417359 
L 231.464354 202.677355 
L 231.507692 200.353846 
L 231.507692 200.353846 
" clip-path="url(#p6cf545ba18)" style="fill: none; stroke: #228b22; stroke-linecap: square"/>
   </g>
   <g id="text_1">
    <!-- $\Omega$ -->
    <g transform="translate(16.011538 22.420913) scale(0.1 -0.1)">
     <defs>
      <path id="Cmr10-ad" d="M 494 0 
L 281 1063 
L 469 1063 
Q 503 878 531 736 
Q 559 594 604 536 
Q 650 478 750 459 
Q 850 441 1081 441 
L 1472 441 
Q 1378 803 1004 1386 
Q 631 1969 495 2233 
Q 359 2497 359 2913 
Q 359 3397 646 3761 
Q 934 4125 1389 4319 
Q 1844 4513 2309 4513 
Q 2772 4513 3226 4319 
Q 3681 4125 3968 3758 
Q 4256 3391 4256 2913 
Q 4256 2588 4137 2300 
Q 4019 2013 3834 1725 
Q 3650 1438 3436 1084 
Q 3222 731 3144 441 
L 3531 441 
Q 3766 441 3869 459 
Q 3972 478 4015 536 
Q 4059 594 4086 736 
Q 4113 878 4147 1063 
L 4331 1063 
L 4122 0 
L 2988 0 
Q 2925 0 2925 84 
Q 2925 409 3004 721 
Q 3084 1034 3240 1478 
Q 3397 1922 3484 2261 
Q 3572 2600 3572 2913 
Q 3572 3297 3422 3625 
Q 3272 3953 2984 4150 
Q 2697 4347 2309 4347 
Q 1725 4347 1384 3930 
Q 1044 3513 1044 2913 
Q 1047 2584 1122 2293 
Q 1197 2003 1364 1518 
Q 1531 1034 1611 721 
Q 1691 409 1691 84 
Q 1691 0 1625 0 
L 494 0 
z
" transform="scale(0.015625)"/>
     </defs>
     <use xlink:href="#Cmr10-ad" transform="translate(0 0.484375)"/>
    </g>
   </g>
   <g id="text_2">
    <!-- $A$ -->
    <g style="fill: #0000ff" transform="translate(103.142308 78.497837) scale(0.1 -0.1)">
     <defs>
      <path id="Cmmi10-41" d="M 288 0 
Q 225 0 225 84 
Q 250 225 306 225 
Q 566 225 755 328 
Q 944 431 1081 647 
Q 1094 659 1094 659 
L 3378 4513 
Q 3428 4581 3500 4581 
L 3584 4581 
Q 3603 4581 3622 4573 
Q 3641 4566 3655 4548 
Q 3669 4531 3669 4513 
L 4056 378 
Q 4056 350 4084 294 
Q 4147 225 4563 225 
Q 4628 225 4628 141 
Q 4606 56 4592 28 
Q 4578 0 4519 0 
L 2919 0 
Q 2859 0 2859 84 
Q 2894 225 2944 225 
Q 3450 225 3481 397 
L 3384 1453 
L 1806 1453 
L 1294 594 
Q 1247 525 1247 434 
Q 1247 322 1355 273 
Q 1463 225 1594 225 
Q 1656 225 1656 141 
Q 1634 50 1621 25 
Q 1609 0 1550 0 
L 288 0 
z
M 1931 1678 
L 3359 1678 
L 3169 3750 
L 1931 1678 
z
" transform="scale(0.015625)"/>
     </defs>
     <use xlink:href="#Cmmi10-41" transform="translate(0 0.421875)"/>
    </g>
   </g>
   <g id="text_3">
    <!-- $B$ -->
    <g style="fill: #ff0000" transform="translate(227.707692 78.497837) scale(0.1 -0.1)">
     <defs>
      <path id="Cmmi10-42" d="M 319 0 
Q 256 0 256 84 
Q 259 100 268 137 
Q 278 175 293 200 
Q 309 225 341 225 
Q 522 225 656 234 
Q 791 244 884 269 
Q 959 297 1006 441 
L 1881 3956 
Q 1894 4019 1894 4044 
Q 1894 4113 1819 4122 
Q 1697 4147 1356 4147 
Q 1294 4147 1294 4231 
Q 1297 4247 1306 4286 
Q 1316 4325 1333 4348 
Q 1350 4372 1375 4372 
L 3669 4372 
Q 3878 4372 4083 4320 
Q 4288 4269 4461 4156 
Q 4634 4044 4736 3876 
Q 4838 3709 4838 3488 
Q 4838 3247 4714 3040 
Q 4591 2834 4395 2681 
Q 4200 2528 3973 2429 
Q 3747 2331 3500 2284 
Q 3675 2284 3854 2215 
Q 4034 2147 4175 2028 
Q 4316 1909 4402 1743 
Q 4488 1578 4488 1388 
Q 4488 1003 4219 684 
Q 3950 366 3542 183 
Q 3134 0 2753 0 
L 319 0 
z
M 1497 275 
Q 1497 225 1716 225 
L 2631 225 
Q 2944 225 3231 398 
Q 3519 572 3692 859 
Q 3866 1147 3866 1459 
Q 3866 1650 3786 1820 
Q 3706 1991 3556 2089 
Q 3406 2188 3213 2188 
L 1966 2188 
L 1522 416 
Q 1497 328 1497 275 
z
M 2009 2356 
L 2981 2356 
Q 3288 2356 3577 2512 
Q 3866 2669 4048 2937 
Q 4231 3206 4231 3506 
Q 4231 3784 4057 3965 
Q 3884 4147 3609 4147 
L 2731 4147 
Q 2559 4147 2500 4115 
Q 2441 4084 2400 3928 
L 2009 2356 
z
" transform="scale(0.015625)"/>
     </defs>
     <use xlink:href="#Cmmi10-42" transform="translate(0 0.6875)"/>
    </g>
   </g>
   <g id="text_4">
    <!-- $C$ -->
    <g style="fill: #228b22" transform="translate(150.023077 271.651683) scale(0.1 -0.1)">
     <defs>
      <path id="Cmmi10-43" d="M 934 1381 
Q 934 997 1082 705 
Q 1231 413 1514 248 
Q 1797 84 2181 84 
Q 2584 84 2957 290 
Q 3331 497 3595 842 
Q 3859 1188 3956 1575 
Q 3969 1613 4006 1613 
L 4084 1613 
Q 4109 1613 4125 1595 
Q 4141 1578 4141 1556 
Q 4141 1550 4134 1538 
Q 4025 1094 3711 705 
Q 3397 316 2959 87 
Q 2522 -141 2059 -141 
Q 1559 -141 1162 84 
Q 766 309 545 709 
Q 325 1109 325 1613 
Q 325 2150 565 2676 
Q 806 3203 1212 3614 
Q 1619 4025 2139 4269 
Q 2659 4513 3194 4513 
Q 3406 4513 3600 4448 
Q 3794 4384 3959 4253 
Q 4125 4122 4231 3950 
L 4738 4500 
Q 4738 4513 4769 4513 
L 4806 4513 
Q 4831 4513 4847 4491 
Q 4863 4469 4863 4447 
L 4428 2719 
Q 4428 2675 4378 2675 
L 4263 2675 
Q 4213 2675 4213 2747 
Q 4238 2888 4238 3084 
Q 4238 3397 4131 3673 
Q 4025 3950 3801 4119 
Q 3578 4288 3256 4288 
Q 2734 4288 2300 4025 
Q 1866 3763 1564 3336 
Q 1263 2909 1098 2389 
Q 934 1869 934 1381 
z
" transform="scale(0.015625)"/>
     </defs>
     <use xlink:href="#Cmmi10-43" transform="translate(0 0.484375)"/>
    </g>
   </g>
   <g id="patch_9">
    <path d="M 138.046154 200.353846 
C 154.570347 200.353846 170.419977 193.788715 182.104346 182.104346 
C 193.788715 170.419977 200.353846 154.570347 200.353846 138.046154 
C 200.353846 121.521961 193.788715 105.672331 182.104346 93.987962 
C 170.419977 82.303593 154.570347 75.738462 138.046154 75.738462 
C 121.521961 75.738462 105.672331 82.303593 93.987962 93.987962 
C 82.303593 105.672331 75.738462 121.521961 75.738462 138.046154 
C 75.738462 154.570347 82.303593 170.419977 93.987962 182.104346 
C 105.672331 193.788715 121.521961 200.353846 138.046154 200.353846 
L 138.046154 200.353846 
z
" clip-path="url(#p6cf545ba18)" style="fill: none; stroke: #0000ff; stroke-linejoin: miter"/>
   </g>
   <g id="patch_10">
    <path d="M 200.353846 200.353846 
C 216.878039 200.353846 232.727669 193.788715 244.412038 182.104346 
C 256.096407 170.419977 262.661538 154.570347 262.661538 138.046154 
C 262.661538 121.521961 256.096407 105.672331 244.412038 93.987962 
C 232.727669 82.303593 216.878039 75.738462 200.353846 75.738462 
C 183.829653 75.738462 167.980023 82.303593 156.295654 93.987962 
C 144.611285 105.672331 138.046154 121.521961 138.046154 138.046154 
C 138.046154 154.570347 144.611285 170.419977 156.295654 182.104346 
C 167.980023 193.788715 183.829653 200.353846 200.353846 200.353846 
L 200.353846 200.353846 
z
" clip-path="url(#p6cf545ba18)" style="fill: none; stroke: #ff0000; stroke-linejoin: miter"/>
   </g>
   <g id="patch_11">
    <path d="M 169.2 262.661538 
C 185.724193 262.661538 201.573823 256.096407 213.258192 244.412038 
C 224.942561 232.727669 231.507692 216.878039 231.507692 200.353846 
C 231.507692 183.829653 224.942561 167.980023 213.258192 156.295654 
C 201.573823 144.611285 185.724193 138.046154 169.2 138.046154 
C 152.675807 138.046154 136.826177 144.611285 125.141808 156.295654 
C 113.457439 167.980023 106.892308 183.829653 106.892308 200.353846 
C 106.892308 216.878039 113.457439 232.727669 125.141808 244.412038 
C 136.826177 256.096407 152.675807 262.661538 169.2 262.661538 
L 169.2 262.661538 
z
" clip-path="url(#p6cf545ba18)" style="fill: none; stroke: #228b22; stroke-linejoin: miter"/>
   </g>
  </g>
 </g>
 <defs>
  <clipPath id="p6cf545ba18">
   <rect x="7.2" y="7.2" width="324" height="324"/>
  </clipPath>
 </defs>
</svg>
