<?xml version="1.0" encoding="utf-8" standalone="no"?>
<!DOCTYPE svg PUBLIC "-//W3C//DTD SVG 1.1//EN"
  "http://www.w3.org/Graphics/SVG/1.1/DTD/svg11.dtd">
<!-- Created with matplotlib (https://matplotlib.org/) -->
<svg height="338.4pt" version="1.1" viewBox="0 0 338.4 338.4" width="338.4pt" xmlns="http://www.w3.org/2000/svg" xmlns:xlink="http://www.w3.org/1999/xlink">
 <metadata>
  <rdf:RDF xmlns:cc="http://creativecommons.org/ns#" xmlns:dc="http://purl.org/dc/elements/1.1/" xmlns:rdf="http://www.w3.org/1999/02/22-rdf-syntax-ns#">
   <cc:Work>
    <dc:type rdf:resource="http://purl.org/dc/dcmitype/StillImage"/>
    <dc:date>2024-08-28T16:16:33.957605</dc:date>
    <dc:format>image/svg+xml</dc:format>
    <dc:creator>
     <cc:Agent>
      <dc:title>Matplotlib v3.3.4, https://matplotlib.org/</dc:title>
     </cc:Agent>
    </dc:creator>
   </cc:Work>
  </rdf:RDF>
 </metadata>
 <defs>
  <style type="text/css">*{stroke-linecap:butt;stroke-linejoin:round;}</style>
 </defs>
 <g id="figure_1">
  <g id="patch_1">
   <path d="M -0 338.4 
L 338.4 338.4 
L 338.4 0 
L -0 0 
z
" style="fill:#ffffff;"/>
  </g>
  <g id="axes_1">
   <g id="patch_2">
    <path d="M 7.2 331.2 
L 331.2 331.2 
L 331.2 7.2 
L 7.2 7.2 
z
" style="fill:#ffffff;"/>
   </g>
   <g id="patch_3">
    <path clip-path="url(#pe5b81ddadb)" d="M 13.430769 324.969231 
L 13.430769 13.430769 
L 324.969231 13.430769 
L 324.969231 324.969231 
z
" style="fill:none;stroke:#000000;stroke-linejoin:miter;"/>
   </g>
   <g id="patch_4">
    <path clip-path="url(#pe5b81ddadb)" d="M 169.2 192.006198 
L 168.899385 192.178646 
L 168.436056 192.440109 
L 168.129793 192.610091 
L 168.086773 192.633787 
L 167.674094 192.858869 
L 167.183897 193.121016 
L 166.868072 193.28695 
L 166.774343 193.335752 
L 166.366903 193.545557 
L 166.087104 193.687448 
L 165.792045 193.835167 
L 165.52779 193.965812 
L 165.191184 194.129982 
L 164.789961 194.322413 
L 164.602791 194.410979 
L 164.090129 194.649686 
L 163.950651 194.713654 
L 163.605539 194.870148 
L 163.159193 195.068814 
L 163.049543 195.116979 
L 162.624412 195.301352 
L 162.409869 195.392975 
L 162.026918 195.554166 
L 161.798723 195.648792 
L 161.524512 195.761102 
L 161.16808 195.904818 
L 160.843807 196.033355 
L 160.40233 196.204987 
L 160.145234 196.303164 
L 159.92022 196.388024 
L 159.467304 196.555836 
L 159.251893 196.634251 
L 158.837278 196.782664 
L 158.503933 196.899597 
L 158.286259 196.974811 
L 157.831539 197.129037 
L 157.478591 197.24606 
L 157.146751 197.353959 
L 156.86337 197.444478 
L 156.776395 197.471961 
L 156.381156 197.595094 
L 155.945716 197.727426 
L 155.690063 197.803505 
L 155.278511 197.923482 
L 155.129011 197.966305 
L 154.749419 198.073227 
L 154.357265 198.180971 
L 154.029182 198.269001 
L 153.714291 198.351693 
L 153.576368 198.387358 
L 153.187253 198.486171 
L 153.027294 198.526018 
L 152.477398 198.659582 
L 152.327569 198.695059 
L 152.131344 198.740931 
L 151.569597 198.868559 
L 151.436812 198.897931 
L 150.951649 199.002669 
L 150.78153 199.038438 
L 150.323742 199.132235 
L 150.206593 199.155664 
L 149.764368 199.242003 
L 149.435093 199.304138 
L 149.056708 199.373278 
L 148.815337 199.416124 
L 148.539836 199.463832 
L 148.280671 199.50755 
L 148.020898 199.550243 
L 147.617519 199.614307 
L 147.205196 199.676994 
L 146.813501 199.733933 
L 146.542478 199.771845 
L 146.456664 199.783597 
L 145.952854 199.850139 
L 145.657627 199.887192 
L 145.288211 199.931541 
L 144.985859 199.966175 
L 144.703585 199.99716 
L 144.447599 200.024134 
L 144.302547 200.038944 
L 143.771428 200.090249 
L 143.382049 200.124948 
L 143.261079 200.135228 
L 142.861978 200.167457 
L 142.699148 200.179866 
L 142.174925 200.216901 
L 141.839161 200.238289 
L 141.511215 200.257422 
L 141.281057 200.269814 
L 140.944809 200.286385 
L 140.611326 200.30102 
L 140.516678 200.304848 
L 140.11809 200.319387 
L 139.899902 200.326264 
L 139.366085 200.339864 
L 139.014477 200.346321 
L 138.720878 200.350193 
L 138.529135 200.351974 
L 138.158155 200.353745 
L 137.843472 200.353516 
L 137.57875 200.352093 
L 137.291794 200.349279 
L 136.821104 200.341802 
L 136.682683 200.338926 
L 136.462207 200.33371 
L 135.957002 200.318812 
L 135.66729 200.308418 
L 135.287635 200.292753 
L 135.176873 200.287746 
L 134.687711 200.263269 
L 134.511125 200.253485 
L 134.278135 200.239807 
L 133.924947 200.217403 
L 133.484301 200.186624 
L 133.051786 200.153358 
L 132.997764 200.14899 
L 132.508932 200.107315 
L 132.220224 200.080878 
L 131.891372 200.049115 
L 131.472231 200.006077 
L 131.424503 200.000994 
L 130.869543 199.939165 
L 130.616118 199.909253 
L 130.499448 199.895129 
L 130.024511 199.835326 
L 129.598444 199.778518 
L 129.562506 199.773589 
L 129.019206 199.69648 
L 128.846077 199.670882 
L 128.371684 199.59819 
L 128.123759 199.55871 
L 127.740364 199.495639 
L 127.457626 199.447551 
L 127.243279 199.410202 
L 127.032449 199.372713 
L 126.770714 199.325131 
L 126.230478 199.22326 
L 126.075917 199.193206 
L 125.798297 199.138203 
L 125.245232 199.024715 
L 125.158449 199.006433 
L 124.768146 198.922611 
L 124.397144 198.840504 
L 124.182299 198.79187 
L 123.944428 198.737091 
L 123.366521 198.599906 
L 123.248259 198.571114 
L 122.972514 198.50303 
L 122.489506 198.380549 
L 122.291321 198.329101 
L 121.775753 198.191998 
L 121.646283 198.156825 
L 121.216083 198.037797 
L 121.136462 198.015403 
L 120.681291 197.885189 
L 120.34047 197.78523 
L 119.950699 197.668323 
L 119.701024 197.591974 
L 119.263535 197.455427 
L 119.03091 197.38138 
L 118.911115 197.342855 
L 118.342602 197.156378 
L 118.032073 197.051959 
L 117.99243 197.038498 
L 117.437753 196.847024 
L 117.130564 196.738458 
L 116.959073 196.677063 
L 116.690097 196.579626 
L 116.218438 196.405381 
L 115.835211 196.260607 
L 115.70632 196.211267 
L 115.340122 196.069293 
L 114.989783 195.930973 
L 114.808375 195.858386 
L 114.449709 195.712923 
L 113.970297 195.51442 
L 113.790422 195.438732 
L 113.587707 195.352636 
L 113.275931 195.218565 
L 112.995087 195.096067 
L 112.498895 194.875601 
L 112.273315 194.773654 
L 111.902704 194.603811 
L 111.685072 194.502703 
L 111.39824 194.367883 
L 111.113625 194.232339 
L 110.78019 194.071289 
L 110.35909 193.864386 
L 109.962177 193.665744 
L 109.629127 193.496321 
L 109.310369 193.331805 
L 109.205955 193.277408 
L 108.878087 193.104962 
L 108.510944 192.908891 
L 108.049816 192.658133 
L 107.712087 192.471267 
L 107.631997 192.426551 
L 107.188579 192.176169 
L 106.892308 192.006198 
L 106.892308 200.353846 
L 106.904904 201.606636 
L 106.917499 202.125469 
L 106.930095 202.523522 
L 106.942691 202.859045 
L 106.955287 203.154602 
L 106.967883 203.421766 
L 106.980479 203.66741 
L 106.993075 203.896016 
L 107.005671 204.110695 
L 107.018266 204.313712 
L 107.030862 204.506778 
L 107.043458 204.691223 
L 107.056054 204.868102 
L 107.06865 205.038274 
L 107.093842 205.361203 
L 107.119033 205.664413 
L 107.144225 205.951108 
L 107.169417 206.223709 
L 107.194609 206.484097 
L 107.219801 206.733767 
L 107.244992 206.973932 
L 107.270184 207.205592 
L 107.295376 207.429581 
L 107.33976 207.807648 
L 107.384143 208.167192 
L 107.428527 208.510662 
L 107.472911 208.840009 
L 107.537252 209.295547 
L 107.601593 209.728534 
L 107.665934 210.141965 
L 107.730275 210.53822 
L 107.814404 211.033598 
L 107.898532 211.506361 
L 107.982661 211.959272 
L 108.066789 212.394572 
L 108.147767 212.798658 
L 108.228744 213.189518 
L 108.309721 213.568327 
L 108.390699 213.936092 
L 108.461359 214.248665 
L 108.532019 214.554007 
L 108.602679 214.852577 
L 108.673339 215.144783 
L 108.811888 215.700652 
L 108.950437 216.23587 
L 109.093081 216.767462 
L 109.235724 217.281166 
L 109.378368 217.778566 
L 109.521012 218.26102 
L 109.669865 218.74981 
L 109.818717 219.224771 
L 109.975474 219.711121 
L 110.116616 220.137734 
L 110.257757 220.554354 
L 110.452534 221.113994 
L 110.647311 221.657158 
L 110.89508 222.32621 
L 111.153886 223.00108 
L 111.300916 223.374371 
L 111.447945 223.74078 
L 111.74183 224.453787 
L 112.035714 225.142814 
L 112.297486 225.737945 
L 112.437683 226.049915 
L 112.611874 226.431279 
L 112.786064 226.805999 
L 113.005654 227.269343 
L 113.225243 227.723083 
L 113.595584 228.467854 
L 113.759559 228.789845 
L 114.011716 229.276188 
L 114.284354 229.790564 
L 114.556991 230.293621 
L 114.875966 230.868562 
L 115.097264 231.259226 
L 115.256274 231.535939 
L 115.63079 232.175039 
L 115.8975 232.619804 
L 116.200709 233.115465 
L 116.442406 233.503277 
L 116.693244 233.899176 
L 116.944083 234.288603 
L 117.325827 234.869331 
L 117.499499 235.128933 
L 117.988079 235.844517 
L 118.080333 235.977268 
L 118.361901 236.377952 
L 118.711555 236.866384 
L 118.992356 237.251557 
L 119.48952 237.918679 
L 119.716916 238.21772 
L 120.099517 238.712562 
L 120.390066 239.081599 
L 120.672183 239.434526 
L 121.046462 239.894779 
L 121.346163 240.256963 
L 121.497974 240.438322 
L 121.796555 240.790982 
L 122.175896 241.231495 
L 122.598815 241.712981 
L 122.905717 242.056218 
L 123.064683 242.232015 
L 123.489708 242.695525 
L 123.92528 243.160952 
L 124.024968 243.266141 
L 124.493627 243.754177 
L 124.75693 244.023767 
L 125.072198 244.342317 
L 125.311516 244.581094 
L 125.650605 244.915026 
L 125.874338 245.132586 
L 126.324286 245.563598 
L 126.640032 245.860962 
L 126.888157 246.091757 
L 127.313887 246.481951 
L 127.445096 246.600755 
L 127.880096 246.98982 
L 128.188158 247.26096 
L 128.462724 247.499608 
L 128.855408 247.836079 
L 129.029715 247.983634 
L 129.28632 248.198874 
L 129.77797 248.604774 
L 130.126471 248.887421 
L 130.311479 249.035788 
L 130.758807 249.389784 
L 131.007654 249.583849 
L 131.176096 249.714065 
L 131.771411 250.166989 
L 131.963351 250.310632 
L 132.146034 250.446282 
L 132.516152 250.717959 
L 132.776681 250.906693 
L 133.066009 251.113902 
L 133.447602 251.383392 
L 133.747714 251.592346 
L 134.038534 251.792352 
L 134.573604 252.154051 
L 134.883791 252.36006 
L 134.999065 252.435941 
L 135.242375 252.594905 
L 135.573741 252.80881 
L 136.07892 253.129244 
L 136.407198 253.333848 
L 136.510588 253.397704 
L 136.990271 253.690343 
L 137.363256 253.913815 
L 137.573874 254.03845 
L 138.015744 254.296322 
L 138.07816 254.332356 
L 138.492891 254.569361 
L 138.746645 254.712302 
L 139.065525 254.889724 
L 139.598038 255.180595 
L 139.852777 255.317371 
L 140.126854 255.462835 
L 140.260474 255.533121 
L 140.808156 255.816912 
L 140.922981 255.875542 
L 141.24029 256.036008 
L 141.651495 256.240592 
L 142.07273 256.446268 
L 142.428409 256.616893 
L 142.492975 256.64757 
L 142.934022 256.854704 
L 143.306267 257.026265 
L 143.579674 257.15039 
L 143.869656 257.280309 
L 144.289201 257.465147 
L 144.344315 257.489154 
L 144.700364 257.642731 
L 145.152807 257.834113 
L 145.401373 257.937471 
L 145.705404 258.062186 
L 145.972588 258.170244 
L 146.391627 258.336832 
L 146.798311 258.495164 
L 146.945313 258.55159 
L 147.233269 258.660889 
L 147.480411 258.753401 
L 147.847769 258.888714 
L 148.224698 259.024838 
L 148.40938 259.090535 
L 148.974658 259.287572 
L 149.175529 259.356126 
L 149.366675 259.420654 
L 149.728442 259.540897 
L 149.944885 259.611665 
L 150.367769 259.747411 
L 150.776897 259.875588 
L 151.053938 259.960632 
L 151.266052 260.024794 
L 151.645619 260.137558 
L 151.916004 260.216288 
L 152.137253 260.279727 
L 152.695328 260.435826 
L 153.00498 260.520031 
L 153.11111 260.548498 
L 153.456356 260.639717 
L 153.709575 260.705277 
L 154.077783 260.79859 
L 154.573601 260.920479 
L 154.774407 260.96862 
L 155.029859 261.028846 
L 155.368992 261.10705 
L 155.71523 261.184837 
L 156.127305 261.274722 
L 156.326307 261.317086 
L 156.542956 261.362434 
L 156.947423 261.444949 
L 157.166194 261.488419 
L 157.603672 261.572909 
L 157.882411 261.625052 
L 158.270629 261.695491 
L 158.522884 261.739901 
L 158.82921 261.792395 
L 159.234222 261.859389 
L 159.560612 261.911386 
L 159.901533 261.963805 
L 160.183248 262.005664 
L 160.539891 262.056772 
L 160.730789 262.083264 
L 161.021009 262.122387 
L 161.438244 262.176202 
L 161.535463 262.18833 
L 162.119488 262.257924 
L 162.173544 262.264083 
L 162.696726 262.321224 
L 162.925808 262.344838 
L 163.309549 262.382478 
L 163.659487 262.414713 
L 163.819448 262.428786 
L 164.133856 262.455237 
L 164.380129 262.474836 
L 164.970711 262.517836 
L 165.096077 262.526238 
L 165.579555 262.556265 
L 165.772957 262.56722 
L 166.205797 262.589554 
L 166.50483 262.60322 
L 166.79381 262.61506 
L 166.913881 262.619585 
L 167.289801 262.632251 
L 167.570373 262.640224 
L 168.074957 262.651381 
L 168.215992 262.653768 
L 168.689954 262.659451 
L 168.822207 262.660393 
L 169.2 262.661538 
z
" style="fill:#808080;opacity:0.5;"/>
   </g>
   <g id="patch_5">
    <path clip-path="url(#pe5b81ddadb)" d="M 231.507692 192.006198 
L 231.068133 192.257602 
L 230.868962 192.369963 
L 230.41961 192.619942 
L 230.151027 192.76705 
L 229.856808 192.926239 
L 229.755477 192.980593 
L 229.192449 193.278241 
L 229.115939 193.318123 
L 228.667792 193.549027 
L 228.326762 193.721683 
L 228.102355 193.833865 
L 227.649685 194.05674 
L 227.392521 194.181335 
L 227.224129 194.262134 
L 226.924714 194.404272 
L 226.633891 194.54047 
L 226.071893 194.798516 
L 225.773695 194.932706 
L 225.508491 195.050473 
L 225.195639 195.187504 
L 224.886867 195.320751 
L 224.706083 195.39785 
L 224.263038 195.58396 
L 224.00809 195.689239 
L 223.762897 195.789248 
L 223.257667 195.991503 
L 223.153054 196.032744 
L 222.622734 196.238466 
L 222.404738 196.32142 
L 222.221978 196.390248 
L 221.660901 196.597481 
L 221.50642 196.653467 
L 221.192962 196.765655 
L 221.012452 196.829404 
L 220.628293 196.963005 
L 220.23555 197.096695 
L 219.802642 197.240688 
L 219.609945 197.303653 
L 219.380399 197.377754 
L 218.885318 197.534246 
L 218.609771 197.619384 
L 218.444929 197.66965 
L 217.931824 197.822932 
L 217.738763 197.879365 
L 217.411717 197.973423 
L 217.103188 198.060386 
L 216.886481 198.120445 
L 216.402387 198.251576 
L 216.194507 198.306605 
L 215.754503 198.420555 
L 215.612554 198.456586 
L 215.121298 198.578549 
L 215.012959 198.604877 
L 214.60792 198.701491 
L 214.205705 198.794607 
L 214.083301 198.822388 
L 213.524347 198.94596 
L 213.401223 198.972458 
L 212.895037 199.078662 
L 212.627504 199.133025 
L 212.323692 199.193282 
L 212.1025 199.236167 
L 211.918037 199.271296 
L 211.511956 199.346603 
L 211.170395 199.407793 
L 210.929037 199.44985 
L 210.63417 199.499904 
L 210.090566 199.588374 
L 209.764404 199.639091 
L 209.684239 199.651286 
L 209.400416 199.693604 
L 209.043713 199.744896 
L 208.792119 199.779808 
L 208.480508 199.821601 
L 208.14208 199.865179 
L 207.824967 199.904305 
L 207.375009 199.956991 
L 207.001951 199.998161 
L 206.624127 200.037541 
L 206.497275 200.050241 
L 206.042835 200.093587 
L 205.757046 200.119127 
L 205.497948 200.141135 
L 205.080163 200.174331 
L 204.78635 200.195984 
L 204.4242 200.220753 
L 204.31695 200.227681 
L 203.88555 200.253674 
L 203.515968 200.273555 
L 203.2048 200.288588 
L 202.956066 200.299483 
L 202.84229 200.304135 
L 202.423484 200.319464 
L 201.921777 200.334115 
L 201.640633 200.340557 
L 201.495619 200.343384 
L 201.216822 200.34787 
L 200.687609 200.352952 
L 200.648601 200.353149 
L 200.170101 200.353575 
L 199.990482 200.352787 
L 199.664179 200.350029 
L 199.262457 200.344287 
L 198.888358 200.336609 
L 198.588464 200.328832 
L 198.429699 200.324129 
L 198.056992 200.311497 
L 197.595884 200.292778 
L 197.277328 200.277846 
L 197.106538 200.269168 
L 196.822214 200.253678 
L 196.546876 200.237435 
L 196.214144 200.216174 
L 195.687612 200.178873 
L 195.349326 200.152541 
L 195.093122 200.131364 
L 194.917418 200.116225 
L 194.439422 200.072504 
L 194.320304 200.06103 
L 194.052773 200.034419 
L 193.563975 199.982784 
L 193.384258 199.962819 
L 193.106645 199.930939 
L 192.728176 199.885443 
L 192.492376 199.855909 
L 192.124252 199.807973 
L 191.657148 199.743933 
L 191.586702 199.733962 
L 191.137238 199.668412 
L 190.721151 199.604741 
L 190.590606 199.584172 
L 190.075169 199.50018 
L 189.812266 199.455629 
L 189.425476 199.387977 
L 189.394439 199.382439 
L 188.95887 199.303015 
L 188.718375 199.257789 
L 188.158725 199.148752 
L 187.927558 199.10216 
L 187.691275 199.053594 
L 187.333501 198.97824 
L 187.134391 198.935353 
L 186.606335 198.818306 
L 186.421762 198.776258 
L 185.970244 198.670905 
L 185.949449 198.665968 
L 185.513621 198.560749 
L 185.057553 198.447081 
L 184.927165 198.41391 
L 184.654074 198.343465 
L 184.338907 198.260523 
L 183.805182 198.116032 
L 183.656178 198.074784 
L 183.374964 197.99585 
L 183.059886 197.905718 
L 182.749673 197.815223 
L 182.466965 197.731227 
L 182.081631 197.614389 
L 181.856969 197.545011 
L 181.426957 197.409622 
L 181.087797 197.300419 
L 180.879535 197.232298 
L 180.335301 197.050445 
L 180.055707 196.954847 
L 179.823322 196.87426 
L 179.610594 196.799588 
L 179.316692 196.694996 
L 178.837383 196.520852 
L 178.701204 196.470563 
L 178.388151 196.353587 
L 177.987691 196.201151 
L 177.754809 196.111049 
L 177.419313 195.979354 
L 177.086651 195.846553 
L 176.842211 195.747553 
L 176.465175 195.592482 
L 176.09206 195.436173 
L 175.920041 195.363147 
L 175.426528 195.150246 
L 174.99562 194.960202 
L 174.728318 194.840351 
L 174.526525 194.74887 
L 174.088873 194.547479 
L 173.763754 194.395205 
L 173.474918 194.258001 
L 173.404292 194.224175 
L 173.056892 194.056196 
L 172.796092 193.92834 
L 172.311863 193.686927 
L 172.037844 193.547979 
L 171.80817 193.430203 
L 171.438668 193.238191 
L 171.149445 193.085699 
L 170.635931 192.810139 
L 170.498198 192.735173 
L 170.260776 192.60489 
L 169.756242 192.323545 
L 169.601567 192.236059 
L 169.2 192.006198 
L 169.2 262.661538 
L 169.528687 262.660672 
L 169.77633 262.658873 
L 170.011178 262.656258 
L 170.388832 262.650196 
L 170.671235 262.644166 
L 171.208793 262.629148 
L 171.28919 262.626503 
L 171.761368 262.608869 
L 172.086258 262.594653 
L 172.434345 262.577536 
L 172.766085 262.559405 
L 172.855943 262.554189 
L 173.144986 262.536525 
L 173.739409 262.49596 
L 174.04188 262.473124 
L 174.350537 262.448294 
L 174.37595 262.446181 
L 174.954356 262.395251 
L 175.219288 262.370108 
L 175.426988 262.349597 
L 175.877428 262.3027 
L 176.085001 262.279974 
L 176.354683 262.249395 
L 176.660106 262.213327 
L 177.072114 262.162246 
L 177.427543 262.115939 
L 177.618578 262.090189 
L 177.967037 262.04167 
L 178.286869 261.995369 
L 178.569007 261.953117 
L 178.822999 261.91395 
L 179.311272 261.835638 
L 179.562903 261.793725 
L 179.847062 261.745121 
L 180.137905 261.69397 
L 180.582044 261.613112 
L 180.836184 261.565346 
L 181.232805 261.488616 
L 181.426208 261.450232 
L 181.641185 261.406818 
L 182.126988 261.305807 
L 182.401254 261.246994 
L 182.668327 261.18848 
L 182.90683 261.135186 
L 183.217016 261.064404 
L 183.757905 260.936978 
L 184.029104 260.871168 
L 184.215166 260.825272 
L 184.572133 260.735516 
L 184.728427 260.695511 
L 185.30195 260.545006 
L 185.338038 260.53534 
L 185.904046 260.380702 
L 186.017022 260.349148 
L 186.440616 260.228796 
L 186.73418 260.143486 
L 187.088097 260.038555 
L 187.454427 259.927535 
L 187.642881 259.869463 
L 188.052236 259.741065 
L 188.343651 259.647768 
L 188.676718 259.539199 
L 188.954867 259.44694 
L 189.274797 259.339023 
L 189.484534 259.267225 
L 189.940738 259.108168 
L 190.277664 258.988142 
L 190.571389 258.881722 
L 190.880032 258.768097 
L 191.067614 258.698135 
L 191.44653 258.554709 
L 191.658409 258.473278 
L 192.135257 258.28676 
L 192.474243 258.151408 
L 192.585433 258.106509 
L 193.011443 257.932173 
L 193.372077 257.781707 
L 193.506653 257.724877 
L 194.041175 257.495464 
L 194.31742 257.374577 
L 194.495353 257.295866 
L 195.029625 257.055513 
L 195.038419 257.051506 
L 195.645673 256.770819 
L 195.752224 256.720751 
L 196.283323 256.4675 
L 196.466851 256.378549 
L 196.894078 256.168598 
L 196.922472 256.154501 
L 197.466839 255.880725 
L 197.832945 255.692828 
L 198.088922 255.559631 
L 198.291865 255.452956 
L 198.623564 255.276541 
L 198.979082 255.084594 
L 199.138301 254.997662 
L 199.565414 254.761476 
L 199.779818 254.641259 
L 200.266711 254.364104 
L 200.568323 254.189493 
L 200.964078 253.956942 
L 201.223025 253.802648 
L 201.299001 253.757054 
L 201.899586 253.391433 
L 202.123313 253.252844 
L 202.389539 253.086218 
L 202.767892 252.84618 
L 203.087332 252.64053 
L 203.328835 252.483216 
L 203.690867 252.244391 
L 203.864743 252.128397 
L 204.39035 251.772596 
L 204.650261 251.593748 
L 205.022744 251.334034 
L 205.179802 251.22331 
L 205.472911 251.014723 
L 205.881659 250.719553 
L 206.100467 250.559464 
L 206.562257 250.216761 
L 206.787927 250.046867 
L 207.160646 249.762731 
L 207.554601 249.457543 
L 207.797711 249.266679 
L 207.934968 249.158054 
L 208.238257 248.915796 
L 208.524869 248.683994 
L 208.821714 248.440937 
L 209.415813 247.945199 
L 209.504815 247.869848 
L 209.929745 247.506114 
L 210.218734 247.254934 
L 210.61928 246.901583 
L 210.77584 246.761798 
L 211.267037 246.317015 
L 211.618842 245.99254 
L 211.665645 245.948994 
L 212.212281 245.433689 
L 212.308091 245.342078 
L 212.611699 245.04918 
L 212.925123 244.742608 
L 213.271376 244.39885 
L 213.515551 244.153166 
L 214.048605 243.607183 
L 214.182294 243.468133 
L 214.463209 243.173123 
L 214.972454 242.628318 
L 215.251952 242.323671 
L 215.431389 242.125933 
L 215.724429 241.799304 
L 216.200717 241.258383 
L 216.603283 240.791172 
L 216.817778 240.538368 
L 217.082209 240.222914 
L 217.49699 239.719431 
L 217.74133 239.41774 
L 217.985819 239.111973 
L 218.206096 238.833075 
L 218.579726 238.352415 
L 218.84313 238.007639 
L 219.179506 237.559995 
L 219.474425 237.160513 
L 219.765851 236.759109 
L 220.057278 236.350871 
L 220.182676 236.173048 
L 220.545111 235.651553 
L 220.941326 235.068162 
L 221.120898 234.799003 
L 221.356479 234.441237 
L 221.645898 233.994242 
L 221.935318 233.538704 
L 222.128783 233.229255 
L 222.325932 232.909703 
L 222.726882 232.246187 
L 222.967467 231.83889 
L 223.208053 231.424391 
L 223.299549 231.264804 
L 223.683831 230.582322 
L 223.919487 230.153615 
L 224.13874 229.747439 
L 224.357994 229.333913 
L 224.466559 229.126332 
L 224.787431 228.501422 
L 225.07503 227.926106 
L 225.362629 227.335462 
L 225.600987 226.833597 
L 225.801371 226.402519 
L 226.100862 225.741646 
L 226.413598 225.028787 
L 226.671304 224.42245 
L 226.929011 223.797605 
L 227.09444 223.386048 
L 227.25987 222.965791 
L 227.507739 222.31873 
L 227.635737 221.9759 
L 227.763735 221.626775 
L 227.951302 221.103137 
L 228.138868 220.564198 
L 228.318655 220.032086 
L 228.498442 219.483491 
L 228.606835 219.144175 
L 228.736587 218.728919 
L 228.86634 218.30312 
L 229.049556 217.682412 
L 229.141164 217.362826 
L 229.232772 217.036616 
L 229.324929 216.701366 
L 229.417087 216.358564 
L 229.509244 216.007715 
L 229.601401 215.648265 
L 229.706913 215.225364 
L 229.812424 214.789309 
L 229.944387 214.223524 
L 230.010368 213.931313 
L 230.07635 213.632345 
L 230.142332 213.326153 
L 230.208313 213.012214 
L 230.274295 212.689934 
L 230.340276 212.358644 
L 230.394494 212.079138 
L 230.448711 211.792547 
L 230.517191 211.419587 
L 230.58567 211.033172 
L 230.65415 210.631783 
L 230.722629 210.213593 
L 230.791109 209.776364 
L 230.859588 209.31731 
L 230.893828 209.07853 
L 230.928068 208.832889 
L 230.962308 208.579774 
L 230.996547 208.318472 
L 231.043834 207.942566 
L 231.091122 207.546731 
L 231.114765 207.340289 
L 231.138409 207.127476 
L 231.162052 206.90767 
L 231.185696 206.680144 
L 231.205821 206.479753 
L 231.225945 206.272514 
L 231.24607 206.057679 
L 231.266195 205.834355 
L 231.28632 205.601458 
L 231.306444 205.357652 
L 231.326569 205.101258 
L 231.346694 204.83011 
L 231.366819 204.541347 
L 231.386944 204.231032 
L 231.397006 204.066119 
L 231.407068 203.893502 
L 231.417131 203.711994 
L 231.427193 203.520066 
L 231.437256 203.315694 
L 231.447318 203.096095 
L 231.45738 202.857266 
L 231.467443 202.593064 
L 231.477505 202.293144 
L 231.487568 201.93734 
L 231.49763 201.473591 
L 231.507692 200.353846 
z
" style="fill:#808080;opacity:0.5;"/>
   </g>
   <g id="matplotlib.axis_1"/>
   <g id="matplotlib.axis_2"/>
   <g id="line2d_1">
    <path clip-path="url(#pe5b81ddadb)" d="M 106.892308 200.353846 
L 107.043458 204.691223 
L 107.384143 208.167192 
L 107.982661 211.959272 
L 108.811888 215.700652 
L 109.818717 219.224771 
L 110.89508 222.32621 
L 112.437683 226.049915 
L 114.011716 229.276188 
L 115.8975 232.619804 
L 118.080333 235.977268 
L 120.390066 239.081599 
L 122.905717 242.056218 
L 125.311516 244.581094 
L 128.188158 247.26096 
L 131.176096 249.714065 
L 134.038534 251.792352 
L 137.363256 253.913815 
L 140.260474 255.533121 
L 143.869656 257.280309 
L 147.480411 258.753401 
L 151.053938 259.960632 
L 154.573601 260.920479 
L 158.270629 261.695491 
L 161.535463 262.18833 
L 165.096077 262.526238 
L 168.822207 262.660393 
L 169.2 262.661538 
L 169.2 262.661538 
" style="fill:none;stroke:#0000ff;stroke-linecap:square;"/>
   </g>
   <g id="line2d_2">
    <path clip-path="url(#pe5b81ddadb)" d="M 169.2 262.661538 
L 172.855943 262.554189 
L 176.660106 262.213327 
L 180.137905 261.69397 
L 183.757905 260.936978 
L 187.454427 259.927535 
L 191.067614 258.698135 
L 194.495353 257.295866 
L 198.088922 255.559631 
L 201.299001 253.757054 
L 204.650261 251.593748 
L 207.797711 249.266679 
L 210.61928 246.901583 
L 213.271376 244.39885 
L 215.724429 241.799304 
L 218.206096 238.833075 
L 220.545111 235.651553 
L 222.726882 232.246187 
L 224.466559 229.126332 
L 226.100862 225.741646 
L 227.635737 221.9759 
L 228.86634 218.30312 
L 229.812424 214.789309 
L 230.58567 211.033172 
L 231.114765 207.340289 
L 231.417131 203.711994 
L 231.507692 200.353846 
L 231.507692 200.353846 
" style="fill:none;stroke:#0000ff;stroke-linecap:square;"/>
   </g>
   <g id="text_1">
    <!-- $\Omega$ -->
    <g transform="translate(16.011538 22.420913)scale(0.1 -0.1)">
     <defs>
      <path d="M 7.71875 0 
L 4.390625 16.609375 
L 7.328125 16.609375 
Q 7.859375 13.71875 8.296875 11.5 
Q 8.734375 9.28125 9.4375 8.375 
Q 10.15625 7.46875 11.71875 7.171875 
Q 13.28125 6.890625 16.890625 6.890625 
L 23 6.890625 
Q 21.53125 12.546875 15.6875 21.65625 
Q 9.859375 30.765625 7.734375 34.890625 
Q 5.609375 39.015625 5.609375 45.515625 
Q 5.609375 53.078125 10.09375 58.765625 
Q 14.59375 64.453125 21.703125 67.484375 
Q 28.8125 70.515625 36.078125 70.515625 
Q 43.3125 70.515625 50.40625 67.484375 
Q 57.515625 64.453125 62 58.71875 
Q 66.5 52.984375 66.5 45.515625 
Q 66.5 40.4375 64.640625 35.9375 
Q 62.796875 31.453125 59.90625 26.953125 
Q 57.03125 22.46875 53.6875 16.9375 
Q 50.34375 11.421875 49.125 6.890625 
L 55.171875 6.890625 
Q 58.84375 6.890625 60.453125 7.171875 
Q 62.0625 7.46875 62.734375 8.375 
Q 63.421875 9.28125 63.84375 11.5 
Q 64.265625 13.71875 64.796875 16.609375 
L 67.671875 16.609375 
L 64.40625 0 
L 46.6875 0 
Q 45.703125 0 45.703125 1.3125 
Q 45.703125 6.390625 46.9375 11.265625 
Q 48.1875 16.15625 50.625 23.09375 
Q 53.078125 30.03125 54.4375 35.328125 
Q 55.8125 40.625 55.8125 45.515625 
Q 55.8125 51.515625 53.46875 56.640625 
Q 51.125 61.765625 46.625 64.84375 
Q 42.140625 67.921875 36.078125 67.921875 
Q 26.953125 67.921875 21.625 61.40625 
Q 16.3125 54.890625 16.3125 45.515625 
Q 16.359375 40.375 17.53125 35.828125 
Q 18.703125 31.296875 21.3125 23.71875 
Q 23.921875 16.15625 25.171875 11.265625 
Q 26.421875 6.390625 26.421875 1.3125 
Q 26.421875 0 25.390625 0 
z
" id="Cmr10-173"/>
     </defs>
     <use transform="translate(0 0.484375)" xlink:href="#Cmr10-173"/>
    </g>
   </g>
   <g id="text_2">
    <!-- $A$ -->
    <g style="fill:#0000ff;" transform="translate(149.873077 271.651683)scale(0.1 -0.1)">
     <defs>
      <path d="M 4.5 0 
Q 3.515625 0 3.515625 1.3125 
Q 3.90625 3.515625 4.78125 3.515625 
Q 8.84375 3.515625 11.796875 5.125 
Q 14.75 6.734375 16.890625 10.109375 
Q 17.09375 10.296875 17.09375 10.296875 
L 52.78125 70.515625 
Q 53.5625 71.578125 54.6875 71.578125 
L 56 71.578125 
Q 56.296875 71.578125 56.59375 71.453125 
Q 56.890625 71.34375 57.109375 71.0625 
Q 57.328125 70.796875 57.328125 70.515625 
L 63.375 5.90625 
Q 63.375 5.46875 63.8125 4.59375 
Q 64.796875 3.515625 71.296875 3.515625 
Q 72.3125 3.515625 72.3125 2.203125 
Q 71.96875 0.875 71.75 0.4375 
Q 71.53125 0 70.609375 0 
L 45.609375 0 
Q 44.671875 0 44.671875 1.3125 
Q 45.21875 3.515625 46 3.515625 
Q 53.90625 3.515625 54.390625 6.203125 
L 52.875 22.703125 
L 28.21875 22.703125 
L 20.21875 9.28125 
Q 19.484375 8.203125 19.484375 6.78125 
Q 19.484375 5.03125 21.171875 4.265625 
Q 22.859375 3.515625 24.90625 3.515625 
Q 25.875 3.515625 25.875 2.203125 
Q 25.53125 0.78125 25.328125 0.390625 
Q 25.140625 0 24.21875 0 
z
M 30.171875 26.21875 
L 52.484375 26.21875 
L 49.515625 58.59375 
z
" id="Cmmi10-65"/>
     </defs>
     <use transform="translate(0 0.421875)" xlink:href="#Cmmi10-65"/>
    </g>
   </g>
   <g id="text_3">
    <!-- $B$ -->
    <g style="fill:#ff0000;" transform="translate(227.707692 78.497837)scale(0.1 -0.1)">
     <defs>
      <path d="M 4.984375 0 
Q 4 0 4 1.3125 
Q 4.046875 1.5625 4.1875 2.140625 
Q 4.34375 2.734375 4.578125 3.125 
Q 4.828125 3.515625 5.328125 3.515625 
Q 8.15625 3.515625 10.25 3.65625 
Q 12.359375 3.8125 13.8125 4.203125 
Q 14.984375 4.640625 15.71875 6.890625 
L 29.390625 61.8125 
Q 29.59375 62.796875 29.59375 63.1875 
Q 29.59375 64.265625 28.421875 64.40625 
Q 26.515625 64.796875 21.1875 64.796875 
Q 20.21875 64.796875 20.21875 66.109375 
Q 20.265625 66.359375 20.40625 66.96875 
Q 20.5625 67.578125 20.828125 67.9375 
Q 21.09375 68.3125 21.484375 68.3125 
L 57.328125 68.3125 
Q 60.59375 68.3125 63.796875 67.5 
Q 67 66.703125 69.703125 64.9375 
Q 72.40625 63.1875 74 60.5625 
Q 75.59375 57.953125 75.59375 54.5 
Q 75.59375 50.734375 73.65625 47.5 
Q 71.734375 44.28125 68.671875 41.890625 
Q 65.625 39.5 62.078125 37.953125 
Q 58.546875 36.421875 54.6875 35.6875 
Q 57.421875 35.6875 60.21875 34.609375 
Q 63.03125 33.546875 65.234375 31.6875 
Q 67.4375 29.828125 68.78125 27.234375 
Q 70.125 24.65625 70.125 21.6875 
Q 70.125 15.671875 65.921875 10.6875 
Q 61.71875 5.71875 55.34375 2.859375 
Q 48.96875 0 43.015625 0 
z
M 23.390625 4.296875 
Q 23.390625 3.515625 26.8125 3.515625 
L 41.109375 3.515625 
Q 46 3.515625 50.484375 6.21875 
Q 54.984375 8.9375 57.6875 13.421875 
Q 60.40625 17.921875 60.40625 22.796875 
Q 60.40625 25.78125 59.15625 28.4375 
Q 57.90625 31.109375 55.5625 32.640625 
Q 53.21875 34.1875 50.203125 34.1875 
L 30.71875 34.1875 
L 23.78125 6.5 
Q 23.390625 5.125 23.390625 4.296875 
z
M 31.390625 36.8125 
L 46.578125 36.8125 
Q 51.375 36.8125 55.890625 39.25 
Q 60.40625 41.703125 63.25 45.890625 
Q 66.109375 50.09375 66.109375 54.78125 
Q 66.109375 59.125 63.390625 61.953125 
Q 60.6875 64.796875 56.390625 64.796875 
L 42.671875 64.796875 
Q 39.984375 64.796875 39.0625 64.296875 
Q 38.140625 63.8125 37.5 61.375 
z
" id="Cmmi10-66"/>
     </defs>
     <use transform="translate(0 0.6875)" xlink:href="#Cmmi10-66"/>
    </g>
   </g>
   <g id="text_4">
    <!-- $C$ -->
    <g style="fill:#228b22;" transform="translate(103.292308 78.497837)scale(0.1 -0.1)">
     <defs>
      <path d="M 14.59375 21.578125 
Q 14.59375 15.578125 16.90625 11.015625 
Q 19.234375 6.453125 23.65625 3.875 
Q 28.078125 1.3125 34.078125 1.3125 
Q 40.375 1.3125 46.203125 4.53125 
Q 52.046875 7.765625 56.171875 13.15625 
Q 60.296875 18.5625 61.8125 24.609375 
Q 62.015625 25.203125 62.59375 25.203125 
L 63.8125 25.203125 
Q 64.203125 25.203125 64.453125 24.921875 
Q 64.703125 24.65625 64.703125 24.3125 
Q 64.703125 24.21875 64.59375 24.03125 
Q 62.890625 17.09375 57.984375 11.015625 
Q 53.078125 4.9375 46.234375 1.359375 
Q 39.40625 -2.203125 32.171875 -2.203125 
Q 24.359375 -2.203125 18.15625 1.3125 
Q 11.96875 4.828125 8.515625 11.078125 
Q 5.078125 17.328125 5.078125 25.203125 
Q 5.078125 33.59375 8.828125 41.8125 
Q 12.59375 50.046875 18.9375 56.46875 
Q 25.296875 62.890625 33.421875 66.703125 
Q 41.546875 70.515625 49.90625 70.515625 
Q 53.21875 70.515625 56.25 69.5 
Q 59.28125 68.5 61.859375 66.453125 
Q 64.453125 64.40625 66.109375 61.71875 
L 74.03125 70.3125 
Q 74.03125 70.515625 74.515625 70.515625 
L 75.09375 70.515625 
Q 75.484375 70.515625 75.734375 70.171875 
Q 75.984375 69.828125 75.984375 69.484375 
L 69.1875 42.484375 
Q 69.1875 41.796875 68.40625 41.796875 
L 66.609375 41.796875 
Q 65.828125 41.796875 65.828125 42.921875 
Q 66.21875 45.125 66.21875 48.1875 
Q 66.21875 53.078125 64.546875 57.390625 
Q 62.890625 61.71875 59.390625 64.359375 
Q 55.90625 67 50.875 67 
Q 42.71875 67 35.9375 62.890625 
Q 29.15625 58.796875 24.4375 52.125 
Q 19.734375 45.453125 17.15625 37.328125 
Q 14.59375 29.203125 14.59375 21.578125 
z
" id="Cmmi10-67"/>
     </defs>
     <use transform="translate(0 0.484375)" xlink:href="#Cmmi10-67"/>
    </g>
   </g>
   <g id="patch_6">
    <path clip-path="url(#pe5b81ddadb)" d="M 169.2 262.661538 
C 185.724193 262.661538 201.573823 256.096407 213.258192 244.412038 
C 224.942561 232.727669 231.507692 216.878039 231.507692 200.353846 
C 231.507692 183.829653 224.942561 167.980023 213.258192 156.295654 
C 201.573823 144.611285 185.724193 138.046154 169.2 138.046154 
C 152.675807 138.046154 136.826177 144.611285 125.141808 156.295654 
C 113.457439 167.980023 106.892308 183.829653 106.892308 200.353846 
C 106.892308 216.878039 113.457439 232.727669 125.141808 244.412038 
C 136.826177 256.096407 152.675807 262.661538 169.2 262.661538 
z
" style="fill:none;stroke:#0000ff;stroke-linejoin:miter;"/>
   </g>
   <g id="patch_7">
    <path clip-path="url(#pe5b81ddadb)" d="M 200.353846 200.353846 
C 216.878039 200.353846 232.727669 193.788715 244.412038 182.104346 
C 256.096407 170.419977 262.661538 154.570347 262.661538 138.046154 
C 262.661538 121.521961 256.096407 105.672331 244.412038 93.987962 
C 232.727669 82.303593 216.878039 75.738462 200.353846 75.738462 
C 183.829653 75.738462 167.980023 82.303593 156.295654 93.987962 
C 144.611285 105.672331 138.046154 121.521961 138.046154 138.046154 
C 138.046154 154.570347 144.611285 170.419977 156.295654 182.104346 
C 167.980023 193.788715 183.829653 200.353846 200.353846 200.353846 
z
" style="fill:none;stroke:#ff0000;stroke-linejoin:miter;"/>
   </g>
   <g id="patch_8">
    <path clip-path="url(#pe5b81ddadb)" d="M 138.046154 200.353846 
C 154.570347 200.353846 170.419977 193.788715 182.104346 182.104346 
C 193.788715 170.419977 200.353846 154.570347 200.353846 138.046154 
C 200.353846 121.521961 193.788715 105.672331 182.104346 93.987962 
C 170.419977 82.303593 154.570347 75.738462 138.046154 75.738462 
C 121.521961 75.738462 105.672331 82.303593 93.987962 93.987962 
C 82.303593 105.672331 75.738462 121.521961 75.738462 138.046154 
C 75.738462 154.570347 82.303593 170.419977 93.987962 182.104346 
C 105.672331 193.788715 121.521961 200.353846 138.046154 200.353846 
z
" style="fill:none;stroke:#228b22;stroke-linejoin:miter;"/>
   </g>
  </g>
 </g>
 <defs>
  <clipPath id="pe5b81ddadb">
   <rect height="324" width="324" x="7.2" y="7.2"/>
  </clipPath>
 </defs>
</svg>
