<?xml version="1.0" encoding="utf-8" standalone="no"?>
<!DOCTYPE svg PUBLIC "-//W3C//DTD SVG 1.1//EN"
  "http://www.w3.org/Graphics/SVG/1.1/DTD/svg11.dtd">
<!-- Created with matplotlib (https://matplotlib.org/) -->
<svg height="338.4pt" version="1.1" viewBox="0 0 338.4 338.4" width="338.4pt" xmlns="http://www.w3.org/2000/svg" xmlns:xlink="http://www.w3.org/1999/xlink">
 <metadata>
  <rdf:RDF xmlns:cc="http://creativecommons.org/ns#" xmlns:dc="http://purl.org/dc/elements/1.1/" xmlns:rdf="http://www.w3.org/1999/02/22-rdf-syntax-ns#">
   <cc:Work>
    <dc:type rdf:resource="http://purl.org/dc/dcmitype/StillImage"/>
    <dc:date>2024-08-28T16:16:21.781819</dc:date>
    <dc:format>image/svg+xml</dc:format>
    <dc:creator>
     <cc:Agent>
      <dc:title>Matplotlib v3.3.4, https://matplotlib.org/</dc:title>
     </cc:Agent>
    </dc:creator>
   </cc:Work>
  </rdf:RDF>
 </metadata>
 <defs>
  <style type="text/css">*{stroke-linecap:butt;stroke-linejoin:round;}</style>
 </defs>
 <g id="figure_1">
  <g id="patch_1">
   <path d="M -0 338.4 
L 338.4 338.4 
L 338.4 0 
L -0 0 
z
" style="fill:#ffffff;"/>
  </g>
  <g id="axes_1">
   <g id="patch_2">
    <path d="M 7.2 331.2 
L 331.2 331.2 
L 331.2 7.2 
L 7.2 7.2 
z
" style="fill:#ffffff;"/>
   </g>
   <g id="patch_3">
    <path clip-path="url(#p06d6505c54)" d="M 13.430769 324.969231 
L 13.430769 13.430769 
L 324.969231 13.430769 
L 324.969231 324.969231 
z
" style="fill:none;stroke:#000000;stroke-linejoin:miter;"/>
   </g>
   <g id="patch_4">
    <path clip-path="url(#p06d6505c54)" d="M 200.353846 138.046154 
L 200.349063 138.8182 
L 200.344279 139.137971 
L 200.339496 139.383326 
L 200.334713 139.590158 
L 200.329929 139.772369 
L 200.325146 139.937092 
L 200.320363 140.088561 
L 200.315579 140.229537 
L 200.310796 140.361937 
L 200.306013 140.487157 
L 200.301229 140.60625 
L 200.296446 140.720036 
L 200.291663 140.829165 
L 200.286879 140.934166 
L 200.282096 141.035473 
L 200.277313 141.13345 
L 200.267746 141.3206 
L 200.258179 141.497591 
L 200.248613 141.665912 
L 200.239046 141.826723 
L 200.229479 141.980944 
L 200.219912 142.129321 
L 200.210346 142.272471 
L 200.200779 142.410908 
L 200.189 142.575518 
L 200.177222 142.734322 
L 200.165443 142.887892 
L 200.153664 143.036711 
L 200.141886 143.181191 
L 200.130107 143.32169 
L 200.118328 143.458517 
L 200.10655 143.591945 
L 200.082992 143.849532 
L 200.059435 144.096071 
L 200.035878 144.33286 
L 200.01232 144.560964 
L 199.993206 144.740275 
L 199.974092 144.914853 
L 199.954977 145.085051 
L 199.935863 145.251179 
L 199.901393 145.54135 
L 199.866922 145.820545 
L 199.832451 146.089907 
L 199.797981 146.350394 
L 199.76351 146.602816 
L 199.729039 146.847867 
L 199.694569 147.086146 
L 199.660098 147.318176 
L 199.630472 147.51295 
L 199.600847 147.703705 
L 199.571893 147.886473 
L 199.54294 148.065825 
L 199.485033 148.414982 
L 199.427127 148.752445 
L 199.36922 149.079288 
L 199.334992 149.267868 
L 199.300763 149.453228 
L 199.232307 149.814893 
L 199.191496 150.025122 
L 199.150685 150.231588 
L 199.109874 150.434479 
L 199.069063 150.633968 
L 199.012756 150.903913 
L 198.956448 151.168064 
L 198.911582 151.374627 
L 198.866715 151.577888 
L 198.776982 151.975082 
L 198.727911 152.187332 
L 198.678839 152.396275 
L 198.580696 152.804802 
L 198.491099 153.167568 
L 198.432957 153.398109 
L 198.374816 153.625021 
L 198.316674 153.848461 
L 198.258533 154.068574 
L 198.172753 154.387531 
L 198.086973 154.699938 
L 198.065794 154.776105 
L 197.969953 155.11621 
L 197.874111 155.449143 
L 197.79155 155.730502 
L 197.708989 156.007074 
L 197.633641 156.255489 
L 197.558293 156.500253 
L 197.448342 156.851169 
L 197.338391 157.195023 
L 197.252431 157.459171 
L 197.166472 157.719396 
L 197.084658 157.963572 
L 197.002844 158.204458 
L 196.973114 158.291201 
L 196.825625 158.715509 
L 196.692344 159.0907 
L 196.559063 159.458488 
L 196.394125 159.90394 
L 196.300553 160.152113 
L 196.18297 160.459523 
L 196.065387 160.762165 
L 196.000409 160.927432 
L 195.811656 161.399853 
L 195.655076 161.783479 
L 195.506727 162.140365 
L 195.304159 162.617873 
L 195.172146 162.923243 
L 194.959948 163.40495 
L 194.932094 163.467372 
L 194.787645 163.788176 
L 194.575954 164.249784 
L 194.482319 164.450847 
L 194.293368 164.850994 
L 194.053871 165.347878 
L 193.92686 165.60691 
L 193.767567 165.927556 
L 193.647179 166.166868 
L 193.532058 166.393339 
L 193.32391 166.797123 
L 193.155005 167.119562 
L 192.95686 167.492085 
L 192.794948 167.792046 
L 192.660638 168.03793 
L 192.562654 168.21567 
L 192.362765 168.574081 
L 192.242089 168.787806 
L 192.059893 169.106812 
L 191.851957 169.465639 
L 191.775412 169.596357 
L 191.538912 169.995698 
L 191.4755 170.101629 
L 191.241524 170.488428 
L 191.164353 170.614626 
L 190.901608 171.039328 
L 190.727184 171.317126 
L 190.656064 171.429471 
L 190.489351 171.690762 
L 190.273537 172.024808 
L 190.137402 172.233145 
L 190.06096 172.349338 
L 189.872912 172.632793 
L 189.689607 172.905905 
L 189.497331 173.189075 
L 189.398218 173.333743 
L 189.270576 173.518778 
L 189.104934 173.756789 
L 188.952768 173.973374 
L 188.79196 174.200154 
L 188.651396 174.396643 
L 188.484814 174.627434 
L 188.321155 174.852033 
L 188.119784 175.125529 
L 188.024199 175.254265 
L 187.80895 175.541656 
L 187.716172 175.664472 
L 187.533505 175.90445 
L 187.337217 176.159664 
L 187.210515 176.322962 
L 187.108883 176.453147 
L 186.820505 176.818711 
L 186.732888 176.928674 
L 186.514714 177.2003 
L 186.350169 177.403118 
L 186.283919 177.484289 
L 186.0848 177.72659 
L 185.987093 177.844581 
L 185.866253 177.989696 
L 185.593065 178.314501 
L 185.449096 178.483878 
L 185.381608 178.562858 
L 185.216772 178.754646 
L 185.046484 178.951135 
L 184.863836 179.160059 
L 184.673621 179.375657 
L 184.488373 179.583712 
L 184.375945 179.709075 
L 184.2895 179.805003 
L 184.125974 179.98538 
L 183.876835 180.257494 
L 183.741801 180.403636 
L 183.608895 180.546568 
L 183.402338 180.766935 
L 183.293331 180.88237 
L 183.182147 180.999508 
L 183.014754 181.174724 
L 182.842295 181.353824 
L 182.587239 181.6161 
L 182.466717 181.738968 
L 182.307525 181.900225 
L 182.246733 181.961497 
L 182.098439 182.110252 
L 181.939586 182.268491 
L 181.673394 182.531123 
L 181.509862 182.690913 
L 181.426175 182.772234 
L 181.182262 183.007522 
L 181.061505 183.123067 
L 180.978711 183.20193 
L 180.819654 183.352624 
L 180.613556 183.546317 
L 180.420633 183.726041 
L 180.324939 183.814624 
L 180.23017 183.901985 
L 179.972932 184.1373 
L 179.809272 184.285645 
L 179.64429 184.434122 
L 179.606077 184.468361 
L 179.441724 184.614977 
L 179.27007 184.766998 
L 179.050518 184.959805 
L 178.94077 185.055503 
L 178.709095 185.256044 
L 178.576028 185.370332 
L 178.436062 185.489845 
L 178.329679 185.580206 
L 178.067458 185.801193 
L 177.900099 185.940951 
L 177.804602 186.020254 
L 177.578468 186.206767 
L 177.457714 186.305634 
L 177.355392 186.389016 
L 177.210617 186.506379 
L 177.085515 186.607216 
L 176.94117 186.722906 
L 176.761129 186.866224 
L 176.535418 187.044369 
L 176.370026 187.173838 
L 176.172651 187.327172 
L 176.120333 187.367603 
L 175.932897 187.51173 
L 175.795629 187.616565 
L 175.650728 187.726578 
L 175.530305 187.8175 
L 175.333279 187.965276 
L 175.098193 188.140015 
L 175.023755 188.194988 
L 174.807565 188.35368 
L 174.731923 188.408867 
L 174.51539 188.565886 
L 174.31494 188.709984 
L 174.207806 188.786507 
L 174.029877 188.912844 
L 173.909021 188.998124 
L 173.796563 189.077093 
L 173.629931 189.193425 
L 173.45485 189.314787 
L 173.192904 189.494715 
L 173.118948 189.54516 
L 172.936236 189.669121 
L 172.820364 189.747245 
L 172.590528 189.901093 
L 172.420477 190.013975 
L 172.264862 190.116573 
L 172.103655 190.222155 
L 172.082426 190.236006 
L 171.849998 190.386851 
L 171.76844 190.439435 
L 171.524647 190.59555 
L 171.335003 190.715889 
L 171.269822 190.757029 
L 171.124701 190.848221 
L 170.910031 190.982097 
L 170.736517 191.089426 
L 170.543932 191.207634 
L 170.529456 191.21648 
L 170.356823 191.321563 
L 170.08796 191.483699 
L 169.981441 191.547424 
L 169.781341 191.666359 
L 169.594219 191.776667 
L 169.52941 191.814668 
L 169.319372 191.937102 
L 169.2 192.006198 
L 169.2 192.006198 
L 169.420093 192.132672 
L 169.553005 192.208472 
L 169.716476 192.301108 
L 169.836252 192.36857 
L 169.943344 192.428595 
L 170.170828 192.55518 
L 170.336998 192.646862 
L 170.432602 192.699312 
L 170.5826 192.781165 
L 170.719394 192.855348 
L 170.977878 192.99432 
L 171.100686 193.059799 
L 171.311622 193.171445 
L 171.388032 193.211634 
L 171.559452 193.301302 
L 171.714084 193.381609 
L 171.862547 193.458196 
L 172.011446 193.534503 
L 172.149748 193.604928 
L 172.261354 193.661443 
L 172.417993 193.740288 
L 172.598321 193.830375 
L 172.826883 193.943514 
L 172.970155 194.013841 
L 173.103043 194.078665 
L 173.226049 194.13832 
L 173.350471 194.198324 
L 173.582125 194.309139 
L 173.670523 194.351116 
L 173.872599 194.446438 
L 174.098446 194.551928 
L 174.223547 194.609888 
L 174.400445 194.691273 
L 174.495368 194.734668 
L 174.60778 194.78581 
L 174.833739 194.887799 
L 174.933144 194.932324 
L 175.145166 195.026598 
L 175.360266 195.121275 
L 175.474768 195.171279 
L 175.58591 195.219555 
L 175.723792 195.27909 
L 175.855383 195.335541 
L 176.058665 195.422043 
L 176.277313 195.514137 
L 176.450991 195.586592 
L 176.52694 195.618083 
L 176.647281 195.667741 
L 176.800867 195.73069 
L 177.094199 195.849591 
L 177.174371 195.881787 
L 177.285872 195.92635 
L 177.484588 196.005153 
L 177.669957 196.077953 
L 177.752587 196.110184 
L 177.889642 196.163346 
L 178.080828 196.236885 
L 178.248775 196.300891 
L 178.504147 196.397154 
L 178.62428 196.441997 
L 178.67501 196.460849 
L 178.881779 196.537169 
L 179.138803 196.630883 
L 179.285524 196.683807 
L 179.355789 196.709005 
L 179.523438 196.768744 
L 179.739116 196.844805 
L 179.918701 196.90746 
L 180.025945 196.944583 
L 180.173911 196.995444 
L 180.263537 197.026049 
L 180.442453 197.08669 
L 180.605999 197.141594 
L 180.780188 197.199518 
L 180.969127 197.261702 
L 181.133415 197.315231 
L 181.234507 197.347919 
L 181.462528 197.420952 
L 181.606402 197.466536 
L 181.649288 197.48005 
L 181.914125 197.56275 
L 182.113321 197.624101 
L 182.159861 197.63833 
L 182.419823 197.717079 
L 182.50314 197.742057 
L 182.632329 197.780536 
L 182.887073 197.855521 
L 182.991378 197.885883 
L 183.162134 197.935164 
L 183.218541 197.951328 
L 183.519719 198.036659 
L 183.56916 198.050511 
L 183.727572 198.094597 
L 183.936329 198.152007 
L 184.080306 198.191149 
L 184.290117 198.247525 
L 184.400484 198.276867 
L 184.500593 198.303294 
L 184.685346 198.351598 
L 184.885496 198.403247 
L 184.939732 198.41712 
L 185.160608 198.473085 
L 185.355938 198.521862 
L 185.50651 198.559005 
L 185.690557 198.603866 
L 185.752371 198.6188 
L 185.967484 198.67025 
L 186.089009 198.69896 
L 186.215652 198.728606 
L 186.359474 198.761935 
L 186.540931 198.803474 
L 186.679004 198.834699 
L 186.829245 198.868302 
L 187.094246 198.926623 
L 187.206242 198.950908 
L 187.429756 198.998729 
L 187.509151 199.015509 
L 187.728129 199.061232 
L 187.829858 199.082194 
L 187.987552 199.114339 
L 188.169492 199.1509 
L 188.227612 199.162461 
L 188.443148 199.204831 
L 188.611731 199.237422 
L 188.753706 199.264495 
L 188.857236 199.284022 
L 189.085537 199.326442 
L 189.167471 199.341452 
L 189.432058 199.389149 
L 189.532845 199.407008 
L 189.769568 199.448284 
L 189.917865 199.473662 
L 190.039469 199.494198 
L 190.1288 199.509126 
L 190.40472 199.554392 
L 190.473299 199.565446 
L 190.670642 199.596816 
L 190.862958 199.626764 
L 190.905005 199.63323 
L 191.079634 199.659768 
L 191.221159 199.680905 
L 191.479815 199.718677 
L 191.638639 199.741321 
L 191.807533 199.764944 
L 191.929741 199.781743 
L 192.085355 199.802778 
L 192.168256 199.81382 
L 192.310498 199.832504 
L 192.485506 199.855035 
L 192.70161 199.882161 
L 192.870759 199.902859 
L 192.92505 199.909402 
L 193.229868 199.945245 
L 193.32166 199.95574 
L 193.455514 199.970798 
L 193.613137 199.988154 
L 193.850463 200.01352 
L 193.939046 200.022753 
L 194.034748 200.032584 
L 194.310125 200.060039 
L 194.329733 200.061947 
L 194.562117 200.084081 
L 194.64842 200.092077 
L 194.808781 200.106614 
L 194.976022 200.12133 
L 195.127085 200.134232 
L 195.342807 200.152015 
L 195.430844 200.159056 
L 195.648317 200.175909 
L 195.869371 200.192256 
L 196.038315 200.204216 
L 196.079482 200.207061 
L 196.352341 200.225222 
L 196.3787 200.226912 
L 196.524276 200.236048 
L 196.735145 200.248674 
L 196.920019 200.259154 
L 197.00706 200.263897 
L 197.177995 200.272856 
L 197.377325 200.282709 
L 197.565768 200.291436 
L 197.667268 200.295899 
L 197.904771 200.305696 
L 197.996313 200.309229 
L 198.204154 200.316752 
L 198.278073 200.319259 
L 198.46862 200.325319 
L 198.673182 200.331175 
L 198.766172 200.333615 
L 198.87152 200.336211 
L 199.110966 200.341449 
L 199.305921 200.345033 
L 199.48551 200.347795 
L 199.520231 200.348269 
L 199.786716 200.351265 
L 199.87319 200.351992 
L 200.107689 200.35336 
L 200.243594 200.353749 
L 200.353846 200.353846 
z
" style="fill:#808080;opacity:0.5;"/>
   </g>
   <g id="patch_5">
    <path clip-path="url(#p06d6505c54)" d="M 231.507692 200.353846 
L 231.501273 199.459475 
L 231.494854 199.089046 
L 231.488434 198.804829 
L 231.482015 198.565241 
L 231.475596 198.354177 
L 231.469177 198.163374 
L 231.462757 197.987927 
L 231.456338 197.824637 
L 231.449919 197.671284 
L 231.443499 197.526251 
L 231.43708 197.388315 
L 231.430661 197.25653 
L 231.424242 197.13014 
L 231.417822 197.008535 
L 231.411403 196.891209 
L 231.404984 196.777742 
L 231.398564 196.667778 
L 231.392145 196.561011 
L 231.379307 196.356053 
L 231.366468 196.161141 
L 231.353629 195.974935 
L 231.340791 195.796366 
L 231.327952 195.624569 
L 231.315114 195.458832 
L 231.302275 195.298558 
L 231.288644 195.133809 
L 231.275013 194.974137 
L 231.261382 194.819104 
L 231.247751 194.668329 
L 231.230967 194.488043 
L 231.214183 194.313182 
L 231.197399 194.143287 
L 231.180615 193.977962 
L 231.163831 193.81686 
L 231.147047 193.659676 
L 231.130263 193.506141 
L 231.113479 193.356013 
L 231.079911 193.065144 
L 231.046343 192.785595 
L 231.012775 192.516153 
L 230.979206 192.255811 
L 230.95246 192.054316 
L 230.925714 191.857682 
L 230.898967 191.66558 
L 230.872221 191.477715 
L 230.839065 191.250322 
L 230.80591 191.028591 
L 230.772754 190.812126 
L 230.739599 190.600577 
L 230.685616 190.265858 
L 230.631634 189.942174 
L 230.575011 189.613427 
L 230.518387 189.294737 
L 230.461764 188.98526 
L 230.405141 188.684261 
L 230.366455 188.483157 
L 230.327769 188.285527 
L 230.289084 188.091204 
L 230.250398 187.900033 
L 230.203218 187.670948 
L 230.156038 187.446099 
L 230.108858 187.225271 
L 230.061679 187.008263 
L 229.985626 186.666033 
L 229.918839 186.372749 
L 229.852053 186.085806 
L 229.785267 185.804827 
L 229.718481 185.529474 
L 229.683322 185.386672 
L 229.581401 184.980659 
L 229.479481 184.585754 
L 229.418687 184.355152 
L 229.357894 184.128055 
L 229.248511 183.727817 
L 229.139128 183.337694 
L 229.076211 183.117609 
L 228.983295 182.798043 
L 228.890378 182.484675 
L 228.798757 182.181429 
L 228.707135 181.883616 
L 228.628727 181.632872 
L 228.55032 181.385765 
L 228.46988 181.13589 
L 228.38944 180.889554 
L 228.294643 180.603613 
L 228.199845 180.322202 
L 228.039192 179.855115 
L 227.940823 179.574907 
L 227.842453 179.298888 
L 227.796793 179.172147 
L 227.692296 178.885267 
L 227.587798 178.602673 
L 227.478101 178.310447 
L 227.382209 178.058576 
L 227.286317 177.809927 
L 227.167103 177.505136 
L 227.044243 177.195866 
L 226.921384 176.891315 
L 226.772813 176.529074 
L 226.660598 176.259693 
L 226.530216 175.951082 
L 226.41853 175.690345 
L 226.287797 175.389233 
L 226.157064 175.092386 
L 226.011204 174.766044 
L 225.921263 174.567282 
L 225.73128 174.153409 
L 225.541911 173.748629 
L 225.3375 173.319986 
L 225.265507 173.170994 
L 225.012641 172.655515 
L 224.881377 172.392573 
L 224.722468 172.078344 
L 224.62963 171.896779 
L 224.4592 171.567228 
L 224.276532 171.219259 
L 224.20433 171.083175 
L 224.051248 170.797305 
L 223.829378 170.389208 
L 223.686983 170.131053 
L 223.524997 169.840845 
L 223.39648 169.613154 
L 223.134458 169.155724 
L 222.977517 168.88597 
L 222.909329 168.769728 
L 222.714589 168.440883 
L 222.656951 168.344427 
L 222.426528 167.962717 
L 222.273927 167.713276 
L 222.053119 167.356931 
L 222.007632 167.284184 
L 221.767864 166.904359 
L 221.720061 166.829351 
L 221.486028 166.465503 
L 221.366069 166.281133 
L 221.201869 166.031053 
L 221.004069 165.733232 
L 220.848121 165.50101 
L 220.694156 165.273931 
L 220.471496 164.949296 
L 220.391574 164.833834 
L 220.230297 164.60252 
L 220.084899 164.395877 
L 219.979212 164.246781 
L 219.773452 163.959142 
L 219.569667 163.677626 
L 219.389095 163.43091 
L 219.325542 163.344677 
L 219.20145 163.177194 
L 218.991867 162.896958 
L 218.774037 162.609133 
L 218.690207 162.499283 
L 218.46324 162.204381 
L 218.432833 162.165148 
L 218.15571 161.810533 
L 218.103305 161.744064 
L 217.870945 161.451563 
L 217.791847 161.352808 
L 217.521502 161.018353 
L 217.493372 160.983822 
L 217.210773 160.63969 
L 217.07694 160.478451 
L 216.911897 160.28112 
L 216.793667 160.140771 
L 216.646302 159.967004 
L 216.491221 159.785522 
L 216.394027 159.672495 
L 216.190786 159.437902 
L 215.962601 159.177303 
L 215.846923 159.046303 
L 215.65169 158.826878 
L 215.562725 158.727578 
L 215.43654 158.587462 
L 215.174096 158.298751 
L 215.034664 158.146831 
L 214.983562 158.091404 
L 214.76797 157.859039 
L 214.619874 157.700785 
L 214.42459 157.493784 
L 214.270922 157.332218 
L 214.066887 157.119474 
L 213.979526 157.028997 
L 213.856746 156.902454 
L 213.582533 156.622401 
L 213.526696 156.565805 
L 213.269947 156.307413 
L 213.194792 156.232346 
L 213.067562 156.105846 
L 212.920645 155.960674 
L 212.726911 155.770705 
L 212.60394 155.650977 
L 212.337366 155.393684 
L 212.223231 155.284454 
L 212.11223 155.178753 
L 211.97557 155.049331 
L 211.707258 154.79749 
L 211.627673 154.723362 
L 211.533459 154.635942 
L 211.287986 154.409859 
L 211.095176 154.233973 
L 211.05887 154.201018 
L 210.773122 153.943459 
L 210.66704 153.848652 
L 210.533628 153.730035 
L 210.415652 153.625712 
L 210.164337 153.40524 
L 210.095087 153.344907 
L 209.873286 153.152868 
L 209.750769 153.047571 
L 209.543456 152.870648 
L 209.387839 152.738868 
L 209.313291 152.676048 
L 209.058015 152.462436 
L 209.022216 152.432665 
L 208.762556 152.218072 
L 208.615829 152.097852 
L 208.462179 151.972756 
L 208.306511 151.846843 
L 208.182884 151.747434 
L 208.102261 151.682883 
L 207.886236 151.510999 
L 207.727191 151.385447 
L 207.526286 151.228045 
L 207.460011 151.176411 
L 207.192701 150.969606 
L 207.022391 150.839048 
L 206.968048 150.797584 
L 206.715663 150.606247 
L 206.575474 150.500838 
L 206.513131 150.454159 
L 206.370937 150.348147 
L 206.221863 150.237679 
L 206.03204 150.098008 
L 205.798184 149.92745 
L 205.683381 149.844328 
L 205.487373 149.703327 
L 205.391795 149.634989 
L 205.273201 149.550572 
L 205.032304 149.380377 
L 204.93371 149.311212 
L 204.778681 149.20303 
L 204.570296 149.058713 
L 204.484639 148.999754 
L 204.305053 148.876825 
L 204.09024 148.730986 
L 203.914947 148.612944 
L 203.822771 148.551218 
L 203.607336 148.407876 
L 203.56091 148.377156 
L 203.275716 148.189739 
L 203.111652 148.082933 
L 203.054471 148.04588 
L 202.831936 147.902522 
L 202.754711 147.853085 
L 202.510524 147.697816 
L 202.344589 147.59321 
L 202.305864 147.568902 
L 202.148746 147.470686 
L 201.855765 147.289267 
L 201.701414 147.194589 
L 201.660497 147.169594 
L 201.497434 147.070413 
L 201.367549 146.9919 
L 201.143813 146.857665 
L 201.035627 146.793213 
L 200.826344 146.669371 
L 200.657652 146.570348 
L 200.455905 146.452854 
L 200.353846 146.393802 
L 200.353846 200.353846 
L 200.581852 200.353429 
L 200.646831 200.353157 
L 200.879006 200.351633 
L 200.967922 200.35082 
L 201.12294 200.349099 
L 201.316695 200.346406 
L 201.422548 200.34468 
L 201.620041 200.340979 
L 201.764229 200.337882 
L 201.913936 200.334312 
L 202.125002 200.328668 
L 202.180685 200.327059 
L 202.338459 200.322231 
L 202.497417 200.316963 
L 202.686448 200.310168 
L 202.848705 200.303878 
L 202.995264 200.297832 
L 203.148613 200.291136 
L 203.290551 200.284601 
L 203.540997 200.272279 
L 203.687083 200.264624 
L 203.811762 200.257819 
L 203.901339 200.252776 
L 204.034081 200.245064 
L 204.235416 200.232824 
L 204.387267 200.22316 
L 204.543801 200.212807 
L 204.692785 200.202587 
L 204.851222 200.191324 
L 204.999509 200.180414 
L 205.156391 200.168485 
L 205.344105 200.153688 
L 205.485156 200.142194 
L 205.645597 200.128727 
L 205.795228 200.115791 
L 205.914386 200.10523 
L 206.193577 200.079581 
L 206.297178 200.069741 
L 206.384868 200.061275 
L 206.542809 200.045712 
L 206.736226 200.0261 
L 206.939569 200.004824 
L 207.032881 199.994834 
L 207.320377 199.963163 
L 207.409396 199.953082 
L 207.594816 199.931668 
L 207.706082 199.918548 
L 207.820783 199.90481 
L 208.075656 199.873512 
L 208.236155 199.853255 
L 208.364739 199.83672 
L 208.469954 199.822989 
L 208.650414 199.799012 
L 208.803445 199.778259 
L 208.95594 199.757194 
L 209.056749 199.743058 
L 209.301319 199.708065 
L 209.43742 199.688162 
L 209.512365 199.677072 
L 209.668995 199.653593 
L 209.913999 199.616049 
L 210.068719 199.591826 
L 210.226528 199.566709 
L 210.397347 199.539053 
L 210.471798 199.526846 
L 210.680118 199.4922 
L 210.851628 199.463131 
L 211.060139 199.427127 
L 211.190026 199.40433 
L 211.30245 199.384369 
L 211.409672 199.365133 
L 211.667427 199.3181 
L 211.707699 199.310651 
L 211.938293 199.267466 
L 212.060772 199.244164 
L 212.314137 199.195152 
L 212.330562 199.191937 
L 212.540326 199.150476 
L 212.793054 199.099529 
L 212.951428 199.067047 
L 213.103253 199.035507 
L 213.11865 199.032286 
L 213.27893 198.998518 
L 213.494967 198.952307 
L 213.605635 198.928324 
L 213.752816 198.896102 
L 213.919803 198.859091 
L 214.126248 198.81267 
L 214.318035 198.768884 
L 214.420456 198.745239 
L 214.607149 198.701672 
L 214.697856 198.680285 
L 214.933649 198.62402 
L 215.117839 198.579393 
L 215.226827 198.552707 
L 215.420284 198.504825 
L 215.613884 198.45625 
L 215.718229 198.429796 
L 215.867716 198.391563 
L 216.005767 198.355904 
L 216.099704 198.331446 
L 216.303045 198.277969 
L 216.436114 198.242575 
L 216.679006 198.177158 
L 216.724902 198.164679 
L 217.001115 198.08878 
L 217.160797 198.044278 
L 217.255146 198.017769 
L 217.371195 197.984942 
L 217.643643 197.906921 
L 217.730531 197.881756 
L 217.908919 197.829663 
L 218.089917 197.776216 
L 218.237527 197.732186 
L 218.432249 197.673496 
L 218.444971 197.669637 
L 218.73323 197.58141 
L 218.748758 197.576614 
L 219.025831 197.490292 
L 219.170199 197.444751 
L 219.282567 197.409038 
L 219.478064 197.346346 
L 219.643868 197.292619 
L 219.793299 197.243757 
L 219.86684 197.219556 
L 220.023726 197.167591 
L 220.224208 197.100512 
L 220.36795 197.051952 
L 220.489922 197.010439 
L 220.631608 196.961864 
L 220.834223 196.891737 
L 221.091046 196.801724 
L 221.166827 196.774923 
L 221.292439 196.730256 
L 221.504989 196.653983 
L 221.602149 196.618828 
L 221.764174 196.559797 
L 222.00202 196.472219 
L 222.174723 196.407938 
L 222.262781 196.374938 
L 222.364722 196.336546 
L 222.54929 196.266518 
L 222.676016 196.218048 
L 222.906771 196.128975 
L 223.037266 196.078136 
L 223.185541 196.01996 
L 223.35656 195.952316 
L 223.478785 195.903614 
L 223.757199 195.791557 
L 223.897645 195.734437 
L 223.999114 195.692922 
L 224.135532 195.636778 
L 224.273821 195.579478 
L 224.454654 195.503961 
L 224.594754 195.444995 
L 224.792893 195.360912 
L 224.893704 195.317821 
L 225.047685 195.251598 
L 225.206216 195.182904 
L 225.369551 195.111581 
L 225.543309 195.035096 
L 225.642227 194.99127 
L 225.94451 194.856069 
L 225.965902 194.846428 
L 226.223111 194.729746 
L 226.392458 194.652154 
L 226.571844 194.569292 
L 226.720687 194.500013 
L 226.784548 194.470143 
L 226.928098 194.402677 
L 227.11795 194.312762 
L 227.210634 194.268583 
L 227.465156 194.146291 
L 227.667739 194.047937 
L 227.758858 194.003404 
L 227.93434 193.91712 
L 227.994531 193.887367 
L 228.206409 193.781989 
L 228.328216 193.720952 
L 228.487738 193.640512 
L 228.684328 193.540589 
L 228.797836 193.482495 
L 228.991534 193.382682 
L 229.207576 193.270341 
L 229.382869 193.178398 
L 229.477309 193.128569 
L 229.632789 193.046081 
L 229.856844 192.92622 
L 230.016644 192.840013 
L 230.152861 192.766052 
L 230.269258 192.702505 
L 230.485699 192.58348 
L 230.512896 192.568445 
L 230.71441 192.45649 
L 230.884432 192.36127 
L 231.091653 192.24427 
L 231.182327 192.192745 
L 231.410759 192.062047 
L 231.507692 192.006198 
z
" style="fill:#808080;opacity:0.5;"/>
   </g>
   <g id="matplotlib.axis_1"/>
   <g id="matplotlib.axis_2"/>
   <g id="line2d_1">
    <path clip-path="url(#p06d6505c54)" d="M 169.2 192.006198 
L 172.417993 193.740288 
L 175.855383 195.335541 
L 179.355789 196.709005 
L 182.887073 197.855521 
L 186.540931 198.803474 
L 190.1288 199.509126 
L 193.939046 200.022753 
L 197.667268 200.295899 
L 200.353846 200.353846 
L 200.353846 200.353846 
" style="fill:none;stroke:#ff0000;stroke-linecap:square;"/>
   </g>
   <g id="line2d_2">
    <path clip-path="url(#p06d6505c54)" d="M 200.353846 200.353846 
L 204.034081 200.245064 
L 207.820783 199.90481 
L 211.409672 199.365133 
L 215.117839 198.579393 
L 218.748758 197.576614 
L 222.364722 196.336546 
L 225.642227 194.99127 
L 228.991534 193.382682 
L 231.507692 192.006198 
L 231.507692 192.006198 
" style="fill:none;stroke:#ff0000;stroke-linecap:square;"/>
   </g>
   <g id="text_1">
    <!-- $\Omega$ -->
    <g transform="translate(16.011538 22.420913)scale(0.1 -0.1)">
     <defs>
      <path d="M 7.71875 0 
L 4.390625 16.609375 
L 7.328125 16.609375 
Q 7.859375 13.71875 8.296875 11.5 
Q 8.734375 9.28125 9.4375 8.375 
Q 10.15625 7.46875 11.71875 7.171875 
Q 13.28125 6.890625 16.890625 6.890625 
L 23 6.890625 
Q 21.53125 12.546875 15.6875 21.65625 
Q 9.859375 30.765625 7.734375 34.890625 
Q 5.609375 39.015625 5.609375 45.515625 
Q 5.609375 53.078125 10.09375 58.765625 
Q 14.59375 64.453125 21.703125 67.484375 
Q 28.8125 70.515625 36.078125 70.515625 
Q 43.3125 70.515625 50.40625 67.484375 
Q 57.515625 64.453125 62 58.71875 
Q 66.5 52.984375 66.5 45.515625 
Q 66.5 40.4375 64.640625 35.9375 
Q 62.796875 31.453125 59.90625 26.953125 
Q 57.03125 22.46875 53.6875 16.9375 
Q 50.34375 11.421875 49.125 6.890625 
L 55.171875 6.890625 
Q 58.84375 6.890625 60.453125 7.171875 
Q 62.0625 7.46875 62.734375 8.375 
Q 63.421875 9.28125 63.84375 11.5 
Q 64.265625 13.71875 64.796875 16.609375 
L 67.671875 16.609375 
L 64.40625 0 
L 46.6875 0 
Q 45.703125 0 45.703125 1.3125 
Q 45.703125 6.390625 46.9375 11.265625 
Q 48.1875 16.15625 50.625 23.09375 
Q 53.078125 30.03125 54.4375 35.328125 
Q 55.8125 40.625 55.8125 45.515625 
Q 55.8125 51.515625 53.46875 56.640625 
Q 51.125 61.765625 46.625 64.84375 
Q 42.140625 67.921875 36.078125 67.921875 
Q 26.953125 67.921875 21.625 61.40625 
Q 16.3125 54.890625 16.3125 45.515625 
Q 16.359375 40.375 17.53125 35.828125 
Q 18.703125 31.296875 21.3125 23.71875 
Q 23.921875 16.15625 25.171875 11.265625 
Q 26.421875 6.390625 26.421875 1.3125 
Q 26.421875 0 25.390625 0 
z
" id="Cmr10-173"/>
     </defs>
     <use transform="translate(0 0.484375)" xlink:href="#Cmr10-173"/>
    </g>
   </g>
   <g id="text_2">
    <!-- $A$ -->
    <g style="fill:#0000ff;" transform="translate(149.873077 271.651683)scale(0.1 -0.1)">
     <defs>
      <path d="M 4.5 0 
Q 3.515625 0 3.515625 1.3125 
Q 3.90625 3.515625 4.78125 3.515625 
Q 8.84375 3.515625 11.796875 5.125 
Q 14.75 6.734375 16.890625 10.109375 
Q 17.09375 10.296875 17.09375 10.296875 
L 52.78125 70.515625 
Q 53.5625 71.578125 54.6875 71.578125 
L 56 71.578125 
Q 56.296875 71.578125 56.59375 71.453125 
Q 56.890625 71.34375 57.109375 71.0625 
Q 57.328125 70.796875 57.328125 70.515625 
L 63.375 5.90625 
Q 63.375 5.46875 63.8125 4.59375 
Q 64.796875 3.515625 71.296875 3.515625 
Q 72.3125 3.515625 72.3125 2.203125 
Q 71.96875 0.875 71.75 0.4375 
Q 71.53125 0 70.609375 0 
L 45.609375 0 
Q 44.671875 0 44.671875 1.3125 
Q 45.21875 3.515625 46 3.515625 
Q 53.90625 3.515625 54.390625 6.203125 
L 52.875 22.703125 
L 28.21875 22.703125 
L 20.21875 9.28125 
Q 19.484375 8.203125 19.484375 6.78125 
Q 19.484375 5.03125 21.171875 4.265625 
Q 22.859375 3.515625 24.90625 3.515625 
Q 25.875 3.515625 25.875 2.203125 
Q 25.53125 0.78125 25.328125 0.390625 
Q 25.140625 0 24.21875 0 
z
M 30.171875 26.21875 
L 52.484375 26.21875 
L 49.515625 58.59375 
z
" id="Cmmi10-65"/>
     </defs>
     <use transform="translate(0 0.421875)" xlink:href="#Cmmi10-65"/>
    </g>
   </g>
   <g id="text_3">
    <!-- $B$ -->
    <g style="fill:#ff0000;" transform="translate(227.707692 78.497837)scale(0.1 -0.1)">
     <defs>
      <path d="M 4.984375 0 
Q 4 0 4 1.3125 
Q 4.046875 1.5625 4.1875 2.140625 
Q 4.34375 2.734375 4.578125 3.125 
Q 4.828125 3.515625 5.328125 3.515625 
Q 8.15625 3.515625 10.25 3.65625 
Q 12.359375 3.8125 13.8125 4.203125 
Q 14.984375 4.640625 15.71875 6.890625 
L 29.390625 61.8125 
Q 29.59375 62.796875 29.59375 63.1875 
Q 29.59375 64.265625 28.421875 64.40625 
Q 26.515625 64.796875 21.1875 64.796875 
Q 20.21875 64.796875 20.21875 66.109375 
Q 20.265625 66.359375 20.40625 66.96875 
Q 20.5625 67.578125 20.828125 67.9375 
Q 21.09375 68.3125 21.484375 68.3125 
L 57.328125 68.3125 
Q 60.59375 68.3125 63.796875 67.5 
Q 67 66.703125 69.703125 64.9375 
Q 72.40625 63.1875 74 60.5625 
Q 75.59375 57.953125 75.59375 54.5 
Q 75.59375 50.734375 73.65625 47.5 
Q 71.734375 44.28125 68.671875 41.890625 
Q 65.625 39.5 62.078125 37.953125 
Q 58.546875 36.421875 54.6875 35.6875 
Q 57.421875 35.6875 60.21875 34.609375 
Q 63.03125 33.546875 65.234375 31.6875 
Q 67.4375 29.828125 68.78125 27.234375 
Q 70.125 24.65625 70.125 21.6875 
Q 70.125 15.671875 65.921875 10.6875 
Q 61.71875 5.71875 55.34375 2.859375 
Q 48.96875 0 43.015625 0 
z
M 23.390625 4.296875 
Q 23.390625 3.515625 26.8125 3.515625 
L 41.109375 3.515625 
Q 46 3.515625 50.484375 6.21875 
Q 54.984375 8.9375 57.6875 13.421875 
Q 60.40625 17.921875 60.40625 22.796875 
Q 60.40625 25.78125 59.15625 28.4375 
Q 57.90625 31.109375 55.5625 32.640625 
Q 53.21875 34.1875 50.203125 34.1875 
L 30.71875 34.1875 
L 23.78125 6.5 
Q 23.390625 5.125 23.390625 4.296875 
z
M 31.390625 36.8125 
L 46.578125 36.8125 
Q 51.375 36.8125 55.890625 39.25 
Q 60.40625 41.703125 63.25 45.890625 
Q 66.109375 50.09375 66.109375 54.78125 
Q 66.109375 59.125 63.390625 61.953125 
Q 60.6875 64.796875 56.390625 64.796875 
L 42.671875 64.796875 
Q 39.984375 64.796875 39.0625 64.296875 
Q 38.140625 63.8125 37.5 61.375 
z
" id="Cmmi10-66"/>
     </defs>
     <use transform="translate(0 0.6875)" xlink:href="#Cmmi10-66"/>
    </g>
   </g>
   <g id="text_4">
    <!-- $C$ -->
    <g style="fill:#228b22;" transform="translate(103.292308 78.497837)scale(0.1 -0.1)">
     <defs>
      <path d="M 14.59375 21.578125 
Q 14.59375 15.578125 16.90625 11.015625 
Q 19.234375 6.453125 23.65625 3.875 
Q 28.078125 1.3125 34.078125 1.3125 
Q 40.375 1.3125 46.203125 4.53125 
Q 52.046875 7.765625 56.171875 13.15625 
Q 60.296875 18.5625 61.8125 24.609375 
Q 62.015625 25.203125 62.59375 25.203125 
L 63.8125 25.203125 
Q 64.203125 25.203125 64.453125 24.921875 
Q 64.703125 24.65625 64.703125 24.3125 
Q 64.703125 24.21875 64.59375 24.03125 
Q 62.890625 17.09375 57.984375 11.015625 
Q 53.078125 4.9375 46.234375 1.359375 
Q 39.40625 -2.203125 32.171875 -2.203125 
Q 24.359375 -2.203125 18.15625 1.3125 
Q 11.96875 4.828125 8.515625 11.078125 
Q 5.078125 17.328125 5.078125 25.203125 
Q 5.078125 33.59375 8.828125 41.8125 
Q 12.59375 50.046875 18.9375 56.46875 
Q 25.296875 62.890625 33.421875 66.703125 
Q 41.546875 70.515625 49.90625 70.515625 
Q 53.21875 70.515625 56.25 69.5 
Q 59.28125 68.5 61.859375 66.453125 
Q 64.453125 64.40625 66.109375 61.71875 
L 74.03125 70.3125 
Q 74.03125 70.515625 74.515625 70.515625 
L 75.09375 70.515625 
Q 75.484375 70.515625 75.734375 70.171875 
Q 75.984375 69.828125 75.984375 69.484375 
L 69.1875 42.484375 
Q 69.1875 41.796875 68.40625 41.796875 
L 66.609375 41.796875 
Q 65.828125 41.796875 65.828125 42.921875 
Q 66.21875 45.125 66.21875 48.1875 
Q 66.21875 53.078125 64.546875 57.390625 
Q 62.890625 61.71875 59.390625 64.359375 
Q 55.90625 67 50.875 67 
Q 42.71875 67 35.9375 62.890625 
Q 29.15625 58.796875 24.4375 52.125 
Q 19.734375 45.453125 17.15625 37.328125 
Q 14.59375 29.203125 14.59375 21.578125 
z
" id="Cmmi10-67"/>
     </defs>
     <use transform="translate(0 0.484375)" xlink:href="#Cmmi10-67"/>
    </g>
   </g>
   <g id="patch_6">
    <path clip-path="url(#p06d6505c54)" d="M 169.2 262.661538 
C 185.724193 262.661538 201.573823 256.096407 213.258192 244.412038 
C 224.942561 232.727669 231.507692 216.878039 231.507692 200.353846 
C 231.507692 183.829653 224.942561 167.980023 213.258192 156.295654 
C 201.573823 144.611285 185.724193 138.046154 169.2 138.046154 
C 152.675807 138.046154 136.826177 144.611285 125.141808 156.295654 
C 113.457439 167.980023 106.892308 183.829653 106.892308 200.353846 
C 106.892308 216.878039 113.457439 232.727669 125.141808 244.412038 
C 136.826177 256.096407 152.675807 262.661538 169.2 262.661538 
z
" style="fill:none;stroke:#0000ff;stroke-linejoin:miter;"/>
   </g>
   <g id="patch_7">
    <path clip-path="url(#p06d6505c54)" d="M 200.353846 200.353846 
C 216.878039 200.353846 232.727669 193.788715 244.412038 182.104346 
C 256.096407 170.419977 262.661538 154.570347 262.661538 138.046154 
C 262.661538 121.521961 256.096407 105.672331 244.412038 93.987962 
C 232.727669 82.303593 216.878039 75.738462 200.353846 75.738462 
C 183.829653 75.738462 167.980023 82.303593 156.295654 93.987962 
C 144.611285 105.672331 138.046154 121.521961 138.046154 138.046154 
C 138.046154 154.570347 144.611285 170.419977 156.295654 182.104346 
C 167.980023 193.788715 183.829653 200.353846 200.353846 200.353846 
z
" style="fill:none;stroke:#ff0000;stroke-linejoin:miter;"/>
   </g>
   <g id="patch_8">
    <path clip-path="url(#p06d6505c54)" d="M 138.046154 200.353846 
C 154.570347 200.353846 170.419977 193.788715 182.104346 182.104346 
C 193.788715 170.419977 200.353846 154.570347 200.353846 138.046154 
C 200.353846 121.521961 193.788715 105.672331 182.104346 93.987962 
C 170.419977 82.303593 154.570347 75.738462 138.046154 75.738462 
C 121.521961 75.738462 105.672331 82.303593 93.987962 93.987962 
C 82.303593 105.672331 75.738462 121.521961 75.738462 138.046154 
C 75.738462 154.570347 82.303593 170.419977 93.987962 182.104346 
C 105.672331 193.788715 121.521961 200.353846 138.046154 200.353846 
z
" style="fill:none;stroke:#228b22;stroke-linejoin:miter;"/>
   </g>
  </g>
 </g>
 <defs>
  <clipPath id="p06d6505c54">
   <rect height="324" width="324" x="7.2" y="7.2"/>
  </clipPath>
 </defs>
</svg>
