<?xml version="1.0" encoding="utf-8" standalone="no"?>
<!DOCTYPE svg PUBLIC "-//W3C//DTD SVG 1.1//EN"
  "http://www.w3.org/Graphics/SVG/1.1/DTD/svg11.dtd">
<!-- Created with matplotlib (https://matplotlib.org/) -->
<svg height="338.4pt" version="1.1" viewBox="0 0 338.4 338.4" width="338.4pt" xmlns="http://www.w3.org/2000/svg" xmlns:xlink="http://www.w3.org/1999/xlink">
 <metadata>
  <rdf:RDF xmlns:cc="http://creativecommons.org/ns#" xmlns:dc="http://purl.org/dc/elements/1.1/" xmlns:rdf="http://www.w3.org/1999/02/22-rdf-syntax-ns#">
   <cc:Work>
    <dc:type rdf:resource="http://purl.org/dc/dcmitype/StillImage"/>
    <dc:date>2024-11-18T20:48:47.684824</dc:date>
    <dc:format>image/svg+xml</dc:format>
    <dc:creator>
     <cc:Agent>
      <dc:title>Matplotlib v3.3.4, https://matplotlib.org/</dc:title>
     </cc:Agent>
    </dc:creator>
   </cc:Work>
  </rdf:RDF>
 </metadata>
 <defs>
  <style type="text/css">*{stroke-linecap:butt;stroke-linejoin:round;}</style>
 </defs>
 <g id="figure_1">
  <g id="patch_1">
   <path d="M -0 338.4 
L 338.4 338.4 
L 338.4 0 
L -0 0 
z
" style="fill:#ffffff;"/>
  </g>
  <g id="axes_1">
   <g id="patch_2">
    <path d="M 7.2 331.2 
L 331.2 331.2 
L 331.2 7.2 
L 7.2 7.2 
z
" style="fill:#ffffff;"/>
   </g>
   <g id="patch_3">
    <path clip-path="url(#pe224ae9e50)" d="M 13.430769 324.969231 
L 13.430769 13.430769 
L 324.969231 13.430769 
L 324.969231 324.969231 
z
" style="fill:none;stroke:#000000;stroke-linejoin:miter;"/>
   </g>
   <g id="patch_4">
    <path clip-path="url(#pe224ae9e50)" d="M 200.353846 138.046154 
L 200.350022 138.736466 
L 200.346198 139.022388 
L 200.342374 139.241773 
L 200.33855 139.426715 
L 200.334725 139.589645 
L 200.330901 139.736937 
L 200.327077 139.872381 
L 200.323253 139.998443 
L 200.319429 140.116837 
L 200.315605 140.228812 
L 200.311781 140.33531 
L 200.307957 140.437063 
L 200.304132 140.534653 
L 200.300308 140.628551 
L 200.29266 140.806768 
L 200.285012 140.974138 
L 200.277363 141.132425 
L 200.269715 141.282963 
L 200.262067 141.426787 
L 200.254419 141.56472 
L 200.24677 141.69743 
L 200.239122 141.825468 
L 200.231474 141.949293 
L 200.217039 142.172841 
L 200.202604 142.384839 
L 200.18817 142.586903 
L 200.173735 142.780307 
L 200.1593 142.966072 
L 200.144865 143.145033 
L 200.13043 143.317882 
L 200.115996 143.485203 
L 200.101561 143.647491 
L 200.087126 143.805171 
L 200.072691 143.958613 
L 200.058257 144.108137 
L 200.043822 144.254027 
L 200.029387 144.396534 
L 200.000517 144.672265 
L 199.973787 144.917604 
L 199.947056 145.15438 
L 199.920325 145.383422 
L 199.893594 145.605433 
L 199.86281 145.853171 
L 199.832027 146.093169 
L 199.801243 146.326099 
L 199.770459 146.552541 
L 199.737302 146.789766 
L 199.704145 147.0206 
L 199.670987 147.245524 
L 199.63783 147.464962 
L 199.604673 147.679288 
L 199.571515 147.888837 
L 199.538358 148.093907 
L 199.505201 148.294767 
L 199.449083 148.625797 
L 199.392965 148.94649 
L 199.334404 149.271079 
L 199.268466 149.625319 
L 199.202528 149.968673 
L 199.13659 150.302057 
L 199.070652 150.626264 
L 199.015435 150.891203 
L 198.960218 151.150554 
L 198.916268 151.353209 
L 198.872318 151.55268 
L 198.784418 151.94262 
L 198.701417 152.300541 
L 198.618416 152.649221 
L 198.534795 152.991815 
L 198.451174 153.326273 
L 198.372778 153.632907 
L 198.294383 153.933238 
L 198.235992 154.153042 
L 198.166906 154.409027 
L 198.09782 154.660782 
L 198.028734 154.908495 
L 197.959648 155.152343 
L 197.869499 155.464992 
L 197.762654 155.827832 
L 197.65581 156.182786 
L 197.539178 156.561786 
L 197.455288 156.829211 
L 197.322931 157.242827 
L 197.190573 157.646822 
L 197.131743 157.823456 
L 197.010336 158.182532 
L 196.88893 158.534596 
L 196.79389 158.805537 
L 196.698851 159.072558 
L 196.535317 159.523265 
L 196.419231 159.836802 
L 196.336453 160.057278 
L 196.169892 160.493416 
L 196.054718 160.789394 
L 195.939545 161.080993 
L 195.765481 161.513744 
L 195.634708 161.83285 
L 195.471447 162.22433 
L 195.293524 162.64264 
L 195.22993 162.790129 
L 195.106747 163.072884 
L 194.983565 163.35188 
L 194.921037 163.4921 
L 194.791049 163.780671 
L 194.661061 164.065393 
L 194.532091 164.344204 
L 194.389915 164.647452 
L 194.262899 164.914836 
L 194.144059 165.162082 
L 193.947432 165.56516 
L 193.793464 165.875741 
L 193.630228 166.200358 
L 193.441777 166.569362 
L 193.346014 166.754585 
L 193.08404 167.253681 
L 192.926397 167.548823 
L 192.898204 167.601205 
L 192.694729 167.975768 
L 192.470546 168.381513 
L 192.311327 168.66542 
L 192.241613 168.788644 
L 192.116479 169.008203 
L 191.946642 169.302927 
L 191.677042 169.763283 
L 191.614061 169.869539 
L 191.443118 170.155541 
L 191.34814 170.31296 
L 191.056227 170.790324 
L 190.901896 171.038866 
L 190.821676 171.167035 
L 190.721238 171.326539 
L 190.461963 171.733414 
L 190.407101 171.818624 
L 190.145961 172.2201 
L 190.042246 172.377698 
L 189.838909 172.683691 
L 189.770802 172.785315 
L 189.550297 173.111404 
L 189.367519 173.378378 
L 189.309484 173.462527 
L 189.023312 173.873208 
L 188.933162 174.001139 
L 188.703309 174.324263 
L 188.60259 174.464491 
L 188.42558 174.708968 
L 188.314154 174.861594 
L 188.070225 175.192363 
L 188.012387 175.270125 
L 187.773492 175.588668 
L 187.72618 175.651254 
L 187.574357 175.850989 
L 187.329211 176.170016 
L 187.261381 176.257539 
L 186.98636 176.609151 
L 186.85151 176.779676 
L 186.74876 176.908792 
L 186.616863 177.073512 
L 186.458911 177.269278 
L 186.189493 177.599503 
L 186.035752 177.785895 
L 185.979248 177.85403 
L 185.850811 178.008177 
L 185.706874 178.179735 
L 185.419372 178.518696 
L 185.382011 178.562387 
L 185.2456 178.721217 
L 184.952387 179.059003 
L 184.801793 179.230601 
L 184.686389 179.361248 
L 184.569315 179.493035 
L 184.352872 179.734718 
L 184.206808 179.896393 
L 184.066945 180.050145 
L 183.989736 180.134582 
L 183.709727 180.438212 
L 183.654292 180.497847 
L 183.436777 180.730341 
L 183.290883 180.884957 
L 183.089875 181.09626 
L 182.909173 181.28454 
L 182.80025 181.397272 
L 182.593073 181.610136 
L 182.539541 181.664808 
L 182.338579 181.86886 
L 182.15231 182.056329 
L 181.981181 182.227167 
L 181.851388 182.355859 
L 181.764779 182.441315 
L 181.541478 182.660112 
L 181.418654 182.779528 
L 181.184708 183.005176 
L 181.022457 183.160297 
L 180.869639 183.305381 
L 180.831906 183.341054 
L 180.556867 183.599285 
L 180.549177 183.606461 
L 180.307675 183.830565 
L 180.231224 183.901016 
L 179.931206 184.175222 
L 179.883925 184.218109 
L 179.717367 184.368486 
L 179.552871 184.515939 
L 179.413781 184.639801 
L 179.180712 184.84569 
L 179.096427 184.919639 
L 178.898343 185.092378 
L 178.809917 185.169016 
L 178.570673 185.374918 
L 178.47587 185.455927 
L 178.264635 185.635252 
L 178.177105 185.709088 
L 178.017307 185.843177 
L 177.775733 186.044165 
L 177.632792 186.162124 
L 177.500912 186.270324 
L 177.287211 186.444377 
L 177.127035 186.573808 
L 176.953532 186.713026 
L 176.918078 186.741349 
L 176.776904 186.85371 
L 176.635588 186.965517 
L 176.46517 187.099469 
L 176.231386 187.281675 
L 176.016766 187.44738 
L 175.892616 187.542556 
L 175.771729 187.634756 
L 175.54888 187.803505 
L 175.410892 187.907209 
L 175.265449 188.01587 
L 175.10205 188.137162 
L 175.041819 188.181663 
L 174.892008 188.291865 
L 174.67136 188.452927 
L 174.513175 188.567485 
L 174.344123 188.68908 
L 174.171273 188.812523 
L 174.108032 188.857466 
L 173.931259 188.982464 
L 173.667188 189.167484 
L 173.601819 189.212971 
L 173.459918 189.311287 
L 173.263462 189.446443 
L 173.147332 189.525818 
L 172.973655 189.643811 
L 172.783437 189.772063 
L 172.57307 189.912719 
L 172.423536 190.011951 
L 172.338439 190.068147 
L 172.117114 190.213368 
L 172.011088 190.282461 
L 171.908059 190.349308 
L 171.751377 190.450414 
L 171.489495 190.617928 
L 171.417743 190.663504 
L 171.17037 190.819583 
L 171.098717 190.864489 
L 170.927958 190.970964 
L 170.813663 191.041804 
L 170.655475 191.139286 
L 170.43939 191.271399 
L 170.274207 191.371581 
L 170.073653 191.492274 
L 169.968641 191.555063 
L 169.816397 191.645596 
L 169.687196 191.721968 
L 169.551693 191.801614 
L 169.286022 191.956442 
L 169.2 192.006198 
L 169.2 192.006198 
L 169.27895 192.051703 
L 169.56025 192.212592 
L 169.730922 192.309263 
L 169.883566 192.395124 
L 169.951885 192.43337 
L 170.185909 192.563528 
L 170.283275 192.617293 
L 170.45498 192.711557 
L 170.560974 192.769397 
L 170.749256 192.871484 
L 170.988664 193.000085 
L 171.079476 193.048515 
L 171.209097 193.117309 
L 171.316392 193.173958 
L 171.588457 193.316407 
L 171.662732 193.355 
L 171.826363 193.439576 
L 172.080376 193.569657 
L 172.178502 193.619515 
L 172.333723 193.697939 
L 172.540431 193.801534 
L 172.672761 193.867351 
L 172.72343 193.892448 
L 172.991776 194.024414 
L 173.157585 194.105158 
L 173.214158 194.132568 
L 173.438807 194.240719 
L 173.594631 194.315088 
L 173.773387 194.399749 
L 173.827266 194.425131 
L 174.116526 194.560325 
L 174.262147 194.627703 
L 174.404194 194.69299 
L 174.592466 194.778859 
L 174.6253 194.793757 
L 174.777996 194.86274 
L 175.068021 194.992405 
L 175.162208 195.034134 
L 175.240541 195.068697 
L 175.49023 195.178011 
L 175.602077 195.226556 
L 175.72181 195.278237 
L 176.000243 195.39727 
L 176.082396 195.432086 
L 176.238034 195.497665 
L 176.450507 195.586391 
L 176.619041 195.656114 
L 176.66371 195.674497 
L 176.883121 195.764206 
L 176.957685 195.794471 
L 177.126724 195.862668 
L 177.409276 195.97538 
L 177.499039 196.010853 
L 177.674353 196.079671 
L 177.829232 196.13996 
L 178.001016 196.206273 
L 178.090841 196.240716 
L 178.266456 196.307597 
L 178.485495 196.390166 
L 178.58749 196.428294 
L 178.706454 196.472509 
L 178.864347 196.530767 
L 179.059506 196.602107 
L 179.212031 196.657349 
L 179.428782 196.735081 
L 179.592485 196.793191 
L 179.765419 196.854021 
L 179.864139 196.888489 
L 180.002567 196.936509 
L 180.146089 196.985912 
L 180.242964 197.019037 
L 180.469046 197.095652 
L 180.706422 197.175057 
L 180.789657 197.20265 
L 180.892711 197.236632 
L 181.110403 197.307764 
L 181.254379 197.354323 
L 181.48165 197.427032 
L 181.502984 197.433808 
L 181.70354 197.497097 
L 181.840786 197.539978 
L 182.005157 197.590878 
L 182.2618 197.669357 
L 182.289166 197.677654 
L 182.532045 197.750692 
L 182.641716 197.78332 
L 182.889994 197.856374 
L 183.014541 197.892599 
L 183.097075 197.91645 
L 183.275873 197.967697 
L 183.523385 198.037687 
L 183.590815 198.056564 
L 183.80566 198.116163 
L 183.969677 198.161106 
L 184.093708 198.194773 
L 184.274908 198.243465 
L 184.335406 198.259592 
L 184.52223 198.308982 
L 184.63168 198.337629 
L 184.77887 198.37582 
L 185.05344 198.446039 
L 185.202477 198.483597 
L 185.371686 198.525765 
L 185.422084 198.538228 
L 185.559954 198.572093 
L 185.861963 198.645113 
L 186.015478 198.68162 
L 186.168827 198.717677 
L 186.340438 198.757544 
L 186.4032 198.771997 
L 186.604412 198.817871 
L 186.7226 198.84449 
L 186.856789 198.87442 
L 187.038492 198.914453 
L 187.143573 198.937345 
L 187.326874 198.976824 
L 187.513729 199.016474 
L 187.641416 199.043224 
L 187.827044 199.081617 
L 187.913242 199.099245 
L 188.119083 199.140827 
L 188.29662 199.176112 
L 188.464649 199.209014 
L 188.538409 199.223306 
L 188.696354 199.253599 
L 188.887283 199.289655 
L 189.032359 199.31664 
L 189.2794 199.361773 
L 189.333416 199.371505 
L 189.623407 199.42291 
L 189.678399 199.432499 
L 189.832041 199.45902 
L 190.059289 199.497522 
L 190.218953 199.524056 
L 190.290667 199.535836 
L 190.486326 199.567537 
L 190.649342 199.593462 
L 190.800672 199.617132 
L 191.034777 199.653 
L 191.130402 199.667389 
L 191.315515 199.694812 
L 191.439194 199.712818 
L 191.544178 199.727904 
L 191.673521 199.746239 
L 191.937528 199.782805 
L 192.072676 199.801079 
L 192.172548 199.814389 
L 192.399064 199.843969 
L 192.465924 199.852539 
L 192.607329 199.870421 
L 192.845279 199.899771 
L 192.935113 199.91061 
L 193.195151 199.941239 
L 193.239013 199.946297 
L 193.532342 199.979308 
L 193.695319 199.997042 
L 193.846081 200.01306 
L 193.904713 200.01919 
L 194.121106 200.041327 
L 194.294822 200.058546 
L 194.471024 200.075509 
L 194.585488 200.086258 
L 194.67635 200.094639 
L 194.904331 200.115078 
L 195.053154 200.127964 
L 195.138457 200.135189 
L 195.346327 200.152299 
L 195.570519 200.169968 
L 195.597516 200.172041 
L 195.782956 200.18596 
L 196.026128 200.203369 
L 196.160557 200.212582 
L 196.254471 200.218846 
L 196.434892 200.230479 
L 196.581652 200.239554 
L 196.815214 200.25328 
L 196.930289 200.25972 
L 197.013103 200.264222 
L 197.295434 200.278739 
L 197.366457 200.282189 
L 197.520276 200.289382 
L 197.692759 200.296994 
L 197.820363 200.302318 
L 198.044075 200.311019 
L 198.096619 200.312946 
L 198.314115 200.32045 
L 198.472459 200.325435 
L 198.618351 200.329672 
L 198.785567 200.334106 
L 198.941578 200.337839 
L 199.124682 200.341721 
L 199.230334 200.343716 
L 199.458628 200.347415 
L 199.501678 200.348018 
L 199.763502 200.351049 
L 199.952925 200.352556 
L 199.979349 200.352721 
L 200.187034 200.353623 
L 200.353846 200.353846 
z
" style="fill:#808080;opacity:0.5;"/>
   </g>
   <g id="patch_5">
    <path clip-path="url(#pe224ae9e50)" d="M 231.507692 200.353846 
L 231.503768 199.654516 
L 231.499843 199.364859 
L 231.495918 199.142608 
L 231.491993 198.955251 
L 231.488069 198.790194 
L 231.484144 198.640978 
L 231.480219 198.503766 
L 231.476295 198.376059 
L 231.47237 198.256119 
L 231.468445 198.142682 
L 231.464521 198.034795 
L 231.460596 197.931714 
L 231.456671 197.832851 
L 231.452746 197.737727 
L 231.444897 197.557185 
L 231.437048 197.387633 
L 231.429198 197.227281 
L 231.421349 197.07478 
L 231.413499 196.929082 
L 231.40565 196.78935 
L 231.397801 196.654911 
L 231.389951 196.525205 
L 231.382102 196.399767 
L 231.367422 196.175312 
L 231.352742 195.962363 
L 231.338063 195.75932 
L 231.323383 195.564923 
L 231.308703 195.378158 
L 231.294024 195.198196 
L 231.279344 195.024348 
L 231.264665 194.856034 
L 231.249985 194.69276 
L 231.235305 194.534102 
L 231.220626 194.379691 
L 231.205946 194.229208 
L 231.191266 194.082369 
L 231.176587 193.938923 
L 231.147227 193.661346 
L 231.123887 193.448721 
L 231.100547 193.242527 
L 231.077206 193.042221 
L 231.053866 192.847329 
L 231.030526 192.657442 
L 231.007185 192.472198 
L 230.983845 192.291276 
L 230.960504 192.114392 
L 230.929042 191.8819 
L 230.89758 191.655733 
L 230.866117 191.435411 
L 230.834655 191.22051 
L 230.800248 190.991261 
L 230.769264 190.78963 
L 230.738281 190.592261 
L 230.707297 190.398901 
L 230.676313 190.20932 
L 230.64533 190.02331 
L 230.614346 189.840683 
L 230.552379 189.484894 
L 230.501966 189.204069 
L 230.451552 188.930367 
L 230.391108 188.6109 
L 230.330664 188.3002 
L 230.270221 187.997606 
L 230.209777 187.702535 
L 230.170252 187.513406 
L 230.116315 187.259915 
L 230.062379 187.011457 
L 230.008443 186.767756 
L 229.954506 186.528561 
L 229.872727 186.173975 
L 229.790947 185.828502 
L 229.706843 185.482045 
L 229.622739 185.143943 
L 229.561501 184.902706 
L 229.500263 184.665417 
L 229.409554 184.320813 
L 229.318845 183.983964 
L 229.24855 183.727958 
L 229.178255 183.476127 
L 229.053346 183.038378 
L 228.928437 182.612305 
L 228.871433 182.421511 
L 228.753411 182.033373 
L 228.63539 181.654035 
L 228.608438 181.568586 
L 228.481687 181.172343 
L 228.354937 180.784943 
L 228.276783 180.550254 
L 228.145263 180.162152 
L 228.013743 179.782211 
L 227.929476 179.542861 
L 227.832401 179.270913 
L 227.735325 179.002869 
L 227.574962 178.568248 
L 227.429896 178.183422 
L 227.282906 177.801139 
L 227.169909 177.512258 
L 227.056913 177.227538 
L 226.951123 176.964611 
L 226.886148 176.804814 
L 226.767114 176.515308 
L 226.64808 176.229862 
L 226.439356 175.738716 
L 226.388383 175.620522 
L 226.215434 175.224406 
L 226.072314 174.902159 
L 225.939733 174.607949 
L 225.807151 174.317738 
L 225.662892 174.006353 
L 225.624981 173.925261 
L 225.390125 173.429539 
L 225.215373 173.067832 
L 225.070399 172.772202 
L 224.965054 172.559832 
L 224.79588 172.222961 
L 224.601927 171.842883 
L 224.532781 171.70892 
L 224.380725 171.417086 
L 224.228669 171.128958 
L 224.166666 171.012508 
L 223.924425 170.563145 
L 223.82387 170.379169 
L 223.651226 170.066679 
L 223.599835 169.97447 
L 223.363618 169.555292 
L 223.194291 169.259393 
L 223.022725 168.963358 
L 222.865389 168.695126 
L 222.662712 168.35405 
L 222.612259 168.269908 
L 222.447387 167.997018 
L 222.246227 167.668278 
L 222.129753 167.479999 
L 222.001033 167.273649 
L 221.869497 167.064619 
L 221.71452 166.820673 
L 221.428089 166.376277 
L 221.330245 166.226348 
L 221.240624 166.089842 
L 220.948259 165.649866 
L 220.838778 165.48717 
L 220.721174 165.313625 
L 220.614453 165.157219 
L 220.377472 164.813519 
L 220.197758 164.556121 
L 220.092739 164.406974 
L 219.984851 164.254713 
L 219.826282 164.032667 
L 219.68465 163.836062 
L 219.448939 163.512394 
L 219.352665 163.381441 
L 219.190287 163.162184 
L 219.015546 162.928455 
L 218.902607 162.778596 
L 218.723456 162.542792 
L 218.453122 162.191319 
L 218.303562 161.999071 
L 218.236558 161.913444 
L 218.019607 161.638287 
L 217.886296 161.470777 
L 217.752593 161.303952 
L 217.533102 161.032608 
L 217.363688 160.825279 
L 217.224073 160.655774 
L 217.05321 160.449977 
L 217.005743 160.393123 
L 216.856132 160.214817 
L 216.712319 160.04469 
L 216.529145 159.829772 
L 216.333331 159.602189 
L 216.153124 159.394688 
L 216.033445 159.257898 
L 215.7869 158.978621 
L 215.642857 158.817 
L 215.580783 158.747699 
L 215.433545 158.584147 
L 215.250201 158.382099 
L 215.11116 158.230053 
L 214.907669 158.009337 
L 214.72211 157.809915 
L 214.556309 157.633199 
L 214.506527 157.580407 
L 214.286779 157.348836 
L 214.086677 157.14002 
L 213.979749 157.029228 
L 213.861694 156.907539 
L 213.630107 156.670736 
L 213.45543 156.49378 
L 213.388324 156.426172 
L 213.137216 156.17501 
L 212.987538 156.026654 
L 212.920616 155.960646 
L 212.65369 155.699335 
L 212.629251 155.675566 
L 212.421179 155.474249 
L 212.201135 155.263372 
L 212.037904 155.108267 
L 211.995704 155.068349 
L 211.832822 154.914975 
L 211.561708 154.662116 
L 211.407271 154.519418 
L 211.29453 154.415855 
L 211.133241 154.268579 
L 211.064967 154.206548 
L 210.836854 154.000627 
L 210.662045 153.844198 
L 210.606303 153.794565 
L 210.39584 153.608245 
L 210.237981 153.469599 
L 209.996114 153.258989 
L 209.946967 153.21646 
L 209.672841 152.980882 
L 209.556162 152.881447 
L 209.431755 152.775969 
L 209.235866 152.611015 
L 209.187689 152.570656 
L 208.994456 152.40961 
L 208.800815 152.249543 
L 208.709871 152.17482 
L 208.55263 152.0463 
L 208.386334 151.911305 
L 208.195968 151.757931 
L 208.00116 151.602246 
L 207.881327 151.507111 
L 207.707792 151.370191 
L 207.584832 151.273777 
L 207.379964 151.11424 
L 207.24326 151.008543 
L 207.047525 150.858257 
L 206.931269 150.769576 
L 206.710186 150.602118 
L 206.543615 150.476968 
L 206.525107 150.463116 
L 206.345969 150.329597 
L 206.088283 150.139275 
L 206.033669 150.099201 
L 205.834298 149.95368 
L 205.601761 149.785473 
L 205.563 149.757594 
L 205.292953 149.564602 
L 205.16109 149.471153 
L 205.080626 149.41438 
L 204.934369 149.311673 
L 204.789905 149.210839 
L 204.504919 149.013694 
L 204.357007 148.912293 
L 204.319608 148.886753 
L 204.175857 148.788956 
L 203.886472 148.59385 
L 203.755015 148.505997 
L 203.693938 148.465343 
L 203.494333 148.333204 
L 203.351211 148.239133 
L 203.118889 148.087629 
L 203.04888 148.042262 
L 202.899848 147.94613 
L 202.691292 147.812606 
L 202.609376 147.76048 
L 202.433036 147.648876 
L 202.310062 147.571536 
L 202.045839 147.406709 
L 201.949359 147.346979 
L 201.727744 147.210696 
L 201.621034 147.145528 
L 201.480196 147.059968 
L 201.239027 146.914635 
L 201.110871 146.838009 
L 201.030805 146.790348 
L 200.872258 146.696446 
L 200.691458 146.590135 
L 200.432308 146.439178 
L 200.353846 146.393802 
L 200.353846 200.353846 
L 200.449594 200.353773 
L 200.716835 200.352789 
L 200.763038 200.352503 
L 200.974166 200.350758 
L 201.199047 200.348113 
L 201.308167 200.346537 
L 201.525201 200.342835 
L 201.681922 200.339691 
L 201.724491 200.338769 
L 201.919593 200.33417 
L 202.139441 200.328255 
L 202.22187 200.325838 
L 202.388021 200.320632 
L 202.530549 200.315813 
L 202.641369 200.311841 
L 202.818396 200.305085 
L 202.963857 200.299157 
L 203.099638 200.293316 
L 203.323904 200.283018 
L 203.498884 200.274421 
L 203.614661 200.268462 
L 203.775577 200.25982 
L 203.881825 200.253886 
L 204.047859 200.244247 
L 204.204226 200.234763 
L 204.462022 200.218265 
L 204.569476 200.211071 
L 204.667626 200.204338 
L 204.874681 200.189622 
L 205.066799 200.175347 
L 205.276035 200.15912 
L 205.318566 200.155735 
L 205.459328 200.144323 
L 205.6838 200.125459 
L 205.901579 200.106376 
L 206.002169 200.097302 
L 206.073376 200.090779 
L 206.320273 200.067523 
L 206.496278 200.05034 
L 206.654356 200.034476 
L 206.849488 200.014332 
L 206.996991 199.998693 
L 207.108499 199.986635 
L 207.176068 199.979229 
L 207.386534 199.955683 
L 207.601131 199.930929 
L 207.684048 199.921162 
L 207.830527 199.903633 
L 208.044283 199.877422 
L 208.111285 199.869051 
L 208.342198 199.839639 
L 208.456749 199.824722 
L 208.629254 199.801851 
L 208.782839 199.781076 
L 209.004765 199.750369 
L 209.162075 199.728109 
L 209.295411 199.708922 
L 209.431817 199.688988 
L 209.587939 199.665794 
L 209.679872 199.651947 
L 209.971557 199.607084 
L 210.130179 199.582093 
L 210.293633 199.555902 
L 210.388043 199.540572 
L 210.480951 199.52534 
L 210.650128 199.497233 
L 210.857256 199.462169 
L 210.967229 199.44326 
L 211.120019 199.416652 
L 211.369657 199.372334 
L 211.426529 199.362091 
L 211.665091 199.318531 
L 211.738655 199.304905 
L 211.966986 199.26203 
L 212.052785 199.245691 
L 212.329517 199.192142 
L 212.35155 199.187822 
L 212.536451 199.151249 
L 212.670117 199.124448 
L 212.868836 199.08404 
L 213.044403 199.047779 
L 213.134739 199.028916 
L 213.297951 198.994482 
L 213.521643 198.946545 
L 213.630782 198.922845 
L 213.806915 198.884164 
L 213.964957 198.849001 
L 214.198291 198.796297 
L 214.365028 198.758058 
L 214.494624 198.728004 
L 214.578505 198.708396 
L 214.760342 198.665469 
L 214.967546 198.615852 
L 215.075739 198.589646 
L 215.162323 198.568526 
L 215.414747 198.506205 
L 215.559442 198.469977 
L 215.67035 198.441959 
L 215.82537 198.402433 
L 216.025377 198.350811 
L 216.187328 198.308492 
L 216.248569 198.292368 
L 216.505692 198.223944 
L 216.586446 198.202211 
L 216.791366 198.146541 
L 216.87989 198.122259 
L 217.056757 198.073325 
L 217.290615 198.007761 
L 217.48705 197.951929 
L 217.580406 197.92515 
L 217.804601 197.860196 
L 217.94482 197.819109 
L 218.027645 197.794671 
L 218.199069 197.743696 
L 218.367936 197.692957 
L 218.471488 197.661585 
L 218.687458 197.595521 
L 218.856429 197.543237 
L 218.915592 197.524806 
L 219.109888 197.463823 
L 219.310956 197.399979 
L 219.493399 197.341398 
L 219.622195 197.299671 
L 219.690179 197.27752 
L 219.950249 197.191986 
L 220.078901 197.149206 
L 220.242211 197.094452 
L 220.437837 197.0282 
L 220.479741 197.013915 
L 220.669001 196.948981 
L 220.810306 196.900056 
L 220.95099 196.850968 
L 221.227748 196.753298 
L 221.402693 196.690801 
L 221.554637 196.636042 
L 221.576554 196.628107 
L 221.752374 196.564113 
L 222.026721 196.463061 
L 222.12968 196.42476 
L 222.250123 196.379691 
L 222.444932 196.306196 
L 222.54024 196.269967 
L 222.791794 196.173488 
L 222.864173 196.145497 
L 222.997593 196.093628 
L 223.147742 196.034832 
L 223.359166 195.951281 
L 223.475111 195.905082 
L 223.631004 195.842542 
L 223.85816 195.750536 
L 224.032049 195.679401 
L 224.201931 195.609314 
L 224.291501 195.572124 
L 224.425783 195.516062 
L 224.632929 195.428857 
L 224.812022 195.352752 
L 224.881168 195.323191 
L 225.103299 195.227559 
L 225.319856 195.133341 
L 225.417981 195.090327 
L 225.531516 195.040307 
L 225.77365 194.932726 
L 225.932155 194.861633 
L 225.982686 194.838856 
L 226.243443 194.720463 
L 226.338124 194.677116 
L 226.449179 194.626028 
L 226.710648 194.504701 
L 226.778775 194.472846 
L 227.030711 194.354177 
L 227.189531 194.278658 
L 227.281104 194.234866 
L 227.490762 194.133909 
L 227.637944 194.06246 
L 227.747695 194.00887 
L 227.927503 193.920495 
L 228.077046 193.846447 
L 228.282753 193.743772 
L 228.442413 193.663426 
L 228.511083 193.628692 
L 228.643656 193.561334 
L 228.8274 193.467317 
L 229.054593 193.350002 
L 229.091329 193.330922 
L 229.379957 193.179931 
L 229.540262 193.095238 
L 229.621863 193.051896 
L 229.734201 192.991975 
L 229.903912 192.900891 
L 230.082201 192.804472 
L 230.197861 192.741522 
L 230.349847 192.658318 
L 230.49094 192.580584 
L 230.786398 192.416259 
L 230.891446 192.357327 
L 231.097308 192.241062 
L 231.173885 192.19755 
L 231.283664 192.134923 
L 231.507692 192.006198 
z
" style="fill:#808080;opacity:0.5;"/>
   </g>
   <g id="matplotlib.axis_1"/>
   <g id="matplotlib.axis_2"/>
   <g id="line2d_1">
    <path clip-path="url(#pe224ae9e50)" d="M 169.2 192.006198 
L 172.333723 193.697939 
L 175.72181 195.278237 
L 179.212031 196.657349 
L 182.641716 197.78332 
L 186.340438 198.757544 
L 189.832041 199.45902 
L 193.532342 199.979308 
L 197.295434 200.278739 
L 200.353846 200.353846 
L 200.353846 200.353846 
" style="fill:none;stroke:#ff0000;stroke-linecap:square;"/>
   </g>
   <g id="line2d_2">
    <path clip-path="url(#pe224ae9e50)" d="M 200.353846 200.353846 
L 204.047859 200.244247 
L 207.830527 199.903633 
L 211.426529 199.362091 
L 215.162323 198.568526 
L 218.856429 197.543237 
L 222.250123 196.379691 
L 225.77365 194.932726 
L 229.091329 193.330922 
L 231.507692 192.006198 
L 231.507692 192.006198 
" style="fill:none;stroke:#ff0000;stroke-linecap:square;"/>
   </g>
   <g id="text_1">
    <!-- $\Omega$ -->
    <g transform="translate(16.011538 22.420913)scale(0.1 -0.1)">
     <defs>
      <path d="M 7.71875 0 
L 4.390625 16.609375 
L 7.328125 16.609375 
Q 7.859375 13.71875 8.296875 11.5 
Q 8.734375 9.28125 9.4375 8.375 
Q 10.15625 7.46875 11.71875 7.171875 
Q 13.28125 6.890625 16.890625 6.890625 
L 23 6.890625 
Q 21.53125 12.546875 15.6875 21.65625 
Q 9.859375 30.765625 7.734375 34.890625 
Q 5.609375 39.015625 5.609375 45.515625 
Q 5.609375 53.078125 10.09375 58.765625 
Q 14.59375 64.453125 21.703125 67.484375 
Q 28.8125 70.515625 36.078125 70.515625 
Q 43.3125 70.515625 50.40625 67.484375 
Q 57.515625 64.453125 62 58.71875 
Q 66.5 52.984375 66.5 45.515625 
Q 66.5 40.4375 64.640625 35.9375 
Q 62.796875 31.453125 59.90625 26.953125 
Q 57.03125 22.46875 53.6875 16.9375 
Q 50.34375 11.421875 49.125 6.890625 
L 55.171875 6.890625 
Q 58.84375 6.890625 60.453125 7.171875 
Q 62.0625 7.46875 62.734375 8.375 
Q 63.421875 9.28125 63.84375 11.5 
Q 64.265625 13.71875 64.796875 16.609375 
L 67.671875 16.609375 
L 64.40625 0 
L 46.6875 0 
Q 45.703125 0 45.703125 1.3125 
Q 45.703125 6.390625 46.9375 11.265625 
Q 48.1875 16.15625 50.625 23.09375 
Q 53.078125 30.03125 54.4375 35.328125 
Q 55.8125 40.625 55.8125 45.515625 
Q 55.8125 51.515625 53.46875 56.640625 
Q 51.125 61.765625 46.625 64.84375 
Q 42.140625 67.921875 36.078125 67.921875 
Q 26.953125 67.921875 21.625 61.40625 
Q 16.3125 54.890625 16.3125 45.515625 
Q 16.359375 40.375 17.53125 35.828125 
Q 18.703125 31.296875 21.3125 23.71875 
Q 23.921875 16.15625 25.171875 11.265625 
Q 26.421875 6.390625 26.421875 1.3125 
Q 26.421875 0 25.390625 0 
z
" id="Cmr10-173"/>
     </defs>
     <use transform="translate(0 0.484375)" xlink:href="#Cmr10-173"/>
    </g>
   </g>
   <g id="text_2">
    <!-- $A$ -->
    <g style="fill:#0000ff;" transform="translate(149.873077 271.651683)scale(0.1 -0.1)">
     <defs>
      <path d="M 4.5 0 
Q 3.515625 0 3.515625 1.3125 
Q 3.90625 3.515625 4.78125 3.515625 
Q 8.84375 3.515625 11.796875 5.125 
Q 14.75 6.734375 16.890625 10.109375 
Q 17.09375 10.296875 17.09375 10.296875 
L 52.78125 70.515625 
Q 53.5625 71.578125 54.6875 71.578125 
L 56 71.578125 
Q 56.296875 71.578125 56.59375 71.453125 
Q 56.890625 71.34375 57.109375 71.0625 
Q 57.328125 70.796875 57.328125 70.515625 
L 63.375 5.90625 
Q 63.375 5.46875 63.8125 4.59375 
Q 64.796875 3.515625 71.296875 3.515625 
Q 72.3125 3.515625 72.3125 2.203125 
Q 71.96875 0.875 71.75 0.4375 
Q 71.53125 0 70.609375 0 
L 45.609375 0 
Q 44.671875 0 44.671875 1.3125 
Q 45.21875 3.515625 46 3.515625 
Q 53.90625 3.515625 54.390625 6.203125 
L 52.875 22.703125 
L 28.21875 22.703125 
L 20.21875 9.28125 
Q 19.484375 8.203125 19.484375 6.78125 
Q 19.484375 5.03125 21.171875 4.265625 
Q 22.859375 3.515625 24.90625 3.515625 
Q 25.875 3.515625 25.875 2.203125 
Q 25.53125 0.78125 25.328125 0.390625 
Q 25.140625 0 24.21875 0 
z
M 30.171875 26.21875 
L 52.484375 26.21875 
L 49.515625 58.59375 
z
" id="Cmmi10-65"/>
     </defs>
     <use transform="translate(0 0.421875)" xlink:href="#Cmmi10-65"/>
    </g>
   </g>
   <g id="text_3">
    <!-- $B$ -->
    <g style="fill:#ff0000;" transform="translate(227.707692 78.497837)scale(0.1 -0.1)">
     <defs>
      <path d="M 4.984375 0 
Q 4 0 4 1.3125 
Q 4.046875 1.5625 4.1875 2.140625 
Q 4.34375 2.734375 4.578125 3.125 
Q 4.828125 3.515625 5.328125 3.515625 
Q 8.15625 3.515625 10.25 3.65625 
Q 12.359375 3.8125 13.8125 4.203125 
Q 14.984375 4.640625 15.71875 6.890625 
L 29.390625 61.8125 
Q 29.59375 62.796875 29.59375 63.1875 
Q 29.59375 64.265625 28.421875 64.40625 
Q 26.515625 64.796875 21.1875 64.796875 
Q 20.21875 64.796875 20.21875 66.109375 
Q 20.265625 66.359375 20.40625 66.96875 
Q 20.5625 67.578125 20.828125 67.9375 
Q 21.09375 68.3125 21.484375 68.3125 
L 57.328125 68.3125 
Q 60.59375 68.3125 63.796875 67.5 
Q 67 66.703125 69.703125 64.9375 
Q 72.40625 63.1875 74 60.5625 
Q 75.59375 57.953125 75.59375 54.5 
Q 75.59375 50.734375 73.65625 47.5 
Q 71.734375 44.28125 68.671875 41.890625 
Q 65.625 39.5 62.078125 37.953125 
Q 58.546875 36.421875 54.6875 35.6875 
Q 57.421875 35.6875 60.21875 34.609375 
Q 63.03125 33.546875 65.234375 31.6875 
Q 67.4375 29.828125 68.78125 27.234375 
Q 70.125 24.65625 70.125 21.6875 
Q 70.125 15.671875 65.921875 10.6875 
Q 61.71875 5.71875 55.34375 2.859375 
Q 48.96875 0 43.015625 0 
z
M 23.390625 4.296875 
Q 23.390625 3.515625 26.8125 3.515625 
L 41.109375 3.515625 
Q 46 3.515625 50.484375 6.21875 
Q 54.984375 8.9375 57.6875 13.421875 
Q 60.40625 17.921875 60.40625 22.796875 
Q 60.40625 25.78125 59.15625 28.4375 
Q 57.90625 31.109375 55.5625 32.640625 
Q 53.21875 34.1875 50.203125 34.1875 
L 30.71875 34.1875 
L 23.78125 6.5 
Q 23.390625 5.125 23.390625 4.296875 
z
M 31.390625 36.8125 
L 46.578125 36.8125 
Q 51.375 36.8125 55.890625 39.25 
Q 60.40625 41.703125 63.25 45.890625 
Q 66.109375 50.09375 66.109375 54.78125 
Q 66.109375 59.125 63.390625 61.953125 
Q 60.6875 64.796875 56.390625 64.796875 
L 42.671875 64.796875 
Q 39.984375 64.796875 39.0625 64.296875 
Q 38.140625 63.8125 37.5 61.375 
z
" id="Cmmi10-66"/>
     </defs>
     <use transform="translate(0 0.6875)" xlink:href="#Cmmi10-66"/>
    </g>
   </g>
   <g id="text_4">
    <!-- $C$ -->
    <g style="fill:#228b22;" transform="translate(103.292308 78.497837)scale(0.1 -0.1)">
     <defs>
      <path d="M 14.59375 21.578125 
Q 14.59375 15.578125 16.90625 11.015625 
Q 19.234375 6.453125 23.65625 3.875 
Q 28.078125 1.3125 34.078125 1.3125 
Q 40.375 1.3125 46.203125 4.53125 
Q 52.046875 7.765625 56.171875 13.15625 
Q 60.296875 18.5625 61.8125 24.609375 
Q 62.015625 25.203125 62.59375 25.203125 
L 63.8125 25.203125 
Q 64.203125 25.203125 64.453125 24.921875 
Q 64.703125 24.65625 64.703125 24.3125 
Q 64.703125 24.21875 64.59375 24.03125 
Q 62.890625 17.09375 57.984375 11.015625 
Q 53.078125 4.9375 46.234375 1.359375 
Q 39.40625 -2.203125 32.171875 -2.203125 
Q 24.359375 -2.203125 18.15625 1.3125 
Q 11.96875 4.828125 8.515625 11.078125 
Q 5.078125 17.328125 5.078125 25.203125 
Q 5.078125 33.59375 8.828125 41.8125 
Q 12.59375 50.046875 18.9375 56.46875 
Q 25.296875 62.890625 33.421875 66.703125 
Q 41.546875 70.515625 49.90625 70.515625 
Q 53.21875 70.515625 56.25 69.5 
Q 59.28125 68.5 61.859375 66.453125 
Q 64.453125 64.40625 66.109375 61.71875 
L 74.03125 70.3125 
Q 74.03125 70.515625 74.515625 70.515625 
L 75.09375 70.515625 
Q 75.484375 70.515625 75.734375 70.171875 
Q 75.984375 69.828125 75.984375 69.484375 
L 69.1875 42.484375 
Q 69.1875 41.796875 68.40625 41.796875 
L 66.609375 41.796875 
Q 65.828125 41.796875 65.828125 42.921875 
Q 66.21875 45.125 66.21875 48.1875 
Q 66.21875 53.078125 64.546875 57.390625 
Q 62.890625 61.71875 59.390625 64.359375 
Q 55.90625 67 50.875 67 
Q 42.71875 67 35.9375 62.890625 
Q 29.15625 58.796875 24.4375 52.125 
Q 19.734375 45.453125 17.15625 37.328125 
Q 14.59375 29.203125 14.59375 21.578125 
z
" id="Cmmi10-67"/>
     </defs>
     <use transform="translate(0 0.484375)" xlink:href="#Cmmi10-67"/>
    </g>
   </g>
   <g id="patch_6">
    <path clip-path="url(#pe224ae9e50)" d="M 169.2 262.661538 
C 185.724193 262.661538 201.573823 256.096407 213.258192 244.412038 
C 224.942561 232.727669 231.507692 216.878039 231.507692 200.353846 
C 231.507692 183.829653 224.942561 167.980023 213.258192 156.295654 
C 201.573823 144.611285 185.724193 138.046154 169.2 138.046154 
C 152.675807 138.046154 136.826177 144.611285 125.141808 156.295654 
C 113.457439 167.980023 106.892308 183.829653 106.892308 200.353846 
C 106.892308 216.878039 113.457439 232.727669 125.141808 244.412038 
C 136.826177 256.096407 152.675807 262.661538 169.2 262.661538 
z
" style="fill:none;stroke:#0000ff;stroke-linejoin:miter;"/>
   </g>
   <g id="patch_7">
    <path clip-path="url(#pe224ae9e50)" d="M 200.353846 200.353846 
C 216.878039 200.353846 232.727669 193.788715 244.412038 182.104346 
C 256.096407 170.419977 262.661538 154.570347 262.661538 138.046154 
C 262.661538 121.521961 256.096407 105.672331 244.412038 93.987962 
C 232.727669 82.303593 216.878039 75.738462 200.353846 75.738462 
C 183.829653 75.738462 167.980023 82.303593 156.295654 93.987962 
C 144.611285 105.672331 138.046154 121.521961 138.046154 138.046154 
C 138.046154 154.570347 144.611285 170.419977 156.295654 182.104346 
C 167.980023 193.788715 183.829653 200.353846 200.353846 200.353846 
z
" style="fill:none;stroke:#ff0000;stroke-linejoin:miter;"/>
   </g>
   <g id="patch_8">
    <path clip-path="url(#pe224ae9e50)" d="M 138.046154 200.353846 
C 154.570347 200.353846 170.419977 193.788715 182.104346 182.104346 
C 193.788715 170.419977 200.353846 154.570347 200.353846 138.046154 
C 200.353846 121.521961 193.788715 105.672331 182.104346 93.987962 
C 170.419977 82.303593 154.570347 75.738462 138.046154 75.738462 
C 121.521961 75.738462 105.672331 82.303593 93.987962 93.987962 
C 82.303593 105.672331 75.738462 121.521961 75.738462 138.046154 
C 75.738462 154.570347 82.303593 170.419977 93.987962 182.104346 
C 105.672331 193.788715 121.521961 200.353846 138.046154 200.353846 
z
" style="fill:none;stroke:#228b22;stroke-linejoin:miter;"/>
   </g>
  </g>
 </g>
 <defs>
  <clipPath id="pe224ae9e50">
   <rect height="324" width="324" x="7.2" y="7.2"/>
  </clipPath>
 </defs>
</svg>
