<?xml version="1.0" encoding="utf-8" standalone="no"?>
<!DOCTYPE svg PUBLIC "-//W3C//DTD SVG 1.1//EN"
  "http://www.w3.org/Graphics/SVG/1.1/DTD/svg11.dtd">
<!-- Created with matplotlib (https://matplotlib.org/) -->
<svg height="338.4pt" version="1.1" viewBox="0 0 338.4 338.4" width="338.4pt" xmlns="http://www.w3.org/2000/svg" xmlns:xlink="http://www.w3.org/1999/xlink">
 <metadata>
  <rdf:RDF xmlns:cc="http://creativecommons.org/ns#" xmlns:dc="http://purl.org/dc/elements/1.1/" xmlns:rdf="http://www.w3.org/1999/02/22-rdf-syntax-ns#">
   <cc:Work>
    <dc:type rdf:resource="http://purl.org/dc/dcmitype/StillImage"/>
    <dc:date>2024-08-28T16:16:27.749687</dc:date>
    <dc:format>image/svg+xml</dc:format>
    <dc:creator>
     <cc:Agent>
      <dc:title>Matplotlib v3.3.4, https://matplotlib.org/</dc:title>
     </cc:Agent>
    </dc:creator>
   </cc:Work>
  </rdf:RDF>
 </metadata>
 <defs>
  <style type="text/css">*{stroke-linecap:butt;stroke-linejoin:round;}</style>
 </defs>
 <g id="figure_1">
  <g id="patch_1">
   <path d="M -0 338.4 
L 338.4 338.4 
L 338.4 0 
L -0 0 
z
" style="fill:#ffffff;"/>
  </g>
  <g id="axes_1">
   <g id="patch_2">
    <path d="M 7.2 331.2 
L 331.2 331.2 
L 331.2 7.2 
L 7.2 7.2 
z
" style="fill:#ffffff;"/>
   </g>
   <g id="patch_3">
    <path clip-path="url(#pa40564abeb)" d="M 13.430769 324.969231 
L 13.430769 13.430769 
L 324.969231 13.430769 
L 324.969231 324.969231 
z
" style="fill:none;stroke:#000000;stroke-linejoin:miter;"/>
   </g>
   <g id="patch_4">
    <path clip-path="url(#pa40564abeb)" d="M 169.2 192.006198 
L 168.880519 192.189394 
L 168.457683 192.42802 
L 168.207565 192.567139 
L 168.008359 192.676867 
L 167.515361 192.944372 
L 167.242871 193.089775 
L 167.112679 193.158635 
L 166.572775 193.44002 
L 166.502116 193.476351 
L 166.055824 193.703201 
L 165.746084 193.858002 
L 165.466077 193.996099 
L 165.249818 194.101566 
L 164.764132 194.33468 
L 164.513676 194.45288 
L 164.287787 194.558323 
L 163.731061 194.813522 
L 163.574205 194.884232 
L 163.197027 195.052137 
L 163.080817 195.103267 
L 162.6952 195.270913 
L 162.192084 195.485013 
L 162.112865 195.518251 
L 161.772118 195.659756 
L 161.416412 195.804959 
L 160.911429 196.006724 
L 160.83767 196.035768 
L 160.377383 196.214571 
L 160.262046 196.258718 
L 159.915937 196.389629 
L 159.536058 196.530618 
L 159.203921 196.651592 
L 158.789952 196.799395 
L 158.540917 196.886728 
L 158.097407 197.039338 
L 157.894604 197.10788 
L 157.488666 197.242752 
L 157.449802 197.255503 
L 156.920787 197.426258 
L 156.69159 197.498624 
L 156.47234 197.566942 
L 156.076079 197.688172 
L 155.689781 197.803588 
L 155.50587 197.857581 
L 154.997792 198.003559 
L 154.932871 198.021877 
L 154.391075 198.17179 
L 154.29799 198.197017 
L 153.921454 198.297489 
L 153.419157 198.427602 
L 153.157405 198.49364 
L 153.037407 198.523512 
L 152.745235 198.595188 
L 152.185627 198.728308 
L 151.990624 198.773415 
L 151.636108 198.853733 
L 151.260553 198.93645 
L 151.063429 198.978896 
L 150.753571 199.044269 
L 150.513471 199.093795 
L 149.969253 199.202415 
L 149.812134 199.232837 
L 149.531199 199.286192 
L 149.14668 199.357057 
L 148.997609 199.38386 
L 148.688156 199.438306 
L 148.356246 199.494917 
L 147.807261 199.58451 
L 147.709279 199.599972 
L 147.385546 199.649922 
L 147.056976 199.698839 
L 146.682791 199.752369 
L 146.319829 199.802083 
L 146.167269 199.822331 
L 145.85982 199.86197 
L 145.462181 199.910934 
L 145.031133 199.961084 
L 144.688719 199.998755 
L 144.369242 200.032177 
L 144.046392 200.064261 
L 143.905924 200.077691 
L 143.502766 200.114454 
L 143.092232 200.149178 
L 142.804221 200.171908 
L 142.596503 200.187467 
L 142.132753 200.219687 
L 141.891275 200.235088 
L 141.539039 200.255866 
L 141.325694 200.267478 
L 141.117345 200.27811 
L 140.766504 200.294433 
L 140.471872 200.30661 
L 140.133825 200.318862 
L 139.81546 200.32872 
L 139.501941 200.336837 
L 139.007065 200.346436 
L 138.701486 200.3504 
L 138.4304 200.352661 
L 138.236154 200.353556 
L 138.037659 200.353846 
L 137.558482 200.351938 
L 137.41434 200.350643 
L 136.923861 200.343738 
L 136.720605 200.339745 
L 136.272915 200.328608 
L 136.121296 200.324107 
L 135.629 200.306943 
L 135.31707 200.29405 
L 135.076178 200.283022 
L 134.614316 200.259263 
L 134.462799 200.25072 
L 134.065657 200.22657 
L 133.852343 200.212547 
L 133.64967 200.198543 
L 133.095467 200.156855 
L 133.011683 200.15012 
L 132.433962 200.10058 
L 132.154674 200.074688 
L 132.037832 200.063479 
L 131.744394 200.034349 
L 131.209352 199.977621 
L 131.082511 199.963487 
L 130.53473 199.899424 
L 130.307399 199.871393 
L 130.09118 199.843944 
L 129.705962 199.793135 
L 129.378575 199.748031 
L 129.185289 199.72057 
L 128.680117 199.645877 
L 128.442578 199.609291 
L 128.039539 199.545066 
L 127.881806 199.519193 
L 127.514383 199.457312 
L 127.325346 199.424593 
L 126.887251 199.346459 
L 126.555554 199.28515 
L 126.192159 199.215847 
L 126.137712 199.20527 
L 125.639404 199.106133 
L 125.363572 199.049438 
L 125.035947 198.980406 
L 124.887696 198.948564 
L 124.322322 198.823658 
L 124.038296 198.758825 
L 123.838683 198.712424 
L 123.422962 198.613561 
L 123.314346 198.587234 
L 122.827031 198.466571 
L 122.675595 198.428224 
L 122.278957 198.325869 
L 121.839635 198.209243 
L 121.516641 198.121305 
L 121.151137 198.019539 
L 120.910084 197.951109 
L 120.795212 197.91813 
L 120.449439 197.817419 
L 120.183005 197.738335 
L 119.696417 197.590555 
L 119.52975 197.538937 
L 119.195692 197.433935 
L 118.735606 197.285931 
L 118.32108 197.149199 
L 118.037488 197.053796 
L 117.780722 196.966106 
L 117.598153 196.902995 
L 117.31018 196.802157 
L 116.802549 196.620532 
L 116.669615 196.572149 
L 116.232274 196.410554 
L 115.989116 196.319094 
L 115.654005 196.191147 
L 115.336394 196.067834 
L 114.977355 195.926021 
L 114.866175 195.881585 
L 114.41087 195.697016 
L 114.073721 195.557639 
L 113.743596 195.418919 
L 113.55025 195.336635 
L 113.280814 195.22068 
L 112.792873 195.006845 
L 112.44273 194.850319 
L 112.17936 194.730874 
L 112.007447 194.65211 
L 111.648473 194.485599 
L 111.303029 194.322737 
L 111.090567 194.22128 
L 110.524745 193.946248 
L 110.395613 193.882487 
L 109.962107 193.665708 
L 109.720863 193.543239 
L 109.363142 193.359202 
L 109.159484 193.253117 
L 108.750363 193.037109 
L 108.373923 192.834905 
L 108.298356 192.793912 
L 107.70278 192.466078 
L 107.545956 192.37834 
L 107.051724 192.097924 
L 106.892308 192.006198 
L 106.892308 200.353846 
L 106.905064 201.614588 
L 106.91782 202.136714 
L 106.930577 202.537292 
L 106.943333 202.874943 
L 106.956089 203.172374 
L 106.968846 203.441231 
L 106.981602 203.688432 
L 106.994358 203.918486 
L 107.007115 204.134524 
L 107.019871 204.338826 
L 107.032627 204.533114 
L 107.045384 204.718726 
L 107.05814 204.896724 
L 107.070896 205.067972 
L 107.096409 205.392942 
L 107.121921 205.698066 
L 107.147434 205.986571 
L 107.172947 206.260891 
L 107.198459 206.522921 
L 107.223972 206.774164 
L 107.249485 207.015841 
L 107.274997 207.248958 
L 107.30051 207.474355 
L 107.34661 207.864279 
L 107.392709 208.234666 
L 107.438809 208.588151 
L 107.484908 208.926826 
L 107.547555 209.36631 
L 107.610201 209.784921 
L 107.672847 210.185325 
L 107.735493 210.569665 
L 107.781602 210.843315 
L 107.827711 211.109808 
L 107.919929 211.623339 
L 108.012147 212.113745 
L 108.104365 212.583807 
L 108.215886 213.128288 
L 108.327407 213.649557 
L 108.438928 214.150245 
L 108.550448 214.632516 
L 108.660597 215.092542 
L 108.770745 215.537839 
L 108.897394 216.033268 
L 109.024043 216.512521 
L 109.190733 217.120968 
L 109.357422 217.706494 
L 109.484738 218.139684 
L 109.612054 218.56168 
L 109.729972 218.943206 
L 109.84789 219.316325 
L 109.965809 219.681523 
L 110.083727 220.039241 
L 110.224209 220.456199 
L 110.35775 220.843799 
L 110.491291 221.223347 
L 110.624833 221.595274 
L 110.758374 221.959976 
L 110.931206 222.421834 
L 111.098281 222.85804 
L 111.265356 223.284733 
L 111.43069 223.698124 
L 111.596023 224.103169 
L 111.789696 224.567593 
L 112.054982 225.1872 
L 112.320269 225.788953 
L 112.419766 226.010299 
L 112.610524 226.428349 
L 112.801281 226.838427 
L 113.127169 227.521587 
L 113.336229 227.94891 
L 113.70097 228.675326 
L 114.034351 229.319338 
L 114.424409 230.050364 
L 114.635534 230.436526 
L 115.047064 231.17118 
L 115.33223 231.666972 
L 115.626554 232.167906 
L 115.920996 232.658587 
L 116.173538 233.071469 
L 116.426079 233.477279 
L 116.6683 233.8601 
L 116.908003 234.232979 
L 117.155155 234.611438 
L 117.419329 235.009446 
L 117.690039 235.410549 
L 117.960748 235.805046 
L 118.078748 235.974994 
L 118.354739 236.367842 
L 118.630729 236.754359 
L 118.793991 236.980104 
L 119.15071 237.46607 
L 119.424278 237.832187 
L 119.729107 238.233647 
L 120.164401 238.795472 
L 120.467369 239.178828 
L 120.69544 239.463387 
L 120.851767 239.656479 
L 121.223357 240.109227 
L 121.643163 240.61047 
L 121.966979 240.989917 
L 122.151997 241.203986 
L 122.603311 241.718046 
L 122.950221 242.105571 
L 123.227912 242.411136 
L 123.428318 242.629154 
L 123.667271 242.886411 
L 124.063971 243.307163 
L 124.317814 243.572336 
L 124.790622 244.05803 
L 125.051007 244.321049 
L 125.454476 244.722503 
L 125.803 245.063452 
L 126.02241 245.275381 
L 126.172083 245.418764 
L 126.650432 245.870687 
L 126.976585 246.173403 
L 127.122066 246.30704 
L 127.555665 246.700344 
L 127.818155 246.934866 
L 128.142168 247.220711 
L 128.620986 247.635895 
L 128.692572 247.697238 
L 128.970167 247.933348 
L 129.537368 248.407193 
L 129.820746 248.639692 
L 130.15058 248.906821 
L 130.390915 249.099137 
L 130.804451 249.425532 
L 131.060083 249.624479 
L 131.349811 249.847398 
L 131.584392 250.025916 
L 131.89503 250.259635 
L 132.234018 250.511246 
L 132.605267 250.782747 
L 132.920047 251.00968 
L 133.136597 251.164076 
L 133.565971 251.466119 
L 133.830751 251.649702 
L 134.096082 251.831642 
L 134.361858 252.011879 
L 134.723043 252.253634 
L 135.027771 252.45478 
L 135.242456 252.594958 
L 135.555778 252.79729 
L 136.01638 253.089943 
L 136.386426 253.320986 
L 136.760901 253.551153 
L 136.961261 253.672813 
L 137.26259 253.85385 
L 137.447713 253.963927 
L 137.950145 254.258346 
L 138.15009 254.373765 
L 138.549928 254.601626 
L 138.830036 254.758936 
L 139.050252 254.881282 
L 139.32982 255.034929 
L 139.862006 255.322297 
L 140.05272 255.423662 
L 140.29928 255.553456 
L 140.79643 255.810908 
L 141.12958 255.980279 
L 141.257116 256.044454 
L 141.531266 256.181166 
L 142.070279 256.445082 
L 142.200414 256.507839 
L 142.689013 256.740157 
L 142.945134 256.859868 
L 143.191312 256.973601 
L 143.385662 257.062474 
L 143.90991 257.298204 
L 144.155106 257.406469 
L 144.355217 257.493896 
L 144.798035 257.684402 
L 145.145791 257.831177 
L 145.286235 257.889751 
L 145.846172 258.119296 
L 146.075308 258.211405 
L 146.450109 258.359802 
L 146.59104 258.414878 
L 147.071399 258.599649 
L 147.431615 258.73523 
L 147.720785 258.842237 
L 147.955355 258.927847 
L 148.143556 258.995765 
L 148.643896 259.173019 
L 148.999088 259.295951 
L 149.230054 259.374603 
L 149.440482 259.445385 
L 149.914924 259.601921 
L 149.982196 259.623776 
L 150.369143 259.747847 
L 150.777936 259.87591 
L 151.005945 259.946001 
L 151.384206 260.060177 
L 151.712407 260.157129 
L 151.983982 260.235874 
L 152.233499 260.307048 
L 152.713802 260.440898 
L 153.020083 260.524095 
L 153.159121 260.56131 
L 153.395265 260.62373 
L 153.847371 260.740478 
L 154.020781 260.784301 
L 154.533675 260.910823 
L 154.845813 260.985569 
L 155.077984 261.040065 
L 155.507815 261.138487 
L 155.597666 261.158657 
L 156.064263 261.26116 
L 156.489705 261.351362 
L 156.678194 261.390334 
L 156.950322 261.445531 
L 157.367023 261.527608 
L 157.651293 261.581911 
L 157.802034 261.610151 
L 158.222872 261.686963 
L 158.628362 261.758154 
L 158.910745 261.806102 
L 159.040897 261.827752 
L 159.585872 261.915336 
L 159.656541 261.926331 
L 159.990566 261.977177 
L 160.520724 262.054079 
L 160.629412 262.06927 
L 160.968373 262.115394 
L 161.498814 262.183776 
L 161.765692 262.216433 
L 161.928844 262.235821 
L 162.361729 262.285151 
L 162.639134 262.315153 
L 163.035572 262.355849 
L 163.282981 262.379949 
L 163.716833 262.419806 
L 163.814909 262.428393 
L 164.098908 262.452376 
L 164.628104 262.493578 
L 164.945431 262.516111 
L 165.229212 262.534883 
L 165.303459 262.53958 
L 165.725429 262.564584 
L 165.94307 262.576358 
L 166.231444 262.590782 
L 166.743275 262.613087 
L 167.137059 262.627378 
L 167.259253 262.631306 
L 167.741085 262.644456 
L 167.84165 262.64673 
L 168.252584 262.654335 
L 168.539136 262.658034 
L 168.959291 262.661074 
L 169.2 262.661538 
z
" style="fill:#808080;opacity:0.5;"/>
   </g>
   <g id="patch_5">
    <path clip-path="url(#pa40564abeb)" d="M 231.507692 192.006198 
L 231.264978 192.145603 
L 230.975097 192.310207 
L 230.484853 192.583948 
L 230.12794 192.779616 
L 230.045654 192.824298 
L 229.716144 193.001627 
L 229.419437 193.159128 
L 229.038591 193.358304 
L 228.590767 193.588254 
L 228.386693 193.691531 
L 227.980477 193.894321 
L 227.645509 194.058774 
L 227.394637 194.180316 
L 227.096122 194.32314 
L 226.94926 194.392693 
L 226.369026 194.662927 
L 226.137513 194.768734 
L 225.968376 194.845312 
L 225.472862 195.066182 
L 225.385065 195.104778 
L 224.866319 195.329547 
L 224.585194 195.449031 
L 224.184393 195.616576 
L 223.862286 195.748855 
L 223.75781 195.791309 
L 223.271885 195.985881 
L 223.195419 196.016069 
L 222.595516 196.248874 
L 222.57009 196.258584 
L 222.211344 196.394233 
L 221.849441 196.528527 
L 221.410354 196.68805 
L 221.066521 196.810375 
L 220.788716 196.907556 
L 220.426548 197.032043 
L 220.096524 197.143321 
L 219.902268 197.207862 
L 219.666202 197.285342 
L 219.400694 197.371242 
L 218.973798 197.506611 
L 218.68097 197.597519 
L 218.218526 197.737876 
L 218.105583 197.771562 
L 217.624969 197.912311 
L 217.514564 197.944053 
L 217.143729 198.049057 
L 216.693105 198.173329 
L 216.533933 198.216357 
L 216.226736 198.298124 
L 215.804196 198.407857 
L 215.689407 198.437123 
L 215.111502 198.580938 
L 214.775901 198.661769 
L 214.67286 198.686193 
L 214.402171 198.749474 
L 214.032278 198.833891 
L 213.529082 198.944936 
L 213.284752 198.997283 
L 213.051117 199.046382 
L 212.617717 199.134991 
L 212.563905 199.145769 
L 212.161324 199.224843 
L 211.756323 199.301619 
L 211.552173 199.339269 
L 211.29046 199.386508 
L 210.942984 199.447446 
L 210.437881 199.532419 
L 210.230823 199.566019 
L 209.886181 199.620362 
L 209.581556 199.66675 
L 209.233088 199.717927 
L 209.010455 199.749571 
L 208.54474 199.813117 
L 208.216872 199.855711 
L 207.989515 199.884209 
L 207.706047 199.918552 
L 207.281873 199.967483 
L 207.047059 199.993304 
L 206.764987 200.023132 
L 206.50958 200.04902 
L 206.183466 200.080532 
L 205.77759 200.117335 
L 205.387113 200.150218 
L 205.077608 200.174526 
L 204.790744 200.195671 
L 204.721712 200.200561 
L 204.325319 200.227147 
L 204.057475 200.243675 
L 203.772496 200.25999 
L 203.357311 200.281415 
L 202.960174 200.299311 
L 202.815266 200.305209 
L 202.331175 200.322463 
L 202.106114 200.329202 
L 201.880756 200.335134 
L 201.312239 200.346475 
L 201.237615 200.347578 
L 200.833445 200.352 
L 200.451248 200.35377 
L 200.060451 200.353155 
L 199.864182 200.351922 
L 199.466218 200.347523 
L 199.230605 200.343721 
L 198.945895 200.337937 
L 198.606961 200.329353 
L 198.342692 200.32138 
L 197.969807 200.30822 
L 197.647913 200.295061 
L 197.412874 200.284399 
L 196.963092 200.261516 
L 196.605208 200.240979 
L 196.404829 200.228577 
L 196.140305 200.211213 
L 195.839721 200.190109 
L 195.440941 200.159855 
L 195.265832 200.145756 
L 195.025895 200.125631 
L 194.606542 200.088212 
L 194.240986 200.053262 
L 193.972869 200.026245 
L 193.600904 199.986821 
L 193.397345 199.96429 
L 192.995468 199.917818 
L 192.65597 199.876496 
L 192.264541 199.826504 
L 192.176295 199.814885 
L 191.718749 199.752585 
L 191.498058 199.721299 
L 191.213404 199.679755 
L 190.713921 199.60361 
L 190.436848 199.559581 
L 190.149735 199.512605 
L 189.923233 199.474574 
L 189.525008 199.405626 
L 189.139109 199.336269 
L 189.064388 199.32255 
L 188.710153 199.256226 
L 188.345265 199.185687 
L 188.019134 199.120726 
L 187.578583 199.030096 
L 187.342553 198.980174 
L 186.95589 198.896325 
L 186.659762 198.830367 
L 186.432869 198.778805 
L 186.22355 198.730446 
L 185.683231 198.602091 
L 185.627555 198.588576 
L 185.130863 198.465599 
L 184.79323 198.379526 
L 184.656344 198.344056 
L 184.353227 198.26433 
L 184.052639 198.183656 
L 183.513248 198.034843 
L 183.421115 198.008902 
L 182.924559 197.866455 
L 182.786307 197.826001 
L 182.262087 197.669444 
L 182.059533 197.607606 
L 181.818085 197.532909 
L 181.469476 197.423162 
L 181.197944 197.336119 
L 180.906471 197.241155 
L 180.483137 197.100395 
L 180.033421 196.947163 
L 179.956016 196.920402 
L 179.546257 196.776834 
L 179.293649 196.686725 
L 178.788384 196.502799 
L 178.68754 196.465497 
L 178.408882 196.361393 
L 177.860007 196.151883 
L 177.744344 196.106975 
L 177.187928 195.887218 
L 177.142692 195.869081 
L 176.839019 195.746253 
L 176.364407 195.550548 
L 175.955277 195.378155 
L 175.866399 195.34025 
L 175.610567 195.230231 
L 175.100318 195.006735 
L 174.745459 194.848082 
L 174.502971 194.738135 
L 174.236801 194.616008 
L 173.774048 194.400061 
L 173.600853 194.318046 
L 173.126408 194.090022 
L 172.845254 193.952557 
L 172.754535 193.907827 
L 172.21395 193.637473 
L 172.121047 193.590348 
L 171.5537 193.298304 
L 171.281493 193.155562 
L 171.150939 193.086491 
L 170.722765 192.85717 
L 170.593237 192.786949 
L 170.288772 192.620322 
L 169.856531 192.379958 
L 169.604249 192.237581 
L 169.2 192.006198 
L 169.2 262.661538 
L 169.645306 262.659947 
L 169.82158 262.658438 
L 170.147011 262.654341 
L 170.561436 262.646663 
L 170.765027 262.64188 
L 171.163401 262.630596 
L 171.389881 262.623044 
L 171.586997 262.615799 
L 171.914182 262.602394 
L 172.408822 262.578857 
L 172.710541 262.562564 
L 173.084768 262.540317 
L 173.11398 262.538485 
L 173.632552 262.503673 
L 173.910201 262.483248 
L 174.222681 262.458767 
L 174.383113 262.445584 
L 174.921664 262.398274 
L 175.194632 262.372496 
L 175.436066 262.348685 
L 175.916775 262.298446 
L 176.03181 262.285864 
L 176.530903 262.228771 
L 176.698516 262.208683 
L 176.924804 262.18083 
L 177.332026 262.128588 
L 177.547227 262.099877 
L 178.014971 262.034838 
L 178.239997 262.00226 
L 178.664488 261.93852 
L 178.985914 261.888263 
L 179.279654 261.840829 
L 179.604594 261.786679 
L 179.997606 261.718822 
L 180.312846 261.662518 
L 180.538299 261.621223 
L 180.890172 261.555059 
L 180.988275 261.536238 
L 181.564725 261.42235 
L 181.624527 261.410211 
L 181.921619 261.349001 
L 182.265823 261.276197 
L 182.569266 261.210327 
L 183.078083 261.096313 
L 183.277871 261.050321 
L 183.553139 260.985817 
L 183.768652 260.934395 
L 184.214887 260.825341 
L 184.400209 260.779024 
L 184.733336 260.694247 
L 185.281044 260.550595 
L 185.488422 260.494812 
L 185.818152 260.404538 
L 186.048417 260.340339 
L 186.400485 260.240337 
L 186.81877 260.118614 
L 187.179423 260.011108 
L 187.471436 259.92232 
L 187.748483 259.836636 
L 188.03971 259.745039 
L 188.393065 259.631791 
L 188.717377 259.525803 
L 189.066513 259.409499 
L 189.128562 259.38859 
L 189.493433 259.26416 
L 189.837625 259.144466 
L 190.311549 258.975949 
L 190.466492 258.919919 
L 190.650096 258.852922 
L 191.145742 258.668792 
L 191.371282 258.583416 
L 191.592107 258.498855 
L 192.009139 258.336531 
L 192.251014 258.240799 
L 192.82687 258.008157 
L 192.993907 257.939422 
L 193.234601 257.839379 
L 193.665203 257.657444 
L 193.997237 257.514546 
L 194.13376 257.455126 
L 194.659625 257.222608 
L 194.884464 257.121415 
L 195.320915 256.921914 
L 195.519922 256.829595 
L 195.680916 256.754286 
L 196.001896 256.602463 
L 196.467502 256.378233 
L 196.779882 256.225114 
L 197.162668 256.034523 
L 197.268957 255.981017 
L 197.555611 255.835445 
L 198.074169 255.567349 
L 198.207502 255.497416 
L 198.63362 255.271153 
L 198.829454 255.165742 
L 199.147319 254.992721 
L 199.53946 254.775953 
L 199.869936 254.590398 
L 200.298179 254.345991 
L 200.47705 254.242571 
L 200.713086 254.104883 
L 201.135182 253.855179 
L 201.481691 253.646819 
L 201.632113 253.555411 
L 202.230012 253.186287 
L 202.2726 253.159638 
L 202.642324 252.926268 
L 202.976626 252.712113 
L 203.29801 252.503383 
L 203.60837 252.299131 
L 204.043155 252.008498 
L 204.177599 251.917555 
L 204.633556 251.605301 
L 204.74549 251.527732 
L 205.114001 251.269787 
L 205.56843 250.946196 
L 205.783924 250.790589 
L 206.069028 250.582556 
L 206.383022 250.35056 
L 206.72645 250.093308 
L 207.017398 249.872458 
L 207.376604 249.596058 
L 207.658517 249.376198 
L 208.102435 249.024669 
L 208.36768 248.81147 
L 208.78886 248.467988 
L 209.007382 248.28735 
L 209.340681 248.008586 
L 209.614706 247.776416 
L 210.058515 247.394576 
L 210.350697 247.139193 
L 210.401212 247.094713 
L 210.961571 246.594734 
L 211.242506 246.339455 
L 211.398024 246.196788 
L 211.886747 245.742062 
L 212.136999 245.505398 
L 212.334466 245.31679 
L 212.784379 244.880809 
L 212.959469 244.708749 
L 213.317303 244.352847 
L 213.603036 244.064474 
L 213.984252 243.67381 
L 214.249943 243.397442 
L 214.497808 243.136519 
L 214.784538 242.83088 
L 215.166749 242.416972 
L 215.50977 242.03902 
L 215.913179 241.586448 
L 216.311238 241.131043 
L 216.602613 240.791957 
L 216.688307 240.691288 
L 217.029819 240.28575 
L 217.508695 239.705066 
L 217.627151 239.559197 
L 218.162367 238.888703 
L 218.236983 238.793706 
L 218.591614 238.33696 
L 219.079366 237.694137 
L 219.434834 237.214529 
L 219.498742 237.127275 
L 219.988179 236.448297 
L 220.208431 236.136363 
L 220.692941 235.435544 
L 220.891378 235.142493 
L 221.248052 234.606565 
L 221.629355 234.020021 
L 221.662964 233.967622 
L 221.959599 233.500086 
L 222.256235 233.023166 
L 222.576725 232.496866 
L 222.619204 232.42622 
L 222.892357 231.966807 
L 223.165511 231.498222 
L 223.518155 230.879026 
L 223.582785 230.763732 
L 223.859516 230.263474 
L 224.136247 229.7521 
L 224.301334 229.441497 
L 224.499932 229.062139 
L 224.698529 228.676308 
L 224.963986 228.150003 
L 225.163036 227.747041 
L 225.362086 227.336594 
L 225.596238 226.843709 
L 225.806996 226.390293 
L 225.993499 225.980921 
L 226.180003 225.563523 
L 226.341242 225.195886 
L 226.502481 224.821665 
L 226.656999 224.45658 
L 226.808755 224.091578 
L 226.96051 223.719889 
L 227.112266 223.34119 
L 227.264022 222.955128 
L 227.321083 222.807983 
L 227.466767 222.427186 
L 227.612452 222.038725 
L 227.742951 221.683905 
L 227.87345 221.32227 
L 228.003949 220.95346 
L 228.134448 220.577084 
L 228.26848 220.182189 
L 228.422005 219.718832 
L 228.575529 219.242866 
L 228.704355 218.833031 
L 228.833181 218.412979 
L 228.962007 217.981979 
L 229.090833 217.539209 
L 229.185023 217.207496 
L 229.279214 216.868586 
L 229.403262 216.410488 
L 229.527311 215.937944 
L 229.651359 215.449597 
L 229.775408 214.94386 
L 229.880536 214.500262 
L 229.991179 214.016974 
L 230.101822 213.515022 
L 230.212466 212.992183 
L 230.267787 212.722107 
L 230.323109 212.445748 
L 230.395049 212.07624 
L 230.466989 211.694244 
L 230.538929 211.29845 
L 230.610868 210.887305 
L 230.661864 210.585554 
L 230.712859 210.274368 
L 230.763854 209.952828 
L 230.814849 209.619856 
L 230.85608 209.341409 
L 230.897312 209.053858 
L 230.938544 208.756271 
L 230.979775 208.44754 
L 231.021007 208.126337 
L 231.062239 207.791047 
L 231.10347 207.43967 
L 231.144702 207.06968 
L 231.167389 206.857018 
L 231.190076 206.637081 
L 231.212763 206.409075 
L 231.235449 206.172053 
L 231.258136 205.924863 
L 231.280823 205.666087 
L 231.30351 205.39394 
L 231.326197 205.106125 
L 231.348884 204.799601 
L 231.360227 204.638078 
L 231.371571 204.470191 
L 231.382914 204.295126 
L 231.394258 204.11188 
L 231.405601 203.919192 
L 231.416945 203.71544 
L 231.428288 203.498472 
L 231.439632 203.265337 
L 231.450975 203.011782 
L 231.462319 202.731285 
L 231.473662 202.412862 
L 231.485005 202.035102 
L 231.496349 201.542728 
L 231.507692 200.353846 
z
" style="fill:#808080;opacity:0.5;"/>
   </g>
   <g id="matplotlib.axis_1"/>
   <g id="matplotlib.axis_2"/>
   <g id="line2d_1">
    <path clip-path="url(#pa40564abeb)" d="M 106.892308 200.353846 
L 107.045384 204.718726 
L 107.392709 208.234666 
L 107.919929 211.623339 
L 108.660597 215.092542 
L 109.612054 218.56168 
L 110.758374 221.959976 
L 112.054982 225.1872 
L 113.70097 228.675326 
L 115.626554 232.167906 
L 117.690039 235.410549 
L 119.729107 238.233647 
L 122.151997 241.203986 
L 124.790622 244.05803 
L 127.555665 246.700344 
L 130.390915 249.099137 
L 133.565971 251.466119 
L 136.760901 253.551153 
L 140.05272 255.423662 
L 143.385662 257.062474 
L 147.071399 258.599649 
L 150.369143 259.747847 
L 154.020781 260.784301 
L 157.802034 261.610151 
L 161.498814 262.183776 
L 165.303459 262.53958 
L 169.2 262.661538 
L 169.2 262.661538 
" style="fill:none;stroke:#ff0000;stroke-linecap:square;"/>
   </g>
   <g id="line2d_2">
    <path clip-path="url(#pa40564abeb)" d="M 169.2 262.661538 
L 173.11398 262.538485 
L 176.924804 262.18083 
L 180.538299 261.621223 
L 184.214887 260.825341 
L 187.748483 259.836636 
L 191.371282 258.583416 
L 194.884464 257.121415 
L 198.207502 255.497416 
L 201.632113 253.555411 
L 204.74549 251.527732 
L 207.658517 249.376198 
L 210.401212 247.094713 
L 213.317303 244.352847 
L 215.913179 241.586448 
L 218.236983 238.793706 
L 220.208431 236.136363 
L 222.256235 233.023166 
L 224.136247 229.7521 
L 225.806996 226.390293 
L 227.321083 222.807983 
L 228.575529 219.242866 
L 229.527311 215.937944 
L 230.395049 212.07624 
L 230.979775 208.44754 
L 231.360227 204.638078 
L 231.496349 201.542728 
L 231.507692 200.353846 
L 231.507692 200.353846 
" style="fill:none;stroke:#ff0000;stroke-linecap:square;"/>
   </g>
   <g id="text_1">
    <!-- $\Omega$ -->
    <g transform="translate(16.011538 22.420913)scale(0.1 -0.1)">
     <defs>
      <path d="M 7.71875 0 
L 4.390625 16.609375 
L 7.328125 16.609375 
Q 7.859375 13.71875 8.296875 11.5 
Q 8.734375 9.28125 9.4375 8.375 
Q 10.15625 7.46875 11.71875 7.171875 
Q 13.28125 6.890625 16.890625 6.890625 
L 23 6.890625 
Q 21.53125 12.546875 15.6875 21.65625 
Q 9.859375 30.765625 7.734375 34.890625 
Q 5.609375 39.015625 5.609375 45.515625 
Q 5.609375 53.078125 10.09375 58.765625 
Q 14.59375 64.453125 21.703125 67.484375 
Q 28.8125 70.515625 36.078125 70.515625 
Q 43.3125 70.515625 50.40625 67.484375 
Q 57.515625 64.453125 62 58.71875 
Q 66.5 52.984375 66.5 45.515625 
Q 66.5 40.4375 64.640625 35.9375 
Q 62.796875 31.453125 59.90625 26.953125 
Q 57.03125 22.46875 53.6875 16.9375 
Q 50.34375 11.421875 49.125 6.890625 
L 55.171875 6.890625 
Q 58.84375 6.890625 60.453125 7.171875 
Q 62.0625 7.46875 62.734375 8.375 
Q 63.421875 9.28125 63.84375 11.5 
Q 64.265625 13.71875 64.796875 16.609375 
L 67.671875 16.609375 
L 64.40625 0 
L 46.6875 0 
Q 45.703125 0 45.703125 1.3125 
Q 45.703125 6.390625 46.9375 11.265625 
Q 48.1875 16.15625 50.625 23.09375 
Q 53.078125 30.03125 54.4375 35.328125 
Q 55.8125 40.625 55.8125 45.515625 
Q 55.8125 51.515625 53.46875 56.640625 
Q 51.125 61.765625 46.625 64.84375 
Q 42.140625 67.921875 36.078125 67.921875 
Q 26.953125 67.921875 21.625 61.40625 
Q 16.3125 54.890625 16.3125 45.515625 
Q 16.359375 40.375 17.53125 35.828125 
Q 18.703125 31.296875 21.3125 23.71875 
Q 23.921875 16.15625 25.171875 11.265625 
Q 26.421875 6.390625 26.421875 1.3125 
Q 26.421875 0 25.390625 0 
z
" id="Cmr10-173"/>
     </defs>
     <use transform="translate(0 0.484375)" xlink:href="#Cmr10-173"/>
    </g>
   </g>
   <g id="text_2">
    <!-- $A$ -->
    <g style="fill:#0000ff;" transform="translate(103.142308 78.497837)scale(0.1 -0.1)">
     <defs>
      <path d="M 4.5 0 
Q 3.515625 0 3.515625 1.3125 
Q 3.90625 3.515625 4.78125 3.515625 
Q 8.84375 3.515625 11.796875 5.125 
Q 14.75 6.734375 16.890625 10.109375 
Q 17.09375 10.296875 17.09375 10.296875 
L 52.78125 70.515625 
Q 53.5625 71.578125 54.6875 71.578125 
L 56 71.578125 
Q 56.296875 71.578125 56.59375 71.453125 
Q 56.890625 71.34375 57.109375 71.0625 
Q 57.328125 70.796875 57.328125 70.515625 
L 63.375 5.90625 
Q 63.375 5.46875 63.8125 4.59375 
Q 64.796875 3.515625 71.296875 3.515625 
Q 72.3125 3.515625 72.3125 2.203125 
Q 71.96875 0.875 71.75 0.4375 
Q 71.53125 0 70.609375 0 
L 45.609375 0 
Q 44.671875 0 44.671875 1.3125 
Q 45.21875 3.515625 46 3.515625 
Q 53.90625 3.515625 54.390625 6.203125 
L 52.875 22.703125 
L 28.21875 22.703125 
L 20.21875 9.28125 
Q 19.484375 8.203125 19.484375 6.78125 
Q 19.484375 5.03125 21.171875 4.265625 
Q 22.859375 3.515625 24.90625 3.515625 
Q 25.875 3.515625 25.875 2.203125 
Q 25.53125 0.78125 25.328125 0.390625 
Q 25.140625 0 24.21875 0 
z
M 30.171875 26.21875 
L 52.484375 26.21875 
L 49.515625 58.59375 
z
" id="Cmmi10-65"/>
     </defs>
     <use transform="translate(0 0.421875)" xlink:href="#Cmmi10-65"/>
    </g>
   </g>
   <g id="text_3">
    <!-- $B$ -->
    <g style="fill:#ff0000;" transform="translate(149.823077 271.651683)scale(0.1 -0.1)">
     <defs>
      <path d="M 4.984375 0 
Q 4 0 4 1.3125 
Q 4.046875 1.5625 4.1875 2.140625 
Q 4.34375 2.734375 4.578125 3.125 
Q 4.828125 3.515625 5.328125 3.515625 
Q 8.15625 3.515625 10.25 3.65625 
Q 12.359375 3.8125 13.8125 4.203125 
Q 14.984375 4.640625 15.71875 6.890625 
L 29.390625 61.8125 
Q 29.59375 62.796875 29.59375 63.1875 
Q 29.59375 64.265625 28.421875 64.40625 
Q 26.515625 64.796875 21.1875 64.796875 
Q 20.21875 64.796875 20.21875 66.109375 
Q 20.265625 66.359375 20.40625 66.96875 
Q 20.5625 67.578125 20.828125 67.9375 
Q 21.09375 68.3125 21.484375 68.3125 
L 57.328125 68.3125 
Q 60.59375 68.3125 63.796875 67.5 
Q 67 66.703125 69.703125 64.9375 
Q 72.40625 63.1875 74 60.5625 
Q 75.59375 57.953125 75.59375 54.5 
Q 75.59375 50.734375 73.65625 47.5 
Q 71.734375 44.28125 68.671875 41.890625 
Q 65.625 39.5 62.078125 37.953125 
Q 58.546875 36.421875 54.6875 35.6875 
Q 57.421875 35.6875 60.21875 34.609375 
Q 63.03125 33.546875 65.234375 31.6875 
Q 67.4375 29.828125 68.78125 27.234375 
Q 70.125 24.65625 70.125 21.6875 
Q 70.125 15.671875 65.921875 10.6875 
Q 61.71875 5.71875 55.34375 2.859375 
Q 48.96875 0 43.015625 0 
z
M 23.390625 4.296875 
Q 23.390625 3.515625 26.8125 3.515625 
L 41.109375 3.515625 
Q 46 3.515625 50.484375 6.21875 
Q 54.984375 8.9375 57.6875 13.421875 
Q 60.40625 17.921875 60.40625 22.796875 
Q 60.40625 25.78125 59.15625 28.4375 
Q 57.90625 31.109375 55.5625 32.640625 
Q 53.21875 34.1875 50.203125 34.1875 
L 30.71875 34.1875 
L 23.78125 6.5 
Q 23.390625 5.125 23.390625 4.296875 
z
M 31.390625 36.8125 
L 46.578125 36.8125 
Q 51.375 36.8125 55.890625 39.25 
Q 60.40625 41.703125 63.25 45.890625 
Q 66.109375 50.09375 66.109375 54.78125 
Q 66.109375 59.125 63.390625 61.953125 
Q 60.6875 64.796875 56.390625 64.796875 
L 42.671875 64.796875 
Q 39.984375 64.796875 39.0625 64.296875 
Q 38.140625 63.8125 37.5 61.375 
z
" id="Cmmi10-66"/>
     </defs>
     <use transform="translate(0 0.6875)" xlink:href="#Cmmi10-66"/>
    </g>
   </g>
   <g id="text_4">
    <!-- $C$ -->
    <g style="fill:#228b22;" transform="translate(227.907692 78.497837)scale(0.1 -0.1)">
     <defs>
      <path d="M 14.59375 21.578125 
Q 14.59375 15.578125 16.90625 11.015625 
Q 19.234375 6.453125 23.65625 3.875 
Q 28.078125 1.3125 34.078125 1.3125 
Q 40.375 1.3125 46.203125 4.53125 
Q 52.046875 7.765625 56.171875 13.15625 
Q 60.296875 18.5625 61.8125 24.609375 
Q 62.015625 25.203125 62.59375 25.203125 
L 63.8125 25.203125 
Q 64.203125 25.203125 64.453125 24.921875 
Q 64.703125 24.65625 64.703125 24.3125 
Q 64.703125 24.21875 64.59375 24.03125 
Q 62.890625 17.09375 57.984375 11.015625 
Q 53.078125 4.9375 46.234375 1.359375 
Q 39.40625 -2.203125 32.171875 -2.203125 
Q 24.359375 -2.203125 18.15625 1.3125 
Q 11.96875 4.828125 8.515625 11.078125 
Q 5.078125 17.328125 5.078125 25.203125 
Q 5.078125 33.59375 8.828125 41.8125 
Q 12.59375 50.046875 18.9375 56.46875 
Q 25.296875 62.890625 33.421875 66.703125 
Q 41.546875 70.515625 49.90625 70.515625 
Q 53.21875 70.515625 56.25 69.5 
Q 59.28125 68.5 61.859375 66.453125 
Q 64.453125 64.40625 66.109375 61.71875 
L 74.03125 70.3125 
Q 74.03125 70.515625 74.515625 70.515625 
L 75.09375 70.515625 
Q 75.484375 70.515625 75.734375 70.171875 
Q 75.984375 69.828125 75.984375 69.484375 
L 69.1875 42.484375 
Q 69.1875 41.796875 68.40625 41.796875 
L 66.609375 41.796875 
Q 65.828125 41.796875 65.828125 42.921875 
Q 66.21875 45.125 66.21875 48.1875 
Q 66.21875 53.078125 64.546875 57.390625 
Q 62.890625 61.71875 59.390625 64.359375 
Q 55.90625 67 50.875 67 
Q 42.71875 67 35.9375 62.890625 
Q 29.15625 58.796875 24.4375 52.125 
Q 19.734375 45.453125 17.15625 37.328125 
Q 14.59375 29.203125 14.59375 21.578125 
z
" id="Cmmi10-67"/>
     </defs>
     <use transform="translate(0 0.484375)" xlink:href="#Cmmi10-67"/>
    </g>
   </g>
   <g id="patch_6">
    <path clip-path="url(#pa40564abeb)" d="M 138.046154 200.353846 
C 154.570347 200.353846 170.419977 193.788715 182.104346 182.104346 
C 193.788715 170.419977 200.353846 154.570347 200.353846 138.046154 
C 200.353846 121.521961 193.788715 105.672331 182.104346 93.987962 
C 170.419977 82.303593 154.570347 75.738462 138.046154 75.738462 
C 121.521961 75.738462 105.672331 82.303593 93.987962 93.987962 
C 82.303593 105.672331 75.738462 121.521961 75.738462 138.046154 
C 75.738462 154.570347 82.303593 170.419977 93.987962 182.104346 
C 105.672331 193.788715 121.521961 200.353846 138.046154 200.353846 
z
" style="fill:none;stroke:#0000ff;stroke-linejoin:miter;"/>
   </g>
   <g id="patch_7">
    <path clip-path="url(#pa40564abeb)" d="M 169.2 262.661538 
C 185.724193 262.661538 201.573823 256.096407 213.258192 244.412038 
C 224.942561 232.727669 231.507692 216.878039 231.507692 200.353846 
C 231.507692 183.829653 224.942561 167.980023 213.258192 156.295654 
C 201.573823 144.611285 185.724193 138.046154 169.2 138.046154 
C 152.675807 138.046154 136.826177 144.611285 125.141808 156.295654 
C 113.457439 167.980023 106.892308 183.829653 106.892308 200.353846 
C 106.892308 216.878039 113.457439 232.727669 125.141808 244.412038 
C 136.826177 256.096407 152.675807 262.661538 169.2 262.661538 
z
" style="fill:none;stroke:#ff0000;stroke-linejoin:miter;"/>
   </g>
   <g id="patch_8">
    <path clip-path="url(#pa40564abeb)" d="M 200.353846 200.353846 
C 216.878039 200.353846 232.727669 193.788715 244.412038 182.104346 
C 256.096407 170.419977 262.661538 154.570347 262.661538 138.046154 
C 262.661538 121.521961 256.096407 105.672331 244.412038 93.987962 
C 232.727669 82.303593 216.878039 75.738462 200.353846 75.738462 
C 183.829653 75.738462 167.980023 82.303593 156.295654 93.987962 
C 144.611285 105.672331 138.046154 121.521961 138.046154 138.046154 
C 138.046154 154.570347 144.611285 170.419977 156.295654 182.104346 
C 167.980023 193.788715 183.829653 200.353846 200.353846 200.353846 
z
" style="fill:none;stroke:#228b22;stroke-linejoin:miter;"/>
   </g>
  </g>
 </g>
 <defs>
  <clipPath id="pa40564abeb">
   <rect height="324" width="324" x="7.2" y="7.2"/>
  </clipPath>
 </defs>
</svg>
