<?xml version="1.0" encoding="utf-8" standalone="no"?>
<!DOCTYPE svg PUBLIC "-//W3C//DTD SVG 1.1//EN"
  "http://www.w3.org/Graphics/SVG/1.1/DTD/svg11.dtd">
<!-- Created with matplotlib (https://matplotlib.org/) -->
<svg height="338.4pt" version="1.1" viewBox="0 0 338.4 338.4" width="338.4pt" xmlns="http://www.w3.org/2000/svg" xmlns:xlink="http://www.w3.org/1999/xlink">
 <metadata>
  <rdf:RDF xmlns:cc="http://creativecommons.org/ns#" xmlns:dc="http://purl.org/dc/elements/1.1/" xmlns:rdf="http://www.w3.org/1999/02/22-rdf-syntax-ns#">
   <cc:Work>
    <dc:type rdf:resource="http://purl.org/dc/dcmitype/StillImage"/>
    <dc:date>2024-08-28T15:38:31.667249</dc:date>
    <dc:format>image/svg+xml</dc:format>
    <dc:creator>
     <cc:Agent>
      <dc:title>Matplotlib v3.3.4, https://matplotlib.org/</dc:title>
     </cc:Agent>
    </dc:creator>
   </cc:Work>
  </rdf:RDF>
 </metadata>
 <defs>
  <style type="text/css">*{stroke-linecap:butt;stroke-linejoin:round;}</style>
 </defs>
 <g id="figure_1">
  <g id="patch_1">
   <path d="M -0 338.4 
L 338.4 338.4 
L 338.4 0 
L -0 0 
z
" style="fill:#ffffff;"/>
  </g>
  <g id="axes_1">
   <g id="patch_2">
    <path d="M 7.2 331.2 
L 331.2 331.2 
L 331.2 7.2 
L 7.2 7.2 
z
" style="fill:#ffffff;"/>
   </g>
   <g id="patch_3">
    <path clip-path="url(#p2b4452bd1f)" d="M 13.430769 324.969231 
L 13.430769 13.430769 
L 324.969231 13.430769 
L 324.969231 324.969231 
z
" style="fill:none;stroke:#000000;stroke-linejoin:miter;"/>
   </g>
   <g id="patch_4">
    <path clip-path="url(#p2b4452bd1f)" d="M 106.892308 192.006198 
L 106.746907 191.921989 
L 106.516279 191.787344 
L 106.479965 191.766022 
L 106.23658 191.622264 
L 106.127929 191.557605 
L 105.943314 191.447055 
L 105.788732 191.35382 
L 105.634618 191.260258 
L 105.546418 191.206437 
L 105.280248 191.042795 
L 105.134223 190.952234 
L 105.079021 190.917854 
L 104.836377 190.765783 
L 104.751788 190.712402 
L 104.592382 190.611291 
L 104.419391 190.500795 
L 104.18721 190.351225 
L 104.031462 190.250074 
L 103.856901 190.135918 
L 103.75796 190.070843 
L 103.637781 189.991437 
L 103.429674 189.852986 
L 103.259454 189.738842 
L 103.155416 189.668678 
L 102.912242 189.503484 
L 102.76489 189.402565 
L 102.594898 189.285367 
L 102.573208 189.270354 
L 102.409169 189.156367 
L 102.220349 189.02419 
L 102.026235 188.887219 
L 101.903157 188.799797 
L 101.712749 188.663663 
L 101.503445 188.512766 
L 101.473512 188.491078 
L 101.239067 188.320272 
L 101.140551 188.247997 
L 101.014408 188.155019 
L 100.8168 188.008377 
L 100.575592 187.827732 
L 100.430495 187.718186 
L 100.267592 187.594401 
L 100.13935 187.496358 
L 100.073702 187.445966 
L 99.830562 187.258115 
L 99.701401 187.157542 
L 99.488644 186.990683 
L 99.419896 186.936447 
L 99.201183 186.762853 
L 99.021753 186.61924 
L 98.966031 186.574419 
L 98.733112 186.385923 
L 98.526212 186.21692 
L 98.483573 186.181907 
L 98.287522 186.020102 
L 98.112043 185.87413 
L 97.971849 185.756725 
L 97.754774 185.573548 
L 97.58258 185.427033 
L 97.453376 185.316386 
L 97.341937 185.220461 
L 97.138771 185.044393 
L 97.080087 184.99325 
L 96.872133 184.810976 
L 96.660761 184.624021 
L 96.505501 184.485606 
L 96.433714 184.421292 
L 96.17271 184.18576 
L 96.103054 184.122448 
L 95.997702 184.026326 
L 95.793313 183.838577 
L 95.669282 183.723821 
L 95.47204 183.540036 
L 95.361358 183.436205 
L 95.22487 183.307464 
L 95.01797 183.110817 
L 94.817074 182.91814 
L 94.741496 182.845207 
L 94.490883 182.60159 
L 94.379329 182.492266 
L 94.143779 182.259613 
L 94.042954 182.159269 
L 93.861901 181.977923 
L 93.795546 181.911085 
L 93.527347 181.638864 
L 93.467217 181.577371 
L 93.348185 181.45514 
L 93.089294 181.186962 
L 92.957187 181.04887 
L 92.742052 180.822162 
L 92.599786 180.670984 
L 92.446071 180.5065 
L 92.342588 180.395092 
L 92.127081 180.16132 
L 91.994446 180.016247 
L 91.912844 179.926534 
L 91.706987 179.698646 
L 91.618079 179.599522 
L 91.368727 179.319224 
L 91.312126 179.255124 
L 91.150681 179.071306 
L 90.854427 178.730173 
L 90.711355 178.563624 
L 90.566854 178.394198 
L 90.406966 178.205291 
L 90.358918 178.148224 
L 90.169289 177.921639 
L 90.007425 177.72649 
L 89.896569 177.5919 
L 89.600407 177.228523 
L 89.504992 177.110257 
L 89.394722 176.972838 
L 89.207649 176.737871 
L 89.074892 176.569706 
L 88.873788 176.31268 
L 88.794217 176.210211 
L 88.557508 175.902758 
L 88.419707 175.721932 
L 88.308447 175.57493 
L 88.071002 175.258151 
L 87.937198 175.077776 
L 87.727468 174.792288 
L 87.656049 174.694289 
L 87.44576 174.403391 
L 87.311954 174.216438 
L 87.123057 173.950008 
L 87.05274 173.850067 
L 86.79744 173.483675 
L 86.76851 173.4418 
L 86.506004 173.058459 
L 86.338193 172.810149 
L 86.179645 172.573155 
L 86.117957 172.480308 
L 85.887739 172.130583 
L 85.809139 172.009999 
L 85.623305 171.722458 
L 85.397467 171.368283 
L 85.348367 171.290579 
L 85.066854 170.840091 
L 84.916082 170.595255 
L 84.742499 170.310203 
L 84.690481 170.224107 
L 84.499433 169.905175 
L 84.401487 169.739974 
L 84.202566 169.400843 
L 84.061907 169.158043 
L 83.846621 168.781462 
L 83.692709 168.508452 
L 83.605073 168.351554 
L 83.454759 168.079937 
L 83.196259 167.605205 
L 83.106154 167.437393 
L 82.964979 167.171962 
L 82.844462 166.942897 
L 82.684206 166.634669 
L 82.547076 166.36754 
L 82.409947 166.097197 
L 82.374815 166.027408 
L 82.208422 165.693869 
L 82.053197 165.378137 
L 81.860241 164.979251 
L 81.712313 164.668454 
L 81.577018 164.380261 
L 81.394365 163.984992 
L 81.184017 163.520571 
L 81.015914 163.141976 
L 80.870278 162.808377 
L 80.731645 162.485786 
L 80.542243 162.036751 
L 80.395927 161.682987 
L 80.339114 161.543942 
L 80.160229 161.099749 
L 79.984378 160.653203 
L 79.875276 160.370971 
L 79.766174 160.084586 
L 79.717646 159.955826 
L 79.607704 159.660874 
L 79.497762 159.361274 
L 79.385136 159.049332 
L 79.27251 158.732074 
L 79.189643 158.495106 
L 79.090848 158.208506 
L 78.992054 157.917283 
L 78.896596 157.631311 
L 78.801139 157.340628 
L 78.684525 156.978812 
L 78.548987 156.54847 
L 78.473656 156.304469 
L 78.398325 156.056847 
L 78.283455 155.67194 
L 78.168584 155.277671 
L 78.130792 155.145802 
L 78.06569 154.916022 
L 78.000587 154.682814 
L 77.935485 154.446031 
L 77.870382 154.205517 
L 77.803521 153.954445 
L 77.73666 153.699061 
L 77.651999 153.369161 
L 77.567338 153.031523 
L 77.518165 152.831658 
L 77.435563 152.48931 
L 77.35296 152.138163 
L 77.298748 151.902604 
L 77.244536 151.662755 
L 77.190324 151.418384 
L 77.136113 151.16924 
L 77.068723 150.852459 
L 77.001334 150.527278 
L 76.941816 150.232559 
L 76.882299 149.930235 
L 76.81088 149.556575 
L 76.775171 149.364951 
L 76.739462 149.169912 
L 76.687257 148.878247 
L 76.635051 148.578249 
L 76.582846 148.269184 
L 76.530641 147.950205 
L 76.480699 147.63486 
L 76.430757 147.308515 
L 76.405785 147.140849 
L 76.380814 146.969965 
L 76.355843 146.795672 
L 76.330872 146.617763 
L 76.307509 146.447839 
L 76.284147 146.27434 
L 76.260785 146.097036 
L 76.237423 145.915669 
L 76.21406 145.729951 
L 76.190698 145.539558 
L 76.167336 145.344126 
L 76.143974 145.143237 
L 76.111445 144.853532 
L 76.095181 144.703895 
L 76.078917 144.550775 
L 76.062653 144.393922 
L 76.046389 144.23305 
L 76.030125 144.067838 
L 76.013861 143.897918 
L 75.994269 143.686377 
L 75.974677 143.466515 
L 75.955085 143.237276 
L 75.935494 142.997357 
L 75.923179 142.840373 
L 75.910865 142.678039 
L 75.89855 142.509771 
L 75.886236 142.334871 
L 75.873921 142.152491 
L 75.861607 141.961586 
L 75.849292 141.760843 
L 75.843135 141.656272 
L 75.836978 141.548569 
L 75.83082 141.437437 
L 75.824663 141.322526 
L 75.818506 141.203423 
L 75.812349 141.079635 
L 75.806191 140.950562 
L 75.800034 140.815467 
L 75.793877 140.67342 
L 75.78772 140.523225 
L 75.781562 140.363299 
L 75.775405 140.191467 
L 75.769248 140.004596 
L 75.763091 139.797881 
L 75.756933 139.563232 
L 75.750776 139.284873 
L 75.744619 138.922082 
L 75.738462 138.046154 
L 75.738462 324.969231 
L 75.859686 324.969231 
L 76.086281 324.969231 
L 76.176802 324.969231 
L 76.394631 324.969231 
L 76.472654 324.969231 
L 76.737806 324.969231 
L 76.852838 324.969231 
L 77.025398 324.969231 
L 77.147619 324.969231 
L 77.356207 324.969231 
L 77.458904 324.969231 
L 77.614226 324.969231 
L 77.736708 324.969231 
L 77.876935 324.969231 
L 78.118534 324.969231 
L 78.319757 324.969231 
L 78.351239 324.969231 
L 78.572679 324.969231 
L 78.684464 324.969231 
L 78.947005 324.969231 
L 79.045299 324.969231 
L 79.184079 324.969231 
L 79.287828 324.969231 
L 79.443424 324.969231 
L 79.657947 324.969231 
L 79.772076 324.969231 
L 79.97144 324.969231 
L 80.18574 324.969231 
L 80.244265 324.969231 
L 80.37583 324.969231 
L 80.653314 324.969231 
L 80.822661 324.969231 
L 80.870683 324.969231 
L 81.068886 324.969231 
L 81.21526 324.969231 
L 81.395409 324.969231 
L 81.604074 324.969231 
L 81.703516 324.969231 
L 81.895684 324.969231 
L 82.054184 324.969231 
L 82.178085 324.969231 
L 82.303993 324.969231 
L 82.444274 324.969231 
L 82.664774 324.969231 
L 82.751779 324.969231 
L 83.016277 324.969231 
L 83.048903 324.969231 
L 83.197413 324.969231 
L 83.432069 324.969231 
L 83.534688 324.969231 
L 83.66135 324.969231 
L 83.942789 324.969231 
L 84.007687 324.969231 
L 84.268555 324.969231 
L 84.356865 324.969231 
L 84.456302 324.969231 
L 84.73121 324.969231 
L 84.895388 324.969231 
L 84.911642 324.969231 
L 85.186064 324.969231 
L 85.262248 324.969231 
L 85.415506 324.969231 
L 85.590883 324.969231 
L 85.715205 324.969231 
L 85.96847 324.969231 
L 86.054291 324.969231 
L 86.170202 324.969231 
L 86.310417 324.969231 
L 86.588089 324.969231 
L 86.744355 324.969231 
L 86.808763 324.969231 
L 86.986632 324.969231 
L 87.180684 324.969231 
L 87.284905 324.969231 
L 87.506494 324.969231 
L 87.622339 324.969231 
L 87.853104 324.969231 
L 87.872323 324.969231 
L 88.168124 324.969231 
L 88.242082 324.969231 
L 88.359283 324.969231 
L 88.627595 324.969231 
L 88.809849 324.969231 
L 88.815211 324.969231 
L 89.073112 324.969231 
L 89.26303 324.969231 
L 89.335985 324.969231 
L 89.460556 324.969231 
L 89.691857 324.969231 
L 89.821392 324.969231 
L 89.960303 324.969231 
L 90.076403 324.969231 
L 90.252219 324.969231 
L 90.507608 324.969231 
L 90.668673 324.969231 
L 90.803481 324.969231 
L 90.977852 324.969231 
L 91.030211 324.969231 
L 91.20951 324.969231 
L 91.316618 324.969231 
L 91.556801 324.969231 
L 91.747111 324.969231 
L 91.888617 324.969231 
L 92.031105 324.969231 
L 92.11224 324.969231 
L 92.39395 324.969231 
L 92.558484 324.969231 
L 92.682824 324.969231 
L 92.872121 324.969231 
L 92.948825 324.969231 
L 93.168211 324.969231 
L 93.229939 324.969231 
L 93.359229 324.969231 
L 93.61851 324.969231 
L 93.806294 324.969231 
L 93.951972 324.969231 
L 94.094707 324.969231 
L 94.213441 324.969231 
L 94.426194 324.969231 
L 94.47226 324.969231 
L 94.688875 324.969231 
L 94.894331 324.969231 
L 95.015422 324.969231 
L 95.143596 324.969231 
L 95.259259 324.969231 
L 95.521292 324.969231 
L 95.683909 324.969231 
L 95.738501 324.969231 
L 95.996133 324.969231 
L 96.047047 324.969231 
L 96.295327 324.969231 
L 96.401046 324.969231 
L 96.620852 324.969231 
L 96.693501 324.969231 
L 96.914308 324.969231 
L 97.099353 324.969231 
L 97.158019 324.969231 
L 97.402595 324.969231 
L 97.571802 324.969231 
L 97.659465 324.969231 
L 97.829318 324.969231 
L 97.983731 324.969231 
L 98.135462 324.969231 
L 98.215893 324.969231 
L 98.37079 324.969231 
L 98.575376 324.969231 
L 98.739387 324.969231 
L 98.948301 324.969231 
L 99.017448 324.969231 
L 99.182445 324.969231 
L 99.440781 324.969231 
L 99.610553 324.969231 
L 99.650113 324.969231 
L 99.771762 324.969231 
L 100.049706 324.969231 
L 100.181606 324.969231 
L 100.260651 324.969231 
L 100.505507 324.969231 
L 100.672982 324.969231 
L 100.76889 324.969231 
L 100.994826 324.969231 
L 101.071452 324.969231 
L 101.179597 324.969231 
L 101.407286 324.969231 
L 101.575896 324.969231 
L 101.664438 324.969231 
L 101.892844 324.969231 
L 102.062848 324.969231 
L 102.117476 324.969231 
L 102.324052 324.969231 
L 102.510244 324.969231 
L 102.65396 324.969231 
L 102.898404 324.969231 
L 102.97921 324.969231 
L 103.088315 324.969231 
L 103.360339 324.969231 
L 103.512001 324.969231 
L 103.531957 324.969231 
L 103.774626 324.969231 
L 103.87869 324.969231 
L 104.115978 324.969231 
L 104.224477 324.969231 
L 104.434446 324.969231 
L 104.546802 324.969231 
L 104.691649 324.969231 
L 104.876881 324.969231 
L 104.97327 324.969231 
L 105.150522 324.969231 
L 105.379908 324.969231 
L 105.546817 324.969231 
L 105.633662 324.969231 
L 105.871705 324.969231 
L 105.975445 324.969231 
L 106.05329 324.969231 
L 106.247639 324.969231 
L 106.443038 324.969231 
L 106.601377 324.969231 
L 106.677341 324.969231 
L 106.892308 324.969231 
z
" style="fill:#808080;opacity:0.5;"/>
   </g>
   <g id="patch_5">
    <path clip-path="url(#p2b4452bd1f)" d="M 13.430769 138.046154 
L 13.430769 13.430769 
L 13.752834 13.430769 
L 13.995261 13.430769 
L 14.412651 13.430769 
L 14.569374 13.430769 
L 14.948668 13.430769 
L 15.256641 13.430769 
L 15.617301 13.430769 
L 15.815454 13.430769 
L 16.374986 13.430769 
L 16.468371 13.430769 
L 16.873852 13.430769 
L 17.271846 13.430769 
L 17.493 13.430769 
L 17.718137 13.430769 
L 18.067951 13.430769 
L 18.542553 13.430769 
L 18.703175 13.430769 
L 19.041733 13.430769 
L 19.27324 13.430769 
L 19.788428 13.430769 
L 19.896449 13.430769 
L 20.368799 13.430769 
L 20.564753 13.430769 
L 21.019264 13.430769 
L 21.282938 13.430769 
L 21.520704 13.430769 
L 21.992268 13.430769 
L 22.287312 13.430769 
L 22.549026 13.430769 
L 22.693198 13.430769 
L 23.027053 13.430769 
L 23.318689 13.430769 
L 23.61676 13.430769 
L 24.079278 13.430769 
L 24.427399 13.430769 
L 24.695015 13.430769 
L 25.071104 13.430769 
L 25.248453 13.430769 
L 25.577931 13.430769 
L 26.008096 13.430769 
L 26.185271 13.430769 
L 26.708301 13.430769 
L 26.755894 13.430769 
L 27.220214 13.430769 
L 27.644128 13.430769 
L 27.780111 13.430769 
L 28.246632 13.430769 
L 28.482287 13.430769 
L 28.851579 13.430769 
L 28.993541 13.430769 
L 29.297771 13.430769 
L 29.703837 13.430769 
L 30.150905 13.430769 
L 30.419997 13.430769 
L 30.541941 13.430769 
L 30.966089 13.430769 
L 31.207655 13.430769 
L 31.675015 13.430769 
L 31.805923 13.430769 
L 32.22283 13.430769 
L 32.377753 13.430769 
L 32.688531 13.430769 
L 33.165259 13.430769 
L 33.505852 13.430769 
L 33.746199 13.430769 
L 33.975947 13.430769 
L 34.381329 13.430769 
L 34.780172 13.430769 
L 35.131903 13.430769 
L 35.26178 13.430769 
L 35.672217 13.430769 
L 35.858156 13.430769 
L 36.416572 13.430769 
L 36.669876 13.430769 
L 36.789437 13.430769 
L 37.265168 13.430769 
L 37.570344 13.430769 
L 37.79676 13.430769 
L 38.032561 13.430769 
L 38.348117 13.430769 
L 38.696053 13.430769 
L 39.173911 13.430769 
L 39.325362 13.430769 
L 39.838206 13.430769 
L 40.07529 13.430769 
L 40.214845 13.430769 
L 40.5438 13.430769 
L 41.138364 13.430769 
L 41.26176 13.430769 
L 41.47201 13.430769 
L 41.920052 13.430769 
L 42.371875 13.430769 
L 42.443675 13.430769 
L 42.889784 13.430769 
L 43.114776 13.430769 
L 43.580901 13.430769 
L 43.944354 13.430769 
L 44.18474 13.430769 
L 44.450877 13.430769 
L 44.752271 13.430769 
L 44.935965 13.430769 
L 45.215497 13.430769 
L 45.819128 13.430769 
L 46.113779 13.430769 
L 46.427062 13.430769 
L 46.47695 13.430769 
L 47.001506 13.430769 
L 47.198106 13.430769 
L 47.578706 13.430769 
L 47.738661 13.430769 
L 48.208697 13.430769 
L 48.622486 13.430769 
L 48.812725 13.430769 
L 49.143062 13.430769 
L 49.519426 13.430769 
L 49.895447 13.430769 
L 50.120832 13.430769 
L 50.239273 13.430769 
L 50.63387 13.430769 
L 51.131958 13.430769 
L 51.245688 13.430769 
L 51.67459 13.430769 
L 51.808305 13.430769 
L 52.242988 13.430769 
L 52.531883 13.430769 
L 52.754861 13.430769 
L 53.061846 13.430769 
L 53.605992 13.430769 
L 53.774858 13.430769 
L 54.099417 13.430769 
L 54.427056 13.430769 
L 54.799107 13.430769 
L 55.028347 13.430769 
L 55.469147 13.430769 
L 55.781119 13.430769 
L 55.921235 13.430769 
L 56.457936 13.430769 
L 56.634575 13.430769 
L 56.806065 13.430769 
L 57.324067 13.430769 
L 57.573514 13.430769 
L 57.944665 13.430769 
L 58.094536 13.430769 
L 58.619315 13.430769 
L 58.821716 13.430769 
L 59.287161 13.430769 
L 59.477851 13.430769 
L 59.894586 13.430769 
L 60.088056 13.430769 
L 60.412998 13.430769 
L 60.736582 13.430769 
L 61.044009 13.430769 
L 61.387383 13.430769 
L 61.621307 13.430769 
L 61.960121 13.430769 
L 62.370815 13.430769 
L 62.626783 13.430769 
L 62.860918 13.430769 
L 63.266856 13.430769 
L 63.677049 13.430769 
L 63.943652 13.430769 
L 64.051054 13.430769 
L 64.49258 13.430769 
L 64.709658 13.430769 
L 65.077383 13.430769 
L 65.361415 13.430769 
L 65.747905 13.430769 
L 65.977096 13.430769 
L 66.425568 13.430769 
L 66.739185 13.430769 
L 66.827372 13.430769 
L 67.152537 13.430769 
L 67.649081 13.430769 
L 67.901462 13.430769 
L 68.255832 13.430769 
L 68.563433 13.430769 
L 68.776547 13.430769 
L 69.313656 13.430769 
L 69.592267 13.430769 
L 69.715328 13.430769 
L 70.220363 13.430769 
L 70.288642 13.430769 
L 70.638234 13.430769 
L 71.069392 13.430769 
L 71.410279 13.430769 
L 71.681914 13.430769 
L 71.995747 13.430769 
L 72.316152 13.430769 
L 72.535247 13.430769 
L 72.766301 13.430769 
L 73.128517 13.430769 
L 73.490666 13.430769 
L 73.794107 13.430769 
L 74.022467 13.430769 
L 74.545848 13.430769 
L 74.695663 13.430769 
L 75.200896 13.430769 
L 75.45812 13.430769 
L 75.738462 13.430769 
L 75.738462 138.046154 
z
" style="fill:#808080;opacity:0.5;"/>
   </g>
   <g id="patch_6">
    <path clip-path="url(#p2b4452bd1f)" d="M 169.2 84.086109 
L 168.690728 83.795268 
L 168.268345 83.558837 
L 167.881099 83.345838 
L 167.539617 83.160963 
L 166.831456 82.786269 
L 166.389176 82.558123 
L 165.743579 82.233063 
L 165.592548 82.158367 
L 165.114935 81.925484 
L 164.525058 81.64477 
L 164.221082 81.503058 
L 163.424558 81.1411 
L 163.282691 81.078042 
L 162.837331 80.882826 
L 162.211029 80.615262 
L 161.86177 80.469553 
L 161.186292 80.194771 
L 160.669758 79.990826 
L 160.478245 79.916559 
L 159.679606 79.614636 
L 159.337713 79.48919 
L 158.89563 79.330331 
L 158.518454 79.19776 
L 157.887519 78.982047 
L 157.23963 78.768342 
L 157.045691 78.705897 
L 156.487137 78.529949 
L 155.933801 78.36131 
L 155.806415 78.32328 
L 155.258813 78.163161 
L 154.687616 78.001918 
L 154.329731 77.903876 
L 153.896404 77.788224 
L 153.075134 77.57816 
L 152.846631 77.521825 
L 152.448987 77.425968 
L 151.657826 77.243433 
L 151.44929 77.197124 
L 151.046771 77.109855 
L 150.481179 76.991926 
L 149.780079 76.853315 
L 149.639028 76.826437 
L 148.826296 76.678108 
L 148.677711 76.652192 
L 147.945878 76.529945 
L 147.682284 76.488104 
L 147.004486 76.38582 
L 146.653655 76.335867 
L 146.254689 76.281532 
L 145.585194 76.196244 
L 145.237772 76.154885 
L 144.982777 76.125787 
L 144.380142 76.061244 
L 143.873815 76.011592 
L 143.142968 75.947273 
L 142.777463 75.918356 
L 142.204751 75.877395 
L 142.093107 75.870027 
L 141.355236 75.826394 
L 141.034071 75.810144 
L 140.495781 75.786634 
L 140.310856 75.779633 
L 139.698261 75.760368 
L 139.078079 75.747007 
L 138.54481 75.740457 
L 138.149363 75.738547 
L 137.793991 75.738972 
L 137.061991 75.746235 
L 137.012747 75.747032 
L 136.152551 75.767243 
L 135.641915 75.784864 
L 135.250418 75.801215 
L 134.735532 75.826476 
L 134.355942 75.847835 
L 133.819213 75.882004 
L 133.602878 75.897093 
L 133.226066 75.925181 
L 132.704622 75.967844 
L 132.192974 76.013994 
L 131.645983 76.068042 
L 131.076949 76.129446 
L 130.695398 76.173584 
L 130.041143 76.254825 
L 129.9686 76.264266 
L 129.124267 76.380536 
L 128.595405 76.459371 
L 128.197471 76.521753 
L 127.831411 76.581468 
L 127.620137 76.616953 
L 126.916241 76.740579 
L 126.41904 76.83293 
L 125.963167 76.921282 
L 125.537638 77.006941 
L 125.066714 77.105341 
L 124.521947 77.223918 
L 124.307634 77.271969 
L 123.548045 77.448684 
L 123.190039 77.535458 
L 122.893873 77.608939 
L 122.120898 77.808003 
L 121.814259 77.889907 
L 121.143431 78.07494 
L 120.725776 78.194228 
L 120.270231 78.32794 
L 119.819236 78.464042 
L 119.48963 78.565872 
L 118.8961 78.7543 
L 118.376017 78.924802 
L 117.969331 79.061667 
L 117.666969 79.16545 
L 117.034244 79.388263 
L 116.741481 79.49396 
L 116.146838 79.713757 
L 115.65913 79.899187 
L 115.084883 80.123545 
L 114.801605 80.236644 
L 114.381311 80.407419 
L 113.794391 80.651899 
L 113.167515 80.920837 
L 112.622714 81.161206 
L 112.200138 81.351957 
L 111.942607 81.470069 
L 111.474026 81.68863 
L 111.152 81.84159 
L 110.645427 82.086805 
L 109.857036 82.479778 
L 109.634935 82.59301 
L 108.90877 82.971102 
L 108.761506 83.049264 
L 108.168046 83.369402 
L 107.577149 83.696469 
L 107.146991 83.939867 
L 106.823107 84.126122 
L 106.118612 84.540261 
L 105.885219 84.680221 
L 105.526273 84.898192 
L 104.805796 85.345802 
L 104.463685 85.563144 
L 104.009771 85.856374 
L 103.54811 86.16038 
L 103.031678 86.507479 
L 102.56483 86.827757 
L 101.840328 87.337311 
L 101.774351 87.384483 
L 101.181663 87.814114 
L 100.412927 88.387431 
L 100.055914 88.66002 
L 99.788987 88.866506 
L 99.026739 89.469063 
L 98.833901 89.624591 
L 98.092612 90.234408 
L 97.815834 90.467063 
L 97.336537 90.876507 
L 96.702581 91.431162 
L 96.459855 91.647573 
L 96.031093 92.035468 
L 95.648385 92.387883 
L 94.826771 93.164827 
L 94.530838 93.451694 
L 94.037709 93.938272 
L 93.432385 94.550635 
L 93.184113 94.806753 
L 92.468024 95.562243 
L 92.134455 95.922948 
L 91.906166 96.173131 
L 91.462449 96.667331 
L 91.018732 97.172322 
L 90.53833 97.7317 
L 90.323511 97.986226 
L 89.916521 98.476128 
L 89.250517 99.300388 
L 88.80914 99.862846 
L 88.405992 100.388447 
L 88.045101 100.868967 
L 87.356443 101.813548 
L 87.218982 102.006633 
L 86.783556 102.628721 
L 86.34813 103.267384 
L 86.075949 103.675435 
L 85.502922 104.557987 
L 85.247642 104.961933 
L 84.685782 105.875994 
L 84.358123 106.425846 
L 84.030464 106.988887 
L 83.916517 107.187915 
L 83.598399 107.752747 
L 83.28028 108.331719 
L 82.986491 108.879699 
L 82.538615 109.741354 
L 82.257379 110.299783 
L 81.976142 110.872594 
L 81.64185 111.573469 
L 81.307558 112.297751 
L 81.101665 112.756359 
L 80.895772 113.225147 
L 80.596456 113.926022 
L 80.29714 114.651712 
L 80.06281 115.23869 
L 79.828481 115.843652 
L 79.555951 116.571874 
L 79.283421 117.329259 
L 79.113634 117.817298 
L 78.943847 118.318867 
L 78.741643 118.935331 
L 78.539439 119.574569 
L 78.395466 120.044934 
L 78.251492 120.529108 
L 78.107518 121.028268 
L 77.963544 121.543775 
L 77.782273 122.218544 
L 77.601003 122.925564 
L 77.465343 123.478593 
L 77.329682 124.054777 
L 77.194022 124.657106 
L 77.058362 125.289283 
L 76.981661 125.661639 
L 76.90496 126.046033 
L 76.828259 126.443661 
L 76.751558 126.855935 
L 76.645873 127.451156 
L 76.59303 127.762083 
L 76.540188 128.08299 
L 76.487345 128.414872 
L 76.434503 128.758907 
L 76.38166 129.116499 
L 76.328818 129.489348 
L 76.255023 130.039614 
L 76.218126 130.329712 
L 76.181229 130.631334 
L 76.144331 130.94595 
L 76.107434 131.27537 
L 76.070537 131.62187 
L 76.03364 131.988382 
L 75.996742 132.378787 
L 75.959845 132.798413 
L 75.941396 133.021452 
L 75.922948 133.254933 
L 75.904499 133.500466 
L 75.886051 133.760121 
L 75.867602 134.03664 
L 75.849153 134.33379 
L 75.830705 134.656994 
L 75.812256 135.014572 
L 75.793807 135.420533 
L 75.775359 135.902185 
L 75.75691 136.530026 
L 75.738462 138.046154 
L 75.738462 13.430769 
L 76.237934 13.430769 
L 76.786496 13.430769 
L 77.158616 13.430769 
L 77.74258 13.430769 
L 78.131853 13.430769 
L 78.688895 13.430769 
L 79.063732 13.430769 
L 79.323298 13.430769 
L 79.931051 13.430769 
L 80.248743 13.430769 
L 80.683317 13.430769 
L 81.546197 13.430769 
L 81.795825 13.430769 
L 82.472989 13.430769 
L 82.604426 13.430769 
L 83.294813 13.430769 
L 83.525422 13.430769 
L 84.232094 13.430769 
L 84.58846 13.430769 
L 85.141943 13.430769 
L 85.475368 13.430769 
L 86.167114 13.430769 
L 86.496002 13.430769 
L 86.794267 13.430769 
L 87.253276 13.430769 
L 87.912105 13.430769 
L 88.548047 13.430769 
L 88.918683 13.430769 
L 89.215608 13.430769 
L 89.959433 13.430769 
L 90.162976 13.430769 
L 90.899756 13.430769 
L 91.386727 13.430769 
L 91.603081 13.430769 
L 92.15055 13.430769 
L 92.732606 13.430769 
L 93.220443 13.430769 
L 93.742591 13.430769 
L 93.974549 13.430769 
L 94.425114 13.430769 
L 95.166658 13.430769 
L 95.545554 13.430769 
L 95.867938 13.430769 
L 96.219454 13.430769 
L 96.712421 13.430769 
L 97.322503 13.430769 
L 98.000054 13.430769 
L 98.486548 13.430769 
L 98.956764 13.430769 
L 99.378926 13.430769 
L 99.626494 13.430769 
L 100.367455 13.430769 
L 100.402619 13.430769 
L 101.026969 13.430769 
L 101.649118 13.430769 
L 102.162929 13.430769 
L 102.491767 13.430769 
L 103.01355 13.430769 
L 103.366763 13.430769 
L 103.872886 13.430769 
L 104.375665 13.430769 
L 104.97327 13.430769 
L 105.119007 13.430769 
L 105.639707 13.430769 
L 106.054707 13.430769 
L 106.527079 13.430769 
L 106.993649 13.430769 
L 107.543046 13.430769 
L 108.05228 13.430769 
L 108.41934 13.430769 
L 108.874841 13.430769 
L 109.458153 13.430769 
L 109.900331 13.430769 
L 110.539584 13.430769 
L 110.880242 13.430769 
L 111.615368 13.430769 
L 111.989865 13.430769 
L 112.503599 13.430769 
L 112.679444 13.430769 
L 113.475877 13.430769 
L 113.872862 13.430769 
L 114.462034 13.430769 
L 114.910351 13.430769 
L 115.417028 13.430769 
L 115.779922 13.430769 
L 116.243227 13.430769 
L 116.425245 13.430769 
L 117.097322 13.430769 
L 117.399378 13.430769 
L 117.930951 13.430769 
L 118.409042 13.430769 
L 118.890375 13.430769 
L 119.362207 13.430769 
L 119.72711 13.430769 
L 120.580677 13.430769 
L 120.977459 13.430769 
L 121.177919 13.430769 
L 121.85778 13.430769 
L 122.238622 13.430769 
L 122.60977 13.430769 
L 123.004209 13.430769 
L 123.438526 13.430769 
L 124.197023 13.430769 
L 124.802233 13.430769 
L 125.015495 13.430769 
L 125.427786 13.430769 
L 126.145481 13.430769 
L 126.535861 13.430769 
L 126.972012 13.430769 
L 127.365235 13.430769 
L 127.806251 13.430769 
L 128.269132 13.430769 
L 128.709831 13.430769 
L 129.292755 13.430769 
L 129.611478 13.430769 
L 130.126612 13.430769 
L 130.781594 13.430769 
L 130.935108 13.430769 
L 131.486222 13.430769 
L 131.953306 13.430769 
L 132.503465 13.430769 
L 133.230022 13.430769 
L 133.464163 13.430769 
L 133.845004 13.430769 
L 134.48573 13.430769 
L 134.891837 13.430769 
L 135.199173 13.430769 
L 136.04879 13.430769 
L 136.208091 13.430769 
L 136.674338 13.430769 
L 137.274566 13.430769 
L 137.578459 13.430769 
L 138.061905 13.430769 
L 138.494805 13.430769 
L 138.9249 13.430769 
L 139.596291 13.430769 
L 140.059298 13.430769 
L 140.581243 13.430769 
L 140.824475 13.430769 
L 141.511869 13.430769 
L 141.777837 13.430769 
L 142.432323 13.430769 
L 143.059225 13.430769 
L 143.385719 13.430769 
L 143.703238 13.430769 
L 144.217042 13.430769 
L 144.627886 13.430769 
L 145.23702 13.430769 
L 145.743672 13.430769 
L 146.274288 13.430769 
L 146.468134 13.430769 
L 147.181197 13.430769 
L 147.777364 13.430769 
L 147.983712 13.430769 
L 148.307096 13.430769 
L 148.998618 13.430769 
L 149.323919 13.430769 
L 150.17623 13.430769 
L 150.569052 13.430769 
L 150.767454 13.430769 
L 151.246824 13.430769 
L 151.77375 13.430769 
L 152.426468 13.430769 
L 152.958594 13.430769 
L 153.008069 13.430769 
L 153.668748 13.430769 
L 154.270325 13.430769 
L 154.668257 13.430769 
L 154.898109 13.430769 
L 155.404548 13.430769 
L 155.883607 13.430769 
L 156.581418 13.430769 
L 156.756186 13.430769 
L 157.688704 13.430769 
L 157.775322 13.430769 
L 158.569284 13.430769 
L 159.031544 13.430769 
L 159.279149 13.430769 
L 159.623388 13.430769 
L 160.15932 13.430769 
L 160.841528 13.430769 
L 161.279602 13.430769 
L 161.691852 13.430769 
L 162.068454 13.430769 
L 162.608742 13.430769 
L 163.21334 13.430769 
L 163.350468 13.430769 
L 163.924241 13.430769 
L 164.69009 13.430769 
L 165.043668 13.430769 
L 165.501291 13.430769 
L 166.07025 13.430769 
L 166.186386 13.430769 
L 166.693699 13.430769 
L 167.415852 13.430769 
L 167.746609 13.430769 
L 168.277944 13.430769 
L 168.794469 13.430769 
L 169.2 13.430769 
z
" style="fill:#808080;opacity:0.5;"/>
   </g>
   <g id="patch_7">
    <path clip-path="url(#p2b4452bd1f)" d="M 262.661538 138.046154 
L 262.658826 138.627492 
L 262.656114 138.868281 
L 262.653402 139.053039 
L 262.65069 139.208792 
L 262.647978 139.346009 
L 262.645266 139.470059 
L 262.642554 139.58413 
L 262.639842 139.690302 
L 262.63713 139.790017 
L 262.634418 139.884327 
L 262.631706 139.974025 
L 262.628994 140.059728 
L 262.62357 140.221015 
L 262.618146 140.371127 
L 262.612722 140.512107 
L 262.607298 140.64544 
L 262.601874 140.772249 
L 262.59645 140.893405 
L 262.591025 141.009603 
L 262.585601 141.121403 
L 262.580177 141.22927 
L 262.574753 141.33359 
L 262.567937 141.460162 
L 262.56112 141.582194 
L 262.554304 141.700139 
L 262.547487 141.814382 
L 262.533854 142.033025 
L 262.520221 142.240241 
L 262.506588 142.437648 
L 262.492955 142.626514 
L 262.479322 142.807856 
L 262.465689 142.982503 
L 262.452056 143.151143 
L 262.438422 143.314351 
L 262.424789 143.472619 
L 262.411156 143.626367 
L 262.397523 143.775958 
L 262.38389 143.92171 
L 262.370257 144.063903 
L 262.356624 144.202781 
L 262.339952 144.368428 
L 262.323281 144.529801 
L 262.306609 144.687212 
L 262.289938 144.840936 
L 262.273266 144.991219 
L 262.256595 145.138279 
L 262.223252 145.423496 
L 262.187693 145.715828 
L 262.152134 145.99726 
L 262.116576 146.268911 
L 262.081017 146.531722 
L 262.036417 146.85007 
L 261.991817 147.157083 
L 261.947217 147.453871 
L 261.902617 147.741373 
L 261.857344 148.024543 
L 261.812071 148.299696 
L 261.766798 148.567461 
L 261.721524 148.828389 
L 261.669259 149.121742 
L 261.616994 149.407282 
L 261.564729 149.685585 
L 261.512464 149.957158 
L 261.466304 150.191773 
L 261.40468 150.497827 
L 261.343057 150.79624 
L 261.281434 151.087535 
L 261.21981 151.372179 
L 261.139469 151.733979 
L 261.059128 152.085999 
L 261.010025 152.296646 
L 260.960921 152.504058 
L 260.877762 152.848321 
L 260.794602 153.184301 
L 260.71761 153.48845 
L 260.640618 153.786346 
L 260.571414 154.049063 
L 260.502209 154.307241 
L 260.437071 154.546294 
L 260.371933 154.781678 
L 260.30138 155.032669 
L 260.230827 155.279716 
L 260.160274 155.522986 
L 260.089722 155.762635 
L 260.070858 155.826113 
L 259.995992 156.075656 
L 259.921126 156.321485 
L 259.785453 156.757986 
L 259.649779 157.183573 
L 259.556794 157.469324 
L 259.463808 157.750492 
L 259.340522 158.116546 
L 259.201039 158.521906 
L 259.090654 158.836439 
L 258.983935 159.135516 
L 258.877216 159.429878 
L 258.7407 159.799862 
L 258.627085 160.102403 
L 258.513471 160.400271 
L 258.364339 160.784475 
L 258.343243 160.838223 
L 258.165419 161.285573 
L 258.061035 161.543578 
L 257.95665 161.798321 
L 257.836061 162.08869 
L 257.721942 162.359732 
L 257.546456 162.769703 
L 257.378443 163.154796 
L 257.244559 163.456689 
L 257.110676 163.75434 
L 257.04048 163.908753 
L 256.848401 164.325685 
L 256.73305 164.572251 
L 256.587015 164.880445 
L 256.454151 165.157116 
L 256.321287 165.430348 
L 256.317057 165.438991 
L 256.162756 165.752003 
L 255.94034 166.195581 
L 255.809478 166.452516 
L 255.616182 166.826751 
L 255.450207 167.143226 
L 255.246881 167.525014 
L 255.142424 167.718704 
L 254.930785 168.106198 
L 254.886332 168.186767 
L 254.665781 168.582399 
L 254.58082 168.733022 
L 254.430542 168.997075 
L 254.277877 169.262293 
L 254.030282 169.68614 
L 253.867741 169.960282 
L 253.766701 170.1291 
L 253.616369 170.37806 
L 253.40733 170.719941 
L 253.285759 170.916522 
L 253.094785 171.222078 
L 252.990027 171.388034 
L 252.76009 171.748292 
L 252.640035 171.934249 
L 252.514142 172.127704 
L 252.286822 172.473099 
L 252.097705 172.756694 
L 251.940362 172.990107 
L 251.815265 173.174075 
L 251.66587 173.391942 
L 251.488952 173.647411 
L 251.404733 173.768072 
L 251.179203 174.088235 
L 251.04938 174.270612 
L 250.905367 174.471314 
L 250.702636 174.751029 
L 250.669378 174.796607 
L 250.397469 175.166018 
L 250.25095 175.36274 
L 250.160656 175.48317 
L 249.995137 175.702372 
L 249.824751 175.925938 
L 249.665621 176.132863 
L 249.530421 176.30727 
L 249.427687 176.438948 
L 249.208839 176.71705 
L 249.081952 176.876815 
L 248.947461 177.044988 
L 248.750267 177.289433 
L 248.595886 177.47906 
L 248.351156 177.77658 
L 248.243324 177.90649 
L 248.119685 178.054567 
L 247.951023 178.255074 
L 247.772422 178.465545 
L 247.704485 178.545111 
L 247.539103 178.737677 
L 247.335674 178.972384 
L 247.12439 179.213675 
L 246.959168 179.400627 
L 246.798715 179.58075 
L 246.767634 179.615479 
L 246.548591 179.858761 
L 246.443698 179.974355 
L 246.287593 180.145315 
L 246.000377 180.456563 
L 245.95863 180.501451 
L 245.741089 180.733935 
L 245.609993 180.872894 
L 245.425666 181.066842 
L 245.279091 181.219883 
L 245.192814 181.309481 
L 244.984189 181.524666 
L 244.824367 181.688121 
L 244.614145 181.901307 
L 244.449129 182.067224 
L 244.408067 182.108317 
L 244.122617 182.391878 
L 244.04065 182.472629 
L 243.898853 182.611621 
L 243.792481 182.71531 
L 243.619399 182.882975 
L 243.399003 183.094606 
L 243.183559 183.299488 
L 243.098792 183.379565 
L 242.993117 183.478974 
L 242.816728 183.643875 
L 242.572908 183.869721 
L 242.45778 183.975526 
L 242.26758 184.149163 
L 242.084741 184.314728 
L 242.033479 184.360911 
L 241.814539 184.557007 
L 241.717253 184.643548 
L 241.450786 184.878729 
L 241.305423 185.005891 
L 241.198412 185.098996 
L 241.098229 185.185774 
L 240.942217 185.320171 
L 240.726462 185.504561 
L 240.542465 185.660473 
L 240.393363 185.785923 
L 240.242491 185.912055 
L 240.158804 185.981672 
L 239.903958 186.192153 
L 239.862428 186.226238 
L 239.589657 186.44863 
L 239.507365 186.515221 
L 239.313588 186.671117 
L 239.136309 186.812629 
L 239.013418 186.910108 
L 238.855524 187.034615 
L 238.649518 187.195824 
L 238.530773 187.288115 
L 238.359274 187.420601 
L 238.296284 187.469022 
L 238.019635 187.680183 
L 237.956074 187.728354 
L 237.770904 187.86796 
L 237.549935 188.033147 
L 237.413435 188.13443 
L 237.327048 188.198231 
L 237.219553 188.277302 
L 236.931372 188.487537 
L 236.807246 188.577314 
L 236.703608 188.651918 
L 236.49103 188.803936 
L 236.38737 188.877578 
L 236.213267 189.00055 
L 236.124458 189.062934 
L 235.858723 189.248227 
L 235.709153 189.35162 
L 235.648377 189.393448 
L 235.398184 189.564528 
L 235.328173 189.612082 
L 235.143877 189.7366 
L 234.939765 189.873393 
L 234.772579 189.984572 
L 234.668975 190.05308 
L 234.412881 190.221155 
L 234.257032 190.322559 
L 234.162956 190.38345 
L 234.061107 190.449103 
L 233.822235 190.601986 
L 233.760149 190.641472 
L 233.601373 190.741983 
L 233.447394 190.83882 
L 233.214435 190.984138 
L 233.01061 191.110118 
L 232.936522 191.155643 
L 232.736427 191.277883 
L 232.633211 191.340536 
L 232.393084 191.485238 
L 232.22913 191.583195 
L 232.10542 191.656658 
L 232.03199 191.700079 
L 231.849407 191.807461 
L 231.679844 191.90644 
L 231.507692 192.006198 
L 231.507692 324.969231 
L 231.626504 324.969231 
L 231.871075 324.969231 
L 231.920592 324.969231 
L 232.083553 324.969231 
L 232.346511 324.969231 
L 232.513472 324.969231 
L 232.56931 324.969231 
L 232.816489 324.969231 
L 232.87492 324.969231 
L 233.059402 324.969231 
L 233.163696 324.969231 
L 233.365673 324.969231 
L 233.503955 324.969231 
L 233.679289 324.969231 
L 233.881153 324.969231 
L 234.060712 324.969231 
L 234.125095 324.969231 
L 234.29782 324.969231 
L 234.542962 324.969231 
L 234.661378 324.969231 
L 234.838784 324.969231 
L 234.958383 324.969231 
L 235.04496 324.969231 
L 235.25145 324.969231 
L 235.39845 324.969231 
L 235.65319 324.969231 
L 235.776213 324.969231 
L 235.967926 324.969231 
L 235.987478 324.969231 
L 236.160898 324.969231 
L 236.35054 324.969231 
L 236.532745 324.969231 
L 236.64452 324.969231 
L 236.799485 324.969231 
L 237.033997 324.969231 
L 237.11889 324.969231 
L 237.245831 324.969231 
L 237.386048 324.969231 
L 237.689776 324.969231 
L 237.742496 324.969231 
L 237.889562 324.969231 
L 238.151209 324.969231 
L 238.293516 324.969231 
L 238.450057 324.969231 
L 238.542377 324.969231 
L 238.725484 324.969231 
L 238.934891 324.969231 
L 239.018647 324.969231 
L 239.187335 324.969231 
L 239.396993 324.969231 
L 239.436954 324.969231 
L 239.655917 324.969231 
L 239.86986 324.969231 
L 240.005237 324.969231 
L 240.055101 324.969231 
L 240.351093 324.969231 
L 240.357068 324.969231 
L 240.597601 324.969231 
L 240.816961 324.969231 
L 240.873165 324.969231 
L 241.030907 324.969231 
L 241.275922 324.969231 
L 241.399282 324.969231 
L 241.457154 324.969231 
L 241.609266 324.969231 
L 241.906118 324.969231 
L 241.944568 324.969231 
L 242.205704 324.969231 
L 242.365022 324.969231 
L 242.468893 324.969231 
L 242.699593 324.969231 
L 242.708826 324.969231 
L 242.95825 324.969231 
L 243.165488 324.969231 
L 243.254002 324.969231 
L 243.411659 324.969231 
L 243.502896 324.969231 
L 243.737134 324.969231 
L 243.878459 324.969231 
L 244.060119 324.969231 
L 244.197857 324.969231 
L 244.35043 324.969231 
L 244.551969 324.969231 
L 244.619306 324.969231 
L 244.74907 324.969231 
L 244.959013 324.969231 
L 245.139973 324.969231 
L 245.219999 324.969231 
L 245.376576 324.969231 
L 245.601089 324.969231 
L 245.825326 324.969231 
L 245.862494 324.969231 
L 246.072984 324.969231 
L 246.279538 324.969231 
L 246.342021 324.969231 
L 246.46409 324.969231 
L 246.615744 324.969231 
L 246.862944 324.969231 
L 247.059035 324.969231 
L 247.201497 324.969231 
L 247.339276 324.969231 
L 247.497344 324.969231 
L 247.690619 324.969231 
L 247.857944 324.969231 
L 247.892332 324.969231 
L 248.039648 324.969231 
L 248.192639 324.969231 
L 248.414765 324.969231 
L 248.506715 324.969231 
L 248.709071 324.969231 
L 248.892127 324.969231 
L 249.091234 324.969231 
L 249.169526 324.969231 
L 249.338127 324.969231 
L 249.575709 324.969231 
L 249.660512 324.969231 
L 249.790366 324.969231 
L 249.998419 324.969231 
L 250.170958 324.969231 
L 250.330709 324.969231 
L 250.441619 324.969231 
L 250.550005 324.969231 
L 250.698295 324.969231 
L 250.907313 324.969231 
L 251.109246 324.969231 
L 251.262373 324.969231 
L 251.407391 324.969231 
L 251.572762 324.969231 
L 251.72201 324.969231 
L 251.889083 324.969231 
L 252.077537 324.969231 
L 252.197894 324.969231 
L 252.403709 324.969231 
L 252.540311 324.969231 
L 252.607581 324.969231 
L 252.763834 324.969231 
L 252.936824 324.969231 
L 253.043663 324.969231 
L 253.227192 324.969231 
L 253.365339 324.969231 
L 253.530982 324.969231 
L 253.6997 324.969231 
L 253.869911 324.969231 
L 254.094925 324.969231 
L 254.238237 324.969231 
L 254.337647 324.969231 
L 254.503883 324.969231 
L 254.655551 324.969231 
L 254.804027 324.969231 
L 254.95605 324.969231 
L 255.212822 324.969231 
L 255.37305 324.969231 
L 255.454144 324.969231 
L 255.610704 324.969231 
L 255.718377 324.969231 
L 255.868553 324.969231 
L 256.108051 324.969231 
L 256.194934 324.969231 
L 256.415701 324.969231 
L 256.525185 324.969231 
L 256.648712 324.969231 
L 256.925529 324.969231 
L 257.068705 324.969231 
L 257.233432 324.969231 
L 257.392748 324.969231 
L 257.515176 324.969231 
L 257.588361 324.969231 
L 257.821111 324.969231 
L 258.012928 324.969231 
L 258.099142 324.969231 
L 258.321712 324.969231 
L 258.382067 324.969231 
L 258.639137 324.969231 
L 258.814908 324.969231 
L 258.945803 324.969231 
L 259.054308 324.969231 
L 259.257488 324.969231 
L 259.367907 324.969231 
L 259.578748 324.969231 
L 259.629347 324.969231 
L 259.870522 324.969231 
L 260.019186 324.969231 
L 260.233361 324.969231 
L 260.321397 324.969231 
L 260.521259 324.969231 
L 260.563499 324.969231 
L 260.842302 324.969231 
L 260.967978 324.969231 
L 261.169054 324.969231 
L 261.195004 324.969231 
L 261.407264 324.969231 
L 261.61563 324.969231 
L 261.685164 324.969231 
L 261.833009 324.969231 
L 261.963519 324.969231 
L 262.239325 324.969231 
L 262.376685 324.969231 
L 262.437407 324.969231 
L 262.661538 324.969231 
z
" style="fill:#808080;opacity:0.5;"/>
   </g>
   <g id="patch_8">
    <path clip-path="url(#p2b4452bd1f)" d="M 262.661538 138.046154 
L 262.661538 13.430769 
L 263.084806 13.430769 
L 263.334392 13.430769 
L 263.606872 13.430769 
L 263.96097 13.430769 
L 264.197037 13.430769 
L 264.587941 13.430769 
L 265.001282 13.430769 
L 265.300273 13.430769 
L 265.388882 13.430769 
L 265.84569 13.430769 
L 266.199337 13.430769 
L 266.573899 13.430769 
L 266.731453 13.430769 
L 267.142667 13.430769 
L 267.450352 13.430769 
L 267.579108 13.430769 
L 267.851315 13.430769 
L 268.207324 13.430769 
L 268.505636 13.430769 
L 268.819661 13.430769 
L 269.357694 13.430769 
L 269.697175 13.430769 
L 269.786742 13.430769 
L 270.217987 13.430769 
L 270.333459 13.430769 
L 270.756744 13.430769 
L 271.218364 13.430769 
L 271.478685 13.430769 
L 271.592664 13.430769 
L 272.114271 13.430769 
L 272.487212 13.430769 
L 272.81554 13.430769 
L 272.976011 13.430769 
L 273.39546 13.430769 
L 273.722065 13.430769 
L 274.072063 13.430769 
L 274.255202 13.430769 
L 274.613543 13.430769 
L 274.747507 13.430769 
L 275.062322 13.430769 
L 275.558652 13.430769 
L 275.716806 13.430769 
L 276.08903 13.430769 
L 276.550519 13.430769 
L 276.672948 13.430769 
L 277.064 13.430769 
L 277.321726 13.430769 
L 277.789387 13.430769 
L 278.009945 13.430769 
L 278.317106 13.430769 
L 278.590995 13.430769 
L 278.992855 13.430769 
L 279.263359 13.430769 
L 279.536906 13.430769 
L 279.942584 13.430769 
L 280.338094 13.430769 
L 280.618538 13.430769 
L 280.956305 13.430769 
L 281.096864 13.430769 
L 281.496109 13.430769 
L 281.620115 13.430769 
L 281.933818 13.430769 
L 282.467047 13.430769 
L 282.820454 13.430769 
L 283.053198 13.430769 
L 283.328739 13.430769 
L 283.584639 13.430769 
L 283.802702 13.430769 
L 284.238514 13.430769 
L 284.484135 13.430769 
L 284.971208 13.430769 
L 285.117908 13.430769 
L 285.469427 13.430769 
L 285.854241 13.430769 
L 286.285083 13.430769 
L 286.301088 13.430769 
L 286.846036 13.430769 
L 287.233228 13.430769 
L 287.421463 13.430769 
L 287.807673 13.430769 
L 288.130875 13.430769 
L 288.331766 13.430769 
L 288.765059 13.430769 
L 288.818725 13.430769 
L 289.272127 13.430769 
L 289.727283 13.430769 
L 290.034836 13.430769 
L 290.070382 13.430769 
L 290.522227 13.430769 
L 290.926833 13.430769 
L 291.081515 13.430769 
L 291.558561 13.430769 
L 291.650175 13.430769 
L 291.948834 13.430769 
L 292.347122 13.430769 
L 292.616441 13.430769 
L 293.120577 13.430769 
L 293.249294 13.430769 
L 293.574984 13.430769 
L 293.824427 13.430769 
L 294.227037 13.430769 
L 294.469479 13.430769 
L 295.025563 13.430769 
L 295.354604 13.430769 
L 295.549227 13.430769 
L 295.783821 13.430769 
L 296.069939 13.430769 
L 296.554085 13.430769 
L 296.706806 13.430769 
L 297.180614 13.430769 
L 297.323533 13.430769 
L 297.838704 13.430769 
L 297.980482 13.430769 
L 298.391014 13.430769 
L 298.610107 13.430769 
L 298.92239 13.430769 
L 299.346595 13.430769 
L 299.693509 13.430769 
L 299.792017 13.430769 
L 300.199611 13.430769 
L 300.42683 13.430769 
L 300.724404 13.430769 
L 301.201604 13.430769 
L 301.625071 13.430769 
L 301.726299 13.430769 
L 301.983355 13.430769 
L 302.332679 13.430769 
L 302.633588 13.430769 
L 303.06746 13.430769 
L 303.220487 13.430769 
L 303.719691 13.430769 
L 304.102414 13.430769 
L 304.417551 13.430769 
L 304.539592 13.430769 
L 304.810518 13.430769 
L 305.186452 13.430769 
L 305.419763 13.430769 
L 306.006281 13.430769 
L 306.105666 13.430769 
L 306.475726 13.430769 
L 306.881482 13.430769 
L 307.066165 13.430769 
L 307.529715 13.430769 
L 307.744556 13.430769 
L 308.175671 13.430769 
L 308.269217 13.430769 
L 308.832318 13.430769 
L 309.023512 13.430769 
L 309.305078 13.430769 
L 309.746961 13.430769 
L 309.786184 13.430769 
L 310.147267 13.430769 
L 310.443678 13.430769 
L 310.979231 13.430769 
L 311.181111 13.430769 
L 311.574692 13.430769 
L 311.897126 13.430769 
L 312.097179 13.430769 
L 312.483544 13.430769 
L 312.722878 13.430769 
L 313.227804 13.430769 
L 313.235287 13.430769 
L 313.597238 13.430769 
L 314.141264 13.430769 
L 314.45087 13.430769 
L 314.722912 13.430769 
L 315.020533 13.430769 
L 315.200574 13.430769 
L 315.423672 13.430769 
L 315.761104 13.430769 
L 316.218446 13.430769 
L 316.612853 13.430769 
L 316.864289 13.430769 
L 317.034066 13.430769 
L 317.389215 13.430769 
L 317.763372 13.430769 
L 318.003037 13.430769 
L 318.276773 13.430769 
L 318.614934 13.430769 
L 319.110164 13.430769 
L 319.399668 13.430769 
L 319.790317 13.430769 
L 320.063438 13.430769 
L 320.352038 13.430769 
L 320.734838 13.430769 
L 320.955167 13.430769 
L 321.341925 13.430769 
L 321.664329 13.430769 
L 321.73577 13.430769 
L 322.207458 13.430769 
L 322.618773 13.430769 
L 322.636801 13.430769 
L 323.080551 13.430769 
L 323.448407 13.430769 
L 323.671518 13.430769 
L 324.145257 13.430769 
L 324.401929 13.430769 
L 324.563836 13.430769 
L 324.969231 13.430769 
L 324.969231 138.046154 
z
" style="fill:#808080;opacity:0.5;"/>
   </g>
   <g id="patch_9">
    <path clip-path="url(#p2b4452bd1f)" d="M 262.661538 138.046154 
L 262.653682 137.056743 
L 262.645826 136.646959 
L 262.63797 136.332552 
L 262.630114 136.067519 
L 262.622258 135.834042 
L 262.614402 135.622983 
L 262.606545 135.428913 
L 262.598689 135.248294 
L 262.582977 134.918249 
L 262.567265 134.619922 
L 262.551552 134.345634 
L 262.53584 134.090381 
L 262.520128 133.850688 
L 262.504416 133.624024 
L 262.488703 133.408478 
L 262.472991 133.202565 
L 262.441567 132.81514 
L 262.410142 132.454672 
L 262.38465 132.178629 
L 262.359159 131.915109 
L 262.333667 131.662559 
L 262.308176 131.419726 
L 262.257193 130.959251 
L 262.20621 130.527269 
L 262.155227 130.119119 
L 262.104244 129.731292 
L 262.053261 129.361065 
L 262.002278 129.006275 
L 261.951295 128.66517 
L 261.900312 128.336308 
L 261.849329 128.018484 
L 261.798346 127.71068 
L 261.696379 127.121771 
L 261.594413 126.563931 
L 261.524559 126.197422 
L 261.454704 125.842314 
L 261.384849 125.49764 
L 261.314994 125.162562 
L 261.206498 124.659471 
L 261.098002 124.175463 
L 260.989506 123.708605 
L 260.881009 123.257272 
L 260.784361 122.867175 
L 260.687712 122.487455 
L 260.494415 121.756265 
L 260.337591 121.187954 
L 260.180766 120.639599 
L 260.023942 120.10937 
L 259.867117 119.595704 
L 259.700579 119.066853 
L 259.53404 118.553767 
L 259.367502 118.055231 
L 259.200963 117.570184 
L 259.003005 117.009882 
L 258.822455 116.513149 
L 258.641905 116.029099 
L 258.418675 115.446947 
L 258.195445 114.88157 
L 257.972215 114.331768 
L 257.748985 113.796483 
L 257.677061 113.626948 
L 257.381335 112.944082 
L 257.085609 112.2827 
L 256.833886 111.73544 
L 256.582162 111.201694 
L 256.217318 110.450483 
L 255.784304 109.5907 
L 255.465017 108.977144 
L 255.145731 108.379709 
L 254.844469 107.829925 
L 254.543208 107.292917 
L 254.230134 106.747685 
L 253.882602 106.156958 
L 253.535071 105.580698 
L 253.078716 104.844698 
L 252.760871 104.34523 
L 252.392779 103.779581 
L 252.057778 103.276168 
L 251.722778 102.783123 
L 251.281631 102.14895 
L 250.788416 101.459234 
L 250.317849 100.819189 
L 250.053844 100.467454 
L 249.417469 99.640302 
L 249.160158 99.313836 
L 248.62564 98.649676 
L 248.252347 98.19666 
L 247.836158 97.701655 
L 247.41997 97.216893 
L 247.136851 96.892795 
L 246.784267 96.495408 
L 245.998868 95.634122 
L 245.588166 95.19636 
L 245.104155 94.691127 
L 244.829515 94.409433 
L 244.558356 94.134768 
L 243.863614 93.446282 
L 243.579034 93.170418 
L 243.091638 92.705999 
L 242.608642 92.255535 
L 242.066288 91.760943 
L 241.705281 91.438136 
L 240.856804 90.698938 
L 240.429371 90.336607 
L 239.891834 89.890199 
L 239.672795 89.711189 
L 239.177847 89.312742 
L 238.47974 88.764669 
L 238.293951 88.621494 
L 237.778418 88.229993 
L 237.238027 87.82857 
L 237.032227 87.67806 
L 236.13436 87.036318 
L 236.052896 86.979272 
L 235.52862 86.616748 
L 234.966 86.236432 
L 234.326524 85.814883 
L 234.044263 85.632374 
L 233.533942 85.30784 
L 233.012657 84.983449 
L 232.760069 84.828814 
L 232.278508 84.538542 
L 231.564397 84.118888 
L 231.258893 83.943228 
L 230.944293 83.764729 
L 230.321276 83.418307 
L 229.618226 83.038476 
L 229.183016 82.809142 
L 229.005698 82.716958 
L 228.294442 82.354398 
L 227.698546 82.059406 
L 227.297688 81.865393 
L 226.907575 81.679958 
L 226.454714 81.468833 
L 225.807732 81.174823 
L 225.739623 81.144389 
L 224.923245 80.787153 
L 224.578859 80.640603 
L 224.252441 80.503946 
L 223.903652 80.360322 
L 223.251072 80.098198 
L 222.726915 79.893817 
L 222.132464 79.668587 
L 221.627171 79.482563 
L 221.449362 79.418279 
L 220.826182 79.197773 
L 220.439428 79.064649 
L 220.079027 78.943144 
L 219.580003 78.778933 
L 218.801851 78.532125 
L 218.578279 78.463282 
L 218.123012 78.325929 
L 217.710815 78.204829 
L 216.879024 77.969811 
L 216.866766 77.96644 
L 216.220661 77.792584 
L 215.767947 77.675184 
L 215.010925 77.486939 
L 214.540397 77.374989 
L 214.274926 77.313526 
L 213.705697 77.18585 
L 213.553935 77.152754 
L 213.053185 77.046356 
L 212.44837 76.923564 
L 212.088785 76.85351 
L 211.486147 76.741012 
L 211.156909 76.682139 
L 210.529312 76.574954 
L 210.030081 76.494395 
L 209.449777 76.405968 
L 209.14374 76.361583 
L 208.510124 76.27461 
L 208.410262 76.261506 
L 207.840189 76.189843 
L 207.278941 76.124497 
L 206.911195 76.084475 
L 206.419976 76.034457 
L 205.919485 75.987535 
L 205.436694 75.946128 
L 205.061715 75.916576 
L 204.599658 75.88329 
L 203.829882 75.835498 
L 203.675561 75.827067 
L 202.875345 75.789503 
L 202.662341 75.781241 
L 201.874236 75.757014 
L 201.601371 75.750952 
L 201.016384 75.741984 
L 200.636668 75.739103 
L 200.238743 75.738568 
L 199.885481 75.740222 
L 199.473303 75.744684 
L 198.815172 75.757463 
L 198.346523 75.770804 
L 197.901085 75.786757 
L 197.414192 75.807846 
L 196.974165 75.830189 
L 196.467364 75.859791 
L 196.028211 75.888794 
L 195.70533 75.912107 
L 195.176414 75.953942 
L 194.397702 76.023796 
L 194.088145 76.054303 
L 193.836352 76.08027 
L 193.191233 76.151522 
L 192.843755 76.192722 
L 192.149951 76.280916 
L 191.739101 76.336878 
L 191.272194 76.403862 
L 190.839053 76.469233 
L 190.341868 76.548115 
L 189.958519 76.611752 
L 189.428194 76.703847 
L 188.759825 76.826654 
L 188.338794 76.907892 
L 188.11031 76.953238 
L 187.450905 77.089098 
L 186.987839 77.188957 
L 186.649544 77.264244 
L 186.137907 77.381868 
L 185.447108 77.547909 
L 185.329654 77.57697 
L 184.806818 77.709279 
L 184.068126 77.904456 
L 183.771521 77.985559 
L 183.275068 78.12484 
L 182.705454 78.290127 
L 182.549006 78.336555 
L 181.991514 78.505636 
L 181.197692 78.75627 
L 180.821487 78.879141 
L 180.456489 79.000886 
L 179.94966 79.174108 
L 179.484441 79.337411 
L 179.185979 79.444363 
L 178.759334 79.600234 
L 178.001382 79.885894 
L 177.468528 80.093494 
L 176.990739 80.284456 
L 176.555917 80.46224 
L 176.378652 80.535819 
L 175.987227 80.700567 
L 175.354908 80.973379 
L 174.930834 81.161015 
L 174.207423 81.489872 
L 174.100296 81.539521 
L 173.485875 81.829069 
L 172.940984 82.092749 
L 172.567445 82.277306 
L 172.103956 82.51065 
L 171.325687 82.913455 
L 171.052057 83.058394 
L 170.818637 83.183416 
L 170.200684 83.520606 
L 169.679289 83.812216 
L 169.2 84.086109 
L 169.2 13.430769 
L 169.439843 13.430769 
L 169.945648 13.430769 
L 170.706465 13.430769 
L 170.940894 13.430769 
L 171.655471 13.430769 
L 171.858733 13.430769 
L 172.445683 13.430769 
L 173.031947 13.430769 
L 173.560763 13.430769 
L 173.94014 13.430769 
L 174.446292 13.430769 
L 175.04658 13.430769 
L 175.477638 13.430769 
L 175.554172 13.430769 
L 176.065876 13.430769 
L 176.926432 13.430769 
L 177.043692 13.430769 
L 177.747666 13.430769 
L 177.921298 13.430769 
L 178.713317 13.430769 
L 179.035601 13.430769 
L 179.762532 13.430769 
L 180.140711 13.430769 
L 180.309156 13.430769 
L 180.774791 13.430769 
L 181.58267 13.430769 
L 181.717779 13.430769 
L 182.423784 13.430769 
L 182.691318 13.430769 
L 183.178002 13.430769 
L 183.675647 13.430769 
L 184.068036 13.430769 
L 184.679662 13.430769 
L 185.114824 13.430769 
L 185.585032 13.430769 
L 186.193246 13.430769 
L 186.595366 13.430769 
L 187.093585 13.430769 
L 187.745203 13.430769 
L 188.009558 13.430769 
L 188.226383 13.430769 
L 188.791102 13.430769 
L 189.598342 13.430769 
L 189.679957 13.430769 
L 190.111777 13.430769 
L 190.783294 13.430769 
L 191.163524 13.430769 
L 191.682949 13.430769 
L 192.14859 13.430769 
L 192.619708 13.430769 
L 193.257019 13.430769 
L 193.434337 13.430769 
L 194.171196 13.430769 
L 194.691113 13.430769 
L 195.216688 13.430769 
L 195.395635 13.430769 
L 196.104798 13.430769 
L 196.281988 13.430769 
L 196.800883 13.430769 
L 197.215335 13.430769 
L 198.054485 13.430769 
L 198.12959 13.430769 
L 198.78124 13.430769 
L 199.160176 13.430769 
L 199.793635 13.430769 
L 200.102093 13.430769 
L 200.525952 13.430769 
L 201.081294 13.430769 
L 201.434203 13.430769 
L 201.851411 13.430769 
L 202.341786 13.430769 
L 203.222696 13.430769 
L 203.64212 13.430769 
L 204.084541 13.430769 
L 204.401072 13.430769 
L 204.966097 13.430769 
L 205.447414 13.430769 
L 205.853556 13.430769 
L 206.073475 13.430769 
L 206.631949 13.430769 
L 207.36871 13.430769 
L 207.918908 13.430769 
L 208.113046 13.430769 
L 208.64883 13.430769 
L 209.298815 13.430769 
L 209.51254 13.430769 
L 209.992759 13.430769 
L 210.393321 13.430769 
L 211.004894 13.430769 
L 211.647844 13.430769 
L 211.802482 13.430769 
L 212.562594 13.430769 
L 212.983578 13.430769 
L 213.563882 13.430769 
L 213.668766 13.430769 
L 214.388028 13.430769 
L 214.799383 13.430769 
L 215.075213 13.430769 
L 215.600578 13.430769 
L 216.323181 13.430769 
L 216.61728 13.430769 
L 217.092028 13.430769 
L 217.583507 13.430769 
L 218.241933 13.430769 
L 218.315153 13.430769 
L 218.961313 13.430769 
L 219.683754 13.430769 
L 220.007338 13.430769 
L 220.31215 13.430769 
L 220.984204 13.430769 
L 221.300373 13.430769 
L 221.721789 13.430769 
L 222.082016 13.430769 
L 222.614872 13.430769 
L 223.16343 13.430769 
L 223.593036 13.430769 
L 224.269802 13.430769 
L 224.466428 13.430769 
L 224.93333 13.430769 
L 225.663425 13.430769 
L 226.093967 13.430769 
L 226.411678 13.430769 
L 226.744594 13.430769 
L 227.630268 13.430769 
L 228.125566 13.430769 
L 228.363796 13.430769 
L 229.009339 13.430769 
L 229.312065 13.430769 
L 229.872618 13.430769 
L 230.239043 13.430769 
L 230.65203 13.430769 
L 231.365346 13.430769 
L 231.720041 13.430769 
L 232.23562 13.430769 
L 232.74539 13.430769 
L 233.199268 13.430769 
L 233.475 13.430769 
L 233.917255 13.430769 
L 234.446916 13.430769 
L 235.171003 13.430769 
L 235.465004 13.430769 
L 235.711547 13.430769 
L 236.180532 13.430769 
L 236.789875 13.430769 
L 237.191184 13.430769 
L 237.997604 13.430769 
L 238.113993 13.430769 
L 238.912902 13.430769 
L 238.964291 13.430769 
L 239.429071 13.430769 
L 239.993272 13.430769 
L 240.677795 13.430769 
L 241.246836 13.430769 
L 241.360398 13.430769 
L 241.840314 13.430769 
L 242.371552 13.430769 
L 242.761729 13.430769 
L 243.502781 13.430769 
L 243.857744 13.430769 
L 244.295722 13.430769 
L 244.930119 13.430769 
L 245.056338 13.430769 
L 245.689328 13.430769 
L 246.384827 13.430769 
L 246.771684 13.430769 
L 247.300347 13.430769 
L 247.59909 13.430769 
L 248.037805 13.430769 
L 248.676614 13.430769 
L 249.150512 13.430769 
L 249.326886 13.430769 
L 249.947491 13.430769 
L 250.649419 13.430769 
L 250.85468 13.430769 
L 251.221993 13.430769 
L 251.84148 13.430769 
L 252.401534 13.430769 
L 253.01338 13.430769 
L 253.282308 13.430769 
L 253.554486 13.430769 
L 254.246322 13.430769 
L 254.459149 13.430769 
L 255.255032 13.430769 
L 255.432877 13.430769 
L 256.042492 13.430769 
L 256.602404 13.430769 
L 257.037806 13.430769 
L 257.459685 13.430769 
L 257.954161 13.430769 
L 258.548147 13.430769 
L 258.998219 13.430769 
L 259.248107 13.430769 
L 259.76682 13.430769 
L 260.304782 13.430769 
L 260.819525 13.430769 
L 261.124792 13.430769 
L 261.49753 13.430769 
L 262.31241 13.430769 
L 262.661538 13.430769 
z
" style="fill:#808080;opacity:0.5;"/>
   </g>
   <g id="patch_10">
    <path clip-path="url(#p2b4452bd1f)" d="M 13.430769 138.046154 
L 13.430769 324.969231 
L 13.721298 324.969231 
L 13.962691 324.969231 
L 14.425086 324.969231 
L 14.556359 324.969231 
L 15.040112 324.969231 
L 15.275487 324.969231 
L 15.670243 324.969231 
L 15.885953 324.969231 
L 16.286962 324.969231 
L 16.57226 324.969231 
L 16.754452 324.969231 
L 17.109324 324.969231 
L 17.591101 324.969231 
L 17.739831 324.969231 
L 18.160366 324.969231 
L 18.555612 324.969231 
L 18.87104 324.969231 
L 18.977283 324.969231 
L 19.287207 324.969231 
L 19.645255 324.969231 
L 19.950212 324.969231 
L 20.467581 324.969231 
L 20.788068 324.969231 
L 21.090786 324.969231 
L 21.37498 324.969231 
L 21.572487 324.969231 
L 21.93353 324.969231 
L 22.183502 324.969231 
L 22.371496 324.969231 
L 22.847749 324.969231 
L 23.071797 324.969231 
L 23.296963 324.969231 
L 23.782054 324.969231 
L 24.223262 324.969231 
L 24.253663 324.969231 
L 24.608691 324.969231 
L 25.107695 324.969231 
L 25.285018 324.969231 
L 25.73808 324.969231 
L 25.969596 324.969231 
L 26.339036 324.969231 
L 26.500388 324.969231 
L 26.933767 324.969231 
L 27.254439 324.969231 
L 27.499002 324.969231 
L 27.844733 324.969231 
L 28.139768 324.969231 
L 28.343211 324.969231 
L 28.8792 324.969231 
L 29.126455 324.969231 
L 29.391868 324.969231 
L 29.866124 324.969231 
L 30.018751 324.969231 
L 30.472992 324.969231 
L 30.523122 324.969231 
L 30.887785 324.969231 
L 31.337671 324.969231 
L 31.600049 324.969231 
L 31.972113 324.969231 
L 32.069467 324.969231 
L 32.587018 324.969231 
L 32.970607 324.969231 
L 33.210635 324.969231 
L 33.482312 324.969231 
L 33.667332 324.969231 
L 34.055217 324.969231 
L 34.308897 324.969231 
L 34.79614 324.969231 
L 35.092253 324.969231 
L 35.35351 324.969231 
L 35.642917 324.969231 
L 35.824908 324.969231 
L 36.355744 324.969231 
L 36.480254 324.969231 
L 37.060975 324.969231 
L 37.228355 324.969231 
L 37.655151 324.969231 
L 37.964085 324.969231 
L 38.300721 324.969231 
L 38.49001 324.969231 
L 38.719241 324.969231 
L 39.203844 324.969231 
L 39.471825 324.969231 
L 39.609119 324.969231 
L 40.15461 324.969231 
L 40.468878 324.969231 
L 40.724406 324.969231 
L 40.914767 324.969231 
L 41.36575 324.969231 
L 41.654705 324.969231 
L 42.064029 324.969231 
L 42.178347 324.969231 
L 42.596233 324.969231 
L 42.998677 324.969231 
L 43.177254 324.969231 
L 43.61187 324.969231 
L 43.958206 324.969231 
L 44.01193 324.969231 
L 44.291427 324.969231 
L 44.786263 324.969231 
L 45.017233 324.969231 
L 45.260459 324.969231 
L 45.578406 324.969231 
L 45.837816 324.969231 
L 46.257469 324.969231 
L 46.629105 324.969231 
L 46.830568 324.969231 
L 47.156015 324.969231 
L 47.410537 324.969231 
L 47.806473 324.969231 
L 48.032295 324.969231 
L 48.386826 324.969231 
L 48.823861 324.969231 
L 48.985632 324.969231 
L 49.543737 324.969231 
L 49.824626 324.969231 
L 49.931629 324.969231 
L 50.443862 324.969231 
L 50.75683 324.969231 
L 50.98705 324.969231 
L 51.180678 324.969231 
L 51.577943 324.969231 
L 52.016382 324.969231 
L 52.244877 324.969231 
L 52.510249 324.969231 
L 52.802734 324.969231 
L 53.265646 324.969231 
L 53.582036 324.969231 
L 53.761923 324.969231 
L 54.093462 324.969231 
L 54.583937 324.969231 
L 54.772593 324.969231 
L 55.164572 324.969231 
L 55.403262 324.969231 
L 55.676871 324.969231 
L 56.123843 324.969231 
L 56.264427 324.969231 
L 56.545086 324.969231 
L 56.845287 324.969231 
L 57.338395 324.969231 
L 57.662761 324.969231 
L 57.867348 324.969231 
L 58.34346 324.969231 
L 58.616712 324.969231 
L 58.825448 324.969231 
L 59.288499 324.969231 
L 59.396385 324.969231 
L 59.84039 324.969231 
L 60.002343 324.969231 
L 60.526827 324.969231 
L 60.747605 324.969231 
L 60.943069 324.969231 
L 61.286956 324.969231 
L 61.717252 324.969231 
L 62.009109 324.969231 
L 62.352553 324.969231 
L 62.547598 324.969231 
L 62.976712 324.969231 
L 63.103289 324.969231 
L 63.504414 324.969231 
L 63.866112 324.969231 
L 64.084059 324.969231 
L 64.502451 324.969231 
L 64.819576 324.969231 
L 65.099986 324.969231 
L 65.461415 324.969231 
L 65.869728 324.969231 
L 66.053593 324.969231 
L 66.329669 324.969231 
L 66.51818 324.969231 
L 67.034172 324.969231 
L 67.27859 324.969231 
L 67.600941 324.969231 
L 67.799103 324.969231 
L 68.308568 324.969231 
L 68.409383 324.969231 
L 68.862007 324.969231 
L 69.201345 324.969231 
L 69.361589 324.969231 
L 69.661804 324.969231 
L 70.071381 324.969231 
L 70.365152 324.969231 
L 70.764996 324.969231 
L 70.925773 324.969231 
L 71.31887 324.969231 
L 71.637456 324.969231 
L 71.869646 324.969231 
L 72.446954 324.969231 
L 72.481871 324.969231 
L 73.05992 324.969231 
L 73.210072 324.969231 
L 73.484514 324.969231 
L 73.767577 324.969231 
L 74.021463 324.969231 
L 74.34369 324.969231 
L 74.782184 324.969231 
L 75.172592 324.969231 
L 75.279163 324.969231 
L 75.738462 324.969231 
L 75.738462 138.046154 
z
" style="fill:#808080;opacity:0.5;"/>
   </g>
   <g id="patch_11">
    <path clip-path="url(#p2b4452bd1f)" d="M 231.507692 200.353846 
L 231.486872 201.964469 
L 231.466052 202.631421 
L 231.445231 203.143061 
L 231.424411 203.574285 
L 231.40359 203.954106 
L 231.38277 204.297403 
L 231.36195 204.613018 
L 231.341129 204.906712 
L 231.320309 205.182485 
L 231.299488 205.443253 
L 231.257848 205.928079 
L 231.216207 206.373698 
L 231.174566 206.78826 
L 231.132925 207.177429 
L 231.091284 207.545329 
L 231.049644 207.895072 
L 231.008003 208.229079 
L 230.924721 208.857216 
L 230.84144 209.441278 
L 230.744968 210.073179 
L 230.648496 210.665531 
L 230.552024 211.2248 
L 230.455552 211.755855 
L 230.359081 212.262472 
L 230.262609 212.747648 
L 230.166137 213.213809 
L 230.069665 213.662955 
L 229.967678 214.121119 
L 229.865691 214.563788 
L 229.718747 215.177132 
L 229.571802 215.764687 
L 229.424858 216.329296 
L 229.277914 216.873314 
L 229.130969 217.398712 
L 228.984025 217.907162 
L 228.83708 218.400097 
L 228.690136 218.878755 
L 228.684052 218.89828 
L 228.42654 219.704956 
L 228.169028 220.47603 
L 227.911516 221.215449 
L 227.654003 221.926468 
L 227.418184 222.555008 
L 227.201424 223.115291 
L 226.984664 223.660094 
L 226.767904 224.190478 
L 226.551143 224.707385 
L 226.323523 225.236604 
L 226.095902 225.75276 
L 225.640661 226.748927 
L 225.362227 227.336299 
L 225.083793 227.908342 
L 224.792916 228.490588 
L 224.316162 229.413391 
L 223.839409 230.30019 
L 223.387622 231.110149 
L 222.894951 231.962401 
L 222.543476 232.552015 
L 222.192001 233.127255 
L 221.505817 234.211637 
L 221.165504 234.731672 
L 220.675536 235.461077 
L 220.185569 236.168931 
L 219.7688 236.755014 
L 219.352031 237.327111 
L 219.056462 237.724713 
L 218.624308 238.294409 
L 218.192153 238.850826 
L 217.431432 239.799727 
L 217.247803 240.023194 
L 216.410383 241.016215 
L 216.124778 241.345476 
L 215.526455 242.020476 
L 214.902274 242.704179 
L 214.320642 243.323326 
L 213.73901 243.925914 
L 213.542823 244.125556 
L 212.647012 245.014855 
L 212.189572 245.455346 
L 211.507753 246.09554 
L 211.038077 246.525524 
L 210.424471 247.074201 
L 209.357489 247.994423 
L 209.168204 248.153335 
L 208.056797 249.061113 
L 207.961127 249.137282 
L 207.046772 249.850011 
L 206.753881 250.072601 
L 205.545993 250.962317 
L 204.960534 251.377691 
L 204.800447 251.489516 
L 203.857852 252.13301 
L 203.396826 252.438639 
L 202.991007 252.702832 
L 201.907433 253.386594 
L 201.514112 253.627167 
L 200.636372 254.149785 
L 199.889944 254.579079 
L 199.618363 254.73189 
L 198.834436 255.163049 
L 198.20755 255.497391 
L 197.497604 255.865053 
L 196.933984 256.14878 
L 196.372514 256.424365 
L 196.05411 256.577554 
L 195.261549 256.949289 
L 194.784259 257.166646 
L 193.791596 257.603317 
L 193.359272 257.787095 
L 192.85827 257.995279 
L 192.060491 258.316304 
L 191.413373 258.567372 
L 190.928404 258.750122 
L 189.885705 259.127566 
L 189.380209 259.303042 
L 189.091589 259.401058 
L 188.014229 259.753116 
L 187.51678 259.908393 
L 187.08884 260.038333 
L 186.50052 260.211515 
L 185.818394 260.404471 
L 185.44968 260.505292 
L 184.717663 260.69828 
L 183.718477 260.946439 
L 183.583555 260.978609 
L 182.880751 261.141062 
L 181.908016 261.351837 
L 181.390037 261.457459 
L 180.76853 261.578168 
L 180.020732 261.714748 
L 179.628475 261.78263 
L 179.016424 261.883403 
L 178.05792 262.028685 
L 177.659362 262.084614 
L 176.961637 262.176217 
L 176.693205 262.209326 
L 176.009392 262.288333 
L 175.112764 262.380354 
L 174.375704 262.446202 
L 173.69962 262.498854 
L 173.500817 262.512928 
L 172.568407 262.570422 
L 172.328584 262.582943 
L 171.185086 262.629909 
L 170.571327 262.646446 
L 170.450632 262.648986 
L 169.416431 262.661163 
L 168.944254 262.661014 
L 168.235221 262.654069 
L 167.453164 262.637047 
L 167.126661 262.627033 
L 166.286067 262.593363 
L 165.857493 262.571819 
L 165.068803 262.524432 
L 164.525125 262.485916 
L 163.868927 262.433055 
L 163.232378 262.375101 
L 162.355145 262.284424 
L 162.003362 262.244531 
L 161.156806 262.140216 
L 160.743538 262.085011 
L 160.164878 262.002975 
L 159.753464 261.941276 
L 158.58099 261.749979 
L 158.504943 261.736778 
L 157.737762 261.598157 
L 157.277017 261.51013 
L 156.36565 261.32538 
L 155.561612 261.15058 
L 155.14394 261.055376 
L 154.754821 260.963955 
L 153.842531 260.739247 
L 153.233623 260.58111 
L 152.59712 260.408762 
L 152.028825 260.248748 
L 151.149854 259.989748 
L 150.850485 259.898315 
L 150.409433 259.760606 
L 149.316696 259.403848 
L 148.593825 259.155496 
L 148.483119 259.116584 
L 147.723273 258.84315 
L 146.780952 258.488473 
L 146.380952 258.332632 
L 145.994169 258.178909 
L 144.814193 257.691276 
L 144.63879 257.61636 
L 143.899578 257.293614 
L 142.979183 256.875676 
L 142.574794 256.686314 
L 141.925569 256.37486 
L 141.531536 256.1813 
L 140.405337 255.608854 
L 140.0533 255.423969 
L 139.189512 254.95805 
L 138.751904 254.715247 
L 138.273852 254.444713 
L 137.769094 254.152979 
L 137.194298 253.813023 
L 136.183421 253.194683 
L 135.545129 252.790457 
L 134.994737 252.433098 
L 134.660515 252.212042 
L 134.095437 251.831202 
L 133.427718 251.369455 
L 132.310303 250.567378 
L 132.035252 250.364145 
L 131.579138 250.021937 
L 130.625303 249.284831 
L 129.938131 248.735187 
L 129.530935 248.401882 
L 128.583242 247.603476 
L 128.257155 247.321196 
L 127.739561 246.864926 
L 126.656746 245.876588 
L 126.379541 245.615936 
L 125.915945 245.172806 
L 125.139577 244.409806 
L 124.17948 243.428215 
L 123.927304 243.163092 
L 123.252389 242.437876 
L 122.850536 241.99488 
L 122.348088 241.428739 
L 121.845639 240.848451 
L 121.037662 239.884059 
L 120.810156 239.605235 
L 120.010878 238.59883 
L 119.6343 238.109507 
L 118.988708 237.246592 
L 118.577788 236.680699 
L 118.166869 236.101126 
L 117.418877 235.008771 
L 116.755815 233.996914 
L 116.380848 233.405106 
L 116.005882 232.798172 
L 115.692375 232.278485 
L 115.330169 231.663426 
L 114.908177 230.925835 
L 114.486186 230.164029 
L 114.077336 229.401058 
L 113.706915 228.686973 
L 113.336494 227.949447 
L 112.961627 227.17723 
L 112.58676 226.376713 
L 112.17227 225.455372 
L 111.757781 224.491782 
L 111.55809 224.010953 
L 111.274596 223.308063 
L 110.991101 222.579342 
L 110.707607 221.82216 
L 110.424113 221.033393 
L 110.112829 220.126421 
L 109.957187 219.655079 
L 109.801544 219.170647 
L 109.616756 218.57706 
L 109.431967 217.961537 
L 109.267571 217.393579 
L 109.103175 216.804382 
L 108.938779 216.191578 
L 108.774383 215.552309 
L 108.670751 215.134187 
L 108.567119 214.703139 
L 108.463487 214.257962 
L 108.359854 213.797254 
L 108.224508 213.169378 
L 108.089161 212.507606 
L 107.953814 211.806062 
L 107.886141 211.438033 
L 107.818467 211.056929 
L 107.750794 210.6613 
L 107.683121 210.249405 
L 107.615447 209.819119 
L 107.547774 209.36781 
L 107.480101 208.892144 
L 107.412427 208.387797 
L 107.344754 207.848981 
L 107.27708 207.267641 
L 107.228984 206.822361 
L 107.180887 206.343686 
L 107.132791 205.822854 
L 107.108742 205.542704 
L 107.084694 205.246421 
L 107.060646 204.930873 
L 107.036597 204.591759 
L 107.012549 204.222888 
L 106.988501 203.814756 
L 106.976477 203.591387 
L 106.964453 203.351372 
L 106.952428 203.090332 
L 106.940404 202.801552 
L 106.92838 202.473724 
L 106.916356 202.084802 
L 106.904332 201.577876 
L 106.892308 200.353846 
L 106.892308 324.969231 
L 107.307203 324.969231 
L 108.430301 324.969231 
L 108.771004 324.969231 
L 109.367988 324.969231 
L 110.208164 324.969231 
L 110.59164 324.969231 
L 111.071547 324.969231 
L 111.721183 324.969231 
L 112.745898 324.969231 
L 112.943532 324.969231 
L 113.602619 324.969231 
L 114.672665 324.969231 
L 115.108145 324.969231 
L 115.567895 324.969231 
L 116.068473 324.969231 
L 117.015366 324.969231 
L 117.81433 324.969231 
L 117.869595 324.969231 
L 118.573944 324.969231 
L 119.135465 324.969231 
L 120.190321 324.969231 
L 120.485702 324.969231 
L 121.551765 324.969231 
L 122.022285 324.969231 
L 122.471709 324.969231 
L 122.898303 324.969231 
L 123.783407 324.969231 
L 124.348753 324.969231 
L 125.096145 324.969231 
L 125.525262 324.969231 
L 126.323799 324.969231 
L 127.037104 324.969231 
L 127.712428 324.969231 
L 128.345849 324.969231 
L 128.589976 324.969231 
L 129.12421 324.969231 
L 130.212171 324.969231 
L 130.924196 324.969231 
L 131.013184 324.969231 
L 132.136642 324.969231 
L 132.409214 324.969231 
L 133.096664 324.969231 
L 133.879174 324.969231 
L 134.471771 324.969231 
L 135.199578 324.969231 
L 135.927724 324.969231 
L 136.332037 324.969231 
L 137.257389 324.969231 
L 137.593369 324.969231 
L 137.974187 324.969231 
L 138.767249 324.969231 
L 139.746277 324.969231 
L 140.305128 324.969231 
L 140.447322 324.969231 
L 141.214878 324.969231 
L 141.797528 324.969231 
L 142.809823 324.969231 
L 143.03224 324.969231 
L 143.853945 324.969231 
L 144.393079 324.969231 
L 145.394927 324.969231 
L 145.704576 324.969231 
L 146.16222 324.969231 
L 147.273876 324.969231 
L 147.421875 324.969231 
L 148.050831 324.969231 
L 148.892193 324.969231 
L 149.2533 324.969231 
L 149.932689 324.969231 
L 150.465044 324.969231 
L 151.535122 324.969231 
L 151.875974 324.969231 
L 152.793524 324.969231 
L 153.378979 324.969231 
L 154.166927 324.969231 
L 154.548538 324.969231 
L 155.341271 324.969231 
L 155.443139 324.969231 
L 156.598695 324.969231 
L 157.078219 324.969231 
L 157.688496 324.969231 
L 158.462588 324.969231 
L 158.646982 324.969231 
L 159.191857 324.969231 
L 159.91091 324.969231 
L 161.033957 324.969231 
L 161.354414 324.969231 
L 162.13146 324.969231 
L 162.818569 324.969231 
L 163.495032 324.969231 
L 163.933761 324.969231 
L 164.655082 324.969231 
L 165.127863 324.969231 
L 165.66532 324.969231 
L 166.531856 324.969231 
L 167.126245 324.969231 
L 167.885102 324.969231 
L 168.480353 324.969231 
L 168.807852 324.969231 
L 169.617167 324.969231 
L 170.290378 324.969231 
L 170.627376 324.969231 
L 171.619371 324.969231 
L 172.161009 324.969231 
L 172.902519 324.969231 
L 173.064978 324.969231 
L 173.799439 324.969231 
L 174.373426 324.969231 
L 175.34307 324.969231 
L 175.603678 324.969231 
L 176.32744 324.969231 
L 176.945752 324.969231 
L 177.614787 324.969231 
L 178.17724 324.969231 
L 178.980936 324.969231 
L 179.433676 324.969231 
L 180.335269 324.969231 
L 181.006817 324.969231 
L 181.213996 324.969231 
L 182.276708 324.969231 
L 182.417357 324.969231 
L 183.447366 324.969231 
L 184.093094 324.969231 
L 184.295248 324.969231 
L 184.928382 324.969231 
L 185.600064 324.969231 
L 186.659937 324.969231 
L 186.862691 324.969231 
L 187.783564 324.969231 
L 188.113576 324.969231 
L 188.988556 324.969231 
L 189.477729 324.969231 
L 189.980787 324.969231 
L 191.106146 324.969231 
L 191.423865 324.969231 
L 192.190737 324.969231 
L 192.849698 324.969231 
L 193.215715 324.969231 
L 193.724274 324.969231 
L 194.441337 324.969231 
L 195.415723 324.969231 
L 195.544801 324.969231 
L 196.479367 324.969231 
L 197.037989 324.969231 
L 197.416275 324.969231 
L 198.172811 324.969231 
L 199.18641 324.969231 
L 199.541723 324.969231 
L 200.101993 324.969231 
L 200.575702 324.969231 
L 201.322399 324.969231 
L 201.849449 324.969231 
L 202.500328 324.969231 
L 203.630147 324.969231 
L 204.030673 324.969231 
L 204.55751 324.969231 
L 205.091293 324.969231 
L 205.879353 324.969231 
L 206.359342 324.969231 
L 207.017307 324.969231 
L 207.51782 324.969231 
L 208.27407 324.969231 
L 208.660058 324.969231 
L 209.403919 324.969231 
L 210.171646 324.969231 
L 210.59954 324.969231 
L 211.711423 324.969231 
L 212.134189 324.969231 
L 212.560055 324.969231 
L 213.480223 324.969231 
L 214.170522 324.969231 
L 214.819882 324.969231 
L 215.127743 324.969231 
L 215.742808 324.969231 
L 216.354271 324.969231 
L 217.113916 324.969231 
L 217.717244 324.969231 
L 218.464002 324.969231 
L 218.883177 324.969231 
L 219.656674 324.969231 
L 220.285999 324.969231 
L 220.984233 324.969231 
L 221.541403 324.969231 
L 222.192959 324.969231 
L 222.724944 324.969231 
L 223.654527 324.969231 
L 223.974921 324.969231 
L 224.345798 324.969231 
L 225.183813 324.969231 
L 225.654599 324.969231 
L 226.225017 324.969231 
L 227.434274 324.969231 
L 228.063473 324.969231 
L 228.448311 324.969231 
L 229.070274 324.969231 
L 229.448463 324.969231 
L 230.425247 324.969231 
L 231.116899 324.969231 
L 231.507692 324.969231 
z
" style="fill:#808080;opacity:0.5;"/>
   </g>
   <g id="patch_12">
    <path clip-path="url(#p2b4452bd1f)" d="M 262.661538 138.046154 
L 262.661538 324.969231 
L 263.002463 324.969231 
L 263.184088 324.969231 
L 263.696427 324.969231 
L 263.950753 324.969231 
L 264.16377 324.969231 
L 264.391959 324.969231 
L 264.840065 324.969231 
L 265.204208 324.969231 
L 265.359204 324.969231 
L 265.771538 324.969231 
L 266.178852 324.969231 
L 266.547282 324.969231 
L 266.733223 324.969231 
L 266.913311 324.969231 
L 267.303417 324.969231 
L 267.757581 324.969231 
L 268.012349 324.969231 
L 268.15108 324.969231 
L 268.694544 324.969231 
L 269.021359 324.969231 
L 269.14383 324.969231 
L 269.61401 324.969231 
L 269.949608 324.969231 
L 270.253387 324.969231 
L 270.537774 324.969231 
L 270.917483 324.969231 
L 271.232512 324.969231 
L 271.552964 324.969231 
L 271.729847 324.969231 
L 272.12075 324.969231 
L 272.505571 324.969231 
L 272.597466 324.969231 
L 272.896812 324.969231 
L 273.195837 324.969231 
L 273.489217 324.969231 
L 273.977432 324.969231 
L 274.131734 324.969231 
L 274.556896 324.969231 
L 274.896039 324.969231 
L 275.338493 324.969231 
L 275.64194 324.969231 
L 275.881732 324.969231 
L 276.227059 324.969231 
L 276.316837 324.969231 
L 276.685711 324.969231 
L 277.153966 324.969231 
L 277.275044 324.969231 
L 277.54068 324.969231 
L 278.028074 324.969231 
L 278.203146 324.969231 
L 278.73277 324.969231 
L 279.076128 324.969231 
L 279.381277 324.969231 
L 279.550745 324.969231 
L 279.899793 324.969231 
L 280.349458 324.969231 
L 280.649784 324.969231 
L 280.785649 324.969231 
L 281.039622 324.969231 
L 281.515092 324.969231 
L 281.757705 324.969231 
L 282.203016 324.969231 
L 282.392946 324.969231 
L 282.60707 324.969231 
L 283.141026 324.969231 
L 283.199349 324.969231 
L 283.794343 324.969231 
L 283.838168 324.969231 
L 284.248945 324.969231 
L 284.530965 324.969231 
L 284.89796 324.969231 
L 285.348869 324.969231 
L 285.497707 324.969231 
L 285.955217 324.969231 
L 286.253884 324.969231 
L 286.483303 324.969231 
L 286.626413 324.969231 
L 286.959617 324.969231 
L 287.245184 324.969231 
L 287.683902 324.969231 
L 288.176777 324.969231 
L 288.332469 324.969231 
L 288.765169 324.969231 
L 288.888711 324.969231 
L 289.184811 324.969231 
L 289.550823 324.969231 
L 289.823089 324.969231 
L 290.244077 324.969231 
L 290.499779 324.969231 
L 290.794173 324.969231 
L 291.18836 324.969231 
L 291.405495 324.969231 
L 291.867147 324.969231 
L 292.158626 324.969231 
L 292.414854 324.969231 
L 292.822887 324.969231 
L 293.063808 324.969231 
L 293.24469 324.969231 
L 293.801792 324.969231 
L 293.973515 324.969231 
L 294.419201 324.969231 
L 294.656005 324.969231 
L 294.815404 324.969231 
L 295.175634 324.969231 
L 295.672322 324.969231 
L 295.800016 324.969231 
L 296.255024 324.969231 
L 296.59017 324.969231 
L 296.672969 324.969231 
L 297.038028 324.969231 
L 297.269691 324.969231 
L 297.869651 324.969231 
L 298.026367 324.969231 
L 298.376123 324.969231 
L 298.559783 324.969231 
L 298.858361 324.969231 
L 299.257957 324.969231 
L 299.660742 324.969231 
L 299.819973 324.969231 
L 300.344882 324.969231 
L 300.413115 324.969231 
L 300.890819 324.969231 
L 301.074098 324.969231 
L 301.53554 324.969231 
L 301.943023 324.969231 
L 302.221092 324.969231 
L 302.300157 324.969231 
L 302.642468 324.969231 
L 303.207653 324.969231 
L 303.395109 324.969231 
L 303.743441 324.969231 
L 303.92928 324.969231 
L 304.259663 324.969231 
L 304.5338 324.969231 
L 304.864189 324.969231 
L 305.32592 324.969231 
L 305.52356 324.969231 
L 305.799082 324.969231 
L 306.065354 324.969231 
L 306.605201 324.969231 
L 306.874885 324.969231 
L 307.196275 324.969231 
L 307.359825 324.969231 
L 307.729482 324.969231 
L 307.971649 324.969231 
L 308.469052 324.969231 
L 308.640162 324.969231 
L 308.90749 324.969231 
L 309.169968 324.969231 
L 309.548377 324.969231 
L 309.789588 324.969231 
L 310.346386 324.969231 
L 310.437404 324.969231 
L 310.904206 324.969231 
L 311.2774 324.969231 
L 311.598821 324.969231 
L 311.919547 324.969231 
L 312.239754 324.969231 
L 312.358928 324.969231 
L 312.62044 324.969231 
L 313.02844 324.969231 
L 313.450054 324.969231 
L 313.550635 324.969231 
L 313.865746 324.969231 
L 314.453205 324.969231 
L 314.593695 324.969231 
L 314.881186 324.969231 
L 315.350385 324.969231 
L 315.479875 324.969231 
L 315.966963 324.969231 
L 316.241487 324.969231 
L 316.48659 324.969231 
L 316.960692 324.969231 
L 317.218802 324.969231 
L 317.5854 324.969231 
L 317.64844 324.969231 
L 318.080013 324.969231 
L 318.266428 324.969231 
L 318.618824 324.969231 
L 318.947047 324.969231 
L 319.325581 324.969231 
L 319.756862 324.969231 
L 320.027637 324.969231 
L 320.239937 324.969231 
L 320.589276 324.969231 
L 321.004497 324.969231 
L 321.304492 324.969231 
L 321.569167 324.969231 
L 321.863391 324.969231 
L 322.077069 324.969231 
L 322.531478 324.969231 
L 322.621887 324.969231 
L 323.069536 324.969231 
L 323.437984 324.969231 
L 323.783726 324.969231 
L 324.094894 324.969231 
L 324.250262 324.969231 
L 324.637061 324.969231 
L 324.969231 324.969231 
L 324.969231 138.046154 
z
" style="fill:#808080;opacity:0.5;"/>
   </g>
   <g id="matplotlib.axis_1"/>
   <g id="matplotlib.axis_2"/>
   <g id="line2d_1">
    <path clip-path="url(#p2b4452bd1f)" d="M 75.738462 324.969231 
L 106.892308 324.969231 
L 106.892308 324.969231 
" style="fill:none;stroke:#000000;stroke-linecap:square;"/>
   </g>
   <g id="line2d_2">
    <path clip-path="url(#p2b4452bd1f)" d="M 13.430769 13.430769 
L 75.738462 13.430769 
L 75.738462 13.430769 
" style="fill:none;stroke:#000000;stroke-linecap:square;"/>
   </g>
   <g id="line2d_3">
    <path clip-path="url(#p2b4452bd1f)" d="M 75.738462 13.430769 
L 169.2 13.430769 
L 169.2 13.430769 
" style="fill:none;stroke:#000000;stroke-linecap:square;"/>
   </g>
   <g id="line2d_4">
    <path clip-path="url(#p2b4452bd1f)" d="M 231.507692 324.969231 
L 262.661538 324.969231 
L 262.661538 324.969231 
" style="fill:none;stroke:#000000;stroke-linecap:square;"/>
   </g>
   <g id="line2d_5">
    <path clip-path="url(#p2b4452bd1f)" d="M 262.661538 13.430769 
L 324.969231 13.430769 
L 324.969231 13.430769 
" style="fill:none;stroke:#000000;stroke-linecap:square;"/>
   </g>
   <g id="line2d_6">
    <path clip-path="url(#p2b4452bd1f)" d="M 169.2 13.430769 
L 262.661538 13.430769 
L 262.661538 13.430769 
" style="fill:none;stroke:#000000;stroke-linecap:square;"/>
   </g>
   <g id="line2d_7">
    <path clip-path="url(#p2b4452bd1f)" d="M 13.430769 324.969231 
L 75.738462 324.969231 
L 75.738462 324.969231 
" style="fill:none;stroke:#000000;stroke-linecap:square;"/>
   </g>
   <g id="line2d_8">
    <path clip-path="url(#p2b4452bd1f)" d="M 106.892308 324.969231 
L 231.507692 324.969231 
L 231.507692 324.969231 
" style="fill:none;stroke:#000000;stroke-linecap:square;"/>
   </g>
   <g id="line2d_9">
    <path clip-path="url(#p2b4452bd1f)" d="M 262.661538 324.969231 
L 324.969231 324.969231 
L 324.969231 324.969231 
" style="fill:none;stroke:#000000;stroke-linecap:square;"/>
   </g>
   <g id="text_1">
    <!-- $\Omega$ -->
    <g transform="translate(16.011538 22.420913)scale(0.1 -0.1)">
     <defs>
      <path d="M 7.71875 0 
L 4.390625 16.609375 
L 7.328125 16.609375 
Q 7.859375 13.71875 8.296875 11.5 
Q 8.734375 9.28125 9.4375 8.375 
Q 10.15625 7.46875 11.71875 7.171875 
Q 13.28125 6.890625 16.890625 6.890625 
L 23 6.890625 
Q 21.53125 12.546875 15.6875 21.65625 
Q 9.859375 30.765625 7.734375 34.890625 
Q 5.609375 39.015625 5.609375 45.515625 
Q 5.609375 53.078125 10.09375 58.765625 
Q 14.59375 64.453125 21.703125 67.484375 
Q 28.8125 70.515625 36.078125 70.515625 
Q 43.3125 70.515625 50.40625 67.484375 
Q 57.515625 64.453125 62 58.71875 
Q 66.5 52.984375 66.5 45.515625 
Q 66.5 40.4375 64.640625 35.9375 
Q 62.796875 31.453125 59.90625 26.953125 
Q 57.03125 22.46875 53.6875 16.9375 
Q 50.34375 11.421875 49.125 6.890625 
L 55.171875 6.890625 
Q 58.84375 6.890625 60.453125 7.171875 
Q 62.0625 7.46875 62.734375 8.375 
Q 63.421875 9.28125 63.84375 11.5 
Q 64.265625 13.71875 64.796875 16.609375 
L 67.671875 16.609375 
L 64.40625 0 
L 46.6875 0 
Q 45.703125 0 45.703125 1.3125 
Q 45.703125 6.390625 46.9375 11.265625 
Q 48.1875 16.15625 50.625 23.09375 
Q 53.078125 30.03125 54.4375 35.328125 
Q 55.8125 40.625 55.8125 45.515625 
Q 55.8125 51.515625 53.46875 56.640625 
Q 51.125 61.765625 46.625 64.84375 
Q 42.140625 67.921875 36.078125 67.921875 
Q 26.953125 67.921875 21.625 61.40625 
Q 16.3125 54.890625 16.3125 45.515625 
Q 16.359375 40.375 17.53125 35.828125 
Q 18.703125 31.296875 21.3125 23.71875 
Q 23.921875 16.15625 25.171875 11.265625 
Q 26.421875 6.390625 26.421875 1.3125 
Q 26.421875 0 25.390625 0 
z
" id="Cmr10-173"/>
     </defs>
     <use transform="translate(0 0.484375)" xlink:href="#Cmr10-173"/>
    </g>
   </g>
   <g id="text_2">
    <!-- $A$ -->
    <g style="fill:#0000ff;" transform="translate(103.142308 78.497837)scale(0.1 -0.1)">
     <defs>
      <path d="M 4.5 0 
Q 3.515625 0 3.515625 1.3125 
Q 3.90625 3.515625 4.78125 3.515625 
Q 8.84375 3.515625 11.796875 5.125 
Q 14.75 6.734375 16.890625 10.109375 
Q 17.09375 10.296875 17.09375 10.296875 
L 52.78125 70.515625 
Q 53.5625 71.578125 54.6875 71.578125 
L 56 71.578125 
Q 56.296875 71.578125 56.59375 71.453125 
Q 56.890625 71.34375 57.109375 71.0625 
Q 57.328125 70.796875 57.328125 70.515625 
L 63.375 5.90625 
Q 63.375 5.46875 63.8125 4.59375 
Q 64.796875 3.515625 71.296875 3.515625 
Q 72.3125 3.515625 72.3125 2.203125 
Q 71.96875 0.875 71.75 0.4375 
Q 71.53125 0 70.609375 0 
L 45.609375 0 
Q 44.671875 0 44.671875 1.3125 
Q 45.21875 3.515625 46 3.515625 
Q 53.90625 3.515625 54.390625 6.203125 
L 52.875 22.703125 
L 28.21875 22.703125 
L 20.21875 9.28125 
Q 19.484375 8.203125 19.484375 6.78125 
Q 19.484375 5.03125 21.171875 4.265625 
Q 22.859375 3.515625 24.90625 3.515625 
Q 25.875 3.515625 25.875 2.203125 
Q 25.53125 0.78125 25.328125 0.390625 
Q 25.140625 0 24.21875 0 
z
M 30.171875 26.21875 
L 52.484375 26.21875 
L 49.515625 58.59375 
z
" id="Cmmi10-65"/>
     </defs>
     <use transform="translate(0 0.421875)" xlink:href="#Cmmi10-65"/>
    </g>
   </g>
   <g id="text_3">
    <!-- $B$ -->
    <g style="fill:#ff0000;" transform="translate(227.707692 78.497837)scale(0.1 -0.1)">
     <defs>
      <path d="M 4.984375 0 
Q 4 0 4 1.3125 
Q 4.046875 1.5625 4.1875 2.140625 
Q 4.34375 2.734375 4.578125 3.125 
Q 4.828125 3.515625 5.328125 3.515625 
Q 8.15625 3.515625 10.25 3.65625 
Q 12.359375 3.8125 13.8125 4.203125 
Q 14.984375 4.640625 15.71875 6.890625 
L 29.390625 61.8125 
Q 29.59375 62.796875 29.59375 63.1875 
Q 29.59375 64.265625 28.421875 64.40625 
Q 26.515625 64.796875 21.1875 64.796875 
Q 20.21875 64.796875 20.21875 66.109375 
Q 20.265625 66.359375 20.40625 66.96875 
Q 20.5625 67.578125 20.828125 67.9375 
Q 21.09375 68.3125 21.484375 68.3125 
L 57.328125 68.3125 
Q 60.59375 68.3125 63.796875 67.5 
Q 67 66.703125 69.703125 64.9375 
Q 72.40625 63.1875 74 60.5625 
Q 75.59375 57.953125 75.59375 54.5 
Q 75.59375 50.734375 73.65625 47.5 
Q 71.734375 44.28125 68.671875 41.890625 
Q 65.625 39.5 62.078125 37.953125 
Q 58.546875 36.421875 54.6875 35.6875 
Q 57.421875 35.6875 60.21875 34.609375 
Q 63.03125 33.546875 65.234375 31.6875 
Q 67.4375 29.828125 68.78125 27.234375 
Q 70.125 24.65625 70.125 21.6875 
Q 70.125 15.671875 65.921875 10.6875 
Q 61.71875 5.71875 55.34375 2.859375 
Q 48.96875 0 43.015625 0 
z
M 23.390625 4.296875 
Q 23.390625 3.515625 26.8125 3.515625 
L 41.109375 3.515625 
Q 46 3.515625 50.484375 6.21875 
Q 54.984375 8.9375 57.6875 13.421875 
Q 60.40625 17.921875 60.40625 22.796875 
Q 60.40625 25.78125 59.15625 28.4375 
Q 57.90625 31.109375 55.5625 32.640625 
Q 53.21875 34.1875 50.203125 34.1875 
L 30.71875 34.1875 
L 23.78125 6.5 
Q 23.390625 5.125 23.390625 4.296875 
z
M 31.390625 36.8125 
L 46.578125 36.8125 
Q 51.375 36.8125 55.890625 39.25 
Q 60.40625 41.703125 63.25 45.890625 
Q 66.109375 50.09375 66.109375 54.78125 
Q 66.109375 59.125 63.390625 61.953125 
Q 60.6875 64.796875 56.390625 64.796875 
L 42.671875 64.796875 
Q 39.984375 64.796875 39.0625 64.296875 
Q 38.140625 63.8125 37.5 61.375 
z
" id="Cmmi10-66"/>
     </defs>
     <use transform="translate(0 0.6875)" xlink:href="#Cmmi10-66"/>
    </g>
   </g>
   <g id="text_4">
    <!-- $C$ -->
    <g style="fill:#228b22;" transform="translate(150.023077 271.651683)scale(0.1 -0.1)">
     <defs>
      <path d="M 14.59375 21.578125 
Q 14.59375 15.578125 16.90625 11.015625 
Q 19.234375 6.453125 23.65625 3.875 
Q 28.078125 1.3125 34.078125 1.3125 
Q 40.375 1.3125 46.203125 4.53125 
Q 52.046875 7.765625 56.171875 13.15625 
Q 60.296875 18.5625 61.8125 24.609375 
Q 62.015625 25.203125 62.59375 25.203125 
L 63.8125 25.203125 
Q 64.203125 25.203125 64.453125 24.921875 
Q 64.703125 24.65625 64.703125 24.3125 
Q 64.703125 24.21875 64.59375 24.03125 
Q 62.890625 17.09375 57.984375 11.015625 
Q 53.078125 4.9375 46.234375 1.359375 
Q 39.40625 -2.203125 32.171875 -2.203125 
Q 24.359375 -2.203125 18.15625 1.3125 
Q 11.96875 4.828125 8.515625 11.078125 
Q 5.078125 17.328125 5.078125 25.203125 
Q 5.078125 33.59375 8.828125 41.8125 
Q 12.59375 50.046875 18.9375 56.46875 
Q 25.296875 62.890625 33.421875 66.703125 
Q 41.546875 70.515625 49.90625 70.515625 
Q 53.21875 70.515625 56.25 69.5 
Q 59.28125 68.5 61.859375 66.453125 
Q 64.453125 64.40625 66.109375 61.71875 
L 74.03125 70.3125 
Q 74.03125 70.515625 74.515625 70.515625 
L 75.09375 70.515625 
Q 75.484375 70.515625 75.734375 70.171875 
Q 75.984375 69.828125 75.984375 69.484375 
L 69.1875 42.484375 
Q 69.1875 41.796875 68.40625 41.796875 
L 66.609375 41.796875 
Q 65.828125 41.796875 65.828125 42.921875 
Q 66.21875 45.125 66.21875 48.1875 
Q 66.21875 53.078125 64.546875 57.390625 
Q 62.890625 61.71875 59.390625 64.359375 
Q 55.90625 67 50.875 67 
Q 42.71875 67 35.9375 62.890625 
Q 29.15625 58.796875 24.4375 52.125 
Q 19.734375 45.453125 17.15625 37.328125 
Q 14.59375 29.203125 14.59375 21.578125 
z
" id="Cmmi10-67"/>
     </defs>
     <use transform="translate(0 0.484375)" xlink:href="#Cmmi10-67"/>
    </g>
   </g>
   <g id="patch_13">
    <path clip-path="url(#p2b4452bd1f)" d="M 138.046154 200.353846 
C 154.570347 200.353846 170.419977 193.788715 182.104346 182.104346 
C 193.788715 170.419977 200.353846 154.570347 200.353846 138.046154 
C 200.353846 121.521961 193.788715 105.672331 182.104346 93.987962 
C 170.419977 82.303593 154.570347 75.738462 138.046154 75.738462 
C 121.521961 75.738462 105.672331 82.303593 93.987962 93.987962 
C 82.303593 105.672331 75.738462 121.521961 75.738462 138.046154 
C 75.738462 154.570347 82.303593 170.419977 93.987962 182.104346 
C 105.672331 193.788715 121.521961 200.353846 138.046154 200.353846 
z
" style="fill:none;stroke:#0000ff;stroke-linejoin:miter;"/>
   </g>
   <g id="patch_14">
    <path clip-path="url(#p2b4452bd1f)" d="M 200.353846 200.353846 
C 216.878039 200.353846 232.727669 193.788715 244.412038 182.104346 
C 256.096407 170.419977 262.661538 154.570347 262.661538 138.046154 
C 262.661538 121.521961 256.096407 105.672331 244.412038 93.987962 
C 232.727669 82.303593 216.878039 75.738462 200.353846 75.738462 
C 183.829653 75.738462 167.980023 82.303593 156.295654 93.987962 
C 144.611285 105.672331 138.046154 121.521961 138.046154 138.046154 
C 138.046154 154.570347 144.611285 170.419977 156.295654 182.104346 
C 167.980023 193.788715 183.829653 200.353846 200.353846 200.353846 
z
" style="fill:none;stroke:#ff0000;stroke-linejoin:miter;"/>
   </g>
   <g id="patch_15">
    <path clip-path="url(#p2b4452bd1f)" d="M 169.2 262.661538 
C 185.724193 262.661538 201.573823 256.096407 213.258192 244.412038 
C 224.942561 232.727669 231.507692 216.878039 231.507692 200.353846 
C 231.507692 183.829653 224.942561 167.980023 213.258192 156.295654 
C 201.573823 144.611285 185.724193 138.046154 169.2 138.046154 
C 152.675807 138.046154 136.826177 144.611285 125.141808 156.295654 
C 113.457439 167.980023 106.892308 183.829653 106.892308 200.353846 
C 106.892308 216.878039 113.457439 232.727669 125.141808 244.412038 
C 136.826177 256.096407 152.675807 262.661538 169.2 262.661538 
z
" style="fill:none;stroke:#228b22;stroke-linejoin:miter;"/>
   </g>
  </g>
 </g>
 <defs>
  <clipPath id="p2b4452bd1f">
   <rect height="324" width="324" x="7.2" y="7.2"/>
  </clipPath>
 </defs>
</svg>
