<?xml version="1.0" encoding="utf-8" standalone="no"?>
<!DOCTYPE svg PUBLIC "-//W3C//DTD SVG 1.1//EN"
  "http://www.w3.org/Graphics/SVG/1.1/DTD/svg11.dtd">
<!-- Created with matplotlib (https://matplotlib.org/) -->
<svg height="338.4pt" version="1.1" viewBox="0 0 338.4 338.4" width="338.4pt" xmlns="http://www.w3.org/2000/svg" xmlns:xlink="http://www.w3.org/1999/xlink">
 <metadata>
  <rdf:RDF xmlns:cc="http://creativecommons.org/ns#" xmlns:dc="http://purl.org/dc/elements/1.1/" xmlns:rdf="http://www.w3.org/1999/02/22-rdf-syntax-ns#">
   <cc:Work>
    <dc:type rdf:resource="http://purl.org/dc/dcmitype/StillImage"/>
    <dc:date>2024-08-26T15:40:11.236346</dc:date>
    <dc:format>image/svg+xml</dc:format>
    <dc:creator>
     <cc:Agent>
      <dc:title>Matplotlib v3.3.4, https://matplotlib.org/</dc:title>
     </cc:Agent>
    </dc:creator>
   </cc:Work>
  </rdf:RDF>
 </metadata>
 <defs>
  <style type="text/css">*{stroke-linecap:butt;stroke-linejoin:round;}</style>
 </defs>
 <g id="figure_1">
  <g id="patch_1">
   <path d="M -0 338.4 
L 338.4 338.4 
L 338.4 0 
L -0 0 
z
" style="fill:#ffffff;"/>
  </g>
  <g id="axes_1">
   <g id="patch_2">
    <path d="M 7.2 331.2 
L 331.2 331.2 
L 331.2 7.2 
L 7.2 7.2 
z
" style="fill:#ffffff;"/>
   </g>
   <g id="patch_3">
    <path clip-path="url(#p81be5aeef3)" d="M 13.430769 324.969231 
L 13.430769 13.430769 
L 324.969231 13.430769 
L 324.969231 324.969231 
z
" style="fill:none;stroke:#000000;stroke-linejoin:miter;"/>
   </g>
   <g id="patch_4">
    <path clip-path="url(#p81be5aeef3)" d="M 200.353846 146.393802 
L 199.929514 146.151028 
L 199.440652 145.876773 
L 198.924799 145.593597 
L 198.413804 145.319292 
L 198.137821 145.173677 
L 197.387157 144.786475 
L 197.145479 144.664541 
L 196.615058 144.401517 
L 195.920541 144.066537 
L 195.623272 143.926377 
L 195.261638 143.758444 
L 194.918117 143.601516 
L 194.395014 143.367358 
L 193.98963 143.189847 
L 193.499228 142.97967 
L 192.617187 142.614051 
L 192.391278 142.522945 
L 191.95534 142.350027 
L 191.303298 142.098437 
L 191.157695 142.0434 
L 190.430112 141.774576 
L 190.252561 141.710533 
L 189.634162 141.492199 
L 189.101809 141.310078 
L 188.506301 141.112684 
L 188.304795 141.047394 
L 187.764167 140.875949 
L 187.139286 140.684503 
L 186.935082 140.62349 
L 186.323083 140.445178 
L 185.838051 140.308665 
L 185.119551 140.114188 
L 185.088137 140.105895 
L 184.381836 139.924049 
L 184.10879 139.856106 
L 183.386027 139.682558 
L 183.124463 139.621994 
L 182.354967 139.450682 
L 182.262394 139.43076 
L 181.583124 139.289071 
L 181.045779 139.182562 
L 180.48804 139.077189 
L 179.973729 138.984674 
L 179.682236 138.934214 
L 179.147559 138.845354 
L 178.631001 138.764036 
L 178.32931 138.718595 
L 177.961546 138.665242 
L 177.163573 138.557163 
L 177.000653 138.536386 
L 176.390779 138.46248 
L 175.697767 138.38589 
L 175.683154 138.38436 
L 174.992434 138.315985 
L 174.407609 138.264158 
L 174.141239 138.242392 
L 173.390891 138.187256 
L 172.984548 138.161196 
L 172.582189 138.138018 
L 172.076125 138.11257 
L 171.620689 138.093194 
L 171.395842 138.084859 
L 170.839754 138.067734 
L 170.447651 138.058647 
L 169.834442 138.049384 
L 169.372897 138.046394 
L 168.843781 138.047172 
L 168.225003 138.053783 
L 167.782642 138.062277 
L 167.670622 138.064926 
L 167.153382 138.079775 
L 166.456544 138.106581 
L 166.286478 138.11431 
L 165.471719 138.157798 
L 165.248579 138.171575 
L 164.577539 138.217855 
L 164.273404 138.241229 
L 163.623854 138.29617 
L 163.405049 138.31622 
L 162.716782 138.384366 
L 162.143433 138.447034 
L 161.722372 138.496481 
L 161.463333 138.528346 
L 161.126304 138.571454 
L 160.444487 138.664386 
L 159.867033 138.749104 
L 159.398482 138.821913 
L 158.852961 138.911293 
L 158.599357 138.954539 
L 157.903674 139.078716 
L 157.683381 139.119738 
L 157.310906 139.190966 
L 156.746923 139.303298 
L 155.995256 139.461455 
L 155.69642 139.527028 
L 155.400348 139.593513 
L 155.030436 139.678711 
L 154.20456 139.877526 
L 154.053031 139.9153 
L 153.201499 140.135107 
L 152.885006 140.220083 
L 152.60658 140.296316 
L 152.123587 140.431858 
L 151.697555 140.554909 
L 150.902324 140.793427 
L 150.385098 140.954789 
L 150.020749 141.07143 
L 149.595229 141.210787 
L 149.107685 141.374634 
L 148.620099 141.542995 
L 148.031824 141.752167 
L 147.809106 141.833096 
L 147.177194 142.06796 
L 146.632361 142.276741 
L 146.56119 142.304447 
L 145.981542 142.533852 
L 145.367453 142.784252 
L 144.713928 143.059162 
L 144.233445 143.266898 
L 143.863676 143.430044 
L 143.56903 143.562105 
L 142.972903 143.83493 
L 142.704798 143.960116 
L 141.882771 144.35369 
L 141.549631 144.517428 
L 141.004132 144.790895 
L 140.580628 145.007843 
L 140.236669 145.187063 
L 139.87854 145.376573 
L 139.339489 145.667482 
L 139.036289 145.834134 
L 138.548355 146.106955 
L 137.856243 146.503893 
L 137.396217 146.774299 
L 137.067484 146.970797 
L 136.622222 147.241353 
L 135.918155 147.679685 
L 135.483497 147.956843 
L 135.276512 148.090613 
L 134.654564 148.499614 
L 133.944777 148.979555 
L 133.680911 149.161632 
L 132.999369 149.641295 
L 132.794028 149.788505 
L 132.139524 150.266227 
L 131.944812 150.410884 
L 131.290753 150.905514 
L 131.054714 151.08737 
L 130.570866 151.465825 
L 129.869903 152.027953 
L 129.476489 152.350813 
L 128.940768 152.799217 
L 128.333964 153.31965 
L 128.15533 153.475455 
L 127.383632 154.162506 
L 127.010661 154.502912 
L 126.67982 154.809551 
L 126.319925 155.148231 
L 125.468424 155.971442 
L 125.147146 156.290317 
L 124.7472 156.693829 
L 124.472947 156.974828 
L 123.907548 157.565502 
L 123.33062 158.184562 
L 122.997914 158.549352 
L 122.199247 159.449351 
L 122.097325 159.566758 
L 121.523698 160.238777 
L 120.942523 160.939833 
L 120.574923 161.394247 
L 120.165549 161.910756 
L 119.69495 162.518697 
L 119.337329 162.991263 
L 118.979709 163.473351 
L 118.482193 164.160579 
L 118.128418 164.661521 
L 117.794728 165.143812 
L 117.461037 165.636009 
L 117.33437 165.825525 
L 116.851404 166.562234 
L 116.273968 167.47401 
L 115.96454 167.977399 
L 115.527884 168.706533 
L 115.251783 169.179523 
L 114.975683 169.662284 
L 114.613292 170.311545 
L 114.250901 170.979621 
L 113.98492 171.482694 
L 113.718938 171.997185 
L 113.583323 172.264102 
L 113.21956 172.996236 
L 112.855797 173.753484 
L 112.546508 174.418728 
L 112.293308 174.979117 
L 112.040107 175.55475 
L 111.818457 176.072022 
L 111.596806 176.602624 
L 111.333155 177.2524 
L 111.069505 177.924089 
L 110.852608 178.494514 
L 110.591577 179.204348 
L 110.330546 179.942185 
L 110.120567 180.558162 
L 109.910588 181.196233 
L 109.700609 181.858685 
L 109.49063 182.548239 
L 109.454005 182.671521 
L 109.236417 183.424074 
L 109.127622 183.814258 
L 109.018828 184.214606 
L 108.910034 184.625893 
L 108.80124 185.049001 
L 108.692445 185.48494 
L 108.583651 185.934873 
L 108.426485 186.61236 
L 108.347903 186.964643 
L 108.26932 187.326923 
L 108.196411 187.672731 
L 108.123503 188.028668 
L 108.050594 188.395639 
L 107.977686 188.774693 
L 107.877588 189.317075 
L 107.77749 189.888483 
L 107.677393 190.493963 
L 107.627344 190.811493 
L 107.577295 191.140231 
L 107.527246 191.481422 
L 107.477197 191.836564 
L 107.427148 192.20748 
L 107.377099 192.596434 
L 107.32705 193.006289 
L 107.277001 193.440761 
L 107.226952 193.904824 
L 107.201928 194.15001 
L 107.176903 194.4054 
L 107.141329 194.788788 
L 107.105755 195.200867 
L 107.087967 195.419891 
L 107.07018 195.649168 
L 107.052393 195.890278 
L 107.034606 196.145253 
L 107.016818 196.416786 
L 106.999031 196.708577 
L 106.981244 197.025948 
L 106.97235 197.196612 
L 106.963457 197.377071 
L 106.954563 197.569229 
L 106.945669 197.775699 
L 106.936776 198.000247 
L 106.927882 198.248648 
L 106.918989 198.530626 
L 106.910095 198.86514 
L 106.901201 199.301134 
L 106.892308 200.353846 
L 106.892308 192.006198 
L 107.368066 192.278095 
L 107.706487 192.468145 
L 108.338858 192.8159 
L 108.835682 193.082477 
L 109.331087 193.342569 
L 109.652866 193.508481 
L 110.268876 193.819547 
L 110.685324 194.025021 
L 111.277865 194.310772 
L 111.752886 194.534317 
L 112.044959 194.66935 
L 112.708956 194.969567 
L 112.923024 195.064369 
L 113.273301 195.217425 
L 113.734017 195.414861 
L 114.543536 195.751227 
L 114.689135 195.810314 
L 115.250647 196.034199 
L 115.881223 196.278141 
L 116.155172 196.381679 
L 116.790678 196.616225 
L 117.28611 196.793657 
L 117.74289 196.95308 
L 118.38443 197.170304 
L 118.854127 197.324435 
L 119.073823 197.395115 
L 119.676138 197.584302 
L 119.895593 197.65157 
L 120.496837 197.831353 
L 120.963037 197.966231 
L 121.606609 198.145987 
L 122.135755 198.28823 
L 122.509617 198.385731 
L 123.065811 198.526215 
L 123.424487 198.613929 
L 123.756412 198.693098 
L 124.261576 198.809909 
L 124.733604 198.915067 
L 125.082735 198.990377 
L 125.495854 199.076789 
L 126.089443 199.195852 
L 126.768647 199.32475 
L 127.069912 199.379429 
L 127.543872 199.462362 
L 128.053456 199.547329 
L 128.675951 199.645243 
L 128.7995 199.66391 
L 129.450404 199.758078 
L 129.808222 199.806861 
L 130.413508 199.884582 
L 131.075341 199.962681 
L 131.401399 199.998521 
L 131.573171 200.016703 
L 132.193095 200.078325 
L 132.688405 200.123066 
L 133.230692 200.167485 
L 133.51392 200.188791 
L 134.270389 200.239338 
L 134.40422 200.247318 
L 135.03197 200.280897 
L 135.369705 200.296336 
L 136.152011 200.325049 
L 136.494302 200.334518 
L 136.929329 200.343836 
L 137.534713 200.351747 
L 137.946119 200.353766 
L 138.541873 200.351874 
L 139.008926 200.346407 
L 139.415539 200.338796 
L 139.861814 200.327386 
L 140.308059 200.312777 
L 140.862859 200.290147 
L 140.95242 200.28603 
L 141.667982 200.248492 
L 142.013069 200.227438 
L 142.424903 200.199795 
L 143.157826 200.143813 
L 143.333359 200.129114 
L 143.963531 200.072222 
L 144.338042 200.035352 
L 144.984445 199.966333 
L 145.25707 199.935177 
L 145.989095 199.845492 
L 146.216787 199.815801 
L 146.626221 199.760261 
L 147.503692 199.631895 
L 147.859331 199.576228 
L 148.385661 199.489975 
L 148.668166 199.441767 
L 149.327246 199.32409 
L 149.476705 199.296387 
L 149.891606 199.217502 
L 150.386044 199.11968 
L 151.237065 198.941543 
L 151.356262 198.9156 
L 151.810927 198.814398 
L 152.558796 198.640145 
L 153.089203 198.510649 
L 153.54512 198.395392 
L 153.998428 198.277155 
L 154.403542 198.168399 
L 154.835861 198.049106 
L 155.185057 197.950298 
L 155.665212 197.810837 
L 155.996219 197.712256 
L 156.895299 197.434353 
L 157.190198 197.339948 
L 157.431882 197.261372 
L 158.102487 197.037611 
L 158.673006 196.840554 
L 159.100686 196.688759 
L 159.521544 196.535949 
L 159.862428 196.409659 
L 160.30691 196.241577 
L 160.952422 195.990536 
L 161.423314 195.802166 
L 161.952787 195.585023 
L 162.122908 195.514044 
L 162.961625 195.155416 
L 163.3915 194.965939 
L 163.778209 194.792166 
L 164.064944 194.661268 
L 164.818372 194.308902 
L 165.077464 194.184882 
L 165.70028 193.880712 
L 166.140549 193.660482 
L 166.353148 193.552574 
L 167.228033 193.097643 
L 167.59849 192.899667 
L 167.866754 192.754292 
L 168.423881 192.446909 
L 168.90879 192.173284 
L 169.162984 192.027553 
L 169.934149 191.575625 
L 170.368811 191.31429 
L 170.881416 190.999851 
L 171.33567 190.715468 
L 171.596417 190.549757 
L 172.088673 190.231932 
L 172.712654 189.819528 
L 173.300633 189.420956 
L 173.66451 189.16935 
L 173.87449 189.022411 
L 174.410146 188.641693 
L 175.163979 188.091289 
L 175.689254 187.697393 
L 176.051498 187.420665 
L 176.240149 187.274878 
L 176.76536 186.862868 
L 177.478171 186.288921 
L 177.879336 185.95822 
L 178.188006 185.699908 
L 178.547765 185.394523 
L 179.381295 184.668623 
L 179.455578 184.602659 
L 180.33866 183.801945 
L 180.846302 183.32745 
L 181.188372 183.00166 
L 181.629513 182.574115 
L 181.94943 182.258719 
L 182.426647 181.779669 
L 182.959806 181.231943 
L 183.38452 180.785844 
L 184.074977 180.041343 
L 184.158565 179.949543 
L 184.934903 179.078991 
L 185.225803 178.744179 
L 185.843153 178.017336 
L 186.244159 177.532871 
L 186.766111 176.887038 
L 187.131107 176.42474 
L 187.849299 175.488045 
L 187.995301 175.29305 
L 188.369341 174.786123 
L 188.743381 174.268241 
L 189.272811 173.515551 
L 189.615294 173.015745 
L 189.883994 172.616183 
L 190.479562 171.706014 
L 190.985498 170.904552 
L 191.302604 170.388062 
L 191.61971 169.860029 
L 191.915547 169.356488 
L 192.18567 168.887058 
L 192.622003 168.108177 
L 193.081258 167.258922 
L 193.471789 166.511 
L 193.86232 165.737382 
L 194.155443 165.138519 
L 194.448565 164.52287 
L 194.721307 163.933902 
L 194.982632 163.353979 
L 195.243956 162.757688 
L 195.493739 162.171318 
L 195.743521 161.567683 
L 195.956284 161.038878 
L 196.169046 160.495605 
L 196.42892 159.81083 
L 196.61594 159.302416 
L 196.80296 158.779853 
L 196.98998 158.242042 
L 197.177 157.687732 
L 197.370734 157.094586 
L 197.606107 156.345349 
L 197.84148 155.560934 
L 198.034613 154.88757 
L 198.227746 154.183826 
L 198.420879 153.445538 
L 198.517446 153.061857 
L 198.614013 152.667474 
L 198.699713 152.307791 
L 198.785413 151.93827 
L 198.908758 151.387515 
L 199.032103 150.811832 
L 199.155448 150.20768 
L 199.278793 149.570583 
L 199.350881 149.180737 
L 199.42297 148.776252 
L 199.495058 148.355406 
L 199.567147 147.916106 
L 199.639235 147.455768 
L 199.711324 146.971138 
L 199.783412 146.458017 
L 199.855501 145.910831 
L 199.917794 145.404731 
L 199.948941 145.137946 
L 199.980087 144.860581 
L 200.011234 144.571289 
L 200.04238 144.268406 
L 200.073527 143.94984 
L 200.104674 143.6129 
L 200.13582 143.25402 
L 200.166967 142.868304 
L 200.18254 142.6633 
L 200.198113 142.448706 
L 200.213687 142.223043 
L 200.22926 141.984409 
L 200.244833 141.730284 
L 200.260406 141.457209 
L 200.27598 141.160202 
L 200.291553 140.831617 
L 200.307126 140.458587 
L 200.3227 140.01602 
L 200.338273 139.439147 
L 200.353846 138.046154 
z
" style="fill:#808080;opacity:0.5;"/>
   </g>
   <g id="patch_5">
    <path clip-path="url(#p81be5aeef3)" d="M 231.507692 192.006198 
L 230.845316 192.383239 
L 230.418642 192.620476 
L 230.242753 192.717003 
L 229.419686 193.158997 
L 229.259339 193.243264 
L 228.778403 193.492462 
L 228.389763 193.689985 
L 227.608114 194.076979 
L 227.332601 194.210158 
L 226.577259 194.56678 
L 226.462574 194.619848 
L 226.100157 194.785699 
L 225.22057 195.176658 
L 224.934338 195.300393 
L 224.529739 195.472409 
L 223.983715 195.699235 
L 223.530736 195.882823 
L 222.932091 196.119137 
L 222.798241 196.170999 
L 222.327452 196.350606 
L 221.470216 196.666521 
L 221.164362 196.775797 
L 220.568493 196.983549 
L 220.136084 197.130091 
L 219.548319 197.323643 
L 219.184081 197.440352 
L 218.667802 197.60157 
L 218.128683 197.764691 
L 217.943762 197.81942 
L 217.636228 197.909062 
L 216.867344 198.125709 
L 216.488965 198.228431 
L 216.082746 198.335873 
L 215.619182 198.454912 
L 214.970547 198.615127 
L 214.505859 198.725385 
L 213.940941 198.854372 
L 213.614937 198.926298 
L 213.256246 199.003324 
L 212.77903 199.102385 
L 212.18885 199.219524 
L 211.972944 199.2609 
L 211.143056 199.412606 
L 210.746018 199.481089 
L 210.217664 199.56813 
L 209.815453 199.63127 
L 209.506937 199.677878 
L 208.973954 199.754681 
L 208.563539 199.810622 
L 207.935595 199.890843 
L 207.744391 199.913984 
L 207.316212 199.963631 
L 206.389904 200.060785 
L 206.349744 200.064681 
L 205.677518 200.125998 
L 205.415468 200.147913 
L 204.670653 200.204128 
L 204.114411 200.240259 
L 203.568915 200.270842 
L 203.396394 200.279516 
L 202.691376 200.309983 
L 202.453695 200.318452 
L 202.107651 200.329159 
L 201.52888 200.342765 
L 201.142074 200.34886 
L 200.54719 200.353546 
L 200.118543 200.353402 
L 199.659261 200.349975 
L 199.156183 200.342334 
L 198.504486 200.326395 
L 198.052826 200.311343 
L 197.92116 200.306338 
L 197.295778 200.278756 
L 196.866634 200.256184 
L 196.489215 200.233879 
L 195.856346 200.191315 
L 195.54653 200.168116 
L 195.024323 200.125496 
L 194.434048 200.071991 
L 193.826004 200.010949 
L 193.361349 199.960235 
L 193.006324 199.919108 
L 192.74546 199.887572 
L 192.024003 199.794532 
L 191.434581 199.712151 
L 191.248119 199.684894 
L 190.527067 199.574058 
L 190.056722 199.497092 
L 189.535348 199.40745 
L 189.143624 199.337095 
L 188.56833 199.229077 
L 188.086232 199.134239 
L 187.621417 199.039053 
L 187.454756 199.004025 
L 186.916383 198.887613 
L 186.588535 198.814276 
L 186.177851 198.719786 
L 185.340226 198.517963 
L 185.181431 198.478317 
L 184.708923 198.357719 
L 184.267517 198.24149 
L 183.752209 198.101413 
L 182.901066 197.859605 
L 182.865927 197.849341 
L 182.047352 197.603863 
L 181.742027 197.509157 
L 181.244819 197.351243 
L 180.95415 197.256798 
L 180.131499 196.980908 
L 179.838704 196.879626 
L 179.532064 196.771803 
L 179.10335 196.618032 
L 178.319907 196.327832 
L 178.096055 196.242711 
L 177.64671 196.068861 
L 176.991881 195.808314 
L 176.592525 195.645183 
L 175.97168 195.385133 
L 175.781771 195.304006 
L 175.274644 195.083704 
L 174.827627 194.885055 
L 174.075364 194.541197 
L 173.647078 194.34 
L 173.32281 194.185014 
L 172.745263 193.903245 
L 172.480297 193.771496 
L 171.797326 193.424613 
L 171.446191 193.242132 
L 171.034719 193.024671 
L 170.219717 192.582223 
L 169.98279 192.450634 
L 169.473051 192.162926 
L 169.004714 191.892978 
L 168.648974 191.68429 
L 168.156458 191.390101 
L 167.546459 191.017126 
L 167.232743 190.821537 
L 166.462137 190.33 
L 166.17246 190.14108 
L 165.761127 189.868854 
L 165.346975 189.589994 
L 164.660467 189.116999 
L 164.342431 188.893243 
L 164.008977 188.655432 
L 163.456379 188.253976 
L 163.127621 188.010708 
L 162.521269 187.55317 
L 161.776863 186.975336 
L 161.646558 186.872318 
L 160.876725 186.252019 
L 160.705589 186.111362 
L 159.895684 185.431654 
L 159.798002 185.348078 
L 159.159176 184.792786 
L 158.700164 184.384251 
L 158.019954 183.763657 
L 157.728997 183.492504 
L 157.178836 182.970167 
L 156.93395 182.733525 
L 156.202656 182.011151 
L 156.006636 181.813419 
L 155.285641 181.070628 
L 154.795098 180.550848 
L 154.46996 180.199654 
L 153.948233 179.624605 
L 153.468368 179.082728 
L 152.888194 178.410252 
L 152.821498 178.33169 
L 152.121384 177.490775 
L 151.755236 177.038763 
L 151.190553 176.324334 
L 150.885031 175.928668 
L 150.465052 175.373847 
L 150.045072 174.805857 
L 149.882989 174.582999 
L 149.247649 173.688897 
L 148.929202 173.227889 
L 148.585397 172.720009 
L 148.26243 172.232889 
L 147.939463 171.735632 
L 147.401787 170.884057 
L 147.182702 170.528118 
L 146.744146 169.799083 
L 146.305589 169.046709 
L 145.796257 168.141303 
L 145.469585 167.541347 
L 145.206162 167.045833 
L 144.942738 166.539269 
L 144.593322 165.849255 
L 144.259332 165.169097 
L 143.949441 164.518623 
L 143.63955 163.848036 
L 143.288065 163.061052 
L 142.913998 162.189731 
L 142.726964 161.739844 
L 142.53993 161.279743 
L 142.441342 161.032898 
L 142.156554 160.302022 
L 141.871765 159.542543 
L 141.717683 159.118621 
L 141.5636 158.684843 
L 141.409517 158.240575 
L 141.255435 157.785108 
L 141.015174 157.050642 
L 140.774914 156.28346 
L 140.598005 155.695175 
L 140.421096 155.084755 
L 140.30451 154.669203 
L 140.187925 154.242154 
L 140.071339 153.802673 
L 139.954754 153.349689 
L 139.817011 152.795397 
L 139.679269 152.218105 
L 139.586531 151.81503 
L 139.493794 151.39915 
L 139.401056 150.969229 
L 139.308318 150.523815 
L 139.215581 150.061186 
L 139.122843 149.579269 
L 139.030105 149.075538 
L 138.937368 148.546853 
L 138.848783 148.014892 
L 138.760199 147.452063 
L 138.715907 147.157297 
L 138.671614 146.852448 
L 138.627322 146.536429 
L 138.58303 146.207943 
L 138.515921 145.682873 
L 138.482366 145.406075 
L 138.448811 145.118293 
L 138.415256 144.818126 
L 138.381702 144.503848 
L 138.348147 144.173287 
L 138.314592 143.82365 
L 138.281037 143.451236 
L 138.247482 143.050962 
L 138.230705 142.838216 
L 138.213928 142.615514 
L 138.19715 142.381322 
L 138.180373 142.133665 
L 138.163596 141.869928 
L 138.146818 141.586519 
L 138.130041 141.278268 
L 138.113263 140.93724 
L 138.096486 140.550076 
L 138.079709 140.090736 
L 138.062931 139.491989 
L 138.046154 138.046154 
L 138.046154 146.393802 
L 138.678399 146.033681 
L 138.908195 145.9052 
L 139.664518 145.491256 
L 140.138991 145.238456 
L 140.330353 145.137979 
L 140.678959 144.957107 
L 141.104762 144.739944 
L 141.643042 144.471268 
L 142.111926 144.242486 
L 142.583992 144.017032 
L 143.289771 143.688967 
L 143.916241 143.406677 
L 144.043071 143.350536 
L 144.45639 143.169912 
L 145.076108 142.905727 
L 145.596195 142.690089 
L 146.247659 142.427699 
L 146.428066 142.35654 
L 146.850608 142.192405 
L 147.481007 141.95407 
L 148.010427 141.7599 
L 148.426155 141.611222 
L 149.038718 141.398174 
L 149.545393 141.22733 
L 149.555198 141.224071 
L 150.467494 140.928753 
L 150.813556 140.82077 
L 151.349745 140.657809 
L 151.620928 140.57739 
L 152.054304 140.451646 
L 152.384864 140.358015 
L 153.060635 140.172708 
L 153.466698 140.065276 
L 153.862022 139.963491 
L 154.607825 139.778959 
L 155.125139 139.656673 
L 155.368212 139.60082 
L 155.769865 139.510769 
L 156.579113 139.337769 
L 157.04408 139.243437 
L 157.130511 139.226308 
L 157.904974 139.078477 
L 158.088056 139.045011 
L 158.904082 138.902706 
L 159.264548 138.843397 
L 159.659919 138.780838 
L 159.932649 138.739199 
L 160.502812 138.656136 
L 160.936638 138.596536 
L 161.762472 138.491647 
L 161.767785 138.491008 
L 162.502226 138.407189 
L 162.898545 138.36562 
L 163.515875 138.305968 
L 163.873473 138.274247 
L 164.551634 138.219788 
L 164.773435 138.203592 
L 165.376563 138.163575 
L 165.545071 138.153444 
L 166.03992 138.126341 
L 166.591052 138.100799 
L 167.359753 138.073335 
L 167.542006 138.068217 
L 168.321512 138.052347 
L 168.569667 138.049342 
L 169.033268 138.046377 
L 169.735333 138.048454 
L 170.114664 138.052868 
L 170.527013 138.060287 
L 170.837047 138.067663 
L 171.438596 138.086381 
L 172.016457 138.109842 
L 172.285175 138.122582 
L 172.612647 138.139681 
L 173.187265 138.173864 
L 173.765068 138.213612 
L 174.166583 138.244414 
L 174.804341 138.29871 
L 175.001011 138.316786 
L 175.407456 138.356136 
L 175.914847 138.409037 
L 176.333942 138.455903 
L 177.225417 138.565164 
L 177.421358 138.59093 
L 178.069478 138.680668 
L 178.353494 138.722182 
L 178.698639 138.774431 
L 179.42143 138.890272 
L 179.773276 138.949821 
L 180.302872 139.043368 
L 180.693344 139.115365 
L 181.090117 139.191164 
L 181.749495 139.323045 
L 182.325838 139.444398 
L 182.50083 139.482371 
L 183.30153 139.662864 
L 183.801445 139.781193 
L 184.252674 139.891746 
L 184.376623 139.92274 
L 185.036283 140.092244 
L 185.463919 140.206249 
L 186.0074 140.355848 
L 186.502854 140.496852 
L 186.958772 140.63053 
L 187.290981 140.73032 
L 187.892834 140.916261 
L 188.151881 140.998352 
L 188.73276 141.186965 
L 189.206979 141.345632 
L 189.853268 141.56872 
L 190.350508 141.745787 
L 190.634947 141.849217 
L 191.122484 142.030153 
L 191.440789 142.150789 
L 192.107582 142.409983 
L 192.586523 142.601625 
L 193.082617 142.805005 
L 193.46409 142.964801 
L 193.966191 143.179689 
L 194.614717 143.465001 
L 195.087328 143.678501 
L 195.285817 143.769584 
L 196.040747 144.123758 
L 196.504435 144.34745 
L 196.76782 144.476625 
L 197.236985 144.710554 
L 197.743064 144.968451 
L 198.162372 145.186559 
L 198.584131 145.410044 
L 199.330618 145.815838 
L 199.753709 146.051734 
L 200.253791 146.336158 
L 200.739253 146.618159 
L 201.131204 146.850139 
L 201.501983 147.07317 
L 202.009627 147.384261 
L 202.264694 147.543104 
L 202.628346 147.772536 
L 203.290995 148.199723 
L 203.962145 148.644642 
L 204.237678 148.830942 
L 204.900316 149.28785 
L 205.104583 149.431264 
L 205.830961 149.951255 
L 205.953401 150.040468 
L 206.683945 150.582344 
L 207.203061 150.977578 
L 207.49026 151.19996 
L 207.910532 151.530253 
L 208.583534 152.071492 
L 208.79694 152.246354 
L 209.356591 152.712512 
L 209.941151 153.211433 
L 210.160755 153.402115 
L 210.975878 154.125883 
L 211.430186 154.54053 
L 211.837323 154.919199 
L 212.374944 155.429769 
L 212.842715 155.884059 
L 213.226233 156.263719 
L 213.708626 156.750742 
L 214.0719 157.124677 
L 214.758153 157.848515 
L 214.861536 157.959594 
L 215.401047 158.548204 
L 215.946246 159.158738 
L 216.265996 159.524438 
L 216.996821 160.382451 
L 217.2276 160.660041 
L 217.967747 161.572982 
L 218.296397 161.9899 
L 218.852331 162.712187 
L 219.296338 163.305157 
L 219.855499 164.073426 
L 220.334268 164.751386 
L 220.725528 165.320027 
L 220.964978 165.674809 
L 221.434654 166.386369 
L 221.994826 167.263744 
L 222.375444 167.878923 
L 222.756062 168.510531 
L 223.256934 169.368423 
L 223.713917 170.179662 
L 224.186706 171.05008 
L 224.482531 171.61206 
L 224.744088 172.120838 
L 225.005646 172.641423 
L 225.186996 173.009655 
L 225.421193 173.494472 
L 225.655389 173.990282 
L 225.983536 174.704702 
L 226.311682 175.443922 
L 226.52756 175.944845 
L 226.743439 176.458215 
L 227.070761 177.262212 
L 227.254102 177.727098 
L 227.437443 178.203254 
L 227.620784 178.691425 
L 227.804125 179.192442 
L 228.052559 179.893523 
L 228.230433 180.41252 
L 228.408307 180.94702 
L 228.586181 181.498342 
L 228.764055 182.068008 
L 228.977765 182.779223 
L 229.164982 183.42903 
L 229.3522 184.106959 
L 229.539418 184.816692 
L 229.633027 185.184872 
L 229.726636 185.562806 
L 229.834182 186.01005 
L 229.941728 186.472529 
L 230.049275 186.95182 
L 230.156821 187.449796 
L 230.228857 187.7949 
L 230.300893 188.150184 
L 230.372929 188.516564 
L 230.444965 188.895105 
L 230.539878 189.414563 
L 230.63479 189.960816 
L 230.729703 190.538337 
L 230.777159 190.84059 
L 230.824615 191.153012 
L 230.872071 191.476676 
L 230.919527 191.812859 
L 230.966984 192.163104 
L 231.01444 192.529298 
L 231.061896 192.913797 
L 231.109352 193.3196 
L 231.156808 193.750634 
L 231.204265 194.212211 
L 231.242193 194.607996 
L 231.280122 195.033411 
L 231.299086 195.259529 
L 231.31805 195.496236 
L 231.337014 195.745161 
L 231.355978 196.008405 
L 231.374943 196.288749 
L 231.393907 196.59001 
L 231.412871 196.917688 
L 231.422353 197.093896 
L 231.431835 197.280219 
L 231.441318 197.478622 
L 231.4508 197.691804 
L 231.460282 197.923653 
L 231.469764 198.180133 
L 231.479246 198.471283 
L 231.488728 198.816682 
L 231.49821 199.266865 
L 231.507692 200.353846 
z
" style="fill:#808080;opacity:0.5;"/>
   </g>
   <g id="matplotlib.axis_1"/>
   <g id="matplotlib.axis_2"/>
   <g id="line2d_1">
    <path clip-path="url(#p81be5aeef3)" d="M 106.892308 192.006198 
L 110.268876 193.819547 
L 113.734017 195.414861 
L 117.28611 196.793657 
L 120.963037 197.966231 
L 124.733604 198.915067 
L 128.053456 199.547329 
L 131.573171 200.016703 
L 135.369705 200.296336 
L 139.415539 200.338796 
L 143.333359 200.129114 
L 146.626221 199.760261 
L 150.386044 199.11968 
L 154.403542 198.168399 
L 158.102487 197.037611 
L 161.423314 195.802166 
L 165.077464 194.184882 
L 168.423881 192.446909 
L 171.596417 190.549757 
L 174.410146 188.641693 
L 177.478171 186.288921 
L 180.33866 183.801945 
L 182.959806 181.231943 
L 185.225803 178.744179 
L 187.849299 175.488045 
L 189.883994 172.616183 
L 191.915547 169.356488 
L 193.471789 166.511 
L 195.243956 162.757688 
L 196.61594 159.302416 
L 197.84148 155.560934 
L 198.785413 151.93827 
L 199.495058 148.355406 
L 200.011234 144.571289 
L 200.291553 140.831617 
L 200.353846 138.046154 
L 200.353846 138.046154 
" style="fill:none;stroke:#0000ff;stroke-linecap:square;"/>
   </g>
   <g id="line2d_2">
    <path clip-path="url(#p81be5aeef3)" d="M 138.046154 146.393802 
L 141.643042 144.471268 
L 145.076108 142.905727 
L 148.426155 141.611222 
L 152.054304 140.451646 
L 155.769865 139.510769 
L 159.659919 138.780838 
L 162.898545 138.36562 
L 166.591052 138.100799 
L 170.527013 138.060287 
L 174.166583 138.244414 
L 178.069478 138.680668 
L 181.749495 139.323045 
L 185.463919 140.206249 
L 189.206979 141.345632 
L 192.586523 142.601625 
L 196.040747 144.123758 
L 199.330618 145.815838 
L 202.628346 147.772536 
L 205.953401 150.040468 
L 208.79694 152.246354 
L 211.837323 154.919199 
L 214.0719 157.124677 
L 216.265996 159.524438 
L 218.852331 162.712187 
L 220.964978 165.674809 
L 222.756062 168.510531 
L 224.744088 172.120838 
L 226.311682 175.443922 
L 227.620784 178.691425 
L 228.764055 182.068008 
L 229.834182 186.01005 
L 230.539878 189.414563 
L 231.109352 193.3196 
L 231.422353 197.093896 
L 231.507692 200.353846 
L 231.507692 200.353846 
" style="fill:none;stroke:#228b22;stroke-linecap:square;"/>
   </g>
   <g id="line2d_3">
    <path clip-path="url(#p81be5aeef3)" d="M 200.353846 254.313891 
L 203.591462 252.310326 
L 206.565467 250.214355 
L 209.557341 247.825243 
L 212.301568 245.348327 
L 214.96671 242.634536 
L 217.400729 239.837239 
L 219.554367 237.051071 
L 221.617093 234.039108 
L 223.601389 230.730439 
L 225.33424 227.394476 
L 226.796523 224.121241 
L 228.072258 220.757419 
L 229.22161 217.076729 
L 230.110899 213.472953 
L 230.768187 209.924995 
L 231.230314 206.226556 
L 231.473509 202.417481 
L 231.507692 200.353846 
L 231.507692 200.353846 
" style="fill:none;stroke:#228b22;stroke-linecap:square;"/>
   </g>
   <g id="text_1">
    <!-- $\Omega$ -->
    <g transform="translate(16.011538 22.420913)scale(0.1 -0.1)">
     <defs>
      <path d="M 7.71875 0 
L 4.390625 16.609375 
L 7.328125 16.609375 
Q 7.859375 13.71875 8.296875 11.5 
Q 8.734375 9.28125 9.4375 8.375 
Q 10.15625 7.46875 11.71875 7.171875 
Q 13.28125 6.890625 16.890625 6.890625 
L 23 6.890625 
Q 21.53125 12.546875 15.6875 21.65625 
Q 9.859375 30.765625 7.734375 34.890625 
Q 5.609375 39.015625 5.609375 45.515625 
Q 5.609375 53.078125 10.09375 58.765625 
Q 14.59375 64.453125 21.703125 67.484375 
Q 28.8125 70.515625 36.078125 70.515625 
Q 43.3125 70.515625 50.40625 67.484375 
Q 57.515625 64.453125 62 58.71875 
Q 66.5 52.984375 66.5 45.515625 
Q 66.5 40.4375 64.640625 35.9375 
Q 62.796875 31.453125 59.90625 26.953125 
Q 57.03125 22.46875 53.6875 16.9375 
Q 50.34375 11.421875 49.125 6.890625 
L 55.171875 6.890625 
Q 58.84375 6.890625 60.453125 7.171875 
Q 62.0625 7.46875 62.734375 8.375 
Q 63.421875 9.28125 63.84375 11.5 
Q 64.265625 13.71875 64.796875 16.609375 
L 67.671875 16.609375 
L 64.40625 0 
L 46.6875 0 
Q 45.703125 0 45.703125 1.3125 
Q 45.703125 6.390625 46.9375 11.265625 
Q 48.1875 16.15625 50.625 23.09375 
Q 53.078125 30.03125 54.4375 35.328125 
Q 55.8125 40.625 55.8125 45.515625 
Q 55.8125 51.515625 53.46875 56.640625 
Q 51.125 61.765625 46.625 64.84375 
Q 42.140625 67.921875 36.078125 67.921875 
Q 26.953125 67.921875 21.625 61.40625 
Q 16.3125 54.890625 16.3125 45.515625 
Q 16.359375 40.375 17.53125 35.828125 
Q 18.703125 31.296875 21.3125 23.71875 
Q 23.921875 16.15625 25.171875 11.265625 
Q 26.421875 6.390625 26.421875 1.3125 
Q 26.421875 0 25.390625 0 
z
" id="Cmr10-173"/>
     </defs>
     <use transform="translate(0 0.484375)" xlink:href="#Cmr10-173"/>
    </g>
   </g>
   <g id="text_2">
    <!-- $A$ -->
    <g style="fill:#0000ff;" transform="translate(103.142308 78.497837)scale(0.1 -0.1)">
     <defs>
      <path d="M 4.5 0 
Q 3.515625 0 3.515625 1.3125 
Q 3.90625 3.515625 4.78125 3.515625 
Q 8.84375 3.515625 11.796875 5.125 
Q 14.75 6.734375 16.890625 10.109375 
Q 17.09375 10.296875 17.09375 10.296875 
L 52.78125 70.515625 
Q 53.5625 71.578125 54.6875 71.578125 
L 56 71.578125 
Q 56.296875 71.578125 56.59375 71.453125 
Q 56.890625 71.34375 57.109375 71.0625 
Q 57.328125 70.796875 57.328125 70.515625 
L 63.375 5.90625 
Q 63.375 5.46875 63.8125 4.59375 
Q 64.796875 3.515625 71.296875 3.515625 
Q 72.3125 3.515625 72.3125 2.203125 
Q 71.96875 0.875 71.75 0.4375 
Q 71.53125 0 70.609375 0 
L 45.609375 0 
Q 44.671875 0 44.671875 1.3125 
Q 45.21875 3.515625 46 3.515625 
Q 53.90625 3.515625 54.390625 6.203125 
L 52.875 22.703125 
L 28.21875 22.703125 
L 20.21875 9.28125 
Q 19.484375 8.203125 19.484375 6.78125 
Q 19.484375 5.03125 21.171875 4.265625 
Q 22.859375 3.515625 24.90625 3.515625 
Q 25.875 3.515625 25.875 2.203125 
Q 25.53125 0.78125 25.328125 0.390625 
Q 25.140625 0 24.21875 0 
z
M 30.171875 26.21875 
L 52.484375 26.21875 
L 49.515625 58.59375 
z
" id="Cmmi10-65"/>
     </defs>
     <use transform="translate(0 0.421875)" xlink:href="#Cmmi10-65"/>
    </g>
   </g>
   <g id="text_3">
    <!-- $B$ -->
    <g style="fill:#ff0000;" transform="translate(227.707692 78.497837)scale(0.1 -0.1)">
     <defs>
      <path d="M 4.984375 0 
Q 4 0 4 1.3125 
Q 4.046875 1.5625 4.1875 2.140625 
Q 4.34375 2.734375 4.578125 3.125 
Q 4.828125 3.515625 5.328125 3.515625 
Q 8.15625 3.515625 10.25 3.65625 
Q 12.359375 3.8125 13.8125 4.203125 
Q 14.984375 4.640625 15.71875 6.890625 
L 29.390625 61.8125 
Q 29.59375 62.796875 29.59375 63.1875 
Q 29.59375 64.265625 28.421875 64.40625 
Q 26.515625 64.796875 21.1875 64.796875 
Q 20.21875 64.796875 20.21875 66.109375 
Q 20.265625 66.359375 20.40625 66.96875 
Q 20.5625 67.578125 20.828125 67.9375 
Q 21.09375 68.3125 21.484375 68.3125 
L 57.328125 68.3125 
Q 60.59375 68.3125 63.796875 67.5 
Q 67 66.703125 69.703125 64.9375 
Q 72.40625 63.1875 74 60.5625 
Q 75.59375 57.953125 75.59375 54.5 
Q 75.59375 50.734375 73.65625 47.5 
Q 71.734375 44.28125 68.671875 41.890625 
Q 65.625 39.5 62.078125 37.953125 
Q 58.546875 36.421875 54.6875 35.6875 
Q 57.421875 35.6875 60.21875 34.609375 
Q 63.03125 33.546875 65.234375 31.6875 
Q 67.4375 29.828125 68.78125 27.234375 
Q 70.125 24.65625 70.125 21.6875 
Q 70.125 15.671875 65.921875 10.6875 
Q 61.71875 5.71875 55.34375 2.859375 
Q 48.96875 0 43.015625 0 
z
M 23.390625 4.296875 
Q 23.390625 3.515625 26.8125 3.515625 
L 41.109375 3.515625 
Q 46 3.515625 50.484375 6.21875 
Q 54.984375 8.9375 57.6875 13.421875 
Q 60.40625 17.921875 60.40625 22.796875 
Q 60.40625 25.78125 59.15625 28.4375 
Q 57.90625 31.109375 55.5625 32.640625 
Q 53.21875 34.1875 50.203125 34.1875 
L 30.71875 34.1875 
L 23.78125 6.5 
Q 23.390625 5.125 23.390625 4.296875 
z
M 31.390625 36.8125 
L 46.578125 36.8125 
Q 51.375 36.8125 55.890625 39.25 
Q 60.40625 41.703125 63.25 45.890625 
Q 66.109375 50.09375 66.109375 54.78125 
Q 66.109375 59.125 63.390625 61.953125 
Q 60.6875 64.796875 56.390625 64.796875 
L 42.671875 64.796875 
Q 39.984375 64.796875 39.0625 64.296875 
Q 38.140625 63.8125 37.5 61.375 
z
" id="Cmmi10-66"/>
     </defs>
     <use transform="translate(0 0.6875)" xlink:href="#Cmmi10-66"/>
    </g>
   </g>
   <g id="text_4">
    <!-- $C$ -->
    <g style="fill:#228b22;" transform="translate(150.023077 271.651683)scale(0.1 -0.1)">
     <defs>
      <path d="M 14.59375 21.578125 
Q 14.59375 15.578125 16.90625 11.015625 
Q 19.234375 6.453125 23.65625 3.875 
Q 28.078125 1.3125 34.078125 1.3125 
Q 40.375 1.3125 46.203125 4.53125 
Q 52.046875 7.765625 56.171875 13.15625 
Q 60.296875 18.5625 61.8125 24.609375 
Q 62.015625 25.203125 62.59375 25.203125 
L 63.8125 25.203125 
Q 64.203125 25.203125 64.453125 24.921875 
Q 64.703125 24.65625 64.703125 24.3125 
Q 64.703125 24.21875 64.59375 24.03125 
Q 62.890625 17.09375 57.984375 11.015625 
Q 53.078125 4.9375 46.234375 1.359375 
Q 39.40625 -2.203125 32.171875 -2.203125 
Q 24.359375 -2.203125 18.15625 1.3125 
Q 11.96875 4.828125 8.515625 11.078125 
Q 5.078125 17.328125 5.078125 25.203125 
Q 5.078125 33.59375 8.828125 41.8125 
Q 12.59375 50.046875 18.9375 56.46875 
Q 25.296875 62.890625 33.421875 66.703125 
Q 41.546875 70.515625 49.90625 70.515625 
Q 53.21875 70.515625 56.25 69.5 
Q 59.28125 68.5 61.859375 66.453125 
Q 64.453125 64.40625 66.109375 61.71875 
L 74.03125 70.3125 
Q 74.03125 70.515625 74.515625 70.515625 
L 75.09375 70.515625 
Q 75.484375 70.515625 75.734375 70.171875 
Q 75.984375 69.828125 75.984375 69.484375 
L 69.1875 42.484375 
Q 69.1875 41.796875 68.40625 41.796875 
L 66.609375 41.796875 
Q 65.828125 41.796875 65.828125 42.921875 
Q 66.21875 45.125 66.21875 48.1875 
Q 66.21875 53.078125 64.546875 57.390625 
Q 62.890625 61.71875 59.390625 64.359375 
Q 55.90625 67 50.875 67 
Q 42.71875 67 35.9375 62.890625 
Q 29.15625 58.796875 24.4375 52.125 
Q 19.734375 45.453125 17.15625 37.328125 
Q 14.59375 29.203125 14.59375 21.578125 
z
" id="Cmmi10-67"/>
     </defs>
     <use transform="translate(0 0.484375)" xlink:href="#Cmmi10-67"/>
    </g>
   </g>
   <g id="patch_6">
    <path clip-path="url(#p81be5aeef3)" d="M 138.046154 200.353846 
C 154.570347 200.353846 170.419977 193.788715 182.104346 182.104346 
C 193.788715 170.419977 200.353846 154.570347 200.353846 138.046154 
C 200.353846 121.521961 193.788715 105.672331 182.104346 93.987962 
C 170.419977 82.303593 154.570347 75.738462 138.046154 75.738462 
C 121.521961 75.738462 105.672331 82.303593 93.987962 93.987962 
C 82.303593 105.672331 75.738462 121.521961 75.738462 138.046154 
C 75.738462 154.570347 82.303593 170.419977 93.987962 182.104346 
C 105.672331 193.788715 121.521961 200.353846 138.046154 200.353846 
z
" style="fill:none;stroke:#0000ff;stroke-linejoin:miter;"/>
   </g>
   <g id="patch_7">
    <path clip-path="url(#p81be5aeef3)" d="M 200.353846 200.353846 
C 216.878039 200.353846 232.727669 193.788715 244.412038 182.104346 
C 256.096407 170.419977 262.661538 154.570347 262.661538 138.046154 
C 262.661538 121.521961 256.096407 105.672331 244.412038 93.987962 
C 232.727669 82.303593 216.878039 75.738462 200.353846 75.738462 
C 183.829653 75.738462 167.980023 82.303593 156.295654 93.987962 
C 144.611285 105.672331 138.046154 121.521961 138.046154 138.046154 
C 138.046154 154.570347 144.611285 170.419977 156.295654 182.104346 
C 167.980023 193.788715 183.829653 200.353846 200.353846 200.353846 
z
" style="fill:none;stroke:#ff0000;stroke-linejoin:miter;"/>
   </g>
   <g id="patch_8">
    <path clip-path="url(#p81be5aeef3)" d="M 169.2 262.661538 
C 185.724193 262.661538 201.573823 256.096407 213.258192 244.412038 
C 224.942561 232.727669 231.507692 216.878039 231.507692 200.353846 
C 231.507692 183.829653 224.942561 167.980023 213.258192 156.295654 
C 201.573823 144.611285 185.724193 138.046154 169.2 138.046154 
C 152.675807 138.046154 136.826177 144.611285 125.141808 156.295654 
C 113.457439 167.980023 106.892308 183.829653 106.892308 200.353846 
C 106.892308 216.878039 113.457439 232.727669 125.141808 244.412038 
C 136.826177 256.096407 152.675807 262.661538 169.2 262.661538 
z
" style="fill:none;stroke:#228b22;stroke-linejoin:miter;"/>
   </g>
  </g>
 </g>
 <defs>
  <clipPath id="p81be5aeef3">
   <rect height="324" width="324" x="7.2" y="7.2"/>
  </clipPath>
 </defs>
</svg>
