<?xml version="1.0" encoding="utf-8" standalone="no"?>
<!DOCTYPE svg PUBLIC "-//W3C//DTD SVG 1.1//EN"
  "http://www.w3.org/Graphics/SVG/1.1/DTD/svg11.dtd">
<!-- Created with matplotlib (https://matplotlib.org/) -->
<svg height="338.4pt" version="1.1" viewBox="0 0 338.4 338.4" width="338.4pt" xmlns="http://www.w3.org/2000/svg" xmlns:xlink="http://www.w3.org/1999/xlink">
 <metadata>
  <rdf:RDF xmlns:cc="http://creativecommons.org/ns#" xmlns:dc="http://purl.org/dc/elements/1.1/" xmlns:rdf="http://www.w3.org/1999/02/22-rdf-syntax-ns#">
   <cc:Work>
    <dc:type rdf:resource="http://purl.org/dc/dcmitype/StillImage"/>
    <dc:date>2024-08-28T16:16:15.607306</dc:date>
    <dc:format>image/svg+xml</dc:format>
    <dc:creator>
     <cc:Agent>
      <dc:title>Matplotlib v3.3.4, https://matplotlib.org/</dc:title>
     </cc:Agent>
    </dc:creator>
   </cc:Work>
  </rdf:RDF>
 </metadata>
 <defs>
  <style type="text/css">*{stroke-linecap:butt;stroke-linejoin:round;}</style>
 </defs>
 <g id="figure_1">
  <g id="patch_1">
   <path d="M -0 338.4 
L 338.4 338.4 
L 338.4 0 
L -0 0 
z
" style="fill:#ffffff;"/>
  </g>
  <g id="axes_1">
   <g id="patch_2">
    <path d="M 7.2 331.2 
L 331.2 331.2 
L 331.2 7.2 
L 7.2 7.2 
z
" style="fill:#ffffff;"/>
   </g>
   <g id="patch_3">
    <path clip-path="url(#pd7b1ea804c)" d="M 13.430769 324.969231 
L 13.430769 13.430769 
L 324.969231 13.430769 
L 324.969231 324.969231 
z
" style="fill:none;stroke:#000000;stroke-linejoin:miter;"/>
   </g>
   <g id="patch_4">
    <path clip-path="url(#pd7b1ea804c)" d="M 200.353846 138.046154 
L 200.348004 138.899382 
L 200.342162 139.252772 
L 200.336319 139.523919 
L 200.330477 139.75249 
L 200.324635 139.953851 
L 200.318793 140.135882 
L 200.312951 140.303265 
L 200.307108 140.459051 
L 200.301266 140.605358 
L 200.295424 140.743728 
L 200.289582 140.875327 
L 200.283739 141.00106 
L 200.277897 141.121645 
L 200.272055 141.237667 
L 200.266213 141.349607 
L 200.26037 141.457865 
L 200.248686 141.664651 
L 200.237002 141.860205 
L 200.225317 142.046177 
L 200.213633 142.223846 
L 200.201948 142.394229 
L 200.190264 142.558153 
L 200.178579 142.716298 
L 200.166895 142.869231 
L 200.156042 143.007027 
L 200.14519 143.141074 
L 200.134338 143.271661 
L 200.123486 143.399041 
L 200.101781 143.645052 
L 200.080076 143.880618 
L 200.063638 144.052834 
L 200.047199 144.220205 
L 200.03076 144.383115 
L 200.014322 144.541898 
L 199.997883 144.696851 
L 199.981444 144.848236 
L 199.948567 145.141207 
L 199.921187 145.376143 
L 199.893808 145.60368 
L 199.866428 145.824468 
L 199.839049 146.039065 
L 199.811669 146.247958 
L 199.78429 146.451572 
L 199.756911 146.650282 
L 199.729531 146.84442 
L 199.683983 147.158046 
L 199.638434 147.461009 
L 199.592886 147.754309 
L 199.547338 148.038797 
L 199.508332 148.27597 
L 199.469327 148.507622 
L 199.430322 148.734112 
L 199.391317 148.955761 
L 199.353591 149.165808 
L 199.315865 149.371834 
L 199.253722 149.703002 
L 199.191579 150.024696 
L 199.129436 150.337659 
L 199.067294 150.642543 
L 198.986114 151.029598 
L 198.904934 151.40495 
L 198.850295 151.651482 
L 198.795656 151.89341 
L 198.746311 152.10814 
L 198.696966 152.319469 
L 198.598276 152.73251 
L 198.537226 152.981973 
L 198.476177 153.227091 
L 198.387469 153.575937 
L 198.323423 153.822698 
L 198.259377 154.065402 
L 198.19533 154.304231 
L 198.131284 154.539354 
L 198.064487 154.780796 
L 197.997689 155.01854 
L 197.91181 155.319014 
L 197.812981 155.657936 
L 197.714152 155.989913 
L 197.627474 156.275657 
L 197.540796 156.556585 
L 197.431099 156.905548 
L 197.321403 157.247543 
L 197.296445 157.324419 
L 197.143022 157.789728 
L 196.989598 158.243156 
L 196.935777 158.399551 
L 196.831042 158.7001 
L 196.726306 158.995814 
L 196.623131 159.282591 
L 196.519956 159.565052 
L 196.429501 159.809272 
L 196.249757 160.285514 
L 196.130166 160.596011 
L 196.033314 160.843913 
L 195.89726 161.186985 
L 195.761206 161.524256 
L 195.610692 161.890912 
L 195.539814 162.061306 
L 195.342188 162.529065 
L 195.255259 162.73151 
L 195.077722 163.138957 
L 194.957023 163.411515 
L 194.836324 163.680606 
L 194.696302 163.988576 
L 194.485281 164.444514 
L 194.374431 164.680224 
L 194.172493 165.103178 
L 194.065551 165.323904 
L 193.931148 165.598213 
L 193.853682 165.754786 
L 193.637092 166.186804 
L 193.395535 166.658993 
L 193.24246 166.953182 
L 193.121907 167.182213 
L 192.957186 167.491477 
L 192.818561 167.748543 
L 192.624629 168.103409 
L 192.462172 168.396533 
L 192.296533 168.691626 
L 192.152833 168.944629 
L 192.015284 169.184257 
L 191.906971 169.371238 
L 191.714005 169.7007 
L 191.615619 169.866917 
L 191.437644 170.164643 
L 191.296337 170.39838 
L 191.19487 170.564802 
L 191.002529 170.877097 
L 190.748161 171.283887 
L 190.665295 171.414919 
L 190.46556 171.727817 
L 190.379194 171.861853 
L 190.227978 172.094733 
L 190.001184 172.439807 
L 189.892373 172.603615 
L 189.689903 172.905466 
L 189.604431 173.031759 
L 189.4639 173.23797 
L 189.257634 173.53746 
L 189.078557 173.794473 
L 188.900778 174.046928 
L 188.80043 174.188262 
L 188.625762 174.432302 
L 188.503963 174.601017 
L 188.310565 174.866495 
L 188.106055 175.144062 
L 187.945522 175.359711 
L 187.84379 175.495373 
L 187.599676 175.817796 
L 187.503547 175.943578 
L 187.331666 176.166841 
L 187.176238 176.366949 
L 186.974807 176.623809 
L 186.855597 176.774526 
L 186.658695 177.021394 
L 186.650499 177.031614 
L 186.386461 177.358534 
L 186.299052 177.465772 
L 186.124833 177.678074 
L 186.008667 177.81858 
L 185.785029 178.086737 
L 185.623345 178.27872 
L 185.542808 178.373766 
L 185.345489 178.605018 
L 185.220511 178.750313 
L 185.060794 178.934687 
L 184.929715 179.084919 
L 184.635998 179.418064 
L 184.514478 179.554507 
L 184.41689 179.663498 
L 184.202816 179.900795 
L 184.132755 179.977929 
L 183.953234 180.174393 
L 183.829108 180.309254 
L 183.607391 180.548179 
L 183.480321 180.683989 
L 183.249074 180.929071 
L 183.113657 181.071364 
L 182.921689 181.271549 
L 182.771737 181.426687 
L 182.609546 181.593285 
L 182.463026 181.742721 
L 182.307799 181.899949 
L 182.137688 182.070978 
L 181.976793 182.23153 
L 181.893787 182.313903 
L 181.790852 182.415624 
L 181.623832 182.579675 
L 181.358988 182.837302 
L 181.265356 182.927655 
L 181.120192 183.066991 
L 180.864661 183.310091 
L 180.856443 183.317863 
L 180.610993 183.548714 
L 180.509382 183.643553 
L 180.333712 183.806518 
L 180.202649 183.927288 
L 179.939573 184.167624 
L 179.901986 184.201737 
L 179.68746 184.395374 
L 179.507548 184.556382 
L 179.448602 184.608862 
L 179.159861 184.86401 
L 179.113106 184.905027 
L 178.833793 185.148351 
L 178.690926 185.271688 
L 178.535772 185.404779 
L 178.380736 185.53689 
L 178.352955 185.56047 
L 178.145906 185.735339 
L 178.042578 185.822033 
L 177.794901 186.028292 
L 177.68043 186.122891 
L 177.550123 186.23002 
L 177.277963 186.451873 
L 177.223394 186.496049 
L 177.082768 186.609424 
L 176.901107 186.754891 
L 176.703007 186.912259 
L 176.577167 187.011545 
L 176.417043 187.137124 
L 176.228184 187.284158 
L 176.035631 187.432874 
L 175.905158 187.532963 
L 175.723815 187.671171 
L 175.609527 187.757737 
L 175.531826 187.816355 
L 175.246805 188.029752 
L 175.088779 188.146977 
L 174.947564 188.251079 
L 174.853682 188.319948 
L 174.653549 188.465864 
L 174.564657 188.530285 
L 174.368729 188.671435 
L 174.17467 188.810106 
L 174.037269 188.907614 
L 173.848183 189.040891 
L 173.767447 189.097478 
L 173.53 189.262803 
L 173.438784 189.325879 
L 173.297775 189.422916 
L 173.113367 189.548961 
L 172.965296 189.649468 
L 172.841712 189.73288 
L 172.57364 189.91234 
L 172.412087 190.019523 
L 172.311378 190.085974 
L 172.19933 190.159579 
L 172.010865 190.282606 
L 171.806963 190.41462 
L 171.657222 190.510852 
L 171.508339 190.605936 
L 171.434984 190.652565 
L 171.284459 190.747801 
L 171.032323 190.905979 
L 170.853605 191.017086 
L 170.83805 191.026717 
L 170.531464 191.215253 
L 170.40856 191.29015 
L 170.261931 191.378997 
L 170.190139 191.422298 
L 169.972214 191.552931 
L 169.754444 191.682269 
L 169.592371 191.777753 
L 169.445615 191.863645 
L 169.330025 191.930919 
L 169.2 192.006198 
L 169.2 192.006198 
L 169.377838 192.108483 
L 169.520555 192.190005 
L 169.734167 192.311094 
L 169.781196 192.337604 
L 170.059472 192.493371 
L 170.070066 192.499264 
L 170.230641 192.588257 
L 170.433387 192.699741 
L 170.582386 192.781048 
L 170.822045 192.910726 
L 170.971543 192.990933 
L 171.070612 193.043797 
L 171.195542 193.110133 
L 171.370523 193.202436 
L 171.612706 193.329021 
L 171.629692 193.337848 
L 171.933757 193.494752 
L 171.947189 193.501635 
L 172.172362 193.616402 
L 172.276963 193.669325 
L 172.426789 193.744699 
L 172.644219 193.853188 
L 172.809885 193.935139 
L 172.979338 194.018333 
L 173.048696 194.052201 
L 173.320375 194.183841 
L 173.385052 194.214941 
L 173.525072 194.281955 
L 173.743402 194.385596 
L 173.847499 194.434646 
L 174.028866 194.519545 
L 174.269201 194.630956 
L 174.378472 194.6812 
L 174.495881 194.734902 
L 174.652367 194.806021 
L 174.895483 194.91548 
L 174.956407 194.942714 
L 175.077603 194.996659 
L 175.307764 195.098256 
L 175.423433 195.148895 
L 175.691055 195.26499 
L 175.708833 195.27265 
L 175.860406 195.337688 
L 176.118354 195.447281 
L 176.171467 195.469677 
L 176.448978 195.585756 
L 176.571105 195.636342 
L 176.772697 195.71918 
L 176.937674 195.78636 
L 176.977728 195.802587 
L 177.106504 195.854541 
L 177.351896 195.95262 
L 177.455326 195.993598 
L 177.686714 196.0845 
L 177.798142 196.127896 
L 177.951485 196.187213 
L 178.194829 196.280392 
L 178.209874 196.286114 
L 178.38161 196.351122 
L 178.573173 196.422954 
L 178.73722 196.483899 
L 178.869629 196.532707 
L 178.995158 196.578666 
L 179.280666 196.682061 
L 179.41753 196.731068 
L 179.60999 196.799375 
L 179.75994 196.852102 
L 179.844714 196.881721 
L 180.054438 196.954409 
L 180.194575 197.002513 
L 180.335477 197.050505 
L 180.420685 197.079345 
L 180.552355 197.123641 
L 180.798535 197.205585 
L 180.977018 197.264285 
L 181.146676 197.31953 
L 181.253472 197.35403 
L 181.370941 197.391734 
L 181.597339 197.463676 
L 181.776092 197.519808 
L 181.936297 197.569615 
L 181.99027 197.586288 
L 182.234858 197.661175 
L 182.352815 197.696899 
L 182.444755 197.724567 
L 182.699299 197.800363 
L 182.895865 197.858088 
L 182.907523 197.861489 
L 183.098095 197.916744 
L 183.252724 197.961095 
L 183.439298 198.014033 
L 183.678466 198.080979 
L 183.834242 198.12403 
L 183.992657 198.167365 
L 184.0962 198.195447 
L 184.19228 198.221334 
L 184.43232 198.28529 
L 184.571029 198.321781 
L 184.657432 198.344339 
L 184.898167 198.406493 
L 185.012318 198.435607 
L 185.203663 198.483894 
L 185.317439 198.512301 
L 185.452989 198.545848 
L 185.579026 198.576751 
L 185.840151 198.639893 
L 185.875014 198.648233 
L 186.154633 198.714357 
L 186.290593 198.746017 
L 186.445484 198.781695 
L 186.588516 198.814272 
L 186.722551 198.844479 
L 186.919883 198.888386 
L 186.975246 198.900583 
L 187.195474 198.948582 
L 187.289592 198.968841 
L 187.462767 199.005719 
L 187.607497 199.036146 
L 187.904323 199.097426 
L 188.005425 199.117956 
L 188.134271 199.143867 
L 188.357017 199.187994 
L 188.493134 199.214545 
L 188.551846 199.2259 
L 188.767351 199.267079 
L 188.98712 199.308263 
L 189.155697 199.339302 
L 189.16083 199.340239 
L 189.364987 199.37717 
L 189.521613 199.405026 
L 189.666869 199.430493 
L 189.834909 199.459511 
L 189.964632 199.481589 
L 190.142812 199.511456 
L 190.295886 199.536689 
L 190.479417 199.566428 
L 190.607967 199.586924 
L 190.774193 199.613018 
L 191.022637 199.651162 
L 191.085448 199.660643 
L 191.239683 199.683647 
L 191.414473 199.709239 
L 191.652695 199.743305 
L 191.754523 199.75758 
L 191.844076 199.769993 
L 192.055913 199.798828 
L 192.207944 199.819067 
L 192.368694 199.840052 
L 192.549604 199.863161 
L 192.678669 199.879318 
L 192.883444 199.904392 
L 193.020146 199.920748 
L 193.140499 199.934894 
L 193.270098 199.949862 
L 193.415527 199.96633 
L 193.625472 199.989495 
L 193.765705 200.004567 
L 194.011324 200.030192 
L 194.068289 200.035994 
L 194.20317 200.049522 
L 194.382716 200.067071 
L 194.512227 200.079403 
L 194.680238 200.094995 
L 194.913098 200.115847 
L 195.026274 200.125663 
L 195.114498 200.133171 
L 195.281592 200.147046 
L 195.545018 200.167999 
L 195.722113 200.181454 
L 195.874886 200.192654 
L 195.98024 200.200157 
L 196.196386 200.214989 
L 196.217245 200.21638 
L 196.471952 200.232804 
L 196.522069 200.235912 
L 196.761524 200.250203 
L 196.932926 200.259865 
L 197.065579 200.267017 
L 197.17919 200.272917 
L 197.376601 200.282675 
L 197.553832 200.2909 
L 197.71345 200.297875 
L 197.825028 200.302508 
L 197.973198 200.30835 
L 198.1097 200.313419 
L 198.274722 200.319148 
L 198.50978 200.326552 
L 198.583484 200.32869 
L 198.847631 200.335638 
L 198.908312 200.337076 
L 199.128512 200.341796 
L 199.303799 200.344998 
L 199.396723 200.346494 
L 199.516808 200.348224 
L 199.69773 200.350392 
L 199.958224 200.35259 
L 200.029513 200.353002 
L 200.255104 200.353768 
L 200.353846 200.353846 
z
" style="fill:#808080;opacity:0.5;"/>
   </g>
   <g id="patch_5">
    <path clip-path="url(#pd7b1ea804c)" d="M 231.507692 200.353846 
L 231.503587 199.63864 
L 231.499482 199.342409 
L 231.495378 199.115114 
L 231.491273 198.923505 
L 231.487168 198.754702 
L 231.483063 198.602101 
L 231.478958 198.461776 
L 231.474853 198.331171 
L 231.470748 198.208511 
L 231.466643 198.092501 
L 231.462538 197.982167 
L 231.458433 197.876749 
L 231.454328 197.775644 
L 231.450223 197.678363 
L 231.442014 197.493729 
L 231.433804 197.320334 
L 231.425594 197.156349 
L 231.417384 197.000393 
L 231.409174 196.851394 
L 231.400964 196.708498 
L 231.392754 196.571015 
L 231.384545 196.438373 
L 231.376335 196.310096 
L 231.361706 196.091125 
L 231.347078 195.882914 
L 231.332449 195.684022 
L 231.317821 195.493306 
L 231.303192 195.309839 
L 231.288564 195.132855 
L 231.273935 194.961717 
L 231.259307 194.795885 
L 231.244679 194.634897 
L 231.23005 194.478354 
L 231.215422 194.325911 
L 231.200793 194.177264 
L 231.186165 194.032145 
L 231.171536 193.890316 
L 231.142279 193.615704 
L 231.122909 193.439956 
L 231.103539 193.26862 
L 231.084168 193.101382 
L 231.064798 192.937964 
L 231.036219 192.703319 
L 231.00764 192.475762 
L 230.97906 192.254697 
L 230.950481 192.039606 
L 230.925655 191.857255 
L 230.900828 191.678807 
L 230.876002 191.504027 
L 230.851175 191.3327 
L 230.801523 190.999653 
L 230.75187 190.678317 
L 230.720156 190.47868 
L 230.688443 190.283099 
L 230.656729 190.091343 
L 230.625016 189.903201 
L 230.593302 189.718481 
L 230.561589 189.537009 
L 230.498161 189.183174 
L 230.451792 188.931655 
L 230.405423 188.685742 
L 230.345285 188.374585 
L 230.285146 188.071603 
L 230.225429 187.778252 
L 230.165712 187.491868 
L 230.105995 187.211993 
L 230.046278 186.938222 
L 229.970979 186.601149 
L 229.895679 186.272544 
L 229.8329 186.004632 
L 229.770121 185.741901 
L 229.705285 185.475708 
L 229.640449 185.214472 
L 229.584647 184.993412 
L 229.528845 184.775688 
L 229.417241 184.349707 
L 229.303951 183.929365 
L 229.215042 183.607407 
L 229.126133 183.291987 
L 229.059812 183.060744 
L 228.993492 182.832805 
L 228.887604 182.47541 
L 228.781716 182.125635 
L 228.688282 181.822985 
L 228.569336 181.44537 
L 228.466109 181.124265 
L 228.362883 180.80898 
L 228.268247 180.524808 
L 228.17361 180.245096 
L 228.040271 179.858211 
L 227.960698 179.63118 
L 227.811731 179.213518 
L 227.695805 178.894831 
L 227.579878 178.581425 
L 227.432563 178.190427 
L 227.353594 177.984045 
L 227.211546 177.618212 
L 227.069497 177.259046 
L 226.913614 176.87221 
L 226.748582 176.470604 
L 226.679916 176.305815 
L 226.545206 175.986329 
L 226.425522 175.706572 
L 226.305838 175.430529 
L 226.238661 175.277171 
L 226.102496 174.969708 
L 225.959253 174.651011 
L 225.81601 174.337006 
L 225.71807 174.124926 
L 225.586576 173.843422 
L 225.458832 173.573399 
L 225.278649 173.198117 
L 225.145145 172.924131 
L 224.932848 172.495307 
L 224.745596 172.123804 
L 224.668213 171.972059 
L 224.419621 171.49138 
L 224.252617 171.174096 
L 224.147257 170.976177 
L 224.040832 170.777984 
L 223.895417 170.509922 
L 223.753635 170.251531 
L 223.486768 169.772883 
L 223.346379 169.524993 
L 223.274977 169.399923 
L 223.131015 169.149773 
L 222.958841 168.854075 
L 222.814962 168.609801 
L 222.618245 168.279875 
L 222.41027 167.936016 
L 222.20849 167.607114 
L 222.141955 167.499655 
L 222.031691 167.322634 
L 221.782151 166.926822 
L 221.68154 166.76908 
L 221.464461 166.432251 
L 221.374297 166.293734 
L 221.181235 165.999811 
L 221.018892 165.755422 
L 220.920905 165.609112 
L 220.778351 165.397842 
L 220.616842 165.160709 
L 220.321636 164.733251 
L 220.290943 164.689241 
L 220.063125 164.365083 
L 219.85111 164.067298 
L 219.831905 164.040506 
L 219.650046 163.78827 
L 219.378377 163.416345 
L 219.280961 163.284373 
L 219.138276 163.092377 
L 219.019232 162.933362 
L 218.82216 162.672422 
L 218.601625 162.383753 
L 218.487004 162.235087 
L 218.293771 161.98654 
L 218.22273 161.89581 
L 218.027596 161.648364 
L 217.818369 161.385876 
L 217.759649 161.312726 
L 217.542129 161.043706 
L 217.377021 160.841529 
L 217.20792 160.636241 
L 217.152585 160.569451 
L 216.973852 160.355001 
L 216.81894 160.170702 
L 216.594004 159.905646 
L 216.461983 159.751464 
L 216.351902 159.623678 
L 216.156818 159.398923 
L 215.951191 159.164349 
L 215.816212 159.011649 
L 215.728845 158.913346 
L 215.544469 158.707254 
L 215.447035 158.599083 
L 215.150622 158.273104 
L 215.012523 158.1228 
L 214.915746 158.018056 
L 214.833151 157.929041 
L 214.534005 157.60953 
L 214.495841 157.569091 
L 214.282413 157.344259 
L 214.168823 157.225509 
L 213.912373 156.959696 
L 213.773698 156.817264 
L 213.623772 156.664293 
L 213.457959 156.496332 
L 213.339625 156.377238 
L 213.210142 156.247657 
L 212.966635 156.006014 
L 212.942749 155.982455 
L 212.658429 155.703947 
L 212.632535 155.678759 
L 212.42938 155.482149 
L 212.248586 155.308672 
L 212.032726 155.103365 
L 211.882057 154.96122 
L 211.727866 154.816728 
L 211.618157 154.714516 
L 211.486532 154.592533 
L 211.313207 154.432976 
L 211.120972 154.257419 
L 211.029415 154.174321 
L 210.827961 153.992641 
L 210.612348 153.799942 
L 210.500389 153.700589 
L 210.336038 153.55561 
L 210.139067 153.383203 
L 210.115021 153.362256 
L 209.931377 153.202988 
L 209.724741 153.025272 
L 209.517012 152.848193 
L 209.436619 152.780083 
L 209.21306 152.591899 
L 209.067851 152.470624 
L 208.936282 152.361384 
L 208.85949 152.297906 
L 208.639636 152.117307 
L 208.450367 151.963174 
L 208.309857 151.849541 
L 208.129522 151.704685 
L 207.953187 151.564103 
L 207.909417 151.529369 
L 207.673927 151.343588 
L 207.531425 151.232055 
L 207.333339 151.078122 
L 207.220802 150.991237 
L 207.013106 150.831957 
L 206.903056 150.74812 
L 206.799813 150.669819 
L 206.572704 150.498761 
L 206.496881 150.442012 
L 206.297737 150.293818 
L 206.142468 150.179126 
L 205.975236 150.056425 
L 205.834855 149.954085 
L 205.657952 149.82597 
L 205.548844 149.747423 
L 205.322422 149.585558 
L 205.222472 149.51459 
L 205.090296 149.421193 
L 204.866886 149.264495 
L 204.6704 149.127884 
L 204.527817 149.029448 
L 204.359762 148.914176 
L 204.20319 148.807506 
L 204.092647 148.732613 
L 203.986271 148.660869 
L 203.763537 148.511678 
L 203.635509 148.426548 
L 203.508797 148.342742 
L 203.380181 148.258129 
L 203.235836 148.163709 
L 203.014554 148.020067 
L 202.877092 147.931504 
L 202.702756 147.819916 
L 202.48964 147.684611 
L 202.440365 147.653499 
L 202.26155 147.541135 
L 202.142377 147.466718 
L 201.948758 147.346607 
L 201.724841 147.20892 
L 201.670671 147.175805 
L 201.458573 147.046877 
L 201.223567 146.905369 
L 201.101956 146.832694 
L 200.916097 146.722347 
L 200.808839 146.659062 
L 200.622736 146.549942 
L 200.480439 146.467089 
L 200.353846 146.393802 
L 200.353846 200.353846 
L 200.540446 200.353567 
L 200.700443 200.352882 
L 200.826207 200.352056 
L 200.952211 200.350973 
L 201.20201 200.348073 
L 201.328457 200.346223 
L 201.520358 200.342926 
L 201.533168 200.342684 
L 201.736402 200.338505 
L 201.884226 200.335049 
L 202.123662 200.328706 
L 202.172542 200.327298 
L 202.362473 200.321461 
L 202.496472 200.316995 
L 202.634081 200.312108 
L 202.826256 200.304773 
L 202.973847 200.298737 
L 203.209181 200.288387 
L 203.263876 200.285854 
L 203.479426 200.275402 
L 203.589578 200.269771 
L 203.820441 200.257336 
L 203.925598 200.251388 
L 204.148595 200.238182 
L 204.227496 200.233318 
L 204.363223 200.224715 
L 204.635508 200.206558 
L 204.684435 200.203169 
L 204.891761 200.188377 
L 204.979662 200.181895 
L 205.188288 200.166011 
L 205.38031 200.150769 
L 205.487709 200.141983 
L 205.600731 200.132535 
L 205.800514 200.115328 
L 205.95869 200.101244 
L 206.219267 200.077157 
L 206.244027 200.074811 
L 206.423344 200.057522 
L 206.659936 200.033909 
L 206.832619 200.016098 
L 206.936334 200.005168 
L 207.065342 199.991326 
L 207.235258 199.97268 
L 207.409183 199.953106 
L 207.527539 199.939503 
L 207.642276 199.926097 
L 207.803786 199.90686 
L 207.960757 199.887753 
L 208.222541 199.854989 
L 208.32241 199.842193 
L 208.452934 199.825222 
L 208.726429 199.788752 
L 208.792519 199.779753 
L 208.903052 199.764543 
L 209.088985 199.738502 
L 209.3281 199.704173 
L 209.408367 199.692437 
L 209.520845 199.675811 
L 209.705799 199.648017 
L 209.961945 199.608585 
L 210.095546 199.587585 
L 210.286544 199.557047 
L 210.329676 199.550067 
L 210.566378 199.511207 
L 210.714121 199.486476 
L 210.862106 199.461339 
L 210.993762 199.438667 
L 211.170229 199.407822 
L 211.238012 199.395836 
L 211.512603 199.346485 
L 211.569093 199.336175 
L 211.745474 199.303638 
L 211.867755 199.280772 
L 212.03924 199.248279 
L 212.249699 199.20772 
L 212.453777 199.167674 
L 212.593447 199.139858 
L 212.778047 199.102585 
L 212.881318 199.08148 
L 212.974077 199.062367 
L 213.186507 199.018044 
L 213.276733 198.998984 
L 213.568896 198.936309 
L 213.601289 198.92927 
L 213.81284 198.882853 
L 214.015296 198.83771 
L 214.092442 198.820322 
L 214.217179 198.791989 
L 214.393074 198.751579 
L 214.576138 198.708951 
L 214.8342 198.647869 
L 214.984263 198.611816 
L 214.993277 198.609638 
L 215.23507 198.55068 
L 215.384999 198.513608 
L 215.526615 198.478228 
L 215.747266 198.4224 
L 215.88907 198.386069 
L 215.948425 198.370756 
L 216.178802 198.310731 
L 216.309828 198.276173 
L 216.51533 198.221356 
L 216.599756 198.198618 
L 216.771886 198.151865 
L 216.919229 198.111424 
L 217.031534 198.080338 
L 217.329919 197.996646 
L 217.421878 197.97053 
L 217.635673 197.909222 
L 217.68883 197.893851 
L 217.82039 197.855588 
L 218.073972 197.780948 
L 218.271328 197.722048 
L 218.309405 197.710603 
L 218.491895 197.655379 
L 218.632213 197.612502 
L 218.796871 197.561726 
L 219.009821 197.495318 
L 219.111765 197.463231 
L 219.329148 197.394165 
L 219.439141 197.358885 
L 219.598503 197.30737 
L 219.745171 197.259539 
L 219.950791 197.191807 
L 220.120489 197.13531 
L 220.271377 197.08462 
L 220.346054 197.059374 
L 220.595979 196.974115 
L 220.631775 196.961806 
L 220.908603 196.865798 
L 221.065198 196.810841 
L 221.145904 196.782334 
L 221.340687 196.713019 
L 221.538593 196.641845 
L 221.69762 196.584106 
L 221.724504 196.574297 
L 221.946734 196.492674 
L 222.105783 196.433668 
L 222.220671 196.390738 
L 222.444824 196.306236 
L 222.565889 196.260187 
L 222.687916 196.21348 
L 222.919787 196.123919 
L 223.113125 196.048428 
L 223.276151 195.984194 
L 223.350414 195.954758 
L 223.508182 195.891856 
L 223.641524 195.838304 
L 223.902866 195.732306 
L 223.952954 195.711834 
L 224.160354 195.626521 
L 224.272536 195.580012 
L 224.47791 195.4942 
L 224.558579 195.460258 
L 224.779728 195.366524 
L 224.914474 195.308917 
L 225.064952 195.244141 
L 225.29207 195.145484 
L 225.469648 195.067597 
L 225.489502 195.058848 
L 225.791073 194.924937 
L 225.872985 194.888234 
L 226.071439 194.798722 
L 226.215353 194.733286 
L 226.288838 194.699704 
L 226.489537 194.607397 
L 226.586108 194.562673 
L 226.777889 194.473262 
L 226.93659 194.398671 
L 227.151201 194.296934 
L 227.28991 194.230644 
L 227.360976 194.196519 
L 227.617109 194.072603 
L 227.731199 194.016942 
L 227.904029 193.932073 
L 228.090723 193.83965 
L 228.163286 193.803517 
L 228.34783 193.711092 
L 228.472468 193.648237 
L 228.620848 193.572951 
L 228.856784 193.45221 
L 229.079766 193.336931 
L 229.144403 193.303301 
L 229.380982 193.179391 
L 229.482916 193.125604 
L 229.554607 193.08763 
L 229.731081 192.993643 
L 229.925394 192.889313 
L 230.100528 192.794518 
L 230.28185 192.695611 
L 230.384295 192.639383 
L 230.534796 192.556325 
L 230.783728 192.417753 
L 230.814122 192.400732 
L 231.040967 192.272984 
L 231.12006 192.228149 
L 231.398132 192.069305 
L 231.507692 192.006198 
z
" style="fill:#808080;opacity:0.5;"/>
   </g>
   <g id="matplotlib.axis_1"/>
   <g id="matplotlib.axis_2"/>
   <g id="line2d_1">
    <path clip-path="url(#pd7b1ea804c)" d="M 169.2 192.006198 
L 172.426789 193.744699 
L 175.860406 195.337688 
L 179.41753 196.731068 
L 182.907523 197.861489 
L 186.588516 198.814272 
L 190.295886 199.536689 
L 194.068289 200.035994 
L 197.825028 200.302508 
L 200.353846 200.353846 
L 200.353846 200.353846 
" style="fill:none;stroke:#0000ff;stroke-linecap:square;"/>
   </g>
   <g id="line2d_2">
    <path clip-path="url(#pd7b1ea804c)" d="M 200.353846 200.353846 
L 204.148595 200.238182 
L 207.803786 199.90686 
L 211.512603 199.346485 
L 214.993277 198.609638 
L 218.632213 197.612502 
L 222.220671 196.390738 
L 225.489502 195.058848 
L 228.856784 193.45221 
L 231.507692 192.006198 
L 231.507692 192.006198 
" style="fill:none;stroke:#0000ff;stroke-linecap:square;"/>
   </g>
   <g id="text_1">
    <!-- $\Omega$ -->
    <g transform="translate(16.011538 22.420913)scale(0.1 -0.1)">
     <defs>
      <path d="M 7.71875 0 
L 4.390625 16.609375 
L 7.328125 16.609375 
Q 7.859375 13.71875 8.296875 11.5 
Q 8.734375 9.28125 9.4375 8.375 
Q 10.15625 7.46875 11.71875 7.171875 
Q 13.28125 6.890625 16.890625 6.890625 
L 23 6.890625 
Q 21.53125 12.546875 15.6875 21.65625 
Q 9.859375 30.765625 7.734375 34.890625 
Q 5.609375 39.015625 5.609375 45.515625 
Q 5.609375 53.078125 10.09375 58.765625 
Q 14.59375 64.453125 21.703125 67.484375 
Q 28.8125 70.515625 36.078125 70.515625 
Q 43.3125 70.515625 50.40625 67.484375 
Q 57.515625 64.453125 62 58.71875 
Q 66.5 52.984375 66.5 45.515625 
Q 66.5 40.4375 64.640625 35.9375 
Q 62.796875 31.453125 59.90625 26.953125 
Q 57.03125 22.46875 53.6875 16.9375 
Q 50.34375 11.421875 49.125 6.890625 
L 55.171875 6.890625 
Q 58.84375 6.890625 60.453125 7.171875 
Q 62.0625 7.46875 62.734375 8.375 
Q 63.421875 9.28125 63.84375 11.5 
Q 64.265625 13.71875 64.796875 16.609375 
L 67.671875 16.609375 
L 64.40625 0 
L 46.6875 0 
Q 45.703125 0 45.703125 1.3125 
Q 45.703125 6.390625 46.9375 11.265625 
Q 48.1875 16.15625 50.625 23.09375 
Q 53.078125 30.03125 54.4375 35.328125 
Q 55.8125 40.625 55.8125 45.515625 
Q 55.8125 51.515625 53.46875 56.640625 
Q 51.125 61.765625 46.625 64.84375 
Q 42.140625 67.921875 36.078125 67.921875 
Q 26.953125 67.921875 21.625 61.40625 
Q 16.3125 54.890625 16.3125 45.515625 
Q 16.359375 40.375 17.53125 35.828125 
Q 18.703125 31.296875 21.3125 23.71875 
Q 23.921875 16.15625 25.171875 11.265625 
Q 26.421875 6.390625 26.421875 1.3125 
Q 26.421875 0 25.390625 0 
z
" id="Cmr10-173"/>
     </defs>
     <use transform="translate(0 0.484375)" xlink:href="#Cmr10-173"/>
    </g>
   </g>
   <g id="text_2">
    <!-- $A$ -->
    <g style="fill:#0000ff;" transform="translate(227.757692 78.497837)scale(0.1 -0.1)">
     <defs>
      <path d="M 4.5 0 
Q 3.515625 0 3.515625 1.3125 
Q 3.90625 3.515625 4.78125 3.515625 
Q 8.84375 3.515625 11.796875 5.125 
Q 14.75 6.734375 16.890625 10.109375 
Q 17.09375 10.296875 17.09375 10.296875 
L 52.78125 70.515625 
Q 53.5625 71.578125 54.6875 71.578125 
L 56 71.578125 
Q 56.296875 71.578125 56.59375 71.453125 
Q 56.890625 71.34375 57.109375 71.0625 
Q 57.328125 70.796875 57.328125 70.515625 
L 63.375 5.90625 
Q 63.375 5.46875 63.8125 4.59375 
Q 64.796875 3.515625 71.296875 3.515625 
Q 72.3125 3.515625 72.3125 2.203125 
Q 71.96875 0.875 71.75 0.4375 
Q 71.53125 0 70.609375 0 
L 45.609375 0 
Q 44.671875 0 44.671875 1.3125 
Q 45.21875 3.515625 46 3.515625 
Q 53.90625 3.515625 54.390625 6.203125 
L 52.875 22.703125 
L 28.21875 22.703125 
L 20.21875 9.28125 
Q 19.484375 8.203125 19.484375 6.78125 
Q 19.484375 5.03125 21.171875 4.265625 
Q 22.859375 3.515625 24.90625 3.515625 
Q 25.875 3.515625 25.875 2.203125 
Q 25.53125 0.78125 25.328125 0.390625 
Q 25.140625 0 24.21875 0 
z
M 30.171875 26.21875 
L 52.484375 26.21875 
L 49.515625 58.59375 
z
" id="Cmmi10-65"/>
     </defs>
     <use transform="translate(0 0.421875)" xlink:href="#Cmmi10-65"/>
    </g>
   </g>
   <g id="text_3">
    <!-- $B$ -->
    <g style="fill:#ff0000;" transform="translate(103.092308 78.497837)scale(0.1 -0.1)">
     <defs>
      <path d="M 4.984375 0 
Q 4 0 4 1.3125 
Q 4.046875 1.5625 4.1875 2.140625 
Q 4.34375 2.734375 4.578125 3.125 
Q 4.828125 3.515625 5.328125 3.515625 
Q 8.15625 3.515625 10.25 3.65625 
Q 12.359375 3.8125 13.8125 4.203125 
Q 14.984375 4.640625 15.71875 6.890625 
L 29.390625 61.8125 
Q 29.59375 62.796875 29.59375 63.1875 
Q 29.59375 64.265625 28.421875 64.40625 
Q 26.515625 64.796875 21.1875 64.796875 
Q 20.21875 64.796875 20.21875 66.109375 
Q 20.265625 66.359375 20.40625 66.96875 
Q 20.5625 67.578125 20.828125 67.9375 
Q 21.09375 68.3125 21.484375 68.3125 
L 57.328125 68.3125 
Q 60.59375 68.3125 63.796875 67.5 
Q 67 66.703125 69.703125 64.9375 
Q 72.40625 63.1875 74 60.5625 
Q 75.59375 57.953125 75.59375 54.5 
Q 75.59375 50.734375 73.65625 47.5 
Q 71.734375 44.28125 68.671875 41.890625 
Q 65.625 39.5 62.078125 37.953125 
Q 58.546875 36.421875 54.6875 35.6875 
Q 57.421875 35.6875 60.21875 34.609375 
Q 63.03125 33.546875 65.234375 31.6875 
Q 67.4375 29.828125 68.78125 27.234375 
Q 70.125 24.65625 70.125 21.6875 
Q 70.125 15.671875 65.921875 10.6875 
Q 61.71875 5.71875 55.34375 2.859375 
Q 48.96875 0 43.015625 0 
z
M 23.390625 4.296875 
Q 23.390625 3.515625 26.8125 3.515625 
L 41.109375 3.515625 
Q 46 3.515625 50.484375 6.21875 
Q 54.984375 8.9375 57.6875 13.421875 
Q 60.40625 17.921875 60.40625 22.796875 
Q 60.40625 25.78125 59.15625 28.4375 
Q 57.90625 31.109375 55.5625 32.640625 
Q 53.21875 34.1875 50.203125 34.1875 
L 30.71875 34.1875 
L 23.78125 6.5 
Q 23.390625 5.125 23.390625 4.296875 
z
M 31.390625 36.8125 
L 46.578125 36.8125 
Q 51.375 36.8125 55.890625 39.25 
Q 60.40625 41.703125 63.25 45.890625 
Q 66.109375 50.09375 66.109375 54.78125 
Q 66.109375 59.125 63.390625 61.953125 
Q 60.6875 64.796875 56.390625 64.796875 
L 42.671875 64.796875 
Q 39.984375 64.796875 39.0625 64.296875 
Q 38.140625 63.8125 37.5 61.375 
z
" id="Cmmi10-66"/>
     </defs>
     <use transform="translate(0 0.6875)" xlink:href="#Cmmi10-66"/>
    </g>
   </g>
   <g id="text_4">
    <!-- $C$ -->
    <g style="fill:#228b22;" transform="translate(150.023077 271.651683)scale(0.1 -0.1)">
     <defs>
      <path d="M 14.59375 21.578125 
Q 14.59375 15.578125 16.90625 11.015625 
Q 19.234375 6.453125 23.65625 3.875 
Q 28.078125 1.3125 34.078125 1.3125 
Q 40.375 1.3125 46.203125 4.53125 
Q 52.046875 7.765625 56.171875 13.15625 
Q 60.296875 18.5625 61.8125 24.609375 
Q 62.015625 25.203125 62.59375 25.203125 
L 63.8125 25.203125 
Q 64.203125 25.203125 64.453125 24.921875 
Q 64.703125 24.65625 64.703125 24.3125 
Q 64.703125 24.21875 64.59375 24.03125 
Q 62.890625 17.09375 57.984375 11.015625 
Q 53.078125 4.9375 46.234375 1.359375 
Q 39.40625 -2.203125 32.171875 -2.203125 
Q 24.359375 -2.203125 18.15625 1.3125 
Q 11.96875 4.828125 8.515625 11.078125 
Q 5.078125 17.328125 5.078125 25.203125 
Q 5.078125 33.59375 8.828125 41.8125 
Q 12.59375 50.046875 18.9375 56.46875 
Q 25.296875 62.890625 33.421875 66.703125 
Q 41.546875 70.515625 49.90625 70.515625 
Q 53.21875 70.515625 56.25 69.5 
Q 59.28125 68.5 61.859375 66.453125 
Q 64.453125 64.40625 66.109375 61.71875 
L 74.03125 70.3125 
Q 74.03125 70.515625 74.515625 70.515625 
L 75.09375 70.515625 
Q 75.484375 70.515625 75.734375 70.171875 
Q 75.984375 69.828125 75.984375 69.484375 
L 69.1875 42.484375 
Q 69.1875 41.796875 68.40625 41.796875 
L 66.609375 41.796875 
Q 65.828125 41.796875 65.828125 42.921875 
Q 66.21875 45.125 66.21875 48.1875 
Q 66.21875 53.078125 64.546875 57.390625 
Q 62.890625 61.71875 59.390625 64.359375 
Q 55.90625 67 50.875 67 
Q 42.71875 67 35.9375 62.890625 
Q 29.15625 58.796875 24.4375 52.125 
Q 19.734375 45.453125 17.15625 37.328125 
Q 14.59375 29.203125 14.59375 21.578125 
z
" id="Cmmi10-67"/>
     </defs>
     <use transform="translate(0 0.484375)" xlink:href="#Cmmi10-67"/>
    </g>
   </g>
   <g id="patch_6">
    <path clip-path="url(#pd7b1ea804c)" d="M 200.353846 200.353846 
C 216.878039 200.353846 232.727669 193.788715 244.412038 182.104346 
C 256.096407 170.419977 262.661538 154.570347 262.661538 138.046154 
C 262.661538 121.521961 256.096407 105.672331 244.412038 93.987962 
C 232.727669 82.303593 216.878039 75.738462 200.353846 75.738462 
C 183.829653 75.738462 167.980023 82.303593 156.295654 93.987962 
C 144.611285 105.672331 138.046154 121.521961 138.046154 138.046154 
C 138.046154 154.570347 144.611285 170.419977 156.295654 182.104346 
C 167.980023 193.788715 183.829653 200.353846 200.353846 200.353846 
z
" style="fill:none;stroke:#0000ff;stroke-linejoin:miter;"/>
   </g>
   <g id="patch_7">
    <path clip-path="url(#pd7b1ea804c)" d="M 138.046154 200.353846 
C 154.570347 200.353846 170.419977 193.788715 182.104346 182.104346 
C 193.788715 170.419977 200.353846 154.570347 200.353846 138.046154 
C 200.353846 121.521961 193.788715 105.672331 182.104346 93.987962 
C 170.419977 82.303593 154.570347 75.738462 138.046154 75.738462 
C 121.521961 75.738462 105.672331 82.303593 93.987962 93.987962 
C 82.303593 105.672331 75.738462 121.521961 75.738462 138.046154 
C 75.738462 154.570347 82.303593 170.419977 93.987962 182.104346 
C 105.672331 193.788715 121.521961 200.353846 138.046154 200.353846 
z
" style="fill:none;stroke:#ff0000;stroke-linejoin:miter;"/>
   </g>
   <g id="patch_8">
    <path clip-path="url(#pd7b1ea804c)" d="M 169.2 262.661538 
C 185.724193 262.661538 201.573823 256.096407 213.258192 244.412038 
C 224.942561 232.727669 231.507692 216.878039 231.507692 200.353846 
C 231.507692 183.829653 224.942561 167.980023 213.258192 156.295654 
C 201.573823 144.611285 185.724193 138.046154 169.2 138.046154 
C 152.675807 138.046154 136.826177 144.611285 125.141808 156.295654 
C 113.457439 167.980023 106.892308 183.829653 106.892308 200.353846 
C 106.892308 216.878039 113.457439 232.727669 125.141808 244.412038 
C 136.826177 256.096407 152.675807 262.661538 169.2 262.661538 
z
" style="fill:none;stroke:#228b22;stroke-linejoin:miter;"/>
   </g>
  </g>
 </g>
 <defs>
  <clipPath id="pd7b1ea804c">
   <rect height="324" width="324" x="7.2" y="7.2"/>
  </clipPath>
 </defs>
</svg>
