<?xml version="1.0" encoding="utf-8" standalone="no"?>
<!DOCTYPE svg PUBLIC "-//W3C//DTD SVG 1.1//EN"
  "http://www.w3.org/Graphics/SVG/1.1/DTD/svg11.dtd">
<!-- Created with matplotlib (https://matplotlib.org/) -->
<svg height="338.4pt" version="1.1" viewBox="0 0 338.4 338.4" width="338.4pt" xmlns="http://www.w3.org/2000/svg" xmlns:xlink="http://www.w3.org/1999/xlink">
 <metadata>
  <rdf:RDF xmlns:cc="http://creativecommons.org/ns#" xmlns:dc="http://purl.org/dc/elements/1.1/" xmlns:rdf="http://www.w3.org/1999/02/22-rdf-syntax-ns#">
   <cc:Work>
    <dc:type rdf:resource="http://purl.org/dc/dcmitype/StillImage"/>
    <dc:date>2024-08-28T15:46:36.641841</dc:date>
    <dc:format>image/svg+xml</dc:format>
    <dc:creator>
     <cc:Agent>
      <dc:title>Matplotlib v3.3.4, https://matplotlib.org/</dc:title>
     </cc:Agent>
    </dc:creator>
   </cc:Work>
  </rdf:RDF>
 </metadata>
 <defs>
  <style type="text/css">*{stroke-linecap:butt;stroke-linejoin:round;}</style>
 </defs>
 <g id="figure_1">
  <g id="patch_1">
   <path d="M -0 338.4 
L 338.4 338.4 
L 338.4 0 
L -0 0 
z
" style="fill:#ffffff;"/>
  </g>
  <g id="axes_1">
   <g id="patch_2">
    <path d="M 7.2 331.2 
L 331.2 331.2 
L 331.2 7.2 
L 7.2 7.2 
z
" style="fill:#ffffff;"/>
   </g>
   <g id="patch_3">
    <path clip-path="url(#p7fda6b0cbd)" d="M 13.430769 324.969231 
L 13.430769 13.430769 
L 324.969231 13.430769 
L 324.969231 324.969231 
z
" style="fill:none;stroke:#000000;stroke-linejoin:miter;"/>
   </g>
   <g id="patch_4">
    <path clip-path="url(#p7fda6b0cbd)" d="M 200.353846 138.046154 
L 200.349723 138.762972 
L 200.345599 139.059871 
L 200.341476 139.287679 
L 200.337352 139.47972 
L 200.333229 139.648902 
L 200.329105 139.801848 
L 200.324982 139.942489 
L 200.320859 140.073388 
L 200.316735 140.196324 
L 200.312612 140.312595 
L 200.308488 140.423178 
L 200.304365 140.528834 
L 200.300241 140.630166 
L 200.296118 140.727666 
L 200.287871 140.912716 
L 200.279624 141.086501 
L 200.271377 141.250855 
L 200.26313 141.407162 
L 200.254883 141.556496 
L 200.246636 141.699713 
L 200.238389 141.837506 
L 200.230143 141.970446 
L 200.221896 142.099011 
L 200.20686 142.323437 
L 200.191824 142.53661 
L 200.176788 142.740064 
L 200.161752 142.935012 
L 200.146717 143.122435 
L 200.131681 143.303137 
L 200.116645 143.477789 
L 200.101609 143.646957 
L 200.086756 143.809153 
L 200.071904 143.966871 
L 200.057051 144.120459 
L 200.042198 144.270222 
L 200.027345 144.416431 
L 200.012493 144.559325 
L 199.982787 144.835999 
L 199.953081 145.101707 
L 199.923376 145.357645 
L 199.89367 145.604806 
L 199.863965 145.844023 
L 199.839925 146.032289 
L 199.815885 146.216147 
L 199.791846 146.395888 
L 199.767806 146.571773 
L 199.743766 146.744036 
L 199.719726 146.912887 
L 199.671647 147.241104 
L 199.632775 147.49796 
L 199.593902 147.747863 
L 199.562557 147.944672 
L 199.531212 148.137546 
L 199.499866 148.326707 
L 199.468521 148.512355 
L 199.433118 148.718038 
L 199.397716 148.919715 
L 199.362314 149.117607 
L 199.326911 149.311911 
L 199.263841 149.649744 
L 199.20077 149.977683 
L 199.1377 150.296521 
L 199.07463 150.606953 
L 199.014947 150.893518 
L 198.956249 151.168989 
L 198.897551 151.438538 
L 198.838853 151.702515 
L 198.780156 151.961238 
L 198.712327 152.254038 
L 198.644498 152.540607 
L 198.557715 152.898747 
L 198.470931 153.247957 
L 198.386445 153.579918 
L 198.327885 153.805639 
L 198.269326 154.027958 
L 198.210767 154.247014 
L 198.152207 154.462939 
L 198.041275 154.863822 
L 197.930343 155.254653 
L 197.917319 155.299912 
L 197.814825 155.651679 
L 197.712331 155.995968 
L 197.63046 156.265896 
L 197.548589 156.53152 
L 197.460855 156.811594 
L 197.373122 157.087146 
L 197.264595 157.422035 
L 197.182769 157.670355 
L 197.100943 157.915235 
L 196.939651 158.388339 
L 196.843109 158.665722 
L 196.746567 158.938976 
L 196.64318 159.227208 
L 196.539793 159.511072 
L 196.437765 159.78709 
L 196.290334 160.179025 
L 196.127096 160.603916 
L 195.938487 161.08365 
L 195.866022 161.264926 
L 195.749969 161.551859 
L 195.633917 161.834766 
L 195.502371 162.150751 
L 195.318692 162.583981 
L 195.189578 162.883175 
L 195.075232 163.144615 
L 194.960886 163.402844 
L 194.948314 163.431046 
L 194.740397 163.89207 
L 194.608103 164.180316 
L 194.371979 164.685409 
L 194.197398 165.051455 
L 194.04327 165.369614 
L 193.866339 165.72928 
L 193.748837 165.964957 
L 193.615447 166.229522 
L 193.485786 166.483729 
L 193.365888 166.716269 
L 193.207343 167.020137 
L 192.95348 167.498387 
L 192.781934 167.815986 
L 192.65957 168.039874 
L 192.547987 168.242159 
L 192.388426 168.528378 
L 192.215818 168.834073 
L 192.076271 169.078314 
L 191.927169 169.336483 
L 191.708993 169.709196 
L 191.65181 169.80591 
L 191.431442 170.174949 
L 191.216627 170.529215 
L 191.080538 170.750934 
L 190.993651 170.891413 
L 190.737795 171.300319 
L 190.578316 171.551682 
L 190.428637 171.785211 
L 190.296651 171.989254 
L 190.108925 172.276496 
L 190.020438 172.410703 
L 189.899598 172.592773 
L 189.758376 172.803809 
L 189.492069 173.196778 
L 189.336595 173.423254 
L 189.171501 173.661423 
L 189.151427 173.690222 
L 188.860192 174.104192 
L 188.82911 174.147953 
L 188.601696 174.465732 
L 188.409499 174.731055 
L 188.278482 174.910252 
L 188.078401 175.181349 
L 187.978241 175.315917 
L 187.771622 175.591145 
L 187.748461 175.621801 
L 187.507154 175.93887 
L 187.371145 176.115745 
L 187.244655 176.279072 
L 187.106614 176.456045 
L 186.87142 176.754576 
L 186.750512 176.906596 
L 186.578852 177.120771 
L 186.370363 177.378321 
L 186.211424 177.572794 
L 186.067763 177.747206 
L 185.914805 177.931499 
L 185.822531 178.041983 
L 185.594575 178.312718 
L 185.539813 178.377294 
L 185.3136 178.642176 
L 185.201395 178.772457 
L 184.970912 179.037806 
L 184.781937 179.253133 
L 184.733151 179.308399 
L 184.59254 179.466951 
L 184.309587 179.782748 
L 184.162812 179.944869 
L 184.023618 180.097566 
L 183.923821 180.206422 
L 183.761684 180.382177 
L 183.661657 180.489933 
L 183.510266 180.652058 
L 183.29428 180.881369 
L 183.072175 181.114773 
L 182.924243 181.268898 
L 182.850513 181.345321 
L 182.599993 181.603058 
L 182.460225 181.745568 
L 182.32788 181.879672 
L 182.145634 182.063019 
L 182.078712 182.129965 
L 181.825168 182.381765 
L 181.654286 182.549854 
L 181.6281 182.575498 
L 181.434653 182.76401 
L 181.318797 182.876132 
L 181.075766 183.109454 
L 181.000876 183.180845 
L 180.854094 183.320084 
L 180.593258 183.565297 
L 180.523144 183.630732 
L 180.388411 183.75591 
L 180.195919 183.93347 
L 179.938974 184.168168 
L 179.859646 184.240097 
L 179.634003 184.443345 
L 179.591993 184.480966 
L 179.410507 184.642708 
L 179.268743 184.768169 
L 178.98786 185.014497 
L 178.917771 185.0755 
L 178.788617 185.187433 
L 178.535503 185.405008 
L 178.494881 185.439708 
L 178.292768 185.611462 
L 178.161829 185.721946 
L 178.019311 185.841501 
L 177.764355 186.053581 
L 177.653765 186.144861 
L 177.500459 186.270695 
L 177.287235 186.444357 
L 177.178653 186.532193 
L 177.060433 186.62737 
L 176.833233 186.808958 
L 176.661846 186.944792 
L 176.583218 187.006783 
L 176.409239 187.143223 
L 176.216321 187.293355 
L 176.02016 187.444771 
L 176.008373 187.45383 
L 175.765573 187.639439 
L 175.646107 187.730076 
L 175.530637 187.81725 
L 175.307098 187.984822 
L 175.192442 188.070166 
L 175.002547 188.210619 
L 174.912106 188.277121 
L 174.744143 188.399963 
L 174.57041 188.526122 
L 174.418492 188.635694 
L 174.234499 188.767473 
L 174.118791 188.849829 
L 173.90671 188.999751 
L 173.807068 189.069732 
L 173.625175 189.196733 
L 173.490869 189.289892 
L 173.334545 189.397668 
L 173.063659 189.58277 
L 172.904524 189.690539 
L 172.763831 189.785225 
L 172.631654 189.873673 
L 172.542262 189.933215 
L 172.289711 190.100235 
L 172.17985 190.17234 
L 171.948624 190.323023 
L 171.791021 190.424894 
L 171.760278 190.444688 
L 171.556546 190.575214 
L 171.357516 190.701654 
L 171.189212 190.807752 
L 171.01246 190.918369 
L 170.875242 191.003679 
L 170.823643 191.035631 
L 170.617432 191.162633 
L 170.38379 191.305199 
L 170.300923 191.355425 
L 170.181023 191.427786 
L 170.051736 191.505402 
L 169.828805 191.638239 
L 169.725948 191.699105 
L 169.543819 191.806229 
L 169.388217 191.897092 
L 169.2 192.006198 
L 169.2 192.006198 
L 169.411091 192.127522 
L 169.499678 192.178111 
L 169.598033 192.234053 
L 169.870938 192.388042 
L 170.003105 192.46197 
L 170.083461 192.506711 
L 170.226288 192.585853 
L 170.38613 192.673844 
L 170.560541 192.769161 
L 170.727714 192.859846 
L 170.868078 192.935479 
L 171.111344 193.065465 
L 171.203022 193.114093 
L 171.435993 193.23679 
L 171.497601 193.269026 
L 171.780722 193.416047 
L 171.791375 193.421543 
L 172.052985 193.5557 
L 172.202548 193.6317 
L 172.32726 193.694685 
L 172.543937 193.803283 
L 172.615735 193.839036 
L 172.811226 193.9358 
L 173.031145 194.043641 
L 173.115632 194.084785 
L 173.324219 194.185692 
L 173.46215 194.251894 
L 173.565697 194.301319 
L 173.794874 194.409879 
L 173.849108 194.435402 
L 174.102722 194.553914 
L 174.152603 194.57706 
L 174.411707 194.696431 
L 174.470222 194.723191 
L 174.695908 194.825716 
L 174.882741 194.909774 
L 174.987127 194.956417 
L 175.197137 195.049562 
L 175.259205 195.076913 
L 175.471261 195.169752 
L 175.573762 195.214291 
L 175.804127 195.313595 
L 176.004284 195.398986 
L 176.041083 195.414595 
L 176.225555 195.492425 
L 176.326113 195.534558 
L 176.585579 195.642317 
L 176.679668 195.681055 
L 176.901432 195.771649 
L 177.001322 195.812131 
L 177.166513 195.878637 
L 177.345439 195.950055 
L 177.556449 196.033456 
L 177.685246 196.083927 
L 177.822743 196.137443 
L 177.957385 196.189486 
L 178.197617 196.281453 
L 178.271702 196.309585 
L 178.482454 196.389026 
L 178.598421 196.432368 
L 178.763113 196.49347 
L 178.93834 196.557902 
L 179.127653 196.626844 
L 179.159121 196.638236 
L 179.39025 196.721329 
L 179.513541 196.765232 
L 179.678894 196.823657 
L 179.837794 196.879309 
L 180.057111 196.95533 
L 180.098202 196.969472 
L 180.245415 197.019873 
L 180.421037 197.079463 
L 180.631221 197.150016 
L 180.83713 197.218329 
L 180.98929 197.268299 
L 181.152231 197.32133 
L 181.321791 197.37599 
L 181.359493 197.388071 
L 181.59177 197.461918 
L 181.688053 197.492236 
L 181.954827 197.575345 
L 182.032034 197.599153 
L 182.184752 197.645923 
L 182.282906 197.675758 
L 182.442653 197.723936 
L 182.707126 197.802675 
L 182.836231 197.840649 
L 183.022672 197.894954 
L 183.07201 197.90922 
L 183.279667 197.968778 
L 183.428335 198.01094 
L 183.570741 198.050953 
L 183.711202 198.090062 
L 183.841252 198.125957 
L 184.062361 198.186291 
L 184.179382 198.217869 
L 184.358681 198.265779 
L 184.55318 198.317104 
L 184.754971 198.369645 
L 184.891748 198.404849 
L 185.046915 198.444385 
L 185.246226 198.494548 
L 185.247381 198.494836 
L 185.535818 198.566188 
L 185.655828 198.595446 
L 185.787703 198.627306 
L 186.019482 198.682566 
L 186.11296 198.704588 
L 186.189059 198.722404 
L 186.465327 198.786236 
L 186.544936 198.804384 
L 186.71734 198.84331 
L 186.86991 198.87733 
L 187.020633 198.910544 
L 187.250716 198.960491 
L 187.423383 198.997377 
L 187.579984 199.030389 
L 187.720062 199.059562 
L 187.788757 199.073746 
L 188.01599 199.120091 
L 188.204663 199.157903 
L 188.324966 199.181696 
L 188.49802 199.215492 
L 188.573625 199.230097 
L 188.801881 199.273604 
L 188.88854 199.289891 
L 189.105372 199.330086 
L 189.173001 199.342461 
L 189.446599 199.391736 
L 189.537135 199.407765 
L 189.765992 199.447667 
L 189.872189 199.465885 
L 189.987725 199.48549 
L 190.169261 199.515844 
L 190.311469 199.539236 
L 190.522163 199.573274 
L 190.573222 199.581411 
L 190.767772 199.612019 
L 191.02482 199.651493 
L 191.124654 199.666528 
L 191.231482 199.682434 
L 191.375982 199.703647 
L 191.551848 199.728999 
L 191.749869 199.756932 
L 191.932916 199.782176 
L 192.028432 199.79513 
L 192.134932 199.809395 
L 192.341463 199.836527 
L 192.508903 199.858009 
L 192.638029 199.87426 
L 192.808676 199.895317 
L 192.941916 199.911425 
L 193.187021 199.940298 
L 193.324849 199.956102 
L 193.421166 199.966962 
L 193.681688 199.995575 
L 193.838478 200.012262 
L 193.992672 200.02828 
L 194.086043 200.037792 
L 194.317255 200.060734 
L 194.404339 200.069149 
L 194.546521 200.082623 
L 194.761664 200.102387 
L 194.924691 200.116862 
L 195.017034 200.12487 
L 195.110788 200.132858 
L 195.291841 200.147882 
L 195.538131 200.167466 
L 195.605168 200.172626 
L 195.753358 200.183776 
L 196.017529 200.20277 
L 196.199269 200.215182 
L 196.28904 200.221116 
L 196.369407 200.226318 
L 196.669831 200.24484 
L 196.814731 200.253253 
L 196.90146 200.258127 
L 197.128492 200.27031 
L 197.277306 200.277845 
L 197.328346 200.280348 
L 197.588757 200.292461 
L 197.66142 200.295647 
L 197.788981 200.301033 
L 197.995902 200.309214 
L 198.166925 200.315455 
L 198.339991 200.321293 
L 198.53192 200.327203 
L 198.578244 200.328541 
L 198.801947 200.334517 
L 198.955866 200.338161 
L 199.138716 200.341996 
L 199.32568 200.345362 
L 199.371445 200.346101 
L 199.612625 200.349437 
L 199.700534 200.350421 
L 199.943179 200.352493 
L 200.071342 200.353206 
L 200.177542 200.353597 
L 200.353846 200.353846 
z
" style="fill:#808080;opacity:0.5;"/>
   </g>
   <g id="patch_5">
    <path clip-path="url(#p7fda6b0cbd)" d="M 231.507692 200.353846 
L 231.501608 199.483124 
L 231.495524 199.122488 
L 231.489439 198.845784 
L 231.483355 198.612528 
L 231.477271 198.407041 
L 231.471187 198.22128 
L 231.465102 198.050468 
L 231.459018 197.891492 
L 231.452934 197.742188 
L 231.44685 197.600984 
L 231.440765 197.466691 
L 231.434681 197.338385 
L 231.428597 197.215331 
L 231.422512 197.096934 
L 231.416428 196.982705 
L 231.410344 196.872231 
L 231.398175 196.661216 
L 231.386007 196.461663 
L 231.373838 196.271889 
L 231.36167 196.09059 
L 231.349501 195.916725 
L 231.337332 195.749453 
L 231.325164 195.588079 
L 231.312995 195.432024 
L 231.293871 195.196355 
L 231.274747 194.971063 
L 231.255622 194.754893 
L 231.236498 194.546828 
L 231.220725 194.38072 
L 231.204951 194.219149 
L 231.189178 194.061764 
L 231.173405 193.90826 
L 231.157632 193.758365 
L 231.141859 193.611839 
L 231.110312 193.328055 
L 231.078766 193.055433 
L 231.04722 192.792766 
L 231.015673 192.539049 
L 230.984127 192.293438 
L 230.946866 192.012801 
L 230.909605 191.741464 
L 230.882598 191.550119 
L 230.855591 191.362927 
L 230.828584 191.179633 
L 230.801577 191.000008 
L 230.766038 190.768887 
L 230.7305 190.543338 
L 230.694962 190.322986 
L 230.659424 190.107494 
L 230.623886 189.896562 
L 230.588348 189.689921 
L 230.552809 189.487324 
L 230.517271 189.28855 
L 230.474909 189.056321 
L 230.432546 188.828927 
L 230.390184 188.606085 
L 230.347822 188.387543 
L 230.281955 188.055745 
L 230.216088 187.733011 
L 230.169628 187.510443 
L 230.123167 187.291833 
L 230.076707 187.076983 
L 230.030246 186.865716 
L 229.941218 186.470294 
L 229.891006 186.252418 
L 229.840795 186.038034 
L 229.745564 185.640478 
L 229.650333 185.253985 
L 229.566608 184.922672 
L 229.482884 184.598769 
L 229.424194 184.375894 
L 229.365505 184.156298 
L 229.248126 183.726425 
L 229.218044 183.618169 
L 229.101045 183.204113 
L 228.984046 182.800601 
L 228.864315 182.397845 
L 228.741361 181.994247 
L 228.618406 181.600139 
L 228.480823 181.169673 
L 228.371689 180.835658 
L 228.227832 180.404821 
L 228.116643 180.078794 
L 228.005453 179.758527 
L 227.917524 179.509162 
L 227.829595 179.263112 
L 227.74351 179.025321 
L 227.581988 178.587082 
L 227.420642 178.15913 
L 227.308219 177.866441 
L 227.176128 177.528047 
L 227.053332 177.218581 
L 226.930536 176.913844 
L 226.87655 176.781318 
L 226.672764 176.288727 
L 226.553295 176.005375 
L 226.418541 175.690369 
L 226.283787 175.380063 
L 226.190528 175.167973 
L 226.070042 174.897082 
L 225.83672 174.382122 
L 225.668408 174.018177 
L 225.533438 173.730692 
L 225.397503 173.444941 
L 225.207695 173.052076 
L 225.140448 172.914552 
L 224.925096 172.479804 
L 224.707282 172.048543 
L 224.663468 171.962788 
L 224.481698 171.610457 
L 224.298305 171.260458 
L 224.154042 170.988871 
L 223.925609 170.565322 
L 223.810004 170.353914 
L 223.614464 170.000682 
L 223.479914 169.760718 
L 223.303311 169.449473 
L 223.156928 169.194602 
L 223.07354 169.050648 
L 222.945281 168.830944 
L 222.746535 168.494513 
L 222.621362 168.285066 
L 222.358794 167.851674 
L 222.251087 167.676168 
L 222.086609 167.410636 
L 222.003321 167.277301 
L 221.806119 166.964555 
L 221.574755 166.602793 
L 221.552684 166.568568 
L 221.282444 166.153443 
L 221.195101 166.020801 
L 220.961998 165.670362 
L 220.907599 165.589314 
L 220.654436 165.215697 
L 220.593012 165.125919 
L 220.324257 164.737012 
L 220.159637 164.501873 
L 220.075987 164.383268 
L 219.906605 164.144887 
L 219.692445 163.846839 
L 219.68223 163.832715 
L 219.520236 163.609835 
L 219.32463 163.343443 
L 219.124413 163.073805 
L 218.988005 162.891824 
L 218.864051 162.727651 
L 218.64512 162.440411 
L 218.546726 162.312433 
L 218.400505 162.123507 
L 218.200207 161.867118 
L 218.011976 161.628667 
L 217.847052 161.421689 
L 217.669843 161.201288 
L 217.55109 161.054728 
L 217.366593 160.828818 
L 217.306227 160.755369 
L 217.127894 160.539709 
L 216.885081 160.249214 
L 216.778325 160.122621 
L 216.700181 160.030387 
L 216.435797 159.721002 
L 216.397569 159.676604 
L 216.123252 159.36047 
L 216.001702 159.221752 
L 215.801524 158.995092 
L 215.740829 158.926805 
L 215.562929 158.727804 
L 215.309409 158.447153 
L 215.149016 158.27135 
L 215.035229 158.147445 
L 214.984221 158.092119 
L 214.815762 157.910345 
L 214.591665 157.670767 
L 214.471562 157.543402 
L 214.36156 157.427374 
L 214.180836 157.238038 
L 214.038932 157.090482 
L 213.741298 156.784117 
L 213.683665 156.725277 
L 213.548675 156.588066 
L 213.276778 156.314248 
L 213.255375 156.292837 
L 213.019194 156.057946 
L 212.852017 155.89319 
L 212.718355 155.762353 
L 212.628378 155.674718 
L 212.469959 155.521278 
L 212.300516 155.358357 
L 212.096163 155.163496 
L 211.918839 154.995833 
L 211.792235 154.876928 
L 211.611781 154.708591 
L 211.486491 154.592496 
L 211.353739 154.47018 
L 211.150205 154.284021 
L 210.971004 154.121479 
L 210.892682 154.050836 
L 210.643929 153.828055 
L 210.539238 153.73501 
L 210.358274 153.575165 
L 210.196879 153.433654 
L 210.1094 153.357362 
L 209.956142 153.224392 
L 209.821155 153.107997 
L 209.534878 152.863361 
L 209.40121 152.750157 
L 209.289221 152.655807 
L 209.156499 152.544572 
L 209.018858 152.429875 
L 208.814819 152.261075 
L 208.69455 152.16226 
L 208.417534 151.93656 
L 208.390744 151.914873 
L 208.216644 151.774529 
L 208.011902 151.610797 
L 207.805477 151.447142 
L 207.740451 151.395883 
L 207.587151 151.275591 
L 207.377429 151.112274 
L 207.235554 151.002604 
L 207.026119 150.841895 
L 206.876251 150.727758 
L 206.798919 150.669142 
L 206.561118 150.490078 
L 206.494144 150.439967 
L 206.265467 150.26992 
L 206.144332 150.180498 
L 206.060274 150.118712 
L 205.869334 149.979166 
L 205.736256 149.882562 
L 205.566299 149.759965 
L 205.36773 149.617825 
L 205.187474 149.48981 
L 205.082759 149.415882 
L 204.876183 149.270987 
L 204.709837 149.155214 
L 204.58503 149.068876 
L 204.456345 148.980325 
L 204.253021 148.841379 
L 204.158198 148.776982 
L 203.990167 148.663491 
L 203.75438 148.505574 
L 203.606502 148.407324 
L 203.420793 148.284797 
L 203.318154 148.217486 
L 203.194187 148.136572 
L 203.013499 148.019385 
L 202.864195 147.92322 
L 202.69393 147.814288 
L 202.569228 147.734999 
L 202.375139 147.612414 
L 202.25291 147.535727 
L 202.0923 147.435559 
L 201.961519 147.354493 
L 201.767836 147.235257 
L 201.617627 147.143453 
L 201.480313 147.060038 
L 201.260737 146.927657 
L 201.118712 146.842685 
L 201.00818 146.776909 
L 200.804791 146.656679 
L 200.639649 146.559823 
L 200.477638 146.465463 
L 200.353846 146.393802 
L 200.353846 200.353846 
L 200.553693 200.353526 
L 200.656194 200.353113 
L 200.819586 200.352105 
L 201.039919 200.350069 
L 201.192899 200.348196 
L 201.248975 200.347416 
L 201.424422 200.344648 
L 201.569269 200.341991 
L 201.719279 200.338883 
L 201.883162 200.335075 
L 202.151766 200.327901 
L 202.261781 200.324628 
L 202.336553 200.322292 
L 202.621515 200.312567 
L 202.72278 200.308797 
L 202.796411 200.305951 
L 202.98319 200.298343 
L 203.141512 200.291454 
L 203.338795 200.282306 
L 203.478012 200.275473 
L 203.653051 200.266438 
L 203.78228 200.259451 
L 203.9154 200.251972 
L 204.143953 200.238465 
L 204.289819 200.229404 
L 204.497376 200.215919 
L 204.51893 200.214479 
L 204.672288 200.204014 
L 204.966733 200.182856 
L 205.126867 200.170761 
L 205.164434 200.167863 
L 205.348803 200.153311 
L 205.597538 200.132805 
L 205.688884 200.125022 
L 205.910278 200.105598 
L 206.005485 200.097 
L 206.222336 200.076867 
L 206.286247 200.070787 
L 206.403672 200.059444 
L 206.571695 200.042822 
L 206.847742 200.014515 
L 206.851552 200.014116 
L 207.017174 199.996526 
L 207.230551 199.973203 
L 207.41777 199.952127 
L 207.623326 199.928326 
L 207.750924 199.913203 
L 207.900055 199.89519 
L 208.0349 199.878588 
L 208.149906 199.864193 
L 208.406041 199.831352 
L 208.474597 199.822378 
L 208.724011 199.789079 
L 208.753599 199.785061 
L 208.909028 199.763715 
L 209.124973 199.733396 
L 209.260813 199.713929 
L 209.370702 199.697957 
L 209.513031 199.676973 
L 209.819996 199.630572 
L 209.970923 199.607183 
L 209.995508 199.603338 
L 210.144227 199.57986 
L 210.402619 199.538191 
L 210.547631 199.514319 
L 210.609051 199.504101 
L 210.868908 199.460175 
L 211.072322 199.425 
L 211.106427 199.419035 
L 211.247499 199.394152 
L 211.504765 199.347912 
L 211.599938 199.330523 
L 211.764445 199.300107 
L 211.926616 199.269675 
L 212.115502 199.233669 
L 212.230215 199.211507 
L 212.346318 199.188849 
L 212.555679 199.147412 
L 212.680356 199.122382 
L 212.938914 199.06963 
L 213.092302 199.037795 
L 213.132958 199.029289 
L 213.295029 198.995102 
L 213.539869 198.942601 
L 213.664374 198.915509 
L 213.842017 198.876391 
L 214.002868 198.840502 
L 214.186919 198.798887 
L 214.245356 198.785552 
L 214.43862 198.741027 
L 214.534212 198.718765 
L 214.798213 198.656456 
L 214.982317 198.612286 
L 215.096004 198.584714 
L 215.244441 198.548374 
L 215.370805 198.517134 
L 215.484117 198.488882 
L 215.769421 198.416748 
L 215.904355 198.382131 
L 215.976743 198.363428 
L 216.127492 198.324181 
L 216.334715 198.269574 
L 216.446737 198.239737 
L 216.569037 198.206906 
L 216.725427 198.164536 
L 216.876084 198.123306 
L 217.074933 198.068265 
L 217.229922 198.024872 
L 217.366095 197.98639 
L 217.631889 197.910315 
L 217.770276 197.8702 
L 217.937472 197.821271 
L 218.024748 197.795528 
L 218.192275 197.745727 
L 218.301444 197.712998 
L 218.546633 197.638696 
L 218.608082 197.619901 
L 218.817573 197.555307 
L 218.958778 197.511312 
L 219.157063 197.448911 
L 219.296358 197.404639 
L 219.406182 197.36948 
L 219.653343 197.289533 
L 219.788708 197.245264 
L 219.904494 197.207127 
L 220.140088 197.12875 
L 220.284919 197.08005 
L 220.318125 197.068828 
L 220.597949 196.973438 
L 220.674847 196.946964 
L 220.905789 196.866781 
L 221.070697 196.808902 
L 221.125201 196.789659 
L 221.372493 196.701631 
L 221.553917 196.636302 
L 221.57441 196.628883 
L 221.872502 196.520045 
L 222.01875 196.466017 
L 222.164475 196.411769 
L 222.206232 196.396148 
L 222.442116 196.307263 
L 222.606945 196.244505 
L 222.757638 196.186662 
L 222.87442 196.141526 
L 223.089109 196.057845 
L 223.134633 196.039984 
L 223.309368 195.971041 
L 223.473383 195.905773 
L 223.679613 195.822941 
L 223.828361 195.762665 
L 224.003854 195.690977 
L 224.096794 195.652759 
L 224.30418 195.566846 
L 224.454208 195.504148 
L 224.590316 195.446868 
L 224.756544 195.376398 
L 224.964711 195.287344 
L 225.026967 195.260537 
L 225.277307 195.15193 
L 225.335546 195.126476 
L 225.505928 195.051603 
L 225.648487 194.98849 
L 225.850809 194.898185 
L 225.968086 194.845443 
L 226.170071 194.753923 
L 226.370036 194.662462 
L 226.43275 194.633602 
L 226.624042 194.545051 
L 226.864665 194.432544 
L 226.991471 194.37275 
L 227.142847 194.300913 
L 227.314162 194.219011 
L 227.493571 194.13255 
L 227.623805 194.069344 
L 227.802311 193.982102 
L 227.947494 193.910625 
L 228.042273 193.86371 
L 228.165197 193.802564 
L 228.385727 193.692018 
L 228.556661 193.605579 
L 228.733377 193.515522 
L 228.870467 193.445169 
L 228.966005 193.395886 
L 229.146303 193.302311 
L 229.351988 193.194647 
L 229.51004 193.111251 
L 229.627882 193.048693 
L 229.793758 192.960088 
L 229.899867 192.903069 
L 230.031698 192.83186 
L 230.313579 192.678223 
L 230.477869 192.587806 
L 230.605609 192.517058 
L 230.762357 192.429708 
L 230.809278 192.403446 
L 231.025937 192.281487 
L 231.192663 192.186859 
L 231.346339 192.099034 
L 231.507692 192.006198 
z
" style="fill:#808080;opacity:0.5;"/>
   </g>
   <g id="matplotlib.axis_1"/>
   <g id="matplotlib.axis_2"/>
   <g id="line2d_1">
    <path clip-path="url(#p7fda6b0cbd)" d="M 169.2 192.006198 
L 172.543937 193.803283 
L 175.804127 195.313595 
L 179.159121 196.638236 
L 182.707126 197.802675 
L 186.189059 198.722404 
L 189.872189 199.465885 
L 193.421166 199.966962 
L 197.128492 200.27031 
L 200.353846 200.353846 
L 200.353846 200.353846 
" style="fill:none;stroke:#ff0000;stroke-linecap:square;"/>
   </g>
   <g id="line2d_2">
    <path clip-path="url(#p7fda6b0cbd)" d="M 200.353846 200.353846 
L 204.143953 200.238465 
L 207.900055 199.89519 
L 211.599938 199.330523 
L 215.244441 198.548374 
L 218.817573 197.555307 
L 222.206232 196.396148 
L 225.648487 194.98849 
L 228.966005 193.395886 
L 231.507692 192.006198 
L 231.507692 192.006198 
" style="fill:none;stroke:#ff0000;stroke-linecap:square;"/>
   </g>
   <g id="text_1">
    <!-- $\Omega$ -->
    <g transform="translate(16.011538 22.420913)scale(0.1 -0.1)">
     <defs>
      <path d="M 7.71875 0 
L 4.390625 16.609375 
L 7.328125 16.609375 
Q 7.859375 13.71875 8.296875 11.5 
Q 8.734375 9.28125 9.4375 8.375 
Q 10.15625 7.46875 11.71875 7.171875 
Q 13.28125 6.890625 16.890625 6.890625 
L 23 6.890625 
Q 21.53125 12.546875 15.6875 21.65625 
Q 9.859375 30.765625 7.734375 34.890625 
Q 5.609375 39.015625 5.609375 45.515625 
Q 5.609375 53.078125 10.09375 58.765625 
Q 14.59375 64.453125 21.703125 67.484375 
Q 28.8125 70.515625 36.078125 70.515625 
Q 43.3125 70.515625 50.40625 67.484375 
Q 57.515625 64.453125 62 58.71875 
Q 66.5 52.984375 66.5 45.515625 
Q 66.5 40.4375 64.640625 35.9375 
Q 62.796875 31.453125 59.90625 26.953125 
Q 57.03125 22.46875 53.6875 16.9375 
Q 50.34375 11.421875 49.125 6.890625 
L 55.171875 6.890625 
Q 58.84375 6.890625 60.453125 7.171875 
Q 62.0625 7.46875 62.734375 8.375 
Q 63.421875 9.28125 63.84375 11.5 
Q 64.265625 13.71875 64.796875 16.609375 
L 67.671875 16.609375 
L 64.40625 0 
L 46.6875 0 
Q 45.703125 0 45.703125 1.3125 
Q 45.703125 6.390625 46.9375 11.265625 
Q 48.1875 16.15625 50.625 23.09375 
Q 53.078125 30.03125 54.4375 35.328125 
Q 55.8125 40.625 55.8125 45.515625 
Q 55.8125 51.515625 53.46875 56.640625 
Q 51.125 61.765625 46.625 64.84375 
Q 42.140625 67.921875 36.078125 67.921875 
Q 26.953125 67.921875 21.625 61.40625 
Q 16.3125 54.890625 16.3125 45.515625 
Q 16.359375 40.375 17.53125 35.828125 
Q 18.703125 31.296875 21.3125 23.71875 
Q 23.921875 16.15625 25.171875 11.265625 
Q 26.421875 6.390625 26.421875 1.3125 
Q 26.421875 0 25.390625 0 
z
" id="Cmr10-173"/>
     </defs>
     <use transform="translate(0 0.484375)" xlink:href="#Cmr10-173"/>
    </g>
   </g>
   <g id="text_2">
    <!-- $A$ -->
    <g style="fill:#0000ff;" transform="translate(103.142308 78.497837)scale(0.1 -0.1)">
     <defs>
      <path d="M 4.5 0 
Q 3.515625 0 3.515625 1.3125 
Q 3.90625 3.515625 4.78125 3.515625 
Q 8.84375 3.515625 11.796875 5.125 
Q 14.75 6.734375 16.890625 10.109375 
Q 17.09375 10.296875 17.09375 10.296875 
L 52.78125 70.515625 
Q 53.5625 71.578125 54.6875 71.578125 
L 56 71.578125 
Q 56.296875 71.578125 56.59375 71.453125 
Q 56.890625 71.34375 57.109375 71.0625 
Q 57.328125 70.796875 57.328125 70.515625 
L 63.375 5.90625 
Q 63.375 5.46875 63.8125 4.59375 
Q 64.796875 3.515625 71.296875 3.515625 
Q 72.3125 3.515625 72.3125 2.203125 
Q 71.96875 0.875 71.75 0.4375 
Q 71.53125 0 70.609375 0 
L 45.609375 0 
Q 44.671875 0 44.671875 1.3125 
Q 45.21875 3.515625 46 3.515625 
Q 53.90625 3.515625 54.390625 6.203125 
L 52.875 22.703125 
L 28.21875 22.703125 
L 20.21875 9.28125 
Q 19.484375 8.203125 19.484375 6.78125 
Q 19.484375 5.03125 21.171875 4.265625 
Q 22.859375 3.515625 24.90625 3.515625 
Q 25.875 3.515625 25.875 2.203125 
Q 25.53125 0.78125 25.328125 0.390625 
Q 25.140625 0 24.21875 0 
z
M 30.171875 26.21875 
L 52.484375 26.21875 
L 49.515625 58.59375 
z
" id="Cmmi10-65"/>
     </defs>
     <use transform="translate(0 0.421875)" xlink:href="#Cmmi10-65"/>
    </g>
   </g>
   <g id="text_3">
    <!-- $B$ -->
    <g style="fill:#ff0000;" transform="translate(227.707692 78.497837)scale(0.1 -0.1)">
     <defs>
      <path d="M 4.984375 0 
Q 4 0 4 1.3125 
Q 4.046875 1.5625 4.1875 2.140625 
Q 4.34375 2.734375 4.578125 3.125 
Q 4.828125 3.515625 5.328125 3.515625 
Q 8.15625 3.515625 10.25 3.65625 
Q 12.359375 3.8125 13.8125 4.203125 
Q 14.984375 4.640625 15.71875 6.890625 
L 29.390625 61.8125 
Q 29.59375 62.796875 29.59375 63.1875 
Q 29.59375 64.265625 28.421875 64.40625 
Q 26.515625 64.796875 21.1875 64.796875 
Q 20.21875 64.796875 20.21875 66.109375 
Q 20.265625 66.359375 20.40625 66.96875 
Q 20.5625 67.578125 20.828125 67.9375 
Q 21.09375 68.3125 21.484375 68.3125 
L 57.328125 68.3125 
Q 60.59375 68.3125 63.796875 67.5 
Q 67 66.703125 69.703125 64.9375 
Q 72.40625 63.1875 74 60.5625 
Q 75.59375 57.953125 75.59375 54.5 
Q 75.59375 50.734375 73.65625 47.5 
Q 71.734375 44.28125 68.671875 41.890625 
Q 65.625 39.5 62.078125 37.953125 
Q 58.546875 36.421875 54.6875 35.6875 
Q 57.421875 35.6875 60.21875 34.609375 
Q 63.03125 33.546875 65.234375 31.6875 
Q 67.4375 29.828125 68.78125 27.234375 
Q 70.125 24.65625 70.125 21.6875 
Q 70.125 15.671875 65.921875 10.6875 
Q 61.71875 5.71875 55.34375 2.859375 
Q 48.96875 0 43.015625 0 
z
M 23.390625 4.296875 
Q 23.390625 3.515625 26.8125 3.515625 
L 41.109375 3.515625 
Q 46 3.515625 50.484375 6.21875 
Q 54.984375 8.9375 57.6875 13.421875 
Q 60.40625 17.921875 60.40625 22.796875 
Q 60.40625 25.78125 59.15625 28.4375 
Q 57.90625 31.109375 55.5625 32.640625 
Q 53.21875 34.1875 50.203125 34.1875 
L 30.71875 34.1875 
L 23.78125 6.5 
Q 23.390625 5.125 23.390625 4.296875 
z
M 31.390625 36.8125 
L 46.578125 36.8125 
Q 51.375 36.8125 55.890625 39.25 
Q 60.40625 41.703125 63.25 45.890625 
Q 66.109375 50.09375 66.109375 54.78125 
Q 66.109375 59.125 63.390625 61.953125 
Q 60.6875 64.796875 56.390625 64.796875 
L 42.671875 64.796875 
Q 39.984375 64.796875 39.0625 64.296875 
Q 38.140625 63.8125 37.5 61.375 
z
" id="Cmmi10-66"/>
     </defs>
     <use transform="translate(0 0.6875)" xlink:href="#Cmmi10-66"/>
    </g>
   </g>
   <g id="text_4">
    <!-- $C$ -->
    <g style="fill:#228b22;" transform="translate(150.023077 271.651683)scale(0.1 -0.1)">
     <defs>
      <path d="M 14.59375 21.578125 
Q 14.59375 15.578125 16.90625 11.015625 
Q 19.234375 6.453125 23.65625 3.875 
Q 28.078125 1.3125 34.078125 1.3125 
Q 40.375 1.3125 46.203125 4.53125 
Q 52.046875 7.765625 56.171875 13.15625 
Q 60.296875 18.5625 61.8125 24.609375 
Q 62.015625 25.203125 62.59375 25.203125 
L 63.8125 25.203125 
Q 64.203125 25.203125 64.453125 24.921875 
Q 64.703125 24.65625 64.703125 24.3125 
Q 64.703125 24.21875 64.59375 24.03125 
Q 62.890625 17.09375 57.984375 11.015625 
Q 53.078125 4.9375 46.234375 1.359375 
Q 39.40625 -2.203125 32.171875 -2.203125 
Q 24.359375 -2.203125 18.15625 1.3125 
Q 11.96875 4.828125 8.515625 11.078125 
Q 5.078125 17.328125 5.078125 25.203125 
Q 5.078125 33.59375 8.828125 41.8125 
Q 12.59375 50.046875 18.9375 56.46875 
Q 25.296875 62.890625 33.421875 66.703125 
Q 41.546875 70.515625 49.90625 70.515625 
Q 53.21875 70.515625 56.25 69.5 
Q 59.28125 68.5 61.859375 66.453125 
Q 64.453125 64.40625 66.109375 61.71875 
L 74.03125 70.3125 
Q 74.03125 70.515625 74.515625 70.515625 
L 75.09375 70.515625 
Q 75.484375 70.515625 75.734375 70.171875 
Q 75.984375 69.828125 75.984375 69.484375 
L 69.1875 42.484375 
Q 69.1875 41.796875 68.40625 41.796875 
L 66.609375 41.796875 
Q 65.828125 41.796875 65.828125 42.921875 
Q 66.21875 45.125 66.21875 48.1875 
Q 66.21875 53.078125 64.546875 57.390625 
Q 62.890625 61.71875 59.390625 64.359375 
Q 55.90625 67 50.875 67 
Q 42.71875 67 35.9375 62.890625 
Q 29.15625 58.796875 24.4375 52.125 
Q 19.734375 45.453125 17.15625 37.328125 
Q 14.59375 29.203125 14.59375 21.578125 
z
" id="Cmmi10-67"/>
     </defs>
     <use transform="translate(0 0.484375)" xlink:href="#Cmmi10-67"/>
    </g>
   </g>
   <g id="patch_6">
    <path clip-path="url(#p7fda6b0cbd)" d="M 138.046154 200.353846 
C 154.570347 200.353846 170.419977 193.788715 182.104346 182.104346 
C 193.788715 170.419977 200.353846 154.570347 200.353846 138.046154 
C 200.353846 121.521961 193.788715 105.672331 182.104346 93.987962 
C 170.419977 82.303593 154.570347 75.738462 138.046154 75.738462 
C 121.521961 75.738462 105.672331 82.303593 93.987962 93.987962 
C 82.303593 105.672331 75.738462 121.521961 75.738462 138.046154 
C 75.738462 154.570347 82.303593 170.419977 93.987962 182.104346 
C 105.672331 193.788715 121.521961 200.353846 138.046154 200.353846 
z
" style="fill:none;stroke:#0000ff;stroke-linejoin:miter;"/>
   </g>
   <g id="patch_7">
    <path clip-path="url(#p7fda6b0cbd)" d="M 200.353846 200.353846 
C 216.878039 200.353846 232.727669 193.788715 244.412038 182.104346 
C 256.096407 170.419977 262.661538 154.570347 262.661538 138.046154 
C 262.661538 121.521961 256.096407 105.672331 244.412038 93.987962 
C 232.727669 82.303593 216.878039 75.738462 200.353846 75.738462 
C 183.829653 75.738462 167.980023 82.303593 156.295654 93.987962 
C 144.611285 105.672331 138.046154 121.521961 138.046154 138.046154 
C 138.046154 154.570347 144.611285 170.419977 156.295654 182.104346 
C 167.980023 193.788715 183.829653 200.353846 200.353846 200.353846 
z
" style="fill:none;stroke:#ff0000;stroke-linejoin:miter;"/>
   </g>
   <g id="patch_8">
    <path clip-path="url(#p7fda6b0cbd)" d="M 169.2 262.661538 
C 185.724193 262.661538 201.573823 256.096407 213.258192 244.412038 
C 224.942561 232.727669 231.507692 216.878039 231.507692 200.353846 
C 231.507692 183.829653 224.942561 167.980023 213.258192 156.295654 
C 201.573823 144.611285 185.724193 138.046154 169.2 138.046154 
C 152.675807 138.046154 136.826177 144.611285 125.141808 156.295654 
C 113.457439 167.980023 106.892308 183.829653 106.892308 200.353846 
C 106.892308 216.878039 113.457439 232.727669 125.141808 244.412038 
C 136.826177 256.096407 152.675807 262.661538 169.2 262.661538 
z
" style="fill:none;stroke:#228b22;stroke-linejoin:miter;"/>
   </g>
  </g>
 </g>
 <defs>
  <clipPath id="p7fda6b0cbd">
   <rect height="324" width="324" x="7.2" y="7.2"/>
  </clipPath>
 </defs>
</svg>
