<?xml version="1.0" encoding="utf-8" standalone="no"?>
<!DOCTYPE svg PUBLIC "-//W3C//DTD SVG 1.1//EN"
  "http://www.w3.org/Graphics/SVG/1.1/DTD/svg11.dtd">
<!-- Created with matplotlib (https://matplotlib.org/) -->
<svg height="338.4pt" version="1.1" viewBox="0 0 338.4 338.4" width="338.4pt" xmlns="http://www.w3.org/2000/svg" xmlns:xlink="http://www.w3.org/1999/xlink">
 <metadata>
  <rdf:RDF xmlns:cc="http://creativecommons.org/ns#" xmlns:dc="http://purl.org/dc/elements/1.1/" xmlns:rdf="http://www.w3.org/1999/02/22-rdf-syntax-ns#">
   <cc:Work>
    <dc:type rdf:resource="http://purl.org/dc/dcmitype/StillImage"/>
    <dc:date>2024-08-28T15:20:42.670525</dc:date>
    <dc:format>image/svg+xml</dc:format>
    <dc:creator>
     <cc:Agent>
      <dc:title>Matplotlib v3.3.4, https://matplotlib.org/</dc:title>
     </cc:Agent>
    </dc:creator>
   </cc:Work>
  </rdf:RDF>
 </metadata>
 <defs>
  <style type="text/css">*{stroke-linecap:butt;stroke-linejoin:round;}</style>
 </defs>
 <g id="figure_1">
  <g id="patch_1">
   <path d="M -0 338.4 
L 338.4 338.4 
L 338.4 0 
L -0 0 
z
" style="fill:#ffffff;"/>
  </g>
  <g id="axes_1">
   <g id="patch_2">
    <path d="M 7.2 331.2 
L 331.2 331.2 
L 331.2 7.2 
L 7.2 7.2 
z
" style="fill:#ffffff;"/>
   </g>
   <g id="patch_3">
    <path clip-path="url(#pfa60c0464f)" d="M 13.430769 324.969231 
L 13.430769 13.430769 
L 324.969231 13.430769 
L 324.969231 324.969231 
z
" style="fill:none;stroke:#000000;stroke-linejoin:miter;"/>
   </g>
   <g id="patch_4">
    <path clip-path="url(#pfa60c0464f)" d="M 169.2 192.006198 
L 168.843636 192.210382 
L 168.619291 192.33733 
L 168.257565 192.539449 
L 167.882315 192.745807 
L 167.694612 192.847773 
L 167.429584 192.99033 
L 167.045174 193.194185 
L 166.54844 193.452545 
L 166.44472 193.505779 
L 166.135111 193.663229 
L 165.843549 193.809523 
L 165.493513 193.982644 
L 164.992056 194.225927 
L 164.926195 194.257469 
L 164.655593 194.386071 
L 164.197822 194.600011 
L 163.922326 194.726594 
L 163.662244 194.844608 
L 163.121461 195.085417 
L 162.92286 195.172313 
L 162.685341 195.275159 
L 162.352078 195.417493 
L 161.914745 195.600814 
L 161.529209 195.759191 
L 161.419472 195.80372 
L 161.144872 195.914088 
L 160.660928 196.104922 
L 160.46725 196.17999 
L 160.217239 196.275798 
L 159.815561 196.427156 
L 159.372684 196.59039 
L 159.029222 196.714368 
L 158.936984 196.747276 
L 158.43528 196.923417 
L 158.140904 197.024536 
L 158.071357 197.048186 
L 157.646719 197.190607 
L 157.23349 197.325954 
L 156.913756 197.428492 
L 156.593519 197.529292 
L 156.390152 197.592323 
L 155.926859 197.733078 
L 155.642427 197.817549 
L 155.401779 197.887868 
L 154.977773 198.009216 
L 154.643418 198.102622 
L 154.640475 198.103435 
L 154.295586 198.197666 
L 153.953273 198.289096 
L 153.667428 198.363849 
L 153.157435 198.493633 
L 152.934007 198.549049 
L 152.708421 198.604113 
L 152.153102 198.735877 
L 151.989166 198.77375 
L 151.723628 198.834107 
L 151.281454 198.93191 
L 151.162321 198.957685 
L 150.732804 199.048592 
L 150.432509 199.110274 
L 150.060736 199.184508 
L 149.916497 199.212676 
L 149.322484 199.324967 
L 149.241197 199.339869 
L 148.784579 199.421513 
L 148.497794 199.471 
L 148.244008 199.513644 
L 148.03119 199.548573 
L 147.505564 199.631607 
L 147.274688 199.666627 
L 147.040126 199.7013 
L 146.604761 199.76324 
L 146.190914 199.819218 
L 146.180644 199.820571 
L 145.787685 199.871045 
L 145.500096 199.906378 
L 145.094122 199.953945 
L 144.835303 199.982863 
L 144.443511 200.024556 
L 144.17455 200.051728 
L 143.777425 200.089695 
L 143.537926 200.111353 
L 143.163786 200.143323 
L 142.875185 200.166432 
L 142.734712 200.177192 
L 142.332225 200.206255 
L 141.952488 200.231273 
L 141.616056 200.251494 
L 141.400012 200.263516 
L 141.162497 200.275865 
L 140.641965 200.29975 
L 140.418123 200.308681 
L 140.017053 200.322667 
L 139.698702 200.331928 
L 139.561948 200.335406 
L 139.045213 200.345836 
L 138.966472 200.347049 
L 138.577842 200.351578 
L 138.30073 200.353326 
L 138.011817 200.353837 
L 137.726615 200.353027 
L 137.245882 200.348707 
L 136.839043 200.342152 
L 136.668465 200.338613 
L 136.454867 200.333523 
L 136.040361 200.321553 
L 135.777866 200.312544 
L 135.26946 200.291945 
L 134.959653 200.277352 
L 134.619953 200.259574 
L 134.312555 200.241883 
L 134.279054 200.239863 
L 133.698975 200.202011 
L 133.452763 200.184301 
L 133.23106 200.167514 
L 132.938927 200.144179 
L 132.414228 200.098792 
L 132.236808 200.082434 
L 132.092428 200.068744 
L 131.538778 200.013101 
L 131.348838 199.992861 
L 131.026892 199.957207 
L 130.590346 199.906153 
L 130.488792 199.893828 
L 130.186689 199.856164 
L 129.777629 199.802773 
L 129.291721 199.735767 
L 129.019379 199.696506 
L 128.687813 199.647047 
L 128.589994 199.632107 
L 128.268758 199.581924 
L 127.876131 199.518254 
L 127.508375 199.456281 
L 127.177719 199.398624 
L 127.054361 199.376644 
L 126.498744 199.274463 
L 126.408627 199.257399 
L 125.873189 199.15317 
L 125.601583 199.098436 
L 125.293242 199.034774 
L 125.143683 199.003309 
L 124.886829 198.948376 
L 124.308334 198.820497 
L 124.11022 198.775375 
L 123.651815 198.668357 
L 123.334797 198.592207 
L 123.301805 198.584181 
L 122.854488 198.473481 
L 122.587604 198.405757 
L 122.134888 198.288001 
L 121.922795 198.231582 
L 121.521515 198.122645 
L 121.279577 198.055573 
L 120.836259 197.929942 
L 120.683846 197.88593 
L 120.224903 197.750857 
L 120.084857 197.708875 
L 119.699924 197.591636 
L 119.430094 197.507829 
L 119.046043 197.386227 
L 118.783419 197.301496 
L 118.599238 197.241306 
L 118.007914 197.043759 
L 117.904724 197.008611 
L 117.584694 196.898318 
L 117.379273 196.826495 
L 116.991811 196.688827 
L 116.526805 196.51979 
L 116.349236 196.454135 
L 115.863935 196.271558 
L 115.740285 196.2243 
L 115.258048 196.037108 
L 115.033132 195.948221 
L 114.711102 195.819191 
L 114.508666 195.737013 
L 114.238977 195.626245 
L 113.813382 195.44843 
L 113.398239 195.2714 
L 113.169329 195.172261 
L 112.719124 194.974092 
L 112.424431 194.842068 
L 112.280783 194.777046 
L 111.755761 194.535655 
L 111.61061 194.467874 
L 111.261205 194.302843 
L 110.964382 194.160556 
L 110.741668 194.052525 
L 110.21177 193.791069 
L 110.174944 193.772666 
L 109.80925 193.588262 
L 109.314044 193.333715 
L 108.947839 193.141858 
L 108.881001 193.106506 
L 108.607264 192.960635 
L 108.049374 192.65789 
L 107.741114 192.487435 
L 107.562253 192.387486 
L 107.34473 192.264888 
L 106.892308 192.006198 
L 106.892308 200.353846 
L 106.904004 201.561067 
L 106.9157 202.061035 
L 106.927396 202.444618 
L 106.939092 202.767949 
L 106.950788 203.052768 
L 106.962485 203.310228 
L 106.974181 203.546954 
L 106.985877 203.767262 
L 106.997573 203.97415 
L 107.009269 204.169802 
L 107.020965 204.355866 
L 107.032661 204.533624 
L 107.044358 204.704092 
L 107.056054 204.868098 
L 107.079446 205.17933 
L 107.102838 205.471564 
L 107.126231 205.747887 
L 107.149623 206.010632 
L 107.173015 206.261611 
L 107.196408 206.502264 
L 107.2198 206.733761 
L 107.243192 206.957063 
L 107.266584 207.172978 
L 107.290824 207.389641 
L 107.315063 207.599748 
L 107.363542 208.002437 
L 107.41202 208.384666 
L 107.460499 208.749233 
L 107.500716 209.03986 
L 107.540933 209.320893 
L 107.58115 209.593207 
L 107.621367 209.857552 
L 107.661583 210.114574 
L 107.7018 210.364839 
L 107.782234 210.847014 
L 107.854855 211.263553 
L 107.927476 211.664297 
L 108.000097 212.050869 
L 108.072717 212.42463 
L 108.137344 212.747417 
L 108.201971 213.061679 
L 108.266598 213.368034 
L 108.331225 213.667027 
L 108.399232 213.974242 
L 108.46724 214.274347 
L 108.603254 214.85498 
L 108.739268 215.412014 
L 108.875282 215.947979 
L 108.992866 216.395962 
L 109.110449 216.830932 
L 109.271911 217.408834 
L 109.433373 217.966307 
L 109.536533 218.312666 
L 109.639693 218.651888 
L 109.798823 219.162056 
L 109.957954 219.657434 
L 110.091688 220.063133 
L 110.225422 220.459758 
L 110.359156 220.847836 
L 110.49289 221.227844 
L 110.648705 221.66099 
L 110.80452 222.084387 
L 110.88472 222.298702 
L 111.125322 222.927731 
L 111.269478 223.295144 
L 111.413634 223.655873 
L 111.701947 224.358479 
L 111.771061 224.523361 
L 111.940538 224.92217 
L 112.110015 225.313456 
L 112.301458 225.746847 
L 112.492902 226.171544 
L 112.728081 226.681984 
L 112.96326 227.180653 
L 113.30013 227.875712 
L 113.474178 228.226436 
L 113.829121 228.925061 
L 114.052588 229.354043 
L 114.256835 229.739167 
L 114.52687 230.238581 
L 114.796905 230.727384 
L 115.124991 231.307713 
L 115.402574 231.787673 
L 115.811044 232.476547 
L 116.006862 232.79978 
L 116.357545 233.367834 
L 116.492802 233.583348 
L 116.770123 234.019207 
L 117.047443 234.447238 
L 117.334997 234.883109 
L 117.497002 235.125221 
L 117.748681 235.49656 
L 118.234768 236.197865 
L 118.333919 236.338431 
L 118.725536 236.885709 
L 119.030396 237.303263 
L 119.283561 237.644563 
L 119.625684 238.098193 
L 120.009088 238.596528 
L 120.342751 239.021891 
L 120.66593 239.42676 
L 121.052741 239.902424 
L 121.199849 240.080839 
L 121.462788 240.396413 
L 121.806761 240.802942 
L 122.354205 241.435715 
L 122.453906 241.549128 
L 122.838162 241.981103 
L 123.154173 242.330392 
L 123.568183 242.780085 
L 123.825844 243.055538 
L 124.160264 243.408122 
L 124.559202 243.821624 
L 124.751162 244.017896 
L 124.908462 244.177449 
L 125.493574 244.761017 
L 125.671911 244.935838 
L 125.935807 245.191979 
L 126.368424 245.605417 
L 126.752133 245.965546 
L 126.825125 246.033366 
L 127.111311 246.297189 
L 127.417468 246.575795 
L 127.80657 246.924572 
L 128.09882 247.1827 
L 128.586249 247.60606 
L 128.751824 247.747871 
L 129.103949 248.046144 
L 129.493697 248.371114 
L 129.848174 248.662047 
L 130.113427 248.876916 
L 130.478875 249.169039 
L 130.589177 249.25633 
L 130.998589 249.576816 
L 131.284312 249.797239 
L 131.709134 250.120135 
L 132.025729 250.357067 
L 132.253899 250.525892 
L 132.682898 250.83899 
L 132.850681 250.959928 
L 133.143166 251.168738 
L 133.4958 251.417126 
L 133.691485 251.553396 
L 134.071258 251.814705 
L 134.541098 252.132307 
L 134.641199 252.199172 
L 135.010143 252.443213 
L 135.456453 252.733437 
L 135.750084 252.921437 
L 136.050866 253.111627 
L 136.267007 253.246818 
L 136.582293 253.441827 
L 136.801344 253.575793 
L 137.338682 253.8992 
L 137.488381 253.987994 
L 137.859984 254.205976 
L 138.100783 254.345394 
L 138.401369 254.517421 
L 138.726435 254.700975 
L 139.173773 254.949397 
L 139.362523 255.052781 
L 139.680371 255.224968 
L 139.957252 255.373026 
L 140.432452 255.622976 
L 140.810257 255.817988 
L 140.988213 255.908717 
L 141.460915 256.146244 
L 141.745934 256.287046 
L 141.840526 256.333376 
L 142.127827 256.47288 
L 142.536213 256.668063 
L 142.895315 256.836694 
L 143.058623 256.912461 
L 143.421873 257.078944 
L 143.714485 257.21101 
L 144.147845 257.403281 
L 144.580201 257.591194 
L 144.775906 257.674978 
L 144.991266 257.766264 
L 145.277794 257.886242 
L 145.73389 258.073775 
L 145.907343 258.143989 
L 146.254005 258.282508 
L 146.71268 258.462098 
L 146.961629 258.557827 
L 147.287414 258.681259 
L 147.657989 258.819138 
L 147.890531 258.904295 
L 148.127473 258.989988 
L 148.590592 259.154363 
L 148.743662 259.20779 
L 149.061577 259.31733 
L 149.60622 259.500548 
L 149.89294 259.594761 
L 150.174225 259.685696 
L 150.404084 259.758914 
L 150.78852 259.879185 
L 151.029852 259.953294 
L 151.225637 260.012633 
L 151.771159 260.174278 
L 151.939347 260.223023 
L 152.196886 260.296674 
L 152.455327 260.369381 
L 153.026192 260.525737 
L 153.337882 260.608653 
L 153.452099 260.638605 
L 153.96848 260.771139 
L 154.034094 260.787643 
L 154.54415 260.913359 
L 154.687768 260.947935 
L 155.097366 261.044572 
L 155.483439 261.132991 
L 155.824947 261.209055 
L 156.02237 261.25211 
L 156.490977 261.351627 
L 156.731725 261.401292 
L 156.872699 261.429915 
L 157.167833 261.488742 
L 157.657904 261.583157 
L 157.778166 261.605705 
L 158.307029 261.701965 
L 158.631767 261.75874 
L 158.897405 261.803867 
L 159.293824 261.869017 
L 159.407418 261.887202 
L 159.789221 261.94675 
L 160.051038 261.986184 
L 160.377206 262.03372 
L 160.785993 262.090812 
L 161.092056 262.131753 
L 161.527949 262.187398 
L 161.624463 262.199297 
L 161.946127 262.237849 
L 162.358405 262.284784 
L 162.539934 262.304569 
L 163.013768 262.353677 
L 163.283421 262.379991 
L 163.512135 262.401382 
L 163.947047 262.439714 
L 164.302525 262.468766 
L 164.586424 262.490497 
L 164.85545 262.509887 
L 165.13293 262.52866 
L 165.337735 262.541718 
L 165.631445 262.559263 
L 165.983412 262.578456 
L 166.466324 262.601541 
L 166.796814 262.615176 
L 166.964328 262.621416 
L 167.279966 262.631948 
L 167.479097 262.637769 
L 167.885697 262.647675 
L 168.235735 262.654077 
L 168.527005 262.657904 
L 168.858226 262.660601 
L 169.2 262.661538 
z
" style="fill:#808080;opacity:0.5;"/>
   </g>
   <g id="patch_5">
    <path clip-path="url(#pfa60c0464f)" d="M 231.507692 192.006198 
L 231.292584 192.12982 
L 230.983381 192.305532 
L 230.661205 192.486144 
L 230.202545 192.738966 
L 230.034905 192.830123 
L 229.688371 193.016457 
L 229.35954 193.190675 
L 229.117824 193.317141 
L 228.661529 193.552222 
L 228.300498 193.734871 
L 228.002151 193.883594 
L 227.686255 194.038903 
L 227.298835 194.226365 
L 227.139159 194.302669 
L 226.80011 194.46285 
L 226.647394 194.534187 
L 226.215003 194.733446 
L 225.863761 194.892374 
L 225.438194 195.081441 
L 225.382422 195.105938 
L 224.862116 195.331346 
L 224.751478 195.378554 
L 224.364349 195.541756 
L 223.902718 195.732367 
L 223.698321 195.815384 
L 223.463665 195.909655 
L 222.925988 196.12151 
L 222.854555 196.149223 
L 222.52549 196.275586 
L 222.114168 196.430543 
L 221.687835 196.587673 
L 221.462964 196.669133 
L 221.308496 196.724524 
L 220.923185 196.8607 
L 220.513928 197.002236 
L 220.233856 197.097265 
L 219.910219 197.205234 
L 219.66345 197.286239 
L 219.379978 197.377889 
L 219.063216 197.478536 
L 218.81239 197.556915 
L 218.431238 197.673802 
L 218.102137 197.772586 
L 217.644864 197.906568 
L 217.430092 197.968189 
L 216.953407 198.101987 
L 216.870366 198.124878 
L 216.584951 198.202615 
L 216.259596 198.289458 
L 215.745551 198.422838 
L 215.49552 198.486027 
L 215.127972 198.576921 
L 214.915509 198.628383 
L 214.508323 198.72481 
L 214.425652 198.744035 
L 213.96334 198.849363 
L 213.768246 198.892702 
L 213.350548 198.983287 
L 212.963499 199.064554 
L 212.718597 199.114652 
L 212.563712 199.145808 
L 212.185191 199.220232 
L 211.648329 199.321624 
L 211.541827 199.341159 
L 211.164334 199.408861 
L 210.915636 199.452156 
L 210.681498 199.491968 
L 210.236269 199.565145 
L 209.814959 199.631346 
L 209.580302 199.666938 
L 209.317307 199.705743 
L 209.035482 199.746054 
L 208.772728 199.782456 
L 208.425147 199.828859 
L 208.046686 199.877123 
L 207.662684 199.923689 
L 207.318168 199.963411 
L 207.044696 199.993559 
L 206.698245 200.03 
L 206.310716 200.068442 
L 205.99668 200.097801 
L 205.982583 200.099082 
L 205.368816 200.151698 
L 205.336602 200.154291 
L 204.865614 200.19028 
L 204.591091 200.209602 
L 204.373011 200.224083 
L 203.895431 200.253112 
L 203.609749 200.268719 
L 203.458541 200.276447 
L 203.030479 200.296328 
L 202.815756 200.305189 
L 202.280543 200.32405 
L 201.922395 200.3341 
L 201.661204 200.340129 
L 201.515415 200.343018 
L 201.25936 200.347266 
L 200.692309 200.352927 
L 200.511489 200.353647 
L 200.284262 200.353807 
L 200.025821 200.352983 
L 199.644005 200.349803 
L 199.103161 200.341293 
L 198.827867 200.335157 
L 198.689279 200.331607 
L 198.19674 200.316495 
L 198.008773 200.3097 
L 197.544872 200.290496 
L 197.500708 200.288488 
L 197.194249 200.273684 
L 196.841284 200.254758 
L 196.358857 200.225641 
L 196.093657 200.208034 
L 195.679224 200.178242 
L 195.622535 200.173951 
L 195.071704 200.129545 
L 194.966774 200.120528 
L 194.409625 200.069655 
L 194.313343 200.060353 
L 193.899366 200.018633 
L 193.530131 199.979065 
L 193.171687 199.938521 
L 192.896991 199.906026 
L 192.660126 199.877013 
L 192.385373 199.842205 
L 191.922712 199.780783 
L 191.638154 199.741253 
L 191.474233 199.717873 
L 191.23287 199.682639 
L 190.740259 199.607728 
L 190.452863 199.56216 
L 190.042531 199.494712 
L 189.875264 199.46641 
L 189.56944 199.413451 
L 189.160671 199.34021 
L 189.036962 199.31749 
L 188.591977 199.233628 
L 188.421808 199.200671 
L 187.95151 199.10703 
L 187.553241 199.024781 
L 187.281863 198.967183 
L 187.167471 198.942525 
L 186.663916 198.831303 
L 186.367384 198.763757 
L 186.119065 198.706021 
L 185.730021 198.613408 
L 185.451577 198.5455 
L 185.102423 198.458426 
L 184.853234 198.39497 
L 184.38851 198.273694 
L 184.308412 198.252404 
L 184.063522 198.186605 
L 183.647333 198.072323 
L 183.212102 197.949485 
L 182.928996 197.867748 
L 182.723402 197.807479 
L 182.263 197.669721 
L 182.058108 197.607169 
L 181.792206 197.524839 
L 181.333686 197.379804 
L 181.15044 197.32075 
L 180.729874 197.182845 
L 180.408067 197.075083 
L 180.245703 197.019971 
L 179.974477 196.926795 
L 179.65256 196.814388 
L 179.215277 196.65852 
L 179.026869 196.590228 
L 178.493375 196.393119 
L 178.169769 196.27085 
L 177.876074 196.1581 
L 177.795406 196.126833 
L 177.398543 195.971128 
L 176.966914 195.79821 
L 176.805731 195.732676 
L 176.448318 195.585482 
L 176.232641 195.495401 
L 175.910935 195.359264 
L 175.480107 195.173605 
L 175.19728 195.049625 
L 174.703039 194.828938 
L 174.551579 194.760275 
L 174.34534 194.665993 
L 173.856609 194.438928 
L 173.466897 194.254165 
L 173.41248 194.228102 
L 172.831073 193.945577 
L 172.559044 193.810815 
L 172.257206 193.659348 
L 172.136915 193.598411 
L 171.719042 193.384174 
L 171.438906 193.238316 
L 171.074782 193.046017 
L 170.89514 192.950008 
L 170.386275 192.673923 
L 170.16781 192.553509 
L 169.951411 192.433105 
L 169.407303 192.125355 
L 169.2 192.006198 
L 169.2 262.661538 
L 169.419218 262.661153 
L 169.9555 262.656958 
L 170.242839 262.652811 
L 170.590435 262.646022 
L 170.867133 262.639231 
L 171.167386 262.63047 
L 171.515059 262.618515 
L 171.75435 262.609158 
L 172.014739 262.597928 
L 172.185076 262.589992 
L 172.557465 262.571014 
L 172.875313 262.553047 
L 173.193011 262.53346 
L 173.666033 262.501276 
L 173.766015 262.49401 
L 174.347969 262.448507 
L 174.67811 262.420253 
L 174.885872 262.401565 
L 175.256425 262.366492 
L 175.492085 262.343024 
L 175.763383 262.314887 
L 176.01635 262.287568 
L 176.276095 262.258429 
L 176.73556 262.20418 
L 177.183753 262.147925 
L 177.239879 262.140648 
L 177.777102 262.068365 
L 178.095344 262.023299 
L 178.199631 262.008166 
L 178.621493 261.945112 
L 178.921453 261.898479 
L 179.080675 261.873118 
L 179.53893 261.797764 
L 179.974708 261.722846 
L 180.267889 261.670649 
L 180.539279 261.621042 
L 180.741904 261.583194 
L 181.006235 261.532775 
L 181.348922 261.465647 
L 181.733336 261.387968 
L 182.185378 261.293394 
L 182.212764 261.287552 
L 182.561634 261.212003 
L 182.902118 261.136249 
L 183.373735 261.028007 
L 183.623111 260.969211 
L 184.046914 260.866801 
L 184.213645 260.825649 
L 184.429048 260.771763 
L 184.978122 260.630702 
L 185.223953 260.565817 
L 185.35672 260.530328 
L 185.71121 260.43403 
L 186.107909 260.323598 
L 186.417502 260.235447 
L 186.624944 260.175413 
L 187.004969 260.063406 
L 187.380703 259.950076 
L 187.665173 259.862551 
L 187.831848 259.810576 
L 188.435436 259.618056 
L 188.533685 259.586077 
L 188.784979 259.503463 
L 189.389679 259.299799 
L 189.39793 259.296972 
L 189.760468 259.171494 
L 190.285704 258.985251 
L 190.484698 258.913305 
L 190.67104 258.845238 
L 191.120312 258.678356 
L 191.370617 258.583669 
L 191.667531 258.469753 
L 191.963623 258.354415 
L 192.365972 258.194889 
L 192.637584 258.085364 
L 192.957876 257.954296 
L 193.268085 257.825368 
L 193.651065 257.663479 
L 193.93965 257.539493 
L 194.261151 257.39933 
L 194.655621 257.2244 
L 194.824181 257.148651 
L 195.055219 257.043847 
L 195.541105 256.819718 
L 195.934664 256.634449 
L 196.053294 256.577944 
L 196.512873 256.356127 
L 196.664009 256.282164 
L 197.210733 256.010359 
L 197.30484 255.962897 
L 197.829005 255.694867 
L 197.885425 255.665643 
L 198.349986 255.42223 
L 198.724941 255.22211 
L 198.941981 255.104764 
L 199.386386 254.861008 
L 199.41965 254.842573 
L 199.76216 254.651203 
L 200.207381 254.398188 
L 200.499597 254.229478 
L 200.846203 254.026617 
L 201.001164 253.934948 
L 201.368156 253.715427 
L 201.61857 253.563665 
L 202.134618 253.245806 
L 202.473536 253.033257 
L 202.700807 252.889019 
L 203.05513 252.661386 
L 203.35576 252.465578 
L 203.497196 252.372601 
L 204.015884 252.026883 
L 204.15998 251.929503 
L 204.59872 251.629368 
L 204.791082 251.496034 
L 205.280408 251.152002 
L 205.368062 251.08963 
L 205.948947 250.670478 
L 206.237797 250.458238 
L 206.493272 250.268377 
L 206.672036 250.134315 
L 207.007199 249.880245 
L 207.262017 249.684682 
L 207.866825 249.212061 
L 208.13434 248.999151 
L 208.25472 248.902557 
L 208.706821 248.535374 
L 208.902638 248.374145 
L 209.175435 248.147288 
L 209.438387 247.926115 
L 209.924764 247.510417 
L 210.106503 247.352851 
L 210.505806 247.002307 
L 210.81282 246.728643 
L 211.234853 246.34645 
L 211.544876 246.061176 
L 211.897914 245.731557 
L 212.147563 245.49535 
L 212.418595 245.235931 
L 212.750719 244.913732 
L 213.116677 244.5531 
L 213.263003 244.407226 
L 213.685801 243.980238 
L 213.878827 243.782534 
L 214.14838 243.503489 
L 214.652966 242.97164 
L 214.807228 242.806517 
L 215.161406 242.422809 
L 215.40901 242.150687 
L 215.723032 241.800873 
L 216.284886 241.161468 
L 216.342405 241.095006 
L 216.90829 240.430867 
L 217.056655 240.253584 
L 217.291622 239.97006 
L 217.679477 239.494475 
L 218.01619 239.073714 
L 218.306116 238.705351 
L 218.72699 238.160271 
L 218.868414 237.974282 
L 219.179732 237.559691 
L 219.666534 236.896663 
L 219.968224 236.47636 
L 220.163029 236.200996 
L 220.576459 235.60591 
L 220.999573 234.981187 
L 221.265863 234.579486 
L 221.431019 234.326911 
L 221.825185 233.713079 
L 222.190517 233.129655 
L 222.401356 232.786303 
L 222.790684 232.138861 
L 223.14012 231.542178 
L 223.280175 231.298688 
L 223.528412 230.860766 
L 223.77665 230.414415 
L 224.010746 229.985427 
L 224.225113 229.58543 
L 224.618537 228.83251 
L 224.82566 228.425797 
L 225.032784 228.011554 
L 225.315844 227.432631 
L 225.59777 226.840447 
L 225.771952 226.466348 
L 225.989793 225.989133 
L 226.207634 225.500977 
L 226.416014 225.023184 
L 226.624395 224.534156 
L 226.695078 224.365605 
L 226.980846 223.669558 
L 227.12373 223.312288 
L 227.266614 222.948468 
L 227.406627 222.585291 
L 227.589091 222.101549 
L 227.771556 221.605232 
L 227.961512 221.074205 
L 228.151468 220.527416 
L 228.27439 220.164576 
L 228.386857 219.825994 
L 228.499323 219.480758 
L 228.61179 219.128502 
L 228.724257 218.768821 
L 228.898081 218.197267 
L 229.071904 217.605037 
L 229.194215 217.174747 
L 229.316525 216.732244 
L 229.432059 216.302126 
L 229.547592 215.859221 
L 229.628704 215.540031 
L 229.709817 215.213544 
L 229.790929 214.879268 
L 229.872041 214.536652 
L 230.001563 213.97069 
L 230.066324 213.678226 
L 230.131085 213.378874 
L 230.195846 213.072149 
L 230.260608 212.757504 
L 230.325369 212.434319 
L 230.39013 212.10189 
L 230.466241 211.698281 
L 230.522881 211.38801 
L 230.579521 211.068459 
L 230.636161 210.738772 
L 230.692801 210.397949 
L 230.74944 210.044817 
L 230.80608 209.677977 
L 230.86272 209.295742 
L 230.91936 208.896045 
L 230.964625 208.562358 
L 231.00989 208.214258 
L 231.055154 207.849738 
L 231.100419 207.466272 
L 231.125874 207.241129 
L 231.151328 207.008275 
L 231.176783 206.766871 
L 231.202238 206.515912 
L 231.227692 206.254179 
L 231.253147 205.980169 
L 231.278601 205.691991 
L 231.304056 205.387212 
L 231.32951 205.06261 
L 231.342238 204.891557 
L 231.354965 204.713761 
L 231.367692 204.52836 
L 231.38042 204.334292 
L 231.393147 204.130222 
L 231.405874 203.914429 
L 231.418601 203.684637 
L 231.431329 203.437717 
L 231.444056 203.169166 
L 231.456783 202.872073 
L 231.46951 202.534806 
L 231.482238 202.134684 
L 231.494965 201.613153 
L 231.507692 200.353846 
z
" style="fill:#808080;opacity:0.5;"/>
   </g>
   <g id="matplotlib.axis_1"/>
   <g id="matplotlib.axis_2"/>
   <g id="line2d_1">
    <path clip-path="url(#pfa60c0464f)" d="M 106.892308 200.353846 
L 107.044358 204.704092 
L 107.41202 208.384666 
L 108.000097 212.050869 
L 108.739268 215.412014 
L 109.798823 219.162056 
L 110.88472 222.298702 
L 112.301458 225.746847 
L 113.829121 228.925061 
L 115.402574 231.787673 
L 117.497002 235.125221 
L 119.625684 238.098193 
L 121.806761 240.802942 
L 124.559202 243.821624 
L 127.111311 246.297189 
L 129.848174 248.662047 
L 132.850681 250.959928 
L 136.050866 253.111627 
L 139.362523 255.052781 
L 142.536213 256.668063 
L 145.907343 258.143989 
L 149.061577 259.31733 
L 152.455327 260.369381 
L 156.02237 261.25211 
L 159.789221 261.94675 
L 163.512135 262.401382 
L 167.279966 262.631948 
L 169.2 262.661538 
L 169.2 262.661538 
" style="fill:none;stroke:#228b22;stroke-linecap:square;"/>
   </g>
   <g id="line2d_2">
    <path clip-path="url(#pfa60c0464f)" d="M 169.2 262.661538 
L 172.875313 262.553047 
L 176.73556 262.20418 
L 180.539279 261.621042 
L 184.213645 260.825649 
L 187.831848 259.810576 
L 191.370617 258.583669 
L 194.824181 257.148651 
L 197.885425 255.665643 
L 201.368156 253.715427 
L 204.59872 251.629368 
L 207.262017 249.684682 
L 210.106503 247.352851 
L 212.750719 244.913732 
L 215.40901 242.150687 
L 217.679477 239.494475 
L 219.968224 236.47636 
L 221.825185 233.713079 
L 223.77665 230.414415 
L 225.315844 227.432631 
L 226.695078 224.365605 
L 228.151468 220.527416 
L 229.194215 217.174747 
L 230.131085 213.378874 
L 230.80608 209.677977 
L 231.253147 205.980169 
L 231.482238 202.134684 
L 231.507692 200.353846 
L 231.507692 200.353846 
" style="fill:none;stroke:#228b22;stroke-linecap:square;"/>
   </g>
   <g id="text_1">
    <!-- $\Omega$ -->
    <g transform="translate(16.011538 22.420913)scale(0.1 -0.1)">
     <defs>
      <path d="M 7.71875 0 
L 4.390625 16.609375 
L 7.328125 16.609375 
Q 7.859375 13.71875 8.296875 11.5 
Q 8.734375 9.28125 9.4375 8.375 
Q 10.15625 7.46875 11.71875 7.171875 
Q 13.28125 6.890625 16.890625 6.890625 
L 23 6.890625 
Q 21.53125 12.546875 15.6875 21.65625 
Q 9.859375 30.765625 7.734375 34.890625 
Q 5.609375 39.015625 5.609375 45.515625 
Q 5.609375 53.078125 10.09375 58.765625 
Q 14.59375 64.453125 21.703125 67.484375 
Q 28.8125 70.515625 36.078125 70.515625 
Q 43.3125 70.515625 50.40625 67.484375 
Q 57.515625 64.453125 62 58.71875 
Q 66.5 52.984375 66.5 45.515625 
Q 66.5 40.4375 64.640625 35.9375 
Q 62.796875 31.453125 59.90625 26.953125 
Q 57.03125 22.46875 53.6875 16.9375 
Q 50.34375 11.421875 49.125 6.890625 
L 55.171875 6.890625 
Q 58.84375 6.890625 60.453125 7.171875 
Q 62.0625 7.46875 62.734375 8.375 
Q 63.421875 9.28125 63.84375 11.5 
Q 64.265625 13.71875 64.796875 16.609375 
L 67.671875 16.609375 
L 64.40625 0 
L 46.6875 0 
Q 45.703125 0 45.703125 1.3125 
Q 45.703125 6.390625 46.9375 11.265625 
Q 48.1875 16.15625 50.625 23.09375 
Q 53.078125 30.03125 54.4375 35.328125 
Q 55.8125 40.625 55.8125 45.515625 
Q 55.8125 51.515625 53.46875 56.640625 
Q 51.125 61.765625 46.625 64.84375 
Q 42.140625 67.921875 36.078125 67.921875 
Q 26.953125 67.921875 21.625 61.40625 
Q 16.3125 54.890625 16.3125 45.515625 
Q 16.359375 40.375 17.53125 35.828125 
Q 18.703125 31.296875 21.3125 23.71875 
Q 23.921875 16.15625 25.171875 11.265625 
Q 26.421875 6.390625 26.421875 1.3125 
Q 26.421875 0 25.390625 0 
z
" id="Cmr10-173"/>
     </defs>
     <use transform="translate(0 0.484375)" xlink:href="#Cmr10-173"/>
    </g>
   </g>
   <g id="text_2">
    <!-- $A$ -->
    <g style="fill:#0000ff;" transform="translate(103.142308 78.497837)scale(0.1 -0.1)">
     <defs>
      <path d="M 4.5 0 
Q 3.515625 0 3.515625 1.3125 
Q 3.90625 3.515625 4.78125 3.515625 
Q 8.84375 3.515625 11.796875 5.125 
Q 14.75 6.734375 16.890625 10.109375 
Q 17.09375 10.296875 17.09375 10.296875 
L 52.78125 70.515625 
Q 53.5625 71.578125 54.6875 71.578125 
L 56 71.578125 
Q 56.296875 71.578125 56.59375 71.453125 
Q 56.890625 71.34375 57.109375 71.0625 
Q 57.328125 70.796875 57.328125 70.515625 
L 63.375 5.90625 
Q 63.375 5.46875 63.8125 4.59375 
Q 64.796875 3.515625 71.296875 3.515625 
Q 72.3125 3.515625 72.3125 2.203125 
Q 71.96875 0.875 71.75 0.4375 
Q 71.53125 0 70.609375 0 
L 45.609375 0 
Q 44.671875 0 44.671875 1.3125 
Q 45.21875 3.515625 46 3.515625 
Q 53.90625 3.515625 54.390625 6.203125 
L 52.875 22.703125 
L 28.21875 22.703125 
L 20.21875 9.28125 
Q 19.484375 8.203125 19.484375 6.78125 
Q 19.484375 5.03125 21.171875 4.265625 
Q 22.859375 3.515625 24.90625 3.515625 
Q 25.875 3.515625 25.875 2.203125 
Q 25.53125 0.78125 25.328125 0.390625 
Q 25.140625 0 24.21875 0 
z
M 30.171875 26.21875 
L 52.484375 26.21875 
L 49.515625 58.59375 
z
" id="Cmmi10-65"/>
     </defs>
     <use transform="translate(0 0.421875)" xlink:href="#Cmmi10-65"/>
    </g>
   </g>
   <g id="text_3">
    <!-- $B$ -->
    <g style="fill:#ff0000;" transform="translate(227.707692 78.497837)scale(0.1 -0.1)">
     <defs>
      <path d="M 4.984375 0 
Q 4 0 4 1.3125 
Q 4.046875 1.5625 4.1875 2.140625 
Q 4.34375 2.734375 4.578125 3.125 
Q 4.828125 3.515625 5.328125 3.515625 
Q 8.15625 3.515625 10.25 3.65625 
Q 12.359375 3.8125 13.8125 4.203125 
Q 14.984375 4.640625 15.71875 6.890625 
L 29.390625 61.8125 
Q 29.59375 62.796875 29.59375 63.1875 
Q 29.59375 64.265625 28.421875 64.40625 
Q 26.515625 64.796875 21.1875 64.796875 
Q 20.21875 64.796875 20.21875 66.109375 
Q 20.265625 66.359375 20.40625 66.96875 
Q 20.5625 67.578125 20.828125 67.9375 
Q 21.09375 68.3125 21.484375 68.3125 
L 57.328125 68.3125 
Q 60.59375 68.3125 63.796875 67.5 
Q 67 66.703125 69.703125 64.9375 
Q 72.40625 63.1875 74 60.5625 
Q 75.59375 57.953125 75.59375 54.5 
Q 75.59375 50.734375 73.65625 47.5 
Q 71.734375 44.28125 68.671875 41.890625 
Q 65.625 39.5 62.078125 37.953125 
Q 58.546875 36.421875 54.6875 35.6875 
Q 57.421875 35.6875 60.21875 34.609375 
Q 63.03125 33.546875 65.234375 31.6875 
Q 67.4375 29.828125 68.78125 27.234375 
Q 70.125 24.65625 70.125 21.6875 
Q 70.125 15.671875 65.921875 10.6875 
Q 61.71875 5.71875 55.34375 2.859375 
Q 48.96875 0 43.015625 0 
z
M 23.390625 4.296875 
Q 23.390625 3.515625 26.8125 3.515625 
L 41.109375 3.515625 
Q 46 3.515625 50.484375 6.21875 
Q 54.984375 8.9375 57.6875 13.421875 
Q 60.40625 17.921875 60.40625 22.796875 
Q 60.40625 25.78125 59.15625 28.4375 
Q 57.90625 31.109375 55.5625 32.640625 
Q 53.21875 34.1875 50.203125 34.1875 
L 30.71875 34.1875 
L 23.78125 6.5 
Q 23.390625 5.125 23.390625 4.296875 
z
M 31.390625 36.8125 
L 46.578125 36.8125 
Q 51.375 36.8125 55.890625 39.25 
Q 60.40625 41.703125 63.25 45.890625 
Q 66.109375 50.09375 66.109375 54.78125 
Q 66.109375 59.125 63.390625 61.953125 
Q 60.6875 64.796875 56.390625 64.796875 
L 42.671875 64.796875 
Q 39.984375 64.796875 39.0625 64.296875 
Q 38.140625 63.8125 37.5 61.375 
z
" id="Cmmi10-66"/>
     </defs>
     <use transform="translate(0 0.6875)" xlink:href="#Cmmi10-66"/>
    </g>
   </g>
   <g id="text_4">
    <!-- $C$ -->
    <g style="fill:#228b22;" transform="translate(150.023077 271.651683)scale(0.1 -0.1)">
     <defs>
      <path d="M 14.59375 21.578125 
Q 14.59375 15.578125 16.90625 11.015625 
Q 19.234375 6.453125 23.65625 3.875 
Q 28.078125 1.3125 34.078125 1.3125 
Q 40.375 1.3125 46.203125 4.53125 
Q 52.046875 7.765625 56.171875 13.15625 
Q 60.296875 18.5625 61.8125 24.609375 
Q 62.015625 25.203125 62.59375 25.203125 
L 63.8125 25.203125 
Q 64.203125 25.203125 64.453125 24.921875 
Q 64.703125 24.65625 64.703125 24.3125 
Q 64.703125 24.21875 64.59375 24.03125 
Q 62.890625 17.09375 57.984375 11.015625 
Q 53.078125 4.9375 46.234375 1.359375 
Q 39.40625 -2.203125 32.171875 -2.203125 
Q 24.359375 -2.203125 18.15625 1.3125 
Q 11.96875 4.828125 8.515625 11.078125 
Q 5.078125 17.328125 5.078125 25.203125 
Q 5.078125 33.59375 8.828125 41.8125 
Q 12.59375 50.046875 18.9375 56.46875 
Q 25.296875 62.890625 33.421875 66.703125 
Q 41.546875 70.515625 49.90625 70.515625 
Q 53.21875 70.515625 56.25 69.5 
Q 59.28125 68.5 61.859375 66.453125 
Q 64.453125 64.40625 66.109375 61.71875 
L 74.03125 70.3125 
Q 74.03125 70.515625 74.515625 70.515625 
L 75.09375 70.515625 
Q 75.484375 70.515625 75.734375 70.171875 
Q 75.984375 69.828125 75.984375 69.484375 
L 69.1875 42.484375 
Q 69.1875 41.796875 68.40625 41.796875 
L 66.609375 41.796875 
Q 65.828125 41.796875 65.828125 42.921875 
Q 66.21875 45.125 66.21875 48.1875 
Q 66.21875 53.078125 64.546875 57.390625 
Q 62.890625 61.71875 59.390625 64.359375 
Q 55.90625 67 50.875 67 
Q 42.71875 67 35.9375 62.890625 
Q 29.15625 58.796875 24.4375 52.125 
Q 19.734375 45.453125 17.15625 37.328125 
Q 14.59375 29.203125 14.59375 21.578125 
z
" id="Cmmi10-67"/>
     </defs>
     <use transform="translate(0 0.484375)" xlink:href="#Cmmi10-67"/>
    </g>
   </g>
   <g id="patch_6">
    <path clip-path="url(#pfa60c0464f)" d="M 138.046154 200.353846 
C 154.570347 200.353846 170.419977 193.788715 182.104346 182.104346 
C 193.788715 170.419977 200.353846 154.570347 200.353846 138.046154 
C 200.353846 121.521961 193.788715 105.672331 182.104346 93.987962 
C 170.419977 82.303593 154.570347 75.738462 138.046154 75.738462 
C 121.521961 75.738462 105.672331 82.303593 93.987962 93.987962 
C 82.303593 105.672331 75.738462 121.521961 75.738462 138.046154 
C 75.738462 154.570347 82.303593 170.419977 93.987962 182.104346 
C 105.672331 193.788715 121.521961 200.353846 138.046154 200.353846 
z
" style="fill:none;stroke:#0000ff;stroke-linejoin:miter;"/>
   </g>
   <g id="patch_7">
    <path clip-path="url(#pfa60c0464f)" d="M 200.353846 200.353846 
C 216.878039 200.353846 232.727669 193.788715 244.412038 182.104346 
C 256.096407 170.419977 262.661538 154.570347 262.661538 138.046154 
C 262.661538 121.521961 256.096407 105.672331 244.412038 93.987962 
C 232.727669 82.303593 216.878039 75.738462 200.353846 75.738462 
C 183.829653 75.738462 167.980023 82.303593 156.295654 93.987962 
C 144.611285 105.672331 138.046154 121.521961 138.046154 138.046154 
C 138.046154 154.570347 144.611285 170.419977 156.295654 182.104346 
C 167.980023 193.788715 183.829653 200.353846 200.353846 200.353846 
z
" style="fill:none;stroke:#ff0000;stroke-linejoin:miter;"/>
   </g>
   <g id="patch_8">
    <path clip-path="url(#pfa60c0464f)" d="M 169.2 262.661538 
C 185.724193 262.661538 201.573823 256.096407 213.258192 244.412038 
C 224.942561 232.727669 231.507692 216.878039 231.507692 200.353846 
C 231.507692 183.829653 224.942561 167.980023 213.258192 156.295654 
C 201.573823 144.611285 185.724193 138.046154 169.2 138.046154 
C 152.675807 138.046154 136.826177 144.611285 125.141808 156.295654 
C 113.457439 167.980023 106.892308 183.829653 106.892308 200.353846 
C 106.892308 216.878039 113.457439 232.727669 125.141808 244.412038 
C 136.826177 256.096407 152.675807 262.661538 169.2 262.661538 
z
" style="fill:none;stroke:#228b22;stroke-linejoin:miter;"/>
   </g>
  </g>
 </g>
 <defs>
  <clipPath id="pfa60c0464f">
   <rect height="324" width="324" x="7.2" y="7.2"/>
  </clipPath>
 </defs>
</svg>
