<?xml version="1.0" encoding="utf-8" standalone="no"?>
<!DOCTYPE svg PUBLIC "-//W3C//DTD SVG 1.1//EN"
  "http://www.w3.org/Graphics/SVG/1.1/DTD/svg11.dtd">
<svg xmlns:xlink="http://www.w3.org/1999/xlink" width="338.4pt" height="338.4pt" viewBox="0 0 338.4 338.4" xmlns="http://www.w3.org/2000/svg" version="1.1">
 <metadata>
  <rdf:RDF xmlns:dc="http://purl.org/dc/elements/1.1/" xmlns:cc="http://creativecommons.org/ns#" xmlns:rdf="http://www.w3.org/1999/02/22-rdf-syntax-ns#">
   <cc:Work>
    <dc:type rdf:resource="http://purl.org/dc/dcmitype/StillImage"/>
    <dc:date>2024-12-01T17:05:39.068339</dc:date>
    <dc:format>image/svg+xml</dc:format>
    <dc:creator>
     <cc:Agent>
      <dc:title>Matplotlib v3.6.3, https://matplotlib.org/</dc:title>
     </cc:Agent>
    </dc:creator>
   </cc:Work>
  </rdf:RDF>
 </metadata>
 <defs>
  <style type="text/css">*{stroke-linejoin: round; stroke-linecap: butt}</style>
 </defs>
 <g id="figure_1">
  <g id="patch_1">
   <path d="M -0 338.4 
L 338.4 338.4 
L 338.4 0 
L -0 0 
z
" style="fill: #ffffff"/>
  </g>
  <g id="axes_1">
   <g id="patch_2">
    <path d="M 7.2 331.2 
L 331.2 331.2 
L 331.2 7.2 
L 7.2 7.2 
z
" style="fill: #ffffff"/>
   </g>
   <g id="patch_3">
    <path d="M 13.430769 324.969231 
L 13.430769 13.430769 
L 324.969231 13.430769 
L 324.969231 324.969231 
L 13.430769 324.969231 
z
" clip-path="url(#p1c8e9030ff)" style="fill: none; stroke: #000000; stroke-linejoin: miter"/>
   </g>
   <g id="patch_4">
    <path d="M 169.2 192.006198 
L 169.031926 192.102888 
L 168.643081 192.323926 
L 168.228683 192.555451 
L 168.018329 192.671397 
L 167.755848 192.814599 
L 167.322979 193.047209 
L 167.092156 193.169454 
L 166.630165 193.410428 
L 166.41836 193.519268 
L 166.009273 193.726604 
L 165.874408 193.79413 
L 165.363714 194.046149 
L 165.093833 194.176997 
L 164.667973 194.380222 
L 164.356332 194.526443 
L 164.075502 194.656414 
L 163.913356 194.730688 
L 163.567105 194.88742 
L 163.328521 194.993941 
L 162.81751 195.218074 
L 162.569168 195.325036 
L 162.213026 195.476206 
L 162.141227 195.506366 
L 161.784119 195.654812 
L 161.473167 195.781962 
L 161.169708 195.904168 
L 160.851924 196.030164 
L 160.496644 196.168645 
L 160.071873 196.330939 
L 159.961718 196.372448 
L 159.524354 196.534917 
L 159.118184 196.682474 
L 158.798128 196.796508 
L 158.531141 196.890132 
L 158.20761 197.001766 
L 157.981778 197.078513 
L 157.639142 197.193118 
L 157.210602 197.333357 
L 157.03484 197.389884 
L 156.807508 197.462146 
L 156.510115 197.555234 
L 155.902152 197.740474 
L 155.69421 197.80228 
L 155.316943 197.912408 
L 155.001674 198.002462 
L 154.942973 198.019031 
L 154.571554 198.122436 
L 154.22912 198.215582 
L 154.002292 198.276131 
L 153.56538 198.390185 
L 153.111714 198.505044 
L 152.797529 198.582469 
L 152.704005 198.605182 
L 152.233657 198.717096 
L 152.128082 198.741688 
L 151.542685 198.874537 
L 151.506704 198.882509 
L 150.93527 199.006134 
L 150.676972 199.060177 
L 150.335603 199.12985 
L 150.216518 199.153688 
L 149.843847 199.226731 
L 149.619611 199.269545 
L 149.317504 199.325883 
L 148.977371 199.38747 
L 148.572393 199.45826 
L 148.124032 199.533428 
L 147.860169 199.576095 
L 147.691678 199.602733 
L 147.299439 199.662915 
L 146.845839 199.729329 
L 146.528407 199.773781 
L 146.438316 199.786093 
L 146.183394 199.820209 
L 145.741758 199.876779 
L 145.533795 199.902307 
L 145.156436 199.946819 
L 144.624698 200.005586 
L 144.311346 200.038056 
L 144.001773 200.068562 
L 143.735443 200.093559 
L 143.647944 200.10152 
L 143.217046 200.13891 
L 142.785196 200.173362 
L 142.557696 200.190297 
L 142.152873 200.218361 
L 141.934093 200.232426 
L 141.648815 200.249605 
L 141.201581 200.273895 
L 141.130016 200.277483 
L 140.566475 200.302852 
L 140.251984 200.314788 
L 139.929356 200.32538 
L 139.916452 200.325769 
L 139.466967 200.337645 
L 139.206638 200.343038 
L 138.975639 200.346913 
L 138.660718 200.350815 
L 138.300161 200.353328 
L 137.939154 200.353754 
L 137.515248 200.351584 
L 137.170637 200.347695 
L 136.886171 200.343048 
L 136.646199 200.338117 
L 136.201891 200.326546 
L 135.869719 200.315823 
L 135.773655 200.312391 
L 135.297902 200.293207 
L 135.051402 200.281835 
L 134.808428 200.269668 
L 134.595468 200.258221 
L 134.27776 200.239785 
L 133.813746 200.209931 
L 133.499222 200.187718 
L 133.265116 200.170144 
L 133.021185 200.15089 
L 132.441621 200.101272 
L 132.362767 200.0941 
L 131.795626 200.039536 
L 131.57829 200.017238 
L 131.314298 199.989117 
L 130.963601 199.949998 
L 130.587365 199.905793 
L 130.432155 199.886881 
L 129.990055 199.830843 
L 129.725408 199.795759 
L 129.357841 199.745114 
L 129.15519 199.716238 
L 128.777386 199.660588 
L 128.472359 199.613929 
L 128.114327 199.557188 
L 127.774153 199.501296 
L 127.699984 199.488853 
L 127.329981 199.425403 
L 126.802588 199.330987 
L 126.497089 199.274151 
L 126.42346 199.260217 
L 126.057899 199.189676 
L 125.676188 199.113596 
L 125.353573 199.047358 
L 124.93081 198.957863 
L 124.768222 198.922628 
L 124.520947 198.868167 
L 124.037843 198.758721 
L 123.758407 198.693568 
L 123.507408 198.633887 
L 123.252659 198.57219 
L 122.917274 198.48923 
L 122.702737 198.435127 
L 122.128289 198.286258 
L 121.821008 198.204222 
L 121.52688 198.124121 
L 121.435494 198.098918 
L 121.039722 197.988041 
L 120.794985 197.918064 
L 120.347559 197.787331 
L 120.173144 197.735383 
L 119.783781 197.617407 
L 119.438214 197.510371 
L 119.071349 197.394324 
L 118.871932 197.330197 
L 118.553366 197.226216 
L 118.077505 197.06735 
L 117.843882 196.987792 
L 117.626549 196.912853 
L 117.313172 196.803213 
L 116.778922 196.611958 
L 116.626792 196.55649 
L 116.401001 196.473338 
L 116.035579 196.33666 
L 115.683441 196.202474 
L 115.225801 196.024426 
L 114.888471 195.890516 
L 114.694509 195.812487 
L 114.402856 195.69373 
L 114.151994 195.590203 
L 113.748185 195.420863 
L 113.462278 195.29894 
L 113.017544 195.105923 
L 112.990942 195.094246 
L 112.460407 194.858284 
L 112.185077 194.733483 
L 111.95484 194.627881 
L 111.710658 194.514642 
L 111.281113 194.312317 
L 110.901909 194.130363 
L 110.589692 193.978177 
L 110.198525 193.784454 
L 109.955027 193.662133 
L 109.62869 193.496098 
L 109.382121 193.36904 
L 109.235447 193.292798 
L 108.681742 193.000497 
L 108.50044 192.903235 
L 108.155647 192.716128 
L 107.743093 192.488536 
L 107.468605 192.334845 
L 107.346133 192.265682 
L 106.892308 192.006198 
L 106.892308 200.353846 
L 106.904139 201.568042 
L 106.915971 202.070898 
L 106.927803 202.456696 
L 106.939635 202.781893 
L 106.951466 203.068356 
L 106.963298 203.327301 
L 106.97513 203.565392 
L 106.986961 203.78697 
L 106.998793 203.995051 
L 107.010625 204.191831 
L 107.022456 204.378967 
L 107.034288 204.557748 
L 107.04612 204.729198 
L 107.057952 204.894148 
L 107.081615 205.207171 
L 107.105278 205.501085 
L 107.128942 205.778997 
L 107.152605 206.043251 
L 107.176269 206.29567 
L 107.199932 206.537704 
L 107.223595 206.770528 
L 107.247259 206.99511 
L 107.270922 207.212261 
L 107.317249 207.618393 
L 107.363576 208.002711 
L 107.409902 208.368353 
L 107.456229 208.71777 
L 107.507819 209.090168 
L 107.559409 209.447035 
L 107.610999 209.790133 
L 107.66259 210.120915 
L 107.71418 210.440591 
L 107.76577 210.750187 
L 107.81736 211.050577 
L 107.86895 211.342516 
L 107.926252 211.657663 
L 107.983553 211.963975 
L 108.040854 212.262136 
L 108.098155 212.552742 
L 108.159481 212.855987 
L 108.220807 213.151756 
L 108.282132 213.440554 
L 108.343458 213.722834 
L 108.412847 214.034874 
L 108.482236 214.339611 
L 108.551624 214.63751 
L 108.621013 214.928991 
L 108.75979 215.494176 
L 108.898568 216.037781 
L 108.958733 216.26731 
L 109.083394 216.731946 
L 109.208054 217.182836 
L 109.332714 217.621057 
L 109.457374 218.04755 
L 109.576155 218.443777 
L 109.694935 218.830746 
L 109.824437 219.24276 
L 109.953939 219.645108 
L 110.157577 220.259646 
L 110.361216 220.853749 
L 110.517594 221.297194 
L 110.673973 221.730298 
L 110.896127 222.32899 
L 111.118282 222.909611 
L 111.266479 223.287569 
L 111.414676 223.658456 
L 111.436008 223.711281 
L 111.646686 224.225683 
L 111.857365 224.727411 
L 112.071292 225.224697 
L 112.286775 225.71392 
L 112.502258 226.192086 
L 112.838275 226.917063 
L 113.06998 227.403233 
L 113.406328 228.090369 
L 113.666842 228.608349 
L 113.927356 229.114642 
L 114.051608 229.352181 
L 114.308947 229.836397 
L 114.684834 230.525773 
L 114.930672 230.965748 
L 115.301601 231.614223 
L 115.559625 232.054929 
L 115.795631 232.450916 
L 116.031637 232.840361 
L 116.412383 233.455448 
L 116.625733 233.793268 
L 116.818104 234.093814 
L 117.271214 234.787111 
L 117.391639 234.968037 
L 117.759264 235.512049 
L 118.216654 236.172094 
L 118.459361 236.515097 
L 118.750731 236.920495 
L 119.108832 237.409525 
L 119.515533 237.953079 
L 119.768504 238.285043 
L 120.090417 238.700911 
L 120.500938 239.220926 
L 120.746384 239.526485 
L 121.055451 239.905723 
L 121.229107 240.116164 
L 121.706881 240.685622 
L 121.814837 240.812403 
L 122.184376 241.241248 
L 122.699099 241.825701 
L 122.882385 242.030303 
L 123.189899 242.369547 
L 123.520691 242.728948 
L 123.812988 243.041874 
L 123.973612 243.212012 
L 124.387196 243.644274 
L 124.618241 243.882174 
L 125.104783 244.374981 
L 125.423519 244.691958 
L 125.612849 244.878096 
L 125.892501 245.150152 
L 126.369747 245.606669 
L 126.612545 245.83524 
L 126.934616 246.134692 
L 127.22614 246.40212 
L 127.553624 246.69851 
L 127.807409 246.925318 
L 128.305265 247.363091 
L 128.480162 247.51467 
L 128.911998 247.884104 
L 129.254783 248.172547 
L 129.460556 248.34369 
L 129.59922 248.458178 
L 130.006141 248.790299 
L 130.282937 249.012974 
L 130.793203 249.416729 
L 131.096864 249.652929 
L 131.299288 249.80872 
L 131.5178 249.975418 
L 131.947961 250.299157 
L 132.34712 250.594405 
L 132.447656 250.667996 
L 132.743839 250.883014 
L 133.264282 251.254462 
L 133.545306 251.451706 
L 133.920289 251.711324 
L 134.221013 251.916613 
L 134.306414 251.974445 
L 134.623008 252.187041 
L 135.088026 252.49425 
L 135.419938 252.709896 
L 135.586054 252.816701 
L 136.162238 253.181441 
L 136.289009 253.260511 
L 136.536185 253.41347 
L 136.978678 253.68334 
L 137.18141 253.805305 
L 137.494056 253.991348 
L 138.03806 254.309217 
L 138.23693 254.423586 
L 138.666765 254.667473 
L 138.740568 254.708897 
L 139.21511 254.972111 
L 139.509459 255.132677 
L 139.726164 255.249579 
L 140.028251 255.410704 
L 140.456909 255.635699 
L 140.674182 255.748126 
L 141.015069 255.922346 
L 141.476898 256.154188 
L 141.66273 256.246129 
L 142.042388 256.431584 
L 142.196774 256.506088 
L 142.533352 256.666708 
L 142.894954 256.836526 
L 143.301735 257.024194 
L 143.445513 257.089681 
L 143.90659 257.296729 
L 144.043645 257.35741 
L 144.521371 257.565853 
L 144.62611 257.61092 
L 145.19159 257.850322 
L 145.338872 257.911601 
L 145.864137 258.126556 
L 146.083193 258.214556 
L 146.389915 258.336159 
L 146.812384 258.500584 
L 147.006227 258.574847 
L 147.417441 258.729943 
L 147.457035 258.744702 
L 147.941274 258.922738 
L 148.351433 259.069992 
L 148.651669 259.175735 
L 148.965158 259.284311 
L 149.193431 259.362199 
L 149.532419 259.476048 
L 149.849028 259.580431 
L 150.245882 259.708626 
L 150.461069 259.776914 
L 150.76461 259.871784 
L 151.117446 259.979929 
L 151.223071 260.011859 
L 151.70199 260.154082 
L 152.127005 260.276808 
L 152.30265 260.326574 
L 152.552862 260.396509 
L 152.900821 260.491898 
L 153.169286 260.564017 
L 153.402872 260.625724 
L 153.811453 260.731335 
L 154.0328 260.787318 
L 154.486689 260.899424 
L 154.86933 260.991132 
L 155.201141 261.068593 
L 155.500282 261.13679 
L 155.611327 261.161711 
L 156.115416 261.27217 
L 156.463648 261.345927 
L 156.626456 261.379697 
L 157.116812 261.478678 
L 157.198541 261.494778 
L 157.706393 261.592278 
L 157.992874 261.645353 
L 158.217233 261.685953 
L 158.665225 261.764489 
L 159.022477 261.824706 
L 159.295391 261.869269 
L 159.59497 261.916756 
L 159.727955 261.937358 
L 160.155056 262.001535 
L 160.494661 262.050407 
L 160.612307 262.066892 
L 160.912975 262.107986 
L 161.266203 262.154359 
L 161.830529 262.22419 
L 162.007352 262.244995 
L 162.326797 262.281284 
L 162.745502 262.326324 
L 163.019243 262.354223 
L 163.283234 262.379973 
L 163.515518 262.401692 
L 163.757047 262.423346 
L 164.077426 262.450607 
L 164.439858 262.479441 
L 164.773446 262.504101 
L 165.178507 262.531624 
L 165.384637 262.544613 
L 165.847925 262.571304 
L 165.941608 262.576281 
L 166.374803 262.597455 
L 166.608082 262.607605 
L 167.124206 262.626951 
L 167.292166 262.632323 
L 167.67739 262.642932 
L 167.97438 262.649483 
L 168.307015 262.655139 
L 168.659708 262.659196 
L 169.01038 262.66125 
L 169.2 262.661538 
z
" clip-path="url(#p1c8e9030ff)" style="fill: #808080; opacity: 0.5"/>
   </g>
   <g id="patch_5">
    <path d="M 231.507692 192.006198 
L 231.060589 192.261875 
L 230.880126 192.36369 
L 230.707355 192.460426 
L 230.147552 192.768943 
L 229.78597 192.964262 
L 229.608792 193.058849 
L 229.427499 193.154876 
L 228.91098 193.424296 
L 228.579011 193.594229 
L 228.420383 193.674546 
L 228.053625 193.858077 
L 227.778811 193.993627 
L 227.317885 194.217224 
L 227.013382 194.362383 
L 226.942358 194.39595 
L 226.448876 194.626167 
L 226.223726 194.729466 
L 225.771737 194.933581 
L 225.484718 195.060957 
L 225.136007 195.213391 
L 224.898501 195.315766 
L 224.758011 195.375773 
L 224.346837 195.549066 
L 224.022746 195.683222 
L 223.796297 195.775696 
L 223.386287 195.940499 
L 223.139995 196.037877 
L 222.66676 196.221599 
L 222.423048 196.314489 
L 222.077453 196.444214 
L 221.762645 196.560356 
L 221.341909 196.712582 
L 221.304309 196.72602 
L 220.846074 196.887611 
L 220.424389 197.032778 
L 220.323988 197.066845 
L 220.045846 197.160227 
L 219.629378 197.297334 
L 219.263499 197.415115 
L 218.985652 197.502897 
L 218.775771 197.568261 
L 218.50236 197.652193 
L 218.019754 197.797005 
L 217.596535 197.920507 
L 217.519883 197.942528 
L 217.018368 198.083994 
L 216.856869 198.128587 
L 216.431716 198.24375 
L 216.121581 198.325728 
L 215.811621 198.405956 
L 215.539954 198.474878 
L 215.232614 198.551284 
L 215.046231 198.596813 
L 214.717227 198.6757 
L 214.231494 198.788721 
L 214.100353 198.818533 
L 213.626276 198.923827 
L 213.404256 198.971808 
L 213.145701 199.026618 
L 212.793241 199.099491 
L 212.414916 199.175354 
L 212.226054 199.212314 
L 211.880739 199.278329 
L 211.560243 199.337794 
L 211.230877 199.397101 
L 210.778474 199.47559 
L 210.673409 199.493327 
L 210.339238 199.548515 
L 209.851182 199.62577 
L 209.50957 199.677487 
L 209.194686 199.723444 
L 208.930407 199.760748 
L 208.533022 199.81467 
L 208.451621 199.825394 
L 207.97427 199.88609 
L 207.639461 199.926428 
L 207.549934 199.936903 
L 207.178264 199.978987 
L 206.84868 200.014417 
L 206.328947 200.066688 
L 206.301186 200.069357 
L 205.685644 200.125301 
L 205.504801 200.140567 
L 205.12757 200.170707 
L 204.746084 200.198843 
L 204.733431 200.199736 
L 204.365429 200.224572 
L 203.993472 200.247453 
L 203.675437 200.265247 
L 203.302714 200.284026 
L 202.931689 200.300497 
L 202.762547 200.307271 
L 202.448125 200.31864 
L 201.930031 200.333907 
L 201.626606 200.340845 
L 201.575762 200.341864 
L 201.287671 200.346848 
L 200.908784 200.351375 
L 200.400665 200.353829 
L 200.263448 200.353781 
L 199.90967 200.352263 
L 199.41727 200.346807 
L 199.343217 200.345649 
L 198.936235 200.337717 
L 198.509225 200.326535 
L 198.365246 200.322104 
L 198.054273 200.311397 
L 197.619099 200.293802 
L 197.417352 200.284611 
L 197.166742 200.272281 
L 196.614584 200.241543 
L 196.391262 200.227714 
L 196.26063 200.219252 
L 195.966936 200.199219 
L 195.451174 200.160664 
L 195.293016 200.147978 
L 194.836902 200.109121 
L 194.610428 200.088572 
L 194.197141 200.048924 
L 193.844746 200.01292 
L 193.567573 199.983178 
L 193.188576 199.940479 
L 193.104196 199.930652 
L 192.743855 199.887374 
L 192.452608 199.850838 
L 192.14413 199.810618 
L 191.720042 199.752766 
L 191.49542 199.72092 
L 191.258024 199.686356 
L 190.684067 199.598927 
L 190.511563 199.571579 
L 190.314162 199.539676 
L 189.750947 199.445071 
L 189.507585 199.402548 
L 189.26467 199.359111 
L 188.795998 199.272493 
L 188.756069 199.264942 
L 188.300613 199.1769 
L 187.976901 199.112182 
L 187.698002 199.05499 
L 187.341808 198.980015 
L 187.065574 198.920371 
L 186.746893 198.849931 
L 186.458155 198.784596 
L 185.978952 198.672971 
L 185.830095 198.637483 
L 185.582996 198.57772 
L 185.322011 198.513438 
L 184.757755 198.370365 
L 184.542194 198.314223 
L 184.222153 198.229349 
L 184.059007 198.185382 
L 183.477597 198.024823 
L 183.182515 197.941011 
L 183.022253 197.894833 
L 182.583614 197.766061 
L 182.400844 197.711372 
L 181.881702 197.552695 
L 181.733146 197.506376 
L 181.362038 197.388885 
L 181.034844 197.283175 
L 180.928754 197.248471 
L 180.318782 197.044838 
L 180.102864 196.971074 
L 179.818381 196.872536 
L 179.664459 196.818577 
L 179.077012 196.60847 
L 178.807154 196.50972 
L 178.476324 196.386728 
L 178.183965 196.276257 
L 177.993307 196.20331 
L 177.564374 196.036571 
L 177.409942 195.975644 
L 176.894127 195.768681 
L 176.675018 195.679145 
L 176.52857 195.618758 
L 176.058846 195.42212 
L 175.685856 195.262749 
L 175.523324 195.192402 
L 175.278458 195.085381 
L 174.752901 194.851436 
L 174.481784 194.728469 
L 174.242749 194.618754 
L 173.753565 194.390395 
L 173.466294 194.253876 
L 173.160476 194.10656 
L 173.038896 194.047422 
L 172.658275 193.860165 
L 172.394864 193.728681 
L 171.91148 193.483328 
L 171.549948 193.296348 
L 171.297219 193.163854 
L 170.981651 192.996337 
L 170.747095 192.870317 
L 170.431199 192.698543 
L 170.15823 192.548202 
L 169.804092 192.350491 
L 169.525384 192.192755 
L 169.2 192.006198 
L 169.2 262.661538 
L 169.572863 262.660423 
L 169.777857 262.658859 
L 170.047839 262.65577 
L 170.43147 262.649368 
L 170.758028 262.642056 
L 171.220306 262.628776 
L 171.430086 262.621617 
L 171.656888 262.61308 
L 171.87997 262.603877 
L 172.372629 262.580713 
L 172.751113 262.560262 
L 173.028276 262.54382 
L 173.409339 262.51919 
L 173.623947 262.504286 
L 173.889539 262.484811 
L 174.217709 262.459169 
L 174.623456 262.425052 
L 174.862925 262.403663 
L 175.084119 262.383078 
L 175.464394 262.345829 
L 175.854157 262.305204 
L 176.070111 262.281627 
L 176.270435 262.259076 
L 176.6717 262.211927 
L 177.049153 262.165166 
L 177.430297 262.115572 
L 177.645744 262.086479 
L 178.070654 262.026855 
L 178.354445 261.985369 
L 178.502513 261.963194 
L 178.967561 261.891178 
L 179.293691 261.838527 
L 179.480412 261.807582 
L 179.975368 261.72273 
L 180.212834 261.680561 
L 180.597323 261.610271 
L 180.698731 261.591316 
L 181.184391 261.498125 
L 181.466372 261.442181 
L 181.878763 261.357924 
L 181.960643 261.340849 
L 182.403286 261.246553 
L 182.771473 261.165553 
L 182.991371 261.11606 
L 183.30834 261.043246 
L 183.601349 260.974384 
L 183.964334 260.887002 
L 184.27629 260.810062 
L 184.527613 260.746832 
L 184.794262 260.67853 
L 185.321005 260.539905 
L 185.610563 260.461599 
L 185.872654 260.389428 
L 186.192508 260.299682 
L 186.550415 260.197072 
L 186.664769 260.163798 
L 187.094139 260.036744 
L 187.319408 259.96874 
L 187.528412 259.904815 
L 187.867893 259.799269 
L 188.273265 259.670446 
L 188.575115 259.572538 
L 188.786213 259.503054 
L 189.311442 259.326538 
L 189.422479 259.288555 
L 189.881484 259.129051 
L 190.061724 259.065319 
L 190.58672 258.876122 
L 190.87117 258.771386 
L 191.10609 258.683699 
L 191.295537 258.6122 
L 191.899344 258.379602 
L 192.110288 258.296639 
L 192.227353 258.250215 
L 192.810962 258.014673 
L 192.940712 257.961373 
L 193.181648 257.86149 
L 193.694305 257.645011 
L 193.819905 257.591149 
L 194.242727 257.40742 
L 194.597089 257.250563 
L 194.794379 257.162088 
L 195.080555 257.032284 
L 195.437502 256.867933 
L 195.697279 256.7466 
L 196.148727 256.532264 
L 196.295671 256.461538 
L 196.775227 256.227412 
L 197.068807 256.08156 
L 197.304408 255.963115 
L 197.744147 255.738683 
L 197.855897 255.680947 
L 198.184195 255.509671 
L 198.726797 255.221112 
L 199.066473 255.036954 
L 199.189448 254.969609 
L 199.635443 254.722333 
L 199.993885 254.52012 
L 200.320331 254.333227 
L 200.488589 254.235872 
L 200.959502 253.959653 
L 201.062745 253.898351 
L 201.474478 253.651188 
L 201.897646 253.392629 
L 202.015736 253.319647 
L 202.374982 253.095377 
L 202.581008 252.965222 
L 202.954537 252.726356 
L 203.362103 252.46142 
L 203.606226 252.300551 
L 203.991832 252.04308 
L 204.392844 251.770888 
L 204.561502 251.655042 
L 205.039865 251.321999 
L 205.081449 251.292732 
L 205.429798 251.045564 
L 205.869963 250.728069 
L 206.06616 250.584661 
L 206.591701 250.194685 
L 206.750802 250.074926 
L 207.137743 249.780318 
L 207.421487 249.561228 
L 207.748371 249.305573 
L 208.117462 249.012655 
L 208.411255 248.776217 
L 208.734636 248.512553 
L 209.032367 248.26659 
L 209.380285 247.975199 
L 209.629788 247.763558 
L 209.829516 247.592505 
L 210.334407 247.153516 
L 210.451893 247.04999 
L 210.804282 246.736302 
L 211.162929 246.412082 
L 211.464545 246.135466 
L 211.85945 245.767719 
L 211.960146 245.67292 
L 212.338494 245.312926 
L 212.849435 244.817037 
L 213.064301 244.605079 
L 213.436794 244.232709 
L 213.597933 244.069656 
L 214.106655 243.546911 
L 214.421506 243.217163 
L 214.459437 243.177109 
L 214.964166 242.63729 
L 215.187415 242.394377 
L 215.504202 242.045205 
L 215.791247 241.724176 
L 216.217404 241.239201 
L 216.421049 241.003829 
L 216.810924 240.546488 
L 217.097795 240.204188 
L 217.309526 239.948316 
L 217.580101 239.617243 
L 218.118698 238.944123 
L 218.210521 238.827439 
L 218.521307 238.42821 
L 218.935456 237.885605 
L 219.369146 237.303884 
L 219.665354 236.898292 
L 220.041027 236.37382 
L 220.206953 236.13847 
L 220.610365 235.556444 
L 220.905461 235.121558 
L 221.176171 234.715542 
L 221.508605 234.207329 
L 221.703368 233.904478 
L 221.957583 233.503294 
L 222.211799 233.095222 
L 222.377369 232.825617 
L 222.627187 232.41292 
L 222.877004 231.992869 
L 222.941424 231.883322 
L 223.381866 231.120287 
L 223.642646 230.656434 
L 224.053658 229.905914 
L 224.400162 229.253511 
L 224.724371 228.625611 
L 224.87578 228.326262 
L 225.125638 227.823312 
L 225.375496 227.308663 
L 225.700551 226.620485 
L 225.906761 226.172284 
L 226.084375 225.778567 
L 226.261988 225.377396 
L 226.566613 224.670923 
L 226.756844 224.217169 
L 226.947076 223.753072 
L 227.099166 223.374164 
L 227.251257 222.987893 
L 227.348828 222.736034 
L 227.57499 222.139369 
L 227.801153 221.523481 
L 227.972639 221.042621 
L 228.144126 220.548859 
L 228.321129 220.024653 
L 228.498132 219.484453 
L 228.630899 219.067926 
L 228.763666 218.640952 
L 228.920467 218.1222 
L 229.077267 217.586414 
L 229.212949 217.107785 
L 229.370612 216.53241 
L 229.528276 215.934208 
L 229.637122 215.506496 
L 229.745969 215.065549 
L 229.854815 214.610141 
L 229.963661 214.138837 
L 230.085436 213.590622 
L 230.146323 213.307388 
L 230.20721 213.017529 
L 230.266273 212.72958 
L 230.325337 212.434481 
L 230.3844 212.131694 
L 230.443463 211.820611 
L 230.502527 211.500537 
L 230.56159 211.170674 
L 230.620654 210.830097 
L 230.679717 210.477725 
L 230.720907 210.224336 
L 230.762096 209.964092 
L 230.803286 209.69642 
L 230.844476 209.420662 
L 230.885665 209.136057 
L 230.926855 208.841715 
L 230.968044 208.536585 
L 231.009234 208.219411 
L 231.059162 207.816596 
L 231.084126 207.606675 
L 231.109089 207.390405 
L 231.134053 207.167183 
L 231.159017 206.936301 
L 231.183981 206.696923 
L 231.208945 206.448047 
L 231.227617 206.254974 
L 231.246288 206.055305 
L 231.26496 205.848322 
L 231.283632 205.633164 
L 231.302303 205.408787 
L 231.320975 205.173905 
L 231.339647 204.926899 
L 231.358319 204.665685 
L 231.37699 204.387504 
L 231.395662 204.088568 
L 231.404998 203.929704 
L 231.414334 203.763421 
L 231.42367 203.588574 
L 231.433005 203.403691 
L 231.442341 203.206822 
L 231.451677 202.995287 
L 231.461013 202.765231 
L 231.470349 202.510736 
L 231.479685 202.221837 
L 231.489021 201.879112 
L 231.498356 201.432412 
L 231.507692 200.353846 
z
" clip-path="url(#p1c8e9030ff)" style="fill: #808080; opacity: 0.5"/>
   </g>
   <g id="matplotlib.axis_1"/>
   <g id="matplotlib.axis_2"/>
   <g id="line2d_1">
    <path d="M 106.892308 200.353846 
L 107.034288 204.557748 
L 107.363576 208.002711 
L 107.926252 211.657663 
L 108.621013 214.928991 
L 109.576155 218.443777 
L 110.673973 221.730298 
L 112.071292 225.224697 
L 113.666842 228.608349 
L 115.559625 232.054929 
L 117.391639 234.968037 
L 119.515533 237.953079 
L 121.814837 240.812403 
L 124.387196 243.644274 
L 126.934616 246.134692 
L 129.59922 248.458178 
L 132.743839 250.883014 
L 135.586054 252.816701 
L 138.740568 254.708897 
L 142.196774 256.506088 
L 145.338872 257.911601 
L 148.965158 259.284311 
L 152.552862 260.396509 
L 156.115416 261.27217 
L 159.727955 261.937358 
L 163.515518 262.401692 
L 167.292166 262.632323 
L 169.2 262.661538 
L 169.2 262.661538 
" clip-path="url(#p1c8e9030ff)" style="fill: none; stroke: #ff0000; stroke-linecap: square"/>
   </g>
   <g id="line2d_2">
    <path d="M 169.2 262.661538 
L 173.028276 262.54382 
L 176.6717 262.211927 
L 180.212834 261.680561 
L 183.964334 260.887002 
L 187.528412 259.904815 
L 191.10609 258.683699 
L 194.597089 257.250563 
L 197.855897 255.680947 
L 201.062745 253.898351 
L 204.392844 251.770888 
L 207.421487 249.561228 
L 210.334407 247.153516 
L 213.064301 244.605079 
L 215.791247 241.724176 
L 218.210521 238.827439 
L 220.206953 236.13847 
L 222.377369 232.825617 
L 224.053658 229.905914 
L 225.700551 226.620485 
L 227.251257 222.987893 
L 228.498132 219.484453 
L 229.528276 215.934208 
L 230.3844 212.131694 
L 230.968044 208.536585 
L 231.339647 204.926899 
L 231.498356 201.432412 
L 231.507692 200.353846 
L 231.507692 200.353846 
" clip-path="url(#p1c8e9030ff)" style="fill: none; stroke: #ff0000; stroke-linecap: square"/>
   </g>
   <g id="text_1">
    <!-- $\Omega$ -->
    <g transform="translate(16.011538 22.420913) scale(0.1 -0.1)">
     <defs>
      <path id="Cmr10-ad" d="M 494 0 
L 281 1063 
L 469 1063 
Q 503 878 531 736 
Q 559 594 604 536 
Q 650 478 750 459 
Q 850 441 1081 441 
L 1472 441 
Q 1378 803 1004 1386 
Q 631 1969 495 2233 
Q 359 2497 359 2913 
Q 359 3397 646 3761 
Q 934 4125 1389 4319 
Q 1844 4513 2309 4513 
Q 2772 4513 3226 4319 
Q 3681 4125 3968 3758 
Q 4256 3391 4256 2913 
Q 4256 2588 4137 2300 
Q 4019 2013 3834 1725 
Q 3650 1438 3436 1084 
Q 3222 731 3144 441 
L 3531 441 
Q 3766 441 3869 459 
Q 3972 478 4015 536 
Q 4059 594 4086 736 
Q 4113 878 4147 1063 
L 4331 1063 
L 4122 0 
L 2988 0 
Q 2925 0 2925 84 
Q 2925 409 3004 721 
Q 3084 1034 3240 1478 
Q 3397 1922 3484 2261 
Q 3572 2600 3572 2913 
Q 3572 3297 3422 3625 
Q 3272 3953 2984 4150 
Q 2697 4347 2309 4347 
Q 1725 4347 1384 3930 
Q 1044 3513 1044 2913 
Q 1047 2584 1122 2293 
Q 1197 2003 1364 1518 
Q 1531 1034 1611 721 
Q 1691 409 1691 84 
Q 1691 0 1625 0 
L 494 0 
z
" transform="scale(0.015625)"/>
     </defs>
     <use xlink:href="#Cmr10-ad" transform="translate(0 0.484375)"/>
    </g>
   </g>
   <g id="text_2">
    <!-- $A$ -->
    <g style="fill: #0000ff" transform="translate(103.142308 78.497837) scale(0.1 -0.1)">
     <defs>
      <path id="Cmmi10-41" d="M 288 0 
Q 225 0 225 84 
Q 250 225 306 225 
Q 566 225 755 328 
Q 944 431 1081 647 
Q 1094 659 1094 659 
L 3378 4513 
Q 3428 4581 3500 4581 
L 3584 4581 
Q 3603 4581 3622 4573 
Q 3641 4566 3655 4548 
Q 3669 4531 3669 4513 
L 4056 378 
Q 4056 350 4084 294 
Q 4147 225 4563 225 
Q 4628 225 4628 141 
Q 4606 56 4592 28 
Q 4578 0 4519 0 
L 2919 0 
Q 2859 0 2859 84 
Q 2894 225 2944 225 
Q 3450 225 3481 397 
L 3384 1453 
L 1806 1453 
L 1294 594 
Q 1247 525 1247 434 
Q 1247 322 1355 273 
Q 1463 225 1594 225 
Q 1656 225 1656 141 
Q 1634 50 1621 25 
Q 1609 0 1550 0 
L 288 0 
z
M 1931 1678 
L 3359 1678 
L 3169 3750 
L 1931 1678 
z
" transform="scale(0.015625)"/>
     </defs>
     <use xlink:href="#Cmmi10-41" transform="translate(0 0.421875)"/>
    </g>
   </g>
   <g id="text_3">
    <!-- $B$ -->
    <g style="fill: #ff0000" transform="translate(149.823077 271.651683) scale(0.1 -0.1)">
     <defs>
      <path id="Cmmi10-42" d="M 319 0 
Q 256 0 256 84 
Q 259 100 268 137 
Q 278 175 293 200 
Q 309 225 341 225 
Q 522 225 656 234 
Q 791 244 884 269 
Q 959 297 1006 441 
L 1881 3956 
Q 1894 4019 1894 4044 
Q 1894 4113 1819 4122 
Q 1697 4147 1356 4147 
Q 1294 4147 1294 4231 
Q 1297 4247 1306 4286 
Q 1316 4325 1333 4348 
Q 1350 4372 1375 4372 
L 3669 4372 
Q 3878 4372 4083 4320 
Q 4288 4269 4461 4156 
Q 4634 4044 4736 3876 
Q 4838 3709 4838 3488 
Q 4838 3247 4714 3040 
Q 4591 2834 4395 2681 
Q 4200 2528 3973 2429 
Q 3747 2331 3500 2284 
Q 3675 2284 3854 2215 
Q 4034 2147 4175 2028 
Q 4316 1909 4402 1743 
Q 4488 1578 4488 1388 
Q 4488 1003 4219 684 
Q 3950 366 3542 183 
Q 3134 0 2753 0 
L 319 0 
z
M 1497 275 
Q 1497 225 1716 225 
L 2631 225 
Q 2944 225 3231 398 
Q 3519 572 3692 859 
Q 3866 1147 3866 1459 
Q 3866 1650 3786 1820 
Q 3706 1991 3556 2089 
Q 3406 2188 3213 2188 
L 1966 2188 
L 1522 416 
Q 1497 328 1497 275 
z
M 2009 2356 
L 2981 2356 
Q 3288 2356 3577 2512 
Q 3866 2669 4048 2937 
Q 4231 3206 4231 3506 
Q 4231 3784 4057 3965 
Q 3884 4147 3609 4147 
L 2731 4147 
Q 2559 4147 2500 4115 
Q 2441 4084 2400 3928 
L 2009 2356 
z
" transform="scale(0.015625)"/>
     </defs>
     <use xlink:href="#Cmmi10-42" transform="translate(0 0.6875)"/>
    </g>
   </g>
   <g id="text_4">
    <!-- $C$ -->
    <g style="fill: #228b22" transform="translate(227.907692 78.497837) scale(0.1 -0.1)">
     <defs>
      <path id="Cmmi10-43" d="M 934 1381 
Q 934 997 1082 705 
Q 1231 413 1514 248 
Q 1797 84 2181 84 
Q 2584 84 2957 290 
Q 3331 497 3595 842 
Q 3859 1188 3956 1575 
Q 3969 1613 4006 1613 
L 4084 1613 
Q 4109 1613 4125 1595 
Q 4141 1578 4141 1556 
Q 4141 1550 4134 1538 
Q 4025 1094 3711 705 
Q 3397 316 2959 87 
Q 2522 -141 2059 -141 
Q 1559 -141 1162 84 
Q 766 309 545 709 
Q 325 1109 325 1613 
Q 325 2150 565 2676 
Q 806 3203 1212 3614 
Q 1619 4025 2139 4269 
Q 2659 4513 3194 4513 
Q 3406 4513 3600 4448 
Q 3794 4384 3959 4253 
Q 4125 4122 4231 3950 
L 4738 4500 
Q 4738 4513 4769 4513 
L 4806 4513 
Q 4831 4513 4847 4491 
Q 4863 4469 4863 4447 
L 4428 2719 
Q 4428 2675 4378 2675 
L 4263 2675 
Q 4213 2675 4213 2747 
Q 4238 2888 4238 3084 
Q 4238 3397 4131 3673 
Q 4025 3950 3801 4119 
Q 3578 4288 3256 4288 
Q 2734 4288 2300 4025 
Q 1866 3763 1564 3336 
Q 1263 2909 1098 2389 
Q 934 1869 934 1381 
z
" transform="scale(0.015625)"/>
     </defs>
     <use xlink:href="#Cmmi10-43" transform="translate(0 0.484375)"/>
    </g>
   </g>
   <g id="patch_6">
    <path d="M 138.046154 200.353846 
C 154.570347 200.353846 170.419977 193.788715 182.104346 182.104346 
C 193.788715 170.419977 200.353846 154.570347 200.353846 138.046154 
C 200.353846 121.521961 193.788715 105.672331 182.104346 93.987962 
C 170.419977 82.303593 154.570347 75.738462 138.046154 75.738462 
C 121.521961 75.738462 105.672331 82.303593 93.987962 93.987962 
C 82.303593 105.672331 75.738462 121.521961 75.738462 138.046154 
C 75.738462 154.570347 82.303593 170.419977 93.987962 182.104346 
C 105.672331 193.788715 121.521961 200.353846 138.046154 200.353846 
L 138.046154 200.353846 
z
" clip-path="url(#p1c8e9030ff)" style="fill: none; stroke: #0000ff; stroke-linejoin: miter"/>
   </g>
   <g id="patch_7">
    <path d="M 169.2 262.661538 
C 185.724193 262.661538 201.573823 256.096407 213.258192 244.412038 
C 224.942561 232.727669 231.507692 216.878039 231.507692 200.353846 
C 231.507692 183.829653 224.942561 167.980023 213.258192 156.295654 
C 201.573823 144.611285 185.724193 138.046154 169.2 138.046154 
C 152.675807 138.046154 136.826177 144.611285 125.141808 156.295654 
C 113.457439 167.980023 106.892308 183.829653 106.892308 200.353846 
C 106.892308 216.878039 113.457439 232.727669 125.141808 244.412038 
C 136.826177 256.096407 152.675807 262.661538 169.2 262.661538 
L 169.2 262.661538 
z
" clip-path="url(#p1c8e9030ff)" style="fill: none; stroke: #ff0000; stroke-linejoin: miter"/>
   </g>
   <g id="patch_8">
    <path d="M 200.353846 200.353846 
C 216.878039 200.353846 232.727669 193.788715 244.412038 182.104346 
C 256.096407 170.419977 262.661538 154.570347 262.661538 138.046154 
C 262.661538 121.521961 256.096407 105.672331 244.412038 93.987962 
C 232.727669 82.303593 216.878039 75.738462 200.353846 75.738462 
C 183.829653 75.738462 167.980023 82.303593 156.295654 93.987962 
C 144.611285 105.672331 138.046154 121.521961 138.046154 138.046154 
C 138.046154 154.570347 144.611285 170.419977 156.295654 182.104346 
C 167.980023 193.788715 183.829653 200.353846 200.353846 200.353846 
L 200.353846 200.353846 
z
" clip-path="url(#p1c8e9030ff)" style="fill: none; stroke: #228b22; stroke-linejoin: miter"/>
   </g>
  </g>
 </g>
 <defs>
  <clipPath id="p1c8e9030ff">
   <rect x="7.2" y="7.2" width="324" height="324"/>
  </clipPath>
 </defs>
</svg>
