<?xml version="1.0" encoding="utf-8" standalone="no"?>
<!DOCTYPE svg PUBLIC "-//W3C//DTD SVG 1.1//EN"
  "http://www.w3.org/Graphics/SVG/1.1/DTD/svg11.dtd">
<svg xmlns:xlink="http://www.w3.org/1999/xlink" width="338.4pt" height="338.4pt" viewBox="0 0 338.4 338.4" xmlns="http://www.w3.org/2000/svg" version="1.1">
 <metadata>
  <rdf:RDF xmlns:dc="http://purl.org/dc/elements/1.1/" xmlns:cc="http://creativecommons.org/ns#" xmlns:rdf="http://www.w3.org/1999/02/22-rdf-syntax-ns#">
   <cc:Work>
    <dc:type rdf:resource="http://purl.org/dc/dcmitype/StillImage"/>
    <dc:date>2024-12-01T17:04:49.097620</dc:date>
    <dc:format>image/svg+xml</dc:format>
    <dc:creator>
     <cc:Agent>
      <dc:title>Matplotlib v3.6.3, https://matplotlib.org/</dc:title>
     </cc:Agent>
    </dc:creator>
   </cc:Work>
  </rdf:RDF>
 </metadata>
 <defs>
  <style type="text/css">*{stroke-linejoin: round; stroke-linecap: butt}</style>
 </defs>
 <g id="figure_1">
  <g id="patch_1">
   <path d="M -0 338.4 
L 338.4 338.4 
L 338.4 0 
L -0 0 
z
" style="fill: #ffffff"/>
  </g>
  <g id="axes_1">
   <g id="patch_2">
    <path d="M 7.2 331.2 
L 331.2 331.2 
L 331.2 7.2 
L 7.2 7.2 
z
" style="fill: #ffffff"/>
   </g>
   <g id="patch_3">
    <path d="M 13.430769 324.969231 
L 13.430769 13.430769 
L 324.969231 13.430769 
L 324.969231 324.969231 
L 13.430769 324.969231 
z
" clip-path="url(#pc339596194)" style="fill: none; stroke: #000000; stroke-linejoin: miter"/>
   </g>
   <g id="patch_4">
    <path d="M 200.353846 138.046154 
L 200.35047 138.694738 
L 200.347095 138.963378 
L 200.343719 139.169504 
L 200.340343 139.343269 
L 200.336967 139.496353 
L 200.333592 139.634746 
L 200.330216 139.762007 
L 200.32684 139.880453 
L 200.323464 139.991695 
L 200.320088 140.096907 
L 200.316713 140.196972 
L 200.313337 140.29258 
L 200.309961 140.384277 
L 200.306585 140.472506 
L 200.299834 140.639963 
L 200.293082 140.797229 
L 200.286331 140.945963 
L 200.279579 141.087417 
L 200.272828 141.222564 
L 200.266076 141.352177 
L 200.259325 141.476883 
L 200.252573 141.597199 
L 200.245822 141.713559 
L 200.234131 141.906732 
L 200.22244 142.090657 
L 200.210749 142.266541 
L 200.199058 142.435351 
L 200.187367 142.597875 
L 200.175676 142.754764 
L 200.163985 142.906563 
L 200.152294 143.053736 
L 200.140603 143.196678 
L 200.128912 143.335733 
L 200.117221 143.4712 
L 200.10553 143.603341 
L 200.082148 143.858547 
L 200.058766 144.102919 
L 200.040563 144.28649 
L 200.022359 144.464762 
L 200.004155 144.638164 
L 199.985951 144.807072 
L 199.967748 144.971813 
L 199.949544 145.132679 
L 199.93134 145.289927 
L 199.913136 145.443789 
L 199.893593 145.605437 
L 199.87405 145.76365 
L 199.834964 146.070582 
L 199.795878 146.366014 
L 199.756792 146.651132 
L 199.724404 146.88029 
L 199.692016 147.103537 
L 199.659628 147.321299 
L 199.62724 147.533953 
L 199.594852 147.741837 
L 199.562464 147.94525 
L 199.530076 148.144462 
L 199.497688 148.339718 
L 199.464061 148.538496 
L 199.430433 148.733472 
L 199.396806 148.92485 
L 199.363178 149.112817 
L 199.323143 149.332391 
L 199.283107 149.547636 
L 199.243071 149.758788 
L 199.203036 149.966067 
L 199.158277 150.193454 
L 199.113519 150.4165 
L 199.044192 150.753943 
L 198.974865 151.082286 
L 198.905783 151.401082 
L 198.836701 151.712094 
L 198.770636 152.002722 
L 198.704571 152.287115 
L 198.638506 152.565637 
L 198.572441 152.838621 
L 198.506575 153.105569 
L 198.440709 153.367584 
L 198.362186 153.673845 
L 198.287949 153.957618 
L 198.213711 154.236078 
L 198.115224 154.597752 
L 198.016736 154.951116 
L 197.889965 155.394549 
L 197.822303 155.62627 
L 197.754642 155.854719 
L 197.630049 156.26724 
L 197.505456 156.669792 
L 197.402996 156.993813 
L 197.285073 157.359336 
L 197.144226 157.786122 
L 197.00338 158.20289 
L 196.987168 158.250246 
L 196.846369 158.656424 
L 196.70557 159.053806 
L 196.652844 159.200454 
L 196.483148 159.664808 
L 196.316995 160.108737 
L 196.213528 160.3801 
L 196.110061 160.64773 
L 196.006191 160.91278 
L 195.83988 161.329919 
L 195.681145 161.720112 
L 195.556794 162.020614 
L 195.343534 162.525916 
L 195.211251 162.833251 
L 195.084984 163.122445 
L 194.958717 163.407714 
L 194.819819 163.717139 
L 194.741419 163.889827 
L 194.507316 164.397354 
L 194.332936 164.767806 
L 194.212558 165.019911 
L 194.059636 165.336048 
L 193.999101 165.459951 
L 193.865407 165.731159 
L 193.731713 165.999097 
L 193.568014 166.32285 
L 193.44846 166.55638 
L 193.267464 166.905389 
L 193.076241 167.268372 
L 193.019235 167.375472 
L 192.878912 167.636983 
L 192.625479 168.101865 
L 192.544513 168.248428 
L 192.350456 168.595971 
L 192.191493 168.876832 
L 192.019233 169.177413 
L 191.912232 169.36219 
L 191.711575 169.704819 
L 191.642947 169.820865 
L 191.502997 170.055754 
L 191.295837 170.399203 
L 191.184725 170.581378 
L 190.941003 170.976131 
L 190.872229 171.086345 
L 190.724147 171.321935 
L 190.469735 171.721318 
L 190.4095 171.814905 
L 190.189555 172.153546 
L 189.974748 172.479707 
L 189.894636 172.60022 
L 189.672073 172.931867 
L 189.594191 173.046846 
L 189.425067 173.29464 
L 189.206754 173.610764 
L 189.125163 173.727849 
L 188.943048 173.987143 
L 188.832997 174.142484 
L 188.569979 174.509719 
L 188.404938 174.737316 
L 188.243769 174.957506 
L 188.116679 175.129722 
L 188.04045 175.232427 
L 187.813657 175.535408 
L 187.713078 175.668556 
L 187.441049 176.025001 
L 187.281922 176.231068 
L 187.139364 176.414177 
L 187.033442 176.549324 
L 186.912349 176.702893 
L 186.700548 176.969135 
L 186.593906 177.102066 
L 186.41563 177.322639 
L 186.297549 177.467612 
L 186.080084 177.732299 
L 185.944617 177.895693 
L 185.7795 178.093329 
L 185.609784 178.294751 
L 185.55266 178.362161 
L 185.345016 178.605569 
L 185.149082 178.832949 
L 184.937694 179.075801 
L 184.8884 179.13207 
L 184.643744 179.40934 
L 184.471963 179.602053 
L 184.401711 179.680405 
L 184.164278 179.943256 
L 184.027845 180.092944 
L 183.944931 180.183439 
L 183.755808 180.388521 
L 183.660013 180.4917 
L 183.513696 180.648398 
L 183.252117 180.925863 
L 183.084604 181.101775 
L 182.93132 181.261549 
L 182.809029 181.388207 
L 182.657564 181.544091 
L 182.541316 181.662998 
L 182.385622 181.821262 
L 182.236915 181.971376 
L 182.062933 182.145719 
L 181.936576 182.271479 
L 181.751236 182.454647 
L 181.59456 182.6083 
L 181.455634 182.743643 
L 181.206629 182.984132 
L 181.065952 183.118823 
L 181.000391 183.181307 
L 180.843453 183.330143 
L 180.654829 183.507668 
L 180.547217 183.608289 
L 180.298938 183.838629 
L 180.22237 183.909159 
L 180.054361 184.063097 
L 179.780785 184.311357 
L 179.763765 184.326705 
L 179.485598 184.57594 
L 179.306086 184.735194 
L 179.295217 184.744797 
L 179.015959 184.989988 
L 178.982785 185.01892 
L 178.731713 185.236553 
L 178.591266 185.357277 
L 178.407051 185.514527 
L 178.220768 185.672291 
L 178.05254 185.813691 
L 177.954645 185.895509 
L 177.778023 186.042269 
L 177.671559 186.130203 
L 177.540203 186.238151 
L 177.37511 186.372976 
L 177.215279 186.50261 
L 176.971192 186.698902 
L 176.808409 186.828693 
L 176.676071 186.933556 
L 176.538865 187.041661 
L 176.3549 187.185634 
L 176.280088 187.243865 
L 176.147301 187.346773 
L 175.930682 187.513426 
L 175.780612 187.627998 
L 175.652538 187.725208 
L 175.396903 187.91769 
L 175.316022 187.978162 
L 175.084742 188.149961 
L 174.953119 188.246995 
L 174.828306 188.338517 
L 174.731387 188.409258 
L 174.594308 188.508823 
L 174.378887 188.664145 
L 174.179838 188.806428 
L 174.019017 188.920525 
L 173.935095 188.979762 
L 173.730276 189.123468 
L 173.624512 189.197194 
L 173.385799 189.362409 
L 173.235051 189.465898 
L 173.085048 189.568231 
L 172.931007 189.672654 
L 172.728876 189.808662 
L 172.670844 189.847499 
L 172.415757 190.017097 
L 172.375732 190.043544 
L 172.190509 190.165359 
L 171.947724 190.323607 
L 171.815976 190.408809 
L 171.651232 190.51469 
L 171.491053 190.616937 
L 171.432697 190.654017 
L 171.291454 190.743389 
L 171.055194 190.891701 
L 170.958618 190.951902 
L 170.723959 191.097163 
L 170.659647 191.136723 
L 170.523359 191.220204 
L 170.344152 191.329245 
L 170.185561 191.425055 
L 169.977221 191.549943 
L 169.870369 191.613568 
L 169.619999 191.761522 
L 169.521712 191.819174 
L 169.295044 191.951213 
L 169.2 192.006198 
L 169.2 192.006198 
L 169.328324 192.080083 
L 169.516113 192.187476 
L 169.67412 192.277168 
L 169.785066 192.339783 
L 170.029406 192.476631 
L 170.064699 192.496279 
L 170.280092 192.61554 
L 170.404572 192.683957 
L 170.568571 192.773532 
L 170.690159 192.839531 
L 170.926578 192.966864 
L 171.069868 193.043401 
L 171.245374 193.136492 
L 171.37252 193.203486 
L 171.61244 193.328883 
L 171.755662 193.403108 
L 171.825828 193.439301 
L 171.95528 193.505779 
L 172.217742 193.639392 
L 172.276531 193.669107 
L 172.564394 193.813482 
L 172.62397 193.843129 
L 172.735534 193.898435 
L 172.98501 194.021107 
L 173.140081 194.096663 
L 173.339302 194.192952 
L 173.443059 194.242755 
L 173.549131 194.293427 
L 173.805581 194.414923 
L 173.967542 194.490919 
L 174.051396 194.530042 
L 174.285362 194.638403 
L 174.42282 194.701519 
L 174.47352 194.724697 
L 174.655146 194.807279 
L 174.77247 194.860252 
L 175.048973 194.983944 
L 175.165797 195.03572 
L 175.244144 195.070283 
L 175.474178 195.171023 
L 175.601482 195.226299 
L 175.710026 195.273164 
L 175.864428 195.339408 
L 176.073676 195.428397 
L 176.196203 195.480088 
L 176.378883 195.556585 
L 176.602663 195.649364 
L 176.677843 195.680305 
L 176.946423 195.789907 
L 177.061163 195.836287 
L 177.13796 195.867181 
L 177.356321 195.954377 
L 177.556837 196.033609 
L 177.636863 196.065006 
L 177.79713 196.127503 
L 177.900979 196.167727 
L 178.114874 196.249905 
L 178.2097 196.286048 
L 178.389123 196.353953 
L 178.632181 196.444936 
L 178.699079 196.469775 
L 178.875935 196.535023 
L 179.13875 196.630864 
L 179.281701 196.682433 
L 179.423633 196.733245 
L 179.57698 196.787709 
L 179.753458 196.849832 
L 179.778003 196.858425 
L 179.970883 196.92555 
L 180.133033 196.981434 
L 180.239547 197.017872 
L 180.537182 197.118553 
L 180.564517 197.127716 
L 180.727016 197.181896 
L 180.879095 197.232154 
L 181.091798 197.301719 
L 181.321942 197.376038 
L 181.384374 197.396029 
L 181.495704 197.431497 
L 181.654814 197.481789 
L 181.823785 197.534685 
L 182.021808 197.596006 
L 182.126785 197.628221 
L 182.41501 197.715632 
L 182.466796 197.731177 
L 182.71512 197.805035 
L 182.846856 197.843761 
L 182.99412 197.886679 
L 183.066372 197.907592 
L 183.273243 197.966948 
L 183.504262 198.032319 
L 183.671637 198.079082 
L 183.717683 198.091858 
L 183.930197 198.150332 
L 184.05436 198.184123 
L 184.29288 198.248263 
L 184.407806 198.278805 
L 184.599856 198.329322 
L 184.634336 198.338322 
L 184.882791 198.402553 
L 184.971275 198.425165 
L 185.146719 198.469591 
L 185.302974 198.508702 
L 185.538711 198.566897 
L 185.629895 198.589145 
L 185.852299 198.642801 
L 185.903997 198.65515 
L 186.141179 198.711206 
L 186.292828 198.746535 
L 186.437864 198.77995 
L 186.617484 198.820827 
L 186.77199 198.855542 
L 186.812145 198.864497 
L 186.986441 198.903043 
L 187.134922 198.935468 
L 187.331902 198.977898 
L 187.451475 199.00333 
L 187.656522 199.046371 
L 187.861198 199.088617 
L 187.994387 199.115723 
L 188.178462 199.152688 
L 188.256317 199.168149 
L 188.513672 199.218523 
L 188.686084 199.251643 
L 188.743481 199.262556 
L 188.95791 199.302836 
L 189.118228 199.332444 
L 189.190187 199.345593 
L 189.348859 199.374278 
L 189.577002 199.414779 
L 189.670088 199.431053 
L 189.832991 199.459183 
L 189.99958 199.487489 
L 190.146593 199.512083 
L 190.403717 199.55423 
L 190.558155 199.579015 
L 190.615319 199.588088 
L 190.768017 199.612057 
L 190.914609 199.634702 
L 191.124577 199.666517 
L 191.316231 199.694917 
L 191.449401 199.714293 
L 191.555113 199.729465 
L 191.786348 199.762007 
L 191.886076 199.775769 
L 192.066726 199.800281 
L 192.256021 199.825388 
L 192.337107 199.835962 
L 192.460025 199.851786 
L 192.73858 199.886725 
L 192.8709 199.902876 
L 192.988314 199.916967 
L 193.134848 199.934235 
L 193.302155 199.953521 
L 193.411603 199.96589 
L 193.612255 199.988058 
L 193.834171 200.011809 
L 193.989116 200.027915 
L 194.073838 200.036556 
L 194.233111 200.052485 
L 194.375993 200.066423 
L 194.561156 200.083991 
L 194.781715 200.10419 
L 194.85303 200.110552 
L 195.060921 200.128627 
L 195.219769 200.141965 
L 195.33022 200.150998 
L 195.546949 200.168149 
L 195.604083 200.172543 
L 195.812047 200.188093 
L 196.024655 200.203266 
L 196.0582 200.205594 
L 196.215222 200.216246 
L 196.447415 200.231267 
L 196.533921 200.236641 
L 196.811418 200.253064 
L 196.975804 200.262208 
L 197.029903 200.265121 
L 197.165382 200.272211 
L 197.31942 200.279913 
L 197.487001 200.287858 
L 197.634127 200.29446 
L 197.882561 200.304818 
L 197.931947 200.306759 
L 198.146722 200.314742 
L 198.32925 200.320944 
L 198.536152 200.327327 
L 198.567205 200.328225 
L 198.841183 200.335482 
L 198.980027 200.338699 
L 199.124198 200.341711 
L 199.217437 200.343482 
L 199.394458 200.34646 
L 199.585366 200.349107 
L 199.66822 200.350074 
L 199.855012 200.351849 
L 200.023036 200.352968 
L 200.155813 200.353531 
L 200.353846 200.353846 
z
" clip-path="url(#pc339596194)" style="fill: #808080; opacity: 0.5"/>
   </g>
   <g id="patch_5">
    <path d="M 231.507692 200.353846 
L 231.500677 199.418849 
L 231.493661 199.031597 
L 231.486645 198.734474 
L 231.479629 198.484009 
L 231.472614 198.263363 
L 231.465598 198.063901 
L 231.458582 197.880493 
L 231.451566 197.709795 
L 231.444551 197.549485 
L 231.437535 197.397873 
L 231.430519 197.253683 
L 231.423503 197.115923 
L 231.416488 196.983803 
L 231.409472 196.856686 
L 231.402456 196.734043 
L 231.39544 196.615435 
L 231.388425 196.500489 
L 231.381409 196.388886 
L 231.367377 196.174647 
L 231.353346 195.970912 
L 231.339314 195.776279 
L 231.325283 195.589632 
L 231.311251 195.410066 
L 231.29722 195.236836 
L 231.283188 195.069319 
L 231.269748 194.913722 
L 231.256307 194.762485 
L 231.242866 194.615264 
L 231.229425 194.471758 
L 231.212807 194.299075 
L 231.19619 194.131227 
L 231.179572 193.967832 
L 231.162954 193.808558 
L 231.146337 193.653109 
L 231.129719 193.501226 
L 231.096484 193.207252 
L 231.07099 192.989806 
L 231.045497 192.778685 
L 231.020003 192.573374 
L 230.994509 192.373424 
L 230.969016 192.178443 
L 230.943522 191.988083 
L 230.918028 191.802035 
L 230.892535 191.620023 
L 230.866763 191.439878 
L 230.840992 191.263376 
L 230.81522 191.090308 
L 230.789449 190.920484 
L 230.756097 190.70525 
L 230.722746 190.494826 
L 230.689394 190.28891 
L 230.656042 190.087232 
L 230.622691 189.889547 
L 230.589339 189.695632 
L 230.555988 189.505285 
L 230.522636 189.318321 
L 230.475266 189.058259 
L 230.427896 188.804246 
L 230.359819 188.449013 
L 230.291742 188.104455 
L 230.250103 187.89859 
L 230.208465 187.69621 
L 230.166826 187.497151 
L 230.125188 187.301259 
L 230.038938 186.904974 
L 229.952688 186.520574 
L 229.903064 186.304416 
L 229.853441 186.091707 
L 229.803818 185.882294 
L 229.754194 185.676036 
L 229.680942 185.377057 
L 229.625546 185.1551 
L 229.570151 184.936536 
L 229.459359 184.509032 
L 229.361539 184.141576 
L 229.26372 183.782844 
L 229.186396 183.505082 
L 229.109072 183.232175 
L 229.022715 182.932844 
L 228.936358 182.638991 
L 228.813601 182.230186 
L 228.724537 181.939774 
L 228.635472 181.654296 
L 228.58959 181.509084 
L 228.484272 181.180333 
L 228.378954 180.857694 
L 228.243421 180.451007 
L 228.117208 180.080437 
L 227.990995 179.717292 
L 227.935945 179.561124 
L 227.844069 179.30339 
L 227.752193 179.049169 
L 227.619543 178.688078 
L 227.500549 178.369885 
L 227.381554 178.056866 
L 227.351322 177.97814 
L 227.186178 177.55359 
L 227.080676 177.287077 
L 226.975175 177.024086 
L 226.824206 176.653648 
L 226.721851 176.406296 
L 226.597438 176.109616 
L 226.473024 175.817155 
L 226.392649 175.630387 
L 226.254419 175.313044 
L 226.061085 174.877082 
L 225.939665 174.6078 
L 225.796725 174.295081 
L 225.653784 173.986845 
L 225.635246 173.947189 
L 225.454534 173.564373 
L 225.293277 173.228346 
L 225.142541 172.918821 
L 224.947811 172.525262 
L 224.736987 172.106871 
L 224.67149 171.978464 
L 224.497936 171.64171 
L 224.356161 171.370292 
L 224.204527 171.083546 
L 223.93926 170.590414 
L 223.88229 170.485875 
L 223.603369 169.9808 
L 223.536136 169.860685 
L 223.327745 169.492289 
L 223.217971 169.300548 
L 223.045204 169.001931 
L 222.930592 168.805915 
L 222.693113 168.404897 
L 222.545409 168.158879 
L 222.482027 168.054092 
L 222.265028 167.69881 
L 222.125899 167.473796 
L 221.909736 167.12837 
L 221.840104 167.018161 
L 221.640264 166.704667 
L 221.488769 166.469732 
L 221.337498 166.23743 
L 221.137643 165.933943 
L 220.975607 165.690681 
L 220.79669 165.424916 
L 220.757427 165.366988 
L 220.526031 165.028401 
L 220.394461 164.837996 
L 220.314073 164.722399 
L 220.009232 164.289036 
L 219.857805 164.076645 
L 219.827853 164.034856 
L 219.53527 163.630433 
L 219.428829 163.48498 
L 219.293923 163.301891 
L 219.104743 163.047477 
L 218.968295 162.865644 
L 218.765688 162.59817 
L 218.631808 162.423055 
L 218.565978 162.337419 
L 218.35459 162.06449 
L 218.254921 161.936881 
L 218.017973 161.636227 
L 217.849268 161.424458 
L 217.723033 161.267227 
L 217.523516 161.020827 
L 217.41078 160.882727 
L 217.189398 160.613864 
L 217.164917 160.58432 
L 216.960322 160.338847 
L 216.789254 160.135549 
L 216.649151 159.970352 
L 216.544672 159.847913 
L 216.369024 159.643507 
L 216.196425 159.444379 
L 216.0418 159.267422 
L 215.85215 159.052207 
L 215.665231 158.84203 
L 215.567351 158.73273 
L 215.440184 158.591495 
L 215.254363 158.386667 
L 215.035261 158.147479 
L 214.900298 158.001381 
L 214.738996 157.827991 
L 214.54382 157.619943 
L 214.458909 157.530025 
L 214.259242 157.319985 
L 214.172074 157.228898 
L 214.038639 157.090178 
L 213.792381 156.8364 
L 213.711361 156.753534 
L 213.456293 156.49465 
L 213.342343 156.379967 
L 213.181929 156.219523 
L 213.093319 156.131396 
L 212.878596 155.919301 
L 212.755583 155.798715 
L 212.615489 155.662193 
L 212.36602 155.421194 
L 212.249116 155.309178 
L 212.160645 155.224792 
L 211.927727 155.004206 
L 211.855395 154.936165 
L 211.687598 154.779155 
L 211.417479 154.528821 
L 211.358133 154.474218 
L 211.081329 154.221398 
L 210.977298 154.127166 
L 210.907036 154.063764 
L 210.673154 153.854104 
L 210.537457 153.73343 
L 210.410823 153.621453 
L 210.26494 153.49321 
L 210.095138 153.344952 
L 209.826335 153.112451 
L 209.694477 152.999376 
L 209.598361 152.917353 
L 209.459717 152.799628 
L 209.210378 152.589653 
L 209.116073 152.510815 
L 208.889842 152.322971 
L 208.826716 152.270877 
L 208.609266 152.092492 
L 208.572152 152.062209 
L 208.369219 151.897465 
L 208.145027 151.717097 
L 208.074178 151.66045 
L 207.84472 151.478146 
L 207.725131 151.383827 
L 207.512006 151.216908 
L 207.396608 151.127149 
L 207.288615 151.043543 
L 207.020391 150.83752 
L 206.871005 150.723776 
L 206.795225 150.666347 
L 206.679494 150.578992 
L 206.485353 150.4334 
L 206.320186 150.310462 
L 206.202329 150.223255 
L 205.952887 150.040093 
L 205.830677 149.951048 
L 205.625579 149.802627 
L 205.474674 149.694232 
L 205.433609 149.664852 
L 205.193217 149.493873 
L 205.076824 149.411703 
L 204.926932 149.306468 
L 204.794806 149.21425 
L 204.614246 149.089046 
L 204.383396 148.930338 
L 204.28935 148.866119 
L 204.139175 148.764094 
L 203.883804 148.592062 
L 203.752478 148.504306 
L 203.632459 148.424526 
L 203.440876 148.298002 
L 203.294093 148.201748 
L 203.104445 148.078258 
L 202.973018 147.993252 
L 202.909827 147.952548 
L 202.72758 147.835755 
L 202.544725 147.719467 
L 202.427164 147.645175 
L 202.243757 147.530001 
L 202.038187 147.401962 
L 201.846675 147.283674 
L 201.765033 147.233538 
L 201.556964 147.106542 
L 201.499942 147.071933 
L 201.343391 146.977344 
L 201.149911 146.861307 
L 200.989539 146.765846 
L 200.752082 146.625691 
L 200.661335 146.572502 
L 200.561684 146.514332 
L 200.353846 146.393802 
L 200.353846 200.353846 
L 200.528872 200.3536 
L 200.621309 200.353272 
L 200.76048 200.352519 
L 201.02269 200.350256 
L 201.058554 200.349861 
L 201.271846 200.347083 
L 201.511384 200.343093 
L 201.646048 200.340445 
L 201.817671 200.336649 
L 201.94548 200.333514 
L 202.079808 200.329936 
L 202.198002 200.326549 
L 202.460953 200.318207 
L 202.598825 200.313389 
L 202.654227 200.311367 
L 202.800758 200.305781 
L 203.034915 200.296137 
L 203.153643 200.29091 
L 203.352576 200.281643 
L 203.556239 200.271496 
L 203.630503 200.26763 
L 203.732339 200.262183 
L 203.935737 200.250805 
L 204.17232 200.23673 
L 204.244018 200.232286 
L 204.407575 200.221839 
L 204.639059 200.206314 
L 204.757122 200.198062 
L 204.920119 200.186299 
L 205.04652 200.176882 
L 205.258787 200.160485 
L 205.345759 200.153555 
L 205.531557 200.138342 
L 205.639085 200.129282 
L 205.85483 200.110537 
L 206.065962 200.091462 
L 206.197786 200.079184 
L 206.22808 200.076323 
L 206.447782 200.055125 
L 206.627352 200.037215 
L 206.821063 200.017305 
L 206.893121 200.009743 
L 207.115427 199.985879 
L 207.253334 199.970669 
L 207.362133 199.95845 
L 207.541219 199.937916 
L 207.725126 199.916282 
L 207.887542 199.896715 
L 207.986862 199.884537 
L 208.137185 199.865796 
L 208.296856 199.845483 
L 208.455106 199.824937 
L 208.651079 199.798923 
L 208.805093 199.778033 
L 209.042182 199.745111 
L 209.114944 199.734821 
L 209.255207 199.714738 
L 209.506307 199.677972 
L 209.565994 199.669079 
L 209.721341 199.645655 
L 209.848578 199.626172 
L 209.982826 199.605323 
L 210.222137 199.567413 
L 210.344693 199.547629 
L 210.604462 199.504867 
L 210.764335 199.477988 
L 210.8087 199.470453 
L 210.923882 199.450737 
L 211.090475 199.421827 
L 211.238959 199.395668 
L 211.49115 199.350387 
L 211.684823 199.314885 
L 211.778653 199.297458 
L 211.961118 199.263143 
L 212.159075 199.225277 
L 212.17858 199.22151 
L 212.334287 199.191207 
L 212.577293 199.143092 
L 212.674336 199.123597 
L 212.937055 199.070013 
L 213.06183 199.044151 
L 213.190042 199.017299 
L 213.351777 198.983025 
L 213.553032 198.93975 
L 213.666563 198.91503 
L 213.773122 198.891627 
L 213.980269 198.845571 
L 214.190025 198.79818 
L 214.280379 198.777531 
L 214.485951 198.730024 
L 214.530316 198.719676 
L 214.73183 198.672238 
L 214.874352 198.638261 
L 215.025541 198.60183 
L 215.224772 198.553212 
L 215.409398 198.507537 
L 215.480271 198.489845 
L 215.629053 198.452417 
L 215.776331 198.414983 
L 215.943992 198.371902 
L 216.12431 198.325014 
L 216.252206 198.291408 
L 216.504238 198.224334 
L 216.652857 198.184251 
L 216.771159 198.152063 
L 216.961209 198.09983 
L 217.165614 198.042929 
L 217.257604 198.017076 
L 217.419351 197.971249 
L 217.550376 197.933781 
L 217.698537 197.891039 
L 217.905841 197.830567 
L 218.079365 197.779348 
L 218.262492 197.724701 
L 218.430123 197.67414 
L 218.558257 197.635146 
L 218.748076 197.576825 
L 218.874833 197.537511 
L 219.059096 197.479832 
L 219.148172 197.451724 
L 219.326239 197.395095 
L 219.491873 197.341891 
L 219.629214 197.297388 
L 219.818937 197.235332 
L 219.960581 197.188562 
L 220.025324 197.167059 
L 220.292898 197.077355 
L 220.429856 197.030918 
L 220.599527 196.972896 
L 220.762715 196.916576 
L 220.885104 196.874004 
L 221.041549 196.81917 
L 221.217405 196.756974 
L 221.380484 196.698767 
L 221.45987 196.670247 
L 221.572001 196.629756 
L 221.778123 196.554691 
L 221.915854 196.504073 
L 222.105281 196.433854 
L 222.333294 196.348404 
L 222.453031 196.303124 
L 222.593902 196.249491 
L 222.769839 196.181958 
L 222.83714 196.155964 
L 223.119585 196.045892 
L 223.240391 195.998329 
L 223.404577 195.933219 
L 223.482015 195.902323 
L 223.730498 195.802372 
L 223.867862 195.746584 
L 223.918421 195.725954 
L 224.171263 195.62201 
L 224.268334 195.581758 
L 224.490762 195.488802 
L 224.550453 195.463684 
L 224.755654 195.376776 
L 224.95448 195.291742 
L 225.141324 195.211086 
L 225.179842 195.194369 
L 225.453768 195.074589 
L 225.572918 195.021999 
L 225.719476 194.956903 
L 225.870667 194.889275 
L 226.103466 194.784198 
L 226.220115 194.731114 
L 226.33689 194.677682 
L 226.517293 194.594563 
L 226.583943 194.563678 
L 226.859773 194.434844 
L 226.898579 194.416587 
L 227.090915 194.325615 
L 227.261811 194.244107 
L 227.451979 194.152657 
L 227.528787 194.115496 
L 227.769113 193.99838 
L 227.905972 193.931115 
L 228.067027 193.851423 
L 228.298246 193.736001 
L 228.31274 193.728725 
L 228.595382 193.585907 
L 228.743316 193.510435 
L 228.862972 193.449026 
L 229.033855 193.36076 
L 229.15802 193.296205 
L 229.374174 193.182975 
L 229.430373 193.15336 
L 229.639271 193.04263 
L 229.796407 192.958667 
L 229.873552 192.917234 
L 230.106494 192.791276 
L 230.192308 192.744551 
L 230.344588 192.661206 
L 230.500855 192.575104 
L 230.733659 192.445745 
L 230.902622 192.351041 
L 231.113034 192.232138 
L 231.121314 192.227437 
L 231.38754 192.07539 
L 231.507692 192.006198 
z
" clip-path="url(#pc339596194)" style="fill: #808080; opacity: 0.5"/>
   </g>
   <g id="matplotlib.axis_1"/>
   <g id="matplotlib.axis_2"/>
   <g id="line2d_1">
    <path d="M 169.2 192.006198 
L 172.276531 193.669107 
L 175.710026 195.273164 
L 179.13875 196.630864 
L 182.71512 197.805035 
L 186.292828 198.746535 
L 189.99958 199.487489 
L 193.612255 199.988058 
L 197.31942 200.279913 
L 200.353846 200.353846 
L 200.353846 200.353846 
" clip-path="url(#pc339596194)" style="fill: none; stroke: #ff0000; stroke-linecap: square"/>
   </g>
   <g id="line2d_2">
    <path d="M 200.353846 200.353846 
L 203.935737 200.250805 
L 207.725126 199.916282 
L 211.238959 199.395668 
L 214.874352 198.638261 
L 218.430123 197.67414 
L 221.915854 196.504073 
L 225.453768 195.074589 
L 228.862972 193.449026 
L 231.507692 192.006198 
L 231.507692 192.006198 
" clip-path="url(#pc339596194)" style="fill: none; stroke: #ff0000; stroke-linecap: square"/>
   </g>
   <g id="text_1">
    <!-- $\Omega$ -->
    <g transform="translate(16.011538 22.420913) scale(0.1 -0.1)">
     <defs>
      <path id="Cmr10-ad" d="M 494 0 
L 281 1063 
L 469 1063 
Q 503 878 531 736 
Q 559 594 604 536 
Q 650 478 750 459 
Q 850 441 1081 441 
L 1472 441 
Q 1378 803 1004 1386 
Q 631 1969 495 2233 
Q 359 2497 359 2913 
Q 359 3397 646 3761 
Q 934 4125 1389 4319 
Q 1844 4513 2309 4513 
Q 2772 4513 3226 4319 
Q 3681 4125 3968 3758 
Q 4256 3391 4256 2913 
Q 4256 2588 4137 2300 
Q 4019 2013 3834 1725 
Q 3650 1438 3436 1084 
Q 3222 731 3144 441 
L 3531 441 
Q 3766 441 3869 459 
Q 3972 478 4015 536 
Q 4059 594 4086 736 
Q 4113 878 4147 1063 
L 4331 1063 
L 4122 0 
L 2988 0 
Q 2925 0 2925 84 
Q 2925 409 3004 721 
Q 3084 1034 3240 1478 
Q 3397 1922 3484 2261 
Q 3572 2600 3572 2913 
Q 3572 3297 3422 3625 
Q 3272 3953 2984 4150 
Q 2697 4347 2309 4347 
Q 1725 4347 1384 3930 
Q 1044 3513 1044 2913 
Q 1047 2584 1122 2293 
Q 1197 2003 1364 1518 
Q 1531 1034 1611 721 
Q 1691 409 1691 84 
Q 1691 0 1625 0 
L 494 0 
z
" transform="scale(0.015625)"/>
     </defs>
     <use xlink:href="#Cmr10-ad" transform="translate(0 0.484375)"/>
    </g>
   </g>
   <g id="text_2">
    <!-- $A$ -->
    <g style="fill: #0000ff" transform="translate(149.873077 271.651683) scale(0.1 -0.1)">
     <defs>
      <path id="Cmmi10-41" d="M 288 0 
Q 225 0 225 84 
Q 250 225 306 225 
Q 566 225 755 328 
Q 944 431 1081 647 
Q 1094 659 1094 659 
L 3378 4513 
Q 3428 4581 3500 4581 
L 3584 4581 
Q 3603 4581 3622 4573 
Q 3641 4566 3655 4548 
Q 3669 4531 3669 4513 
L 4056 378 
Q 4056 350 4084 294 
Q 4147 225 4563 225 
Q 4628 225 4628 141 
Q 4606 56 4592 28 
Q 4578 0 4519 0 
L 2919 0 
Q 2859 0 2859 84 
Q 2894 225 2944 225 
Q 3450 225 3481 397 
L 3384 1453 
L 1806 1453 
L 1294 594 
Q 1247 525 1247 434 
Q 1247 322 1355 273 
Q 1463 225 1594 225 
Q 1656 225 1656 141 
Q 1634 50 1621 25 
Q 1609 0 1550 0 
L 288 0 
z
M 1931 1678 
L 3359 1678 
L 3169 3750 
L 1931 1678 
z
" transform="scale(0.015625)"/>
     </defs>
     <use xlink:href="#Cmmi10-41" transform="translate(0 0.421875)"/>
    </g>
   </g>
   <g id="text_3">
    <!-- $B$ -->
    <g style="fill: #ff0000" transform="translate(227.707692 78.497837) scale(0.1 -0.1)">
     <defs>
      <path id="Cmmi10-42" d="M 319 0 
Q 256 0 256 84 
Q 259 100 268 137 
Q 278 175 293 200 
Q 309 225 341 225 
Q 522 225 656 234 
Q 791 244 884 269 
Q 959 297 1006 441 
L 1881 3956 
Q 1894 4019 1894 4044 
Q 1894 4113 1819 4122 
Q 1697 4147 1356 4147 
Q 1294 4147 1294 4231 
Q 1297 4247 1306 4286 
Q 1316 4325 1333 4348 
Q 1350 4372 1375 4372 
L 3669 4372 
Q 3878 4372 4083 4320 
Q 4288 4269 4461 4156 
Q 4634 4044 4736 3876 
Q 4838 3709 4838 3488 
Q 4838 3247 4714 3040 
Q 4591 2834 4395 2681 
Q 4200 2528 3973 2429 
Q 3747 2331 3500 2284 
Q 3675 2284 3854 2215 
Q 4034 2147 4175 2028 
Q 4316 1909 4402 1743 
Q 4488 1578 4488 1388 
Q 4488 1003 4219 684 
Q 3950 366 3542 183 
Q 3134 0 2753 0 
L 319 0 
z
M 1497 275 
Q 1497 225 1716 225 
L 2631 225 
Q 2944 225 3231 398 
Q 3519 572 3692 859 
Q 3866 1147 3866 1459 
Q 3866 1650 3786 1820 
Q 3706 1991 3556 2089 
Q 3406 2188 3213 2188 
L 1966 2188 
L 1522 416 
Q 1497 328 1497 275 
z
M 2009 2356 
L 2981 2356 
Q 3288 2356 3577 2512 
Q 3866 2669 4048 2937 
Q 4231 3206 4231 3506 
Q 4231 3784 4057 3965 
Q 3884 4147 3609 4147 
L 2731 4147 
Q 2559 4147 2500 4115 
Q 2441 4084 2400 3928 
L 2009 2356 
z
" transform="scale(0.015625)"/>
     </defs>
     <use xlink:href="#Cmmi10-42" transform="translate(0 0.6875)"/>
    </g>
   </g>
   <g id="text_4">
    <!-- $C$ -->
    <g style="fill: #228b22" transform="translate(103.292308 78.497837) scale(0.1 -0.1)">
     <defs>
      <path id="Cmmi10-43" d="M 934 1381 
Q 934 997 1082 705 
Q 1231 413 1514 248 
Q 1797 84 2181 84 
Q 2584 84 2957 290 
Q 3331 497 3595 842 
Q 3859 1188 3956 1575 
Q 3969 1613 4006 1613 
L 4084 1613 
Q 4109 1613 4125 1595 
Q 4141 1578 4141 1556 
Q 4141 1550 4134 1538 
Q 4025 1094 3711 705 
Q 3397 316 2959 87 
Q 2522 -141 2059 -141 
Q 1559 -141 1162 84 
Q 766 309 545 709 
Q 325 1109 325 1613 
Q 325 2150 565 2676 
Q 806 3203 1212 3614 
Q 1619 4025 2139 4269 
Q 2659 4513 3194 4513 
Q 3406 4513 3600 4448 
Q 3794 4384 3959 4253 
Q 4125 4122 4231 3950 
L 4738 4500 
Q 4738 4513 4769 4513 
L 4806 4513 
Q 4831 4513 4847 4491 
Q 4863 4469 4863 4447 
L 4428 2719 
Q 4428 2675 4378 2675 
L 4263 2675 
Q 4213 2675 4213 2747 
Q 4238 2888 4238 3084 
Q 4238 3397 4131 3673 
Q 4025 3950 3801 4119 
Q 3578 4288 3256 4288 
Q 2734 4288 2300 4025 
Q 1866 3763 1564 3336 
Q 1263 2909 1098 2389 
Q 934 1869 934 1381 
z
" transform="scale(0.015625)"/>
     </defs>
     <use xlink:href="#Cmmi10-43" transform="translate(0 0.484375)"/>
    </g>
   </g>
   <g id="patch_6">
    <path d="M 169.2 262.661538 
C 185.724193 262.661538 201.573823 256.096407 213.258192 244.412038 
C 224.942561 232.727669 231.507692 216.878039 231.507692 200.353846 
C 231.507692 183.829653 224.942561 167.980023 213.258192 156.295654 
C 201.573823 144.611285 185.724193 138.046154 169.2 138.046154 
C 152.675807 138.046154 136.826177 144.611285 125.141808 156.295654 
C 113.457439 167.980023 106.892308 183.829653 106.892308 200.353846 
C 106.892308 216.878039 113.457439 232.727669 125.141808 244.412038 
C 136.826177 256.096407 152.675807 262.661538 169.2 262.661538 
L 169.2 262.661538 
z
" clip-path="url(#pc339596194)" style="fill: none; stroke: #0000ff; stroke-linejoin: miter"/>
   </g>
   <g id="patch_7">
    <path d="M 200.353846 200.353846 
C 216.878039 200.353846 232.727669 193.788715 244.412038 182.104346 
C 256.096407 170.419977 262.661538 154.570347 262.661538 138.046154 
C 262.661538 121.521961 256.096407 105.672331 244.412038 93.987962 
C 232.727669 82.303593 216.878039 75.738462 200.353846 75.738462 
C 183.829653 75.738462 167.980023 82.303593 156.295654 93.987962 
C 144.611285 105.672331 138.046154 121.521961 138.046154 138.046154 
C 138.046154 154.570347 144.611285 170.419977 156.295654 182.104346 
C 167.980023 193.788715 183.829653 200.353846 200.353846 200.353846 
L 200.353846 200.353846 
z
" clip-path="url(#pc339596194)" style="fill: none; stroke: #ff0000; stroke-linejoin: miter"/>
   </g>
   <g id="patch_8">
    <path d="M 138.046154 200.353846 
C 154.570347 200.353846 170.419977 193.788715 182.104346 182.104346 
C 193.788715 170.419977 200.353846 154.570347 200.353846 138.046154 
C 200.353846 121.521961 193.788715 105.672331 182.104346 93.987962 
C 170.419977 82.303593 154.570347 75.738462 138.046154 75.738462 
C 121.521961 75.738462 105.672331 82.303593 93.987962 93.987962 
C 82.303593 105.672331 75.738462 121.521961 75.738462 138.046154 
C 75.738462 154.570347 82.303593 170.419977 93.987962 182.104346 
C 105.672331 193.788715 121.521961 200.353846 138.046154 200.353846 
L 138.046154 200.353846 
z
" clip-path="url(#pc339596194)" style="fill: none; stroke: #228b22; stroke-linejoin: miter"/>
   </g>
  </g>
 </g>
 <defs>
  <clipPath id="pc339596194">
   <rect x="7.2" y="7.2" width="324" height="324"/>
  </clipPath>
 </defs>
</svg>
