<?xml version="1.0" encoding="utf-8" standalone="no"?>
<!DOCTYPE svg PUBLIC "-//W3C//DTD SVG 1.1//EN"
  "http://www.w3.org/Graphics/SVG/1.1/DTD/svg11.dtd">
<svg xmlns:xlink="http://www.w3.org/1999/xlink" width="338.4pt" height="338.4pt" viewBox="0 0 338.4 338.4" xmlns="http://www.w3.org/2000/svg" version="1.1">
 <metadata>
  <rdf:RDF xmlns:dc="http://purl.org/dc/elements/1.1/" xmlns:cc="http://creativecommons.org/ns#" xmlns:rdf="http://www.w3.org/1999/02/22-rdf-syntax-ns#">
   <cc:Work>
    <dc:type rdf:resource="http://purl.org/dc/dcmitype/StillImage"/>
    <dc:date>2024-12-01T17:04:44.394354</dc:date>
    <dc:format>image/svg+xml</dc:format>
    <dc:creator>
     <cc:Agent>
      <dc:title>Matplotlib v3.6.3, https://matplotlib.org/</dc:title>
     </cc:Agent>
    </dc:creator>
   </cc:Work>
  </rdf:RDF>
 </metadata>
 <defs>
  <style type="text/css">*{stroke-linejoin: round; stroke-linecap: butt}</style>
 </defs>
 <g id="figure_1">
  <g id="patch_1">
   <path d="M -0 338.4 
L 338.4 338.4 
L 338.4 0 
L -0 0 
z
" style="fill: #ffffff"/>
  </g>
  <g id="axes_1">
   <g id="patch_2">
    <path d="M 7.2 331.2 
L 331.2 331.2 
L 331.2 7.2 
L 7.2 7.2 
z
" style="fill: #ffffff"/>
   </g>
   <g id="patch_3">
    <path d="M 13.430769 324.969231 
L 13.430769 13.430769 
L 324.969231 13.430769 
L 324.969231 324.969231 
L 13.430769 324.969231 
z
" clip-path="url(#p0712c212df)" style="fill: none; stroke: #000000; stroke-linejoin: miter"/>
   </g>
   <g id="patch_4">
    <path d="M 106.892308 192.006198 
L 106.715154 191.90353 
L 106.519433 191.789194 
L 106.365881 191.698823 
L 106.317148 191.670017 
L 106.086983 191.533161 
L 105.883129 191.410827 
L 105.843337 191.386824 
L 105.628583 191.256582 
L 105.484253 191.168382 
L 105.35339 191.087946 
L 105.13694 190.953924 
L 104.996208 190.866127 
L 104.900114 190.805879 
L 104.774347 190.726657 
L 104.615592 190.626056 
L 104.372255 190.470547 
L 104.1709 190.340663 
L 104.033912 190.25167 
L 103.875275 190.147973 
L 103.770662 190.079212 
L 103.545209 189.929999 
L 103.471988 189.881235 
L 103.339271 189.792466 
L 103.056996 189.60202 
L 102.915443 189.505669 
L 102.745608 189.389313 
L 102.680456 189.344458 
L 102.562994 189.263279 
L 102.278303 189.06487 
L 102.219124 189.02333 
L 101.966679 188.844973 
L 101.860071 188.769087 
L 101.766236 188.702013 
L 101.578008 188.566673 
L 101.408374 188.443789 
L 101.225421 188.310278 
L 101.07142 188.197102 
L 100.921713 188.086382 
L 100.746995 187.956286 
L 100.641314 187.877133 
L 100.52519 187.789754 
L 100.279564 187.603526 
L 100.096291 187.463322 
L 100.04953 187.427376 
L 99.781942 187.22032 
L 99.720969 187.172814 
L 99.492413 186.993652 
L 99.383178 186.907414 
L 99.193089 186.756398 
L 99.002049 186.603402 
L 98.862963 186.491237 
L 98.710496 186.367522 
L 98.59809 186.2758 
L 98.412667 186.123542 
L 98.311209 186.039723 
L 98.180186 185.930944 
L 97.979356 185.76303 
L 97.858464 185.661258 
L 97.592103 185.435164 
L 97.488142 185.346219 
L 97.282302 185.168939 
L 97.143699 185.048683 
L 97.019362 184.940192 
L 96.89789 184.83364 
L 96.747419 184.700876 
L 96.625364 184.592547 
L 96.349467 184.345558 
L 96.279 184.281999 
L 96.074392 184.096341 
L 95.943708 183.976891 
L 95.75627 183.804369 
L 95.593085 183.653012 
L 95.531463 183.595573 
L 95.286994 183.366158 
L 95.186318 183.270959 
L 94.920583 183.01763 
L 94.802368 182.903968 
L 94.710429 182.815155 
L 94.490563 182.601277 
L 94.412535 182.524866 
L 94.190192 182.305652 
L 94.088568 182.204722 
L 93.879061 181.995174 
L 93.703066 181.817595 
L 93.513326 181.62454 
L 93.445525 181.555146 
L 93.27032 181.374819 
L 93.132926 181.232384 
L 92.921805 181.011741 
L 92.817171 180.901581 
L 92.615678 180.687922 
L 92.500621 180.565008 
L 92.331477 180.383098 
L 92.214148 180.256056 
L 92.040703 180.066946 
L 91.934989 179.950915 
L 91.782355 179.782343 
L 91.579148 179.555983 
L 91.46532 179.428208 
L 91.308053 179.250503 
L 91.050276 178.95625 
L 90.990378 178.88734 
L 90.8177 178.687532 
L 90.617036 178.453174 
L 90.489752 178.303292 
L 90.285789 178.061102 
L 90.108707 177.848789 
L 89.923845 177.625087 
L 89.864871 177.553274 
L 89.658597 177.300362 
L 89.506289 177.111868 
L 89.434037 177.021923 
L 89.189427 176.714859 
L 89.063518 176.555242 
L 88.854505 176.287888 
L 88.804689 176.223721 
L 88.558282 175.903769 
L 88.365534 175.650469 
L 88.312449 175.580233 
L 88.057472 175.239973 
L 87.962824 175.112427 
L 87.768084 174.847842 
L 87.634355 174.664442 
L 87.525213 174.513715 
L 87.367173 174.293767 
L 87.189636 174.044252 
L 87.070615 173.875512 
L 86.902312 173.63486 
L 86.66955 173.298006 
L 86.595258 173.189487 
L 86.329318 172.796943 
L 86.229019 172.64721 
L 86.120408 172.484003 
L 85.983735 172.277032 
L 85.692463 171.829872 
L 85.529855 171.576541 
L 85.422536 171.407859 
L 85.321098 171.247314 
L 85.202546 171.058297 
L 84.913652 170.591287 
L 84.828013 170.451062 
L 84.622499 170.111114 
L 84.535516 169.965743 
L 84.30934 169.583486 
L 84.116894 169.253259 
L 83.958665 168.978209 
L 83.880723 168.84152 
L 83.690594 168.504677 
L 83.578794 168.304297 
L 83.485836 168.136355 
L 83.332374 167.8564 
L 83.178912 167.572994 
L 83.103452 167.432342 
L 82.907578 167.063148 
L 82.83298 166.920952 
L 82.662551 166.592695 
L 82.426851 166.130698 
L 82.337413 165.952868 
L 82.145273 165.565965 
L 81.949685 165.165054 
L 81.834705 164.925915 
L 81.708282 164.659924 
L 81.470298 164.150196 
L 81.417055 164.034491 
L 81.264736 163.699986 
L 81.126301 163.391349 
L 80.987867 163.078141 
L 80.974135 163.046818 
L 80.798319 162.641559 
L 80.621765 162.226478 
L 80.490759 161.912973 
L 80.359754 161.594567 
L 80.256499 161.340022 
L 80.1151 160.986109 
L 80.037044 160.788002 
L 79.879174 160.381127 
L 79.729065 159.9862 
L 79.578955 159.582987 
L 79.512977 159.40302 
L 79.36143 158.983005 
L 79.245942 158.656433 
L 79.120634 158.295392 
L 78.995326 157.927005 
L 78.873812 157.562364 
L 78.784895 157.290678 
L 78.695978 157.014684 
L 78.598946 156.708362 
L 78.524997 156.471149 
L 78.451049 156.230541 
L 78.371755 155.968616 
L 78.292461 155.702449 
L 78.162207 155.255496 
L 78.09708 155.027234 
L 78.031953 154.795608 
L 77.995735 154.665292 
L 77.920322 154.390354 
L 77.844909 154.110356 
L 77.78687 153.891255 
L 77.728831 153.668866 
L 77.670793 153.443046 
L 77.612754 153.213642 
L 77.523827 152.854818 
L 77.473463 152.647443 
L 77.423099 152.436904 
L 77.372734 152.22306 
L 77.32237 152.005759 
L 77.271317 151.78179 
L 77.220264 151.553914 
L 77.169211 151.321932 
L 77.118157 151.085624 
L 77.059611 150.808994 
L 77.001064 150.525959 
L 76.957782 150.312341 
L 76.9145 150.094781 
L 76.871218 149.873061 
L 76.827936 149.646944 
L 76.775345 149.365893 
L 76.722754 149.077434 
L 76.670163 148.780969 
L 76.617572 148.475816 
L 76.579264 148.247623 
L 76.540956 148.01406 
L 76.502648 147.774741 
L 76.46434 147.52923 
L 76.42181 147.248801 
L 76.379279 146.959352 
L 76.336749 146.659971 
L 76.294218 146.349586 
L 76.266233 146.138735 
L 76.238247 145.922141 
L 76.20657 145.66943 
L 76.174892 145.407912 
L 76.143215 145.136614 
L 76.111537 144.854366 
L 76.095698 144.708704 
L 76.079859 144.559746 
L 76.064021 144.407262 
L 76.048182 144.250991 
L 76.032343 144.09064 
L 76.016504 143.925875 
L 76.000666 143.756314 
L 75.984827 143.581515 
L 75.963212 143.333579 
L 75.952405 143.205111 
L 75.941597 143.073337 
L 75.93079 142.937991 
L 75.919982 142.798768 
L 75.909175 142.655316 
L 75.898368 142.507228 
L 75.888373 142.365743 
L 75.878379 142.219441 
L 75.868385 142.067796 
L 75.858391 141.910178 
L 75.848397 141.745823 
L 75.838403 141.573792 
L 75.828409 141.3929 
L 75.818415 141.201623 
L 75.813417 141.101485 
L 75.80842 140.997943 
L 75.803423 140.890626 
L 75.798426 140.779089 
L 75.793429 140.662793 
L 75.788432 140.541071 
L 75.783435 140.413088 
L 75.778438 140.277765 
L 75.773441 140.133677 
L 75.768444 139.978864 
L 75.763447 139.810504 
L 75.75845 139.624268 
L 75.753453 139.412868 
L 75.748456 139.162094 
L 75.743459 138.835258 
L 75.738462 138.046154 
L 75.738462 324.969231 
L 75.945731 324.969231 
L 75.992746 324.969231 
L 76.139224 324.969231 
L 76.383772 324.969231 
L 76.457367 324.969231 
L 76.608964 324.969231 
L 76.81486 324.969231 
L 76.99089 324.969231 
L 77.14561 324.969231 
L 77.259014 324.969231 
L 77.438063 324.969231 
L 77.648916 324.969231 
L 77.836338 324.969231 
L 77.995135 324.969231 
L 78.156417 324.969231 
L 78.246976 324.969231 
L 78.337327 324.969231 
L 78.548299 324.969231 
L 78.652665 324.969231 
L 78.932502 324.969231 
L 79.082103 324.969231 
L 79.256144 324.969231 
L 79.391317 324.969231 
L 79.510053 324.969231 
L 79.724713 324.969231 
L 79.795726 324.969231 
L 79.913404 324.969231 
L 80.189224 324.969231 
L 80.33388 324.969231 
L 80.400175 324.969231 
L 80.52081 324.969231 
L 80.691037 324.969231 
L 80.86696 324.969231 
L 81.084637 324.969231 
L 81.208326 324.969231 
L 81.391857 324.969231 
L 81.596452 324.969231 
L 81.666718 324.969231 
L 81.773331 324.969231 
L 81.968828 324.969231 
L 82.123225 324.969231 
L 82.304603 324.969231 
L 82.483969 324.969231 
L 82.609974 324.969231 
L 82.809736 324.969231 
L 82.866648 324.969231 
L 83.066291 324.969231 
L 83.245566 324.969231 
L 83.385224 324.969231 
L 83.557326 324.969231 
L 83.766442 324.969231 
L 83.861505 324.969231 
L 84.083732 324.969231 
L 84.237456 324.969231 
L 84.40718 324.969231 
L 84.484084 324.969231 
L 84.626946 324.969231 
L 84.790175 324.969231 
L 84.969045 324.969231 
L 85.120496 324.969231 
L 85.298171 324.969231 
L 85.400104 324.969231 
L 85.643138 324.969231 
L 85.79167 324.969231 
L 85.901839 324.969231 
L 86.098725 324.969231 
L 86.276182 324.969231 
L 86.383181 324.969231 
L 86.601616 324.969231 
L 86.720231 324.969231 
L 86.826846 324.969231 
L 87.082186 324.969231 
L 87.134754 324.969231 
L 87.31221 324.969231 
L 87.424799 324.969231 
L 87.68615 324.969231 
L 87.841135 324.969231 
L 88.010866 324.969231 
L 88.082 324.969231 
L 88.337463 324.969231 
L 88.350344 324.969231 
L 88.530573 324.969231 
L 88.769188 324.969231 
L 88.921997 324.969231 
L 89.028935 324.969231 
L 89.238083 324.969231 
L 89.295555 324.969231 
L 89.496429 324.969231 
L 89.734324 324.969231 
L 89.751451 324.969231 
L 89.920205 324.969231 
L 90.092735 324.969231 
L 90.342319 324.969231 
L 90.511797 324.969231 
L 90.666249 324.969231 
L 90.725165 324.969231 
L 90.945645 324.969231 
L 91.083393 324.969231 
L 91.246457 324.969231 
L 91.454163 324.969231 
L 91.592232 324.969231 
L 91.729706 324.969231 
L 91.814431 324.969231 
L 92.015091 324.969231 
L 92.114142 324.969231 
L 92.408888 324.969231 
L 92.56776 324.969231 
L 92.625507 324.969231 
L 92.837337 324.969231 
L 92.949795 324.969231 
L 93.050745 324.969231 
L 93.349534 324.969231 
L 93.481459 324.969231 
L 93.641656 324.969231 
L 93.760647 324.969231 
L 93.953402 324.969231 
L 94.010253 324.969231 
L 94.160818 324.969231 
L 94.438912 324.969231 
L 94.46136 324.969231 
L 94.65108 324.969231 
L 94.793569 324.969231 
L 95.069693 324.969231 
L 95.074445 324.969231 
L 95.255252 324.969231 
L 95.528795 324.969231 
L 95.566695 324.969231 
L 95.817732 324.969231 
L 95.864459 324.969231 
L 96.095003 324.969231 
L 96.271336 324.969231 
L 96.382445 324.969231 
L 96.572437 324.969231 
L 96.73296 324.969231 
L 96.908945 324.969231 
L 96.999363 324.969231 
L 97.239009 324.969231 
L 97.343109 324.969231 
L 97.528943 324.969231 
L 97.599973 324.969231 
L 97.812407 324.969231 
L 97.987343 324.969231 
L 98.157054 324.969231 
L 98.331538 324.969231 
L 98.397523 324.969231 
L 98.66798 324.969231 
L 98.806601 324.969231 
L 98.977356 324.969231 
L 99.025603 324.969231 
L 99.184998 324.969231 
L 99.337079 324.969231 
L 99.566399 324.969231 
L 99.666989 324.969231 
L 99.778449 324.969231 
L 100.04442 324.969231 
L 100.091055 324.969231 
L 100.330948 324.969231 
L 100.397744 324.969231 
L 100.567845 324.969231 
L 100.756568 324.969231 
L 100.866576 324.969231 
L 101.130364 324.969231 
L 101.330781 324.969231 
L 101.45655 324.969231 
L 101.529661 324.969231 
L 101.765808 324.969231 
L 101.817269 324.969231 
L 101.993914 324.969231 
L 102.167765 324.969231 
L 102.348771 324.969231 
L 102.481943 324.969231 
L 102.679829 324.969231 
L 102.834947 324.969231 
L 102.935984 324.969231 
L 103.125611 324.969231 
L 103.298496 324.969231 
L 103.510581 324.969231 
L 103.551461 324.969231 
L 103.693194 324.969231 
L 103.851969 324.969231 
L 104.148775 324.969231 
L 104.291004 324.969231 
L 104.328223 324.969231 
L 104.554435 324.969231 
L 104.668538 324.969231 
L 104.819638 324.969231 
L 105.064891 324.969231 
L 105.21034 324.969231 
L 105.285878 324.969231 
L 105.419164 324.969231 
L 105.638854 324.969231 
L 105.783928 324.969231 
L 105.875642 324.969231 
L 106.052303 324.969231 
L 106.238251 324.969231 
L 106.444538 324.969231 
L 106.644298 324.969231 
L 106.809108 324.969231 
L 106.892308 324.969231 
z
" clip-path="url(#p0712c212df)" style="fill: #808080; opacity: 0.5"/>
   </g>
   <g id="patch_5">
    <path d="M 13.430769 138.046154 
L 13.430769 13.430769 
L 13.69954 13.430769 
L 14.092769 13.430769 
L 14.519911 13.430769 
L 14.649881 13.430769 
L 14.870395 13.430769 
L 15.229508 13.430769 
L 15.665862 13.430769 
L 16.031416 13.430769 
L 16.319727 13.430769 
L 16.640219 13.430769 
L 16.992627 13.430769 
L 17.144402 13.430769 
L 17.391125 13.430769 
L 17.762173 13.430769 
L 18.210971 13.430769 
L 18.454223 13.430769 
L 18.686202 13.430769 
L 19.009329 13.430769 
L 19.427106 13.430769 
L 19.723374 13.430769 
L 20.157273 13.430769 
L 20.268741 13.430769 
L 20.735085 13.430769 
L 20.919659 13.430769 
L 21.317367 13.430769 
L 21.49227 13.430769 
L 21.736848 13.430769 
L 22.2131 13.430769 
L 22.555409 13.430769 
L 22.888397 13.430769 
L 23.190788 13.430769 
L 23.391039 13.430769 
L 23.698128 13.430769 
L 24.05057 13.430769 
L 24.391557 13.430769 
L 24.617943 13.430769 
L 24.960069 13.430769 
L 25.364461 13.430769 
L 25.600513 13.430769 
L 25.888554 13.430769 
L 26.247193 13.430769 
L 26.710704 13.430769 
L 26.761249 13.430769 
L 27.326638 13.430769 
L 27.540301 13.430769 
L 27.750646 13.430769 
L 28.082625 13.430769 
L 28.51729 13.430769 
L 28.636906 13.430769 
L 28.949847 13.430769 
L 29.26048 13.430769 
L 29.67686 13.430769 
L 30.17072 13.430769 
L 30.224005 13.430769 
L 30.738788 13.430769 
L 30.838393 13.430769 
L 31.190897 13.430769 
L 31.58013 13.430769 
L 31.843072 13.430769 
L 32.163049 13.430769 
L 32.430926 13.430769 
L 32.985502 13.430769 
L 33.263968 13.430769 
L 33.499234 13.430769 
L 33.69225 13.430769 
L 33.995183 13.430769 
L 34.395876 13.430769 
L 34.567397 13.430769 
L 35.141927 13.430769 
L 35.491838 13.430769 
L 35.539769 13.430769 
L 36.071335 13.430769 
L 36.264098 13.430769 
L 36.448151 13.430769 
L 36.799769 13.430769 
L 37.136343 13.430769 
L 37.578243 13.430769 
L 37.779003 13.430769 
L 38.282991 13.430769 
L 38.346539 13.430769 
L 38.800775 13.430769 
L 38.999944 13.430769 
L 39.469287 13.430769 
L 39.835612 13.430769 
L 40.184307 13.430769 
L 40.425731 13.430769 
L 40.737253 13.430769 
L 40.999911 13.430769 
L 41.216313 13.430769 
L 41.604829 13.430769 
L 41.994561 13.430769 
L 42.336999 13.430769 
L 42.495792 13.430769 
L 42.863723 13.430769 
L 43.118005 13.430769 
L 43.520693 13.430769 
L 43.918676 13.430769 
L 44.019408 13.430769 
L 44.394516 13.430769 
L 44.893986 13.430769 
L 45.095629 13.430769 
L 45.343672 13.430769 
L 45.539934 13.430769 
L 45.962169 13.430769 
L 46.278582 13.430769 
L 46.614501 13.430769 
L 46.813194 13.430769 
L 47.328448 13.430769 
L 47.442501 13.430769 
L 47.908814 13.430769 
L 48.037106 13.430769 
L 48.643986 13.430769 
L 48.795542 13.430769 
L 49.21015 13.430769 
L 49.442813 13.430769 
L 49.814855 13.430769 
L 50.09232 13.430769 
L 50.50822 13.430769 
L 50.714582 13.430769 
L 51.122718 13.430769 
L 51.25911 13.430769 
L 51.592558 13.430769 
L 51.892387 13.430769 
L 52.153827 13.430769 
L 52.62238 13.430769 
L 53.036686 13.430769 
L 53.350797 13.430769 
L 53.449809 13.430769 
L 53.922962 13.430769 
L 54.038185 13.430769 
L 54.423376 13.430769 
L 54.726015 13.430769 
L 55.161276 13.430769 
L 55.501783 13.430769 
L 55.640902 13.430769 
L 56.059815 13.430769 
L 56.416469 13.430769 
L 56.730081 13.430769 
L 56.961874 13.430769 
L 57.170921 13.430769 
L 57.502939 13.430769 
L 57.936987 13.430769 
L 58.229643 13.430769 
L 58.479765 13.430769 
L 58.779473 13.430769 
L 59.106272 13.430769 
L 59.544153 13.430769 
L 59.686853 13.430769 
L 60.191634 13.430769 
L 60.403854 13.430769 
L 60.600937 13.430769 
L 61.015734 13.430769 
L 61.462201 13.430769 
L 61.529706 13.430769 
L 61.985918 13.430769 
L 62.312077 13.430769 
L 62.532349 13.430769 
L 62.989954 13.430769 
L 63.324071 13.430769 
L 63.673774 13.430769 
L 63.977904 13.430769 
L 64.020477 13.430769 
L 64.548881 13.430769 
L 64.865494 13.430769 
L 65.057241 13.430769 
L 65.356794 13.430769 
L 65.845961 13.430769 
L 66.104844 13.430769 
L 66.430812 13.430769 
L 66.780728 13.430769 
L 67.06533 13.430769 
L 67.315939 13.430769 
L 67.45784 13.430769 
L 67.881862 13.430769 
L 68.080351 13.430769 
L 68.512366 13.430769 
L 68.981634 13.430769 
L 69.039085 13.430769 
L 69.342082 13.430769 
L 69.640527 13.430769 
L 70.04877 13.430769 
L 70.351023 13.430769 
L 70.636388 13.430769 
L 70.954427 13.430769 
L 71.428852 13.430769 
L 71.678836 13.430769 
L 72.12358 13.430769 
L 72.207199 13.430769 
L 72.576661 13.430769 
L 73.063951 13.430769 
L 73.15002 13.430769 
L 73.683279 13.430769 
L 73.848944 13.430769 
L 74.191014 13.430769 
L 74.606085 13.430769 
L 74.91414 13.430769 
L 75.138656 13.430769 
L 75.398057 13.430769 
L 75.738462 13.430769 
L 75.738462 138.046154 
z
" clip-path="url(#p0712c212df)" style="fill: #808080; opacity: 0.5"/>
   </g>
   <g id="patch_6">
    <path d="M 169.2 84.086109 
L 168.655424 83.775341 
L 168.234931 83.540317 
L 167.9457 83.381122 
L 167.258702 83.010933 
L 166.752898 82.745418 
L 166.482992 82.606144 
L 166.019417 82.3708 
L 165.542532 82.133743 
L 165.154114 81.944398 
L 164.615995 81.687551 
L 163.840788 81.328561 
L 163.778971 81.300487 
L 163.310392 81.090322 
L 162.666581 80.809076 
L 162.293474 80.650022 
L 161.514359 80.327077 
L 161.327582 80.251486 
L 160.818818 80.049134 
L 160.425019 79.896047 
L 159.601604 79.585816 
L 159.222896 79.447569 
L 158.998951 79.367122 
L 158.498295 79.190751 
L 158.057678 79.039481 
L 157.458392 78.839621 
L 156.967103 78.680792 
L 156.311953 78.475951 
L 156.079689 78.405227 
L 155.554662 78.248991 
L 154.937853 78.071834 
L 154.760135 78.022064 
L 154.381907 77.918027 
L 153.793952 77.761368 
L 153.21777 77.61379 
L 152.769047 77.502905 
L 152.477077 77.432649 
L 151.71971 77.25732 
L 151.543524 77.217957 
L 151.098624 77.120941 
L 150.207255 76.936775 
L 150.074742 76.910554 
L 149.5943 76.817983 
L 148.943326 76.698781 
L 148.369707 76.599651 
L 147.877946 76.519051 
L 147.695423 76.490162 
L 147.243719 76.421051 
L 146.546777 76.321054 
L 146.162434 76.269342 
L 145.764377 76.218348 
L 145.226343 76.153558 
L 144.571633 76.08111 
L 144.332288 76.056372 
L 143.909747 76.014978 
L 143.298215 75.96021 
L 143.066648 75.941056 
L 142.378094 75.889233 
L 141.848295 75.854577 
L 141.371992 75.827288 
L 141.148843 75.815761 
L 140.783092 75.798602 
L 140.108649 75.772607 
L 139.739966 75.761489 
L 139.246157 75.750018 
L 138.680806 75.741694 
L 138.045238 75.738462 
L 137.716485 75.739334 
L 137.369375 75.742137 
L 136.703578 75.752928 
L 136.095485 75.769004 
L 135.891706 75.77572 
L 135.383109 75.795397 
L 134.869894 75.819472 
L 134.223144 75.855856 
L 134.165862 75.859404 
L 133.448364 75.908332 
L 132.866382 75.954138 
L 132.774965 75.961831 
L 132.050454 76.027607 
L 131.750731 76.057315 
L 131.105133 76.12628 
L 130.889413 76.150842 
L 130.120413 76.244607 
L 129.683006 76.302277 
L 129.409319 76.339966 
L 128.608098 76.457424 
L 128.425395 76.4857 
L 127.951039 76.561707 
L 127.588656 76.622305 
L 126.778475 76.76575 
L 126.242398 76.866747 
L 125.984357 76.917097 
L 125.64636 76.984762 
L 125.011204 77.11719 
L 124.708878 77.182654 
L 124.108135 77.317412 
L 123.453152 77.471466 
L 123.14239 77.547176 
L 122.913717 77.603968 
L 122.345075 77.749183 
L 121.752996 77.90647 
L 121.324058 78.024324 
L 120.703396 78.200709 
L 120.400672 78.289267 
L 120.072779 78.38707 
L 119.295157 78.626892 
L 118.724985 78.809839 
L 118.702874 78.817056 
L 118.178286 78.990956 
L 117.483486 79.229275 
L 117.197468 79.33005 
L 116.636977 79.53209 
L 116.141776 79.715658 
L 115.525185 79.950935 
L 115.260664 80.054172 
L 114.594195 80.320474 
L 114.194176 80.484607 
L 113.738308 80.675629 
L 113.216345 80.899596 
L 113.015068 80.987471 
L 112.283278 81.314128 
L 111.986466 81.449854 
L 111.59583 81.631361 
L 111.032886 81.898742 
L 110.311482 82.251562 
L 110.017788 82.398519 
L 109.338637 82.745819 
L 109.259242 82.787107 
L 108.462486 83.209532 
L 108.286416 83.304885 
L 107.699928 83.62782 
L 107.219915 83.898287 
L 106.889268 84.087865 
L 106.402681 84.371773 
L 105.579358 84.865747 
L 105.17974 85.111785 
L 104.684858 85.422276 
L 104.523022 85.525223 
L 103.957796 85.890306 
L 103.460982 86.218416 
L 102.769165 86.686806 
L 102.704003 86.731625 
L 102.076961 87.169188 
L 101.775914 87.383365 
L 101.102198 87.872529 
L 100.530485 88.29856 
L 100.136717 88.597968 
L 99.910738 88.772037 
L 99.321585 89.233694 
L 98.592637 89.820968 
L 98.268763 90.087759 
L 97.971518 90.33586 
L 97.568123 90.677625 
L 96.965976 91.198875 
L 96.341116 91.754272 
L 95.807777 92.24039 
L 95.621692 92.412684 
L 95.224128 92.785546 
L 94.461023 93.519926 
L 94.207556 93.769458 
L 93.625528 94.353403 
L 93.123875 94.869338 
L 92.845339 95.161019 
L 92.232399 95.816444 
L 91.727585 96.370757 
L 91.197094 96.968007 
L 90.960117 97.23986 
L 90.530582 97.740833 
L 90.101046 98.252748 
L 89.936923 98.451326 
L 89.539787 98.938854 
L 89.142652 99.436621 
L 89.083752 99.511342 
L 88.510075 100.251638 
L 88.1273 100.758669 
L 87.56325 101.525954 
L 86.952174 102.3859 
L 86.654476 102.816281 
L 86.264538 103.391966 
L 85.874599 103.981841 
L 85.470656 104.608667 
L 85.177851 105.073573 
L 84.726802 105.808052 
L 84.386655 106.377452 
L 84.046508 106.961 
L 83.697778 107.574814 
L 83.361956 108.181676 
L 83.026134 108.804984 
L 82.941143 108.965468 
L 82.541594 109.735513 
L 82.221691 110.371656 
L 81.901787 111.026558 
L 81.636427 111.585028 
L 81.371066 112.158261 
L 81.089229 112.784381 
L 80.713311 113.649562 
L 80.525353 114.096082 
L 80.337394 114.552589 
L 80.089728 115.170376 
L 79.842061 115.808075 
L 79.61163 116.420824 
L 79.381198 117.053978 
L 79.108257 117.832969 
L 78.930261 118.359617 
L 78.752265 118.902401 
L 78.56128 119.504354 
L 78.370295 120.128552 
L 78.179311 120.777407 
L 77.988326 121.453812 
L 77.823698 122.061649 
L 77.659071 122.695299 
L 77.486873 123.389346 
L 77.400774 123.749777 
L 77.314675 124.120064 
L 77.228576 124.501018 
L 77.142477 124.893564 
L 77.056378 125.298773 
L 76.970279 125.717894 
L 76.878748 126.180362 
L 76.787218 126.662336 
L 76.725881 126.997505 
L 76.664544 127.343515 
L 76.603207 127.701456 
L 76.54187 128.072611 
L 76.480533 128.458515 
L 76.419196 128.861028 
L 76.357859 129.282436 
L 76.296522 129.725611 
L 76.226764 130.260811 
L 76.191885 130.542956 
L 76.157007 130.836302 
L 76.122128 131.142277 
L 76.087249 131.462641 
L 76.05237 131.799609 
L 76.017492 132.156029 
L 75.982613 132.535674 
L 75.947734 132.943725 
L 75.930295 133.160608 
L 75.912855 133.387642 
L 75.895416 133.626392 
L 75.877977 133.87887 
L 75.860537 134.147744 
L 75.843098 134.436675 
L 75.825658 134.750935 
L 75.808219 135.098614 
L 75.79078 135.493331 
L 75.77334 135.961637 
L 75.755901 136.572074 
L 75.738462 138.046154 
L 75.738462 13.430769 
L 76.247928 13.430769 
L 76.599364 13.430769 
L 76.981034 13.430769 
L 77.485169 13.430769 
L 77.984559 13.430769 
L 78.677684 13.430769 
L 78.867871 13.430769 
L 79.299132 13.430769 
L 79.813223 13.430769 
L 80.494261 13.430769 
L 81.110851 13.430769 
L 81.154938 13.430769 
L 81.844241 13.430769 
L 82.285766 13.430769 
L 82.912545 13.430769 
L 83.327289 13.430769 
L 83.747476 13.430769 
L 84.32998 13.430769 
L 84.715666 13.430769 
L 85.096154 13.430769 
L 85.799135 13.430769 
L 86.09537 13.430769 
L 86.579783 13.430769 
L 86.998088 13.430769 
L 87.714176 13.430769 
L 87.742402 13.430769 
L 88.562681 13.430769 
L 88.976493 13.430769 
L 89.302012 13.430769 
L 89.949883 13.430769 
L 90.186941 13.430769 
L 90.811572 13.430769 
L 91.206824 13.430769 
L 91.768475 13.430769 
L 92.287267 13.430769 
L 92.467335 13.430769 
L 93.245781 13.430769 
L 93.424971 13.430769 
L 94.102739 13.430769 
L 94.302924 13.430769 
L 95.22468 13.430769 
L 95.369494 13.430769 
L 95.912402 13.430769 
L 96.467449 13.430769 
L 96.75098 13.430769 
L 97.324306 13.430769 
L 97.886394 13.430769 
L 98.182746 13.430769 
L 98.633976 13.430769 
L 99.207415 13.430769 
L 99.45839 13.430769 
L 99.983721 13.430769 
L 100.601132 13.430769 
L 100.880586 13.430769 
L 101.661228 13.430769 
L 102.226793 13.430769 
L 102.575262 13.430769 
L 103.115734 13.430769 
L 103.622284 13.430769 
L 104.012402 13.430769 
L 104.57575 13.430769 
L 104.733614 13.430769 
L 105.484966 13.430769 
L 105.806438 13.430769 
L 106.398864 13.430769 
L 106.956737 13.430769 
L 107.132689 13.430769 
L 107.716823 13.430769 
L 108.185591 13.430769 
L 108.449798 13.430769 
L 109.268731 13.430769 
L 109.346058 13.430769 
L 110.006505 13.430769 
L 110.46226 13.430769 
L 110.832107 13.430769 
L 111.579714 13.430769 
L 111.849702 13.430769 
L 112.230304 13.430769 
L 112.669101 13.430769 
L 113.192713 13.430769 
L 113.815985 13.430769 
L 114.468349 13.430769 
L 114.711673 13.430769 
L 115.293175 13.430769 
L 115.688079 13.430769 
L 116.194146 13.430769 
L 116.472754 13.430769 
L 116.929267 13.430769 
L 117.423583 13.430769 
L 117.890217 13.430769 
L 118.314884 13.430769 
L 118.820471 13.430769 
L 119.578391 13.430769 
L 119.809003 13.430769 
L 120.335795 13.430769 
L 120.767073 13.430769 
L 121.381679 13.430769 
L 121.65858 13.430769 
L 122.142424 13.430769 
L 122.827876 13.430769 
L 123.120174 13.430769 
L 123.477892 13.430769 
L 124.19868 13.430769 
L 124.596061 13.430769 
L 124.856357 13.430769 
L 125.345588 13.430769 
L 126.224411 13.430769 
L 126.346778 13.430769 
L 127.07248 13.430769 
L 127.45197 13.430769 
L 127.651108 13.430769 
L 128.564051 13.430769 
L 128.95734 13.430769 
L 129.507783 13.430769 
L 129.692972 13.430769 
L 130.264921 13.430769 
L 130.719382 13.430769 
L 131.030054 13.430769 
L 131.69514 13.430769 
L 132.19445 13.430769 
L 132.401844 13.430769 
L 132.998848 13.430769 
L 133.548978 13.430769 
L 134.049106 13.430769 
L 134.36007 13.430769 
L 134.853779 13.430769 
L 135.2285 13.430769 
L 135.977025 13.430769 
L 136.542291 13.430769 
L 136.85625 13.430769 
L 137.170757 13.430769 
L 137.51666 13.430769 
L 138.167993 13.430769 
L 138.749659 13.430769 
L 139.037257 13.430769 
L 139.47395 13.430769 
L 140.057763 13.430769 
L 140.62529 13.430769 
L 141.078378 13.430769 
L 141.405134 13.430769 
L 141.740742 13.430769 
L 142.206481 13.430769 
L 142.903428 13.430769 
L 143.139621 13.430769 
L 144.05024 13.430769 
L 144.49473 13.430769 
L 144.842584 13.430769 
L 145.031019 13.430769 
L 145.66424 13.430769 
L 146.030269 13.430769 
L 146.434613 13.430769 
L 147.314489 13.430769 
L 147.811444 13.430769 
L 148.082749 13.430769 
L 148.620968 13.430769 
L 149.075427 13.430769 
L 149.557762 13.430769 
L 150.178038 13.430769 
L 150.642096 13.430769 
L 150.676365 13.430769 
L 151.26803 13.430769 
L 151.610509 13.430769 
L 152.524841 13.430769 
L 152.54563 13.430769 
L 153.465936 13.430769 
L 153.886736 13.430769 
L 154.060998 13.430769 
L 154.703952 13.430769 
L 155.211909 13.430769 
L 155.35557 13.430769 
L 155.908688 13.430769 
L 156.589334 13.430769 
L 157.16166 13.430769 
L 157.514477 13.430769 
L 157.939734 13.430769 
L 158.421315 13.430769 
L 158.805581 13.430769 
L 159.369606 13.430769 
L 159.828918 13.430769 
L 160.116991 13.430769 
L 160.940385 13.430769 
L 161.195096 13.430769 
L 161.81975 13.430769 
L 162.238375 13.430769 
L 162.716633 13.430769 
L 163.139825 13.430769 
L 163.554486 13.430769 
L 164.071669 13.430769 
L 164.683532 13.430769 
L 164.826987 13.430769 
L 165.239567 13.430769 
L 165.687621 13.430769 
L 166.485662 13.430769 
L 166.996377 13.430769 
L 167.253318 13.430769 
L 167.595405 13.430769 
L 168.138003 13.430769 
L 168.760487 13.430769 
L 169.2 13.430769 
z
" clip-path="url(#p0712c212df)" style="fill: #808080; opacity: 0.5"/>
   </g>
   <g id="patch_7">
    <path d="M 262.661538 138.046154 
L 262.654341 138.993184 
L 262.647143 139.385418 
L 262.639946 139.686364 
L 262.632748 139.94005 
L 262.625551 140.163533 
L 262.618354 140.36556 
L 262.611156 140.551326 
L 262.603959 140.724218 
L 262.596761 140.886588 
L 262.589564 141.040148 
L 262.582366 141.186191 
L 262.575169 141.325721 
L 262.567971 141.459537 
L 262.560774 141.588286 
L 262.553576 141.712503 
L 262.546379 141.832634 
L 262.539181 141.949055 
L 262.531984 142.06209 
L 262.517589 142.279077 
L 262.503194 142.485425 
L 262.488799 142.682553 
L 262.474404 142.871592 
L 262.460009 143.053458 
L 262.445614 143.228906 
L 262.431219 143.398568 
L 262.417231 143.558388 
L 262.403244 143.713668 
L 262.389257 143.864773 
L 262.37527 144.012018 
L 262.361562 144.152844 
L 262.347855 144.290465 
L 262.32044 144.5569 
L 262.293025 144.81274 
L 262.26561 145.059147 
L 262.246456 145.226221 
L 262.227302 145.389446 
L 262.208149 145.549071 
L 262.188995 145.705323 
L 262.150688 146.008494 
L 262.112381 146.30036 
L 262.074074 146.582081 
L 262.035766 146.854629 
L 261.997459 147.118832 
L 261.959152 147.375399 
L 261.925397 147.595638 
L 261.891642 147.810793 
L 261.857887 148.021195 
L 261.824132 148.227137 
L 261.791204 148.423993 
L 261.758276 148.61708 
L 261.725348 148.806603 
L 261.69242 148.992746 
L 261.658089 149.183403 
L 261.623758 149.370747 
L 261.555096 149.736128 
L 261.51427 149.947881 
L 261.473443 150.155794 
L 261.424637 150.399577 
L 261.37583 150.638452 
L 261.327024 150.872694 
L 261.278217 151.102551 
L 261.197036 151.475775 
L 261.115855 151.838427 
L 261.052814 152.113274 
L 260.989772 152.382576 
L 260.900074 152.756792 
L 260.810375 153.121187 
L 260.752807 153.350206 
L 260.69524 153.575635 
L 260.628559 153.832463 
L 260.561878 154.084902 
L 260.495197 154.333156 
L 260.428516 154.577413 
L 260.350747 154.857473 
L 260.272977 155.13259 
L 260.188354 155.426609 
L 260.103731 155.715331 
L 260.058102 155.8689 
L 259.943868 156.247192 
L 259.829634 156.617076 
L 259.701537 157.022457 
L 259.551296 157.486072 
L 259.446785 157.801486 
L 259.342273 158.111397 
L 259.269315 158.324615 
L 259.160422 158.638268 
L 259.051528 158.946647 
L 258.919165 159.314722 
L 258.813669 159.602999 
L 258.708174 159.886963 
L 258.650695 160.039925 
L 258.520195 160.382769 
L 258.389696 160.719678 
L 258.314633 160.910879 
L 258.189275 161.226138 
L 258.069709 161.522262 
L 257.950143 161.814096 
L 257.758008 162.274459 
L 257.694601 162.424143 
L 257.584702 162.68104 
L 257.474803 162.934801 
L 257.266122 163.408357 
L 257.253738 163.436129 
L 257.102145 163.773164 
L 256.950553 164.104958 
L 256.899872 164.214751 
L 256.685222 164.67367 
L 256.518473 165.023611 
L 256.38588 165.297938 
L 256.288124 165.498022 
L 256.11115 165.855712 
L 255.987175 166.102904 
L 255.754117 166.560334 
L 255.550294 166.952912 
L 255.536003 166.980183 
L 255.363425 167.306959 
L 255.171629 167.664716 
L 255.013125 167.956215 
L 254.774427 168.38835 
L 254.730211 168.467519 
L 254.483734 168.903953 
L 254.3781 169.08852 
L 254.174548 169.440111 
L 254.0652 169.626829 
L 253.943115 169.833553 
L 253.677439 170.27724 
L 253.60819 170.39153 
L 253.417293 170.703759 
L 253.32104 170.859641 
L 253.160318 171.117668 
L 252.92433 171.491523 
L 252.767525 171.736727 
L 252.579558 172.027378 
L 252.514913 172.126524 
L 252.383245 172.3272 
L 252.143821 172.687848 
L 251.955746 172.967387 
L 251.932176 173.002189 
L 251.753171 173.26487 
L 251.481284 173.658421 
L 251.405617 173.766809 
L 251.163663 174.11014 
L 251.070905 174.240469 
L 250.991787 174.351077 
L 250.718692 174.728995 
L 250.611519 174.875691 
L 250.447359 175.098664 
L 250.221248 175.402421 
L 250.096914 175.567824 
L 249.937242 175.778572 
L 249.901691 175.825243 
L 249.654754 176.146928 
L 249.50014 176.346159 
L 249.352814 176.534459 
L 249.168454 176.768015 
L 249.102165 176.851437 
L 248.898178 177.106318 
L 248.674067 177.38322 
L 248.550892 177.534042 
L 248.352421 177.775052 
L 248.245255 177.90417 
L 248.10649 178.070315 
L 247.93665 178.272082 
L 247.786842 178.448622 
L 247.617669 178.646395 
L 247.546403 178.72921 
L 247.280005 179.036203 
L 247.156747 179.176885 
L 247.045863 179.302718 
L 246.841906 179.532403 
L 246.679161 179.714052 
L 246.587685 179.815528 
L 246.403175 180.018858 
L 246.296707 180.135369 
L 246.128402 180.31835 
L 245.948719 180.512095 
L 245.817537 180.652508 
L 245.602061 180.881275 
L 245.437193 181.054761 
L 245.314264 181.183254 
L 245.200182 181.301844 
L 244.950156 181.559573 
L 244.752257 181.761479 
L 244.654073 181.860974 
L 244.474216 182.042079 
L 244.303605 182.212512 
L 244.112757 182.401607 
L 244.024929 182.488083 
L 243.896037 182.614372 
L 243.777394 182.729977 
L 243.627749 182.874916 
L 243.333667 183.156946 
L 243.254345 183.232388 
L 243.142095 183.338695 
L 242.899116 183.567012 
L 242.743891 183.711596 
L 242.626485 183.820301 
L 242.533469 183.906027 
L 242.2668 184.149872 
L 242.20822 184.203059 
L 242.065379 184.332183 
L 241.896542 184.483778 
L 241.722708 184.638705 
L 241.474365 184.858027 
L 241.439698 184.888456 
L 241.232244 185.069606 
L 241.044843 185.231865 
L 240.841138 185.406767 
L 240.762109 185.474213 
L 240.608008 185.605075 
L 240.369611 185.805835 
L 240.219952 185.930829 
L 240.079264 186.047609 
L 239.970157 186.137696 
L 239.758075 186.311621 
L 239.572912 186.462199 
L 239.45086 186.560812 
L 239.293605 186.687121 
L 239.164345 186.790319 
L 238.979656 186.936801 
L 238.810116 187.070269 
L 238.631653 187.209738 
L 238.55955 187.265791 
L 238.455648 187.346268 
L 238.204698 187.539199 
L 238.145702 187.584262 
L 237.900096 187.770671 
L 237.828978 187.824292 
L 237.634409 187.970178 
L 237.501939 188.068826 
L 237.374755 188.163026 
L 237.122747 188.348206 
L 236.90891 188.503817 
L 236.895733 188.513362 
L 236.702541 188.652684 
L 236.488964 188.805407 
L 236.331065 188.917444 
L 236.221801 188.994542 
L 236.05196 189.113689 
L 235.953281 189.182528 
L 235.794713 189.292553 
L 235.642979 189.397158 
L 235.404887 189.559968 
L 235.269271 189.651983 
L 235.098957 189.766805 
L 234.988557 189.840799 
L 234.859223 189.927051 
L 234.659822 190.059119 
L 234.485048 190.173973 
L 234.266056 190.316705 
L 234.102087 190.422721 
L 233.960582 190.513628 
L 233.852353 190.582794 
L 233.65074 190.710804 
L 233.504103 190.803229 
L 233.439507 190.843763 
L 233.272604 190.947986 
L 233.053937 191.083429 
L 232.988859 191.123498 
L 232.740426 191.27545 
L 232.617268 191.350189 
L 232.508728 191.415734 
L 232.233693 191.580478 
L 232.086089 191.668102 
L 231.979799 191.73086 
L 231.749366 191.865944 
L 231.663595 191.915887 
L 231.507692 192.006198 
L 231.507692 324.969231 
L 231.597773 324.969231 
L 231.890087 324.969231 
L 231.977336 324.969231 
L 232.181095 324.969231 
L 232.360014 324.969231 
L 232.36968 324.969231 
L 232.672717 324.969231 
L 232.769076 324.969231 
L 232.948411 324.969231 
L 232.997831 324.969231 
L 233.248398 324.969231 
L 233.45283 324.969231 
L 233.55515 324.969231 
L 233.766531 324.969231 
L 233.822902 324.969231 
L 233.951929 324.969231 
L 234.137582 324.969231 
L 234.391613 324.969231 
L 234.479932 324.969231 
L 234.641372 324.969231 
L 234.753948 324.969231 
L 234.93473 324.969231 
L 235.085474 324.969231 
L 235.254287 324.969231 
L 235.434743 324.969231 
L 235.500198 324.969231 
L 235.724836 324.969231 
L 235.946952 324.969231 
L 236.115175 324.969231 
L 236.213858 324.969231 
L 236.317631 324.969231 
L 236.502525 324.969231 
L 236.70245 324.969231 
L 236.873989 324.969231 
L 236.954059 324.969231 
L 237.163294 324.969231 
L 237.341595 324.969231 
L 237.442134 324.969231 
L 237.571979 324.969231 
L 237.843599 324.969231 
L 237.966784 324.969231 
L 238.111199 324.969231 
L 238.276535 324.969231 
L 238.427966 324.969231 
L 238.585995 324.969231 
L 238.748156 324.969231 
L 238.895222 324.969231 
L 239.04792 324.969231 
L 239.170807 324.969231 
L 239.346896 324.969231 
L 239.513557 324.969231 
L 239.621115 324.969231 
L 239.72792 324.969231 
L 239.906981 324.969231 
L 240.134973 324.969231 
L 240.302242 324.969231 
L 240.408982 324.969231 
L 240.57549 324.969231 
L 240.689537 324.969231 
L 240.957934 324.969231 
L 241.123334 324.969231 
L 241.148716 324.969231 
L 241.309238 324.969231 
L 241.530205 324.969231 
L 241.616672 324.969231 
L 241.867037 324.969231 
L 242.050042 324.969231 
L 242.094852 324.969231 
L 242.355747 324.969231 
L 242.496661 324.969231 
L 242.573087 324.969231 
L 242.718993 324.969231 
L 242.891157 324.969231 
L 243.109531 324.969231 
L 243.308487 324.969231 
L 243.366111 324.969231 
L 243.490375 324.969231 
L 243.690578 324.969231 
L 243.812656 324.969231 
L 244.071207 324.969231 
L 244.205068 324.969231 
L 244.361982 324.969231 
L 244.513168 324.969231 
L 244.727154 324.969231 
L 244.756514 324.969231 
L 245.036784 324.969231 
L 245.137991 324.969231 
L 245.305558 324.969231 
L 245.377014 324.969231 
L 245.649282 324.969231 
L 245.704822 324.969231 
L 245.96443 324.969231 
L 246.084783 324.969231 
L 246.27378 324.969231 
L 246.387398 324.969231 
L 246.510002 324.969231 
L 246.72534 324.969231 
L 246.801894 324.969231 
L 247.019097 324.969231 
L 247.10305 324.969231 
L 247.291508 324.969231 
L 247.466881 324.969231 
L 247.597812 324.969231 
L 247.831181 324.969231 
L 247.9479 324.969231 
L 248.0728 324.969231 
L 248.252811 324.969231 
L 248.40647 324.969231 
L 248.56031 324.969231 
L 248.668776 324.969231 
L 248.844933 324.969231 
L 249.065432 324.969231 
L 249.205373 324.969231 
L 249.372166 324.969231 
L 249.540251 324.969231 
L 249.664658 324.969231 
L 249.88276 324.969231 
L 250.006168 324.969231 
L 250.209125 324.969231 
L 250.231531 324.969231 
L 250.522153 324.969231 
L 250.596412 324.969231 
L 250.812215 324.969231 
L 250.983148 324.969231 
L 251.094948 324.969231 
L 251.175518 324.969231 
L 251.440466 324.969231 
L 251.564928 324.969231 
L 251.743911 324.969231 
L 251.904749 324.969231 
L 252.04878 324.969231 
L 252.242293 324.969231 
L 252.318722 324.969231 
L 252.415879 324.969231 
L 252.66336 324.969231 
L 252.737638 324.969231 
L 253.009103 324.969231 
L 253.080277 324.969231 
L 253.195677 324.969231 
L 253.497717 324.969231 
L 253.634462 324.969231 
L 253.715549 324.969231 
L 253.852247 324.969231 
L 254.043002 324.969231 
L 254.221971 324.969231 
L 254.374878 324.969231 
L 254.52721 324.969231 
L 254.661575 324.969231 
L 254.77974 324.969231 
L 255.004774 324.969231 
L 255.092067 324.969231 
L 255.257063 324.969231 
L 255.508452 324.969231 
L 255.54151 324.969231 
L 255.839442 324.969231 
L 255.996787 324.969231 
L 256.150429 324.969231 
L 256.217763 324.969231 
L 256.325524 324.969231 
L 256.6052 324.969231 
L 256.752007 324.969231 
L 256.907128 324.969231 
L 256.986949 324.969231 
L 257.219479 324.969231 
L 257.376248 324.969231 
L 257.495541 324.969231 
L 257.591117 324.969231 
L 257.759761 324.969231 
L 257.989094 324.969231 
L 258.043563 324.969231 
L 258.223422 324.969231 
L 258.40727 324.969231 
L 258.611655 324.969231 
L 258.812774 324.969231 
L 258.869421 324.969231 
L 259.138017 324.969231 
L 259.278865 324.969231 
L 259.433805 324.969231 
L 259.607764 324.969231 
L 259.710189 324.969231 
L 259.799774 324.969231 
L 259.937938 324.969231 
L 260.175614 324.969231 
L 260.248403 324.969231 
L 260.426742 324.969231 
L 260.549605 324.969231 
L 260.760934 324.969231 
L 260.913192 324.969231 
L 261.143285 324.969231 
L 261.203132 324.969231 
L 261.389326 324.969231 
L 261.532875 324.969231 
L 261.793237 324.969231 
L 261.875463 324.969231 
L 262.025422 324.969231 
L 262.127092 324.969231 
L 262.422042 324.969231 
L 262.44649 324.969231 
L 262.661538 324.969231 
z
" clip-path="url(#p0712c212df)" style="fill: #808080; opacity: 0.5"/>
   </g>
   <g id="patch_8">
    <path d="M 262.661538 138.046154 
L 262.661538 13.430769 
L 263.113177 13.430769 
L 263.256736 13.430769 
L 263.660767 13.430769 
L 264.014336 13.430769 
L 264.125688 13.430769 
L 264.41228 13.430769 
L 264.794716 13.430769 
L 265.139726 13.430769 
L 265.519253 13.430769 
L 265.697208 13.430769 
L 265.954492 13.430769 
L 266.430443 13.430769 
L 266.579927 13.430769 
L 267.11052 13.430769 
L 267.311156 13.430769 
L 267.599313 13.430769 
L 267.950196 13.430769 
L 268.229185 13.430769 
L 268.477725 13.430769 
L 269.001425 13.430769 
L 269.083708 13.430769 
L 269.601047 13.430769 
L 269.882724 13.430769 
L 270.086042 13.430769 
L 270.457196 13.430769 
L 270.91371 13.430769 
L 270.986808 13.430769 
L 271.54738 13.430769 
L 271.843014 13.430769 
L 272.095106 13.430769 
L 272.325767 13.430769 
L 272.609778 13.430769 
L 272.889605 13.430769 
L 273.276505 13.430769 
L 273.612451 13.430769 
L 273.970289 13.430769 
L 274.234351 13.430769 
L 274.470962 13.430769 
L 274.822078 13.430769 
L 275.1024 13.430769 
L 275.385437 13.430769 
L 275.740655 13.430769 
L 276.198255 13.430769 
L 276.491853 13.430769 
L 276.743155 13.430769 
L 277.011609 13.430769 
L 277.288838 13.430769 
L 277.644012 13.430769 
L 277.883649 13.430769 
L 278.284178 13.430769 
L 278.618662 13.430769 
L 278.813809 13.430769 
L 279.237903 13.430769 
L 279.501724 13.430769 
L 279.997808 13.430769 
L 280.246607 13.430769 
L 280.47716 13.430769 
L 280.753549 13.430769 
L 281.114845 13.430769 
L 281.3139 13.430769 
L 281.874101 13.430769 
L 282.128732 13.430769 
L 282.454406 13.430769 
L 282.746845 13.430769 
L 283.023017 13.430769 
L 283.280255 13.430769 
L 283.770278 13.430769 
L 283.811152 13.430769 
L 284.270854 13.430769 
L 284.44951 13.430769 
L 284.743108 13.430769 
L 285.1013 13.430769 
L 285.60947 13.430769 
L 285.786449 13.430769 
L 286.051777 13.430769 
L 286.376766 13.430769 
L 286.872515 13.430769 
L 286.997747 13.430769 
L 287.415745 13.430769 
L 287.770367 13.430769 
L 288.058513 13.430769 
L 288.393405 13.430769 
L 288.776678 13.430769 
L 289.107521 13.430769 
L 289.18018 13.430769 
L 289.62185 13.430769 
L 289.793922 13.430769 
L 290.335315 13.430769 
L 290.601362 13.430769 
L 290.92865 13.430769 
L 291.114976 13.430769 
L 291.331849 13.430769 
L 291.629262 13.430769 
L 292.136927 13.430769 
L 292.418967 13.430769 
L 292.722675 13.430769 
L 292.903421 13.430769 
L 293.426152 13.430769 
L 293.782269 13.430769 
L 293.990526 13.430769 
L 294.410618 13.430769 
L 294.587015 13.430769 
L 294.776783 13.430769 
L 295.210581 13.430769 
L 295.521198 13.430769 
L 295.986812 13.430769 
L 296.124805 13.430769 
L 296.573939 13.430769 
L 296.794657 13.430769 
L 297.1006 13.430769 
L 297.434239 13.430769 
L 297.67783 13.430769 
L 298.197218 13.430769 
L 298.458616 13.430769 
L 298.734012 13.430769 
L 299.138073 13.430769 
L 299.380386 13.430769 
L 299.501865 13.430769 
L 299.913066 13.430769 
L 300.164796 13.430769 
L 300.438041 13.430769 
L 300.931919 13.430769 
L 301.318942 13.430769 
L 301.416455 13.430769 
L 301.868343 13.430769 
L 302.234209 13.430769 
L 302.370861 13.430769 
L 302.672108 13.430769 
L 303.139289 13.430769 
L 303.361464 13.430769 
L 303.823261 13.430769 
L 303.838775 13.430769 
L 304.402795 13.430769 
L 304.701702 13.430769 
L 304.785889 13.430769 
L 305.203131 13.430769 
L 305.683493 13.430769 
L 305.993059 13.430769 
L 306.299059 13.430769 
L 306.535591 13.430769 
L 306.83924 13.430769 
L 307.201537 13.430769 
L 307.412797 13.430769 
L 307.738618 13.430769 
L 308.141114 13.430769 
L 308.388065 13.430769 
L 308.65596 13.430769 
L 308.861284 13.430769 
L 309.397109 13.430769 
L 309.648886 13.430769 
L 310.005272 13.430769 
L 310.328237 13.430769 
L 310.601653 13.430769 
L 310.766761 13.430769 
L 311.285372 13.430769 
L 311.423418 13.430769 
L 311.710747 13.430769 
L 312.216742 13.430769 
L 312.52597 13.430769 
L 312.659885 13.430769 
L 312.959934 13.430769 
L 313.425237 13.430769 
L 313.680418 13.430769 
L 314.133972 13.430769 
L 314.187284 13.430769 
L 314.632669 13.430769 
L 314.800807 13.430769 
L 315.372285 13.430769 
L 315.718606 13.430769 
L 315.810729 13.430769 
L 316.275873 13.430769 
L 316.663282 13.430769 
L 316.711935 13.430769 
L 317.216598 13.430769 
L 317.544026 13.430769 
L 317.666237 13.430769 
L 318.068834 13.430769 
L 318.524488 13.430769 
L 318.629721 13.430769 
L 319.167629 13.430769 
L 319.341736 13.430769 
L 319.641381 13.430769 
L 320.010606 13.430769 
L 320.228413 13.430769 
L 320.690527 13.430769 
L 320.951215 13.430769 
L 321.152194 13.430769 
L 321.550298 13.430769 
L 321.938353 13.430769 
L 322.183283 13.430769 
L 322.534067 13.430769 
L 322.925099 13.430769 
L 323.136311 13.430769 
L 323.319789 13.430769 
L 323.727695 13.430769 
L 323.887275 13.430769 
L 324.337988 13.430769 
L 324.557457 13.430769 
L 324.969231 13.430769 
L 324.969231 138.046154 
z
" clip-path="url(#p0712c212df)" style="fill: #808080; opacity: 0.5"/>
   </g>
   <g id="patch_9">
    <path d="M 262.661538 138.046154 
L 262.648776 136.785113 
L 262.636014 136.262865 
L 262.623251 135.862191 
L 262.610489 135.52446 
L 262.597727 135.226959 
L 262.584964 134.958039 
L 262.572202 134.71078 
L 262.55944 134.480672 
L 262.546677 134.264583 
L 262.533915 134.060232 
L 262.50839 133.680243 
L 262.482865 133.330915 
L 262.457341 133.005868 
L 262.431816 132.700672 
L 262.406291 132.412099 
L 262.380767 132.137714 
L 262.355242 131.875623 
L 262.329717 131.624322 
L 262.304192 131.382588 
L 262.253143 130.923966 
L 262.211408 130.570151 
L 262.169672 130.232564 
L 262.127937 129.909185 
L 262.086201 129.598381 
L 262.044466 129.298813 
L 262.00273 129.009362 
L 261.919259 128.45718 
L 261.835788 127.935798 
L 261.752318 127.440672 
L 261.668847 126.968282 
L 261.585376 126.515832 
L 261.467885 125.908495 
L 261.350395 125.331218 
L 261.232904 124.780076 
L 261.115414 124.251936 
L 260.996026 123.736209 
L 260.876639 123.239395 
L 260.745446 122.71308 
L 260.614254 122.205327 
L 260.483061 121.714406 
L 260.351869 121.238841 
L 260.186937 120.660823 
L 260.022005 120.10293 
L 259.857074 119.563339 
L 259.692142 119.040492 
L 259.501386 118.454905 
L 259.336541 117.964067 
L 259.171696 117.486265 
L 259.006851 117.020609 
L 258.842006 116.56631 
L 258.596462 115.909166 
L 258.33315 115.228423 
L 258.069838 114.570363 
L 257.830948 113.991398 
L 257.592058 113.428362 
L 257.234417 112.612923 
L 256.876776 111.827707 
L 256.682416 111.412702 
L 256.457643 110.942418 
L 256.23287 110.481988 
L 255.94591 109.907729 
L 255.658951 109.347827 
L 255.411395 108.875709 
L 255.163839 108.413179 
L 254.86637 107.869453 
L 254.59003 107.375568 
L 254.31369 106.891961 
L 253.772247 105.972442 
L 253.451609 105.444373 
L 253.130971 104.927826 
L 252.767763 104.35595 
L 252.431676 103.838726 
L 252.09559 103.332461 
L 252.043448 103.254868 
L 251.684248 102.72706 
L 251.325048 102.210625 
L 250.823344 101.50743 
L 250.393633 100.921118 
L 249.910883 100.279123 
L 249.371944 99.582215 
L 248.8628 98.942063 
L 248.378586 98.348889 
L 247.948372 97.834095 
L 247.593117 97.417349 
L 247.132431 96.887771 
L 246.465759 96.142216 
L 246.404055 96.074416 
L 245.910131 95.53882 
L 245.327053 94.922388 
L 244.828669 94.40857 
L 244.277179 93.853514 
L 243.796386 93.380795 
L 243.257941 92.863334 
L 242.838723 92.468926 
L 242.66406 92.306736 
L 241.928942 91.637535 
L 241.760382 91.487081 
L 241.17266 90.970969 
L 240.552417 90.440236 
L 240.077932 90.043596 
L 239.68484 89.72099 
L 239.367028 89.464057 
L 238.702615 88.937902 
L 238.293455 88.621114 
L 237.944265 88.355019 
L 237.427025 87.967935 
L 236.834294 87.534517 
L 236.594167 87.361958 
L 235.943678 86.903096 
L 235.543337 86.626817 
L 234.773198 86.108145 
L 234.424976 85.879051 
L 233.836027 85.499107 
L 233.473016 85.269557 
L 233.263615 85.138728 
L 232.759417 84.828417 
L 232.056522 84.40672 
L 231.841702 84.280334 
L 231.211709 83.916303 
L 230.491634 83.512107 
L 230.305539 83.409677 
L 229.775322 83.12234 
L 229.287524 82.863813 
L 228.871491 82.647666 
L 228.315826 82.365132 
L 227.919583 82.167905 
L 227.588689 82.005884 
L 226.969819 81.709323 
L 226.537901 81.507284 
L 225.936922 81.232821 
L 225.587754 81.076878 
L 224.876484 80.767111 
L 224.544634 80.626172 
L 223.934425 80.372895 
L 223.549228 80.216898 
L 223.130716 80.050786 
L 222.508348 79.810198 
L 222.364686 79.755748 
L 221.686468 79.504137 
L 221.251919 79.34761 
L 220.768735 79.177819 
L 220.387496 79.04699 
L 219.834132 78.861975 
L 219.366799 78.710194 
L 218.985932 78.589498 
L 218.74244 78.513741 
L 218.144599 78.332356 
L 217.527645 78.152004 
L 217.22272 78.06541 
L 216.631487 77.902269 
L 216.027882 77.742148 
L 215.830578 77.69121 
L 215.097012 77.507839 
L 214.564074 77.38053 
L 214.453527 77.354742 
L 213.669316 77.17788 
L 213.541701 77.150103 
L 212.720866 76.978115 
L 212.353765 76.90492 
L 211.910067 76.819507 
L 211.617908 76.765085 
L 211.139709 76.679113 
L 210.557025 76.579548 
L 210.109684 76.506962 
L 209.599518 76.42825 
L 208.998942 76.341123 
L 208.605176 76.287235 
L 208.363996 76.255491 
L 207.568745 76.157595 
L 207.063221 76.100752 
L 206.590181 76.051342 
L 206.40192 76.032693 
L 205.688397 75.967244 
L 205.356156 75.939589 
L 204.878745 75.902982 
L 204.588405 75.882523 
L 203.780383 75.832752 
L 203.514462 75.818676 
L 203.095186 75.798796 
L 202.531684 75.776534 
L 201.857789 75.756615 
L 201.772788 75.754621 
L 201.243337 75.744811 
L 200.835152 75.740321 
L 200.210084 75.738627 
L 199.939044 75.739842 
L 199.253968 75.74817 
L 198.644135 75.761923 
L 198.416633 75.768584 
L 197.952436 75.784755 
L 197.52878 75.80254 
L 196.740745 75.843308 
L 196.497861 75.857892 
L 195.770808 75.907243 
L 195.62804 75.917937 
L 194.932014 75.974806 
L 194.414808 76.022156 
L 194.076958 76.055435 
L 193.535745 76.112625 
L 193.304874 76.138477 
L 192.750086 76.204167 
L 192.345027 76.255319 
L 191.611981 76.354758 
L 191.21191 76.412774 
L 190.795522 76.475975 
L 190.502622 76.522159 
L 189.877504 76.625516 
L 189.389463 76.710758 
L 188.909786 76.798444 
L 188.690191 76.839882 
L 187.988216 76.977834 
L 187.70387 77.0361 
L 186.977681 77.191189 
L 186.56458 77.283462 
L 186.208464 77.365377 
L 185.864152 77.446671 
L 185.030474 77.652091 
L 184.800276 77.710965 
L 184.229749 77.860923 
L 183.57777 78.039389 
L 183.134072 78.165206 
L 182.832864 78.252645 
L 182.320035 78.405311 
L 181.847687 78.550182 
L 181.539104 78.647046 
L 181.073928 78.796401 
L 180.258001 79.068145 
L 179.980256 79.163513 
L 179.544444 79.316116 
L 179.155766 79.455285 
L 178.555235 79.67605 
L 178.250461 79.790777 
L 177.725146 79.992812 
L 177.41054 80.116427 
L 176.826659 80.351094 
L 176.416591 80.520018 
L 175.741629 80.805545 
L 175.30675 80.994498 
L 174.756611 81.239199 
L 174.305047 81.444841 
L 174.01956 81.577101 
L 173.252904 81.941007 
L 173.139615 81.995871 
L 172.44461 82.338676 
L 172.03814 82.544178 
L 171.522008 82.810535 
L 171.258308 82.948983 
L 170.465168 83.375179 
L 170.207012 83.517108 
L 169.794278 83.747339 
L 169.2 84.086109 
L 169.2 13.430769 
L 169.838808 13.430769 
L 170.057187 13.430769 
L 170.822099 13.430769 
L 171.134693 13.430769 
L 171.437534 13.430769 
L 172.142955 13.430769 
L 172.613843 13.430769 
L 172.959089 13.430769 
L 173.363775 13.430769 
L 173.866941 13.430769 
L 174.394733 13.430769 
L 174.899505 13.430769 
L 175.137066 13.430769 
L 175.667125 13.430769 
L 176.229933 13.430769 
L 176.498425 13.430769 
L 177.362322 13.430769 
L 177.491313 13.430769 
L 178.133148 13.430769 
L 178.594847 13.430769 
L 179.019435 13.430769 
L 179.75667 13.430769 
L 180.103801 13.430769 
L 180.445831 13.430769 
L 181.172302 13.430769 
L 181.504694 13.430769 
L 181.754212 13.430769 
L 182.239887 13.430769 
L 182.992355 13.430769 
L 183.260596 13.430769 
L 183.665605 13.430769 
L 184.146995 13.430769 
L 184.646796 13.430769 
L 185.340179 13.430769 
L 185.805 13.430769 
L 186.133316 13.430769 
L 186.771043 13.430769 
L 187.061661 13.430769 
L 187.703073 13.430769 
L 187.823949 13.430769 
L 188.347501 13.430769 
L 188.7173 13.430769 
L 189.243569 13.430769 
L 189.847778 13.430769 
L 190.212748 13.430769 
L 190.865843 13.430769 
L 191.316876 13.430769 
L 191.616502 13.430769 
L 192.418558 13.430769 
L 192.723364 13.430769 
L 192.946461 13.430769 
L 193.805218 13.430769 
L 194.218106 13.430769 
L 194.369806 13.430769 
L 194.914067 13.430769 
L 195.282276 13.430769 
L 195.913055 13.430769 
L 196.267179 13.430769 
L 196.904519 13.430769 
L 197.186783 13.430769 
L 197.830139 13.430769 
L 198.280813 13.430769 
L 198.765674 13.430769 
L 199.292508 13.430769 
L 199.695277 13.430769 
L 200.426572 13.430769 
L 200.740535 13.430769 
L 201.104396 13.430769 
L 201.734995 13.430769 
L 202.027118 13.430769 
L 202.548602 13.430769 
L 203.143235 13.430769 
L 203.703149 13.430769 
L 203.766165 13.430769 
L 204.581431 13.430769 
L 204.873734 13.430769 
L 205.497901 13.430769 
L 205.958399 13.430769 
L 206.202524 13.430769 
L 206.933097 13.430769 
L 207.10432 13.430769 
L 207.479593 13.430769 
L 207.980971 13.430769 
L 208.673344 13.430769 
L 208.958032 13.430769 
L 209.661581 13.430769 
L 210.169617 13.430769 
L 210.330469 13.430769 
L 210.941642 13.430769 
L 211.333268 13.430769 
L 211.979456 13.430769 
L 212.275393 13.430769 
L 212.746296 13.430769 
L 213.176784 13.430769 
L 213.922786 13.430769 
L 214.129465 13.430769 
L 214.802575 13.430769 
L 215.109002 13.430769 
L 215.645031 13.430769 
L 215.966362 13.430769 
L 216.597788 13.430769 
L 217.1603 13.430769 
L 217.761916 13.430769 
L 217.963272 13.430769 
L 218.350828 13.430769 
L 219.209254 13.430769 
L 219.260276 13.430769 
L 220.09031 13.430769 
L 220.205609 13.430769 
L 221.044735 13.430769 
L 221.462247 13.430769 
L 221.930258 13.430769 
L 222.300348 13.430769 
L 222.575652 13.430769 
L 223.260359 13.430769 
L 223.607644 13.430769 
L 224.217846 13.430769 
L 224.778736 13.430769 
L 225.2456 13.430769 
L 225.524242 13.430769 
L 225.926319 13.430769 
L 226.265173 13.430769 
L 227.00073 13.430769 
L 227.281248 13.430769 
L 227.768482 13.430769 
L 228.409956 13.430769 
L 228.80672 13.430769 
L 229.28801 13.430769 
L 229.961423 13.430769 
L 230.460491 13.430769 
L 230.559516 13.430769 
L 231.307339 13.430769 
L 231.849489 13.430769 
L 231.960889 13.430769 
L 232.549581 13.430769 
L 233.194079 13.430769 
L 233.348837 13.430769 
L 233.883016 13.430769 
L 234.703956 13.430769 
L 234.979455 13.430769 
L 235.345102 13.430769 
L 235.847149 13.430769 
L 236.222987 13.430769 
L 236.596824 13.430769 
L 237.512318 13.430769 
L 237.963933 13.430769 
L 238.384542 13.430769 
L 238.741402 13.430769 
L 239.390054 13.430769 
L 239.480628 13.430769 
L 240.018792 13.430769 
L 240.683166 13.430769 
L 241.276084 13.430769 
L 241.657923 13.430769 
L 242.018804 13.430769 
L 242.424098 13.430769 
L 242.785833 13.430769 
L 243.184866 13.430769 
L 244.100635 13.430769 
L 244.241293 13.430769 
L 244.946921 13.430769 
L 245.263705 13.430769 
L 245.573054 13.430769 
L 246.129898 13.430769 
L 246.749148 13.430769 
L 247.386512 13.430769 
L 247.766746 13.430769 
L 248.022558 13.430769 
L 248.605069 13.430769 
L 249.145705 13.430769 
L 249.555567 13.430769 
L 250.010098 13.430769 
L 250.492417 13.430769 
L 250.923543 13.430769 
L 251.334216 13.430769 
L 251.810539 13.430769 
L 252.144525 13.430769 
L 252.601514 13.430769 
L 253.079405 13.430769 
L 253.560425 13.430769 
L 254.159104 13.430769 
L 254.793533 13.430769 
L 255.280732 13.430769 
L 255.558774 13.430769 
L 256.200012 13.430769 
L 256.578646 13.430769 
L 257.106458 13.430769 
L 257.62449 13.430769 
L 258.02455 13.430769 
L 258.560033 13.430769 
L 259.028352 13.430769 
L 259.238422 13.430769 
L 260.002271 13.430769 
L 260.416827 13.430769 
L 260.789352 13.430769 
L 261.142942 13.430769 
L 261.752849 13.430769 
L 262.125661 13.430769 
L 262.661538 13.430769 
z
" clip-path="url(#p0712c212df)" style="fill: #808080; opacity: 0.5"/>
   </g>
   <g id="patch_10">
    <path d="M 13.430769 138.046154 
L 13.430769 324.969231 
L 13.763782 324.969231 
L 14.129465 324.969231 
L 14.426398 324.969231 
L 14.655952 324.969231 
L 14.997696 324.969231 
L 15.455957 324.969231 
L 15.764273 324.969231 
L 16.029778 324.969231 
L 16.243991 324.969231 
L 16.611363 324.969231 
L 16.932287 324.969231 
L 17.044434 324.969231 
L 17.621078 324.969231 
L 17.936501 324.969231 
L 18.098343 324.969231 
L 18.552503 324.969231 
L 18.887534 324.969231 
L 19.002232 324.969231 
L 19.249869 324.969231 
L 19.660341 324.969231 
L 20.132399 324.969231 
L 20.346907 324.969231 
L 20.507618 324.969231 
L 21.051304 324.969231 
L 21.194074 324.969231 
L 21.565485 324.969231 
L 21.86132 324.969231 
L 22.11051 324.969231 
L 22.385291 324.969231 
L 22.760157 324.969231 
L 23.112875 324.969231 
L 23.577006 324.969231 
L 23.653223 324.969231 
L 24.132417 324.969231 
L 24.5385 324.969231 
L 24.760884 324.969231 
L 25.076909 324.969231 
L 25.408 324.969231 
L 25.626043 324.969231 
L 25.974212 324.969231 
L 26.184708 324.969231 
L 26.601318 324.969231 
L 26.826124 324.969231 
L 27.318148 324.969231 
L 27.395565 324.969231 
L 27.689803 324.969231 
L 28.173927 324.969231 
L 28.310034 324.969231 
L 28.847535 324.969231 
L 28.946994 324.969231 
L 29.423 324.969231 
L 29.660286 324.969231 
L 29.979317 324.969231 
L 30.371258 324.969231 
L 30.515889 324.969231 
L 31.05642 324.969231 
L 31.396135 324.969231 
L 31.476254 324.969231 
L 31.914722 324.969231 
L 32.095482 324.969231 
L 32.551417 324.969231 
L 32.813481 324.969231 
L 33.264204 324.969231 
L 33.483742 324.969231 
L 33.821371 324.969231 
L 34.1754 324.969231 
L 34.259713 324.969231 
L 34.64396 324.969231 
L 35.059142 324.969231 
L 35.210194 324.969231 
L 35.799251 324.969231 
L 35.979837 324.969231 
L 36.185258 324.969231 
L 36.74072 324.969231 
L 36.907063 324.969231 
L 37.155699 324.969231 
L 37.501869 324.969231 
L 37.773181 324.969231 
L 38.168527 324.969231 
L 38.608225 324.969231 
L 38.915155 324.969231 
L 39.155363 324.969231 
L 39.420836 324.969231 
L 39.732383 324.969231 
L 40.003077 324.969231 
L 40.389157 324.969231 
L 40.755914 324.969231 
L 40.889672 324.969231 
L 41.203254 324.969231 
L 41.732002 324.969231 
L 41.875593 324.969231 
L 42.220256 324.969231 
L 42.616309 324.969231 
L 42.715934 324.969231 
L 43.32627 324.969231 
L 43.583179 324.969231 
L 43.67794 324.969231 
L 44.179455 324.969231 
L 44.359995 324.969231 
L 44.718403 324.969231 
L 45.136776 324.969231 
L 45.349132 324.969231 
L 45.758312 324.969231 
L 46.066498 324.969231 
L 46.152551 324.969231 
L 46.466948 324.969231 
L 47.064981 324.969231 
L 47.193434 324.969231 
L 47.448118 324.969231 
L 47.962518 324.969231 
L 48.031902 324.969231 
L 48.419296 324.969231 
L 48.697062 324.969231 
L 49.205591 324.969231 
L 49.293773 324.969231 
L 49.747616 324.969231 
L 49.973446 324.969231 
L 50.407476 324.969231 
L 50.688576 324.969231 
L 51.112895 324.969231 
L 51.421676 324.969231 
L 51.723587 324.969231 
L 51.879346 324.969231 
L 52.267416 324.969231 
L 52.559499 324.969231 
L 52.902245 324.969231 
L 53.066939 324.969231 
L 53.403954 324.969231 
L 53.76865 324.969231 
L 54.054709 324.969231 
L 54.492039 324.969231 
L 54.684394 324.969231 
L 55.025534 324.969231 
L 55.28914 324.969231 
L 55.700109 324.969231 
L 55.972132 324.969231 
L 56.306021 324.969231 
L 56.548441 324.969231 
L 56.973472 324.969231 
L 57.147168 324.969231 
L 57.668375 324.969231 
L 57.86277 324.969231 
L 58.177228 324.969231 
L 58.500573 324.969231 
L 58.725314 324.969231 
L 59.177005 324.969231 
L 59.412505 324.969231 
L 59.815139 324.969231 
L 60.169987 324.969231 
L 60.505813 324.969231 
L 60.606852 324.969231 
L 61.177031 324.969231 
L 61.341176 324.969231 
L 61.550875 324.969231 
L 61.872106 324.969231 
L 62.335241 324.969231 
L 62.472502 324.969231 
L 63.014689 324.969231 
L 63.141704 324.969231 
L 63.58902 324.969231 
L 63.966534 324.969231 
L 64.307878 324.969231 
L 64.396965 324.969231 
L 64.697176 324.969231 
L 65.108043 324.969231 
L 65.290331 324.969231 
L 65.576457 324.969231 
L 65.922126 324.969231 
L 66.423629 324.969231 
L 66.59141 324.969231 
L 67.027371 324.969231 
L 67.294397 324.969231 
L 67.516542 324.969231 
L 67.805668 324.969231 
L 68.179015 324.969231 
L 68.405556 324.969231 
L 68.71479 324.969231 
L 69.0334 324.969231 
L 69.362294 324.969231 
L 69.68007 324.969231 
L 70.021356 324.969231 
L 70.470093 324.969231 
L 70.610665 324.969231 
L 70.91514 324.969231 
L 71.258098 324.969231 
L 71.585709 324.969231 
L 71.87984 324.969231 
L 72.262772 324.969231 
L 72.728242 324.969231 
L 73.062951 324.969231 
L 73.123863 324.969231 
L 73.550029 324.969231 
L 73.767981 324.969231 
L 74.317148 324.969231 
L 74.539835 324.969231 
L 74.914778 324.969231 
L 75.120897 324.969231 
L 75.52655 324.969231 
L 75.738462 324.969231 
L 75.738462 138.046154 
z
" clip-path="url(#p0712c212df)" style="fill: #808080; opacity: 0.5"/>
   </g>
   <g id="patch_11">
    <path d="M 231.507692 200.353846 
L 231.491034 201.794555 
L 231.474375 202.39118 
L 231.457716 202.848893 
L 231.441058 203.234685 
L 231.424399 203.574507 
L 231.407741 203.881667 
L 231.391082 204.164074 
L 231.374423 204.426878 
L 231.357765 204.67366 
L 231.341106 204.907025 
L 231.307789 205.340936 
L 231.274472 205.739797 
L 231.241155 206.110899 
L 231.207837 206.459305 
L 231.17452 206.788702 
L 231.141203 207.101875 
L 231.107886 207.400988 
L 231.041251 207.963587 
L 230.974617 208.486818 
L 230.895281 209.068249 
L 230.815945 209.612561 
L 230.73661 210.12596 
L 230.657274 210.613087 
L 230.577938 211.077523 
L 230.498602 211.5221 
L 230.419266 211.949101 
L 230.339931 212.360403 
L 230.203627 213.034777 
L 230.067324 213.67366 
L 229.93102 214.281937 
L 229.794717 214.863458 
L 229.667989 215.382844 
L 229.541262 215.883836 
L 229.414535 216.368161 
L 229.287808 216.837288 
L 229.161081 217.29248 
L 229.034354 217.734832 
L 228.780899 218.584726 
L 228.59487 219.181961 
L 228.408841 219.759042 
L 228.219132 220.328595 
L 228.029422 220.880599 
L 227.839713 221.416434 
L 227.650003 221.937303 
L 227.340741 222.757031 
L 227.031479 223.543682 
L 226.678999 224.404068 
L 226.326519 225.229725 
L 225.951257 226.07433 
L 225.560813 226.918998 
L 225.170369 227.732055 
L 224.818771 228.439445 
L 224.467173 229.125153 
L 224.097597 229.824211 
L 223.72802 230.502536 
L 223.276327 231.305412 
L 222.953558 231.862631 
L 222.362681 232.849659 
L 221.950372 233.514769 
L 221.538062 234.161771 
L 221.06092 234.889242 
L 220.583777 235.595241 
L 220.011711 236.415162 
L 219.526631 237.089099 
L 219.073637 237.701789 
L 218.296374 238.717821 
L 217.899563 239.220298 
L 217.363946 239.882099 
L 216.816616 240.539744 
L 216.269287 241.17946 
L 216.049161 241.431877 
L 215.190684 242.390801 
L 214.572466 243.057334 
L 213.77722 243.886821 
L 213.207173 244.462998 
L 212.807027 244.858629 
L 212.386114 245.267186 
L 211.50318 246.099769 
L 210.85818 246.6879 
L 210.049739 247.402198 
L 209.877184 247.551465 
L 209.18452 248.139688 
L 208.637685 248.59198 
L 208.017539 249.092406 
L 207.163361 249.760645 
L 206.690388 250.120495 
L 205.900009 250.706183 
L 204.89602 251.422845 
L 204.607121 251.623567 
L 203.820432 252.158037 
L 203.02189 252.682885 
L 202.78663 252.834193 
L 201.910389 253.384771 
L 201.179381 253.828772 
L 200.630673 254.153115 
L 200.147778 254.432341 
L 199.565342 254.761516 
L 198.803955 255.179519 
L 198.125057 255.540707 
L 197.498278 255.86471 
L 197.141539 256.045128 
L 196.557859 256.334165 
L 196.043718 256.582516 
L 195.417014 256.87744 
L 194.809986 257.155053 
L 194.021664 257.503942 
L 193.075092 257.90581 
L 192.546519 258.122251 
L 192.154981 258.278948 
L 191.554303 258.513399 
L 191.090973 258.689374 
L 190.304025 258.978659 
L 189.624846 259.218727 
L 188.784364 259.503666 
L 188.077671 259.732985 
L 187.96681 259.768115 
L 187.102638 260.034195 
L 186.173749 260.304996 
L 185.666284 260.446358 
L 185.36698 260.527572 
L 184.395583 260.780188 
L 184.170676 260.836301 
L 183.020874 261.109356 
L 182.508508 261.223643 
L 182.084564 261.314789 
L 181.336437 261.468128 
L 180.74057 261.583445 
L 180.238948 261.675866 
L 179.483792 261.807017 
L 179.183947 261.856442 
L 178.424697 261.974894 
L 177.689354 262.080497 
L 177.309271 262.131579 
L 176.365717 262.248119 
L 175.48744 262.343495 
L 175.030721 262.388121 
L 174.460055 262.439113 
L 173.961443 262.479342 
L 173.0003 262.545536 
L 172.836296 262.55534 
L 171.77702 262.608223 
L 171.487392 262.619538 
L 170.78162 262.641461 
L 170.205676 262.653422 
L 169.272255 262.661497 
L 168.807659 262.660303 
L 168.056609 262.651047 
L 167.414519 262.635951 
L 166.707083 262.611648 
L 166.514482 262.603637 
L 165.793233 262.568334 
L 165.022158 262.521315 
L 164.201686 262.460733 
L 163.632054 262.412258 
L 163.372283 262.388403 
L 162.803223 262.332308 
L 162.204908 262.267635 
L 161.659428 262.20357 
L 160.557379 262.059224 
L 159.84778 261.955668 
L 159.649153 261.925186 
L 158.673286 261.765871 
L 158.384207 261.715619 
L 157.873491 261.623404 
L 156.685562 261.391846 
L 156.251487 261.301238 
L 155.641312 261.168404 
L 155.116377 261.048987 
L 154.738165 260.959983 
L 153.91819 260.758439 
L 153.166191 260.563193 
L 152.582981 260.404851 
L 152.194022 260.295862 
L 151.428022 260.073234 
L 150.769386 259.873263 
L 150.061711 259.649499 
L 149.469621 259.455121 
L 148.846202 259.243331 
L 147.973715 258.934503 
L 147.654505 258.817854 
L 146.868168 258.522032 
L 146.067046 258.208102 
L 145.612543 258.024293 
L 145.246873 257.873375 
L 144.696062 257.640892 
L 143.891442 257.289998 
L 143.322258 257.033569 
L 142.305717 256.558348 
L 141.973783 256.398307 
L 141.328274 256.080101 
L 140.794334 255.809835 
L 140.23426 255.519365 
L 139.202622 254.965254 
L 138.851134 254.770708 
L 138.373008 254.501284 
L 137.605168 254.056873 
L 137.218165 253.827305 
L 136.457281 253.364816 
L 135.91823 253.028055 
L 134.94572 252.400871 
L 134.285437 251.960259 
L 134.052006 251.801558 
L 133.416883 251.361856 
L 132.551351 250.743578 
L 131.638463 250.066817 
L 131.209174 249.739529 
L 130.711327 249.352526 
L 130.221507 248.963779 
L 129.467142 248.349143 
L 128.663554 247.672395 
L 128.482081 247.516327 
L 127.812769 246.930081 
L 127.070999 246.260227 
L 126.225073 245.4693 
L 125.503139 244.770429 
L 125.245658 244.515644 
L 124.590313 243.853551 
L 124.073743 243.317429 
L 123.557173 242.768241 
L 123.189755 242.36939 
L 122.4216 241.512439 
L 122.018272 241.049461 
L 121.124116 239.989157 
L 120.592473 239.33534 
L 120.208054 238.85109 
L 119.537479 237.982061 
L 119.052875 237.333764 
L 118.56827 236.667431 
L 118.466455 236.525049 
L 118.017782 235.887338 
L 117.569109 235.232201 
L 117.20366 234.685015 
L 116.838211 234.12501 
L 116.196818 233.109169 
L 115.971208 232.741254 
L 115.580092 232.089536 
L 115.188976 231.419226 
L 114.714639 230.579564 
L 114.240302 229.708235 
L 113.872848 229.009645 
L 113.505394 228.288759 
L 113.113235 227.492809 
L 112.862339 226.968061 
L 112.611442 226.430342 
L 112.207679 225.535661 
L 111.922912 224.881049 
L 111.638145 224.20508 
L 111.353378 223.505884 
L 111.068611 222.781289 
L 110.76761 221.984941 
L 110.466608 221.153778 
L 110.198172 220.379651 
L 109.929737 219.570621 
L 109.747744 218.999966 
L 109.565751 218.409452 
L 109.383758 217.797062 
L 109.201766 217.160404 
L 109.042315 216.580412 
L 108.882864 215.97728 
L 108.723414 215.348213 
L 108.563963 214.6898 
L 108.459598 214.240965 
L 108.355233 213.776321 
L 108.250868 213.294162 
L 108.146502 212.792453 
L 108.052871 212.323687 
L 107.959239 211.835035 
L 107.865607 211.323841 
L 107.771976 210.786791 
L 107.678344 210.219663 
L 107.584712 209.616936 
L 107.491081 208.971141 
L 107.444265 208.62897 
L 107.397449 208.271749 
L 107.334306 207.76225 
L 107.271164 207.214439 
L 107.239592 206.923198 
L 107.208021 206.618273 
L 107.17645 206.297558 
L 107.144878 205.958343 
L 107.113307 205.597038 
L 107.081736 205.208715 
L 107.050164 204.786277 
L 107.034379 204.559086 
L 107.018593 204.318836 
L 107.002807 204.062989 
L 106.987022 203.788063 
L 106.971236 203.489042 
L 106.95545 203.158228 
L 106.939665 202.782666 
L 106.923879 202.337095 
L 106.908093 201.756304 
L 106.892308 200.353846 
L 106.892308 324.969231 
L 107.421646 324.969231 
L 108.30443 324.969231 
L 108.89808 324.969231 
L 109.448447 324.969231 
L 110.119938 324.969231 
L 110.656378 324.969231 
L 111.55941 324.969231 
L 111.743854 324.969231 
L 112.452563 324.969231 
L 113.27421 324.969231 
L 113.934808 324.969231 
L 114.120068 324.969231 
L 115.205693 324.969231 
L 115.372063 324.969231 
L 116.582508 324.969231 
L 116.763958 324.969231 
L 117.239015 324.969231 
L 118.190619 324.969231 
L 118.956553 324.969231 
L 119.350393 324.969231 
L 119.948976 324.969231 
L 120.462442 324.969231 
L 121.583441 324.969231 
L 121.946127 324.969231 
L 122.476567 324.969231 
L 123.0303 324.969231 
L 124.03586 324.969231 
L 124.317252 324.969231 
L 124.946751 324.969231 
L 125.762331 324.969231 
L 126.37914 324.969231 
L 126.817925 324.969231 
L 127.44772 324.969231 
L 128.419854 324.969231 
L 128.835935 324.969231 
L 129.603713 324.969231 
L 129.932368 324.969231 
L 130.604264 324.969231 
L 131.113222 324.969231 
L 132.215754 324.969231 
L 132.798126 324.969231 
L 132.889235 324.969231 
L 134.095272 324.969231 
L 134.710489 324.969231 
L 135.313424 324.969231 
L 135.473563 324.969231 
L 136.219402 324.969231 
L 136.838208 324.969231 
L 137.410994 324.969231 
L 137.953555 324.969231 
L 138.611673 324.969231 
L 139.766605 324.969231 
L 139.806435 324.969231 
L 140.981368 324.969231 
L 141.573925 324.969231 
L 141.788156 324.969231 
L 142.385841 324.969231 
L 143.152955 324.969231 
L 144.010121 324.969231 
L 144.595872 324.969231 
L 144.886703 324.969231 
L 145.838999 324.969231 
L 146.50818 324.969231 
L 146.893639 324.969231 
L 147.515385 324.969231 
L 148.379635 324.969231 
L 148.807105 324.969231 
L 149.179489 324.969231 
L 150.163812 324.969231 
L 150.969749 324.969231 
L 151.465171 324.969231 
L 151.998573 324.969231 
L 152.40281 324.969231 
L 153.252161 324.969231 
L 153.718681 324.969231 
L 154.567948 324.969231 
L 155.238158 324.969231 
L 155.817876 324.969231 
L 156.503598 324.969231 
L 157.202543 324.969231 
L 157.432002 324.969231 
L 158.477364 324.969231 
L 158.565703 324.969231 
L 159.800629 324.969231 
L 159.888899 324.969231 
L 160.942308 324.969231 
L 161.142905 324.969231 
L 162.189236 324.969231 
L 162.539275 324.969231 
L 163.301964 324.969231 
L 163.699944 324.969231 
L 164.398193 324.969231 
L 165.235668 324.969231 
L 165.992591 324.969231 
L 166.312757 324.969231 
L 167.101702 324.969231 
L 167.753203 324.969231 
L 168.490483 324.969231 
L 168.63426 324.969231 
L 169.238116 324.969231 
L 170.114842 324.969231 
L 170.883246 324.969231 
L 171.25058 324.969231 
L 172.066436 324.969231 
L 172.684561 324.969231 
L 173.379451 324.969231 
L 174.092203 324.969231 
L 174.426762 324.969231 
L 175.132931 324.969231 
L 175.796638 324.969231 
L 176.475209 324.969231 
L 176.830813 324.969231 
L 177.798492 324.969231 
L 178.320684 324.969231 
L 178.725463 324.969231 
L 179.543555 324.969231 
L 179.953918 324.969231 
L 180.519529 324.969231 
L 181.434969 324.969231 
L 182.124374 324.969231 
L 182.704504 324.969231 
L 183.209358 324.969231 
L 184.016981 324.969231 
L 184.460119 324.969231 
L 184.888368 324.969231 
L 185.657917 324.969231 
L 186.260899 324.969231 
L 187.183184 324.969231 
L 187.362466 324.969231 
L 188.550776 324.969231 
L 188.964437 324.969231 
L 189.625723 324.969231 
L 189.995245 324.969231 
L 190.603271 324.969231 
L 191.169824 324.969231 
L 191.791879 324.969231 
L 192.648343 324.969231 
L 193.361057 324.969231 
L 193.738074 324.969231 
L 194.789221 324.969231 
L 194.906419 324.969231 
L 196.043357 324.969231 
L 196.421907 324.969231 
L 197.223662 324.969231 
L 197.783305 324.969231 
L 198.078112 324.969231 
L 198.984226 324.969231 
L 199.873698 324.969231 
L 200.430459 324.969231 
L 200.679148 324.969231 
L 201.675581 324.969231 
L 201.79907 324.969231 
L 202.66216 324.969231 
L 203.095405 324.969231 
L 203.857514 324.969231 
L 204.755701 324.969231 
L 205.441527 324.969231 
L 205.703107 324.969231 
L 206.377079 324.969231 
L 207.330492 324.969231 
L 207.5752 324.969231 
L 208.461735 324.969231 
L 208.780583 324.969231 
L 209.631105 324.969231 
L 210.229932 324.969231 
L 210.751434 324.969231 
L 211.551411 324.969231 
L 212.135614 324.969231 
L 212.932988 324.969231 
L 213.136185 324.969231 
L 213.671721 324.969231 
L 214.872328 324.969231 
L 215.290242 324.969231 
L 215.589726 324.969231 
L 216.268576 324.969231 
L 217.172701 324.969231 
L 217.885432 324.969231 
L 218.187723 324.969231 
L 219.291556 324.969231 
L 219.706785 324.969231 
L 220.042551 324.969231 
L 220.64208 324.969231 
L 221.41532 324.969231 
L 222.02256 324.969231 
L 222.928365 324.969231 
L 223.150657 324.969231 
L 223.969035 324.969231 
L 224.743122 324.969231 
L 225.144733 324.969231 
L 225.671395 324.969231 
L 226.209691 324.969231 
L 226.910236 324.969231 
L 227.563879 324.969231 
L 228.347018 324.969231 
L 229.101044 324.969231 
L 229.413265 324.969231 
L 230.133956 324.969231 
L 230.730548 324.969231 
L 231.507692 324.969231 
z
" clip-path="url(#p0712c212df)" style="fill: #808080; opacity: 0.5"/>
   </g>
   <g id="patch_12">
    <path d="M 262.661538 138.046154 
L 262.661538 324.969231 
L 262.952687 324.969231 
L 263.183437 324.969231 
L 263.749833 324.969231 
L 264.034617 324.969231 
L 264.16199 324.969231 
L 264.528153 324.969231 
L 264.917602 324.969231 
L 265.062063 324.969231 
L 265.455888 324.969231 
L 265.810908 324.969231 
L 266.060119 324.969231 
L 266.563216 324.969231 
L 266.753739 324.969231 
L 266.932024 324.969231 
L 267.43271 324.969231 
L 267.757116 324.969231 
L 268.008173 324.969231 
L 268.285675 324.969231 
L 268.674953 324.969231 
L 268.917049 324.969231 
L 269.237948 324.969231 
L 269.503622 324.969231 
L 269.770266 324.969231 
L 270.076623 324.969231 
L 270.589799 324.969231 
L 270.831207 324.969231 
L 271.062386 324.969231 
L 271.321833 324.969231 
L 271.675216 324.969231 
L 271.963631 324.969231 
L 272.456688 324.969231 
L 272.557425 324.969231 
L 272.925544 324.969231 
L 273.311067 324.969231 
L 273.488883 324.969231 
L 273.907344 324.969231 
L 274.173619 324.969231 
L 274.476181 324.969231 
L 274.774438 324.969231 
L 275.224413 324.969231 
L 275.413535 324.969231 
L 275.898355 324.969231 
L 276.083379 324.969231 
L 276.332318 324.969231 
L 276.62171 324.969231 
L 276.999336 324.969231 
L 277.24623 324.969231 
L 277.760621 324.969231 
L 278.025713 324.969231 
L 278.458482 324.969231 
L 278.664014 324.969231 
L 278.821497 324.969231 
L 279.349269 324.969231 
L 279.639056 324.969231 
L 279.868884 324.969231 
L 280.259139 324.969231 
L 280.550885 324.969231 
L 280.822738 324.969231 
L 281.083851 324.969231 
L 281.564876 324.969231 
L 281.659284 324.969231 
L 281.943553 324.969231 
L 282.23283 324.969231 
L 282.846775 324.969231 
L 282.967928 324.969231 
L 283.420874 324.969231 
L 283.605944 324.969231 
L 283.98623 324.969231 
L 284.229746 324.969231 
L 284.664339 324.969231 
L 284.79167 324.969231 
L 285.071693 324.969231 
L 285.603031 324.969231 
L 285.722764 324.969231 
L 286.091916 324.969231 
L 286.60048 324.969231 
L 286.691669 324.969231 
L 286.935953 324.969231 
L 287.248286 324.969231 
L 287.742833 324.969231 
L 287.897652 324.969231 
L 288.425987 324.969231 
L 288.649052 324.969231 
L 289.033267 324.969231 
L 289.390323 324.969231 
L 289.658682 324.969231 
L 289.900021 324.969231 
L 290.288404 324.969231 
L 290.571804 324.969231 
L 290.692338 324.969231 
L 291.291193 324.969231 
L 291.582858 324.969231 
L 291.891149 324.969231 
L 291.941774 324.969231 
L 292.300005 324.969231 
L 292.571051 324.969231 
L 293.17094 324.969231 
L 293.304787 324.969231 
L 293.794274 324.969231 
L 293.90861 324.969231 
L 294.201346 324.969231 
L 294.559087 324.969231 
L 294.887843 324.969231 
L 295.281635 324.969231 
L 295.608104 324.969231 
L 295.793302 324.969231 
L 296.283643 324.969231 
L 296.320689 324.969231 
L 296.678758 324.969231 
L 297.191499 324.969231 
L 297.331811 324.969231 
L 297.872726 324.969231 
L 297.947745 324.969231 
L 298.459904 324.969231 
L 298.809225 324.969231 
L 299.03252 324.969231 
L 299.241838 324.969231 
L 299.630965 324.969231 
L 299.911669 324.969231 
L 300.279979 324.969231 
L 300.693832 324.969231 
L 300.888784 324.969231 
L 301.123295 324.969231 
L 301.591694 324.969231 
L 301.8133 324.969231 
L 302.054629 324.969231 
L 302.426963 324.969231 
L 302.589502 324.969231 
L 303.060705 324.969231 
L 303.257607 324.969231 
L 303.613012 324.969231 
L 303.992698 324.969231 
L 304.261816 324.969231 
L 304.51263 324.969231 
L 305.044204 324.969231 
L 305.36089 324.969231 
L 305.489092 324.969231 
L 305.936738 324.969231 
L 306.236749 324.969231 
L 306.496127 324.969231 
L 306.784647 324.969231 
L 307.212927 324.969231 
L 307.29873 324.969231 
L 307.751113 324.969231 
L 308.078437 324.969231 
L 308.425746 324.969231 
L 308.780998 324.969231 
L 308.884921 324.969231 
L 309.331182 324.969231 
L 309.738877 324.969231 
L 309.807354 324.969231 
L 310.263067 324.969231 
L 310.454957 324.969231 
L 310.841858 324.969231 
L 311.093694 324.969231 
L 311.598019 324.969231 
L 311.691666 324.969231 
L 311.976432 324.969231 
L 312.297311 324.969231 
L 312.616828 324.969231 
L 312.963592 324.969231 
L 313.36482 324.969231 
L 313.693134 324.969231 
L 314.167143 324.969231 
L 314.211831 324.969231 
L 314.63291 324.969231 
L 314.906755 324.969231 
L 315.226564 324.969231 
L 315.449223 324.969231 
L 315.826105 324.969231 
L 316.18017 324.969231 
L 316.452157 324.969231 
L 316.810555 324.969231 
L 317.107001 324.969231 
L 317.315644 324.969231 
L 317.825006 324.969231 
L 318.136389 324.969231 
L 318.411484 324.969231 
L 318.832124 324.969231 
L 318.871858 324.969231 
L 319.437443 324.969231 
L 319.704965 324.969231 
L 319.8722 324.969231 
L 320.394858 324.969231 
L 320.665181 324.969231 
L 320.861961 324.969231 
L 321.293377 324.969231 
L 321.3727 324.969231 
L 321.81677 324.969231 
L 322.265256 324.969231 
L 322.515883 324.969231 
L 322.675824 324.969231 
L 322.959314 324.969231 
L 323.405518 324.969231 
L 323.765263 324.969231 
L 324.0799 324.969231 
L 324.418318 324.969231 
L 324.735609 324.969231 
L 324.969231 324.969231 
L 324.969231 138.046154 
z
" clip-path="url(#p0712c212df)" style="fill: #808080; opacity: 0.5"/>
   </g>
   <g id="matplotlib.axis_1"/>
   <g id="matplotlib.axis_2"/>
   <g id="line2d_1">
    <path d="M 75.738462 324.969231 
L 106.892308 324.969231 
L 106.892308 324.969231 
" clip-path="url(#p0712c212df)" style="fill: none; stroke: #000000; stroke-linecap: square"/>
   </g>
   <g id="line2d_2">
    <path d="M 13.430769 13.430769 
L 75.738462 13.430769 
L 75.738462 13.430769 
" clip-path="url(#p0712c212df)" style="fill: none; stroke: #000000; stroke-linecap: square"/>
   </g>
   <g id="line2d_3">
    <path d="M 75.738462 13.430769 
L 169.2 13.430769 
L 169.2 13.430769 
" clip-path="url(#p0712c212df)" style="fill: none; stroke: #000000; stroke-linecap: square"/>
   </g>
   <g id="line2d_4">
    <path d="M 231.507692 324.969231 
L 262.661538 324.969231 
L 262.661538 324.969231 
" clip-path="url(#p0712c212df)" style="fill: none; stroke: #000000; stroke-linecap: square"/>
   </g>
   <g id="line2d_5">
    <path d="M 262.661538 13.430769 
L 324.969231 13.430769 
L 324.969231 13.430769 
" clip-path="url(#p0712c212df)" style="fill: none; stroke: #000000; stroke-linecap: square"/>
   </g>
   <g id="line2d_6">
    <path d="M 169.2 13.430769 
L 262.661538 13.430769 
L 262.661538 13.430769 
" clip-path="url(#p0712c212df)" style="fill: none; stroke: #000000; stroke-linecap: square"/>
   </g>
   <g id="line2d_7">
    <path d="M 13.430769 324.969231 
L 75.738462 324.969231 
L 75.738462 324.969231 
" clip-path="url(#p0712c212df)" style="fill: none; stroke: #000000; stroke-linecap: square"/>
   </g>
   <g id="line2d_8">
    <path d="M 106.892308 324.969231 
L 231.507692 324.969231 
L 231.507692 324.969231 
" clip-path="url(#p0712c212df)" style="fill: none; stroke: #000000; stroke-linecap: square"/>
   </g>
   <g id="line2d_9">
    <path d="M 262.661538 324.969231 
L 324.969231 324.969231 
L 324.969231 324.969231 
" clip-path="url(#p0712c212df)" style="fill: none; stroke: #000000; stroke-linecap: square"/>
   </g>
   <g id="text_1">
    <!-- $\Omega$ -->
    <g transform="translate(16.011538 22.420913) scale(0.1 -0.1)">
     <defs>
      <path id="Cmr10-ad" d="M 494 0 
L 281 1063 
L 469 1063 
Q 503 878 531 736 
Q 559 594 604 536 
Q 650 478 750 459 
Q 850 441 1081 441 
L 1472 441 
Q 1378 803 1004 1386 
Q 631 1969 495 2233 
Q 359 2497 359 2913 
Q 359 3397 646 3761 
Q 934 4125 1389 4319 
Q 1844 4513 2309 4513 
Q 2772 4513 3226 4319 
Q 3681 4125 3968 3758 
Q 4256 3391 4256 2913 
Q 4256 2588 4137 2300 
Q 4019 2013 3834 1725 
Q 3650 1438 3436 1084 
Q 3222 731 3144 441 
L 3531 441 
Q 3766 441 3869 459 
Q 3972 478 4015 536 
Q 4059 594 4086 736 
Q 4113 878 4147 1063 
L 4331 1063 
L 4122 0 
L 2988 0 
Q 2925 0 2925 84 
Q 2925 409 3004 721 
Q 3084 1034 3240 1478 
Q 3397 1922 3484 2261 
Q 3572 2600 3572 2913 
Q 3572 3297 3422 3625 
Q 3272 3953 2984 4150 
Q 2697 4347 2309 4347 
Q 1725 4347 1384 3930 
Q 1044 3513 1044 2913 
Q 1047 2584 1122 2293 
Q 1197 2003 1364 1518 
Q 1531 1034 1611 721 
Q 1691 409 1691 84 
Q 1691 0 1625 0 
L 494 0 
z
" transform="scale(0.015625)"/>
     </defs>
     <use xlink:href="#Cmr10-ad" transform="translate(0 0.484375)"/>
    </g>
   </g>
   <g id="text_2">
    <!-- $A$ -->
    <g style="fill: #0000ff" transform="translate(103.142308 78.497837) scale(0.1 -0.1)">
     <defs>
      <path id="Cmmi10-41" d="M 288 0 
Q 225 0 225 84 
Q 250 225 306 225 
Q 566 225 755 328 
Q 944 431 1081 647 
Q 1094 659 1094 659 
L 3378 4513 
Q 3428 4581 3500 4581 
L 3584 4581 
Q 3603 4581 3622 4573 
Q 3641 4566 3655 4548 
Q 3669 4531 3669 4513 
L 4056 378 
Q 4056 350 4084 294 
Q 4147 225 4563 225 
Q 4628 225 4628 141 
Q 4606 56 4592 28 
Q 4578 0 4519 0 
L 2919 0 
Q 2859 0 2859 84 
Q 2894 225 2944 225 
Q 3450 225 3481 397 
L 3384 1453 
L 1806 1453 
L 1294 594 
Q 1247 525 1247 434 
Q 1247 322 1355 273 
Q 1463 225 1594 225 
Q 1656 225 1656 141 
Q 1634 50 1621 25 
Q 1609 0 1550 0 
L 288 0 
z
M 1931 1678 
L 3359 1678 
L 3169 3750 
L 1931 1678 
z
" transform="scale(0.015625)"/>
     </defs>
     <use xlink:href="#Cmmi10-41" transform="translate(0 0.421875)"/>
    </g>
   </g>
   <g id="text_3">
    <!-- $B$ -->
    <g style="fill: #ff0000" transform="translate(227.707692 78.497837) scale(0.1 -0.1)">
     <defs>
      <path id="Cmmi10-42" d="M 319 0 
Q 256 0 256 84 
Q 259 100 268 137 
Q 278 175 293 200 
Q 309 225 341 225 
Q 522 225 656 234 
Q 791 244 884 269 
Q 959 297 1006 441 
L 1881 3956 
Q 1894 4019 1894 4044 
Q 1894 4113 1819 4122 
Q 1697 4147 1356 4147 
Q 1294 4147 1294 4231 
Q 1297 4247 1306 4286 
Q 1316 4325 1333 4348 
Q 1350 4372 1375 4372 
L 3669 4372 
Q 3878 4372 4083 4320 
Q 4288 4269 4461 4156 
Q 4634 4044 4736 3876 
Q 4838 3709 4838 3488 
Q 4838 3247 4714 3040 
Q 4591 2834 4395 2681 
Q 4200 2528 3973 2429 
Q 3747 2331 3500 2284 
Q 3675 2284 3854 2215 
Q 4034 2147 4175 2028 
Q 4316 1909 4402 1743 
Q 4488 1578 4488 1388 
Q 4488 1003 4219 684 
Q 3950 366 3542 183 
Q 3134 0 2753 0 
L 319 0 
z
M 1497 275 
Q 1497 225 1716 225 
L 2631 225 
Q 2944 225 3231 398 
Q 3519 572 3692 859 
Q 3866 1147 3866 1459 
Q 3866 1650 3786 1820 
Q 3706 1991 3556 2089 
Q 3406 2188 3213 2188 
L 1966 2188 
L 1522 416 
Q 1497 328 1497 275 
z
M 2009 2356 
L 2981 2356 
Q 3288 2356 3577 2512 
Q 3866 2669 4048 2937 
Q 4231 3206 4231 3506 
Q 4231 3784 4057 3965 
Q 3884 4147 3609 4147 
L 2731 4147 
Q 2559 4147 2500 4115 
Q 2441 4084 2400 3928 
L 2009 2356 
z
" transform="scale(0.015625)"/>
     </defs>
     <use xlink:href="#Cmmi10-42" transform="translate(0 0.6875)"/>
    </g>
   </g>
   <g id="text_4">
    <!-- $C$ -->
    <g style="fill: #228b22" transform="translate(150.023077 271.651683) scale(0.1 -0.1)">
     <defs>
      <path id="Cmmi10-43" d="M 934 1381 
Q 934 997 1082 705 
Q 1231 413 1514 248 
Q 1797 84 2181 84 
Q 2584 84 2957 290 
Q 3331 497 3595 842 
Q 3859 1188 3956 1575 
Q 3969 1613 4006 1613 
L 4084 1613 
Q 4109 1613 4125 1595 
Q 4141 1578 4141 1556 
Q 4141 1550 4134 1538 
Q 4025 1094 3711 705 
Q 3397 316 2959 87 
Q 2522 -141 2059 -141 
Q 1559 -141 1162 84 
Q 766 309 545 709 
Q 325 1109 325 1613 
Q 325 2150 565 2676 
Q 806 3203 1212 3614 
Q 1619 4025 2139 4269 
Q 2659 4513 3194 4513 
Q 3406 4513 3600 4448 
Q 3794 4384 3959 4253 
Q 4125 4122 4231 3950 
L 4738 4500 
Q 4738 4513 4769 4513 
L 4806 4513 
Q 4831 4513 4847 4491 
Q 4863 4469 4863 4447 
L 4428 2719 
Q 4428 2675 4378 2675 
L 4263 2675 
Q 4213 2675 4213 2747 
Q 4238 2888 4238 3084 
Q 4238 3397 4131 3673 
Q 4025 3950 3801 4119 
Q 3578 4288 3256 4288 
Q 2734 4288 2300 4025 
Q 1866 3763 1564 3336 
Q 1263 2909 1098 2389 
Q 934 1869 934 1381 
z
" transform="scale(0.015625)"/>
     </defs>
     <use xlink:href="#Cmmi10-43" transform="translate(0 0.484375)"/>
    </g>
   </g>
   <g id="patch_13">
    <path d="M 138.046154 200.353846 
C 154.570347 200.353846 170.419977 193.788715 182.104346 182.104346 
C 193.788715 170.419977 200.353846 154.570347 200.353846 138.046154 
C 200.353846 121.521961 193.788715 105.672331 182.104346 93.987962 
C 170.419977 82.303593 154.570347 75.738462 138.046154 75.738462 
C 121.521961 75.738462 105.672331 82.303593 93.987962 93.987962 
C 82.303593 105.672331 75.738462 121.521961 75.738462 138.046154 
C 75.738462 154.570347 82.303593 170.419977 93.987962 182.104346 
C 105.672331 193.788715 121.521961 200.353846 138.046154 200.353846 
L 138.046154 200.353846 
z
" clip-path="url(#p0712c212df)" style="fill: none; stroke: #0000ff; stroke-linejoin: miter"/>
   </g>
   <g id="patch_14">
    <path d="M 200.353846 200.353846 
C 216.878039 200.353846 232.727669 193.788715 244.412038 182.104346 
C 256.096407 170.419977 262.661538 154.570347 262.661538 138.046154 
C 262.661538 121.521961 256.096407 105.672331 244.412038 93.987962 
C 232.727669 82.303593 216.878039 75.738462 200.353846 75.738462 
C 183.829653 75.738462 167.980023 82.303593 156.295654 93.987962 
C 144.611285 105.672331 138.046154 121.521961 138.046154 138.046154 
C 138.046154 154.570347 144.611285 170.419977 156.295654 182.104346 
C 167.980023 193.788715 183.829653 200.353846 200.353846 200.353846 
L 200.353846 200.353846 
z
" clip-path="url(#p0712c212df)" style="fill: none; stroke: #ff0000; stroke-linejoin: miter"/>
   </g>
   <g id="patch_15">
    <path d="M 169.2 262.661538 
C 185.724193 262.661538 201.573823 256.096407 213.258192 244.412038 
C 224.942561 232.727669 231.507692 216.878039 231.507692 200.353846 
C 231.507692 183.829653 224.942561 167.980023 213.258192 156.295654 
C 201.573823 144.611285 185.724193 138.046154 169.2 138.046154 
C 152.675807 138.046154 136.826177 144.611285 125.141808 156.295654 
C 113.457439 167.980023 106.892308 183.829653 106.892308 200.353846 
C 106.892308 216.878039 113.457439 232.727669 125.141808 244.412038 
C 136.826177 256.096407 152.675807 262.661538 169.2 262.661538 
L 169.2 262.661538 
z
" clip-path="url(#p0712c212df)" style="fill: none; stroke: #228b22; stroke-linejoin: miter"/>
   </g>
  </g>
 </g>
 <defs>
  <clipPath id="p0712c212df">
   <rect x="7.2" y="7.2" width="324" height="324"/>
  </clipPath>
 </defs>
</svg>
