<?xml version="1.0" encoding="utf-8" standalone="no"?>
<!DOCTYPE svg PUBLIC "-//W3C//DTD SVG 1.1//EN"
  "http://www.w3.org/Graphics/SVG/1.1/DTD/svg11.dtd">
<svg xmlns:xlink="http://www.w3.org/1999/xlink" width="338.4pt" height="338.4pt" viewBox="0 0 338.4 338.4" xmlns="http://www.w3.org/2000/svg" version="1.1">
 <metadata>
  <rdf:RDF xmlns:dc="http://purl.org/dc/elements/1.1/" xmlns:cc="http://creativecommons.org/ns#" xmlns:rdf="http://www.w3.org/1999/02/22-rdf-syntax-ns#">
   <cc:Work>
    <dc:type rdf:resource="http://purl.org/dc/dcmitype/StillImage"/>
    <dc:date>2024-12-01T17:05:25.015646</dc:date>
    <dc:format>image/svg+xml</dc:format>
    <dc:creator>
     <cc:Agent>
      <dc:title>Matplotlib v3.6.3, https://matplotlib.org/</dc:title>
     </cc:Agent>
    </dc:creator>
   </cc:Work>
  </rdf:RDF>
 </metadata>
 <defs>
  <style type="text/css">*{stroke-linejoin: round; stroke-linecap: butt}</style>
 </defs>
 <g id="figure_1">
  <g id="patch_1">
   <path d="M -0 338.4 
L 338.4 338.4 
L 338.4 0 
L -0 0 
z
" style="fill: #ffffff"/>
  </g>
  <g id="axes_1">
   <g id="patch_2">
    <path d="M 7.2 331.2 
L 331.2 331.2 
L 331.2 7.2 
L 7.2 7.2 
z
" style="fill: #ffffff"/>
   </g>
   <g id="patch_3">
    <path d="M 13.430769 324.969231 
L 13.430769 13.430769 
L 324.969231 13.430769 
L 324.969231 324.969231 
L 13.430769 324.969231 
z
" clip-path="url(#pf8df08a38d)" style="fill: none; stroke: #000000; stroke-linejoin: miter"/>
   </g>
   <g id="patch_4">
    <path d="M 200.353846 138.046154 
L 200.348962 138.826286 
L 200.344078 139.149406 
L 200.339194 139.397329 
L 200.33431 139.606326 
L 200.329426 139.790446 
L 200.324542 139.956892 
L 200.319658 140.109947 
L 200.314774 140.252398 
L 200.30989 140.386183 
L 200.305005 140.512713 
L 200.300121 140.633052 
L 200.295237 140.748028 
L 200.290353 140.858299 
L 200.285469 140.964397 
L 200.280585 141.066763 
L 200.275701 141.165765 
L 200.265933 141.354871 
L 200.256165 141.533711 
L 200.246397 141.703792 
L 200.236629 141.866282 
L 200.22686 142.022113 
L 200.217092 142.17204 
L 200.207324 142.316684 
L 200.197556 142.456566 
L 200.18532 142.625734 
L 200.173084 142.78884 
L 200.160848 142.94649 
L 200.148612 143.099195 
L 200.136376 143.247389 
L 200.12414 143.391448 
L 200.111904 143.531698 
L 200.099668 143.668424 
L 200.076701 143.916393 
L 200.053735 144.154217 
L 200.030768 144.38304 
L 200.007801 144.603802 
L 199.984835 144.817292 
L 199.961868 145.024179 
L 199.938902 145.225032 
L 199.915935 145.420345 
L 199.885642 145.670211 
L 199.855349 145.912028 
L 199.825055 146.146515 
L 199.794762 146.374293 
L 199.769846 146.556989 
L 199.744931 146.735773 
L 199.720015 146.910881 
L 199.695099 147.082529 
L 199.645268 147.416197 
L 199.595436 147.738129 
L 199.552054 148.009723 
L 199.508673 148.273924 
L 199.465291 148.531291 
L 199.42191 148.782314 
L 199.367154 149.090765 
L 199.312399 149.390568 
L 199.257644 149.682391 
L 199.202889 149.966822 
L 199.160526 150.182135 
L 199.118163 150.39355 
L 199.075801 150.601262 
L 199.033438 150.805452 
L 198.978051 151.067385 
L 198.922664 151.323921 
L 198.840487 151.69524 
L 198.758311 152.056239 
L 198.688244 152.356478 
L 198.612085 152.675458 
L 198.535925 152.987241 
L 198.467973 153.259709 
L 198.400021 153.527084 
L 198.332069 153.789626 
L 198.264117 154.047573 
L 198.203834 154.272739 
L 198.14355 154.494603 
L 198.056307 154.810105 
L 197.960978 155.147685 
L 197.865649 155.478208 
L 197.755252 155.852673 
L 197.644855 156.218752 
L 197.551207 156.52309 
L 197.433367 156.898408 
L 197.315526 157.265676 
L 197.231343 157.523368 
L 197.147161 157.777336 
L 197.025337 158.138553 
L 196.86605 158.60019 
L 196.813156 158.750934 
L 196.722316 159.006987 
L 196.631475 159.259561 
L 196.491507 159.642201 
L 196.32448 160.088958 
L 196.153266 160.536419 
L 195.977536 160.985279 
L 195.837263 161.336413 
L 195.715921 161.635271 
L 195.594579 161.929773 
L 195.469807 162.228226 
L 195.417579 162.351875 
L 195.282442 162.668417 
L 195.147305 162.980209 
L 195.09461 163.100538 
L 194.956806 163.412 
L 194.819003 163.718943 
L 194.699382 163.981849 
L 194.602718 164.191968 
L 194.461399 164.495513 
L 194.314725 164.806133 
L 194.099448 165.254181 
L 194.002692 165.452619 
L 193.747412 165.967801 
L 193.65465 166.152091 
L 193.401288 166.64786 
L 193.36589 166.716267 
L 193.214242 167.007 
L 193.011932 167.389155 
L 192.830733 167.726086 
L 192.633321 168.08762 
L 192.601111 168.146074 
L 192.39204 168.521934 
L 192.145391 168.957658 
L 192.031393 169.156321 
L 191.870837 169.433286 
L 191.728938 169.675368 
L 191.571666 169.940793 
L 191.433538 170.171467 
L 191.336444 170.332273 
L 191.095098 170.727312 
L 190.94996 170.961741 
L 190.780834 171.232025 
L 190.639559 171.455468 
L 190.494641 171.682514 
L 190.340088 171.922295 
L 190.186919 172.157576 
L 189.964214 172.495589 
L 189.84632 172.672607 
L 189.634376 172.987588 
L 189.624058 173.002818 
L 189.407773 173.319835 
L 189.248113 173.551194 
L 189.011824 173.889549 
L 188.851451 174.116506 
L 188.728422 174.28917 
L 188.624594 174.433926 
L 188.397654 174.747311 
L 188.291064 174.893102 
L 188.146226 175.089794 
L 188.047062 175.223535 
L 187.884222 175.441548 
L 187.640219 175.764548 
L 187.532629 175.905596 
L 187.331087 176.16759 
L 187.172818 176.371333 
L 187.088537 176.479124 
L 186.959514 176.643196 
L 186.682103 176.99218 
L 186.637917 177.047296 
L 186.469176 177.256605 
L 186.296691 177.468662 
L 186.077338 177.735622 
L 185.967684 177.86795 
L 185.791863 178.078588 
L 185.708521 178.177778 
L 185.498948 178.425366 
L 185.340129 178.611267 
L 185.111967 178.875772 
L 184.958118 179.052448 
L 184.927211 179.087779 
L 184.755239 179.283393 
L 184.506651 179.563267 
L 184.341606 179.747229 
L 184.188637 179.916427 
L 184.077459 180.038623 
L 183.965715 180.160788 
L 183.765221 180.378356 
L 183.595508 180.560914 
L 183.371395 180.799763 
L 183.304993 180.870049 
L 183.12641 181.058001 
L 182.958025 181.233795 
L 182.861949 181.333485 
L 182.589233 181.614062 
L 182.558572 181.645387 
L 182.386773 181.820096 
L 182.252134 181.95606 
L 182.00089 182.207558 
L 181.894825 182.312875 
L 181.674168 182.530363 
L 181.59531 182.607567 
L 181.442344 182.756547 
L 181.295932 182.898191 
L 181.022471 183.160283 
L 180.905591 183.271337 
L 180.803554 183.367818 
L 180.704199 183.461346 
L 180.424137 183.72279 
L 180.282061 183.854196 
L 180.193815 183.935403 
L 179.97644 184.13411 
L 179.90628 184.197843 
L 179.720247 184.365896 
L 179.547497 184.520739 
L 179.43865 184.617709 
L 179.266811 184.769873 
L 179.083106 184.931302 
L 178.966043 185.033505 
L 178.721106 185.245696 
L 178.611431 185.339989 
L 178.425116 185.499161 
L 178.21885 185.673909 
L 178.08304 185.78813 
L 177.983408 185.871506 
L 177.815095 186.011556 
L 177.654395 186.144342 
L 177.525406 186.250274 
L 177.385643 186.364402 
L 177.22203 186.497152 
L 177.043832 186.640697 
L 176.800888 186.834668 
L 176.758571 186.868252 
L 176.615145 186.981636 
L 176.434278 187.123648 
L 176.304206 187.225112 
L 176.09793 187.384889 
L 175.959678 187.491206 
L 175.848214 187.576476 
L 175.682882 187.702223 
L 175.506176 187.835663 
L 175.233066 188.039974 
L 175.152387 188.099885 
L 175.030744 188.189833 
L 174.841106 188.329153 
L 174.606081 188.500294 
L 174.567937 188.527912 
L 174.289447 188.728224 
L 174.189823 188.799318 
L 174.031772 188.911503 
L 173.86815 189.026867 
L 173.764529 189.09952 
L 173.534767 189.2595 
L 173.468242 189.305536 
L 173.250277 189.455474 
L 173.155101 189.52052 
L 172.993008 189.630705 
L 172.754213 189.791677 
L 172.668233 189.849244 
L 172.429848 190.007775 
L 172.259505 190.120093 
L 172.136408 190.200761 
L 172.017896 190.278033 
L 171.851269 190.386031 
L 171.723889 190.468083 
L 171.596508 190.549699 
L 171.383571 190.685162 
L 171.304092 190.735413 
L 171.112455 190.85589 
L 170.980321 190.938395 
L 170.76173 191.073878 
L 170.595091 191.176326 
L 170.43652 191.273146 
L 170.22063 191.403924 
L 170.130319 191.458277 
L 170.016222 191.526648 
L 169.849255 191.626106 
L 169.628798 191.75635 
L 169.466385 191.851522 
L 169.341208 191.924425 
L 169.2 192.006198 
L 169.2 192.006198 
L 169.3536 192.094588 
L 169.473958 192.163444 
L 169.745332 192.317393 
L 169.809707 192.35365 
L 169.904958 192.407111 
L 170.174041 192.556959 
L 170.317581 192.636183 
L 170.508258 192.740663 
L 170.545899 192.761186 
L 170.737203 192.864973 
L 170.993877 193.002871 
L 171.040962 193.027999 
L 171.186948 193.105582 
L 171.370963 193.202668 
L 171.487616 193.263808 
L 171.681916 193.364947 
L 171.909455 193.48229 
L 171.97928 193.518061 
L 172.098375 193.578819 
L 172.346343 193.704292 
L 172.475272 193.768983 
L 172.694926 193.878337 
L 172.772781 193.916838 
L 173.018832 194.037631 
L 173.148358 194.10068 
L 173.326076 194.186587 
L 173.350579 194.198376 
L 173.626576 194.330268 
L 173.747567 194.387563 
L 173.84608 194.433979 
L 174.011485 194.51144 
L 174.202679 194.600243 
L 174.371511 194.678007 
L 174.54818 194.758728 
L 174.702157 194.82854 
L 174.788699 194.867556 
L 175.00452 194.964167 
L 175.218212 195.058858 
L 175.341877 195.113219 
L 175.446431 195.15893 
L 175.548784 195.203458 
L 175.770512 195.299173 
L 175.854349 195.335098 
L 176.050274 195.41849 
L 176.168784 195.468547 
L 176.457247 195.589191 
L 176.499857 195.606867 
L 176.723836 195.699178 
L 176.895873 195.76939 
L 177.091054 195.848325 
L 177.196166 195.890517 
L 177.276374 195.922563 
L 177.552819 196.032029 
L 177.663062 196.075257 
L 177.778601 196.120303 
L 177.929397 196.178697 
L 178.080886 196.236907 
L 178.292298 196.317387 
L 178.488464 196.391279 
L 178.665703 196.457394 
L 178.774176 196.497556 
L 178.911657 196.548129 
L 179.07354 196.607208 
L 179.190854 196.649706 
L 179.3104 196.692738 
L 179.460123 196.746246 
L 179.619156 196.80261 
L 179.781296 196.859577 
L 180.019826 196.942471 
L 180.083274 196.964338 
L 180.372482 197.063046 
L 180.53885 197.119113 
L 180.641829 197.153555 
L 180.845791 197.221185 
L 181.014883 197.276661 
L 181.047308 197.287238 
L 181.195931 197.335468 
L 181.453154 197.417968 
L 181.565874 197.453735 
L 181.704647 197.497444 
L 181.894107 197.556544 
L 182.029067 197.59824 
L 182.223539 197.657734 
L 182.386498 197.707053 
L 182.560471 197.75917 
L 182.70556 197.802212 
L 182.886757 197.855428 
L 183.037986 197.899387 
L 183.167526 197.936712 
L 183.256257 197.962103 
L 183.440682 198.014424 
L 183.614611 198.063206 
L 183.740967 198.098304 
L 183.919091 198.147297 
L 184.06977 198.188297 
L 184.177182 198.217277 
L 184.427548 198.284028 
L 184.475081 198.296576 
L 184.664684 198.346226 
L 184.846481 198.393235 
L 185.06341 198.448563 
L 185.160535 198.473067 
L 185.337091 198.517185 
L 185.418827 198.537424 
L 185.568546 198.574192 
L 185.768815 198.622761 
L 185.912947 198.657283 
L 186.129023 198.708357 
L 186.287529 198.745308 
L 186.430712 198.77831 
L 186.584445 198.81335 
L 186.726767 198.845424 
L 186.835531 198.869699 
L 187.038549 198.914466 
L 187.218229 198.953494 
L 187.415008 198.9956 
L 187.458929 199.004907 
L 187.702814 199.055988 
L 187.824078 199.081008 
L 188.056459 199.128253 
L 188.117571 199.140524 
L 188.363023 199.189172 
L 188.477751 199.21156 
L 188.535989 199.222839 
L 188.704119 199.255078 
L 188.862739 199.285055 
L 189.012298 199.31293 
L 189.168923 199.341717 
L 189.442249 199.390963 
L 189.624586 199.423116 
L 189.74366 199.443812 
L 189.878985 199.467044 
L 190.0403 199.494338 
L 190.19128 199.519488 
L 190.26558 199.531725 
L 190.550798 199.577843 
L 190.704223 199.60209 
L 190.79028 199.615519 
L 190.88493 199.630146 
L 191.167373 199.672911 
L 191.205871 199.678638 
L 191.480078 199.718715 
L 191.6193 199.738586 
L 191.792537 199.762866 
L 191.882973 199.775343 
L 192.082299 199.802368 
L 192.282992 199.828917 
L 192.41051 199.845441 
L 192.550236 199.86324 
L 192.625475 199.872692 
L 192.884241 199.904488 
L 192.968968 199.91466 
L 193.10839 199.931143 
L 193.290646 199.95221 
L 193.516221 199.97753 
L 193.627145 199.989677 
L 193.779176 200.005998 
L 193.960163 200.024935 
L 194.162489 200.045473 
L 194.204472 200.049651 
L 194.435912 200.072169 
L 194.604361 200.08801 
L 194.792063 200.105118 
L 194.853444 200.110589 
L 195.104379 200.132317 
L 195.149441 200.13611 
L 195.291006 200.147814 
L 195.441309 200.159884 
L 195.694834 200.179415 
L 195.819264 200.18862 
L 195.97178 200.199561 
L 196.070398 200.206435 
L 196.221621 200.216671 
L 196.404868 200.22858 
L 196.558752 200.238161 
L 196.788343 200.251746 
L 196.961595 200.261435 
L 197.075839 200.267558 
L 197.152442 200.271547 
L 197.416697 200.28458 
L 197.474718 200.287291 
L 197.658541 200.295522 
L 197.862677 200.304026 
L 198.002462 200.309462 
L 198.158538 200.31516 
L 198.380106 200.322577 
L 198.484409 200.325795 
L 198.579748 200.328584 
L 198.813483 200.334803 
L 198.894295 200.336749 
L 199.153273 200.342278 
L 199.235925 200.343817 
L 199.476208 200.347665 
L 199.60795 200.349381 
L 199.752651 200.350946 
L 199.940127 200.352473 
L 200.061956 200.353162 
L 200.232058 200.353727 
L 200.353846 200.353846 
z
" clip-path="url(#pf8df08a38d)" style="fill: #808080; opacity: 0.5"/>
   </g>
   <g id="patch_5">
    <path d="M 231.507692 200.353846 
L 231.502671 199.562839 
L 231.49765 199.235216 
L 231.492629 198.983837 
L 231.487608 198.771928 
L 231.482586 198.585244 
L 231.477565 198.416478 
L 231.472544 198.261292 
L 231.467523 198.116857 
L 231.462502 197.981208 
L 231.45748 197.852917 
L 231.452459 197.730902 
L 231.447438 197.614326 
L 231.442417 197.50252 
L 231.437396 197.394945 
L 231.432375 197.291154 
L 231.427353 197.190775 
L 231.417311 196.999038 
L 231.407269 196.817711 
L 231.397226 196.645265 
L 231.387184 196.480516 
L 231.377141 196.322519 
L 231.367099 196.170509 
L 231.357057 196.023856 
L 231.347014 195.882032 
L 231.337098 195.746288 
L 231.327181 195.614452 
L 231.317265 195.486206 
L 231.307348 195.361272 
L 231.287515 195.120401 
L 231.267682 194.89021 
L 231.251033 194.70426 
L 231.234384 194.524287 
L 231.217734 194.349751 
L 231.201085 194.180193 
L 231.184436 194.015213 
L 231.167786 193.854461 
L 231.151137 193.697633 
L 231.134487 193.544456 
L 231.117838 193.39469 
L 231.101189 193.248118 
L 231.06789 192.963804 
L 231.034591 192.690174 
L 231.001292 192.426123 
L 230.972642 192.205885 
L 230.943991 191.991543 
L 230.908403 191.73285 
L 230.872814 191.48184 
L 230.837226 191.237878 
L 230.801638 191.000412 
L 230.758477 190.720443 
L 230.715316 190.448573 
L 230.672155 190.184152 
L 230.628994 189.926612 
L 230.577099 189.625369 
L 230.525204 189.332602 
L 230.47331 189.047651 
L 230.421415 188.76994 
L 230.383353 188.570561 
L 230.345292 188.374621 
L 230.269168 187.992406 
L 230.219361 187.748845 
L 230.169554 187.510094 
L 230.119747 187.275891 
L 230.06994 187.045996 
L 230.025174 186.84286 
L 229.980407 186.642879 
L 229.890874 186.251849 
L 229.829355 185.989659 
L 229.767835 185.732429 
L 229.71209 185.503409 
L 229.656345 185.278074 
L 229.591131 185.018926 
L 229.525918 184.764358 
L 229.460705 184.514149 
L 229.395491 184.268096 
L 229.342375 184.070625 
L 229.274456 183.82181 
L 229.206538 183.576959 
L 229.142935 183.351108 
L 229.079331 183.128453 
L 229.006422 182.876993 
L 228.933513 182.629401 
L 228.860603 182.385515 
L 228.787694 182.145188 
L 228.658996 181.72923 
L 228.539919 181.353252 
L 228.427299 181.005059 
L 228.301059 180.622822 
L 228.174819 180.248643 
L 228.120287 180.089387 
L 227.983729 179.696602 
L 227.873567 179.385749 
L 227.763404 179.080008 
L 227.662163 178.803346 
L 227.540307 178.475613 
L 227.418451 178.153385 
L 227.320382 177.897895 
L 227.194019 177.57354 
L 227.047427 177.203821 
L 226.900836 176.840828 
L 226.847075 176.709327 
L 226.685073 176.318146 
L 226.529597 175.949628 
L 226.391086 175.626771 
L 226.230728 175.259134 
L 226.114064 174.995655 
L 225.997399 174.735416 
L 225.882257 174.481654 
L 225.759736 174.214894 
L 225.637215 173.951398 
L 225.606092 173.884972 
L 225.466626 173.589779 
L 225.299101 173.240391 
L 225.097003 172.826159 
L 224.971168 172.572101 
L 224.837656 172.305678 
L 224.584978 171.809973 
L 224.517505 171.679429 
L 224.380978 171.417569 
L 224.133875 170.951161 
L 223.98181 170.668803 
L 223.789742 170.317059 
L 223.616832 170.004927 
L 223.566084 169.914112 
L 223.305018 169.452461 
L 223.24456 169.346846 
L 223.116612 169.124893 
L 222.962397 168.860146 
L 222.782851 168.555629 
L 222.592272 168.236657 
L 222.422139 167.955506 
L 222.201805 167.596294 
L 222.104678 167.439661 
L 221.952886 167.196924 
L 221.811376 166.972839 
L 221.673602 166.756679 
L 221.493223 166.476607 
L 221.366998 166.282556 
L 221.197822 166.024923 
L 221.072877 165.836413 
L 220.786752 165.410242 
L 220.667016 165.234126 
L 220.547173 165.05914 
L 220.448793 164.91644 
L 220.22189 164.590524 
L 220.021847 164.306816 
L 219.963227 164.22431 
L 219.805727 164.004033 
L 219.670564 163.816596 
L 219.47702 163.550725 
L 219.238166 163.226627 
L 219.123869 163.073075 
L 218.927727 162.811847 
L 218.839211 162.694887 
L 218.655177 162.45353 
L 218.566119 162.337602 
L 218.286496 161.977233 
L 218.223258 161.896484 
L 218.080982 161.715807 
L 217.922628 161.516313 
L 217.695663 161.233274 
L 217.603414 161.119193 
L 217.391704 160.859439 
L 217.230476 160.663521 
L 217.075515 160.47674 
L 217.000125 160.386403 
L 216.78364 160.128907 
L 216.655933 159.978322 
L 216.408847 159.689694 
L 216.310124 159.575363 
L 216.094909 159.328049 
L 215.978164 159.194985 
L 215.81484 159.010102 
L 215.729092 158.913623 
L 215.546928 158.709989 
L 215.358465 158.501192 
L 215.273362 158.407525 
L 215.129437 158.249982 
L 214.980637 158.088236 
L 214.760242 157.850754 
L 214.624089 157.705275 
L 214.394187 157.461725 
L 214.326023 157.390017 
L 214.107321 157.161474 
L 213.930866 156.978759 
L 213.829248 156.87421 
L 213.693793 156.735606 
L 213.487384 156.526045 
L 213.359474 156.39717 
L 213.196075 156.233625 
L 212.964112 156.003525 
L 212.897956 155.93834 
L 212.769964 155.812778 
L 212.598187 155.645392 
L 212.466397 155.51784 
L 212.266319 155.325625 
L 212.135606 155.20097 
L 211.933826 155.009953 
L 211.812513 154.895929 
L 211.6498 154.743946 
L 211.454773 154.563206 
L 211.386155 154.499982 
L 211.17222 154.304076 
L 210.999253 154.147018 
L 210.863682 154.02474 
L 210.736418 153.910607 
L 210.487163 153.688884 
L 210.403297 153.614817 
L 210.265344 153.493564 
L 209.989033 153.252855 
L 209.884729 153.162731 
L 209.725948 153.026306 
L 209.518387 152.84936 
L 209.480049 152.816849 
L 209.222637 152.599925 
L 209.112775 152.508063 
L 208.995481 152.410461 
L 208.857719 152.296445 
L 208.698969 152.165881 
L 208.505718 152.008122 
L 208.388727 151.913241 
L 208.108151 151.687592 
L 208.036382 151.6303 
L 207.857802 151.488492 
L 207.72487 151.383621 
L 207.628968 151.308327 
L 207.37385 151.109499 
L 207.250542 151.014159 
L 207.06286 150.869987 
L 206.985953 150.811235 
L 206.765689 150.644013 
L 206.569695 150.496506 
L 206.449771 150.406844 
L 206.241054 150.251862 
L 206.13674 150.174909 
L 205.933645 150.026042 
L 205.820904 149.943947 
L 205.684715 149.845292 
L 205.462606 149.685593 
L 205.285358 149.559206 
L 205.187824 149.490057 
L 205.082466 149.415676 
L 204.855081 149.256256 
L 204.799256 149.217347 
L 204.597864 149.077734 
L 204.495049 149.006908 
L 204.326117 148.891195 
L 204.04564 148.70087 
L 203.993968 148.666049 
L 203.841977 148.56406 
L 203.612713 148.411438 
L 203.484864 148.326962 
L 203.353232 148.240458 
L 203.107192 148.080039 
L 203.082669 148.064141 
L 202.867825 147.925552 
L 202.760822 147.856992 
L 202.47313 147.674179 
L 202.367421 147.60756 
L 202.292054 147.560243 
L 202.087681 147.432688 
L 201.862289 147.293283 
L 201.721524 147.20689 
L 201.633904 147.153373 
L 201.464636 147.050546 
L 201.363554 146.989492 
L 201.101889 146.832654 
L 201.00187 146.773163 
L 200.774128 146.638644 
L 200.65826 146.570704 
L 200.574971 146.522074 
L 200.353846 146.393802 
L 200.353846 200.353846 
L 200.542396 200.353561 
L 200.72463 200.352743 
L 200.760874 200.352517 
L 200.923934 200.351238 
L 201.087594 200.349526 
L 201.259543 200.347263 
L 201.406529 200.344953 
L 201.663504 200.340081 
L 201.712631 200.339028 
L 201.949279 200.333417 
L 202.028063 200.331349 
L 202.176841 200.327172 
L 202.342749 200.322095 
L 202.553413 200.31501 
L 202.655147 200.311333 
L 202.883744 200.302464 
L 203.059792 200.295061 
L 203.208542 200.288416 
L 203.346638 200.281929 
L 203.477854 200.27548 
L 203.64315 200.266962 
L 203.823377 200.257173 
L 203.967797 200.24895 
L 204.187969 200.235767 
L 204.252004 200.231786 
L 204.399617 200.222357 
L 204.648027 200.205695 
L 204.747991 200.198708 
L 204.930735 200.185518 
L 204.998061 200.180523 
L 205.239626 200.161995 
L 205.350529 200.153172 
L 205.561422 200.135844 
L 205.700413 200.12403 
L 205.797848 200.115562 
L 205.961829 200.100961 
L 206.213386 200.077713 
L 206.332896 200.066308 
L 206.426777 200.057185 
L 206.552686 200.044726 
L 206.746339 200.025058 
L 206.895289 200.009514 
L 207.016808 199.996565 
L 207.279033 199.9678 
L 207.362813 199.958373 
L 207.581781 199.933192 
L 207.774326 199.9104 
L 207.931938 199.891291 
L 207.967623 199.886908 
L 208.146096 199.864673 
L 208.298565 199.845264 
L 208.447741 199.825903 
L 208.64502 199.799736 
L 208.806537 199.777836 
L 209.009415 199.749716 
L 209.130931 199.732549 
L 209.354309 199.700352 
L 209.390094 199.695118 
L 209.548369 199.671711 
L 209.779354 199.636805 
L 209.964586 199.608173 
L 210.007857 199.601402 
L 210.293122 199.555985 
L 210.369209 199.543642 
L 210.587429 199.507705 
L 210.760496 199.478638 
L 210.820463 199.46845 
L 210.976598 199.441639 
L 211.101732 199.419857 
L 211.347387 199.376331 
L 211.545279 199.340528 
L 211.699167 199.312231 
L 211.809546 199.291688 
L 211.971511 199.261172 
L 212.16674 199.223797 
L 212.320419 199.193923 
L 212.399522 199.178389 
L 212.619825 199.134568 
L 212.684599 199.121526 
L 212.863599 199.085114 
L 212.985055 199.060096 
L 213.211668 199.012743 
L 213.298828 198.994295 
L 213.531919 198.944322 
L 213.733774 198.900291 
L 213.878606 198.868266 
L 214.001394 198.840833 
L 214.176609 198.801234 
L 214.345704 198.762514 
L 214.379373 198.754746 
L 214.528116 198.720189 
L 214.811181 198.653365 
L 214.903311 198.631314 
L 215.06769 198.591602 
L 215.211002 198.556595 
L 215.444042 198.4989 
L 215.614269 198.456153 
L 215.668172 198.442511 
L 215.795606 198.410055 
L 216.019152 198.352428 
L 216.098272 198.33182 
L 216.243899 198.2936 
L 216.410202 198.249492 
L 216.610867 198.195616 
L 216.75312 198.156988 
L 216.875683 198.123416 
L 217.129468 198.053045 
L 217.246722 198.020142 
L 217.492761 197.950295 
L 217.649136 197.905334 
L 217.776773 197.868308 
L 217.947173 197.818416 
L 218.004699 197.801454 
L 218.143511 197.760276 
L 218.380995 197.689011 
L 218.457217 197.66592 
L 218.622237 197.615562 
L 218.849305 197.545452 
L 218.996257 197.499573 
L 219.139159 197.454575 
L 219.233322 197.424718 
L 219.438782 197.359 
L 219.536112 197.327594 
L 219.697825 197.275024 
L 219.897576 197.209412 
L 220.089117 197.145795 
L 220.309935 197.071598 
L 220.463833 197.019342 
L 220.483493 197.012635 
L 220.742981 196.923413 
L 220.925305 196.859958 
L 220.994902 196.835569 
L 221.241544 196.748391 
L 221.407273 196.689156 
L 221.420106 196.684547 
L 221.632453 196.607826 
L 221.764067 196.559836 
L 222.000621 196.472737 
L 222.037805 196.458947 
L 222.215217 196.392782 
L 222.408417 196.320028 
L 222.57809 196.25553 
L 222.786412 196.175565 
L 222.967339 196.105421 
L 223.00395 196.091148 
L 223.224076 196.004769 
L 223.303497 195.973367 
L 223.484905 195.901168 
L 223.645238 195.836807 
L 223.826454 195.763441 
L 223.933772 195.71968 
L 224.142285 195.633988 
L 224.289523 195.572947 
L 224.532593 195.471207 
L 224.618722 195.434867 
L 224.824737 195.347323 
L 224.875203 195.325745 
L 225.149585 195.207503 
L 225.287266 195.147582 
L 225.330332 195.128758 
L 225.57638 195.020466 
L 225.682654 194.973301 
L 225.907957 194.87252 
L 225.968157 194.845411 
L 226.117845 194.777669 
L 226.326384 194.682501 
L 226.46687 194.617865 
L 226.635354 194.53979 
L 226.73981 194.491078 
L 226.913317 194.409644 
L 227.179178 194.283598 
L 227.251864 194.248869 
L 227.476228 194.140939 
L 227.544234 194.108007 
L 227.718605 194.0231 
L 227.856481 193.955488 
L 228.04737 193.861181 
L 228.254718 193.757821 
L 228.350174 193.709914 
L 228.563136 193.602292 
L 228.750421 193.506798 
L 228.859628 193.450747 
L 228.987582 193.384727 
L 229.172463 193.288673 
L 229.27673 193.234153 
L 229.465295 193.134919 
L 229.653325 193.035144 
L 229.739919 192.988917 
L 230.012138 192.842451 
L 230.03689 192.829048 
L 230.224279 192.727099 
L 230.483936 192.584454 
L 230.632386 192.502178 
L 230.648109 192.493433 
L 230.832689 192.390322 
L 231.083429 192.248933 
L 231.1921 192.187179 
L 231.421606 192.055809 
L 231.507692 192.006198 
z
" clip-path="url(#pf8df08a38d)" style="fill: #808080; opacity: 0.5"/>
   </g>
   <g id="matplotlib.axis_1"/>
   <g id="matplotlib.axis_2"/>
   <g id="line2d_1">
    <path d="M 169.2 192.006198 
L 172.475272 193.768983 
L 175.854349 195.335098 
L 179.3104 196.692738 
L 182.886757 197.855428 
L 186.430712 198.77831 
L 190.0403 199.494338 
L 193.779176 200.005998 
L 197.474718 200.287291 
L 200.353846 200.353846 
L 200.353846 200.353846 
" clip-path="url(#pf8df08a38d)" style="fill: none; stroke: #0000ff; stroke-linecap: square"/>
   </g>
   <g id="line2d_2">
    <path d="M 200.353846 200.353846 
L 203.967797 200.24895 
L 207.774326 199.9104 
L 211.347387 199.376331 
L 215.06769 198.591602 
L 218.622237 197.615562 
L 222.215217 196.392782 
L 225.682654 194.973301 
L 228.987582 193.384727 
L 231.507692 192.006198 
L 231.507692 192.006198 
" clip-path="url(#pf8df08a38d)" style="fill: none; stroke: #0000ff; stroke-linecap: square"/>
   </g>
   <g id="text_1">
    <!-- $\Omega$ -->
    <g transform="translate(16.011538 22.420913) scale(0.1 -0.1)">
     <defs>
      <path id="Cmr10-ad" d="M 494 0 
L 281 1063 
L 469 1063 
Q 503 878 531 736 
Q 559 594 604 536 
Q 650 478 750 459 
Q 850 441 1081 441 
L 1472 441 
Q 1378 803 1004 1386 
Q 631 1969 495 2233 
Q 359 2497 359 2913 
Q 359 3397 646 3761 
Q 934 4125 1389 4319 
Q 1844 4513 2309 4513 
Q 2772 4513 3226 4319 
Q 3681 4125 3968 3758 
Q 4256 3391 4256 2913 
Q 4256 2588 4137 2300 
Q 4019 2013 3834 1725 
Q 3650 1438 3436 1084 
Q 3222 731 3144 441 
L 3531 441 
Q 3766 441 3869 459 
Q 3972 478 4015 536 
Q 4059 594 4086 736 
Q 4113 878 4147 1063 
L 4331 1063 
L 4122 0 
L 2988 0 
Q 2925 0 2925 84 
Q 2925 409 3004 721 
Q 3084 1034 3240 1478 
Q 3397 1922 3484 2261 
Q 3572 2600 3572 2913 
Q 3572 3297 3422 3625 
Q 3272 3953 2984 4150 
Q 2697 4347 2309 4347 
Q 1725 4347 1384 3930 
Q 1044 3513 1044 2913 
Q 1047 2584 1122 2293 
Q 1197 2003 1364 1518 
Q 1531 1034 1611 721 
Q 1691 409 1691 84 
Q 1691 0 1625 0 
L 494 0 
z
" transform="scale(0.015625)"/>
     </defs>
     <use xlink:href="#Cmr10-ad" transform="translate(0 0.484375)"/>
    </g>
   </g>
   <g id="text_2">
    <!-- $A$ -->
    <g style="fill: #0000ff" transform="translate(227.757692 78.497837) scale(0.1 -0.1)">
     <defs>
      <path id="Cmmi10-41" d="M 288 0 
Q 225 0 225 84 
Q 250 225 306 225 
Q 566 225 755 328 
Q 944 431 1081 647 
Q 1094 659 1094 659 
L 3378 4513 
Q 3428 4581 3500 4581 
L 3584 4581 
Q 3603 4581 3622 4573 
Q 3641 4566 3655 4548 
Q 3669 4531 3669 4513 
L 4056 378 
Q 4056 350 4084 294 
Q 4147 225 4563 225 
Q 4628 225 4628 141 
Q 4606 56 4592 28 
Q 4578 0 4519 0 
L 2919 0 
Q 2859 0 2859 84 
Q 2894 225 2944 225 
Q 3450 225 3481 397 
L 3384 1453 
L 1806 1453 
L 1294 594 
Q 1247 525 1247 434 
Q 1247 322 1355 273 
Q 1463 225 1594 225 
Q 1656 225 1656 141 
Q 1634 50 1621 25 
Q 1609 0 1550 0 
L 288 0 
z
M 1931 1678 
L 3359 1678 
L 3169 3750 
L 1931 1678 
z
" transform="scale(0.015625)"/>
     </defs>
     <use xlink:href="#Cmmi10-41" transform="translate(0 0.421875)"/>
    </g>
   </g>
   <g id="text_3">
    <!-- $B$ -->
    <g style="fill: #ff0000" transform="translate(103.092308 78.497837) scale(0.1 -0.1)">
     <defs>
      <path id="Cmmi10-42" d="M 319 0 
Q 256 0 256 84 
Q 259 100 268 137 
Q 278 175 293 200 
Q 309 225 341 225 
Q 522 225 656 234 
Q 791 244 884 269 
Q 959 297 1006 441 
L 1881 3956 
Q 1894 4019 1894 4044 
Q 1894 4113 1819 4122 
Q 1697 4147 1356 4147 
Q 1294 4147 1294 4231 
Q 1297 4247 1306 4286 
Q 1316 4325 1333 4348 
Q 1350 4372 1375 4372 
L 3669 4372 
Q 3878 4372 4083 4320 
Q 4288 4269 4461 4156 
Q 4634 4044 4736 3876 
Q 4838 3709 4838 3488 
Q 4838 3247 4714 3040 
Q 4591 2834 4395 2681 
Q 4200 2528 3973 2429 
Q 3747 2331 3500 2284 
Q 3675 2284 3854 2215 
Q 4034 2147 4175 2028 
Q 4316 1909 4402 1743 
Q 4488 1578 4488 1388 
Q 4488 1003 4219 684 
Q 3950 366 3542 183 
Q 3134 0 2753 0 
L 319 0 
z
M 1497 275 
Q 1497 225 1716 225 
L 2631 225 
Q 2944 225 3231 398 
Q 3519 572 3692 859 
Q 3866 1147 3866 1459 
Q 3866 1650 3786 1820 
Q 3706 1991 3556 2089 
Q 3406 2188 3213 2188 
L 1966 2188 
L 1522 416 
Q 1497 328 1497 275 
z
M 2009 2356 
L 2981 2356 
Q 3288 2356 3577 2512 
Q 3866 2669 4048 2937 
Q 4231 3206 4231 3506 
Q 4231 3784 4057 3965 
Q 3884 4147 3609 4147 
L 2731 4147 
Q 2559 4147 2500 4115 
Q 2441 4084 2400 3928 
L 2009 2356 
z
" transform="scale(0.015625)"/>
     </defs>
     <use xlink:href="#Cmmi10-42" transform="translate(0 0.6875)"/>
    </g>
   </g>
   <g id="text_4">
    <!-- $C$ -->
    <g style="fill: #228b22" transform="translate(150.023077 271.651683) scale(0.1 -0.1)">
     <defs>
      <path id="Cmmi10-43" d="M 934 1381 
Q 934 997 1082 705 
Q 1231 413 1514 248 
Q 1797 84 2181 84 
Q 2584 84 2957 290 
Q 3331 497 3595 842 
Q 3859 1188 3956 1575 
Q 3969 1613 4006 1613 
L 4084 1613 
Q 4109 1613 4125 1595 
Q 4141 1578 4141 1556 
Q 4141 1550 4134 1538 
Q 4025 1094 3711 705 
Q 3397 316 2959 87 
Q 2522 -141 2059 -141 
Q 1559 -141 1162 84 
Q 766 309 545 709 
Q 325 1109 325 1613 
Q 325 2150 565 2676 
Q 806 3203 1212 3614 
Q 1619 4025 2139 4269 
Q 2659 4513 3194 4513 
Q 3406 4513 3600 4448 
Q 3794 4384 3959 4253 
Q 4125 4122 4231 3950 
L 4738 4500 
Q 4738 4513 4769 4513 
L 4806 4513 
Q 4831 4513 4847 4491 
Q 4863 4469 4863 4447 
L 4428 2719 
Q 4428 2675 4378 2675 
L 4263 2675 
Q 4213 2675 4213 2747 
Q 4238 2888 4238 3084 
Q 4238 3397 4131 3673 
Q 4025 3950 3801 4119 
Q 3578 4288 3256 4288 
Q 2734 4288 2300 4025 
Q 1866 3763 1564 3336 
Q 1263 2909 1098 2389 
Q 934 1869 934 1381 
z
" transform="scale(0.015625)"/>
     </defs>
     <use xlink:href="#Cmmi10-43" transform="translate(0 0.484375)"/>
    </g>
   </g>
   <g id="patch_6">
    <path d="M 200.353846 200.353846 
C 216.878039 200.353846 232.727669 193.788715 244.412038 182.104346 
C 256.096407 170.419977 262.661538 154.570347 262.661538 138.046154 
C 262.661538 121.521961 256.096407 105.672331 244.412038 93.987962 
C 232.727669 82.303593 216.878039 75.738462 200.353846 75.738462 
C 183.829653 75.738462 167.980023 82.303593 156.295654 93.987962 
C 144.611285 105.672331 138.046154 121.521961 138.046154 138.046154 
C 138.046154 154.570347 144.611285 170.419977 156.295654 182.104346 
C 167.980023 193.788715 183.829653 200.353846 200.353846 200.353846 
L 200.353846 200.353846 
z
" clip-path="url(#pf8df08a38d)" style="fill: none; stroke: #0000ff; stroke-linejoin: miter"/>
   </g>
   <g id="patch_7">
    <path d="M 138.046154 200.353846 
C 154.570347 200.353846 170.419977 193.788715 182.104346 182.104346 
C 193.788715 170.419977 200.353846 154.570347 200.353846 138.046154 
C 200.353846 121.521961 193.788715 105.672331 182.104346 93.987962 
C 170.419977 82.303593 154.570347 75.738462 138.046154 75.738462 
C 121.521961 75.738462 105.672331 82.303593 93.987962 93.987962 
C 82.303593 105.672331 75.738462 121.521961 75.738462 138.046154 
C 75.738462 154.570347 82.303593 170.419977 93.987962 182.104346 
C 105.672331 193.788715 121.521961 200.353846 138.046154 200.353846 
L 138.046154 200.353846 
z
" clip-path="url(#pf8df08a38d)" style="fill: none; stroke: #ff0000; stroke-linejoin: miter"/>
   </g>
   <g id="patch_8">
    <path d="M 169.2 262.661538 
C 185.724193 262.661538 201.573823 256.096407 213.258192 244.412038 
C 224.942561 232.727669 231.507692 216.878039 231.507692 200.353846 
C 231.507692 183.829653 224.942561 167.980023 213.258192 156.295654 
C 201.573823 144.611285 185.724193 138.046154 169.2 138.046154 
C 152.675807 138.046154 136.826177 144.611285 125.141808 156.295654 
C 113.457439 167.980023 106.892308 183.829653 106.892308 200.353846 
C 106.892308 216.878039 113.457439 232.727669 125.141808 244.412038 
C 136.826177 256.096407 152.675807 262.661538 169.2 262.661538 
L 169.2 262.661538 
z
" clip-path="url(#pf8df08a38d)" style="fill: none; stroke: #228b22; stroke-linejoin: miter"/>
   </g>
  </g>
 </g>
 <defs>
  <clipPath id="pf8df08a38d">
   <rect x="7.2" y="7.2" width="324" height="324"/>
  </clipPath>
 </defs>
</svg>
