<?xml version="1.0" encoding="utf-8" standalone="no"?>
<!DOCTYPE svg PUBLIC "-//W3C//DTD SVG 1.1//EN"
  "http://www.w3.org/Graphics/SVG/1.1/DTD/svg11.dtd">
<!-- Created with matplotlib (https://matplotlib.org/) -->
<svg height="338.4pt" version="1.1" viewBox="0 0 338.4 338.4" width="338.4pt" xmlns="http://www.w3.org/2000/svg" xmlns:xlink="http://www.w3.org/1999/xlink">
 <metadata>
  <rdf:RDF xmlns:cc="http://creativecommons.org/ns#" xmlns:dc="http://purl.org/dc/elements/1.1/" xmlns:rdf="http://www.w3.org/1999/02/22-rdf-syntax-ns#">
   <cc:Work>
    <dc:type rdf:resource="http://purl.org/dc/dcmitype/StillImage"/>
    <dc:date>2024-11-18T20:48:24.441028</dc:date>
    <dc:format>image/svg+xml</dc:format>
    <dc:creator>
     <cc:Agent>
      <dc:title>Matplotlib v3.3.4, https://matplotlib.org/</dc:title>
     </cc:Agent>
    </dc:creator>
   </cc:Work>
  </rdf:RDF>
 </metadata>
 <defs>
  <style type="text/css">*{stroke-linecap:butt;stroke-linejoin:round;}</style>
 </defs>
 <g id="figure_1">
  <g id="patch_1">
   <path d="M -0 338.4 
L 338.4 338.4 
L 338.4 0 
L -0 0 
z
" style="fill:#ffffff;"/>
  </g>
  <g id="axes_1">
   <g id="patch_2">
    <path d="M 7.2 331.2 
L 331.2 331.2 
L 331.2 7.2 
L 7.2 7.2 
z
" style="fill:#ffffff;"/>
   </g>
   <g id="patch_3">
    <path clip-path="url(#p3ef275361d)" d="M 13.430769 324.969231 
L 13.430769 13.430769 
L 324.969231 13.430769 
L 324.969231 324.969231 
z
" style="fill:none;stroke:#000000;stroke-linejoin:miter;"/>
   </g>
   <g id="patch_4">
    <path clip-path="url(#p3ef275361d)" d="M 106.892308 192.006198 
L 106.728845 191.911492 
L 106.593282 191.832448 
L 106.363305 191.697301 
L 106.218075 191.611273 
L 106.070993 191.523603 
L 105.906477 191.424892 
L 105.782293 191.349923 
L 105.628795 191.256711 
L 105.409327 191.122382 
L 105.351488 191.086774 
L 105.139444 190.955481 
L 104.951705 190.838256 
L 104.828594 190.760879 
L 104.776639 190.728104 
L 104.515341 190.562181 
L 104.394383 190.484754 
L 104.22821 190.377743 
L 104.095087 190.291475 
L 103.957136 190.201569 
L 103.754809 190.068766 
L 103.569181 189.945931 
L 103.387794 189.824978 
L 103.364103 189.809112 
L 103.179611 189.685022 
L 102.943369 189.524722 
L 102.762299 189.400785 
L 102.690198 189.351172 
L 102.483595 189.20818 
L 102.294739 189.076389 
L 102.156222 188.979064 
L 101.978552 188.853403 
L 101.95889 188.83944 
L 101.70259 188.656369 
L 101.558842 188.552833 
L 101.425493 188.456229 
L 101.243808 188.323742 
L 101.031809 188.167874 
L 100.947909 188.105805 
L 100.746892 187.956209 
L 100.55969 187.815759 
L 100.416247 187.707392 
L 100.377582 187.678071 
L 100.231134 187.566582 
L 99.94475 187.346576 
L 99.825211 187.253958 
L 99.704871 187.160251 
L 99.457967 186.966501 
L 99.391134 186.913709 
L 99.250044 186.801773 
L 99.073185 186.660516 
L 98.886457 186.51023 
L 98.687453 186.348754 
L 98.538763 186.227214 
L 98.481602 186.180287 
L 98.249248 185.988357 
L 98.126566 185.886252 
L 98.041809 185.8154 
L 97.771662 185.58786 
L 97.694408 185.522307 
L 97.458974 185.321193 
L 97.283539 185.170009 
L 97.178242 185.07872 
L 97.037435 184.955998 
L 96.838511 184.781351 
L 96.661005 184.624239 
L 96.485429 184.467644 
L 96.3652 184.359722 
L 96.320469 184.319426 
L 96.095706 184.115758 
L 95.882085 183.920328 
L 95.795743 183.840818 
L 95.695996 183.74859 
L 95.49144 183.558183 
L 95.329146 183.405891 
L 95.126667 183.214353 
L 95.027155 183.119586 
L 94.808338 182.909723 
L 94.72738 182.831557 
L 94.51534 182.625485 
L 94.394298 182.506968 
L 94.162945 182.278636 
L 94.032389 182.148728 
L 93.876032 181.992131 
L 93.708531 181.82313 
L 93.507146 181.618224 
L 93.488303 181.598955 
L 93.326376 181.432673 
L 93.130814 181.230187 
L 92.98739 181.080516 
L 92.807113 180.890963 
L 92.654162 180.728886 
L 92.482055 180.545112 
L 92.269077 180.31562 
L 92.212843 180.254638 
L 92.023886 180.048527 
L 91.809742 179.81268 
L 91.743192 179.73889 
L 91.610394 179.590934 
L 91.319053 179.262977 
L 91.303582 179.245432 
L 91.128059 179.045433 
L 90.874338 178.753258 
L 90.733212 178.589145 
L 90.643289 178.48397 
L 90.431882 178.234829 
L 90.362073 178.151976 
L 90.158505 177.908687 
L 89.927659 177.629723 
L 89.824126 177.50353 
L 89.671696 177.316503 
L 89.439148 177.028298 
L 89.419373 177.003627 
L 89.124627 176.632845 
L 89.065084 176.557234 
L 88.820896 176.244616 
L 88.682923 176.066148 
L 88.626949 175.993364 
L 88.378397 175.667457 
L 88.235461 175.478004 
L 88.125157 175.330769 
L 87.957612 175.105383 
L 87.799971 174.891365 
L 87.585721 174.597395 
L 87.524542 174.512787 
L 87.261797 174.145982 
L 87.186293 174.03953 
L 87.060695 173.861394 
L 86.794749 173.479783 
L 86.663447 173.28911 
L 86.540974 173.109881 
L 86.451971 172.978787 
L 86.192825 172.592945 
L 86.112572 172.472184 
L 85.885777 172.12758 
L 85.702983 171.846168 
L 85.551451 171.610342 
L 85.521855 171.564008 
L 85.285766 171.191139 
L 85.101618 170.896186 
L 84.963871 170.673134 
L 84.880817 170.537621 
L 84.669311 170.188979 
L 84.473485 169.861523 
L 84.293218 169.556 
L 84.195856 169.389318 
L 83.991068 169.0348 
L 83.902562 168.8799 
L 83.697702 168.517359 
L 83.540357 168.235003 
L 83.395485 167.971944 
L 83.191055 167.595548 
L 83.156857 167.531975 
L 82.907671 167.063325 
L 82.831321 166.91778 
L 82.658144 166.584144 
L 82.465156 166.206431 
L 82.353672 165.985302 
L 82.127398 165.529627 
L 81.961718 165.18993 
L 81.863973 164.987035 
L 81.7002 164.642809 
L 81.470824 164.151337 
L 81.312105 163.804575 
L 81.189485 163.532774 
L 81.102431 163.337674 
L 80.983085 163.067239 
L 80.863739 162.793273 
L 80.720155 162.458822 
L 80.583495 162.135392 
L 80.425967 161.756122 
L 80.320786 161.498881 
L 80.2055 161.213098 
L 80.090214 160.923164 
L 79.962016 160.595688 
L 79.822976 160.234215 
L 79.721521 159.966139 
L 79.620067 159.694268 
L 79.520959 159.424884 
L 79.411419 159.122596 
L 79.301879 158.815331 
L 79.210197 158.554169 
L 79.055733 158.105536 
L 78.965231 157.837391 
L 78.874729 157.565144 
L 78.789289 157.304205 
L 78.683125 156.974423 
L 78.576961 156.638186 
L 78.462947 156.26949 
L 78.348933 155.89245 
L 78.268332 155.620582 
L 78.187731 155.344066 
L 78.15845 155.242417 
L 78.048508 154.854813 
L 77.938566 154.457321 
L 77.87797 154.233746 
L 77.817373 154.006809 
L 77.756777 153.776366 
L 77.696181 153.542259 
L 77.607049 153.190894 
L 77.537988 152.91257 
L 77.468926 152.628609 
L 77.37557 152.235192 
L 77.282215 151.82992 
L 77.217082 151.539579 
L 77.151949 151.242531 
L 77.087917 150.943512 
L 77.023884 150.637068 
L 76.963725 150.341901 
L 76.903566 150.03917 
L 76.861623 149.823325 
L 76.819681 149.603296 
L 76.777739 149.378842 
L 76.735796 149.149692 
L 76.70023 148.95148 
L 76.664663 148.749479 
L 76.629097 148.543471 
L 76.593531 148.333216 
L 76.557964 148.118447 
L 76.522398 147.898869 
L 76.486832 147.674154 
L 76.451265 147.443932 
L 76.41127 147.177948 
L 76.371275 146.9038 
L 76.337892 146.668157 
L 76.304509 146.425757 
L 76.271125 146.175996 
L 76.237742 145.918174 
L 76.213687 145.726946 
L 76.189632 145.530757 
L 76.165578 145.329205 
L 76.141523 145.121833 
L 76.117469 144.908112 
L 76.093414 144.687431 
L 76.06936 144.459069 
L 76.045305 144.222176 
L 76.030768 144.07446 
L 76.016232 143.922996 
L 76.001695 143.767486 
L 75.987158 143.607592 
L 75.972622 143.442924 
L 75.958085 143.27303 
L 75.943548 143.097383 
L 75.929012 142.915361 
L 75.917102 142.760969 
L 75.905193 142.601316 
L 75.893284 142.435828 
L 75.881374 142.263818 
L 75.869465 142.084453 
L 75.857555 141.896705 
L 75.845646 141.699282 
L 75.833737 141.490521 
L 75.827782 141.381228 
L 75.821827 141.268218 
L 75.815873 141.151087 
L 75.809918 141.029349 
L 75.803963 140.902414 
L 75.798008 140.769556 
L 75.792054 140.629862 
L 75.786099 140.482155 
L 75.780144 140.324879 
L 75.77419 140.155894 
L 75.768235 139.97212 
L 75.76228 139.768831 
L 75.756326 139.538072 
L 75.750371 139.264329 
L 75.744416 138.907554 
L 75.738462 138.046154 
L 75.738462 324.969231 
L 75.852487 324.969231 
L 76.128468 324.969231 
L 76.281133 324.969231 
L 76.29245 324.969231 
L 76.507871 324.969231 
L 76.629727 324.969231 
L 76.798813 324.969231 
L 76.938427 324.969231 
L 77.072981 324.969231 
L 77.377509 324.969231 
L 77.505635 324.969231 
L 77.555229 324.969231 
L 77.791599 324.969231 
L 77.979143 324.969231 
L 78.066303 324.969231 
L 78.222542 324.969231 
L 78.323303 324.969231 
L 78.601868 324.969231 
L 78.722038 324.969231 
L 78.935022 324.969231 
L 79.047545 324.969231 
L 79.209702 324.969231 
L 79.389027 324.969231 
L 79.564511 324.969231 
L 79.70508 324.969231 
L 79.867573 324.969231 
L 79.974084 324.969231 
L 80.108425 324.969231 
L 80.330982 324.969231 
L 80.487101 324.969231 
L 80.652511 324.969231 
L 80.780176 324.969231 
L 80.970206 324.969231 
L 81.061104 324.969231 
L 81.146688 324.969231 
L 81.386529 324.969231 
L 81.464385 324.969231 
L 81.638554 324.969231 
L 81.91841 324.969231 
L 81.95272 324.969231 
L 82.202112 324.969231 
L 82.360455 324.969231 
L 82.494038 324.969231 
L 82.679609 324.969231 
L 82.730912 324.969231 
L 82.876826 324.969231 
L 83.153315 324.969231 
L 83.201154 324.969231 
L 83.430071 324.969231 
L 83.565818 324.969231 
L 83.712885 324.969231 
L 83.942629 324.969231 
L 84.073729 324.969231 
L 84.230643 324.969231 
L 84.289303 324.969231 
L 84.503424 324.969231 
L 84.693232 324.969231 
L 84.846935 324.969231 
L 84.948269 324.969231 
L 85.118997 324.969231 
L 85.358796 324.969231 
L 85.392122 324.969231 
L 85.661289 324.969231 
L 85.830956 324.969231 
L 85.88491 324.969231 
L 86.144373 324.969231 
L 86.179332 324.969231 
L 86.327165 324.969231 
L 86.516463 324.969231 
L 86.685363 324.969231 
L 86.901298 324.969231 
L 86.971624 324.969231 
L 87.156289 324.969231 
L 87.302388 324.969231 
L 87.539035 324.969231 
L 87.564332 324.969231 
L 87.728075 324.969231 
L 88.021444 324.969231 
L 88.102196 324.969231 
L 88.303364 324.969231 
L 88.350213 324.969231 
L 88.542555 324.969231 
L 88.784235 324.969231 
L 88.898633 324.969231 
L 88.972575 324.969231 
L 89.20121 324.969231 
L 89.301947 324.969231 
L 89.567847 324.969231 
L 89.732727 324.969231 
L 89.786801 324.969231 
L 90.039618 324.969231 
L 90.207695 324.969231 
L 90.355033 324.969231 
L 90.45796 324.969231 
L 90.678759 324.969231 
L 90.717797 324.969231 
L 90.941312 324.969231 
L 91.098409 324.969231 
L 91.269138 324.969231 
L 91.429441 324.969231 
L 91.474902 324.969231 
L 91.678912 324.969231 
L 91.875589 324.969231 
L 92.006184 324.969231 
L 92.20178 324.969231 
L 92.255134 324.969231 
L 92.468239 324.969231 
L 92.643949 324.969231 
L 92.813069 324.969231 
L 92.92935 324.969231 
L 93.130475 324.969231 
L 93.274331 324.969231 
L 93.440763 324.969231 
L 93.551958 324.969231 
L 93.765384 324.969231 
L 93.833995 324.969231 
L 94.097593 324.969231 
L 94.148256 324.969231 
L 94.385838 324.969231 
L 94.530314 324.969231 
L 94.721743 324.969231 
L 94.885191 324.969231 
L 95.028634 324.969231 
L 95.170842 324.969231 
L 95.285022 324.969231 
L 95.413299 324.969231 
L 95.690362 324.969231 
L 95.746704 324.969231 
L 95.968892 324.969231 
L 96.044991 324.969231 
L 96.311648 324.969231 
L 96.359829 324.969231 
L 96.488752 324.969231 
L 96.709421 324.969231 
L 96.872228 324.969231 
L 97.009421 324.969231 
L 97.203915 324.969231 
L 97.387867 324.969231 
L 97.488083 324.969231 
L 97.664292 324.969231 
L 97.835969 324.969231 
L 97.964918 324.969231 
L 98.201413 324.969231 
L 98.291677 324.969231 
L 98.45551 324.969231 
L 98.668605 324.969231 
L 98.676195 324.969231 
L 98.985795 324.969231 
L 99.11579 324.969231 
L 99.185353 324.969231 
L 99.43155 324.969231 
L 99.463139 324.969231 
L 99.67729 324.969231 
L 99.828076 324.969231 
L 100.003702 324.969231 
L 100.227931 324.969231 
L 100.3869 324.969231 
L 100.515936 324.969231 
L 100.578732 324.969231 
L 100.771676 324.969231 
L 100.894632 324.969231 
L 101.124086 324.969231 
L 101.23067 324.969231 
L 101.460446 324.969231 
L 101.498542 324.969231 
L 101.721044 324.969231 
L 101.861332 324.969231 
L 102.060136 324.969231 
L 102.181692 324.969231 
L 102.343403 324.969231 
L 102.439361 324.969231 
L 102.71861 324.969231 
L 102.827457 324.969231 
L 102.970009 324.969231 
L 103.090671 324.969231 
L 103.289295 324.969231 
L 103.517498 324.969231 
L 103.532697 324.969231 
L 103.684888 324.969231 
L 103.868993 324.969231 
L 104.141274 324.969231 
L 104.152717 324.969231 
L 104.438444 324.969231 
L 104.516505 324.969231 
L 104.72846 324.969231 
L 104.808791 324.969231 
L 105.016348 324.969231 
L 105.158428 324.969231 
L 105.309655 324.969231 
L 105.422213 324.969231 
L 105.599418 324.969231 
L 105.792185 324.969231 
L 106.024211 324.969231 
L 106.164146 324.969231 
L 106.248602 324.969231 
L 106.462135 324.969231 
L 106.606446 324.969231 
L 106.682819 324.969231 
L 106.892308 324.969231 
z
" style="fill:#808080;opacity:0.5;"/>
   </g>
   <g id="patch_5">
    <path clip-path="url(#p3ef275361d)" d="M 13.430769 138.046154 
L 13.430769 13.430769 
L 13.816732 13.430769 
L 14.077006 13.430769 
L 14.518671 13.430769 
L 14.727015 13.430769 
L 15.073121 13.430769 
L 15.463304 13.430769 
L 15.532528 13.430769 
L 15.823271 13.430769 
L 16.215132 13.430769 
L 16.525819 13.430769 
L 16.993043 13.430769 
L 17.137518 13.430769 
L 17.626734 13.430769 
L 17.841 13.430769 
L 18.057063 13.430769 
L 18.357381 13.430769 
L 18.669527 13.430769 
L 19.212128 13.430769 
L 19.260992 13.430769 
L 19.737484 13.430769 
L 20.062352 13.430769 
L 20.282429 13.430769 
L 20.763252 13.430769 
L 20.800077 13.430769 
L 21.301163 13.430769 
L 21.674539 13.430769 
L 21.7321 13.430769 
L 22.351608 13.430769 
L 22.585818 13.430769 
L 22.704272 13.430769 
L 23.079933 13.430769 
L 23.551958 13.430769 
L 23.816167 13.430769 
L 24.068794 13.430769 
L 24.540133 13.430769 
L 24.716804 13.430769 
L 24.962038 13.430769 
L 25.224083 13.430769 
L 25.747114 13.430769 
L 26.059736 13.430769 
L 26.29436 13.430769 
L 26.482911 13.430769 
L 26.960804 13.430769 
L 27.224959 13.430769 
L 27.504093 13.430769 
L 27.800694 13.430769 
L 28.230477 13.430769 
L 28.577768 13.430769 
L 28.78424 13.430769 
L 29.171408 13.430769 
L 29.306737 13.430769 
L 29.573745 13.430769 
L 30.052737 13.430769 
L 30.324462 13.430769 
L 30.57167 13.430769 
L 31.004722 13.430769 
L 31.319301 13.430769 
L 31.636472 13.430769 
L 31.861016 13.430769 
L 32.288823 13.430769 
L 32.406101 13.430769 
L 32.68674 13.430769 
L 33.273017 13.430769 
L 33.5456 13.430769 
L 33.832052 13.430769 
L 34.089895 13.430769 
L 34.504436 13.430769 
L 34.575378 13.430769 
L 35.104454 13.430769 
L 35.290166 13.430769 
L 35.664797 13.430769 
L 36.02276 13.430769 
L 36.355675 13.430769 
L 36.703348 13.430769 
L 36.810898 13.430769 
L 37.258847 13.430769 
L 37.581377 13.430769 
L 37.7427 13.430769 
L 38.21875 13.430769 
L 38.370909 13.430769 
L 38.748416 13.430769 
L 39.238996 13.430769 
L 39.549395 13.430769 
L 39.858457 13.430769 
L 40.157868 13.430769 
L 40.265561 13.430769 
L 40.568936 13.430769 
L 40.941137 13.430769 
L 41.316537 13.430769 
L 41.516664 13.430769 
L 42.048819 13.430769 
L 42.178117 13.430769 
L 42.434978 13.430769 
L 42.829339 13.430769 
L 43.312386 13.430769 
L 43.522244 13.430769 
L 43.841145 13.430769 
L 43.969102 13.430769 
L 44.56362 13.430769 
L 44.826109 13.430769 
L 45.03166 13.430769 
L 45.414106 13.430769 
L 45.625391 13.430769 
L 46.087353 13.430769 
L 46.150556 13.430769 
L 46.634003 13.430769 
L 46.930907 13.430769 
L 47.166645 13.430769 
L 47.650269 13.430769 
L 47.868451 13.430769 
L 48.304378 13.430769 
L 48.391391 13.430769 
L 48.689703 13.430769 
L 49.23059 13.430769 
L 49.508448 13.430769 
L 49.823729 13.430769 
L 50.108829 13.430769 
L 50.472523 13.430769 
L 50.65712 13.430769 
L 50.902461 13.430769 
L 51.471822 13.430769 
L 51.671327 13.430769 
L 51.983849 13.430769 
L 52.347703 13.430769 
L 52.574292 13.430769 
L 52.962323 13.430769 
L 53.265638 13.430769 
L 53.492974 13.430769 
L 53.783774 13.430769 
L 54.209183 13.430769 
L 54.323611 13.430769 
L 54.756832 13.430769 
L 55.180834 13.430769 
L 55.521935 13.430769 
L 55.640147 13.430769 
L 56.003086 13.430769 
L 56.254712 13.430769 
L 56.653077 13.430769 
L 56.889895 13.430769 
L 57.181379 13.430769 
L 57.523433 13.430769 
L 57.949972 13.430769 
L 58.252695 13.430769 
L 58.435155 13.430769 
L 58.894241 13.430769 
L 59.03897 13.430769 
L 59.586089 13.430769 
L 59.784306 13.430769 
L 59.969954 13.430769 
L 60.356975 13.430769 
L 60.593579 13.430769 
L 61.052928 13.430769 
L 61.319885 13.430769 
L 61.616684 13.430769 
L 62.019385 13.430769 
L 62.227937 13.430769 
L 62.539262 13.430769 
L 62.781368 13.430769 
L 63.075437 13.430769 
L 63.534517 13.430769 
L 63.946861 13.430769 
L 64.282077 13.430769 
L 64.326188 13.430769 
L 64.790297 13.430769 
L 65.06865 13.430769 
L 65.396395 13.430769 
L 65.775642 13.430769 
L 65.917318 13.430769 
L 66.262279 13.430769 
L 66.519563 13.430769 
L 66.829196 13.430769 
L 67.365521 13.430769 
L 67.553833 13.430769 
L 68.005406 13.430769 
L 68.075688 13.430769 
L 68.639896 13.430769 
L 68.861552 13.430769 
L 69.063398 13.430769 
L 69.436294 13.430769 
L 69.934729 13.430769 
L 70.065733 13.430769 
L 70.445945 13.430769 
L 70.744878 13.430769 
L 71.029975 13.430769 
L 71.481884 13.430769 
L 71.824101 13.430769 
L 71.891181 13.430769 
L 72.159698 13.430769 
L 72.578875 13.430769 
L 72.93313 13.430769 
L 73.384809 13.430769 
L 73.618486 13.430769 
L 73.731943 13.430769 
L 74.033499 13.430769 
L 74.617642 13.430769 
L 74.871277 13.430769 
L 74.961307 13.430769 
L 75.512639 13.430769 
L 75.738462 13.430769 
L 75.738462 138.046154 
z
" style="fill:#808080;opacity:0.5;"/>
   </g>
   <g id="patch_6">
    <path clip-path="url(#p3ef275361d)" d="M 169.2 84.086109 
L 168.832779 83.875754 
L 168.036911 83.43111 
L 167.860568 83.334645 
L 167.107001 82.930678 
L 166.704924 82.720541 
L 166.185923 82.45477 
L 165.763529 82.242967 
L 165.526904 82.12606 
L 165.108568 81.922413 
L 164.441624 81.605675 
L 163.892506 81.35211 
L 163.421078 81.139548 
L 163.055779 80.978062 
L 162.722204 80.833034 
L 162.237751 80.626513 
L 161.833938 80.458049 
L 161.439139 80.29655 
L 160.728529 80.013763 
L 160.156386 79.793376 
L 159.666039 79.609615 
L 159.206493 79.441644 
L 159.066687 79.391353 
L 158.330149 79.132589 
L 157.802725 78.953629 
L 157.36868 78.810282 
L 157.097956 78.722656 
L 156.573083 78.556647 
L 155.929904 78.360142 
L 155.451626 78.218919 
L 154.976243 78.08266 
L 154.540388 77.961308 
L 154.159811 77.858127 
L 153.675764 77.730618 
L 153.024972 77.565715 
L 152.685528 77.482656 
L 152.260388 77.381468 
L 151.588611 77.227979 
L 151.187722 77.140098 
L 150.655111 77.02761 
L 150.524854 77.000838 
L 149.828744 76.862667 
L 149.382339 76.778386 
L 149.196616 76.744313 
L 148.495813 76.620971 
L 148.056179 76.547797 
L 147.56435 76.469758 
L 147.032974 76.389965 
L 146.640087 76.333977 
L 146.315699 76.289671 
L 145.826134 76.226089 
L 145.31464 76.163865 
L 144.768649 76.102174 
L 144.508245 76.074468 
L 143.847051 76.009083 
L 143.485033 75.976297 
L 143.121921 75.945549 
L 142.463715 75.895259 
L 141.790564 75.851074 
L 141.556371 75.837417 
L 141.009732 75.808981 
L 140.354238 75.781226 
L 140.247728 75.777369 
L 139.703415 75.760505 
L 139.327425 75.751637 
L 138.448828 75.739763 
L 138.135505 75.738526 
L 137.511569 75.740755 
L 137.455167 75.741264 
L 136.979453 75.747593 
L 136.47027 75.758393 
L 136.035681 75.770906 
L 135.35888 75.796438 
L 134.781004 75.824073 
L 134.497385 75.839605 
L 134.031139 75.867957 
L 133.431407 75.90959 
L 132.899776 75.951361 
L 132.510749 75.984831 
L 132.157551 76.017347 
L 131.483377 76.085049 
L 130.983101 76.140081 
L 130.698219 76.173249 
L 130.365536 76.213665 
L 129.572598 76.317333 
L 129.163449 76.37488 
L 128.979964 76.401586 
L 128.119501 76.534284 
L 127.933438 76.5646 
L 127.536281 76.631244 
L 126.934141 76.737332 
L 126.532008 76.811581 
L 125.757743 76.962249 
L 125.358568 77.043911 
L 125.28312 77.059651 
L 124.430171 77.244398 
L 124.10186 77.318852 
L 123.575756 77.442061 
L 123.252384 77.520185 
L 122.8807 77.612243 
L 122.145589 77.801481 
L 121.859563 77.8777 
L 121.26661 78.040359 
L 120.74369 78.189047 
L 120.415988 78.284747 
L 119.785515 78.474369 
L 119.315353 78.620523 
L 118.990721 78.723822 
L 118.581504 78.856831 
L 118.218271 78.977519 
L 117.719274 79.147372 
L 117.275227 79.302498 
L 116.44018 79.60447 
L 116.236015 79.680356 
L 115.608453 79.918724 
L 115.210401 80.073946 
L 114.881435 80.204609 
L 114.089338 80.528161 
L 113.698305 80.692594 
L 113.314752 80.856939 
L 112.818972 81.073899 
L 112.547962 81.194674 
L 112.037086 81.426573 
L 111.59943 81.629673 
L 111.140762 81.846969 
L 110.34302 82.235896 
L 110.188803 82.312712 
L 109.385277 82.721632 
L 109.129251 82.85502 
L 108.550907 83.161922 
L 108.105619 83.403561 
L 107.558482 83.706938 
L 107.303145 83.850989 
L 106.512531 84.307163 
L 106.198549 84.492642 
L 105.652369 84.821242 
L 105.182928 85.109806 
L 104.974811 85.239575 
L 104.242746 85.705174 
L 103.955737 85.891652 
L 103.327477 86.307754 
L 102.982899 86.540652 
L 102.475946 86.889445 
L 102.23316 87.059117 
L 101.797332 87.368038 
L 100.880359 88.036633 
L 100.845766 88.06236 
L 100.149955 88.587822 
L 99.694243 88.940355 
L 99.409081 89.164408 
L 98.859496 89.603875 
L 98.420142 89.962604 
L 97.657472 90.601419 
L 97.465573 90.765449 
L 96.814808 91.331867 
L 96.365687 91.732147 
L 95.887443 92.167056 
L 95.296247 92.717421 
L 95.162786 92.843661 
L 94.664054 93.322089 
L 93.841621 94.134791 
L 93.355425 94.629713 
L 93.143779 94.848639 
L 92.826284 95.181111 
L 92.065693 95.998018 
L 91.520477 96.602096 
L 91.173477 96.994957 
L 90.578549 97.684353 
L 90.347472 97.957699 
L 90.020223 98.350329 
L 89.327205 99.204005 
L 89.011821 99.602914 
L 88.32512 100.495291 
L 88.001185 100.928104 
L 87.439888 101.697091 
L 87.075081 102.210441 
L 86.600221 102.895556 
L 86.223935 103.452712 
L 85.847649 104.023152 
L 85.368239 104.770249 
L 85.026395 105.31767 
L 84.789781 105.704118 
L 84.408609 106.340282 
L 84.086847 106.891031 
L 83.765084 107.455076 
L 83.26056 108.368094 
L 82.968606 108.913487 
L 82.676652 109.47227 
L 82.288996 110.236302 
L 82.032436 110.756744 
L 81.775875 111.289767 
L 81.507783 111.861022 
L 81.138441 112.673714 
L 80.769099 113.518874 
L 80.637434 113.828651 
L 80.310215 114.619461 
L 79.982996 115.442653 
L 79.681457 116.23307 
L 79.379917 117.057558 
L 79.250525 117.422803 
L 79.090304 117.885394 
L 78.930082 118.360155 
L 78.76986 118.847989 
L 78.609638 119.349921 
L 78.448856 119.868952 
L 78.288075 120.404712 
L 78.161298 120.839974 
L 78.034522 121.287496 
L 77.907746 121.748287 
L 77.78097 122.223507 
L 77.623548 122.835722 
L 77.466126 123.475335 
L 77.308704 124.146127 
L 77.229993 124.494655 
L 77.151282 124.852855 
L 77.031004 125.420784 
L 76.910725 126.016695 
L 76.794683 126.622238 
L 76.736662 126.937835 
L 76.678641 127.262977 
L 76.62062 127.598555 
L 76.562599 127.945608 
L 76.504578 128.305364 
L 76.446557 128.679286 
L 76.388536 129.069144 
L 76.330515 129.477113 
L 76.272494 129.905915 
L 76.214473 130.359036 
L 76.156452 130.841062 
L 76.127442 131.094779 
L 76.098431 131.358241 
L 76.069421 131.632647 
L 76.04041 131.919468 
L 76.0114 132.220538 
L 75.982389 132.538192 
L 75.951898 132.893296 
L 75.921407 133.27495 
L 75.906162 133.477794 
L 75.890916 133.690127 
L 75.875671 133.913411 
L 75.860425 134.149528 
L 75.84518 134.400971 
L 75.829934 134.671163 
L 75.814689 134.965035 
L 75.799443 135.290148 
L 75.791821 135.468068 
L 75.784198 135.659237 
L 75.776575 135.86714 
L 75.768952 136.097125 
L 75.76133 136.358194 
L 75.753707 136.667898 
L 75.746084 137.07155 
L 75.738462 138.046154 
L 75.738462 13.430769 
L 76.293305 13.430769 
L 76.50618 13.430769 
L 77.29372 13.430769 
L 77.44608 13.430769 
L 77.971938 13.430769 
L 78.755144 13.430769 
L 78.921352 13.430769 
L 79.387257 13.430769 
L 79.818681 13.430769 
L 80.542426 13.430769 
L 81.003533 13.430769 
L 81.257713 13.430769 
L 81.988437 13.430769 
L 82.480994 13.430769 
L 82.984727 13.430769 
L 83.470255 13.430769 
L 83.536943 13.430769 
L 83.959024 13.430769 
L 84.6604 13.430769 
L 85.261056 13.430769 
L 85.788777 13.430769 
L 86.156098 13.430769 
L 86.739739 13.430769 
L 87.002129 13.430769 
L 87.488873 13.430769 
L 88.037705 13.430769 
L 88.56682 13.430769 
L 89.093117 13.430769 
L 89.299041 13.430769 
L 89.920064 13.430769 
L 90.189724 13.430769 
L 90.789069 13.430769 
L 91.058255 13.430769 
L 91.535688 13.430769 
L 92.16979 13.430769 
L 92.589145 13.430769 
L 92.988739 13.430769 
L 93.378254 13.430769 
L 94.096889 13.430769 
L 94.696085 13.430769 
L 95.074476 13.430769 
L 95.557058 13.430769 
L 96.108785 13.430769 
L 96.634898 13.430769 
L 96.856293 13.430769 
L 97.254777 13.430769 
L 97.621453 13.430769 
L 98.319279 13.430769 
L 98.634162 13.430769 
L 99.366763 13.430769 
L 99.539808 13.430769 
L 100.238631 13.430769 
L 100.48223 13.430769 
L 101.303549 13.430769 
L 101.501761 13.430769 
L 102.11329 13.430769 
L 102.346175 13.430769 
L 103.12061 13.430769 
L 103.336953 13.430769 
L 103.74078 13.430769 
L 104.191609 13.430769 
L 105.030649 13.430769 
L 105.335872 13.430769 
L 105.954534 13.430769 
L 106.334199 13.430769 
L 106.806564 13.430769 
L 107.119536 13.430769 
L 107.69387 13.430769 
L 108.36962 13.430769 
L 108.7577 13.430769 
L 108.954138 13.430769 
L 109.346402 13.430769 
L 110.175975 13.430769 
L 110.607243 13.430769 
L 111.039622 13.430769 
L 111.551111 13.430769 
L 111.961909 13.430769 
L 112.584945 13.430769 
L 112.787729 13.430769 
L 113.382603 13.430769 
L 113.58834 13.430769 
L 114.2658 13.430769 
L 114.823458 13.430769 
L 115.343736 13.430769 
L 115.651511 13.430769 
L 115.949193 13.430769 
L 116.735332 13.430769 
L 117.229116 13.430769 
L 117.697595 13.430769 
L 118.022263 13.430769 
L 118.516071 13.430769 
L 118.7397 13.430769 
L 119.311443 13.430769 
L 119.874568 13.430769 
L 120.42652 13.430769 
L 121.01016 13.430769 
L 121.359047 13.430769 
L 121.981966 13.430769 
L 122.307269 13.430769 
L 122.583441 13.430769 
L 123.157291 13.430769 
L 123.513949 13.430769 
L 124.077741 13.430769 
L 124.350006 13.430769 
L 125.173843 13.430769 
L 125.505825 13.430769 
L 125.810781 13.430769 
L 126.27182 13.430769 
L 126.979721 13.430769 
L 127.351356 13.430769 
L 127.745918 13.430769 
L 128.312467 13.430769 
L 128.869995 13.430769 
L 129.354658 13.430769 
L 129.583744 13.430769 
L 129.988469 13.430769 
L 130.879078 13.430769 
L 131.037969 13.430769 
L 131.444689 13.430769 
L 131.875286 13.430769 
L 132.715133 13.430769 
L 133.248395 13.430769 
L 133.641971 13.430769 
L 133.977208 13.430769 
L 134.477357 13.430769 
L 134.795275 13.430769 
L 135.328687 13.430769 
L 135.700094 13.430769 
L 136.507099 13.430769 
L 136.796435 13.430769 
L 137.18537 13.430769 
L 137.675673 13.430769 
L 138.034419 13.430769 
L 138.776242 13.430769 
L 139.211563 13.430769 
L 139.637565 13.430769 
L 139.959404 13.430769 
L 140.553664 13.430769 
L 140.806751 13.430769 
L 141.488953 13.430769 
L 142.101159 13.430769 
L 142.613526 13.430769 
L 142.886166 13.430769 
L 143.232642 13.430769 
L 143.904679 13.430769 
L 144.232486 13.430769 
L 144.832888 13.430769 
L 145.176046 13.430769 
L 145.541017 13.430769 
L 146.160135 13.430769 
L 146.82141 13.430769 
L 147.337803 13.430769 
L 147.798497 13.430769 
L 147.899309 13.430769 
L 148.487886 13.430769 
L 148.793049 13.430769 
L 149.427071 13.430769 
L 149.929741 13.430769 
L 150.359828 13.430769 
L 151.107861 13.430769 
L 151.257582 13.430769 
L 151.616295 13.430769 
L 152.23665 13.430769 
L 152.731647 13.430769 
L 153.222786 13.430769 
L 153.674653 13.430769 
L 154.172511 13.430769 
L 154.751884 13.430769 
L 154.897475 13.430769 
L 155.444575 13.430769 
L 155.926216 13.430769 
L 156.334492 13.430769 
L 156.775615 13.430769 
L 157.505871 13.430769 
L 158.00618 13.430769 
L 158.581773 13.430769 
L 158.965152 13.430769 
L 159.496293 13.430769 
L 159.712003 13.430769 
L 160.243578 13.430769 
L 160.90108 13.430769 
L 161.139363 13.430769 
L 161.886701 13.430769 
L 162.061031 13.430769 
L 162.566655 13.430769 
L 163.229134 13.430769 
L 163.573758 13.430769 
L 163.832799 13.430769 
L 164.460502 13.430769 
L 165.122685 13.430769 
L 165.338701 13.430769 
L 165.735368 13.430769 
L 166.439094 13.430769 
L 166.868465 13.430769 
L 167.320766 13.430769 
L 167.619602 13.430769 
L 168.388125 13.430769 
L 168.952844 13.430769 
L 169.2 13.430769 
z
" style="fill:#808080;opacity:0.5;"/>
   </g>
   <g id="patch_7">
    <path clip-path="url(#p3ef275361d)" d="M 262.661538 138.046154 
L 262.65447 138.984649 
L 262.647402 139.373349 
L 262.640333 139.671583 
L 262.633265 139.922984 
L 262.626197 140.144454 
L 262.619128 140.344662 
L 262.61206 140.528756 
L 262.604992 140.700092 
L 262.597923 140.861 
L 262.590855 141.013178 
L 262.583787 141.157907 
L 262.576718 141.296182 
L 262.56965 141.428794 
L 262.562582 141.556386 
L 262.555513 141.679486 
L 262.548445 141.798537 
L 262.541377 141.913912 
L 262.534308 142.025931 
L 262.520172 142.240969 
L 262.506035 142.445463 
L 262.491899 142.640822 
L 262.477762 142.828164 
L 262.463625 143.008398 
L 262.449489 143.182273 
L 262.435352 143.350414 
L 262.421436 143.510837 
L 262.407521 143.666648 
L 262.393606 143.818222 
L 262.37969 143.965883 
L 262.365775 144.109918 
L 262.351859 144.250579 
L 262.324028 144.522652 
L 262.303579 144.715417 
L 262.28313 144.902705 
L 262.262681 145.084951 
L 262.242232 145.262539 
L 262.221783 145.435803 
L 262.201334 145.605041 
L 262.180885 145.770519 
L 262.160436 145.932472 
L 262.121178 146.234268 
L 262.081921 146.525148 
L 262.042663 146.806199 
L 262.003406 147.078338 
L 261.976165 147.262353 
L 261.948925 147.442685 
L 261.921685 147.619544 
L 261.894444 147.793118 
L 261.85481 148.04015 
L 261.815176 148.281067 
L 261.775542 148.516293 
L 261.735908 148.746202 
L 261.684385 149.037676 
L 261.632862 149.321383 
L 261.588637 149.559142 
L 261.544413 149.791923 
L 261.500188 150.020017 
L 261.455964 150.243685 
L 261.39378 150.551155 
L 261.331596 150.850942 
L 261.269412 151.143574 
L 261.207228 151.42952 
L 261.126006 151.793629 
L 261.044785 152.147871 
L 260.989876 152.382139 
L 260.934966 152.612432 
L 260.838812 153.006683 
L 260.738874 153.405089 
L 260.638937 153.792784 
L 260.566183 154.068731 
L 260.49343 154.339681 
L 260.413849 154.630622 
L 260.334268 154.916171 
L 260.227496 155.291286 
L 260.120724 155.657766 
L 260.06965 155.83017 
L 259.997498 156.070674 
L 259.925346 156.307725 
L 259.853193 156.541457 
L 259.781041 156.771993 
L 259.719386 156.966544 
L 259.633769 157.23311 
L 259.548151 157.495646 
L 259.394706 157.956589 
L 259.242958 158.401031 
L 259.120419 158.752153 
L 258.99788 159.096707 
L 258.952133 159.22372 
L 258.85589 159.488154 
L 258.759647 159.74894 
L 258.58285 160.218921 
L 258.412622 160.660908 
L 258.27741 161.005015 
L 258.112755 161.416155 
L 258.006655 161.676688 
L 257.823824 162.117926 
L 257.696837 162.418882 
L 257.563223 162.730881 
L 257.429608 163.03827 
L 257.3164 163.295232 
L 257.154612 163.657119 
L 257.067198 163.850111 
L 256.866316 164.287138 
L 256.768411 164.496965 
L 256.626059 164.798473 
L 256.499055 165.064001 
L 256.372051 165.326353 
L 256.174489 165.728356 
L 256.094136 165.8898 
L 255.896569 166.281849 
L 255.800546 166.469948 
L 255.67892 166.705965 
L 255.462235 167.120439 
L 255.336781 167.356995 
L 255.224713 167.566258 
L 254.998329 167.983238 
L 254.779766 168.378773 
L 254.600233 168.69869 
L 254.476233 168.917108 
L 254.29126 169.239164 
L 254.18145 169.428275 
L 254.022581 169.699202 
L 253.93092 169.854104 
L 253.778304 170.109775 
L 253.610301 170.388054 
L 253.500282 170.568529 
L 253.224299 171.015288 
L 253.159924 171.118296 
L 252.931214 171.4807 
L 252.749146 171.765303 
L 252.649789 171.919195 
L 252.493815 172.158793 
L 252.364862 172.355086 
L 252.094492 172.761484 
L 252.029982 172.857438 
L 251.816145 173.172786 
L 251.626325 173.449282 
L 251.566786 173.535354 
L 251.338283 173.86285 
L 251.293731 173.926185 
L 251.031256 174.295963 
L 250.995303 174.346173 
L 250.753953 174.680533 
L 250.586977 174.909158 
L 250.49961 175.027918 
L 250.351776 175.227541 
L 250.123559 175.532475 
L 250.015558 175.675436 
L 249.866399 175.871485 
L 249.623356 176.187521 
L 249.540974 176.293702 
L 249.312328 176.585946 
L 249.135992 176.808903 
L 248.972846 177.013337 
L 248.952546 177.038652 
L 248.78898 177.241643 
L 248.550705 177.53427 
L 248.471649 177.630565 
L 248.291958 177.847988 
L 248.144191 178.025291 
L 247.915674 178.296882 
L 247.748888 178.493138 
L 247.695473 178.555646 
L 247.55081 178.724098 
L 247.355098 178.950076 
L 247.174472 179.156707 
L 247.07439 179.27041 
L 246.87072 179.500092 
L 246.72632 179.661561 
L 246.554284 179.85247 
L 246.429819 179.989607 
L 246.202372 180.238111 
L 246.058447 180.393975 
L 245.898333 180.566128 
L 245.828781 180.640506 
L 245.594548 180.88921 
L 245.468096 181.022344 
L 245.225656 181.275417 
L 245.08909 181.416725 
L 244.896577 181.614418 
L 244.85558 181.656292 
L 244.727159 181.786955 
L 244.475753 182.040538 
L 244.30078 182.215323 
L 244.222145 182.293424 
L 243.991583 182.520826 
L 243.886176 182.624005 
L 243.694947 182.80995 
L 243.533353 182.965846 
L 243.355279 183.136345 
L 243.182335 183.300646 
L 243.123807 183.355965 
L 243.003911 183.468841 
L 242.747521 183.708226 
L 242.594297 183.850006 
L 242.428687 184.002179 
L 242.252701 184.162685 
L 242.194717 184.2153 
L 241.930678 184.453218 
L 241.774384 184.592771 
L 241.698114 184.660529 
L 241.492364 184.84221 
L 241.443421 184.88519 
L 241.233941 185.068131 
L 241.034347 185.240914 
L 240.831835 185.414718 
L 240.745151 185.488656 
L 240.543329 185.659744 
L 240.37622 185.800297 
L 240.306359 185.858759 
L 240.059544 186.063922 
L 239.994046 186.118007 
L 239.819168 186.261679 
L 239.662716 186.389315 
L 239.417402 186.587756 
L 239.363128 186.631383 
L 239.194906 186.765971 
L 238.973578 186.941602 
L 238.806969 187.072737 
L 238.700125 187.156351 
L 238.556815 187.267914 
L 238.426326 187.368916 
L 238.237455 187.51413 
L 238.048593 187.658195 
L 237.988224 187.704005 
L 237.818774 187.831972 
L 237.645088 187.962201 
L 237.416513 188.132152 
L 237.237373 188.264218 
L 237.096648 188.367273 
L 236.9493 188.474532 
L 236.773815 188.601414 
L 236.600292 188.725969 
L 236.45795 188.827472 
L 236.299425 188.939806 
L 236.145924 189.047876 
L 235.979137 189.164518 
L 235.942756 189.189854 
L 235.721319 189.343234 
L 235.562156 189.452607 
L 235.347814 189.598756 
L 235.242711 189.669943 
L 235.104192 189.763288 
L 234.970673 189.852754 
L 234.856158 189.92909 
L 234.620871 190.084789 
L 234.544244 190.135166 
L 234.374111 190.246442 
L 234.183884 190.369925 
L 233.988666 190.495629 
L 233.899469 190.552722 
L 233.632557 190.722296 
L 233.481381 190.8175 
L 233.409888 190.862312 
L 233.292865 190.935373 
L 233.010618 191.110113 
L 232.892165 191.18283 
L 232.69586 191.30254 
L 232.652003 191.329149 
L 232.480889 191.432497 
L 232.312783 191.5333 
L 232.207467 191.596087 
L 231.969712 191.736801 
L 231.872103 191.794158 
L 231.588102 191.959694 
L 231.507692 192.006198 
L 231.507692 324.969231 
L 231.688416 324.969231 
L 231.815389 324.969231 
L 231.999706 324.969231 
L 232.157176 324.969231 
L 232.279023 324.969231 
L 232.376347 324.969231 
L 232.608407 324.969231 
L 232.700414 324.969231 
L 232.949424 324.969231 
L 233.145629 324.969231 
L 233.220404 324.969231 
L 233.457294 324.969231 
L 233.526417 324.969231 
L 233.676499 324.969231 
L 233.85691 324.969231 
L 234.050534 324.969231 
L 234.156497 324.969231 
L 234.249 324.969231 
L 234.459574 324.969231 
L 234.704426 324.969231 
L 234.872863 324.969231 
L 234.981145 324.969231 
L 235.061726 324.969231 
L 235.3229 324.969231 
L 235.493419 324.969231 
L 235.502291 324.969231 
L 235.659177 324.969231 
L 235.848728 324.969231 
L 236.089445 324.969231 
L 236.190919 324.969231 
L 236.285757 324.969231 
L 236.440083 324.969231 
L 236.673959 324.969231 
L 236.849648 324.969231 
L 237.054644 324.969231 
L 237.196131 324.969231 
L 237.345401 324.969231 
L 237.513629 324.969231 
L 237.569092 324.969231 
L 237.760069 324.969231 
L 237.870071 324.969231 
L 238.102663 324.969231 
L 238.296105 324.969231 
L 238.339529 324.969231 
L 238.616911 324.969231 
L 238.724989 324.969231 
L 238.867686 324.969231 
L 238.965614 324.969231 
L 239.1072 324.969231 
L 239.290679 324.969231 
L 239.498629 324.969231 
L 239.682968 324.969231 
L 239.774775 324.969231 
L 239.932734 324.969231 
L 240.166387 324.969231 
L 240.324833 324.969231 
L 240.500538 324.969231 
L 240.610851 324.969231 
L 240.808848 324.969231 
L 240.973075 324.969231 
L 241.1258 324.969231 
L 241.279916 324.969231 
L 241.293852 324.969231 
L 241.532404 324.969231 
L 241.709036 324.969231 
L 241.826784 324.969231 
L 241.99576 324.969231 
L 242.179091 324.969231 
L 242.384432 324.969231 
L 242.481254 324.969231 
L 242.658613 324.969231 
L 242.723096 324.969231 
L 242.975666 324.969231 
L 243.074327 324.969231 
L 243.231169 324.969231 
L 243.482538 324.969231 
L 243.558684 324.969231 
L 243.788908 324.969231 
L 243.950576 324.969231 
L 243.999283 324.969231 
L 244.194123 324.969231 
L 244.419719 324.969231 
L 244.574569 324.969231 
L 244.713773 324.969231 
L 244.888716 324.969231 
L 244.956946 324.969231 
L 245.115263 324.969231 
L 245.246048 324.969231 
L 245.417585 324.969231 
L 245.578402 324.969231 
L 245.754954 324.969231 
L 245.846691 324.969231 
L 246.019576 324.969231 
L 246.248469 324.969231 
L 246.312651 324.969231 
L 246.533668 324.969231 
L 246.761362 324.969231 
L 246.792239 324.969231 
L 246.949824 324.969231 
L 247.088108 324.969231 
L 247.307127 324.969231 
L 247.513056 324.969231 
L 247.62169 324.969231 
L 247.819021 324.969231 
L 247.996506 324.969231 
L 248.168547 324.969231 
L 248.299806 324.969231 
L 248.480356 324.969231 
L 248.626258 324.969231 
L 248.732942 324.969231 
L 248.862621 324.969231 
L 249.036114 324.969231 
L 249.149 324.969231 
L 249.319438 324.969231 
L 249.49929 324.969231 
L 249.691806 324.969231 
L 249.748899 324.969231 
L 250.050703 324.969231 
L 250.182735 324.969231 
L 250.220675 324.969231 
L 250.383162 324.969231 
L 250.596483 324.969231 
L 250.722681 324.969231 
L 250.875884 324.969231 
L 251.090425 324.969231 
L 251.306021 324.969231 
L 251.429555 324.969231 
L 251.497144 324.969231 
L 251.684481 324.969231 
L 251.879643 324.969231 
L 252.072467 324.969231 
L 252.106875 324.969231 
L 252.26171 324.969231 
L 252.49125 324.969231 
L 252.601677 324.969231 
L 252.850201 324.969231 
L 252.991396 324.969231 
L 253.121784 324.969231 
L 253.190751 324.969231 
L 253.49922 324.969231 
L 253.575725 324.969231 
L 253.779279 324.969231 
L 253.889596 324.969231 
L 253.986912 324.969231 
L 254.164968 324.969231 
L 254.33026 324.969231 
L 254.598903 324.969231 
L 254.695308 324.969231 
L 254.792305 324.969231 
L 254.94551 324.969231 
L 255.201978 324.969231 
L 255.305577 324.969231 
L 255.417878 324.969231 
L 255.546161 324.969231 
L 255.718529 324.969231 
L 255.878529 324.969231 
L 256.058882 324.969231 
L 256.210031 324.969231 
L 256.465701 324.969231 
L 256.610015 324.969231 
L 256.676141 324.969231 
L 256.89836 324.969231 
L 257.031641 324.969231 
L 257.256944 324.969231 
L 257.359081 324.969231 
L 257.503856 324.969231 
L 257.658266 324.969231 
L 257.74146 324.969231 
L 258.027736 324.969231 
L 258.197254 324.969231 
L 258.261659 324.969231 
L 258.377298 324.969231 
L 258.553072 324.969231 
L 258.708212 324.969231 
L 258.909938 324.969231 
L 258.998403 324.969231 
L 259.238408 324.969231 
L 259.382242 324.969231 
L 259.602799 324.969231 
L 259.648112 324.969231 
L 259.872171 324.969231 
L 259.952501 324.969231 
L 260.121117 324.969231 
L 260.241863 324.969231 
L 260.525859 324.969231 
L 260.548161 324.969231 
L 260.713008 324.969231 
L 261.003699 324.969231 
L 261.10556 324.969231 
L 261.30439 324.969231 
L 261.401825 324.969231 
L 261.526987 324.969231 
L 261.704572 324.969231 
L 261.867187 324.969231 
L 262.045872 324.969231 
L 262.19574 324.969231 
L 262.286154 324.969231 
L 262.547706 324.969231 
L 262.661538 324.969231 
z
" style="fill:#808080;opacity:0.5;"/>
   </g>
   <g id="patch_8">
    <path clip-path="url(#p3ef275361d)" d="M 262.661538 138.046154 
L 262.661538 13.430769 
L 262.960663 13.430769 
L 263.180062 13.430769 
L 263.713868 13.430769 
L 264.01504 13.430769 
L 264.312715 13.430769 
L 264.65847 13.430769 
L 264.744576 13.430769 
L 265.164642 13.430769 
L 265.538108 13.430769 
L 265.900529 13.430769 
L 266.026006 13.430769 
L 266.335544 13.430769 
L 266.778598 13.430769 
L 267.189263 13.430769 
L 267.334605 13.430769 
L 267.704979 13.430769 
L 268.042722 13.430769 
L 268.420633 13.430769 
L 268.706277 13.430769 
L 268.830016 13.430769 
L 269.203199 13.430769 
L 269.405407 13.430769 
L 269.97397 13.430769 
L 270.07053 13.430769 
L 270.426171 13.430769 
L 270.940031 13.430769 
L 270.99709 13.430769 
L 271.500001 13.430769 
L 271.6042 13.430769 
L 271.941356 13.430769 
L 272.482595 13.430769 
L 272.694428 13.430769 
L 272.963817 13.430769 
L 273.273394 13.430769 
L 273.632848 13.430769 
L 274.033709 13.430769 
L 274.31177 13.430769 
L 274.698432 13.430769 
L 274.852397 13.430769 
L 275.157616 13.430769 
L 275.432251 13.430769 
L 275.941488 13.430769 
L 275.975744 13.430769 
L 276.357214 13.430769 
L 276.699438 13.430769 
L 277.195009 13.430769 
L 277.437719 13.430769 
L 277.650092 13.430769 
L 277.882963 13.430769 
L 278.266209 13.430769 
L 278.651086 13.430769 
L 279.015076 13.430769 
L 279.351113 13.430769 
L 279.503459 13.430769 
L 279.897994 13.430769 
L 280.271554 13.430769 
L 280.476586 13.430769 
L 280.876286 13.430769 
L 281.016796 13.430769 
L 281.411691 13.430769 
L 281.846071 13.430769 
L 281.959604 13.430769 
L 282.396655 13.430769 
L 282.855106 13.430769 
L 282.916161 13.430769 
L 283.195815 13.430769 
L 283.527311 13.430769 
L 284.003528 13.430769 
L 284.305537 13.430769 
L 284.603383 13.430769 
L 284.779728 13.430769 
L 285.29598 13.430769 
L 285.484382 13.430769 
L 285.953979 13.430769 
L 286.015427 13.430769 
L 286.479973 13.430769 
L 286.911389 13.430769 
L 287.203683 13.430769 
L 287.535305 13.430769 
L 287.593584 13.430769 
L 287.969126 13.430769 
L 288.271919 13.430769 
L 288.541007 13.430769 
L 288.936973 13.430769 
L 289.4126 13.430769 
L 289.447983 13.430769 
L 289.865416 13.430769 
L 290.363224 13.430769 
L 290.439987 13.430769 
L 290.835553 13.430769 
L 291.301593 13.430769 
L 291.470293 13.430769 
L 291.837626 13.430769 
L 292.015065 13.430769 
L 292.288973 13.430769 
L 292.749621 13.430769 
L 292.992895 13.430769 
L 293.453689 13.430769 
L 293.627117 13.430769 
L 294.120055 13.430769 
L 294.401196 13.430769 
L 294.574834 13.430769 
L 294.835087 13.430769 
L 295.132647 13.430769 
L 295.676256 13.430769 
L 295.99054 13.430769 
L 296.055381 13.430769 
L 296.517097 13.430769 
L 296.709478 13.430769 
L 297.205484 13.430769 
L 297.561282 13.430769 
L 297.87231 13.430769 
L 298.077318 13.430769 
L 298.306169 13.430769 
L 298.715516 13.430769 
L 298.9996 13.430769 
L 299.390587 13.430769 
L 299.598677 13.430769 
L 299.954229 13.430769 
L 300.239558 13.430769 
L 300.655365 13.430769 
L 300.851419 13.430769 
L 301.017719 13.430769 
L 301.503429 13.430769 
L 301.877536 13.430769 
L 302.096151 13.430769 
L 302.555828 13.430769 
L 302.730939 13.430769 
L 303.154034 13.430769 
L 303.509444 13.430769 
L 303.749859 13.430769 
L 303.99746 13.430769 
L 304.419057 13.430769 
L 304.682262 13.430769 
L 304.855643 13.430769 
L 305.097461 13.430769 
L 305.666082 13.430769 
L 305.834522 13.430769 
L 306.098704 13.430769 
L 306.593884 13.430769 
L 306.731906 13.430769 
L 307.174261 13.430769 
L 307.514309 13.430769 
L 307.614382 13.430769 
L 308.206066 13.430769 
L 308.419245 13.430769 
L 308.699673 13.430769 
L 308.891335 13.430769 
L 309.180974 13.430769 
L 309.713098 13.430769 
L 310.067385 13.430769 
L 310.162927 13.430769 
L 310.617232 13.430769 
L 310.774545 13.430769 
L 311.317029 13.430769 
L 311.473974 13.430769 
L 311.834313 13.430769 
L 312.136862 13.430769 
L 312.471368 13.430769 
L 312.715296 13.430769 
L 312.92668 13.430769 
L 313.43046 13.430769 
L 313.601215 13.430769 
L 314.028894 13.430769 
L 314.391563 13.430769 
L 314.586557 13.430769 
L 314.811656 13.430769 
L 315.165109 13.430769 
L 315.692757 13.430769 
L 315.762711 13.430769 
L 316.237621 13.430769 
L 316.503776 13.430769 
L 316.9706 13.430769 
L 316.993225 13.430769 
L 317.352151 13.430769 
L 317.84088 13.430769 
L 318.144724 13.430769 
L 318.49813 13.430769 
L 318.759852 13.430769 
L 318.94783 13.430769 
L 319.178664 13.430769 
L 319.574147 13.430769 
L 319.9005 13.430769 
L 320.334487 13.430769 
L 320.641399 13.430769 
L 320.777931 13.430769 
L 321.159471 13.430769 
L 321.625986 13.430769 
L 321.983638 13.430769 
L 322.11336 13.430769 
L 322.600983 13.430769 
L 322.933052 13.430769 
L 323.105299 13.430769 
L 323.358649 13.430769 
L 323.751383 13.430769 
L 324.139309 13.430769 
L 324.238927 13.430769 
L 324.614272 13.430769 
L 324.969231 13.430769 
L 324.969231 138.046154 
z
" style="fill:#808080;opacity:0.5;"/>
   </g>
   <g id="patch_9">
    <path clip-path="url(#p3ef275361d)" d="M 262.661538 138.046154 
L 262.647856 136.740428 
L 262.634173 136.199681 
L 262.62049 135.784819 
L 262.606807 135.435133 
L 262.593124 135.127104 
L 262.579441 134.848671 
L 262.565758 134.592667 
L 262.552075 134.354424 
L 262.538392 134.130699 
L 262.524709 133.919128 
L 262.497343 133.525721 
L 262.469977 133.164065 
L 262.442611 132.827555 
L 262.415245 132.511603 
L 262.387879 132.212867 
L 262.360514 131.928824 
L 262.333148 131.657515 
L 262.305782 131.39738 
L 262.278416 131.147155 
L 262.223684 130.672438 
L 262.159784 130.154727 
L 262.095883 129.669437 
L 262.031983 129.211223 
L 261.968082 128.776071 
L 261.904182 128.360871 
L 261.840281 127.963158 
L 261.776381 127.580938 
L 261.71248 127.212571 
L 261.626289 126.735263 
L 261.540098 126.277928 
L 261.453907 125.838323 
L 261.367715 125.414594 
L 261.27425 124.971256 
L 261.180784 124.543111 
L 261.087318 124.128759 
L 260.993853 123.727002 
L 260.900387 123.336807 
L 260.806922 122.957277 
L 260.61999 122.227166 
L 260.508528 121.808459 
L 260.397066 121.401027 
L 260.285604 121.004062 
L 260.174142 120.616848 
L 260.005418 120.047864 
L 259.836695 119.497859 
L 259.675453 118.988466 
L 259.514211 118.493668 
L 259.35297 118.012384 
L 259.191728 117.543662 
L 259.022041 117.063031 
L 258.780105 116.398503 
L 258.53817 115.756402 
L 258.27288 115.075869 
L 258.007591 114.417903 
L 257.68981 113.656898 
L 257.49528 113.204556 
L 257.300751 112.761801 
L 256.911693 111.903115 
L 256.531745 111.096344 
L 256.163814 110.342435 
L 255.822939 109.666086 
L 255.402206 108.858373 
L 254.981473 108.078323 
L 254.493672 107.205795 
L 254.359861 106.972067 
L 253.943413 106.259256 
L 253.526965 105.567423 
L 253.113673 104.900276 
L 252.673098 104.209127 
L 252.312211 103.657539 
L 251.8873 103.023994 
L 251.505208 102.468257 
L 251.055091 101.82969 
L 250.658982 101.281472 
L 250.262873 100.745516 
L 249.801772 100.136377 
L 249.70512 100.01064 
L 249.176076 99.333902 
L 248.574892 98.587577 
L 248.040103 97.94292 
L 247.5479 97.364833 
L 247.305256 97.085031 
L 246.658086 96.354837 
L 246.217747 95.870911 
L 245.870245 95.496114 
L 245.349893 94.94622 
L 244.818971 94.398689 
L 244.245947 93.822495 
L 243.670991 93.259175 
L 243.344791 92.945963 
L 242.776237 92.410759 
L 242.390156 92.054881 
L 241.774593 91.499723 
L 241.563314 91.312566 
L 241.125422 90.930051 
L 240.787571 90.639799 
L 240.246899 90.183926 
L 239.591437 89.645121 
L 239.019911 89.187338 
L 238.867067 89.066767 
L 238.207158 88.55499 
L 237.84679 88.28143 
L 237.307013 87.879313 
L 236.669009 87.415555 
L 236.225641 87.100469 
L 236.080813 86.9988 
L 235.464713 86.573097 
L 234.815351 86.136105 
L 234.711414 86.067254 
L 233.942108 85.566852 
L 233.539475 85.311321 
L 233.061484 85.013532 
L 232.605303 84.734879 
L 232.264552 84.530218 
L 231.713114 84.205232 
L 231.378876 84.011942 
L 230.737998 83.648986 
L 230.26907 83.389701 
L 229.978986 83.231926 
L 229.113245 82.772783 
L 228.747668 82.5841 
L 228.583635 82.500429 
L 228.128331 82.27137 
L 227.451815 81.939571 
L 226.771921 81.616252 
L 226.699794 81.582541 
L 225.888944 81.211241 
L 225.338225 80.967004 
L 225.120307 80.872113 
L 224.796192 80.732803 
L 224.204037 80.483866 
L 223.842265 80.3353 
L 223.174232 80.067895 
L 222.539579 79.822089 
L 222.136891 79.670239 
L 221.946956 79.599716 
L 221.311773 79.368954 
L 220.827722 79.198308 
L 220.532595 79.096458 
L 220.049173 78.933189 
L 219.413881 78.725301 
L 219.092362 78.622955 
L 218.687954 78.496939 
L 218.175679 78.341625 
L 217.597892 78.172191 
L 216.957679 77.991501 
L 216.503879 77.867877 
L 216.288671 77.810534 
L 215.507077 77.609177 
L 215.286268 77.554243 
L 214.703423 77.41334 
L 214.166389 77.28875 
L 213.676905 77.17954 
L 213.329761 77.10459 
L 212.775322 76.989169 
L 212.278229 76.890143 
L 211.989268 76.834509 
L 211.30539 76.708464 
L 210.896163 76.636805 
L 210.458808 76.563325 
L 210.120302 76.508646 
L 209.486709 76.411429 
L 209.060847 76.349828 
L 208.541474 76.278757 
L 208.190992 76.23331 
L 207.800331 76.185032 
L 207.109895 76.105825 
L 206.666405 76.059057 
L 206.125642 76.006369 
L 205.764795 75.973856 
L 205.475174 75.94929 
L 204.793122 75.896807 
L 204.430334 75.871957 
L 203.99905 75.845181 
L 203.385506 75.81226 
L 202.920235 75.791337 
L 202.319961 75.76949 
L 202.075116 75.762241 
L 201.535227 75.749662 
L 201.295655 75.74558 
L 200.658455 75.739206 
L 199.980724 75.739579 
L 199.876651 75.740289 
L 199.179676 75.749526 
L 198.746997 75.759184 
L 198.552191 75.764515 
L 197.815478 75.790189 
L 197.344271 75.811188 
L 196.761125 75.842128 
L 196.469327 75.859668 
L 196.131172 75.881714 
L 195.335936 75.940847 
L 194.804094 75.986112 
L 194.783916 75.98792 
L 194.323188 76.030997 
L 193.659763 76.099098 
L 193.07855 76.164666 
L 192.523539 76.232443 
L 192.060205 76.292903 
L 191.698666 76.342537 
L 191.137877 76.4238 
L 190.591629 76.507974 
L 190.314855 76.552519 
L 189.691813 76.657478 
L 189.236503 76.738298 
L 188.818349 76.815599 
L 188.542245 76.868261 
L 187.754686 77.025586 
L 187.490561 77.080718 
L 187.219832 77.138468 
L 186.349636 77.332641 
L 186.291052 77.346184 
L 185.730423 77.478803 
L 185.108624 77.632317 
L 184.54855 77.776417 
L 184.067773 77.904551 
L 183.931701 77.941564 
L 183.17636 78.153062 
L 182.803658 78.261211 
L 182.325572 78.403637 
L 182.058471 78.485028 
L 181.563096 78.639452 
L 181.031119 78.810348 
L 180.328962 79.044014 
L 179.940415 79.177314 
L 179.371382 79.377723 
L 178.865216 79.561222 
L 178.475952 79.70572 
L 178.103762 79.84665 
L 177.57006 80.053503 
L 176.96158 80.296258 
L 176.833058 80.348484 
L 176.181756 80.618298 
L 175.697085 80.824719 
L 175.459495 80.927682 
L 174.928264 81.162164 
L 174.360621 81.419298 
L 173.790598 81.684443 
L 173.481975 81.830933 
L 173.07685 82.026389 
L 172.258297 82.432409 
L 171.896183 82.61683 
L 171.49565 82.824301 
L 171.174307 82.993425 
L 170.744392 83.223451 
L 169.939012 83.666136 
L 169.637847 83.835676 
L 169.2 84.086109 
L 169.2 13.430769 
L 169.758357 13.430769 
L 170.13105 13.430769 
L 170.677934 13.430769 
L 171.027495 13.430769 
L 171.651049 13.430769 
L 172.071381 13.430769 
L 172.672819 13.430769 
L 172.896002 13.430769 
L 173.210158 13.430769 
L 173.907096 13.430769 
L 174.394476 13.430769 
L 175.047672 13.430769 
L 175.373074 13.430769 
L 175.691257 13.430769 
L 176.328253 13.430769 
L 176.708303 13.430769 
L 177.153944 13.430769 
L 177.587474 13.430769 
L 178.298162 13.430769 
L 178.524037 13.430769 
L 178.948074 13.430769 
L 179.303243 13.430769 
L 180.207105 13.430769 
L 180.285361 13.430769 
L 181.125014 13.430769 
L 181.570866 13.430769 
L 182.001512 13.430769 
L 182.344841 13.430769 
L 182.754097 13.430769 
L 183.264036 13.430769 
L 183.886651 13.430769 
L 184.207989 13.430769 
L 184.640745 13.430769 
L 185.004227 13.430769 
L 185.553314 13.430769 
L 186.09723 13.430769 
L 186.343236 13.430769 
L 186.841844 13.430769 
L 187.377459 13.430769 
L 188.140706 13.430769 
L 188.305001 13.430769 
L 189.122255 13.430769 
L 189.317004 13.430769 
L 190.074872 13.430769 
L 190.364954 13.430769 
L 190.774131 13.430769 
L 191.063787 13.430769 
L 191.784025 13.430769 
L 192.096254 13.430769 
L 192.769902 13.430769 
L 193.018562 13.430769 
L 193.825414 13.430769 
L 194.027737 13.430769 
L 194.785692 13.430769 
L 195.047504 13.430769 
L 195.320802 13.430769 
L 195.834015 13.430769 
L 196.411861 13.430769 
L 196.788801 13.430769 
L 197.185555 13.430769 
L 198.019062 13.430769 
L 198.298858 13.430769 
L 198.652713 13.430769 
L 199.37813 13.430769 
L 199.657505 13.430769 
L 200.196415 13.430769 
L 200.496057 13.430769 
L 201.314103 13.430769 
L 201.808644 13.430769 
L 202.127989 13.430769 
L 202.650232 13.430769 
L 203.145713 13.430769 
L 203.642608 13.430769 
L 204.177757 13.430769 
L 204.514184 13.430769 
L 204.914451 13.430769 
L 205.225471 13.430769 
L 205.669726 13.430769 
L 206.20454 13.430769 
L 206.93397 13.430769 
L 207.114422 13.430769 
L 207.766257 13.430769 
L 208.169301 13.430769 
L 208.645302 13.430769 
L 209.350773 13.430769 
L 209.422926 13.430769 
L 210.270303 13.430769 
L 210.650758 13.430769 
L 210.831984 13.430769 
L 211.31546 13.430769 
L 211.948633 13.430769 
L 212.259155 13.430769 
L 213.040681 13.430769 
L 213.398232 13.430769 
L 213.766714 13.430769 
L 214.335402 13.430769 
L 214.69098 13.430769 
L 215.381037 13.430769 
L 215.548947 13.430769 
L 216.389027 13.430769 
L 216.618502 13.430769 
L 217.035109 13.430769 
L 217.76605 13.430769 
L 218.009044 13.430769 
L 218.447002 13.430769 
L 219.202902 13.430769 
L 219.27252 13.430769 
L 220.043827 13.430769 
L 220.167822 13.430769 
L 220.787771 13.430769 
L 221.116447 13.430769 
L 221.681217 13.430769 
L 222.234153 13.430769 
L 222.542239 13.430769 
L 223.079151 13.430769 
L 223.771991 13.430769 
L 223.993236 13.430769 
L 224.815649 13.430769 
L 225.226413 13.430769 
L 225.522328 13.430769 
L 225.810363 13.430769 
L 226.392073 13.430769 
L 227.12539 13.430769 
L 227.248052 13.430769 
L 228.013917 13.430769 
L 228.346569 13.430769 
L 228.616792 13.430769 
L 229.481013 13.430769 
L 229.953912 13.430769 
L 230.443943 13.430769 
L 230.661008 13.430769 
L 231.155369 13.430769 
L 231.45448 13.430769 
L 232.252209 13.430769 
L 232.743584 13.430769 
L 233.259616 13.430769 
L 233.589791 13.430769 
L 233.883001 13.430769 
L 234.602862 13.430769 
L 234.868784 13.430769 
L 235.538246 13.430769 
L 235.942431 13.430769 
L 236.162748 13.430769 
L 236.989947 13.430769 
L 237.267559 13.430769 
L 237.748416 13.430769 
L 238.182344 13.430769 
L 238.641859 13.430769 
L 239.224102 13.430769 
L 239.672717 13.430769 
L 240.129536 13.430769 
L 240.7616 13.430769 
L 241.252234 13.430769 
L 241.456486 13.430769 
L 241.873169 13.430769 
L 242.667898 13.430769 
L 242.875164 13.430769 
L 243.576614 13.430769 
L 244.090367 13.430769 
L 244.379358 13.430769 
L 244.787076 13.430769 
L 245.092905 13.430769 
L 245.831525 13.430769 
L 246.076256 13.430769 
L 246.875618 13.430769 
L 247.27023 13.430769 
L 247.546006 13.430769 
L 248.085275 13.430769 
L 248.726543 13.430769 
L 248.868334 13.430769 
L 249.572737 13.430769 
L 250.162403 13.430769 
L 250.425424 13.430769 
L 250.815889 13.430769 
L 251.458882 13.430769 
L 251.984356 13.430769 
L 252.450209 13.430769 
L 252.654083 13.430769 
L 253.327805 13.430769 
L 253.563933 13.430769 
L 254.271431 13.430769 
L 254.554425 13.430769 
L 254.919508 13.430769 
L 255.513516 13.430769 
L 255.936661 13.430769 
L 256.526862 13.430769 
L 256.810076 13.430769 
L 257.442768 13.430769 
L 258.057887 13.430769 
L 258.223459 13.430769 
L 258.740931 13.430769 
L 259.158309 13.430769 
L 259.75773 13.430769 
L 260.093765 13.430769 
L 260.81414 13.430769 
L 261.376201 13.430769 
L 261.609023 13.430769 
L 262.301315 13.430769 
L 262.661538 13.430769 
z
" style="fill:#808080;opacity:0.5;"/>
   </g>
   <g id="patch_10">
    <path clip-path="url(#p3ef275361d)" d="M 13.430769 138.046154 
L 13.430769 324.969231 
L 13.872277 324.969231 
L 13.983853 324.969231 
L 14.499005 324.969231 
L 14.782722 324.969231 
L 15.125721 324.969231 
L 15.211568 324.969231 
L 15.668935 324.969231 
L 15.92105 324.969231 
L 16.159668 324.969231 
L 16.709262 324.969231 
L 16.789726 324.969231 
L 17.041884 324.969231 
L 17.581777 324.969231 
L 17.893817 324.969231 
L 18.171594 324.969231 
L 18.497886 324.969231 
L 18.804638 324.969231 
L 19.129671 324.969231 
L 19.347529 324.969231 
L 19.53688 324.969231 
L 19.93594 324.969231 
L 20.408041 324.969231 
L 20.545376 324.969231 
L 21.101726 324.969231 
L 21.362332 324.969231 
L 21.64239 324.969231 
L 21.956556 324.969231 
L 22.042724 324.969231 
L 22.420984 324.969231 
L 22.809869 324.969231 
L 23.124151 324.969231 
L 23.447323 324.969231 
L 23.762984 324.969231 
L 24.150367 324.969231 
L 24.389251 324.969231 
L 24.675937 324.969231 
L 24.906175 324.969231 
L 25.304211 324.969231 
L 25.593103 324.969231 
L 26.00818 324.969231 
L 26.30721 324.969231 
L 26.438252 324.969231 
L 26.910301 324.969231 
L 27.063376 324.969231 
L 27.463882 324.969231 
L 27.733324 324.969231 
L 28.172875 324.969231 
L 28.45455 324.969231 
L 28.730713 324.969231 
L 28.996996 324.969231 
L 29.539184 324.969231 
L 29.808981 324.969231 
L 30.022088 324.969231 
L 30.373959 324.969231 
L 30.648515 324.969231 
L 30.899859 324.969231 
L 31.208188 324.969231 
L 31.530888 324.969231 
L 31.844124 324.969231 
L 32.350408 324.969231 
L 32.631782 324.969231 
L 32.998372 324.969231 
L 33.116754 324.969231 
L 33.484966 324.969231 
L 33.645436 324.969231 
L 34.108797 324.969231 
L 34.426638 324.969231 
L 34.607793 324.969231 
L 35.134409 324.969231 
L 35.401375 324.969231 
L 35.769649 324.969231 
L 35.943724 324.969231 
L 36.390645 324.969231 
L 36.694746 324.969231 
L 37.008899 324.969231 
L 37.160807 324.969231 
L 37.4263 324.969231 
L 37.901869 324.969231 
L 38.153964 324.969231 
L 38.481939 324.969231 
L 38.861174 324.969231 
L 38.954341 324.969231 
L 39.407335 324.969231 
L 39.78345 324.969231 
L 40.116161 324.969231 
L 40.246527 324.969231 
L 40.751011 324.969231 
L 40.873493 324.969231 
L 41.336456 324.969231 
L 41.617803 324.969231 
L 41.927588 324.969231 
L 42.292844 324.969231 
L 42.615222 324.969231 
L 42.835785 324.969231 
L 43.048326 324.969231 
L 43.402099 324.969231 
L 43.882342 324.969231 
L 44.156279 324.969231 
L 44.41511 324.969231 
L 44.794102 324.969231 
L 45.175993 324.969231 
L 45.457156 324.969231 
L 45.779854 324.969231 
L 46.070964 324.969231 
L 46.182667 324.969231 
L 46.491042 324.969231 
L 47.067129 324.969231 
L 47.35927 324.969231 
L 47.466863 324.969231 
L 47.802399 324.969231 
L 48.144286 324.969231 
L 48.641114 324.969231 
L 48.745285 324.969231 
L 49.023606 324.969231 
L 49.339033 324.969231 
L 49.901105 324.969231 
L 50.031635 324.969231 
L 50.225381 324.969231 
L 50.656902 324.969231 
L 50.903146 324.969231 
L 51.162279 324.969231 
L 51.519875 324.969231 
L 51.856674 324.969231 
L 52.110496 324.969231 
L 52.477034 324.969231 
L 52.848028 324.969231 
L 53.061921 324.969231 
L 53.548627 324.969231 
L 53.972164 324.969231 
L 54.083014 324.969231 
L 54.542558 324.969231 
L 54.91536 324.969231 
L 55.086628 324.969231 
L 55.368408 324.969231 
L 55.576962 324.969231 
L 56.031635 324.969231 
L 56.302753 324.969231 
L 56.7367 324.969231 
L 56.940333 324.969231 
L 57.386135 324.969231 
L 57.551163 324.969231 
L 57.983642 324.969231 
L 58.333405 324.969231 
L 58.661944 324.969231 
L 58.84208 324.969231 
L 59.088831 324.969231 
L 59.312199 324.969231 
L 59.682991 324.969231 
L 60.169111 324.969231 
L 60.434093 324.969231 
L 60.594335 324.969231 
L 60.866809 324.969231 
L 61.348361 324.969231 
L 61.736459 324.969231 
L 62.047369 324.969231 
L 62.263049 324.969231 
L 62.503318 324.969231 
L 62.760887 324.969231 
L 63.299565 324.969231 
L 63.591967 324.969231 
L 63.774326 324.969231 
L 64.227221 324.969231 
L 64.335003 324.969231 
L 64.710391 324.969231 
L 65.134111 324.969231 
L 65.377661 324.969231 
L 65.685274 324.969231 
L 65.894563 324.969231 
L 66.321068 324.969231 
L 66.700364 324.969231 
L 66.884898 324.969231 
L 67.427872 324.969231 
L 67.702452 324.969231 
L 67.863665 324.969231 
L 68.264133 324.969231 
L 68.405434 324.969231 
L 68.996333 324.969231 
L 69.14644 324.969231 
L 69.416488 324.969231 
L 69.840976 324.969231 
L 70.144892 324.969231 
L 70.358738 324.969231 
L 70.779619 324.969231 
L 70.992238 324.969231 
L 71.357679 324.969231 
L 71.734894 324.969231 
L 71.933757 324.969231 
L 72.201675 324.969231 
L 72.490705 324.969231 
L 73.042742 324.969231 
L 73.246087 324.969231 
L 73.682644 324.969231 
L 73.802251 324.969231 
L 74.021562 324.969231 
L 74.399494 324.969231 
L 74.702637 324.969231 
L 74.993568 324.969231 
L 75.38407 324.969231 
L 75.738462 324.969231 
L 75.738462 138.046154 
z
" style="fill:#808080;opacity:0.5;"/>
   </g>
   <g id="patch_11">
    <path clip-path="url(#p3ef275361d)" d="M 231.507692 200.353846 
L 231.497667 201.471504 
L 231.487642 201.934389 
L 231.477618 202.28953 
L 231.467593 202.588891 
L 231.457568 202.852602 
L 231.447543 203.090986 
L 231.437518 203.310176 
L 231.427493 203.514169 
L 231.407443 203.88691 
L 231.387393 204.223812 
L 231.367343 204.53355 
L 231.347294 204.821778 
L 231.327244 205.092422 
L 231.307194 205.348341 
L 231.267094 205.824159 
L 231.226995 206.261507 
L 231.186895 206.668383 
L 231.153091 206.991848 
L 231.119287 207.300102 
L 231.051678 207.878368 
L 230.98407 208.414692 
L 230.916461 208.91696 
L 230.848853 209.39085 
L 230.781245 209.840618 
L 230.713636 210.269545 
L 230.646028 210.680229 
L 230.578419 211.074767 
L 230.510811 211.454881 
L 230.375594 212.177348 
L 230.240377 212.85668 
L 230.105161 213.499565 
L 229.974346 214.091655 
L 229.843532 214.658063 
L 229.712717 215.201728 
L 229.581902 215.725065 
L 229.406763 216.397357 
L 229.231623 217.04075 
L 229.056483 217.658467 
L 228.881344 218.253168 
L 228.695124 218.862727 
L 228.508905 219.451026 
L 228.298715 220.091891 
L 228.088525 220.710422 
L 227.878334 221.308597 
L 227.668144 221.888113 
L 227.367002 222.688761 
L 227.065859 223.457761 
L 226.804916 224.100891 
L 226.543973 224.724263 
L 226.262084 225.377177 
L 225.980195 226.010386 
L 225.523593 226.997822 
L 225.066991 227.942392 
L 224.813545 228.449791 
L 224.314865 229.415852 
L 223.816184 230.342526 
L 223.624489 230.689033 
L 223.112403 231.590064 
L 222.600317 232.457657 
L 222.106904 233.264452 
L 221.734601 233.855551 
L 221.324694 234.489821 
L 220.914787 235.107684 
L 220.437168 235.808058 
L 219.984787 236.45307 
L 219.532405 237.081186 
L 218.893715 237.940855 
L 218.583021 238.348133 
L 218.029014 239.05754 
L 217.373624 239.870304 
L 216.901623 240.438802 
L 216.429622 240.993868 
L 216.099109 241.374842 
L 215.61656 241.920076 
L 215.134011 242.452719 
L 214.620121 243.006644 
L 214.275916 243.370242 
L 213.61225 244.055111 
L 213.045033 244.62417 
L 212.477817 245.178829 
L 212.294222 245.355363 
L 211.260295 246.323185 
L 210.82162 246.720744 
L 210.261407 247.217578 
L 209.773136 247.640939 
L 209.072669 248.233057 
L 208.182435 248.960618 
L 207.93884 249.154982 
L 207.322833 249.637699 
L 206.618244 250.174761 
L 205.609584 250.916587 
L 205.48786 251.004016 
L 204.816902 251.478056 
L 203.949755 252.071378 
L 203.115187 252.622466 
L 202.617211 252.942234 
L 202.160146 253.229902 
L 201.177189 253.830083 
L 201.002922 253.933904 
L 200.505727 254.225917 
L 199.851646 254.600737 
L 199.039636 255.051603 
L 198.100335 255.553657 
L 197.651398 255.786386 
L 196.817085 256.206735 
L 196.716493 256.256361 
L 196.043351 256.582691 
L 194.934401 257.098794 
L 194.794962 257.161825 
L 193.904534 257.554672 
L 193.419525 257.761713 
L 192.986658 257.942416 
L 192.153466 258.279548 
L 191.302586 258.609526 
L 191.077606 258.694388 
L 189.976828 259.095415 
L 189.443674 259.281278 
L 188.655365 259.546221 
L 188.193813 259.695936 
L 187.97531 259.76543 
L 187.177802 260.011596 
L 186.343047 260.256805 
L 185.502155 260.491091 
L 185.439219 260.508117 
L 184.55611 260.739593 
L 183.736791 260.942048 
L 183.456127 261.008701 
L 182.73996 261.172577 
L 181.924291 261.348444 
L 181.426215 261.450231 
L 180.881822 261.556653 
L 180.462106 261.635275 
L 179.51011 261.802607 
L 178.875335 261.905746 
L 178.321616 261.990237 
L 177.526268 262.102707 
L 176.726922 262.205232 
L 176.454391 262.237789 
L 175.942347 262.295668 
L 175.178785 262.374026 
L 174.653218 262.422445 
L 174.135564 262.465751 
L 173.187895 262.533788 
L 172.764945 262.55947 
L 171.991726 262.598965 
L 171.634907 262.613944 
L 170.617864 262.645404 
L 170.310225 262.651646 
L 169.40153 262.661213 
L 168.891934 262.660777 
L 168.000379 262.649989 
L 167.371276 262.634696 
L 167.01947 262.623372 
L 166.204488 262.58949 
L 165.766662 262.566873 
L 164.941754 262.515859 
L 164.515361 262.48518 
L 164.041746 262.447654 
L 163.399895 262.390991 
L 162.919107 262.344159 
L 161.874666 262.229431 
L 161.256166 262.15307 
L 160.46375 262.046037 
L 160.048358 261.985786 
L 159.211768 261.855747 
L 159.137497 261.843638 
L 157.996642 261.646042 
L 157.810405 261.611708 
L 156.738318 261.402638 
L 156.183546 261.286764 
L 155.435708 261.1222 
L 155.101488 261.04553 
L 154.195831 260.828001 
L 153.724849 260.709196 
L 153.303099 260.599485 
L 152.315652 260.330236 
L 151.83999 260.194289 
L 151.085951 259.970369 
L 150.601036 259.820871 
L 150.385163 259.752924 
L 149.312366 259.40239 
L 149.022194 259.303865 
L 148.192678 259.01338 
L 147.656097 258.81844 
L 146.892474 258.531357 
L 146.251822 258.281643 
L 145.436147 257.951831 
L 144.869886 257.714931 
L 144.530104 257.56962 
L 143.772393 257.236931 
L 143.0457 256.906486 
L 142.439181 256.622017 
L 142.076662 256.448169 
L 141.265413 256.048616 
L 140.953885 255.891271 
L 139.889495 255.33696 
L 139.581222 255.171512 
L 138.590656 254.624617 
L 138.352473 254.489588 
L 137.784827 254.162168 
L 136.640586 253.477599 
L 136.114227 253.151385 
L 135.443299 252.724961 
L 135.29916 252.631773 
L 134.724825 252.254818 
L 134.10272 251.836168 
L 133.201043 251.209756 
L 132.318261 250.573223 
L 132.17355 250.466624 
L 131.260525 249.778989 
L 130.454285 249.149523 
L 130.215803 248.959205 
L 129.135852 248.072946 
L 129.052604 248.002929 
L 128.009058 247.103764 
L 127.344909 246.510101 
L 127.224679 246.400789 
L 126.64747 245.867918 
L 126.070261 245.321325 
L 125.895082 245.152647 
L 125.286708 244.556463 
L 124.532391 243.794072 
L 123.761044 242.986578 
L 123.396473 242.594649 
L 122.766757 241.901439 
L 122.055238 241.09228 
L 121.271349 240.167072 
L 120.733064 239.510003 
L 120.264883 238.923302 
L 119.796703 238.321764 
L 119.266139 237.621232 
L 118.718905 236.876545 
L 118.399552 236.431027 
L 117.642283 235.340277 
L 117.214734 234.701781 
L 116.642147 233.819061 
L 116.06956 232.902347 
L 115.866207 232.568051 
L 115.228959 231.488638 
L 114.720497 230.590121 
L 114.212036 229.655251 
L 113.851386 228.968169 
L 113.490736 228.259516 
L 112.980297 227.216338 
L 112.707223 226.6372 
L 112.449376 226.075728 
L 112.191529 225.49908 
L 111.933682 224.906185 
L 111.675835 224.295838 
L 111.443845 223.730652 
L 111.211854 223.149097 
L 110.935024 222.431913 
L 110.658193 221.687045 
L 110.417128 221.013529 
L 110.176063 220.314392 
L 110.014211 219.829238 
L 109.852359 219.330305 
L 109.690506 218.816476 
L 109.528654 218.28647 
L 109.286626 217.460456 
L 109.044597 216.588871 
L 108.923583 216.133645 
L 108.802568 215.663934 
L 108.681554 215.178361 
L 108.56054 214.675313 
L 108.452664 214.210601 
L 108.344788 213.728884 
L 108.236912 213.228253 
L 108.129035 212.706409 
L 108.04407 212.27864 
L 107.959104 211.834316 
L 107.874139 211.371434 
L 107.789173 210.887546 
L 107.704207 210.379613 
L 107.619242 209.843774 
L 107.534276 209.275002 
L 107.44931 208.666539 
L 107.379685 208.13184 
L 107.31006 207.556889 
L 107.275247 207.251201 
L 107.240434 206.931137 
L 107.205622 206.594486 
L 107.170809 206.238402 
L 107.135996 205.859115 
L 107.101184 205.451448 
L 107.066371 205.007949 
L 107.048965 204.769425 
L 107.031558 204.517185 
L 107.014152 204.248565 
L 106.996746 203.959907 
L 106.979339 203.645945 
L 106.961933 203.298594 
L 106.944527 202.904251 
L 106.92712 202.436389 
L 106.909714 201.826529 
L 106.892308 200.353846 
L 106.892308 324.969231 
L 107.471686 324.969231 
L 108.068032 324.969231 
L 108.494417 324.969231 
L 109.405983 324.969231 
L 110.217215 324.969231 
L 110.899487 324.969231 
L 111.492545 324.969231 
L 112.179574 324.969231 
L 112.393674 324.969231 
L 113.245634 324.969231 
L 114.075796 324.969231 
L 114.708235 324.969231 
L 114.996449 324.969231 
L 115.871254 324.969231 
L 116.33306 324.969231 
L 116.635646 324.969231 
L 117.821129 324.969231 
L 118.184814 324.969231 
L 118.936189 324.969231 
L 119.518787 324.969231 
L 120.097796 324.969231 
L 120.513535 324.969231 
L 121.274325 324.969231 
L 122.056877 324.969231 
L 122.4088 324.969231 
L 123.115695 324.969231 
L 123.555364 324.969231 
L 124.524727 324.969231 
L 125.355995 324.969231 
L 125.851501 324.969231 
L 126.434542 324.969231 
L 127.233302 324.969231 
L 127.388194 324.969231 
L 127.998015 324.969231 
L 128.947342 324.969231 
L 129.499852 324.969231 
L 129.903424 324.969231 
L 130.743517 324.969231 
L 131.110786 324.969231 
L 132.199799 324.969231 
L 132.724391 324.969231 
L 133.231857 324.969231 
L 133.993227 324.969231 
L 134.701628 324.969231 
L 135.360849 324.969231 
L 135.765748 324.969231 
L 136.42729 324.969231 
L 136.9425 324.969231 
L 137.517884 324.969231 
L 137.994117 324.969231 
L 138.904196 324.969231 
L 139.715892 324.969231 
L 140.006064 324.969231 
L 140.671951 324.969231 
L 141.044091 324.969231 
L 142.123939 324.969231 
L 142.549124 324.969231 
L 143.004827 324.969231 
L 143.606172 324.969231 
L 144.290958 324.969231 
L 144.832303 324.969231 
L 145.907517 324.969231 
L 146.134555 324.969231 
L 147.057076 324.969231 
L 147.331158 324.969231 
L 148.407239 324.969231 
L 148.774941 324.969231 
L 149.31288 324.969231 
L 149.81485 324.969231 
L 150.740873 324.969231 
L 151.324704 324.969231 
L 152.2041 324.969231 
L 152.592301 324.969231 
L 153.287067 324.969231 
L 154.115277 324.969231 
L 154.369794 324.969231 
L 155.102568 324.969231 
L 155.453509 324.969231 
L 156.39985 324.969231 
L 157.126989 324.969231 
L 157.659327 324.969231 
L 158.053868 324.969231 
L 158.964127 324.969231 
L 159.492542 324.969231 
L 159.877376 324.969231 
L 160.516178 324.969231 
L 161.161366 324.969231 
L 161.773525 324.969231 
L 162.430193 324.969231 
L 162.997428 324.969231 
L 163.746104 324.969231 
L 164.401138 324.969231 
L 165.066154 324.969231 
L 165.462259 324.969231 
L 166.640682 324.969231 
L 167.065177 324.969231 
L 167.339088 324.969231 
L 168.449584 324.969231 
L 168.788571 324.969231 
L 169.734874 324.969231 
L 169.946721 324.969231 
L 170.663067 324.969231 
L 171.288587 324.969231 
L 172.061529 324.969231 
L 172.557949 324.969231 
L 173.315003 324.969231 
L 173.648512 324.969231 
L 174.561186 324.969231 
L 175.004867 324.969231 
L 175.706736 324.969231 
L 176.337377 324.969231 
L 176.723697 324.969231 
L 177.543105 324.969231 
L 178.07392 324.969231 
L 178.686713 324.969231 
L 179.25283 324.969231 
L 180.27088 324.969231 
L 180.580205 324.969231 
L 181.321479 324.969231 
L 182.228543 324.969231 
L 182.673522 324.969231 
L 183.120789 324.969231 
L 183.872701 324.969231 
L 184.804475 324.969231 
L 185.056938 324.969231 
L 185.707548 324.969231 
L 186.523965 324.969231 
L 186.903722 324.969231 
L 187.56308 324.969231 
L 188.291134 324.969231 
L 188.876326 324.969231 
L 189.629791 324.969231 
L 190.007009 324.969231 
L 190.911717 324.969231 
L 191.592894 324.969231 
L 191.948897 324.969231 
L 192.770658 324.969231 
L 193.099344 324.969231 
L 193.911151 324.969231 
L 194.603405 324.969231 
L 195.176724 324.969231 
L 195.802884 324.969231 
L 196.262872 324.969231 
L 197.031197 324.969231 
L 197.460671 324.969231 
L 198.030291 324.969231 
L 199.037174 324.969231 
L 199.678428 324.969231 
L 200.200689 324.969231 
L 200.733219 324.969231 
L 201.592157 324.969231 
L 202.12966 324.969231 
L 202.612623 324.969231 
L 203.552716 324.969231 
L 203.945623 324.969231 
L 204.784276 324.969231 
L 205.26026 324.969231 
L 205.993203 324.969231 
L 206.205801 324.969231 
L 207.129576 324.969231 
L 207.787951 324.969231 
L 208.357489 324.969231 
L 209.009915 324.969231 
L 209.692983 324.969231 
L 210.27388 324.969231 
L 210.983999 324.969231 
L 211.490596 324.969231 
L 211.88264 324.969231 
L 212.735547 324.969231 
L 213.200585 324.969231 
L 214.160406 324.969231 
L 214.400212 324.969231 
L 215.047539 324.969231 
L 215.646575 324.969231 
L 216.194726 324.969231 
L 217.186717 324.969231 
L 217.431795 324.969231 
L 218.204953 324.969231 
L 219.276276 324.969231 
L 219.798779 324.969231 
L 220.523411 324.969231 
L 220.611751 324.969231 
L 221.384182 324.969231 
L 221.870723 324.969231 
L 222.521621 324.969231 
L 223.254333 324.969231 
L 223.904017 324.969231 
L 224.643833 324.969231 
L 225.456347 324.969231 
L 226.083727 324.969231 
L 226.530557 324.969231 
L 226.948741 324.969231 
L 227.44751 324.969231 
L 228.403629 324.969231 
L 228.944755 324.969231 
L 229.878193 324.969231 
L 230.451323 324.969231 
L 230.625178 324.969231 
L 231.507692 324.969231 
z
" style="fill:#808080;opacity:0.5;"/>
   </g>
   <g id="patch_12">
    <path clip-path="url(#p3ef275361d)" d="M 262.661538 138.046154 
L 262.661538 324.969231 
L 262.901041 324.969231 
L 263.236405 324.969231 
L 263.654414 324.969231 
L 263.90315 324.969231 
L 264.29796 324.969231 
L 264.476357 324.969231 
L 265.000719 324.969231 
L 265.25475 324.969231 
L 265.372113 324.969231 
L 265.687588 324.969231 
L 266.1304 324.969231 
L 266.404914 324.969231 
L 266.774067 324.969231 
L 266.91757 324.969231 
L 267.409246 324.969231 
L 267.820734 324.969231 
L 267.915216 324.969231 
L 268.393025 324.969231 
L 268.651162 324.969231 
L 268.842213 324.969231 
L 269.128434 324.969231 
L 269.453962 324.969231 
L 269.959869 324.969231 
L 270.026818 324.969231 
L 270.545939 324.969231 
L 270.773504 324.969231 
L 270.994962 324.969231 
L 271.344895 324.969231 
L 271.734743 324.969231 
L 272.084746 324.969231 
L 272.226034 324.969231 
L 272.59649 324.969231 
L 272.942943 324.969231 
L 273.198699 324.969231 
L 273.591946 324.969231 
L 273.857184 324.969231 
L 274.20119 324.969231 
L 274.69311 324.969231 
L 274.941708 324.969231 
L 275.213678 324.969231 
L 275.373517 324.969231 
L 275.754237 324.969231 
L 276.072813 324.969231 
L 276.594208 324.969231 
L 276.66568 324.969231 
L 277.15008 324.969231 
L 277.279492 324.969231 
L 277.702566 324.969231 
L 278.115325 324.969231 
L 278.348163 324.969231 
L 278.734777 324.969231 
L 278.930055 324.969231 
L 279.166134 324.969231 
L 279.533339 324.969231 
L 279.773071 324.969231 
L 280.095352 324.969231 
L 280.46625 324.969231 
L 280.887652 324.969231 
L 281.078615 324.969231 
L 281.45083 324.969231 
L 281.90195 324.969231 
L 282.129197 324.969231 
L 282.476708 324.969231 
L 282.576757 324.969231 
L 283.148336 324.969231 
L 283.277775 324.969231 
L 283.55071 324.969231 
L 283.92702 324.969231 
L 284.368408 324.969231 
L 284.655064 324.969231 
L 284.92118 324.969231 
L 285.168034 324.969231 
L 285.448092 324.969231 
L 285.835187 324.969231 
L 286.157251 324.969231 
L 286.391699 324.969231 
L 286.849258 324.969231 
L 287.206628 324.969231 
L 287.29694 324.969231 
L 287.598379 324.969231 
L 288.090255 324.969231 
L 288.190213 324.969231 
L 288.765382 324.969231 
L 289.102688 324.969231 
L 289.253155 324.969231 
L 289.523305 324.969231 
L 289.872318 324.969231 
L 290.129256 324.969231 
L 290.393071 324.969231 
L 290.703834 324.969231 
L 291.243318 324.969231 
L 291.481946 324.969231 
L 291.76781 324.969231 
L 292.189632 324.969231 
L 292.318842 324.969231 
L 292.747031 324.969231 
L 293.069956 324.969231 
L 293.278102 324.969231 
L 293.809675 324.969231 
L 293.884309 324.969231 
L 294.326767 324.969231 
L 294.511339 324.969231 
L 294.988116 324.969231 
L 295.083194 324.969231 
L 295.564812 324.969231 
L 295.750206 324.969231 
L 296.283169 324.969231 
L 296.553461 324.969231 
L 296.649404 324.969231 
L 297.250247 324.969231 
L 297.38342 324.969231 
L 297.733254 324.969231 
L 298.048702 324.969231 
L 298.21875 324.969231 
L 298.578784 324.969231 
L 298.913886 324.969231 
L 299.353803 324.969231 
L 299.52567 324.969231 
L 299.97068 324.969231 
L 300.305525 324.969231 
L 300.548654 324.969231 
L 300.81243 324.969231 
L 301.166757 324.969231 
L 301.391985 324.969231 
L 301.893214 324.969231 
L 302.212935 324.969231 
L 302.420193 324.969231 
L 302.862063 324.969231 
L 303.000721 324.969231 
L 303.351808 324.969231 
L 303.796198 324.969231 
L 304.007712 324.969231 
L 304.274954 324.969231 
L 304.724683 324.969231 
L 305.002444 324.969231 
L 305.131644 324.969231 
L 305.641419 324.969231 
L 305.8478 324.969231 
L 306.162054 324.969231 
L 306.401022 324.969231 
L 306.810279 324.969231 
L 307.278374 324.969231 
L 307.449228 324.969231 
L 307.722448 324.969231 
L 308.069623 324.969231 
L 308.269954 324.969231 
L 308.774258 324.969231 
L 308.867488 324.969231 
L 309.189818 324.969231 
L 309.632454 324.969231 
L 309.961321 324.969231 
L 310.18899 324.969231 
L 310.446194 324.969231 
L 310.973972 324.969231 
L 311.227098 324.969231 
L 311.525239 324.969231 
L 311.747117 324.969231 
L 312.054935 324.969231 
L 312.361769 324.969231 
L 312.713218 324.969231 
L 313.025098 324.969231 
L 313.257156 324.969231 
L 313.724767 324.969231 
L 314.019242 324.969231 
L 314.276046 324.969231 
L 314.717819 324.969231 
L 314.947033 324.969231 
L 315.385827 324.969231 
L 315.59065 324.969231 
L 315.821807 324.969231 
L 316.195707 324.969231 
L 316.462031 324.969231 
L 316.870486 324.969231 
L 317.031266 324.969231 
L 317.571389 324.969231 
L 317.669129 324.969231 
L 318.12686 324.969231 
L 318.316711 324.969231 
L 318.755997 324.969231 
L 318.962498 324.969231 
L 319.279121 324.969231 
L 319.701989 324.969231 
L 319.805676 324.969231 
L 320.284482 324.969231 
L 320.649967 324.969231 
L 321.042329 324.969231 
L 321.161962 324.969231 
L 321.526729 324.969231 
L 321.781842 324.969231 
L 322.053261 324.969231 
L 322.542964 324.969231 
L 322.62144 324.969231 
L 323.243587 324.969231 
L 323.515332 324.969231 
L 323.600045 324.969231 
L 324.163072 324.969231 
L 324.353127 324.969231 
L 324.642217 324.969231 
L 324.969231 324.969231 
L 324.969231 138.046154 
z
" style="fill:#808080;opacity:0.5;"/>
   </g>
   <g id="matplotlib.axis_1"/>
   <g id="matplotlib.axis_2"/>
   <g id="line2d_1">
    <path clip-path="url(#p3ef275361d)" d="M 75.738462 324.969231 
L 106.892308 324.969231 
L 106.892308 324.969231 
" style="fill:none;stroke:#000000;stroke-linecap:square;"/>
   </g>
   <g id="line2d_2">
    <path clip-path="url(#p3ef275361d)" d="M 13.430769 13.430769 
L 75.738462 13.430769 
L 75.738462 13.430769 
" style="fill:none;stroke:#000000;stroke-linecap:square;"/>
   </g>
   <g id="line2d_3">
    <path clip-path="url(#p3ef275361d)" d="M 75.738462 13.430769 
L 169.2 13.430769 
L 169.2 13.430769 
" style="fill:none;stroke:#000000;stroke-linecap:square;"/>
   </g>
   <g id="line2d_4">
    <path clip-path="url(#p3ef275361d)" d="M 231.507692 324.969231 
L 262.661538 324.969231 
L 262.661538 324.969231 
" style="fill:none;stroke:#000000;stroke-linecap:square;"/>
   </g>
   <g id="line2d_5">
    <path clip-path="url(#p3ef275361d)" d="M 262.661538 13.430769 
L 324.969231 13.430769 
L 324.969231 13.430769 
" style="fill:none;stroke:#000000;stroke-linecap:square;"/>
   </g>
   <g id="line2d_6">
    <path clip-path="url(#p3ef275361d)" d="M 169.2 13.430769 
L 262.661538 13.430769 
L 262.661538 13.430769 
" style="fill:none;stroke:#000000;stroke-linecap:square;"/>
   </g>
   <g id="line2d_7">
    <path clip-path="url(#p3ef275361d)" d="M 13.430769 324.969231 
L 75.738462 324.969231 
L 75.738462 324.969231 
" style="fill:none;stroke:#000000;stroke-linecap:square;"/>
   </g>
   <g id="line2d_8">
    <path clip-path="url(#p3ef275361d)" d="M 106.892308 324.969231 
L 231.507692 324.969231 
L 231.507692 324.969231 
" style="fill:none;stroke:#000000;stroke-linecap:square;"/>
   </g>
   <g id="line2d_9">
    <path clip-path="url(#p3ef275361d)" d="M 262.661538 324.969231 
L 324.969231 324.969231 
L 324.969231 324.969231 
" style="fill:none;stroke:#000000;stroke-linecap:square;"/>
   </g>
   <g id="text_1">
    <!-- $\Omega$ -->
    <g transform="translate(16.011538 22.420913)scale(0.1 -0.1)">
     <defs>
      <path d="M 7.71875 0 
L 4.390625 16.609375 
L 7.328125 16.609375 
Q 7.859375 13.71875 8.296875 11.5 
Q 8.734375 9.28125 9.4375 8.375 
Q 10.15625 7.46875 11.71875 7.171875 
Q 13.28125 6.890625 16.890625 6.890625 
L 23 6.890625 
Q 21.53125 12.546875 15.6875 21.65625 
Q 9.859375 30.765625 7.734375 34.890625 
Q 5.609375 39.015625 5.609375 45.515625 
Q 5.609375 53.078125 10.09375 58.765625 
Q 14.59375 64.453125 21.703125 67.484375 
Q 28.8125 70.515625 36.078125 70.515625 
Q 43.3125 70.515625 50.40625 67.484375 
Q 57.515625 64.453125 62 58.71875 
Q 66.5 52.984375 66.5 45.515625 
Q 66.5 40.4375 64.640625 35.9375 
Q 62.796875 31.453125 59.90625 26.953125 
Q 57.03125 22.46875 53.6875 16.9375 
Q 50.34375 11.421875 49.125 6.890625 
L 55.171875 6.890625 
Q 58.84375 6.890625 60.453125 7.171875 
Q 62.0625 7.46875 62.734375 8.375 
Q 63.421875 9.28125 63.84375 11.5 
Q 64.265625 13.71875 64.796875 16.609375 
L 67.671875 16.609375 
L 64.40625 0 
L 46.6875 0 
Q 45.703125 0 45.703125 1.3125 
Q 45.703125 6.390625 46.9375 11.265625 
Q 48.1875 16.15625 50.625 23.09375 
Q 53.078125 30.03125 54.4375 35.328125 
Q 55.8125 40.625 55.8125 45.515625 
Q 55.8125 51.515625 53.46875 56.640625 
Q 51.125 61.765625 46.625 64.84375 
Q 42.140625 67.921875 36.078125 67.921875 
Q 26.953125 67.921875 21.625 61.40625 
Q 16.3125 54.890625 16.3125 45.515625 
Q 16.359375 40.375 17.53125 35.828125 
Q 18.703125 31.296875 21.3125 23.71875 
Q 23.921875 16.15625 25.171875 11.265625 
Q 26.421875 6.390625 26.421875 1.3125 
Q 26.421875 0 25.390625 0 
z
" id="Cmr10-173"/>
     </defs>
     <use transform="translate(0 0.484375)" xlink:href="#Cmr10-173"/>
    </g>
   </g>
   <g id="text_2">
    <!-- $A$ -->
    <g style="fill:#0000ff;" transform="translate(103.142308 78.497837)scale(0.1 -0.1)">
     <defs>
      <path d="M 4.5 0 
Q 3.515625 0 3.515625 1.3125 
Q 3.90625 3.515625 4.78125 3.515625 
Q 8.84375 3.515625 11.796875 5.125 
Q 14.75 6.734375 16.890625 10.109375 
Q 17.09375 10.296875 17.09375 10.296875 
L 52.78125 70.515625 
Q 53.5625 71.578125 54.6875 71.578125 
L 56 71.578125 
Q 56.296875 71.578125 56.59375 71.453125 
Q 56.890625 71.34375 57.109375 71.0625 
Q 57.328125 70.796875 57.328125 70.515625 
L 63.375 5.90625 
Q 63.375 5.46875 63.8125 4.59375 
Q 64.796875 3.515625 71.296875 3.515625 
Q 72.3125 3.515625 72.3125 2.203125 
Q 71.96875 0.875 71.75 0.4375 
Q 71.53125 0 70.609375 0 
L 45.609375 0 
Q 44.671875 0 44.671875 1.3125 
Q 45.21875 3.515625 46 3.515625 
Q 53.90625 3.515625 54.390625 6.203125 
L 52.875 22.703125 
L 28.21875 22.703125 
L 20.21875 9.28125 
Q 19.484375 8.203125 19.484375 6.78125 
Q 19.484375 5.03125 21.171875 4.265625 
Q 22.859375 3.515625 24.90625 3.515625 
Q 25.875 3.515625 25.875 2.203125 
Q 25.53125 0.78125 25.328125 0.390625 
Q 25.140625 0 24.21875 0 
z
M 30.171875 26.21875 
L 52.484375 26.21875 
L 49.515625 58.59375 
z
" id="Cmmi10-65"/>
     </defs>
     <use transform="translate(0 0.421875)" xlink:href="#Cmmi10-65"/>
    </g>
   </g>
   <g id="text_3">
    <!-- $B$ -->
    <g style="fill:#ff0000;" transform="translate(227.707692 78.497837)scale(0.1 -0.1)">
     <defs>
      <path d="M 4.984375 0 
Q 4 0 4 1.3125 
Q 4.046875 1.5625 4.1875 2.140625 
Q 4.34375 2.734375 4.578125 3.125 
Q 4.828125 3.515625 5.328125 3.515625 
Q 8.15625 3.515625 10.25 3.65625 
Q 12.359375 3.8125 13.8125 4.203125 
Q 14.984375 4.640625 15.71875 6.890625 
L 29.390625 61.8125 
Q 29.59375 62.796875 29.59375 63.1875 
Q 29.59375 64.265625 28.421875 64.40625 
Q 26.515625 64.796875 21.1875 64.796875 
Q 20.21875 64.796875 20.21875 66.109375 
Q 20.265625 66.359375 20.40625 66.96875 
Q 20.5625 67.578125 20.828125 67.9375 
Q 21.09375 68.3125 21.484375 68.3125 
L 57.328125 68.3125 
Q 60.59375 68.3125 63.796875 67.5 
Q 67 66.703125 69.703125 64.9375 
Q 72.40625 63.1875 74 60.5625 
Q 75.59375 57.953125 75.59375 54.5 
Q 75.59375 50.734375 73.65625 47.5 
Q 71.734375 44.28125 68.671875 41.890625 
Q 65.625 39.5 62.078125 37.953125 
Q 58.546875 36.421875 54.6875 35.6875 
Q 57.421875 35.6875 60.21875 34.609375 
Q 63.03125 33.546875 65.234375 31.6875 
Q 67.4375 29.828125 68.78125 27.234375 
Q 70.125 24.65625 70.125 21.6875 
Q 70.125 15.671875 65.921875 10.6875 
Q 61.71875 5.71875 55.34375 2.859375 
Q 48.96875 0 43.015625 0 
z
M 23.390625 4.296875 
Q 23.390625 3.515625 26.8125 3.515625 
L 41.109375 3.515625 
Q 46 3.515625 50.484375 6.21875 
Q 54.984375 8.9375 57.6875 13.421875 
Q 60.40625 17.921875 60.40625 22.796875 
Q 60.40625 25.78125 59.15625 28.4375 
Q 57.90625 31.109375 55.5625 32.640625 
Q 53.21875 34.1875 50.203125 34.1875 
L 30.71875 34.1875 
L 23.78125 6.5 
Q 23.390625 5.125 23.390625 4.296875 
z
M 31.390625 36.8125 
L 46.578125 36.8125 
Q 51.375 36.8125 55.890625 39.25 
Q 60.40625 41.703125 63.25 45.890625 
Q 66.109375 50.09375 66.109375 54.78125 
Q 66.109375 59.125 63.390625 61.953125 
Q 60.6875 64.796875 56.390625 64.796875 
L 42.671875 64.796875 
Q 39.984375 64.796875 39.0625 64.296875 
Q 38.140625 63.8125 37.5 61.375 
z
" id="Cmmi10-66"/>
     </defs>
     <use transform="translate(0 0.6875)" xlink:href="#Cmmi10-66"/>
    </g>
   </g>
   <g id="text_4">
    <!-- $C$ -->
    <g style="fill:#228b22;" transform="translate(150.023077 271.651683)scale(0.1 -0.1)">
     <defs>
      <path d="M 14.59375 21.578125 
Q 14.59375 15.578125 16.90625 11.015625 
Q 19.234375 6.453125 23.65625 3.875 
Q 28.078125 1.3125 34.078125 1.3125 
Q 40.375 1.3125 46.203125 4.53125 
Q 52.046875 7.765625 56.171875 13.15625 
Q 60.296875 18.5625 61.8125 24.609375 
Q 62.015625 25.203125 62.59375 25.203125 
L 63.8125 25.203125 
Q 64.203125 25.203125 64.453125 24.921875 
Q 64.703125 24.65625 64.703125 24.3125 
Q 64.703125 24.21875 64.59375 24.03125 
Q 62.890625 17.09375 57.984375 11.015625 
Q 53.078125 4.9375 46.234375 1.359375 
Q 39.40625 -2.203125 32.171875 -2.203125 
Q 24.359375 -2.203125 18.15625 1.3125 
Q 11.96875 4.828125 8.515625 11.078125 
Q 5.078125 17.328125 5.078125 25.203125 
Q 5.078125 33.59375 8.828125 41.8125 
Q 12.59375 50.046875 18.9375 56.46875 
Q 25.296875 62.890625 33.421875 66.703125 
Q 41.546875 70.515625 49.90625 70.515625 
Q 53.21875 70.515625 56.25 69.5 
Q 59.28125 68.5 61.859375 66.453125 
Q 64.453125 64.40625 66.109375 61.71875 
L 74.03125 70.3125 
Q 74.03125 70.515625 74.515625 70.515625 
L 75.09375 70.515625 
Q 75.484375 70.515625 75.734375 70.171875 
Q 75.984375 69.828125 75.984375 69.484375 
L 69.1875 42.484375 
Q 69.1875 41.796875 68.40625 41.796875 
L 66.609375 41.796875 
Q 65.828125 41.796875 65.828125 42.921875 
Q 66.21875 45.125 66.21875 48.1875 
Q 66.21875 53.078125 64.546875 57.390625 
Q 62.890625 61.71875 59.390625 64.359375 
Q 55.90625 67 50.875 67 
Q 42.71875 67 35.9375 62.890625 
Q 29.15625 58.796875 24.4375 52.125 
Q 19.734375 45.453125 17.15625 37.328125 
Q 14.59375 29.203125 14.59375 21.578125 
z
" id="Cmmi10-67"/>
     </defs>
     <use transform="translate(0 0.484375)" xlink:href="#Cmmi10-67"/>
    </g>
   </g>
   <g id="patch_13">
    <path clip-path="url(#p3ef275361d)" d="M 138.046154 200.353846 
C 154.570347 200.353846 170.419977 193.788715 182.104346 182.104346 
C 193.788715 170.419977 200.353846 154.570347 200.353846 138.046154 
C 200.353846 121.521961 193.788715 105.672331 182.104346 93.987962 
C 170.419977 82.303593 154.570347 75.738462 138.046154 75.738462 
C 121.521961 75.738462 105.672331 82.303593 93.987962 93.987962 
C 82.303593 105.672331 75.738462 121.521961 75.738462 138.046154 
C 75.738462 154.570347 82.303593 170.419977 93.987962 182.104346 
C 105.672331 193.788715 121.521961 200.353846 138.046154 200.353846 
z
" style="fill:none;stroke:#0000ff;stroke-linejoin:miter;"/>
   </g>
   <g id="patch_14">
    <path clip-path="url(#p3ef275361d)" d="M 200.353846 200.353846 
C 216.878039 200.353846 232.727669 193.788715 244.412038 182.104346 
C 256.096407 170.419977 262.661538 154.570347 262.661538 138.046154 
C 262.661538 121.521961 256.096407 105.672331 244.412038 93.987962 
C 232.727669 82.303593 216.878039 75.738462 200.353846 75.738462 
C 183.829653 75.738462 167.980023 82.303593 156.295654 93.987962 
C 144.611285 105.672331 138.046154 121.521961 138.046154 138.046154 
C 138.046154 154.570347 144.611285 170.419977 156.295654 182.104346 
C 167.980023 193.788715 183.829653 200.353846 200.353846 200.353846 
z
" style="fill:none;stroke:#ff0000;stroke-linejoin:miter;"/>
   </g>
   <g id="patch_15">
    <path clip-path="url(#p3ef275361d)" d="M 169.2 262.661538 
C 185.724193 262.661538 201.573823 256.096407 213.258192 244.412038 
C 224.942561 232.727669 231.507692 216.878039 231.507692 200.353846 
C 231.507692 183.829653 224.942561 167.980023 213.258192 156.295654 
C 201.573823 144.611285 185.724193 138.046154 169.2 138.046154 
C 152.675807 138.046154 136.826177 144.611285 125.141808 156.295654 
C 113.457439 167.980023 106.892308 183.829653 106.892308 200.353846 
C 106.892308 216.878039 113.457439 232.727669 125.141808 244.412038 
C 136.826177 256.096407 152.675807 262.661538 169.2 262.661538 
z
" style="fill:none;stroke:#228b22;stroke-linejoin:miter;"/>
   </g>
  </g>
 </g>
 <defs>
  <clipPath id="p3ef275361d">
   <rect height="324" width="324" x="7.2" y="7.2"/>
  </clipPath>
 </defs>
</svg>
