<?xml version="1.0" encoding="utf-8" standalone="no"?>
<!DOCTYPE svg PUBLIC "-//W3C//DTD SVG 1.1//EN"
  "http://www.w3.org/Graphics/SVG/1.1/DTD/svg11.dtd">
<svg xmlns:xlink="http://www.w3.org/1999/xlink" width="338.4pt" height="338.4pt" viewBox="0 0 338.4 338.4" xmlns="http://www.w3.org/2000/svg" version="1.1">
 <metadata>
  <rdf:RDF xmlns:dc="http://purl.org/dc/elements/1.1/" xmlns:cc="http://creativecommons.org/ns#" xmlns:rdf="http://www.w3.org/1999/02/22-rdf-syntax-ns#">
   <cc:Work>
    <dc:type rdf:resource="http://purl.org/dc/dcmitype/StillImage"/>
    <dc:date>2024-12-01T17:05:01.649823</dc:date>
    <dc:format>image/svg+xml</dc:format>
    <dc:creator>
     <cc:Agent>
      <dc:title>Matplotlib v3.6.3, https://matplotlib.org/</dc:title>
     </cc:Agent>
    </dc:creator>
   </cc:Work>
  </rdf:RDF>
 </metadata>
 <defs>
  <style type="text/css">*{stroke-linejoin: round; stroke-linecap: butt}</style>
 </defs>
 <g id="figure_1">
  <g id="patch_1">
   <path d="M -0 338.4 
L 338.4 338.4 
L 338.4 0 
L -0 0 
z
" style="fill: #ffffff"/>
  </g>
  <g id="axes_1">
   <g id="patch_2">
    <path d="M 7.2 331.2 
L 331.2 331.2 
L 331.2 7.2 
L 7.2 7.2 
z
" style="fill: #ffffff"/>
   </g>
   <g id="patch_3">
    <path d="M 13.430769 324.969231 
L 13.430769 13.430769 
L 324.969231 13.430769 
L 324.969231 324.969231 
L 13.430769 324.969231 
z
" clip-path="url(#p04573949fa)" style="fill: none; stroke: #000000; stroke-linejoin: miter"/>
   </g>
   <g id="patch_4">
    <path d="M 200.353846 138.046154 
L 200.346931 138.974411 
L 200.340016 139.358871 
L 200.333101 139.653853 
L 200.326186 139.902514 
L 200.319271 140.12157 
L 200.312356 140.319595 
L 200.305441 140.501683 
L 200.298527 140.671152 
L 200.291612 140.830307 
L 200.284697 140.980828 
L 200.277782 141.12398 
L 200.270867 141.26075 
L 200.263952 141.391918 
L 200.257037 141.518121 
L 200.250122 141.639882 
L 200.243207 141.757637 
L 200.236292 141.871757 
L 200.229377 141.982558 
L 200.215547 142.195257 
L 200.201717 142.397529 
L 200.187887 142.590764 
L 200.174057 142.776071 
L 200.160228 142.954348 
L 200.146398 143.126335 
L 200.132568 143.292651 
L 200.115054 143.495934 
L 200.097541 143.691849 
L 200.080028 143.881136 
L 200.062514 144.064422 
L 200.045001 144.242239 
L 200.027488 144.415046 
L 200.009974 144.583238 
L 199.992461 144.747165 
L 199.969426 144.956789 
L 199.946391 145.160164 
L 199.923356 145.357812 
L 199.900321 145.550185 
L 199.877286 145.737679 
L 199.854252 145.920643 
L 199.831217 146.099385 
L 199.808182 146.274181 
L 199.786306 146.436755 
L 199.764429 146.596183 
L 199.739427 146.774757 
L 199.714426 146.94968 
L 199.689424 147.121163 
L 199.664422 147.289398 
L 199.614418 147.616804 
L 199.564415 147.933121 
L 199.524459 148.178602 
L 199.484504 148.41812 
L 199.428504 148.744547 
L 199.372504 149.06102 
L 199.316504 149.368373 
L 199.260505 149.667331 
L 199.206117 149.950246 
L 199.15173 150.226348 
L 199.097342 150.496091 
L 199.042955 150.759879 
L 198.973722 151.087626 
L 198.904489 151.406976 
L 198.84882 151.658071 
L 198.793152 151.904393 
L 198.699975 152.306678 
L 198.606798 152.697329 
L 198.54829 152.937092 
L 198.475376 153.230277 
L 198.402462 153.517564 
L 198.329549 153.799275 
L 198.256635 154.075705 
L 198.213107 154.238322 
L 198.151847 154.464259 
L 198.090587 154.686902 
L 197.968068 155.122825 
L 197.925201 155.272536 
L 197.851159 155.527855 
L 197.777117 155.779189 
L 197.703075 156.026706 
L 197.629033 156.27056 
L 197.505877 156.668447 
L 197.442727 156.868897 
L 197.349305 157.161195 
L 197.255883 157.448641 
L 197.152423 157.761564 
L 197.048964 158.069064 
L 196.961806 158.324083 
L 196.866445 158.599059 
L 196.771083 158.869968 
L 196.671683 159.148189 
L 196.572283 159.422326 
L 196.482936 159.665383 
L 196.318881 160.103755 
L 196.15583 160.529792 
L 195.973605 160.995203 
L 195.801424 161.425147 
L 195.720807 161.623323 
L 195.594144 161.930821 
L 195.467481 162.233747 
L 195.300072 162.627394 
L 195.242153 162.761863 
L 195.077917 163.138513 
L 194.939566 163.450645 
L 194.801215 163.758244 
L 194.691082 163.999971 
L 194.539811 164.327616 
L 194.384996 164.657869 
L 194.267829 164.904519 
L 194.044522 165.36705 
L 193.903283 165.65466 
L 193.745611 165.971394 
L 193.645368 166.170449 
L 193.453344 166.546886 
L 193.240753 166.956442 
L 193.11565 167.194037 
L 193.001743 167.408233 
L 192.877878 167.638898 
L 192.623624 168.105234 
L 192.497158 168.33372 
L 192.384712 168.534998 
L 192.191954 168.876022 
L 192.029371 169.159829 
L 191.83568 169.493496 
L 191.786161 169.578044 
L 191.573792 169.937225 
L 191.455086 170.13563 
L 191.284977 170.41707 
L 191.125602 170.677745 
L 190.88695 171.062798 
L 190.728045 171.315763 
L 190.570992 171.563164 
L 190.448188 171.754838 
L 190.318192 171.956073 
L 190.23136 172.089549 
L 189.962851 172.497643 
L 189.841107 172.680405 
L 189.753824 172.810581 
L 189.582816 173.063592 
L 189.460558 173.242852 
L 189.313384 173.456882 
L 189.040015 173.849431 
L 188.942116 173.988462 
L 188.833648 174.141569 
L 188.538578 174.553189 
L 188.501867 174.60391 
L 188.3218 174.851153 
L 188.066673 175.197145 
L 187.995595 175.292655 
L 187.820229 175.526682 
L 187.70214 175.682992 
L 187.453168 176.009234 
L 187.426424 176.044014 
L 187.210313 176.323222 
L 186.978165 176.61955 
L 186.963866 176.637681 
L 186.679649 176.995245 
L 186.562107 177.141561 
L 186.371358 177.377098 
L 186.250792 177.524773 
L 186.085091 177.726237 
L 185.890975 177.960082 
L 185.870425 177.984701 
L 185.638115 178.261247 
L 185.485971 178.440612 
L 185.366407 178.58061 
L 185.155391 178.825662 
L 184.996601 179.00838 
L 184.829919 179.198649 
L 184.704901 179.34034 
L 184.479299 179.593856 
L 184.396758 179.685919 
L 184.299499 179.793927 
L 184.13105 179.979802 
L 183.93512 180.194123 
L 183.789966 180.351616 
L 183.56872 180.589596 
L 183.428675 180.738955 
L 183.221698 180.957909 
L 183.094982 181.090916 
L 182.925206 181.267899 
L 182.896225 181.29797 
L 182.614727 181.587982 
L 182.544858 181.659384 
L 182.422115 181.784267 
L 182.201459 182.007018 
L 182.091197 182.11749 
L 181.884884 182.32272 
L 181.647026 182.556967 
L 181.513278 182.687588 
L 181.366243 182.830285 
L 181.189811 183.000279 
L 181.160115 183.02876 
L 180.994469 183.186941 
L 180.773146 183.396486 
L 180.668926 183.494452 
L 180.480216 183.670696 
L 180.336885 183.803586 
L 180.19365 183.935555 
L 179.946658 184.161187 
L 179.891419 184.211317 
L 179.678116 184.403767 
L 179.516938 184.54801 
L 179.345659 184.700193 
L 179.145567 184.876558 
L 179.134072 184.886644 
L 178.890789 185.098936 
L 178.761046 185.211247 
L 178.61473 185.337158 
L 178.368389 185.547373 
L 178.261241 185.63812 
L 178.088998 185.783132 
L 177.892868 185.946967 
L 177.742506 186.071649 
L 177.657668 186.141647 
L 177.547635 186.23206 
L 177.339972 186.401551 
L 177.192603 186.520931 
L 176.963594 186.70498 
L 176.838266 186.804953 
L 176.7053 186.910445 
L 176.557443 187.02706 
L 176.442623 187.11712 
L 176.29699 187.230725 
L 176.049339 187.422327 
L 175.951503 187.497474 
L 175.784446 187.625079 
L 175.548061 187.804123 
L 175.474962 187.859132 
L 175.367551 187.939658 
L 175.124547 188.120512 
L 174.995398 188.215884 
L 174.87291 188.305865 
L 174.729126 188.410905 
L 174.594439 188.508727 
L 174.328176 188.700506 
L 174.1864 188.801756 
L 173.978984 188.948808 
L 173.958317 188.963391 
L 173.747911 189.111142 
L 173.650583 189.179051 
L 173.432995 189.329875 
L 173.26338 189.446499 
L 173.158892 189.517934 
L 172.988481 189.633771 
L 172.811964 189.752894 
L 172.709356 189.821737 
L 172.424664 190.011205 
L 172.311959 190.085592 
L 172.220675 190.145584 
L 172.048557 190.258079 
L 171.792716 190.423802 
L 171.703197 190.481371 
L 171.50742 190.606521 
L 171.323932 190.722885 
L 171.283203 190.748593 
L 171.026345 190.90971 
L 170.888434 190.995499 
L 170.840753 191.025044 
L 170.582701 191.183915 
L 170.413423 191.287194 
L 170.250682 191.385791 
L 170.135716 191.455034 
L 169.959959 191.560241 
L 169.838361 191.632571 
L 169.650128 191.743801 
L 169.451742 191.86007 
L 169.307629 191.943915 
L 169.2 192.006198 
L 169.2 192.006198 
L 169.301085 192.064434 
L 169.531073 192.195994 
L 169.617376 192.245027 
L 169.818961 192.358853 
L 169.955107 192.435171 
L 170.174351 192.557131 
L 170.29344 192.622894 
L 170.484319 192.727594 
L 170.609668 192.795879 
L 170.708805 192.849621 
L 170.877708 192.940651 
L 171.061745 193.039075 
L 171.157897 193.090182 
L 171.464916 193.251935 
L 171.523572 193.28259 
L 171.670943 193.359259 
L 171.879452 193.466885 
L 171.963276 193.509872 
L 172.247453 193.654419 
L 172.376906 193.71966 
L 172.527061 193.794863 
L 172.670917 193.866436 
L 172.734313 193.897832 
L 172.902073 193.980479 
L 173.151976 194.102436 
L 173.284958 194.166772 
L 173.433851 194.238345 
L 173.645628 194.339312 
L 173.713718 194.371566 
L 173.873584 194.4469 
L 174.087205 194.546703 
L 174.203693 194.600712 
L 174.330227 194.659048 
L 174.576675 194.771686 
L 174.678738 194.817955 
L 174.779879 194.863587 
L 175.01471 194.968704 
L 175.101989 195.007476 
L 175.293326 195.091915 
L 175.423109 195.148753 
L 175.548824 195.203475 
L 175.730082 195.281796 
L 175.915774 195.361328 
L 176.124502 195.449877 
L 176.284905 195.517317 
L 176.418179 195.572951 
L 176.540188 195.623564 
L 176.702597 195.690468 
L 176.798728 195.729817 
L 176.956904 195.794155 
L 177.115504 195.858159 
L 177.291944 195.92877 
L 177.55853 196.034274 
L 177.718457 196.096887 
L 177.754318 196.110858 
L 177.90446 196.169072 
L 178.148292 196.262662 
L 178.288237 196.315849 
L 178.453807 196.378279 
L 178.637078 196.446757 
L 178.809518 196.510591 
L 178.93579 196.556968 
L 179.09945 196.616617 
L 179.185743 196.64786 
L 179.421799 196.732591 
L 179.593849 196.793673 
L 179.64553 196.811911 
L 179.875624 196.892487 
L 179.947918 196.917595 
L 180.221448 197.011695 
L 180.366759 197.061109 
L 180.472105 197.096682 
L 180.634602 197.151144 
L 180.852371 197.223354 
L 180.9947 197.270068 
L 181.160938 197.32415 
L 181.257925 197.355464 
L 181.483121 197.4275 
L 181.60025 197.464595 
L 181.771166 197.518269 
L 181.877675 197.551445 
L 182.097747 197.619331 
L 182.24617 197.664612 
L 182.288861 197.677562 
L 182.455545 197.727804 
L 182.601135 197.771272 
L 182.851998 197.845266 
L 183.015422 197.892854 
L 183.070706 197.908843 
L 183.238705 197.957092 
L 183.426105 198.010311 
L 183.615482 198.063449 
L 183.797613 198.113946 
L 183.904328 198.143258 
L 184.09461 198.195017 
L 184.294055 198.248576 
L 184.405057 198.278078 
L 184.546641 198.31539 
L 184.649681 198.342321 
L 184.79746 198.380616 
L 185.045288 198.443973 
L 185.237272 198.492309 
L 185.333119 198.516198 
L 185.446932 198.544356 
L 185.583682 198.577887 
L 185.725835 198.612397 
L 186.019244 198.68251 
L 186.044286 198.688425 
L 186.297317 198.747575 
L 186.356734 198.761303 
L 186.626407 198.822843 
L 186.769289 198.854939 
L 186.843263 198.871417 
L 186.968735 198.899151 
L 187.274488 198.9656 
L 187.367445 198.985484 
L 187.589681 199.03242 
L 187.649865 199.044985 
L 187.901652 199.096882 
L 188.021316 199.121167 
L 188.14611 199.146233 
L 188.330619 199.182808 
L 188.459549 199.208023 
L 188.655807 199.245863 
L 188.706875 199.255602 
L 188.976586 199.306308 
L 189.033808 199.316908 
L 189.168324 199.341607 
L 189.462695 199.394596 
L 189.538392 199.407986 
L 189.63386 199.424737 
L 189.881311 199.467441 
L 190.097431 199.503899 
L 190.11534 199.506885 
L 190.373934 199.549405 
L 190.498798 199.569536 
L 190.577183 199.582041 
L 190.746379 199.608684 
L 190.968417 199.642925 
L 191.048372 199.655055 
L 191.262317 199.68699 
L 191.411762 199.708846 
L 191.58803 199.734151 
L 191.738401 199.755332 
L 191.887912 199.776021 
L 191.996852 199.790864 
L 192.17323 199.814479 
L 192.393061 199.843196 
L 192.478469 199.854138 
L 192.679614 199.879435 
L 192.789921 199.893026 
L 192.92109 199.908927 
L 193.172771 199.938647 
L 193.322991 199.955891 
L 193.504511 199.976236 
L 193.618868 199.988777 
L 193.785511 200.00667 
L 193.937734 200.022617 
L 194.157154 200.04494 
L 194.217435 200.050936 
L 194.396118 200.06836 
L 194.563577 200.084217 
L 194.74647 200.101015 
L 194.801832 200.105993 
L 194.9558 200.119575 
L 195.213898 200.141479 
L 195.406379 200.157112 
L 195.499215 200.164437 
L 195.694154 200.179364 
L 195.747176 200.183318 
L 195.905864 200.194878 
L 196.06271 200.205905 
L 196.29219 200.221322 
L 196.450144 200.231439 
L 196.556555 200.238027 
L 196.794864 200.25212 
L 196.905669 200.25836 
L 197.109536 200.269325 
L 197.288241 200.278385 
L 197.324409 200.280156 
L 197.563851 200.29135 
L 197.691995 200.296962 
L 197.921848 200.306365 
L 197.993015 200.309104 
L 198.213392 200.31707 
L 198.357068 200.321842 
L 198.406187 200.323398 
L 198.625817 200.329879 
L 198.819264 200.334946 
L 198.98357 200.338777 
L 199.113217 200.341494 
L 199.247096 200.344016 
L 199.398137 200.346516 
L 199.513077 200.348173 
L 199.790981 200.351304 
L 199.859101 200.351882 
L 200.063849 200.353171 
L 200.174037 200.353587 
L 200.353846 200.353846 
z
" clip-path="url(#p04573949fa)" style="fill: #808080; opacity: 0.5"/>
   </g>
   <g id="patch_5">
    <path d="M 231.507692 200.353846 
L 231.50388 199.664632 
L 231.500068 199.379165 
L 231.496256 199.160128 
L 231.492444 198.97548 
L 231.488632 198.81281 
L 231.48482 198.665751 
L 231.481008 198.530523 
L 231.477196 198.404662 
L 231.473385 198.286456 
L 231.469573 198.174659 
L 231.465761 198.06833 
L 231.461949 197.966739 
L 231.458137 197.869304 
L 231.454325 197.775554 
L 231.446701 197.597621 
L 231.439077 197.430517 
L 231.431453 197.272481 
L 231.423829 197.122182 
L 231.416205 196.978586 
L 231.408581 196.840872 
L 231.400957 196.708372 
L 231.393333 196.580538 
L 231.385709 196.456909 
L 231.374418 196.280729 
L 231.363127 196.111889 
L 231.351836 195.949546 
L 231.340544 195.793006 
L 231.329253 195.641691 
L 231.317962 195.495112 
L 231.306671 195.352852 
L 231.29538 195.214554 
L 231.284089 195.079906 
L 231.272798 194.948634 
L 231.250215 194.695286 
L 231.227633 194.452892 
L 231.205051 194.220152 
L 231.187799 194.048194 
L 231.170548 193.880848 
L 231.153297 193.717766 
L 231.136045 193.558641 
L 231.118794 193.4032 
L 231.101543 193.251202 
L 231.06704 192.956691 
L 231.041661 192.747433 
L 231.016282 192.543862 
L 230.990902 192.345545 
L 230.965523 192.152099 
L 230.940144 191.96319 
L 230.914765 191.778516 
L 230.889386 191.597809 
L 230.864007 191.42083 
L 230.816992 191.102096 
L 230.769976 190.794215 
L 230.722961 190.496169 
L 230.675946 190.207091 
L 230.638107 189.980442 
L 230.600269 189.758775 
L 230.552062 189.483106 
L 230.503856 189.214465 
L 230.455649 188.952356 
L 230.407443 188.696338 
L 230.344571 188.370942 
L 230.281699 188.054472 
L 230.228316 187.792272 
L 230.174933 187.535655 
L 230.121551 187.284295 
L 230.068168 187.037892 
L 230.016229 186.802655 
L 229.96429 186.571628 
L 229.888735 186.242646 
L 229.813179 185.921556 
L 229.754892 185.678914 
L 229.696604 185.440447 
L 229.599624 185.052409 
L 229.502644 184.674571 
L 229.444758 184.453606 
L 229.386873 184.235879 
L 229.271102 183.809626 
L 229.208639 183.584475 
L 229.146175 183.362537 
L 229.077605 183.122451 
L 229.008227 182.88317 
L 228.938849 182.647395 
L 228.869471 182.414986 
L 228.800094 182.185815 
L 228.700443 181.862068 
L 228.625484 181.622579 
L 228.550525 181.38641 
L 228.444232 181.056968 
L 228.358483 180.795667 
L 228.272735 180.538182 
L 228.135802 180.134555 
L 228.004932 179.757039 
L 227.874062 179.387136 
L 227.761981 179.076089 
L 227.618858 178.686231 
L 227.461064 178.265456 
L 227.341408 177.952391 
L 227.185552 177.551998 
L 227.039375 177.18371 
L 226.893198 176.822093 
L 226.821829 176.647868 
L 226.700859 176.355935 
L 226.579889 176.068112 
L 226.467758 175.804867 
L 226.369236 175.576296 
L 226.2387 175.277259 
L 226.108164 174.982417 
L 226.070909 174.899019 
L 225.897622 174.515344 
L 225.664593 174.009998 
L 225.5675 173.802886 
L 225.330186 173.304803 
L 225.215665 173.068434 
L 225.155959 172.946198 
L 225.007898 172.645959 
L 224.859837 172.349721 
L 224.834253 172.298929 
L 224.620599 171.879195 
L 224.414828 171.482212 
L 224.319006 171.299695 
L 224.194911 171.065481 
L 224.006742 170.714859 
L 223.794034 170.32486 
L 223.715192 170.181966 
L 223.5949 169.965634 
L 223.296445 169.437456 
L 223.198743 169.267124 
L 223.059497 169.026492 
L 222.86338 168.691722 
L 222.673951 168.372835 
L 222.541841 168.152969 
L 222.492087 168.070693 
L 222.286014 167.732939 
L 222.089858 167.415853 
L 221.948822 167.190458 
L 221.87155 167.067868 
L 221.612909 166.662074 
L 221.507453 166.498583 
L 221.281143 166.151462 
L 221.183765 166.00364 
L 220.974824 165.689512 
L 220.895495 165.571318 
L 220.711223 165.298997 
L 220.532224 165.037401 
L 220.340763 164.760716 
L 220.166688 164.511898 
L 220.032444 164.321761 
L 219.891152 164.123256 
L 219.844112 164.057532 
L 219.55822 163.661909 
L 219.509953 163.595757 
L 219.249921 163.242474 
L 219.144453 163.100657 
L 219.001034 162.909147 
L 218.891725 162.764207 
L 218.688693 162.497305 
L 218.45667 162.195898 
L 218.404282 162.128368 
L 218.269268 161.955207 
L 218.032649 161.654739 
L 217.866335 161.445796 
L 217.683509 161.218211 
L 217.586603 161.098463 
L 217.352093 160.811155 
L 217.224582 160.65639 
L 217.096581 160.502045 
L 217.01236 160.40104 
L 216.850223 160.207803 
L 216.677168 160.003294 
L 216.514384 159.812539 
L 216.296209 159.559293 
L 216.22925 159.482118 
L 216.042823 159.268587 
L 215.783254 158.974516 
L 215.669177 158.846448 
L 215.537045 158.698993 
L 215.409715 158.557785 
L 215.281306 158.416253 
L 214.992669 158.101272 
L 214.841494 157.938017 
L 214.780532 157.872514 
L 214.659281 157.742788 
L 214.455242 157.52615 
L 214.301568 157.364346 
L 214.094611 157.148262 
L 214.038943 157.090493 
L 213.871657 156.917783 
L 213.584778 156.62468 
L 213.574975 156.614732 
L 213.329552 156.36713 
L 213.230275 156.267755 
L 213.085793 156.123927 
L 212.88831 155.928852 
L 212.691787 155.736439 
L 212.508837 155.558834 
L 212.391244 155.44544 
L 212.292849 155.351014 
L 212.12026 155.186382 
L 212.000035 155.072443 
L 211.851945 154.932925 
L 211.663991 154.757158 
L 211.493692 154.599151 
L 211.332339 154.450529 
L 211.19468 154.324558 
L 210.928158 154.082804 
L 210.798057 153.965807 
L 210.673068 153.854027 
L 210.464474 153.66882 
L 210.40262 153.61422 
L 210.252239 153.482083 
L 210.136817 153.381242 
L 209.942645 153.212724 
L 209.721127 153.022178 
L 209.550524 152.876655 
L 209.477401 152.814605 
L 209.309344 152.672727 
L 209.053953 152.459056 
L 208.904553 152.335131 
L 208.809825 152.256962 
L 208.683543 152.153241 
L 208.535082 152.03201 
L 208.413476 151.933274 
L 208.122129 151.698771 
L 208.007825 151.607551 
L 207.815654 151.455178 
L 207.6532 151.327323 
L 207.612649 151.295545 
L 207.388268 151.120679 
L 207.175599 150.956453 
L 207.042487 150.854405 
L 206.916949 150.758682 
L 206.714191 150.605137 
L 206.663476 150.566936 
L 206.438072 150.398121 
L 206.326297 150.314995 
L 206.190331 150.214401 
L 205.96785 150.051026 
L 205.75982 149.899628 
L 205.719684 149.87057 
L 205.567305 149.760688 
L 205.293801 149.565205 
L 205.149353 149.462859 
L 205.089371 149.420541 
L 204.890246 149.280812 
L 204.795167 149.214501 
L 204.575878 149.062562 
L 204.41123 148.949393 
L 204.268258 148.851751 
L 204.163524 148.780592 
L 203.983524 148.659021 
L 203.804582 148.539066 
L 203.663077 148.444841 
L 203.560838 148.377108 
L 203.342468 148.233405 
L 203.143224 148.103429 
L 202.988742 148.003398 
L 202.891346 147.940663 
L 202.627876 147.772237 
L 202.497409 147.689522 
L 202.32954 147.583759 
L 202.302875 147.567028 
L 202.123903 147.455215 
L 201.977822 147.364574 
L 201.763416 147.232546 
L 201.629521 147.150701 
L 201.485856 147.063397 
L 201.261904 146.928358 
L 201.118411 146.842506 
L 201.057134 146.806003 
L 200.769029 146.635647 
L 200.593847 146.53308 
L 200.46967 146.460839 
L 200.353846 146.393802 
L 200.353846 200.353846 
L 200.444652 200.35378 
L 200.703922 200.352863 
L 200.768566 200.352466 
L 200.933615 200.351149 
L 201.192247 200.348205 
L 201.266428 200.347163 
L 201.504853 200.343214 
L 201.625938 200.340859 
L 201.83038 200.336349 
L 201.992688 200.33229 
L 202.024151 200.331454 
L 202.223746 200.325781 
L 202.412796 200.319818 
L 202.497651 200.316955 
L 202.632424 200.312169 
L 202.871762 200.30295 
L 203.039664 200.295932 
L 203.123272 200.292269 
L 203.399118 200.279383 
L 203.511259 200.273795 
L 203.704708 200.263677 
L 203.833147 200.256627 
L 203.988208 200.247761 
L 204.033955 200.245071 
L 204.339645 200.22623 
L 204.494233 200.216128 
L 204.550686 200.212343 
L 204.690198 200.202767 
L 204.926925 200.185799 
L 205.05251 200.176429 
L 205.274371 200.159252 
L 205.318303 200.155756 
L 205.49416 200.141449 
L 205.701436 200.123942 
L 205.797677 200.115577 
L 205.963401 200.100819 
L 206.185903 200.080303 
L 206.259251 200.073363 
L 206.468908 200.053045 
L 206.541703 200.045823 
L 206.713898 200.028395 
L 206.97259 200.001305 
L 207.112411 199.986208 
L 207.178129 199.979002 
L 207.384282 199.955939 
L 207.510723 199.94145 
L 207.649883 199.9252 
L 207.942671 199.889975 
L 208.072302 199.87393 
L 208.172004 199.861402 
L 208.286719 199.846785 
L 208.482017 199.821403 
L 208.595199 199.806405 
L 208.877745 199.768044 
L 209.039263 199.745522 
L 209.136375 199.731774 
L 209.224525 199.719159 
L 209.393145 199.69467 
L 209.633373 199.658968 
L 209.739981 199.642818 
L 209.855641 199.625082 
L 210.035333 199.597087 
L 210.192094 199.572225 
L 210.343011 199.547903 
L 210.569213 199.510736 
L 210.728359 199.484074 
L 210.876209 199.458925 
L 210.949368 199.446345 
L 211.219232 199.399164 
L 211.369113 199.372432 
L 211.524795 199.344265 
L 211.653642 199.320644 
L 211.806494 199.292259 
L 211.878008 199.278843 
L 212.090932 199.238386 
L 212.281049 199.201614 
L 212.483133 199.161855 
L 212.49867 199.158769 
L 212.759655 199.106324 
L 212.80193 199.09772 
L 213.101329 199.035909 
L 213.170932 199.021319 
L 213.409751 198.970631 
L 213.450754 198.961829 
L 213.617961 198.92564 
L 213.807656 198.884 
L 213.952303 198.851832 
L 214.206026 198.794533 
L 214.300846 198.772834 
L 214.518536 198.722427 
L 214.551781 198.714656 
L 214.715752 198.676049 
L 214.953371 198.61927 
L 215.124686 198.577722 
L 215.270667 198.541914 
L 215.397953 198.510386 
L 215.570577 198.467173 
L 215.697398 198.435093 
L 215.871131 198.390684 
L 216.04456 198.345822 
L 216.128695 198.323867 
L 216.373104 198.259374 
L 216.526137 198.218453 
L 216.589126 198.201488 
L 216.858823 198.12805 
L 216.977537 198.095312 
L 217.121327 198.055321 
L 217.205334 198.031785 
L 217.456615 197.960625 
L 217.520924 197.94223 
L 217.661164 197.901858 
L 217.927999 197.824057 
L 218.014545 197.798545 
L 218.252657 197.727651 
L 218.305064 197.711909 
L 218.572808 197.630699 
L 218.714252 197.587266 
L 218.759313 197.573352 
L 218.950568 197.51388 
L 219.129993 197.457473 
L 219.305115 197.401844 
L 219.380355 197.377769 
L 219.551952 197.322467 
L 219.758523 197.255165 
L 219.959796 197.188822 
L 220.060115 197.155472 
L 220.178617 197.115833 
L 220.345566 197.059539 
L 220.53518 196.994965 
L 220.732106 196.927178 
L 220.93344 196.857112 
L 221.001601 196.833217 
L 221.191992 196.765999 
L 221.283513 196.73344 
L 221.495166 196.657528 
L 221.700595 196.583021 
L 221.788561 196.550868 
L 221.947903 196.492242 
L 222.104859 196.434012 
L 222.262249 196.375138 
L 222.503198 196.284069 
L 222.586952 196.252146 
L 222.789546 196.174356 
L 222.843344 196.153563 
L 223.109152 196.049986 
L 223.18467 196.020303 
L 223.331544 195.962248 
L 223.458017 195.911911 
L 223.745874 195.796146 
L 223.801043 195.773768 
L 223.982891 195.699573 
L 224.10531 195.649248 
L 224.322379 195.559265 
L 224.422414 195.517473 
L 224.632063 195.429224 
L 224.746661 195.380604 
L 224.958494 195.290017 
L 225.156964 195.204302 
L 225.241183 195.167682 
L 225.338841 195.125034 
L 225.52333 195.043922 
L 225.664731 194.981271 
L 225.864996 194.89182 
L 226.089026 194.790749 
L 226.143212 194.766143 
L 226.291892 194.698306 
L 226.440786 194.629898 
L 226.693975 194.512481 
L 226.844008 194.442252 
L 226.915038 194.408833 
L 227.064886 194.337973 
L 227.315356 194.218438 
L 227.498314 194.130255 
L 227.623521 194.069483 
L 227.760912 194.002398 
L 227.933485 193.917542 
L 228.022712 193.873409 
L 228.254047 193.758157 
L 228.453832 193.657657 
L 228.484102 193.642352 
L 228.674543 193.545583 
L 228.879321 193.440611 
L 228.936717 193.411017 
L 229.111859 193.320246 
L 229.373011 193.183587 
L 229.394717 193.172158 
L 229.601007 193.062989 
L 229.709692 193.005074 
L 229.940952 192.880921 
L 230.149479 192.767894 
L 230.268685 192.702818 
L 230.442975 192.607063 
L 230.5839 192.529109 
L 230.698501 192.465364 
L 230.832489 192.390435 
L 231.036674 192.275414 
L 231.15483 192.208391 
L 231.406849 192.064295 
L 231.507692 192.006198 
z
" clip-path="url(#p04573949fa)" style="fill: #808080; opacity: 0.5"/>
   </g>
   <g id="matplotlib.axis_1"/>
   <g id="matplotlib.axis_2"/>
   <g id="line2d_1">
    <path d="M 169.2 192.006198 
L 172.527061 193.794863 
L 175.915774 195.361328 
L 179.421799 196.732591 
L 183.015422 197.892854 
L 186.626407 198.822843 
L 190.11534 199.506885 
L 193.785511 200.00667 
L 197.563851 200.29135 
L 200.353846 200.353846 
L 200.353846 200.353846 
" clip-path="url(#p04573949fa)" style="fill: none; stroke: #ff0000; stroke-linecap: square"/>
   </g>
   <g id="line2d_2">
    <path d="M 200.353846 200.353846 
L 204.033955 200.245071 
L 207.649883 199.9252 
L 211.369113 199.372432 
L 214.953371 198.61927 
L 218.572808 197.630699 
L 222.104859 196.434012 
L 225.52333 195.043922 
L 228.936717 193.411017 
L 231.507692 192.006198 
L 231.507692 192.006198 
" clip-path="url(#p04573949fa)" style="fill: none; stroke: #ff0000; stroke-linecap: square"/>
   </g>
   <g id="text_1">
    <!-- $\Omega$ -->
    <g transform="translate(16.011538 22.420913) scale(0.1 -0.1)">
     <defs>
      <path id="Cmr10-ad" d="M 494 0 
L 281 1063 
L 469 1063 
Q 503 878 531 736 
Q 559 594 604 536 
Q 650 478 750 459 
Q 850 441 1081 441 
L 1472 441 
Q 1378 803 1004 1386 
Q 631 1969 495 2233 
Q 359 2497 359 2913 
Q 359 3397 646 3761 
Q 934 4125 1389 4319 
Q 1844 4513 2309 4513 
Q 2772 4513 3226 4319 
Q 3681 4125 3968 3758 
Q 4256 3391 4256 2913 
Q 4256 2588 4137 2300 
Q 4019 2013 3834 1725 
Q 3650 1438 3436 1084 
Q 3222 731 3144 441 
L 3531 441 
Q 3766 441 3869 459 
Q 3972 478 4015 536 
Q 4059 594 4086 736 
Q 4113 878 4147 1063 
L 4331 1063 
L 4122 0 
L 2988 0 
Q 2925 0 2925 84 
Q 2925 409 3004 721 
Q 3084 1034 3240 1478 
Q 3397 1922 3484 2261 
Q 3572 2600 3572 2913 
Q 3572 3297 3422 3625 
Q 3272 3953 2984 4150 
Q 2697 4347 2309 4347 
Q 1725 4347 1384 3930 
Q 1044 3513 1044 2913 
Q 1047 2584 1122 2293 
Q 1197 2003 1364 1518 
Q 1531 1034 1611 721 
Q 1691 409 1691 84 
Q 1691 0 1625 0 
L 494 0 
z
" transform="scale(0.015625)"/>
     </defs>
     <use xlink:href="#Cmr10-ad" transform="translate(0 0.484375)"/>
    </g>
   </g>
   <g id="text_2">
    <!-- $A$ -->
    <g style="fill: #0000ff" transform="translate(103.142308 78.497837) scale(0.1 -0.1)">
     <defs>
      <path id="Cmmi10-41" d="M 288 0 
Q 225 0 225 84 
Q 250 225 306 225 
Q 566 225 755 328 
Q 944 431 1081 647 
Q 1094 659 1094 659 
L 3378 4513 
Q 3428 4581 3500 4581 
L 3584 4581 
Q 3603 4581 3622 4573 
Q 3641 4566 3655 4548 
Q 3669 4531 3669 4513 
L 4056 378 
Q 4056 350 4084 294 
Q 4147 225 4563 225 
Q 4628 225 4628 141 
Q 4606 56 4592 28 
Q 4578 0 4519 0 
L 2919 0 
Q 2859 0 2859 84 
Q 2894 225 2944 225 
Q 3450 225 3481 397 
L 3384 1453 
L 1806 1453 
L 1294 594 
Q 1247 525 1247 434 
Q 1247 322 1355 273 
Q 1463 225 1594 225 
Q 1656 225 1656 141 
Q 1634 50 1621 25 
Q 1609 0 1550 0 
L 288 0 
z
M 1931 1678 
L 3359 1678 
L 3169 3750 
L 1931 1678 
z
" transform="scale(0.015625)"/>
     </defs>
     <use xlink:href="#Cmmi10-41" transform="translate(0 0.421875)"/>
    </g>
   </g>
   <g id="text_3">
    <!-- $B$ -->
    <g style="fill: #ff0000" transform="translate(227.707692 78.497837) scale(0.1 -0.1)">
     <defs>
      <path id="Cmmi10-42" d="M 319 0 
Q 256 0 256 84 
Q 259 100 268 137 
Q 278 175 293 200 
Q 309 225 341 225 
Q 522 225 656 234 
Q 791 244 884 269 
Q 959 297 1006 441 
L 1881 3956 
Q 1894 4019 1894 4044 
Q 1894 4113 1819 4122 
Q 1697 4147 1356 4147 
Q 1294 4147 1294 4231 
Q 1297 4247 1306 4286 
Q 1316 4325 1333 4348 
Q 1350 4372 1375 4372 
L 3669 4372 
Q 3878 4372 4083 4320 
Q 4288 4269 4461 4156 
Q 4634 4044 4736 3876 
Q 4838 3709 4838 3488 
Q 4838 3247 4714 3040 
Q 4591 2834 4395 2681 
Q 4200 2528 3973 2429 
Q 3747 2331 3500 2284 
Q 3675 2284 3854 2215 
Q 4034 2147 4175 2028 
Q 4316 1909 4402 1743 
Q 4488 1578 4488 1388 
Q 4488 1003 4219 684 
Q 3950 366 3542 183 
Q 3134 0 2753 0 
L 319 0 
z
M 1497 275 
Q 1497 225 1716 225 
L 2631 225 
Q 2944 225 3231 398 
Q 3519 572 3692 859 
Q 3866 1147 3866 1459 
Q 3866 1650 3786 1820 
Q 3706 1991 3556 2089 
Q 3406 2188 3213 2188 
L 1966 2188 
L 1522 416 
Q 1497 328 1497 275 
z
M 2009 2356 
L 2981 2356 
Q 3288 2356 3577 2512 
Q 3866 2669 4048 2937 
Q 4231 3206 4231 3506 
Q 4231 3784 4057 3965 
Q 3884 4147 3609 4147 
L 2731 4147 
Q 2559 4147 2500 4115 
Q 2441 4084 2400 3928 
L 2009 2356 
z
" transform="scale(0.015625)"/>
     </defs>
     <use xlink:href="#Cmmi10-42" transform="translate(0 0.6875)"/>
    </g>
   </g>
   <g id="text_4">
    <!-- $C$ -->
    <g style="fill: #228b22" transform="translate(150.023077 271.651683) scale(0.1 -0.1)">
     <defs>
      <path id="Cmmi10-43" d="M 934 1381 
Q 934 997 1082 705 
Q 1231 413 1514 248 
Q 1797 84 2181 84 
Q 2584 84 2957 290 
Q 3331 497 3595 842 
Q 3859 1188 3956 1575 
Q 3969 1613 4006 1613 
L 4084 1613 
Q 4109 1613 4125 1595 
Q 4141 1578 4141 1556 
Q 4141 1550 4134 1538 
Q 4025 1094 3711 705 
Q 3397 316 2959 87 
Q 2522 -141 2059 -141 
Q 1559 -141 1162 84 
Q 766 309 545 709 
Q 325 1109 325 1613 
Q 325 2150 565 2676 
Q 806 3203 1212 3614 
Q 1619 4025 2139 4269 
Q 2659 4513 3194 4513 
Q 3406 4513 3600 4448 
Q 3794 4384 3959 4253 
Q 4125 4122 4231 3950 
L 4738 4500 
Q 4738 4513 4769 4513 
L 4806 4513 
Q 4831 4513 4847 4491 
Q 4863 4469 4863 4447 
L 4428 2719 
Q 4428 2675 4378 2675 
L 4263 2675 
Q 4213 2675 4213 2747 
Q 4238 2888 4238 3084 
Q 4238 3397 4131 3673 
Q 4025 3950 3801 4119 
Q 3578 4288 3256 4288 
Q 2734 4288 2300 4025 
Q 1866 3763 1564 3336 
Q 1263 2909 1098 2389 
Q 934 1869 934 1381 
z
" transform="scale(0.015625)"/>
     </defs>
     <use xlink:href="#Cmmi10-43" transform="translate(0 0.484375)"/>
    </g>
   </g>
   <g id="patch_6">
    <path d="M 138.046154 200.353846 
C 154.570347 200.353846 170.419977 193.788715 182.104346 182.104346 
C 193.788715 170.419977 200.353846 154.570347 200.353846 138.046154 
C 200.353846 121.521961 193.788715 105.672331 182.104346 93.987962 
C 170.419977 82.303593 154.570347 75.738462 138.046154 75.738462 
C 121.521961 75.738462 105.672331 82.303593 93.987962 93.987962 
C 82.303593 105.672331 75.738462 121.521961 75.738462 138.046154 
C 75.738462 154.570347 82.303593 170.419977 93.987962 182.104346 
C 105.672331 193.788715 121.521961 200.353846 138.046154 200.353846 
L 138.046154 200.353846 
z
" clip-path="url(#p04573949fa)" style="fill: none; stroke: #0000ff; stroke-linejoin: miter"/>
   </g>
   <g id="patch_7">
    <path d="M 200.353846 200.353846 
C 216.878039 200.353846 232.727669 193.788715 244.412038 182.104346 
C 256.096407 170.419977 262.661538 154.570347 262.661538 138.046154 
C 262.661538 121.521961 256.096407 105.672331 244.412038 93.987962 
C 232.727669 82.303593 216.878039 75.738462 200.353846 75.738462 
C 183.829653 75.738462 167.980023 82.303593 156.295654 93.987962 
C 144.611285 105.672331 138.046154 121.521961 138.046154 138.046154 
C 138.046154 154.570347 144.611285 170.419977 156.295654 182.104346 
C 167.980023 193.788715 183.829653 200.353846 200.353846 200.353846 
L 200.353846 200.353846 
z
" clip-path="url(#p04573949fa)" style="fill: none; stroke: #ff0000; stroke-linejoin: miter"/>
   </g>
   <g id="patch_8">
    <path d="M 169.2 262.661538 
C 185.724193 262.661538 201.573823 256.096407 213.258192 244.412038 
C 224.942561 232.727669 231.507692 216.878039 231.507692 200.353846 
C 231.507692 183.829653 224.942561 167.980023 213.258192 156.295654 
C 201.573823 144.611285 185.724193 138.046154 169.2 138.046154 
C 152.675807 138.046154 136.826177 144.611285 125.141808 156.295654 
C 113.457439 167.980023 106.892308 183.829653 106.892308 200.353846 
C 106.892308 216.878039 113.457439 232.727669 125.141808 244.412038 
C 136.826177 256.096407 152.675807 262.661538 169.2 262.661538 
L 169.2 262.661538 
z
" clip-path="url(#p04573949fa)" style="fill: none; stroke: #228b22; stroke-linejoin: miter"/>
   </g>
  </g>
 </g>
 <defs>
  <clipPath id="p04573949fa">
   <rect x="7.2" y="7.2" width="324" height="324"/>
  </clipPath>
 </defs>
</svg>
