<?xml version="1.0" encoding="utf-8" standalone="no"?>
<!DOCTYPE svg PUBLIC "-//W3C//DTD SVG 1.1//EN"
  "http://www.w3.org/Graphics/SVG/1.1/DTD/svg11.dtd">
<!-- Created with matplotlib (https://matplotlib.org/) -->
<svg height="338.4pt" version="1.1" viewBox="0 0 338.4 338.4" width="338.4pt" xmlns="http://www.w3.org/2000/svg" xmlns:xlink="http://www.w3.org/1999/xlink">
 <metadata>
  <rdf:RDF xmlns:cc="http://creativecommons.org/ns#" xmlns:dc="http://purl.org/dc/elements/1.1/" xmlns:rdf="http://www.w3.org/1999/02/22-rdf-syntax-ns#">
   <cc:Work>
    <dc:type rdf:resource="http://purl.org/dc/dcmitype/StillImage"/>
    <dc:date>2024-11-18T20:48:00.689140</dc:date>
    <dc:format>image/svg+xml</dc:format>
    <dc:creator>
     <cc:Agent>
      <dc:title>Matplotlib v3.3.4, https://matplotlib.org/</dc:title>
     </cc:Agent>
    </dc:creator>
   </cc:Work>
  </rdf:RDF>
 </metadata>
 <defs>
  <style type="text/css">*{stroke-linecap:butt;stroke-linejoin:round;}</style>
 </defs>
 <g id="figure_1">
  <g id="patch_1">
   <path d="M -0 338.4 
L 338.4 338.4 
L 338.4 0 
L -0 0 
z
" style="fill:#ffffff;"/>
  </g>
  <g id="axes_1">
   <g id="patch_2">
    <path d="M 7.2 331.2 
L 331.2 331.2 
L 331.2 7.2 
L 7.2 7.2 
z
" style="fill:#ffffff;"/>
   </g>
   <g id="patch_3">
    <path clip-path="url(#p41d6564e37)" d="M 13.430769 324.969231 
L 13.430769 13.430769 
L 324.969231 13.430769 
L 324.969231 324.969231 
z
" style="fill:none;stroke:#000000;stroke-linejoin:miter;"/>
   </g>
   <g id="patch_4">
    <path clip-path="url(#p41d6564e37)" d="M 200.353846 138.046154 
L 200.33232 139.683827 
L 200.310795 140.361973 
L 200.289269 140.882196 
L 200.267743 141.32065 
L 200.246218 141.706836 
L 200.224692 142.055883 
L 200.203166 142.376782 
L 200.18164 142.67539 
L 200.160115 142.955776 
L 200.138589 143.220902 
L 200.117063 143.473006 
L 200.095538 143.713825 
L 200.052486 144.166879 
L 200.009435 144.588351 
L 199.966383 144.984 
L 199.923332 145.358018 
L 199.88028 145.713573 
L 199.837229 146.053123 
L 199.794178 146.378626 
L 199.751126 146.691668 
L 199.708075 146.993558 
L 199.665023 147.285388 
L 199.614312 147.617487 
L 199.563601 147.938183 
L 199.481882 148.433636 
L 199.400164 148.905896 
L 199.318445 149.357866 
L 199.236727 149.79189 
L 199.155008 150.209888 
L 199.07329 150.613461 
L 198.991571 151.003956 
L 198.909853 151.382521 
L 198.783849 151.945108 
L 198.657845 152.484693 
L 198.558571 152.895256 
L 198.459298 153.294122 
L 198.360025 153.682187 
L 198.260751 154.060235 
L 198.062204 154.78898 
L 197.863657 155.485042 
L 197.67176 156.130281 
L 197.443252 156.86724 
L 197.214743 157.573738 
L 196.962144 158.323101 
L 196.709545 159.042702 
L 196.509734 159.592807 
L 196.309924 160.127405 
L 196.110113 160.647596 
L 195.910302 161.154354 
L 195.702087 161.669063 
L 195.493873 162.170998 
L 195.25742 162.726502 
L 195.020966 163.267559 
L 194.84061 163.671108 
L 194.454232 164.510795 
L 194.131134 165.188806 
L 193.808035 165.846533 
L 193.530647 166.396102 
L 193.21408 167.007308 
L 192.897513 167.602489 
L 192.52047 168.291771 
L 192.214839 168.835796 
L 191.909208 169.367392 
L 191.568188 169.946631 
L 191.227168 170.511956 
L 190.812991 171.18087 
L 190.627235 171.47486 
L 190.243555 172.070848 
L 189.866247 172.642778 
L 189.48894 173.201357 
L 188.877491 174.0798 
L 188.771031 174.229512 
L 188.250304 174.948618 
L 187.777536 175.58331 
L 187.249102 176.273349 
L 186.583095 177.115501 
L 186.205997 177.579406 
L 185.971681 177.86314 
L 185.271834 178.690756 
L 184.671642 179.377889 
L 184.304545 179.788335 
L 183.848877 180.287829 
L 183.287832 180.888178 
L 182.829044 181.367526 
L 182.312068 181.895639 
L 181.958312 182.249897 
L 181.505823 182.694846 
L 181.083722 183.101855 
L 180.571746 183.585395 
L 180.3734 183.76981 
L 179.481831 184.579295 
L 179.390339 184.660603 
L 178.566641 185.37837 
L 178.381278 185.53643 
L 177.743601 186.070744 
L 177.275439 186.453919 
L 176.773667 186.856278 
L 176.274909 187.24789 
L 175.839216 187.583341 
L 175.356045 187.948264 
L 175.209503 188.057493 
L 174.424645 188.631269 
L 173.998149 188.935274 
L 173.454757 189.314852 
L 173.118483 189.545477 
L 172.594821 189.898233 
L 171.977178 190.304494 
L 171.669133 190.50322 
L 171.083531 190.873989 
L 170.960157 190.950945 
L 170.286842 191.363942 
L 169.699752 191.714564 
L 169.131593 192.045635 
L 168.682894 192.301464 
L 168.35893 192.483128 
L 167.764338 192.809993 
L 167.358742 193.028157 
L 167.230208 193.09649 
L 166.692427 193.378238 
L 165.918712 193.771992 
L 165.623169 193.918837 
L 165.261031 194.096122 
L 164.894036 194.272836 
L 164.232504 194.58396 
L 163.823006 194.771831 
L 163.083828 195.101946 
L 162.997585 195.139714 
L 162.398062 195.39799 
L 161.809339 195.644414 
L 161.169422 195.904282 
L 161.029815 195.959881 
L 160.286122 196.249524 
L 160.000812 196.357744 
L 159.380301 196.587615 
L 159.096993 196.690085 
L 158.494463 196.902888 
L 158.272294 196.979606 
L 157.839451 197.126387 
L 157.281287 197.310462 
L 156.876435 197.440337 
L 156.399814 197.589345 
L 155.956861 197.724082 
L 155.346384 197.903907 
L 154.798936 198.059426 
L 154.160335 198.23404 
L 153.84292 198.318127 
L 153.209006 198.480717 
L 152.845749 198.570699 
L 152.317614 198.697402 
L 151.778332 198.821772 
L 151.589998 198.86402 
L 150.928874 199.007486 
L 150.799731 199.034635 
L 149.918041 199.212377 
L 149.825943 199.23018 
L 148.936008 199.394826 
L 148.74399 199.428601 
L 148.450688 199.478997 
L 147.982692 199.556427 
L 147.470147 199.637037 
L 146.947508 199.714739 
L 146.424978 199.787905 
L 146.004806 199.843471 
L 145.517313 199.9043 
L 144.917006 199.973853 
L 144.291999 200.040008 
L 144.028985 200.065943 
L 143.554069 200.109923 
L 143.034183 200.153867 
L 142.706851 200.179289 
L 142.16501 200.217558 
L 141.805135 200.240354 
L 141.251227 200.271358 
L 140.626401 200.300397 
L 140.092616 200.32023 
L 139.859344 200.327458 
L 139.251224 200.342192 
L 138.824684 200.348982 
L 138.347894 200.353116 
L 137.696457 200.352865 
L 137.467614 200.35116 
L 136.928292 200.343818 
L 136.572892 200.336426 
L 136.00468 200.320393 
L 135.645891 200.307597 
L 135.046948 200.28162 
L 134.591281 200.257989 
L 134.254222 200.238354 
L 133.883573 200.214646 
L 133.246813 200.168733 
L 132.789331 200.131694 
L 132.168515 200.076001 
L 131.71875 200.031737 
L 131.393173 199.997638 
L 131.022998 199.956765 
L 130.192968 199.856962 
L 129.926495 199.822522 
L 129.229693 199.726933 
L 129.17585 199.719213 
L 128.487791 199.616327 
L 128.014538 199.540993 
L 127.582669 199.468984 
L 127.274944 199.415768 
L 126.434686 199.262347 
L 125.957517 199.169908 
L 125.687917 199.11597 
L 125.163551 199.007511 
L 124.79562 198.928597 
L 124.378356 198.836283 
L 123.848585 198.714742 
L 123.527479 198.6387 
L 122.955241 198.498721 
L 122.300016 198.331373 
L 121.766068 198.189377 
L 121.650417 198.157953 
L 120.863237 197.937688 
L 120.310085 197.776217 
L 120.005997 197.685078 
L 119.772521 197.613954 
L 119.014746 197.376197 
L 118.575649 197.233551 
L 118.126331 197.083847 
L 117.543229 196.883885 
L 117.351009 196.81655 
L 116.918946 196.662616 
L 116.053245 196.343328 
L 115.740264 196.224292 
L 115.409509 196.096398 
L 114.946067 195.913541 
L 114.503508 195.734908 
L 114.133835 195.58266 
L 113.450096 195.293708 
L 112.80819 195.013633 
L 112.743399 194.984885 
L 111.940576 194.621301 
L 111.647247 194.485025 
L 111.19428 194.27093 
L 110.591632 193.979129 
L 110.060882 193.715473 
L 109.486104 193.422792 
L 109.311086 193.332177 
L 108.855022 193.092737 
L 108.215622 192.748877 
L 107.679319 192.45299 
L 107.566389 192.389805 
L 106.892308 192.006198 
L 106.892308 84.086109 
L 107.405335 83.793147 
L 107.90009 83.516681 
L 108.163937 83.371648 
L 108.762746 83.048604 
L 109.114716 82.862638 
L 109.603301 82.609229 
L 110.352848 82.231019 
L 110.837413 81.993206 
L 111.341725 81.751199 
L 111.490113 81.681047 
L 112.055808 81.417977 
L 112.657065 81.145867 
L 113.04164 80.975822 
L 113.657208 80.710059 
L 113.702559 80.690789 
L 114.571834 80.329563 
L 114.990766 80.160943 
L 115.271253 80.050013 
L 116.012904 79.764215 
L 116.245049 79.676981 
L 116.555856 79.561834 
L 117.429066 79.248329 
L 117.476543 79.231703 
L 118.18074 78.990131 
L 118.54588 78.868558 
L 118.979802 78.727331 
L 119.638951 78.519493 
L 120.206842 78.346845 
L 120.649435 78.216373 
L 120.941759 78.132147 
L 121.422337 77.99703 
L 121.79257 77.895763 
L 122.348701 77.748239 
L 122.912374 77.604304 
L 123.325154 77.502445 
L 123.645476 77.425456 
L 124.196958 77.297094 
L 124.927714 77.135112 
L 125.438711 77.027297 
L 125.788449 76.95608 
L 126.14137 76.886325 
L 126.602583 76.798352 
L 127.322091 76.668283 
L 127.652423 76.611482 
L 128.239895 76.514976 
L 128.303113 76.504935 
L 128.850413 76.420779 
L 129.29216 76.356478 
L 129.939492 76.268079 
L 130.393891 76.21015 
L 130.798266 76.161449 
L 131.149361 76.121338 
L 131.604068 76.072385 
L 132.47843 75.987722 
L 132.50479 75.985363 
L 133.203933 75.926902 
L 133.75574 75.886353 
L 133.913235 75.875683 
L 134.652802 75.830933 
L 135.276805 75.800036 
L 135.573826 75.787531 
L 135.896841 75.775543 
L 136.344519 75.761702 
L 137.116332 75.7454 
L 137.504037 75.74082 
L 137.875471 75.738695 
L 138.350815 75.739206 
L 138.648825 75.741376 
L 139.140315 75.748069 
L 139.883603 75.765561 
L 140.12319 75.77309 
L 140.77012 75.798033 
L 141.227046 75.819709 
L 141.461586 75.832141 
L 141.980032 75.862771 
L 142.549178 75.901393 
L 143.048467 75.939589 
L 143.335138 75.963345 
L 144.020503 76.025547 
L 144.231106 76.046195 
L 144.919017 76.118678 
L 145.426734 76.177134 
L 145.695069 76.209736 
L 146.188472 76.272768 
L 146.838497 76.361932 
L 147.392835 76.443491 
L 147.956588 76.531669 
L 148.031979 76.543863 
L 148.816246 76.676343 
L 149.173806 76.740168 
L 149.48441 76.797359 
L 150.089151 76.913391 
L 150.561667 77.008375 
L 150.824138 77.062782 
L 151.661355 77.244223 
L 151.959406 77.311733 
L 152.649966 77.474071 
L 153.091174 77.582149 
L 153.329037 77.641833 
L 153.929136 77.796844 
L 154.148052 77.85498 
L 154.885074 78.056994 
L 155.404496 78.205228 
L 155.52667 78.240802 
L 156.14051 78.423651 
L 156.688179 78.592614 
L 157.36132 78.807882 
L 157.772115 78.943405 
L 157.959711 79.006347 
L 158.336102 79.134639 
L 159.02353 79.375904 
L 159.370012 79.500944 
L 159.748626 79.640236 
L 160.206843 79.812552 
L 160.762131 80.026908 
L 161.267798 80.227439 
L 162.051352 80.548337 
L 162.12752 80.580196 
L 162.732018 80.837268 
L 163.018008 80.961524 
L 163.723363 81.275303 
L 164.277521 81.529219 
L 164.823319 81.78576 
L 165.176703 81.955319 
L 165.770441 82.246401 
L 165.999651 82.360873 
L 166.625574 82.67951 
L 167.091221 82.92236 
L 167.642473 83.216359 
L 168.141666 83.488765 
L 168.19154 83.516307 
L 168.739895 83.82307 
L 169.398686 84.20131 
L 169.746848 84.405549 
L 170.336598 84.758484 
L 170.955065 85.138195 
L 171.213854 85.300043 
L 171.829165 85.692007 
L 172.092729 85.863022 
L 172.590291 86.191056 
L 173.068166 86.5126 
L 173.590336 86.871359 
L 174.219744 87.314311 
L 174.641904 87.617991 
L 175.14753 87.988822 
L 175.403605 88.179638 
L 176.067222 88.68375 
L 176.309167 88.871055 
L 176.821354 89.273903 
L 177.215709 89.590045 
L 177.880405 90.134976 
L 178.335402 90.516952 
L 178.98291 91.073497 
L 179.317855 91.367516 
L 179.617503 91.634178 
L 180.219333 92.180355 
L 180.83209 92.751428 
L 181.217406 93.118529 
L 181.494261 93.386211 
L 181.863844 93.748766 
L 182.325571 94.210304 
L 182.877827 94.775268 
L 183.275896 95.191529 
L 183.974556 95.941161 
L 184.525457 96.550095 
L 184.948016 97.028306 
L 185.423039 97.577904 
L 185.847114 98.079709 
L 186.053138 98.327418 
L 186.439532 98.799122 
L 186.825925 99.280416 
L 187.052442 99.567169 
L 187.546632 100.205023 
L 187.979387 100.777927 
L 188.394858 101.341161 
L 188.810329 101.917951 
L 188.994819 102.178592 
L 189.430542 102.805649 
L 189.770783 103.306964 
L 190.111023 103.819003 
L 190.719927 104.763693 
L 190.907074 105.061738 
L 191.214434 105.559503 
L 191.555157 106.123825 
L 191.895879 106.702006 
L 192.205924 107.240833 
L 192.536639 107.829676 
L 192.867354 108.433918 
L 193.183904 109.02759 
L 193.562514 109.758661 
L 193.941124 110.51434 
L 194.35475 111.3705 
L 194.593458 111.88032 
L 194.993489 112.76277 
L 195.193505 113.21817 
L 195.39352 113.683722 
L 195.649315 114.294853 
L 195.842634 114.769225 
L 196.035952 115.255107 
L 196.20369 115.686604 
L 196.371428 116.127877 
L 196.577847 116.685221 
L 196.784265 117.259552 
L 196.990683 117.852319 
L 197.197102 118.465197 
L 197.454628 119.261007 
L 197.583391 119.673186 
L 197.712154 120.095751 
L 197.834361 120.50709 
L 197.956569 120.929183 
L 198.078776 121.362846 
L 198.200984 121.809006 
L 198.309339 122.215896 
L 198.411843 122.611383 
L 198.514346 123.017974 
L 198.61685 123.436594 
L 198.719354 123.86831 
L 198.821858 124.314356 
L 198.924362 124.776178 
L 199.026866 125.255483 
L 199.12937 125.754318 
L 199.230337 126.267181 
L 199.331305 126.804322 
L 199.432272 127.369405 
L 199.53324 127.967128 
L 199.587493 128.303873 
L 199.641747 128.652995 
L 199.696001 129.015931 
L 199.750254 129.394418 
L 199.787979 129.667872 
L 199.825703 129.950734 
L 199.863428 130.244027 
L 199.901152 130.548973 
L 199.938877 130.86706 
L 199.976601 131.200117 
L 200.014326 131.550447 
L 200.05205 131.921013 
L 200.089775 132.31574 
L 200.127499 132.740017 
L 200.146361 132.965529 
L 200.165224 133.201601 
L 200.184086 133.449859 
L 200.202948 133.712397 
L 200.22181 133.991989 
L 200.240673 134.292442 
L 200.259535 134.61924 
L 200.278397 134.980797 
L 200.297259 135.391276 
L 200.316122 135.878291 
L 200.334984 136.513127 
z
" style="fill:#808080;opacity:0.5;"/>
   </g>
   <g id="patch_5">
    <path clip-path="url(#p41d6564e37)" d="M 75.738462 138.046154 
L 75.738462 138.046154 
L 75.744522 137.177128 
L 75.750583 136.817195 
L 75.756643 136.54103 
L 75.762704 136.308229 
L 75.768764 136.103142 
L 75.774825 135.917742 
L 75.780886 135.747263 
L 75.786946 135.588595 
L 75.793007 135.439583 
L 75.799067 135.298654 
L 75.805128 135.164622 
L 75.811189 135.036565 
L 75.817249 134.91375 
L 75.82331 134.795584 
L 75.82937 134.681577 
L 75.835431 134.571318 
L 75.847552 134.360713 
L 75.859673 134.161547 
L 75.871795 133.972143 
L 75.883916 133.791195 
L 75.896037 133.617668 
L 75.908158 133.450721 
L 75.920279 133.28966 
L 75.9324 133.133908 
L 75.949324 132.924406 
L 75.966248 132.723198 
L 75.983172 132.529374 
L 76.000096 132.342184 
L 76.01702 132.160993 
L 76.033944 131.985264 
L 76.050868 131.814534 
L 76.067792 131.648403 
L 76.096834 131.373047 
L 76.125877 131.108733 
L 76.154919 130.854244 
L 76.183961 130.608571 
L 76.216 130.346765 
L 76.248039 130.093702 
L 76.280078 129.848573 
L 76.312116 129.610685 
L 76.341239 129.400232 
L 76.370361 129.194877 
L 76.399483 128.994273 
L 76.428606 128.798111 
L 76.457728 128.606115 
L 76.486851 128.418034 
L 76.515973 128.233644 
L 76.545095 128.05274 
L 76.575443 127.867735 
L 76.60579 127.686122 
L 76.637507 127.499753 
L 76.669223 127.316715 
L 76.732655 126.959973 
L 76.796088 126.614711 
L 76.85952 126.279916 
L 76.907635 126.032409 
L 76.955751 125.790087 
L 77.003866 125.55265 
L 77.051982 125.319824 
L 77.113765 125.027225 
L 77.18852 124.682138 
L 77.263275 124.346149 
L 77.315177 124.117872 
L 77.36708 123.893467 
L 77.418983 123.672752 
L 77.470886 123.455561 
L 77.537971 123.179804 
L 77.605057 122.909367 
L 77.673053 122.6404 
L 77.74105 122.376344 
L 77.804485 122.134214 
L 77.86792 121.895962 
L 77.931355 121.661421 
L 77.99479 121.430431 
L 78.07787 121.133039 
L 78.16095 120.841187 
L 78.234809 120.586154 
L 78.308669 120.335102 
L 78.431879 119.924709 
L 78.550998 119.537372 
L 78.647162 119.231045 
L 78.75236 118.902107 
L 78.857558 118.579294 
L 78.999305 118.153487 
L 79.091928 117.880646 
L 79.18455 117.611867 
L 79.273325 117.357919 
L 79.38 117.057327 
L 79.486675 116.761514 
L 79.580097 116.50622 
L 79.67352 116.254318 
L 79.773302 115.988881 
L 79.873085 115.727047 
L 80.028987 115.324868 
L 80.116957 115.101511 
L 80.255753 114.754135 
L 80.361938 114.49239 
L 80.527738 114.090353 
L 80.695082 113.692447 
L 80.874098 113.275111 
L 81.003248 112.979135 
L 81.17115 112.600477 
L 81.395469 112.104905 
L 81.576128 111.713955 
L 81.612921 111.635194 
L 81.739948 111.365455 
L 81.866975 111.099014 
L 81.926027 110.976247 
L 82.148429 110.519933 
L 82.25072 110.313175 
L 82.446126 109.923469 
L 82.677353 109.470913 
L 82.730562 109.368047 
L 82.882696 109.076489 
L 83.12936 108.611578 
L 83.23539 108.414604 
L 83.383629 108.142025 
L 83.526499 107.882338 
L 83.650491 107.659308 
L 83.86539 107.277771 
L 84.109635 106.851597 
L 84.219102 106.663084 
L 84.3934 106.366026 
L 84.528337 106.138604 
L 84.670298 105.90169 
L 84.809511 105.671651 
L 84.918548 105.493027 
L 85.108509 105.185018 
L 85.249429 104.959081 
L 85.373303 104.762235 
L 85.5362 104.505831 
L 85.684961 104.274065 
L 85.901789 103.940234 
L 86.038358 103.732343 
L 86.274974 103.376377 
L 86.405565 103.182159 
L 86.549474 102.969944 
L 86.767705 102.651674 
L 86.873499 102.498891 
L 87.072583 102.213996 
L 87.209443 102.020088 
L 87.391738 101.76422 
L 87.438175 101.699476 
L 87.604821 101.468559 
L 87.71898 101.311646 
L 87.938022 101.013417 
L 88.156541 100.719553 
L 88.225565 100.627476 
L 88.346588 100.466882 
L 88.616601 100.112424 
L 88.673533 100.038354 
L 88.816002 99.854 
L 89.116571 99.469679 
L 89.238526 99.315495 
L 89.342411 99.18494 
L 89.454495 99.044882 
L 89.705712 98.733939 
L 89.898955 98.497503 
L 90.061064 98.300969 
L 90.165924 98.174709 
L 90.304525 98.008853 
L 90.503961 97.772237 
L 90.590225 97.670625 
L 90.828516 97.392209 
L 90.930329 97.274257 
L 91.114533 97.062358 
L 91.237237 96.92227 
L 91.378496 96.762038 
L 91.551278 96.567544 
L 91.637065 96.471582 
L 91.795813 96.295053 
L 91.965501 96.107842 
L 92.104399 95.955731 
L 92.395319 95.640379 
L 92.476995 95.552622 
L 92.634293 95.384562 
L 92.736678 95.275838 
L 92.887014 95.117135 
L 93.158734 94.833099 
L 93.280582 94.706886 
L 93.434311 94.548659 
L 93.51532 94.465729 
L 93.674466 94.303704 
L 93.821978 94.154574 
L 94.011104 93.964832 
L 94.175883 93.800839 
L 94.440216 93.540303 
L 94.561582 93.421715 
L 94.758553 93.230619 
L 94.833853 93.158009 
L 94.997701 93.000852 
L 95.078083 92.92417 
L 95.291938 92.721486 
L 95.436214 92.585824 
L 95.626679 92.408049 
L 95.735758 92.306905 
L 95.951644 92.108144 
L 96.014022 92.051063 
L 96.322623 91.770939 
L 96.339733 91.755518 
L 96.561003 91.557114 
L 96.760897 91.379505 
L 96.846774 91.303672 
L 96.956946 91.206795 
L 97.241599 90.95861 
L 97.293392 90.913777 
L 97.537487 90.703821 
L 97.715373 90.55219 
L 97.744824 90.527197 
L 98.002106 90.310185 
L 98.062755 90.259374 
L 98.329027 90.037838 
L 98.419075 89.963484 
L 98.608135 89.808294 
L 98.80544 89.647653 
L 98.896552 89.573922 
L 99.035118 89.462333 
L 99.273614 89.271789 
L 99.310286 89.24266 
L 99.556846 89.047973 
L 99.615207 89.002186 
L 99.861797 88.809954 
L 100.008743 88.696343 
L 100.119585 88.611107 
L 100.32802 88.451891 
L 100.455425 88.355253 
L 100.620579 88.230746 
L 100.716008 88.159195 
L 100.872584 88.042411 
L 101.118688 87.860391 
L 101.181494 87.814238 
L 101.389343 87.662359 
L 101.520323 87.567325 
L 101.745188 87.405376 
L 101.942108 87.264795 
L 102.041916 87.193982 
L 102.265395 87.03649 
L 102.36394 86.967507 
L 102.462528 86.898778 
L 102.592304 86.808735 
L 102.878592 86.611816 
L 103.02084 86.514844 
L 103.18252 86.405321 
L 103.322151 86.311329 
L 103.483698 86.203265 
L 103.548584 86.160065 
L 103.766836 86.015616 
L 103.986562 85.871517 
L 104.035772 85.839426 
L 104.221804 85.718705 
L 104.404969 85.600761 
L 104.558389 85.502666 
L 104.767601 85.369912 
L 104.836544 85.32642 
L 105.065471 85.182905 
L 105.19616 85.101594 
L 105.330067 85.018744 
L 105.482964 84.924715 
L 105.630089 84.834808 
L 105.795363 84.734476 
L 106.006788 84.607146 
L 106.078314 84.564328 
L 106.216782 84.481804 
L 106.423972 84.359227 
L 106.553635 84.283064 
L 106.742039 84.173147 
L 106.892308 84.086109 
L 106.892308 138.046154 
z
" style="fill:#808080;opacity:0.5;"/>
   </g>
   <g id="patch_6">
    <path clip-path="url(#p41d6564e37)" d="M 75.738462 138.046154 
L 75.738462 138.046154 
L 75.74115 138.624923 
L 75.743838 138.864649 
L 75.746526 139.04859 
L 75.749214 139.203655 
L 75.751902 139.340266 
L 75.75459 139.463767 
L 75.757278 139.577335 
L 75.759967 139.683038 
L 75.762655 139.782312 
L 75.765343 139.876206 
L 75.768031 139.965508 
L 75.770719 140.050832 
L 75.776095 140.211407 
L 75.781471 140.360857 
L 75.786848 140.501214 
L 75.792224 140.633959 
L 75.7976 140.760208 
L 75.802976 140.88083 
L 75.808353 140.996515 
L 75.813729 141.107822 
L 75.819105 141.215213 
L 75.824481 141.319073 
L 75.832417 141.46661 
L 75.840353 141.608023 
L 75.848289 141.744015 
L 75.856225 141.875163 
L 75.864161 142.001951 
L 75.872097 142.124783 
L 75.880033 142.244008 
L 75.887969 142.359924 
L 75.903841 142.582838 
L 75.919713 142.795248 
L 75.935585 142.998505 
L 75.951457 143.193693 
L 75.967329 143.381698 
L 75.983201 143.563255 
L 75.999073 143.738981 
L 76.014945 143.909399 
L 76.030817 144.07496 
L 76.046689 144.236054 
L 76.062561 144.393021 
L 76.078433 144.546159 
L 76.098834 144.737797 
L 76.119235 144.924037 
L 76.139637 145.105306 
L 76.160038 145.281978 
L 76.180439 145.454382 
L 76.20084 145.622809 
L 76.221241 145.787519 
L 76.241643 145.948743 
L 76.267985 146.152099 
L 76.294327 146.350392 
L 76.320669 146.543978 
L 76.347011 146.733171 
L 76.375257 146.931476 
L 76.403502 147.125363 
L 76.431748 147.315109 
L 76.459994 147.500964 
L 76.48824 147.683152 
L 76.516486 147.861878 
L 76.572977 148.20967 
L 76.610518 148.434186 
L 76.64806 148.653819 
L 76.685601 148.868865 
L 76.723142 149.079592 
L 76.757349 149.268051 
L 76.791557 149.453294 
L 76.858698 149.808118 
L 76.92584 150.152175 
L 76.992982 150.486358 
L 77.060123 150.811442 
L 77.131053 151.145735 
L 77.203387 151.477691 
L 77.27572 151.801258 
L 77.339162 152.078603 
L 77.402603 152.35029 
L 77.466045 152.616636 
L 77.529487 152.877928 
L 77.593377 153.136228 
L 77.657268 153.389914 
L 77.736506 153.698467 
L 77.802619 153.951028 
L 77.868732 154.199371 
L 77.968534 154.566689 
L 78.068336 154.925427 
L 78.14154 155.183417 
L 78.214745 155.437272 
L 78.300095 155.728263 
L 78.385446 156.014137 
L 78.468866 156.288833 
L 78.552287 156.559077 
L 78.639425 156.83682 
L 78.726564 157.110118 
L 78.826111 157.417139 
L 78.956556 157.811476 
L 79.057549 158.110874 
L 79.158542 158.405369 
L 79.249709 158.667176 
L 79.340876 158.925303 
L 79.444678 159.214895 
L 79.548481 159.500076 
L 79.709152 159.933199 
L 79.732629 159.995673 
L 79.864121 160.341884 
L 79.995613 160.682037 
L 80.164064 161.109376 
L 80.264953 161.360985 
L 80.376009 161.634348 
L 80.487065 161.904062 
L 80.605446 162.187688 
L 80.798017 162.640857 
L 80.981899 163.064535 
L 81.026212 163.165365 
L 81.234092 163.632051 
L 81.417549 164.035567 
L 81.508718 164.233304 
L 81.645478 164.526567 
L 81.886629 165.034231 
L 81.988159 165.244495 
L 82.181277 165.63898 
L 82.263698 165.805227 
L 82.402816 166.083049 
L 82.541934 166.35746 
L 82.595935 166.463081 
L 82.844805 166.943551 
L 83.016534 167.269252 
L 83.061737 167.354214 
L 83.306933 167.80966 
L 83.412843 168.003622 
L 83.641494 168.416888 
L 83.729737 168.574425 
L 83.862542 168.809521 
L 84.064848 169.163144 
L 84.14758 169.306228 
L 84.347916 169.649125 
L 84.505789 169.915855 
L 84.733735 170.29572 
L 84.83889 170.468917 
L 84.976838 170.69422 
L 85.08225 170.86495 
L 85.28914 171.196509 
L 85.439469 171.434553 
L 85.531441 171.579026 
L 85.830883 172.043418 
L 85.91988 172.179716 
L 86.047394 172.373658 
L 86.298683 172.751308 
L 86.346774 172.822908 
L 86.609544 173.210393 
L 86.760834 173.430677 
L 86.880966 173.604164 
L 86.961683 173.720029 
L 87.131068 173.961367 
L 87.312349 174.216993 
L 87.464062 174.428849 
L 87.593039 174.607496 
L 87.771792 174.852907 
L 87.998993 175.161248 
L 88.077598 175.267008 
L 88.206326 175.439202 
L 88.486988 175.810391 
L 88.536568 175.875367 
L 88.796921 176.2137 
L 88.920593 176.372748 
L 88.976329 176.444081 
L 89.207005 176.737057 
L 89.327854 176.889116 
L 89.469182 177.065717 
L 89.721222 177.377433 
L 89.895676 177.590813 
L 90.033038 177.757478 
L 90.146475 177.894232 
L 90.280512 178.054803 
L 90.489059 178.302474 
L 90.540231 178.362848 
L 90.822899 178.693574 
L 90.959067 178.851237 
L 91.085344 178.9965 
L 91.282559 179.221568 
L 91.37781 179.329494 
L 91.536159 179.50781 
L 91.735579 179.730433 
L 91.889796 179.901131 
L 92.060585 180.088704 
L 92.133035 180.167811 
L 92.364689 180.418932 
L 92.43851 180.498378 
L 92.646076 180.720285 
L 92.799481 180.882904 
L 93.025293 181.120167 
L 93.117386 181.216217 
L 93.237074 181.340436 
L 93.44332 181.552886 
L 93.653182 181.767003 
L 93.756365 181.871525 
L 93.929461 182.045766 
L 94.084159 182.200333 
L 94.269284 182.383882 
L 94.428692 182.54071 
L 94.595892 182.704 
L 94.673593 182.779469 
L 94.858785 182.958287 
L 95.024657 183.117202 
L 95.196587 183.280689 
L 95.38303 183.456575 
L 95.445344 183.515039 
L 95.578342 183.639283 
L 95.748217 183.796925 
L 95.995219 184.024055 
L 96.103345 184.122713 
L 96.277826 184.280938 
L 96.372771 184.366535 
L 96.483425 184.465849 
L 96.78236 184.731782 
L 96.872245 184.811074 
L 97.024344 184.944551 
L 97.159484 185.062414 
L 97.300598 185.18476 
L 97.461308 185.323197 
L 97.657816 185.491182 
L 97.84652 185.651174 
L 97.993091 185.774559 
L 98.047869 185.820474 
L 98.338396 186.062218 
L 98.418955 186.128725 
L 98.588899 186.268281 
L 98.795614 186.436686 
L 98.964314 186.573036 
L 99.107644 186.688121 
L 99.244235 186.79715 
L 99.39221 186.91456 
L 99.516625 187.012713 
L 99.74325 187.190188 
L 99.782701 187.220911 
L 100.04094 187.420765 
L 100.106504 187.471163 
L 100.348889 187.656281 
L 100.455024 187.736751 
L 100.614689 187.857136 
L 100.752699 187.960548 
L 100.90065 188.070749 
L 101.101464 188.219238 
L 101.303027 188.367036 
L 101.422158 188.453807 
L 101.51603 188.521877 
L 101.697822 188.652945 
L 101.839358 188.754304 
L 101.990638 188.861981 
L 102.18724 189.000907 
L 102.291382 189.074036 
L 102.529375 189.239971 
L 102.593521 189.284414 
L 102.828732 189.446365 
L 103.013618 189.572554 
L 103.116251 189.642185 
L 103.368015 189.811733 
L 103.388716 189.825595 
L 103.626631 189.984049 
L 103.691086 190.026707 
L 103.95313 190.198951 
L 104.042483 190.257253 
L 104.274202 190.407435 
L 104.341734 190.45093 
L 104.584823 190.60648 
L 104.667044 190.658734 
L 104.858301 190.779587 
L 104.947493 190.835615 
L 105.157867 190.966935 
L 105.26212 191.031582 
L 105.429045 191.134502 
L 105.634099 191.259942 
L 105.76272 191.338071 
L 105.891686 191.415983 
L 106.124481 191.555549 
L 106.264219 191.638664 
L 106.434765 191.739436 
L 106.585251 191.82775 
L 106.698485 191.89383 
L 106.892308 192.006198 
L 106.892308 138.046154 
z
" style="fill:#808080;opacity:0.5;"/>
   </g>
   <g id="patch_7">
    <path clip-path="url(#p41d6564e37)" d="M 231.507692 192.006198 
L 231.006991 192.292197 
L 230.521183 192.56386 
L 229.958058 192.871688 
L 229.455444 193.140124 
L 228.980215 193.388538 
L 228.485727 193.64153 
L 228.263342 193.753501 
L 227.790234 193.988027 
L 227.488013 194.135239 
L 226.798568 194.463573 
L 226.307514 194.69115 
L 225.777949 194.930805 
L 225.177766 195.195271 
L 224.79645 195.359395 
L 224.677994 195.409769 
L 223.995992 195.694202 
L 223.441024 195.918693 
L 223.014398 196.08707 
L 222.80142 196.169772 
L 222.344759 196.344081 
L 221.544269 196.639793 
L 221.124188 196.790017 
L 220.555445 196.988023 
L 220.3225 197.067348 
L 219.776583 197.249243 
L 219.265261 197.414554 
L 218.805816 197.558954 
L 218.581704 197.627978 
L 217.721185 197.88447 
L 217.439672 197.965459 
L 217.113022 198.057641 
L 216.598047 198.19908 
L 216.122871 198.32539 
L 215.681939 198.439018 
L 215.275517 198.540718 
L 214.753803 198.667023 
L 214.232753 198.788433 
L 213.642284 198.920335 
L 213.174313 199.020609 
L 212.645877 199.129331 
L 212.15593 199.225884 
L 211.793746 199.294641 
L 211.082002 199.423309 
L 210.676081 199.492879 
L 210.186646 199.573096 
L 210.037311 199.596776 
L 209.529448 199.674531 
L 208.782375 199.781139 
L 208.310998 199.843664 
L 207.949165 199.889178 
L 207.485642 199.944345 
L 207.212428 199.975213 
L 206.488322 200.051127 
L 205.955628 200.101521 
L 205.668563 200.126765 
L 205.132938 200.170294 
L 204.63791 200.206393 
L 204.449818 200.21907 
L 203.946957 200.250158 
L 203.395773 200.279547 
L 203.00821 200.297281 
L 202.177744 200.327145 
L 201.870694 200.33538 
L 201.325259 200.346273 
L 201.088501 200.349515 
L 200.565273 200.353487 
L 200.08341 200.353259 
L 199.387894 200.346358 
L 199.103525 200.3413 
L 198.799051 200.334444 
L 198.017122 200.310014 
L 197.671747 200.296093 
L 197.031692 200.265217 
L 196.861001 200.255868 
L 196.185337 200.214249 
L 195.628826 200.17443 
L 195.504871 200.164879 
L 194.865735 200.111677 
L 194.590762 200.086748 
L 193.76644 200.004645 
L 193.635411 199.990574 
L 193.027794 199.921654 
L 192.314832 199.833068 
L 192.214596 199.819944 
L 191.566929 199.731149 
L 191.051911 199.655589 
L 190.792314 199.615835 
L 190.405766 199.554562 
L 189.533152 199.407062 
L 189.018157 199.314014 
L 188.71407 199.256971 
L 188.529715 199.221626 
L 188.04292 199.125525 
L 187.519088 199.017602 
L 186.72963 198.846065 
L 186.476756 198.788848 
L 185.765706 198.622013 
L 185.262843 198.498698 
L 185.207415 198.484835 
L 184.572746 198.32223 
L 183.977094 198.163127 
L 183.606873 198.061047 
L 183.364398 197.992857 
L 182.747081 197.814459 
L 182.386253 197.706979 
L 181.492136 197.430364 
L 181.196553 197.335669 
L 180.919056 197.245288 
L 180.180654 196.997751 
L 179.888625 196.89701 
L 179.502894 196.761453 
L 178.966863 196.568333 
L 178.446615 196.375578 
L 178.012887 196.210834 
L 177.366533 195.958432 
L 177.189816 195.887975 
L 176.738917 195.705357 
L 176.075122 195.429009 
L 175.553312 195.205423 
L 175.035346 194.977886 
L 174.821603 194.882349 
L 174.189671 194.594226 
L 173.962991 194.488791 
L 173.060704 194.058054 
L 172.819542 193.939898 
L 172.225678 193.643408 
L 171.986927 193.521972 
L 171.548159 193.295415 
L 171.076775 193.047078 
L 170.359423 192.659184 
L 169.838903 192.37006 
L 169.743741 192.316495 
L 169.111826 191.955195 
L 168.427592 191.552815 
L 167.986569 191.28719 
L 167.607073 191.054619 
L 167.367313 190.905752 
L 166.551446 190.387784 
L 166.352415 190.258712 
L 165.951152 189.995198 
L 165.355038 189.59547 
L 164.646395 189.107161 
L 164.181378 188.778797 
L 163.710515 188.439753 
L 163.500127 188.286097 
L 163.086658 187.980162 
L 162.233973 187.332296 
L 162.026077 187.170797 
L 161.397888 186.674148 
L 161.259064 186.56261 
L 160.681198 186.091232 
L 159.934591 185.464846 
L 159.421773 185.022892 
L 159.05142 184.697607 
L 158.643016 184.332816 
L 158.418831 184.129806 
L 157.702639 183.467768 
L 157.490372 183.26751 
L 156.781956 182.585338 
L 156.428562 182.236853 
L 155.726904 181.528156 
L 155.355998 181.144207 
L 154.741499 180.493325 
L 154.494953 180.226842 
L 154.072723 179.763131 
L 153.596783 179.228985 
L 152.974758 178.511825 
L 152.60062 178.069621 
L 152.271567 177.673707 
L 151.567482 176.803594 
L 151.291188 176.453238 
L 150.585323 175.534054 
L 150.28423 175.130949 
L 149.712806 174.346754 
L 149.404983 173.913435 
L 149.04498 173.396525 
L 148.709146 172.904058 
L 148.373312 172.40125 
L 147.793026 171.506709 
L 147.54965 171.121301 
L 147.191968 170.543281 
L 146.631431 169.608008 
L 146.290607 169.020574 
L 145.949784 168.417959 
L 145.610505 167.80208 
L 145.122656 166.886475 
L 144.878637 166.414265 
L 144.634619 165.931926 
L 144.391157 165.440058 
L 144.147695 164.936991 
L 143.935752 164.489436 
L 143.723809 164.032446 
L 143.480348 163.495196 
L 143.236888 162.943976 
L 142.889618 162.131647 
L 142.563256 161.337702 
L 142.236895 160.510981 
L 142.005133 159.901958 
L 141.820834 159.403472 
L 141.636536 158.891441 
L 141.452237 158.364839 
L 141.267938 157.822504 
L 141.1234 157.385304 
L 140.978861 156.936884 
L 140.834322 156.476423 
L 140.689784 156.002996 
L 140.472881 155.265867 
L 140.322598 154.734407 
L 140.172316 154.184057 
L 140.022033 153.612812 
L 139.871751 153.018282 
L 139.771237 152.606236 
L 139.670724 152.18147 
L 139.57021 151.7428 
L 139.469697 151.288845 
L 139.390722 150.920394 
L 139.311748 150.540583 
L 139.232774 150.148344 
L 139.153799 149.742425 
L 139.074825 149.321351 
L 138.99585 148.883353 
L 138.916876 148.42629 
L 138.837902 147.947522 
L 138.784812 147.611849 
L 138.731722 147.263654 
L 138.678632 146.901461 
L 138.625542 146.523476 
L 138.553119 145.978277 
L 138.516907 145.690854 
L 138.480695 145.392016 
L 138.444483 145.080306 
L 138.408271 144.753933 
L 138.37206 144.410639 
L 138.335848 144.047522 
L 138.299636 143.660737 
L 138.263424 143.245005 
L 138.245319 143.024037 
L 138.227213 142.792724 
L 138.209107 142.549474 
L 138.191001 142.292233 
L 138.172895 142.018286 
L 138.154789 141.723901 
L 138.136683 141.403707 
L 138.118577 141.049459 
L 138.100471 140.647281 
L 138.082366 140.17012 
L 138.06426 139.548134 
L 138.046154 138.046154 
L 138.046154 146.393802 
L 138.657173 146.045612 
L 138.95895 145.876994 
L 139.324042 145.675919 
L 140.03559 145.293101 
L 140.523179 145.037588 
L 140.945395 144.82074 
L 141.541367 144.521521 
L 141.906443 144.342149 
L 142.498621 144.057444 
L 142.620098 143.999988 
L 143.3353 143.668171 
L 143.607173 143.544906 
L 144.325475 143.226738 
L 144.484443 143.157782 
L 145.034356 142.923278 
L 145.673177 142.658637 
L 146.15708 142.463671 
L 146.421265 142.359211 
L 146.957391 142.151485 
L 147.572679 141.920059 
L 147.933273 141.787859 
L 148.311126 141.652028 
L 148.719951 141.508149 
L 149.545365 141.227339 
L 149.887648 141.114657 
L 150.264724 140.993052 
L 150.793316 140.827024 
L 151.067465 140.742944 
L 151.609641 140.58071 
L 152.19783 140.41075 
L 152.829993 140.235036 
L 153.071938 140.169678 
L 153.535975 140.047239 
L 153.895682 139.954952 
L 154.569601 139.78818 
L 154.891915 139.711227 
L 155.332552 139.60895 
L 156.062316 139.446952 
L 156.194004 139.418695 
L 156.767566 139.299091 
L 157.397473 139.174202 
L 157.808499 139.096339 
L 158.336126 139.000568 
L 158.654551 138.945035 
L 159.332287 138.832494 
L 159.838585 138.753421 
L 159.917807 138.741433 
L 160.437308 138.665405 
L 160.979199 138.590856 
L 161.508169 138.522752 
L 162.153326 138.445907 
L 162.413586 138.416837 
L 163.127044 138.342817 
L 163.413392 138.315441 
L 164.083248 138.256605 
L 164.341813 138.235841 
L 164.813417 138.200758 
L 165.203304 138.174469 
L 165.710262 138.143957 
L 166.17226 138.119761 
L 166.57109 138.101639 
L 167.199411 138.07828 
L 167.495158 138.069482 
L 167.908394 138.059542 
L 168.363683 138.051767 
L 169.262492 138.046185 
L 169.640567 138.047711 
L 169.972191 138.050939 
L 170.228755 138.054647 
L 170.729293 138.064924 
L 171.512826 138.089094 
L 171.956298 138.107149 
L 172.176411 138.117285 
L 173.029473 138.163946 
L 173.257187 138.178387 
L 173.756146 138.212957 
L 174.036505 138.234149 
L 174.620035 138.282341 
L 175.10923 138.327001 
L 175.564802 138.372092 
L 176.299544 138.451948 
L 176.391799 138.462598 
L 176.99986 138.536286 
L 177.559425 138.609466 
L 178.016571 138.673083 
L 178.549468 138.751606 
L 178.871567 138.801354 
L 179.33731 138.876342 
L 179.822768 138.958363 
L 180.137766 139.013698 
L 180.664354 139.109931 
L 181.054048 139.184164 
L 181.50704 139.273692 
L 182.203809 139.418229 
L 182.447659 139.470778 
L 183.221184 139.644251 
L 183.691917 139.754895 
L 184.101728 139.854367 
L 184.750452 140.017854 
L 184.913544 140.060123 
L 185.532496 140.224834 
L 185.881671 140.320769 
L 186.425771 140.474623 
L 186.877218 140.60634 
L 187.267538 140.723211 
L 188.06358 140.97023 
L 188.4826 141.104966 
L 188.783932 141.203883 
L 189.436774 141.424045 
L 189.922796 141.593194 
L 189.96955 141.609703 
L 190.672097 141.862842 
L 191.255714 142.080404 
L 191.639811 142.227231 
L 191.913502 142.333631 
L 192.624487 142.617013 
L 192.788918 142.683997 
L 193.344011 142.91418 
L 193.739564 143.082053 
L 194.419917 143.378375 
L 194.746198 143.523922 
L 195.276896 143.765473 
L 195.99958 144.104126 
L 196.097556 144.15091 
L 196.759294 144.47242 
L 197.363402 144.774432 
L 197.504196 144.846 
L 198.27026 145.243334 
L 198.496524 145.363282 
L 199.312059 145.805588 
L 199.391961 145.849773 
L 199.86878 146.116641 
L 200.414049 146.428605 
L 200.948565 146.741561 
L 201.302612 146.952808 
L 201.919278 147.328406 
L 202.418242 147.639551 
L 203.001823 148.011843 
L 203.513021 148.345528 
L 203.672752 148.451266 
L 204.263922 148.848799 
L 204.909705 149.294416 
L 205.365356 149.616133 
L 205.488427 149.704082 
L 205.939592 150.030383 
L 206.40777 150.375547 
L 207.109048 150.905362 
L 207.549331 151.246033 
L 207.8376 151.472517 
L 208.522229 152.02155 
L 209.192094 152.574343 
L 209.663651 152.973033 
L 209.945525 153.215213 
L 210.418088 153.62786 
L 210.771937 153.942398 
L 211.543804 154.645523 
L 211.743821 154.831634 
L 212.395872 155.449891 
L 212.61895 155.665556 
L 213.147772 156.185511 
L 213.843207 156.888543 
L 214.155513 157.211636 
L 214.702715 157.789172 
L 214.98727 158.095422 
L 215.685783 158.865047 
L 216.110767 159.346183 
L 216.594665 159.906421 
L 216.888647 160.253454 
L 217.543349 161.045207 
L 217.817297 161.384538 
L 218.188237 161.851884 
L 218.566891 162.338605 
L 218.945545 162.83546 
L 219.23545 163.222967 
L 219.722172 163.88799 
L 220.107236 164.427507 
L 220.62809 165.177148 
L 221.011724 165.744689 
L 221.576678 166.605777 
L 221.928134 167.157574 
L 222.301298 167.757824 
L 222.674463 168.373691 
L 223.16478 169.208203 
L 223.583141 169.944595 
L 224.068516 170.829374 
L 224.472314 171.592416 
L 224.810245 172.25137 
L 225.206158 173.048925 
L 225.602071 173.876406 
L 225.683003 174.049495 
L 225.888957 174.49634 
L 226.094912 174.952714 
L 226.300867 175.419141 
L 226.506822 175.896194 
L 226.825837 176.657613 
L 227.079304 177.283633 
L 227.262063 177.747534 
L 227.444823 178.222666 
L 227.627582 178.709767 
L 227.810342 179.209666 
L 228.057625 179.908101 
L 228.202535 180.330125 
L 228.347445 180.76231 
L 228.492355 181.205342 
L 228.637264 181.659993 
L 228.802627 182.194127 
L 228.967989 182.746007 
L 229.163089 183.422325 
L 229.35819 184.129152 
L 229.55329 184.870666 
L 229.650841 185.256019 
L 229.748391 185.652115 
L 229.876135 186.188564 
L 230.003878 186.747344 
L 230.131622 187.33133 
L 230.259366 187.944078 
L 230.32745 188.283909 
L 230.395534 188.633984 
L 230.502199 189.205355 
L 230.608865 189.808714 
L 230.662198 190.124147 
L 230.715531 190.449908 
L 230.768864 190.787052 
L 230.822196 191.136828 
L 230.875529 191.500734 
L 230.928862 191.880588 
L 230.982195 192.278643 
L 231.035528 192.697736 
L 231.088861 193.141534 
L 231.142193 193.614916 
L 231.16886 193.864707 
L 231.195526 194.124622 
L 231.222193 194.395984 
L 231.248859 194.680435 
L 231.281213 195.046165 
L 231.313567 195.43925 
L 231.329745 195.648172 
L 231.345922 195.866871 
L 231.362099 196.096851 
L 231.378276 196.340052 
L 231.394453 196.599041 
L 231.41063 196.877346 
L 231.426807 197.180044 
L 231.442984 197.514927 
L 231.451073 197.698194 
L 231.459161 197.895111 
L 231.46725 198.109265 
L 231.475338 198.346167 
L 231.483427 198.615088 
L 231.491515 198.93411 
L 231.499604 199.349909 
L 231.507692 200.353846 
z
" style="fill:#808080;opacity:0.5;"/>
   </g>
   <g id="matplotlib.axis_1"/>
   <g id="matplotlib.axis_2"/>
   <g id="line2d_1">
    <path clip-path="url(#p41d6564e37)" d="M 106.892308 84.086109 
L 110.352848 82.231019 
L 113.702559 80.690789 
L 117.476543 79.231703 
L 120.941759 78.132147 
L 124.196958 77.297094 
L 127.652423 76.611482 
L 131.604068 76.072385 
L 135.573826 75.787531 
L 139.140315 75.748069 
L 143.048467 75.939589 
L 146.838497 76.361932 
L 150.561667 77.008375 
L 154.148052 77.85498 
L 157.959711 79.006347 
L 161.267798 80.227439 
L 164.823319 81.78576 
L 168.19154 83.516307 
L 171.213854 85.300043 
L 174.219744 87.314311 
L 177.215709 89.590045 
L 180.219333 92.180355 
L 182.877827 94.775268 
L 185.423039 97.577904 
L 187.546632 100.205023 
L 189.770783 103.306964 
L 191.895879 106.702006 
L 193.562514 109.758661 
L 195.193505 113.21817 
L 196.577847 116.685221 
L 197.834361 120.50709 
L 198.821858 124.314356 
L 199.53324 127.967128 
L 200.014326 131.550447 
L 200.297259 135.391276 
L 200.353846 138.046154 
L 200.353846 138.046154 
" style="fill:none;stroke:#0000ff;stroke-linecap:square;"/>
   </g>
   <g id="line2d_2">
    <path clip-path="url(#p41d6564e37)" d="M 75.738462 138.046154 
L 75.871795 133.972143 
L 76.216 130.346765 
L 76.796088 126.614711 
L 77.605057 122.909367 
L 78.647162 119.231045 
L 79.873085 115.727047 
L 81.395469 112.104905 
L 83.12936 108.611578 
L 84.918548 105.493027 
L 86.873499 102.498891 
L 89.116571 99.469679 
L 91.551278 96.567544 
L 94.011104 93.964832 
L 96.760897 91.379505 
L 99.615207 89.002186 
L 102.592304 86.808735 
L 105.795363 84.734476 
L 106.892308 84.086109 
L 106.892308 84.086109 
" style="fill:none;stroke:#0000ff;stroke-linecap:square;"/>
   </g>
   <g id="line2d_3">
    <path clip-path="url(#p41d6564e37)" d="M 75.738462 138.046154 
L 75.864161 142.001951 
L 76.20084 145.622809 
L 76.757349 149.268051 
L 77.529487 152.877928 
L 78.552287 156.559077 
L 79.732629 159.995673 
L 81.026212 163.165365 
L 82.595935 166.463081 
L 84.505789 169.915855 
L 86.609544 173.210393 
L 88.796921 176.2137 
L 91.085344 178.9965 
L 93.653182 181.767003 
L 96.372771 184.366535 
L 99.244235 186.79715 
L 102.291382 189.074036 
L 105.429045 191.134502 
L 106.892308 192.006198 
L 106.892308 192.006198 
" style="fill:none;stroke:#0000ff;stroke-linecap:square;"/>
   </g>
   <g id="line2d_4">
    <path clip-path="url(#p41d6564e37)" d="M 138.046154 146.393802 
L 141.541367 144.521521 
L 145.034356 142.923278 
L 148.719951 141.508149 
L 152.19783 140.41075 
L 156.062316 139.446952 
L 159.332287 138.832494 
L 163.127044 138.342817 
L 166.57109 138.101639 
L 170.228755 138.054647 
L 174.036505 138.234149 
L 178.016571 138.673083 
L 181.50704 139.273692 
L 184.913544 140.060123 
L 188.783932 141.203883 
L 191.913502 142.333631 
L 195.276896 143.765473 
L 198.496524 145.363282 
L 201.919278 147.328406 
L 204.909705 149.294416 
L 207.8376 151.472517 
L 210.771937 153.942398 
L 213.843207 156.888543 
L 216.110767 159.346183 
L 218.566891 162.338605 
L 220.62809 165.177148 
L 222.674463 168.373691 
L 224.472314 171.592416 
L 226.094912 174.952714 
L 227.444823 178.222666 
L 228.637264 181.659993 
L 229.650841 185.256019 
L 230.395534 188.633984 
L 230.982195 192.278643 
L 231.362099 196.096851 
L 231.499604 199.349909 
L 231.507692 200.353846 
L 231.507692 200.353846 
" style="fill:none;stroke:#228b22;stroke-linecap:square;"/>
   </g>
   <g id="line2d_5">
    <path clip-path="url(#p41d6564e37)" d="M 200.353846 254.313891 
L 203.553586 252.335378 
L 206.562125 250.21686 
L 209.537055 247.842482 
L 212.347789 245.304005 
L 215.027679 242.568445 
L 217.488667 239.729641 
L 219.737018 236.799125 
L 221.876241 233.6324 
L 223.763901 230.43755 
L 225.44615 227.160918 
L 226.975187 223.683575 
L 228.239731 220.267626 
L 229.347374 216.618592 
L 230.225516 212.929016 
L 230.847415 209.400653 
L 231.281699 205.655846 
L 231.487926 201.92319 
L 231.507692 200.353846 
L 231.507692 200.353846 
" style="fill:none;stroke:#228b22;stroke-linecap:square;"/>
   </g>
   <g id="text_1">
    <!-- $\Omega$ -->
    <g transform="translate(16.011538 22.420913)scale(0.1 -0.1)">
     <defs>
      <path d="M 7.71875 0 
L 4.390625 16.609375 
L 7.328125 16.609375 
Q 7.859375 13.71875 8.296875 11.5 
Q 8.734375 9.28125 9.4375 8.375 
Q 10.15625 7.46875 11.71875 7.171875 
Q 13.28125 6.890625 16.890625 6.890625 
L 23 6.890625 
Q 21.53125 12.546875 15.6875 21.65625 
Q 9.859375 30.765625 7.734375 34.890625 
Q 5.609375 39.015625 5.609375 45.515625 
Q 5.609375 53.078125 10.09375 58.765625 
Q 14.59375 64.453125 21.703125 67.484375 
Q 28.8125 70.515625 36.078125 70.515625 
Q 43.3125 70.515625 50.40625 67.484375 
Q 57.515625 64.453125 62 58.71875 
Q 66.5 52.984375 66.5 45.515625 
Q 66.5 40.4375 64.640625 35.9375 
Q 62.796875 31.453125 59.90625 26.953125 
Q 57.03125 22.46875 53.6875 16.9375 
Q 50.34375 11.421875 49.125 6.890625 
L 55.171875 6.890625 
Q 58.84375 6.890625 60.453125 7.171875 
Q 62.0625 7.46875 62.734375 8.375 
Q 63.421875 9.28125 63.84375 11.5 
Q 64.265625 13.71875 64.796875 16.609375 
L 67.671875 16.609375 
L 64.40625 0 
L 46.6875 0 
Q 45.703125 0 45.703125 1.3125 
Q 45.703125 6.390625 46.9375 11.265625 
Q 48.1875 16.15625 50.625 23.09375 
Q 53.078125 30.03125 54.4375 35.328125 
Q 55.8125 40.625 55.8125 45.515625 
Q 55.8125 51.515625 53.46875 56.640625 
Q 51.125 61.765625 46.625 64.84375 
Q 42.140625 67.921875 36.078125 67.921875 
Q 26.953125 67.921875 21.625 61.40625 
Q 16.3125 54.890625 16.3125 45.515625 
Q 16.359375 40.375 17.53125 35.828125 
Q 18.703125 31.296875 21.3125 23.71875 
Q 23.921875 16.15625 25.171875 11.265625 
Q 26.421875 6.390625 26.421875 1.3125 
Q 26.421875 0 25.390625 0 
z
" id="Cmr10-173"/>
     </defs>
     <use transform="translate(0 0.484375)" xlink:href="#Cmr10-173"/>
    </g>
   </g>
   <g id="text_2">
    <!-- $A$ -->
    <g style="fill:#0000ff;" transform="translate(103.142308 78.497837)scale(0.1 -0.1)">
     <defs>
      <path d="M 4.5 0 
Q 3.515625 0 3.515625 1.3125 
Q 3.90625 3.515625 4.78125 3.515625 
Q 8.84375 3.515625 11.796875 5.125 
Q 14.75 6.734375 16.890625 10.109375 
Q 17.09375 10.296875 17.09375 10.296875 
L 52.78125 70.515625 
Q 53.5625 71.578125 54.6875 71.578125 
L 56 71.578125 
Q 56.296875 71.578125 56.59375 71.453125 
Q 56.890625 71.34375 57.109375 71.0625 
Q 57.328125 70.796875 57.328125 70.515625 
L 63.375 5.90625 
Q 63.375 5.46875 63.8125 4.59375 
Q 64.796875 3.515625 71.296875 3.515625 
Q 72.3125 3.515625 72.3125 2.203125 
Q 71.96875 0.875 71.75 0.4375 
Q 71.53125 0 70.609375 0 
L 45.609375 0 
Q 44.671875 0 44.671875 1.3125 
Q 45.21875 3.515625 46 3.515625 
Q 53.90625 3.515625 54.390625 6.203125 
L 52.875 22.703125 
L 28.21875 22.703125 
L 20.21875 9.28125 
Q 19.484375 8.203125 19.484375 6.78125 
Q 19.484375 5.03125 21.171875 4.265625 
Q 22.859375 3.515625 24.90625 3.515625 
Q 25.875 3.515625 25.875 2.203125 
Q 25.53125 0.78125 25.328125 0.390625 
Q 25.140625 0 24.21875 0 
z
M 30.171875 26.21875 
L 52.484375 26.21875 
L 49.515625 58.59375 
z
" id="Cmmi10-65"/>
     </defs>
     <use transform="translate(0 0.421875)" xlink:href="#Cmmi10-65"/>
    </g>
   </g>
   <g id="text_3">
    <!-- $B$ -->
    <g style="fill:#ff0000;" transform="translate(227.707692 78.497837)scale(0.1 -0.1)">
     <defs>
      <path d="M 4.984375 0 
Q 4 0 4 1.3125 
Q 4.046875 1.5625 4.1875 2.140625 
Q 4.34375 2.734375 4.578125 3.125 
Q 4.828125 3.515625 5.328125 3.515625 
Q 8.15625 3.515625 10.25 3.65625 
Q 12.359375 3.8125 13.8125 4.203125 
Q 14.984375 4.640625 15.71875 6.890625 
L 29.390625 61.8125 
Q 29.59375 62.796875 29.59375 63.1875 
Q 29.59375 64.265625 28.421875 64.40625 
Q 26.515625 64.796875 21.1875 64.796875 
Q 20.21875 64.796875 20.21875 66.109375 
Q 20.265625 66.359375 20.40625 66.96875 
Q 20.5625 67.578125 20.828125 67.9375 
Q 21.09375 68.3125 21.484375 68.3125 
L 57.328125 68.3125 
Q 60.59375 68.3125 63.796875 67.5 
Q 67 66.703125 69.703125 64.9375 
Q 72.40625 63.1875 74 60.5625 
Q 75.59375 57.953125 75.59375 54.5 
Q 75.59375 50.734375 73.65625 47.5 
Q 71.734375 44.28125 68.671875 41.890625 
Q 65.625 39.5 62.078125 37.953125 
Q 58.546875 36.421875 54.6875 35.6875 
Q 57.421875 35.6875 60.21875 34.609375 
Q 63.03125 33.546875 65.234375 31.6875 
Q 67.4375 29.828125 68.78125 27.234375 
Q 70.125 24.65625 70.125 21.6875 
Q 70.125 15.671875 65.921875 10.6875 
Q 61.71875 5.71875 55.34375 2.859375 
Q 48.96875 0 43.015625 0 
z
M 23.390625 4.296875 
Q 23.390625 3.515625 26.8125 3.515625 
L 41.109375 3.515625 
Q 46 3.515625 50.484375 6.21875 
Q 54.984375 8.9375 57.6875 13.421875 
Q 60.40625 17.921875 60.40625 22.796875 
Q 60.40625 25.78125 59.15625 28.4375 
Q 57.90625 31.109375 55.5625 32.640625 
Q 53.21875 34.1875 50.203125 34.1875 
L 30.71875 34.1875 
L 23.78125 6.5 
Q 23.390625 5.125 23.390625 4.296875 
z
M 31.390625 36.8125 
L 46.578125 36.8125 
Q 51.375 36.8125 55.890625 39.25 
Q 60.40625 41.703125 63.25 45.890625 
Q 66.109375 50.09375 66.109375 54.78125 
Q 66.109375 59.125 63.390625 61.953125 
Q 60.6875 64.796875 56.390625 64.796875 
L 42.671875 64.796875 
Q 39.984375 64.796875 39.0625 64.296875 
Q 38.140625 63.8125 37.5 61.375 
z
" id="Cmmi10-66"/>
     </defs>
     <use transform="translate(0 0.6875)" xlink:href="#Cmmi10-66"/>
    </g>
   </g>
   <g id="text_4">
    <!-- $C$ -->
    <g style="fill:#228b22;" transform="translate(150.023077 271.651683)scale(0.1 -0.1)">
     <defs>
      <path d="M 14.59375 21.578125 
Q 14.59375 15.578125 16.90625 11.015625 
Q 19.234375 6.453125 23.65625 3.875 
Q 28.078125 1.3125 34.078125 1.3125 
Q 40.375 1.3125 46.203125 4.53125 
Q 52.046875 7.765625 56.171875 13.15625 
Q 60.296875 18.5625 61.8125 24.609375 
Q 62.015625 25.203125 62.59375 25.203125 
L 63.8125 25.203125 
Q 64.203125 25.203125 64.453125 24.921875 
Q 64.703125 24.65625 64.703125 24.3125 
Q 64.703125 24.21875 64.59375 24.03125 
Q 62.890625 17.09375 57.984375 11.015625 
Q 53.078125 4.9375 46.234375 1.359375 
Q 39.40625 -2.203125 32.171875 -2.203125 
Q 24.359375 -2.203125 18.15625 1.3125 
Q 11.96875 4.828125 8.515625 11.078125 
Q 5.078125 17.328125 5.078125 25.203125 
Q 5.078125 33.59375 8.828125 41.8125 
Q 12.59375 50.046875 18.9375 56.46875 
Q 25.296875 62.890625 33.421875 66.703125 
Q 41.546875 70.515625 49.90625 70.515625 
Q 53.21875 70.515625 56.25 69.5 
Q 59.28125 68.5 61.859375 66.453125 
Q 64.453125 64.40625 66.109375 61.71875 
L 74.03125 70.3125 
Q 74.03125 70.515625 74.515625 70.515625 
L 75.09375 70.515625 
Q 75.484375 70.515625 75.734375 70.171875 
Q 75.984375 69.828125 75.984375 69.484375 
L 69.1875 42.484375 
Q 69.1875 41.796875 68.40625 41.796875 
L 66.609375 41.796875 
Q 65.828125 41.796875 65.828125 42.921875 
Q 66.21875 45.125 66.21875 48.1875 
Q 66.21875 53.078125 64.546875 57.390625 
Q 62.890625 61.71875 59.390625 64.359375 
Q 55.90625 67 50.875 67 
Q 42.71875 67 35.9375 62.890625 
Q 29.15625 58.796875 24.4375 52.125 
Q 19.734375 45.453125 17.15625 37.328125 
Q 14.59375 29.203125 14.59375 21.578125 
z
" id="Cmmi10-67"/>
     </defs>
     <use transform="translate(0 0.484375)" xlink:href="#Cmmi10-67"/>
    </g>
   </g>
   <g id="patch_8">
    <path clip-path="url(#p41d6564e37)" d="M 138.046154 200.353846 
C 154.570347 200.353846 170.419977 193.788715 182.104346 182.104346 
C 193.788715 170.419977 200.353846 154.570347 200.353846 138.046154 
C 200.353846 121.521961 193.788715 105.672331 182.104346 93.987962 
C 170.419977 82.303593 154.570347 75.738462 138.046154 75.738462 
C 121.521961 75.738462 105.672331 82.303593 93.987962 93.987962 
C 82.303593 105.672331 75.738462 121.521961 75.738462 138.046154 
C 75.738462 154.570347 82.303593 170.419977 93.987962 182.104346 
C 105.672331 193.788715 121.521961 200.353846 138.046154 200.353846 
z
" style="fill:none;stroke:#0000ff;stroke-linejoin:miter;"/>
   </g>
   <g id="patch_9">
    <path clip-path="url(#p41d6564e37)" d="M 200.353846 200.353846 
C 216.878039 200.353846 232.727669 193.788715 244.412038 182.104346 
C 256.096407 170.419977 262.661538 154.570347 262.661538 138.046154 
C 262.661538 121.521961 256.096407 105.672331 244.412038 93.987962 
C 232.727669 82.303593 216.878039 75.738462 200.353846 75.738462 
C 183.829653 75.738462 167.980023 82.303593 156.295654 93.987962 
C 144.611285 105.672331 138.046154 121.521961 138.046154 138.046154 
C 138.046154 154.570347 144.611285 170.419977 156.295654 182.104346 
C 167.980023 193.788715 183.829653 200.353846 200.353846 200.353846 
z
" style="fill:none;stroke:#ff0000;stroke-linejoin:miter;"/>
   </g>
   <g id="patch_10">
    <path clip-path="url(#p41d6564e37)" d="M 169.2 262.661538 
C 185.724193 262.661538 201.573823 256.096407 213.258192 244.412038 
C 224.942561 232.727669 231.507692 216.878039 231.507692 200.353846 
C 231.507692 183.829653 224.942561 167.980023 213.258192 156.295654 
C 201.573823 144.611285 185.724193 138.046154 169.2 138.046154 
C 152.675807 138.046154 136.826177 144.611285 125.141808 156.295654 
C 113.457439 167.980023 106.892308 183.829653 106.892308 200.353846 
C 106.892308 216.878039 113.457439 232.727669 125.141808 244.412038 
C 136.826177 256.096407 152.675807 262.661538 169.2 262.661538 
z
" style="fill:none;stroke:#228b22;stroke-linejoin:miter;"/>
   </g>
  </g>
 </g>
 <defs>
  <clipPath id="p41d6564e37">
   <rect height="324" width="324" x="7.2" y="7.2"/>
  </clipPath>
 </defs>
</svg>
