<?xml version="1.0" encoding="utf-8" standalone="no"?>
<!DOCTYPE svg PUBLIC "-//W3C//DTD SVG 1.1//EN"
  "http://www.w3.org/Graphics/SVG/1.1/DTD/svg11.dtd">
<!-- Created with matplotlib (https://matplotlib.org/) -->
<svg height="338.4pt" version="1.1" viewBox="0 0 338.4 338.4" width="338.4pt" xmlns="http://www.w3.org/2000/svg" xmlns:xlink="http://www.w3.org/1999/xlink">
 <metadata>
  <rdf:RDF xmlns:cc="http://creativecommons.org/ns#" xmlns:dc="http://purl.org/dc/elements/1.1/" xmlns:rdf="http://www.w3.org/1999/02/22-rdf-syntax-ns#">
   <cc:Work>
    <dc:type rdf:resource="http://purl.org/dc/dcmitype/StillImage"/>
    <dc:date>2024-11-18T20:48:51.325960</dc:date>
    <dc:format>image/svg+xml</dc:format>
    <dc:creator>
     <cc:Agent>
      <dc:title>Matplotlib v3.3.4, https://matplotlib.org/</dc:title>
     </cc:Agent>
    </dc:creator>
   </cc:Work>
  </rdf:RDF>
 </metadata>
 <defs>
  <style type="text/css">*{stroke-linecap:butt;stroke-linejoin:round;}</style>
 </defs>
 <g id="figure_1">
  <g id="patch_1">
   <path d="M -0 338.4 
L 338.4 338.4 
L 338.4 0 
L -0 0 
z
" style="fill:#ffffff;"/>
  </g>
  <g id="axes_1">
   <g id="patch_2">
    <path d="M 7.2 331.2 
L 331.2 331.2 
L 331.2 7.2 
L 7.2 7.2 
z
" style="fill:#ffffff;"/>
   </g>
   <g id="patch_3">
    <path clip-path="url(#pdd7c500012)" d="M 13.430769 324.969231 
L 13.430769 13.430769 
L 324.969231 13.430769 
L 324.969231 324.969231 
z
" style="fill:none;stroke:#000000;stroke-linejoin:miter;"/>
   </g>
   <g id="patch_4">
    <path clip-path="url(#pdd7c500012)" d="M 169.2 192.006198 
L 169.022311 192.108398 
L 168.661628 192.313467 
L 168.20614 192.567927 
L 168.00419 192.679153 
L 167.657174 192.868011 
L 167.213905 193.105129 
L 167.090421 193.170369 
L 166.665805 193.392012 
L 166.480645 193.487368 
L 166.153707 193.653833 
L 165.713267 193.874277 
L 165.326458 194.064307 
L 165.231205 194.110595 
L 164.740639 194.345825 
L 164.411441 194.500739 
L 164.285859 194.559218 
L 163.997496 194.692216 
L 163.70958 194.823236 
L 163.381598 194.970347 
L 163.02045 195.129716 
L 162.47018 195.367314 
L 162.349583 195.41855 
L 161.936905 195.591619 
L 161.562586 195.745599 
L 161.277663 195.860905 
L 160.953502 195.990109 
L 160.800325 196.050432 
L 160.48862 196.171744 
L 160.022278 196.349657 
L 159.887399 196.400318 
L 159.388316 196.584694 
L 159.217863 196.646557 
L 158.737709 196.817814 
L 158.579695 196.873207 
L 158.181626 197.010646 
L 158.043982 197.05747 
L 157.529083 197.229462 
L 157.223066 197.329326 
L 156.948888 197.417318 
L 156.60755 197.524916 
L 156.243976 197.637158 
L 156.184616 197.655253 
L 155.639784 197.818327 
L 155.415266 197.883955 
L 154.986439 198.006768 
L 154.87862 198.037125 
L 154.491711 198.144341 
L 154.322632 198.190354 
L 153.998242 198.277204 
L 153.476077 198.413082 
L 153.274461 198.464257 
L 153.054293 198.519324 
L 152.611378 198.627527 
L 152.200431 198.724857 
L 151.998319 198.771648 
L 151.799463 198.816994 
L 151.428805 198.899692 
L 150.966337 198.999557 
L 150.776703 199.039446 
L 150.441558 199.108437 
L 150.027325 199.191064 
L 149.68287 199.257553 
L 149.434691 199.304212 
L 149.042502 199.375827 
L 148.913585 199.398802 
L 148.589884 199.45526 
L 148.152336 199.528782 
L 147.780922 199.588682 
L 147.519555 199.629457 
L 147.417248 199.645108 
L 146.896533 199.722075 
L 146.576932 199.767093 
L 146.362802 199.796311 
L 146.120026 199.828523 
L 145.57821 199.896915 
L 145.391434 199.919374 
L 145.1181 199.951211 
L 144.691785 199.998427 
L 144.47626 200.021167 
L 144.112704 200.05781 
L 143.732116 200.093864 
L 143.440692 200.11988 
L 143.257967 200.135489 
L 142.784376 200.173425 
L 142.653463 200.18327 
L 142.413353 200.200607 
L 141.819803 200.239466 
L 141.667117 200.248542 
L 141.328107 200.26735 
L 141.145833 200.276697 
L 140.784918 200.293625 
L 140.325426 200.312143 
L 140.076271 200.320765 
L 139.790867 200.329414 
L 139.537063 200.336006 
L 139.207172 200.343028 
L 138.751368 200.349855 
L 138.631158 200.3511 
L 138.182937 200.353696 
L 137.811623 200.353405 
L 137.544192 200.351824 
L 137.218807 200.348353 
L 136.981053 200.344742 
L 136.573337 200.336437 
L 136.46564 200.333797 
L 135.936578 200.318124 
L 135.691877 200.309352 
L 135.336701 200.294908 
L 135.096432 200.283985 
L 134.893407 200.274031 
L 134.565631 200.256559 
L 134.053683 200.225802 
L 133.834005 200.211307 
L 133.451999 200.184244 
L 133.345757 200.176298 
L 132.797781 200.132409 
L 132.59558 200.114985 
L 132.358778 200.093735 
L 131.981549 200.058 
L 131.589765 200.018434 
L 131.460125 200.004791 
L 130.991933 199.953233 
L 130.618189 199.909502 
L 130.240243 199.86295 
L 130.065365 199.840616 
L 129.748361 199.798847 
L 129.33062 199.741275 
L 128.999309 199.693563 
L 128.811642 199.665731 
L 128.463711 199.612584 
L 128.096712 199.554341 
L 127.794397 199.504677 
L 127.640779 199.478854 
L 127.367696 199.431975 
L 126.984333 199.364052 
L 126.618525 199.296932 
L 126.329913 199.242381 
L 126.104853 199.198863 
L 125.665737 199.111478 
L 125.468164 199.071089 
L 125.107374 198.995612 
L 124.801959 198.929976 
L 124.371082 198.834647 
L 124.007898 198.751803 
L 123.816008 198.707109 
L 123.636524 198.664724 
L 123.266093 198.575472 
L 122.975982 198.503895 
L 122.54482 198.394784 
L 122.093013 198.276925 
L 122.036258 198.261864 
L 121.613826 198.14796 
L 121.223255 198.039808 
L 120.867691 197.938966 
L 120.82252 197.925992 
L 120.435198 197.813225 
L 119.993802 197.681388 
L 119.721689 197.598337 
L 119.396203 197.497208 
L 119.069621 197.393771 
L 118.736881 197.286347 
L 118.439094 197.188454 
L 118.162756 197.096124 
L 117.782346 196.966665 
L 117.531046 196.879638 
L 117.129958 196.738243 
L 116.893904 196.653584 
L 116.565899 196.534163 
L 116.321308 196.443753 
L 115.884956 196.279562 
L 115.75958 196.231695 
L 115.374543 196.082751 
L 115.115512 195.980895 
L 114.708487 195.818135 
L 114.390346 195.688597 
L 114.176772 195.600486 
L 113.762871 195.42708 
L 113.429405 195.284814 
L 113.027158 195.110139 
L 112.92221 195.06401 
L 112.41732 194.838859 
L 112.06938 194.680558 
L 111.868752 194.588104 
L 111.697147 194.508339 
L 111.136016 194.243067 
L 110.945115 194.151254 
L 110.716895 194.04044 
L 110.38911 193.879266 
L 110.118177 193.744238 
L 109.866479 193.61732 
L 109.368325 193.36189 
L 109.026679 193.183424 
L 108.696504 193.008382 
L 108.588475 192.950559 
L 108.209059 192.745297 
L 107.813403 192.527612 
L 107.374525 192.281748 
L 107.097194 192.123972 
L 106.892308 192.006198 
L 106.892308 200.353846 
L 106.903282 201.523242 
L 106.914257 202.007549 
L 106.925232 202.379121 
L 106.936206 202.692329 
L 106.947181 202.968234 
L 106.958155 203.217638 
L 106.96913 203.446959 
L 106.980105 203.660377 
L 106.991079 203.860797 
L 107.002054 204.050334 
L 107.013029 204.230585 
L 107.024003 204.402789 
L 107.045952 204.726819 
L 107.067902 205.028338 
L 107.089851 205.311457 
L 107.1118 205.579165 
L 107.133749 205.833724 
L 107.155699 206.076887 
L 107.177648 206.31005 
L 107.199597 206.534345 
L 107.221546 206.750706 
L 107.243496 206.959911 
L 107.27298 207.230816 
L 107.302464 207.491326 
L 107.331949 207.742538 
L 107.361433 207.985372 
L 107.390918 208.220603 
L 107.420402 208.448894 
L 107.479371 208.886868 
L 107.530557 209.249258 
L 107.581744 209.597169 
L 107.63293 209.932177 
L 107.684117 210.255594 
L 107.735303 210.568519 
L 107.786489 210.87189 
L 107.837676 211.16651 
L 107.888862 211.453076 
L 107.982394 211.957865 
L 108.075926 212.440869 
L 108.145214 212.786128 
L 108.214502 213.121678 
L 108.28379 213.448267 
L 108.353078 213.766547 
L 108.454664 214.219367 
L 108.556251 214.657138 
L 108.657837 215.081202 
L 108.759423 215.492711 
L 108.852173 215.858306 
L 108.944922 216.214935 
L 109.045921 216.593775 
L 109.146919 216.963362 
L 109.247918 217.324302 
L 109.348916 217.677134 
L 109.531683 218.296546 
L 109.71445 218.893475 
L 109.827287 219.251716 
L 109.940124 219.60263 
L 110.114729 220.1321 
L 110.289334 220.646258 
L 110.506101 221.264962 
L 110.735043 221.896763 
L 110.963984 222.508191 
L 111.230787 223.197201 
L 111.418899 223.668925 
L 111.607012 224.129805 
L 111.812094 224.620629 
L 112.017176 225.100021 
L 112.078113 225.240361 
L 112.396286 225.958271 
L 112.678714 226.575836 
L 112.961142 227.176214 
L 113.212655 227.697322 
L 113.423002 228.123885 
L 113.721062 228.714664 
L 113.959066 229.175501 
L 114.19707 229.627149 
L 114.369907 229.949612 
L 114.580313 230.336146 
L 114.790719 230.716301 
L 115.121588 231.301768 
L 115.375132 231.740661 
L 115.525387 231.996925 
L 115.826563 232.502325 
L 116.127738 232.997123 
L 116.167567 233.06179 
L 116.477721 233.559414 
L 116.768119 234.016086 
L 117.058518 234.464172 
L 117.300891 234.831824 
L 117.553097 235.208486 
L 117.784952 235.549604 
L 118.210536 236.163386 
L 118.461442 236.518017 
L 118.927245 237.162794 
L 119.251977 237.602249 
L 119.265673 237.620608 
L 119.835515 238.372212 
L 120.180036 238.815407 
L 120.340416 239.018941 
L 120.527676 239.254404 
L 121.130627 239.997054 
L 121.240731 240.130184 
L 121.667518 240.639224 
L 121.818407 240.816584 
L 122.326613 241.404231 
L 122.4184 241.508803 
L 122.904112 242.054436 
L 123.269979 242.457073 
L 123.362269 242.55753 
L 123.916263 243.151412 
L 124.258128 243.510267 
L 124.549087 243.811233 
L 124.829423 244.097422 
L 124.937708 244.206988 
L 125.50569 244.772939 
L 125.790872 245.051678 
L 126.113629 245.36288 
L 126.257646 245.500305 
L 126.670226 245.889182 
L 126.80576 246.015394 
L 127.390581 246.551476 
L 127.694548 246.824762 
L 127.788749 246.908726 
L 128.045556 247.135897 
L 128.427964 247.469551 
L 128.808111 247.795851 
L 129.160993 248.094043 
L 129.333396 248.238106 
L 129.764473 248.593744 
L 130.129806 248.890105 
L 130.257557 248.992665 
L 130.806863 249.427419 
L 130.864687 249.472603 
L 131.395734 249.882484 
L 131.652565 250.077468 
L 132.048343 250.373871 
L 132.393713 250.628549 
L 132.720452 250.866133 
L 132.806571 250.928215 
L 133.251098 251.245152 
L 133.601296 251.490729 
L 133.895294 251.694145 
L 134.020918 251.780305 
L 134.518155 252.116943 
L 134.842841 252.333017 
L 135.121705 252.516269 
L 135.229528 252.586552 
L 135.731499 252.909607 
L 135.950684 253.048547 
L 136.467297 253.371001 
L 136.60962 253.458607 
L 136.831907 253.594386 
L 137.259449 253.851974 
L 137.606888 254.057885 
L 137.954294 254.260751 
L 138.098162 254.343884 
L 138.567731 254.611681 
L 138.683033 254.676615 
L 139.018405 254.86366 
L 139.360021 255.051416 
L 139.79756 255.287852 
L 139.982951 255.386678 
L 140.271113 255.538699 
L 140.609207 255.714618 
L 141.09863 255.96465 
L 141.34131 256.086619 
L 141.688191 256.258666 
L 141.829527 256.327998 
L 142.425152 256.615343 
L 142.700295 256.74546 
L 142.780647 256.78315 
L 143.113759 256.937912 
L 143.414998 257.075819 
L 143.792608 257.245963 
L 144.112083 257.387564 
L 144.368481 257.499661 
L 144.779105 257.676341 
L 145.095248 257.809998 
L 145.310484 257.899824 
L 145.760112 258.084429 
L 145.880951 258.133345 
L 146.3155 258.306828 
L 146.742154 258.473496 
L 147.098432 258.609912 
L 147.270126 258.674761 
L 147.568601 258.786124 
L 148.063402 258.966923 
L 148.305621 259.053705 
L 148.414302 259.092277 
L 148.931051 259.272589 
L 149.10371 259.331703 
L 149.59203 259.495845 
L 149.838767 259.577078 
L 150.17084 259.68461 
L 150.467963 259.779087 
L 150.587255 259.816559 
L 151.162261 259.993502 
L 151.505847 260.096339 
L 151.71283 260.157252 
L 151.989086 260.237341 
L 152.298826 260.325497 
L 152.500394 260.381937 
L 152.857747 260.480207 
L 153.364258 260.61559 
L 153.673683 260.696054 
L 153.876962 260.747994 
L 154.319753 260.858613 
L 154.374521 260.872056 
L 154.804025 260.975661 
L 155.011539 261.024565 
L 155.305714 261.092609 
L 155.87316 261.219632 
L 156.183568 261.286769 
L 156.397046 261.331981 
L 156.644037 261.383317 
L 156.981493 261.451772 
L 157.365023 261.527221 
L 157.567284 261.566005 
L 157.904817 261.629187 
L 158.15272 261.674366 
L 158.683864 261.767683 
L 158.95477 261.813457 
L 159.257913 261.863223 
L 159.345195 261.877267 
L 159.673361 261.928936 
L 160.205866 262.008968 
L 160.357825 262.030944 
L 160.792386 262.091683 
L 161.195883 262.145291 
L 161.440587 262.176496 
L 161.551347 262.190297 
L 162.101673 262.255884 
L 162.348321 262.283669 
L 162.472944 262.29733 
L 163.042263 262.356514 
L 163.125233 262.364698 
L 163.423818 262.393223 
L 163.942582 262.439336 
L 164.053244 262.448608 
L 164.386298 262.475314 
L 164.920209 262.51438 
L 165.077555 262.525013 
L 165.524281 262.553023 
L 165.738026 262.565286 
L 166.085746 262.583662 
L 166.517165 262.603753 
L 166.718222 262.612093 
L 167.15745 262.62805 
L 167.437253 262.636599 
L 167.559627 262.639942 
L 167.946119 262.648921 
L 168.207795 262.653638 
L 168.427226 262.656746 
L 168.903791 262.660834 
L 169.2 262.661538 
z
" style="fill:#808080;opacity:0.5;"/>
   </g>
   <g id="patch_5">
    <path clip-path="url(#pdd7c500012)" d="M 231.507692 192.006198 
L 231.039539 192.273793 
L 231.033016 192.277483 
L 230.673618 192.479232 
L 230.325835 192.6715 
L 229.907635 192.898885 
L 229.699917 193.010293 
L 229.340469 193.200702 
L 228.90124 193.429318 
L 228.696701 193.534271 
L 228.353299 193.708342 
L 227.912888 193.927705 
L 227.880923 193.943457 
L 227.415179 194.170416 
L 227.258511 194.245687 
L 226.780612 194.471986 
L 226.387474 194.654446 
L 226.240544 194.721787 
L 225.931524 194.861917 
L 225.674867 194.976765 
L 225.275395 195.152764 
L 224.998677 195.272728 
L 224.733456 195.38622 
L 224.18834 195.614942 
L 224.002328 195.691603 
L 223.788599 195.778821 
L 223.254972 195.992568 
L 223.155857 196.031642 
L 222.752875 196.188497 
L 222.463306 196.299225 
L 222.192683 196.40122 
L 221.94514 196.493263 
L 221.564859 196.632342 
L 221.033883 196.821868 
L 220.766053 196.915418 
L 220.591636 196.975606 
L 220.339077 197.061737 
L 219.887989 197.212578 
L 219.763211 197.253629 
L 219.203774 197.434105 
L 219.044219 197.484513 
L 218.781679 197.566432 
L 218.347999 197.698974 
L 218.193692 197.745303 
L 217.574839 197.926751 
L 217.542293 197.936101 
L 217.098936 198.061573 
L 216.826643 198.136881 
L 216.526522 198.218349 
L 216.145878 198.319367 
L 215.983381 198.361709 
L 215.488239 198.48785 
L 215.106704 198.582108 
L 214.838476 198.646847 
L 214.630773 198.696116 
L 214.231694 198.788675 
L 213.982073 198.845167 
L 213.811086 198.883241 
L 213.338807 198.985791 
L 213.07272 199.041881 
L 212.735865 199.111153 
L 212.530146 199.152506 
L 212.121476 199.23252 
L 211.639802 199.323195 
L 211.610697 199.328548 
L 211.213795 199.400127 
L 210.894815 199.455734 
L 210.402789 199.538164 
L 210.308372 199.553519 
L 209.929556 199.613632 
L 209.59741 199.664374 
L 209.177338 199.725928 
L 208.913835 199.763049 
L 208.6097 199.804468 
L 208.408441 199.831039 
L 208.038655 199.878122 
L 207.688089 199.920683 
L 207.359762 199.958719 
L 206.935 200.005309 
L 206.66362 200.033534 
L 206.59757 200.040222 
L 206.233774 200.075784 
L 205.843305 200.111558 
L 205.516649 200.139583 
L 205.16354 200.167932 
L 204.862849 200.190481 
L 204.605321 200.20863 
L 204.188705 200.235722 
L 204.035011 200.245009 
L 203.506712 200.274025 
L 203.358353 200.281365 
L 203.161421 200.29056 
L 202.593311 200.313588 
L 202.407172 200.320004 
L 202.076119 200.330039 
L 201.751423 200.33817 
L 201.517341 200.342982 
L 201.079456 200.349621 
L 200.855322 200.351828 
L 200.665919 200.353065 
L 200.069858 200.353199 
L 199.949798 200.352536 
L 199.641978 200.349779 
L 199.189016 200.342957 
L 199.072332 200.340666 
L 198.754148 200.333307 
L 198.258584 200.318607 
L 198.063907 200.311752 
L 197.81775 200.302212 
L 197.260901 200.277032 
L 197.056535 200.266538 
L 196.671214 200.244922 
L 196.596396 200.240447 
L 196.012844 200.202443 
L 195.697294 200.179599 
L 195.465523 200.161795 
L 195.341108 200.151878 
L 194.849143 200.110208 
L 194.606736 200.08823 
L 194.28078 200.057172 
L 193.941742 200.023032 
L 193.576883 199.984198 
L 193.462743 199.971603 
L 192.907419 199.907283 
L 192.824518 199.897247 
L 192.38295 199.841893 
L 192.123809 199.807914 
L 191.77608 199.76058 
L 191.275557 199.688941 
L 191.012155 199.649574 
L 190.895256 199.631733 
L 190.633369 199.590941 
L 190.30165 199.537632 
L 189.884549 199.467993 
L 189.668865 199.43084 
L 189.214246 199.34997 
L 188.932438 199.298092 
L 188.580633 199.231446 
L 188.206167 199.158202 
L 188.074388 199.131859 
L 187.736958 199.063058 
L 187.267281 198.964052 
L 187.07024 198.92139 
L 186.837032 198.870033 
L 186.377125 198.766001 
L 186.09791 198.701053 
L 185.667225 198.598211 
L 185.571077 198.57481 
L 185.067219 198.449528 
L 184.831106 198.389282 
L 184.537673 198.313037 
L 184.383873 198.272464 
L 183.944248 198.15417 
L 183.654142 198.074217 
L 183.436553 198.013259 
L 183.094465 197.915698 
L 182.803879 197.831162 
L 182.285347 197.676497 
L 182.132407 197.629941 
L 181.734281 197.506732 
L 181.339845 197.381778 
L 181.130567 197.314308 
L 180.685312 197.168039 
L 180.373788 197.063489 
L 180.127806 196.97964 
L 179.926673 196.910227 
L 179.566504 196.784003 
L 179.342978 196.704418 
L 178.948509 196.561622 
L 178.578285 196.424861 
L 178.343948 196.336916 
L 177.859716 196.15177 
L 177.795235 196.126766 
L 177.415206 195.977728 
L 176.886664 195.765647 
L 176.824988 195.740533 
L 176.2652 195.509061 
L 176.236716 195.497112 
L 175.910978 195.359282 
L 175.325468 195.106024 
L 175.089886 195.002109 
L 174.852656 194.896289 
L 174.370432 194.677512 
L 174.162012 194.58142 
L 174.032734 194.521348 
L 173.630546 194.332153 
L 173.124155 194.088927 
L 173.090641 194.072631 
L 172.61879 193.840555 
L 172.223925 193.642521 
L 171.991467 193.524293 
L 171.691197 193.369757 
L 171.341543 193.187198 
L 171.205986 193.115662 
L 170.645531 192.815347 
L 170.591025 192.785746 
L 170.022334 192.472691 
L 169.853415 192.378209 
L 169.54187 192.202138 
L 169.2 192.006198 
L 169.2 262.661538 
L 169.61732 262.660141 
L 169.78668 262.658776 
L 170.149988 262.654296 
L 170.32234 262.651429 
L 170.774271 262.641647 
L 171.203216 262.629328 
L 171.366229 262.623871 
L 171.767271 262.608626 
L 172.07498 262.595175 
L 172.189177 262.589795 
L 172.493376 262.574439 
L 173.060735 262.541813 
L 173.235981 262.530686 
L 173.540589 262.510164 
L 173.839903 262.488537 
L 174.07821 262.470282 
L 174.479135 262.437493 
L 174.780662 262.411116 
L 175.063448 262.385036 
L 175.352996 262.356984 
L 175.891545 262.301177 
L 176.177811 262.269585 
L 176.544967 262.227104 
L 176.809032 262.195185 
L 176.99102 262.172521 
L 177.198047 262.146077 
L 177.74147 262.073307 
L 177.904507 262.050524 
L 178.210284 262.00661 
L 178.579889 261.951461 
L 178.789124 261.919236 
L 179.216669 261.851121 
L 179.64261 261.780228 
L 179.895197 261.736753 
L 180.055958 261.708526 
L 180.488458 261.630426 
L 180.824178 261.567627 
L 181.245962 261.486025 
L 181.256381 261.483971 
L 181.782191 261.377915 
L 182.039043 261.324392 
L 182.247086 261.280212 
L 182.593171 261.20507 
L 182.968799 261.121179 
L 183.334152 261.03724 
L 183.576535 260.980274 
L 183.802572 260.926228 
L 184.278275 260.809567 
L 184.484594 260.757734 
L 185.000423 260.62486 
L 185.320984 260.539911 
L 185.364342 260.528281 
L 185.794016 260.411212 
L 186.00283 260.353125 
L 186.499155 260.21191 
L 186.671254 260.161904 
L 187.06377 260.045841 
L 187.462547 259.925046 
L 187.681466 259.857493 
L 187.957063 259.771193 
L 188.283807 259.667056 
L 188.581532 259.570438 
L 188.988385 259.435725 
L 189.36967 259.306649 
L 189.568892 259.238112 
L 189.778539 259.165174 
L 190.150407 259.033732 
L 190.36189 258.957796 
L 190.74481 258.818106 
L 191.008088 258.72041 
L 191.530754 258.522445 
L 191.86385 258.393474 
L 191.942863 258.362559 
L 192.510739 258.136698 
L 192.663451 258.074856 
L 192.861492 257.993956 
L 193.40466 257.767982 
L 193.46638 257.741923 
L 194.004141 257.51155 
L 194.396054 257.339874 
L 194.519014 257.285349 
L 194.952237 257.090702 
L 195.237416 256.960396 
L 195.356695 256.905379 
L 195.880548 256.660124 
L 196.088156 256.56128 
L 196.383592 256.418995 
L 196.804916 256.21275 
L 197.056767 256.08758 
L 197.228193 256.001568 
L 197.666383 255.778692 
L 198.004488 255.603733 
L 198.443176 255.372799 
L 198.585306 255.29702 
L 199.013071 255.066087 
L 199.269115 254.925788 
L 199.544308 254.77325 
L 199.957118 254.541005 
L 200.070831 254.476303 
L 200.500038 254.229222 
L 200.861586 254.017544 
L 201.202182 253.81513 
L 201.580208 253.587019 
L 201.915799 253.381434 
L 202.09909 253.267912 
L 202.535695 252.993944 
L 202.813231 252.817159 
L 202.877561 252.775887 
L 203.347831 252.470774 
L 203.640837 252.27761 
L 204.008537 252.031832 
L 204.27736 251.849743 
L 204.576096 251.644979 
L 205.035361 251.325166 
L 205.195838 251.211964 
L 205.66647 250.875575 
L 205.934772 250.680827 
L 206.053041 250.594287 
L 206.558651 250.219463 
L 206.75797 250.069511 
L 207.158869 249.764096 
L 207.457296 249.533393 
L 207.739907 249.312238 
L 208.095681 249.030067 
L 208.455948 248.739992 
L 208.76285 248.489378 
L 208.877821 248.394652 
L 209.155123 248.16427 
L 209.509236 247.866097 
L 209.865949 247.561146 
L 210.195171 247.27553 
L 210.641876 246.881466 
L 210.910582 246.640733 
L 211.235249 246.346089 
L 211.487271 246.114476 
L 211.871607 245.756296 
L 211.998544 245.636659 
L 212.402784 245.251151 
L 212.811019 244.854717 
L 213.159828 244.510182 
L 213.448622 244.220781 
L 213.562565 244.105547 
L 213.995324 243.662361 
L 214.279468 243.36652 
L 214.532615 243.099636 
L 214.810103 242.803429 
L 215.322179 242.246484 
L 215.675234 241.854462 
L 215.847544 241.660688 
L 216.14449 241.3229 
L 216.520273 240.88828 
L 216.83072 240.523026 
L 217.144225 240.148316 
L 217.267783 239.998981 
L 217.673523 239.501848 
L 218.19769 238.843779 
L 218.232056 238.79999 
L 218.710175 238.182289 
L 218.842369 238.008643 
L 219.281227 237.42296 
L 219.749871 236.781295 
L 220.015215 236.410225 
L 220.132166 236.244833 
L 220.537042 235.663288 
L 220.845938 235.209916 
L 221.025158 234.942884 
L 221.314422 234.505502 
L 221.603686 234.059962 
L 221.744249 233.840416 
L 221.99222 233.448106 
L 222.240191 233.049208 
L 222.567953 232.511429 
L 222.749205 232.208691 
L 223.008535 231.768653 
L 223.432978 231.030101 
L 223.757272 230.44957 
L 223.84347 230.292779 
L 224.059239 229.895553 
L 224.275008 229.491314 
L 224.497992 229.065876 
L 224.720975 228.63228 
L 224.886094 228.305723 
L 225.107336 227.860541 
L 225.328578 227.406226 
L 225.621202 226.790497 
L 225.927796 226.126035 
L 226.131602 225.672637 
L 226.335409 225.2093 
L 226.49045 224.849822 
L 226.645492 224.483992 
L 226.915986 223.829653 
L 227.162463 223.214322 
L 227.365271 222.693268 
L 227.568078 222.157882 
L 227.659555 221.911418 
L 227.79076 221.552228 
L 227.921964 221.18602 
L 228.074125 220.75203 
L 228.226286 220.307443 
L 228.378448 219.851535 
L 228.530609 219.383491 
L 228.665642 218.957232 
L 228.800675 218.519972 
L 228.881314 218.253269 
L 229.008858 217.822361 
L 229.136403 217.379596 
L 229.263947 216.924023 
L 229.391492 216.454556 
L 229.477184 216.130716 
L 229.562876 215.799612 
L 229.648569 215.460768 
L 229.734261 215.113649 
L 229.860233 214.587068 
L 229.986206 214.039082 
L 230.072258 213.651091 
L 230.15831 213.25086 
L 230.244362 212.837211 
L 230.330414 212.408763 
L 230.427824 211.903827 
L 230.476529 211.642578 
L 230.525235 211.374922 
L 230.584227 211.041465 
L 230.643219 210.696927 
L 230.702212 210.34016 
L 230.761204 209.969805 
L 230.820196 209.584226 
L 230.879189 209.181427 
L 230.938181 208.758934 
L 230.997174 208.313611 
L 231.030782 208.048187 
L 231.064391 207.77312 
L 231.098 207.487298 
L 231.131609 207.189369 
L 231.165217 206.877675 
L 231.198826 206.550141 
L 231.232435 206.204105 
L 231.266044 205.836066 
L 231.29625 205.482616 
L 231.311353 205.296352 
L 231.326456 205.10274 
L 231.341559 204.900842 
L 231.356662 204.6895 
L 231.371765 204.467258 
L 231.386868 204.232243 
L 231.401971 203.981974 
L 231.417074 203.713044 
L 231.424626 203.570131 
L 231.432177 203.420546 
L 231.439729 203.263261 
L 231.44728 203.096952 
L 231.454832 202.919865 
L 231.462383 202.72959 
L 231.469935 202.522659 
L 231.477486 202.29375 
L 231.485038 202.033903 
L 231.492589 201.725649 
L 231.500141 201.323886 
L 231.507692 200.353846 
z
" style="fill:#808080;opacity:0.5;"/>
   </g>
   <g id="matplotlib.axis_1"/>
   <g id="matplotlib.axis_2"/>
   <g id="line2d_1">
    <path clip-path="url(#pdd7c500012)" d="M 106.892308 200.353846 
L 107.024003 204.402789 
L 107.390918 208.220603 
L 107.982394 211.957865 
L 108.759423 215.492711 
L 109.827287 219.251716 
L 110.963984 222.508191 
L 112.396286 225.958271 
L 113.959066 229.175501 
L 115.826563 232.502325 
L 117.784952 235.549604 
L 120.180036 238.815407 
L 122.4184 241.508803 
L 124.937708 244.206988 
L 127.788749 246.908726 
L 130.257557 248.992665 
L 133.251098 251.245152 
L 136.467297 253.371001 
L 139.360021 255.051416 
L 142.780647 256.78315 
L 146.3155 258.306828 
L 149.838767 259.577078 
L 153.364258 260.61559 
L 156.981493 261.451772 
L 160.792386 262.091683 
L 164.386298 262.475314 
L 168.207795 262.653638 
L 169.2 262.661538 
L 169.2 262.661538 
" style="fill:none;stroke:#ff0000;stroke-linecap:square;"/>
   </g>
   <g id="line2d_2">
    <path clip-path="url(#pdd7c500012)" d="M 169.2 262.661538 
L 173.060735 262.541813 
L 176.809032 262.195185 
L 180.488458 261.630426 
L 184.278275 260.809567 
L 187.957063 259.771193 
L 191.530754 258.522445 
L 194.952237 257.090702 
L 198.004488 255.603733 
L 201.202182 253.81513 
L 204.27736 251.849743 
L 207.158869 249.764096 
L 209.865949 247.561146 
L 212.402784 245.251151 
L 214.810103 242.803429 
L 217.267783 239.998981 
L 219.281227 237.42296 
L 221.603686 234.059962 
L 223.432978 231.030101 
L 225.107336 227.860541 
L 226.645492 224.483992 
L 228.074125 220.75203 
L 229.136403 217.379596 
L 230.072258 213.651091 
L 230.761204 209.969805 
L 231.232435 206.204105 
L 231.469935 202.522659 
L 231.507692 200.353846 
L 231.507692 200.353846 
" style="fill:none;stroke:#ff0000;stroke-linecap:square;"/>
   </g>
   <g id="text_1">
    <!-- $\Omega$ -->
    <g transform="translate(16.011538 22.420913)scale(0.1 -0.1)">
     <defs>
      <path d="M 7.71875 0 
L 4.390625 16.609375 
L 7.328125 16.609375 
Q 7.859375 13.71875 8.296875 11.5 
Q 8.734375 9.28125 9.4375 8.375 
Q 10.15625 7.46875 11.71875 7.171875 
Q 13.28125 6.890625 16.890625 6.890625 
L 23 6.890625 
Q 21.53125 12.546875 15.6875 21.65625 
Q 9.859375 30.765625 7.734375 34.890625 
Q 5.609375 39.015625 5.609375 45.515625 
Q 5.609375 53.078125 10.09375 58.765625 
Q 14.59375 64.453125 21.703125 67.484375 
Q 28.8125 70.515625 36.078125 70.515625 
Q 43.3125 70.515625 50.40625 67.484375 
Q 57.515625 64.453125 62 58.71875 
Q 66.5 52.984375 66.5 45.515625 
Q 66.5 40.4375 64.640625 35.9375 
Q 62.796875 31.453125 59.90625 26.953125 
Q 57.03125 22.46875 53.6875 16.9375 
Q 50.34375 11.421875 49.125 6.890625 
L 55.171875 6.890625 
Q 58.84375 6.890625 60.453125 7.171875 
Q 62.0625 7.46875 62.734375 8.375 
Q 63.421875 9.28125 63.84375 11.5 
Q 64.265625 13.71875 64.796875 16.609375 
L 67.671875 16.609375 
L 64.40625 0 
L 46.6875 0 
Q 45.703125 0 45.703125 1.3125 
Q 45.703125 6.390625 46.9375 11.265625 
Q 48.1875 16.15625 50.625 23.09375 
Q 53.078125 30.03125 54.4375 35.328125 
Q 55.8125 40.625 55.8125 45.515625 
Q 55.8125 51.515625 53.46875 56.640625 
Q 51.125 61.765625 46.625 64.84375 
Q 42.140625 67.921875 36.078125 67.921875 
Q 26.953125 67.921875 21.625 61.40625 
Q 16.3125 54.890625 16.3125 45.515625 
Q 16.359375 40.375 17.53125 35.828125 
Q 18.703125 31.296875 21.3125 23.71875 
Q 23.921875 16.15625 25.171875 11.265625 
Q 26.421875 6.390625 26.421875 1.3125 
Q 26.421875 0 25.390625 0 
z
" id="Cmr10-173"/>
     </defs>
     <use transform="translate(0 0.484375)" xlink:href="#Cmr10-173"/>
    </g>
   </g>
   <g id="text_2">
    <!-- $A$ -->
    <g style="fill:#0000ff;" transform="translate(103.142308 78.497837)scale(0.1 -0.1)">
     <defs>
      <path d="M 4.5 0 
Q 3.515625 0 3.515625 1.3125 
Q 3.90625 3.515625 4.78125 3.515625 
Q 8.84375 3.515625 11.796875 5.125 
Q 14.75 6.734375 16.890625 10.109375 
Q 17.09375 10.296875 17.09375 10.296875 
L 52.78125 70.515625 
Q 53.5625 71.578125 54.6875 71.578125 
L 56 71.578125 
Q 56.296875 71.578125 56.59375 71.453125 
Q 56.890625 71.34375 57.109375 71.0625 
Q 57.328125 70.796875 57.328125 70.515625 
L 63.375 5.90625 
Q 63.375 5.46875 63.8125 4.59375 
Q 64.796875 3.515625 71.296875 3.515625 
Q 72.3125 3.515625 72.3125 2.203125 
Q 71.96875 0.875 71.75 0.4375 
Q 71.53125 0 70.609375 0 
L 45.609375 0 
Q 44.671875 0 44.671875 1.3125 
Q 45.21875 3.515625 46 3.515625 
Q 53.90625 3.515625 54.390625 6.203125 
L 52.875 22.703125 
L 28.21875 22.703125 
L 20.21875 9.28125 
Q 19.484375 8.203125 19.484375 6.78125 
Q 19.484375 5.03125 21.171875 4.265625 
Q 22.859375 3.515625 24.90625 3.515625 
Q 25.875 3.515625 25.875 2.203125 
Q 25.53125 0.78125 25.328125 0.390625 
Q 25.140625 0 24.21875 0 
z
M 30.171875 26.21875 
L 52.484375 26.21875 
L 49.515625 58.59375 
z
" id="Cmmi10-65"/>
     </defs>
     <use transform="translate(0 0.421875)" xlink:href="#Cmmi10-65"/>
    </g>
   </g>
   <g id="text_3">
    <!-- $B$ -->
    <g style="fill:#ff0000;" transform="translate(149.823077 271.651683)scale(0.1 -0.1)">
     <defs>
      <path d="M 4.984375 0 
Q 4 0 4 1.3125 
Q 4.046875 1.5625 4.1875 2.140625 
Q 4.34375 2.734375 4.578125 3.125 
Q 4.828125 3.515625 5.328125 3.515625 
Q 8.15625 3.515625 10.25 3.65625 
Q 12.359375 3.8125 13.8125 4.203125 
Q 14.984375 4.640625 15.71875 6.890625 
L 29.390625 61.8125 
Q 29.59375 62.796875 29.59375 63.1875 
Q 29.59375 64.265625 28.421875 64.40625 
Q 26.515625 64.796875 21.1875 64.796875 
Q 20.21875 64.796875 20.21875 66.109375 
Q 20.265625 66.359375 20.40625 66.96875 
Q 20.5625 67.578125 20.828125 67.9375 
Q 21.09375 68.3125 21.484375 68.3125 
L 57.328125 68.3125 
Q 60.59375 68.3125 63.796875 67.5 
Q 67 66.703125 69.703125 64.9375 
Q 72.40625 63.1875 74 60.5625 
Q 75.59375 57.953125 75.59375 54.5 
Q 75.59375 50.734375 73.65625 47.5 
Q 71.734375 44.28125 68.671875 41.890625 
Q 65.625 39.5 62.078125 37.953125 
Q 58.546875 36.421875 54.6875 35.6875 
Q 57.421875 35.6875 60.21875 34.609375 
Q 63.03125 33.546875 65.234375 31.6875 
Q 67.4375 29.828125 68.78125 27.234375 
Q 70.125 24.65625 70.125 21.6875 
Q 70.125 15.671875 65.921875 10.6875 
Q 61.71875 5.71875 55.34375 2.859375 
Q 48.96875 0 43.015625 0 
z
M 23.390625 4.296875 
Q 23.390625 3.515625 26.8125 3.515625 
L 41.109375 3.515625 
Q 46 3.515625 50.484375 6.21875 
Q 54.984375 8.9375 57.6875 13.421875 
Q 60.40625 17.921875 60.40625 22.796875 
Q 60.40625 25.78125 59.15625 28.4375 
Q 57.90625 31.109375 55.5625 32.640625 
Q 53.21875 34.1875 50.203125 34.1875 
L 30.71875 34.1875 
L 23.78125 6.5 
Q 23.390625 5.125 23.390625 4.296875 
z
M 31.390625 36.8125 
L 46.578125 36.8125 
Q 51.375 36.8125 55.890625 39.25 
Q 60.40625 41.703125 63.25 45.890625 
Q 66.109375 50.09375 66.109375 54.78125 
Q 66.109375 59.125 63.390625 61.953125 
Q 60.6875 64.796875 56.390625 64.796875 
L 42.671875 64.796875 
Q 39.984375 64.796875 39.0625 64.296875 
Q 38.140625 63.8125 37.5 61.375 
z
" id="Cmmi10-66"/>
     </defs>
     <use transform="translate(0 0.6875)" xlink:href="#Cmmi10-66"/>
    </g>
   </g>
   <g id="text_4">
    <!-- $C$ -->
    <g style="fill:#228b22;" transform="translate(227.907692 78.497837)scale(0.1 -0.1)">
     <defs>
      <path d="M 14.59375 21.578125 
Q 14.59375 15.578125 16.90625 11.015625 
Q 19.234375 6.453125 23.65625 3.875 
Q 28.078125 1.3125 34.078125 1.3125 
Q 40.375 1.3125 46.203125 4.53125 
Q 52.046875 7.765625 56.171875 13.15625 
Q 60.296875 18.5625 61.8125 24.609375 
Q 62.015625 25.203125 62.59375 25.203125 
L 63.8125 25.203125 
Q 64.203125 25.203125 64.453125 24.921875 
Q 64.703125 24.65625 64.703125 24.3125 
Q 64.703125 24.21875 64.59375 24.03125 
Q 62.890625 17.09375 57.984375 11.015625 
Q 53.078125 4.9375 46.234375 1.359375 
Q 39.40625 -2.203125 32.171875 -2.203125 
Q 24.359375 -2.203125 18.15625 1.3125 
Q 11.96875 4.828125 8.515625 11.078125 
Q 5.078125 17.328125 5.078125 25.203125 
Q 5.078125 33.59375 8.828125 41.8125 
Q 12.59375 50.046875 18.9375 56.46875 
Q 25.296875 62.890625 33.421875 66.703125 
Q 41.546875 70.515625 49.90625 70.515625 
Q 53.21875 70.515625 56.25 69.5 
Q 59.28125 68.5 61.859375 66.453125 
Q 64.453125 64.40625 66.109375 61.71875 
L 74.03125 70.3125 
Q 74.03125 70.515625 74.515625 70.515625 
L 75.09375 70.515625 
Q 75.484375 70.515625 75.734375 70.171875 
Q 75.984375 69.828125 75.984375 69.484375 
L 69.1875 42.484375 
Q 69.1875 41.796875 68.40625 41.796875 
L 66.609375 41.796875 
Q 65.828125 41.796875 65.828125 42.921875 
Q 66.21875 45.125 66.21875 48.1875 
Q 66.21875 53.078125 64.546875 57.390625 
Q 62.890625 61.71875 59.390625 64.359375 
Q 55.90625 67 50.875 67 
Q 42.71875 67 35.9375 62.890625 
Q 29.15625 58.796875 24.4375 52.125 
Q 19.734375 45.453125 17.15625 37.328125 
Q 14.59375 29.203125 14.59375 21.578125 
z
" id="Cmmi10-67"/>
     </defs>
     <use transform="translate(0 0.484375)" xlink:href="#Cmmi10-67"/>
    </g>
   </g>
   <g id="patch_6">
    <path clip-path="url(#pdd7c500012)" d="M 138.046154 200.353846 
C 154.570347 200.353846 170.419977 193.788715 182.104346 182.104346 
C 193.788715 170.419977 200.353846 154.570347 200.353846 138.046154 
C 200.353846 121.521961 193.788715 105.672331 182.104346 93.987962 
C 170.419977 82.303593 154.570347 75.738462 138.046154 75.738462 
C 121.521961 75.738462 105.672331 82.303593 93.987962 93.987962 
C 82.303593 105.672331 75.738462 121.521961 75.738462 138.046154 
C 75.738462 154.570347 82.303593 170.419977 93.987962 182.104346 
C 105.672331 193.788715 121.521961 200.353846 138.046154 200.353846 
z
" style="fill:none;stroke:#0000ff;stroke-linejoin:miter;"/>
   </g>
   <g id="patch_7">
    <path clip-path="url(#pdd7c500012)" d="M 169.2 262.661538 
C 185.724193 262.661538 201.573823 256.096407 213.258192 244.412038 
C 224.942561 232.727669 231.507692 216.878039 231.507692 200.353846 
C 231.507692 183.829653 224.942561 167.980023 213.258192 156.295654 
C 201.573823 144.611285 185.724193 138.046154 169.2 138.046154 
C 152.675807 138.046154 136.826177 144.611285 125.141808 156.295654 
C 113.457439 167.980023 106.892308 183.829653 106.892308 200.353846 
C 106.892308 216.878039 113.457439 232.727669 125.141808 244.412038 
C 136.826177 256.096407 152.675807 262.661538 169.2 262.661538 
z
" style="fill:none;stroke:#ff0000;stroke-linejoin:miter;"/>
   </g>
   <g id="patch_8">
    <path clip-path="url(#pdd7c500012)" d="M 200.353846 200.353846 
C 216.878039 200.353846 232.727669 193.788715 244.412038 182.104346 
C 256.096407 170.419977 262.661538 154.570347 262.661538 138.046154 
C 262.661538 121.521961 256.096407 105.672331 244.412038 93.987962 
C 232.727669 82.303593 216.878039 75.738462 200.353846 75.738462 
C 183.829653 75.738462 167.980023 82.303593 156.295654 93.987962 
C 144.611285 105.672331 138.046154 121.521961 138.046154 138.046154 
C 138.046154 154.570347 144.611285 170.419977 156.295654 182.104346 
C 167.980023 193.788715 183.829653 200.353846 200.353846 200.353846 
z
" style="fill:none;stroke:#228b22;stroke-linejoin:miter;"/>
   </g>
  </g>
 </g>
 <defs>
  <clipPath id="pdd7c500012">
   <rect height="324" width="324" x="7.2" y="7.2"/>
  </clipPath>
 </defs>
</svg>
