<?xml version="1.0" encoding="utf-8" standalone="no"?>
<!DOCTYPE svg PUBLIC "-//W3C//DTD SVG 1.1//EN"
  "http://www.w3.org/Graphics/SVG/1.1/DTD/svg11.dtd">
<!-- Created with matplotlib (https://matplotlib.org/) -->
<svg height="338.4pt" version="1.1" viewBox="0 0 338.4 338.4" width="338.4pt" xmlns="http://www.w3.org/2000/svg" xmlns:xlink="http://www.w3.org/1999/xlink">
 <metadata>
  <rdf:RDF xmlns:cc="http://creativecommons.org/ns#" xmlns:dc="http://purl.org/dc/elements/1.1/" xmlns:rdf="http://www.w3.org/1999/02/22-rdf-syntax-ns#">
   <cc:Work>
    <dc:type rdf:resource="http://purl.org/dc/dcmitype/StillImage"/>
    <dc:date>2024-11-18T20:48:37.656850</dc:date>
    <dc:format>image/svg+xml</dc:format>
    <dc:creator>
     <cc:Agent>
      <dc:title>Matplotlib v3.3.4, https://matplotlib.org/</dc:title>
     </cc:Agent>
    </dc:creator>
   </cc:Work>
  </rdf:RDF>
 </metadata>
 <defs>
  <style type="text/css">*{stroke-linecap:butt;stroke-linejoin:round;}</style>
 </defs>
 <g id="figure_1">
  <g id="patch_1">
   <path d="M -0 338.4 
L 338.4 338.4 
L 338.4 0 
L -0 0 
z
" style="fill:#ffffff;"/>
  </g>
  <g id="axes_1">
   <g id="patch_2">
    <path d="M 7.2 331.2 
L 331.2 331.2 
L 331.2 7.2 
L 7.2 7.2 
z
" style="fill:#ffffff;"/>
   </g>
   <g id="patch_3">
    <path clip-path="url(#pba166ef6c6)" d="M 13.430769 324.969231 
L 13.430769 13.430769 
L 324.969231 13.430769 
L 324.969231 324.969231 
z
" style="fill:none;stroke:#000000;stroke-linejoin:miter;"/>
   </g>
   <g id="patch_4">
    <path clip-path="url(#pba166ef6c6)" d="M 169.2 192.006198 
L 168.968696 192.139082 
L 168.725058 192.277633 
L 168.415124 192.451798 
L 167.973266 192.696099 
L 167.789884 192.796122 
L 167.414961 192.998148 
L 166.994044 193.221041 
L 166.820366 193.311814 
L 166.454347 193.500848 
L 166.170019 193.645585 
L 165.841911 193.810339 
L 165.423324 194.017031 
L 165.111722 194.168374 
L 164.765183 194.334181 
L 164.546125 194.437643 
L 164.267809 194.567595 
L 163.946094 194.715737 
L 163.585401 194.879202 
L 163.387046 194.967922 
L 162.878507 195.191607 
L 162.581432 195.319784 
L 162.351656 195.417672 
L 162.056071 195.542001 
L 161.687484 195.694537 
L 161.285961 195.85757 
L 160.99533 195.973555 
L 160.639689 196.11319 
L 160.333469 196.231411 
L 160.145908 196.302908 
L 159.77144 196.443589 
L 159.646518 196.489911 
L 159.070582 196.699559 
L 158.789213 196.799656 
L 158.431498 196.924726 
L 158.118134 197.032289 
L 158.016698 197.066709 
L 157.702805 197.171991 
L 157.208009 197.334195 
L 156.949287 197.417191 
L 156.531155 197.548702 
L 156.45709 197.571661 
L 156.198692 197.650968 
L 155.766398 197.780913 
L 155.425085 197.881104 
L 155.096069 197.975687 
L 154.654277 198.09962 
L 154.478325 198.148003 
L 154.164362 198.232962 
L 153.735414 198.346201 
L 153.687137 198.358741 
L 153.266822 198.466182 
L 153.066854 198.516205 
L 152.757329 198.592251 
L 152.324494 198.695783 
L 151.838698 198.808101 
L 151.584792 198.865179 
L 151.457421 198.893392 
L 151.139036 198.962695 
L 150.716002 199.052084 
L 150.538462 199.088686 
L 150.131393 199.17058 
L 149.818471 199.231618 
L 149.391618 199.312204 
L 149.154654 199.355613 
L 148.874462 199.405719 
L 148.503108 199.470096 
L 148.069193 199.542391 
L 147.892685 199.5709 
L 147.525847 199.628488 
L 147.427649 199.643524 
L 147.034155 199.70217 
L 146.579737 199.766705 
L 146.2677 199.809045 
L 146.168339 199.82219 
L 145.696291 199.882421 
L 145.328786 199.926779 
L 145.181644 199.943919 
L 144.624122 200.005648 
L 144.602281 200.007962 
L 144.305455 200.038651 
L 143.804975 200.087144 
L 143.46625 200.117654 
L 143.198911 200.140418 
L 142.879664 200.166084 
L 142.52183 200.19289 
L 142.256474 200.211431 
L 141.955388 200.231091 
L 141.768892 200.242534 
L 141.345292 200.266442 
L 141.025973 200.282552 
L 140.676819 200.298287 
L 140.429976 200.308228 
L 140.18669 200.317067 
L 139.897473 200.326336 
L 139.476743 200.337421 
L 139.18713 200.343399 
L 138.694878 200.350469 
L 138.642515 200.350992 
L 138.156139 200.353749 
L 137.872514 200.353604 
L 137.726533 200.353026 
L 137.28821 200.349236 
L 136.82571 200.341892 
L 136.537453 200.335578 
L 136.270926 200.328552 
L 135.914119 200.317359 
L 135.622853 200.306704 
L 135.335774 200.294868 
L 135.023476 200.280485 
L 134.645689 200.260986 
L 134.329229 200.242882 
L 134.138 200.231159 
L 133.778062 200.207492 
L 133.646993 200.198353 
L 133.094885 200.156809 
L 132.847673 200.136607 
L 132.495833 200.106145 
L 132.111744 200.070595 
L 131.971861 200.057052 
L 131.72461 200.032335 
L 131.294946 199.98701 
L 130.86993 199.939209 
L 130.814562 199.932765 
L 130.435316 199.88727 
L 130.036995 199.836945 
L 129.811722 199.807328 
L 129.576747 199.775544 
L 129.182949 199.720234 
L 128.729028 199.653294 
L 128.402444 199.603017 
L 128.083737 199.552241 
L 127.834672 199.511381 
L 127.692154 199.487534 
L 127.11198 199.386943 
L 126.910366 199.350662 
L 126.517288 199.277957 
L 126.237186 199.224555 
L 125.986609 199.175655 
L 125.625744 199.103356 
L 125.440866 199.065456 
L 125.073744 198.988463 
L 124.640649 198.894662 
L 124.355528 198.831146 
L 124.257862 198.809066 
L 123.647915 198.667431 
L 123.641685 198.665951 
L 123.092645 198.532856 
L 122.721414 198.439869 
L 122.531748 198.391425 
L 122.191013 198.302797 
L 122.012748 198.255608 
L 121.738156 198.181815 
L 121.174561 198.026133 
L 121.057043 197.992952 
L 120.608446 197.864001 
L 120.272993 197.76519 
L 120.096433 197.712359 
L 119.757767 197.609426 
L 119.460523 197.517347 
L 118.965428 197.360355 
L 118.665599 197.263066 
L 118.508354 197.211371 
L 118.25027 197.12552 
L 117.712736 196.942679 
L 117.425398 196.842692 
L 117.372792 196.824216 
L 116.867368 196.644 
L 116.4673 196.497857 
L 116.378535 196.46501 
L 115.960597 196.308292 
L 115.585388 196.164675 
L 115.463693 196.117498 
L 115.095948 195.973147 
L 114.752054 195.835715 
L 114.546701 195.752516 
L 114.173974 195.599325 
L 113.683772 195.393541 
L 113.318637 195.237049 
L 113.098084 195.141183 
L 112.865156 195.038836 
L 112.569966 194.907497 
L 112.152187 194.718466 
L 111.767941 194.541322 
L 111.574116 194.450761 
L 111.133345 194.241788 
L 110.925457 194.141754 
L 110.524518 193.946137 
L 110.340502 193.855162 
L 109.922008 193.645443 
L 109.569794 193.465875 
L 109.280396 193.316215 
L 109.221801 193.28568 
L 108.786517 193.056354 
L 108.371515 192.833601 
L 108.137983 192.706467 
L 107.987183 192.623684 
L 107.571405 192.392619 
L 107.170004 192.165576 
L 106.892308 192.006198 
L 106.892308 200.353846 
L 106.897731 201.175953 
L 106.903155 201.516456 
L 106.908579 201.777716 
L 106.914003 201.997953 
L 106.919427 202.191974 
L 106.924851 202.36737 
L 106.930274 202.528653 
L 106.935698 202.678762 
L 106.941122 202.819738 
L 106.946546 202.953068 
L 106.957393 203.201027 
L 106.968241 203.429019 
L 106.979089 203.641201 
L 106.989936 203.840461 
L 107.000784 204.028901 
L 107.011631 204.208108 
L 107.022479 204.379316 
L 107.044174 204.701472 
L 107.065869 205.001248 
L 107.082923 205.223885 
L 107.099977 205.436723 
L 107.11703 205.640945 
L 107.134084 205.837513 
L 107.168191 206.210743 
L 107.202299 206.561386 
L 107.236406 206.893077 
L 107.270513 207.208567 
L 107.304621 207.509999 
L 107.338728 207.799081 
L 107.372835 208.077201 
L 107.406942 208.345502 
L 107.44105 208.604942 
L 107.475157 208.856333 
L 107.509264 209.100368 
L 107.543372 209.337648 
L 107.611586 209.793963 
L 107.660661 210.108754 
L 107.709735 210.413459 
L 107.770403 210.777528 
L 107.831071 211.128962 
L 107.89174 211.468958 
L 107.952408 211.798538 
L 108.013076 212.118575 
L 108.073744 212.429829 
L 108.134412 212.732963 
L 108.195081 213.028559 
L 108.288386 213.469631 
L 108.381692 213.895704 
L 108.501997 214.425127 
L 108.622302 214.934349 
L 108.742608 215.425416 
L 108.862913 215.90005 
L 108.950723 216.236955 
L 109.038533 216.566385 
L 109.160579 217.01267 
L 109.282624 217.446435 
L 109.40467 217.868612 
L 109.526716 218.280018 
L 109.645668 218.671327 
L 109.764621 219.053693 
L 109.962749 219.672145 
L 110.160878 220.269432 
L 110.314987 220.720577 
L 110.469096 221.160802 
L 110.611046 221.55722 
L 110.742081 221.915856 
L 110.873116 222.267841 
L 111.01401 222.639248 
L 111.154904 223.003689 
L 111.397066 223.614744 
L 111.639228 224.207695 
L 111.87915 224.778601 
L 112.176938 225.465972 
L 112.38866 225.941345 
L 112.600381 226.406326 
L 112.749832 226.728589 
L 112.99189 227.240587 
L 113.233947 227.740876 
L 113.426768 228.131447 
L 113.619589 228.515281 
L 113.927219 229.114378 
L 114.1089 229.460876 
L 114.314731 229.847164 
L 114.576788 230.329724 
L 114.835511 230.79643 
L 115.094234 231.253921 
L 115.194578 231.428964 
L 115.640753 232.191804 
L 115.901826 232.626949 
L 116.35931 233.37066 
L 116.540515 233.658909 
L 116.813303 234.08636 
L 117.208425 234.69223 
L 117.530135 235.174438 
L 117.732984 235.473567 
L 118.052834 235.937774 
L 118.531364 236.615918 
L 118.938073 237.177578 
L 119.038338 237.314044 
L 119.526963 237.968178 
L 119.884405 238.435609 
L 120.057193 238.658324 
L 120.327816 239.003013 
L 120.638045 239.392097 
L 121.076631 239.93149 
L 121.417259 240.342072 
L 121.452151 240.383728 
L 122.017296 241.048329 
L 122.210368 241.271117 
L 122.577607 241.689073 
L 122.900463 242.050386 
L 123.088575 242.25832 
L 123.490756 242.696656 
L 123.937292 243.173652 
L 123.970867 243.209115 
L 124.438849 243.69768 
L 124.631482 243.895731 
L 125.141777 244.412007 
L 125.492761 244.760217 
L 125.557397 244.823743 
L 125.865502 245.124035 
L 126.451137 245.683563 
L 126.632042 245.853489 
L 126.907624 246.109758 
L 127.378945 246.540942 
L 127.563647 246.707516 
L 127.914615 247.020381 
L 128.034728 247.126369 
L 128.341814 247.394862 
L 128.876602 247.854079 
L 128.971699 247.934644 
L 129.290612 248.202454 
L 129.868697 248.678758 
L 130.147642 248.904458 
L 130.531133 249.210445 
L 130.673951 249.323144 
L 131.119789 249.670639 
L 131.238776 249.762287 
L 131.709368 250.120311 
L 131.928221 250.284428 
L 132.151327 250.450197 
L 132.484193 250.694665 
L 132.729971 250.873006 
L 133.055844 251.106664 
L 133.38814 251.34168 
L 133.849378 251.66254 
L 134.201138 251.903125 
L 134.591908 252.166282 
L 134.88972 252.363972 
L 135.197534 252.56573 
L 135.295577 252.629449 
L 135.841019 252.979191 
L 135.987717 253.071896 
L 136.265177 253.245679 
L 136.571223 253.435024 
L 137.084221 253.746966 
L 137.410441 253.941834 
L 137.653804 254.085457 
L 137.828154 254.18744 
L 138.10449 254.347529 
L 138.461336 254.551476 
L 138.945718 254.823351 
L 139.256245 254.994674 
L 139.408793 255.077995 
L 139.824604 255.302318 
L 140.019321 255.405971 
L 140.259772 255.532753 
L 140.723633 255.773563 
L 141.118811 255.974843 
L 141.237468 256.034591 
L 141.536244 256.183633 
L 141.944061 256.383858 
L 142.389611 256.598415 
L 142.456318 256.630164 
L 142.757058 256.7721 
L 143.213543 256.983808 
L 143.564375 257.143486 
L 143.887514 257.288252 
L 144.090199 257.377932 
L 144.406621 257.516219 
L 144.808247 257.688748 
L 145.105553 257.814321 
L 145.375623 257.926822 
L 145.606348 258.021758 
L 145.895799 258.139335 
L 146.28093 258.293166 
L 146.802694 258.496853 
L 146.868973 258.522341 
L 147.435234 258.736579 
L 147.505748 258.762818 
L 147.913093 258.912501 
L 148.196695 259.014819 
L 148.650458 259.175312 
L 148.776738 259.219277 
L 149.150529 259.347636 
L 149.393075 259.429511 
L 149.643611 259.512921 
L 150.074391 259.65359 
L 150.392535 259.755258 
L 150.588461 259.816937 
L 151.175738 259.997576 
L 151.197733 260.004218 
L 151.540193 260.106501 
L 151.957321 260.228202 
L 152.432376 260.362973 
L 152.492665 260.379786 
L 152.95527 260.506629 
L 153.147052 260.558093 
L 153.67776 260.697102 
L 153.817028 260.732756 
L 154.082086 260.799667 
L 154.44853 260.890138 
L 154.670241 260.943735 
L 155.238933 261.077294 
L 155.28477 261.087814 
L 155.594794 261.158014 
L 156.005862 261.248536 
L 156.307482 261.313107 
L 156.5286 261.359454 
L 157.074754 261.470349 
L 157.30497 261.515573 
L 157.714757 261.593847 
L 157.861595 261.621204 
L 158.369225 261.712976 
L 158.527439 261.740693 
L 158.997546 261.820573 
L 159.089328 261.835736 
L 159.511826 261.903727 
L 159.694108 261.932142 
L 160.233387 262.012977 
L 160.386039 262.034983 
L 160.789751 262.091325 
L 161.039644 262.124852 
L 161.462658 262.179262 
L 161.667101 262.204505 
L 161.929603 262.23591 
L 162.438643 262.293596 
L 162.624116 262.313561 
L 162.968162 262.34911 
L 163.165749 262.368654 
L 163.480497 262.398474 
L 163.909196 262.4365 
L 164.27161 262.466321 
L 164.428402 262.478562 
L 164.772693 262.504047 
L 165.269851 262.537465 
L 165.302794 262.539538 
L 165.820244 262.569807 
L 166.109435 262.584843 
L 166.505638 262.603255 
L 166.805364 262.615506 
L 167.015982 262.623249 
L 167.327035 262.633381 
L 167.624228 262.64161 
L 167.892011 262.647808 
L 168.399995 262.656402 
L 168.668104 262.659268 
L 168.797241 262.660237 
L 169.2 262.661538 
z
" style="fill:#808080;opacity:0.5;"/>
   </g>
   <g id="patch_5">
    <path clip-path="url(#pba166ef6c6)" d="M 231.507692 192.006198 
L 231.225256 192.16828 
L 230.840421 192.385985 
L 230.569515 192.537088 
L 230.300769 192.685245 
L 229.881143 192.91315 
L 229.749559 192.98376 
L 229.402542 193.168035 
L 229.155766 193.297379 
L 228.748003 193.508036 
L 228.376135 193.696849 
L 228.055111 193.85734 
L 227.777133 193.99445 
L 227.446257 194.155421 
L 227.080474 194.330573 
L 226.866718 194.431579 
L 226.398071 194.649572 
L 226.301351 194.693974 
L 226.01585 194.823879 
L 225.449668 195.076394 
L 225.300926 195.141616 
L 224.943234 195.296573 
L 224.656902 195.418708 
L 224.370415 195.539223 
L 224.100026 195.651427 
L 223.63312 195.841689 
L 223.374406 195.945224 
L 223.083086 196.060205 
L 222.775516 196.179769 
L 222.491021 196.288698 
L 222.128473 196.42521 
L 221.761338 196.560834 
L 221.597914 196.620364 
L 221.149349 196.781114 
L 220.973419 196.843107 
L 220.664419 196.950561 
L 220.113089 197.137785 
L 220.020812 197.168561 
L 219.674131 197.282757 
L 219.345584 197.388908 
L 218.899221 197.529913 
L 218.535854 197.641985 
L 218.467564 197.662777 
L 218.119567 197.767404 
L 217.83125 197.852415 
L 217.565767 197.929359 
L 217.104542 198.060008 
L 216.699632 198.171554 
L 216.561885 198.208833 
L 216.231317 198.296917 
L 215.848745 198.396437 
L 215.562931 198.469099 
L 215.166521 198.567499 
L 215.064622 198.592348 
L 214.59816 198.703784 
L 214.219972 198.791352 
L 214.123942 198.813192 
L 213.752908 198.896081 
L 213.481769 198.955153 
L 213.135675 199.02872 
L 212.841122 199.089716 
L 212.52979 199.152577 
L 212.247144 199.208217 
L 211.891549 199.276293 
L 211.328095 199.379786 
L 211.167269 199.408344 
L 210.722291 199.485098 
L 210.445388 199.531187 
L 210.165447 199.57648 
L 210.041427 199.596128 
L 209.460985 199.684685 
L 209.125484 199.733323 
L 209.036955 199.745847 
L 208.57592 199.808975 
L 208.312937 199.843414 
L 207.953803 199.888608 
L 207.730435 199.915649 
L 207.47229 199.945881 
L 207.048515 199.993147 
L 206.77104 200.022505 
L 206.303527 200.069132 
L 206.194394 200.079504 
L 205.95629 200.101461 
L 205.640029 200.129201 
L 205.2535 200.160902 
L 205.000392 200.180348 
L 204.628252 200.207058 
L 204.273779 200.230418 
L 203.834128 200.256572 
L 203.753647 200.261022 
L 203.199469 200.288832 
L 203.117067 200.292544 
L 202.759113 200.307404 
L 202.283662 200.323954 
L 202.197599 200.326561 
L 201.662503 200.340102 
L 201.489495 200.343496 
L 201.095902 200.349427 
L 200.814187 200.352146 
L 200.60423 200.353343 
L 200.078316 200.353237 
L 199.824966 200.351601 
L 199.431039 200.347012 
L 199.156484 200.34234 
L 198.943824 200.33789 
L 198.595884 200.329041 
L 198.405085 200.323364 
L 197.922125 200.306376 
L 197.762322 200.299929 
L 197.270816 200.277524 
L 196.93606 200.260037 
L 196.624324 200.242128 
L 196.285397 200.220877 
L 196.249457 200.218515 
L 195.775534 200.185413 
L 195.411703 200.157536 
L 195.313098 200.149611 
L 194.885485 200.11342 
L 194.452783 200.073777 
L 194.241436 200.053306 
L 193.867686 200.015326 
L 193.692414 199.99673 
L 193.38001 199.96234 
L 193.02443 199.921255 
L 192.686899 199.880339 
L 192.368316 199.840003 
L 192.092261 199.803702 
L 191.597091 199.735438 
L 191.574524 199.73223 
L 191.196581 199.677258 
L 190.726049 199.605508 
L 190.423666 199.557454 
L 190.188776 199.519074 
L 189.903715 199.471257 
L 189.396857 199.382871 
L 189.169293 199.341784 
L 188.806152 199.274409 
L 188.665332 199.247683 
L 188.336339 199.183933 
L 187.848062 199.085927 
L 187.583594 199.031145 
L 187.415825 198.995773 
L 186.924911 198.889496 
L 186.662481 198.83098 
L 186.470383 198.787392 
L 186.169257 198.717778 
L 185.747889 198.617719 
L 185.496422 198.556529 
L 185.090131 198.455321 
L 184.756319 198.369994 
L 184.434408 198.285842 
L 184.202851 198.224172 
L 184.05251 198.183621 
L 183.448321 198.016578 
L 183.394564 198.001398 
L 183.099818 197.917241 
L 182.695246 197.799165 
L 182.304462 197.682286 
L 181.935432 197.569347 
L 181.612975 197.46861 
L 181.411942 197.404833 
L 181.044746 197.286404 
L 180.831137 197.216352 
L 180.609043 197.142611 
L 180.151875 196.987895 
L 179.867328 196.889599 
L 179.548086 196.777482 
L 179.187549 196.648512 
L 179.040707 196.595267 
L 178.625727 196.442535 
L 178.387481 196.353334 
L 177.929682 196.178807 
L 177.793035 196.125912 
L 177.264313 195.917753 
L 177.09231 195.848831 
L 176.763525 195.715429 
L 176.555932 195.630074 
L 176.143832 195.458032 
L 175.873943 195.343474 
L 175.341187 195.112917 
L 175.305017 195.097049 
L 174.831438 194.886766 
L 174.589466 194.777497 
L 174.253665 194.623792 
L 173.875226 194.447671 
L 173.635528 194.334519 
L 173.278176 194.1635 
L 172.881059 193.97016 
L 172.652169 193.857135 
L 172.312447 193.687222 
L 171.937036 193.496433 
L 171.637298 193.341799 
L 171.510431 193.275729 
L 171.006066 193.009381 
L 170.647914 192.816639 
L 170.487342 192.729245 
L 170.060623 192.494011 
L 169.779255 192.336511 
L 169.502699 192.179833 
L 169.2 192.006198 
L 169.2 262.661538 
L 169.546657 262.660574 
L 169.812629 262.658527 
L 170.134547 262.654529 
L 170.483133 262.648325 
L 170.691622 262.643681 
L 170.952457 262.636889 
L 171.258147 262.627537 
L 171.667111 262.612676 
L 172.134216 262.592411 
L 172.376788 262.580501 
L 172.619919 262.567612 
L 173.112029 262.538608 
L 173.390627 262.520454 
L 173.542625 262.510021 
L 173.934027 262.481437 
L 174.145037 262.464998 
L 174.547274 262.431662 
L 174.863789 262.403584 
L 175.055775 262.385761 
L 175.397916 262.35251 
L 175.887494 262.301614 
L 175.957459 262.294021 
L 176.252417 262.261131 
L 176.684275 262.210407 
L 177.045303 262.165655 
L 177.223704 262.14275 
L 177.58723 262.094456 
L 177.908338 262.049984 
L 178.153079 262.014943 
L 178.721701 261.9297 
L 178.876909 261.905499 
L 179.174285 261.85801 
L 179.583676 261.790218 
L 179.82593 261.748782 
L 180.044755 261.710507 
L 180.517494 261.62507 
L 180.637168 261.602844 
L 181.215942 261.491933 
L 181.33475 261.468463 
L 181.605583 261.414063 
L 181.985617 261.335618 
L 182.499762 261.225554 
L 182.577376 261.208545 
L 182.973493 261.120115 
L 183.320188 261.040491 
L 183.747774 260.939412 
L 183.994853 260.87955 
L 184.157697 260.839512 
L 184.503084 260.753053 
L 184.796107 260.678053 
L 185.166949 260.580958 
L 185.364699 260.528185 
L 185.650475 260.450688 
L 186.199624 260.297664 
L 186.572745 260.190593 
L 186.887274 260.098376 
L 186.958406 260.077272 
L 187.438362 259.932455 
L 187.786473 259.824776 
L 187.930489 259.779576 
L 188.356501 259.643618 
L 188.620219 259.557762 
L 188.991374 259.434723 
L 189.264579 259.342499 
L 189.668421 259.203589 
L 189.973134 259.096722 
L 190.127579 259.041877 
L 190.465039 258.920446 
L 190.717902 258.828015 
L 191.150521 258.666993 
L 191.578172 258.50422 
L 191.798686 258.418878 
L 192.050837 258.32011 
L 192.276609 258.2306 
L 192.648244 258.081035 
L 192.96837 257.949967 
L 193.243441 257.835682 
L 193.511449 257.722844 
L 193.868956 257.570025 
L 194.167778 257.440259 
L 194.451639 257.315265 
L 194.775275 257.170691 
L 195.092292 257.026924 
L 195.608868 256.788057 
L 195.832354 256.682935 
L 195.976056 256.614768 
L 196.373363 256.423953 
L 196.869051 256.181009 
L 196.931722 256.149904 
L 197.487239 255.870336 
L 197.552143 255.837217 
L 197.972273 255.620516 
L 198.291541 255.453127 
L 198.682679 255.244831 
L 199.033576 255.054909 
L 199.229647 254.947516 
L 199.554722 254.767441 
L 199.8197 254.618775 
L 200.327399 254.329151 
L 200.464557 254.24982 
L 200.729358 254.09534 
L 200.989578 253.941823 
L 201.360538 253.720018 
L 201.659577 253.538659 
L 202.138048 253.243671 
L 202.463483 253.039605 
L 202.550996 252.984252 
L 203.041543 252.670177 
L 203.416154 252.425944 
L 203.498152 252.37197 
L 203.883882 252.115577 
L 204.257173 251.863488 
L 204.638836 251.60165 
L 204.846437 251.457467 
L 205.125152 251.26192 
L 205.574661 250.941716 
L 205.757077 250.810051 
L 206.153979 250.52009 
L 206.613979 250.177964 
L 206.739078 250.083778 
L 207.094142 249.813754 
L 207.462931 249.529009 
L 207.577708 249.439486 
L 208.090588 249.034137 
L 208.403386 248.782588 
L 208.522054 248.686285 
L 209.113126 248.199336 
L 209.233104 248.098994 
L 209.654807 247.742211 
L 209.861782 247.564735 
L 210.20482 247.267098 
L 210.506691 247.001523 
L 210.8653 246.681497 
L 211.129487 246.442528 
L 211.345533 246.24505 
L 211.92517 245.705895 
L 212.066044 245.572767 
L 212.260023 245.388088 
L 212.847681 244.818759 
L 213.163569 244.506457 
L 213.403039 244.266713 
L 213.783312 243.880583 
L 214.084827 243.569594 
L 214.433286 243.204731 
L 214.58066 243.048626 
L 214.953246 242.649106 
L 215.124582 242.463005 
L 215.603824 241.934294 
L 215.935235 241.561446 
L 216.287758 241.158154 
L 216.625927 240.764612 
L 216.685732 240.69432 
L 217.11079 240.188564 
L 217.394136 239.845285 
L 217.612456 239.577342 
L 217.926732 239.186231 
L 218.211252 238.826507 
L 218.797255 238.068046 
L 219.098036 237.669186 
L 219.283209 237.420282 
L 219.62378 236.955635 
L 219.963898 236.482438 
L 220.377897 235.893562 
L 220.691987 235.436945 
L 220.929567 235.085682 
L 221.27664 234.563087 
L 221.435915 234.319383 
L 221.844999 233.681802 
L 222.138268 233.213979 
L 222.569449 232.508946 
L 222.82442 232.081912 
L 222.963114 231.846322 
L 223.327673 231.215529 
L 223.643929 230.654128 
L 223.889978 230.207737 
L 224.160657 229.706439 
L 224.431335 229.19389 
L 224.618188 228.833188 
L 224.975622 228.126647 
L 225.30863 227.447576 
L 225.538766 226.965723 
L 225.766544 226.478061 
L 225.994323 225.979096 
L 226.1959 225.527561 
L 226.463776 224.912113 
L 226.745756 224.243896 
L 226.986194 223.6563 
L 227.231836 223.037639 
L 227.477479 222.398889 
L 227.621656 222.013917 
L 227.765832 221.621 
L 227.961098 221.075379 
L 228.156363 220.513106 
L 228.378242 219.852158 
L 228.544886 219.338919 
L 228.749276 218.687757 
L 228.85147 218.352474 
L 228.953665 218.010234 
L 229.068106 217.618215 
L 229.182546 217.216309 
L 229.296987 216.803791 
L 229.411428 216.37984 
L 229.50752 216.014356 
L 229.603612 215.639532 
L 229.709468 215.214965 
L 229.815323 214.77713 
L 229.921179 214.324779 
L 230.027035 213.856453 
L 230.09706 213.537041 
L 230.167085 213.209314 
L 230.23711 212.872619 
L 230.307136 212.526211 
L 230.387338 212.116421 
L 230.46754 211.691263 
L 230.547743 211.248936 
L 230.627945 210.787258 
L 230.685463 210.442771 
L 230.74298 210.085759 
L 230.800498 209.714787 
L 230.858015 209.328126 
L 230.906744 208.986706 
L 230.955473 208.630928 
L 231.004202 208.258855 
L 231.052931 207.868065 
L 231.10166 207.45547 
L 231.126024 207.239779 
L 231.150388 207.017021 
L 231.174753 206.78646 
L 231.199117 206.547227 
L 231.223482 206.298275 
L 231.247846 206.038325 
L 231.280327 205.671884 
L 231.296567 205.47877 
L 231.312808 205.278035 
L 231.329048 205.068706 
L 231.345288 204.849582 
L 231.361529 204.619154 
L 231.377769 204.375479 
L 231.39401 204.115985 
L 231.41025 203.837137 
L 231.41837 203.688952 
L 231.42649 203.533848 
L 231.434611 203.370759 
L 231.442731 203.198312 
L 231.450851 203.014687 
L 231.458971 202.817386 
L 231.467091 202.602814 
L 231.475212 202.365449 
L 231.483332 202.096002 
L 231.491452 201.776357 
L 231.499572 201.359746 
L 231.507692 200.353846 
z
" style="fill:#808080;opacity:0.5;"/>
   </g>
   <g id="matplotlib.axis_1"/>
   <g id="matplotlib.axis_2"/>
   <g id="line2d_1">
    <path clip-path="url(#pba166ef6c6)" d="M 106.892308 200.353846 
L 107.022479 204.379316 
L 107.372835 208.077201 
L 107.952408 211.798538 
L 108.742608 215.425416 
L 109.764621 219.053693 
L 111.01401 222.639248 
L 112.38866 225.941345 
L 114.1089 229.460876 
L 115.901826 232.626949 
L 118.052834 235.937774 
L 120.327816 239.003013 
L 122.577607 241.689073 
L 125.141777 244.412007 
L 128.034728 247.126369 
L 130.673951 249.323144 
L 133.849378 251.66254 
L 137.084221 253.746966 
L 140.259772 255.532753 
L 143.564375 257.143486 
L 146.868973 258.522341 
L 150.588461 259.816937 
L 154.44853 260.890138 
L 157.861595 261.621204 
L 161.667101 262.204505 
L 165.302794 262.539538 
L 169.2 262.661538 
L 169.2 262.661538 
" style="fill:none;stroke:#0000ff;stroke-linecap:square;"/>
   </g>
   <g id="line2d_2">
    <path clip-path="url(#pba166ef6c6)" d="M 169.2 262.661538 
L 172.619919 262.567612 
L 176.252417 262.261131 
L 180.044755 261.710507 
L 183.747774 260.939412 
L 187.438362 259.932455 
L 190.717902 258.828015 
L 194.167778 257.440259 
L 197.552143 255.837217 
L 200.989578 253.941823 
L 204.257173 251.863488 
L 207.094142 249.813754 
L 209.861782 247.564735 
L 212.260023 245.388088 
L 215.124582 242.463005 
L 217.612456 239.577342 
L 219.963898 236.482438 
L 222.138268 233.213979 
L 224.160657 229.706439 
L 225.766544 226.478061 
L 227.231836 223.037639 
L 228.544886 219.338919 
L 229.603612 215.639532 
L 230.387338 212.116421 
L 231.004202 208.258855 
L 231.377769 204.375479 
L 231.499572 201.359746 
L 231.507692 200.353846 
L 231.507692 200.353846 
" style="fill:none;stroke:#0000ff;stroke-linecap:square;"/>
   </g>
   <g id="text_1">
    <!-- $\Omega$ -->
    <g transform="translate(16.011538 22.420913)scale(0.1 -0.1)">
     <defs>
      <path d="M 7.71875 0 
L 4.390625 16.609375 
L 7.328125 16.609375 
Q 7.859375 13.71875 8.296875 11.5 
Q 8.734375 9.28125 9.4375 8.375 
Q 10.15625 7.46875 11.71875 7.171875 
Q 13.28125 6.890625 16.890625 6.890625 
L 23 6.890625 
Q 21.53125 12.546875 15.6875 21.65625 
Q 9.859375 30.765625 7.734375 34.890625 
Q 5.609375 39.015625 5.609375 45.515625 
Q 5.609375 53.078125 10.09375 58.765625 
Q 14.59375 64.453125 21.703125 67.484375 
Q 28.8125 70.515625 36.078125 70.515625 
Q 43.3125 70.515625 50.40625 67.484375 
Q 57.515625 64.453125 62 58.71875 
Q 66.5 52.984375 66.5 45.515625 
Q 66.5 40.4375 64.640625 35.9375 
Q 62.796875 31.453125 59.90625 26.953125 
Q 57.03125 22.46875 53.6875 16.9375 
Q 50.34375 11.421875 49.125 6.890625 
L 55.171875 6.890625 
Q 58.84375 6.890625 60.453125 7.171875 
Q 62.0625 7.46875 62.734375 8.375 
Q 63.421875 9.28125 63.84375 11.5 
Q 64.265625 13.71875 64.796875 16.609375 
L 67.671875 16.609375 
L 64.40625 0 
L 46.6875 0 
Q 45.703125 0 45.703125 1.3125 
Q 45.703125 6.390625 46.9375 11.265625 
Q 48.1875 16.15625 50.625 23.09375 
Q 53.078125 30.03125 54.4375 35.328125 
Q 55.8125 40.625 55.8125 45.515625 
Q 55.8125 51.515625 53.46875 56.640625 
Q 51.125 61.765625 46.625 64.84375 
Q 42.140625 67.921875 36.078125 67.921875 
Q 26.953125 67.921875 21.625 61.40625 
Q 16.3125 54.890625 16.3125 45.515625 
Q 16.359375 40.375 17.53125 35.828125 
Q 18.703125 31.296875 21.3125 23.71875 
Q 23.921875 16.15625 25.171875 11.265625 
Q 26.421875 6.390625 26.421875 1.3125 
Q 26.421875 0 25.390625 0 
z
" id="Cmr10-173"/>
     </defs>
     <use transform="translate(0 0.484375)" xlink:href="#Cmr10-173"/>
    </g>
   </g>
   <g id="text_2">
    <!-- $A$ -->
    <g style="fill:#0000ff;" transform="translate(149.873077 271.651683)scale(0.1 -0.1)">
     <defs>
      <path d="M 4.5 0 
Q 3.515625 0 3.515625 1.3125 
Q 3.90625 3.515625 4.78125 3.515625 
Q 8.84375 3.515625 11.796875 5.125 
Q 14.75 6.734375 16.890625 10.109375 
Q 17.09375 10.296875 17.09375 10.296875 
L 52.78125 70.515625 
Q 53.5625 71.578125 54.6875 71.578125 
L 56 71.578125 
Q 56.296875 71.578125 56.59375 71.453125 
Q 56.890625 71.34375 57.109375 71.0625 
Q 57.328125 70.796875 57.328125 70.515625 
L 63.375 5.90625 
Q 63.375 5.46875 63.8125 4.59375 
Q 64.796875 3.515625 71.296875 3.515625 
Q 72.3125 3.515625 72.3125 2.203125 
Q 71.96875 0.875 71.75 0.4375 
Q 71.53125 0 70.609375 0 
L 45.609375 0 
Q 44.671875 0 44.671875 1.3125 
Q 45.21875 3.515625 46 3.515625 
Q 53.90625 3.515625 54.390625 6.203125 
L 52.875 22.703125 
L 28.21875 22.703125 
L 20.21875 9.28125 
Q 19.484375 8.203125 19.484375 6.78125 
Q 19.484375 5.03125 21.171875 4.265625 
Q 22.859375 3.515625 24.90625 3.515625 
Q 25.875 3.515625 25.875 2.203125 
Q 25.53125 0.78125 25.328125 0.390625 
Q 25.140625 0 24.21875 0 
z
M 30.171875 26.21875 
L 52.484375 26.21875 
L 49.515625 58.59375 
z
" id="Cmmi10-65"/>
     </defs>
     <use transform="translate(0 0.421875)" xlink:href="#Cmmi10-65"/>
    </g>
   </g>
   <g id="text_3">
    <!-- $B$ -->
    <g style="fill:#ff0000;" transform="translate(227.707692 78.497837)scale(0.1 -0.1)">
     <defs>
      <path d="M 4.984375 0 
Q 4 0 4 1.3125 
Q 4.046875 1.5625 4.1875 2.140625 
Q 4.34375 2.734375 4.578125 3.125 
Q 4.828125 3.515625 5.328125 3.515625 
Q 8.15625 3.515625 10.25 3.65625 
Q 12.359375 3.8125 13.8125 4.203125 
Q 14.984375 4.640625 15.71875 6.890625 
L 29.390625 61.8125 
Q 29.59375 62.796875 29.59375 63.1875 
Q 29.59375 64.265625 28.421875 64.40625 
Q 26.515625 64.796875 21.1875 64.796875 
Q 20.21875 64.796875 20.21875 66.109375 
Q 20.265625 66.359375 20.40625 66.96875 
Q 20.5625 67.578125 20.828125 67.9375 
Q 21.09375 68.3125 21.484375 68.3125 
L 57.328125 68.3125 
Q 60.59375 68.3125 63.796875 67.5 
Q 67 66.703125 69.703125 64.9375 
Q 72.40625 63.1875 74 60.5625 
Q 75.59375 57.953125 75.59375 54.5 
Q 75.59375 50.734375 73.65625 47.5 
Q 71.734375 44.28125 68.671875 41.890625 
Q 65.625 39.5 62.078125 37.953125 
Q 58.546875 36.421875 54.6875 35.6875 
Q 57.421875 35.6875 60.21875 34.609375 
Q 63.03125 33.546875 65.234375 31.6875 
Q 67.4375 29.828125 68.78125 27.234375 
Q 70.125 24.65625 70.125 21.6875 
Q 70.125 15.671875 65.921875 10.6875 
Q 61.71875 5.71875 55.34375 2.859375 
Q 48.96875 0 43.015625 0 
z
M 23.390625 4.296875 
Q 23.390625 3.515625 26.8125 3.515625 
L 41.109375 3.515625 
Q 46 3.515625 50.484375 6.21875 
Q 54.984375 8.9375 57.6875 13.421875 
Q 60.40625 17.921875 60.40625 22.796875 
Q 60.40625 25.78125 59.15625 28.4375 
Q 57.90625 31.109375 55.5625 32.640625 
Q 53.21875 34.1875 50.203125 34.1875 
L 30.71875 34.1875 
L 23.78125 6.5 
Q 23.390625 5.125 23.390625 4.296875 
z
M 31.390625 36.8125 
L 46.578125 36.8125 
Q 51.375 36.8125 55.890625 39.25 
Q 60.40625 41.703125 63.25 45.890625 
Q 66.109375 50.09375 66.109375 54.78125 
Q 66.109375 59.125 63.390625 61.953125 
Q 60.6875 64.796875 56.390625 64.796875 
L 42.671875 64.796875 
Q 39.984375 64.796875 39.0625 64.296875 
Q 38.140625 63.8125 37.5 61.375 
z
" id="Cmmi10-66"/>
     </defs>
     <use transform="translate(0 0.6875)" xlink:href="#Cmmi10-66"/>
    </g>
   </g>
   <g id="text_4">
    <!-- $C$ -->
    <g style="fill:#228b22;" transform="translate(103.292308 78.497837)scale(0.1 -0.1)">
     <defs>
      <path d="M 14.59375 21.578125 
Q 14.59375 15.578125 16.90625 11.015625 
Q 19.234375 6.453125 23.65625 3.875 
Q 28.078125 1.3125 34.078125 1.3125 
Q 40.375 1.3125 46.203125 4.53125 
Q 52.046875 7.765625 56.171875 13.15625 
Q 60.296875 18.5625 61.8125 24.609375 
Q 62.015625 25.203125 62.59375 25.203125 
L 63.8125 25.203125 
Q 64.203125 25.203125 64.453125 24.921875 
Q 64.703125 24.65625 64.703125 24.3125 
Q 64.703125 24.21875 64.59375 24.03125 
Q 62.890625 17.09375 57.984375 11.015625 
Q 53.078125 4.9375 46.234375 1.359375 
Q 39.40625 -2.203125 32.171875 -2.203125 
Q 24.359375 -2.203125 18.15625 1.3125 
Q 11.96875 4.828125 8.515625 11.078125 
Q 5.078125 17.328125 5.078125 25.203125 
Q 5.078125 33.59375 8.828125 41.8125 
Q 12.59375 50.046875 18.9375 56.46875 
Q 25.296875 62.890625 33.421875 66.703125 
Q 41.546875 70.515625 49.90625 70.515625 
Q 53.21875 70.515625 56.25 69.5 
Q 59.28125 68.5 61.859375 66.453125 
Q 64.453125 64.40625 66.109375 61.71875 
L 74.03125 70.3125 
Q 74.03125 70.515625 74.515625 70.515625 
L 75.09375 70.515625 
Q 75.484375 70.515625 75.734375 70.171875 
Q 75.984375 69.828125 75.984375 69.484375 
L 69.1875 42.484375 
Q 69.1875 41.796875 68.40625 41.796875 
L 66.609375 41.796875 
Q 65.828125 41.796875 65.828125 42.921875 
Q 66.21875 45.125 66.21875 48.1875 
Q 66.21875 53.078125 64.546875 57.390625 
Q 62.890625 61.71875 59.390625 64.359375 
Q 55.90625 67 50.875 67 
Q 42.71875 67 35.9375 62.890625 
Q 29.15625 58.796875 24.4375 52.125 
Q 19.734375 45.453125 17.15625 37.328125 
Q 14.59375 29.203125 14.59375 21.578125 
z
" id="Cmmi10-67"/>
     </defs>
     <use transform="translate(0 0.484375)" xlink:href="#Cmmi10-67"/>
    </g>
   </g>
   <g id="patch_6">
    <path clip-path="url(#pba166ef6c6)" d="M 169.2 262.661538 
C 185.724193 262.661538 201.573823 256.096407 213.258192 244.412038 
C 224.942561 232.727669 231.507692 216.878039 231.507692 200.353846 
C 231.507692 183.829653 224.942561 167.980023 213.258192 156.295654 
C 201.573823 144.611285 185.724193 138.046154 169.2 138.046154 
C 152.675807 138.046154 136.826177 144.611285 125.141808 156.295654 
C 113.457439 167.980023 106.892308 183.829653 106.892308 200.353846 
C 106.892308 216.878039 113.457439 232.727669 125.141808 244.412038 
C 136.826177 256.096407 152.675807 262.661538 169.2 262.661538 
z
" style="fill:none;stroke:#0000ff;stroke-linejoin:miter;"/>
   </g>
   <g id="patch_7">
    <path clip-path="url(#pba166ef6c6)" d="M 200.353846 200.353846 
C 216.878039 200.353846 232.727669 193.788715 244.412038 182.104346 
C 256.096407 170.419977 262.661538 154.570347 262.661538 138.046154 
C 262.661538 121.521961 256.096407 105.672331 244.412038 93.987962 
C 232.727669 82.303593 216.878039 75.738462 200.353846 75.738462 
C 183.829653 75.738462 167.980023 82.303593 156.295654 93.987962 
C 144.611285 105.672331 138.046154 121.521961 138.046154 138.046154 
C 138.046154 154.570347 144.611285 170.419977 156.295654 182.104346 
C 167.980023 193.788715 183.829653 200.353846 200.353846 200.353846 
z
" style="fill:none;stroke:#ff0000;stroke-linejoin:miter;"/>
   </g>
   <g id="patch_8">
    <path clip-path="url(#pba166ef6c6)" d="M 138.046154 200.353846 
C 154.570347 200.353846 170.419977 193.788715 182.104346 182.104346 
C 193.788715 170.419977 200.353846 154.570347 200.353846 138.046154 
C 200.353846 121.521961 193.788715 105.672331 182.104346 93.987962 
C 170.419977 82.303593 154.570347 75.738462 138.046154 75.738462 
C 121.521961 75.738462 105.672331 82.303593 93.987962 93.987962 
C 82.303593 105.672331 75.738462 121.521961 75.738462 138.046154 
C 75.738462 154.570347 82.303593 170.419977 93.987962 182.104346 
C 105.672331 193.788715 121.521961 200.353846 138.046154 200.353846 
z
" style="fill:none;stroke:#228b22;stroke-linejoin:miter;"/>
   </g>
  </g>
 </g>
 <defs>
  <clipPath id="pba166ef6c6">
   <rect height="324" width="324" x="7.2" y="7.2"/>
  </clipPath>
 </defs>
</svg>
