<?xml version="1.0" encoding="utf-8" standalone="no"?>
<!DOCTYPE svg PUBLIC "-//W3C//DTD SVG 1.1//EN"
  "http://www.w3.org/Graphics/SVG/1.1/DTD/svg11.dtd">
<svg xmlns:xlink="http://www.w3.org/1999/xlink" width="338.4pt" height="338.4pt" viewBox="0 0 338.4 338.4" xmlns="http://www.w3.org/2000/svg" version="1.1">
 <metadata>
  <rdf:RDF xmlns:dc="http://purl.org/dc/elements/1.1/" xmlns:cc="http://creativecommons.org/ns#" xmlns:rdf="http://www.w3.org/1999/02/22-rdf-syntax-ns#">
   <cc:Work>
    <dc:type rdf:resource="http://purl.org/dc/dcmitype/StillImage"/>
    <dc:date>2024-12-01T17:05:41.285295</dc:date>
    <dc:format>image/svg+xml</dc:format>
    <dc:creator>
     <cc:Agent>
      <dc:title>Matplotlib v3.6.3, https://matplotlib.org/</dc:title>
     </cc:Agent>
    </dc:creator>
   </cc:Work>
  </rdf:RDF>
 </metadata>
 <defs>
  <style type="text/css">*{stroke-linejoin: round; stroke-linecap: butt}</style>
 </defs>
 <g id="figure_1">
  <g id="patch_1">
   <path d="M -0 338.4 
L 338.4 338.4 
L 338.4 0 
L -0 0 
z
" style="fill: #ffffff"/>
  </g>
  <g id="axes_1">
   <g id="patch_2">
    <path d="M 7.2 331.2 
L 331.2 331.2 
L 331.2 7.2 
L 7.2 7.2 
z
" style="fill: #ffffff"/>
   </g>
   <g id="patch_3">
    <path d="M 13.430769 324.969231 
L 13.430769 13.430769 
L 324.969231 13.430769 
L 324.969231 324.969231 
L 13.430769 324.969231 
z
" clip-path="url(#p2b3f4acd6c)" style="fill: none; stroke: #000000; stroke-linejoin: miter"/>
   </g>
   <g id="patch_4">
    <path d="M 169.2 192.006198 
L 168.802225 192.233907 
L 168.636778 192.327479 
L 168.119574 192.615723 
L 167.870734 192.752122 
L 167.785063 192.798741 
L 167.386068 193.01358 
L 167.160285 193.133502 
L 166.743327 193.351857 
L 166.256067 193.601976 
L 166.104375 193.678741 
L 165.697367 193.882154 
L 165.524918 193.967224 
L 165.028028 194.208659 
L 164.674834 194.376979 
L 164.458119 194.478916 
L 164.312929 194.546641 
L 163.786052 194.788609 
L 163.666812 194.842548 
L 163.229329 195.037875 
L 163.020491 195.129698 
L 162.668497 195.282408 
L 162.174319 195.492478 
L 161.970028 195.577856 
L 161.823494 195.638572 
L 161.302446 195.850941 
L 161.060936 195.947521 
L 160.806759 196.047907 
L 160.520603 196.159385 
L 160.209605 196.278705 
L 159.845748 196.415891 
L 159.354277 196.597093 
L 159.123076 196.680716 
L 158.906906 196.757972 
L 158.51015 196.897436 
L 158.130309 197.028144 
L 157.902007 197.105392 
L 157.68039 197.179438 
L 157.24191 197.323228 
L 156.875675 197.440578 
L 156.560455 197.539592 
L 156.504077 197.557107 
L 155.930864 197.731878 
L 155.654759 197.813917 
L 155.392803 197.890471 
L 155.179872 197.951781 
L 154.880244 198.036669 
L 154.511624 198.138889 
L 154.323899 198.190011 
L 153.805193 198.328002 
L 153.699525 198.355527 
L 153.247947 198.470934 
L 153.055171 198.519106 
L 152.502684 198.653557 
L 152.265717 198.709591 
L 152.041619 198.761683 
L 151.759916 198.82593 
L 151.26775 198.934888 
L 151.189006 198.951933 
L 150.580739 199.080019 
L 150.541454 199.088074 
L 150.003695 199.19569 
L 149.781882 199.238647 
L 149.550313 199.282604 
L 149.104713 199.36464 
L 148.774082 199.423349 
L 148.472751 199.475256 
L 148.194757 199.521794 
L 147.792069 199.586918 
L 147.4646 199.637885 
L 147.292932 199.663892 
L 146.846534 199.72923 
L 146.692457 199.751016 
L 146.25566 199.810646 
L 145.98664 199.845808 
L 145.60009 199.894247 
L 145.355931 199.923578 
L 145.128611 199.950009 
L 144.691846 199.99842 
L 144.310612 200.03813 
L 144.154399 200.053717 
L 143.701193 200.09669 
L 143.611656 200.104785 
L 143.12125 200.146813 
L 142.902989 200.164265 
L 142.445278 200.198356 
L 142.214014 200.214293 
L 141.907367 200.234091 
L 141.578834 200.253619 
L 141.370817 200.265083 
L 141.167779 200.2756 
L 140.586039 200.302057 
L 140.341732 200.311544 
L 140.199967 200.316609 
L 139.61799 200.334017 
L 139.352723 200.340146 
L 139.239017 200.342427 
L 138.888844 200.348147 
L 138.505817 200.352151 
L 138.12306 200.353799 
L 137.735381 200.353071 
L 137.676854 200.352752 
L 137.390183 200.350393 
L 137.003598 200.345123 
L 136.791971 200.341222 
L 136.393337 200.33192 
L 136.150902 200.325015 
L 135.80466 200.313515 
L 135.26802 200.291881 
L 134.943448 200.276546 
L 134.86716 200.272696 
L 134.438421 200.249311 
L 134.057023 200.226017 
L 133.881374 200.214499 
L 133.637995 200.197716 
L 133.288663 200.171952 
L 132.923738 200.142928 
L 132.57084 200.112807 
L 132.297812 200.088116 
L 132.016003 200.06136 
L 131.522201 200.011358 
L 131.223252 199.979154 
L 131.014681 199.955821 
L 130.794943 199.930469 
L 130.300932 199.870583 
L 129.940128 199.824312 
L 129.895014 199.818376 
L 129.559992 199.773243 
L 129.020799 199.696713 
L 128.770002 199.659477 
L 128.427704 199.606969 
L 128.038472 199.544892 
L 127.835765 199.511563 
L 127.665677 199.483066 
L 127.285133 199.417556 
L 126.956758 199.359071 
L 126.546734 199.283494 
L 126.210901 199.219476 
L 125.902704 199.159042 
L 125.714946 199.121434 
L 125.411721 199.059428 
L 125.020628 198.977133 
L 124.811329 198.932014 
L 124.499537 198.863402 
L 124.052963 198.762207 
L 123.681649 198.675433 
L 123.356257 198.597417 
L 123.196395 198.55841 
L 122.859696 198.47479 
L 122.430204 198.365227 
L 122.296249 198.330389 
L 121.959153 198.241311 
L 121.615407 198.148392 
L 121.179966 198.027653 
L 120.945874 197.961335 
L 120.693281 197.888666 
L 120.338585 197.784672 
L 120.191789 197.740962 
L 119.731591 197.601383 
L 119.377331 197.491285 
L 118.995998 197.37018 
L 118.658735 197.260818 
L 118.367839 197.164784 
L 118.272283 197.132891 
L 117.773095 196.963482 
L 117.540231 196.88284 
L 117.267784 196.787178 
L 117.015254 196.697239 
L 116.545184 196.526551 
L 116.312006 196.440292 
L 115.867625 196.272963 
L 115.67698 196.19999 
L 115.462963 196.117214 
L 115.166857 196.001191 
L 114.671687 195.803256 
L 114.374637 195.682148 
L 114.161057 195.593966 
L 113.686297 195.394614 
L 113.368886 195.258748 
L 113.022789 195.108223 
L 112.803081 195.01137 
L 112.61607 194.928131 
L 112.257697 194.766556 
L 111.795265 194.554024 
L 111.679749 194.500217 
L 111.259504 194.302033 
L 110.881608 194.120533 
L 110.555255 193.961259 
L 110.406154 193.887706 
L 110.077715 193.723932 
L 109.714564 193.540023 
L 109.281547 193.316814 
L 108.930636 193.132769 
L 108.632571 192.974195 
L 108.410248 192.854562 
L 108.041526 192.653578 
L 107.836171 192.54024 
L 107.561696 192.387173 
L 107.205471 192.185795 
L 106.892308 192.006198 
L 106.892308 200.353846 
L 106.901682 201.434621 
L 106.911056 201.882235 
L 106.92043 202.225662 
L 106.929804 202.515152 
L 106.939178 202.770169 
L 106.948553 203.000695 
L 106.957927 203.212662 
L 106.967301 203.409934 
L 106.976675 203.595195 
L 106.986049 203.770399 
L 106.995423 203.937023 
L 107.004797 204.096211 
L 107.023546 204.395758 
L 107.042294 204.674506 
L 107.061042 204.936253 
L 107.079791 205.183763 
L 107.098539 205.419124 
L 107.117287 205.643958 
L 107.136035 205.859554 
L 107.154784 206.066959 
L 107.173532 206.267033 
L 107.19228 206.460499 
L 107.220037 206.736064 
L 107.247794 207.000096 
L 107.27555 207.253922 
L 107.303307 207.498628 
L 107.331064 207.735122 
L 107.35882 207.964169 
L 107.414334 208.402446 
L 107.469847 208.817695 
L 107.52536 209.213155 
L 107.580874 209.591367 
L 107.636387 209.954371 
L 107.688897 210.285249 
L 107.741407 210.605183 
L 107.793918 210.91517 
L 107.846428 211.21606 
L 107.937898 211.720611 
L 108.029368 212.202993 
L 108.085037 212.486853 
L 108.140707 212.763972 
L 108.252046 213.29971 
L 108.363385 213.813221 
L 108.474724 214.306959 
L 108.550009 214.630651 
L 108.625295 214.946778 
L 108.700581 215.255819 
L 108.775866 215.558207 
L 108.881754 215.972991 
L 108.987641 216.376341 
L 109.093528 216.7691 
L 109.199415 217.152012 
L 109.305714 217.527169 
L 109.437513 217.980352 
L 109.569313 218.42121 
L 109.701112 218.850625 
L 109.832911 219.269376 
L 109.885507 219.433662 
L 110.079959 220.027923 
L 110.274412 220.602886 
L 110.46372 221.145621 
L 110.653027 221.672864 
L 110.866048 222.249018 
L 111.079069 222.808375 
L 111.235216 223.208438 
L 111.391364 223.600569 
L 111.636685 224.201557 
L 111.795357 224.58101 
L 111.954029 224.953588 
L 112.146392 225.396497 
L 112.323159 225.795416 
L 112.499926 226.186966 
L 112.685953 226.591434 
L 112.87198 226.988461 
L 113.050266 227.362287 
L 113.228551 227.729847 
L 113.356177 227.989257 
L 113.669632 228.613831 
L 114.052822 229.354489 
L 114.312332 229.842699 
L 114.585817 230.346171 
L 114.859302 230.838877 
L 114.883172 230.881387 
L 115.188432 231.41828 
L 115.493692 231.943101 
L 115.702023 232.29465 
L 115.844766 232.532527 
L 116.29426 233.266325 
L 116.524791 233.634033 
L 116.909146 234.234743 
L 117.128431 234.570804 
L 117.405078 234.988144 
L 117.905669 235.725306 
L 118.184117 236.125738 
L 118.562118 236.658852 
L 118.724214 236.883882 
L 119.134141 237.443713 
L 119.372769 237.763679 
L 119.670669 238.157205 
L 119.888869 238.441389 
L 120.484769 239.200658 
L 120.785869 239.575274 
L 121.098391 239.957933 
L 121.17759 240.05393 
L 121.741262 240.726073 
L 121.772512 240.762779 
L 122.283294 241.354715 
L 122.520109 241.62413 
L 122.779417 241.915583 
L 123.026499 242.189911 
L 123.451998 242.654778 
L 123.927665 243.163473 
L 124.173812 243.422291 
L 124.468021 243.727785 
L 124.642678 243.907188 
L 125.107093 244.377295 
L 125.477222 244.744917 
L 125.571669 244.837745 
L 125.835634 245.095105 
L 126.301267 245.541757 
L 126.709267 245.925615 
L 127.044225 246.235642 
L 127.130438 246.314705 
L 127.516125 246.664785 
L 127.806616 246.924612 
L 128.171552 247.246436 
L 128.490589 247.523671 
L 128.668774 247.676866 
L 129.084552 248.029829 
L 129.472369 248.353469 
L 129.824298 248.642588 
L 130.168338 248.921097 
L 130.412884 249.116621 
L 130.800382 249.422348 
L 131.117631 249.668972 
L 131.331708 249.833549 
L 131.610727 250.045849 
L 131.843169 250.220826 
L 132.381269 250.619437 
L 132.519736 250.720569 
L 132.782668 250.911007 
L 133.298599 251.278673 
L 133.644739 251.520944 
L 133.830175 251.649304 
L 134.109677 251.84091 
L 134.311724 251.978033 
L 134.704579 252.241363 
L 135.16439 252.54413 
L 135.269715 252.612666 
L 135.580225 252.812966 
L 136.012466 253.087479 
L 136.436484 253.351964 
L 136.709298 253.519651 
L 136.949561 253.665737 
L 137.325412 253.891302 
L 137.440235 253.959497 
L 137.829644 254.188308 
L 138.197195 254.400813 
L 138.529755 254.590223 
L 138.778991 254.73041 
L 139.195895 254.961558 
L 139.448454 255.099568 
L 139.850188 255.315988 
L 140.202019 255.502424 
L 140.26759 255.536853 
L 140.86237 255.844631 
L 141.113042 255.971931 
L 141.375521 256.103706 
L 141.795871 256.311529 
L 141.96249 256.39282 
L 142.274331 256.543319 
L 142.616683 256.706094 
L 142.870044 256.824918 
L 143.181212 256.96896 
L 143.67484 257.193223 
L 143.928718 257.306553 
L 144.266154 257.455088 
L 144.530689 257.569872 
L 144.747005 257.662655 
L 145.133633 257.826087 
L 145.436608 257.952021 
L 145.786181 258.095007 
L 145.971932 258.16998 
L 146.291809 258.297468 
L 146.700722 258.457469 
L 146.818022 258.502755 
L 147.206551 258.650816 
L 147.467759 258.748694 
L 147.779651 258.863821 
L 148.204098 259.017469 
L 148.394711 259.085341 
L 148.8097 259.230702 
L 149.238101 259.377326 
L 149.320777 259.405222 
L 149.690412 259.528372 
L 150.155541 259.679701 
L 150.439115 259.769986 
L 150.712918 259.855748 
L 151.097049 259.973739 
L 151.225376 260.012554 
L 151.69032 260.150666 
L 151.875211 260.204495 
L 152.315699 260.330249 
L 152.47427 260.374663 
L 152.782344 260.459662 
L 153.239641 260.582705 
L 153.54483 260.662753 
L 153.952268 260.76705 
L 154.250289 260.841487 
L 154.331235 260.861435 
L 154.943661 261.008651 
L 155.236727 261.076787 
L 155.383885 261.110438 
L 155.666477 261.17401 
L 155.915116 261.228803 
L 156.264937 261.304094 
L 156.670013 261.388655 
L 157.006062 261.456681 
L 157.316228 261.517761 
L 157.59246 261.570784 
L 157.875267 261.623732 
L 158.303518 261.701342 
L 158.534674 261.74195 
L 158.754712 261.779773 
L 159.096556 261.836925 
L 159.511612 261.903693 
L 159.747684 261.940389 
L 160.056516 261.986996 
L 160.333691 262.02748 
L 160.612012 262.066851 
L 161.051999 262.126483 
L 161.298721 262.158525 
L 161.617932 262.198496 
L 161.852758 262.226833 
L 162.28544 262.27668 
L 162.614611 262.312552 
L 163.025411 262.354838 
L 163.328304 262.384256 
L 163.482986 262.398703 
L 163.909637 262.436538 
L 164.146104 262.456235 
L 164.440848 262.479517 
L 164.944922 262.516076 
L 165.10391 262.526755 
L 165.578419 262.556199 
L 165.620564 262.558638 
L 165.968719 262.577695 
L 166.225547 262.590501 
L 166.543903 262.6049 
L 167.029043 262.623706 
L 167.424711 262.636242 
L 167.61447 262.641362 
L 168.04265 262.650789 
L 168.41257 262.656563 
L 168.661663 262.659213 
L 168.813541 262.66034 
L 169.2 262.661538 
z
" clip-path="url(#p2b3f4acd6c)" style="fill: #808080; opacity: 0.5"/>
   </g>
   <g id="patch_5">
    <path d="M 231.507692 192.006198 
L 231.101993 192.238404 
L 231.006331 192.29257 
L 230.529778 192.559104 
L 230.257593 192.708888 
L 229.801931 192.955705 
L 229.488046 193.12289 
L 229.217425 193.265193 
L 229.02297 193.366402 
L 228.79857 193.482119 
L 228.22596 193.772214 
L 228.089715 193.840151 
L 227.688508 194.037803 
L 227.519217 194.120133 
L 227.16193 194.291822 
L 226.718481 194.501044 
L 226.606549 194.553181 
L 226.261371 194.71227 
L 225.851949 194.897673 
L 225.691666 194.96929 
L 225.329543 195.129103 
L 224.885056 195.321526 
L 224.51918 195.476853 
L 224.36398 195.54191 
L 224.09448 195.653713 
L 223.777259 195.783423 
L 223.348749 195.955419 
L 223.153286 196.032653 
L 222.73653 196.194791 
L 222.388037 196.327737 
L 222.243079 196.382335 
L 221.924795 196.500775 
L 221.403041 196.690675 
L 221.088181 196.802735 
L 220.905954 196.866723 
L 220.593722 196.97489 
L 220.197373 197.109535 
L 219.787443 197.245679 
L 219.696623 197.275416 
L 219.287431 197.407487 
L 219.133433 197.456386 
L 218.792955 197.56294 
L 218.449921 197.668135 
L 218.029079 197.794247 
L 217.880686 197.837946 
L 217.482283 197.953292 
L 217.108104 198.059014 
L 216.729302 198.16348 
L 216.592356 198.200616 
L 216.11834 198.326576 
L 215.720266 198.429278 
L 215.630854 198.451961 
L 215.376185 198.515798 
L 214.917989 198.627787 
L 214.63529 198.695052 
L 214.359502 198.759333 
L 213.94173 198.854196 
L 213.70934 198.905658 
L 213.302697 198.993474 
L 213.138736 199.028078 
L 212.804625 199.09717 
L 212.519271 199.154672 
L 212.167806 199.223591 
L 211.669754 199.31767 
L 211.564592 199.336999 
L 211.178899 199.406294 
L 210.718082 199.485808 
L 210.55777 199.512636 
L 210.115562 199.584414 
L 210.003069 199.602153 
L 209.509348 199.67752 
L 209.415503 199.691388 
L 208.925972 199.761364 
L 208.60518 199.805072 
L 208.42477 199.828908 
L 208.089114 199.871829 
L 207.829614 199.903744 
L 207.429854 199.950747 
L 206.954143 200.003273 
L 206.830046 200.016367 
L 206.472864 200.052655 
L 206.246359 200.074589 
L 205.850809 200.110894 
L 205.424184 200.147202 
L 205.252233 200.161002 
L 204.876208 200.18951 
L 204.500928 200.215682 
L 204.214833 200.234105 
L 203.987807 200.247784 
L 203.718337 200.262942 
L 203.456991 200.276524 
L 202.874495 200.302839 
L 202.796129 200.305962 
L 202.307722 200.323203 
L 202.146473 200.328053 
L 201.686946 200.339583 
L 201.493022 200.343431 
L 200.995256 200.350545 
L 200.720299 200.352769 
L 200.586871 200.35341 
L 200.315248 200.353834 
L 199.905755 200.352235 
L 199.590099 200.349165 
L 199.391898 200.34642 
L 198.899557 200.336872 
L 198.754543 200.333317 
L 198.308431 200.320264 
L 197.921246 200.306342 
L 197.811355 200.301951 
L 197.46418 200.286803 
L 196.983558 200.262628 
L 196.834486 200.254374 
L 196.407608 200.228754 
L 196.094947 200.208122 
L 195.675992 200.177999 
L 195.410197 200.157416 
L 195.054725 200.128098 
L 194.890971 200.113903 
L 194.507223 200.078932 
L 194.175252 200.046747 
L 193.93706 200.022548 
L 193.72252 199.999959 
L 193.214065 199.943424 
L 192.871657 199.902967 
L 192.666286 199.87778 
L 192.444027 199.84974 
L 192.111954 199.806333 
L 191.635658 199.7409 
L 191.551031 199.728882 
L 191.199372 199.677673 
L 190.853712 199.625338 
L 190.491402 199.568351 
L 190.17125 199.516173 
L 189.930028 199.475728 
L 189.688699 199.434289 
L 189.250509 199.356548 
L 188.84139 199.281045 
L 188.541265 199.223858 
L 188.213511 199.159661 
L 187.957542 199.108255 
L 187.745111 199.064744 
L 187.295058 198.970013 
L 186.892102 198.882245 
L 186.736383 198.847578 
L 186.292565 198.746474 
L 186.213506 198.728106 
L 185.638844 198.591321 
L 185.408832 198.534955 
L 185.072044 198.450748 
L 184.832535 198.389649 
L 184.638923 198.339517 
L 184.220606 198.228935 
L 184.056546 198.184715 
L 183.754315 198.101995 
L 183.142658 197.92957 
L 183.090621 197.914589 
L 182.704537 197.80191 
L 182.427824 197.719483 
L 182.068798 197.610451 
L 181.791617 197.524656 
L 181.503181 197.433871 
L 180.963121 197.259736 
L 180.816393 197.211485 
L 180.579771 197.132823 
L 180.095532 196.968554 
L 179.715766 196.836614 
L 179.582175 196.789547 
L 179.141559 196.631881 
L 178.931586 196.555429 
L 178.509577 196.399187 
L 178.338578 196.334888 
L 178.03761 196.220324 
L 177.545926 196.029318 
L 177.212662 195.897119 
L 176.939591 195.787137 
L 176.775569 195.720354 
L 176.284328 195.517076 
L 176.137488 195.455356 
L 175.842541 195.330047 
L 175.321735 195.104387 
L 175.305389 195.097213 
L 174.704165 194.829447 
L 174.366635 194.675769 
L 174.08091 194.543776 
L 173.822853 194.423054 
L 173.587159 194.311534 
L 173.268665 194.158911 
L 172.906569 193.982685 
L 172.697853 193.879787 
L 172.214124 193.637561 
L 171.983513 193.520226 
L 171.736793 193.393356 
L 171.499991 193.270275 
L 170.954363 192.981742 
L 170.787558 192.892149 
L 170.514706 192.744182 
L 170.03796 192.481396 
L 169.733605 192.310777 
L 169.589758 192.229356 
L 169.2 192.006198 
L 169.2 262.661538 
L 169.551678 262.660546 
L 169.673785 262.659737 
L 170.209929 262.653353 
L 170.403351 262.649917 
L 170.779256 262.641521 
L 170.994097 262.635703 
L 171.522229 262.618248 
L 171.567071 262.61656 
L 171.91964 262.602156 
L 172.192212 262.589649 
L 172.638767 262.566573 
L 172.832852 262.555542 
L 173.317333 262.525352 
L 173.490319 262.513654 
L 173.847976 262.487934 
L 174.230602 262.458126 
L 174.617131 262.425605 
L 174.943828 262.396227 
L 175.257289 262.366408 
L 175.449272 262.347355 
L 175.757261 262.315535 
L 175.958722 262.293883 
L 176.539906 262.227704 
L 176.864113 262.188383 
L 176.954218 262.177148 
L 177.402008 262.119335 
L 177.567368 262.097151 
L 178.080255 262.025473 
L 178.232533 262.003354 
L 178.661865 261.938923 
L 178.77971 261.920701 
L 179.283657 261.840173 
L 179.589154 261.789292 
L 179.886245 261.738312 
L 180.099544 261.700798 
L 180.332457 261.658959 
L 180.723029 261.586748 
L 181.221914 261.490759 
L 181.305346 261.474294 
L 181.644417 261.40616 
L 182.182922 261.293917 
L 182.493926 261.226829 
L 182.523417 261.220381 
L 182.926669 261.130709 
L 183.375716 261.027544 
L 183.735503 260.942357 
L 183.794281 260.928226 
L 184.133562 260.845476 
L 184.514533 260.750151 
L 184.866514 260.659807 
L 185.066385 260.607529 
L 185.338893 260.535111 
L 185.662867 260.447295 
L 185.985128 260.358079 
L 186.302177 260.268486 
L 186.690512 260.156275 
L 186.912577 260.090879 
L 187.362246 259.955703 
L 187.764651 259.831592 
L 188.120271 259.719424 
L 188.36506 259.640851 
L 188.584599 259.569434 
L 189.070157 259.408273 
L 189.273002 259.339634 
L 189.658133 259.207167 
L 189.917113 259.116502 
L 190.219739 259.008932 
L 190.60463 258.869573 
L 190.837232 258.783965 
L 191.160214 258.663344 
L 191.277702 258.618961 
L 191.700769 258.456892 
L 192.144106 258.283256 
L 192.388761 258.185757 
L 192.636811 258.085678 
L 193.038688 257.920898 
L 193.334037 257.797704 
L 193.493439 257.730473 
L 193.99705 257.514627 
L 194.259357 257.400118 
L 194.680821 257.213114 
L 194.816593 257.152074 
L 195.124568 257.012167 
L 195.421186 256.875505 
L 195.792836 256.701602 
L 195.983963 256.611004 
L 196.55328 256.336402 
L 196.749177 256.240261 
L 196.990519 256.120643 
L 197.334467 255.947913 
L 197.736483 255.742633 
L 198.083875 255.562272 
L 198.402961 255.394155 
L 198.534316 255.32426 
L 198.963995 255.092801 
L 199.149354 254.991605 
L 199.641906 254.718714 
L 200.000256 254.516497 
L 200.230187 254.385097 
L 200.450343 254.258063 
L 200.83872 254.031029 
L 201.255435 253.783216 
L 201.571056 253.592584 
L 201.724008 253.499283 
L 202.21844 253.19352 
L 202.294153 253.146133 
L 202.727803 252.871795 
L 202.865495 252.783637 
L 203.409427 252.430363 
L 203.509451 252.364519 
L 203.935233 252.081132 
L 204.138808 251.943848 
L 204.577543 251.643981 
L 204.903834 251.417383 
L 205.301572 251.136964 
L 205.482014 251.008204 
L 205.932327 250.682612 
L 206.095918 250.562807 
L 206.329833 250.390073 
L 206.768272 250.061727 
L 207.064848 249.836185 
L 207.299418 249.655802 
L 207.795095 249.268743 
L 208.162717 248.976425 
L 208.347697 248.827615 
L 208.679059 248.558124 
L 209.061869 248.242048 
L 209.209103 248.119108 
L 209.594093 247.793975 
L 209.750442 247.660402 
L 210.074571 247.380626 
L 210.387907 247.106438 
L 210.698602 246.830878 
L 211.163168 246.411865 
L 211.346632 246.244041 
L 211.892656 245.736504 
L 212.112967 245.528239 
L 212.466057 245.19018 
L 212.840372 244.825932 
L 213.010419 244.658425 
L 213.346786 244.323265 
L 213.793636 243.870006 
L 213.985899 243.672108 
L 214.298991 243.34605 
L 214.448001 243.189192 
L 214.904306 242.701986 
L 215.308512 242.261526 
L 215.484321 242.067275 
L 216.007597 241.479232 
L 216.129795 241.339733 
L 216.628982 240.761026 
L 216.666442 240.717015 
L 217.179765 240.105458 
L 217.505102 239.709476 
L 217.810764 239.331303 
L 218.044202 239.03837 
L 218.307135 238.704046 
L 218.542595 238.400618 
L 219.099338 237.667445 
L 219.202166 237.529537 
L 219.57825 237.018276 
L 219.889736 236.586417 
L 220.260525 236.061987 
L 220.698314 235.427656 
L 220.906146 235.12054 
L 221.263385 234.583255 
L 221.47416 234.260493 
L 221.841324 233.687605 
L 222.112258 233.255844 
L 222.454099 232.699626 
L 222.690424 232.307298 
L 222.995858 231.790357 
L 223.322781 231.224109 
L 223.557494 230.808918 
L 223.792207 230.386154 
L 223.845237 230.289553 
L 224.23596 229.565003 
L 224.510002 229.042732 
L 224.791115 228.494146 
L 225.072227 227.931786 
L 225.300224 227.464977 
L 225.54939 226.943219 
L 225.84018 226.318023 
L 226.068777 225.813436 
L 226.35106 225.17329 
L 226.633344 224.512893 
L 226.803655 224.10395 
L 226.982584 223.66525 
L 227.261063 222.962727 
L 227.400303 222.601841 
L 227.539543 222.234118 
L 227.744387 221.679963 
L 227.971288 221.046459 
L 228.141742 220.555816 
L 228.312196 220.051481 
L 228.433784 219.68277 
L 228.555373 219.306108 
L 228.676962 218.92101 
L 228.79855 218.52694 
L 228.860303 218.323174 
L 228.988534 217.891796 
L 229.116766 217.448574 
L 229.244997 216.992562 
L 229.373228 216.522679 
L 229.455009 216.215197 
L 229.536789 215.901205 
L 229.667914 215.383148 
L 229.799038 214.845398 
L 229.930163 214.285674 
L 229.995725 213.996732 
L 230.061287 213.701214 
L 230.169679 213.197005 
L 230.272598 212.698329 
L 230.375517 212.177747 
L 230.426977 211.90832 
L 230.478436 211.632224 
L 230.529895 211.348957 
L 230.581355 211.057948 
L 230.663126 210.577966 
L 230.704012 210.329066 
L 230.744898 210.073623 
L 230.785784 209.811106 
L 230.82667 209.540909 
L 230.867555 209.262333 
L 230.908441 208.974567 
L 230.968491 208.533215 
L 230.998516 208.303185 
L 231.02854 208.066181 
L 231.058565 207.821538 
L 231.08859 207.568479 
L 231.118615 207.306086 
L 231.14864 207.033258 
L 231.171081 206.821743 
L 231.193521 206.602992 
L 231.215962 206.376218 
L 231.238403 206.140476 
L 231.260844 205.894622 
L 231.283284 205.637245 
L 231.305725 205.366571 
L 231.328166 205.080315 
L 231.350607 204.775451 
L 231.361827 204.614803 
L 231.373048 204.447826 
L 231.384268 204.27371 
L 231.395488 204.091458 
L 231.406709 203.899816 
L 231.417929 203.697169 
L 231.42915 203.481379 
L 231.44037 203.24951 
L 231.45159 202.997332 
L 231.462811 202.718359 
L 231.474031 202.401666 
L 231.485252 202.025959 
L 231.496472 201.536262 
L 231.507692 200.353846 
z
" clip-path="url(#p2b3f4acd6c)" style="fill: #808080; opacity: 0.5"/>
   </g>
   <g id="matplotlib.axis_1"/>
   <g id="matplotlib.axis_2"/>
   <g id="line2d_1">
    <path d="M 106.892308 200.353846 
L 107.023546 204.395758 
L 107.35882 207.964169 
L 107.937898 211.720611 
L 108.775866 215.558207 
L 109.832911 219.269376 
L 111.079069 222.808375 
L 112.499926 226.186966 
L 114.052822 229.354489 
L 115.844766 232.532527 
L 117.905669 235.725306 
L 119.888869 238.441389 
L 122.520109 241.62413 
L 125.107093 244.377295 
L 127.806616 246.924612 
L 130.800382 249.422348 
L 133.830175 251.649304 
L 136.949561 253.665737 
L 140.26759 255.536853 
L 143.928718 257.306553 
L 147.467759 258.748694 
L 151.097049 259.973739 
L 154.331235 260.861435 
L 157.875267 261.623732 
L 161.617932 262.198496 
L 165.10391 262.526755 
L 168.813541 262.66034 
L 169.2 262.661538 
L 169.2 262.661538 
" clip-path="url(#p2b3f4acd6c)" style="fill: none; stroke: #228b22; stroke-linecap: square"/>
   </g>
   <g id="line2d_2">
    <path d="M 169.2 262.661538 
L 172.832852 262.555542 
L 176.539906 262.227704 
L 180.332457 261.658959 
L 184.133562 260.845476 
L 187.764651 259.831592 
L 191.277702 258.618961 
L 194.816593 257.152074 
L 198.083875 255.562272 
L 201.255435 253.783216 
L 204.138808 251.943848 
L 207.299418 249.655802 
L 210.387907 247.106438 
L 213.010419 244.658425 
L 215.484321 242.067275 
L 218.044202 239.03837 
L 220.260525 236.061987 
L 222.454099 232.699626 
L 224.23596 229.565003 
L 225.84018 226.318023 
L 227.261063 222.962727 
L 228.555373 219.306108 
L 229.536789 215.901205 
L 230.375517 212.177747 
L 230.968491 208.533215 
L 231.350607 204.775451 
L 231.496472 201.536262 
L 231.507692 200.353846 
L 231.507692 200.353846 
" clip-path="url(#p2b3f4acd6c)" style="fill: none; stroke: #228b22; stroke-linecap: square"/>
   </g>
   <g id="text_1">
    <!-- $\Omega$ -->
    <g transform="translate(16.011538 22.420913) scale(0.1 -0.1)">
     <defs>
      <path id="Cmr10-ad" d="M 494 0 
L 281 1063 
L 469 1063 
Q 503 878 531 736 
Q 559 594 604 536 
Q 650 478 750 459 
Q 850 441 1081 441 
L 1472 441 
Q 1378 803 1004 1386 
Q 631 1969 495 2233 
Q 359 2497 359 2913 
Q 359 3397 646 3761 
Q 934 4125 1389 4319 
Q 1844 4513 2309 4513 
Q 2772 4513 3226 4319 
Q 3681 4125 3968 3758 
Q 4256 3391 4256 2913 
Q 4256 2588 4137 2300 
Q 4019 2013 3834 1725 
Q 3650 1438 3436 1084 
Q 3222 731 3144 441 
L 3531 441 
Q 3766 441 3869 459 
Q 3972 478 4015 536 
Q 4059 594 4086 736 
Q 4113 878 4147 1063 
L 4331 1063 
L 4122 0 
L 2988 0 
Q 2925 0 2925 84 
Q 2925 409 3004 721 
Q 3084 1034 3240 1478 
Q 3397 1922 3484 2261 
Q 3572 2600 3572 2913 
Q 3572 3297 3422 3625 
Q 3272 3953 2984 4150 
Q 2697 4347 2309 4347 
Q 1725 4347 1384 3930 
Q 1044 3513 1044 2913 
Q 1047 2584 1122 2293 
Q 1197 2003 1364 1518 
Q 1531 1034 1611 721 
Q 1691 409 1691 84 
Q 1691 0 1625 0 
L 494 0 
z
" transform="scale(0.015625)"/>
     </defs>
     <use xlink:href="#Cmr10-ad" transform="translate(0 0.484375)"/>
    </g>
   </g>
   <g id="text_2">
    <!-- $A$ -->
    <g style="fill: #0000ff" transform="translate(103.142308 78.497837) scale(0.1 -0.1)">
     <defs>
      <path id="Cmmi10-41" d="M 288 0 
Q 225 0 225 84 
Q 250 225 306 225 
Q 566 225 755 328 
Q 944 431 1081 647 
Q 1094 659 1094 659 
L 3378 4513 
Q 3428 4581 3500 4581 
L 3584 4581 
Q 3603 4581 3622 4573 
Q 3641 4566 3655 4548 
Q 3669 4531 3669 4513 
L 4056 378 
Q 4056 350 4084 294 
Q 4147 225 4563 225 
Q 4628 225 4628 141 
Q 4606 56 4592 28 
Q 4578 0 4519 0 
L 2919 0 
Q 2859 0 2859 84 
Q 2894 225 2944 225 
Q 3450 225 3481 397 
L 3384 1453 
L 1806 1453 
L 1294 594 
Q 1247 525 1247 434 
Q 1247 322 1355 273 
Q 1463 225 1594 225 
Q 1656 225 1656 141 
Q 1634 50 1621 25 
Q 1609 0 1550 0 
L 288 0 
z
M 1931 1678 
L 3359 1678 
L 3169 3750 
L 1931 1678 
z
" transform="scale(0.015625)"/>
     </defs>
     <use xlink:href="#Cmmi10-41" transform="translate(0 0.421875)"/>
    </g>
   </g>
   <g id="text_3">
    <!-- $B$ -->
    <g style="fill: #ff0000" transform="translate(227.707692 78.497837) scale(0.1 -0.1)">
     <defs>
      <path id="Cmmi10-42" d="M 319 0 
Q 256 0 256 84 
Q 259 100 268 137 
Q 278 175 293 200 
Q 309 225 341 225 
Q 522 225 656 234 
Q 791 244 884 269 
Q 959 297 1006 441 
L 1881 3956 
Q 1894 4019 1894 4044 
Q 1894 4113 1819 4122 
Q 1697 4147 1356 4147 
Q 1294 4147 1294 4231 
Q 1297 4247 1306 4286 
Q 1316 4325 1333 4348 
Q 1350 4372 1375 4372 
L 3669 4372 
Q 3878 4372 4083 4320 
Q 4288 4269 4461 4156 
Q 4634 4044 4736 3876 
Q 4838 3709 4838 3488 
Q 4838 3247 4714 3040 
Q 4591 2834 4395 2681 
Q 4200 2528 3973 2429 
Q 3747 2331 3500 2284 
Q 3675 2284 3854 2215 
Q 4034 2147 4175 2028 
Q 4316 1909 4402 1743 
Q 4488 1578 4488 1388 
Q 4488 1003 4219 684 
Q 3950 366 3542 183 
Q 3134 0 2753 0 
L 319 0 
z
M 1497 275 
Q 1497 225 1716 225 
L 2631 225 
Q 2944 225 3231 398 
Q 3519 572 3692 859 
Q 3866 1147 3866 1459 
Q 3866 1650 3786 1820 
Q 3706 1991 3556 2089 
Q 3406 2188 3213 2188 
L 1966 2188 
L 1522 416 
Q 1497 328 1497 275 
z
M 2009 2356 
L 2981 2356 
Q 3288 2356 3577 2512 
Q 3866 2669 4048 2937 
Q 4231 3206 4231 3506 
Q 4231 3784 4057 3965 
Q 3884 4147 3609 4147 
L 2731 4147 
Q 2559 4147 2500 4115 
Q 2441 4084 2400 3928 
L 2009 2356 
z
" transform="scale(0.015625)"/>
     </defs>
     <use xlink:href="#Cmmi10-42" transform="translate(0 0.6875)"/>
    </g>
   </g>
   <g id="text_4">
    <!-- $C$ -->
    <g style="fill: #228b22" transform="translate(150.023077 271.651683) scale(0.1 -0.1)">
     <defs>
      <path id="Cmmi10-43" d="M 934 1381 
Q 934 997 1082 705 
Q 1231 413 1514 248 
Q 1797 84 2181 84 
Q 2584 84 2957 290 
Q 3331 497 3595 842 
Q 3859 1188 3956 1575 
Q 3969 1613 4006 1613 
L 4084 1613 
Q 4109 1613 4125 1595 
Q 4141 1578 4141 1556 
Q 4141 1550 4134 1538 
Q 4025 1094 3711 705 
Q 3397 316 2959 87 
Q 2522 -141 2059 -141 
Q 1559 -141 1162 84 
Q 766 309 545 709 
Q 325 1109 325 1613 
Q 325 2150 565 2676 
Q 806 3203 1212 3614 
Q 1619 4025 2139 4269 
Q 2659 4513 3194 4513 
Q 3406 4513 3600 4448 
Q 3794 4384 3959 4253 
Q 4125 4122 4231 3950 
L 4738 4500 
Q 4738 4513 4769 4513 
L 4806 4513 
Q 4831 4513 4847 4491 
Q 4863 4469 4863 4447 
L 4428 2719 
Q 4428 2675 4378 2675 
L 4263 2675 
Q 4213 2675 4213 2747 
Q 4238 2888 4238 3084 
Q 4238 3397 4131 3673 
Q 4025 3950 3801 4119 
Q 3578 4288 3256 4288 
Q 2734 4288 2300 4025 
Q 1866 3763 1564 3336 
Q 1263 2909 1098 2389 
Q 934 1869 934 1381 
z
" transform="scale(0.015625)"/>
     </defs>
     <use xlink:href="#Cmmi10-43" transform="translate(0 0.484375)"/>
    </g>
   </g>
   <g id="patch_6">
    <path d="M 138.046154 200.353846 
C 154.570347 200.353846 170.419977 193.788715 182.104346 182.104346 
C 193.788715 170.419977 200.353846 154.570347 200.353846 138.046154 
C 200.353846 121.521961 193.788715 105.672331 182.104346 93.987962 
C 170.419977 82.303593 154.570347 75.738462 138.046154 75.738462 
C 121.521961 75.738462 105.672331 82.303593 93.987962 93.987962 
C 82.303593 105.672331 75.738462 121.521961 75.738462 138.046154 
C 75.738462 154.570347 82.303593 170.419977 93.987962 182.104346 
C 105.672331 193.788715 121.521961 200.353846 138.046154 200.353846 
L 138.046154 200.353846 
z
" clip-path="url(#p2b3f4acd6c)" style="fill: none; stroke: #0000ff; stroke-linejoin: miter"/>
   </g>
   <g id="patch_7">
    <path d="M 200.353846 200.353846 
C 216.878039 200.353846 232.727669 193.788715 244.412038 182.104346 
C 256.096407 170.419977 262.661538 154.570347 262.661538 138.046154 
C 262.661538 121.521961 256.096407 105.672331 244.412038 93.987962 
C 232.727669 82.303593 216.878039 75.738462 200.353846 75.738462 
C 183.829653 75.738462 167.980023 82.303593 156.295654 93.987962 
C 144.611285 105.672331 138.046154 121.521961 138.046154 138.046154 
C 138.046154 154.570347 144.611285 170.419977 156.295654 182.104346 
C 167.980023 193.788715 183.829653 200.353846 200.353846 200.353846 
L 200.353846 200.353846 
z
" clip-path="url(#p2b3f4acd6c)" style="fill: none; stroke: #ff0000; stroke-linejoin: miter"/>
   </g>
   <g id="patch_8">
    <path d="M 169.2 262.661538 
C 185.724193 262.661538 201.573823 256.096407 213.258192 244.412038 
C 224.942561 232.727669 231.507692 216.878039 231.507692 200.353846 
C 231.507692 183.829653 224.942561 167.980023 213.258192 156.295654 
C 201.573823 144.611285 185.724193 138.046154 169.2 138.046154 
C 152.675807 138.046154 136.826177 144.611285 125.141808 156.295654 
C 113.457439 167.980023 106.892308 183.829653 106.892308 200.353846 
C 106.892308 216.878039 113.457439 232.727669 125.141808 244.412038 
C 136.826177 256.096407 152.675807 262.661538 169.2 262.661538 
L 169.2 262.661538 
z
" clip-path="url(#p2b3f4acd6c)" style="fill: none; stroke: #228b22; stroke-linejoin: miter"/>
   </g>
  </g>
 </g>
 <defs>
  <clipPath id="p2b3f4acd6c">
   <rect x="7.2" y="7.2" width="324" height="324"/>
  </clipPath>
 </defs>
</svg>
