<?xml version="1.0" encoding="utf-8" standalone="no"?>
<!DOCTYPE svg PUBLIC "-//W3C//DTD SVG 1.1//EN"
  "http://www.w3.org/Graphics/SVG/1.1/DTD/svg11.dtd">
<!-- Created with matplotlib (https://matplotlib.org/) -->
<svg height="338.4pt" version="1.1" viewBox="0 0 338.4 338.4" width="338.4pt" xmlns="http://www.w3.org/2000/svg" xmlns:xlink="http://www.w3.org/1999/xlink">
 <metadata>
  <rdf:RDF xmlns:cc="http://creativecommons.org/ns#" xmlns:dc="http://purl.org/dc/elements/1.1/" xmlns:rdf="http://www.w3.org/1999/02/22-rdf-syntax-ns#">
   <cc:Work>
    <dc:type rdf:resource="http://purl.org/dc/dcmitype/StillImage"/>
    <dc:date>2024-11-18T20:48:09.905820</dc:date>
    <dc:format>image/svg+xml</dc:format>
    <dc:creator>
     <cc:Agent>
      <dc:title>Matplotlib v3.3.4, https://matplotlib.org/</dc:title>
     </cc:Agent>
    </dc:creator>
   </cc:Work>
  </rdf:RDF>
 </metadata>
 <defs>
  <style type="text/css">*{stroke-linecap:butt;stroke-linejoin:round;}</style>
 </defs>
 <g id="figure_1">
  <g id="patch_1">
   <path d="M -0 338.4 
L 338.4 338.4 
L 338.4 0 
L -0 0 
z
" style="fill:#ffffff;"/>
  </g>
  <g id="axes_1">
   <g id="patch_2">
    <path d="M 7.2 331.2 
L 331.2 331.2 
L 331.2 7.2 
L 7.2 7.2 
z
" style="fill:#ffffff;"/>
   </g>
   <g id="patch_3">
    <path clip-path="url(#p8ffc3aa453)" d="M 13.430769 324.969231 
L 13.430769 13.430769 
L 324.969231 13.430769 
L 324.969231 324.969231 
z
" style="fill:none;stroke:#000000;stroke-linejoin:miter;"/>
   </g>
   <g id="patch_4">
    <path clip-path="url(#p8ffc3aa453)" d="M 200.353846 138.046154 
L 200.351178 138.622778 
L 200.34851 138.861615 
L 200.345841 139.044875 
L 200.343173 139.199365 
L 200.340505 139.33547 
L 200.337837 139.458514 
L 200.335169 139.57166 
L 200.3325 139.676971 
L 200.329832 139.775879 
L 200.327164 139.869424 
L 200.324496 139.958396 
L 200.321827 140.043404 
L 200.316491 140.203384 
L 200.311154 140.352281 
L 200.305818 140.492118 
L 200.300482 140.624372 
L 200.295145 140.750154 
L 200.289809 140.870329 
L 200.284472 140.985585 
L 200.279136 141.096481 
L 200.273799 141.203475 
L 200.268463 141.306951 
L 200.257802 141.504385 
L 200.247141 141.69111 
L 200.23648 141.868695 
L 200.225819 142.038359 
L 200.215159 142.201074 
L 200.204498 142.357626 
L 200.193837 142.508664 
L 200.183176 142.65473 
L 200.172515 142.796283 
L 200.161855 142.933714 
L 200.151194 143.067363 
L 200.140533 143.197523 
L 200.119211 143.448381 
L 200.09789 143.688016 
L 200.077949 143.903197 
L 200.058008 144.110682 
L 200.038067 144.311237 
L 200.018126 144.505506 
L 199.998185 144.69404 
L 199.978244 144.877315 
L 199.958303 145.055743 
L 199.938362 145.229685 
L 199.90792 145.487283 
L 199.877478 145.736136 
L 199.847037 145.977069 
L 199.816595 146.210781 
L 199.786153 146.437876 
L 199.755711 146.658878 
L 199.72527 146.874244 
L 199.694828 147.084378 
L 199.653082 147.36468 
L 199.611336 147.636612 
L 199.557589 147.975499 
L 199.503842 148.302913 
L 199.450095 148.619921 
L 199.396348 148.927432 
L 199.339268 149.244487 
L 199.282189 149.552525 
L 199.223983 149.858086 
L 199.165778 150.155659 
L 199.092296 150.520809 
L 199.018815 150.875148 
L 198.964234 151.13187 
L 198.909654 151.383428 
L 198.855073 151.630109 
L 198.800493 151.872174 
L 198.733554 152.163094 
L 198.666615 152.447828 
L 198.60514 152.704181 
L 198.543664 152.955873 
L 198.482189 153.203137 
L 198.420714 153.446187 
L 198.356594 153.695413 
L 198.258895 154.067214 
L 198.161195 154.429998 
L 198.100264 154.651949 
L 198.039332 154.870751 
L 197.934717 155.239425 
L 197.830101 155.599735 
L 197.707938 156.010564 
L 197.594878 156.381855 
L 197.481222 156.746988 
L 197.367565 157.10445 
L 197.24618 157.478226 
L 197.141406 157.794562 
L 197.036633 158.105364 
L 196.941456 158.383114 
L 196.846279 158.656681 
L 196.697445 159.076478 
L 196.645419 159.221014 
L 196.556096 159.466593 
L 196.466773 159.70902 
L 196.353881 160.01107 
L 196.240988 160.308449 
L 196.100827 160.671436 
L 196.022279 160.87196 
L 195.856951 161.287502 
L 195.658742 161.77458 
L 195.510239 162.131988 
L 195.33757 162.53987 
L 195.18425 162.895429 
L 195.050213 163.201388 
L 194.911553 163.513288 
L 194.723878 163.928274 
L 194.620114 164.154304 
L 194.448157 164.52374 
L 194.28564 164.867204 
L 194.131949 165.187121 
L 193.990316 165.477874 
L 193.747408 165.967809 
L 193.606075 166.247993 
L 193.453069 166.547421 
L 193.271943 166.896817 
L 193.096109 167.230927 
L 192.979438 167.449943 
L 192.876197 167.642014 
L 192.721853 167.926188 
L 192.580009 168.184288 
L 192.381436 168.540835 
L 192.221819 168.823512 
L 192.114901 169.010959 
L 191.956798 169.285408 
L 191.802955 169.549406 
L 191.568635 169.945881 
L 191.447431 170.148368 
L 191.279071 170.426781 
L 191.183786 170.582911 
L 190.912137 171.022453 
L 190.854898 171.114039 
L 190.587952 171.53657 
L 190.480223 171.704985 
L 190.386704 171.850227 
L 190.20207 172.134406 
L 190.086494 172.31059 
L 189.877683 172.625644 
L 189.718579 172.862946 
L 189.628342 172.996496 
L 189.44255 173.269143 
L 189.259957 173.534107 
L 189.082488 173.788861 
L 188.993659 173.915364 
L 188.828482 174.148836 
L 188.538163 174.553763 
L 188.392114 174.75491 
L 188.37231 174.782057 
L 188.210094 175.00326 
L 187.967466 175.330348 
L 187.764186 175.600991 
L 187.644103 175.75944 
L 187.544422 175.890176 
L 187.412478 176.062132 
L 187.245568 176.277897 
L 187.015684 176.571907 
L 186.889973 176.731162 
L 186.679524 176.995401 
L 186.631351 177.055475 
L 186.481735 177.241089 
L 186.228347 177.552163 
L 186.14698 177.651191 
L 185.895095 177.955142 
L 185.749185 178.129433 
L 185.617042 178.286173 
L 185.523622 178.396353 
L 185.382444 178.561881 
L 185.136522 178.84745 
L 185.013557 178.988937 
L 184.819602 179.210375 
L 184.738455 179.302396 
L 184.596027 179.463033 
L 184.334293 179.755346 
L 184.276778 179.819087 
L 184.095694 180.018625 
L 183.881145 180.252813 
L 183.759452 180.384586 
L 183.612238 180.542983 
L 183.497438 180.665741 
L 183.342391 180.83049 
L 183.10254 181.083006 
L 182.945197 181.247131 
L 182.890956 181.303433 
L 182.681465 181.519566 
L 182.520161 181.684568 
L 182.313784 181.893907 
L 182.240224 181.968046 
L 182.061124 182.147525 
L 181.913462 182.294406 
L 181.724034 182.481402 
L 181.572566 182.629782 
L 181.335276 182.860219 
L 181.293831 182.900217 
L 181.095201 183.090888 
L 180.961613 183.21818 
L 180.818668 183.353555 
L 180.612185 183.547599 
L 180.510442 183.642565 
L 180.255778 183.878415 
L 180.106052 184.015856 
L 179.931162 184.175262 
L 179.921405 184.184119 
L 179.632298 184.444873 
L 179.521145 184.544257 
L 179.318039 184.724629 
L 179.19622 184.832055 
L 179.034746 184.973585 
L 178.975233 185.025501 
L 178.724189 185.243039 
L 178.541979 185.399471 
L 178.405231 185.516075 
L 178.210829 185.680673 
L 178.139085 185.741074 
L 178.020605 185.840419 
L 177.761894 186.055616 
L 177.650551 186.147508 
L 177.433626 186.325296 
L 177.388519 186.36206 
L 177.230905 186.489975 
L 177.064533 186.624077 
L 176.944287 186.720416 
L 176.75887 186.868015 
L 176.563174 187.022553 
L 176.430803 187.126366 
L 176.27784 187.245612 
L 176.084139 187.395523 
L 175.939426 187.506729 
L 175.765205 187.639719 
L 175.665273 187.715565 
L 175.483389 187.852799 
L 175.240347 188.034557 
L 175.155755 188.097388 
L 175.031016 188.189633 
L 174.84621 188.325418 
L 174.670819 188.45332 
L 174.508005 188.571216 
L 174.311042 188.712774 
L 174.183975 188.803482 
L 173.99652 188.936425 
L 173.932227 188.981783 
L 173.770918 189.095049 
L 173.543518 189.253435 
L 173.374096 189.370466 
L 173.331542 189.399731 
L 173.18809 189.498004 
L 172.913036 189.684793 
L 172.843389 189.731751 
L 172.714753 189.818123 
L 172.549429 189.928448 
L 172.385321 190.037212 
L 172.111376 190.217115 
L 171.993743 190.293735 
L 171.800848 190.418562 
L 171.682118 190.494895 
L 171.568945 190.567302 
L 171.411944 190.667181 
L 171.26612 190.759363 
L 171.068259 190.883537 
L 170.895298 190.991241 
L 170.813836 191.041696 
L 170.664815 191.133548 
L 170.456354 191.261071 
L 170.281301 191.367292 
L 170.182128 191.427122 
L 170.011414 191.529522 
L 169.83085 191.637026 
L 169.594719 191.776374 
L 169.576528 191.787051 
L 169.353358 191.917366 
L 169.2 192.006198 
L 169.2 192.006198 
L 169.335188 192.084024 
L 169.502488 192.179713 
L 169.737724 192.313101 
L 169.749829 192.319929 
L 169.931929 192.42221 
L 170.130772 192.532981 
L 170.254151 192.601235 
L 170.394683 192.678535 
L 170.577442 192.778359 
L 170.698029 192.843791 
L 170.878475 192.941062 
L 171.133629 193.077303 
L 171.228122 193.127373 
L 171.397306 193.216502 
L 171.575412 193.309616 
L 171.677201 193.362503 
L 171.790886 193.421291 
L 172.058056 193.558285 
L 172.150989 193.605558 
L 172.324002 193.693044 
L 172.434375 193.748502 
L 172.679381 193.870633 
L 172.733552 193.897455 
L 172.887436 193.973292 
L 173.180931 194.116478 
L 173.284703 194.166649 
L 173.45311 194.247568 
L 173.573233 194.304907 
L 173.77359 194.399845 
L 173.857584 194.439386 
L 174.095225 194.550431 
L 174.236126 194.615697 
L 174.330845 194.659332 
L 174.588242 194.77694 
L 174.656308 194.807805 
L 174.89125 194.913585 
L 174.956431 194.942725 
L 175.217152 195.058391 
L 175.251379 195.073469 
L 175.393087 195.135637 
L 175.632815 195.239852 
L 175.850496 195.33345 
L 175.854096 195.33499 
L 176.051943 195.419197 
L 176.261866 195.507663 
L 176.409899 195.569505 
L 176.60206 195.649115 
L 176.748381 195.709232 
L 176.886577 195.765611 
L 177.009463 195.815422 
L 177.252232 195.912932 
L 177.312803 195.937076 
L 177.473331 196.00071 
L 177.646738 196.068871 
L 177.74173 196.105957 
L 177.926998 196.177772 
L 178.191724 196.27921 
L 178.215556 196.288275 
L 178.425646 196.367698 
L 178.541785 196.411233 
L 178.786082 196.50195 
L 178.927495 196.553931 
L 179.105191 196.6187 
L 179.219949 196.660204 
L 179.316831 196.695046 
L 179.577808 196.788002 
L 179.737387 196.844199 
L 179.883856 196.895351 
L 179.949731 196.918224 
L 180.178651 196.997066 
L 180.247329 197.020525 
L 180.466955 197.094948 
L 180.670761 197.163196 
L 180.794858 197.20437 
L 180.880862 197.232735 
L 181.050299 197.288213 
L 181.177103 197.329381 
L 181.474161 197.424652 
L 181.62622 197.472786 
L 181.655432 197.481983 
L 181.901951 197.558977 
L 182.03597 197.600364 
L 182.224357 197.657983 
L 182.386492 197.707052 
L 182.491234 197.738495 
L 182.630004 197.779846 
L 182.850883 197.84494 
L 182.970497 197.879821 
L 183.070924 197.908906 
L 183.260976 197.963449 
L 183.522261 198.037372 
L 183.558447 198.047513 
L 183.7644 198.104782 
L 183.949035 198.155477 
L 184.138306 198.206812 
L 184.199269 198.223211 
L 184.351918 198.263982 
L 184.511918 198.306272 
L 184.663081 198.345809 
L 184.916582 198.411205 
L 185.021556 198.437953 
L 185.164601 198.474089 
L 185.306221 198.50951 
L 185.471105 198.550307 
L 185.682555 198.601928 
L 185.730246 198.613462 
L 185.886588 198.650997 
L 186.162745 198.716255 
L 186.326939 198.754427 
L 186.493411 198.79265 
L 186.583809 198.813206 
L 186.6912 198.837441 
L 186.907423 198.885633 
L 186.989485 198.903712 
L 187.195917 198.948678 
L 187.437807 199.000435 
L 187.494783 199.012481 
L 187.745151 199.064752 
L 187.764214 199.068688 
L 187.980085 199.112827 
L 188.159814 199.14897 
L 188.25095 199.167087 
L 188.393509 199.195143 
L 188.541831 199.223967 
L 188.769401 199.267467 
L 188.912822 199.294431 
L 189.145629 199.337461 
L 189.189901 199.345541 
L 189.367597 199.377637 
L 189.528787 199.406292 
L 189.765126 199.447518 
L 189.792796 199.452283 
L 190.033218 199.493149 
L 190.105201 199.505195 
L 190.388606 199.551784 
L 190.418179 199.556568 
L 190.697595 199.601051 
L 190.849737 199.624725 
L 190.936083 199.63799 
L 191.040717 199.653898 
L 191.329166 199.696812 
L 191.355809 199.700706 
L 191.645083 199.742231 
L 191.791177 199.762677 
L 191.928201 199.781533 
L 192.0849 199.802717 
L 192.267518 199.826894 
L 192.425616 199.847381 
L 192.450163 199.850525 
L 192.620311 199.872046 
L 192.88872 199.905029 
L 193.030745 199.922003 
L 193.178848 199.939352 
L 193.30146 199.953442 
L 193.486398 199.97423 
L 193.609513 199.987759 
L 193.755977 200.003531 
L 193.861307 200.014658 
L 194.093943 200.03859 
L 194.175077 200.046729 
L 194.405143 200.069226 
L 194.628816 200.090272 
L 194.663312 200.093445 
L 194.866847 200.111775 
L 194.990817 200.12261 
L 195.165206 200.13743 
L 195.35025 200.152615 
L 195.563845 200.169454 
L 195.620377 200.173787 
L 195.851506 200.190964 
L 195.975232 200.199804 
L 196.085341 200.207463 
L 196.324854 200.223447 
L 196.372969 200.226546 
L 196.563633 200.238459 
L 196.814366 200.253232 
L 196.946619 200.260616 
L 197.115406 200.26963 
L 197.165005 200.272192 
L 197.411012 200.284311 
L 197.547904 200.290633 
L 197.616297 200.293679 
L 197.816687 200.302168 
L 198.023253 200.310243 
L 198.09255 200.312799 
L 198.299915 200.319984 
L 198.398101 200.323145 
L 198.637834 200.330211 
L 198.847652 200.335639 
L 198.878432 200.336375 
L 199.163953 200.342483 
L 199.316829 200.345216 
L 199.368935 200.346061 
L 199.545045 200.348597 
L 199.720766 200.35063 
L 199.856126 200.351858 
L 200.092363 200.353297 
L 200.208906 200.353678 
L 200.353846 200.353846 
z
" style="fill:#808080;opacity:0.5;"/>
   </g>
   <g id="patch_5">
    <path clip-path="url(#p8ffc3aa453)" d="M 231.507692 200.353846 
L 231.500506 199.407544 
L 231.493319 199.015611 
L 231.486133 198.714897 
L 231.478947 198.461405 
L 231.47176 198.238093 
L 231.464574 198.036222 
L 231.457387 197.850598 
L 231.450201 197.677839 
L 231.443014 197.515594 
L 231.435828 197.362152 
L 231.428642 197.216221 
L 231.421455 197.076798 
L 231.414269 196.943085 
L 231.407082 196.814434 
L 231.399896 196.690312 
L 231.392709 196.570274 
L 231.385523 196.453942 
L 231.378337 196.340993 
L 231.363964 196.124172 
L 231.349591 195.917983 
L 231.335218 195.721005 
L 231.320845 195.532111 
L 231.306472 195.350384 
L 231.292099 195.17507 
L 231.277726 195.005538 
L 231.259089 194.793452 
L 231.240452 194.589225 
L 231.215316 194.324829 
L 231.190181 194.071652 
L 231.165046 193.828387 
L 231.139911 193.593964 
L 231.114775 193.367493 
L 231.08964 193.148224 
L 231.064505 192.935518 
L 231.039369 192.728826 
L 231.010204 192.495906 
L 230.981038 192.269799 
L 230.951873 192.049949 
L 230.922708 191.835872 
L 230.893542 191.627142 
L 230.864377 191.423384 
L 230.835211 191.224266 
L 230.806046 191.02949 
L 230.774916 190.826085 
L 230.730229 190.541638 
L 230.685542 190.265406 
L 230.640855 189.996732 
L 230.596168 189.735041 
L 230.540982 189.420759 
L 230.485796 189.115532 
L 230.43061 188.818644 
L 230.375424 188.529464 
L 230.307547 188.183547 
L 230.246973 187.883256 
L 230.186398 187.590315 
L 230.125824 187.304229 
L 230.06525 187.024558 
L 230.008621 186.768554 
L 229.951992 186.517518 
L 229.893231 186.261997 
L 229.83447 186.011267 
L 229.775709 185.765083 
L 229.716948 185.523217 
L 229.658603 185.287134 
L 229.600259 185.054915 
L 229.533469 184.793609 
L 229.463527 184.52489 
L 229.393584 184.260962 
L 229.323642 184.001593 
L 229.2537 183.746568 
L 229.18916 183.514926 
L 229.12462 183.286671 
L 229.041013 182.995804 
L 228.957407 182.710128 
L 228.90895 182.54683 
L 228.784484 182.134687 
L 228.660018 181.732495 
L 228.582512 181.486791 
L 228.505006 181.24456 
L 228.40359 180.932633 
L 228.302173 180.62616 
L 228.159687 180.204311 
L 228.123979 180.100124 
L 228.022867 179.808316 
L 227.921756 179.521086 
L 227.781567 179.130073 
L 227.678343 178.84729 
L 227.575118 178.568666 
L 227.472207 178.294871 
L 227.301357 177.848717 
L 227.19163 177.567461 
L 226.998062 177.080846 
L 226.872731 176.771976 
L 226.745146 176.462326 
L 226.61756 176.15731 
L 226.570906 176.0469 
L 226.42102 175.696121 
L 226.271134 175.351162 
L 226.25473 175.313753 
L 226.118175 175.004884 
L 225.98162 174.70046 
L 225.872441 174.46016 
L 225.661398 174.003152 
L 225.55783 173.782367 
L 225.440053 173.533985 
L 225.266247 173.17252 
L 225.044563 172.719931 
L 225.008985 172.648149 
L 224.857489 172.345054 
L 224.705993 172.046015 
L 224.589995 171.819709 
L 224.394283 171.442955 
L 224.34878 171.35625 
L 224.077206 170.845529 
L 223.920006 170.55503 
L 223.760734 170.2644 
L 223.605372 169.984387 
L 223.565197 169.912528 
L 223.292478 169.430516 
L 223.145005 169.173966 
L 222.992126 168.910951 
L 222.839042 168.650508 
L 222.689153 168.398267 
L 222.57087 168.201106 
L 222.386515 167.897057 
L 222.283223 167.728396 
L 222.107848 167.444757 
L 221.891014 167.098688 
L 221.758897 166.890271 
L 221.713078 166.818415 
L 221.447614 166.406307 
L 221.318878 166.208992 
L 221.151832 165.955363 
L 220.97669 165.692298 
L 220.838439 165.486668 
L 220.767579 165.381953 
L 220.53475 165.041073 
L 220.34364 164.76485 
L 220.27839 164.671265 
L 220.124473 164.451945 
L 219.881685 164.110015 
L 219.783074 163.972517 
L 219.682283 163.832788 
L 219.508829 163.594218 
L 219.347035 163.373805 
L 219.070439 163.001633 
L 218.939971 162.828071 
L 218.761178 162.59225 
L 218.737377 162.561033 
L 218.577899 162.352903 
L 218.298693 161.992839 
L 218.223683 161.897025 
L 218.002266 161.616431 
L 217.814589 161.38116 
L 217.748731 161.29915 
L 217.59009 161.10276 
L 217.346325 160.804132 
L 217.29827 160.745703 
L 217.085781 160.489068 
L 216.992726 160.377555 
L 216.784756 160.130227 
L 216.629005 159.946693 
L 216.433102 159.717869 
L 216.381452 159.657911 
L 216.132165 159.370674 
L 215.994493 159.21355 
L 215.838157 159.036407 
L 215.686391 158.865727 
L 215.519379 158.67935 
L 215.38272 158.527959 
L 215.213657 158.34204 
L 215.125065 158.245214 
L 214.874686 157.973761 
L 214.689532 157.775084 
L 214.592074 157.671202 
L 214.464728 157.536176 
L 214.253467 157.313939 
L 214.177851 157.234924 
L 214.016168 157.066901 
L 213.777882 156.821548 
L 213.583357 156.623238 
L 213.443402 156.481647 
L 213.302488 156.339996 
L 213.12794 156.165786 
L 213.014888 156.053687 
L 212.847823 155.889072 
L 212.736194 155.779769 
L 212.491523 155.542101 
L 212.423443 155.476429 
L 212.277218 155.336051 
L 212.10046 155.167576 
L 211.862952 154.943263 
L 211.733603 154.822087 
L 211.5753 154.674721 
L 211.417531 154.528869 
L 211.280375 154.402888 
L 211.180553 154.311673 
L 210.945745 154.09867 
L 210.845473 154.008371 
L 210.691265 153.870263 
L 210.596024 153.785426 
L 210.315488 153.537555 
L 210.285466 153.511205 
L 210.038764 153.295968 
L 209.909897 153.184441 
L 209.723942 153.024589 
L 209.525747 152.855608 
L 209.392571 152.742863 
L 209.235397 152.610621 
L 209.17019 152.556017 
L 208.914949 152.343729 
L 208.786401 152.23768 
L 208.615113 152.097267 
L 208.542616 152.038144 
L 208.266915 151.814948 
L 208.199943 151.761121 
L 208.09714 151.678791 
L 207.811348 151.451777 
L 207.707349 151.369843 
L 207.486655 151.197152 
L 207.464415 151.179838 
L 207.304098 151.055507 
L 207.121267 150.914732 
L 206.966584 150.796469 
L 206.848722 150.70687 
L 206.617572 150.532427 
L 206.425493 150.388747 
L 206.370434 150.347773 
L 206.188739 150.213227 
L 206.010007 150.081867 
L 205.762355 149.901466 
L 205.739815 149.885139 
L 205.482702 149.699981 
L 205.363841 149.615053 
L 205.162864 149.472406 
L 205.040181 149.385916 
L 204.871557 149.267756 
L 204.660119 149.120766 
L 204.640885 149.107459 
L 204.440911 148.969737 
L 204.206187 148.809541 
L 204.171885 148.786262 
L 204.005705 148.673953 
L 203.7791 148.522057 
L 203.695905 148.46665 
L 203.429235 148.290347 
L 203.379616 148.257758 
L 203.167588 148.119265 
L 202.975257 147.994697 
L 202.789346 147.875238 
L 202.660395 147.792924 
L 202.608605 147.759991 
L 202.390226 147.621907 
L 202.210108 147.508967 
L 202.074363 147.424414 
L 201.898597 147.31565 
L 201.819119 147.266733 
L 201.543495 147.09836 
L 201.45292 147.043456 
L 201.222166 146.90453 
L 201.128999 146.848823 
L 201.019329 146.78353 
L 200.876144 146.69874 
L 200.621927 146.549469 
L 200.518027 146.488925 
L 200.353846 146.393802 
L 200.353846 200.353846 
L 200.552877 200.353528 
L 200.656117 200.353113 
L 200.768002 200.35247 
L 200.912483 200.351342 
L 201.203924 200.348047 
L 201.303294 200.346612 
L 201.463687 200.343961 
L 201.659477 200.340165 
L 201.693877 200.339435 
L 201.867972 200.335446 
L 202.06861 200.330246 
L 202.297466 200.323524 
L 202.402187 200.320168 
L 202.506544 200.316648 
L 202.75177 200.307687 
L 202.87155 200.302958 
L 202.946567 200.299879 
L 203.123173 200.292273 
L 203.406595 200.279017 
L 203.433314 200.277701 
L 203.584999 200.270009 
L 203.752225 200.2611 
L 203.999004 200.247129 
L 204.103868 200.240895 
L 204.236321 200.232767 
L 204.362728 200.224747 
L 204.536436 200.213303 
L 204.701111 200.202005 
L 204.891136 200.188422 
L 205.119374 200.171336 
L 205.136523 200.170018 
L 205.299689 200.157241 
L 205.593841 200.133117 
L 205.728144 200.121636 
L 205.776245 200.117452 
L 206.014743 200.096156 
L 206.177726 200.081071 
L 206.2387 200.075316 
L 206.384945 200.061268 
L 206.606957 200.039275 
L 206.749827 200.024698 
L 206.976871 200.000847 
L 207.134389 199.983806 
L 207.293587 199.966171 
L 207.388988 199.955404 
L 207.479094 199.945099 
L 207.67907 199.921752 
L 207.830899 199.903588 
L 208.077394 199.873295 
L 208.133129 199.866307 
L 208.307784 199.844078 
L 208.503029 199.818634 
L 208.64946 199.79914 
L 208.801825 199.778481 
L 208.973628 199.754726 
L 209.103001 199.736516 
L 209.200134 199.722662 
L 209.385795 199.695748 
L 209.519373 199.67603 
L 209.822677 199.63016 
L 209.858467 199.624646 
L 210.096009 199.587512 
L 210.282949 199.557628 
L 210.383602 199.541296 
L 210.452079 199.530089 
L 210.610685 199.503829 
L 210.818848 199.468725 
L 211.077559 199.424085 
L 211.123912 199.415969 
L 211.382456 199.370034 
L 211.496381 199.349436 
L 211.629181 199.32515 
L 211.799826 199.293505 
L 212.004871 199.254831 
L 212.04804 199.246598 
L 212.294682 199.198954 
L 212.482199 199.16204 
L 212.601341 199.138276 
L 212.644336 199.129641 
L 212.938611 199.069692 
L 213.062275 199.044058 
L 213.212514 199.012564 
L 213.38159 198.976659 
L 213.506531 198.949811 
L 213.613838 198.926538 
L 213.893398 198.864975 
L 213.924209 198.858108 
L 214.175628 198.801457 
L 214.242749 198.786148 
L 214.47265 198.73312 
L 214.60344 198.702543 
L 214.828939 198.649126 
L 214.943684 198.621604 
L 215.044997 198.597113 
L 215.235307 198.550622 
L 215.33901 198.525021 
L 215.615106 198.455942 
L 215.73722 198.424961 
L 215.915141 198.37935 
L 215.974697 198.363958 
L 216.237879 198.295187 
L 216.258473 198.289754 
L 216.544187 198.213598 
L 216.67742 198.177589 
L 216.833935 198.134882 
L 216.895655 198.11792 
L 217.087429 198.064782 
L 217.304692 198.003784 
L 217.392379 197.978924 
L 217.555202 197.932395 
L 217.665696 197.900547 
L 217.829725 197.852861 
L 218.068786 197.782486 
L 218.214137 197.73919 
L 218.293169 197.715486 
L 218.525427 197.645165 
L 218.689049 197.595032 
L 218.748903 197.57657 
L 218.976856 197.505653 
L 219.200352 197.435191 
L 219.330334 197.393786 
L 219.52511 197.331153 
L 219.597828 197.307589 
L 219.719204 197.268037 
L 219.855982 197.223136 
L 220.05614 197.156797 
L 220.272906 197.084104 
L 220.394671 197.042882 
L 220.612414 196.968467 
L 220.72813 196.928554 
L 220.787267 196.908059 
L 221.096924 196.799649 
L 221.121381 196.791009 
L 221.388887 196.695754 
L 221.494309 196.657836 
L 221.683794 196.589145 
L 221.73005 196.572271 
L 221.933204 196.497671 
L 222.094341 196.437929 
L 222.280453 196.368297 
L 222.363406 196.337043 
L 222.522667 196.276661 
L 222.70634 196.206403 
L 222.95831 196.108937 
L 223.102678 196.052526 
L 223.186848 196.019446 
L 223.307156 195.971917 
L 223.565022 195.869072 
L 223.681556 195.822156 
L 223.856881 195.751057 
L 224.001962 195.691753 
L 224.208988 195.60639 
L 224.251559 195.588728 
L 224.436673 195.5115 
L 224.60061 195.442521 
L 224.750305 195.379053 
L 224.998533 195.27279 
L 225.128534 195.21663 
L 225.229511 195.172766 
L 225.452175 195.075291 
L 225.547118 195.033412 
L 225.73054 194.95197 
L 225.89432 194.878651 
L 226.068957 194.799846 
L 226.249501 194.717695 
L 226.314378 194.688005 
L 226.49256 194.606 
L 226.648159 194.533831 
L 226.773444 194.475343 
L 226.912711 194.40993 
L 227.189455 194.278694 
L 227.284287 194.23334 
L 227.434993 194.160858 
L 227.652313 194.055459 
L 227.755167 194.005212 
L 227.831864 193.96759 
L 228.035679 193.86698 
L 228.27635 193.746983 
L 228.428098 193.670653 
L 228.535277 193.616429 
L 228.621042 193.572852 
L 228.769606 193.496971 
L 228.992525 193.382169 
L 229.228621 193.25934 
L 229.286002 193.229293 
L 229.522586 193.104606 
L 229.640649 193.041896 
L 229.841947 192.934226 
L 229.958793 192.871291 
L 230.154117 192.765368 
L 230.246619 192.71489 
L 230.453418 192.601303 
L 230.620802 192.508617 
L 230.704316 192.462121 
L 230.813393 192.40114 
L 231.012243 192.289229 
L 231.270151 192.142648 
L 231.338369 192.103604 
L 231.507692 192.006198 
z
" style="fill:#808080;opacity:0.5;"/>
   </g>
   <g id="matplotlib.axis_1"/>
   <g id="matplotlib.axis_2"/>
   <g id="line2d_1">
    <path clip-path="url(#p8ffc3aa453)" d="M 169.2 192.006198 
L 172.434375 193.748502 
L 175.854096 195.33499 
L 179.316831 196.695046 
L 182.970497 197.879821 
L 186.583809 198.813206 
L 190.105201 199.505195 
L 193.861307 200.014658 
L 197.616297 200.293679 
L 200.353846 200.353846 
L 200.353846 200.353846 
" style="fill:none;stroke:#0000ff;stroke-linecap:square;"/>
   </g>
   <g id="line2d_2">
    <path clip-path="url(#p8ffc3aa453)" d="M 200.353846 200.353846 
L 204.103868 200.240895 
L 207.830899 199.903588 
L 211.629181 199.32515 
L 215.33901 198.525021 
L 218.976856 197.505653 
L 222.522667 196.276661 
L 225.89432 194.878651 
L 229.286002 193.229293 
L 231.507692 192.006198 
L 231.507692 192.006198 
" style="fill:none;stroke:#0000ff;stroke-linecap:square;"/>
   </g>
   <g id="text_1">
    <!-- $\Omega$ -->
    <g transform="translate(16.011538 22.420913)scale(0.1 -0.1)">
     <defs>
      <path d="M 7.71875 0 
L 4.390625 16.609375 
L 7.328125 16.609375 
Q 7.859375 13.71875 8.296875 11.5 
Q 8.734375 9.28125 9.4375 8.375 
Q 10.15625 7.46875 11.71875 7.171875 
Q 13.28125 6.890625 16.890625 6.890625 
L 23 6.890625 
Q 21.53125 12.546875 15.6875 21.65625 
Q 9.859375 30.765625 7.734375 34.890625 
Q 5.609375 39.015625 5.609375 45.515625 
Q 5.609375 53.078125 10.09375 58.765625 
Q 14.59375 64.453125 21.703125 67.484375 
Q 28.8125 70.515625 36.078125 70.515625 
Q 43.3125 70.515625 50.40625 67.484375 
Q 57.515625 64.453125 62 58.71875 
Q 66.5 52.984375 66.5 45.515625 
Q 66.5 40.4375 64.640625 35.9375 
Q 62.796875 31.453125 59.90625 26.953125 
Q 57.03125 22.46875 53.6875 16.9375 
Q 50.34375 11.421875 49.125 6.890625 
L 55.171875 6.890625 
Q 58.84375 6.890625 60.453125 7.171875 
Q 62.0625 7.46875 62.734375 8.375 
Q 63.421875 9.28125 63.84375 11.5 
Q 64.265625 13.71875 64.796875 16.609375 
L 67.671875 16.609375 
L 64.40625 0 
L 46.6875 0 
Q 45.703125 0 45.703125 1.3125 
Q 45.703125 6.390625 46.9375 11.265625 
Q 48.1875 16.15625 50.625 23.09375 
Q 53.078125 30.03125 54.4375 35.328125 
Q 55.8125 40.625 55.8125 45.515625 
Q 55.8125 51.515625 53.46875 56.640625 
Q 51.125 61.765625 46.625 64.84375 
Q 42.140625 67.921875 36.078125 67.921875 
Q 26.953125 67.921875 21.625 61.40625 
Q 16.3125 54.890625 16.3125 45.515625 
Q 16.359375 40.375 17.53125 35.828125 
Q 18.703125 31.296875 21.3125 23.71875 
Q 23.921875 16.15625 25.171875 11.265625 
Q 26.421875 6.390625 26.421875 1.3125 
Q 26.421875 0 25.390625 0 
z
" id="Cmr10-173"/>
     </defs>
     <use transform="translate(0 0.484375)" xlink:href="#Cmr10-173"/>
    </g>
   </g>
   <g id="text_2">
    <!-- $A$ -->
    <g style="fill:#0000ff;" transform="translate(227.757692 78.497837)scale(0.1 -0.1)">
     <defs>
      <path d="M 4.5 0 
Q 3.515625 0 3.515625 1.3125 
Q 3.90625 3.515625 4.78125 3.515625 
Q 8.84375 3.515625 11.796875 5.125 
Q 14.75 6.734375 16.890625 10.109375 
Q 17.09375 10.296875 17.09375 10.296875 
L 52.78125 70.515625 
Q 53.5625 71.578125 54.6875 71.578125 
L 56 71.578125 
Q 56.296875 71.578125 56.59375 71.453125 
Q 56.890625 71.34375 57.109375 71.0625 
Q 57.328125 70.796875 57.328125 70.515625 
L 63.375 5.90625 
Q 63.375 5.46875 63.8125 4.59375 
Q 64.796875 3.515625 71.296875 3.515625 
Q 72.3125 3.515625 72.3125 2.203125 
Q 71.96875 0.875 71.75 0.4375 
Q 71.53125 0 70.609375 0 
L 45.609375 0 
Q 44.671875 0 44.671875 1.3125 
Q 45.21875 3.515625 46 3.515625 
Q 53.90625 3.515625 54.390625 6.203125 
L 52.875 22.703125 
L 28.21875 22.703125 
L 20.21875 9.28125 
Q 19.484375 8.203125 19.484375 6.78125 
Q 19.484375 5.03125 21.171875 4.265625 
Q 22.859375 3.515625 24.90625 3.515625 
Q 25.875 3.515625 25.875 2.203125 
Q 25.53125 0.78125 25.328125 0.390625 
Q 25.140625 0 24.21875 0 
z
M 30.171875 26.21875 
L 52.484375 26.21875 
L 49.515625 58.59375 
z
" id="Cmmi10-65"/>
     </defs>
     <use transform="translate(0 0.421875)" xlink:href="#Cmmi10-65"/>
    </g>
   </g>
   <g id="text_3">
    <!-- $B$ -->
    <g style="fill:#ff0000;" transform="translate(103.092308 78.497837)scale(0.1 -0.1)">
     <defs>
      <path d="M 4.984375 0 
Q 4 0 4 1.3125 
Q 4.046875 1.5625 4.1875 2.140625 
Q 4.34375 2.734375 4.578125 3.125 
Q 4.828125 3.515625 5.328125 3.515625 
Q 8.15625 3.515625 10.25 3.65625 
Q 12.359375 3.8125 13.8125 4.203125 
Q 14.984375 4.640625 15.71875 6.890625 
L 29.390625 61.8125 
Q 29.59375 62.796875 29.59375 63.1875 
Q 29.59375 64.265625 28.421875 64.40625 
Q 26.515625 64.796875 21.1875 64.796875 
Q 20.21875 64.796875 20.21875 66.109375 
Q 20.265625 66.359375 20.40625 66.96875 
Q 20.5625 67.578125 20.828125 67.9375 
Q 21.09375 68.3125 21.484375 68.3125 
L 57.328125 68.3125 
Q 60.59375 68.3125 63.796875 67.5 
Q 67 66.703125 69.703125 64.9375 
Q 72.40625 63.1875 74 60.5625 
Q 75.59375 57.953125 75.59375 54.5 
Q 75.59375 50.734375 73.65625 47.5 
Q 71.734375 44.28125 68.671875 41.890625 
Q 65.625 39.5 62.078125 37.953125 
Q 58.546875 36.421875 54.6875 35.6875 
Q 57.421875 35.6875 60.21875 34.609375 
Q 63.03125 33.546875 65.234375 31.6875 
Q 67.4375 29.828125 68.78125 27.234375 
Q 70.125 24.65625 70.125 21.6875 
Q 70.125 15.671875 65.921875 10.6875 
Q 61.71875 5.71875 55.34375 2.859375 
Q 48.96875 0 43.015625 0 
z
M 23.390625 4.296875 
Q 23.390625 3.515625 26.8125 3.515625 
L 41.109375 3.515625 
Q 46 3.515625 50.484375 6.21875 
Q 54.984375 8.9375 57.6875 13.421875 
Q 60.40625 17.921875 60.40625 22.796875 
Q 60.40625 25.78125 59.15625 28.4375 
Q 57.90625 31.109375 55.5625 32.640625 
Q 53.21875 34.1875 50.203125 34.1875 
L 30.71875 34.1875 
L 23.78125 6.5 
Q 23.390625 5.125 23.390625 4.296875 
z
M 31.390625 36.8125 
L 46.578125 36.8125 
Q 51.375 36.8125 55.890625 39.25 
Q 60.40625 41.703125 63.25 45.890625 
Q 66.109375 50.09375 66.109375 54.78125 
Q 66.109375 59.125 63.390625 61.953125 
Q 60.6875 64.796875 56.390625 64.796875 
L 42.671875 64.796875 
Q 39.984375 64.796875 39.0625 64.296875 
Q 38.140625 63.8125 37.5 61.375 
z
" id="Cmmi10-66"/>
     </defs>
     <use transform="translate(0 0.6875)" xlink:href="#Cmmi10-66"/>
    </g>
   </g>
   <g id="text_4">
    <!-- $C$ -->
    <g style="fill:#228b22;" transform="translate(150.023077 271.651683)scale(0.1 -0.1)">
     <defs>
      <path d="M 14.59375 21.578125 
Q 14.59375 15.578125 16.90625 11.015625 
Q 19.234375 6.453125 23.65625 3.875 
Q 28.078125 1.3125 34.078125 1.3125 
Q 40.375 1.3125 46.203125 4.53125 
Q 52.046875 7.765625 56.171875 13.15625 
Q 60.296875 18.5625 61.8125 24.609375 
Q 62.015625 25.203125 62.59375 25.203125 
L 63.8125 25.203125 
Q 64.203125 25.203125 64.453125 24.921875 
Q 64.703125 24.65625 64.703125 24.3125 
Q 64.703125 24.21875 64.59375 24.03125 
Q 62.890625 17.09375 57.984375 11.015625 
Q 53.078125 4.9375 46.234375 1.359375 
Q 39.40625 -2.203125 32.171875 -2.203125 
Q 24.359375 -2.203125 18.15625 1.3125 
Q 11.96875 4.828125 8.515625 11.078125 
Q 5.078125 17.328125 5.078125 25.203125 
Q 5.078125 33.59375 8.828125 41.8125 
Q 12.59375 50.046875 18.9375 56.46875 
Q 25.296875 62.890625 33.421875 66.703125 
Q 41.546875 70.515625 49.90625 70.515625 
Q 53.21875 70.515625 56.25 69.5 
Q 59.28125 68.5 61.859375 66.453125 
Q 64.453125 64.40625 66.109375 61.71875 
L 74.03125 70.3125 
Q 74.03125 70.515625 74.515625 70.515625 
L 75.09375 70.515625 
Q 75.484375 70.515625 75.734375 70.171875 
Q 75.984375 69.828125 75.984375 69.484375 
L 69.1875 42.484375 
Q 69.1875 41.796875 68.40625 41.796875 
L 66.609375 41.796875 
Q 65.828125 41.796875 65.828125 42.921875 
Q 66.21875 45.125 66.21875 48.1875 
Q 66.21875 53.078125 64.546875 57.390625 
Q 62.890625 61.71875 59.390625 64.359375 
Q 55.90625 67 50.875 67 
Q 42.71875 67 35.9375 62.890625 
Q 29.15625 58.796875 24.4375 52.125 
Q 19.734375 45.453125 17.15625 37.328125 
Q 14.59375 29.203125 14.59375 21.578125 
z
" id="Cmmi10-67"/>
     </defs>
     <use transform="translate(0 0.484375)" xlink:href="#Cmmi10-67"/>
    </g>
   </g>
   <g id="patch_6">
    <path clip-path="url(#p8ffc3aa453)" d="M 200.353846 200.353846 
C 216.878039 200.353846 232.727669 193.788715 244.412038 182.104346 
C 256.096407 170.419977 262.661538 154.570347 262.661538 138.046154 
C 262.661538 121.521961 256.096407 105.672331 244.412038 93.987962 
C 232.727669 82.303593 216.878039 75.738462 200.353846 75.738462 
C 183.829653 75.738462 167.980023 82.303593 156.295654 93.987962 
C 144.611285 105.672331 138.046154 121.521961 138.046154 138.046154 
C 138.046154 154.570347 144.611285 170.419977 156.295654 182.104346 
C 167.980023 193.788715 183.829653 200.353846 200.353846 200.353846 
z
" style="fill:none;stroke:#0000ff;stroke-linejoin:miter;"/>
   </g>
   <g id="patch_7">
    <path clip-path="url(#p8ffc3aa453)" d="M 138.046154 200.353846 
C 154.570347 200.353846 170.419977 193.788715 182.104346 182.104346 
C 193.788715 170.419977 200.353846 154.570347 200.353846 138.046154 
C 200.353846 121.521961 193.788715 105.672331 182.104346 93.987962 
C 170.419977 82.303593 154.570347 75.738462 138.046154 75.738462 
C 121.521961 75.738462 105.672331 82.303593 93.987962 93.987962 
C 82.303593 105.672331 75.738462 121.521961 75.738462 138.046154 
C 75.738462 154.570347 82.303593 170.419977 93.987962 182.104346 
C 105.672331 193.788715 121.521961 200.353846 138.046154 200.353846 
z
" style="fill:none;stroke:#ff0000;stroke-linejoin:miter;"/>
   </g>
   <g id="patch_8">
    <path clip-path="url(#p8ffc3aa453)" d="M 169.2 262.661538 
C 185.724193 262.661538 201.573823 256.096407 213.258192 244.412038 
C 224.942561 232.727669 231.507692 216.878039 231.507692 200.353846 
C 231.507692 183.829653 224.942561 167.980023 213.258192 156.295654 
C 201.573823 144.611285 185.724193 138.046154 169.2 138.046154 
C 152.675807 138.046154 136.826177 144.611285 125.141808 156.295654 
C 113.457439 167.980023 106.892308 183.829653 106.892308 200.353846 
C 106.892308 216.878039 113.457439 232.727669 125.141808 244.412038 
C 136.826177 256.096407 152.675807 262.661538 169.2 262.661538 
z
" style="fill:none;stroke:#228b22;stroke-linejoin:miter;"/>
   </g>
  </g>
 </g>
 <defs>
  <clipPath id="p8ffc3aa453">
   <rect height="324" width="324" x="7.2" y="7.2"/>
  </clipPath>
 </defs>
</svg>
