<svg xmlns="http://www.w3.org/2000/svg" xmlns:xlink="http://www.w3.org/1999/xlink" xmlns:inkscape="http://www.inkscape.org/namespaces/inkscape" version="1.1" width="118" height="143" viewBox="0 0 118 143">
<defs>
<path id="font_1_107" d="M.44898988 .17396546H.42399598C.4189911 .14398194 .4119873 .099990848 .4019928 .084991458 .394989 .07699585 .32899476 .07699585 .30699159 .07699585H.1269989L.23298645 .17996216C.3889923 .31803895 .44898988 .37210084 .44898988 .47216798 .44898988 .5860901 .35899354 .6660156 .23699951 .6660156 .12399292 .6660156 .049987794 .57411196 .049987794 .48516847 .049987794 .4291687 .099990848 .4291687 .102996829 .4291687 .11999512 .4291687 .15499878 .44117738 .15499878 .48217774 .15499878 .5081787 .13699341 .5341797 .101989749 .5341797 .09399414 .5341797 .09199524 .5341797 .08898926 .5331726 .11199951 .59806826 .1659851 .63500979 .22399903 .63500979 .31498719 .63500979 .35798646 .5541382 .35798646 .47216798 .35798646 .39196778 .30799867 .31297303 .25299073 .25097657L.06098938 .036987306C.049987794 .025985718 .049987794 .023986817 .049987794 0H.42099L.44898988 .17396546Z"/>
<path id="font_1_82" d="M.4189911 0V.0309906H.3869934C.29699708 .0309906 .2939911 .041992189 .2939911 .07902527V.64012148C.2939911 .6640167 .2939911 .6660156 .2709961 .6660156 .20899964 .60227969 .12098694 .60227969 .08898926 .60227969V.57128909C.10899353 .57128909 .16799927 .57128909 .21998596 .5972748V.07902527C.21998596 .042999269 .21699524 .0309906 .1269989 .0309906H.09498596V0C.12998963 .0029907227 .21699524 .0029907227 .25698854 .0029907227 .29699708 .0029907227 .38398744 .0029907227 .4189911 0Z"/>
<path id="font_1_57" d="M.47099305 .16503906V.19602967H.37098695V.6507721C.37098695 .6707611 .37098695 .6767578 .35499574 .6767578 .34599305 .6767578 .34298707 .6767578 .33499146 .6647644L.027999878 .19602967V.16503906H.2939911V.07800293C.2939911 .041992189 .2919922 .0309906 .21798706 .0309906H.19699097V0C.23799134 .0029907227 .2899933 .0029907227 .33198548 .0029907227 .37399293 .0029907227 .4269867 .0029907227 .46798707 0V.0309906H.44699098C.37298585 .0309906 .37098695 .041992189 .37098695 .07800293V.16503906H.47099305M.2999878 .19602967H.055999757L.2999878 .56881716V.19602967Z"/>
<path id="font_1_106" d="M.45700074 .17037964C.45700074 .252594 .3939972 .33088685 .2899933 .35191346 .37199403 .37893678 .42999269 .4490509 .42999269 .52809146 .42999269 .6100464 .34199525 .6660156 .24598694 .6660156 .14498902 .6660156 .068984989 .60606387 .068984989 .53009036 .068984989 .49710084 .09098816 .47808839 .11999512 .47808839 .15098572 .47808839 .17098999 .50009158 .17098999 .5290985 .17098999 .57910159 .12399292 .57910159 .10899353 .57910159 .13999939 .62802127 .20599365 .64100649 .24198914 .64100649 .2829895 .64100649 .33799745 .6190338 .33799745 .5290985 .33799745 .51708987 .33599855 .45906068 .30999757 .4149933 .27999879 .36691285 .24598694 .36390687 .22099304 .36291505 .21299744 .36190797 .18899536 .35990907 .18199158 .35990907 .17399597 .35890199 .16699219 .35791017 .16699219 .3479004 .16699219 .33691407 .17399597 .33691407 .19099427 .33691407H.23498535C.31698609 .33691407 .35398866 .2686615 .35398866 .17037964 .35398866 .034469606 .2849884 .0055389406 .24099732 .0055389406 .19799805 .0055389406 .12298584 .022491456 .08799744 .08137512 .12298584 .07637024 .1539917 .09837341 .1539917 .1363678 .1539917 .17237854 .1269989 .19238281 .09799194 .19238281 .07398987 .19238281 .041992189 .17837525 .041992189 .1343689 .041992189 .043441774 .1349945-.022460938 .24398804-.022460938 .3659973-.022460938 .45700074 .06838989 .45700074 .17037964Z"/>
</defs>
<path transform="matrix(1.00006,0,0,-1.00008,46.757257,71.34943)" d="M12.45346 0C12.45346 6.87793 6.87793 12.45346 0 12.45346-6.87793 12.45346-12.45346 6.87793-12.45346 0-12.45346-6.87793-6.87793-12.45346 0-12.45346 6.87793-12.45346 12.45346-6.87793 12.45346 0ZM0 0" fill="#f5f5f5"/>
<path transform="matrix(1.00006,0,0,-1.00008,46.757257,71.34943)" stroke-width="1.19553" stroke-linecap="butt" stroke-miterlimit="10" stroke-linejoin="miter" fill="none" stroke="#797979" d="M12.45346 0C12.45346 6.87793 6.87793 12.45346 0 12.45346-6.87793 12.45346-12.45346 6.87793-12.45346 0-12.45346-6.87793-6.87793-12.45346 0-12.45346 6.87793-12.45346 12.45346-6.87793 12.45346 0ZM0 0"/>
<use data-text="2" xlink:href="#font_1_107" transform="matrix(9.963197,0,0,-9.963397,44.266107,74.667697)"/>
<path transform="matrix(1.00006,0,0,-1.00008,46.757257,71.34943)" d="M12.45346 56.69363C12.45346 63.57156 6.87793 69.1471 0 69.1471-6.87793 69.1471-12.45346 63.57156-12.45346 56.69363-12.45346 49.81569-6.87793 44.24017 0 44.24017 6.87793 44.24017 12.45346 49.81569 12.45346 56.69363ZM0 56.69363" fill="#f5f5f5"/>
<path transform="matrix(1.00006,0,0,-1.00008,46.757257,71.34943)" stroke-width="1.19553" stroke-linecap="butt" stroke-miterlimit="10" stroke-linejoin="miter" fill="none" stroke="#797979" d="M12.45346 56.69363C12.45346 63.57156 6.87793 69.1471 0 69.1471-6.87793 69.1471-12.45346 63.57156-12.45346 56.69363-12.45346 49.81569-6.87793 44.24017 0 44.24017 6.87793 44.24017 12.45346 49.81569 12.45346 56.69363ZM0 56.69363"/>
<use data-text="1" xlink:href="#font_1_82" transform="matrix(9.963197,0,0,-9.963397,44.266107,17.969159)"/>
<path transform="matrix(1.00006,0,0,-1.00008,46.757257,71.34943)" d="M69.1471 0C69.1471 6.87793 63.57156 12.45346 56.69363 12.45346 49.81569 12.45346 44.24017 6.87793 44.24017 0 44.24017-6.87793 49.81569-12.45346 56.69363-12.45346 63.57156-12.45346 69.1471-6.87793 69.1471 0ZM56.69363 0" fill="#f5f5f5"/>
<path transform="matrix(1.00006,0,0,-1.00008,46.757257,71.34943)" stroke-width="1.19553" stroke-linecap="butt" stroke-miterlimit="10" stroke-linejoin="miter" fill="none" stroke="#797979" d="M69.1471 0C69.1471 6.87793 63.57156 12.45346 56.69363 12.45346 49.81569 12.45346 44.24017 6.87793 44.24017 0 44.24017-6.87793 49.81569-12.45346 56.69363-12.45346 63.57156-12.45346 69.1471-6.87793 69.1471 0ZM56.69363 0"/>
<use data-text="4" xlink:href="#font_1_57" transform="matrix(9.963197,0,0,-9.963397,100.9635,74.721698)"/>
<path transform="matrix(1.00006,0,0,-1.00008,46.757257,71.34943)" d="M12.45346-56.69363C12.45346-49.81569 6.87793-44.24017 0-44.24017-6.87793-44.24017-12.45346-49.81569-12.45346-56.69363-12.45346-63.57156-6.87793-69.1471 0-69.1471 6.87793-69.1471 12.45346-63.57156 12.45346-56.69363ZM0-56.69363" fill="#f5f5f5"/>
<path transform="matrix(1.00006,0,0,-1.00008,46.757257,71.34943)" stroke-width="1.19553" stroke-linecap="butt" stroke-miterlimit="10" stroke-linejoin="miter" fill="none" stroke="#797979" d="M12.45346-56.69363C12.45346-49.81569 6.87793-44.24017 0-44.24017-6.87793-44.24017-12.45346-49.81569-12.45346-56.69363-12.45346-63.57156-6.87793-69.1471 0-69.1471 6.87793-69.1471 12.45346-63.57156 12.45346-56.69363ZM0-56.69363"/>
<use data-text="3" xlink:href="#font_1_106" transform="matrix(9.963197,0,0,-9.963397,44.266107,131.25623)"/>
<path transform="matrix(1.00006,0,0,-1.00008,46.757257,71.34943)" stroke-width=".3985" stroke-linecap="butt" stroke-miterlimit="10" stroke-linejoin="miter" fill="none" stroke="#000000" d="M12.6065 53.31613C34.37996 47.48192 47.48192 34.37996 52.54266 15.49347"/>
<path transform="matrix(.2588055,.96600726,.9659879,-.2588107,99.303058,55.854719)" d="M1.99252 0-1.19551 1.59401 0 0-1.19551-1.59401"/>
<path transform="matrix(1.00006,0,0,-1.00008,46.757257,71.34943)" stroke-width=".3985" stroke-linecap="butt" stroke-miterlimit="10" stroke-linejoin="miter" fill="none" stroke="#000000" d="M-12.85286 54.42757C-54.65869 47.05627-54.65869-47.05627-15.79623-53.90863"/>
<path transform="matrix(.98485907,.17364389,.17364042,-.9848788,30.96008,125.26236)" d="M1.99252 0-1.19551 1.59401 0 0-1.19551-1.59401"/>
<path transform="matrix(1.00006,0,0,-1.00008,46.757257,71.34943)" stroke-width=".3985" stroke-linecap="butt" stroke-miterlimit="10" stroke-linejoin="miter" fill="none" stroke="#000000" d="M12.85286 2.26607C24.75377 4.36446 31.93985 4.36446 40.89738 2.78499"/>
<path transform="matrix(.98485907,.17364389,.17364042,-.9848788,87.65709,68.5642)" d="M1.99252 0-1.19551 1.59401 0 0-1.19551-1.59401"/>
<path transform="matrix(1.00006,0,0,-1.00008,46.757257,71.34943)" stroke-width=".3985" stroke-linecap="butt" stroke-miterlimit="10" stroke-linejoin="miter" fill="none" stroke="#000000" d="M0-13.05121V-40.65361"/>
<path transform="matrix(0,1.00008,1.00006,0,46.757257,112.00629)" d="M1.99252 0-1.19551 1.59401 0 0-1.19551-1.59401"/>
<path transform="matrix(1.00006,0,0,-1.00008,46.757257,71.34943)" stroke-width=".3985" stroke-linecap="butt" stroke-miterlimit="10" stroke-linejoin="miter" fill="none" stroke="#000000" d="M0 13.05121V40.65361"/>
<path transform="matrix(0,-1.00008,-1.00006,-0,46.757257,30.692566)" d="M1.99252 0-1.19551 1.59401 0 0-1.19551-1.59401"/>
<path transform="matrix(1.00006,0,0,-1.00008,46.757257,71.34943)" stroke-width=".3985" stroke-linecap="butt" stroke-miterlimit="10" stroke-linejoin="miter" fill="none" stroke="#000000" d="M-12.26398-52.22998C-50.54376-38.29712-50.54376 38.29712-15.0725 51.20778"/>
<path transform="matrix(.9397363,-.34203736,-.3420305,-.93975517,31.683852,20.13755)" d="M1.99252 0-1.19551 1.59401 0 0-1.19551-1.59401"/>
<path transform="matrix(1.00006,0,0,-1.00008,46.757257,71.34943)" stroke-width=".3985" stroke-linecap="butt" stroke-miterlimit="10" stroke-linejoin="miter" fill="none" stroke="#000000" d="M12.6065-53.31613C34.37996-47.48192 47.48192-34.37996 52.54266-15.49347"/>
<path transform="matrix(.2588055,-.96600726,-.9659879,-.2588107,99.303058,86.84414)" d="M1.99252 0-1.19551 1.59401 0 0-1.19551-1.59401"/>
<path transform="matrix(1.00006,0,0,-1.00008,46.757257,71.34943)" stroke-width=".3985" stroke-linecap="butt" stroke-miterlimit="10" stroke-linejoin="miter" fill="none" stroke="#000000" d="M43.84076-2.26607C31.93985-4.36446 24.75377-4.36446 15.79623-2.78499"/>
<path transform="matrix(-.98485907,-.17364389,-.17364042,.9848788,62.554433,74.13465)" d="M1.99252 0-1.19551 1.59401 0 0-1.19551-1.59401"/>
</svg>
