<svg xmlns="http://www.w3.org/2000/svg" xmlns:xlink="http://www.w3.org/1999/xlink" xmlns:inkscape="http://www.inkscape.org/namespaces/inkscape" version="1.1" width="233" height="119" viewBox="0 0 233 119">
<path transform="matrix(1.00003,0,0,-1.00005,116.65994,59.668184)" stroke-width=".3985" stroke-linecap="butt" stroke-miterlimit="10" stroke-linejoin="miter" fill="none" stroke="#000000" d="M-57.2409 55.59901-112.83995-55.59901"/>
<path transform="matrix(1.00003,0,0,-1.00005,116.65994,59.668184)" stroke-width=".3985" stroke-linecap="butt" stroke-miterlimit="10" stroke-linejoin="miter" fill="none" stroke="#000000" d="M-56.69362 55.46973V-55.46973"/>
<path transform="matrix(1.00003,0,0,-1.00005,116.65994,59.668184)" stroke-width=".3985" stroke-linecap="butt" stroke-miterlimit="10" stroke-linejoin="miter" fill="none" stroke="#000000" d="M-56.14633 55.59901-.54727-55.59901"/>
<path transform="matrix(1.00003,0,0,-1.00005,116.65994,59.668184)" stroke-width=".3985" stroke-linecap="butt" stroke-miterlimit="10" stroke-linejoin="miter" fill="none" stroke="#000000" d="M-55.8282 55.8282 55.8282-55.8282"/>
<path transform="matrix(1.00003,0,0,-1.00005,116.65994,59.668184)" stroke-width=".3985" stroke-linecap="butt" stroke-miterlimit="10" stroke-linejoin="miter" fill="none" stroke="#000000" d="M-55.67532 56.01477 112.36894-56.01477"/>
<path transform="matrix(1.00003,0,0,-1.00005,116.65994,59.668184)" stroke-width=".3985" stroke-linecap="butt" stroke-miterlimit="10" stroke-linejoin="miter" fill="none" stroke="#000000" d="M55.67532 56.01477-112.36894-56.01477"/>
<path transform="matrix(1.00003,0,0,-1.00005,116.65994,59.668184)" stroke-width=".3985" stroke-linecap="butt" stroke-miterlimit="10" stroke-linejoin="miter" fill="none" stroke="#000000" d="M55.8282 55.8282-55.8282-55.8282"/>
<path transform="matrix(1.00003,0,0,-1.00005,116.65994,59.668184)" stroke-width=".3985" stroke-linecap="butt" stroke-miterlimit="10" stroke-linejoin="miter" fill="none" stroke="#000000" d="M56.14633 55.59901 .54727-55.59901"/>
<path transform="matrix(1.00003,0,0,-1.00005,116.65994,59.668184)" stroke-width=".3985" stroke-linecap="butt" stroke-miterlimit="10" stroke-linejoin="miter" fill="none" stroke="#000000" d="M56.69362 55.46973V-55.46973"/>
<path transform="matrix(1.00003,0,0,-1.00005,116.65994,59.668184)" stroke-width=".3985" stroke-linecap="butt" stroke-miterlimit="10" stroke-linejoin="miter" fill="none" stroke="#000000" d="M57.2409 55.59901 112.83995-55.59901"/>
<path transform="matrix(1.00003,0,0,-1.00005,116.65994,59.668184)" d="M-55.51953 56.69362C-55.51953 57.34204-56.04518 57.86769-56.69362 57.86769-57.34204 57.86769-57.86769 57.34204-57.86769 56.69362-57.86769 56.04518-57.34204 55.51953-56.69362 55.51953-56.04518 55.51953-55.51953 56.04518-55.51953 56.69362ZM-56.69362 56.69362"/>
<path transform="matrix(1.00003,0,0,-1.00005,116.65994,59.668184)" stroke-width=".3985" stroke-linecap="butt" stroke-miterlimit="10" stroke-linejoin="miter" fill="none" stroke="#000000" d="M-55.51953 56.69362C-55.51953 57.34204-56.04518 57.86769-56.69362 57.86769-57.34204 57.86769-57.86769 57.34204-57.86769 56.69362-57.86769 56.04518-57.34204 55.51953-56.69362 55.51953-56.04518 55.51953-55.51953 56.04518-55.51953 56.69362ZM-56.69362 56.69362"/>
<path transform="matrix(1.00003,0,0,-1.00005,116.65994,59.668184)" d="M57.86769 56.69362C57.86769 57.34204 57.34204 57.86769 56.69362 57.86769 56.04518 57.86769 55.51953 57.34204 55.51953 56.69362 55.51953 56.04518 56.04518 55.51953 56.69362 55.51953 57.34204 55.51953 57.86769 56.04518 57.86769 56.69362ZM56.69362 56.69362"/>
<path transform="matrix(1.00003,0,0,-1.00005,116.65994,59.668184)" stroke-width=".3985" stroke-linecap="butt" stroke-miterlimit="10" stroke-linejoin="miter" fill="none" stroke="#000000" d="M57.86769 56.69362C57.86769 57.34204 57.34204 57.86769 56.69362 57.86769 56.04518 57.86769 55.51953 57.34204 55.51953 56.69362 55.51953 56.04518 56.04518 55.51953 56.69362 55.51953 57.34204 55.51953 57.86769 56.04518 57.86769 56.69362ZM56.69362 56.69362"/>
<path transform="matrix(1.00003,0,0,-1.00005,116.65994,59.668184)" d="M1.17407-56.69362C1.17407-56.04518 .64842-55.51953 0-55.51953-.64842-55.51953-1.17407-56.04518-1.17407-56.69362-1.17407-57.34204-.64842-57.86769 0-57.86769 .64842-57.86769 1.17407-57.34204 1.17407-56.69362ZM0-56.69362"/>
<path transform="matrix(1.00003,0,0,-1.00005,116.65994,59.668184)" stroke-width=".3985" stroke-linecap="butt" stroke-miterlimit="10" stroke-linejoin="miter" fill="none" stroke="#000000" d="M1.17407-56.69362C1.17407-56.04518 .64842-55.51953 0-55.51953-.64842-55.51953-1.17407-56.04518-1.17407-56.69362-1.17407-57.34204-.64842-57.86769 0-57.86769 .64842-57.86769 1.17407-57.34204 1.17407-56.69362ZM0-56.69362"/>
<path transform="matrix(1.00003,0,0,-1.00005,116.65994,59.668184)" d="M-55.51953-56.69362C-55.51953-56.04518-56.04518-55.51953-56.69362-55.51953-57.34204-55.51953-57.86769-56.04518-57.86769-56.69362-57.86769-57.34204-57.34204-57.86769-56.69362-57.86769-56.04518-57.86769-55.51953-57.34204-55.51953-56.69362ZM-56.69362-56.69362"/>
<path transform="matrix(1.00003,0,0,-1.00005,116.65994,59.668184)" stroke-width=".3985" stroke-linecap="butt" stroke-miterlimit="10" stroke-linejoin="miter" fill="none" stroke="#000000" d="M-55.51953-56.69362C-55.51953-56.04518-56.04518-55.51953-56.69362-55.51953-57.34204-55.51953-57.86769-56.04518-57.86769-56.69362-57.86769-57.34204-57.34204-57.86769-56.69362-57.86769-56.04518-57.86769-55.51953-57.34204-55.51953-56.69362ZM-56.69362-56.69362"/>
<path transform="matrix(1.00003,0,0,-1.00005,116.65994,59.668184)" d="M-112.21315-56.69362C-112.21315-56.04518-112.7388-55.51953-113.38724-55.51953-114.03566-55.51953-114.56131-56.04518-114.56131-56.69362-114.56131-57.34204-114.03566-57.86769-113.38724-57.86769-112.7388-57.86769-112.21315-57.34204-112.21315-56.69362ZM-113.38724-56.69362"/>
<path transform="matrix(1.00003,0,0,-1.00005,116.65994,59.668184)" stroke-width=".3985" stroke-linecap="butt" stroke-miterlimit="10" stroke-linejoin="miter" fill="none" stroke="#000000" d="M-112.21315-56.69362C-112.21315-56.04518-112.7388-55.51953-113.38724-55.51953-114.03566-55.51953-114.56131-56.04518-114.56131-56.69362-114.56131-57.34204-114.03566-57.86769-113.38724-57.86769-112.7388-57.86769-112.21315-57.34204-112.21315-56.69362ZM-113.38724-56.69362"/>
<path transform="matrix(1.00003,0,0,-1.00005,116.65994,59.668184)" d="M57.86769-56.69362C57.86769-56.04518 57.34204-55.51953 56.69362-55.51953 56.04518-55.51953 55.51953-56.04518 55.51953-56.69362 55.51953-57.34204 56.04518-57.86769 56.69362-57.86769 57.34204-57.86769 57.86769-57.34204 57.86769-56.69362ZM56.69362-56.69362"/>
<path transform="matrix(1.00003,0,0,-1.00005,116.65994,59.668184)" stroke-width=".3985" stroke-linecap="butt" stroke-miterlimit="10" stroke-linejoin="miter" fill="none" stroke="#000000" d="M57.86769-56.69362C57.86769-56.04518 57.34204-55.51953 56.69362-55.51953 56.04518-55.51953 55.51953-56.04518 55.51953-56.69362 55.51953-57.34204 56.04518-57.86769 56.69362-57.86769 57.34204-57.86769 57.86769-57.34204 57.86769-56.69362ZM56.69362-56.69362"/>
<path transform="matrix(1.00003,0,0,-1.00005,116.65994,59.668184)" d="M114.56131-56.69362C114.56131-56.04518 114.03566-55.51953 113.38724-55.51953 112.7388-55.51953 112.21315-56.04518 112.21315-56.69362 112.21315-57.34204 112.7388-57.86769 113.38724-57.86769 114.03566-57.86769 114.56131-57.34204 114.56131-56.69362ZM113.38724-56.69362"/>
<path transform="matrix(1.00003,0,0,-1.00005,116.65994,59.668184)" stroke-width=".3985" stroke-linecap="butt" stroke-miterlimit="10" stroke-linejoin="miter" fill="none" stroke="#000000" d="M114.56131-56.69362C114.56131-56.04518 114.03566-55.51953 113.38724-55.51953 112.7388-55.51953 112.21315-56.04518 112.21315-56.69362 112.21315-57.34204 112.7388-57.86769 113.38724-57.86769 114.03566-57.86769 114.56131-57.34204 114.56131-56.69362ZM113.38724-56.69362"/>
</svg>
