<svg xmlns="http://www.w3.org/2000/svg" xmlns:xlink="http://www.w3.org/1999/xlink" version="1.1" width="163" height="165" viewBox="0 0 163 165">
<defs>
<path id="font_1_1" d="M.3909912 .37405396C.36299134 .37304688 .34298707 .3510437 .34298707 .32904054 .34298707 .31503297 .35198976 .30003358 .37399293 .30003358 .3959961 .30003358 .41999818 .31703187 .41999818 .35603334 .41999818 .40124513 .3769989 .4423828 .30099488 .4423828 .16899109 .4423828 .13198853 .3400421 .13198853 .29605104 .13198853 .21820069 .20599365 .20323181 .23498535 .19725037 .2869873 .18727112 .33898927 .17628479 .33898927 .12133789 .33898927 .095336917 .31599427 .011245728 .19599915 .011245728 .18199158 .011245728 .10499573 .011245728 .08198547 .064331058 .11999512 .059326173 .14498902 .08934021 .14498902 .11734009 .14498902 .14033509 .1289978 .15234375 .10798645 .15234375 .08198547 .15234375 .051986696 .1313324 .051986696 .08633423 .051986696 .029281617 .10899353-.0107421879 .19499207-.0107421879 .35699464-.0107421879 .3959961 .1103363 .3959961 .15533448 .3959961 .19125366 .3769989 .21620178 .36499024 .22817993 .33799745 .25613404 .30899049 .26112367 .2649994 .27009584 .22898865 .27807618 .18899536 .2850647 .18899536 .33003236 .18899536 .3590393 .21299744 .42037965 .30099488 .42037965 .32598878 .42037965 .37599183 .41333009 .3909912 .37405396Z"/>
<path id="font_2_2" d="M.5049896 .18203736H.47099305C.46798707 .16001892 .45799256 .100997928 .44499208 .09098816 .43699647 .084991458 .3600006 .084991458 .34599305 .084991458H.1619873C.2669983 .17803955 .3019867 .20603943 .3619995 .25306703 .43598939 .312088 .5049896 .374115 .5049896 .46914674 .5049896 .5900879 .39898683 .6640625 .2709961 .6640625 .14698792 .6640625 .06298828 .57710269 .06298828 .4851532 .06298828 .43414308 .10598755 .42915345 .115997318 .42915345 .13999939 .42915345 .16899109 .44615174 .16899109 .48214723 .16899109 .5001526 .1619873 .53515627 .10998535 .53515627 .14099121 .6060791 .20899964 .62805178 .2559967 .62805178 .35598756 .62805178 .4079895 .5501404 .4079895 .46914674 .4079895 .38212586 .34599305 .3130951 .31399537 .27708436L.07299805 .038986207C.06298828 .02999878 .06298828 .027999878 .06298828 0H.47499085L.5049896 .18203736Z"/>
<path id="font_2_5" d="M.15499878 .5588074C.20599365 .5458069 .23599243 .5458069 .2519989 .5458069 .38398744 .5458069 .46199037 .6358032 .46199037 .6508026 .46199037 .6618042 .45498658 .6648102 .44999696 .6648102 .44799806 .6648102 .44599916 .6648102 .44198609 .6618042 .41799928 .6528015 .36499024 .6328125 .29100038 .6328125 .2630005 .6328125 .20999146 .6348114 .14498902 .6598053 .1349945 .6648102 .1329956 .6648102 .13198853 .6648102 .11898804 .6648102 .11898804 .6538086 .11898804 .6378021V.34251405C.11898804 .32548524 .11898804 .3134613 .1349945 .3134613 .14399719 .3134613 .14498902 .3154602 .15499878 .32748414 .19799805 .38259889 .25898744 .390625 .2939911 .390625 .35398866 .390625 .3809967 .34251405 .38598634 .33450318 .4039917 .30143739 .4099884 .26335145 .4099884 .20524597 .4099884 .17524719 .4099884 .116256717 .37998963 .07234192 .35499574 .03640747 .31199647 .012466431 .2630005 .012466431 .19799805 .012466431 .1309967 .04838562 .10598755 .11425781 .14399719 .11125183 .16299439 .13624573 .16299439 .16325379 .16299439 .20625305 .12599182 .21424866 .11299133 .21424866 .11099243 .21424866 .06298828 .21424866 .06298828 .1602478 .06298828 .07034302 .14498902-.01953125 .2649994-.01953125 .3929901-.01953125 .5049896 .07533264 .5049896 .20124817 .5049896 .31445313 .4189911 .41862489 .29499818 .41862489 .25099183 .41862489 .19898987 .4076233 .15499878 .36956788V.5588074Z"/>
<path id="font_2_4" d="M.5289917 .1640625V.20005799H.41799928V.64582827C.41799928 .66682437 .41799928 .6738281 .3959961 .6738281 .38398744 .6738281 .37998963 .6738281 .36999513 .65982058L.038986207 .20005799V.1640625H.33299256V.08201599C.33299256 .04800415 .33299256 .035995485 .2519989 .035995485H.22499085V0C.2749939 .0019989014 .33898927 .0039978029 .375 .0039978029 .4119873 .0039978029 .47599793 .0019989014 .526001 0V.035995485H.49899293C.41799928 .035995485 .41799928 .04800415 .41799928 .08201599V.1640625H.5289917M.33999635 .5658722V.20005799H.07598877L.33999635 .5658722Z"/>
<path id="font_2_3" d="M.272995 .33428956C.35099793 .33428956 .40699769 .2803192 .40699769 .1733551 .40699769 .04940796 .33499146 .012466431 .2769928 .012466431 .23699951 .012466431 .14898682 .0234375 .10699463 .082351688 .1539917 .084350589 .16499329 .11735535 .16499329 .13835144 .16499329 .17034912 .14099121 .19335938 .10998535 .19335938 .08198547 .19335938 .053985597 .17634583 .053985597 .13534546 .053985597 .041412355 .1579895-.01953125 .2789917-.01953125 .41799928-.01953125 .5139923 .07336426 .5139923 .1733551 .5139923 .2513275 .44999696 .32929994 .33999635 .35229493 .44499208 .39024354 .48298646 .4650879 .48298646 .5260773 .48298646 .60505679 .3919983 .6640625 .2809906 .6640625 .16999817 .6640625 .084991458 .61006167 .084991458 .5300751 .084991458 .49606324 .10699463 .47706605 .13699341 .47706605 .16799927 .47706605 .18798828 .5000763 .18798828 .5280762 .18798828 .5570679 .16799927 .57806399 .13699341 .5800781 .17199707 .62405398 .24099732 .63505557 .27799989 .63505557 .32299806 .63505557 .38598634 .6130676 .38598634 .5260773 .38598634 .48406983 .37199403 .43814088 .34599305 .4072113 .31298829 .36927796 .2849884 .3672943 .23498535 .36428834 .20999146 .3623047 .20799256 .3623047 .20298767 .3612976 .20098877 .3612976 .19299317 .3592987 .19299317 .34829713 .19299317 .33428956 .20199585 .33428956 .21899414 .33428956H.272995Z"/>
<path id="font_2_1" d="M.33499146 .63612368C.33499146 .6630554 .33299256 .6640625 .30499269 .6640625 .24099732 .6014404 .1499939 .6004486 .10899353 .6004486V.5644531C.1329956 .5644531 .19898987 .5644531 .2539978 .592453V.08203125C.2539978 .04899597 .2539978 .035995485 .1539917 .035995485H.115997318V0C.13398743 .0009918213 .25698854 .0039978029 .2939911 .0039978029 .32499696 .0039978029 .45098878 .0009918213 .47299195 0V.035995485H.43499757C.33499146 .035995485 .33499146 .04899597 .33499146 .08203125V.63612368Z"/>
</defs>
<path transform="matrix(1.00002,0,0,-1.00005,79.4893,111.1159)" stroke-width=".3985" stroke-linecap="butt" stroke-miterlimit="10" stroke-linejoin="miter" fill="none" stroke="#000000" d="M0 83.81654V29.57068"/>
<path transform="matrix(1.00002,0,0,-1.00005,79.4893,111.1159)" stroke-width=".3985" stroke-linecap="butt" stroke-miterlimit="10" stroke-linejoin="miter" fill="none" stroke="#000000" d="M0 27.12292V-27.12292"/>
<path transform="matrix(1.00002,0,0,-1.00005,79.4893,111.1159)" stroke-width=".3985" stroke-linecap="butt" stroke-miterlimit="10" stroke-linejoin="miter" fill="none" stroke="#000000" d="M-.86542-27.48138-55.8282 27.48138"/>
<path transform="matrix(1.00002,0,0,-1.00005,79.4893,111.1159)" stroke-width=".3985" stroke-linecap="butt" stroke-miterlimit="10" stroke-linejoin="miter" fill="none" stroke="#000000" d="M-55.8282 29.21222-.86542 84.175"/>
<path transform="matrix(1.00002,0,0,-1.00005,79.4893,111.1159)" stroke-width=".3985" stroke-linecap="butt" stroke-miterlimit="10" stroke-linejoin="miter" fill="none" stroke="#000000" d="M1.09459 27.79951 55.59901 .54727"/>
<path transform="matrix(1.00002,0,0,-1.00005,79.4893,111.1159)" stroke-width=".3985" stroke-linecap="butt" stroke-miterlimit="10" stroke-linejoin="miter" fill="none" stroke="#000000" d="M55.59901-.54727 1.09459-27.79951"/>
<path transform="matrix(1.00002,0,0,-1.00005,79.4893,111.1159)" d="M1.17407 85.04042C1.17407 85.68884 .64842 86.21451 0 86.21451-.64842 86.21451-1.17407 85.68884-1.17407 85.04042-1.17407 84.392-.64842 83.86635 0 83.86635 .64842 83.86635 1.17407 84.392 1.17407 85.04042ZM0 85.04042"/>
<path transform="matrix(1.00002,0,0,-1.00005,79.4893,111.1159)" stroke-width=".3985" stroke-linecap="butt" stroke-miterlimit="10" stroke-linejoin="miter" fill="none" stroke="#000000" d="M1.17407 85.04042C1.17407 85.68884 .64842 86.21451 0 86.21451-.64842 86.21451-1.17407 85.68884-1.17407 85.04042-1.17407 84.392-.64842 83.86635 0 83.86635 .64842 83.86635 1.17407 84.392 1.17407 85.04042ZM0 85.04042"/>
<path transform="matrix(1.00002,0,0,-1.00005,79.4893,111.1159)" d="M-55.51953 28.3468C-55.51953 28.99522-56.04518 29.52087-56.69362 29.52087-57.34204 29.52087-57.86769 28.99522-57.86769 28.3468-57.86769 27.69838-57.34204 27.17273-56.69362 27.17273-56.04518 27.17273-55.51953 27.69838-55.51953 28.3468ZM-56.69362 28.3468"/>
<path transform="matrix(1.00002,0,0,-1.00005,79.4893,111.1159)" stroke-width=".3985" stroke-linecap="butt" stroke-miterlimit="10" stroke-linejoin="miter" fill="none" stroke="#000000" d="M-55.51953 28.3468C-55.51953 28.99522-56.04518 29.52087-56.69362 29.52087-57.34204 29.52087-57.86769 28.99522-57.86769 28.3468-57.86769 27.69838-57.34204 27.17273-56.69362 27.17273-56.04518 27.17273-55.51953 27.69838-55.51953 28.3468ZM-56.69362 28.3468"/>
<path transform="matrix(1.00002,0,0,-1.00005,79.4893,111.1159)" d="M1.17407 28.3468C1.17407 28.99522 .64842 29.52087 0 29.52087-.64842 29.52087-1.17407 28.99522-1.17407 28.3468-1.17407 27.69838-.64842 27.17273 0 27.17273 .64842 27.17273 1.17407 27.69838 1.17407 28.3468ZM0 28.3468"/>
<path transform="matrix(1.00002,0,0,-1.00005,79.4893,111.1159)" stroke-width=".3985" stroke-linecap="butt" stroke-miterlimit="10" stroke-linejoin="miter" fill="none" stroke="#000000" d="M1.17407 28.3468C1.17407 28.99522 .64842 29.52087 0 29.52087-.64842 29.52087-1.17407 28.99522-1.17407 28.3468-1.17407 27.69838-.64842 27.17273 0 27.17273 .64842 27.17273 1.17407 27.69838 1.17407 28.3468ZM0 28.3468"/>
<path transform="matrix(1.00002,0,0,-1.00005,79.4893,111.1159)" d="M1.17407-28.3468C1.17407-27.69838 .64842-27.17273 0-27.17273-.64842-27.17273-1.17407-27.69838-1.17407-28.3468-1.17407-28.99522-.64842-29.52087 0-29.52087 .64842-29.52087 1.17407-28.99522 1.17407-28.3468ZM0-28.3468"/>
<path transform="matrix(1.00002,0,0,-1.00005,79.4893,111.1159)" stroke-width=".3985" stroke-linecap="butt" stroke-miterlimit="10" stroke-linejoin="miter" fill="none" stroke="#000000" d="M1.17407-28.3468C1.17407-27.69838 .64842-27.17273 0-27.17273-.64842-27.17273-1.17407-27.69838-1.17407-28.3468-1.17407-28.99522-.64842-29.52087 0-29.52087 .64842-29.52087 1.17407-28.99522 1.17407-28.3468ZM0-28.3468"/>
<path transform="matrix(1.00002,0,0,-1.00005,79.4893,111.1159)" d="M57.86769 0C57.86769 .64842 57.34204 1.17407 56.69362 1.17407 56.04518 1.17407 55.51953 .64842 55.51953 0 55.51953-.64842 56.04518-1.17407 56.69362-1.17407 57.34204-1.17407 57.86769-.64842 57.86769 0ZM56.69362 0"/>
<path transform="matrix(1.00002,0,0,-1.00005,79.4893,111.1159)" stroke-width=".3985" stroke-linecap="butt" stroke-miterlimit="10" stroke-linejoin="miter" fill="none" stroke="#000000" d="M57.86769 0C57.86769 .64842 57.34204 1.17407 56.69362 1.17407 56.04518 1.17407 55.51953 .64842 55.51953 0 55.51953-.64842 56.04518-1.17407 56.69362-1.17407 57.34204-1.17407 57.86769-.64842 57.86769 0ZM56.69362 0"/>
<use data-text="s" xlink:href="#font_1_1" transform="matrix(9.962799,0,0,-9.963098,74.91921,6.207657)"/>
<use data-text="2" xlink:href="#font_2_2" transform="matrix(6.97394,0,0,-6.9741489,79.5893,7.702736)"/>
<use data-text="s" xlink:href="#font_1_1" transform="matrix(9.962799,0,0,-9.963098,86.96745,69.990848)"/>
<use data-text="5" xlink:href="#font_2_5" transform="matrix(6.97394,0,0,-6.9741489,91.63754,71.48592)"/>
<use data-text="s" xlink:href="#font_1_1" transform="matrix(9.962799,0,0,-9.963098,152.87479,112.51397)"/>
<use data-text="4" xlink:href="#font_2_4" transform="matrix(6.97394,0,0,-6.9741489,157.54486,114.00905)"/>
<use data-text="s" xlink:href="#font_1_1" transform="matrix(9.962799,0,0,-9.963098,74.91921,162.12245)"/>
<use data-text="3" xlink:href="#font_2_3" transform="matrix(6.97394,0,0,-6.9741489,79.5893,163.61753)"/>
<use data-text="s" xlink:href="#font_1_1" transform="matrix(9.962799,0,0,-9.963098,1.2157288,84.16555)"/>
<use data-text="1" xlink:href="#font_2_1" transform="matrix(6.97394,0,0,-6.9741489,5.8858187,85.66063)"/>
</svg>
