<svg xmlns="http://www.w3.org/2000/svg" xmlns:xlink="http://www.w3.org/1999/xlink" version="1.1" width="178" height="222" viewBox="0 0 178 222">
<defs>
<path id="font_1_2" d="M.18699646 .23144531C.21598816 .23144531 .2899933 .23344422 .33999635 .2544403 .4099884 .28442384 .4149933 .34339906 .4149933 .35740663 .4149933 .40138246 .3769989 .4423828 .30799867 .4423828 .19699097 .4423828 .04598999 .34539796 .04598999 .17037964 .04598999 .06829834 .10499573-.0107421879 .20298767-.0107421879 .34599305-.0107421879 .42999269 .095321658 .42999269 .10733032 .42999269 .113342288 .42399598 .12034607 .41799928 .12034607 .41299439 .12034607 .41099549 .11834717 .40499879 .1103363 .32598878 .011245728 .21699524 .011245728 .20498657 .011245728 .1269989 .011245728 .117996219 .095321658 .117996219 .12734986 .117996219 .13935852 .11898804 .17037964 .13398743 .23144531H.18699646M.13999939 .25343324C.1789856 .40538026 .28199769 .42037965 .30799867 .42037965 .35499574 .42037965 .38198854 .39138795 .38198854 .35740663 .38198854 .25343324 .22200012 .25343324 .18099976 .25343324H.13999939Z"/>
<path id="font_1_4" d="M.47099305 .3773346C.47200013 .3833313 .47399903 .38833619 .47399903 .39535523 .47399903 .41236878 .46199037 .42237855 .44499208 .42237855 .43499757 .42237855 .4079895 .41537477 .4039917 .3793335 .38598634 .41636659 .35099793 .4423828 .31098939 .4423828 .19699097 .4423828 .07299805 .30226136 .07299805 .15812683 .07299805 .059020997 .13398743 0 .20599365 0 .2649994 0 .31199647 .04701233 .32199098 .058029176L.32299806 .057022096C.3019867-.031982423 .2899933-.07295227 .2899933-.07495117 .28599549-.08395386 .2519989-.18309021 .1459961-.18309021 .1269989-.18309021 .09399414-.18206787 .06599426-.17297364 .09599304-.16394043 .10699463-.13793946 .10699463-.12094116 .10699463-.10494995 .09599304-.0859375 .068984989-.0859375 .04699707-.0859375 .01499939-.10394287 .01499939-.14395142 .01499939-.18508911 .051986696-.20507813 .147995-.20507813 .272995-.20507813 .34498597-.12693787 .3600006-.06695557L.47099305 .3773346M.34098817 .12809754C.33499146 .10206604 .31199647 .077041629 .2899933 .058029176 .2689972 .040008546 .23799134 .021987915 .20899964 .021987915 .15899658 .021987915 .14399719 .074035648 .14399719 .11407471 .14399719 .16212464 .17298889 .28024293 .19999695 .33128358 .22698975 .38034059 .269989 .42037965 .31199647 .42037965 .37799073 .42037965 .3919983 .33929444 .3919983 .33428956 .3919983 .32928468 .3899994 .3232727 .3889923 .3192749L.34098817 .12809754Z"/>
<path id="font_1_1" d="M.37298585 .37835694C.35499574 .41537477 .32598878 .4423828 .2809906 .4423828 .1639862 .4423828 .039993287 .29533387 .039993287 .14929199 .039993287 .055267335 .09498596-.0107421879 .17298889-.0107421879 .19299317-.0107421879 .24299622-.0067443849 .30299378 .06427002 .31098939 .022247315 .34599305-.0107421879 .3939972-.0107421879 .42900086-.0107421879 .45199586 .012252808 .46798707 .044265748 .4850006 .08027649 .49798585 .14129639 .49798585 .14329529 .49798585 .1532898 .4889984 .1532898 .48599244 .1532898 .47599793 .1532898 .47499085 .14929199 .47200013 .13528443 .45498658 .07026672 .43699647 .011245728 .3959961 .011245728 .36898805 .011245728 .3659973 .037261964 .3659973 .057266237 .3659973 .07926941 .36799623 .08728027 .3789978 .13128662 .3899994 .17329407 .3919983 .18330384 .40098573 .22131348L.43699647 .36135865C.44400025 .38935853 .44400025 .39135743 .44400025 .39537049 .44400025 .41236878 .43199159 .42237855 .4149933 .42237855 .3909912 .42237855 .37599183 .4003601 .37298585 .37835694M.30799867 .119277957C.30299378 .10127258 .30299378 .09927368 .28799439 .08227539 .24398804 .027252198 .20298767 .011245728 .1749878 .011245728 .125 .011245728 .11099243 .06626892 .11099243 .105285648 .11099243 .1552887 .14299011 .27833558 .1659851 .32434083 .19699097 .38336183 .24198914 .42037965 .28199769 .42037965 .34700013 .42037965 .36099244 .3383484 .36099244 .33235169 .36099244 .32633973 .35899354 .32034303 .35798646 .31533814L.30799867 .119277957Z"/>
<path id="font_1_3" d="M.36698915 .3996582H.45298768C.47299195 .3996582 .48298646 .3996582 .48298646 .41966249 .48298646 .43066407 .47299195 .43066407 .45599366 .43066407H.37298585L.3939972 .5449524C.397995 .5660095 .4119873 .6370239 .41799928 .6490326 .4269867 .66804507 .44400025 .68307498 .46499635 .68307498 .46899415 .68307498 .49499513 .68307498 .5139923 .66503909 .46998597 .661026 .45999146 .6260376 .45999146 .6110382 .45999146 .58802798 .47799684 .57603457 .49699403 .57603457 .522995 .57603457 .5519867 .5980377 .5519867 .6360321 .5519867 .6820679 .5059967 .7050781 .46499635 .7050781 .43099977 .7050781 .36799623 .68707278 .33799745 .58802798 .33198548 .56700137 .32899476 .5569763 .30499269 .43066407H.23599243C.21699524 .43066407 .20599365 .43066407 .20599365 .4116516 .20599365 .3996582 .21499634 .3996582 .23399353 .3996582H.2999878L.22499085 .0048828127C.20698548-.09207153 .18998719-.18309021 .13798523-.18309021 .13398743-.18309021 .10899353-.18309021 .08999634-.16506958 .13598633-.1620636 .14498902-.12606812 .14498902-.111068729 .14498902-.08807373 .1269989-.07606506 .10798645-.07606506 .08198547-.07606506 .052993776-.09806824 .052993776-.13606262 .052993776-.18109131 .09700012-.20507813 .13798523-.20507813 .19299317-.20507813 .23298645-.14607239 .25099183-.108062747 .2829895-.04508972 .30599977 .07583618 .30699159 .082839969L.36698915 .3996582Z"/>
<path id="font_1_5" d="M.2869873 .68333438C.2869873 .6843262 .2869873 .69433596 .27398683 .69433596 .25099183 .69433596 .17799378 .6863251 .1519928 .6843262 .14399719 .68333438 .1329956 .6823273 .1329956 .6643219 .1329956 .6523285 .14199829 .6523285 .15699768 .6523285 .20498657 .6523285 .20698548 .6453247 .20698548 .6353302L.20399475 .6153412 .05899048 .039260866C.054992677 .025253296 .054992677 .023254395 .054992677 .01725769 .054992677-.0057525637 .07499695-.0107421879 .083999637-.0107421879 .099990848-.0107421879 .115997318 .0012512207 .12098694 .015258789L.13999939 .091278079 .1619873 .18130493C.16799927 .2033081 .17399597 .22531128 .1789856 .24832154 .18099976 .25431825 .18899536 .28733827 .18998719 .29333497 .19299317 .30233766 .22399903 .35835267 .2579956 .38536073 .27999879 .4013672 .31098939 .42037965 .35398866 .42037965 .39698792 .42037965 .4079895 .3863678 .4079895 .35035707 .4079895 .29634095 .36999513 .18730164 .34599305 .12628174 .33799745 .103271488 .33299256 .091278079 .33299256 .0712738 .33299256 .024261475 .36799623-.0107421879 .4149933-.0107421879 .5089874-.0107421879 .54599 .13528443 .54599 .14329529 .54599 .1532898 .5369873 .1532898 .5339966 .1532898 .5239868 .1532898 .5239868 .15029907 .5189972 .13528443 .5039978 .08227539 .47200013 .011245728 .4169922 .011245728 .3999939 .011245728 .3929901 .021255494 .3929901 .044265748 .3929901 .0692749 .4019928 .09327698 .41099549 .11528015 .4269867 .15829468 .47200013 .2773285 .47200013 .3353424 .47200013 .4003601 .43199159 .4423828 .35699464 .4423828 .2939911 .4423828 .24598694 .41137696 .20899964 .36535646L.2869873 .68333438Z"/>
</defs>
<path transform="matrix(1.00008,0,0,-1.00003,89.23894,82.02108)" stroke-width=".3985" stroke-linecap="butt" stroke-miterlimit="10" stroke-linejoin="miter" fill="none" stroke="#000000" d="M83.81654 56.69362H-83.81654"/>
<path transform="matrix(1.00008,0,0,-1.00003,89.23894,82.02108)" stroke-width=".3985" stroke-linecap="butt" stroke-miterlimit="10" stroke-linejoin="miter" fill="none" stroke="#000000" d="M-85.04042-112.16335V55.46973"/>
<path transform="matrix(1.00008,0,0,-1.00003,89.23894,82.02108)" stroke-width=".3985" stroke-linecap="butt" stroke-miterlimit="10" stroke-linejoin="miter" fill="none" stroke="#000000" d="M-84.175 55.8282-.86542-27.48138"/>
<path transform="matrix(1.00008,0,0,-1.00003,89.23894,82.02108)" stroke-width=".3985" stroke-linecap="butt" stroke-miterlimit="10" stroke-linejoin="miter" fill="none" stroke="#000000" d="M.86542-29.21222 84.175-112.52182"/>
<path transform="matrix(1.00008,0,0,-1.00003,89.23894,82.02108)" stroke-width=".3985" stroke-linecap="butt" stroke-miterlimit="10" stroke-linejoin="miter" fill="none" stroke="#000000" d="M-83.81654-113.38724H83.81654"/>
<path transform="matrix(1.00008,0,0,-1.00003,89.23894,82.02108)" d="M-83.86635 56.69362C-83.86635 57.34204-84.392 57.86769-85.04042 57.86769-85.68884 57.86769-86.21451 57.34204-86.21451 56.69362-86.21451 56.04518-85.68884 55.51953-85.04042 55.51953-84.392 55.51953-83.86635 56.04518-83.86635 56.69362ZM-85.04042 56.69362"/>
<path transform="matrix(1.00008,0,0,-1.00003,89.23894,82.02108)" stroke-width=".3985" stroke-linecap="butt" stroke-miterlimit="10" stroke-linejoin="miter" fill="none" stroke="#000000" d="M-83.86635 56.69362C-83.86635 57.34204-84.392 57.86769-85.04042 57.86769-85.68884 57.86769-86.21451 57.34204-86.21451 56.69362-86.21451 56.04518-85.68884 55.51953-85.04042 55.51953-84.392 55.51953-83.86635 56.04518-83.86635 56.69362ZM-85.04042 56.69362"/>
<path transform="matrix(1.00008,0,0,-1.00003,89.23894,82.02108)" d="M86.21451-113.38724C86.21451-112.7388 85.68884-112.21315 85.04042-112.21315 84.392-112.21315 83.86635-112.7388 83.86635-113.38724 83.86635-114.03566 84.392-114.56131 85.04042-114.56131 85.68884-114.56131 86.21451-114.03566 86.21451-113.38724ZM85.04042-113.38724"/>
<path transform="matrix(1.00008,0,0,-1.00003,89.23894,82.02108)" stroke-width=".3985" stroke-linecap="butt" stroke-miterlimit="10" stroke-linejoin="miter" fill="none" stroke="#000000" d="M86.21451-113.38724C86.21451-112.7388 85.68884-112.21315 85.04042-112.21315 84.392-112.21315 83.86635-112.7388 83.86635-113.38724 83.86635-114.03566 84.392-114.56131 85.04042-114.56131 85.68884-114.56131 86.21451-114.03566 86.21451-113.38724ZM85.04042-113.38724"/>
<use data-text="e" xlink:href="#font_1_2" transform="matrix(9.963397,0,0,-9.962899,171.96656,6.2098085)"/>
<use data-text="g" xlink:href="#font_1_4" transform="matrix(9.963397,0,0,-9.962899,171.73154,217.84815)"/>
<use data-text="a" xlink:href="#font_1_1" transform="matrix(9.963397,0,0,-9.962899,1.5579224,6.2098085)"/>
<path transform="matrix(1.00008,0,0,-1.00003,89.23894,82.02108)" d="M86.21451 56.69362C86.21451 57.34204 85.68884 57.86769 85.04042 57.86769 84.392 57.86769 83.86635 57.34204 83.86635 56.69362 83.86635 56.04518 84.392 55.51953 85.04042 55.51953 85.68884 55.51953 86.21451 56.04518 86.21451 56.69362ZM85.04042 56.69362"/>
<path transform="matrix(1.00008,0,0,-1.00003,89.23894,82.02108)" stroke-width=".3985" stroke-linecap="butt" stroke-miterlimit="10" stroke-linejoin="miter" fill="none" stroke="#000000" d="M86.21451 56.69362C86.21451 57.34204 85.68884 57.86769 85.04042 57.86769 84.392 57.86769 83.86635 57.34204 83.86635 56.69362 83.86635 56.04518 84.392 55.51953 85.04042 55.51953 85.68884 55.51953 86.21451 56.04518 86.21451 56.69362ZM85.04042 56.69362"/>
<path transform="matrix(1.00008,0,0,-1.00003,89.23894,82.02108)" d="M-83.86635-113.38724C-83.86635-112.7388-84.392-112.21315-85.04042-112.21315-85.68884-112.21315-86.21451-112.7388-86.21451-113.38724-86.21451-114.03566-85.68884-114.56131-85.04042-114.56131-84.392-114.56131-83.86635-114.03566-83.86635-113.38724ZM-85.04042-113.38724"/>
<path transform="matrix(1.00008,0,0,-1.00003,89.23894,82.02108)" stroke-width=".3985" stroke-linecap="butt" stroke-miterlimit="10" stroke-linejoin="miter" fill="none" stroke="#000000" d="M-83.86635-113.38724C-83.86635-112.7388-84.392-112.21315-85.04042-112.21315-85.68884-112.21315-86.21451-112.7388-86.21451-113.38724-86.21451-114.03566-85.68884-114.56131-85.04042-114.56131-84.392-114.56131-83.86635-114.03566-83.86635-113.38724ZM-85.04042-113.38724"/>
<use data-text="f" xlink:href="#font_1_3" transform="matrix(9.963397,0,0,-9.962899,1.2168884,218.45517)"/>
<path transform="matrix(1.00008,0,0,-1.00003,89.23894,82.02108)" d="M1.17407-28.3468C1.17407-27.69838 .64842-27.17273 0-27.17273-.64842-27.17273-1.17407-27.69838-1.17407-28.3468-1.17407-28.99522-.64842-29.52087 0-29.52087 .64842-29.52087 1.17407-28.99522 1.17407-28.3468ZM0-28.3468"/>
<path transform="matrix(1.00008,0,0,-1.00003,89.23894,82.02108)" stroke-width=".3985" stroke-linecap="butt" stroke-miterlimit="10" stroke-linejoin="miter" fill="none" stroke="#000000" d="M1.17407-28.3468C1.17407-27.69838 .64842-27.17273 0-27.17273-.64842-27.17273-1.17407-27.69838-1.17407-28.3468-1.17407-28.99522-.64842-29.52087 0-29.52087 .64842-29.52087 1.17407-28.99522 1.17407-28.3468ZM0-28.3468"/>
<use data-text="h" xlink:href="#font_1_5" transform="matrix(9.963397,0,0,-9.962899,107.63041,113.82803)"/>
</svg>
