<svg xmlns="http://www.w3.org/2000/svg" xmlns:xlink="http://www.w3.org/1999/xlink" xmlns:inkscape="http://www.inkscape.org/namespaces/inkscape" version="1.1" width="192" height="305" viewBox="0 0 192 305">
<defs>
<path id="font_1_2" d="M.23899842 .68333438C.23899842 .6843262 .23899842 .69433596 .22599793 .69433596 .20298767 .69433596 .12998963 .6863251 .10398865 .6843262 .09599304 .68333438 .084991458 .6823273 .084991458 .6643219 .084991458 .6523285 .09399414 .6523285 .10899353 .6523285 .15699768 .6523285 .15899658 .6453247 .15899658 .6353302 .15899658 .6283264 .1499939 .5943451 .14498902 .573349L.06298828 .24731446C.050994874 .1973114 .04699707 .18130493 .04699707 .14628601 .04699707 .05126953 .099990848-.0107421879 .17399597-.0107421879 .2919922-.0107421879 .4149933 .1382904 .4149933 .28233338 .4149933 .37335206 .3619995 .4423828 .28199769 .4423828 .23599243 .4423828 .19499207 .41337586 .16499329 .38235475L.23899842 .68333438M.14498902 .30534364C.15098572 .3273468 .15098572 .3293457 .1599884 .3403473 .20899964 .405365 .2539978 .42037965 .27999879 .42037965 .31599427 .42037965 .34298707 .3903656 .34298707 .32633973 .34298707 .26733399 .30999757 .15229798 .2919922 .11428833 .25898744 .04725647 .21299744 .011245728 .17399597 .011245728 .13999939 .011245728 .10699463 .038253786 .10699463 .11227417 .10699463 .13128662 .10699463 .15029907 .12298584 .21331787L.14498902 .30534364Z"/>
<path id="font_1_4" d="M.5159912 .68333438C.5159912 .6843262 .5159912 .69433596 .5029907 .69433596 .48799134 .69433596 .3929901 .68533328 .37599183 .68333438 .36799623 .6823273 .3619995 .6773224 .3619995 .6643219 .3619995 .6523285 .37098695 .6523285 .38598634 .6523285 .43399049 .6523285 .43598939 .6453247 .43598939 .6353302L.43299867 .6153412 .37298585 .37835694C.35499574 .41537477 .32598878 .4423828 .2809906 .4423828 .1639862 .4423828 .039993287 .29533387 .039993287 .14929199 .039993287 .055267335 .09498596-.0107421879 .17298889-.0107421879 .19299317-.0107421879 .24299622-.0067443849 .30299378 .06427002 .31098939 .022247315 .34599305-.0107421879 .3939972-.0107421879 .42900086-.0107421879 .45199586 .012252808 .46798707 .044265748 .4850006 .08027649 .49798585 .14129639 .49798585 .14329529 .49798585 .1532898 .4889984 .1532898 .48599244 .1532898 .47599793 .1532898 .47499085 .14929199 .47200013 .13528443 .45498658 .07026672 .43699647 .011245728 .3959961 .011245728 .36898805 .011245728 .3659973 .037261964 .3659973 .057266237 .3659973 .08126831 .36799623 .088272098 .37199403 .105285648L.5159912 .68333438M.30799867 .119277957C.30299378 .10127258 .30299378 .09927368 .28799439 .08227539 .24398804 .027252198 .20298767 .011245728 .1749878 .011245728 .125 .011245728 .11099243 .06626892 .11099243 .105285648 .11099243 .1552887 .14299011 .27833558 .1659851 .32434083 .19699097 .38336183 .24198914 .42037965 .28199769 .42037965 .34700013 .42037965 .36099244 .3383484 .36099244 .33235169 .36099244 .32633973 .35899354 .32034303 .35798646 .31533814L.30799867 .119277957Z"/>
<path id="font_1_1" d="M.37298585 .37835694C.35499574 .41537477 .32598878 .4423828 .2809906 .4423828 .1639862 .4423828 .039993287 .29533387 .039993287 .14929199 .039993287 .055267335 .09498596-.0107421879 .17298889-.0107421879 .19299317-.0107421879 .24299622-.0067443849 .30299378 .06427002 .31098939 .022247315 .34599305-.0107421879 .3939972-.0107421879 .42900086-.0107421879 .45199586 .012252808 .46798707 .044265748 .4850006 .08027649 .49798585 .14129639 .49798585 .14329529 .49798585 .1532898 .4889984 .1532898 .48599244 .1532898 .47599793 .1532898 .47499085 .14929199 .47200013 .13528443 .45498658 .07026672 .43699647 .011245728 .3959961 .011245728 .36898805 .011245728 .3659973 .037261964 .3659973 .057266237 .3659973 .07926941 .36799623 .08728027 .3789978 .13128662 .3899994 .17329407 .3919983 .18330384 .40098573 .22131348L.43699647 .36135865C.44400025 .38935853 .44400025 .39135743 .44400025 .39537049 .44400025 .41236878 .43199159 .42237855 .4149933 .42237855 .3909912 .42237855 .37599183 .4003601 .37298585 .37835694M.30799867 .119277957C.30299378 .10127258 .30299378 .09927368 .28799439 .08227539 .24398804 .027252198 .20298767 .011245728 .1749878 .011245728 .125 .011245728 .11099243 .06626892 .11099243 .105285648 .11099243 .1552887 .14299011 .27833558 .1659851 .32434083 .19699097 .38336183 .24198914 .42037965 .28199769 .42037965 .34700013 .42037965 .36099244 .3383484 .36099244 .33235169 .36099244 .32633973 .35899354 .32034303 .35798646 .31533814L.30799867 .119277957Z"/>
<path id="font_1_3" d="M.3959961 .37998963C.37998963 .37998963 .3659973 .37998963 .35198976 .36598207 .33599855 .35098268 .33399964 .33398438 .33399964 .3269806 .33399964 .30297853 .35198976 .2919922 .37098695 .2919922 .3999939 .2919922 .4269867 .315979 .4269867 .35598756 .4269867 .40522767 .37998963 .4423828 .30899049 .4423828 .17399597 .4423828 .040985109 .2989807 .040985109 .15811157 .040985109 .06819153 .09899902-.0107421879 .20298767-.0107421879 .34599305-.0107421879 .42999269 .09516907 .42999269 .107162479 .42999269 .11315918 .42399598 .120147708 .41799928 .120147708 .41299439 .120147708 .41099549 .1181488 .40499879 .1101532 .32598878 .011245728 .21699524 .011245728 .20498657 .011245728 .14199829 .011245728 .114990238 .06021118 .114990238 .120147708 .114990238 .1611023 .1349945 .25801087 .16899109 .31999208 .19999695 .37698365 .25498963 .42037965 .30999757 .42037965 .34399415 .42037965 .38198854 .40724183 .3959961 .37998963Z"/>
<path id="font_1_5" d="M.18699646 .23144531C.21598816 .23144531 .2899933 .23344422 .33999635 .2544403 .4099884 .28442384 .4149933 .34339906 .4149933 .35740663 .4149933 .40138246 .3769989 .4423828 .30799867 .4423828 .19699097 .4423828 .04598999 .34539796 .04598999 .17037964 .04598999 .06829834 .10499573-.0107421879 .20298767-.0107421879 .34599305-.0107421879 .42999269 .095321658 .42999269 .10733032 .42999269 .113342288 .42399598 .12034607 .41799928 .12034607 .41299439 .12034607 .41099549 .11834717 .40499879 .1103363 .32598878 .011245728 .21699524 .011245728 .20498657 .011245728 .1269989 .011245728 .117996219 .095321658 .117996219 .12734986 .117996219 .13935852 .11898804 .17037964 .13398743 .23144531H.18699646M.13999939 .25343324C.1789856 .40538026 .28199769 .42037965 .30799867 .42037965 .35499574 .42037965 .38198854 .39138795 .38198854 .35740663 .38198854 .25343324 .22200012 .25343324 .18099976 .25343324H.13999939Z"/>
<path id="font_1_7" d="M.47099305 .3773346C.47200013 .3833313 .47399903 .38833619 .47399903 .39535523 .47399903 .41236878 .46199037 .42237855 .44499208 .42237855 .43499757 .42237855 .4079895 .41537477 .4039917 .3793335 .38598634 .41636659 .35099793 .4423828 .31098939 .4423828 .19699097 .4423828 .07299805 .30226136 .07299805 .15812683 .07299805 .059020997 .13398743 0 .20599365 0 .2649994 0 .31199647 .04701233 .32199098 .058029176L.32299806 .057022096C.3019867-.031982423 .2899933-.07295227 .2899933-.07495117 .28599549-.08395386 .2519989-.18309021 .1459961-.18309021 .1269989-.18309021 .09399414-.18206787 .06599426-.17297364 .09599304-.16394043 .10699463-.13793946 .10699463-.12094116 .10699463-.10494995 .09599304-.0859375 .068984989-.0859375 .04699707-.0859375 .01499939-.10394287 .01499939-.14395142 .01499939-.18508911 .051986696-.20507813 .147995-.20507813 .272995-.20507813 .34498597-.12693787 .3600006-.06695557L.47099305 .3773346M.34098817 .12809754C.33499146 .10206604 .31199647 .077041629 .2899933 .058029176 .2689972 .040008546 .23799134 .021987915 .20899964 .021987915 .15899658 .021987915 .14399719 .074035648 .14399719 .11407471 .14399719 .16212464 .17298889 .28024293 .19999695 .33128358 .22698975 .38034059 .269989 .42037965 .31199647 .42037965 .37799073 .42037965 .3919983 .33929444 .3919983 .33428956 .3919983 .32928468 .3899994 .3232727 .3889923 .3192749L.34098817 .12809754Z"/>
<path id="font_1_6" d="M.36698915 .3996582H.45298768C.47299195 .3996582 .48298646 .3996582 .48298646 .41966249 .48298646 .43066407 .47299195 .43066407 .45599366 .43066407H.37298585L.3939972 .5449524C.397995 .5660095 .4119873 .6370239 .41799928 .6490326 .4269867 .66804507 .44400025 .68307498 .46499635 .68307498 .46899415 .68307498 .49499513 .68307498 .5139923 .66503909 .46998597 .661026 .45999146 .6260376 .45999146 .6110382 .45999146 .58802798 .47799684 .57603457 .49699403 .57603457 .522995 .57603457 .5519867 .5980377 .5519867 .6360321 .5519867 .6820679 .5059967 .7050781 .46499635 .7050781 .43099977 .7050781 .36799623 .68707278 .33799745 .58802798 .33198548 .56700137 .32899476 .5569763 .30499269 .43066407H.23599243C.21699524 .43066407 .20599365 .43066407 .20599365 .4116516 .20599365 .3996582 .21499634 .3996582 .23399353 .3996582H.2999878L.22499085 .0048828127C.20698548-.09207153 .18998719-.18309021 .13798523-.18309021 .13398743-.18309021 .10899353-.18309021 .08999634-.16506958 .13598633-.1620636 .14498902-.12606812 .14498902-.111068729 .14498902-.08807373 .1269989-.07606506 .10798645-.07606506 .08198547-.07606506 .052993776-.09806824 .052993776-.13606262 .052993776-.18109131 .09700012-.20507813 .13798523-.20507813 .19299317-.20507813 .23298645-.14607239 .25099183-.108062747 .2829895-.04508972 .30599977 .07583618 .30699159 .082839969L.36698915 .3996582Z"/>
<path id="font_1_8" d="M.2869873 .68333438C.2869873 .6843262 .2869873 .69433596 .27398683 .69433596 .25099183 .69433596 .17799378 .6863251 .1519928 .6843262 .14399719 .68333438 .1329956 .6823273 .1329956 .6643219 .1329956 .6523285 .14199829 .6523285 .15699768 .6523285 .20498657 .6523285 .20698548 .6453247 .20698548 .6353302L.20399475 .6153412 .05899048 .039260866C.054992677 .025253296 .054992677 .023254395 .054992677 .01725769 .054992677-.0057525637 .07499695-.0107421879 .083999637-.0107421879 .099990848-.0107421879 .115997318 .0012512207 .12098694 .015258789L.13999939 .091278079 .1619873 .18130493C.16799927 .2033081 .17399597 .22531128 .1789856 .24832154 .18099976 .25431825 .18899536 .28733827 .18998719 .29333497 .19299317 .30233766 .22399903 .35835267 .2579956 .38536073 .27999879 .4013672 .31098939 .42037965 .35398866 .42037965 .39698792 .42037965 .4079895 .3863678 .4079895 .35035707 .4079895 .29634095 .36999513 .18730164 .34599305 .12628174 .33799745 .103271488 .33299256 .091278079 .33299256 .0712738 .33299256 .024261475 .36799623-.0107421879 .4149933-.0107421879 .5089874-.0107421879 .54599 .13528443 .54599 .14329529 .54599 .1532898 .5369873 .1532898 .5339966 .1532898 .5239868 .1532898 .5239868 .15029907 .5189972 .13528443 .5039978 .08227539 .47200013 .011245728 .4169922 .011245728 .3999939 .011245728 .3929901 .021255494 .3929901 .044265748 .3929901 .0692749 .4019928 .09327698 .41099549 .11528015 .4269867 .15829468 .47200013 .2773285 .47200013 .3353424 .47200013 .4003601 .43199159 .4423828 .35699464 .4423828 .2939911 .4423828 .24598694 .41137696 .20899964 .36535646L.2869873 .68333438Z"/>
</defs>
<path transform="matrix(1.00006,0,0,-1.00005,103.06928,138.71628)" stroke-width=".3985" stroke-linecap="butt" stroke-miterlimit="10" stroke-linejoin="miter" fill="none" stroke="#000000" d="M-98.31456 55.86351 84.14116-112.55713"/>
<path transform="matrix(1.00006,0,0,-1.00005,103.06928,138.71628)" stroke-width=".3985" stroke-linecap="butt" stroke-miterlimit="10" stroke-linejoin="miter" fill="none" stroke="#000000" d="M85.04042-112.16335V55.46973"/>
<path transform="matrix(1.00006,0,0,-1.00005,103.06928,138.71628)" stroke-width=".3985" stroke-linecap="butt" stroke-miterlimit="10" stroke-linejoin="miter" fill="none" stroke="#000000" d="M83.81654 56.69362H-97.98994"/>
<path transform="matrix(1.00006,0,0,-1.00005,103.06928,138.71628)" stroke-width=".3985" stroke-linecap="butt" stroke-miterlimit="10" stroke-linejoin="miter" fill="none" stroke="#000000" d="M84.26361 55.74792-77.17691-140.78836"/>
<path transform="matrix(1.00006,0,0,-1.00005,103.06928,138.71628)" stroke-width=".3985" stroke-linecap="butt" stroke-miterlimit="10" stroke-linejoin="miter" fill="none" stroke="#000000" d="M-78.08408-140.51715-99.08347 55.47673"/>
<path transform="matrix(1.00006,0,0,-1.00005,103.06928,138.71628)" stroke-width=".3985" stroke-linecap="butt" stroke-miterlimit="10" stroke-linejoin="miter" fill="none" stroke="#000000" d="M-54.62138-1.03389-29.0016-41.4863"/>
<path transform="matrix(1.00006,0,0,-1.00005,103.06928,138.71628)" stroke-width=".3985" stroke-linecap="butt" stroke-miterlimit="10" stroke-linejoin="miter" fill="none" stroke="#000000" d="M-76.72983-42.5202H-29.57068"/>
<path transform="matrix(1.00006,0,0,-1.00005,103.06928,138.71628)" stroke-width=".3985" stroke-linecap="butt" stroke-miterlimit="10" stroke-linejoin="miter" fill="none" stroke="#000000" d="M-98.04408 57.05353 83.8707 113.02731"/>
<path transform="matrix(1.00006,0,0,-1.00005,103.06928,138.71628)" stroke-width=".3985" stroke-linecap="butt" stroke-miterlimit="10" stroke-linejoin="miter" fill="none" stroke="#000000" d="M-98.46413 55.72627-56.02586 .96733"/>
<path transform="matrix(1.00006,0,0,-1.00005,103.06928,138.71628)" stroke-width=".3985" stroke-linecap="butt" stroke-miterlimit="10" stroke-linejoin="miter" fill="none" stroke="#000000" d="M-98.9574 55.49692-78.21014-41.3235"/>
<path transform="matrix(1.00006,0,0,-1.00005,103.06928,138.71628)" d="M-98.03973 56.69362C-98.03973 57.34204-98.5654 57.86769-99.21382 57.86769-99.86224 57.86769-100.3879 57.34204-100.3879 56.69362-100.3879 56.04518-99.86224 55.51953-99.21382 55.51953-98.5654 55.51953-98.03973 56.04518-98.03973 56.69362ZM-99.21382 56.69362"/>
<path transform="matrix(1.00006,0,0,-1.00005,103.06928,138.71628)" stroke-width=".3985" stroke-linecap="butt" stroke-miterlimit="10" stroke-linejoin="miter" fill="none" stroke="#000000" d="M-98.03973 56.69362C-98.03973 57.34204-98.5654 57.86769-99.21382 57.86769-99.86224 57.86769-100.3879 57.34204-100.3879 56.69362-100.3879 56.04518-99.86224 55.51953-99.21382 55.51953-98.5654 55.51953-98.03973 56.04518-98.03973 56.69362ZM-99.21382 56.69362"/>
<path transform="matrix(1.00006,0,0,-1.00005,103.06928,138.71628)" d="M86.21451-113.38724C86.21451-112.7388 85.68884-112.21315 85.04042-112.21315 84.392-112.21315 83.86635-112.7388 83.86635-113.38724 83.86635-114.03566 84.392-114.56131 85.04042-114.56131 85.68884-114.56131 86.21451-114.03566 86.21451-113.38724ZM85.04042-113.38724"/>
<path transform="matrix(1.00006,0,0,-1.00005,103.06928,138.71628)" stroke-width=".3985" stroke-linecap="butt" stroke-miterlimit="10" stroke-linejoin="miter" fill="none" stroke="#000000" d="M86.21451-113.38724C86.21451-112.7388 85.68884-112.21315 85.04042-112.21315 84.392-112.21315 83.86635-112.7388 83.86635-113.38724 83.86635-114.03566 84.392-114.56131 85.04042-114.56131 85.68884-114.56131 86.21451-114.03566 86.21451-113.38724ZM85.04042-113.38724"/>
<use data-text="b" xlink:href="#font_1_2" transform="matrix(9.963197,0,0,-9.963098,185.97727,64.21855)"/>
<use data-text="d" xlink:href="#font_1_4" transform="matrix(9.963197,0,0,-9.963098,185.52222,276.83018)"/>
<use data-text="a" xlink:href="#font_1_1" transform="matrix(9.963197,0,0,-9.963098,1.2161865,62.903497)"/>
<path transform="matrix(1.00006,0,0,-1.00005,103.06928,138.71628)" d="M86.21451 56.69362C86.21451 57.34204 85.68884 57.86769 85.04042 57.86769 84.392 57.86769 83.86635 57.34204 83.86635 56.69362 83.86635 56.04518 84.392 55.51953 85.04042 55.51953 85.68884 55.51953 86.21451 56.04518 86.21451 56.69362ZM85.04042 56.69362"/>
<path transform="matrix(1.00006,0,0,-1.00005,103.06928,138.71628)" stroke-width=".3985" stroke-linecap="butt" stroke-miterlimit="10" stroke-linejoin="miter" fill="none" stroke="#000000" d="M86.21451 56.69362C86.21451 57.34204 85.68884 57.86769 85.04042 57.86769 84.392 57.86769 83.86635 57.34204 83.86635 56.69362 83.86635 56.04518 84.392 55.51953 85.04042 55.51953 85.68884 55.51953 86.21451 56.04518 86.21451 56.69362ZM85.04042 56.69362"/>
<path transform="matrix(1.00006,0,0,-1.00005,103.06928,138.71628)" d="M-76.77963-141.73404C-76.77963-141.08562-77.3053-140.55997-77.95372-140.55997-78.60214-140.55997-79.12779-141.08562-79.12779-141.73404-79.12779-142.38246-78.60214-142.90813-77.95372-142.90813-77.3053-142.90813-76.77963-142.38246-76.77963-141.73404ZM-77.95372-141.73404"/>
<path transform="matrix(1.00006,0,0,-1.00005,103.06928,138.71628)" stroke-width=".3985" stroke-linecap="butt" stroke-miterlimit="10" stroke-linejoin="miter" fill="none" stroke="#000000" d="M-76.77963-141.73404C-76.77963-141.08562-77.3053-140.55997-77.95372-140.55997-78.60214-140.55997-79.12779-141.08562-79.12779-141.73404-79.12779-142.38246-78.60214-142.90813-77.95372-142.90813-77.3053-142.90813-76.77963-142.38246-76.77963-141.73404ZM-77.95372-141.73404"/>
<use data-text="c" xlink:href="#font_1_3" transform="matrix(9.963197,0,0,-9.963098,22.955475,303.15449)"/>
<path transform="matrix(1.00006,0,0,-1.00005,103.06928,138.71628)" d="M-27.17273-42.5202C-27.17273-41.87178-27.69838-41.34612-28.3468-41.34612-28.99522-41.34612-29.52087-41.87178-29.52087-42.5202-29.52087-43.16862-28.99522-43.69427-28.3468-43.69427-27.69838-43.69427-27.17273-43.16862-27.17273-42.5202ZM-28.3468-42.5202"/>
<path transform="matrix(1.00006,0,0,-1.00005,103.06928,138.71628)" stroke-width=".3985" stroke-linecap="butt" stroke-miterlimit="10" stroke-linejoin="miter" fill="none" stroke="#000000" d="M-27.17273-42.5202C-27.17273-41.87178-27.69838-41.34612-28.3468-41.34612-28.99522-41.34612-29.52087-41.87178-29.52087-42.5202-29.52087-43.16862-28.99522-43.69427-28.3468-43.69427-27.69838-43.69427-27.17273-43.16862-27.17273-42.5202ZM-28.3468-42.5202"/>
<use data-text="e" xlink:href="#font_1_5" transform="matrix(9.963197,0,0,-9.963098,185.79524,6.20665)"/>
<use data-text="g" xlink:href="#font_1_7" transform="matrix(9.963197,0,0,-9.963098,72.16643,203.67552)"/>
<path transform="matrix(1.00006,0,0,-1.00005,103.06928,138.71628)" d="M86.21451 113.38724C86.21451 114.03566 85.68884 114.56131 85.04042 114.56131 84.392 114.56131 83.86635 114.03566 83.86635 113.38724 83.86635 112.7388 84.392 112.21315 85.04042 112.21315 85.68884 112.21315 86.21451 112.7388 86.21451 113.38724ZM85.04042 113.38724"/>
<path transform="matrix(1.00006,0,0,-1.00005,103.06928,138.71628)" stroke-width=".3985" stroke-linecap="butt" stroke-miterlimit="10" stroke-linejoin="miter" fill="none" stroke="#000000" d="M86.21451 113.38724C86.21451 114.03566 85.68884 114.56131 85.04042 114.56131 84.392 114.56131 83.86635 114.03566 83.86635 113.38724 83.86635 112.7388 84.392 112.21315 85.04042 112.21315 85.68884 112.21315 86.21451 112.7388 86.21451 113.38724ZM85.04042 113.38724"/>
<path transform="matrix(1.00006,0,0,-1.00005,103.06928,138.71628)" d="M-76.77963-42.5202C-76.77963-41.87178-77.3053-41.34612-77.95372-41.34612-78.60214-41.34612-79.12779-41.87178-79.12779-42.5202-79.12779-43.16862-78.60214-43.69427-77.95372-43.69427-77.3053-43.69427-76.77963-43.16862-76.77963-42.5202ZM-77.95372-42.5202"/>
<path transform="matrix(1.00006,0,0,-1.00005,103.06928,138.71628)" stroke-width=".3985" stroke-linecap="butt" stroke-miterlimit="10" stroke-linejoin="miter" fill="none" stroke="#000000" d="M-76.77963-42.5202C-76.77963-41.87178-77.3053-41.34612-77.95372-41.34612-78.60214-41.34612-79.12779-41.87178-79.12779-42.5202-79.12779-43.16862-78.60214-43.69427-77.95372-43.69427-77.3053-43.69427-76.77963-43.16862-76.77963-42.5202ZM-77.95372-42.5202"/>
<use data-text="f" xlink:href="#font_1_6" transform="matrix(9.963197,0,0,-9.963098,22.135437,204.28256)"/>
<path transform="matrix(1.00006,0,0,-1.00005,103.06928,138.71628)" d="M-54.1021 0C-54.1021 .64842-54.62776 1.17407-55.27618 1.17407-55.9246 1.17407-56.45026 .64842-56.45026 0-56.45026-.64842-55.9246-1.17407-55.27618-1.17407-54.62776-1.17407-54.1021-.64842-54.1021 0ZM-55.27618 0"/>
<path transform="matrix(1.00006,0,0,-1.00005,103.06928,138.71628)" stroke-width=".3985" stroke-linecap="butt" stroke-miterlimit="10" stroke-linejoin="miter" fill="none" stroke="#000000" d="M-54.1021 0C-54.1021 .64842-54.62776 1.17407-55.27618 1.17407-55.9246 1.17407-56.45026 .64842-56.45026 0-56.45026-.64842-55.9246-1.17407-55.27618-1.17407-54.62776-1.17407-54.1021-.64842-54.1021 0ZM-55.27618 0"/>
<use data-text="h" xlink:href="#font_1_8" transform="matrix(9.963197,0,0,-9.963098,44.9198,156.35016)"/>
</svg>
