<?xml version="1.0" encoding="utf-8" standalone="no"?>
<!DOCTYPE svg PUBLIC "-//W3C//DTD SVG 1.1//EN"
  "http://www.w3.org/Graphics/SVG/1.1/DTD/svg11.dtd">
<!-- Created with matplotlib (https://matplotlib.org/) -->
<svg height="338.4pt" version="1.1" viewBox="0 0 338.4 338.4" width="338.4pt" xmlns="http://www.w3.org/2000/svg" xmlns:xlink="http://www.w3.org/1999/xlink">
 <metadata>
  <rdf:RDF xmlns:cc="http://creativecommons.org/ns#" xmlns:dc="http://purl.org/dc/elements/1.1/" xmlns:rdf="http://www.w3.org/1999/02/22-rdf-syntax-ns#">
   <cc:Work>
    <dc:type rdf:resource="http://purl.org/dc/dcmitype/StillImage"/>
    <dc:date>2024-08-21T15:23:41.032529</dc:date>
    <dc:format>image/svg+xml</dc:format>
    <dc:creator>
     <cc:Agent>
      <dc:title>Matplotlib v3.3.4, https://matplotlib.org/</dc:title>
     </cc:Agent>
    </dc:creator>
   </cc:Work>
  </rdf:RDF>
 </metadata>
 <defs>
  <style type="text/css">*{stroke-linecap:butt;stroke-linejoin:round;}</style>
 </defs>
 <g id="figure_1">
  <g id="patch_1">
   <path d="M -0 338.4 
L 338.4 338.4 
L 338.4 0 
L -0 0 
z
" style="fill:#ffffff;"/>
  </g>
  <g id="axes_1">
   <g id="patch_2">
    <path d="M 7.2 331.2 
L 331.2 331.2 
L 331.2 7.2 
L 7.2 7.2 
z
" style="fill:#ffffff;"/>
   </g>
   <g id="patch_3">
    <path clip-path="url(#pe5cfcf5cda)" d="M 13.430769 324.969231 
L 13.430769 13.430769 
L 324.969231 13.430769 
L 324.969231 324.969231 
z
" style="fill:none;stroke:#000000;stroke-linejoin:miter;"/>
   </g>
   <g id="matplotlib.axis_1"/>
   <g id="matplotlib.axis_2"/>
   <g id="text_1">
    <!-- $\Omega$ -->
    <g transform="translate(16.011538 22.420913)scale(0.1 -0.1)">
     <defs>
      <path d="M 7.71875 0 
L 4.390625 16.609375 
L 7.328125 16.609375 
Q 7.859375 13.71875 8.296875 11.5 
Q 8.734375 9.28125 9.4375 8.375 
Q 10.15625 7.46875 11.71875 7.171875 
Q 13.28125 6.890625 16.890625 6.890625 
L 23 6.890625 
Q 21.53125 12.546875 15.6875 21.65625 
Q 9.859375 30.765625 7.734375 34.890625 
Q 5.609375 39.015625 5.609375 45.515625 
Q 5.609375 53.078125 10.09375 58.765625 
Q 14.59375 64.453125 21.703125 67.484375 
Q 28.8125 70.515625 36.078125 70.515625 
Q 43.3125 70.515625 50.40625 67.484375 
Q 57.515625 64.453125 62 58.71875 
Q 66.5 52.984375 66.5 45.515625 
Q 66.5 40.4375 64.640625 35.9375 
Q 62.796875 31.453125 59.90625 26.953125 
Q 57.03125 22.46875 53.6875 16.9375 
Q 50.34375 11.421875 49.125 6.890625 
L 55.171875 6.890625 
Q 58.84375 6.890625 60.453125 7.171875 
Q 62.0625 7.46875 62.734375 8.375 
Q 63.421875 9.28125 63.84375 11.5 
Q 64.265625 13.71875 64.796875 16.609375 
L 67.671875 16.609375 
L 64.40625 0 
L 46.6875 0 
Q 45.703125 0 45.703125 1.3125 
Q 45.703125 6.390625 46.9375 11.265625 
Q 48.1875 16.15625 50.625 23.09375 
Q 53.078125 30.03125 54.4375 35.328125 
Q 55.8125 40.625 55.8125 45.515625 
Q 55.8125 51.515625 53.46875 56.640625 
Q 51.125 61.765625 46.625 64.84375 
Q 42.140625 67.921875 36.078125 67.921875 
Q 26.953125 67.921875 21.625 61.40625 
Q 16.3125 54.890625 16.3125 45.515625 
Q 16.359375 40.375 17.53125 35.828125 
Q 18.703125 31.296875 21.3125 23.71875 
Q 23.921875 16.15625 25.171875 11.265625 
Q 26.421875 6.390625 26.421875 1.3125 
Q 26.421875 0 25.390625 0 
z
" id="Cmr10-173"/>
     </defs>
     <use transform="translate(0 0.484375)" xlink:href="#Cmr10-173"/>
    </g>
   </g>
   <g id="text_2">
    <!-- $A$ -->
    <g style="fill:#0000ff;" transform="translate(103.142308 78.497837)scale(0.1 -0.1)">
     <defs>
      <path d="M 4.5 0 
Q 3.515625 0 3.515625 1.3125 
Q 3.90625 3.515625 4.78125 3.515625 
Q 8.84375 3.515625 11.796875 5.125 
Q 14.75 6.734375 16.890625 10.109375 
Q 17.09375 10.296875 17.09375 10.296875 
L 52.78125 70.515625 
Q 53.5625 71.578125 54.6875 71.578125 
L 56 71.578125 
Q 56.296875 71.578125 56.59375 71.453125 
Q 56.890625 71.34375 57.109375 71.0625 
Q 57.328125 70.796875 57.328125 70.515625 
L 63.375 5.90625 
Q 63.375 5.46875 63.8125 4.59375 
Q 64.796875 3.515625 71.296875 3.515625 
Q 72.3125 3.515625 72.3125 2.203125 
Q 71.96875 0.875 71.75 0.4375 
Q 71.53125 0 70.609375 0 
L 45.609375 0 
Q 44.671875 0 44.671875 1.3125 
Q 45.21875 3.515625 46 3.515625 
Q 53.90625 3.515625 54.390625 6.203125 
L 52.875 22.703125 
L 28.21875 22.703125 
L 20.21875 9.28125 
Q 19.484375 8.203125 19.484375 6.78125 
Q 19.484375 5.03125 21.171875 4.265625 
Q 22.859375 3.515625 24.90625 3.515625 
Q 25.875 3.515625 25.875 2.203125 
Q 25.53125 0.78125 25.328125 0.390625 
Q 25.140625 0 24.21875 0 
z
M 30.171875 26.21875 
L 52.484375 26.21875 
L 49.515625 58.59375 
z
" id="Cmmi10-65"/>
     </defs>
     <use transform="translate(0 0.421875)" xlink:href="#Cmmi10-65"/>
    </g>
   </g>
   <g id="text_3">
    <!-- $B$ -->
    <g style="fill:#ff0000;" transform="translate(227.707692 78.497837)scale(0.1 -0.1)">
     <defs>
      <path d="M 4.984375 0 
Q 4 0 4 1.3125 
Q 4.046875 1.5625 4.1875 2.140625 
Q 4.34375 2.734375 4.578125 3.125 
Q 4.828125 3.515625 5.328125 3.515625 
Q 8.15625 3.515625 10.25 3.65625 
Q 12.359375 3.8125 13.8125 4.203125 
Q 14.984375 4.640625 15.71875 6.890625 
L 29.390625 61.8125 
Q 29.59375 62.796875 29.59375 63.1875 
Q 29.59375 64.265625 28.421875 64.40625 
Q 26.515625 64.796875 21.1875 64.796875 
Q 20.21875 64.796875 20.21875 66.109375 
Q 20.265625 66.359375 20.40625 66.96875 
Q 20.5625 67.578125 20.828125 67.9375 
Q 21.09375 68.3125 21.484375 68.3125 
L 57.328125 68.3125 
Q 60.59375 68.3125 63.796875 67.5 
Q 67 66.703125 69.703125 64.9375 
Q 72.40625 63.1875 74 60.5625 
Q 75.59375 57.953125 75.59375 54.5 
Q 75.59375 50.734375 73.65625 47.5 
Q 71.734375 44.28125 68.671875 41.890625 
Q 65.625 39.5 62.078125 37.953125 
Q 58.546875 36.421875 54.6875 35.6875 
Q 57.421875 35.6875 60.21875 34.609375 
Q 63.03125 33.546875 65.234375 31.6875 
Q 67.4375 29.828125 68.78125 27.234375 
Q 70.125 24.65625 70.125 21.6875 
Q 70.125 15.671875 65.921875 10.6875 
Q 61.71875 5.71875 55.34375 2.859375 
Q 48.96875 0 43.015625 0 
z
M 23.390625 4.296875 
Q 23.390625 3.515625 26.8125 3.515625 
L 41.109375 3.515625 
Q 46 3.515625 50.484375 6.21875 
Q 54.984375 8.9375 57.6875 13.421875 
Q 60.40625 17.921875 60.40625 22.796875 
Q 60.40625 25.78125 59.15625 28.4375 
Q 57.90625 31.109375 55.5625 32.640625 
Q 53.21875 34.1875 50.203125 34.1875 
L 30.71875 34.1875 
L 23.78125 6.5 
Q 23.390625 5.125 23.390625 4.296875 
z
M 31.390625 36.8125 
L 46.578125 36.8125 
Q 51.375 36.8125 55.890625 39.25 
Q 60.40625 41.703125 63.25 45.890625 
Q 66.109375 50.09375 66.109375 54.78125 
Q 66.109375 59.125 63.390625 61.953125 
Q 60.6875 64.796875 56.390625 64.796875 
L 42.671875 64.796875 
Q 39.984375 64.796875 39.0625 64.296875 
Q 38.140625 63.8125 37.5 61.375 
z
" id="Cmmi10-66"/>
     </defs>
     <use transform="translate(0 0.6875)" xlink:href="#Cmmi10-66"/>
    </g>
   </g>
   <g id="text_4">
    <!-- $C$ -->
    <g style="fill:#228b22;" transform="translate(150.023077 271.651683)scale(0.1 -0.1)">
     <defs>
      <path d="M 14.59375 21.578125 
Q 14.59375 15.578125 16.90625 11.015625 
Q 19.234375 6.453125 23.65625 3.875 
Q 28.078125 1.3125 34.078125 1.3125 
Q 40.375 1.3125 46.203125 4.53125 
Q 52.046875 7.765625 56.171875 13.15625 
Q 60.296875 18.5625 61.8125 24.609375 
Q 62.015625 25.203125 62.59375 25.203125 
L 63.8125 25.203125 
Q 64.203125 25.203125 64.453125 24.921875 
Q 64.703125 24.65625 64.703125 24.3125 
Q 64.703125 24.21875 64.59375 24.03125 
Q 62.890625 17.09375 57.984375 11.015625 
Q 53.078125 4.9375 46.234375 1.359375 
Q 39.40625 -2.203125 32.171875 -2.203125 
Q 24.359375 -2.203125 18.15625 1.3125 
Q 11.96875 4.828125 8.515625 11.078125 
Q 5.078125 17.328125 5.078125 25.203125 
Q 5.078125 33.59375 8.828125 41.8125 
Q 12.59375 50.046875 18.9375 56.46875 
Q 25.296875 62.890625 33.421875 66.703125 
Q 41.546875 70.515625 49.90625 70.515625 
Q 53.21875 70.515625 56.25 69.5 
Q 59.28125 68.5 61.859375 66.453125 
Q 64.453125 64.40625 66.109375 61.71875 
L 74.03125 70.3125 
Q 74.03125 70.515625 74.515625 70.515625 
L 75.09375 70.515625 
Q 75.484375 70.515625 75.734375 70.171875 
Q 75.984375 69.828125 75.984375 69.484375 
L 69.1875 42.484375 
Q 69.1875 41.796875 68.40625 41.796875 
L 66.609375 41.796875 
Q 65.828125 41.796875 65.828125 42.921875 
Q 66.21875 45.125 66.21875 48.1875 
Q 66.21875 53.078125 64.546875 57.390625 
Q 62.890625 61.71875 59.390625 64.359375 
Q 55.90625 67 50.875 67 
Q 42.71875 67 35.9375 62.890625 
Q 29.15625 58.796875 24.4375 52.125 
Q 19.734375 45.453125 17.15625 37.328125 
Q 14.59375 29.203125 14.59375 21.578125 
z
" id="Cmmi10-67"/>
     </defs>
     <use transform="translate(0 0.484375)" xlink:href="#Cmmi10-67"/>
    </g>
   </g>
   <g id="patch_4">
    <path clip-path="url(#pe5cfcf5cda)" d="M 138.046154 200.353846 
C 154.570347 200.353846 170.419977 193.788715 182.104346 182.104346 
C 193.788715 170.419977 200.353846 154.570347 200.353846 138.046154 
C 200.353846 121.521961 193.788715 105.672331 182.104346 93.987962 
C 170.419977 82.303593 154.570347 75.738462 138.046154 75.738462 
C 121.521961 75.738462 105.672331 82.303593 93.987962 93.987962 
C 82.303593 105.672331 75.738462 121.521961 75.738462 138.046154 
C 75.738462 154.570347 82.303593 170.419977 93.987962 182.104346 
C 105.672331 193.788715 121.521961 200.353846 138.046154 200.353846 
z
" style="fill:none;stroke:#0000ff;stroke-linejoin:miter;"/>
   </g>
   <g id="patch_5">
    <path clip-path="url(#pe5cfcf5cda)" d="M 200.353846 200.353846 
C 216.878039 200.353846 232.727669 193.788715 244.412038 182.104346 
C 256.096407 170.419977 262.661538 154.570347 262.661538 138.046154 
C 262.661538 121.521961 256.096407 105.672331 244.412038 93.987962 
C 232.727669 82.303593 216.878039 75.738462 200.353846 75.738462 
C 183.829653 75.738462 167.980023 82.303593 156.295654 93.987962 
C 144.611285 105.672331 138.046154 121.521961 138.046154 138.046154 
C 138.046154 154.570347 144.611285 170.419977 156.295654 182.104346 
C 167.980023 193.788715 183.829653 200.353846 200.353846 200.353846 
z
" style="fill:none;stroke:#ff0000;stroke-linejoin:miter;"/>
   </g>
   <g id="patch_6">
    <path clip-path="url(#pe5cfcf5cda)" d="M 169.2 262.661538 
C 185.724193 262.661538 201.573823 256.096407 213.258192 244.412038 
C 224.942561 232.727669 231.507692 216.878039 231.507692 200.353846 
C 231.507692 183.829653 224.942561 167.980023 213.258192 156.295654 
C 201.573823 144.611285 185.724193 138.046154 169.2 138.046154 
C 152.675807 138.046154 136.826177 144.611285 125.141808 156.295654 
C 113.457439 167.980023 106.892308 183.829653 106.892308 200.353846 
C 106.892308 216.878039 113.457439 232.727669 125.141808 244.412038 
C 136.826177 256.096407 152.675807 262.661538 169.2 262.661538 
z
" style="fill:none;stroke:#228b22;stroke-linejoin:miter;"/>
   </g>
  </g>
 </g>
 <defs>
  <clipPath id="pe5cfcf5cda">
   <rect height="324" width="324" x="7.2" y="7.2"/>
  </clipPath>
 </defs>
</svg>
