<?xml version="1.0" encoding="utf-8" standalone="no"?>
<!DOCTYPE svg PUBLIC "-//W3C//DTD SVG 1.1//EN"
  "http://www.w3.org/Graphics/SVG/1.1/DTD/svg11.dtd">
<!-- Created with matplotlib (https://matplotlib.org/) -->
<svg height="338.4pt" version="1.1" viewBox="0 0 419.4 338.4" width="419.4pt" xmlns="http://www.w3.org/2000/svg" xmlns:xlink="http://www.w3.org/1999/xlink">
 <metadata>
  <rdf:RDF xmlns:cc="http://creativecommons.org/ns#" xmlns:dc="http://purl.org/dc/elements/1.1/" xmlns:rdf="http://www.w3.org/1999/02/22-rdf-syntax-ns#">
   <cc:Work>
    <dc:type rdf:resource="http://purl.org/dc/dcmitype/StillImage"/>
    <dc:date>2024-11-18T20:48:16.413267</dc:date>
    <dc:format>image/svg+xml</dc:format>
    <dc:creator>
     <cc:Agent>
      <dc:title>Matplotlib v3.3.4, https://matplotlib.org/</dc:title>
     </cc:Agent>
    </dc:creator>
   </cc:Work>
  </rdf:RDF>
 </metadata>
 <defs>
  <style type="text/css">*{stroke-linecap:butt;stroke-linejoin:round;}</style>
 </defs>
 <g id="figure_1">
  <g id="patch_1">
   <path d="M 0 338.4 
L 419.4 338.4 
L 419.4 0 
L 0 0 
z
" style="fill:#ffffff;"/>
  </g>
  <g id="axes_1">
   <g id="patch_2">
    <path d="M 7.2 331.2 
L 412.2 331.2 
L 412.2 7.2 
L 7.2 7.2 
z
" style="fill:#ffffff;"/>
   </g>
   <g id="PathCollection_1">
    <path clip-path="url(#pe07258984e)" d="M 92.873077 93.551453 
C 93.466089 93.551453 94.034893 93.315846 94.454216 92.896523 
C 94.873539 92.477201 95.109145 91.908397 95.109145 91.315385 
C 95.109145 90.722372 94.873539 90.153569 94.454216 89.734246 
C 94.034893 89.314923 93.466089 89.079317 92.873077 89.079317 
C 92.280065 89.079317 91.711261 89.314923 91.291938 89.734246 
C 90.872615 90.153569 90.637009 90.722372 90.637009 91.315385 
C 90.637009 91.908397 90.872615 92.477201 91.291938 92.896523 
C 91.711261 93.315846 92.280065 93.551453 92.873077 93.551453 
z
"/>
   </g>
   <g id="PathCollection_2">
    <path clip-path="url(#pe07258984e)" d="M 92.873077 171.436068 
C 93.466089 171.436068 94.034893 171.200462 94.454216 170.781139 
C 94.873539 170.361816 95.109145 169.793012 95.109145 169.2 
C 95.109145 168.606988 94.873539 168.038184 94.454216 167.618861 
C 94.034893 167.199538 93.466089 166.963932 92.873077 166.963932 
C 92.280065 166.963932 91.711261 167.199538 91.291938 167.618861 
C 90.872615 168.038184 90.637009 168.606988 90.637009 169.2 
C 90.637009 169.793012 90.872615 170.361816 91.291938 170.781139 
C 91.711261 171.200462 92.280065 171.436068 92.873077 171.436068 
z
"/>
   </g>
   <g id="PathCollection_3">
    <path clip-path="url(#pe07258984e)" d="M 326.526923 93.551453 
C 327.119935 93.551453 327.688739 93.315846 328.108062 92.896523 
C 328.527385 92.477201 328.762991 91.908397 328.762991 91.315385 
C 328.762991 90.722372 328.527385 90.153569 328.108062 89.734246 
C 327.688739 89.314923 327.119935 89.079317 326.526923 89.079317 
C 325.933911 89.079317 325.365107 89.314923 324.945784 89.734246 
C 324.526461 90.153569 324.290855 90.722372 324.290855 91.315385 
C 324.290855 91.908397 324.526461 92.477201 324.945784 92.896523 
C 325.365107 93.315846 325.933911 93.551453 326.526923 93.551453 
z
"/>
   </g>
   <g id="PathCollection_4">
    <path clip-path="url(#pe07258984e)" d="M 326.526923 171.436068 
C 327.119935 171.436068 327.688739 171.200462 328.108062 170.781139 
C 328.527385 170.361816 328.762991 169.793012 328.762991 169.2 
C 328.762991 168.606988 328.527385 168.038184 328.108062 167.618861 
C 327.688739 167.199538 327.119935 166.963932 326.526923 166.963932 
C 325.933911 166.963932 325.365107 167.199538 324.945784 167.618861 
C 324.526461 168.038184 324.290855 168.606988 324.290855 169.2 
C 324.290855 169.793012 324.526461 170.361816 324.945784 170.781139 
C 325.365107 171.200462 325.933911 171.436068 326.526923 171.436068 
z
"/>
   </g>
   <g id="PathCollection_5">
    <path clip-path="url(#pe07258984e)" d="M 326.526923 249.320683 
C 327.119935 249.320683 327.688739 249.085077 328.108062 248.665754 
C 328.527385 248.246431 328.762991 247.677628 328.762991 247.084615 
C 328.762991 246.491603 328.527385 245.922799 328.108062 245.503477 
C 327.688739 245.084154 327.119935 244.848547 326.526923 244.848547 
C 325.933911 244.848547 325.365107 245.084154 324.945784 245.503477 
C 324.526461 245.922799 324.290855 246.491603 324.290855 247.084615 
C 324.290855 247.677628 324.526461 248.246431 324.945784 248.665754 
C 325.365107 249.085077 325.933911 249.320683 326.526923 249.320683 
z
"/>
   </g>
   <g id="matplotlib.axis_1"/>
   <g id="matplotlib.axis_2"/>
   <g id="patch_3">
    <path clip-path="url(#pe07258984e)" d="M 92.873077 169.2 
Q 209.7 169.2 325.408889 169.2 
" style="fill:none;stroke:#000000;stroke-linecap:round;"/>
    <path clip-path="url(#pe07258984e)" d="M 321.408889 167.2 
L 325.408889 169.2 
L 321.408889 171.2 
L 321.408889 167.2 
z
" style="stroke:#000000;stroke-linecap:round;"/>
   </g>
   <g id="patch_4">
    <path clip-path="url(#pe07258984e)" d="M 92.873077 91.315385 
Q 209.7 91.315385 325.408889 91.315385 
" style="fill:none;stroke:#000000;stroke-linecap:round;"/>
    <path clip-path="url(#pe07258984e)" d="M 321.408889 89.315385 
L 325.408889 91.315385 
L 321.408889 93.315385 
L 321.408889 89.315385 
z
" style="stroke:#000000;stroke-linecap:round;"/>
   </g>
   <g id="text_1">
    <!-- $a$ -->
    <g transform="translate(74.116154 94.626635)scale(0.12 -0.12)">
     <defs>
      <path d="M 17.390625 -1.125 
Q 11.078125 -1.125 7.4375 3.640625 
Q 3.8125 8.40625 3.8125 14.890625 
Q 3.8125 21.296875 7.125 28.171875 
Q 10.453125 35.0625 16.09375 39.625 
Q 21.734375 44.1875 28.21875 44.1875 
Q 31.203125 44.1875 33.546875 42.578125 
Q 35.890625 40.96875 37.203125 38.1875 
Q 38.328125 42.1875 41.609375 42.1875 
Q 42.875 42.1875 43.71875 41.421875 
Q 44.578125 40.671875 44.578125 39.40625 
Q 44.578125 39.109375 44.546875 38.953125 
Q 44.53125 38.8125 44.484375 38.625 
L 37.5 10.6875 
Q 36.8125 7.71875 36.8125 5.8125 
Q 36.8125 1.515625 39.703125 1.515625 
Q 42.828125 1.515625 44.453125 5.484375 
Q 46.09375 9.46875 47.21875 14.703125 
Q 47.40625 15.28125 48 15.28125 
L 49.21875 15.28125 
Q 49.609375 15.28125 49.84375 14.9375 
Q 50.09375 14.59375 50.09375 14.3125 
Q 48.34375 7.328125 46.265625 3.09375 
Q 44.1875 -1.125 39.5 -1.125 
Q 36.140625 -1.125 33.546875 0.84375 
Q 30.953125 2.828125 30.328125 6.109375 
Q 23.875 -1.125 17.390625 -1.125 
z
M 17.484375 1.515625 
Q 21.09375 1.515625 24.484375 4.21875 
Q 27.875 6.9375 30.328125 10.59375 
Q 30.421875 10.6875 30.421875 10.890625 
L 35.796875 32.625 
L 35.890625 32.90625 
Q 35.296875 36.46875 33.3125 39.03125 
Q 31.34375 41.609375 27.984375 41.609375 
Q 24.609375 41.609375 21.703125 38.84375 
Q 18.796875 36.078125 16.796875 32.328125 
Q 14.84375 28.328125 13.0625 21.34375 
Q 11.28125 14.359375 11.28125 10.5 
Q 11.28125 7.03125 12.765625 4.265625 
Q 14.265625 1.515625 17.484375 1.515625 
z
" id="Cmmi10-97"/>
     </defs>
     <use transform="translate(0 0.8125)" xlink:href="#Cmmi10-97"/>
    </g>
   </g>
   <g id="text_2">
    <!-- $b$ -->
    <g transform="translate(74.716154 172.51125)scale(0.12 -0.12)">
     <defs>
      <path d="M 17.28125 -1.125 
Q 11.234375 -1.125 7.859375 3.609375 
Q 4.5 8.34375 4.5 14.703125 
Q 4.5 15.625 4.953125 18.328125 
Q 5.421875 21.046875 5.421875 21.6875 
L 15.09375 60.5 
Q 15.484375 62.203125 15.578125 63.1875 
Q 15.578125 64.796875 9.078125 64.796875 
Q 8.109375 64.796875 8.109375 66.109375 
Q 8.15625 66.359375 8.328125 66.984375 
Q 8.5 67.625 8.765625 67.96875 
Q 9.03125 68.3125 9.515625 68.3125 
L 23 69.390625 
Q 24.21875 69.390625 24.21875 68.109375 
L 16.796875 38.625 
Q 22.46875 44.1875 28.21875 44.1875 
Q 32.46875 44.1875 35.515625 41.9375 
Q 38.578125 39.703125 40.09375 36.03125 
Q 41.609375 32.375 41.609375 28.21875 
Q 41.609375 23.390625 39.71875 18.234375 
Q 37.84375 13.09375 34.515625 8.671875 
Q 31.203125 4.25 26.75 1.5625 
Q 22.3125 -1.125 17.28125 -1.125 
z
M 17.484375 1.515625 
Q 20.90625 1.515625 23.875 4.375 
Q 26.859375 7.234375 28.71875 10.796875 
Q 30.71875 14.796875 32.453125 21.65625 
Q 34.1875 28.515625 34.1875 32.625 
Q 34.1875 36.1875 32.6875 38.890625 
Q 31.203125 41.609375 27.984375 41.609375 
Q 24.359375 41.609375 21.0625 38.9375 
Q 17.78125 36.28125 15.28125 32.625 
L 12.5 21.296875 
Q 10.890625 14.984375 10.796875 11.1875 
Q 10.796875 7.421875 12.421875 4.46875 
Q 14.0625 1.515625 17.484375 1.515625 
z
" id="Cmmi10-98"/>
     </defs>
     <use transform="translate(0 0.609375)" xlink:href="#Cmmi10-98"/>
    </g>
   </g>
   <g id="text_3">
    <!-- $1$ -->
    <g transform="translate(323.526923 79.049712)scale(0.12 -0.12)">
     <defs>
      <path d="M 9.28125 0 
L 9.28125 3.515625 
Q 21.78125 3.515625 21.78125 6.6875 
L 21.78125 59.1875 
Q 16.609375 56.6875 8.6875 56.6875 
L 8.6875 60.203125 
Q 20.953125 60.203125 27.203125 66.609375 
L 28.609375 66.609375 
Q 28.953125 66.609375 29.265625 66.328125 
Q 29.59375 66.0625 29.59375 65.71875 
L 29.59375 6.6875 
Q 29.59375 3.515625 42.09375 3.515625 
L 42.09375 0 
z
" id="Cmr10-49"/>
     </defs>
     <use transform="translate(0 0.390625)" xlink:href="#Cmr10-49"/>
    </g>
   </g>
   <g id="text_4">
    <!-- $2$ -->
    <g transform="translate(323.526923 188.088173)scale(0.12 -0.12)">
     <defs>
      <path d="M 4.984375 0 
L 4.984375 2.6875 
Q 4.984375 2.9375 5.171875 3.21875 
L 20.703125 20.40625 
Q 24.21875 24.21875 26.40625 26.796875 
Q 28.609375 29.390625 30.75 32.765625 
Q 32.90625 36.140625 34.15625 39.625 
Q 35.40625 43.109375 35.40625 47.015625 
Q 35.40625 51.125 33.890625 54.859375 
Q 32.375 58.59375 29.375 60.84375 
Q 26.375 63.09375 22.125 63.09375 
Q 17.78125 63.09375 14.3125 60.46875 
Q 10.84375 57.859375 9.421875 53.71875 
Q 9.8125 53.8125 10.5 53.8125 
Q 12.75 53.8125 14.328125 52.296875 
Q 15.921875 50.78125 15.921875 48.390625 
Q 15.921875 46.09375 14.328125 44.5 
Q 12.75 42.921875 10.5 42.921875 
Q 8.15625 42.921875 6.5625 44.546875 
Q 4.984375 46.1875 4.984375 48.390625 
Q 4.984375 52.15625 6.390625 55.4375 
Q 7.8125 58.734375 10.46875 61.296875 
Q 13.140625 63.875 16.484375 65.234375 
Q 19.828125 66.609375 23.578125 66.609375 
Q 29.296875 66.609375 34.21875 64.1875 
Q 39.15625 61.765625 42.03125 57.34375 
Q 44.921875 52.9375 44.921875 47.015625 
Q 44.921875 42.671875 43.015625 38.765625 
Q 41.109375 34.859375 38.125 31.65625 
Q 35.15625 28.46875 30.515625 24.40625 
Q 25.875 20.359375 24.421875 19 
L 13.09375 8.109375 
L 22.703125 8.109375 
Q 29.78125 8.109375 34.546875 8.21875 
Q 39.3125 8.34375 39.59375 8.59375 
Q 40.765625 9.859375 42 17.828125 
L 44.921875 17.828125 
L 42.09375 0 
z
" id="Cmr10-50"/>
     </defs>
     <use transform="translate(0 0.390625)" xlink:href="#Cmr10-50"/>
    </g>
   </g>
   <g id="text_5">
    <!-- $3$ -->
    <g transform="translate(323.526923 265.972788)scale(0.12 -0.12)">
     <defs>
      <path d="M 9.515625 7.71875 
Q 11.859375 4.296875 15.8125 2.640625 
Q 19.78125 0.984375 24.3125 0.984375 
Q 30.125 0.984375 32.5625 5.9375 
Q 35.015625 10.890625 35.015625 17.1875 
Q 35.015625 20.015625 34.5 22.84375 
Q 33.984375 25.6875 32.765625 28.125 
Q 31.546875 30.5625 29.421875 32.03125 
Q 27.296875 33.5 24.21875 33.5 
L 17.578125 33.5 
Q 16.703125 33.5 16.703125 34.421875 
L 16.703125 35.296875 
Q 16.703125 36.078125 17.578125 36.078125 
L 23.09375 36.53125 
Q 26.609375 36.53125 28.921875 39.15625 
Q 31.25 41.796875 32.328125 45.578125 
Q 33.40625 49.359375 33.40625 52.78125 
Q 33.40625 57.5625 31.15625 60.640625 
Q 28.90625 63.71875 24.3125 63.71875 
Q 20.515625 63.71875 17.046875 62.28125 
Q 13.578125 60.84375 11.53125 57.90625 
Q 11.71875 57.953125 11.859375 57.984375 
Q 12.015625 58.015625 12.203125 58.015625 
Q 14.453125 58.015625 15.96875 56.453125 
Q 17.484375 54.890625 17.484375 52.6875 
Q 17.484375 50.53125 15.96875 48.96875 
Q 14.453125 47.40625 12.203125 47.40625 
Q 10.015625 47.40625 8.453125 48.96875 
Q 6.890625 50.53125 6.890625 52.6875 
Q 6.890625 56.984375 9.46875 60.15625 
Q 12.0625 63.328125 16.140625 64.96875 
Q 20.21875 66.609375 24.3125 66.609375 
Q 27.34375 66.609375 30.703125 65.703125 
Q 34.078125 64.796875 36.8125 63.109375 
Q 39.546875 61.421875 41.28125 58.78125 
Q 43.015625 56.15625 43.015625 52.78125 
Q 43.015625 48.578125 41.140625 45.015625 
Q 39.265625 41.453125 35.984375 38.859375 
Q 32.71875 36.28125 28.8125 35.015625 
Q 33.15625 34.1875 37.0625 31.734375 
Q 40.96875 29.296875 43.328125 25.484375 
Q 45.703125 21.6875 45.703125 17.28125 
Q 45.703125 11.765625 42.671875 7.296875 
Q 39.65625 2.828125 34.71875 0.3125 
Q 29.78125 -2.203125 24.3125 -2.203125 
Q 19.625 -2.203125 14.90625 -0.40625 
Q 10.203125 1.375 7.203125 4.9375 
Q 4.203125 8.5 4.203125 13.484375 
Q 4.203125 15.96875 5.859375 17.625 
Q 7.515625 19.28125 10.015625 19.28125 
Q 11.625 19.28125 12.96875 18.53125 
Q 14.3125 17.78125 15.0625 16.40625 
Q 15.828125 15.046875 15.828125 13.484375 
Q 15.828125 11.03125 14.109375 9.375 
Q 12.40625 7.71875 10.015625 7.71875 
z
" id="Cmr10-51"/>
     </defs>
     <use transform="translate(0 0.390625)" xlink:href="#Cmr10-51"/>
    </g>
   </g>
   <g id="patch_5">
    <path clip-path="url(#pe07258984e)" d="M 92.873077 324.969231 
C 113.528318 324.969231 133.340355 308.556402 147.945817 279.345479 
C 162.551278 250.134557 170.757692 210.510483 170.757692 169.2 
C 170.757692 127.889517 162.551278 88.265443 147.945817 59.054521 
C 133.340355 29.843598 113.528318 13.430769 92.873077 13.430769 
C 72.217835 13.430769 52.405799 29.843598 37.800337 59.054521 
C 23.194876 88.265443 14.988462 127.889517 14.988462 169.2 
C 14.988462 210.510483 23.194876 250.134557 37.800337 279.345479 
C 52.405799 308.556402 72.217835 324.969231 92.873077 324.969231 
z
" style="fill:none;stroke:#000000;stroke-linejoin:miter;"/>
   </g>
   <g id="patch_6">
    <path clip-path="url(#pe07258984e)" d="M 326.526923 324.969231 
C 347.182165 324.969231 366.994201 308.556402 381.599663 279.345479 
C 396.205124 250.134557 404.411538 210.510483 404.411538 169.2 
C 404.411538 127.889517 396.205124 88.265443 381.599663 59.054521 
C 366.994201 29.843598 347.182165 13.430769 326.526923 13.430769 
C 305.871682 13.430769 286.059645 29.843598 271.454183 59.054521 
C 256.848722 88.265443 248.642308 127.889517 248.642308 169.2 
C 248.642308 210.510483 256.848722 250.134557 271.454183 279.345479 
C 286.059645 308.556402 305.871682 324.969231 326.526923 324.969231 
z
" style="fill:none;stroke:#000000;stroke-linejoin:miter;"/>
   </g>
  </g>
 </g>
 <defs>
  <clipPath id="pe07258984e">
   <rect height="324" width="405" x="7.2" y="7.2"/>
  </clipPath>
 </defs>
</svg>
