<?xml version="1.0" encoding="utf-8" standalone="no"?>
<!DOCTYPE svg PUBLIC "-//W3C//DTD SVG 1.1//EN"
  "http://www.w3.org/Graphics/SVG/1.1/DTD/svg11.dtd">
<svg xmlns:xlink="http://www.w3.org/1999/xlink" width="453.6pt" height="337.728375pt" viewBox="0 0 453.6 337.728375" xmlns="http://www.w3.org/2000/svg" version="1.1">
 <metadata>
  <rdf:RDF xmlns:dc="http://purl.org/dc/elements/1.1/" xmlns:cc="http://creativecommons.org/ns#" xmlns:rdf="http://www.w3.org/1999/02/22-rdf-syntax-ns#">
   <cc:Work>
    <dc:type rdf:resource="http://purl.org/dc/dcmitype/StillImage"/>
    <dc:date>2024-12-01T17:05:33.607651</dc:date>
    <dc:format>image/svg+xml</dc:format>
    <dc:creator>
     <cc:Agent>
      <dc:title>Matplotlib v3.6.3, https://matplotlib.org/</dc:title>
     </cc:Agent>
    </dc:creator>
   </cc:Work>
  </rdf:RDF>
 </metadata>
 <defs>
  <style type="text/css">*{stroke-linejoin: round; stroke-linecap: butt}</style>
 </defs>
 <g id="figure_1">
  <g id="patch_1">
   <path d="M 0 337.728375 
L 453.6 337.728375 
L 453.6 0 
L 0 0 
z
" style="fill: #ffffff"/>
  </g>
  <g id="axes_1">
   <g id="patch_2">
    <path d="M 7.2 325.517404 
L 446.4 325.517404 
L 446.4 10.140312 
L 7.2 10.140312 
z
" style="fill: #ffffff"/>
   </g>
   <g id="matplotlib.axis_1">
    <g id="xtick_1">
     <g id="line2d_1">
      <defs>
       <path id="m94ad7e72e1" d="M 0 0 
L 0 3.5 
" style="stroke: #000000; stroke-width: 0.8"/>
      </defs>
      <g>
       <use xlink:href="#m94ad7e72e1" x="25.16293" y="167.824344" style="stroke: #000000; stroke-width: 0.8"/>
      </g>
     </g>
     <g id="text_1">
      <!-- −3 -->
      <g transform="translate(17.791836 182.422781) scale(0.1 -0.1)">
       <defs>
        <path id="DejaVuSans-2212" d="M 678 2272 
L 4684 2272 
L 4684 1741 
L 678 1741 
L 678 2272 
z
" transform="scale(0.015625)"/>
        <path id="DejaVuSans-33" d="M 2597 2516 
Q 3050 2419 3304 2112 
Q 3559 1806 3559 1356 
Q 3559 666 3084 287 
Q 2609 -91 1734 -91 
Q 1441 -91 1130 -33 
Q 819 25 488 141 
L 488 750 
Q 750 597 1062 519 
Q 1375 441 1716 441 
Q 2309 441 2620 675 
Q 2931 909 2931 1356 
Q 2931 1769 2642 2001 
Q 2353 2234 1838 2234 
L 1294 2234 
L 1294 2753 
L 1863 2753 
Q 2328 2753 2575 2939 
Q 2822 3125 2822 3475 
Q 2822 3834 2567 4026 
Q 2313 4219 1838 4219 
Q 1578 4219 1281 4162 
Q 984 4106 628 3988 
L 628 4550 
Q 988 4650 1302 4700 
Q 1616 4750 1894 4750 
Q 2613 4750 3031 4423 
Q 3450 4097 3450 3541 
Q 3450 3153 3228 2886 
Q 3006 2619 2597 2516 
z
" transform="scale(0.015625)"/>
       </defs>
       <use xlink:href="#DejaVuSans-2212"/>
       <use xlink:href="#DejaVuSans-33" x="83.789062"/>
      </g>
     </g>
    </g>
    <g id="xtick_2">
     <g id="line2d_2">
      <g>
       <use xlink:href="#m94ad7e72e1" x="92.375287" y="167.824344" style="stroke: #000000; stroke-width: 0.8"/>
      </g>
     </g>
     <g id="text_2">
      <!-- −2 -->
      <g transform="translate(85.004193 182.422781) scale(0.1 -0.1)">
       <defs>
        <path id="DejaVuSans-32" d="M 1228 531 
L 3431 531 
L 3431 0 
L 469 0 
L 469 531 
Q 828 903 1448 1529 
Q 2069 2156 2228 2338 
Q 2531 2678 2651 2914 
Q 2772 3150 2772 3378 
Q 2772 3750 2511 3984 
Q 2250 4219 1831 4219 
Q 1534 4219 1204 4116 
Q 875 4013 500 3803 
L 500 4441 
Q 881 4594 1212 4672 
Q 1544 4750 1819 4750 
Q 2544 4750 2975 4387 
Q 3406 4025 3406 3419 
Q 3406 3131 3298 2873 
Q 3191 2616 2906 2266 
Q 2828 2175 2409 1742 
Q 1991 1309 1228 531 
z
" transform="scale(0.015625)"/>
       </defs>
       <use xlink:href="#DejaVuSans-2212"/>
       <use xlink:href="#DejaVuSans-32" x="83.789062"/>
      </g>
     </g>
    </g>
    <g id="xtick_3">
     <g id="line2d_3">
      <g>
       <use xlink:href="#m94ad7e72e1" x="159.587643" y="167.824344" style="stroke: #000000; stroke-width: 0.8"/>
      </g>
     </g>
     <g id="text_3">
      <!-- −1 -->
      <g transform="translate(152.21655 182.422781) scale(0.1 -0.1)">
       <defs>
        <path id="DejaVuSans-31" d="M 794 531 
L 1825 531 
L 1825 4091 
L 703 3866 
L 703 4441 
L 1819 4666 
L 2450 4666 
L 2450 531 
L 3481 531 
L 3481 0 
L 794 0 
L 794 531 
z
" transform="scale(0.015625)"/>
       </defs>
       <use xlink:href="#DejaVuSans-2212"/>
       <use xlink:href="#DejaVuSans-31" x="83.789062"/>
      </g>
     </g>
    </g>
    <g id="xtick_4">
     <g id="line2d_4">
      <g>
       <use xlink:href="#m94ad7e72e1" x="226.8" y="167.824344" style="stroke: #000000; stroke-width: 0.8"/>
      </g>
     </g>
    </g>
    <g id="xtick_5">
     <g id="line2d_5">
      <g>
       <use xlink:href="#m94ad7e72e1" x="294.012357" y="167.824344" style="stroke: #000000; stroke-width: 0.8"/>
      </g>
     </g>
     <g id="text_4">
      <!-- 1 -->
      <g transform="translate(290.831107 182.422781) scale(0.1 -0.1)">
       <use xlink:href="#DejaVuSans-31"/>
      </g>
     </g>
    </g>
    <g id="xtick_6">
     <g id="line2d_6">
      <g>
       <use xlink:href="#m94ad7e72e1" x="361.224713" y="167.824344" style="stroke: #000000; stroke-width: 0.8"/>
      </g>
     </g>
     <g id="text_5">
      <!-- 2 -->
      <g transform="translate(358.043463 182.422781) scale(0.1 -0.1)">
       <use xlink:href="#DejaVuSans-32"/>
      </g>
     </g>
    </g>
    <g id="xtick_7">
     <g id="line2d_7">
      <g>
       <use xlink:href="#m94ad7e72e1" x="428.43707" y="167.824344" style="stroke: #000000; stroke-width: 0.8"/>
      </g>
     </g>
     <g id="text_6">
      <!-- 3 -->
      <g transform="translate(425.25582 182.422781) scale(0.1 -0.1)">
       <use xlink:href="#DejaVuSans-33"/>
      </g>
     </g>
    </g>
    <g id="xtick_8">
     <g id="line2d_8">
      <defs>
       <path id="m93c054711a" d="M 0 0 
L 0 2 
" style="stroke: #000000; stroke-width: 0.6"/>
      </defs>
      <g>
       <use xlink:href="#m93c054711a" x="11.720458" y="167.824344" style="stroke: #000000; stroke-width: 0.6"/>
      </g>
     </g>
    </g>
    <g id="xtick_9">
     <g id="line2d_9">
      <g>
       <use xlink:href="#m93c054711a" x="38.605401" y="167.824344" style="stroke: #000000; stroke-width: 0.6"/>
      </g>
     </g>
    </g>
    <g id="xtick_10">
     <g id="line2d_10">
      <g>
       <use xlink:href="#m93c054711a" x="52.047872" y="167.824344" style="stroke: #000000; stroke-width: 0.6"/>
      </g>
     </g>
    </g>
    <g id="xtick_11">
     <g id="line2d_11">
      <g>
       <use xlink:href="#m93c054711a" x="65.490344" y="167.824344" style="stroke: #000000; stroke-width: 0.6"/>
      </g>
     </g>
    </g>
    <g id="xtick_12">
     <g id="line2d_12">
      <g>
       <use xlink:href="#m93c054711a" x="78.932815" y="167.824344" style="stroke: #000000; stroke-width: 0.6"/>
      </g>
     </g>
    </g>
    <g id="xtick_13">
     <g id="line2d_13">
      <g>
       <use xlink:href="#m93c054711a" x="105.817758" y="167.824344" style="stroke: #000000; stroke-width: 0.6"/>
      </g>
     </g>
    </g>
    <g id="xtick_14">
     <g id="line2d_14">
      <g>
       <use xlink:href="#m93c054711a" x="119.260229" y="167.824344" style="stroke: #000000; stroke-width: 0.6"/>
      </g>
     </g>
    </g>
    <g id="xtick_15">
     <g id="line2d_15">
      <g>
       <use xlink:href="#m93c054711a" x="132.702701" y="167.824344" style="stroke: #000000; stroke-width: 0.6"/>
      </g>
     </g>
    </g>
    <g id="xtick_16">
     <g id="line2d_16">
      <g>
       <use xlink:href="#m93c054711a" x="146.145172" y="167.824344" style="stroke: #000000; stroke-width: 0.6"/>
      </g>
     </g>
    </g>
    <g id="xtick_17">
     <g id="line2d_17">
      <g>
       <use xlink:href="#m93c054711a" x="173.030115" y="167.824344" style="stroke: #000000; stroke-width: 0.6"/>
      </g>
     </g>
    </g>
    <g id="xtick_18">
     <g id="line2d_18">
      <g>
       <use xlink:href="#m93c054711a" x="186.472586" y="167.824344" style="stroke: #000000; stroke-width: 0.6"/>
      </g>
     </g>
    </g>
    <g id="xtick_19">
     <g id="line2d_19">
      <g>
       <use xlink:href="#m93c054711a" x="199.915057" y="167.824344" style="stroke: #000000; stroke-width: 0.6"/>
      </g>
     </g>
    </g>
    <g id="xtick_20">
     <g id="line2d_20">
      <g>
       <use xlink:href="#m93c054711a" x="213.357529" y="167.824344" style="stroke: #000000; stroke-width: 0.6"/>
      </g>
     </g>
    </g>
    <g id="xtick_21">
     <g id="line2d_21">
      <g>
       <use xlink:href="#m93c054711a" x="240.242471" y="167.824344" style="stroke: #000000; stroke-width: 0.6"/>
      </g>
     </g>
    </g>
    <g id="xtick_22">
     <g id="line2d_22">
      <g>
       <use xlink:href="#m93c054711a" x="253.684943" y="167.824344" style="stroke: #000000; stroke-width: 0.6"/>
      </g>
     </g>
    </g>
    <g id="xtick_23">
     <g id="line2d_23">
      <g>
       <use xlink:href="#m93c054711a" x="267.127414" y="167.824344" style="stroke: #000000; stroke-width: 0.6"/>
      </g>
     </g>
    </g>
    <g id="xtick_24">
     <g id="line2d_24">
      <g>
       <use xlink:href="#m93c054711a" x="280.569885" y="167.824344" style="stroke: #000000; stroke-width: 0.6"/>
      </g>
     </g>
    </g>
    <g id="xtick_25">
     <g id="line2d_25">
      <g>
       <use xlink:href="#m93c054711a" x="307.454828" y="167.824344" style="stroke: #000000; stroke-width: 0.6"/>
      </g>
     </g>
    </g>
    <g id="xtick_26">
     <g id="line2d_26">
      <g>
       <use xlink:href="#m93c054711a" x="320.897299" y="167.824344" style="stroke: #000000; stroke-width: 0.6"/>
      </g>
     </g>
    </g>
    <g id="xtick_27">
     <g id="line2d_27">
      <g>
       <use xlink:href="#m93c054711a" x="334.339771" y="167.824344" style="stroke: #000000; stroke-width: 0.6"/>
      </g>
     </g>
    </g>
    <g id="xtick_28">
     <g id="line2d_28">
      <g>
       <use xlink:href="#m93c054711a" x="347.782242" y="167.824344" style="stroke: #000000; stroke-width: 0.6"/>
      </g>
     </g>
    </g>
    <g id="xtick_29">
     <g id="line2d_29">
      <g>
       <use xlink:href="#m93c054711a" x="374.667185" y="167.824344" style="stroke: #000000; stroke-width: 0.6"/>
      </g>
     </g>
    </g>
    <g id="xtick_30">
     <g id="line2d_30">
      <g>
       <use xlink:href="#m93c054711a" x="388.109656" y="167.824344" style="stroke: #000000; stroke-width: 0.6"/>
      </g>
     </g>
    </g>
    <g id="xtick_31">
     <g id="line2d_31">
      <g>
       <use xlink:href="#m93c054711a" x="401.552128" y="167.824344" style="stroke: #000000; stroke-width: 0.6"/>
      </g>
     </g>
    </g>
    <g id="xtick_32">
     <g id="line2d_32">
      <g>
       <use xlink:href="#m93c054711a" x="414.994599" y="167.824344" style="stroke: #000000; stroke-width: 0.6"/>
      </g>
     </g>
    </g>
    <g id="xtick_33">
     <g id="line2d_33">
      <g>
       <use xlink:href="#m93c054711a" x="441.879542" y="167.824344" style="stroke: #000000; stroke-width: 0.6"/>
      </g>
     </g>
    </g>
   </g>
   <g id="matplotlib.axis_2">
    <g id="ytick_1">
     <g id="line2d_34">
      <defs>
       <path id="m408423b3da" d="M 0 0 
L -3.5 0 
" style="stroke: #000000; stroke-width: 0.8"/>
      </defs>
      <g>
       <use xlink:href="#m408423b3da" x="226.8" y="324.649469" style="stroke: #000000; stroke-width: 0.8"/>
      </g>
     </g>
     <g id="text_7">
      <!-- −1.0 -->
      <g transform="translate(195.517187 328.448687) scale(0.1 -0.1)">
       <defs>
        <path id="DejaVuSans-2e" d="M 684 794 
L 1344 794 
L 1344 0 
L 684 0 
L 684 794 
z
" transform="scale(0.015625)"/>
        <path id="DejaVuSans-30" d="M 2034 4250 
Q 1547 4250 1301 3770 
Q 1056 3291 1056 2328 
Q 1056 1369 1301 889 
Q 1547 409 2034 409 
Q 2525 409 2770 889 
Q 3016 1369 3016 2328 
Q 3016 3291 2770 3770 
Q 2525 4250 2034 4250 
z
M 2034 4750 
Q 2819 4750 3233 4129 
Q 3647 3509 3647 2328 
Q 3647 1150 3233 529 
Q 2819 -91 2034 -91 
Q 1250 -91 836 529 
Q 422 1150 422 2328 
Q 422 3509 836 4129 
Q 1250 4750 2034 4750 
z
" transform="scale(0.015625)"/>
       </defs>
       <use xlink:href="#DejaVuSans-2212"/>
       <use xlink:href="#DejaVuSans-31" x="83.789062"/>
       <use xlink:href="#DejaVuSans-2e" x="147.412109"/>
       <use xlink:href="#DejaVuSans-30" x="179.199219"/>
      </g>
     </g>
    </g>
    <g id="ytick_2">
     <g id="line2d_35">
      <g>
       <use xlink:href="#m408423b3da" x="226.8" y="246.236906" style="stroke: #000000; stroke-width: 0.8"/>
      </g>
     </g>
     <g id="text_8">
      <!-- −0.5 -->
      <g transform="translate(195.517187 250.036125) scale(0.1 -0.1)">
       <defs>
        <path id="DejaVuSans-35" d="M 691 4666 
L 3169 4666 
L 3169 4134 
L 1269 4134 
L 1269 2991 
Q 1406 3038 1543 3061 
Q 1681 3084 1819 3084 
Q 2600 3084 3056 2656 
Q 3513 2228 3513 1497 
Q 3513 744 3044 326 
Q 2575 -91 1722 -91 
Q 1428 -91 1123 -41 
Q 819 9 494 109 
L 494 744 
Q 775 591 1075 516 
Q 1375 441 1709 441 
Q 2250 441 2565 725 
Q 2881 1009 2881 1497 
Q 2881 1984 2565 2268 
Q 2250 2553 1709 2553 
Q 1456 2553 1204 2497 
Q 953 2441 691 2322 
L 691 4666 
z
" transform="scale(0.015625)"/>
       </defs>
       <use xlink:href="#DejaVuSans-2212"/>
       <use xlink:href="#DejaVuSans-30" x="83.789062"/>
       <use xlink:href="#DejaVuSans-2e" x="147.412109"/>
       <use xlink:href="#DejaVuSans-35" x="179.199219"/>
      </g>
     </g>
    </g>
    <g id="ytick_3">
     <g id="line2d_36">
      <g>
       <use xlink:href="#m408423b3da" x="226.8" y="167.824344" style="stroke: #000000; stroke-width: 0.8"/>
      </g>
     </g>
    </g>
    <g id="ytick_4">
     <g id="line2d_37">
      <g>
       <use xlink:href="#m408423b3da" x="226.8" y="89.411781" style="stroke: #000000; stroke-width: 0.8"/>
      </g>
     </g>
     <g id="text_9">
      <!-- 0.5 -->
      <g transform="translate(203.896875 93.211) scale(0.1 -0.1)">
       <use xlink:href="#DejaVuSans-30"/>
       <use xlink:href="#DejaVuSans-2e" x="63.623047"/>
       <use xlink:href="#DejaVuSans-35" x="95.410156"/>
      </g>
     </g>
    </g>
    <g id="ytick_5">
     <g id="line2d_38">
      <g>
       <use xlink:href="#m408423b3da" x="226.8" y="10.999219" style="stroke: #000000; stroke-width: 0.8"/>
      </g>
     </g>
     <g id="text_10">
      <!-- 1.0 -->
      <g transform="translate(203.896875 14.798438) scale(0.1 -0.1)">
       <use xlink:href="#DejaVuSans-31"/>
       <use xlink:href="#DejaVuSans-2e" x="63.623047"/>
       <use xlink:href="#DejaVuSans-30" x="95.410156"/>
      </g>
     </g>
    </g>
    <g id="ytick_6">
     <g id="line2d_39">
      <defs>
       <path id="ma4d047ded7" d="M 0 0 
L -2 0 
" style="stroke: #000000; stroke-width: 0.6"/>
      </defs>
      <g>
       <use xlink:href="#ma4d047ded7" x="226.8" y="308.966956" style="stroke: #000000; stroke-width: 0.6"/>
      </g>
     </g>
    </g>
    <g id="ytick_7">
     <g id="line2d_40">
      <g>
       <use xlink:href="#ma4d047ded7" x="226.8" y="293.284444" style="stroke: #000000; stroke-width: 0.6"/>
      </g>
     </g>
    </g>
    <g id="ytick_8">
     <g id="line2d_41">
      <g>
       <use xlink:href="#ma4d047ded7" x="226.8" y="277.601931" style="stroke: #000000; stroke-width: 0.6"/>
      </g>
     </g>
    </g>
    <g id="ytick_9">
     <g id="line2d_42">
      <g>
       <use xlink:href="#ma4d047ded7" x="226.8" y="261.919419" style="stroke: #000000; stroke-width: 0.6"/>
      </g>
     </g>
    </g>
    <g id="ytick_10">
     <g id="line2d_43">
      <g>
       <use xlink:href="#ma4d047ded7" x="226.8" y="230.554394" style="stroke: #000000; stroke-width: 0.6"/>
      </g>
     </g>
    </g>
    <g id="ytick_11">
     <g id="line2d_44">
      <g>
       <use xlink:href="#ma4d047ded7" x="226.8" y="214.871881" style="stroke: #000000; stroke-width: 0.6"/>
      </g>
     </g>
    </g>
    <g id="ytick_12">
     <g id="line2d_45">
      <g>
       <use xlink:href="#ma4d047ded7" x="226.8" y="199.189369" style="stroke: #000000; stroke-width: 0.6"/>
      </g>
     </g>
    </g>
    <g id="ytick_13">
     <g id="line2d_46">
      <g>
       <use xlink:href="#ma4d047ded7" x="226.8" y="183.506856" style="stroke: #000000; stroke-width: 0.6"/>
      </g>
     </g>
    </g>
    <g id="ytick_14">
     <g id="line2d_47">
      <g>
       <use xlink:href="#ma4d047ded7" x="226.8" y="152.141831" style="stroke: #000000; stroke-width: 0.6"/>
      </g>
     </g>
    </g>
    <g id="ytick_15">
     <g id="line2d_48">
      <g>
       <use xlink:href="#ma4d047ded7" x="226.8" y="136.459319" style="stroke: #000000; stroke-width: 0.6"/>
      </g>
     </g>
    </g>
    <g id="ytick_16">
     <g id="line2d_49">
      <g>
       <use xlink:href="#ma4d047ded7" x="226.8" y="120.776806" style="stroke: #000000; stroke-width: 0.6"/>
      </g>
     </g>
    </g>
    <g id="ytick_17">
     <g id="line2d_50">
      <g>
       <use xlink:href="#ma4d047ded7" x="226.8" y="105.094294" style="stroke: #000000; stroke-width: 0.6"/>
      </g>
     </g>
    </g>
    <g id="ytick_18">
     <g id="line2d_51">
      <g>
       <use xlink:href="#ma4d047ded7" x="226.8" y="73.729269" style="stroke: #000000; stroke-width: 0.6"/>
      </g>
     </g>
    </g>
    <g id="ytick_19">
     <g id="line2d_52">
      <g>
       <use xlink:href="#ma4d047ded7" x="226.8" y="58.046756" style="stroke: #000000; stroke-width: 0.6"/>
      </g>
     </g>
    </g>
    <g id="ytick_20">
     <g id="line2d_53">
      <g>
       <use xlink:href="#ma4d047ded7" x="226.8" y="42.364244" style="stroke: #000000; stroke-width: 0.6"/>
      </g>
     </g>
    </g>
    <g id="ytick_21">
     <g id="line2d_54">
      <g>
       <use xlink:href="#ma4d047ded7" x="226.8" y="26.681731" style="stroke: #000000; stroke-width: 0.6"/>
      </g>
     </g>
    </g>
   </g>
   <g id="line2d_55">
    <path d="M 15.646154 167.824344 
L 17.404909 167.985246 
L 19.469841 168.581882 
L 20.982067 169.292589 
L 22.31767 170.107008 
L 23.653274 171.090367 
L 25.062902 172.303455 
L 26.47253 173.686664 
L 28.13201 175.51746 
L 29.710106 177.443207 
L 31.6769 180.06414 
L 34.918587 184.808533 
L 47.277178 203.925792 
L 50.141486 207.60846 
L 52.313409 209.981773 
L 53.756469 211.320565 
L 55.338311 212.543401 
L 56.920154 213.487529 
L 58.742131 214.20146 
L 59.2917 214.333996 
L 60.804625 214.491407 
L 62.317551 214.333424 
L 63.801404 213.860237 
L 65.571003 212.870604 
L 66.615337 212.064673 
L 67.659672 211.091677 
L 68.704006 209.950343 
L 70.562228 207.501393 
L 71.376115 206.260224 
L 72.752156 203.929561 
L 75.17802 199.120295 
L 77.19313 194.465231 
L 79.542588 188.319044 
L 82.364757 179.989852 
L 85.268934 170.46398 
L 88.820789 157.736718 
L 93.630314 139.221949 
L 102.833401 103.252089 
L 105.893728 92.228968 
L 109.415507 80.757069 
L 111.736673 74.105645 
L 114.134548 68.137785 
L 116.260827 63.7075 
L 118.290216 60.305746 
L 119.212927 59.042148 
L 120.228283 57.864392 
L 121.243639 56.91532 
L 122.456858 56.088767 
L 123.670076 55.604784 
L 124.859673 55.469748 
L 126.04927 55.67656 
L 127.037081 56.111325 
L 128.024893 56.786868 
L 129.388924 58.117977 
L 130.635538 59.739915 
L 131.882151 61.748958 
L 133.593291 65.133813 
L 134.823405 68.011118 
L 136.715624 73.149402 
L 138.701938 79.447585 
L 140.383473 85.47626 
L 142.402914 93.51929 
L 144.749761 103.894621 
L 147.347105 116.544036 
L 150.264161 132.01316 
L 152.668874 145.591055 
L 157.253326 172.920969 
L 166.924887 231.803439 
L 169.746 247.92782 
L 172.37177 262.023817 
L 175.375698 276.770163 
L 177.398919 285.718641 
L 179.626434 294.530274 
L 181.887997 302.252798 
L 183.169481 306.042787 
L 184.663146 309.898166 
L 186.421366 313.631539 
L 187.300476 315.16228 
L 188.804923 317.249687 
L 190.055597 318.464832 
L 191.274339 319.187904 
L 191.867743 319.373811 
L 192.562563 319.45246 
L 193.257383 319.380694 
L 194.435897 318.914272 
L 195.614412 318.013939 
L 196.458449 317.102963 
L 197.302487 315.970697 
L 198.146525 314.618297 
L 198.990563 313.047283 
L 200.134145 310.573367 
L 202.064315 305.511905 
L 203.88231 299.754799 
L 205.308152 294.59184 
L 206.733994 288.882036 
L 208.978909 278.841409 
L 211.038074 268.579793 
L 213.672361 254.133721 
L 216.685112 236.052402 
L 219.162278 220.172968 
L 224.335181 185.039989 
L 233.866106 119.24591 
L 237.56196 95.588323 
L 239.887816 81.743756 
L 242.826897 65.695235 
L 245.463574 52.89344 
L 247.115859 45.727593 
L 249.171506 37.805614 
L 251.099375 31.432223 
L 253.014094 26.161023 
L 253.989036 23.894487 
L 255.823356 20.410722 
L 257.374371 18.272297 
L 258.757645 16.995933 
L 260.053705 16.342186 
L 260.658129 16.216739 
L 261.262553 16.205257 
L 261.866977 16.307499 
L 262.511802 16.541575 
L 263.156626 16.904177 
L 264.247733 17.808605 
L 265.33884 19.075218 
L 266.420959 20.684316 
L 267.503078 22.639178 
L 269.275002 26.56921 
L 271.046926 31.374397 
L 272.668548 36.505002 
L 273.983872 41.156508 
L 275.758356 48.088533 
L 278.183319 58.688938 
L 280.48662 69.835905 
L 283.887716 87.908125 
L 287.408482 108.167647 
L 291.763256 134.548546 
L 299.634386 182.486965 
L 303.710282 205.687533 
L 307.3239 224.459657 
L 309.585906 235.119811 
L 312.080136 245.751113 
L 314.144028 253.575008 
L 315.704401 258.867393 
L 317.264773 263.600695 
L 318.629824 267.269714 
L 320.694754 271.962766 
L 321.765946 273.984409 
L 323.677717 276.884191 
L 324.518295 277.870926 
L 325.358873 278.68167 
L 326.612183 279.564736 
L 327.509165 279.958663 
L 328.406148 280.155584 
L 329.303131 280.157343 
L 330.200114 279.966154 
L 331.25912 279.495592 
L 332.318127 278.764564 
L 333.889705 277.211667 
L 335.60083 274.906987 
L 337.329674 271.959041 
L 338.505029 269.617361 
L 339.680384 267.016509 
L 342.186551 260.665769 
L 343.849807 255.899364 
L 346.388292 247.886431 
L 349.239786 237.998467 
L 353.255367 222.925001 
L 364.794356 177.855628 
L 368.659675 164.063111 
L 371.231228 155.671368 
L 373.795179 148.061493 
L 376.149706 141.819258 
L 378.360219 136.662303 
L 380.520027 132.317129 
L 381.509542 130.562082 
L 383.818591 127.052989 
L 384.676925 125.959197 
L 386.018879 124.477982 
L 387.360833 123.27455 
L 389.228516 122.056154 
L 390.713989 121.458724 
L 392.199463 121.18113 
L 393.166819 121.167234 
L 394.24853 121.30266 
L 395.330242 121.592336 
L 396.511747 122.078122 
L 397.693251 122.732759 
L 399.058327 123.687719 
L 401.526842 125.909115 
L 403.498104 128.087131 
L 406.291783 131.680136 
L 410.483973 137.871407 
L 420.635794 153.755442 
L 423.500823 157.705359 
L 424.262487 158.675327 
L 426.297627 161.072736 
L 428.962231 163.729492 
L 431.294215 165.549682 
L 432.97508 166.544455 
L 434.655945 167.260095 
L 435.605613 167.537746 
L 436.77973 167.752593 
L 437.953846 167.824344 
L 437.953846 167.824344 
" clip-path="url(#p5dff1647e2)" style="fill: none; stroke: #000000; stroke-linecap: square"/>
   </g>
   <g id="patch_3">
    <path d="M 226.8 325.517404 
L 226.8 10.140312 
" style="fill: none; stroke: #000000; stroke-width: 0.8; stroke-linejoin: miter; stroke-linecap: square"/>
   </g>
   <g id="patch_4">
    <path d="M 7.2 167.824344 
L 446.4 167.824344 
" style="fill: none; stroke: #000000; stroke-width: 0.8; stroke-linejoin: miter; stroke-linecap: square"/>
   </g>
  </g>
 </g>
 <defs>
  <clipPath id="p5dff1647e2">
   <rect x="7.2" y="10.140312" width="439.2" height="315.377091"/>
  </clipPath>
 </defs>
</svg>
