<?xml version="1.0" encoding="utf-8" standalone="no"?>
<!DOCTYPE svg PUBLIC "-//W3C//DTD SVG 1.1//EN"
  "http://www.w3.org/Graphics/SVG/1.1/DTD/svg11.dtd">
<!-- Created with matplotlib (https://matplotlib.org/) -->
<svg height="338.4pt" version="1.1" viewBox="0 0 401.265672 338.4" width="401.265672pt" xmlns="http://www.w3.org/2000/svg" xmlns:xlink="http://www.w3.org/1999/xlink">
 <metadata>
  <rdf:RDF xmlns:cc="http://creativecommons.org/ns#" xmlns:dc="http://purl.org/dc/elements/1.1/" xmlns:rdf="http://www.w3.org/1999/02/22-rdf-syntax-ns#">
   <cc:Work>
    <dc:type rdf:resource="http://purl.org/dc/dcmitype/StillImage"/>
    <dc:date>2024-11-18T20:48:13.210827</dc:date>
    <dc:format>image/svg+xml</dc:format>
    <dc:creator>
     <cc:Agent>
      <dc:title>Matplotlib v3.3.4, https://matplotlib.org/</dc:title>
     </cc:Agent>
    </dc:creator>
   </cc:Work>
  </rdf:RDF>
 </metadata>
 <defs>
  <style type="text/css">*{stroke-linecap:butt;stroke-linejoin:round;}</style>
 </defs>
 <g id="figure_1">
  <g id="patch_1">
   <path d="M -0 338.4 
L 401.265672 338.4 
L 401.265672 0 
L -0 0 
z
" style="fill:#ffffff;"/>
  </g>
  <g id="axes_1">
   <g id="patch_2">
    <path d="M 7.2 331.2 
L 394.065672 331.2 
L 394.065672 7.2 
L 7.2 7.2 
z
" style="fill:#ffffff;"/>
   </g>
   <g id="PathCollection_1">
    <path clip-path="url(#p99d4d8a1a7)" d="M 61.138002 94.71391 
C 61.731014 94.71391 62.299818 94.478303 62.719141 94.05898 
C 63.138464 93.639657 63.37407 93.070854 63.37407 92.477842 
C 63.37407 91.884829 63.138464 91.316026 62.719141 90.896703 
C 62.299818 90.47738 61.731014 90.241774 61.138002 90.241774 
C 60.54499 90.241774 59.976186 90.47738 59.556863 90.896703 
C 59.137541 91.316026 58.901934 91.884829 58.901934 92.477842 
C 58.901934 93.070854 59.137541 93.639657 59.556863 94.05898 
C 59.976186 94.478303 60.54499 94.71391 61.138002 94.71391 
z
"/>
   </g>
   <g id="PathCollection_2">
    <path clip-path="url(#p99d4d8a1a7)" d="M 61.138002 141.212187 
C 61.731014 141.212187 62.299818 140.976581 62.719141 140.557258 
C 63.138464 140.137935 63.37407 139.569132 63.37407 138.976119 
C 63.37407 138.383107 63.138464 137.814303 62.719141 137.394981 
C 62.299818 136.975658 61.731014 136.740051 61.138002 136.740051 
C 60.54499 136.740051 59.976186 136.975658 59.556863 137.394981 
C 59.137541 137.814303 58.901934 138.383107 58.901934 138.976119 
C 58.901934 139.569132 59.137541 140.137935 59.556863 140.557258 
C 59.976186 140.976581 60.54499 141.212187 61.138002 141.212187 
z
"/>
   </g>
   <g id="PathCollection_3">
    <path clip-path="url(#p99d4d8a1a7)" d="M 61.138002 187.710465 
C 61.731014 187.710465 62.299818 187.474859 62.719141 187.055536 
C 63.138464 186.636213 63.37407 186.067409 63.37407 185.474397 
C 63.37407 184.881385 63.138464 184.312581 62.719141 183.893258 
C 62.299818 183.473935 61.731014 183.238329 61.138002 183.238329 
C 60.54499 183.238329 59.976186 183.473935 59.556863 183.893258 
C 59.137541 184.312581 58.901934 184.881385 58.901934 185.474397 
C 58.901934 186.067409 59.137541 186.636213 59.556863 187.055536 
C 59.976186 187.474859 60.54499 187.710465 61.138002 187.710465 
z
"/>
   </g>
   <g id="PathCollection_4">
    <path clip-path="url(#p99d4d8a1a7)" d="M 200.632836 94.71391 
C 201.225848 94.71391 201.794652 94.478303 202.213975 94.05898 
C 202.633298 93.639657 202.868904 93.070854 202.868904 92.477842 
C 202.868904 91.884829 202.633298 91.316026 202.213975 90.896703 
C 201.794652 90.47738 201.225848 90.241774 200.632836 90.241774 
C 200.039824 90.241774 199.47102 90.47738 199.051697 90.896703 
C 198.632374 91.316026 198.396768 91.884829 198.396768 92.477842 
C 198.396768 93.070854 198.632374 93.639657 199.051697 94.05898 
C 199.47102 94.478303 200.039824 94.71391 200.632836 94.71391 
z
"/>
   </g>
   <g id="PathCollection_5">
    <path clip-path="url(#p99d4d8a1a7)" d="M 200.632836 141.212187 
C 201.225848 141.212187 201.794652 140.976581 202.213975 140.557258 
C 202.633298 140.137935 202.868904 139.569132 202.868904 138.976119 
C 202.868904 138.383107 202.633298 137.814303 202.213975 137.394981 
C 201.794652 136.975658 201.225848 136.740051 200.632836 136.740051 
C 200.039824 136.740051 199.47102 136.975658 199.051697 137.394981 
C 198.632374 137.814303 198.396768 138.383107 198.396768 138.976119 
C 198.396768 139.569132 198.632374 140.137935 199.051697 140.557258 
C 199.47102 140.976581 200.039824 141.212187 200.632836 141.212187 
z
"/>
   </g>
   <g id="PathCollection_6">
    <path clip-path="url(#p99d4d8a1a7)" d="M 200.632836 187.710465 
C 201.225848 187.710465 201.794652 187.474859 202.213975 187.055536 
C 202.633298 186.636213 202.868904 186.067409 202.868904 185.474397 
C 202.868904 184.881385 202.633298 184.312581 202.213975 183.893258 
C 201.794652 183.473935 201.225848 183.238329 200.632836 183.238329 
C 200.039824 183.238329 199.47102 183.473935 199.051697 183.893258 
C 198.632374 184.312581 198.396768 184.881385 198.396768 185.474397 
C 198.396768 186.067409 198.632374 186.636213 199.051697 187.055536 
C 199.47102 187.474859 200.039824 187.710465 200.632836 187.710465 
z
"/>
   </g>
   <g id="PathCollection_7">
    <path clip-path="url(#p99d4d8a1a7)" d="M 340.127669 94.71391 
C 340.720682 94.71391 341.289485 94.478303 341.708808 94.05898 
C 342.128131 93.639657 342.363737 93.070854 342.363737 92.477842 
C 342.363737 91.884829 342.128131 91.316026 341.708808 90.896703 
C 341.289485 90.47738 340.720682 90.241774 340.127669 90.241774 
C 339.534657 90.241774 338.965853 90.47738 338.546531 90.896703 
C 338.127208 91.316026 337.891601 91.884829 337.891601 92.477842 
C 337.891601 93.070854 338.127208 93.639657 338.546531 94.05898 
C 338.965853 94.478303 339.534657 94.71391 340.127669 94.71391 
z
"/>
   </g>
   <g id="PathCollection_8">
    <path clip-path="url(#p99d4d8a1a7)" d="M 340.127669 125.712761 
C 340.720682 125.712761 341.289485 125.477155 341.708808 125.057832 
C 342.128131 124.638509 342.363737 124.069706 342.363737 123.476693 
C 342.363737 122.883681 342.128131 122.314878 341.708808 121.895555 
C 341.289485 121.476232 340.720682 121.240625 340.127669 121.240625 
C 339.534657 121.240625 338.965853 121.476232 338.546531 121.895555 
C 338.127208 122.314878 337.891601 122.883681 337.891601 123.476693 
C 337.891601 124.069706 338.127208 124.638509 338.546531 125.057832 
C 338.965853 125.477155 339.534657 125.712761 340.127669 125.712761 
z
"/>
   </g>
   <g id="PathCollection_9">
    <path clip-path="url(#p99d4d8a1a7)" d="M 340.127669 156.711613 
C 340.720682 156.711613 341.289485 156.476007 341.708808 156.056684 
C 342.128131 155.637361 342.363737 155.068558 342.363737 154.475545 
C 342.363737 153.882533 342.128131 153.313729 341.708808 152.894407 
C 341.289485 152.475084 340.720682 152.239477 340.127669 152.239477 
C 339.534657 152.239477 338.965853 152.475084 338.546531 152.894407 
C 338.127208 153.313729 337.891601 153.882533 337.891601 154.475545 
C 337.891601 155.068558 338.127208 155.637361 338.546531 156.056684 
C 338.965853 156.476007 339.534657 156.711613 340.127669 156.711613 
z
"/>
   </g>
   <g id="PathCollection_10">
    <path clip-path="url(#p99d4d8a1a7)" d="M 340.127669 187.710465 
C 340.720682 187.710465 341.289485 187.474859 341.708808 187.055536 
C 342.128131 186.636213 342.363737 186.067409 342.363737 185.474397 
C 342.363737 184.881385 342.128131 184.312581 341.708808 183.893258 
C 341.289485 183.473935 340.720682 183.238329 340.127669 183.238329 
C 339.534657 183.238329 338.965853 183.473935 338.546531 183.893258 
C 338.127208 184.312581 337.891601 184.881385 337.891601 185.474397 
C 337.891601 186.067409 338.127208 186.636213 338.546531 187.055536 
C 338.965853 187.474859 339.534657 187.710465 340.127669 187.710465 
z
"/>
   </g>
   <g id="matplotlib.axis_1"/>
   <g id="matplotlib.axis_2"/>
   <g id="patch_3">
    <path clip-path="url(#p99d4d8a1a7)" d="M 61.138002 138.976119 
Q 130.885419 162.225258 199.572176 185.120844 
" style="fill:none;stroke:#000000;stroke-linecap:round;"/>
    <path clip-path="url(#p99d4d8a1a7)" d="M 196.409898 181.958566 
L 199.572176 185.120844 
L 195.144987 185.753299 
L 196.409898 181.958566 
z
" style="stroke:#000000;stroke-linecap:round;"/>
   </g>
   <g id="patch_4">
    <path clip-path="url(#p99d4d8a1a7)" d="M 200.632836 92.477842 
Q 270.380253 138.976119 339.197409 184.854224 
" style="fill:none;stroke:#000000;stroke-linecap:round;"/>
    <path clip-path="url(#p99d4d8a1a7)" d="M 336.978608 180.971322 
L 339.197409 184.854224 
L 334.759807 184.299523 
L 336.978608 180.971322 
z
" style="stroke:#000000;stroke-linecap:round;"/>
   </g>
   <g id="patch_5">
    <path clip-path="url(#p99d4d8a1a7)" d="M 200.632836 185.474397 
Q 270.380253 154.475545 339.105997 123.93077 
" style="fill:none;stroke:#000000;stroke-linecap:round;"/>
    <path clip-path="url(#p99d4d8a1a7)" d="M 334.638474 123.727701 
L 339.105997 123.93077 
L 336.263028 127.382947 
L 334.638474 123.727701 
z
" style="stroke:#000000;stroke-linecap:round;"/>
   </g>
   <g id="patch_6">
    <path clip-path="url(#p99d4d8a1a7)" d="M 61.138002 185.474397 
Q 130.885419 138.976119 199.702575 93.098015 
" style="fill:none;stroke:#000000;stroke-linecap:round;"/>
    <path clip-path="url(#p99d4d8a1a7)" d="M 195.264974 93.652715 
L 199.702575 93.098015 
L 197.483775 96.980917 
L 195.264974 93.652715 
z
" style="stroke:#000000;stroke-linecap:round;"/>
   </g>
   <g id="patch_7">
    <path clip-path="url(#p99d4d8a1a7)" d="M 61.138002 92.477842 
Q 130.885419 92.477842 199.514802 92.477842 
" style="fill:none;stroke:#000000;stroke-linecap:round;"/>
    <path clip-path="url(#p99d4d8a1a7)" d="M 195.514802 90.477842 
L 199.514802 92.477842 
L 195.514802 94.477842 
L 195.514802 90.477842 
z
" style="stroke:#000000;stroke-linecap:round;"/>
   </g>
   <g id="patch_8">
    <path clip-path="url(#p99d4d8a1a7)" d="M 200.632836 138.976119 
Q 270.380253 115.72698 339.067009 92.831395 
" style="fill:none;stroke:#000000;stroke-linecap:round;"/>
    <path clip-path="url(#p99d4d8a1a7)" d="M 334.63982 92.198939 
L 339.067009 92.831395 
L 335.904732 95.993673 
L 334.63982 92.198939 
z
" style="stroke:#000000;stroke-linecap:round;"/>
   </g>
   <g id="patch_9">
    <path clip-path="url(#p99d4d8a1a7)" d="M 61.138002 231.972675 
Q 200.632836 324.969231 326.178186 241.272331 
" style="fill:none;stroke:#000000;stroke-linejoin:miter;"/>
   </g>
   <g id="patch_10">
    <path clip-path="url(#p99d4d8a1a7)" d="M 326.178186 241.272331 
Q 333.152928 236.622503 339.197409 232.592849 
" style="fill:none;stroke:#000000;stroke-linecap:round;"/>
    <path clip-path="url(#p99d4d8a1a7)" d="M 334.759807 233.147549 
L 339.197409 232.592849 
L 336.978608 236.47575 
L 334.759807 233.147549 
z
" style="stroke:#000000;stroke-linecap:round;"/>
   </g>
   <g id="patch_11">
    <path clip-path="url(#p99d4d8a1a7)" d="M 61.138002 45.979564 
Q 130.885419 13.430769 191.33318 41.329736 
" style="fill:none;stroke:#000000;stroke-linejoin:miter;"/>
   </g>
   <g id="patch_12">
    <path clip-path="url(#p99d4d8a1a7)" d="M 191.33318 41.329736 
Q 195.983008 43.65465 199.632836 45.479564 
" style="fill:none;stroke:#000000;stroke-linecap:round;"/>
    <path clip-path="url(#p99d4d8a1a7)" d="M 196.949554 41.901855 
L 199.632836 45.479564 
L 195.1607 45.479564 
L 196.949554 41.901855 
z
" style="stroke:#000000;stroke-linecap:round;"/>
   </g>
   <g id="patch_13">
    <path clip-path="url(#p99d4d8a1a7)" d="M 200.632836 45.979564 
Q 270.380253 13.430769 330.828014 41.329736 
" style="fill:none;stroke:#000000;stroke-linejoin:miter;"/>
   </g>
   <g id="patch_14">
    <path clip-path="url(#p99d4d8a1a7)" d="M 330.828014 41.329736 
Q 335.477842 43.65465 339.127669 45.479564 
" style="fill:none;stroke:#000000;stroke-linecap:round;"/>
    <path clip-path="url(#p99d4d8a1a7)" d="M 336.444388 41.901855 
L 339.127669 45.479564 
L 334.655533 45.479564 
L 336.444388 41.901855 
z
" style="stroke:#000000;stroke-linecap:round;"/>
   </g>
   <g id="text_1">
    <!-- $a$ -->
    <g transform="translate(48.658347 95.789092)scale(0.12 -0.12)">
     <defs>
      <path d="M 17.390625 -1.125 
Q 11.078125 -1.125 7.4375 3.640625 
Q 3.8125 8.40625 3.8125 14.890625 
Q 3.8125 21.296875 7.125 28.171875 
Q 10.453125 35.0625 16.09375 39.625 
Q 21.734375 44.1875 28.21875 44.1875 
Q 31.203125 44.1875 33.546875 42.578125 
Q 35.890625 40.96875 37.203125 38.1875 
Q 38.328125 42.1875 41.609375 42.1875 
Q 42.875 42.1875 43.71875 41.421875 
Q 44.578125 40.671875 44.578125 39.40625 
Q 44.578125 39.109375 44.546875 38.953125 
Q 44.53125 38.8125 44.484375 38.625 
L 37.5 10.6875 
Q 36.8125 7.71875 36.8125 5.8125 
Q 36.8125 1.515625 39.703125 1.515625 
Q 42.828125 1.515625 44.453125 5.484375 
Q 46.09375 9.46875 47.21875 14.703125 
Q 47.40625 15.28125 48 15.28125 
L 49.21875 15.28125 
Q 49.609375 15.28125 49.84375 14.9375 
Q 50.09375 14.59375 50.09375 14.3125 
Q 48.34375 7.328125 46.265625 3.09375 
Q 44.1875 -1.125 39.5 -1.125 
Q 36.140625 -1.125 33.546875 0.84375 
Q 30.953125 2.828125 30.328125 6.109375 
Q 23.875 -1.125 17.390625 -1.125 
z
M 17.484375 1.515625 
Q 21.09375 1.515625 24.484375 4.21875 
Q 27.875 6.9375 30.328125 10.59375 
Q 30.421875 10.6875 30.421875 10.890625 
L 35.796875 32.625 
L 35.890625 32.90625 
Q 35.296875 36.46875 33.3125 39.03125 
Q 31.34375 41.609375 27.984375 41.609375 
Q 24.609375 41.609375 21.703125 38.84375 
Q 18.796875 36.078125 16.796875 32.328125 
Q 14.84375 28.328125 13.0625 21.34375 
Q 11.28125 14.359375 11.28125 10.5 
Q 11.28125 7.03125 12.765625 4.265625 
Q 14.265625 1.515625 17.484375 1.515625 
z
" id="Cmmi10-97"/>
     </defs>
     <use transform="translate(0 0.8125)" xlink:href="#Cmmi10-97"/>
    </g>
   </g>
   <g id="text_2">
    <!-- $b$ -->
    <g transform="translate(49.258347 142.287369)scale(0.12 -0.12)">
     <defs>
      <path d="M 17.28125 -1.125 
Q 11.234375 -1.125 7.859375 3.609375 
Q 4.5 8.34375 4.5 14.703125 
Q 4.5 15.625 4.953125 18.328125 
Q 5.421875 21.046875 5.421875 21.6875 
L 15.09375 60.5 
Q 15.484375 62.203125 15.578125 63.1875 
Q 15.578125 64.796875 9.078125 64.796875 
Q 8.109375 64.796875 8.109375 66.109375 
Q 8.15625 66.359375 8.328125 66.984375 
Q 8.5 67.625 8.765625 67.96875 
Q 9.03125 68.3125 9.515625 68.3125 
L 23 69.390625 
Q 24.21875 69.390625 24.21875 68.109375 
L 16.796875 38.625 
Q 22.46875 44.1875 28.21875 44.1875 
Q 32.46875 44.1875 35.515625 41.9375 
Q 38.578125 39.703125 40.09375 36.03125 
Q 41.609375 32.375 41.609375 28.21875 
Q 41.609375 23.390625 39.71875 18.234375 
Q 37.84375 13.09375 34.515625 8.671875 
Q 31.203125 4.25 26.75 1.5625 
Q 22.3125 -1.125 17.28125 -1.125 
z
M 17.484375 1.515625 
Q 20.90625 1.515625 23.875 4.375 
Q 26.859375 7.234375 28.71875 10.796875 
Q 30.71875 14.796875 32.453125 21.65625 
Q 34.1875 28.515625 34.1875 32.625 
Q 34.1875 36.1875 32.6875 38.890625 
Q 31.203125 41.609375 27.984375 41.609375 
Q 24.359375 41.609375 21.0625 38.9375 
Q 17.78125 36.28125 15.28125 32.625 
L 12.5 21.296875 
Q 10.890625 14.984375 10.796875 11.1875 
Q 10.796875 7.421875 12.421875 4.46875 
Q 14.0625 1.515625 17.484375 1.515625 
z
" id="Cmmi10-98"/>
     </defs>
     <use transform="translate(0 0.609375)" xlink:href="#Cmmi10-98"/>
    </g>
   </g>
   <g id="text_3">
    <!-- $c$ -->
    <g transform="translate(49.198347 188.785647)scale(0.12 -0.12)">
     <defs>
      <path d="M 11.71875 11.921875 
Q 11.71875 7.5625 13.9375 4.53125 
Q 16.15625 1.515625 20.3125 1.515625 
Q 26.265625 1.515625 31.75 4.25 
Q 37.25 6.984375 40.71875 11.8125 
Q 41.015625 12.109375 41.5 12.109375 
Q 42 12.109375 42.5 11.546875 
Q 43.015625 10.984375 43.015625 10.5 
Q 43.015625 10.109375 42.828125 9.90625 
Q 39.15625 4.78125 32.953125 1.828125 
Q 26.765625 -1.125 20.125 -1.125 
Q 15.328125 -1.125 11.671875 1.140625 
Q 8.015625 3.421875 6 7.21875 
Q 4 11.03125 4 15.828125 
Q 4 22.5625 7.765625 29.203125 
Q 11.53125 35.84375 17.78125 40.015625 
Q 24.03125 44.1875 30.90625 44.1875 
Q 35.40625 44.1875 38.984375 42.015625 
Q 42.578125 39.84375 42.578125 35.59375 
Q 42.578125 32.859375 40.984375 30.921875 
Q 39.40625 29 36.71875 29 
Q 35.109375 29 34 30 
Q 32.90625 31 32.90625 32.625 
Q 32.90625 34.96875 34.609375 36.625 
Q 36.328125 38.28125 38.625 38.28125 
L 38.8125 38.28125 
Q 37.640625 39.984375 35.421875 40.796875 
Q 33.203125 41.609375 30.8125 41.609375 
Q 24.953125 41.609375 20.546875 36.59375 
Q 16.15625 31.59375 13.9375 24.625 
Q 11.71875 17.671875 11.71875 11.921875 
z
" id="Cmmi10-99"/>
     </defs>
     <use transform="translate(0 0.8125)" xlink:href="#Cmmi10-99"/>
    </g>
   </g>
   <g id="text_4">
    <!-- $1$ -->
    <g transform="translate(197.632836 86.489436)scale(0.12 -0.12)">
     <defs>
      <path d="M 9.28125 0 
L 9.28125 3.515625 
Q 21.78125 3.515625 21.78125 6.6875 
L 21.78125 59.1875 
Q 16.609375 56.6875 8.6875 56.6875 
L 8.6875 60.203125 
Q 20.953125 60.203125 27.203125 66.609375 
L 28.609375 66.609375 
Q 28.953125 66.609375 29.265625 66.328125 
Q 29.59375 66.0625 29.59375 65.71875 
L 29.59375 6.6875 
Q 29.59375 3.515625 42.09375 3.515625 
L 42.09375 0 
z
" id="Cmr10-49"/>
     </defs>
     <use transform="translate(0 0.390625)" xlink:href="#Cmr10-49"/>
    </g>
   </g>
   <g id="text_5">
    <!-- $3$ -->
    <g transform="translate(197.632836 198.085303)scale(0.12 -0.12)">
     <defs>
      <path d="M 9.515625 7.71875 
Q 11.859375 4.296875 15.8125 2.640625 
Q 19.78125 0.984375 24.3125 0.984375 
Q 30.125 0.984375 32.5625 5.9375 
Q 35.015625 10.890625 35.015625 17.1875 
Q 35.015625 20.015625 34.5 22.84375 
Q 33.984375 25.6875 32.765625 28.125 
Q 31.546875 30.5625 29.421875 32.03125 
Q 27.296875 33.5 24.21875 33.5 
L 17.578125 33.5 
Q 16.703125 33.5 16.703125 34.421875 
L 16.703125 35.296875 
Q 16.703125 36.078125 17.578125 36.078125 
L 23.09375 36.53125 
Q 26.609375 36.53125 28.921875 39.15625 
Q 31.25 41.796875 32.328125 45.578125 
Q 33.40625 49.359375 33.40625 52.78125 
Q 33.40625 57.5625 31.15625 60.640625 
Q 28.90625 63.71875 24.3125 63.71875 
Q 20.515625 63.71875 17.046875 62.28125 
Q 13.578125 60.84375 11.53125 57.90625 
Q 11.71875 57.953125 11.859375 57.984375 
Q 12.015625 58.015625 12.203125 58.015625 
Q 14.453125 58.015625 15.96875 56.453125 
Q 17.484375 54.890625 17.484375 52.6875 
Q 17.484375 50.53125 15.96875 48.96875 
Q 14.453125 47.40625 12.203125 47.40625 
Q 10.015625 47.40625 8.453125 48.96875 
Q 6.890625 50.53125 6.890625 52.6875 
Q 6.890625 56.984375 9.46875 60.15625 
Q 12.0625 63.328125 16.140625 64.96875 
Q 20.21875 66.609375 24.3125 66.609375 
Q 27.34375 66.609375 30.703125 65.703125 
Q 34.078125 64.796875 36.8125 63.109375 
Q 39.546875 61.421875 41.28125 58.78125 
Q 43.015625 56.15625 43.015625 52.78125 
Q 43.015625 48.578125 41.140625 45.015625 
Q 39.265625 41.453125 35.984375 38.859375 
Q 32.71875 36.28125 28.8125 35.015625 
Q 33.15625 34.1875 37.0625 31.734375 
Q 40.96875 29.296875 43.328125 25.484375 
Q 45.703125 21.6875 45.703125 17.28125 
Q 45.703125 11.765625 42.671875 7.296875 
Q 39.65625 2.828125 34.71875 0.3125 
Q 29.78125 -2.203125 24.3125 -2.203125 
Q 19.625 -2.203125 14.90625 -0.40625 
Q 10.203125 1.375 7.203125 4.9375 
Q 4.203125 8.5 4.203125 13.484375 
Q 4.203125 15.96875 5.859375 17.625 
Q 7.515625 19.28125 10.015625 19.28125 
Q 11.625 19.28125 12.96875 18.53125 
Q 14.3125 17.78125 15.0625 16.40625 
Q 15.828125 15.046875 15.828125 13.484375 
Q 15.828125 11.03125 14.109375 9.375 
Q 12.40625 7.71875 10.015625 7.71875 
z
" id="Cmr10-51"/>
     </defs>
     <use transform="translate(0 0.390625)" xlink:href="#Cmr10-51"/>
    </g>
   </g>
   <g id="text_6">
    <!-- $2$ -->
    <g transform="translate(197.632836 151.587025)scale(0.12 -0.12)">
     <defs>
      <path d="M 4.984375 0 
L 4.984375 2.6875 
Q 4.984375 2.9375 5.171875 3.21875 
L 20.703125 20.40625 
Q 24.21875 24.21875 26.40625 26.796875 
Q 28.609375 29.390625 30.75 32.765625 
Q 32.90625 36.140625 34.15625 39.625 
Q 35.40625 43.109375 35.40625 47.015625 
Q 35.40625 51.125 33.890625 54.859375 
Q 32.375 58.59375 29.375 60.84375 
Q 26.375 63.09375 22.125 63.09375 
Q 17.78125 63.09375 14.3125 60.46875 
Q 10.84375 57.859375 9.421875 53.71875 
Q 9.8125 53.8125 10.5 53.8125 
Q 12.75 53.8125 14.328125 52.296875 
Q 15.921875 50.78125 15.921875 48.390625 
Q 15.921875 46.09375 14.328125 44.5 
Q 12.75 42.921875 10.5 42.921875 
Q 8.15625 42.921875 6.5625 44.546875 
Q 4.984375 46.1875 4.984375 48.390625 
Q 4.984375 52.15625 6.390625 55.4375 
Q 7.8125 58.734375 10.46875 61.296875 
Q 13.140625 63.875 16.484375 65.234375 
Q 19.828125 66.609375 23.578125 66.609375 
Q 29.296875 66.609375 34.21875 64.1875 
Q 39.15625 61.765625 42.03125 57.34375 
Q 44.921875 52.9375 44.921875 47.015625 
Q 44.921875 42.671875 43.015625 38.765625 
Q 41.109375 34.859375 38.125 31.65625 
Q 35.15625 28.46875 30.515625 24.40625 
Q 25.875 20.359375 24.421875 19 
L 13.09375 8.109375 
L 22.703125 8.109375 
Q 29.78125 8.109375 34.546875 8.21875 
Q 39.3125 8.34375 39.59375 8.59375 
Q 40.765625 9.859375 42 17.828125 
L 44.921875 17.828125 
L 42.09375 0 
z
" id="Cmr10-50"/>
     </defs>
     <use transform="translate(0 0.390625)" xlink:href="#Cmr10-50"/>
    </g>
   </g>
   <g id="text_7">
    <!-- $-1$ -->
    <g transform="translate(341.747325 95.789092)scale(0.12 -0.12)">
     <defs>
      <path d="M 10.203125 23 
Q 9.375 23 8.828125 23.625 
Q 8.296875 24.265625 8.296875 25 
Q 8.296875 25.734375 8.828125 26.359375 
Q 9.375 27 10.203125 27 
L 67.578125 27 
Q 68.359375 27 68.875 26.359375 
Q 69.390625 25.734375 69.390625 25 
Q 69.390625 24.265625 68.875 23.625 
Q 68.359375 23 67.578125 23 
z
" id="Cmsy10-161"/>
     </defs>
     <use transform="translate(0 0.390625)" xlink:href="#Cmsy10-161"/>
     <use transform="translate(77.685547 0.390625)" xlink:href="#Cmr10-49"/>
    </g>
   </g>
   <g id="text_8">
    <!-- $-2$ -->
    <g transform="translate(341.747325 126.787943)scale(0.12 -0.12)">
     <use transform="translate(0 0.390625)" xlink:href="#Cmsy10-161"/>
     <use transform="translate(77.685547 0.390625)" xlink:href="#Cmr10-50"/>
    </g>
   </g>
   <g id="text_9">
    <!-- $-3$ -->
    <g transform="translate(341.747325 157.786795)scale(0.12 -0.12)">
     <use transform="translate(0 0.390625)" xlink:href="#Cmsy10-161"/>
     <use transform="translate(77.685547 0.390625)" xlink:href="#Cmr10-51"/>
    </g>
   </g>
   <g id="text_10">
    <!-- $-4$ -->
    <g transform="translate(341.747325 188.785647)scale(0.12 -0.12)">
     <defs>
      <path d="M 2.78125 16.5 
L 2.78125 20.015625 
L 33.6875 66.109375 
Q 34.03125 66.609375 34.71875 66.609375 
L 36.1875 66.609375 
Q 37.3125 66.609375 37.3125 65.484375 
L 37.3125 20.015625 
L 47.125 20.015625 
L 47.125 16.5 
L 37.3125 16.5 
L 37.3125 6.6875 
Q 37.3125 4.640625 40.234375 4.078125 
Q 43.171875 3.515625 47.015625 3.515625 
L 47.015625 0 
L 19.484375 0 
L 19.484375 3.515625 
Q 23.34375 3.515625 26.265625 4.078125 
Q 29.203125 4.640625 29.203125 6.6875 
L 29.203125 16.5 
z
M 6.109375 20.015625 
L 29.78125 20.015625 
L 29.78125 55.421875 
z
" id="Cmr10-52"/>
     </defs>
     <use transform="translate(0 0.390625)" xlink:href="#Cmsy10-161"/>
     <use transform="translate(77.685547 0.390625)" xlink:href="#Cmr10-52"/>
    </g>
   </g>
   <g id="text_11">
    <!-- $A$ -->
    <g transform="translate(56.638002 216.684614)scale(0.12 -0.12)">
     <defs>
      <path d="M 4.5 0 
Q 3.515625 0 3.515625 1.3125 
Q 3.90625 3.515625 4.78125 3.515625 
Q 8.84375 3.515625 11.796875 5.125 
Q 14.75 6.734375 16.890625 10.109375 
Q 17.09375 10.296875 17.09375 10.296875 
L 52.78125 70.515625 
Q 53.5625 71.578125 54.6875 71.578125 
L 56 71.578125 
Q 56.296875 71.578125 56.59375 71.453125 
Q 56.890625 71.34375 57.109375 71.0625 
Q 57.328125 70.796875 57.328125 70.515625 
L 63.375 5.90625 
Q 63.375 5.46875 63.8125 4.59375 
Q 64.796875 3.515625 71.296875 3.515625 
Q 72.3125 3.515625 72.3125 2.203125 
Q 71.96875 0.875 71.75 0.4375 
Q 71.53125 0 70.609375 0 
L 45.609375 0 
Q 44.671875 0 44.671875 1.3125 
Q 45.21875 3.515625 46 3.515625 
Q 53.90625 3.515625 54.390625 6.203125 
L 52.875 22.703125 
L 28.21875 22.703125 
L 20.21875 9.28125 
Q 19.484375 8.203125 19.484375 6.78125 
Q 19.484375 5.03125 21.171875 4.265625 
Q 22.859375 3.515625 24.90625 3.515625 
Q 25.875 3.515625 25.875 2.203125 
Q 25.53125 0.78125 25.328125 0.390625 
Q 25.140625 0 24.21875 0 
z
M 30.171875 26.21875 
L 52.484375 26.21875 
L 49.515625 58.59375 
z
" id="Cmmi10-65"/>
     </defs>
     <use transform="translate(0 0.421875)" xlink:href="#Cmmi10-65"/>
    </g>
   </g>
   <g id="text_12">
    <!-- $B$ -->
    <g transform="translate(196.072836 216.684614)scale(0.12 -0.12)">
     <defs>
      <path d="M 4.984375 0 
Q 4 0 4 1.3125 
Q 4.046875 1.5625 4.1875 2.140625 
Q 4.34375 2.734375 4.578125 3.125 
Q 4.828125 3.515625 5.328125 3.515625 
Q 8.15625 3.515625 10.25 3.65625 
Q 12.359375 3.8125 13.8125 4.203125 
Q 14.984375 4.640625 15.71875 6.890625 
L 29.390625 61.8125 
Q 29.59375 62.796875 29.59375 63.1875 
Q 29.59375 64.265625 28.421875 64.40625 
Q 26.515625 64.796875 21.1875 64.796875 
Q 20.21875 64.796875 20.21875 66.109375 
Q 20.265625 66.359375 20.40625 66.96875 
Q 20.5625 67.578125 20.828125 67.9375 
Q 21.09375 68.3125 21.484375 68.3125 
L 57.328125 68.3125 
Q 60.59375 68.3125 63.796875 67.5 
Q 67 66.703125 69.703125 64.9375 
Q 72.40625 63.1875 74 60.5625 
Q 75.59375 57.953125 75.59375 54.5 
Q 75.59375 50.734375 73.65625 47.5 
Q 71.734375 44.28125 68.671875 41.890625 
Q 65.625 39.5 62.078125 37.953125 
Q 58.546875 36.421875 54.6875 35.6875 
Q 57.421875 35.6875 60.21875 34.609375 
Q 63.03125 33.546875 65.234375 31.6875 
Q 67.4375 29.828125 68.78125 27.234375 
Q 70.125 24.65625 70.125 21.6875 
Q 70.125 15.671875 65.921875 10.6875 
Q 61.71875 5.71875 55.34375 2.859375 
Q 48.96875 0 43.015625 0 
z
M 23.390625 4.296875 
Q 23.390625 3.515625 26.8125 3.515625 
L 41.109375 3.515625 
Q 46 3.515625 50.484375 6.21875 
Q 54.984375 8.9375 57.6875 13.421875 
Q 60.40625 17.921875 60.40625 22.796875 
Q 60.40625 25.78125 59.15625 28.4375 
Q 57.90625 31.109375 55.5625 32.640625 
Q 53.21875 34.1875 50.203125 34.1875 
L 30.71875 34.1875 
L 23.78125 6.5 
Q 23.390625 5.125 23.390625 4.296875 
z
M 31.390625 36.8125 
L 46.578125 36.8125 
Q 51.375 36.8125 55.890625 39.25 
Q 60.40625 41.703125 63.25 45.890625 
Q 66.109375 50.09375 66.109375 54.78125 
Q 66.109375 59.125 63.390625 61.953125 
Q 60.6875 64.796875 56.390625 64.796875 
L 42.671875 64.796875 
Q 39.984375 64.796875 39.0625 64.296875 
Q 38.140625 63.8125 37.5 61.375 
z
" id="Cmmi10-66"/>
     </defs>
     <use transform="translate(0 0.6875)" xlink:href="#Cmmi10-66"/>
    </g>
   </g>
   <g id="text_13">
    <!-- $C$ -->
    <g transform="translate(335.807669 216.684614)scale(0.12 -0.12)">
     <defs>
      <path d="M 14.59375 21.578125 
Q 14.59375 15.578125 16.90625 11.015625 
Q 19.234375 6.453125 23.65625 3.875 
Q 28.078125 1.3125 34.078125 1.3125 
Q 40.375 1.3125 46.203125 4.53125 
Q 52.046875 7.765625 56.171875 13.15625 
Q 60.296875 18.5625 61.8125 24.609375 
Q 62.015625 25.203125 62.59375 25.203125 
L 63.8125 25.203125 
Q 64.203125 25.203125 64.453125 24.921875 
Q 64.703125 24.65625 64.703125 24.3125 
Q 64.703125 24.21875 64.59375 24.03125 
Q 62.890625 17.09375 57.984375 11.015625 
Q 53.078125 4.9375 46.234375 1.359375 
Q 39.40625 -2.203125 32.171875 -2.203125 
Q 24.359375 -2.203125 18.15625 1.3125 
Q 11.96875 4.828125 8.515625 11.078125 
Q 5.078125 17.328125 5.078125 25.203125 
Q 5.078125 33.59375 8.828125 41.8125 
Q 12.59375 50.046875 18.9375 56.46875 
Q 25.296875 62.890625 33.421875 66.703125 
Q 41.546875 70.515625 49.90625 70.515625 
Q 53.21875 70.515625 56.25 69.5 
Q 59.28125 68.5 61.859375 66.453125 
Q 64.453125 64.40625 66.109375 61.71875 
L 74.03125 70.3125 
Q 74.03125 70.515625 74.515625 70.515625 
L 75.09375 70.515625 
Q 75.484375 70.515625 75.734375 70.171875 
Q 75.984375 69.828125 75.984375 69.484375 
L 69.1875 42.484375 
Q 69.1875 41.796875 68.40625 41.796875 
L 66.609375 41.796875 
Q 65.828125 41.796875 65.828125 42.921875 
Q 66.21875 45.125 66.21875 48.1875 
Q 66.21875 53.078125 64.546875 57.390625 
Q 62.890625 61.71875 59.390625 64.359375 
Q 55.90625 67 50.875 67 
Q 42.71875 67 35.9375 62.890625 
Q 29.15625 58.796875 24.4375 52.125 
Q 19.734375 45.453125 17.15625 37.328125 
Q 14.59375 29.203125 14.59375 21.578125 
z
" id="Cmmi10-67"/>
     </defs>
     <use transform="translate(0 0.484375)" xlink:href="#Cmmi10-67"/>
    </g>
   </g>
   <g id="text_14">
    <!-- $f\circ g$ -->
    <g transform="translate(189.712836 295.707311)scale(0.12 -0.12)">
     <defs>
      <path d="M 9.71875 -16.5 
Q 11.578125 -17.921875 14.203125 -17.921875 
Q 17.78125 -17.921875 20.015625 -10.015625 
Q 20.953125 -6.203125 25.09375 15.09375 
L 29.6875 39.59375 
L 21.09375 39.59375 
Q 20.125 39.59375 20.125 40.921875 
Q 20.515625 43.109375 21.390625 43.109375 
L 30.328125 43.109375 
L 31.5 49.609375 
Q 32.078125 52.640625 32.5625 54.8125 
Q 33.0625 56.984375 33.625 58.828125 
Q 34.1875 60.6875 35.296875 62.984375 
Q 37.015625 66.265625 39.921875 68.390625 
Q 42.828125 70.515625 46.1875 70.515625 
Q 48.390625 70.515625 50.46875 69.703125 
Q 52.546875 68.890625 53.859375 67.28125 
Q 55.171875 65.671875 55.171875 63.484375 
Q 55.171875 60.9375 53.484375 59.046875 
Q 51.8125 57.171875 49.421875 57.171875 
Q 47.796875 57.171875 46.65625 58.171875 
Q 45.515625 59.1875 45.515625 60.796875 
Q 45.515625 62.984375 47 64.625 
Q 48.484375 66.265625 50.6875 66.5 
Q 48.828125 67.921875 46.09375 67.921875 
Q 44.578125 67.921875 43.234375 66.5 
Q 41.890625 65.09375 41.5 63.484375 
Q 40.875 60.9375 38.71875 49.703125 
L 37.5 43.109375 
L 47.796875 43.109375 
Q 48.78125 43.109375 48.78125 41.796875 
Q 48.734375 41.546875 48.578125 40.9375 
Q 48.4375 40.328125 48.171875 39.953125 
Q 47.90625 39.59375 47.515625 39.59375 
L 36.8125 39.59375 
L 32.171875 15.1875 
Q 31.296875 9.859375 30.140625 4.359375 
Q 29 -1.125 26.921875 -6.90625 
Q 24.859375 -12.703125 21.625 -16.609375 
Q 18.40625 -20.515625 14.015625 -20.515625 
Q 10.640625 -20.515625 7.984375 -18.578125 
Q 5.328125 -16.65625 5.328125 -13.484375 
Q 5.328125 -10.9375 6.953125 -9.046875 
Q 8.59375 -7.171875 11.078125 -7.171875 
Q 12.75 -7.171875 13.859375 -8.171875 
Q 14.984375 -9.1875 14.984375 -10.796875 
Q 14.984375 -12.9375 13.390625 -14.71875 
Q 11.8125 -16.5 9.71875 -16.5 
z
" id="Cmmi10-102"/>
      <path d="M 25 5.609375 
Q 19.828125 5.609375 15.359375 8.21875 
Q 10.890625 10.84375 8.25 15.375 
Q 5.609375 19.921875 5.609375 25 
Q 5.609375 30.078125 8.25 34.609375 
Q 10.890625 39.15625 15.359375 41.765625 
Q 19.828125 44.390625 25 44.390625 
Q 30.171875 44.390625 34.609375 41.75 
Q 39.0625 39.109375 41.671875 34.59375 
Q 44.28125 30.078125 44.28125 25 
Q 44.28125 19.921875 41.671875 15.40625 
Q 39.0625 10.890625 34.609375 8.25 
Q 30.171875 5.609375 25 5.609375 
z
M 25 9.625 
Q 31.25 9.625 35.765625 14.1875 
Q 40.28125 18.75 40.28125 25 
Q 40.28125 29 38.203125 32.59375 
Q 36.140625 36.1875 32.625 38.28125 
Q 29.109375 40.375 25 40.375 
Q 21.921875 40.375 19.140625 39.171875 
Q 16.359375 37.984375 14.15625 35.78125 
Q 11.96875 33.59375 10.796875 30.828125 
Q 9.625 28.078125 9.625 25 
Q 9.625 18.75 14.140625 14.1875 
Q 18.65625 9.625 25 9.625 
z
" id="Cmsy10-177"/>
      <path d="M 1.421875 -14.3125 
Q 1.421875 -11.859375 3.09375 -10.03125 
Q 4.78125 -8.203125 7.171875 -8.203125 
Q 8.796875 -8.203125 9.890625 -9.203125 
Q 10.984375 -10.203125 10.984375 -11.8125 
Q 10.984375 -13.625 9.953125 -15.0625 
Q 8.9375 -16.5 7.328125 -17.09375 
Q 10.015625 -17.921875 15.71875 -17.921875 
Q 20.3125 -17.921875 24.125 -14.375 
Q 27.9375 -10.84375 29.109375 -6.203125 
L 31.984375 5.515625 
Q 26.5625 0 20.703125 0 
Q 16.40625 0 13.34375 2.1875 
Q 10.296875 4.390625 8.6875 8.046875 
Q 7.078125 11.71875 7.078125 15.828125 
Q 7.078125 20.40625 8.953125 25.4375 
Q 10.84375 30.46875 14.234375 34.765625 
Q 17.625 39.0625 22.015625 41.625 
Q 26.421875 44.1875 31.296875 44.1875 
Q 34.234375 44.1875 36.578125 42.578125 
Q 38.921875 40.96875 40.28125 38.28125 
Q 41.265625 42.1875 44.578125 42.1875 
Q 45.84375 42.1875 46.71875 41.421875 
Q 47.609375 40.671875 47.609375 39.40625 
Q 47.609375 39.109375 47.578125 38.953125 
Q 47.5625 38.8125 47.515625 38.625 
L 36.078125 -6.78125 
Q 35.296875 -9.90625 33.203125 -12.5 
Q 31.109375 -15.09375 28.265625 -16.828125 
Q 25.4375 -18.5625 22.0625 -19.53125 
Q 18.703125 -20.515625 15.578125 -20.515625 
Q 9.859375 -20.515625 5.640625 -19.40625 
Q 1.421875 -18.3125 1.421875 -14.3125 
z
M 20.90625 2.59375 
Q 27.296875 2.59375 33.5 11.375 
L 39.015625 33.203125 
Q 38.328125 36.671875 36.28125 39.140625 
Q 34.234375 41.609375 31.109375 41.609375 
Q 27.78125 41.609375 24.828125 38.890625 
Q 21.875 36.1875 19.921875 32.421875 
Q 18.0625 28.8125 16.328125 22.046875 
Q 14.59375 15.28125 14.59375 11.375 
Q 14.59375 7.953125 16.15625 5.265625 
Q 17.71875 2.59375 20.90625 2.59375 
z
" id="Cmmi10-103"/>
     </defs>
     <use transform="translate(0 0.484375)" xlink:href="#Cmmi10-102"/>
     <use transform="translate(66.435547 0.484375)" xlink:href="#Cmsy10-177"/>
     <use transform="translate(133.994141 0.484375)" xlink:href="#Cmmi10-103"/>
    </g>
   </g>
   <g id="text_15">
    <!-- $f$ -->
    <g transform="translate(267.440253 23.692386)scale(0.12 -0.12)">
     <use transform="translate(0 0.484375)" xlink:href="#Cmmi10-102"/>
    </g>
   </g>
   <g id="text_16">
    <!-- $g$ -->
    <g transform="translate(128.005419 23.692386)scale(0.12 -0.12)">
     <use transform="translate(0 0.8125)" xlink:href="#Cmmi10-103"/>
    </g>
   </g>
   <g id="patch_15">
    <path clip-path="url(#p99d4d8a1a7)" d="M 61.138002 231.972675 
C 73.46949 231.972675 85.297571 222.173971 94.01725 204.734615 
C 102.736928 187.295258 107.63628 163.639094 107.63628 138.976119 
C 107.63628 114.313145 102.736928 90.656981 94.01725 73.217624 
C 85.297571 55.778267 73.46949 45.979564 61.138002 45.979564 
C 48.806515 45.979564 36.978433 55.778267 28.258755 73.217624 
C 19.539076 90.656981 14.639724 114.313145 14.639724 138.976119 
C 14.639724 163.639094 19.539076 187.295258 28.258755 204.734615 
C 36.978433 222.173971 48.806515 231.972675 61.138002 231.972675 
z
" style="fill:none;stroke:#000000;stroke-linejoin:miter;"/>
   </g>
   <g id="patch_16">
    <path clip-path="url(#p99d4d8a1a7)" d="M 200.632836 231.972675 
C 212.964323 231.972675 224.792405 222.173971 233.512083 204.734615 
C 242.231762 187.295258 247.131114 163.639094 247.131114 138.976119 
C 247.131114 114.313145 242.231762 90.656981 233.512083 73.217624 
C 224.792405 55.778267 212.964323 45.979564 200.632836 45.979564 
C 188.301348 45.979564 176.473267 55.778267 167.753588 73.217624 
C 159.03391 90.656981 154.134558 114.313145 154.134558 138.976119 
C 154.134558 163.639094 159.03391 187.295258 167.753588 204.734615 
C 176.473267 222.173971 188.301348 231.972675 200.632836 231.972675 
z
" style="fill:none;stroke:#000000;stroke-linejoin:miter;"/>
   </g>
   <g id="patch_17">
    <path clip-path="url(#p99d4d8a1a7)" d="M 340.127669 231.972675 
C 352.459157 231.972675 364.287239 222.173971 373.006917 204.734615 
C 381.726595 187.295258 386.625947 163.639094 386.625947 138.976119 
C 386.625947 114.313145 381.726595 90.656981 373.006917 73.217624 
C 364.287239 55.778267 352.459157 45.979564 340.127669 45.979564 
C 327.796182 45.979564 315.9681 55.778267 307.248422 73.217624 
C 298.528743 90.656981 293.629392 114.313145 293.629392 138.976119 
C 293.629392 163.639094 298.528743 187.295258 307.248422 204.734615 
C 315.9681 222.173971 327.796182 231.972675 340.127669 231.972675 
z
" style="fill:none;stroke:#000000;stroke-linejoin:miter;"/>
   </g>
  </g>
 </g>
 <defs>
  <clipPath id="p99d4d8a1a7">
   <rect height="324" width="386.865672" x="7.2" y="7.2"/>
  </clipPath>
 </defs>
</svg>
