<?xml version="1.0" encoding="utf-8" standalone="no"?>
<!DOCTYPE svg PUBLIC "-//W3C//DTD SVG 1.1//EN"
  "http://www.w3.org/Graphics/SVG/1.1/DTD/svg11.dtd">
<!-- Created with matplotlib (https://matplotlib.org/) -->
<svg height="337.729553pt" version="1.1" viewBox="0 0 453.6 337.729553" width="453.6pt" xmlns="http://www.w3.org/2000/svg" xmlns:xlink="http://www.w3.org/1999/xlink">
 <metadata>
  <rdf:RDF xmlns:cc="http://creativecommons.org/ns#" xmlns:dc="http://purl.org/dc/elements/1.1/" xmlns:rdf="http://www.w3.org/1999/02/22-rdf-syntax-ns#">
   <cc:Work>
    <dc:type rdf:resource="http://purl.org/dc/dcmitype/StillImage"/>
    <dc:date>2024-08-21T15:23:35.653625</dc:date>
    <dc:format>image/svg+xml</dc:format>
    <dc:creator>
     <cc:Agent>
      <dc:title>Matplotlib v3.3.4, https://matplotlib.org/</dc:title>
     </cc:Agent>
    </dc:creator>
   </cc:Work>
  </rdf:RDF>
 </metadata>
 <defs>
  <style type="text/css">*{stroke-linecap:butt;stroke-linejoin:round;}</style>
 </defs>
 <g id="figure_1">
  <g id="patch_1">
   <path d="M 0 337.729553 
L 453.6 337.729553 
L 453.6 0 
L 0 0 
z
" style="fill:#ffffff;"/>
  </g>
  <g id="axes_1">
   <g id="patch_2">
    <path d="M 7.2 325.508653 
L 446.4 325.508653 
L 446.4 10.137744 
L 7.2 10.137744 
z
" style="fill:#ffffff;"/>
   </g>
   <g id="matplotlib.axis_1">
    <g id="xtick_1">
     <g id="line2d_1">
      <defs>
       <path d="M 0 0 
L 0 3.5 
" id="mc899f0929d" style="stroke:#000000;stroke-width:0.8;"/>
      </defs>
      <g>
       <use style="stroke:#000000;stroke-width:0.8;" x="25.16293" xlink:href="#mc899f0929d" y="167.824933"/>
      </g>
     </g>
     <g id="text_1">
      <!-- −3 -->
      <g transform="translate(17.791836 182.42337)scale(0.1 -0.1)">
       <defs>
        <path d="M 10.59375 35.5 
L 73.1875 35.5 
L 73.1875 27.203125 
L 10.59375 27.203125 
z
" id="DejaVuSans-8722"/>
        <path d="M 40.578125 39.3125 
Q 47.65625 37.796875 51.625 33 
Q 55.609375 28.21875 55.609375 21.1875 
Q 55.609375 10.40625 48.1875 4.484375 
Q 40.765625 -1.421875 27.09375 -1.421875 
Q 22.515625 -1.421875 17.65625 -0.515625 
Q 12.796875 0.390625 7.625 2.203125 
L 7.625 11.71875 
Q 11.71875 9.328125 16.59375 8.109375 
Q 21.484375 6.890625 26.8125 6.890625 
Q 36.078125 6.890625 40.9375 10.546875 
Q 45.796875 14.203125 45.796875 21.1875 
Q 45.796875 27.640625 41.28125 31.265625 
Q 36.765625 34.90625 28.71875 34.90625 
L 20.21875 34.90625 
L 20.21875 43.015625 
L 29.109375 43.015625 
Q 36.375 43.015625 40.234375 45.921875 
Q 44.09375 48.828125 44.09375 54.296875 
Q 44.09375 59.90625 40.109375 62.90625 
Q 36.140625 65.921875 28.71875 65.921875 
Q 24.65625 65.921875 20.015625 65.03125 
Q 15.375 64.15625 9.8125 62.3125 
L 9.8125 71.09375 
Q 15.4375 72.65625 20.34375 73.4375 
Q 25.25 74.21875 29.59375 74.21875 
Q 40.828125 74.21875 47.359375 69.109375 
Q 53.90625 64.015625 53.90625 55.328125 
Q 53.90625 49.265625 50.4375 45.09375 
Q 46.96875 40.921875 40.578125 39.3125 
z
" id="DejaVuSans-51"/>
       </defs>
       <use xlink:href="#DejaVuSans-8722"/>
       <use x="83.789062" xlink:href="#DejaVuSans-51"/>
      </g>
     </g>
    </g>
    <g id="xtick_2">
     <g id="line2d_2">
      <g>
       <use style="stroke:#000000;stroke-width:0.8;" x="92.375287" xlink:href="#mc899f0929d" y="167.824933"/>
      </g>
     </g>
     <g id="text_2">
      <!-- −2 -->
      <g transform="translate(85.004193 182.42337)scale(0.1 -0.1)">
       <defs>
        <path d="M 19.1875 8.296875 
L 53.609375 8.296875 
L 53.609375 0 
L 7.328125 0 
L 7.328125 8.296875 
Q 12.9375 14.109375 22.625 23.890625 
Q 32.328125 33.6875 34.8125 36.53125 
Q 39.546875 41.84375 41.421875 45.53125 
Q 43.3125 49.21875 43.3125 52.78125 
Q 43.3125 58.59375 39.234375 62.25 
Q 35.15625 65.921875 28.609375 65.921875 
Q 23.96875 65.921875 18.8125 64.3125 
Q 13.671875 62.703125 7.8125 59.421875 
L 7.8125 69.390625 
Q 13.765625 71.78125 18.9375 73 
Q 24.125 74.21875 28.421875 74.21875 
Q 39.75 74.21875 46.484375 68.546875 
Q 53.21875 62.890625 53.21875 53.421875 
Q 53.21875 48.921875 51.53125 44.890625 
Q 49.859375 40.875 45.40625 35.40625 
Q 44.1875 33.984375 37.640625 27.21875 
Q 31.109375 20.453125 19.1875 8.296875 
z
" id="DejaVuSans-50"/>
       </defs>
       <use xlink:href="#DejaVuSans-8722"/>
       <use x="83.789062" xlink:href="#DejaVuSans-50"/>
      </g>
     </g>
    </g>
    <g id="xtick_3">
     <g id="line2d_3">
      <g>
       <use style="stroke:#000000;stroke-width:0.8;" x="159.587643" xlink:href="#mc899f0929d" y="167.824933"/>
      </g>
     </g>
     <g id="text_3">
      <!-- −1 -->
      <g transform="translate(152.21655 182.42337)scale(0.1 -0.1)">
       <defs>
        <path d="M 12.40625 8.296875 
L 28.515625 8.296875 
L 28.515625 63.921875 
L 10.984375 60.40625 
L 10.984375 69.390625 
L 28.421875 72.90625 
L 38.28125 72.90625 
L 38.28125 8.296875 
L 54.390625 8.296875 
L 54.390625 0 
L 12.40625 0 
z
" id="DejaVuSans-49"/>
       </defs>
       <use xlink:href="#DejaVuSans-8722"/>
       <use x="83.789062" xlink:href="#DejaVuSans-49"/>
      </g>
     </g>
    </g>
    <g id="xtick_4">
     <g id="line2d_4">
      <g>
       <use style="stroke:#000000;stroke-width:0.8;" x="226.8" xlink:href="#mc899f0929d" y="167.824933"/>
      </g>
     </g>
    </g>
    <g id="xtick_5">
     <g id="line2d_5">
      <g>
       <use style="stroke:#000000;stroke-width:0.8;" x="294.012357" xlink:href="#mc899f0929d" y="167.824933"/>
      </g>
     </g>
     <g id="text_4">
      <!-- 1 -->
      <g transform="translate(290.831107 182.42337)scale(0.1 -0.1)">
       <use xlink:href="#DejaVuSans-49"/>
      </g>
     </g>
    </g>
    <g id="xtick_6">
     <g id="line2d_6">
      <g>
       <use style="stroke:#000000;stroke-width:0.8;" x="361.224713" xlink:href="#mc899f0929d" y="167.824933"/>
      </g>
     </g>
     <g id="text_5">
      <!-- 2 -->
      <g transform="translate(358.043463 182.42337)scale(0.1 -0.1)">
       <use xlink:href="#DejaVuSans-50"/>
      </g>
     </g>
    </g>
    <g id="xtick_7">
     <g id="line2d_7">
      <g>
       <use style="stroke:#000000;stroke-width:0.8;" x="428.43707" xlink:href="#mc899f0929d" y="167.824933"/>
      </g>
     </g>
     <g id="text_6">
      <!-- 3 -->
      <g transform="translate(425.25582 182.42337)scale(0.1 -0.1)">
       <use xlink:href="#DejaVuSans-51"/>
      </g>
     </g>
    </g>
    <g id="xtick_8">
     <g id="line2d_8">
      <defs>
       <path d="M 0 0 
L 0 2 
" id="m6c581483ea" style="stroke:#000000;stroke-width:0.6;"/>
      </defs>
      <g>
       <use style="stroke:#000000;stroke-width:0.6;" x="11.720458" xlink:href="#m6c581483ea" y="167.824933"/>
      </g>
     </g>
    </g>
    <g id="xtick_9">
     <g id="line2d_9">
      <g>
       <use style="stroke:#000000;stroke-width:0.6;" x="38.605401" xlink:href="#m6c581483ea" y="167.824933"/>
      </g>
     </g>
    </g>
    <g id="xtick_10">
     <g id="line2d_10">
      <g>
       <use style="stroke:#000000;stroke-width:0.6;" x="52.047872" xlink:href="#m6c581483ea" y="167.824933"/>
      </g>
     </g>
    </g>
    <g id="xtick_11">
     <g id="line2d_11">
      <g>
       <use style="stroke:#000000;stroke-width:0.6;" x="65.490344" xlink:href="#m6c581483ea" y="167.824933"/>
      </g>
     </g>
    </g>
    <g id="xtick_12">
     <g id="line2d_12">
      <g>
       <use style="stroke:#000000;stroke-width:0.6;" x="78.932815" xlink:href="#m6c581483ea" y="167.824933"/>
      </g>
     </g>
    </g>
    <g id="xtick_13">
     <g id="line2d_13">
      <g>
       <use style="stroke:#000000;stroke-width:0.6;" x="105.817758" xlink:href="#m6c581483ea" y="167.824933"/>
      </g>
     </g>
    </g>
    <g id="xtick_14">
     <g id="line2d_14">
      <g>
       <use style="stroke:#000000;stroke-width:0.6;" x="119.260229" xlink:href="#m6c581483ea" y="167.824933"/>
      </g>
     </g>
    </g>
    <g id="xtick_15">
     <g id="line2d_15">
      <g>
       <use style="stroke:#000000;stroke-width:0.6;" x="132.702701" xlink:href="#m6c581483ea" y="167.824933"/>
      </g>
     </g>
    </g>
    <g id="xtick_16">
     <g id="line2d_16">
      <g>
       <use style="stroke:#000000;stroke-width:0.6;" x="146.145172" xlink:href="#m6c581483ea" y="167.824933"/>
      </g>
     </g>
    </g>
    <g id="xtick_17">
     <g id="line2d_17">
      <g>
       <use style="stroke:#000000;stroke-width:0.6;" x="173.030115" xlink:href="#m6c581483ea" y="167.824933"/>
      </g>
     </g>
    </g>
    <g id="xtick_18">
     <g id="line2d_18">
      <g>
       <use style="stroke:#000000;stroke-width:0.6;" x="186.472586" xlink:href="#m6c581483ea" y="167.824933"/>
      </g>
     </g>
    </g>
    <g id="xtick_19">
     <g id="line2d_19">
      <g>
       <use style="stroke:#000000;stroke-width:0.6;" x="199.915057" xlink:href="#m6c581483ea" y="167.824933"/>
      </g>
     </g>
    </g>
    <g id="xtick_20">
     <g id="line2d_20">
      <g>
       <use style="stroke:#000000;stroke-width:0.6;" x="213.357529" xlink:href="#m6c581483ea" y="167.824933"/>
      </g>
     </g>
    </g>
    <g id="xtick_21">
     <g id="line2d_21">
      <g>
       <use style="stroke:#000000;stroke-width:0.6;" x="240.242471" xlink:href="#m6c581483ea" y="167.824933"/>
      </g>
     </g>
    </g>
    <g id="xtick_22">
     <g id="line2d_22">
      <g>
       <use style="stroke:#000000;stroke-width:0.6;" x="253.684943" xlink:href="#m6c581483ea" y="167.824933"/>
      </g>
     </g>
    </g>
    <g id="xtick_23">
     <g id="line2d_23">
      <g>
       <use style="stroke:#000000;stroke-width:0.6;" x="267.127414" xlink:href="#m6c581483ea" y="167.824933"/>
      </g>
     </g>
    </g>
    <g id="xtick_24">
     <g id="line2d_24">
      <g>
       <use style="stroke:#000000;stroke-width:0.6;" x="280.569885" xlink:href="#m6c581483ea" y="167.824933"/>
      </g>
     </g>
    </g>
    <g id="xtick_25">
     <g id="line2d_25">
      <g>
       <use style="stroke:#000000;stroke-width:0.6;" x="307.454828" xlink:href="#m6c581483ea" y="167.824933"/>
      </g>
     </g>
    </g>
    <g id="xtick_26">
     <g id="line2d_26">
      <g>
       <use style="stroke:#000000;stroke-width:0.6;" x="320.897299" xlink:href="#m6c581483ea" y="167.824933"/>
      </g>
     </g>
    </g>
    <g id="xtick_27">
     <g id="line2d_27">
      <g>
       <use style="stroke:#000000;stroke-width:0.6;" x="334.339771" xlink:href="#m6c581483ea" y="167.824933"/>
      </g>
     </g>
    </g>
    <g id="xtick_28">
     <g id="line2d_28">
      <g>
       <use style="stroke:#000000;stroke-width:0.6;" x="347.782242" xlink:href="#m6c581483ea" y="167.824933"/>
      </g>
     </g>
    </g>
    <g id="xtick_29">
     <g id="line2d_29">
      <g>
       <use style="stroke:#000000;stroke-width:0.6;" x="374.667185" xlink:href="#m6c581483ea" y="167.824933"/>
      </g>
     </g>
    </g>
    <g id="xtick_30">
     <g id="line2d_30">
      <g>
       <use style="stroke:#000000;stroke-width:0.6;" x="388.109656" xlink:href="#m6c581483ea" y="167.824933"/>
      </g>
     </g>
    </g>
    <g id="xtick_31">
     <g id="line2d_31">
      <g>
       <use style="stroke:#000000;stroke-width:0.6;" x="401.552128" xlink:href="#m6c581483ea" y="167.824933"/>
      </g>
     </g>
    </g>
    <g id="xtick_32">
     <g id="line2d_32">
      <g>
       <use style="stroke:#000000;stroke-width:0.6;" x="414.994599" xlink:href="#m6c581483ea" y="167.824933"/>
      </g>
     </g>
    </g>
    <g id="xtick_33">
     <g id="line2d_33">
      <g>
       <use style="stroke:#000000;stroke-width:0.6;" x="441.879542" xlink:href="#m6c581483ea" y="167.824933"/>
      </g>
     </g>
    </g>
   </g>
   <g id="matplotlib.axis_2">
    <g id="ytick_1">
     <g id="line2d_34">
      <defs>
       <path d="M 0 0 
L -3.5 0 
" id="m0d2757ffcd" style="stroke:#000000;stroke-width:0.8;"/>
      </defs>
      <g>
       <use style="stroke:#000000;stroke-width:0.8;" x="226.8" xlink:href="#m0d2757ffcd" y="324.650647"/>
      </g>
     </g>
     <g id="text_7">
      <!-- −1.0 -->
      <g transform="translate(195.517187 328.449866)scale(0.1 -0.1)">
       <defs>
        <path d="M 10.6875 12.40625 
L 21 12.40625 
L 21 0 
L 10.6875 0 
z
" id="DejaVuSans-46"/>
        <path d="M 31.78125 66.40625 
Q 24.171875 66.40625 20.328125 58.90625 
Q 16.5 51.421875 16.5 36.375 
Q 16.5 21.390625 20.328125 13.890625 
Q 24.171875 6.390625 31.78125 6.390625 
Q 39.453125 6.390625 43.28125 13.890625 
Q 47.125 21.390625 47.125 36.375 
Q 47.125 51.421875 43.28125 58.90625 
Q 39.453125 66.40625 31.78125 66.40625 
z
M 31.78125 74.21875 
Q 44.046875 74.21875 50.515625 64.515625 
Q 56.984375 54.828125 56.984375 36.375 
Q 56.984375 17.96875 50.515625 8.265625 
Q 44.046875 -1.421875 31.78125 -1.421875 
Q 19.53125 -1.421875 13.0625 8.265625 
Q 6.59375 17.96875 6.59375 36.375 
Q 6.59375 54.828125 13.0625 64.515625 
Q 19.53125 74.21875 31.78125 74.21875 
z
" id="DejaVuSans-48"/>
       </defs>
       <use xlink:href="#DejaVuSans-8722"/>
       <use x="83.789062" xlink:href="#DejaVuSans-49"/>
       <use x="147.412109" xlink:href="#DejaVuSans-46"/>
       <use x="179.199219" xlink:href="#DejaVuSans-48"/>
      </g>
     </g>
    </g>
    <g id="ytick_2">
     <g id="line2d_35">
      <g>
       <use style="stroke:#000000;stroke-width:0.8;" x="226.8" xlink:href="#m0d2757ffcd" y="246.23779"/>
      </g>
     </g>
     <g id="text_8">
      <!-- −0.5 -->
      <g transform="translate(195.517187 250.037009)scale(0.1 -0.1)">
       <defs>
        <path d="M 10.796875 72.90625 
L 49.515625 72.90625 
L 49.515625 64.59375 
L 19.828125 64.59375 
L 19.828125 46.734375 
Q 21.96875 47.46875 24.109375 47.828125 
Q 26.265625 48.1875 28.421875 48.1875 
Q 40.625 48.1875 47.75 41.5 
Q 54.890625 34.8125 54.890625 23.390625 
Q 54.890625 11.625 47.5625 5.09375 
Q 40.234375 -1.421875 26.90625 -1.421875 
Q 22.3125 -1.421875 17.546875 -0.640625 
Q 12.796875 0.140625 7.71875 1.703125 
L 7.71875 11.625 
Q 12.109375 9.234375 16.796875 8.0625 
Q 21.484375 6.890625 26.703125 6.890625 
Q 35.15625 6.890625 40.078125 11.328125 
Q 45.015625 15.765625 45.015625 23.390625 
Q 45.015625 31 40.078125 35.4375 
Q 35.15625 39.890625 26.703125 39.890625 
Q 22.75 39.890625 18.8125 39.015625 
Q 14.890625 38.140625 10.796875 36.28125 
z
" id="DejaVuSans-53"/>
       </defs>
       <use xlink:href="#DejaVuSans-8722"/>
       <use x="83.789062" xlink:href="#DejaVuSans-48"/>
       <use x="147.412109" xlink:href="#DejaVuSans-46"/>
       <use x="179.199219" xlink:href="#DejaVuSans-53"/>
      </g>
     </g>
    </g>
    <g id="ytick_3">
     <g id="line2d_36">
      <g>
       <use style="stroke:#000000;stroke-width:0.8;" x="226.8" xlink:href="#m0d2757ffcd" y="167.824933"/>
      </g>
     </g>
    </g>
    <g id="ytick_4">
     <g id="line2d_37">
      <g>
       <use style="stroke:#000000;stroke-width:0.8;" x="226.8" xlink:href="#m0d2757ffcd" y="89.412076"/>
      </g>
     </g>
     <g id="text_9">
      <!-- 0.5 -->
      <g transform="translate(203.896875 93.211295)scale(0.1 -0.1)">
       <use xlink:href="#DejaVuSans-48"/>
       <use x="63.623047" xlink:href="#DejaVuSans-46"/>
       <use x="95.410156" xlink:href="#DejaVuSans-53"/>
      </g>
     </g>
    </g>
    <g id="ytick_5">
     <g id="line2d_38">
      <g>
       <use style="stroke:#000000;stroke-width:0.8;" x="226.8" xlink:href="#m0d2757ffcd" y="10.999219"/>
      </g>
     </g>
     <g id="text_10">
      <!-- 1.0 -->
      <g transform="translate(203.896875 14.798438)scale(0.1 -0.1)">
       <use xlink:href="#DejaVuSans-49"/>
       <use x="63.623047" xlink:href="#DejaVuSans-46"/>
       <use x="95.410156" xlink:href="#DejaVuSans-48"/>
      </g>
     </g>
    </g>
    <g id="ytick_6">
     <g id="line2d_39">
      <defs>
       <path d="M 0 0 
L -2 0 
" id="m917e3edccf" style="stroke:#000000;stroke-width:0.6;"/>
      </defs>
      <g>
       <use style="stroke:#000000;stroke-width:0.6;" x="226.8" xlink:href="#m917e3edccf" y="308.968075"/>
      </g>
     </g>
    </g>
    <g id="ytick_7">
     <g id="line2d_40">
      <g>
       <use style="stroke:#000000;stroke-width:0.6;" x="226.8" xlink:href="#m917e3edccf" y="293.285504"/>
      </g>
     </g>
    </g>
    <g id="ytick_8">
     <g id="line2d_41">
      <g>
       <use style="stroke:#000000;stroke-width:0.6;" x="226.8" xlink:href="#m917e3edccf" y="277.602933"/>
      </g>
     </g>
    </g>
    <g id="ytick_9">
     <g id="line2d_42">
      <g>
       <use style="stroke:#000000;stroke-width:0.6;" x="226.8" xlink:href="#m917e3edccf" y="261.920361"/>
      </g>
     </g>
    </g>
    <g id="ytick_10">
     <g id="line2d_43">
      <g>
       <use style="stroke:#000000;stroke-width:0.6;" x="226.8" xlink:href="#m917e3edccf" y="230.555218"/>
      </g>
     </g>
    </g>
    <g id="ytick_11">
     <g id="line2d_44">
      <g>
       <use style="stroke:#000000;stroke-width:0.6;" x="226.8" xlink:href="#m917e3edccf" y="214.872647"/>
      </g>
     </g>
    </g>
    <g id="ytick_12">
     <g id="line2d_45">
      <g>
       <use style="stroke:#000000;stroke-width:0.6;" x="226.8" xlink:href="#m917e3edccf" y="199.190076"/>
      </g>
     </g>
    </g>
    <g id="ytick_13">
     <g id="line2d_46">
      <g>
       <use style="stroke:#000000;stroke-width:0.6;" x="226.8" xlink:href="#m917e3edccf" y="183.507504"/>
      </g>
     </g>
    </g>
    <g id="ytick_14">
     <g id="line2d_47">
      <g>
       <use style="stroke:#000000;stroke-width:0.6;" x="226.8" xlink:href="#m917e3edccf" y="152.142361"/>
      </g>
     </g>
    </g>
    <g id="ytick_15">
     <g id="line2d_48">
      <g>
       <use style="stroke:#000000;stroke-width:0.6;" x="226.8" xlink:href="#m917e3edccf" y="136.45979"/>
      </g>
     </g>
    </g>
    <g id="ytick_16">
     <g id="line2d_49">
      <g>
       <use style="stroke:#000000;stroke-width:0.6;" x="226.8" xlink:href="#m917e3edccf" y="120.777219"/>
      </g>
     </g>
    </g>
    <g id="ytick_17">
     <g id="line2d_50">
      <g>
       <use style="stroke:#000000;stroke-width:0.6;" x="226.8" xlink:href="#m917e3edccf" y="105.094647"/>
      </g>
     </g>
    </g>
    <g id="ytick_18">
     <g id="line2d_51">
      <g>
       <use style="stroke:#000000;stroke-width:0.6;" x="226.8" xlink:href="#m917e3edccf" y="73.729504"/>
      </g>
     </g>
    </g>
    <g id="ytick_19">
     <g id="line2d_52">
      <g>
       <use style="stroke:#000000;stroke-width:0.6;" x="226.8" xlink:href="#m917e3edccf" y="58.046933"/>
      </g>
     </g>
    </g>
    <g id="ytick_20">
     <g id="line2d_53">
      <g>
       <use style="stroke:#000000;stroke-width:0.6;" x="226.8" xlink:href="#m917e3edccf" y="42.364362"/>
      </g>
     </g>
    </g>
    <g id="ytick_21">
     <g id="line2d_54">
      <g>
       <use style="stroke:#000000;stroke-width:0.6;" x="226.8" xlink:href="#m917e3edccf" y="26.68179"/>
      </g>
     </g>
    </g>
   </g>
   <g id="line2d_55">
    <path clip-path="url(#pfe77c32eb1)" d="M 15.646154 167.824933 
L 16.746516 167.887956 
L 17.846878 168.076714 
L 18.988403 168.404403 
L 20.129927 168.864647 
L 21.731316 169.728873 
L 23.994341 171.36832 
L 26.197198 173.404253 
L 28.429095 175.86746 
L 30.494662 178.461945 
L 33.679776 182.943803 
L 38.361033 190.213601 
L 43.866677 198.937266 
L 46.701555 203.123657 
L 48.948584 206.14405 
L 50.844707 208.421451 
L 53.766617 211.330001 
L 54.792402 212.152485 
L 57.456934 213.741436 
L 58.628833 214.170027 
L 59.800731 214.422082 
L 60.948862 214.49092 
L 62.096993 214.377353 
L 63.546594 213.965115 
L 64.685341 213.425268 
L 66.64796 212.03757 
L 68.2957 210.417423 
L 69.966312 208.345846 
L 71.50218 206.059552 
L 74.132336 201.302438 
L 75.226624 199.015665 
L 76.729909 195.587643 
L 79.172253 189.337927 
L 81.172624 183.628359 
L 83.814975 175.345329 
L 87.078117 164.111287 
L 91.654699 146.953689 
L 103.455461 100.947862 
L 106.287726 90.874135 
L 108.352899 84.057684 
L 110.99534 76.142204 
L 113.461292 69.714053 
L 115.034247 66.159664 
L 116.644381 63.000972 
L 118.254515 60.358451 
L 119.502587 58.683364 
L 121.213381 56.940416 
L 122.127032 56.280065 
L 123.040684 55.812804 
L 123.954335 55.541882 
L 124.867986 55.470168 
L 125.820424 55.610161 
L 126.772862 55.971686 
L 127.528354 56.41727 
L 128.283846 57.004154 
L 129.206671 57.913487 
L 130.767175 59.933981 
L 132.042535 62.035663 
L 132.680215 63.237874 
L 133.925186 65.873984 
L 136.053298 71.253998 
L 137.945434 76.942024 
L 139.490175 82.196069 
L 141.034916 87.977633 
L 142.838861 95.365905 
L 145.634945 108.075504 
L 148.452535 122.261871 
L 150.91595 135.627779 
L 154.899591 158.703473 
L 161.560867 199.40413 
L 167.494279 235.126756 
L 170.112434 249.954364 
L 173.807246 269.273796 
L 175.913019 279.230205 
L 177.76813 287.258421 
L 179.623241 294.519539 
L 181.52739 301.109431 
L 183.079888 305.793196 
L 184.402403 309.270827 
L 185.063661 310.827377 
L 186.205358 313.221942 
L 188.117114 316.380584 
L 188.887172 317.345354 
L 189.65723 318.130677 
L 190.427289 318.734983 
L 191.082817 319.105775 
L 192.32751 319.443827 
L 192.916675 319.435861 
L 193.935659 319.16642 
L 194.954642 318.572565 
L 195.973626 317.654496 
L 196.99261 316.413183 
L 198.353734 314.253937 
L 199.300967 312.416037 
L 200.997647 308.446286 
L 202.496542 304.229945 
L 204.352099 298.116518 
L 206.565664 289.584886 
L 208.695957 280.175945 
L 210.106276 273.343084 
L 212.74536 259.375854 
L 215.95984 240.541262 
L 219.593194 217.334843 
L 223.575413 190.312272 
L 233.031476 124.811964 
L 235.761353 106.891674 
L 239.023334 86.781518 
L 241.136205 74.715014 
L 244.030659 59.650943 
L 246.59846 47.897255 
L 248.758013 39.307741 
L 250.061633 34.732816 
L 252.220252 28.215936 
L 253.29571 25.477113 
L 254.289528 23.253655 
L 256.044618 20.060202 
L 257.60242 18.020845 
L 258.398951 17.269608 
L 259.195481 16.716394 
L 259.992012 16.361427 
L 260.60768 16.222867 
L 261.223348 16.202569 
L 261.949488 16.330281 
L 262.675629 16.621565 
L 263.401769 17.075639 
L 264.127909 17.691525 
L 265.527208 19.330235 
L 266.926508 21.554982 
L 267.935769 23.516214 
L 269.26681 26.549058 
L 271.052761 31.391703 
L 273.013345 37.682942 
L 274.656734 43.698704 
L 277.066443 53.652909 
L 279.005303 62.554051 
L 281.997858 77.651275 
L 284.765911 92.835717 
L 287.901237 111.097072 
L 293.492957 145.202238 
L 298.570124 176.168221 
L 302.815957 200.75773 
L 306.354243 219.620145 
L 309.109844 232.954085 
L 311.495314 243.371259 
L 313.264714 250.354715 
L 315.107138 256.907568 
L 317.156921 263.292834 
L 318.688032 267.417189 
L 320.34846 271.249569 
L 322.032452 274.444191 
L 323.610693 276.798929 
L 324.399814 277.743508 
L 325.590849 278.875487 
L 326.453749 279.475577 
L 327.316649 279.891785 
L 328.252397 280.136756 
L 329.188145 280.168961 
L 330.149542 279.983033 
L 331.110938 279.578236 
L 332.136716 278.909054 
L 333.162493 277.999757 
L 334.673354 276.234949 
L 336.184215 273.981124 
L 337.885463 270.885803 
L 339.133729 268.258557 
L 340.381994 265.346708 
L 341.894158 261.461021 
L 344.79483 253.015215 
L 347.413327 244.429727 
L 350.71766 232.579772 
L 355.004663 216.090941 
L 364.180784 180.151096 
L 367.260909 168.908286 
L 370.371406 158.398347 
L 372.356501 152.233026 
L 374.8444 145.1881 
L 377.292682 139.065545 
L 379.625065 134.033201 
L 381.453265 130.658328 
L 382.438281 129.052019 
L 383.88182 126.96895 
L 385.325359 125.209092 
L 387.343287 123.288926 
L 388.565495 122.428862 
L 389.787703 121.793531 
L 390.924875 121.400481 
L 392.580464 121.160609 
L 394.929398 121.467776 
L 396.643634 122.1434 
L 398.620132 123.359194 
L 400.596631 125.001912 
L 403.290727 127.843257 
L 406.252918 131.627126 
L 409.462192 136.29821 
L 421.682821 155.249961 
L 424.327079 158.756408 
L 426.386886 161.171518 
L 428.025014 162.862421 
L 429.663142 164.329024 
L 430.859908 165.249192 
L 432.350928 166.207685 
L 433.841948 166.949574 
L 435.284058 167.454673 
L 436.618952 167.732199 
L 437.953846 167.824933 
L 437.953846 167.824933 
" style="fill:none;stroke:#000000;stroke-linecap:square;"/>
   </g>
   <g id="patch_3">
    <path d="M 226.8 325.508653 
L 226.8 10.137744 
" style="fill:none;stroke:#000000;stroke-linecap:square;stroke-linejoin:miter;stroke-width:0.8;"/>
   </g>
   <g id="patch_4">
    <path d="M 7.2 167.824933 
L 446.4 167.824933 
" style="fill:none;stroke:#000000;stroke-linecap:square;stroke-linejoin:miter;stroke-width:0.8;"/>
   </g>
  </g>
 </g>
 <defs>
  <clipPath id="pfe77c32eb1">
   <rect height="315.370909" width="439.2" x="7.2" y="10.137744"/>
  </clipPath>
 </defs>
</svg>
