<?xml version="1.0" encoding="utf-8" standalone="no"?>
<!DOCTYPE svg PUBLIC "-//W3C//DTD SVG 1.1//EN"
  "http://www.w3.org/Graphics/SVG/1.1/DTD/svg11.dtd">
<!-- Created with matplotlib (https://matplotlib.org/) -->
<svg height="338.4pt" version="1.1" viewBox="0 0 338.4 338.4" width="338.4pt" xmlns="http://www.w3.org/2000/svg" xmlns:xlink="http://www.w3.org/1999/xlink">
 <metadata>
  <rdf:RDF xmlns:cc="http://creativecommons.org/ns#" xmlns:dc="http://purl.org/dc/elements/1.1/" xmlns:rdf="http://www.w3.org/1999/02/22-rdf-syntax-ns#">
   <cc:Work>
    <dc:type rdf:resource="http://purl.org/dc/dcmitype/StillImage"/>
    <dc:date>2024-08-21T15:23:39.313928</dc:date>
    <dc:format>image/svg+xml</dc:format>
    <dc:creator>
     <cc:Agent>
      <dc:title>Matplotlib v3.3.4, https://matplotlib.org/</dc:title>
     </cc:Agent>
    </dc:creator>
   </cc:Work>
  </rdf:RDF>
 </metadata>
 <defs>
  <style type="text/css">*{stroke-linecap:butt;stroke-linejoin:round;}</style>
 </defs>
 <g id="figure_1">
  <g id="patch_1">
   <path d="M -0 338.4 
L 338.4 338.4 
L 338.4 0 
L -0 0 
z
" style="fill:#ffffff;"/>
  </g>
  <g id="axes_1">
   <g id="patch_2">
    <path d="M 7.2 331.2 
L 331.2 331.2 
L 331.2 7.2 
L 7.2 7.2 
z
" style="fill:#ffffff;"/>
   </g>
   <g id="patch_3">
    <path clip-path="url(#pa2b7fa459b)" d="M 13.430769 324.969231 
L 13.430769 13.430769 
L 324.969231 13.430769 
L 324.969231 324.969231 
z
" style="fill:none;stroke:#000000;stroke-linejoin:miter;"/>
   </g>
   <g id="patch_4">
    <path clip-path="url(#pa2b7fa459b)" d="M 200.353846 146.393802 
L 200.013943 146.198981 
L 199.601639 145.96645 
L 198.887287 145.573252 
L 198.551063 145.392372 
L 198.192919 145.202607 
L 197.700568 144.946571 
L 197.101289 144.642388 
L 196.453652 144.322721 
L 196.260734 144.229295 
L 195.758537 143.989916 
L 195.206987 143.73331 
L 194.8484 143.569974 
L 194.295184 143.323326 
L 193.961056 143.177464 
L 193.421856 142.946963 
L 192.905607 142.731865 
L 192.352432 142.507382 
L 192.039254 142.383017 
L 191.548309 142.191989 
L 191.009176 141.987688 
L 190.388431 141.759487 
L 189.909612 141.588546 
L 189.649189 141.497418 
L 188.855123 141.227501 
L 188.56287 141.13115 
L 188.019119 140.956125 
L 187.762449 140.875413 
L 187.125935 140.68049 
L 186.821908 140.590003 
L 186.247247 140.423554 
L 185.612803 140.246705 
L 185.168957 140.127266 
L 184.989086 140.079861 
L 184.493411 139.95219 
L 183.967819 139.82154 
L 183.372156 139.679317 
L 182.814196 139.55169 
L 182.394317 139.459195 
L 181.95023 139.364666 
L 181.669354 139.306621 
L 181.306827 139.233692 
L 180.721694 139.120693 
L 180.356912 139.053179 
L 179.837509 138.960916 
L 179.163393 138.847917 
L 178.720985 138.777882 
L 178.290622 138.712877 
L 177.733577 138.633294 
L 177.418995 138.590616 
L 176.663008 138.494716 
L 176.181318 138.438503 
L 176.000677 138.418401 
L 175.263852 138.341926 
L 174.763705 138.295054 
L 174.498063 138.271811 
L 174.259385 138.251905 
L 173.44608 138.191001 
L 173.181104 138.173469 
L 172.718629 138.145585 
L 172.374198 138.127059 
L 171.478559 138.087831 
L 171.167601 138.077229 
L 170.646854 138.062955 
L 170.234128 138.054736 
L 169.689363 138.048076 
L 169.192905 138.046154 
L 169.021477 138.04641 
L 168.256675 138.053295 
L 168.070593 138.056391 
L 167.586089 138.067059 
L 166.78934 138.092805 
L 166.702549 138.096226 
L 165.846897 138.136443 
L 165.761421 138.141109 
L 165.011262 138.187111 
L 164.654178 138.212201 
L 164.193082 138.247652 
L 163.875587 138.274066 
L 163.422269 138.314614 
L 162.76444 138.379399 
L 162.42318 138.415786 
L 161.692965 138.500043 
L 161.504177 138.523248 
L 160.897974 138.601722 
L 160.542498 138.650555 
L 159.984501 138.731422 
L 159.337409 138.831673 
L 159.073677 138.874532 
L 158.422258 138.985379 
L 158.029226 139.055703 
L 157.483338 139.1577 
L 157.007637 139.250697 
L 156.492694 139.355708 
L 156.177723 139.422173 
L 155.801736 139.503743 
L 155.441769 139.58412 
L 154.651092 139.768553 
L 154.479409 139.810038 
L 153.646119 140.018738 
L 153.177493 140.14149 
L 152.870175 140.224109 
L 152.403413 140.35282 
L 151.963292 140.477771 
L 151.42794 140.634482 
L 151.127023 140.72486 
L 150.372993 140.958625 
L 150.232295 141.003406 
L 149.740134 141.16295 
L 149.299095 141.309774 
L 148.827961 141.470669 
L 148.381444 141.627053 
L 147.563949 141.923291 
L 147.450603 141.965386 
L 146.728125 142.239619 
L 146.467941 142.340899 
L 146.055481 142.504216 
L 145.257828 142.829756 
L 144.92609 142.968954 
L 144.273922 143.249213 
L 144.026997 143.357632 
L 143.330091 143.670548 
L 142.885947 143.875362 
L 142.685643 143.96912 
L 141.998779 144.297249 
L 141.835188 144.376926 
L 141.20793 144.687945 
L 140.68519 144.953899 
L 140.072661 145.273481 
L 139.667658 145.489565 
L 139.149767 145.771505 
L 138.994406 145.857327 
L 138.40046 146.190788 
L 137.973155 146.436014 
L 137.431173 146.753565 
L 136.797916 147.133986 
L 136.554253 147.283103 
L 136.186499 147.511086 
L 135.482679 147.957369 
L 134.962276 148.295929 
L 134.786865 148.411718 
L 134.059777 148.900826 
L 133.679852 149.162366 
L 133.219949 149.484558 
L 132.785167 149.794886 
L 132.066484 150.320352 
L 131.618906 150.655658 
L 131.227703 150.953915 
L 130.655303 151.399226 
L 130.555736 151.477785 
L 129.746179 152.128909 
L 129.628922 152.225079 
L 129.14136 152.630122 
L 128.634726 153.060009 
L 127.831786 153.76072 
L 127.511551 154.047025 
L 126.921365 154.585237 
L 126.763933 154.731169 
L 126.015992 155.438482 
L 125.789514 155.657333 
L 125.156432 156.281035 
L 124.77169 156.668908 
L 124.39624 157.054059 
L 123.958343 157.511799 
L 123.392556 158.117291 
L 122.750052 158.82493 
L 122.418536 159.198735 
L 121.886946 159.810987 
L 121.526905 160.234966 
L 121.082992 160.768469 
L 120.583671 161.383331 
L 120.017815 162.099942 
L 119.676308 162.5431 
L 119.286368 163.059372 
L 118.896427 163.587026 
L 118.841734 163.661973 
L 118.206551 164.549983 
L 117.764374 165.188168 
L 117.375971 165.763117 
L 117.000532 166.332323 
L 116.625093 166.91543 
L 116.384716 167.296406 
L 116.042514 167.849536 
L 115.700311 168.41591 
L 115.339161 169.028799 
L 114.896082 169.803347 
L 114.604491 170.327542 
L 114.312901 170.863934 
L 113.888765 171.667337 
L 113.58706 172.256704 
L 113.285355 172.862012 
L 112.972953 173.506728 
L 112.639317 174.216944 
L 112.305681 174.951386 
L 111.923068 175.826279 
L 111.720503 176.304813 
L 111.492485 176.857225 
L 111.264466 177.425208 
L 111.072861 177.915393 
L 110.881255 178.418201 
L 110.68965 178.934521 
L 110.498045 179.465357 
L 110.351901 179.880699 
L 110.205757 180.305709 
L 110.03199 180.824508 
L 109.858222 181.359059 
L 109.684455 181.910733 
L 109.510688 182.481115 
L 109.445694 182.699628 
L 109.328319 183.101881 
L 109.210943 183.514559 
L 109.093568 183.938447 
L 108.976192 184.374437 
L 108.853298 184.845008 
L 108.730403 185.331316 
L 108.607509 185.834943 
L 108.484615 186.357758 
L 108.389816 186.775555 
L 108.295017 187.207306 
L 108.200218 187.654433 
L 108.105419 188.118624 
L 108.01062 188.601898 
L 107.915821 189.106717 
L 107.821022 189.636123 
L 107.726223 190.193961 
L 107.640361 190.727871 
L 107.554499 191.294002 
L 107.511568 191.591088 
L 107.468637 191.898824 
L 107.425707 192.218418 
L 107.382776 192.551328 
L 107.321467 193.053457 
L 107.290813 193.318147 
L 107.260159 193.593331 
L 107.229504 193.880347 
L 107.19885 194.180846 
L 107.168196 194.496902 
L 107.137542 194.831185 
L 107.106887 195.187233 
L 107.076233 195.569903 
L 107.060906 195.773287 
L 107.045579 195.986185 
L 107.030252 196.210064 
L 107.014925 196.446811 
L 106.999598 196.698924 
L 106.98427 196.969838 
L 106.968943 197.264493 
L 106.953616 197.590475 
L 106.938289 197.960549 
L 106.922962 198.399607 
L 106.907635 198.971905 
L 106.892308 200.353846 
L 106.892308 84.086109 
L 107.349368 83.824794 
L 107.777285 83.584754 
L 108.07979 83.417722 
L 108.949051 82.94981 
L 109.184253 82.826237 
L 109.677882 82.571027 
L 110.279474 82.267484 
L 110.680142 82.06982 
L 111.092849 81.869932 
L 111.405449 81.721014 
L 111.862415 81.507138 
L 112.302383 81.305456 
L 112.883203 81.045501 
L 113.503543 80.775666 
L 113.7311 80.678683 
L 114.267572 80.454248 
L 114.972856 80.16808 
L 115.216779 80.071434 
L 115.743936 79.866608 
L 116.136859 79.717504 
L 116.525046 79.573165 
L 117.089685 79.368433 
L 117.607698 79.185997 
L 118.087344 79.02163 
L 118.775325 78.793444 
L 119.160356 78.6696 
L 119.524152 78.555113 
L 119.812415 78.46613 
L 120.70313 78.200786 
L 120.992981 78.117548 
L 121.636979 77.938022 
L 121.875103 77.873522 
L 122.162069 77.797134 
L 122.707504 77.65597 
L 123.237278 77.523879 
L 123.673692 77.41876 
L 124.35276 77.261785 
L 124.781408 77.166806 
L 125.172974 77.082806 
L 125.736176 76.966591 
L 125.968135 76.9203 
L 126.562944 76.805772 
L 126.915029 76.740799 
L 127.472829 76.642137 
L 127.82216 76.583007 
L 128.424523 76.485836 
L 129.068791 76.388588 
L 129.603239 76.313134 
L 130.04729 76.254029 
L 130.257278 76.227209 
L 130.914418 76.147956 
L 131.181079 76.117814 
L 131.583023 76.074576 
L 132.064362 76.026264 
L 132.904982 75.95093 
L 133.024761 75.941129 
L 133.436536 75.909209 
L 133.968485 75.872034 
L 134.803064 75.82292 
L 134.982655 75.813819 
L 135.68946 75.783047 
L 135.982688 75.772639 
L 136.594288 75.755379 
L 136.960366 75.747923 
L 137.405169 75.741759 
L 138.09139 75.738478 
L 138.298105 75.738971 
L 138.807948 75.743119 
L 139.137785 75.748025 
L 139.692909 75.760227 
L 140.03722 75.770282 
L 140.678891 75.794108 
L 141.242869 75.82052 
L 141.707539 75.846132 
L 141.972575 75.8623 
L 142.721472 75.914118 
L 143.075393 75.941764 
L 143.305996 75.960869 
L 144.203731 76.04347 
L 144.4197 76.065298 
L 144.731406 76.098144 
L 145.483203 76.183897 
L 145.868335 76.231414 
L 146.316152 76.289732 
L 146.761951 76.35107 
L 147.299473 76.429398 
L 147.550707 76.467651 
L 148.115331 76.557454 
L 148.752974 76.665273 
L 148.96022 76.701784 
L 149.679213 76.83406 
L 150.157412 76.926877 
L 150.657778 77.028161 
L 150.914273 77.081738 
L 151.673369 77.246914 
L 152.124103 77.349697 
L 152.431679 77.421858 
L 152.744099 77.496844 
L 153.304309 77.635582 
L 153.942495 77.800367 
L 154.345428 77.908128 
L 154.70152 78.005773 
L 155.333299 78.184621 
L 155.779231 78.315203 
L 156.181936 78.436239 
L 156.848911 78.643251 
L 157.069998 78.713685 
L 157.426302 78.829109 
L 158.037175 79.032532 
L 158.610504 79.229863 
L 159.035287 79.380109 
L 159.709346 79.625655 
L 159.855473 79.68005 
L 160.547158 79.943199 
L 160.887221 80.076039 
L 161.561374 80.346215 
L 162.019482 80.535041 
L 162.261985 80.636729 
L 162.930546 80.923343 
L 163.080592 80.988942 
L 163.576153 81.208951 
L 163.973237 81.388984 
L 164.473405 81.620549 
L 165.180953 81.957374 
L 165.601109 82.162588 
L 165.908372 82.315145 
L 166.332806 82.529365 
L 167.123422 82.939339 
L 167.475284 83.126442 
L 167.863752 83.33638 
L 168.36079 83.610216 
L 169.072339 84.012605 
L 169.170173 84.0689 
L 169.616651 84.328817 
L 170.308674 84.741573 
L 170.674874 84.964941 
L 171.012762 85.174127 
L 171.7188 85.620955 
L 172.227378 85.951121 
L 172.848576 86.364049 
L 173.275484 86.654103 
L 173.790396 87.010895 
L 174.008153 87.164102 
L 174.659392 87.630687 
L 174.849751 87.769482 
L 175.307799 88.108009 
L 176.12842 88.730948 
L 176.545165 89.055597 
L 177.022162 89.434228 
L 177.243631 89.61263 
L 177.605305 89.907582 
L 178.168514 90.375987 
L 178.863988 90.970121 
L 179.433974 91.470443 
L 179.66409 91.675949 
L 180.169201 92.13431 
L 180.839843 92.758753 
L 181.223298 93.124191 
L 181.710417 93.597524 
L 182.0272 93.910952 
L 182.272987 94.157251 
L 182.994867 94.896859 
L 183.26306 95.177985 
L 184.051041 96.024744 
L 184.335094 96.33785 
L 184.626341 96.663372 
L 185.065519 97.163054 
L 185.504697 97.673697 
L 185.872362 98.109925 
L 186.188216 98.49125 
L 186.901544 99.37576 
L 187.2379 99.804545 
L 187.793471 100.530118 
L 188.224467 101.108565 
L 188.611599 101.640326 
L 188.998322 102.183567 
L 189.613655 103.074145 
L 190.10576 103.810997 
L 190.301406 104.110375 
L 190.64018 104.637817 
L 190.978953 105.177212 
L 191.531951 106.084958 
L 191.86843 106.654896 
L 192.202444 107.234715 
L 192.625739 107.990914 
L 192.887028 108.470369 
L 193.148317 108.960073 
L 193.567936 109.769305 
L 193.845429 110.320906 
L 194.122922 110.886541 
L 194.424752 111.518768 
L 194.726582 112.169956 
L 195.069975 112.93575 
L 195.298172 113.460488 
L 195.526369 113.998838 
L 195.83038 114.738822 
L 196.134391 115.507182 
L 196.415726 116.246118 
L 196.583624 116.701059 
L 196.751522 117.16726 
L 196.919421 117.645493 
L 197.087319 118.136625 
L 197.255945 118.643855 
L 197.424571 119.166213 
L 197.616119 119.779579 
L 197.807668 120.416351 
L 197.999217 121.079163 
L 198.190765 121.771197 
L 198.307812 122.210087 
L 198.415165 122.624381 
L 198.522517 123.050886 
L 198.629869 123.490673 
L 198.737221 123.944987 
L 198.844573 124.415278 
L 198.951925 124.903263 
L 199.059277 125.410992 
L 199.166629 125.940947 
L 199.289989 126.581374 
L 199.351669 126.915909 
L 199.413349 127.261169 
L 199.489838 127.705835 
L 199.566327 128.171094 
L 199.642816 128.660009 
L 199.719305 129.176491 
L 199.758964 129.456766 
L 199.798623 129.74669 
L 199.838282 130.047313 
L 199.87794 130.359888 
L 199.917599 130.685939 
L 199.957258 131.027344 
L 199.996917 131.386463 
L 200.036576 131.766335 
L 200.076235 132.170985 
L 200.115893 132.605937 
L 200.135723 132.837127 
L 200.155552 133.079146 
L 200.175382 133.333661 
L 200.195211 133.602819 
L 200.21504 133.889464 
L 200.23487 134.1975 
L 200.254699 134.53255 
L 200.274529 134.903241 
L 200.294358 135.324094 
L 200.314187 135.823425 
L 200.334017 136.474322 
L 200.353846 138.046154 
z
" style="fill:#808080;opacity:0.5;"/>
   </g>
   <g id="patch_5">
    <path clip-path="url(#pa2b7fa459b)" d="M 75.738462 138.046154 
L 75.738462 138.046154 
L 75.74185 137.396371 
L 75.745238 137.127235 
L 75.748626 136.920728 
L 75.752015 136.746642 
L 75.755403 136.593275 
L 75.758791 136.454626 
L 75.762179 136.327131 
L 75.765568 136.208466 
L 75.768956 136.097018 
L 75.772344 135.991613 
L 75.775732 135.891362 
L 75.779121 135.795578 
L 75.782509 135.703712 
L 75.785897 135.61532 
L 75.792674 135.447554 
L 75.79945 135.289997 
L 75.806227 135.140989 
L 75.813003 134.999274 
L 75.81978 134.863878 
L 75.826556 134.734027 
L 75.833333 134.60909 
L 75.840109 134.488552 
L 75.846886 134.371978 
L 75.858864 134.174518 
L 75.870843 133.986686 
L 75.882822 133.807203 
L 75.894801 133.63505 
L 75.90678 133.469398 
L 75.918758 133.309567 
L 75.930737 133.154985 
L 75.942716 133.005169 
L 75.954695 132.859707 
L 75.966674 132.718242 
L 75.978652 132.580463 
L 75.990631 132.446099 
L 76.014589 132.186679 
L 76.038546 131.938362 
L 76.054641 131.777118 
L 76.070735 131.619958 
L 76.086829 131.466591 
L 76.102924 131.316757 
L 76.135113 131.026788 
L 76.167301 130.748473 
L 76.197304 130.498421 
L 76.227306 130.256507 
L 76.257309 130.021995 
L 76.287311 129.794255 
L 76.317313 129.572739 
L 76.347316 129.356972 
L 76.377318 129.146536 
L 76.40732 128.941061 
L 76.455295 128.622003 
L 76.503269 128.313636 
L 76.551244 128.014973 
L 76.599219 127.725172 
L 76.658035 127.380915 
L 76.71685 127.047742 
L 76.759798 126.810892 
L 76.802746 126.579094 
L 76.845693 126.352047 
L 76.888641 126.12948 
L 76.959234 125.772739 
L 77.029827 125.426472 
L 77.077123 125.199918 
L 77.124419 124.977462 
L 77.196893 124.644063 
L 77.269368 124.319142 
L 77.343688 123.994138 
L 77.418007 123.676869 
L 77.470238 123.458251 
L 77.522468 123.243046 
L 77.626929 122.822297 
L 77.735477 122.397808 
L 77.830748 122.035114 
L 77.926019 121.681011 
L 78.018554 121.344783 
L 78.111089 121.015694 
L 78.182702 120.765654 
L 78.254315 120.519472 
L 78.327202 120.272708 
L 78.40009 120.029619 
L 78.526836 119.61522 
L 78.637479 119.261644 
L 78.748121 118.915241 
L 78.847055 118.611256 
L 78.94599 118.312449 
L 78.963049 118.261431 
L 79.087338 117.894067 
L 79.211628 117.534034 
L 79.272363 117.360651 
L 79.389198 117.031634 
L 79.506033 116.70833 
L 79.63581 116.355597 
L 79.754365 116.038977 
L 79.872919 115.727478 
L 79.942399 115.547216 
L 80.124341 115.082875 
L 80.201538 114.889104 
L 80.324833 114.583467 
L 80.448129 114.2824 
L 80.649168 113.800855 
L 80.759343 113.541667 
L 80.841986 113.349359 
L 80.957424 113.083673 
L 81.072862 112.821313 
L 81.25202 112.420485 
L 81.30931 112.29389 
L 81.446092 111.994637 
L 81.582874 111.699493 
L 81.691647 111.467627 
L 81.796083 111.24731 
L 82.002079 110.819142 
L 82.192277 110.431068 
L 82.255316 110.303932 
L 82.506721 109.803988 
L 82.596534 109.628058 
L 82.765435 109.300882 
L 82.884477 109.073099 
L 83.097379 108.671324 
L 83.246759 108.393584 
L 83.370348 108.166315 
L 83.505844 107.919702 
L 83.735874 107.506966 
L 83.801321 107.390866 
L 84.063922 106.930769 
L 84.19803 106.699254 
L 84.378702 106.390931 
L 84.437769 106.291003 
L 84.687007 105.873961 
L 84.785515 105.711144 
L 85.025004 105.319923 
L 85.168906 105.087919 
L 85.247227 104.962595 
L 85.446076 104.647347 
L 85.647309 104.332513 
L 85.741959 104.185857 
L 85.879725 103.973992 
L 86.033342 103.739945 
L 86.226648 103.448648 
L 86.423665 103.155365 
L 86.573156 102.9352 
L 86.711925 102.732623 
L 86.825272 102.568418 
L 86.935739 102.409458 
L 87.22041 102.004618 
L 87.2798 101.921013 
L 87.51655 101.590597 
L 87.620514 101.446928 
L 87.727536 101.299926 
L 87.931433 101.022334 
L 88.05048 100.861733 
L 88.224695 100.628635 
L 88.39561 100.402136 
L 88.583299 100.155858 
L 88.670438 100.042375 
L 88.929238 99.708482 
L 89.057653 99.544526 
L 89.159649 99.415103 
L 89.425857 99.080589 
L 89.514059 98.970787 
L 89.719225 98.71733 
L 89.895902 98.501221 
L 90.050215 98.314071 
L 90.163036 98.178177 
L 90.333458 97.974379 
L 90.422455 97.86865 
L 90.580263 97.682336 
L 90.832511 97.38757 
L 90.983991 97.212328 
L 91.07031 97.113055 
L 91.244678 96.913801 
L 91.460548 96.669471 
L 91.573211 96.542972 
L 91.682338 96.4211 
L 91.821253 96.266888 
L 92.009203 96.059875 
L 92.127514 95.930515 
L 92.367153 95.67072 
L 92.498145 95.529952 
L 92.646502 95.37157 
L 92.824949 95.18252 
L 92.917438 95.085154 
L 93.040307 94.956453 
L 93.276638 94.71096 
L 93.45072 94.531837 
L 93.641262 94.337412 
L 93.726843 94.250638 
L 93.920025 94.056004 
L 94.028991 93.946971 
L 94.22812 93.749106 
L 94.43219 93.548168 
L 94.58339 93.400475 
L 94.700382 93.286881 
L 94.785999 93.204125 
L 95.027053 92.972819 
L 95.134029 92.870961 
L 95.264027 92.74783 
L 95.448682 92.574141 
L 95.584331 92.447447 
L 95.815812 92.232982 
L 95.908432 92.147778 
L 96.115845 91.958219 
L 96.305187 91.786666 
L 96.352208 91.744281 
L 96.550253 91.566709 
L 96.776359 91.365831 
L 96.821686 91.325797 
L 96.977235 91.189004 
L 97.191251 91.002286 
L 97.330351 90.881846 
L 97.427754 90.797936 
L 97.66101 90.598407 
L 97.850892 90.437442 
L 98.004691 90.308016 
L 98.079668 90.245228 
L 98.257309 90.09726 
L 98.462582 89.927661 
L 98.653493 89.771246 
L 98.74651 89.695492 
L 98.912225 89.561269 
L 99.092579 89.41625 
L 99.282912 89.264399 
L 99.445971 89.135272 
L 99.508572 89.085933 
L 99.67506 88.955343 
L 99.816457 88.845149 
L 100.012342 88.693568 
L 100.159963 88.580154 
L 100.297292 88.475276 
L 100.469637 88.344505 
L 100.602535 88.244307 
L 100.782213 88.109722 
L 100.900062 88.021996 
L 101.077302 87.89087 
L 101.233782 87.775906 
L 101.373901 87.673598 
L 101.568521 87.532484 
L 101.752387 87.400216 
L 101.855463 87.326509 
L 102.099012 87.153605 
L 102.244002 87.051503 
L 102.350332 86.977016 
L 102.484272 86.883657 
L 102.691033 86.74056 
L 102.887181 86.605944 
L 102.993819 86.53322 
L 103.082334 86.4731 
L 103.232602 86.371546 
L 103.504672 86.189288 
L 103.561894 86.151218 
L 103.712618 86.051377 
L 103.972027 85.881009 
L 104.031636 85.84212 
L 104.248465 85.701481 
L 104.34495 85.639309 
L 104.564043 85.499063 
L 104.697611 85.414194 
L 104.915029 85.277062 
L 104.980588 85.235957 
L 105.148959 85.130909 
L 105.255778 85.06465 
L 105.430542 84.956886 
L 105.568017 84.872672 
L 105.867102 84.691144 
L 105.887501 84.678846 
L 106.041759 84.586195 
L 106.222341 84.478501 
L 106.479588 84.326507 
L 106.553893 84.282913 
L 106.668666 84.215848 
L 106.892308 84.086109 
L 106.892308 138.046154 
z
" style="fill:#808080;opacity:0.5;"/>
   </g>
   <g id="patch_6">
    <path clip-path="url(#pa2b7fa459b)" d="M 75.738462 138.046154 
L 75.738462 138.046154 
L 75.743222 138.816363 
L 75.747983 139.135374 
L 75.752743 139.380145 
L 75.757504 139.586485 
L 75.762265 139.768263 
L 75.767025 139.932594 
L 75.771786 140.083703 
L 75.776546 140.224344 
L 75.781307 140.356429 
L 75.786068 140.481351 
L 75.790828 140.600162 
L 75.795589 140.713677 
L 75.800349 140.822547 
L 75.80511 140.927298 
L 75.809871 141.028364 
L 75.814631 141.126109 
L 75.824153 141.312815 
L 75.833674 141.489385 
L 75.843195 141.657307 
L 75.852716 141.817736 
L 75.862237 141.971591 
L 75.871759 142.119617 
L 75.88128 142.262427 
L 75.890801 142.400536 
L 75.90663 142.620882 
L 75.92246 142.83104 
L 75.938289 143.032298 
L 75.954118 143.225693 
L 75.969947 143.412076 
L 75.985777 143.592153 
L 76.001606 143.766521 
L 76.017435 143.935686 
L 76.033484 144.102329 
L 76.049532 144.264466 
L 76.065581 144.422442 
L 76.081629 144.576558 
L 76.097677 144.727081 
L 76.113726 144.874249 
L 76.145823 145.159348 
L 76.17792 145.433312 
L 76.210016 145.697339 
L 76.242113 145.952423 
L 76.27421 146.199405 
L 76.302252 146.409117 
L 76.330295 146.613605 
L 76.358337 146.813236 
L 76.386379 147.008333 
L 76.42849 147.293427 
L 76.470602 147.569803 
L 76.512713 147.838201 
L 76.554825 148.09926 
L 76.601049 148.378025 
L 76.647273 148.649263 
L 76.706267 148.985386 
L 76.765261 149.311176 
L 76.824256 149.627505 
L 76.88325 149.935127 
L 76.939829 150.222592 
L 76.996409 150.503168 
L 77.047441 150.750704 
L 77.098473 150.993307 
L 77.162716 151.292117 
L 77.226959 151.584029 
L 77.291202 151.86948 
L 77.355445 152.148861 
L 77.419908 152.423455 
L 77.48437 152.692618 
L 77.572757 153.05338 
L 77.661144 153.405163 
L 77.731249 153.678197 
L 77.801353 153.946234 
L 77.876468 154.228165 
L 77.951584 154.504925 
L 78.013053 154.727741 
L 78.074523 154.947396 
L 78.185086 155.334908 
L 78.253338 155.569501 
L 78.32159 155.800732 
L 78.458095 156.253618 
L 78.49103 156.36106 
L 78.570891 156.618757 
L 78.650751 156.872588 
L 78.7904 157.307622 
L 78.930049 157.732054 
L 79.074783 158.16147 
L 79.231391 158.614873 
L 79.350068 158.951131 
L 79.459897 159.256978 
L 79.569726 159.557917 
L 79.575822 159.574478 
L 79.737553 160.008749 
L 79.850639 160.306671 
L 79.963726 160.600091 
L 80.153888 161.083821 
L 80.296503 161.439025 
L 80.387753 161.663042 
L 80.502324 161.940842 
L 80.616894 162.214907 
L 80.719829 162.458057 
L 80.930944 162.947988 
L 81.016746 163.143867 
L 81.200695 163.557765 
L 81.362577 163.915454 
L 81.549604 164.321396 
L 81.731635 164.709302 
L 81.900527 165.063133 
L 81.930137 165.12458 
L 82.070607 165.413776 
L 82.211078 165.699233 
L 82.290737 165.859496 
L 82.492041 166.259432 
L 82.589367 166.450262 
L 82.845268 166.944436 
L 82.928115 167.10214 
L 83.095556 167.417574 
L 83.307727 167.811118 
L 83.400758 167.981572 
L 83.512626 168.184881 
L 83.74614 168.603592 
L 83.803961 168.706112 
L 84.022942 169.090334 
L 84.217223 169.426 
L 84.285799 169.543341 
L 84.515976 169.932962 
L 84.689618 170.222676 
L 84.797217 170.400431 
L 84.97537 170.691833 
L 85.073194 170.850331 
L 85.234039 171.108657 
L 85.425608 171.412705 
L 85.666756 171.79 
L 85.813138 172.016149 
L 85.893952 172.140089 
L 86.116547 172.47818 
L 86.285449 172.731569 
L 86.40892 172.915117 
L 86.500935 173.050995 
L 86.622563 173.229429 
L 86.810229 173.502163 
L 86.975921 173.740409 
L 87.168921 174.01497 
L 87.275707 174.165543 
L 87.536661 174.529569 
L 87.687028 174.736847 
L 87.743987 174.814897 
L 88.026398 175.198173 
L 88.109697 175.310062 
L 88.322006 175.592894 
L 88.475579 175.795413 
L 88.597608 175.955122 
L 88.793021 176.208667 
L 88.917103 176.368274 
L 89.019096 176.498671 
L 89.223005 176.757246 
L 89.307201 176.8632 
L 89.45318 177.045787 
L 89.697531 177.348306 
L 89.764688 177.430778 
L 89.94143 177.646458 
L 90.214093 177.975372 
L 90.29637 178.073728 
L 90.391235 178.186622 
L 90.649862 178.491673 
L 90.811686 178.680543 
L 90.857451 178.733681 
L 91.067611 178.976156 
L 91.260137 179.196089 
L 91.322266 179.26662 
L 91.525245 179.495564 
L 91.683755 179.672786 
L 91.914203 179.928031 
L 92.039738 180.06589 
L 92.13353 180.168351 
L 92.357068 180.410714 
L 92.441097 180.501157 
L 92.593475 180.664254 
L 92.772197 180.854066 
L 93.004708 181.098641 
L 93.139742 181.239472 
L 93.278394 181.383161 
L 93.454506 181.564351 
L 93.590428 181.703192 
L 93.813284 181.928972 
L 93.953916 182.070273 
L 93.990872 182.107256 
L 94.149729 182.265521 
L 94.420423 182.532603 
L 94.540861 182.650391 
L 94.623484 182.73083 
L 94.852299 182.952049 
L 95.048412 183.139864 
L 95.20575 183.289367 
L 95.318535 183.395896 
L 95.538306 183.601959 
L 95.638088 183.694861 
L 95.741555 183.790765 
L 96.00124 184.029561 
L 96.012455 184.039813 
L 96.243645 184.250037 
L 96.390344 184.382339 
L 96.552444 184.527554 
L 96.732872 184.687994 
L 96.84276 184.785097 
L 96.976984 184.903083 
L 97.148596 185.052944 
L 97.313393 185.195817 
L 97.427552 185.294198 
L 97.624531 185.462827 
L 97.764017 185.581383 
L 98.00605 185.785431 
L 98.09757 185.862042 
L 98.298125 186.028887 
L 98.467301 186.168528 
L 98.635386 186.306282 
L 98.690982 186.35163 
L 98.873305 186.4996 
L 99.026387 186.622962 
L 99.146516 186.719213 
L 99.333243 186.867861 
L 99.456616 186.965436 
L 99.717284 187.169939 
L 99.842148 187.267109 
L 99.970641 187.366574 
L 100.135575 187.493465 
L 100.340616 187.649994 
L 100.471433 187.749161 
L 100.676893 187.90382 
L 100.858041 188.039081 
L 100.984494 188.132898 
L 101.162064 188.263805 
L 101.221966 188.307747 
L 101.350504 188.401668 
L 101.632854 188.606218 
L 101.720523 188.669242 
L 101.904879 188.801023 
L 102.078903 188.924493 
L 102.138013 188.966228 
L 102.31101 189.087784 
L 102.444545 189.181015 
L 102.622506 189.304457 
L 102.792902 189.421798 
L 103.055362 189.600911 
L 103.174808 189.681779 
L 103.294198 189.762206 
L 103.484838 189.889803 
L 103.629767 189.986127 
L 103.78211 190.086752 
L 103.869313 190.144063 
L 104.087883 190.286793 
L 104.293945 190.420164 
L 104.413905 190.497277 
L 104.510552 190.559123 
L 104.778657 190.729379 
L 104.903613 190.808077 
L 105.063817 190.908371 
L 105.111479 190.938079 
L 105.383101 191.106247 
L 105.409659 191.122586 
L 105.705374 191.303289 
L 105.744152 191.326818 
L 106.000329 191.481289 
L 106.091189 191.535674 
L 106.189987 191.594573 
L 106.411281 191.725604 
L 106.592367 191.831912 
L 106.681077 191.883691 
L 106.892308 192.006198 
L 106.892308 138.046154 
z
" style="fill:#808080;opacity:0.5;"/>
   </g>
   <g id="patch_7">
    <path clip-path="url(#pa2b7fa459b)" d="M 200.353846 138.046154 
L 200.340285 139.34608 
L 200.326723 139.884426 
L 200.313161 140.297446 
L 200.2996 140.645581 
L 200.286038 140.952243 
L 200.272476 141.229442 
L 200.258915 141.484311 
L 200.245353 141.721498 
L 200.231791 141.944233 
L 200.21823 142.154866 
L 200.191106 142.546532 
L 200.163983 142.906588 
L 200.13686 143.24161 
L 200.109736 143.556167 
L 200.082613 143.853584 
L 200.05549 144.136374 
L 200.028366 144.406487 
L 200.001243 144.665476 
L 199.97412 144.9146 
L 199.919873 145.387228 
L 199.869969 145.796276 
L 199.820065 146.184485 
L 199.770161 146.554708 
L 199.720257 146.909199 
L 199.670352 147.249777 
L 199.620448 147.577932 
L 199.570544 147.894907 
L 199.52064 148.201748 
L 199.421866 148.782565 
L 199.323092 149.332669 
L 199.224317 149.856354 
L 199.125543 150.356991 
L 199.026769 150.837287 
L 198.927995 151.299453 
L 198.829221 151.745325 
L 198.730447 152.176445 
L 198.568169 152.85609 
L 198.405891 153.504182 
L 198.299178 153.915043 
L 198.192464 154.314832 
L 198.085751 154.704345 
L 197.979037 155.084288 
L 197.842798 155.556433 
L 197.706559 156.015144 
L 197.57032 156.461425 
L 197.43408 156.896159 
L 197.186398 157.659417 
L 196.938715 158.39105 
L 196.712831 159.033518 
L 196.504704 159.606452 
L 196.296576 160.162592 
L 196.045323 160.813344 
L 195.794069 161.443307 
L 195.445706 162.285378 
L 195.097342 163.094317 
L 194.851514 163.646928 
L 194.605685 164.185548 
L 194.323167 164.788374 
L 193.930115 165.600308 
L 193.507575 166.441211 
L 193.085036 167.251804 
L 193.052753 167.312562 
L 192.639646 168.076125 
L 192.226539 168.815203 
L 191.852893 169.464037 
L 191.550842 169.975715 
L 191.186489 170.578496 
L 190.822136 171.166302 
L 190.276161 172.020775 
L 190.014268 172.420033 
L 189.674753 172.927901 
L 189.089545 173.778783 
L 188.549604 174.537934 
L 188.354847 174.805968 
L 187.848278 175.489403 
L 187.228265 176.300153 
L 186.964923 176.636341 
L 186.547015 177.160282 
L 186.129107 177.672889 
L 185.724656 178.158608 
L 185.433217 178.502485 
L 185.033808 178.965695 
L 184.462809 179.612278 
L 184.015794 180.106119 
L 183.531981 180.628873 
L 183.179775 181.002 
L 182.440564 181.765542 
L 181.943745 182.264363 
L 181.733654 182.471944 
L 181.28734 182.906474 
L 180.586798 183.571335 
L 179.927866 184.178254 
L 179.717136 184.368694 
L 179.444046 184.612913 
L 178.56372 185.38087 
L 178.482533 185.450244 
L 177.989738 185.866219 
L 177.387742 186.362693 
L 177.026995 186.654204 
L 176.587975 187.003038 
L 175.844276 187.579481 
L 175.451968 187.876402 
L 174.867426 188.309883 
L 174.621489 188.489126 
L 174.046852 188.900832 
L 173.379487 189.366755 
L 172.918417 189.681159 
L 172.759307 189.78826 
L 172.067881 190.245489 
L 171.699042 190.484037 
L 171.430526 190.655395 
L 170.684636 191.121365 
L 170.225083 191.401238 
L 169.635621 191.752337 
L 169.147061 192.036728 
L 168.714469 192.283622 
L 168.245314 192.546239 
L 167.742715 192.821721 
L 167.364216 193.025239 
L 166.974858 193.231103 
L 166.713038 193.367563 
L 166.198619 193.631109 
L 165.542625 193.958519 
L 165.186493 194.132253 
L 164.860931 194.288631 
L 164.250551 194.575599 
L 163.940038 194.718504 
L 163.233306 195.036117 
L 162.644245 195.292834 
L 162.123655 195.513731 
L 162.024688 195.555096 
L 161.173108 195.902809 
L 160.703339 196.088384 
L 160.490668 196.170953 
L 160.03334 196.345486 
L 159.4719 196.554153 
L 158.990247 196.728293 
L 158.641145 196.851722 
L 158.182895 197.010212 
L 157.763107 197.151909 
L 156.9621 197.41311 
L 156.903489 197.431753 
L 156.087867 197.684607 
L 155.631321 197.820817 
L 155.356587 197.900957 
L 154.750217 198.073005 
L 154.211125 198.220419 
L 153.696153 198.356402 
L 153.341011 198.447444 
L 152.813602 198.57855 
L 152.585182 198.633819 
L 151.95135 198.78242 
L 151.319732 198.923577 
L 150.833179 199.027631 
L 150.410454 199.114743 
L 150.327873 199.131405 
L 149.548078 199.283024 
L 149.130234 199.360032 
L 148.873505 199.405888 
L 148.3357 199.498361 
L 147.799862 199.585683 
L 147.278498 199.666056 
L 147.018988 199.704379 
L 146.179829 199.820678 
L 145.970196 199.847918 
L 145.334758 199.926076 
L 145.139374 199.948777 
L 144.484391 200.020323 
L 144.216618 200.047556 
L 143.363116 200.126573 
L 142.899842 200.164511 
L 142.572837 200.189196 
L 141.914266 200.233662 
L 141.67039 200.248352 
L 141.315638 200.268007 
L 140.693437 200.297583 
L 140.302841 200.312966 
L 139.99495 200.323362 
L 139.491812 200.337073 
L 138.652165 200.350899 
L 138.231276 200.353571 
L 137.66402 200.352674 
L 137.588861 200.352168 
L 136.745436 200.340268 
L 136.71239 200.339569 
L 136.080305 200.322827 
L 135.425282 200.2987 
L 135.031884 200.280893 
L 134.441898 200.249513 
L 134.027255 200.2241 
L 133.666378 200.199722 
L 133.1758 200.163206 
L 132.952447 200.14529 
L 132.196045 200.078603 
L 131.905229 200.050489 
L 131.270535 199.984345 
L 130.88691 199.941176 
L 130.60564 199.907994 
L 129.712566 199.794027 
L 129.496167 199.764435 
L 128.8899 199.677408 
L 128.314143 199.589118 
L 127.815909 199.508261 
L 127.490911 199.453282 
L 127.290775 199.418545 
L 126.755221 199.322278 
L 126.311592 199.238871 
L 125.753641 199.129234 
L 125.281779 199.032376 
L 124.727735 198.913783 
L 124.494173 198.862207 
L 123.970961 198.74325 
L 123.517003 198.636188 
L 123.087251 198.531522 
L 122.461469 198.373313 
L 121.698487 198.171043 
L 121.338701 198.072061 
L 120.795505 197.918214 
L 120.355721 197.789748 
L 120.196912 197.742494 
L 119.563569 197.549453 
L 118.90221 197.339981 
L 118.748795 197.290229 
L 117.938562 197.020159 
L 117.687444 196.933941 
L 117.257444 196.783519 
L 116.773808 196.6101 
L 116.083381 196.354688 
L 115.718789 196.216054 
L 115.466403 196.118552 
L 114.692095 195.811511 
L 114.629181 195.786035 
L 114.046198 195.546159 
L 113.495516 195.313201 
L 112.862698 195.03775 
L 112.739825 194.983297 
L 111.891662 194.598705 
L 111.405872 194.371494 
L 111.09655 194.224151 
L 110.792773 194.077411 
L 110.013676 193.691717 
L 109.840203 193.603987 
L 109.412717 193.384882 
L 108.890231 193.111394 
L 108.395898 192.8468 
L 108.060808 192.664169 
L 107.568048 192.390736 
L 106.892308 192.006198 
L 106.892308 200.353846 
L 106.903883 201.554804 
L 106.915458 202.052178 
L 106.927033 202.433773 
L 106.938608 202.755428 
L 106.950183 203.038771 
L 106.961758 203.294897 
L 106.973333 203.530397 
L 106.984908 203.749564 
L 106.996484 203.955381 
L 107.008059 204.150021 
L 107.031209 204.511961 
L 107.054359 204.844706 
L 107.077509 205.15433 
L 107.100659 205.445055 
L 107.123809 205.719952 
L 107.14696 205.981342 
L 107.17011 206.231027 
L 107.21641 206.700745 
L 107.262711 207.137702 
L 107.311204 207.566715 
L 107.359698 207.971296 
L 107.408191 208.355152 
L 107.456685 208.721137 
L 107.505178 209.071502 
L 107.553672 209.408059 
L 107.602166 209.732296 
L 107.650659 210.045449 
L 107.723199 210.495414 
L 107.795738 210.925749 
L 107.868277 211.338759 
L 107.940817 211.736332 
L 108.013356 212.120032 
L 108.085895 212.491174 
L 108.158435 212.850879 
L 108.230974 213.200106 
L 108.311057 213.574481 
L 108.391141 213.93807 
L 108.551307 214.636162 
L 108.711473 215.299972 
L 108.87164 215.933881 
L 109.011246 216.464788 
L 109.150853 216.977578 
L 109.290459 217.473877 
L 109.430066 217.955082 
L 109.621829 218.593638 
L 109.798706 219.161686 
L 109.975584 219.711457 
L 110.179545 220.324685 
L 110.383506 220.917614 
L 110.587467 221.491951 
L 110.791428 222.049173 
L 111.07504 222.797944 
L 111.2563 223.26184 
L 111.43756 223.715119 
L 111.648387 224.229784 
L 111.859214 224.731762 
L 112.070041 225.221824 
L 112.280868 225.700659 
L 112.477672 226.138067 
L 112.689203 226.598434 
L 112.900734 227.049186 
L 113.213517 227.699087 
L 113.526299 228.3304 
L 113.768215 228.806715 
L 114.010131 229.273163 
L 114.382266 229.972498 
L 114.735332 230.616834 
L 115.088398 231.243699 
L 115.146772 231.345733 
L 115.651992 232.210703 
L 116.00972 232.804464 
L 116.367448 233.383681 
L 116.628378 233.797427 
L 116.936722 234.277264 
L 117.245066 234.747644 
L 117.808523 235.584012 
L 118.355941 236.369539 
L 118.715368 236.871656 
L 119.154814 237.471603 
L 119.515427 237.952939 
L 120.039384 238.635466 
L 120.305534 238.974821 
L 120.947127 239.773495 
L 121.266707 240.161482 
L 121.829438 240.829498 
L 122.462324 241.558678 
L 122.691384 241.817048 
L 123.470318 242.674583 
L 123.621425 242.837279 
L 124.421704 243.679967 
L 124.51819 243.779465 
L 125.122469 244.39269 
L 125.841764 245.101046 
L 126.208884 245.453874 
L 126.535036 245.762539 
L 127.19026 246.36939 
L 127.428039 246.585348 
L 127.921223 247.026226 
L 128.41573 247.458961 
L 128.887748 247.863538 
L 129.352208 248.253762 
L 129.881137 248.68888 
L 130.27172 249.004 
L 130.664854 249.315985 
L 131.13111 249.679378 
L 131.755178 250.154788 
L 132.357888 250.602302 
L 132.687751 250.8425 
L 133.273413 251.260907 
L 133.887923 251.689075 
L 134.101644 251.835434 
L 134.569673 252.151423 
L 135.191459 252.561773 
L 135.71443 252.898733 
L 136.151002 253.174413 
L 136.367899 253.309503 
L 137.067048 253.736633 
L 137.250001 253.846332 
L 138.047245 254.31452 
L 138.209784 254.408032 
L 138.918576 254.808266 
L 139.495167 255.124928 
L 139.60835 255.186161 
L 140.023569 255.408223 
L 140.792749 255.809023 
L 141.233742 256.032719 
L 141.562636 256.196703 
L 142.080521 256.450035 
L 142.656848 256.725023 
L 142.907423 256.842331 
L 143.444114 257.089046 
L 144.189463 257.421539 
L 144.282111 257.462053 
L 144.992666 257.766854 
L 145.390826 257.933111 
L 145.789099 258.09619 
L 146.550874 258.399222 
L 146.967525 258.560079 
L 147.079908 258.602881 
L 147.634402 258.810441 
L 148.252724 259.03485 
L 148.747102 259.208986 
L 149.196647 259.36329 
L 149.567371 259.487664 
L 149.942355 259.610843 
L 150.771336 259.873867 
L 151.209981 260.007913 
L 151.629885 260.132936 
L 152.112903 260.272788 
L 152.521576 260.387826 
L 153.058365 260.534376 
L 153.601185 260.677353 
L 153.823073 260.734295 
L 154.178442 260.823684 
L 154.754509 260.963881 
L 155.365448 261.106243 
L 155.860429 261.216843 
L 155.993444 261.245844 
L 156.820312 261.419318 
L 157.120736 261.479454 
L 157.389516 261.531955 
L 158.196823 261.682295 
L 158.417787 261.721528 
L 158.820175 261.790869 
L 159.281872 261.867091 
L 159.956512 261.972078 
L 160.221584 262.011259 
L 160.684046 262.076833 
L 161.55881 262.191219 
L 162.01348 262.245707 
L 162.502225 262.300503 
L 162.907529 262.342985 
L 163.137349 262.365884 
L 163.543205 262.404222 
L 163.981925 262.442655 
L 164.593178 262.490999 
L 165.055377 262.523538 
L 165.706678 262.563534 
L 166.127065 262.585716 
L 166.346894 262.596181 
L 167.062784 262.624873 
L 167.254506 262.631158 
L 167.863901 262.647211 
L 168.563169 262.658284 
L 168.874818 262.66069 
L 169.229912 262.661531 
L 169.936057 262.657191 
L 170.188842 262.653691 
L 170.718654 262.643028 
L 171.176332 262.630187 
L 171.726435 262.610297 
L 172.123479 262.592916 
L 172.730963 262.561409 
L 173.318674 262.525263 
L 173.644239 262.502839 
L 174.039416 262.473316 
L 174.518224 262.434157 
L 175.070469 262.384372 
L 175.498785 262.342344 
L 176.020602 262.2871 
L 176.293154 262.256477 
L 176.78208 262.198495 
L 177.369758 262.123609 
L 177.96147 262.042461 
L 178.19824 262.008369 
L 178.840488 261.911214 
L 179.255548 261.844776 
L 179.713263 261.768175 
L 180.324229 261.660453 
L 180.621522 261.605763 
L 181.32599 261.470201 
L 181.652742 261.404462 
L 182.118365 261.307635 
L 182.383327 261.250877 
L 183.18201 261.072475 
L 183.412869 261.018852 
L 183.692134 260.952745 
L 184.278642 260.809475 
L 184.664908 260.711821 
L 185.284672 260.549625 
L 185.772424 260.417174 
L 186.288289 260.272448 
L 186.82389 260.117104 
L 187.257197 259.987613 
L 187.68933 259.85505 
L 187.9781 259.764548 
L 188.633481 259.55341 
L 189.22776 259.35501 
L 189.470486 259.27206 
L 190.082952 259.057771 
L 190.54453 258.891523 
L 190.966876 258.735792 
L 191.45474 258.55157 
L 191.907809 258.376289 
L 192.514416 258.135215 
L 193.028216 257.925234 
L 193.523399 257.717779 
L 193.882245 257.564294 
L 194.214169 257.419947 
L 194.751618 257.181334 
L 195.337868 256.914083 
L 195.796637 256.699808 
L 196.042875 256.582918 
L 196.545899 256.340008 
L 197.025595 256.103149 
L 197.555579 255.835462 
L 198.225473 255.487959 
L 198.605127 255.286414 
L 198.840555 255.15974 
L 199.413047 254.846234 
L 199.840986 254.606758 
L 200.353846 254.313891 
z
" style="fill:#808080;opacity:0.5;"/>
   </g>
   <g id="patch_8">
    <path clip-path="url(#pa2b7fa459b)" d="M 231.507692 200.353846 
L 231.501098 199.447398 
L 231.494505 199.071969 
L 231.487911 198.783916 
L 231.481317 198.541094 
L 231.474723 198.327182 
L 231.468129 198.133805 
L 231.461536 197.955991 
L 231.454942 197.790499 
L 231.448348 197.635078 
L 231.441754 197.488089 
L 231.43516 197.348294 
L 231.428566 197.214733 
L 231.421973 197.08664 
L 231.415379 196.963396 
L 231.408785 196.844489 
L 231.402191 196.729494 
L 231.395597 196.618049 
L 231.389004 196.509844 
L 231.375816 196.302127 
L 231.362628 196.104592 
L 231.349441 195.91588 
L 231.336253 195.734909 
L 231.323065 195.560803 
L 231.309878 195.392838 
L 231.29669 195.23041 
L 231.278551 195.015115 
L 231.260411 194.80823 
L 231.242272 194.608848 
L 231.224133 194.416213 
L 231.205993 194.229687 
L 231.187854 194.04873 
L 231.169715 193.872874 
L 231.151575 193.701714 
L 231.125413 193.46242 
L 231.099251 193.231256 
L 231.073088 193.007456 
L 231.046926 192.790366 
L 231.023331 192.599865 
L 230.999736 192.414004 
L 230.976142 192.232463 
L 230.952547 192.05496 
L 230.928952 191.881241 
L 230.905357 191.711077 
L 230.881762 191.544262 
L 230.858167 191.38061 
L 230.817921 191.108289 
L 230.777675 190.843933 
L 230.737429 190.586895 
L 230.697183 190.336613 
L 230.651557 190.060417 
L 230.60593 189.791638 
L 230.560304 189.529724 
L 230.514677 189.274187 
L 230.452306 188.934409 
L 230.405179 188.684459 
L 230.358052 188.439939 
L 230.310925 188.200519 
L 230.263798 187.965906 
L 230.214437 187.725028 
L 230.165075 187.48885 
L 230.115714 187.257116 
L 230.066352 187.029594 
L 230.018126 186.81117 
L 229.9699 186.596383 
L 229.921674 186.385064 
L 229.873448 186.177059 
L 229.791546 185.830998 
L 229.723824 185.551302 
L 229.656101 185.277099 
L 229.592845 185.025676 
L 229.529589 184.778569 
L 229.433174 184.409781 
L 229.33676 184.049902 
L 229.26641 183.792598 
L 229.196059 183.539526 
L 229.107389 183.226289 
L 229.018719 182.919129 
L 228.912755 182.559593 
L 228.784974 182.136289 
L 228.657194 181.723477 
L 228.517755 181.284173 
L 228.431808 181.018865 
L 228.347693 180.763059 
L 228.263578 180.510907 
L 228.139906 180.146521 
L 228.016234 179.789334 
L 227.910815 179.490273 
L 227.760766 179.072747 
L 227.66277 178.804994 
L 227.564774 178.540968 
L 227.462534 178.269335 
L 227.352882 177.982193 
L 227.245844 177.705921 
L 227.138807 177.43348 
L 227.022584 177.141837 
L 226.90636 176.854389 
L 226.775427 176.535394 
L 226.635535 176.200008 
L 226.435597 175.729976 
L 226.346995 175.525043 
L 226.162322 175.104243 
L 226.087126 174.935282 
L 225.868188 174.450854 
L 225.668889 174.019209 
L 225.616669 173.907524 
L 225.381509 173.411564 
L 225.27818 173.197149 
L 225.119626 172.872144 
L 224.948351 172.526343 
L 224.827014 172.284578 
L 224.649355 171.935233 
L 224.448426 171.546556 
L 224.382445 171.420366 
L 224.165451 171.010231 
L 224.06088 170.815188 
L 223.814033 170.361248 
L 223.630713 170.029829 
L 223.461572 169.728198 
L 223.341051 169.515637 
L 223.260691 169.37498 
L 222.984554 168.898 
L 222.862223 168.68976 
L 222.733958 168.473384 
L 222.566012 168.193043 
L 222.500177 168.084052 
L 222.252535 167.678518 
L 222.053908 167.358195 
L 221.892584 167.101175 
L 221.843675 167.0238 
L 221.669263 166.749903 
L 221.541704 166.551559 
L 221.271344 166.136545 
L 221.140042 165.937563 
L 221.065542 165.825392 
L 220.882704 165.552314 
L 220.65472 165.216112 
L 220.524535 165.026228 
L 220.392384 164.835001 
L 220.196236 164.553952 
L 220.095859 164.411391 
L 219.871065 164.095169 
L 219.782565 163.971809 
L 219.53286 163.62713 
L 219.446463 163.509016 
L 219.25365 163.247503 
L 219.183944 163.15366 
L 218.946232 162.836371 
L 218.784817 162.623295 
L 218.721342 162.540024 
L 218.537746 162.300787 
L 218.305146 162.001099 
L 218.179147 161.840321 
L 218.086993 161.723412 
L 217.852347 161.428307 
L 217.686257 161.221617 
L 217.557902 161.063111 
L 217.475951 160.962463 
L 217.200332 160.627071 
L 217.1009 160.507236 
L 216.917893 160.28826 
L 216.759496 160.100363 
L 216.567162 159.874215 
L 216.485699 159.779086 
L 216.309309 159.574421 
L 216.203165 159.452122 
L 216.019757 159.242304 
L 215.909788 159.117403 
L 215.681556 158.86031 
L 215.561894 158.726652 
L 215.363473 158.506716 
L 215.181712 158.307079 
L 215.080296 158.196439 
L 214.907079 158.008699 
L 214.833136 157.929025 
L 214.675602 157.760206 
L 214.483845 157.556394 
L 214.22041 157.279361 
L 214.085729 157.139036 
L 213.926488 156.974245 
L 213.847885 156.893348 
L 213.632336 156.673003 
L 213.474391 156.512919 
L 213.324232 156.361794 
L 213.183388 156.220977 
L 213.011604 156.05044 
L 212.905615 155.945877 
L 212.722374 155.766276 
L 212.523012 155.572542 
L 212.342513 155.398623 
L 212.280475 155.339168 
L 212.073635 155.142123 
L 212.006581 155.07863 
L 211.751094 154.838432 
L 211.669883 154.762645 
L 211.511166 154.61531 
L 211.25753 154.381978 
L 211.118315 154.255002 
L 210.993249 154.141587 
L 210.814622 153.980667 
L 210.747281 153.920324 
L 210.535045 153.731291 
L 210.352092 153.569726 
L 210.244968 153.475716 
L 210.100313 153.349454 
L 209.907298 153.182198 
L 209.706758 153.009881 
L 209.601789 152.920272 
L 209.438549 152.781715 
L 209.328884 152.689171 
L 209.066535 152.469529 
L 208.960721 152.381629 
L 208.73654 152.196702 
L 208.664149 152.13736 
L 208.428825 151.945708 
L 208.293792 151.836592 
L 208.153396 151.723799 
L 207.947683 151.559732 
L 207.815458 151.455022 
L 207.770793 151.419784 
L 207.60761 151.2916 
L 207.36535 151.102911 
L 207.212169 150.98459 
L 207.016893 150.834849 
L 206.862814 150.717559 
L 206.816773 150.682659 
L 206.633562 150.54444 
L 206.407032 150.374998 
L 206.344092 150.328203 
L 206.21637 150.233622 
L 206.041998 150.105306 
L 205.903288 150.003899 
L 205.753622 149.895138 
L 205.524938 149.730261 
L 205.367915 149.617957 
L 205.239961 149.526986 
L 205.12735 149.447324 
L 204.939609 149.315342 
L 204.707332 149.153476 
L 204.618841 149.092221 
L 204.359865 148.914246 
L 204.269296 148.852458 
L 204.065403 148.714208 
L 203.908973 148.608936 
L 203.777995 148.52132 
L 203.625413 148.419854 
L 203.516126 148.347577 
L 203.303101 148.207638 
L 203.173709 148.123246 
L 203.070988 148.056574 
L 202.805116 147.885335 
L 202.767301 147.861134 
L 202.602959 147.756405 
L 202.330635 147.584446 
L 202.309341 147.571083 
L 202.017789 147.389318 
L 201.85856 147.290987 
L 201.824713 147.27017 
L 201.618721 147.144119 
L 201.415512 147.020842 
L 201.286211 146.942952 
L 201.104523 146.834224 
L 201.029256 146.789427 
L 200.826611 146.669528 
L 200.682094 146.584652 
L 200.458903 146.454593 
L 200.353846 146.393802 
L 200.353846 254.313891 
L 200.558008 254.195501 
L 200.68593 254.120795 
L 200.876702 254.008623 
L 201.053222 253.904017 
L 201.172758 253.832733 
L 201.321504 253.743522 
L 201.478552 253.64872 
L 201.625868 253.559218 
L 201.832848 253.432521 
L 201.995623 253.332102 
L 202.120954 253.254312 
L 202.248598 253.174663 
L 202.324172 253.127303 
L 202.504213 253.013868 
L 202.713997 252.880606 
L 202.815268 252.815854 
L 203.020023 252.684091 
L 203.102939 252.630411 
L 203.310604 252.495147 
L 203.552207 252.336289 
L 203.573072 252.322495 
L 203.796693 252.173894 
L 203.897179 252.106665 
L 204.037103 252.01258 
L 204.251795 251.867147 
L 204.347201 251.8021 
L 204.611251 251.620715 
L 204.688708 251.567127 
L 204.839768 251.462118 
L 205.084519 251.29057 
L 205.158246 251.23855 
L 205.424923 251.049048 
L 205.548743 250.960342 
L 205.690571 250.85817 
L 205.765485 250.803958 
L 205.959904 250.662473 
L 206.176502 250.50349 
L 206.269593 250.434719 
L 206.526278 250.2437 
L 206.682223 250.126645 
L 206.774993 250.056647 
L 206.939666 249.931725 
L 207.034101 249.859697 
L 207.245035 249.69778 
L 207.326553 249.634821 
L 207.619758 249.40658 
L 207.751534 249.303083 
L 207.806138 249.260028 
L 208.079371 249.043096 
L 208.129226 249.003244 
L 208.410829 248.776562 
L 208.498237 248.705651 
L 208.608294 248.615994 
L 208.814071 248.447234 
L 209.036575 248.263092 
L 209.122032 248.191905 
L 209.23653 248.096121 
L 209.423266 247.938901 
L 209.589666 247.797744 
L 209.800841 247.617154 
L 209.965592 247.475127 
L 210.001217 247.444283 
L 210.228661 247.24625 
L 210.362941 247.12842 
L 210.567906 246.947246 
L 210.738092 246.795588 
L 210.776264 246.761419 
L 211.071369 246.495335 
L 211.091552 246.477011 
L 211.297483 246.289132 
L 211.501471 246.10135 
L 211.6037 246.006609 
L 211.809755 245.814349 
L 212.015492 245.620635 
L 212.123711 245.51803 
L 212.321284 245.329432 
L 212.370226 245.282457 
L 212.527249 245.131051 
L 212.653891 245.008162 
L 212.944584 244.723429 
L 213.019449 244.649494 
L 213.201122 244.469034 
L 213.335286 244.334809 
L 213.449821 244.219572 
L 213.684223 243.981847 
L 213.768271 243.895984 
L 213.994808 243.662894 
L 214.190131 243.459955 
L 214.219535 243.429245 
L 214.504691 243.12923 
L 214.59235 243.036198 
L 214.691484 242.930523 
L 214.972708 242.628043 
L 215.002088 242.59621 
L 215.170572 242.412794 
L 215.442489 242.113644 
L 215.610332 241.92703 
L 215.652099 241.880356 
L 215.865266 241.640666 
L 216.049172 241.431864 
L 216.095412 241.379069 
L 216.333569 241.105229 
L 216.426574 240.99741 
L 216.659989 240.724602 
L 216.83802 240.514369 
L 216.910285 240.428492 
L 217.148915 240.142665 
L 217.320876 239.934521 
L 217.404535 239.832591 
L 217.594993 239.598887 
L 217.699258 239.469962 
L 217.927576 239.185171 
L 218.007082 239.085194 
L 218.167086 238.882706 
L 218.29255 238.722714 
L 218.568898 238.366482 
L 218.617892 238.302765 
L 218.868875 237.973674 
L 218.914983 237.91272 
L 219.206673 237.523474 
L 219.344062 237.337918 
L 219.49021 237.138942 
L 219.683848 236.87274 
L 219.785801 236.731384 
L 219.903691 236.566886 
L 220.063405 236.342213 
L 220.22806 236.108365 
L 220.345708 235.939869 
L 220.60715 235.561139 
L 220.754557 235.344933 
L 220.909837 235.115049 
L 220.973227 235.020566 
L 221.177157 234.714051 
L 221.35186 234.448303 
L 221.493501 234.230657 
L 221.646619 233.993119 
L 221.86131 233.656023 
L 222.033183 233.382672 
L 222.179769 233.147026 
L 222.283237 232.979272 
L 222.434659 232.73161 
L 222.559844 232.524882 
L 222.796452 232.129132 
L 222.919711 231.920303 
L 223.020895 231.747473 
L 223.136616 231.548235 
L 223.390098 231.105786 
L 223.464291 230.974676 
L 223.63343 230.672986 
L 223.843293 230.293102 
L 223.958385 230.082078 
L 224.220574 229.593973 
L 224.270687 229.499479 
L 224.447221 229.163447 
L 224.6088 228.851451 
L 224.788194 228.499915 
L 224.904194 228.269635 
L 225.025378 228.026499 
L 225.230375 227.60904 
L 225.358597 227.343854 
L 225.523459 226.998104 
L 225.729499 226.558126 
L 225.831289 226.33741 
L 226.05159 225.851791 
L 226.108542 225.724427 
L 226.308675 225.270662 
L 226.464971 224.909326 
L 226.653582 224.464724 
L 226.845614 224.001928 
L 226.890392 223.892479 
L 227.069686 223.448174 
L 227.260135 222.965111 
L 227.381248 222.651623 
L 227.475422 222.404328 
L 227.569595 222.15382 
L 227.702544 221.794482 
L 227.831011 221.440646 
L 227.94164 221.130474 
L 228.052269 220.815003 
L 228.155163 220.516615 
L 228.258057 220.213212 
L 228.395255 219.800447 
L 228.459111 219.604982 
L 228.587791 219.204278 
L 228.716471 218.793972 
L 228.774961 218.604123 
L 228.912074 218.150383 
L 228.980631 217.918717 
L 229.049188 217.683683 
L 229.09058 217.54009 
L 229.203346 217.142145 
L 229.316113 216.733759 
L 229.412352 216.376367 
L 229.502265 216.034577 
L 229.592178 215.684643 
L 229.677253 215.345525 
L 229.762327 214.998063 
L 229.856517 214.602898 
L 229.950707 214.195815 
L 230.009794 213.933886 
L 230.068881 213.666542 
L 230.129175 213.387807 
L 230.189469 213.102695 
L 230.264281 212.739407 
L 230.339093 212.36467 
L 230.376498 212.172669 
L 230.413904 211.977377 
L 230.45131 211.778624 
L 230.488716 211.576228 
L 230.521907 211.393422 
L 230.555099 211.207436 
L 230.599818 210.95153 
L 230.644537 210.689097 
L 230.689256 210.419625 
L 230.733975 210.142534 
L 230.770066 209.9129 
L 230.806156 209.677472 
L 230.842247 209.435801 
L 230.878338 209.187373 
L 230.9095 208.966981 
L 230.940663 208.740684 
L 230.971826 208.507991 
L 231.002988 208.268336 
L 231.034969 208.014468 
L 231.06695 207.751755 
L 231.09893 207.479218 
L 231.130911 207.195685 
L 231.146902 207.049361 
L 231.162892 206.899727 
L 231.178882 206.746551 
L 231.194873 206.589573 
L 231.210863 206.428498 
L 231.226853 206.262991 
L 231.242844 206.092668 
L 231.258834 205.917087 
L 231.275179 205.731639 
L 231.291524 205.539513 
L 231.307869 205.339935 
L 231.324215 205.131973 
L 231.34056 204.914479 
L 231.356905 204.686018 
L 231.365077 204.56712 
L 231.37325 204.444753 
L 231.381422 204.318593 
L 231.389595 204.188268 
L 231.396976 204.066619 
L 231.404357 203.940832 
L 231.411738 203.810455 
L 231.419119 203.674947 
L 231.4265 203.533652 
L 231.433882 203.385762 
L 231.441263 203.230259 
L 231.448644 203.065835 
L 231.456025 202.890754 
L 231.459715 202.798508 
L 231.463406 202.702636 
L 231.467096 202.602675 
L 231.470787 202.498052 
L 231.474477 202.388048 
L 231.478168 202.271739 
L 231.481859 202.147897 
L 231.485549 202.014839 
L 231.48924 201.870141 
L 231.49293 201.710081 
L 231.496621 201.528398 
L 231.500311 201.312878 
L 231.504002 201.031994 
z
" style="fill:#808080;opacity:0.5;"/>
   </g>
   <g id="matplotlib.axis_1"/>
   <g id="matplotlib.axis_2"/>
   <g id="line2d_1">
    <path clip-path="url(#pa2b7fa459b)" d="M 106.892308 84.086109 
L 110.279474 82.267484 
L 113.7311 80.678683 
L 117.089685 79.368433 
L 120.70313 78.200786 
L 124.35276 77.261785 
L 127.82216 76.583007 
L 131.583023 76.074576 
L 134.982655 75.813819 
L 138.807948 75.743119 
L 141.972575 75.8623 
L 145.868335 76.231414 
L 149.679213 76.83406 
L 153.304309 77.635582 
L 157.069998 78.713685 
L 160.547158 79.943199 
L 163.973237 81.388984 
L 167.475284 83.126442 
L 170.674874 84.964941 
L 173.790396 87.010895 
L 176.545165 89.055597 
L 179.433974 91.470443 
L 182.0272 93.910952 
L 184.626341 96.663372 
L 186.901544 99.37576 
L 188.998322 102.183567 
L 190.978953 105.177212 
L 192.887028 108.470369 
L 194.424752 111.518768 
L 195.83038 114.738822 
L 197.087319 118.136625 
L 198.190765 121.771197 
L 199.059277 125.410992 
L 199.719305 129.176491 
L 200.135723 132.837127 
L 200.334017 136.474322 
L 200.353846 138.046154 
L 200.353846 138.046154 
" style="fill:none;stroke:#0000ff;stroke-linecap:square;"/>
   </g>
   <g id="line2d_2">
    <path clip-path="url(#pa2b7fa459b)" d="M 75.738462 138.046154 
L 75.858864 134.174518 
L 76.197304 130.498421 
L 76.759798 126.810892 
L 77.522468 123.243046 
L 78.526836 119.61522 
L 79.754365 116.038977 
L 81.072862 112.821313 
L 82.765435 109.300882 
L 84.437769 106.291003 
L 86.423665 103.155365 
L 88.670438 100.042375 
L 91.07031 97.113055 
L 93.641262 94.337412 
L 96.352208 91.744281 
L 99.282912 89.264399 
L 102.350332 86.977016 
L 105.430542 84.956886 
L 106.892308 84.086109 
L 106.892308 84.086109 
" style="fill:none;stroke:#0000ff;stroke-linecap:square;"/>
   </g>
   <g id="line2d_3">
    <path clip-path="url(#pa2b7fa459b)" d="M 75.738462 138.046154 
L 75.871759 142.119617 
L 76.210016 145.697339 
L 76.765261 149.311176 
L 77.572757 153.05338 
L 78.570891 156.618757 
L 79.737553 160.008749 
L 81.200695 163.557765 
L 82.845268 166.944436 
L 84.689618 170.222676 
L 86.622563 173.229429 
L 88.917103 176.368274 
L 91.322266 179.26662 
L 93.953916 182.070273 
L 96.552444 184.527554 
L 99.456616 186.965436 
L 102.444545 189.181015 
L 105.409659 191.122586 
L 106.892308 192.006198 
L 106.892308 192.006198 
" style="fill:none;stroke:#0000ff;stroke-linecap:square;"/>
   </g>
   <g id="line2d_4">
    <path clip-path="url(#pa2b7fa459b)" d="M 106.892308 200.353846 
L 107.031209 204.511961 
L 107.408191 208.355152 
L 108.013356 212.120032 
L 108.87164 215.933881 
L 109.975584 219.711457 
L 111.2563 223.26184 
L 112.689203 226.598434 
L 114.382266 229.972498 
L 116.367448 233.383681 
L 118.355941 236.369539 
L 120.305534 238.974821 
L 122.691384 241.817048 
L 125.122469 244.39269 
L 127.921223 247.026226 
L 130.664854 249.315985 
L 133.887923 251.689075 
L 137.067048 253.736633 
L 140.023569 255.408223 
L 143.444114 257.089046 
L 147.079908 258.602881 
L 150.771336 259.873867 
L 154.178442 260.823684 
L 157.389516 261.531955 
L 160.684046 262.076833 
L 164.593178 262.490999 
L 167.863901 262.647211 
L 171.726435 262.610297 
L 175.498785 262.342344 
L 179.255548 261.844776 
L 182.383327 261.250877 
L 186.288289 260.272448 
L 190.082952 259.057771 
L 193.523399 257.717779 
L 197.025595 256.103149 
L 200.353846 254.313891 
L 200.353846 254.313891 
" style="fill:none;stroke:#228b22;stroke-linecap:square;"/>
   </g>
   <g id="line2d_5">
    <path clip-path="url(#pa2b7fa459b)" d="M 200.353846 254.313891 
L 203.573072 252.322495 
L 206.682223 250.126645 
L 209.589666 247.797744 
L 212.370226 245.282457 
L 215.002088 242.59621 
L 217.404535 239.832591 
L 219.683848 236.87274 
L 221.646619 233.993119 
L 223.63343 230.672986 
L 225.358597 227.343854 
L 226.890392 223.892479 
L 228.258057 220.213212 
L 229.316113 216.733759 
L 230.189469 213.102695 
L 230.842247 209.435801 
L 231.275179 205.731639 
L 231.485549 202.014839 
L 231.507692 200.353846 
L 231.507692 200.353846 
" style="fill:none;stroke:#228b22;stroke-linecap:square;"/>
   </g>
   <g id="text_1">
    <!-- $\Omega$ -->
    <g transform="translate(16.011538 22.420913)scale(0.1 -0.1)">
     <defs>
      <path d="M 7.71875 0 
L 4.390625 16.609375 
L 7.328125 16.609375 
Q 7.859375 13.71875 8.296875 11.5 
Q 8.734375 9.28125 9.4375 8.375 
Q 10.15625 7.46875 11.71875 7.171875 
Q 13.28125 6.890625 16.890625 6.890625 
L 23 6.890625 
Q 21.53125 12.546875 15.6875 21.65625 
Q 9.859375 30.765625 7.734375 34.890625 
Q 5.609375 39.015625 5.609375 45.515625 
Q 5.609375 53.078125 10.09375 58.765625 
Q 14.59375 64.453125 21.703125 67.484375 
Q 28.8125 70.515625 36.078125 70.515625 
Q 43.3125 70.515625 50.40625 67.484375 
Q 57.515625 64.453125 62 58.71875 
Q 66.5 52.984375 66.5 45.515625 
Q 66.5 40.4375 64.640625 35.9375 
Q 62.796875 31.453125 59.90625 26.953125 
Q 57.03125 22.46875 53.6875 16.9375 
Q 50.34375 11.421875 49.125 6.890625 
L 55.171875 6.890625 
Q 58.84375 6.890625 60.453125 7.171875 
Q 62.0625 7.46875 62.734375 8.375 
Q 63.421875 9.28125 63.84375 11.5 
Q 64.265625 13.71875 64.796875 16.609375 
L 67.671875 16.609375 
L 64.40625 0 
L 46.6875 0 
Q 45.703125 0 45.703125 1.3125 
Q 45.703125 6.390625 46.9375 11.265625 
Q 48.1875 16.15625 50.625 23.09375 
Q 53.078125 30.03125 54.4375 35.328125 
Q 55.8125 40.625 55.8125 45.515625 
Q 55.8125 51.515625 53.46875 56.640625 
Q 51.125 61.765625 46.625 64.84375 
Q 42.140625 67.921875 36.078125 67.921875 
Q 26.953125 67.921875 21.625 61.40625 
Q 16.3125 54.890625 16.3125 45.515625 
Q 16.359375 40.375 17.53125 35.828125 
Q 18.703125 31.296875 21.3125 23.71875 
Q 23.921875 16.15625 25.171875 11.265625 
Q 26.421875 6.390625 26.421875 1.3125 
Q 26.421875 0 25.390625 0 
z
" id="Cmr10-173"/>
     </defs>
     <use transform="translate(0 0.484375)" xlink:href="#Cmr10-173"/>
    </g>
   </g>
   <g id="text_2">
    <!-- $A$ -->
    <g style="fill:#0000ff;" transform="translate(103.142308 78.497837)scale(0.1 -0.1)">
     <defs>
      <path d="M 4.5 0 
Q 3.515625 0 3.515625 1.3125 
Q 3.90625 3.515625 4.78125 3.515625 
Q 8.84375 3.515625 11.796875 5.125 
Q 14.75 6.734375 16.890625 10.109375 
Q 17.09375 10.296875 17.09375 10.296875 
L 52.78125 70.515625 
Q 53.5625 71.578125 54.6875 71.578125 
L 56 71.578125 
Q 56.296875 71.578125 56.59375 71.453125 
Q 56.890625 71.34375 57.109375 71.0625 
Q 57.328125 70.796875 57.328125 70.515625 
L 63.375 5.90625 
Q 63.375 5.46875 63.8125 4.59375 
Q 64.796875 3.515625 71.296875 3.515625 
Q 72.3125 3.515625 72.3125 2.203125 
Q 71.96875 0.875 71.75 0.4375 
Q 71.53125 0 70.609375 0 
L 45.609375 0 
Q 44.671875 0 44.671875 1.3125 
Q 45.21875 3.515625 46 3.515625 
Q 53.90625 3.515625 54.390625 6.203125 
L 52.875 22.703125 
L 28.21875 22.703125 
L 20.21875 9.28125 
Q 19.484375 8.203125 19.484375 6.78125 
Q 19.484375 5.03125 21.171875 4.265625 
Q 22.859375 3.515625 24.90625 3.515625 
Q 25.875 3.515625 25.875 2.203125 
Q 25.53125 0.78125 25.328125 0.390625 
Q 25.140625 0 24.21875 0 
z
M 30.171875 26.21875 
L 52.484375 26.21875 
L 49.515625 58.59375 
z
" id="Cmmi10-65"/>
     </defs>
     <use transform="translate(0 0.421875)" xlink:href="#Cmmi10-65"/>
    </g>
   </g>
   <g id="text_3">
    <!-- $B$ -->
    <g style="fill:#ff0000;" transform="translate(227.707692 78.497837)scale(0.1 -0.1)">
     <defs>
      <path d="M 4.984375 0 
Q 4 0 4 1.3125 
Q 4.046875 1.5625 4.1875 2.140625 
Q 4.34375 2.734375 4.578125 3.125 
Q 4.828125 3.515625 5.328125 3.515625 
Q 8.15625 3.515625 10.25 3.65625 
Q 12.359375 3.8125 13.8125 4.203125 
Q 14.984375 4.640625 15.71875 6.890625 
L 29.390625 61.8125 
Q 29.59375 62.796875 29.59375 63.1875 
Q 29.59375 64.265625 28.421875 64.40625 
Q 26.515625 64.796875 21.1875 64.796875 
Q 20.21875 64.796875 20.21875 66.109375 
Q 20.265625 66.359375 20.40625 66.96875 
Q 20.5625 67.578125 20.828125 67.9375 
Q 21.09375 68.3125 21.484375 68.3125 
L 57.328125 68.3125 
Q 60.59375 68.3125 63.796875 67.5 
Q 67 66.703125 69.703125 64.9375 
Q 72.40625 63.1875 74 60.5625 
Q 75.59375 57.953125 75.59375 54.5 
Q 75.59375 50.734375 73.65625 47.5 
Q 71.734375 44.28125 68.671875 41.890625 
Q 65.625 39.5 62.078125 37.953125 
Q 58.546875 36.421875 54.6875 35.6875 
Q 57.421875 35.6875 60.21875 34.609375 
Q 63.03125 33.546875 65.234375 31.6875 
Q 67.4375 29.828125 68.78125 27.234375 
Q 70.125 24.65625 70.125 21.6875 
Q 70.125 15.671875 65.921875 10.6875 
Q 61.71875 5.71875 55.34375 2.859375 
Q 48.96875 0 43.015625 0 
z
M 23.390625 4.296875 
Q 23.390625 3.515625 26.8125 3.515625 
L 41.109375 3.515625 
Q 46 3.515625 50.484375 6.21875 
Q 54.984375 8.9375 57.6875 13.421875 
Q 60.40625 17.921875 60.40625 22.796875 
Q 60.40625 25.78125 59.15625 28.4375 
Q 57.90625 31.109375 55.5625 32.640625 
Q 53.21875 34.1875 50.203125 34.1875 
L 30.71875 34.1875 
L 23.78125 6.5 
Q 23.390625 5.125 23.390625 4.296875 
z
M 31.390625 36.8125 
L 46.578125 36.8125 
Q 51.375 36.8125 55.890625 39.25 
Q 60.40625 41.703125 63.25 45.890625 
Q 66.109375 50.09375 66.109375 54.78125 
Q 66.109375 59.125 63.390625 61.953125 
Q 60.6875 64.796875 56.390625 64.796875 
L 42.671875 64.796875 
Q 39.984375 64.796875 39.0625 64.296875 
Q 38.140625 63.8125 37.5 61.375 
z
" id="Cmmi10-66"/>
     </defs>
     <use transform="translate(0 0.6875)" xlink:href="#Cmmi10-66"/>
    </g>
   </g>
   <g id="text_4">
    <!-- $C$ -->
    <g style="fill:#228b22;" transform="translate(150.023077 271.651683)scale(0.1 -0.1)">
     <defs>
      <path d="M 14.59375 21.578125 
Q 14.59375 15.578125 16.90625 11.015625 
Q 19.234375 6.453125 23.65625 3.875 
Q 28.078125 1.3125 34.078125 1.3125 
Q 40.375 1.3125 46.203125 4.53125 
Q 52.046875 7.765625 56.171875 13.15625 
Q 60.296875 18.5625 61.8125 24.609375 
Q 62.015625 25.203125 62.59375 25.203125 
L 63.8125 25.203125 
Q 64.203125 25.203125 64.453125 24.921875 
Q 64.703125 24.65625 64.703125 24.3125 
Q 64.703125 24.21875 64.59375 24.03125 
Q 62.890625 17.09375 57.984375 11.015625 
Q 53.078125 4.9375 46.234375 1.359375 
Q 39.40625 -2.203125 32.171875 -2.203125 
Q 24.359375 -2.203125 18.15625 1.3125 
Q 11.96875 4.828125 8.515625 11.078125 
Q 5.078125 17.328125 5.078125 25.203125 
Q 5.078125 33.59375 8.828125 41.8125 
Q 12.59375 50.046875 18.9375 56.46875 
Q 25.296875 62.890625 33.421875 66.703125 
Q 41.546875 70.515625 49.90625 70.515625 
Q 53.21875 70.515625 56.25 69.5 
Q 59.28125 68.5 61.859375 66.453125 
Q 64.453125 64.40625 66.109375 61.71875 
L 74.03125 70.3125 
Q 74.03125 70.515625 74.515625 70.515625 
L 75.09375 70.515625 
Q 75.484375 70.515625 75.734375 70.171875 
Q 75.984375 69.828125 75.984375 69.484375 
L 69.1875 42.484375 
Q 69.1875 41.796875 68.40625 41.796875 
L 66.609375 41.796875 
Q 65.828125 41.796875 65.828125 42.921875 
Q 66.21875 45.125 66.21875 48.1875 
Q 66.21875 53.078125 64.546875 57.390625 
Q 62.890625 61.71875 59.390625 64.359375 
Q 55.90625 67 50.875 67 
Q 42.71875 67 35.9375 62.890625 
Q 29.15625 58.796875 24.4375 52.125 
Q 19.734375 45.453125 17.15625 37.328125 
Q 14.59375 29.203125 14.59375 21.578125 
z
" id="Cmmi10-67"/>
     </defs>
     <use transform="translate(0 0.484375)" xlink:href="#Cmmi10-67"/>
    </g>
   </g>
   <g id="patch_9">
    <path clip-path="url(#pa2b7fa459b)" d="M 138.046154 200.353846 
C 154.570347 200.353846 170.419977 193.788715 182.104346 182.104346 
C 193.788715 170.419977 200.353846 154.570347 200.353846 138.046154 
C 200.353846 121.521961 193.788715 105.672331 182.104346 93.987962 
C 170.419977 82.303593 154.570347 75.738462 138.046154 75.738462 
C 121.521961 75.738462 105.672331 82.303593 93.987962 93.987962 
C 82.303593 105.672331 75.738462 121.521961 75.738462 138.046154 
C 75.738462 154.570347 82.303593 170.419977 93.987962 182.104346 
C 105.672331 193.788715 121.521961 200.353846 138.046154 200.353846 
z
" style="fill:none;stroke:#0000ff;stroke-linejoin:miter;"/>
   </g>
   <g id="patch_10">
    <path clip-path="url(#pa2b7fa459b)" d="M 200.353846 200.353846 
C 216.878039 200.353846 232.727669 193.788715 244.412038 182.104346 
C 256.096407 170.419977 262.661538 154.570347 262.661538 138.046154 
C 262.661538 121.521961 256.096407 105.672331 244.412038 93.987962 
C 232.727669 82.303593 216.878039 75.738462 200.353846 75.738462 
C 183.829653 75.738462 167.980023 82.303593 156.295654 93.987962 
C 144.611285 105.672331 138.046154 121.521961 138.046154 138.046154 
C 138.046154 154.570347 144.611285 170.419977 156.295654 182.104346 
C 167.980023 193.788715 183.829653 200.353846 200.353846 200.353846 
z
" style="fill:none;stroke:#ff0000;stroke-linejoin:miter;"/>
   </g>
   <g id="patch_11">
    <path clip-path="url(#pa2b7fa459b)" d="M 169.2 262.661538 
C 185.724193 262.661538 201.573823 256.096407 213.258192 244.412038 
C 224.942561 232.727669 231.507692 216.878039 231.507692 200.353846 
C 231.507692 183.829653 224.942561 167.980023 213.258192 156.295654 
C 201.573823 144.611285 185.724193 138.046154 169.2 138.046154 
C 152.675807 138.046154 136.826177 144.611285 125.141808 156.295654 
C 113.457439 167.980023 106.892308 183.829653 106.892308 200.353846 
C 106.892308 216.878039 113.457439 232.727669 125.141808 244.412038 
C 136.826177 256.096407 152.675807 262.661538 169.2 262.661538 
z
" style="fill:none;stroke:#228b22;stroke-linejoin:miter;"/>
   </g>
  </g>
 </g>
 <defs>
  <clipPath id="pa2b7fa459b">
   <rect height="324" width="324" x="7.2" y="7.2"/>
  </clipPath>
 </defs>
</svg>
