<?xml version="1.0" encoding="utf-8" standalone="no"?>
<!DOCTYPE svg PUBLIC "-//W3C//DTD SVG 1.1//EN"
  "http://www.w3.org/Graphics/SVG/1.1/DTD/svg11.dtd">
<!-- Created with matplotlib (https://matplotlib.org/) -->
<svg height="338.4pt" version="1.1" viewBox="0 0 338.4 338.4" width="338.4pt" xmlns="http://www.w3.org/2000/svg" xmlns:xlink="http://www.w3.org/1999/xlink">
 <metadata>
  <rdf:RDF xmlns:cc="http://creativecommons.org/ns#" xmlns:dc="http://purl.org/dc/elements/1.1/" xmlns:rdf="http://www.w3.org/1999/02/22-rdf-syntax-ns#">
   <cc:Work>
    <dc:type rdf:resource="http://purl.org/dc/dcmitype/StillImage"/>
    <dc:date>2024-08-21T15:23:53.968652</dc:date>
    <dc:format>image/svg+xml</dc:format>
    <dc:creator>
     <cc:Agent>
      <dc:title>Matplotlib v3.3.4, https://matplotlib.org/</dc:title>
     </cc:Agent>
    </dc:creator>
   </cc:Work>
  </rdf:RDF>
 </metadata>
 <defs>
  <style type="text/css">*{stroke-linecap:butt;stroke-linejoin:round;}</style>
 </defs>
 <g id="figure_1">
  <g id="patch_1">
   <path d="M -0 338.4 
L 338.4 338.4 
L 338.4 0 
L -0 0 
z
" style="fill:#ffffff;"/>
  </g>
  <g id="axes_1">
   <g id="patch_2">
    <path d="M 7.2 331.2 
L 331.2 331.2 
L 331.2 7.2 
L 7.2 7.2 
z
" style="fill:#ffffff;"/>
   </g>
   <g id="patch_3">
    <path clip-path="url(#pcec5b0a306)" d="M 13.430769 324.969231 
L 13.430769 13.430769 
L 324.969231 13.430769 
L 324.969231 324.969231 
z
" style="fill:none;stroke:#000000;stroke-linejoin:miter;"/>
   </g>
   <g id="patch_4">
    <path clip-path="url(#pcec5b0a306)" d="M 169.2 138.046154 
L 168.992311 138.0465 
L 168.918131 138.046791 
L 168.751433 138.047769 
L 168.618566 138.048867 
L 168.360974 138.051803 
L 168.232785 138.053661 
L 168.108164 138.055721 
L 168.00765 138.057564 
L 167.834876 138.06111 
L 167.635105 138.065809 
L 167.494065 138.069512 
L 167.309104 138.074853 
L 167.189354 138.078604 
L 167.05999 138.082915 
L 166.826174 138.09139 
L 166.726184 138.095282 
L 166.497329 138.104797 
L 166.341525 138.111757 
L 166.238645 138.116567 
L 165.995463 138.128614 
L 165.952468 138.130844 
L 165.686842 138.145276 
L 165.581976 138.151287 
L 165.473159 138.157711 
L 165.244254 138.17185 
L 165.17073 138.176571 
L 164.908481 138.194121 
L 164.750773 138.205211 
L 164.736354 138.206245 
L 164.47255 138.225755 
L 164.378437 138.232988 
L 164.212008 138.24613 
L 164.091387 138.255935 
L 163.883777 138.273364 
L 163.694003 138.289907 
L 163.532997 138.304401 
L 163.348874 138.321493 
L 163.260619 138.329881 
L 163.149245 138.340647 
L 162.885346 138.366963 
L 162.741136 138.381823 
L 162.686625 138.387529 
L 162.423829 138.415716 
L 162.386876 138.419769 
L 162.178163 138.443085 
L 161.93058 138.471667 
L 161.871289 138.478661 
L 161.649605 138.505321 
L 161.474541 138.526944 
L 161.405193 138.535649 
L 161.271148 138.552699 
L 161.066552 138.579292 
L 160.925239 138.598062 
L 160.704631 138.628023 
L 160.664614 138.633544 
L 160.488556 138.658147 
L 160.274688 138.688724 
L 160.055235 138.720886 
L 159.936639 138.738599 
L 159.757049 138.765867 
L 159.717918 138.771879 
L 159.547404 138.798376 
L 159.311834 138.835778 
L 159.178788 138.857311 
L 159.07555 138.874223 
L 158.897722 138.903772 
L 158.680509 138.940584 
L 158.623224 138.950423 
L 158.453127 138.979965 
L 158.301667 139.00668 
L 158.096514 139.043479 
L 157.939099 139.072196 
L 157.771889 139.103158 
L 157.635512 139.12876 
L 157.393679 139.174934 
L 157.268276 139.199268 
L 157.214906 139.209705 
L 157.004553 139.251313 
L 156.866322 139.279065 
L 156.644282 139.324325 
L 156.56606 139.34047 
L 156.431409 139.368507 
L 156.202322 139.416921 
L 156.00077 139.46026 
L 155.814818 139.500864 
L 155.79339 139.505581 
L 155.632648 139.54122 
L 155.415965 139.589968 
L 155.195536 139.640392 
L 155.140815 139.65304 
L 154.95188 139.69711 
L 154.72338 139.751239 
L 154.704984 139.755636 
L 154.536455 139.796196 
L 154.264146 139.862782 
L 154.140509 139.893444 
L 153.997129 139.929338 
L 153.846762 139.967369 
L 153.751765 139.991602 
L 153.514988 140.052694 
L 153.45502 140.068324 
L 153.19725 140.136237 
L 153.120251 140.156752 
L 152.965115 140.198406 
L 152.836156 140.233358 
L 152.557861 140.309798 
L 152.490797 140.328426 
L 152.289078 140.384944 
L 152.202455 140.409439 
L 151.951719 140.481103 
L 151.871895 140.504157 
L 151.719287 140.548552 
L 151.460341 140.62485 
L 151.345896 140.65896 
L 151.220483 140.696613 
L 151.108698 140.730417 
L 150.927446 140.785715 
L 150.713382 140.8518 
L 150.642592 140.87384 
L 150.350758 140.965677 
L 150.325851 140.973588 
L 150.111912 141.042014 
L 149.921457 141.103645 
L 149.846273 141.128161 
L 149.583058 141.214823 
L 149.482494 141.248276 
L 149.34905 141.29296 
L 149.134745 141.365423 
L 148.969301 141.421959 
L 148.848881 141.463435 
L 148.740878 141.50087 
L 148.473732 141.594418 
L 148.446374 141.604076 
L 148.284005 141.661686 
L 148.056477 141.743267 
L 147.897643 141.800809 
L 147.730402 141.861925 
L 147.614728 141.904513 
L 147.44089 141.969005 
L 147.226156 142.049484 
L 147.16206 142.07368 
L 147.024481 142.12589 
L 146.859486 142.188994 
L 146.625183 142.27953 
L 146.562668 142.30387 
L 146.286741 142.412228 
L 146.203864 142.445071 
L 145.963265 142.541195 
L 145.827098 142.596111 
L 145.677015 142.657072 
L 145.577578 142.697713 
L 145.436898 142.755552 
L 145.203956 142.852208 
L 145.069281 142.908595 
L 144.927702 142.968272 
L 144.814156 143.016432 
L 144.663386 143.080789 
L 144.454056 143.170922 
L 144.243284 143.262596 
L 144.095327 143.327502 
L 143.959838 143.387341 
L 143.800153 143.45836 
L 143.643887 143.52838 
L 143.591887 143.551795 
L 143.357378 143.658102 
L 143.215184 143.723131 
L 143.030592 143.808195 
L 142.828993 143.901933 
L 142.684787 143.969522 
L 142.511889 144.051153 
L 142.445844 144.082507 
L 142.247408 144.177282 
L 142.039565 144.277476 
L 142.010297 144.291661 
L 141.803656 144.392352 
L 141.703108 144.441688 
L 141.483423 144.550263 
L 141.399205 144.592172 
L 141.150036 144.717095 
L 141.086525 144.749161 
L 140.842612 144.873155 
L 140.764434 144.913183 
L 140.48026 145.059859 
L 140.425206 145.088489 
L 140.186673 145.21334 
L 140.056912 145.281812 
L 139.863371 145.384666 
L 139.749195 145.445754 
L 139.598656 145.526764 
L 139.502664 145.578699 
L 139.230183 145.727309 
L 139.134907 145.779688 
L 138.96068 145.876034 
L 138.898735 145.910464 
L 138.695131 146.024282 
L 138.492623 146.138484 
L 138.326138 146.233119 
L 138.248606 146.277421 
L 138.046154 146.393802 
L 138.046154 138.046154 
L 138.052504 138.935698 
L 138.058854 139.304127 
L 138.065204 139.586811 
L 138.071555 139.825106 
L 138.077905 140.035032 
L 138.084255 140.224805 
L 138.090605 140.399307 
L 138.096955 140.561716 
L 138.103305 140.714242 
L 138.109656 140.858494 
L 138.116006 140.995686 
L 138.122356 141.126761 
L 138.128706 141.25247 
L 138.135056 141.37342 
L 138.141406 141.490114 
L 138.147757 141.60297 
L 138.154107 141.712343 
L 138.160457 141.818535 
L 138.173157 142.02239 
L 138.185858 142.216252 
L 138.198558 142.401458 
L 138.211258 142.579066 
L 138.223959 142.749939 
L 138.236659 142.914786 
L 138.249359 143.074199 
L 138.262275 143.231258 
L 138.275191 143.383666 
L 138.288106 143.531811 
L 138.301022 143.676029 
L 138.325188 143.936322 
L 138.349354 144.185493 
L 138.37352 144.424848 
L 138.397687 144.655451 
L 138.421853 144.87819 
L 138.446019 145.09381 
L 138.470185 145.302946 
L 138.494351 145.506143 
L 138.521739 145.729837 
L 138.549126 145.947105 
L 138.576513 146.158464 
L 138.6039 146.364364 
L 138.631287 146.565201 
L 138.658674 146.761325 
L 138.686061 146.953048 
L 138.713448 147.140647 
L 138.753173 147.405939 
L 138.792898 147.663752 
L 138.832623 147.914672 
L 138.872348 148.159212 
L 138.908082 148.374108 
L 138.943816 148.584501 
L 138.987158 148.834024 
L 139.0305 149.077734 
L 139.073842 149.316008 
L 139.117184 149.549184 
L 139.173003 149.842463 
L 139.228822 150.128367 
L 139.28464 150.407409 
L 139.340459 150.680042 
L 139.39235 150.9281 
L 139.444241 151.171266 
L 139.495882 151.408664 
L 139.547522 151.641721 
L 139.599162 151.870657 
L 139.650802 152.095673 
L 139.706694 152.335013 
L 139.762586 152.570194 
L 139.828821 152.843785 
L 139.895056 153.112118 
L 139.959858 153.36982 
L 140.02466 153.622991 
L 140.089462 153.871846 
L 140.154264 154.116587 
L 140.232437 154.406613 
L 140.333384 154.773158 
L 140.434332 155.131245 
L 140.557817 155.558533 
L 140.657186 155.894328 
L 140.787838 156.325628 
L 140.91849 156.746071 
L 140.956712 156.867125 
L 141.079256 157.249577 
L 141.2018 157.623792 
L 141.347346 158.058188 
L 141.423915 158.28255 
L 141.510943 158.53423 
L 141.597971 158.782491 
L 141.69039 159.042522 
L 141.78281 159.29897 
L 141.924952 159.68669 
L 142.048345 160.016978 
L 142.220383 160.46822 
L 142.392232 160.908783 
L 142.590053 161.404079 
L 142.787065 161.885495 
L 142.976465 162.337811 
L 143.112374 162.656362 
L 143.275674 163.032767 
L 143.339703 163.178523 
L 143.459041 163.447525 
L 143.578378 163.713152 
L 143.674542 163.924813 
L 143.789228 164.174538 
L 143.949439 164.518619 
L 144.073801 164.781991 
L 144.198162 165.042221 
L 144.296604 165.246045 
L 144.438553 165.536671 
L 144.670119 166.002746 
L 144.702174 166.066501 
L 144.913117 166.481591 
L 145.087632 166.819303 
L 145.323046 167.267029 
L 145.382241 167.378238 
L 145.504942 167.607044 
L 145.660563 167.893989 
L 145.931003 168.384292 
L 145.988963 168.488034 
L 146.140434 168.756973 
L 146.294215 169.02687 
L 146.498548 169.380725 
L 146.668193 169.670498 
L 146.786098 169.869806 
L 146.995287 170.21932 
L 147.15455 170.481989 
L 147.317542 170.74782 
L 147.478324 171.007155 
L 147.609903 171.217301 
L 147.676499 171.322956 
L 147.896691 171.668994 
L 148.095759 171.977568 
L 148.208948 172.151258 
L 148.455206 172.524839 
L 148.496587 172.587046 
L 148.717329 172.916178 
L 148.820436 173.068377 
L 148.953043 173.262711 
L 149.20684 173.630312 
L 149.30828 173.775675 
L 149.51644 174.071238 
L 149.559605 174.132074 
L 149.7929 174.458229 
L 149.956628 174.684506 
L 150.177007 174.985745 
L 150.260922 175.09946 
L 150.462905 175.370978 
L 150.61055 175.567521 
L 150.699961 175.685763 
L 150.958442 176.024339 
L 151.079638 176.181452 
L 151.148627 176.270426 
L 151.3366 176.511178 
L 151.574959 176.813004 
L 151.615501 176.863962 
L 151.830674 177.1326 
L 151.982415 177.320231 
L 152.099039 177.463436 
L 152.308818 177.718862 
L 152.458255 177.899144 
L 152.637198 178.113223 
L 152.765713 178.265777 
L 152.923582 178.451829 
L 153.098389 178.656132 
L 153.174555 178.744594 
L 153.400394 179.004936 
L 153.584749 179.215318 
L 153.693096 179.338077 
L 153.830905 179.493283 
L 154.026537 179.711835 
L 154.140312 179.837992 
L 154.279044 179.990893 
L 154.417559 180.142543 
L 154.647665 180.392269 
L 154.84471 180.603962 
L 154.941134 180.706839 
L 155.183523 180.963405 
L 155.264271 181.048232 
L 155.470153 181.263079 
L 155.638253 181.436985 
L 155.746927 181.548697 
L 155.945892 181.751784 
L 156.081876 181.889525 
L 156.144774 181.952946 
L 156.37661 182.185153 
L 156.563263 182.370338 
L 156.666753 182.472344 
L 156.867846 182.669201 
L 156.963497 182.762215 
L 157.220299 183.00998 
L 157.243936 183.032643 
L 157.497303 183.27408 
L 157.66654 183.433844 
L 157.824392 183.581788 
L 157.903902 183.65592 
L 158.043903 183.785821 
L 158.267324 183.991482 
L 158.438919 184.148077 
L 158.544632 184.243969 
L 158.676199 184.362698 
L 158.931173 184.590871 
L 158.986571 184.640114 
L 159.224975 184.850689 
L 159.317917 184.932197 
L 159.459619 185.055841 
L 159.576507 185.157268 
L 159.826401 185.372412 
L 159.950121 185.478079 
L 160.076062 185.585071 
L 160.242325 185.725441 
L 160.421099 185.875269 
L 160.631621 186.050251 
L 160.767713 186.162539 
L 160.915616 186.283841 
L 160.983602 186.339346 
L 161.219655 186.530828 
L 161.356821 186.641221 
L 161.589632 186.827136 
L 161.718871 186.929558 
L 161.85103 187.033721 
L 161.966066 187.123917 
L 162.087712 187.218824 
L 162.242054 187.338545 
L 162.424734 187.47925 
L 162.568064 187.588895 
L 162.841165 187.796001 
L 162.972379 187.894669 
L 163.090838 187.983282 
L 163.216874 188.077082 
L 163.464381 188.259856 
L 163.573598 188.33991 
L 163.739772 188.461014 
L 163.834203 188.52946 
L 164.009871 188.656074 
L 164.123316 188.737348 
L 164.383426 188.922252 
L 164.432098 188.956629 
L 164.610932 189.082343 
L 164.781763 189.201558 
L 164.929742 189.304142 
L 165.13436 189.444951 
L 165.34368 189.587756 
L 165.481482 189.681091 
L 165.619752 189.774205 
L 165.788632 189.887204 
L 165.944036 189.990484 
L 166.012314 190.03565 
L 166.286205 190.215535 
L 166.414117 190.298841 
L 166.535367 190.377397 
L 166.651322 190.45215 
L 166.926848 190.628321 
L 166.998087 190.673541 
L 167.162144 190.777164 
L 167.24436 190.828826 
L 167.420222 190.938733 
L 167.568145 191.030551 
L 167.83373 191.193972 
L 167.92994 191.252722 
L 168.095536 191.353282 
L 168.206853 191.420486 
L 168.484189 191.586545 
L 168.538861 191.61905 
L 168.693702 191.710703 
L 168.944786 191.858043 
L 168.994234 191.886875 
L 169.2 192.006198 
z
" style="fill:#808080;opacity:0.5;"/>
   </g>
   <g id="patch_5">
    <path clip-path="url(#pcec5b0a306)" d="M 169.2 192.006198 
L 168.986068 192.129148 
L 168.449751 192.432455 
L 168.211266 192.565091 
L 167.890322 192.741438 
L 167.55742 192.921774 
L 167.401776 193.005193 
L 167.031703 193.201267 
L 166.570548 193.441167 
L 166.439828 193.508283 
L 166.068475 193.696832 
L 165.83491 193.813829 
L 165.379309 194.038538 
L 165.114177 194.16719 
L 164.847408 194.295076 
L 164.63357 194.396467 
L 164.201054 194.598517 
L 163.976949 194.701625 
L 163.682489 194.835474 
L 163.27888 195.015953 
L 162.881415 195.190343 
L 162.663768 195.284442 
L 162.221833 195.472498 
L 162.101492 195.523012 
L 161.668438 195.702343 
L 161.27917 195.8603 
L 161.010757 195.967441 
L 160.803077 196.049352 
L 160.533681 196.154326 
L 160.00129 196.357564 
L 159.712377 196.465528 
L 159.514973 196.538361 
L 159.176777 196.661385 
L 158.846808 196.77929 
L 158.613771 196.861302 
L 158.26811 196.981042 
L 158.050288 197.055332 
L 157.606227 197.204011 
L 157.322731 197.296994 
L 157.069337 197.378835 
L 156.641799 197.514217 
L 156.216207 197.645631 
L 156.04614 197.697214 
L 155.756631 197.78381 
L 155.278041 197.923617 
L 155.090123 197.977378 
L 154.657315 198.09878 
L 154.499293 198.142266 
L 154.024885 198.270141 
L 153.795977 198.33041 
L 153.542924 198.395956 
L 153.312131 198.45475 
L 153.04646 198.521267 
L 152.610961 198.627627 
L 152.282553 198.705642 
L 151.825214 198.81116 
L 151.531599 198.876995 
L 151.297667 198.928384 
L 150.955942 199.00176 
L 150.651285 199.065488 
L 150.539783 199.088416 
L 150.095447 199.177677 
L 149.855427 199.224496 
L 149.576385 199.2777 
L 149.05802 199.373043 
L 148.90208 199.400839 
L 148.564015 199.459696 
L 148.240155 199.514283 
L 147.753442 199.593023 
L 147.503202 199.63197 
L 147.429873 199.643186 
L 147.099177 199.692657 
L 146.559139 199.76955 
L 146.223827 199.814869 
L 146.028947 199.840357 
L 145.825488 199.8663 
L 145.515786 199.904485 
L 145.207339 199.940951 
L 144.755318 199.991579 
L 144.424737 200.026491 
L 144.30527 200.038669 
L 143.819763 200.08577 
L 143.512045 200.113638 
L 143.332823 200.12916 
L 143.009687 200.15583 
L 142.471481 200.196496 
L 142.332061 200.206266 
L 141.91697 200.233494 
L 141.529887 200.256379 
L 141.34213 200.266609 
L 140.930522 200.287048 
L 140.834148 200.29144 
L 140.390129 200.309741 
L 139.958365 200.324497 
L 139.889073 200.326586 
L 139.533335 200.336095 
L 139.007644 200.346427 
L 138.765099 200.349698 
L 138.456442 200.352495 
L 138.238767 200.353548 
L 137.758074 200.35318 
L 137.680753 200.352775 
L 137.248144 200.348736 
L 136.883045 200.342989 
L 136.492976 200.334485 
L 136.370687 200.331315 
L 136.053774 200.321983 
L 135.709574 200.310019 
L 135.483961 200.301143 
L 135.104368 200.284361 
L 134.681215 200.262918 
L 134.350496 200.244149 
L 134.002736 200.22251 
L 133.665354 200.19965 
L 133.626817 200.196922 
L 133.162817 200.162187 
L 132.976666 200.147271 
L 132.693021 200.123464 
L 132.356551 200.09353 
L 132.064727 200.066078 
L 131.72855 200.032736 
L 131.245548 199.981606 
L 130.926115 199.945698 
L 130.619519 199.909662 
L 130.392333 199.881965 
L 130.165426 199.853456 
L 129.780259 199.803125 
L 129.417575 199.753497 
L 129.249875 199.729815 
L 128.658478 199.642583 
L 128.515672 199.620649 
L 128.192901 199.569823 
L 127.85175 199.514216 
L 127.57942 199.46843 
L 127.393802 199.436511 
L 126.956726 199.359065 
L 126.510262 199.276634 
L 126.442229 199.263778 
L 125.994497 199.177211 
L 125.625053 199.103215 
L 125.277738 199.03153 
L 125.191824 199.013479 
L 124.652613 198.897297 
L 124.539688 198.872332 
L 123.965562 198.741998 
L 123.851988 198.715538 
L 123.609503 198.658295 
L 123.313392 198.587002 
L 122.821528 198.465185 
L 122.433082 198.365972 
L 122.365925 198.34855 
L 121.912136 198.228726 
L 121.71093 198.174425 
L 121.418562 198.094232 
L 120.862427 197.937456 
L 120.587471 197.857883 
L 120.479738 197.826331 
L 119.913779 197.657105 
L 119.683603 197.586604 
L 119.294155 197.465099 
L 119.103942 197.404735 
L 118.810792 197.310387 
L 118.539932 197.221789 
L 118.123642 197.082939 
L 117.847884 196.989164 
L 117.553475 196.887454 
L 117.133247 196.739414 
L 117.061461 196.713787 
L 116.69525 196.581506 
L 116.379054 196.465203 
L 116.093178 196.358377 
L 115.737497 196.223232 
L 115.286303 196.048203 
L 115.048504 195.954328 
L 114.586675 195.768778 
L 114.321743 195.660395 
L 114.134548 195.582956 
L 113.801815 195.443545 
L 113.617756 195.365452 
L 113.163252 195.169614 
L 112.708381 194.969311 
L 112.409148 194.835171 
L 112.302342 194.786833 
L 111.880124 194.593368 
L 111.60477 194.465138 
L 111.370613 194.354804 
L 110.931959 194.144897 
L 110.71957 194.041746 
L 110.398331 193.883833 
L 109.96265 193.665983 
L 109.698791 193.531968 
L 109.350093 193.352434 
L 109.098676 193.221257 
L 108.854962 193.092705 
L 108.424678 192.862362 
L 108.261793 192.774029 
L 107.849204 192.547464 
L 107.437799 192.317483 
L 107.210093 192.188428 
L 106.892308 192.006198 
L 106.892308 200.353846 
L 106.898343 201.221051 
L 106.904378 201.580229 
L 106.910413 201.855816 
L 106.916449 202.088129 
L 106.922484 202.292786 
L 106.928519 202.477797 
L 106.934554 202.64792 
L 106.940589 202.806255 
L 106.946625 202.954955 
L 106.95266 203.09559 
L 106.96473 203.35713 
L 106.976801 203.597606 
L 106.988871 203.821404 
L 107.000941 204.031568 
L 107.013012 204.230317 
L 107.025082 204.419326 
L 107.037153 204.599896 
L 107.049223 204.773061 
L 107.061294 204.939659 
L 107.085434 205.255811 
L 107.113033 205.593794 
L 107.140632 205.911123 
L 107.16823 206.211156 
L 107.195829 206.496427 
L 107.223428 206.768906 
L 107.251026 207.030161 
L 107.278625 207.28146 
L 107.306224 207.52385 
L 107.333822 207.758208 
L 107.361421 207.985271 
L 107.416618 208.419964 
L 107.471815 208.832039 
L 107.527013 209.22465 
L 107.566465 209.49474 
L 107.605918 209.75691 
L 107.645371 210.011804 
L 107.684824 210.259985 
L 107.763729 210.738119 
L 107.842634 211.194612 
L 107.895939 211.492095 
L 107.949243 211.781589 
L 108.002548 212.063685 
L 108.055852 212.338907 
L 108.113621 212.629954 
L 108.17139 212.913994 
L 108.286928 213.46286 
L 108.402467 213.988672 
L 108.518005 214.494002 
L 108.629536 214.964369 
L 108.741066 215.419232 
L 108.892446 216.014224 
L 109.043825 216.58601 
L 109.192947 217.12889 
L 109.342069 217.653458 
L 109.513654 218.236482 
L 109.68524 218.799493 
L 109.849107 219.320134 
L 110.012974 219.82548 
L 110.141094 220.210689 
L 110.269215 220.587754 
L 110.393254 220.945475 
L 110.517294 221.296351 
L 110.740085 221.910444 
L 110.962877 222.50528 
L 111.19143 223.097071 
L 111.419982 223.67161 
L 111.671699 224.285898 
L 111.864864 224.745048 
L 112.05803 225.194212 
L 112.161633 225.43119 
L 112.477977 226.138738 
L 112.73084 226.687902 
L 113.01619 227.291329 
L 113.30154 227.878574 
L 113.46795 228.213981 
L 113.684605 228.643233 
L 113.901259 229.064433 
L 114.215457 229.66167 
L 114.410014 230.023797 
L 114.816922 230.763209 
L 115.161427 231.371279 
L 115.272221 231.56351 
L 115.525098 231.996436 
L 115.777976 232.421523 
L 116.029493 232.836852 
L 116.369454 233.386889 
L 116.601237 233.754724 
L 116.855005 234.151035 
L 117.340795 234.891816 
L 117.484002 235.105883 
L 117.913597 235.7368 
L 118.258816 236.232033 
L 118.512158 236.589067 
L 118.694747 236.843132 
L 119.005688 237.26969 
L 119.468766 237.8912 
L 119.858775 238.402395 
L 119.908112 238.466289 
L 120.312362 238.983464 
L 120.676163 239.439468 
L 120.855464 239.661025 
L 121.285675 240.184312 
L 121.635835 240.601811 
L 121.79431 240.78835 
L 122.14497 241.195891 
L 122.636497 241.7554 
L 122.813447 241.953561 
L 123.035181 242.199491 
L 123.349389 242.543536 
L 123.879536 243.112519 
L 124.224144 243.474849 
L 124.53925 243.801124 
L 124.715854 243.981925 
L 125.078776 244.348915 
L 125.34403 244.613336 
L 125.56338 244.829613 
L 125.8394 245.098755 
L 126.253472 245.496334 
L 126.51363 245.742417 
L 126.926484 246.127183 
L 127.332856 246.499168 
L 127.434771 246.59143 
L 127.881355 246.990935 
L 128.154805 247.231778 
L 128.649854 247.660655 
L 128.663055 247.671967 
L 129.22576 248.148288 
L 129.501371 248.377459 
L 129.603326 248.461558 
L 129.995785 248.781917 
L 130.446895 249.143654 
L 130.608403 249.271503 
L 130.88673 249.489799 
L 131.403641 249.888519 
L 131.767783 250.164263 
L 131.941531 250.294361 
L 132.379647 250.618248 
L 132.627131 250.798606 
L 132.907324 251.000565 
L 133.168693 251.186842 
L 133.564381 251.465011 
L 133.781538 251.615733 
L 133.976881 251.750153 
L 134.479948 252.091323 
L 134.690141 252.231762 
L 134.961206 252.41106 
L 135.359754 252.671016 
L 135.787647 252.945321 
L 136.096293 253.140143 
L 136.39711 253.327603 
L 136.761863 253.551739 
L 137.056306 253.730166 
L 137.379942 253.92373 
L 137.705517 254.115785 
L 137.98804 254.280297 
L 138.129314 254.361818 
L 138.64743 254.656599 
L 138.763349 254.721657 
L 139.14198 254.9319 
L 139.487351 255.120688 
L 139.720862 255.246732 
L 139.993111 255.392071 
L 140.259222 255.532464 
L 140.553636 255.685884 
L 141.063376 255.946821 
L 141.488661 256.160031 
L 141.78811 256.307727 
L 142.050654 256.435586 
L 142.226621 256.520432 
L 142.512764 256.656954 
L 143.045057 256.906189 
L 143.201791 256.978414 
L 143.496138 257.112634 
L 143.730488 257.21818 
L 144.096745 257.380814 
L 144.594008 257.597131 
L 144.901635 257.728387 
L 145.003541 257.771438 
L 145.415829 257.943443 
L 145.695864 258.058301 
L 146.072544 258.2103 
L 146.41684 258.346744 
L 146.629379 258.429793 
L 147.092756 258.607758 
L 147.197744 258.647493 
L 147.456087 258.744349 
L 147.935859 258.920772 
L 148.262758 259.03843 
L 148.388538 259.083154 
L 148.922841 259.269764 
L 149.119049 259.336928 
L 149.51081 259.468855 
L 149.847474 259.579924 
L 150.235468 259.7053 
L 150.378126 259.750694 
L 150.72796 259.860419 
L 150.987059 259.940231 
L 151.350491 260.050107 
L 151.817186 260.187668 
L 152.058964 260.25738 
L 152.34943 260.339735 
L 152.537746 260.392316 
L 153.054977 260.533467 
L 153.226582 260.579243 
L 153.694849 260.701496 
L 153.925585 260.760309 
L 154.310542 260.856347 
L 154.54078 260.912543 
L 154.671674 260.944079 
L 155.197389 261.067728 
L 155.278706 261.086425 
L 155.735972 261.189432 
L 156.061941 261.26066 
L 156.36523 261.325292 
L 156.529543 261.359649 
L 157.047382 261.464912 
L 157.146891 261.484617 
L 157.476735 261.548728 
L 157.990081 261.644843 
L 158.234997 261.689132 
L 158.436377 261.724792 
L 158.950964 261.812823 
L 159.063029 261.831406 
L 159.399698 261.885973 
L 159.779828 261.945314 
L 160.154608 262.001469 
L 160.516165 262.053437 
L 160.746792 262.085457 
L 160.910593 262.107666 
L 161.419881 262.173894 
L 161.620929 262.198864 
L 162.102086 262.255931 
L 162.20048 262.267134 
L 162.675293 262.318971 
L 163.077851 262.360038 
L 163.375347 262.388691 
L 163.54972 262.404816 
L 163.740841 262.421923 
L 164.220975 262.462282 
L 164.421398 262.478024 
L 164.865579 262.510594 
L 165.135257 262.528812 
L 165.544927 262.55424 
L 165.869466 262.572461 
L 166.03967 262.581339 
L 166.498298 262.602937 
L 166.645912 262.609168 
L 167.050305 262.624444 
L 167.331557 262.633517 
L 167.605405 262.64113 
L 168.040794 262.650754 
L 168.184421 262.653261 
L 168.558949 262.658241 
L 168.931818 262.660961 
L 169.2 262.661538 
z
" style="fill:#808080;opacity:0.5;"/>
   </g>
   <g id="patch_6">
    <path clip-path="url(#pcec5b0a306)" d="M 200.353846 146.393802 
L 200.132249 146.266468 
L 200.001702 146.192018 
L 199.875852 146.12064 
L 199.720347 146.032976 
L 199.559713 145.943035 
L 199.346943 145.82486 
L 199.233064 145.762056 
L 199.178221 145.73192 
L 198.894102 145.576946 
L 198.803848 145.528116 
L 198.632702 145.436048 
L 198.504535 145.36755 
L 198.262681 145.239337 
L 198.176624 145.194044 
L 197.952249 145.076756 
L 197.79415 144.994808 
L 197.661832 144.926663 
L 197.495959 144.8418 
L 197.337504 144.761316 
L 197.239459 144.7118 
L 197.103875 144.643683 
L 196.947641 144.565703 
L 196.807998 144.496466 
L 196.577858 144.383305 
L 196.37475 144.284412 
L 196.33922 144.267205 
L 196.091401 144.147965 
L 196.041649 144.124188 
L 195.858621 144.037184 
L 195.711907 143.967968 
L 195.51266 143.874713 
L 195.306541 143.779143 
L 195.143945 143.704396 
L 195.086011 143.677899 
L 194.834326 143.563619 
L 194.676268 143.492539 
L 194.501837 143.414707 
L 194.383497 143.362268 
L 194.2865 143.319505 
L 194.129688 143.250789 
L 193.906976 143.154075 
L 193.845773 143.127677 
L 193.61659 143.029518 
L 193.499917 142.979962 
L 193.271737 142.883854 
L 193.213675 142.859569 
L 192.937426 142.744966 
L 192.876064 142.71972 
L 192.670895 142.635863 
L 192.518578 142.574157 
L 192.414907 142.532426 
L 192.27103 142.474868 
L 192.036175 142.381804 
L 191.961771 142.35255 
L 191.671602 142.239514 
L 191.594656 142.209819 
L 191.492371 142.170526 
L 191.263069 142.083189 
L 191.186133 142.054117 
L 190.991652 141.981143 
L 190.751682 141.892119 
L 190.663537 141.8597 
L 190.416557 141.769665 
L 190.381623 141.757026 
L 190.11438 141.66111 
L 190.097512 141.655103 
L 189.809978 141.553529 
L 189.768992 141.539179 
L 189.617057 141.486263 
L 189.421507 141.418804 
L 189.226001 141.352085 
L 189.099316 141.309238 
L 188.900042 141.242452 
L 188.81586 141.214464 
L 188.634766 141.154704 
L 188.513099 141.1149 
L 188.298851 141.045479 
L 188.076136 140.97422 
L 187.928907 140.927618 
L 187.83586 140.898374 
L 187.602492 140.825728 
L 187.47458 140.786336 
L 187.369289 140.754136 
L 187.187061 140.698887 
L 187.038056 140.654162 
L 186.821427 140.589862 
L 186.694624 140.55262 
L 186.548082 140.509944 
L 186.469451 140.487206 
L 186.191298 140.407668 
L 186.164717 140.40014 
L 185.944526 140.33827 
L 185.779247 140.292402 
L 185.705106 140.271985 
L 185.463577 140.206157 
L 185.354216 140.176692 
L 185.169251 140.127344 
L 185.053685 140.09682 
L 184.868268 140.048341 
L 184.725987 140.011554 
L 184.526945 139.96069 
L 184.370384 139.921173 
L 184.193006 139.876923 
L 184.028153 139.836292 
L 183.898315 139.804626 
L 183.740325 139.766492 
L 183.595032 139.731807 
L 183.480229 139.704662 
L 183.28857 139.659854 
L 183.203827 139.640245 
L 183.000088 139.593612 
L 182.797504 139.547955 
L 182.65596 139.516476 
L 182.499918 139.482172 
L 182.404509 139.461404 
L 182.163866 139.409718 
L 182.039728 139.383444 
L 181.879154 139.34985 
L 181.795818 139.332588 
L 181.579522 139.288341 
L 181.459732 139.264178 
L 181.249001 139.222266 
L 181.122566 139.197482 
L 180.94918 139.163934 
L 180.742825 139.124672 
L 180.681073 139.113063 
L 180.493376 139.078173 
L 180.240689 139.032139 
L 180.132267 139.012718 
L 179.965153 138.983169 
L 179.893457 138.970636 
L 179.616769 138.923077 
L 179.480641 138.900149 
L 179.421457 138.890277 
L 179.193113 138.852739 
L 179.091369 138.836293 
L 178.947091 138.813268 
L 178.72235 138.778093 
L 178.616178 138.761768 
L 178.489593 138.742549 
L 178.258154 138.708097 
L 178.168004 138.694918 
L 177.911045 138.658091 
L 177.84236 138.648432 
L 177.685353 138.626646 
L 177.554214 138.60876 
L 177.359159 138.582683 
L 177.158894 138.55656 
L 177.054434 138.543197 
L 176.899539 138.523711 
L 176.728866 138.502697 
L 176.534848 138.479388 
L 176.453463 138.469795 
L 176.275116 138.449151 
L 176.104915 138.429936 
L 175.922467 138.409864 
L 175.740796 138.390417 
L 175.696432 138.38575 
L 175.397769 138.355167 
L 175.319905 138.347433 
L 175.153008 138.331187 
L 175.051485 138.321527 
L 174.897282 138.307174 
L 174.62686 138.282937 
L 174.514542 138.27322 
L 174.307371 138.255833 
L 174.142573 138.242499 
L 174.057316 138.235773 
L 173.955167 138.22787 
L 173.683531 138.207676 
L 173.634192 138.204136 
L 173.503102 138.194922 
L 173.303533 138.181428 
L 173.101304 138.168411 
L 173.000045 138.162141 
L 172.846404 138.152944 
L 172.58884 138.13838 
L 172.496203 138.133403 
L 172.320158 138.124326 
L 172.167717 138.11687 
L 172.036722 138.110762 
L 171.883265 138.103958 
L 171.648748 138.094291 
L 171.626404 138.093417 
L 171.459445 138.087134 
L 171.193677 138.078058 
L 171.008564 138.072407 
L 170.861361 138.068307 
L 170.831318 138.067513 
L 170.592177 138.061709 
L 170.457834 138.058851 
L 170.29987 138.055862 
L 170.158922 138.053533 
L 169.98502 138.051099 
L 169.830733 138.049346 
L 169.676927 138.047979 
L 169.503172 138.046891 
L 169.366854 138.046377 
L 169.2 138.046154 
L 169.2 262.661538 
L 169.348483 262.661362 
L 169.547958 262.660567 
L 169.617723 262.660138 
L 169.827377 262.65838 
L 169.951992 262.657 
L 170.153912 262.654236 
L 170.298933 262.651847 
L 170.423976 262.649515 
L 170.613905 262.645494 
L 170.719476 262.643008 
L 170.944752 262.637105 
L 171.139571 262.631343 
L 171.234993 262.628298 
L 171.359743 262.624096 
L 171.548017 262.617281 
L 171.693604 262.61162 
L 171.831013 262.605965 
L 171.961787 262.6003 
L 172.121582 262.593005 
L 172.258129 262.586445 
L 172.563608 262.570682 
L 172.710164 262.562586 
L 172.811119 262.556807 
L 172.889284 262.55222 
L 173.040247 262.543082 
L 173.210798 262.532315 
L 173.386227 262.520751 
L 173.582546 262.507219 
L 173.792559 262.492054 
L 173.852121 262.487624 
L 174.020473 262.474789 
L 174.183865 262.461894 
L 174.30685 262.451903 
L 174.453756 262.439646 
L 174.663395 262.42155 
L 174.820882 262.407486 
L 174.917281 262.398678 
L 175.113512 262.380283 
L 175.307486 262.361484 
L 175.426696 262.349626 
L 175.604946 262.331465 
L 175.76726 262.314476 
L 175.954601 262.294333 
L 176.047218 262.284163 
L 176.218921 262.264938 
L 176.346727 262.250315 
L 176.487315 262.23392 
L 176.783141 262.198365 
L 176.861036 262.188764 
L 177.070159 262.162495 
L 177.234375 262.141364 
L 177.266187 262.137219 
L 177.444259 262.11371 
L 177.638029 262.087534 
L 177.867466 262.055739 
L 177.991812 262.038144 
L 178.078764 262.025688 
L 178.208249 262.006907 
L 178.509894 261.962079 
L 178.60251 261.948012 
L 178.691572 261.934351 
L 178.839173 261.91142 
L 179.075573 261.873937 
L 179.162145 261.859977 
L 179.333119 261.832041 
L 179.537579 261.797991 
L 179.683127 261.773327 
L 179.9102 261.734137 
L 179.973974 261.722975 
L 180.192667 261.68418 
L 180.304192 261.664085 
L 180.40139 261.646402 
L 180.635752 261.603108 
L 180.744009 261.582797 
L 180.964496 261.540815 
L 181.072972 261.519858 
L 181.192852 261.496466 
L 181.430707 261.449331 
L 181.537394 261.427877 
L 181.741019 261.38639 
L 181.842625 261.365423 
L 182.058879 261.320212 
L 182.161263 261.298527 
L 182.283431 261.272418 
L 182.534788 261.217891 
L 182.608952 261.201595 
L 182.853184 261.147259 
L 183.005838 261.112774 
L 183.210097 261.066001 
L 183.27654 261.05063 
L 183.476446 261.003921 
L 183.559496 260.984312 
L 183.689834 260.953295 
L 183.978265 260.883602 
L 184.007696 260.876409 
L 184.216858 260.824852 
L 184.451649 260.766061 
L 184.500101 260.753808 
L 184.74037 260.692436 
L 184.892892 260.652948 
L 185.033625 260.616147 
L 185.188253 260.575307 
L 185.264567 260.554994 
L 185.436196 260.508933 
L 185.619211 260.459237 
L 185.79661 260.410495 
L 186.027471 260.346218 
L 186.16095 260.308618 
L 186.263069 260.279635 
L 186.452627 260.225337 
L 186.592601 260.184824 
L 186.693008 260.155545 
L 186.846358 260.110474 
L 187.076652 260.041984 
L 187.212054 260.001264 
L 187.346692 259.960441 
L 187.495973 259.914789 
L 187.640621 259.870163 
L 187.902347 259.788438 
L 188.021851 259.750702 
L 188.168077 259.704167 
L 188.247821 259.678622 
L 188.45564 259.611494 
L 188.580182 259.57088 
L 188.837427 259.486071 
L 188.958218 259.44582 
L 189.03634 259.419641 
L 189.279827 259.337311 
L 189.394495 259.29815 
L 189.485463 259.266905 
L 189.634448 259.215394 
L 189.940156 259.108373 
L 189.948307 259.105495 
L 190.100309 259.051594 
L 190.376403 258.952553 
L 190.49601 258.909192 
L 190.638415 258.857204 
L 190.81476 258.792281 
L 190.967079 258.735717 
L 191.112509 258.681288 
L 191.323173 258.601711 
L 191.450385 258.553235 
L 191.525796 258.524349 
L 191.783243 258.424886 
L 191.832776 258.405599 
L 192.049682 258.320565 
L 192.26517 258.23516 
L 192.406663 258.178575 
L 192.518175 258.133697 
L 192.673213 258.070887 
L 192.909226 257.974338 
L 192.994805 257.939051 
L 193.215961 257.847169 
L 193.380284 257.778252 
L 193.465377 257.742347 
L 193.637922 257.669084 
L 193.70742 257.639402 
L 193.988084 257.518516 
L 194.13407 257.45499 
L 194.179431 257.435161 
L 194.447687 257.317017 
L 194.59133 257.253134 
L 194.683706 257.21182 
L 194.920674 257.105017 
L 194.974355 257.080658 
L 195.245808 256.956535 
L 195.41039 256.880512 
L 195.553369 256.813995 
L 195.581728 256.80075 
L 195.839295 256.679653 
L 195.947601 256.628302 
L 196.057563 256.575904 
L 196.283842 256.467249 
L 196.375256 256.423035 
L 196.533421 256.346101 
L 196.710836 256.259145 
L 196.859064 256.185958 
L 197.006947 256.112453 
L 197.15136 256.0402 
L 197.344257 255.942958 
L 197.602838 255.811283 
L 197.769116 255.725808 
L 197.779629 255.720382 
L 197.961254 255.626252 
L 198.098104 255.554826 
L 198.252102 255.473932 
L 198.440261 255.374348 
L 198.631263 255.272416 
L 198.776278 255.194454 
L 199.017425 255.063714 
L 199.115184 255.010322 
L 199.312382 254.901925 
L 199.435756 254.833637 
L 199.597331 254.74365 
L 199.776063 254.643375 
L 199.9364 254.55276 
L 200.055688 254.484937 
L 200.182639 254.412376 
L 200.353846 254.313891 
z
" style="fill:#808080;opacity:0.5;"/>
   </g>
   <g id="patch_7">
    <path clip-path="url(#pcec5b0a306)" d="M 231.507692 200.353846 
L 231.503066 199.594546 
L 231.498439 199.280053 
L 231.493812 199.038748 
L 231.489185 198.83533 
L 231.484559 198.656125 
L 231.479932 198.49412 
L 231.475305 198.34515 
L 231.470679 198.206499 
L 231.466052 198.076283 
L 231.461425 197.953129 
L 231.456799 197.835999 
L 231.452172 197.724089 
L 231.447545 197.616759 
L 231.442918 197.51349 
L 231.438292 197.413853 
L 231.433665 197.31749 
L 231.424412 197.133424 
L 231.415158 196.959349 
L 231.405905 196.7938 
L 231.396651 196.635637 
L 231.387398 196.483956 
L 231.378145 196.33802 
L 231.368891 196.197226 
L 231.359638 196.061067 
L 231.346006 195.868045 
L 231.332375 195.683033 
L 231.318744 195.505114 
L 231.305112 195.333533 
L 231.291481 195.167661 
L 231.27785 195.006967 
L 231.264218 194.850998 
L 231.250587 194.699362 
L 231.236955 194.551719 
L 231.223324 194.407773 
L 231.209693 194.26726 
L 231.196061 194.129949 
L 231.168799 193.864122 
L 231.141536 193.608874 
L 231.123739 193.447391 
L 231.105941 193.289644 
L 231.088144 193.135387 
L 231.070347 192.984402 
L 231.034668 192.690798 
L 230.99899 192.408196 
L 230.963312 192.13546 
L 230.927633 191.871639 
L 230.895515 191.641102 
L 230.863398 191.416626 
L 230.83128 191.197763 
L 230.799162 190.984122 
L 230.760694 190.734619 
L 230.722225 190.491576 
L 230.683756 190.254527 
L 230.645287 190.023059 
L 230.606819 189.796804 
L 230.56835 189.575436 
L 230.529881 189.358658 
L 230.491413 189.146204 
L 230.455598 188.952082 
L 230.419784 188.761322 
L 230.348154 188.389242 
L 230.286728 188.079476 
L 230.225302 187.777638 
L 230.174306 187.532673 
L 230.123311 187.292502 
L 230.072315 187.056863 
L 230.02132 186.82552 
L 229.958505 186.546146 
L 229.895691 186.272594 
L 229.805718 185.890254 
L 229.715745 185.518311 
L 229.660931 185.296476 
L 229.606116 185.078059 
L 229.523682 184.755706 
L 229.462851 184.522319 
L 229.402021 184.292553 
L 229.341191 184.066254 
L 229.280361 183.843282 
L 229.206285 183.576053 
L 229.143039 183.351475 
L 229.079793 183.130056 
L 229.009429 182.887286 
L 228.939065 182.648123 
L 228.868701 182.412423 
L 228.798337 182.180053 
L 228.670179 181.764969 
L 228.589808 181.50977 
L 228.509438 181.25832 
L 228.423838 180.994469 
L 228.338239 180.73454 
L 228.253248 180.480183 
L 228.168256 180.229401 
L 228.080951 179.975373 
L 227.993646 179.724843 
L 227.975337 179.672736 
L 227.824495 179.24894 
L 227.673654 178.834544 
L 227.586273 178.598578 
L 227.479555 178.314291 
L 227.372837 178.034134 
L 227.339002 177.946148 
L 227.197429 177.582226 
L 227.06909 177.258026 
L 226.940751 176.939019 
L 226.764202 176.508278 
L 226.670772 176.283971 
L 226.490985 175.859121 
L 226.294608 175.404813 
L 226.21525 175.223987 
L 226.02968 174.807105 
L 225.875825 174.467569 
L 225.676925 174.036447 
L 225.548109 173.761759 
L 225.474033 173.605355 
L 225.315005 173.273323 
L 225.083742 172.799248 
L 224.909566 172.44878 
L 224.712968 172.059696 
L 224.65158 171.939575 
L 224.430595 171.512384 
L 224.325434 171.311894 
L 224.086218 170.862294 
L 223.964837 170.637502 
L 223.77385 170.288194 
L 223.721926 170.194135 
L 223.5593 169.901999 
L 223.315775 169.471304 
L 223.201883 169.272578 
L 223.123779 169.13727 
L 222.964991 168.864573 
L 222.75895 168.515388 
L 222.621842 168.285867 
L 222.41294 167.940399 
L 222.197257 167.588937 
L 222.090881 167.417495 
L 222.012418 167.291829 
L 221.729172 166.843629 
L 221.661389 166.737613 
L 221.505834 166.496081 
L 221.323197 166.215585 
L 221.222066 166.061672 
L 221.059113 165.815738 
L 220.925573 165.616062 
L 220.688412 165.265502 
L 220.591656 165.123941 
L 220.43582 164.897687 
L 220.204657 164.56595 
L 220.06133 164.362546 
L 219.913728 164.154864 
L 219.739381 163.911845 
L 219.593428 163.71028 
L 219.425836 163.480903 
L 219.253624 163.247469 
L 219.167785 163.131957 
L 219.040761 162.962042 
L 218.900299 162.775543 
L 218.646998 162.442859 
L 218.482181 162.228853 
L 218.280817 161.969971 
L 218.157968 161.813402 
L 218.002338 161.616522 
L 217.813838 161.380224 
L 217.682479 161.216935 
L 217.504984 160.998071 
L 217.451533 160.932556 
L 217.299112 160.746726 
L 217.1365 160.550071 
L 217.009895 160.39809 
L 216.721605 160.055639 
L 216.582035 159.891626 
L 216.552573 159.85715 
L 216.244756 159.499967 
L 216.145552 159.386009 
L 216.08633 159.318244 
L 215.88782 159.092533 
L 215.703763 158.8852 
L 215.569014 158.734583 
L 215.386824 158.532491 
L 215.265596 158.398997 
L 215.027874 158.139459 
L 214.870977 157.969765 
L 214.728532 157.816788 
L 214.543825 157.619947 
L 214.506897 157.580798 
L 214.358544 157.424201 
L 214.100237 157.154109 
L 214.001474 157.051694 
L 213.833285 156.878355 
L 213.732761 156.775391 
L 213.581407 156.621259 
L 213.403806 156.441752 
L 213.151317 156.189038 
L 213.002462 156.0414 
L 212.837145 155.878594 
L 212.695586 155.740143 
L 212.601019 155.648141 
L 212.432121 155.484789 
L 212.329216 155.385866 
L 212.027507 155.098425 
L 211.99644 155.069045 
L 211.711021 154.801002 
L 211.67631 154.768634 
L 211.500422 154.605372 
L 211.240644 154.366535 
L 211.177773 154.309138 
L 210.976189 154.126164 
L 210.876808 154.036547 
L 210.703058 153.880793 
L 210.509098 153.7083 
L 210.395911 153.608307 
L 210.259539 153.488478 
L 210.100998 153.350049 
L 209.892818 153.169706 
L 209.734869 153.033947 
L 209.629895 152.944226 
L 209.381336 152.73338 
L 209.205736 152.585765 
L 209.179138 152.563501 
L 208.896624 152.328576 
L 208.741308 152.200617 
L 208.689116 152.157806 
L 208.567307 152.05826 
L 208.406224 151.927401 
L 208.242889 151.79562 
L 208.013024 151.611691 
L 207.925737 151.542312 
L 207.785305 151.431226 
L 207.605249 151.289752 
L 207.42423 151.148595 
L 207.267357 151.027131 
L 207.085353 150.887206 
L 207.005731 150.826326 
L 206.7324 150.618874 
L 206.539225 150.473682 
L 206.403025 150.372015 
L 206.358746 150.339087 
L 206.197158 150.219438 
L 205.940065 150.030729 
L 205.760928 149.900431 
L 205.626621 149.803379 
L 205.477814 149.69648 
L 205.400714 149.641354 
L 205.246901 149.531907 
L 205.105643 149.432011 
L 204.897475 149.285864 
L 204.795991 149.215075 
L 204.523339 149.026366 
L 204.497599 149.008661 
L 204.263912 148.848792 
L 204.063822 148.713141 
L 203.876367 148.58708 
L 203.783164 148.524768 
L 203.643175 148.431633 
L 203.535513 148.360375 
L 203.374853 148.254633 
L 203.11521 148.085241 
L 203.026932 148.028067 
L 202.90342 147.948427 
L 202.696376 147.815847 
L 202.617223 147.765466 
L 202.420175 147.640769 
L 202.157646 147.476232 
L 202.044582 147.405929 
L 201.9144 147.325396 
L 201.798361 147.253984 
L 201.543089 147.098113 
L 201.425192 147.026691 
L 201.326267 146.967036 
L 201.151584 146.862306 
L 200.988199 146.765051 
L 200.749492 146.62417 
L 200.72257 146.608371 
L 200.488153 146.471567 
L 200.353846 146.393802 
L 200.353846 254.313891 
L 200.477406 254.242365 
L 200.714256 254.104197 
L 200.762739 254.075742 
L 200.904506 253.992198 
L 201.090875 253.881602 
L 201.329812 253.738523 
L 201.477939 253.649091 
L 201.601457 253.574088 
L 201.776897 253.466879 
L 201.852353 253.420525 
L 202.05205 253.29713 
L 202.300305 253.142276 
L 202.437171 253.056208 
L 202.551789 252.983749 
L 202.755146 252.854329 
L 202.799554 252.82592 
L 203.08396 252.642715 
L 203.226747 252.549909 
L 203.311515 252.494551 
L 203.497814 252.372193 
L 203.658227 252.266071 
L 203.734883 252.215107 
L 203.943002 252.075914 
L 204.093554 251.974466 
L 204.301946 251.832987 
L 204.480481 251.710795 
L 204.572182 251.647679 
L 204.752381 251.522946 
L 204.904131 251.417175 
L 205.049971 251.314891 
L 205.130674 251.258023 
L 205.348437 251.103615 
L 205.454587 251.027838 
L 205.690166 250.858463 
L 205.782063 250.791939 
L 205.998651 250.634139 
L 206.085719 250.5703 
L 206.261343 250.440824 
L 206.505906 250.258935 
L 206.627687 250.167667 
L 206.835035 250.011198 
L 206.895919 249.964996 
L 207.047914 249.849138 
L 207.189794 249.740323 
L 207.408022 249.571684 
L 207.545567 249.464599 
L 207.659114 249.37573 
L 207.907961 249.179477 
L 208.023058 249.08801 
L 208.253606 248.903453 
L 208.33747 248.835874 
L 208.487111 248.714692 
L 208.72227 248.522702 
L 208.779776 248.475462 
L 208.900722 248.375729 
L 209.159034 248.161002 
L 209.299602 248.043158 
L 209.391153 247.966027 
L 209.530755 247.847832 
L 209.708014 247.696737 
L 209.843463 247.580506 
L 210.124964 247.336777 
L 210.174694 247.293413 
L 210.325901 247.160991 
L 210.46077 247.042146 
L 210.642628 246.880796 
L 210.863997 246.682669 
L 210.954221 246.601371 
L 211.206307 246.372523 
L 211.335989 246.253813 
L 211.540086 246.065613 
L 211.614803 245.996294 
L 211.74792 245.872228 
L 211.897689 245.731769 
L 212.17164 245.472431 
L 212.306599 245.343508 
L 212.457515 245.198421 
L 212.493742 245.163448 
L 212.738037 244.926123 
L 212.887634 244.779505 
L 213.046962 244.622259 
L 213.241135 244.429088 
L 213.284426 244.385788 
L 213.458806 244.210506 
L 213.659077 244.007472 
L 213.856032 243.805973 
L 214.01561 243.641369 
L 214.110754 243.542649 
L 214.293199 243.352125 
L 214.413569 243.225535 
L 214.540282 243.091504 
L 214.695615 242.926108 
L 214.876204 242.732294 
L 215.106775 242.482417 
L 215.298644 242.27238 
L 215.445991 242.109766 
L 215.478312 242.073941 
L 215.701173 241.825396 
L 215.84136 241.66767 
L 216.029061 241.454789 
L 216.179938 241.282246 
L 216.277517 241.169969 
L 216.481146 240.933912 
L 216.591174 240.805363 
L 216.785296 240.576826 
L 216.900684 240.43992 
L 217.12276 240.174162 
L 217.249251 240.02144 
L 217.472015 239.750053 
L 217.599398 239.593454 
L 217.792468 239.354109 
L 217.963054 239.140611 
L 218.014539 239.075795 
L 218.238234 238.79211 
L 218.283755 238.733965 
L 218.510086 238.442742 
L 218.664469 238.242034 
L 218.885008 237.952364 
L 218.96668 237.844193 
L 219.081895 237.69076 
L 219.369759 237.303052 
L 219.38221 237.28614 
L 219.577504 237.019301 
L 219.734672 236.802377 
L 219.884659 236.593519 
L 220.077855 236.321782 
L 220.203551 236.143318 
L 220.344507 235.941595 
L 220.540021 235.658956 
L 220.686947 235.44434 
L 220.859387 235.189981 
L 221.055388 234.897546 
L 221.223478 234.643877 
L 221.385754 234.396402 
L 221.53719 234.16312 
L 221.672132 233.953309 
L 221.788383 233.771065 
L 221.972162 233.480081 
L 222.095924 233.282097 
L 222.312471 232.93166 
L 222.35783 232.857594 
L 222.522526 232.586698 
L 222.779518 232.157679 
L 222.885781 231.977974 
L 223.102982 231.606318 
L 223.155301 231.515907 
L 223.400144 231.088077 
L 223.462855 230.97722 
L 223.717052 230.522366 
L 223.831729 230.314199 
L 223.990978 230.021964 
L 224.149166 229.727946 
L 224.240404 229.556628 
L 224.41147 229.231901 
L 224.634656 228.80112 
L 224.789416 228.497502 
L 224.882333 228.313214 
L 225.057556 227.961489 
L 225.190366 227.691137 
L 225.323175 227.417433 
L 225.438273 227.17744 
L 225.564509 226.911155 
L 225.787628 226.43236 
L 225.913962 226.156462 
L 226.074903 225.799748 
L 226.231826 225.446064 
L 226.3783 225.110473 
L 226.459845 224.921277 
L 226.56977 224.663473 
L 226.679696 224.402403 
L 226.800295 224.112097 
L 226.942772 223.763691 
L 227.107337 223.353604 
L 227.249309 222.992888 
L 227.369483 222.682299 
L 227.489656 222.366672 
L 227.603109 222.063875 
L 227.705899 221.785327 
L 227.808688 221.502611 
L 227.846578 221.39731 
L 227.933934 221.152248 
L 228.02129 220.903893 
L 228.155109 220.516773 
L 228.288929 220.121169 
L 228.43348 219.683703 
L 228.517882 219.423125 
L 228.602284 219.158557 
L 228.71557 218.796878 
L 228.797933 218.528963 
L 228.880296 218.25666 
L 228.966253 217.967578 
L 229.052209 217.673246 
L 229.113369 217.460476 
L 229.180529 217.223483 
L 229.24769 216.982842 
L 229.31485 216.738392 
L 229.38201 216.489959 
L 229.460977 216.192506 
L 229.539944 215.888957 
L 229.616565 215.588255 
L 229.685566 215.311948 
L 229.754567 215.030117 
L 229.817092 214.769693 
L 229.879617 214.504201 
L 229.942143 214.23335 
L 230.004668 213.95682 
L 230.051985 213.74356 
L 230.109022 213.481664 
L 230.166058 213.214184 
L 230.223095 212.940762 
L 230.280131 212.661003 
L 230.320065 212.461126 
L 230.359998 212.257759 
L 230.399932 212.050721 
L 230.439865 211.839812 
L 230.500413 211.512154 
L 230.560962 211.174239 
L 230.617046 210.851225 
L 230.673131 210.51764 
L 230.729215 210.172409 
L 230.757258 209.995037 
L 230.7853 209.814256 
L 230.828806 209.526563 
L 230.872313 209.229336 
L 230.91582 208.921584 
L 230.959326 208.602128 
L 230.983004 208.422855 
L 231.017145 208.156995 
L 231.051285 207.881598 
L 231.085426 207.595574 
L 231.102496 207.448177 
L 231.119566 207.29761 
L 231.136636 207.143662 
L 231.153707 206.986098 
L 231.170777 206.824654 
L 231.187847 206.659031 
L 231.204917 206.48889 
L 231.221987 206.313846 
L 231.239058 206.133453 
L 231.256128 205.947192 
L 231.271048 205.779111 
L 231.285969 205.605611 
L 231.300889 205.426136 
L 231.315809 205.240027 
L 231.33073 205.046496 
L 231.34565 204.844583 
L 231.36057 204.633102 
L 231.375491 204.410556 
L 231.383753 204.281869 
L 231.392016 204.148802 
L 231.400278 204.010879 
L 231.408541 203.867526 
L 231.416804 203.71805 
L 231.425066 203.561595 
L 231.433329 203.397085 
L 231.441591 203.223135 
L 231.449854 203.037909 
L 231.453985 202.940316 
L 231.458117 202.838888 
L 231.462248 202.733132 
L 231.466379 202.622444 
L 231.470511 202.506062 
L 231.474642 202.383009 
L 231.478773 202.251985 
L 231.482904 202.111211 
L 231.487036 201.95812 
L 231.491167 201.788776 
L 231.495298 201.596552 
L 231.49943 201.368528 
L 231.503561 201.071347 
z
" style="fill:#808080;opacity:0.5;"/>
   </g>
   <g id="matplotlib.axis_1"/>
   <g id="matplotlib.axis_2"/>
   <g id="line2d_1">
    <path clip-path="url(#pcec5b0a306)" d="M 138.046154 138.046154 
L 138.185858 142.216252 
L 138.549126 145.947105 
L 139.117184 149.549184 
L 139.895056 153.112118 
L 140.91849 156.746071 
L 142.048345 160.016978 
L 143.459041 163.447525 
L 145.087632 166.819303 
L 146.995287 170.21932 
L 148.953043 173.262711 
L 151.148627 176.270426 
L 153.584749 179.215318 
L 156.144774 181.952946 
L 158.931173 184.590871 
L 161.718871 186.929558 
L 164.610932 189.082343 
L 167.568145 191.030551 
L 169.2 192.006198 
L 169.2 192.006198 
" style="fill:none;stroke:#ff0000;stroke-linecap:square;"/>
   </g>
   <g id="line2d_2">
    <path clip-path="url(#pcec5b0a306)" d="M 106.892308 200.353846 
L 107.025082 204.419326 
L 107.361421 207.985271 
L 107.949243 211.781589 
L 108.741066 215.419232 
L 109.68524 218.799493 
L 110.962877 222.50528 
L 112.477977 226.138738 
L 114.215457 229.66167 
L 116.029493 232.836852 
L 117.913597 235.7368 
L 119.908112 238.466289 
L 122.14497 241.195891 
L 124.715854 243.981925 
L 127.434771 246.59143 
L 130.446895 249.143654 
L 133.168693 251.186842 
L 136.39711 253.327603 
L 139.720862 255.246732 
L 143.045057 256.906189 
L 146.41684 258.346744 
L 149.847474 259.579924 
L 153.226582 260.579243 
L 157.047382 261.464912 
L 160.746792 262.085457 
L 164.421398 262.478024 
L 168.184421 262.653261 
L 169.2 262.661538 
L 169.2 262.661538 
" style="fill:none;stroke:#228b22;stroke-linecap:square;"/>
   </g>
   <g id="line2d_3">
    <path clip-path="url(#pcec5b0a306)" d="M 169.2 262.661538 
L 172.889284 262.55222 
L 176.487315 262.23392 
L 180.304192 261.664085 
L 183.978265 260.883602 
L 187.495973 259.914789 
L 190.967079 258.735717 
L 194.447687 257.317017 
L 197.779629 255.720382 
L 200.353846 254.313891 
L 200.353846 254.313891 
" style="fill:none;stroke:#228b22;stroke-linecap:square;"/>
   </g>
   <g id="line2d_4">
    <path clip-path="url(#pcec5b0a306)" d="M 200.353846 254.313891 
L 203.497814 252.372193 
L 206.505906 250.258935 
L 209.391153 247.966027 
L 212.17164 245.472431 
L 214.695615 242.926108 
L 217.12276 240.174162 
L 219.38221 237.28614 
L 221.53719 234.16312 
L 223.462855 230.97722 
L 225.190366 227.691137 
L 226.679696 224.402403 
L 228.02129 220.903893 
L 229.180529 217.223483 
L 230.051985 213.74356 
L 230.757258 209.995037 
L 231.221987 206.313846 
L 231.466379 202.622444 
L 231.507692 200.353846 
L 231.507692 200.353846 
" style="fill:none;stroke:#228b22;stroke-linecap:square;"/>
   </g>
   <g id="text_1">
    <!-- $\Omega$ -->
    <g transform="translate(16.011538 22.420913)scale(0.1 -0.1)">
     <defs>
      <path d="M 7.71875 0 
L 4.390625 16.609375 
L 7.328125 16.609375 
Q 7.859375 13.71875 8.296875 11.5 
Q 8.734375 9.28125 9.4375 8.375 
Q 10.15625 7.46875 11.71875 7.171875 
Q 13.28125 6.890625 16.890625 6.890625 
L 23 6.890625 
Q 21.53125 12.546875 15.6875 21.65625 
Q 9.859375 30.765625 7.734375 34.890625 
Q 5.609375 39.015625 5.609375 45.515625 
Q 5.609375 53.078125 10.09375 58.765625 
Q 14.59375 64.453125 21.703125 67.484375 
Q 28.8125 70.515625 36.078125 70.515625 
Q 43.3125 70.515625 50.40625 67.484375 
Q 57.515625 64.453125 62 58.71875 
Q 66.5 52.984375 66.5 45.515625 
Q 66.5 40.4375 64.640625 35.9375 
Q 62.796875 31.453125 59.90625 26.953125 
Q 57.03125 22.46875 53.6875 16.9375 
Q 50.34375 11.421875 49.125 6.890625 
L 55.171875 6.890625 
Q 58.84375 6.890625 60.453125 7.171875 
Q 62.0625 7.46875 62.734375 8.375 
Q 63.421875 9.28125 63.84375 11.5 
Q 64.265625 13.71875 64.796875 16.609375 
L 67.671875 16.609375 
L 64.40625 0 
L 46.6875 0 
Q 45.703125 0 45.703125 1.3125 
Q 45.703125 6.390625 46.9375 11.265625 
Q 48.1875 16.15625 50.625 23.09375 
Q 53.078125 30.03125 54.4375 35.328125 
Q 55.8125 40.625 55.8125 45.515625 
Q 55.8125 51.515625 53.46875 56.640625 
Q 51.125 61.765625 46.625 64.84375 
Q 42.140625 67.921875 36.078125 67.921875 
Q 26.953125 67.921875 21.625 61.40625 
Q 16.3125 54.890625 16.3125 45.515625 
Q 16.359375 40.375 17.53125 35.828125 
Q 18.703125 31.296875 21.3125 23.71875 
Q 23.921875 16.15625 25.171875 11.265625 
Q 26.421875 6.390625 26.421875 1.3125 
Q 26.421875 0 25.390625 0 
z
" id="Cmr10-173"/>
     </defs>
     <use transform="translate(0 0.484375)" xlink:href="#Cmr10-173"/>
    </g>
   </g>
   <g id="text_2">
    <!-- $A$ -->
    <g style="fill:#0000ff;" transform="translate(103.142308 78.497837)scale(0.1 -0.1)">
     <defs>
      <path d="M 4.5 0 
Q 3.515625 0 3.515625 1.3125 
Q 3.90625 3.515625 4.78125 3.515625 
Q 8.84375 3.515625 11.796875 5.125 
Q 14.75 6.734375 16.890625 10.109375 
Q 17.09375 10.296875 17.09375 10.296875 
L 52.78125 70.515625 
Q 53.5625 71.578125 54.6875 71.578125 
L 56 71.578125 
Q 56.296875 71.578125 56.59375 71.453125 
Q 56.890625 71.34375 57.109375 71.0625 
Q 57.328125 70.796875 57.328125 70.515625 
L 63.375 5.90625 
Q 63.375 5.46875 63.8125 4.59375 
Q 64.796875 3.515625 71.296875 3.515625 
Q 72.3125 3.515625 72.3125 2.203125 
Q 71.96875 0.875 71.75 0.4375 
Q 71.53125 0 70.609375 0 
L 45.609375 0 
Q 44.671875 0 44.671875 1.3125 
Q 45.21875 3.515625 46 3.515625 
Q 53.90625 3.515625 54.390625 6.203125 
L 52.875 22.703125 
L 28.21875 22.703125 
L 20.21875 9.28125 
Q 19.484375 8.203125 19.484375 6.78125 
Q 19.484375 5.03125 21.171875 4.265625 
Q 22.859375 3.515625 24.90625 3.515625 
Q 25.875 3.515625 25.875 2.203125 
Q 25.53125 0.78125 25.328125 0.390625 
Q 25.140625 0 24.21875 0 
z
M 30.171875 26.21875 
L 52.484375 26.21875 
L 49.515625 58.59375 
z
" id="Cmmi10-65"/>
     </defs>
     <use transform="translate(0 0.421875)" xlink:href="#Cmmi10-65"/>
    </g>
   </g>
   <g id="text_3">
    <!-- $B$ -->
    <g style="fill:#ff0000;" transform="translate(227.707692 78.497837)scale(0.1 -0.1)">
     <defs>
      <path d="M 4.984375 0 
Q 4 0 4 1.3125 
Q 4.046875 1.5625 4.1875 2.140625 
Q 4.34375 2.734375 4.578125 3.125 
Q 4.828125 3.515625 5.328125 3.515625 
Q 8.15625 3.515625 10.25 3.65625 
Q 12.359375 3.8125 13.8125 4.203125 
Q 14.984375 4.640625 15.71875 6.890625 
L 29.390625 61.8125 
Q 29.59375 62.796875 29.59375 63.1875 
Q 29.59375 64.265625 28.421875 64.40625 
Q 26.515625 64.796875 21.1875 64.796875 
Q 20.21875 64.796875 20.21875 66.109375 
Q 20.265625 66.359375 20.40625 66.96875 
Q 20.5625 67.578125 20.828125 67.9375 
Q 21.09375 68.3125 21.484375 68.3125 
L 57.328125 68.3125 
Q 60.59375 68.3125 63.796875 67.5 
Q 67 66.703125 69.703125 64.9375 
Q 72.40625 63.1875 74 60.5625 
Q 75.59375 57.953125 75.59375 54.5 
Q 75.59375 50.734375 73.65625 47.5 
Q 71.734375 44.28125 68.671875 41.890625 
Q 65.625 39.5 62.078125 37.953125 
Q 58.546875 36.421875 54.6875 35.6875 
Q 57.421875 35.6875 60.21875 34.609375 
Q 63.03125 33.546875 65.234375 31.6875 
Q 67.4375 29.828125 68.78125 27.234375 
Q 70.125 24.65625 70.125 21.6875 
Q 70.125 15.671875 65.921875 10.6875 
Q 61.71875 5.71875 55.34375 2.859375 
Q 48.96875 0 43.015625 0 
z
M 23.390625 4.296875 
Q 23.390625 3.515625 26.8125 3.515625 
L 41.109375 3.515625 
Q 46 3.515625 50.484375 6.21875 
Q 54.984375 8.9375 57.6875 13.421875 
Q 60.40625 17.921875 60.40625 22.796875 
Q 60.40625 25.78125 59.15625 28.4375 
Q 57.90625 31.109375 55.5625 32.640625 
Q 53.21875 34.1875 50.203125 34.1875 
L 30.71875 34.1875 
L 23.78125 6.5 
Q 23.390625 5.125 23.390625 4.296875 
z
M 31.390625 36.8125 
L 46.578125 36.8125 
Q 51.375 36.8125 55.890625 39.25 
Q 60.40625 41.703125 63.25 45.890625 
Q 66.109375 50.09375 66.109375 54.78125 
Q 66.109375 59.125 63.390625 61.953125 
Q 60.6875 64.796875 56.390625 64.796875 
L 42.671875 64.796875 
Q 39.984375 64.796875 39.0625 64.296875 
Q 38.140625 63.8125 37.5 61.375 
z
" id="Cmmi10-66"/>
     </defs>
     <use transform="translate(0 0.6875)" xlink:href="#Cmmi10-66"/>
    </g>
   </g>
   <g id="text_4">
    <!-- $C$ -->
    <g style="fill:#228b22;" transform="translate(150.023077 271.651683)scale(0.1 -0.1)">
     <defs>
      <path d="M 14.59375 21.578125 
Q 14.59375 15.578125 16.90625 11.015625 
Q 19.234375 6.453125 23.65625 3.875 
Q 28.078125 1.3125 34.078125 1.3125 
Q 40.375 1.3125 46.203125 4.53125 
Q 52.046875 7.765625 56.171875 13.15625 
Q 60.296875 18.5625 61.8125 24.609375 
Q 62.015625 25.203125 62.59375 25.203125 
L 63.8125 25.203125 
Q 64.203125 25.203125 64.453125 24.921875 
Q 64.703125 24.65625 64.703125 24.3125 
Q 64.703125 24.21875 64.59375 24.03125 
Q 62.890625 17.09375 57.984375 11.015625 
Q 53.078125 4.9375 46.234375 1.359375 
Q 39.40625 -2.203125 32.171875 -2.203125 
Q 24.359375 -2.203125 18.15625 1.3125 
Q 11.96875 4.828125 8.515625 11.078125 
Q 5.078125 17.328125 5.078125 25.203125 
Q 5.078125 33.59375 8.828125 41.8125 
Q 12.59375 50.046875 18.9375 56.46875 
Q 25.296875 62.890625 33.421875 66.703125 
Q 41.546875 70.515625 49.90625 70.515625 
Q 53.21875 70.515625 56.25 69.5 
Q 59.28125 68.5 61.859375 66.453125 
Q 64.453125 64.40625 66.109375 61.71875 
L 74.03125 70.3125 
Q 74.03125 70.515625 74.515625 70.515625 
L 75.09375 70.515625 
Q 75.484375 70.515625 75.734375 70.171875 
Q 75.984375 69.828125 75.984375 69.484375 
L 69.1875 42.484375 
Q 69.1875 41.796875 68.40625 41.796875 
L 66.609375 41.796875 
Q 65.828125 41.796875 65.828125 42.921875 
Q 66.21875 45.125 66.21875 48.1875 
Q 66.21875 53.078125 64.546875 57.390625 
Q 62.890625 61.71875 59.390625 64.359375 
Q 55.90625 67 50.875 67 
Q 42.71875 67 35.9375 62.890625 
Q 29.15625 58.796875 24.4375 52.125 
Q 19.734375 45.453125 17.15625 37.328125 
Q 14.59375 29.203125 14.59375 21.578125 
z
" id="Cmmi10-67"/>
     </defs>
     <use transform="translate(0 0.484375)" xlink:href="#Cmmi10-67"/>
    </g>
   </g>
   <g id="patch_8">
    <path clip-path="url(#pcec5b0a306)" d="M 138.046154 200.353846 
C 154.570347 200.353846 170.419977 193.788715 182.104346 182.104346 
C 193.788715 170.419977 200.353846 154.570347 200.353846 138.046154 
C 200.353846 121.521961 193.788715 105.672331 182.104346 93.987962 
C 170.419977 82.303593 154.570347 75.738462 138.046154 75.738462 
C 121.521961 75.738462 105.672331 82.303593 93.987962 93.987962 
C 82.303593 105.672331 75.738462 121.521961 75.738462 138.046154 
C 75.738462 154.570347 82.303593 170.419977 93.987962 182.104346 
C 105.672331 193.788715 121.521961 200.353846 138.046154 200.353846 
z
" style="fill:none;stroke:#0000ff;stroke-linejoin:miter;"/>
   </g>
   <g id="patch_9">
    <path clip-path="url(#pcec5b0a306)" d="M 200.353846 200.353846 
C 216.878039 200.353846 232.727669 193.788715 244.412038 182.104346 
C 256.096407 170.419977 262.661538 154.570347 262.661538 138.046154 
C 262.661538 121.521961 256.096407 105.672331 244.412038 93.987962 
C 232.727669 82.303593 216.878039 75.738462 200.353846 75.738462 
C 183.829653 75.738462 167.980023 82.303593 156.295654 93.987962 
C 144.611285 105.672331 138.046154 121.521961 138.046154 138.046154 
C 138.046154 154.570347 144.611285 170.419977 156.295654 182.104346 
C 167.980023 193.788715 183.829653 200.353846 200.353846 200.353846 
z
" style="fill:none;stroke:#ff0000;stroke-linejoin:miter;"/>
   </g>
   <g id="patch_10">
    <path clip-path="url(#pcec5b0a306)" d="M 169.2 262.661538 
C 185.724193 262.661538 201.573823 256.096407 213.258192 244.412038 
C 224.942561 232.727669 231.507692 216.878039 231.507692 200.353846 
C 231.507692 183.829653 224.942561 167.980023 213.258192 156.295654 
C 201.573823 144.611285 185.724193 138.046154 169.2 138.046154 
C 152.675807 138.046154 136.826177 144.611285 125.141808 156.295654 
C 113.457439 167.980023 106.892308 183.829653 106.892308 200.353846 
C 106.892308 216.878039 113.457439 232.727669 125.141808 244.412038 
C 136.826177 256.096407 152.675807 262.661538 169.2 262.661538 
z
" style="fill:none;stroke:#228b22;stroke-linejoin:miter;"/>
   </g>
  </g>
 </g>
 <defs>
  <clipPath id="pcec5b0a306">
   <rect height="324" width="324" x="7.2" y="7.2"/>
  </clipPath>
 </defs>
</svg>
