<?xml version="1.0" encoding="utf-8" standalone="no"?>
<!DOCTYPE svg PUBLIC "-//W3C//DTD SVG 1.1//EN"
  "http://www.w3.org/Graphics/SVG/1.1/DTD/svg11.dtd">
<!-- Created with matplotlib (https://matplotlib.org/) -->
<svg height="338.4pt" version="1.1" viewBox="0 0 338.4 338.4" width="338.4pt" xmlns="http://www.w3.org/2000/svg" xmlns:xlink="http://www.w3.org/1999/xlink">
 <metadata>
  <rdf:RDF xmlns:cc="http://creativecommons.org/ns#" xmlns:dc="http://purl.org/dc/elements/1.1/" xmlns:rdf="http://www.w3.org/1999/02/22-rdf-syntax-ns#">
   <cc:Work>
    <dc:type rdf:resource="http://purl.org/dc/dcmitype/StillImage"/>
    <dc:date>2024-11-18T20:48:29.930761</dc:date>
    <dc:format>image/svg+xml</dc:format>
    <dc:creator>
     <cc:Agent>
      <dc:title>Matplotlib v3.3.4, https://matplotlib.org/</dc:title>
     </cc:Agent>
    </dc:creator>
   </cc:Work>
  </rdf:RDF>
 </metadata>
 <defs>
  <style type="text/css">*{stroke-linecap:butt;stroke-linejoin:round;}</style>
 </defs>
 <g id="figure_1">
  <g id="patch_1">
   <path d="M -0 338.4 
L 338.4 338.4 
L 338.4 0 
L -0 0 
z
" style="fill:#ffffff;"/>
  </g>
  <g id="axes_1">
   <g id="patch_2">
    <path d="M 7.2 331.2 
L 331.2 331.2 
L 331.2 7.2 
L 7.2 7.2 
z
" style="fill:#ffffff;"/>
   </g>
   <g id="patch_3">
    <path clip-path="url(#p004eb153fd)" d="M 13.430769 324.969231 
L 13.430769 13.430769 
L 324.969231 13.430769 
L 324.969231 324.969231 
z
" style="fill:none;stroke:#000000;stroke-linejoin:miter;"/>
   </g>
   <g id="patch_4">
    <path clip-path="url(#p004eb153fd)" d="M 200.353846 146.393802 
L 199.790635 146.072528 
L 199.446605 145.880078 
L 198.842032 145.548751 
L 198.448378 145.337658 
L 198.231732 145.223028 
L 197.733858 144.963707 
L 197.075003 144.629231 
L 196.766604 144.476025 
L 196.27724 144.237257 
L 195.423152 143.833099 
L 195.309834 143.780663 
L 194.495313 143.411808 
L 194.21902 143.289872 
L 193.815225 143.114531 
L 193.109811 142.816298 
L 192.676986 142.63834 
L 192.291029 142.482844 
L 191.755619 142.272071 
L 191.571892 142.201056 
L 191.176527 142.050495 
L 190.285304 141.722298 
L 189.964799 141.608024 
L 189.554749 141.46469 
L 189.044544 141.290807 
L 188.511414 141.114351 
L 188.212831 141.017847 
L 187.887624 140.914623 
L 187.045673 140.656438 
L 186.846116 140.597147 
L 186.295478 140.437294 
L 185.929525 140.334087 
L 185.417327 140.19367 
L 184.788966 140.027793 
L 184.299438 139.903408 
L 184.075409 139.84789 
L 183.641821 139.742937 
L 182.791836 139.546688 
L 182.302865 139.439452 
L 181.834801 139.340648 
L 181.761784 139.325573 
L 181.012757 139.176176 
L 180.593215 139.096657 
L 180.082188 139.003813 
L 179.725208 138.941563 
L 179.386412 138.884459 
L 178.75307 138.782852 
L 178.448189 138.73632 
L 177.793921 138.641667 
L 177.273237 138.571394 
L 176.858395 138.518601 
L 176.311033 138.453267 
L 176.090438 138.428323 
L 175.294049 138.344886 
L 174.801499 138.298454 
L 174.644824 138.284511 
L 173.971079 138.22909 
L 173.532134 138.196939 
L 172.922259 138.157437 
L 172.430754 138.12997 
L 171.996898 138.10896 
L 171.718928 138.097091 
L 171.28855 138.081168 
L 170.769814 138.065932 
L 170.080719 138.052379 
L 169.844644 138.049489 
L 169.392743 138.046452 
L 168.966455 138.046592 
L 168.198677 138.0542 
L 168.027133 138.057194 
L 167.618117 138.066238 
L 167.23539 138.077134 
L 166.692808 138.096618 
L 166.078425 138.124397 
L 165.763174 138.141012 
L 165.335381 138.16612 
L 164.437474 138.228434 
L 164.067977 138.257865 
L 163.905382 138.271517 
L 163.414458 138.315342 
L 162.715372 138.384514 
L 162.35832 138.422917 
L 161.967475 138.467344 
L 161.203816 138.561374 
L 160.843909 138.609014 
L 160.637451 138.637306 
L 159.917688 138.741451 
L 159.548879 138.798145 
L 159.122658 138.866484 
L 158.37123 138.994362 
L 158.208508 139.023302 
L 157.583139 139.138676 
L 156.936018 139.265032 
L 156.652606 139.322613 
L 156.27549 139.40136 
L 155.693594 139.527655 
L 155.196643 139.640137 
L 154.707859 139.754949 
L 154.417998 139.825002 
L 153.846294 139.967488 
L 153.34977 140.095911 
L 152.831521 140.234619 
L 152.244424 140.397554 
L 151.950844 140.481356 
L 151.371078 140.651434 
L 151.10797 140.730638 
L 150.468918 140.928304 
L 149.897765 141.111359 
L 149.575058 141.217477 
L 149.001331 141.410973 
L 148.482242 141.591418 
L 148.343687 141.640451 
L 147.980892 141.770589 
L 147.457526 141.962808 
L 146.832257 142.19946 
L 146.53042 142.316456 
L 145.964941 142.540521 
L 145.493195 142.732358 
L 144.925972 142.969004 
L 144.318555 143.229751 
L 144.143126 143.306483 
L 143.582914 143.555841 
L 143.004097 143.820465 
L 142.498919 144.057303 
L 142.109659 144.24358 
L 141.763615 144.411972 
L 141.259787 144.661898 
L 140.829027 144.880101 
L 140.049703 145.285627 
L 139.849516 145.392063 
L 139.246257 145.718493 
L 138.794218 145.968766 
L 138.500521 146.134011 
L 137.879287 146.490487 
L 137.453028 146.740617 
L 136.718217 147.182592 
L 136.298573 147.441233 
L 135.80881 147.748932 
L 135.664873 147.840574 
L 135.125483 148.188955 
L 134.742207 148.441333 
L 134.306283 148.733337 
L 133.858003 149.039211 
L 133.105817 149.565476 
L 132.823649 149.767192 
L 132.174533 150.240342 
L 131.600354 150.669692 
L 131.403993 150.818905 
L 130.831461 151.261039 
L 130.166011 151.788466 
L 129.783118 152.098712 
L 129.288295 152.507171 
L 128.87319 152.85651 
L 128.30002 153.349164 
L 128.157913 153.473194 
L 127.408383 154.140112 
L 127.034993 154.480535 
L 126.408139 155.064718 
L 126.032329 155.42278 
L 125.526835 155.913963 
L 125.296926 156.14108 
L 124.744499 156.696579 
L 124.270052 157.185011 
L 123.968118 157.501479 
L 123.426622 158.080375 
L 122.955332 158.596461 
L 122.246587 159.395019 
L 121.777696 159.938829 
L 121.526778 160.235118 
L 120.884794 161.010621 
L 120.371998 161.648875 
L 119.833609 162.337955 
L 119.632574 162.600451 
L 119.192178 163.185764 
L 118.664267 163.906786 
L 118.322474 164.385445 
L 117.980681 164.873853 
L 117.585109 165.451818 
L 117.376594 165.762183 
L 117.007524 166.321597 
L 116.638453 166.894433 
L 116.460816 167.175133 
L 116.125358 167.71444 
L 115.789899 168.266315 
L 115.368957 168.977624 
L 115.090636 169.460072 
L 114.812315 169.952723 
L 114.48984 170.536957 
L 114.131158 171.204726 
L 113.782034 171.874071 
L 113.432911 172.563915 
L 113.139768 173.160118 
L 112.846624 173.772921 
L 112.711231 174.061881 
L 112.496701 174.527804 
L 112.282172 175.004105 
L 111.997533 175.653111 
L 111.712894 176.323007 
L 111.446701 176.969984 
L 111.180508 177.638498 
L 110.869992 178.448168 
L 110.714735 178.866123 
L 110.559477 179.293514 
L 110.280966 180.085744 
L 110.141081 180.497045 
L 110.001195 180.918053 
L 109.86131 181.349415 
L 109.721425 181.791853 
L 109.569807 182.284851 
L 109.418189 182.792992 
L 109.266571 183.317631 
L 109.114953 183.860342 
L 108.956808 184.447671 
L 108.798664 185.059171 
L 108.662253 185.608348 
L 108.525843 186.180098 
L 108.389432 186.777273 
L 108.253021 187.40339 
L 108.149231 187.901852 
L 108.045441 188.422021 
L 107.941651 188.966872 
L 107.837861 189.540134 
L 107.759623 189.993896 
L 107.681385 190.469084 
L 107.603147 190.968952 
L 107.524909 191.497679 
L 107.48579 191.77452 
L 107.446671 192.060782 
L 107.407552 192.357476 
L 107.368433 192.66581 
L 107.329315 192.987246 
L 107.290196 193.32358 
L 107.251077 193.677064 
L 107.211958 194.050583 
L 107.172001 194.456735 
L 107.132045 194.893305 
L 107.112067 195.125356 
L 107.092089 195.368276 
L 107.072111 195.62374 
L 107.052133 195.893901 
L 107.032155 196.181615 
L 107.012176 196.4908 
L 106.992198 196.827101 
L 106.982209 197.007948 
L 106.97222 197.199176 
L 106.962231 197.402804 
L 106.952242 197.621603 
L 106.942253 197.859561 
L 106.932264 198.1228 
L 106.922275 198.421626 
L 106.912286 198.776132 
L 106.902297 199.238189 
L 106.892308 200.353846 
L 106.892308 84.086109 
L 107.510737 83.733754 
L 107.923361 83.503823 
L 108.275938 83.310583 
L 108.605548 83.132592 
L 109.275074 82.778862 
L 109.809522 82.503908 
L 110.414423 82.20051 
L 110.880962 81.972088 
L 111.261446 81.78935 
L 111.593737 81.632342 
L 112.0732 81.409998 
L 112.592371 81.174777 
L 112.763071 81.098685 
L 113.671899 80.703811 
L 113.841887 80.631853 
L 114.183654 80.488968 
L 114.842024 80.220408 
L 115.132886 80.104539 
L 115.805719 79.842962 
L 116.448809 79.601281 
L 116.63268 79.533662 
L 117.136815 79.351622 
L 117.508861 79.22041 
L 118.286703 78.954592 
L 118.59718 78.851678 
L 118.90515 78.751378 
L 119.585637 78.536005 
L 120.044385 78.395631 
L 120.652292 78.215542 
L 121.090343 78.089928 
L 121.346329 78.018124 
L 122.059396 77.824297 
L 122.26865 77.769136 
L 122.84378 77.62152 
L 123.101057 77.557373 
L 124.034455 77.334369 
L 124.134449 77.311378 
L 124.579172 77.211222 
L 125.093307 77.099683 
L 125.448383 77.025299 
L 125.921605 76.929513 
L 126.421153 76.832529 
L 127.22723 76.684933 
L 127.5922 76.621701 
L 127.949109 76.562024 
L 128.357621 76.49633 
L 128.939261 76.407586 
L 129.355468 76.347527 
L 130.009508 76.258932 
L 130.153637 76.240356 
L 130.659419 76.177869 
L 131.415885 76.092235 
L 131.760847 76.056288 
L 132.183052 76.014931 
L 132.874675 75.953446 
L 133.285049 75.920632 
L 133.577818 75.898889 
L 134.006446 75.869556 
L 134.393436 75.845622 
L 134.889489 75.818475 
L 135.345031 75.797038 
L 135.838377 75.777588 
L 136.274879 75.763643 
L 137.127515 75.745234 
L 137.274054 75.743246 
L 137.755957 75.739137 
L 138.467081 75.739883 
L 138.713588 75.742036 
L 139.197718 75.749104 
L 139.995394 75.768959 
L 140.276014 75.778375 
L 140.903825 75.804028 
L 140.989756 75.808033 
L 141.770705 75.849882 
L 141.962241 75.861648 
L 142.637745 75.907874 
L 142.859528 75.92466 
L 143.712174 75.996619 
L 143.916989 76.015663 
L 144.550444 76.078882 
L 144.985177 76.126056 
L 145.514886 76.187714 
L 145.744388 76.215856 
L 146.158598 76.268838 
L 146.731189 76.346732 
L 147.281491 76.4267 
L 147.757066 76.499857 
L 148.302163 76.588341 
L 148.622676 76.642687 
L 149.192159 76.743502 
L 149.762179 76.849885 
L 150.213439 76.938006 
L 150.709766 77.038929 
L 150.928131 77.084664 
L 151.446703 77.196554 
L 152.191949 77.365473 
L 152.227071 77.373672 
L 153.09115 77.582143 
L 153.212826 77.612549 
L 153.786498 77.759422 
L 154.42046 77.928514 
L 154.597867 77.977116 
L 155.075147 78.110673 
L 155.508685 78.235548 
L 156.262071 78.460679 
L 156.574313 78.55703 
L 157.169816 78.745782 
L 157.767393 78.941829 
L 158.294207 79.120227 
L 158.601992 79.226888 
L 159.178414 79.431513 
L 159.405891 79.514025 
L 160.021776 79.742462 
L 160.486419 79.919714 
L 160.699819 80.00255 
L 161.143041 80.177489 
L 162.029301 80.539135 
L 162.154305 80.591427 
L 162.567689 80.766639 
L 163.179596 81.032483 
L 163.907691 81.359035 
L 164.376585 81.575304 
L 164.620224 81.689546 
L 164.899812 81.82223 
L 165.560632 82.142648 
L 166.28999 82.50757 
L 166.480873 82.605057 
L 166.95086 82.848632 
L 167.709225 83.252443 
L 167.928624 83.371786 
L 168.643346 83.768531 
L 168.905442 83.917115 
L 169.381553 84.191337 
L 169.743471 84.403553 
L 170.14368 84.642059 
L 170.745769 85.008585 
L 171.440943 85.443525 
L 171.496518 85.478848 
L 172.16795 85.912177 
L 172.762085 86.305912 
L 173.152415 86.569956 
L 173.536439 86.833966 
L 173.938473 87.114926 
L 174.406253 87.447817 
L 175.150146 87.990762 
L 175.281443 88.088354 
L 175.895337 88.551832 
L 176.487756 89.010537 
L 176.862171 89.306382 
L 177.248209 89.616335 
L 177.706446 89.990876 
L 178.186977 90.391534 
L 178.865506 90.971436 
L 179.087031 91.164442 
L 179.530567 91.556456 
L 180.344485 92.295748 
L 180.572588 92.507699 
L 181.074546 92.981689 
L 181.645955 93.534292 
L 182.117377 94.000998 
L 182.417271 94.303126 
L 183.121399 95.029055 
L 183.46487 95.391861 
L 184.035116 96.007316 
L 184.606964 96.641571 
L 184.760768 96.815178 
L 185.132464 97.240175 
L 185.606081 97.793181 
L 186.331485 98.666269 
L 186.608192 99.008007 
L 187.029988 99.538589 
L 187.4431 100.069974 
L 187.856212 100.613459 
L 188.007495 100.815617 
L 188.491886 101.474626 
L 189.049796 102.256812 
L 189.476814 102.873214 
L 190.009429 103.664959 
L 190.379686 104.231217 
L 190.796328 104.884917 
L 191.098258 105.370127 
L 191.400188 105.865483 
L 191.879986 106.674716 
L 192.253845 107.325236 
L 192.578704 107.905658 
L 192.903563 108.50105 
L 193.126922 108.919577 
L 193.501564 109.639358 
L 193.876205 110.382931 
L 194.113235 110.866549 
L 194.350265 111.361035 
L 194.628449 111.956072 
L 194.986188 112.746332 
L 195.347925 113.576671 
L 195.709661 114.441738 
L 196.018038 115.209578 
L 196.326414 116.008464 
L 196.577778 116.685032 
L 196.829141 117.3868 
L 196.993751 117.861275 
L 197.15836 118.348551 
L 197.392525 119.065723 
L 197.525311 119.486023 
L 197.658096 119.917037 
L 197.790882 120.359548 
L 197.923667 120.814442 
L 198.069458 121.329353 
L 198.215249 121.86195 
L 198.36104 122.41404 
L 198.506832 122.987768 
L 198.607202 123.396649 
L 198.707572 123.817982 
L 198.807942 124.25291 
L 198.908313 124.70276 
L 198.994428 125.101798 
L 199.080544 125.514126 
L 199.16666 125.941103 
L 199.252776 126.384338 
L 199.338892 126.84576 
L 199.425007 127.327718 
L 199.511123 127.83312 
L 199.597239 128.365635 
L 199.646756 128.685898 
L 199.696272 129.017786 
L 199.745789 129.362632 
L 199.795306 129.722045 
L 199.844822 130.098002 
L 199.894339 130.492973 
L 199.943855 130.910114 
L 199.993372 131.35357 
L 200.038431 131.78468 
L 200.083491 132.248105 
L 200.10602 132.494442 
L 200.12855 132.752324 
L 200.151079 133.023532 
L 200.173609 133.310351 
L 200.196139 133.615815 
L 200.218668 133.944086 
L 200.241198 134.301157 
L 200.252463 134.493177 
L 200.263728 134.696223 
L 200.274992 134.912439 
L 200.286257 135.144767 
L 200.297522 135.397442 
L 200.308787 135.676967 
L 200.320052 135.994285 
L 200.331317 136.370734 
L 200.342581 136.8614 
L 200.353846 138.046154 
z
" style="fill:#808080;opacity:0.5;"/>
   </g>
   <g id="patch_5">
    <path clip-path="url(#p004eb153fd)" d="M 75.738462 138.046154 
L 75.738462 138.046154 
L 75.742355 137.34957 
L 75.746249 137.06105 
L 75.750143 136.839672 
L 75.754037 136.653051 
L 75.757931 136.488641 
L 75.761825 136.340011 
L 75.765719 136.203338 
L 75.769613 136.076131 
L 75.773507 135.956662 
L 75.777401 135.843671 
L 75.781295 135.736206 
L 75.785189 135.63353 
L 75.789083 135.535054 
L 75.792977 135.440303 
L 75.800765 135.26047 
L 75.808552 135.091582 
L 75.81634 134.931859 
L 75.824128 134.779956 
L 75.831916 134.634828 
L 75.839704 134.495645 
L 75.847492 134.361731 
L 75.85528 134.232534 
L 75.863068 134.107587 
L 75.876297 133.904001 
L 75.889527 133.710003 
L 75.902756 133.524359 
L 75.915986 133.346079 
L 75.929215 133.174354 
L 75.942444 133.008515 
L 75.955674 132.847998 
L 75.968903 132.692323 
L 75.982133 132.541081 
L 75.995362 132.393916 
L 76.008592 132.250516 
L 76.021821 132.110609 
L 76.04828 131.840335 
L 76.074739 131.581458 
L 76.099672 131.346757 
L 76.124605 131.120095 
L 76.149538 130.900706 
L 76.17447 130.68794 
L 76.2032 130.450265 
L 76.231929 130.21991 
L 76.260658 129.996246 
L 76.289387 129.778731 
L 76.318116 129.566891 
L 76.346845 129.360312 
L 76.375575 129.158625 
L 76.404304 128.961506 
L 76.435188 128.754363 
L 76.466072 128.55184 
L 76.498608 128.343157 
L 76.531145 128.138976 
L 76.563681 127.939023 
L 76.596218 127.743053 
L 76.628754 127.550842 
L 76.661291 127.362188 
L 76.693828 127.176904 
L 76.726364 126.994823 
L 76.763471 126.790877 
L 76.800577 126.590681 
L 76.837684 126.394042 
L 76.87479 126.200783 
L 76.94752 125.831186 
L 77.020249 125.47287 
L 77.077222 125.199447 
L 77.134195 124.931971 
L 77.212515 124.573332 
L 77.290835 124.22444 
L 77.338646 124.015936 
L 77.386457 123.810646 
L 77.482078 123.40917 
L 77.567007 123.06212 
L 77.651935 122.7234 
L 77.72134 122.452392 
L 77.790746 122.186318 
L 77.896765 121.788861 
L 78.002784 121.401567 
L 78.115243 121.001085 
L 78.212997 120.66105 
L 78.310751 120.32808 
L 78.396883 120.040239 
L 78.496781 119.712558 
L 78.584215 119.430935 
L 78.671649 119.153915 
L 78.800857 118.752544 
L 78.930066 118.360203 
L 78.954052 118.288318 
L 79.113212 117.818527 
L 79.198146 117.572745 
L 79.283079 117.330228 
L 79.387865 117.035356 
L 79.49265 116.745081 
L 79.599524 116.453564 
L 79.706397 116.166453 
L 79.755029 116.037218 
L 79.936507 115.562437 
L 80.065899 115.230839 
L 80.202797 114.88596 
L 80.308202 114.624423 
L 80.413608 114.366243 
L 80.539573 114.061957 
L 80.67167 113.747654 
L 80.803766 113.438074 
L 80.888931 113.240903 
L 81.039019 112.897891 
L 81.145082 112.658823 
L 81.294241 112.327115 
L 81.443401 112.000485 
L 81.502485 111.872464 
L 81.667596 111.518683 
L 81.821889 111.193211 
L 82.06703 110.685851 
L 82.215731 110.383681 
L 82.346418 110.121471 
L 82.461072 109.893939 
L 82.586736 109.647184 
L 82.73687 109.355882 
L 82.884035 109.07394 
L 83.166911 108.541625 
L 83.174848 108.526867 
L 83.430342 108.056795 
L 83.512695 107.907302 
L 83.734222 107.509903 
L 83.900671 107.215728 
L 84.052823 106.950033 
L 84.260153 106.592782 
L 84.314748 106.499608 
L 84.486789 106.208394 
L 84.718307 105.822105 
L 84.896062 105.529754 
L 85.016181 105.334221 
L 85.081484 105.228594 
L 85.345256 104.806661 
L 85.462588 104.621356 
L 85.545083 104.491928 
L 85.828809 104.052075 
L 85.895422 103.949971 
L 86.148594 103.565844 
L 86.264604 103.391867 
L 86.348553 103.266755 
L 86.514131 103.021888 
L 86.708928 102.73698 
L 86.841881 102.54445 
L 86.994448 102.325406 
L 87.21535 102.011755 
L 87.304636 101.886135 
L 87.512537 101.59616 
L 87.563168 101.526069 
L 87.786447 101.219393 
L 88.021766 100.900371 
L 88.084934 100.815454 
L 88.319741 100.502414 
L 88.436354 100.348458 
L 88.572069 100.170522 
L 88.698371 100.006111 
L 88.83498 99.829549 
L 89.089241 99.504368 
L 89.197173 99.367663 
L 89.320872 99.21195 
L 89.48673 99.004754 
L 89.622912 98.835974 
L 89.89748 98.499299 
L 89.983884 98.394335 
L 90.204808 98.128061 
L 90.372234 97.928254 
L 90.442532 97.844865 
L 90.564054 97.701406 
L 90.789015 97.438133 
L 90.850403 97.366803 
L 91.07278 97.110221 
L 91.235611 96.924121 
L 91.325881 96.82159 
L 91.584507 96.530326 
L 91.722254 96.376682 
L 91.900925 96.178907 
L 92.082378 95.97978 
L 92.224014 95.825542 
L 92.327826 95.713152 
L 92.554855 95.469279 
L 92.63096 95.38811 
L 92.779983 95.230008 
L 92.997855 95.000837 
L 93.166494 94.82504 
L 93.323222 94.662886 
L 93.395121 94.58889 
L 93.549098 94.431242 
L 93.738381 94.238965 
L 93.922273 94.053749 
L 94.100032 93.876177 
L 94.227108 93.750107 
L 94.405832 93.574019 
L 94.499976 93.48183 
L 94.622651 93.362288 
L 94.840927 93.151199 
L 95.025181 92.974606 
L 95.179785 92.827541 
L 95.379422 92.639122 
L 95.389924 92.629256 
L 95.624836 92.409761 
L 95.735392 92.307243 
L 95.927073 92.130671 
L 96.164637 91.913876 
L 96.320539 91.772819 
L 96.414554 91.688216 
L 96.51069 91.602061 
L 96.768651 91.372647 
L 96.856735 91.294894 
L 96.985444 91.181811 
L 97.158077 91.031117 
L 97.37558 90.842839 
L 97.437079 90.78992 
L 97.654526 90.603927 
L 97.844241 90.443058 
L 97.926886 90.373385 
L 98.163292 90.175434 
L 98.29388 90.066937 
L 98.390428 89.987108 
L 98.609992 89.806775 
L 98.816012 89.639083 
L 98.857869 89.605192 
L 99.035229 89.462244 
L 99.248745 89.291569 
L 99.386748 89.182068 
L 99.569101 89.038349 
L 99.742116 88.903004 
L 99.854072 88.815945 
L 99.946757 88.744181 
L 100.21343 88.53925 
L 100.285444 88.484301 
L 100.513663 88.31125 
L 100.571765 88.267457 
L 100.786492 88.106529 
L 100.978366 87.963945 
L 101.05248 87.909175 
L 101.205889 87.796344 
L 101.428266 87.634064 
L 101.493569 87.586695 
L 101.782767 87.378459 
L 101.825364 87.347999 
L 102.106761 87.148132 
L 102.177971 87.097925 
L 102.301883 87.010915 
L 102.583797 86.814623 
L 102.708563 86.728484 
L 102.826388 86.647548 
L 103.032123 86.507177 
L 103.112919 86.452379 
L 103.216318 86.38252 
L 103.496001 86.195064 
L 103.67225 86.078056 
L 103.701508 86.058715 
L 103.852736 85.959124 
L 104.015704 85.852505 
L 104.273503 85.685323 
L 104.309253 85.662282 
L 104.515402 85.530088 
L 104.665226 85.434727 
L 104.780538 85.361742 
L 104.954462 85.252324 
L 105.145314 85.133175 
L 105.280143 85.049578 
L 105.456988 84.940647 
L 105.645503 84.825422 
L 105.718338 84.781148 
L 106.000241 84.611072 
L 106.048656 84.582066 
L 106.212287 84.484475 
L 106.490882 84.319872 
L 106.581027 84.267028 
L 106.792209 84.144026 
L 106.892308 84.086109 
L 106.892308 138.046154 
z
" style="fill:#808080;opacity:0.5;"/>
   </g>
   <g id="patch_6">
    <path clip-path="url(#p004eb153fd)" d="M 75.738462 138.046154 
L 75.738462 138.046154 
L 75.744728 138.929802 
L 75.750994 139.295789 
L 75.75726 139.5766 
L 75.763527 139.813316 
L 75.769793 140.021851 
L 75.776059 140.210368 
L 75.782325 140.383713 
L 75.788592 140.545047 
L 75.794858 140.696564 
L 75.801124 140.839861 
L 75.80739 140.976145 
L 75.813657 141.106353 
L 75.819923 141.23123 
L 75.826189 141.35138 
L 75.832455 141.467302 
L 75.838722 141.579411 
L 75.844988 141.688061 
L 75.851254 141.793551 
L 75.863787 141.996058 
L 75.876319 142.18864 
L 75.888852 142.372622 
L 75.901384 142.549058 
L 75.913917 142.718803 
L 75.926449 142.882561 
L 75.938982 143.040922 
L 75.956509 143.254269 
L 75.974035 143.459156 
L 75.993051 143.672961 
L 76.012067 143.878872 
L 76.031083 144.077698 
L 76.050099 144.270117 
L 76.069115 144.456707 
L 76.088131 144.637963 
L 76.107147 144.814312 
L 76.126163 144.98613 
L 76.145179 145.153745 
L 76.164195 145.317447 
L 76.183211 145.477496 
L 76.202227 145.634122 
L 76.240259 145.937916 
L 76.278291 146.230264 
L 76.308123 146.452346 
L 76.337955 146.668606 
L 76.367786 146.879472 
L 76.397618 147.085322 
L 76.424282 147.265345 
L 76.450947 147.441844 
L 76.492845 147.712522 
L 76.534743 147.975647 
L 76.576641 148.231805 
L 76.618539 148.481509 
L 76.65044 148.667587 
L 76.682341 148.850366 
L 76.746143 149.206674 
L 76.809945 149.551599 
L 76.873747 149.886137 
L 76.930984 150.17812 
L 76.988222 150.462975 
L 77.068046 150.849235 
L 77.14787 151.223695 
L 77.221573 151.559811 
L 77.295276 151.887374 
L 77.362884 152.180839 
L 77.430492 152.468016 
L 77.502078 152.765644 
L 77.573663 153.05703 
L 77.641362 153.327176 
L 77.70906 153.592332 
L 77.776759 153.852752 
L 77.844457 154.108665 
L 77.912191 154.360414 
L 78.022391 154.761309 
L 78.132591 155.152102 
L 78.223663 155.467926 
L 78.314736 155.777657 
L 78.392733 156.038317 
L 78.483837 156.337654 
L 78.574941 156.631723 
L 78.657958 156.895312 
L 78.740976 157.154905 
L 78.8317 157.434216 
L 78.922424 157.709142 
L 79.046191 158.077452 
L 79.111857 158.269832 
L 79.203491 158.534921 
L 79.295125 158.796218 
L 79.448455 159.225348 
L 79.553056 159.512548 
L 79.657658 159.795454 
L 79.783717 160.130921 
L 79.897812 160.429604 
L 80.048923 160.818281 
L 80.200035 161.199449 
L 80.303647 161.456651 
L 80.384883 161.656033 
L 80.565275 162.091883 
L 80.769141 162.573532 
L 80.896566 162.868989 
L 81.07066 163.26602 
L 81.16939 163.487896 
L 81.342935 163.872372 
L 81.457091 164.121553 
L 81.585638 164.398737 
L 81.714185 164.672415 
L 81.903608 165.069534 
L 81.995658 165.259945 
L 82.158233 165.592275 
L 82.387147 166.051929 
L 82.516131 166.306817 
L 82.670853 166.608797 
L 82.825614 166.906862 
L 82.909801 167.067372 
L 83.02997 167.294539 
L 83.183353 167.581245 
L 83.332365 167.856384 
L 83.481377 168.128268 
L 83.572445 168.292866 
L 83.754932 168.61921 
L 83.878158 168.837009 
L 83.968459 168.99533 
L 84.234118 169.454964 
L 84.400692 169.738628 
L 84.506371 169.916834 
L 84.716852 170.267794 
L 84.890643 170.553695 
L 84.921916 170.604777 
L 85.140032 170.958018 
L 85.227501 171.09821 
L 85.435349 171.42806 
L 85.526735 171.571653 
L 85.710801 171.858273 
L 85.853015 172.077386 
L 86.034809 172.354586 
L 86.160289 172.54406 
L 86.41907 172.930143 
L 86.473523 173.010597 
L 86.708229 173.354311 
L 86.891039 173.618653 
L 87.011402 173.791121 
L 87.105044 173.924445 
L 87.341534 174.257893 
L 87.512132 174.495587 
L 87.656419 174.694798 
L 87.7345 174.801916 
L 87.87562 174.994307 
L 88.114237 175.316145 
L 88.261195 175.512223 
L 88.441994 175.751271 
L 88.595666 175.952588 
L 88.685631 176.069663 
L 88.886766 176.32935 
L 89.111547 176.616256 
L 89.169345 176.689472 
L 89.405583 176.986408 
L 89.483832 177.083949 
L 89.627348 177.261811 
L 89.83208 177.513249 
L 89.995424 177.711956 
L 90.114575 177.855855 
L 90.273873 178.046875 
L 90.393116 178.188855 
L 90.540334 178.362969 
L 90.808607 178.676963 
L 90.914233 178.799443 
L 91.037728 178.941831 
L 91.162812 179.08517 
L 91.409428 179.365209 
L 91.618738 179.600258 
L 91.763094 179.760982 
L 91.838387 179.844369 
L 92.043702 180.07023 
L 92.112695 180.14563 
L 92.30673 180.356361 
L 92.512361 180.57758 
L 92.603183 180.674606 
L 92.754779 180.835637 
L 93.007176 181.101224 
L 93.133764 181.233255 
L 93.314335 181.420258 
L 93.483734 181.594279 
L 93.577284 181.689803 
L 93.673796 181.787923 
L 93.89813 182.01433 
L 93.983034 182.099417 
L 94.159123 182.274844 
L 94.309458 182.423513 
L 94.516663 182.626777 
L 94.617613 182.725124 
L 94.765774 182.868662 
L 94.989786 183.08389 
L 95.134327 183.22163 
L 95.242832 183.32445 
L 95.528656 183.592953 
L 95.630505 183.687815 
L 95.735914 183.785547 
L 95.906924 183.943146 
L 96.153491 184.168311 
L 96.19652 184.207357 
L 96.40649 184.396848 
L 96.540235 184.516653 
L 96.777666 184.727633 
L 96.89359 184.829858 
L 97.038142 184.956616 
L 97.173684 185.074759 
L 97.387844 185.260033 
L 97.453422 185.316426 
L 97.631 185.468341 
L 97.785701 185.59975 
L 97.936892 185.727341 
L 98.182922 185.933222 
L 98.305716 186.035175 
L 98.439433 186.145595 
L 98.530288 186.220264 
L 98.723462 186.378073 
L 98.89827 186.519773 
L 99.032543 186.627906 
L 99.260694 186.810246 
L 99.423973 186.939667 
L 99.510298 187.007734 
L 99.710329 187.164512 
L 99.920461 187.327794 
L 100.03532 187.416439 
L 100.212942 187.552685 
L 100.268826 187.595342 
L 100.48668 187.760683 
L 100.614533 187.857019 
L 100.732677 187.945583 
L 100.947124 188.105224 
L 101.029861 188.166435 
L 101.285165 188.353988 
L 101.422179 188.453822 
L 101.515746 188.521671 
L 101.698367 188.653336 
L 101.891143 188.79124 
L 102.071099 188.918975 
L 102.137339 188.965753 
L 102.410486 189.157285 
L 102.493415 189.215005 
L 102.66178 189.331577 
L 102.842682 189.45592 
L 103.052095 189.598693 
L 103.145878 189.662229 
L 103.341514 189.79397 
L 103.524973 189.916536 
L 103.62924 189.985778 
L 103.716954 190.043794 
L 103.978307 190.215401 
L 104.11882 190.30689 
L 104.203892 190.36202 
L 104.32759 190.441831 
L 104.551805 190.585445 
L 104.721265 190.693094 
L 104.80215 190.744207 
L 105.026414 190.885016 
L 105.23538 191.015028 
L 105.396525 191.114508 
L 105.528618 191.195551 
L 105.678886 191.287195 
L 105.752475 191.331863 
L 105.939667 191.444862 
L 106.060021 191.517042 
L 106.334385 191.680213 
L 106.430169 191.73673 
L 106.64069 191.860142 
L 106.679544 191.882798 
L 106.892308 192.006198 
L 106.892308 138.046154 
z
" style="fill:#808080;opacity:0.5;"/>
   </g>
   <g id="patch_7">
    <path clip-path="url(#p004eb153fd)" d="M 200.353846 138.046154 
L 200.33816 139.444184 
L 200.322474 140.023142 
L 200.306788 140.467308 
L 200.291102 140.841686 
L 200.275415 141.171456 
L 200.259729 141.469536 
L 200.244043 141.743596 
L 200.228357 141.998637 
L 200.212671 142.238131 
L 200.196985 142.464607 
L 200.181299 142.679975 
L 200.165613 142.885717 
L 200.13424 143.27282 
L 200.102868 143.632991 
L 200.071496 143.971142 
L 200.040123 144.290852 
L 200.008751 144.594821 
L 199.977379 144.885151 
L 199.946007 145.163509 
L 199.914634 145.431249 
L 199.85189 145.939158 
L 199.783444 146.457785 
L 199.714998 146.945715 
L 199.646552 147.40775 
L 199.578106 147.847552 
L 199.524054 148.181058 
L 199.470003 148.503655 
L 199.361899 149.119902 
L 199.253796 149.702615 
L 199.145693 150.256596 
L 199.075328 150.603561 
L 199.004963 150.94081 
L 198.864233 151.589042 
L 198.723503 152.206234 
L 198.582773 152.796283 
L 198.483294 153.198732 
L 198.383815 153.590129 
L 198.284336 153.971289 
L 198.184857 154.342929 
L 197.985899 155.060131 
L 197.786942 155.746063 
L 197.603757 156.352994 
L 197.447758 156.853011 
L 197.29176 157.338813 
L 197.135761 157.811448 
L 196.979762 158.271839 
L 196.785191 158.830138 
L 196.627794 159.269724 
L 196.470397 159.699245 
L 196.155602 160.530382 
L 195.84436 161.318797 
L 195.593236 161.933009 
L 195.342113 162.529243 
L 195.035588 163.234502 
L 194.729064 163.916913 
L 194.433065 164.555864 
L 194.137067 165.176543 
L 193.899009 165.663305 
L 193.660952 166.139618 
L 193.384256 166.680799 
L 193.006598 167.399146 
L 192.628939 168.095581 
L 192.197691 168.865945 
L 192.062296 169.102633 
L 191.696468 169.730413 
L 191.330641 170.341849 
L 190.917583 171.013721 
L 190.667839 171.410907 
L 190.065746 172.342081 
L 189.696228 172.896094 
L 189.326711 173.43758 
L 188.925204 174.012399 
L 188.690424 174.342248 
L 188.350917 174.811345 
L 187.765713 175.598969 
L 187.360722 176.129246 
L 186.934722 176.674594 
L 186.449962 177.280322 
L 186.025712 177.798016 
L 185.601462 178.304584 
L 185.33304 178.61953 
L 184.758662 179.279515 
L 184.423725 179.655881 
L 184.108782 180.004262 
L 183.58549 180.571645 
L 182.790162 181.407684 
L 182.515174 181.68965 
L 182.049417 182.159206 
L 181.455269 182.743998 
L 180.874105 183.301155 
L 180.676154 183.487672 
L 180.16813 183.958981 
L 179.739124 184.348905 
L 179.377356 184.672115 
L 178.691522 185.271175 
L 178.329233 185.580584 
L 177.932255 185.914175 
L 177.327916 186.411344 
L 177.023666 186.656873 
L 176.359296 187.182206 
L 175.987594 187.469788 
L 175.557293 187.797163 
L 175.025103 188.193994 
L 174.636395 188.478314 
L 174.259364 188.749723 
L 173.579552 189.228437 
L 173.042472 189.59716 
L 172.621536 189.880423 
L 172.301662 190.092371 
L 171.585331 190.55684 
L 171.324545 190.722498 
L 170.755269 191.077864 
L 170.118728 191.465237 
L 170.056289 191.502676 
L 169.452892 191.859399 
L 168.708279 192.287122 
L 168.52557 192.390001 
L 167.883345 192.745245 
L 167.654688 192.869354 
L 167.028949 193.202714 
L 166.62343 193.413904 
L 166.012054 193.725207 
L 165.803192 193.829622 
L 165.303505 194.07548 
L 164.427411 194.493278 
L 164.201695 194.59822 
L 163.691525 194.831394 
L 163.410056 194.957673 
L 162.842054 195.207433 
L 162.504195 195.352809 
L 161.806817 195.645454 
L 161.150271 195.911932 
L 160.800189 196.050485 
L 160.208127 196.279267 
L 160.190279 196.286056 
L 159.310311 196.613074 
L 159.17498 196.662032 
L 158.461875 196.9142 
L 157.960969 197.085536 
L 157.402768 197.270895 
L 157.009132 197.398104 
L 156.613083 197.523189 
L 156.19709 197.651456 
L 155.957636 197.723849 
L 155.150426 197.960196 
L 154.95516 198.015596 
L 154.183872 198.227734 
L 153.990766 198.279184 
L 153.294333 198.459245 
L 152.687235 198.609239 
L 152.633171 198.622283 
L 152.162198 198.733762 
L 151.551885 198.872495 
L 150.891334 199.015407 
L 150.656402 199.064431 
L 150.240168 199.148973 
L 149.844842 199.226539 
L 149.256375 199.337095 
L 148.724655 199.431968 
L 148.189934 199.52259 
L 147.63951 199.610884 
L 147.29373 199.663772 
L 146.871723 199.725631 
L 146.570571 199.767972 
L 145.85576 199.862483 
L 145.331469 199.926463 
L 144.96385 199.968638 
L 144.421991 200.026774 
L 144.226075 200.046614 
L 143.500592 200.114645 
L 143.127522 200.1463 
L 142.533336 200.192061 
L 142.026836 200.226558 
L 141.5901 200.252978 
L 140.97704 200.284875 
L 140.672932 200.298451 
L 140.338102 200.311678 
L 139.635818 200.333564 
L 139.382332 200.339517 
L 138.900295 200.347991 
L 138.243915 200.353532 
L 137.766718 200.35322 
L 137.469278 200.351176 
L 136.874998 200.342838 
L 136.282483 200.32888 
L 135.947071 200.318478 
L 135.68822 200.309214 
L 135.285738 200.292669 
L 134.656421 200.261572 
L 134.342788 200.243691 
L 133.500002 200.187775 
L 133.324371 200.174676 
L 132.676464 200.122034 
L 132.339982 200.092009 
L 131.810961 200.04108 
L 131.082826 199.963523 
L 130.705835 199.919963 
L 130.60912 199.908413 
L 129.81865 199.808252 
L 129.308865 199.738198 
L 129.017383 199.696213 
L 128.545255 199.62522 
L 128.037981 199.544812 
L 127.388665 199.435619 
L 127.057066 199.377129 
L 126.499709 199.274645 
L 126.035312 199.185243 
L 125.895657 199.157642 
L 125.239136 199.023435 
L 124.928285 198.957319 
L 124.070166 198.766169 
L 123.961203 198.740986 
L 123.310571 198.586315 
L 122.979455 198.50476 
L 122.257757 198.32032 
L 122.090263 198.276197 
L 121.236847 198.043618 
L 121.064745 197.995134 
L 120.402008 197.803435 
L 120.147427 197.727676 
L 119.417833 197.503989 
L 119.039152 197.38402 
L 118.504307 197.210034 
L 118.337502 197.154678 
L 117.765947 196.961022 
L 117.297419 196.797652 
L 116.792625 196.616932 
L 116.516285 196.515918 
L 115.644885 196.187634 
L 115.363396 196.078395 
L 115.032018 195.947778 
L 114.379653 195.684208 
L 114.055553 195.550063 
L 113.413086 195.277793 
L 113.085814 195.13582 
L 112.374883 194.81969 
L 112.212207 194.745851 
L 111.471225 194.402357 
L 110.910013 194.134285 
L 110.552606 193.959957 
L 110.073149 193.721638 
L 109.753149 193.559705 
L 109.067239 193.204753 
L 108.662586 192.990257 
L 108.122058 192.697751 
L 107.764066 192.500205 
L 107.349969 192.267854 
L 106.892308 192.006198 
L 106.892308 200.353846 
L 106.904498 201.586313 
L 106.916689 202.096732 
L 106.928879 202.488332 
L 106.94107 202.818417 
L 106.95326 203.109186 
L 106.965451 203.372022 
L 106.977641 203.613689 
L 106.989832 203.838594 
L 107.002022 204.049798 
L 107.014213 204.249531 
L 107.038594 204.620937 
L 107.062974 204.96238 
L 107.087355 205.280093 
L 107.111736 205.578408 
L 107.136117 205.860478 
L 107.160498 206.128685 
L 107.184879 206.384877 
L 107.233641 206.866826 
L 107.282403 207.315149 
L 107.337737 207.790848 
L 107.393072 208.237509 
L 107.448406 208.659817 
L 107.50374 209.061317 
L 107.559074 209.444766 
L 107.614409 209.812359 
L 107.669743 210.165879 
L 107.725077 210.506796 
L 107.799245 210.946097 
L 107.873412 211.36739 
L 107.94758 211.77267 
L 108.021747 212.163584 
L 108.095915 212.541516 
L 108.170082 212.907637 
L 108.24425 213.262953 
L 108.318417 213.608333 
L 108.450253 214.200027 
L 108.582088 214.766246 
L 108.692719 215.223864 
L 108.803349 215.667013 
L 108.91398 216.096916 
L 109.02461 216.514631 
L 109.15528 216.99356 
L 109.285949 217.458086 
L 109.416619 217.909354 
L 109.547288 218.348359 
L 109.683721 218.794589 
L 109.820153 219.229287 
L 109.956585 219.653232 
L 110.093017 220.067119 
L 110.284248 220.631485 
L 110.475478 221.178808 
L 110.666708 221.710397 
L 110.857938 222.2274 
L 111.044434 222.71852 
L 111.230929 223.197561 
L 111.446792 223.737932 
L 111.662655 224.264145 
L 111.964155 224.97714 
L 112.265656 225.666472 
L 112.304854 225.754454 
L 112.663798 226.54366 
L 113.022741 227.30499 
L 113.247433 227.768417 
L 113.472124 228.222329 
L 113.741218 228.754057 
L 114.189535 229.612987 
L 114.555294 230.290523 
L 114.921052 230.948688 
L 115.241907 231.511072 
L 115.562762 232.060237 
L 115.691527 232.277064 
L 116.066905 232.898012 
L 116.442283 233.503081 
L 116.575788 233.714613 
L 116.916324 234.245817 
L 117.25686 234.765453 
L 117.544889 235.196321 
L 117.914807 235.738553 
L 118.284724 236.26879 
L 118.732742 236.895663 
L 119.20532 237.539603 
L 119.477958 237.903374 
L 119.865706 238.411381 
L 120.253455 238.908797 
L 120.441479 239.146308 
L 120.99742 239.834978 
L 121.280796 240.178441 
L 121.715159 240.695369 
L 122.149523 241.201137 
L 122.624616 241.742034 
L 122.797415 241.935677 
L 123.159551 242.33629 
L 124.017846 243.258642 
L 124.308001 243.562144 
L 124.639011 243.903436 
L 125.296887 244.566573 
L 125.616519 244.881688 
L 126.053329 245.305078 
L 126.819012 246.027694 
L 126.862346 246.067866 
L 127.540125 246.686376 
L 128.144161 247.222456 
L 128.299451 247.358034 
L 128.856604 247.837095 
L 129.20413 248.130189 
L 129.905196 248.708442 
L 130.604556 249.268468 
L 130.627922 249.286896 
L 131.270334 249.786517 
L 131.969108 250.314923 
L 132.41482 250.643995 
L 132.808187 250.929378 
L 133.105653 251.142099 
L 133.711938 251.567575 
L 134.031875 251.787799 
L 134.474146 252.087429 
L 135.111892 252.509857 
L 135.495992 252.758887 
L 135.957394 253.052781 
L 136.409949 253.335551 
L 136.835208 253.596393 
L 137.624962 254.068514 
L 137.73412 254.132531 
L 138.394662 254.513607 
L 139.025157 254.867398 
L 139.176458 254.950874 
L 139.886715 255.335478 
L 140.269352 255.537776 
L 140.786446 255.805794 
L 141.370157 256.101029 
L 141.440241 256.135961 
L 142.166163 256.491358 
L 142.421484 256.613597 
L 143.249718 257.000394 
L 143.574591 257.148097 
L 144.162654 257.409782 
L 144.652244 257.622129 
L 144.915825 257.734395 
L 145.575524 258.009138 
L 145.650411 258.039766 
L 146.397208 258.339027 
L 146.624226 258.42779 
L 147.19534 258.646585 
L 147.604445 258.799381 
L 148.023798 258.952626 
L 148.50379 259.123868 
L 149.118461 259.336728 
L 149.794844 259.5627 
L 149.912535 259.601143 
L 150.475965 259.781609 
L 151.229935 260.013927 
L 151.533878 260.104634 
L 152.101339 260.26949 
L 152.379964 260.348303 
L 153.083774 260.541185 
L 153.541273 260.661829 
L 153.738535 260.712703 
L 154.456801 260.892153 
L 154.9868 261.018774 
L 155.414172 261.117318 
L 155.53769 261.145209 
L 156.069466 261.262282 
L 156.562265 261.366436 
L 156.960797 261.44763 
L 157.482898 261.549908 
L 157.974336 261.641961 
L 158.46152 261.729196 
L 159.257109 261.863093 
L 159.464994 261.896337 
L 160.022223 261.981899 
L 160.27526 262.019051 
L 160.684778 262.076933 
L 161.45737 262.1786 
L 161.990539 262.243039 
L 162.494721 262.299691 
L 162.726164 262.324307 
L 163.062324 262.358503 
L 163.553059 262.40512 
L 163.957776 262.440621 
L 164.726214 262.500719 
L 164.994935 262.519479 
L 165.429493 262.547349 
L 166.073582 262.583052 
L 166.764481 262.61392 
L 167.057459 262.62469 
L 167.471258 262.637552 
L 168.154838 262.652772 
L 168.184286 262.653259 
L 168.654081 262.659147 
L 169.587138 262.660336 
L 169.727899 262.659302 
L 170.487528 262.648234 
L 170.582316 262.646203 
L 171.048618 262.634109 
L 171.83819 262.605661 
L 171.960289 262.600367 
L 172.433868 262.57756 
L 173.220607 262.531682 
L 173.504369 262.512682 
L 174.266629 262.455197 
L 174.699569 262.418355 
L 175.080944 262.38338 
L 175.574571 262.334596 
L 175.776241 262.313523 
L 176.255134 262.260822 
L 177.046576 262.165494 
L 177.418261 262.117174 
L 177.595324 262.093356 
L 178.05312 262.029374 
L 178.533215 261.958551 
L 179.103695 261.869416 
L 179.768253 261.758736 
L 179.954564 261.72638 
L 180.610764 261.607768 
L 181.320134 261.471363 
L 181.631634 261.408764 
L 182.075163 261.316775 
L 182.647364 261.193117 
L 183.154034 261.078911 
L 183.630943 260.967346 
L 183.894916 260.903891 
L 184.490801 260.756163 
L 185.07376 260.605587 
L 185.219965 260.566878 
L 185.782971 260.414262 
L 186.064507 260.335818 
L 186.584247 260.187252 
L 187.160634 260.016767 
L 187.439719 259.93204 
L 187.939075 259.776869 
L 188.59914 259.564672 
L 189.022684 259.424225 
L 189.629593 259.21708 
L 190.141001 259.037089 
L 190.522108 258.899693 
L 190.895431 258.76238 
L 191.664998 258.470732 
L 191.928949 258.368011 
L 192.395557 258.183031 
L 192.638845 258.084852 
L 193.08945 257.899851 
L 193.934696 257.541636 
L 194.187606 257.431583 
L 194.896021 257.116184 
L 195.334379 256.915695 
L 195.627951 256.779124 
L 196.079214 256.565556 
L 196.478675 256.372793 
L 196.851607 256.189651 
L 197.491417 255.868207 
L 197.912945 255.651363 
L 198.585681 255.296819 
L 198.907939 255.123244 
L 199.225951 254.949549 
L 199.873707 254.588265 
L 200.353846 254.313891 
z
" style="fill:#808080;opacity:0.5;"/>
   </g>
   <g id="patch_8">
    <path clip-path="url(#p004eb153fd)" d="M 231.507692 200.353846 
L 231.504439 199.717152 
L 231.501186 199.453436 
L 231.497933 199.251088 
L 231.49468 199.080508 
L 231.491427 198.930229 
L 231.488174 198.794372 
L 231.48492 198.669443 
L 231.481667 198.553167 
L 231.478414 198.443963 
L 231.475161 198.340679 
L 231.471908 198.242446 
L 231.468655 198.148589 
L 231.465402 198.058572 
L 231.462148 197.971959 
L 231.455642 197.807568 
L 231.449136 197.653181 
L 231.44263 197.507169 
L 231.436123 197.368304 
L 231.429617 197.235631 
L 231.423111 197.108389 
L 231.416605 196.985965 
L 231.410098 196.867849 
L 231.403592 196.753617 
L 231.396999 196.641452 
L 231.390405 196.532589 
L 231.377219 196.323707 
L 231.364032 196.125172 
L 231.350845 195.935589 
L 231.337658 195.75385 
L 231.324471 195.579059 
L 231.311284 195.410481 
L 231.298098 195.247498 
L 231.284911 195.089593 
L 231.271724 194.93632 
L 231.258537 194.787296 
L 231.24535 194.64219 
L 231.232164 194.50071 
L 231.218977 194.3626 
L 231.192603 194.095598 
L 231.167219 193.849059 
L 231.141835 193.611625 
L 231.116452 193.382365 
L 231.091068 193.160497 
L 231.065684 192.945358 
L 231.0403 192.736377 
L 231.014916 192.53306 
L 230.989532 192.334978 
L 230.960259 192.11255 
L 230.930985 191.89607 
L 230.890855 191.608163 
L 230.850724 191.329616 
L 230.810594 191.059585 
L 230.770463 190.79735 
L 230.736457 190.580771 
L 230.702451 190.369005 
L 230.668445 190.161751 
L 230.634439 189.95874 
L 230.600433 189.759727 
L 230.566427 189.564492 
L 230.532421 189.372832 
L 230.498415 189.184565 
L 230.456598 188.957454 
L 230.414781 188.734932 
L 230.36182 188.4593 
L 230.30886 188.190142 
L 230.2559 187.927038 
L 230.20294 187.669612 
L 230.123752 187.294558 
L 230.061228 187.00621 
L 229.998705 186.724247 
L 229.946258 186.492365 
L 229.893811 186.264494 
L 229.841364 186.040443 
L 229.788917 185.820034 
L 229.733873 185.592454 
L 229.67883 185.368532 
L 229.623787 185.148106 
L 229.568743 184.931027 
L 229.50547 184.685445 
L 229.442197 184.443904 
L 229.346685 184.086553 
L 229.251173 183.737433 
L 229.228938 183.657284 
L 229.157943 183.40411 
L 229.086949 183.154955 
L 229.015955 182.909647 
L 228.94496 182.668026 
L 228.820407 182.252587 
L 228.687353 181.820002 
L 228.593707 181.522062 
L 228.500061 181.229222 
L 228.44554 181.060986 
L 228.347279 180.761809 
L 228.249017 180.467618 
L 228.135478 180.133611 
L 228.000306 179.743837 
L 227.865134 179.362169 
L 227.70568 178.921769 
L 227.659538 178.796227 
L 227.482154 178.321164 
L 227.326998 177.915027 
L 227.139084 177.43418 
L 227.044052 177.195388 
L 226.84336 176.700273 
L 226.695682 176.343534 
L 226.583623 176.076937 
L 226.471564 175.813747 
L 226.318341 175.459196 
L 226.135705 175.044283 
L 225.991029 174.721297 
L 225.945744 174.6212 
L 225.808484 174.320636 
L 225.671225 174.024219 
L 225.624439 173.924104 
L 225.411036 173.473222 
L 225.24702 173.132898 
L 225.101526 172.835346 
L 224.927305 172.484222 
L 224.719488 172.072493 
L 224.643252 171.923329 
L 224.421101 171.494211 
L 224.307053 171.27703 
L 224.202919 171.080524 
L 224.067978 170.828374 
L 223.794414 170.325552 
L 223.660135 170.082701 
L 223.572401 169.925396 
L 223.338684 169.511482 
L 223.267104 169.386173 
L 222.994411 168.914859 
L 222.960024 168.856094 
L 222.688466 168.397117 
L 222.517959 168.11344 
L 222.359776 167.853281 
L 222.339415 167.820002 
L 222.187796 167.573639 
L 221.928705 167.158482 
L 221.805752 166.963977 
L 221.704298 166.804671 
L 221.509174 166.501242 
L 221.392107 166.321031 
L 221.122749 165.911479 
L 221.024019 165.763103 
L 220.849927 165.503688 
L 220.663431 165.228873 
L 220.559543 165.077143 
L 220.323509 164.735938 
L 220.231022 164.603556 
L 220.024636 164.310748 
L 219.857729 164.076539 
L 219.764008 163.946023 
L 219.679098 163.828387 
L 219.457474 163.524037 
L 219.289575 163.296013 
L 219.201705 163.177536 
L 218.983562 162.885921 
L 218.783067 162.620996 
L 218.695865 162.506682 
L 218.568001 162.340046 
L 218.333711 162.037701 
L 218.21183 161.881921 
L 217.999381 161.612796 
L 217.821158 161.389356 
L 217.757892 161.310542 
L 217.651983 161.179188 
L 217.375044 160.839119 
L 217.208735 160.637226 
L 217.040759 160.43505 
L 217.022973 160.413743 
L 216.751412 160.090814 
L 216.586809 159.897217 
L 216.539438 159.841797 
L 216.34694 159.617934 
L 216.233085 159.486531 
L 215.933203 159.143942 
L 215.862071 159.063415 
L 215.682754 158.861653 
L 215.549698 158.713073 
L 215.446669 158.598677 
L 215.276582 158.411063 
L 215.014381 158.124816 
L 214.875626 157.974775 
L 214.774427 157.865964 
L 214.670041 157.75427 
L 214.370264 157.436533 
L 214.259118 157.319855 
L 214.173688 157.230582 
L 213.955295 157.003966 
L 213.739796 156.782581 
L 213.648538 156.68949 
L 213.537828 156.577077 
L 213.350123 156.387778 
L 213.187305 156.224882 
L 213.018985 156.05774 
L 212.810334 155.852304 
L 212.707883 155.752135 
L 212.584173 155.631793 
L 212.338293 155.394573 
L 212.287608 155.345996 
L 212.104437 155.171352 
L 211.997041 155.069612 
L 211.73132 154.819954 
L 211.654217 154.748058 
L 211.412575 154.524303 
L 211.278207 154.400903 
L 211.208452 154.337127 
L 210.924995 154.079952 
L 210.806631 153.973497 
L 210.715246 153.89168 
L 210.554477 153.748527 
L 210.33236 153.552377 
L 210.277025 153.503803 
L 210.036401 153.293918 
L 209.872199 153.151932 
L 209.768851 153.063077 
L 209.542881 152.87016 
L 209.408376 152.756209 
L 209.221932 152.599333 
L 209.170814 152.556539 
L 208.917198 152.345589 
L 208.817446 152.263239 
L 208.665001 152.138058 
L 208.422903 151.94091 
L 208.318587 151.856582 
L 208.210201 151.769356 
L 208.100522 151.681494 
L 207.940401 151.55395 
L 207.663703 151.335563 
L 207.531788 151.232338 
L 207.393346 151.124619 
L 207.278651 151.035849 
L 207.008979 150.828806 
L 206.917333 150.758974 
L 206.82996 150.692648 
L 206.603432 150.52181 
L 206.395257 150.366234 
L 206.242877 150.253209 
L 206.137518 150.175482 
L 205.996446 150.07194 
L 205.754956 149.896104 
L 205.710809 149.864151 
L 205.58044 149.770133 
L 205.429094 149.661625 
L 205.221186 149.513678 
L 205.034038 149.381597 
L 204.906161 149.291937 
L 204.806199 149.222182 
L 204.523074 149.026183 
L 204.484322 148.999536 
L 204.335076 148.897312 
L 204.081714 148.725225 
L 203.984066 148.659386 
L 203.741018 148.496671 
L 203.578291 148.38865 
L 203.547671 148.368406 
L 203.301767 148.206766 
L 203.229187 148.159374 
L 203.049044 148.042368 
L 202.923295 147.961214 
L 202.757331 147.85476 
L 202.607242 147.759125 
L 202.335973 147.587798 
L 202.229543 147.521112 
L 202.009599 147.384244 
L 201.932877 147.336799 
L 201.755649 147.227786 
L 201.668733 147.174622 
L 201.45682 147.045816 
L 201.276449 146.937089 
L 201.192319 146.88666 
L 200.912441 146.720185 
L 200.756639 146.628368 
L 200.627552 146.552754 
L 200.50681 146.482405 
L 200.353846 146.393802 
L 200.353846 254.313891 
L 200.525934 254.214169 
L 200.612546 254.163701 
L 200.749135 254.083732 
L 200.985636 253.944161 
L 201.066704 253.895995 
L 201.270111 253.774408 
L 201.414083 253.687713 
L 201.568292 253.594265 
L 201.739833 253.489595 
L 201.865216 253.412608 
L 202.045756 253.301035 
L 202.214756 253.195822 
L 202.449743 253.048278 
L 202.594272 252.956804 
L 202.703581 252.88725 
L 202.860919 252.786575 
L 203.08182 252.644102 
L 203.240451 252.540973 
L 203.30288 252.500199 
L 203.558908 252.33186 
L 203.584934 252.314647 
L 203.754534 252.202016 
L 204.003996 252.034891 
L 204.048582 252.004837 
L 204.307826 251.828977 
L 204.38346 251.77731 
L 204.50519 251.693812 
L 204.749338 251.52506 
L 204.892561 251.425263 
L 204.992395 251.355346 
L 205.284711 251.148946 
L 205.377356 251.083004 
L 205.514951 250.984596 
L 205.693645 250.855949 
L 205.894119 250.710476 
L 206.015101 250.622095 
L 206.204425 250.48289 
L 206.349039 250.375815 
L 206.533355 250.238404 
L 206.622871 250.171285 
L 206.73784 250.084713 
L 206.995159 249.889434 
L 207.082369 249.822772 
L 207.181867 249.74642 
L 207.359136 249.609596 
L 207.532003 249.475187 
L 207.76005 249.296374 
L 207.808986 249.25778 
L 208.084842 249.038727 
L 208.159716 248.97883 
L 208.282631 248.880092 
L 208.455353 248.740474 
L 208.589775 248.631109 
L 208.843777 248.422749 
L 209.041758 248.258782 
L 209.157629 248.162176 
L 209.343532 248.006184 
L 209.433899 247.92991 
L 209.53815 247.841552 
L 209.755384 247.656165 
L 209.899554 247.532177 
L 210.117489 247.343288 
L 210.276966 247.203941 
L 210.429698 247.069588 
L 210.580744 246.935844 
L 210.739512 246.794318 
L 210.767498 246.769271 
L 211.037592 246.525963 
L 211.131122 246.441041 
L 211.359344 246.232362 
L 211.547168 246.059053 
L 211.587331 246.021807 
L 211.813272 245.811052 
L 211.980956 245.653276 
L 212.038452 245.598908 
L 212.268094 245.380369 
L 212.470652 245.185746 
L 212.513769 245.14409 
L 212.741616 244.922627 
L 212.859423 244.80723 
L 213.085689 244.583867 
L 213.243971 244.426254 
L 213.306159 244.364019 
L 213.525018 244.143586 
L 213.704489 243.961173 
L 213.805878 243.857457 
L 213.959575 243.699307 
L 214.065311 243.589854 
L 214.341918 243.300974 
L 214.506096 243.127742 
L 214.582428 243.046747 
L 214.767142 242.849541 
L 214.980058 242.620084 
L 215.072225 242.520035 
L 215.240732 242.33598 
L 215.432301 242.124923 
L 215.588901 241.950942 
L 215.674957 241.854773 
L 215.819097 241.69279 
L 216.062159 241.417049 
L 216.236218 241.217556 
L 216.364535 241.069386 
L 216.551744 240.851511 
L 216.557953 240.84425 
L 216.836345 240.516356 
L 217.007833 240.31207 
L 217.171881 240.114973 
L 217.246377 240.024921 
L 217.408792 239.827393 
L 217.499637 239.716184 
L 217.673032 239.502457 
L 217.850476 239.281724 
L 217.979445 239.119994 
L 218.25505 238.770647 
L 218.406653 238.576271 
L 218.580259 238.351721 
L 218.693261 238.204416 
L 218.841887 238.009278 
L 219.02955 237.76059 
L 219.147998 237.602283 
L 219.219121 237.50672 
L 219.376482 237.293922 
L 219.686027 236.869728 
L 219.781268 236.737687 
L 219.86602 236.619573 
L 220.132798 236.243937 
L 220.176109 236.182393 
L 220.421333 235.830932 
L 220.550699 235.643422 
L 220.667439 235.472947 
L 220.811274 235.261222 
L 220.963626 235.034901 
L 221.156014 234.746013 
L 221.344177 234.460053 
L 221.480306 234.251016 
L 221.720165 233.878178 
L 221.726852 233.867698 
L 221.941425 233.528997 
L 222.039781 233.372114 
L 222.248432 233.035834 
L 222.437067 232.72765 
L 222.636102 232.398057 
L 222.808206 232.109298 
L 222.841847 232.052439 
L 222.9812 231.815426 
L 223.135642 231.54992 
L 223.385616 231.113683 
L 223.474927 230.95582 
L 223.709666 230.535709 
L 223.859391 230.263702 
L 224.017544 229.97285 
L 224.204833 229.623572 
L 224.380191 229.291625 
L 224.481771 229.097094 
L 224.602085 228.864502 
L 224.765862 228.543977 
L 224.933382 228.211317 
L 225.105587 227.864097 
L 225.181776 227.708723 
L 225.325903 227.411776 
L 225.490505 227.067655 
L 225.672128 226.681536 
L 225.79755 226.41082 
L 225.922971 226.136652 
L 226.034342 225.890214 
L 226.127956 225.680836 
L 226.255777 225.391555 
L 226.383598 225.098232 
L 226.52721 224.763669 
L 226.6786 224.405023 
L 226.783094 224.153757 
L 226.920758 223.817917 
L 227.093855 223.38752 
L 227.199846 223.119311 
L 227.305837 222.847405 
L 227.439265 222.499649 
L 227.554573 222.194 
L 227.669882 221.883394 
L 227.697611 221.807938 
L 227.793709 221.544076 
L 227.889807 221.276445 
L 228.044286 220.837952 
L 228.142016 220.555017 
L 228.239746 220.267584 
L 228.378911 219.850128 
L 228.530318 219.384398 
L 228.616809 219.112614 
L 228.716117 218.795114 
L 228.815425 218.471507 
L 228.938079 218.062894 
L 229.060734 217.643757 
L 229.186399 217.202598 
L 229.252827 216.964281 
L 229.319254 216.722225 
L 229.427773 216.318305 
L 229.511965 215.997228 
L 229.596158 215.668959 
L 229.654702 215.436204 
L 229.713247 215.19957 
L 229.764622 214.988569 
L 229.815997 214.774298 
L 229.867372 214.556609 
L 229.918747 214.335342 
L 229.977622 214.077153 
L 230.036497 213.813754 
L 230.095372 213.544834 
L 230.154247 213.270048 
L 230.206357 213.021639 
L 230.258466 212.76804 
L 230.334941 212.385784 
L 230.373178 212.189842 
L 230.411415 211.990476 
L 230.446636 211.803656 
L 230.481856 211.613627 
L 230.517076 211.420224 
L 230.552296 211.223265 
L 230.587724 211.021359 
L 230.623152 210.815438 
L 230.65858 210.605258 
L 230.694008 210.390553 
L 230.725731 210.19422 
L 230.757454 209.993785 
L 230.789176 209.788986 
L 230.820899 209.579533 
L 230.866155 209.27202 
L 230.911411 208.953279 
L 230.934039 208.789303 
L 230.956667 208.622013 
L 230.979295 208.451205 
L 231.001923 208.27665 
L 231.033329 208.027696 
L 231.064734 207.770258 
L 231.09614 207.503417 
L 231.127546 207.22608 
L 231.157496 206.950603 
L 231.172471 206.808405 
L 231.187446 206.662967 
L 231.202422 206.51406 
L 231.217397 206.361426 
L 231.232372 206.204773 
L 231.247347 206.04377 
L 231.262322 205.878036 
L 231.277297 205.707131 
L 231.292273 205.530544 
L 231.307248 205.347671 
L 231.322223 205.157795 
L 231.337198 204.960051 
L 231.352173 204.753376 
L 231.367149 204.536449 
L 231.375933 204.403776 
L 231.384717 204.266589 
L 231.3935 204.124392 
L 231.402284 203.976597 
L 231.411068 203.822489 
L 231.419852 203.661184 
L 231.428636 203.491573 
L 231.43742 203.312227 
L 231.441812 203.218337 
L 231.446204 203.121256 
L 231.450596 203.020636 
L 231.454988 202.91606 
L 231.45938 202.807023 
L 231.463772 202.692899 
L 231.468164 202.572906 
L 231.472556 202.446033 
L 231.476948 202.310942 
L 231.48134 202.165797 
L 231.485732 202.007952 
L 231.490124 201.83335 
L 231.494516 201.635156 
L 231.498908 201.40005 
L 231.5033 201.093637 
z
" style="fill:#808080;opacity:0.5;"/>
   </g>
   <g id="matplotlib.axis_1"/>
   <g id="matplotlib.axis_2"/>
   <g id="line2d_1">
    <path clip-path="url(#p004eb153fd)" d="M 106.892308 84.086109 
L 110.414423 82.20051 
L 113.841887 80.631853 
L 117.136815 79.351622 
L 120.652292 78.215542 
L 124.134449 77.311378 
L 127.949109 76.562024 
L 131.760847 76.056288 
L 135.345031 75.797038 
L 139.197718 75.749104 
L 142.859528 75.92466 
L 146.731189 76.346732 
L 150.213439 76.938006 
L 153.786498 77.759422 
L 157.169816 78.745782 
L 160.699819 80.00255 
L 163.907691 81.359035 
L 166.95086 82.848632 
L 170.14368 84.642059 
L 173.536439 86.833966 
L 176.487756 89.010537 
L 179.087031 91.164442 
L 181.645955 93.534292 
L 184.035116 96.007316 
L 186.608192 99.008007 
L 189.049796 102.256812 
L 191.098258 105.370127 
L 192.903563 108.50105 
L 194.628449 111.956072 
L 196.018038 115.209578 
L 197.392525 119.065723 
L 198.36104 122.41404 
L 199.16666 125.941103 
L 199.795306 129.722045 
L 200.196139 133.615815 
L 200.342581 136.8614 
L 200.353846 138.046154 
L 200.353846 138.046154 
" style="fill:none;stroke:#0000ff;stroke-linecap:square;"/>
   </g>
   <g id="line2d_2">
    <path clip-path="url(#p004eb153fd)" d="M 75.738462 138.046154 
L 75.863068 134.107587 
L 76.2032 130.450265 
L 76.763471 126.790877 
L 77.567007 123.06212 
L 78.584215 119.430935 
L 79.755029 116.037218 
L 81.145082 112.658823 
L 82.73687 109.355882 
L 84.486789 106.208394 
L 86.514131 103.021888 
L 88.698371 100.006111 
L 91.07278 97.110221 
L 93.549098 94.431242 
L 96.320539 91.772819 
L 99.035229 89.462244 
L 102.106761 87.148132 
L 105.145314 85.133175 
L 106.892308 84.086109 
L 106.892308 84.086109 
" style="fill:none;stroke:#0000ff;stroke-linecap:square;"/>
   </g>
   <g id="line2d_3">
    <path clip-path="url(#p004eb153fd)" d="M 75.738462 138.046154 
L 75.876319 142.18864 
L 76.240259 145.937916 
L 76.809945 149.551599 
L 77.641362 153.327176 
L 78.657958 156.895312 
L 79.897812 160.429604 
L 81.342935 163.872372 
L 83.02997 167.294539 
L 84.921916 170.604777 
L 87.011402 173.791121 
L 89.169345 176.689472 
L 91.618738 179.600258 
L 94.159123 182.274844 
L 96.89359 184.829858 
L 99.710329 187.164512 
L 102.66178 189.331577 
L 105.752475 191.331863 
L 106.892308 192.006198 
L 106.892308 192.006198 
" style="fill:none;stroke:#0000ff;stroke-linecap:square;"/>
   </g>
   <g id="line2d_4">
    <path clip-path="url(#p004eb153fd)" d="M 106.892308 200.353846 
L 107.038594 204.620937 
L 107.393072 208.237509 
L 107.94758 211.77267 
L 108.692719 215.223864 
L 109.683721 218.794589 
L 110.857938 222.2274 
L 112.304854 225.754454 
L 113.741218 228.754057 
L 115.691527 232.277064 
L 117.544889 235.196321 
L 119.865706 238.411381 
L 122.149523 241.201137 
L 124.639011 243.903436 
L 127.540125 246.686376 
L 130.627922 249.286896 
L 133.711938 251.567575 
L 136.835208 253.596393 
L 140.269352 255.537776 
L 143.574591 257.148097 
L 147.19534 258.646585 
L 150.475965 259.781609 
L 154.456801 260.892153 
L 157.974336 261.641961 
L 161.45737 262.1786 
L 165.429493 262.547349 
L 168.654081 262.659147 
L 172.433868 262.57756 
L 176.255134 262.260822 
L 179.954564 261.72638 
L 183.894916 260.903891 
L 187.439719 259.93204 
L 190.895431 258.76238 
L 194.187606 257.431583 
L 197.491417 255.868207 
L 200.353846 254.313891 
L 200.353846 254.313891 
" style="fill:none;stroke:#228b22;stroke-linecap:square;"/>
   </g>
   <g id="line2d_5">
    <path clip-path="url(#p004eb153fd)" d="M 200.353846 254.313891 
L 203.584934 252.314647 
L 206.622871 250.171285 
L 209.53815 247.841552 
L 212.268094 245.380369 
L 214.767142 242.849541 
L 217.246377 240.024921 
L 219.376482 237.293922 
L 221.480306 234.251016 
L 223.474927 230.95582 
L 225.181776 227.708723 
L 226.6786 224.405023 
L 228.044286 220.837952 
L 229.186399 217.202598 
L 230.095372 213.544834 
L 230.789176 209.788986 
L 231.247347 206.04377 
L 231.476948 202.310942 
L 231.507692 200.353846 
L 231.507692 200.353846 
" style="fill:none;stroke:#228b22;stroke-linecap:square;"/>
   </g>
   <g id="text_1">
    <!-- $\Omega$ -->
    <g transform="translate(16.011538 22.420913)scale(0.1 -0.1)">
     <defs>
      <path d="M 7.71875 0 
L 4.390625 16.609375 
L 7.328125 16.609375 
Q 7.859375 13.71875 8.296875 11.5 
Q 8.734375 9.28125 9.4375 8.375 
Q 10.15625 7.46875 11.71875 7.171875 
Q 13.28125 6.890625 16.890625 6.890625 
L 23 6.890625 
Q 21.53125 12.546875 15.6875 21.65625 
Q 9.859375 30.765625 7.734375 34.890625 
Q 5.609375 39.015625 5.609375 45.515625 
Q 5.609375 53.078125 10.09375 58.765625 
Q 14.59375 64.453125 21.703125 67.484375 
Q 28.8125 70.515625 36.078125 70.515625 
Q 43.3125 70.515625 50.40625 67.484375 
Q 57.515625 64.453125 62 58.71875 
Q 66.5 52.984375 66.5 45.515625 
Q 66.5 40.4375 64.640625 35.9375 
Q 62.796875 31.453125 59.90625 26.953125 
Q 57.03125 22.46875 53.6875 16.9375 
Q 50.34375 11.421875 49.125 6.890625 
L 55.171875 6.890625 
Q 58.84375 6.890625 60.453125 7.171875 
Q 62.0625 7.46875 62.734375 8.375 
Q 63.421875 9.28125 63.84375 11.5 
Q 64.265625 13.71875 64.796875 16.609375 
L 67.671875 16.609375 
L 64.40625 0 
L 46.6875 0 
Q 45.703125 0 45.703125 1.3125 
Q 45.703125 6.390625 46.9375 11.265625 
Q 48.1875 16.15625 50.625 23.09375 
Q 53.078125 30.03125 54.4375 35.328125 
Q 55.8125 40.625 55.8125 45.515625 
Q 55.8125 51.515625 53.46875 56.640625 
Q 51.125 61.765625 46.625 64.84375 
Q 42.140625 67.921875 36.078125 67.921875 
Q 26.953125 67.921875 21.625 61.40625 
Q 16.3125 54.890625 16.3125 45.515625 
Q 16.359375 40.375 17.53125 35.828125 
Q 18.703125 31.296875 21.3125 23.71875 
Q 23.921875 16.15625 25.171875 11.265625 
Q 26.421875 6.390625 26.421875 1.3125 
Q 26.421875 0 25.390625 0 
z
" id="Cmr10-173"/>
     </defs>
     <use transform="translate(0 0.484375)" xlink:href="#Cmr10-173"/>
    </g>
   </g>
   <g id="text_2">
    <!-- $A$ -->
    <g style="fill:#0000ff;" transform="translate(103.142308 78.497837)scale(0.1 -0.1)">
     <defs>
      <path d="M 4.5 0 
Q 3.515625 0 3.515625 1.3125 
Q 3.90625 3.515625 4.78125 3.515625 
Q 8.84375 3.515625 11.796875 5.125 
Q 14.75 6.734375 16.890625 10.109375 
Q 17.09375 10.296875 17.09375 10.296875 
L 52.78125 70.515625 
Q 53.5625 71.578125 54.6875 71.578125 
L 56 71.578125 
Q 56.296875 71.578125 56.59375 71.453125 
Q 56.890625 71.34375 57.109375 71.0625 
Q 57.328125 70.796875 57.328125 70.515625 
L 63.375 5.90625 
Q 63.375 5.46875 63.8125 4.59375 
Q 64.796875 3.515625 71.296875 3.515625 
Q 72.3125 3.515625 72.3125 2.203125 
Q 71.96875 0.875 71.75 0.4375 
Q 71.53125 0 70.609375 0 
L 45.609375 0 
Q 44.671875 0 44.671875 1.3125 
Q 45.21875 3.515625 46 3.515625 
Q 53.90625 3.515625 54.390625 6.203125 
L 52.875 22.703125 
L 28.21875 22.703125 
L 20.21875 9.28125 
Q 19.484375 8.203125 19.484375 6.78125 
Q 19.484375 5.03125 21.171875 4.265625 
Q 22.859375 3.515625 24.90625 3.515625 
Q 25.875 3.515625 25.875 2.203125 
Q 25.53125 0.78125 25.328125 0.390625 
Q 25.140625 0 24.21875 0 
z
M 30.171875 26.21875 
L 52.484375 26.21875 
L 49.515625 58.59375 
z
" id="Cmmi10-65"/>
     </defs>
     <use transform="translate(0 0.421875)" xlink:href="#Cmmi10-65"/>
    </g>
   </g>
   <g id="text_3">
    <!-- $B$ -->
    <g style="fill:#ff0000;" transform="translate(227.707692 78.497837)scale(0.1 -0.1)">
     <defs>
      <path d="M 4.984375 0 
Q 4 0 4 1.3125 
Q 4.046875 1.5625 4.1875 2.140625 
Q 4.34375 2.734375 4.578125 3.125 
Q 4.828125 3.515625 5.328125 3.515625 
Q 8.15625 3.515625 10.25 3.65625 
Q 12.359375 3.8125 13.8125 4.203125 
Q 14.984375 4.640625 15.71875 6.890625 
L 29.390625 61.8125 
Q 29.59375 62.796875 29.59375 63.1875 
Q 29.59375 64.265625 28.421875 64.40625 
Q 26.515625 64.796875 21.1875 64.796875 
Q 20.21875 64.796875 20.21875 66.109375 
Q 20.265625 66.359375 20.40625 66.96875 
Q 20.5625 67.578125 20.828125 67.9375 
Q 21.09375 68.3125 21.484375 68.3125 
L 57.328125 68.3125 
Q 60.59375 68.3125 63.796875 67.5 
Q 67 66.703125 69.703125 64.9375 
Q 72.40625 63.1875 74 60.5625 
Q 75.59375 57.953125 75.59375 54.5 
Q 75.59375 50.734375 73.65625 47.5 
Q 71.734375 44.28125 68.671875 41.890625 
Q 65.625 39.5 62.078125 37.953125 
Q 58.546875 36.421875 54.6875 35.6875 
Q 57.421875 35.6875 60.21875 34.609375 
Q 63.03125 33.546875 65.234375 31.6875 
Q 67.4375 29.828125 68.78125 27.234375 
Q 70.125 24.65625 70.125 21.6875 
Q 70.125 15.671875 65.921875 10.6875 
Q 61.71875 5.71875 55.34375 2.859375 
Q 48.96875 0 43.015625 0 
z
M 23.390625 4.296875 
Q 23.390625 3.515625 26.8125 3.515625 
L 41.109375 3.515625 
Q 46 3.515625 50.484375 6.21875 
Q 54.984375 8.9375 57.6875 13.421875 
Q 60.40625 17.921875 60.40625 22.796875 
Q 60.40625 25.78125 59.15625 28.4375 
Q 57.90625 31.109375 55.5625 32.640625 
Q 53.21875 34.1875 50.203125 34.1875 
L 30.71875 34.1875 
L 23.78125 6.5 
Q 23.390625 5.125 23.390625 4.296875 
z
M 31.390625 36.8125 
L 46.578125 36.8125 
Q 51.375 36.8125 55.890625 39.25 
Q 60.40625 41.703125 63.25 45.890625 
Q 66.109375 50.09375 66.109375 54.78125 
Q 66.109375 59.125 63.390625 61.953125 
Q 60.6875 64.796875 56.390625 64.796875 
L 42.671875 64.796875 
Q 39.984375 64.796875 39.0625 64.296875 
Q 38.140625 63.8125 37.5 61.375 
z
" id="Cmmi10-66"/>
     </defs>
     <use transform="translate(0 0.6875)" xlink:href="#Cmmi10-66"/>
    </g>
   </g>
   <g id="text_4">
    <!-- $C$ -->
    <g style="fill:#228b22;" transform="translate(150.023077 271.651683)scale(0.1 -0.1)">
     <defs>
      <path d="M 14.59375 21.578125 
Q 14.59375 15.578125 16.90625 11.015625 
Q 19.234375 6.453125 23.65625 3.875 
Q 28.078125 1.3125 34.078125 1.3125 
Q 40.375 1.3125 46.203125 4.53125 
Q 52.046875 7.765625 56.171875 13.15625 
Q 60.296875 18.5625 61.8125 24.609375 
Q 62.015625 25.203125 62.59375 25.203125 
L 63.8125 25.203125 
Q 64.203125 25.203125 64.453125 24.921875 
Q 64.703125 24.65625 64.703125 24.3125 
Q 64.703125 24.21875 64.59375 24.03125 
Q 62.890625 17.09375 57.984375 11.015625 
Q 53.078125 4.9375 46.234375 1.359375 
Q 39.40625 -2.203125 32.171875 -2.203125 
Q 24.359375 -2.203125 18.15625 1.3125 
Q 11.96875 4.828125 8.515625 11.078125 
Q 5.078125 17.328125 5.078125 25.203125 
Q 5.078125 33.59375 8.828125 41.8125 
Q 12.59375 50.046875 18.9375 56.46875 
Q 25.296875 62.890625 33.421875 66.703125 
Q 41.546875 70.515625 49.90625 70.515625 
Q 53.21875 70.515625 56.25 69.5 
Q 59.28125 68.5 61.859375 66.453125 
Q 64.453125 64.40625 66.109375 61.71875 
L 74.03125 70.3125 
Q 74.03125 70.515625 74.515625 70.515625 
L 75.09375 70.515625 
Q 75.484375 70.515625 75.734375 70.171875 
Q 75.984375 69.828125 75.984375 69.484375 
L 69.1875 42.484375 
Q 69.1875 41.796875 68.40625 41.796875 
L 66.609375 41.796875 
Q 65.828125 41.796875 65.828125 42.921875 
Q 66.21875 45.125 66.21875 48.1875 
Q 66.21875 53.078125 64.546875 57.390625 
Q 62.890625 61.71875 59.390625 64.359375 
Q 55.90625 67 50.875 67 
Q 42.71875 67 35.9375 62.890625 
Q 29.15625 58.796875 24.4375 52.125 
Q 19.734375 45.453125 17.15625 37.328125 
Q 14.59375 29.203125 14.59375 21.578125 
z
" id="Cmmi10-67"/>
     </defs>
     <use transform="translate(0 0.484375)" xlink:href="#Cmmi10-67"/>
    </g>
   </g>
   <g id="patch_9">
    <path clip-path="url(#p004eb153fd)" d="M 138.046154 200.353846 
C 154.570347 200.353846 170.419977 193.788715 182.104346 182.104346 
C 193.788715 170.419977 200.353846 154.570347 200.353846 138.046154 
C 200.353846 121.521961 193.788715 105.672331 182.104346 93.987962 
C 170.419977 82.303593 154.570347 75.738462 138.046154 75.738462 
C 121.521961 75.738462 105.672331 82.303593 93.987962 93.987962 
C 82.303593 105.672331 75.738462 121.521961 75.738462 138.046154 
C 75.738462 154.570347 82.303593 170.419977 93.987962 182.104346 
C 105.672331 193.788715 121.521961 200.353846 138.046154 200.353846 
z
" style="fill:none;stroke:#0000ff;stroke-linejoin:miter;"/>
   </g>
   <g id="patch_10">
    <path clip-path="url(#p004eb153fd)" d="M 200.353846 200.353846 
C 216.878039 200.353846 232.727669 193.788715 244.412038 182.104346 
C 256.096407 170.419977 262.661538 154.570347 262.661538 138.046154 
C 262.661538 121.521961 256.096407 105.672331 244.412038 93.987962 
C 232.727669 82.303593 216.878039 75.738462 200.353846 75.738462 
C 183.829653 75.738462 167.980023 82.303593 156.295654 93.987962 
C 144.611285 105.672331 138.046154 121.521961 138.046154 138.046154 
C 138.046154 154.570347 144.611285 170.419977 156.295654 182.104346 
C 167.980023 193.788715 183.829653 200.353846 200.353846 200.353846 
z
" style="fill:none;stroke:#ff0000;stroke-linejoin:miter;"/>
   </g>
   <g id="patch_11">
    <path clip-path="url(#p004eb153fd)" d="M 169.2 262.661538 
C 185.724193 262.661538 201.573823 256.096407 213.258192 244.412038 
C 224.942561 232.727669 231.507692 216.878039 231.507692 200.353846 
C 231.507692 183.829653 224.942561 167.980023 213.258192 156.295654 
C 201.573823 144.611285 185.724193 138.046154 169.2 138.046154 
C 152.675807 138.046154 136.826177 144.611285 125.141808 156.295654 
C 113.457439 167.980023 106.892308 183.829653 106.892308 200.353846 
C 106.892308 216.878039 113.457439 232.727669 125.141808 244.412038 
C 136.826177 256.096407 152.675807 262.661538 169.2 262.661538 
z
" style="fill:none;stroke:#228b22;stroke-linejoin:miter;"/>
   </g>
  </g>
 </g>
 <defs>
  <clipPath id="p004eb153fd">
   <rect height="324" width="324" x="7.2" y="7.2"/>
  </clipPath>
 </defs>
</svg>
